<?plantuml 1.2026.2?><svg xmlns="http://www.w3.org/2000/svg" xmlns:xlink="http://www.w3.org/1999/xlink" contentStyleType="text/css" data-diagram-type="DESCRIPTION" height="281px" preserveAspectRatio="none" style="width:1645px;height:281px;background:#FFFFFF;" version="1.1" viewBox="0 0 1645 281" width="1645px" zoomAndPan="magnify"><defs/><g><!--cluster cancelarGeneracion--><g class="cluster" data-qualified-name="cancelarGeneracion" data-source-line="8" id="ent0006"><path d="M8.5,168 L178.4365,168 A3.75,3.75 0 0 1 180.9365,170.5 L187.9365,190.2969 L855.5,190.2969 A2.5,2.5 0 0 1 858,192.7969 L858,271.5 A2.5,2.5 0 0 1 855.5,274 L8.5,274 A2.5,2.5 0 0 1 6,271.5 L6,170.5 A2.5,2.5 0 0 1 8.5,168" fill="none" style="stroke:#000000;stroke-width:1.5;"/><line style="stroke:#000000;stroke-width:1.5;" x1="6" x2="187.9365" y1="190.2969" y2="190.2969"/><text fill="#000000" font-family="sans-serif" font-size="14" font-weight="bold" lengthAdjust="spacing" textLength="168.9365" x="10" y="182.9951">cancelarGeneracion()</text></g><!--entity CancelarGeneracionView--><g class="entity" data-qualified-name="cancelarGeneracion.CancelarGeneracionView" data-source-line="9" id="ent0007"><rect fill="#629EF9" height="36.2969" rx="2.5" ry="2.5" style="stroke:#181818;stroke-width:0.5;" width="195.6016" x="22" y="222"/><text fill="#000000" font-family="sans-serif" font-size="14" lengthAdjust="spacing" textLength="175.6016" x="32" y="244.9951">CancelarGeneracionView</text></g><!--entity ExamenesController--><g class="entity" data-qualified-name="cancelarGeneracion.ExamenesController" data-source-line="10" id="ent0008"><rect fill="#B5BD68" height="36.2969" rx="2.5" ry="2.5" style="stroke:#181818;stroke-width:0.5;" width="161.9141" x="462" y="222"/><text fill="#000000" font-family="sans-serif" font-size="14" lengthAdjust="spacing" textLength="141.9141" x="472" y="244.9951">ExamenesController</text></g><!--entity ExamGen--><g class="entity" data-qualified-name="ExamGen" data-source-line="3" id="ent0002"><rect fill="#CDEBA5" height="36.2969" rx="2.5" ry="2.5" style="stroke:#181818;stroke-width:0.5;" width="197.8643" x="877" y="222"/><text fill="#000000" font-family="sans-serif" font-size="14" lengthAdjust="spacing" textLength="177.8643" x="887" y="244.9951">:EXAMENES_GENERADOS</text></g><!--entity ExamGenCtx--><g class="entity" data-qualified-name="ExamGenCtx" data-source-line="4" id="ent0003"><rect fill="#CDEBA5" height="36.2969" rx="2.5" ry="2.5" style="stroke:#181818;stroke-width:0.5;" width="317.0283" x="1110.5" y="222"/><text fill="#000000" font-family="sans-serif" font-size="14" lengthAdjust="spacing" textLength="297.0283" x="1120.5" y="244.9951">:EXAMENES_GENERADOS_CONTEXTUALES</text></g><!--entity SistemaDisponible--><g class="entity" data-qualified-name="SistemaDisponible" data-source-line="5" id="ent0004"><rect fill="#CDEBA5" height="36.2969" rx="2.5" ry="2.5" style="stroke:#181818;stroke-width:0.5;" width="176.7822" x="1462.5" y="222"/><text fill="#000000" font-family="sans-serif" font-size="14" lengthAdjust="spacing" textLength="156.7822" x="1472.5" y="244.9951">:SISTEMA_DISPONIBLE</text></g><!--entity AsignaturaAbierto--><g class="entity" data-qualified-name="AsignaturaAbierto" data-source-line="6" id="ent0005"><rect fill="#CDEBA5" height="36.2969" rx="2.5" ry="2.5" style="stroke:#181818;stroke-width:0.5;" width="184.7666" x="27.5" y="7"/><text fill="#000000" font-family="sans-serif" font-size="14" lengthAdjust="spacing" textLength="164.7666" x="37.5" y="29.9951">:ASIGNATURA_ABIERTO</text></g><!--link ExamGen to CancelarGeneracionView--><g class="link" data-entity-1="ent0002" data-entity-2="ent0007" data-link-type="dependency" data-source-line="13" id="lnk9"><path d="M949.22,221.85 C914.41,198.24 858,160 858,160 C858,160 618,157 618,157 C618,157 476,157 476,157 C476,157 445,160 445,160 C445,160 295.026,196.9157 199.166,220.5157" fill="none" id="ExamGen-to-CancelarGeneracionView" style="stroke:#181818;stroke-width:1;"/><polygon fill="#181818" points="193.34,221.95,203.0353,223.6825,198.195,220.7547,201.1228,215.9145,193.34,221.95" style="stroke:#181818;stroke-width:1;"/><text fill="#000000" font-family="sans-serif" font-size="13" lengthAdjust="spacing" textLength="140.1372" x="477" y="148.0669">cancelarGeneracion()</text></g><!--link ExamGenCtx to CancelarGeneracionView--><g class="link" data-entity-1="ent0003" data-entity-2="ent0007" data-link-type="dependency" data-source-line="14" id="lnk10"><path d="M1229.06,221.85 C1177.14,198.24 1093,160 1093,160 C1093,160 938,157 938,157 C938,157 796,157 796,157 C796,157 445,160 445,160 C445,160 295.026,196.9157 199.166,220.5157" fill="none" id="ExamGenCtx-to-CancelarGeneracionView" style="stroke:#181818;stroke-width:1;"/><polygon fill="#181818" points="193.34,221.95,203.0353,223.6825,198.195,220.7547,201.1228,215.9145,193.34,221.95" style="stroke:#181818;stroke-width:1;"/><text fill="#000000" font-family="sans-serif" font-size="13" lengthAdjust="spacing" textLength="140.1372" x="797" y="148.0669">cancelarGeneracion()</text></g><!--link CancelarGeneracionView to ExamenesController--><g class="link" data-entity-1="ent0007" data-entity-2="ent0008" data-link-type="dependency" data-source-line="16" id="lnk11"><path d="M218.11,240 C292.06,240 386.27,240 455.75,240" fill="none" id="CancelarGeneracionView-to-ExamenesController" style="stroke:#181818;stroke-width:1;"/><polygon fill="#181818" points="461.75,240,452.75,236,456.75,240,452.75,244,461.75,240" style="stroke:#181818;stroke-width:1;"/><text fill="#000000" font-family="sans-serif" font-size="13" lengthAdjust="spacing" textLength="207.4668" x="236.5" y="233.0669">cancelarGeneracion(examenes)</text></g><!--link ExamenesController to ExamenesController--><g class="link" data-entity-1="ent0008" data-entity-2="ent0008" data-link-type="dependency" data-source-line="18" id="lnk12"><path d="M624.04,222.26 C644.07,223.54 659,229.45 659,240 C659,250.55 650.0578,256.0774 630.0278,257.3574" fill="none" id="ExamenesController-to-ExamenesController" style="stroke:#181818;stroke-width:1;"/><polygon fill="#181818" points="624.04,257.74,633.2768,261.1579,629.0298,257.4211,632.7666,253.1742,624.04,257.74" style="stroke:#181818;stroke-width:1;"/><text fill="#000000" font-family="sans-serif" font-size="13" lengthAdjust="spacing" textLength="188.4937" x="665" y="244.5669">borrarExamenesGenerados()</text></g><!--link CancelarGeneracionView to SistemaDisponible--><g class="link" data-entity-1="ent0007" data-entity-2="ent0004" data-link-type="dependency" data-source-line="20" id="lnk13"><path d="M177.71,221.89 C275.32,191.25 462.5,132.5 462.5,132.5 C462.5,132.5 1427.5,132.5 1427.5,132.5 C1427.5,132.5 1490.2841,187.151 1525.5241,217.821" fill="none" id="CancelarGeneracionView-to-SistemaDisponible" style="stroke:#181818;stroke-width:1;stroke-dasharray:7,7;"/><polygon fill="#181818" points="1530.05,221.76,1525.8871,212.8342,1526.2784,218.4775,1520.6351,218.8688,1530.05,221.76" style="stroke:#181818;stroke-width:1;"/></g><!--reverse link AsignaturaAbierto to CancelarGeneracionView--><g class="link" data-entity-1="ent0005" data-entity-2="ent0007" data-link-type="dependency" data-source-line="21" id="lnk15"><path d="M120,49.07 C120,88.95 120,181.89 120,221.85" fill="none" id="AsignaturaAbierto-backto-CancelarGeneracionView" style="stroke:#181818;stroke-width:1;stroke-dasharray:7,7;"/><polygon fill="#181818" points="120,43.07,116,52.07,120,48.07,124,52.07,120,43.07" style="stroke:#181818;stroke-width:1;"/></g><?plantuml-src dP9VQy8m5CNVyob2zp8VxCD0cJu8iSsaeEqmTVXMRkj5WZKfIMJAs7TV_JCsrph6yX18Sdudvzx4RgIgmC2MbbAXErH8ArqUZWj231OErBf4UXU4VCnwr1lo9Plnc8jiKizp5YR2es0ftyDsWkgFI1OaSSgNwO9D-HKVk7shXOX4ocSi2oFndCJHUCfFb93MuHP2QIkjP5vYAyn4D8bPkfYpZ8qZFa-J4yoiN2jmEmCibsYS9gI2OWDhf0Me0aimTI8qK4YjZe3NtBxlUFIDq7fykxZ_CE1F0neqr2yINt-Ayrw-wZ-UwgzrDj3A6LsMQCWx8PUkqAxfZcxu3MbRAlBLpt_0f5rDQvzcpbOFlCWwvngkYLi-kJO6pEV9sMsbxI-1VD_uevPVS5E-g-MDT_y0?></g></svg>