<?plantuml 1.2026.2?><svg xmlns="http://www.w3.org/2000/svg" xmlns:xlink="http://www.w3.org/1999/xlink" contentStyleType="text/css" data-diagram-type="DESCRIPTION" height="585px" preserveAspectRatio="none" style="width:1050px;height:585px;background:#FFFFFF;" version="1.1" viewBox="0 0 1050 585" width="1050px" zoomAndPan="magnify"><defs/><g><!--cluster cancelarGeneracion--><g class="cluster" data-qualified-name="cancelarGeneracion" data-source-line="5" id="ent0004"><path d="M8.5,168 L178.4365,168 A3.75,3.75 0 0 1 180.9365,170.5 L187.9365,190.2969 L270.5,190.2969 A2.5,2.5 0 0 1 273,192.7969 L273,575.5 A2.5,2.5 0 0 1 270.5,578 L8.5,578 A2.5,2.5 0 0 1 6,575.5 L6,170.5 A2.5,2.5 0 0 1 8.5,168" fill="none" style="stroke:#000000;stroke-width:1.5;"/><line style="stroke:#000000;stroke-width:1.5;" x1="6" x2="187.9365" y1="190.2969" y2="190.2969"/><text fill="#000000" font-family="sans-serif" font-size="14" font-weight="bold" lengthAdjust="spacing" textLength="168.9365" x="10" y="182.9951">cancelarGeneracion()</text></g><!--entity CancelarGeneracionView--><g class="entity" data-qualified-name="cancelarGeneracion.CancelarGeneracionView" data-source-line="6" id="ent0005"><rect fill="#629EF9" height="36.2969" rx="2.5" ry="2.5" style="stroke:#181818;stroke-width:0.5;" width="195.6016" x="61" y="203"/><text fill="#000000" font-family="sans-serif" font-size="14" lengthAdjust="spacing" textLength="175.6016" x="71" y="225.9951">CancelarGeneracionView</text></g><!--entity ExamenesController--><g class="entity" data-qualified-name="cancelarGeneracion.ExamenesController" data-source-line="7" id="ent0006"><rect fill="#B5BD68" height="36.2969" rx="2.5" ry="2.5" style="stroke:#181818;stroke-width:0.5;" width="161.9141" x="22" y="316"/><text fill="#000000" font-family="sans-serif" font-size="14" lengthAdjust="spacing" textLength="141.9141" x="32" y="338.9951">ExamenesController</text></g><!--entity ExamenRepository--><g class="entity" data-qualified-name="cancelarGeneracion.ExamenRepository" data-source-line="8" id="ent0007"><rect fill="#F2AC4E" height="36.2969" rx="2.5" ry="2.5" style="stroke:#181818;stroke-width:0.5;" width="151.9063" x="22" y="429"/><text fill="#000000" font-family="sans-serif" font-size="14" lengthAdjust="spacing" textLength="131.9063" x="32" y="451.9951">ExamenRepository</text></g><!--entity Examen--><g class="entity" data-qualified-name="cancelarGeneracion.Examen" data-source-line="9" id="ent0008"><rect fill="#F2AC4E" height="36.2969" rx="2.5" ry="2.5" style="stroke:#181818;stroke-width:0.5;" width="76.834" x="59.5" y="526"/><text fill="#000000" font-family="sans-serif" font-size="14" lengthAdjust="spacing" textLength="56.834" x="69.5" y="548.9951">Examen</text></g><!--entity ExamGen--><g class="entity" data-qualified-name="ExamGen" data-source-line="3" id="ent0002"><rect fill="#CDEBA5" height="36.2969" rx="2.5" ry="2.5" style="stroke:#181818;stroke-width:0.5;" width="197.8643" x="346" y="316"/><text fill="#000000" font-family="sans-serif" font-size="14" lengthAdjust="spacing" textLength="177.8643" x="356" y="338.9951">:EXAMENES_GENERADOS</text></g><!--entity ExamGenCtx--><g class="entity" data-qualified-name="ExamGenCtx" data-source-line="4" id="ent0003"><rect fill="#CDEBA5" height="36.2969" rx="2.5" ry="2.5" style="stroke:#181818;stroke-width:0.5;" width="317.0283" x="581.5" y="316"/><text fill="#000000" font-family="sans-serif" font-size="14" lengthAdjust="spacing" textLength="297.0283" x="591.5" y="338.9951">:EXAMENES_GENERADOS_CONTEXTUALES</text></g><!--entity SistemaDisponible--><g class="entity" data-qualified-name="SistemaDisponible" data-source-line="12" id="ent0009"><rect fill="#CDEBA5" height="36.2969" rx="2.5" ry="2.5" style="stroke:#181818;stroke-width:0.5;" width="176.7822" x="444.5" y="203"/><text fill="#000000" font-family="sans-serif" font-size="14" lengthAdjust="spacing" textLength="156.7822" x="454.5" y="225.9951">:SISTEMA_DISPONIBLE</text></g><!--entity AsignaturaAbierto--><g class="entity" data-qualified-name="AsignaturaAbierto" data-source-line="13" id="ent0010"><rect fill="#CDEBA5" height="36.2969" rx="2.5" ry="2.5" style="stroke:#181818;stroke-width:0.5;" width="184.7666" x="66.5" y="7"/><text fill="#000000" font-family="sans-serif" font-size="14" lengthAdjust="spacing" textLength="164.7666" x="76.5" y="29.9951">:ASIGNATURA_ABIERTO</text></g><!--link ExamGen to CancelarGeneracionView--><g class="link" data-entity-1="ent0002" data-entity-2="ent0005" data-link-type="dependency" data-source-line="15" id="lnk11"><path d="M373.24,315.97 C316.57,302.51 247,286 247,286 C247,286 213.5024,261.639 187.4324,242.679" fill="none" id="ExamGen-to-CancelarGeneracionView" style="stroke:#181818;stroke-width:1;"/><polygon fill="#181818" points="182.58,239.15,187.5059,247.6785,186.6237,242.0909,192.2113,241.2086,182.58,239.15" style="stroke:#181818;stroke-width:1;"/><text fill="#000000" font-family="sans-serif" font-size="13" lengthAdjust="spacing" textLength="207.4668" x="248" y="282.0669">cancelarGeneracion(examenes)</text></g><!--link CancelarGeneracionView to ExamGen--><g class="link" data-entity-1="ent0005" data-entity-2="ent0002" data-link-type="dependency" data-source-line="24" id="lnk16"><path d="M257.14,237.32 C344.98,251.04 460,269 460,269 C460,269 460,286 460,286 C460,286 456.6031,296.6337 452.3231,310.0537" fill="none" id="CancelarGeneracionView-to-ExamGen" style="stroke:#181818;stroke-width:1;stroke-dasharray:7,7;"/><polygon fill="#181818" points="450.5,315.77,457.0455,308.4109,452.0192,311.0064,449.4238,305.9801,450.5,315.77" style="stroke:#181818;stroke-width:1;"/><text fill="#000000" font-family="sans-serif" font-size="13" lengthAdjust="spacing" textLength="145.9326" x="461" y="282.0669">rechazarCancelacion()</text></g><!--link ExamGenCtx to CancelarGeneracionView--><g class="link" data-entity-1="ent0003" data-entity-2="ent0005" data-link-type="dependency" data-source-line="16" id="lnk12"><path d="M774.2,315.9 C801.08,302.46 834,286 834,286 C834,286 834,269 834,269 C834,269 450.3455,242.2869 263.1355,229.2469" fill="none" id="ExamGenCtx-to-CancelarGeneracionView" style="stroke:#181818;stroke-width:1;"/><polygon fill="#181818" points="257.15,228.83,265.8503,233.4457,262.1379,229.1774,266.4062,225.465,257.15,228.83" style="stroke:#181818;stroke-width:1;"/><text fill="#000000" font-family="sans-serif" font-size="13" lengthAdjust="spacing" textLength="207.4668" x="835" y="282.0669">cancelarGeneracion(examenes)</text></g><!--link CancelarGeneracionView to ExamGenCtx--><g class="link" data-entity-1="ent0005" data-entity-2="ent0003" data-link-type="dependency" data-source-line="25" id="lnk17"><path d="M257.1,232.11 C391.12,245.92 615,269 615,269 C615,269 664.1397,294.1549 701.1597,313.1149" fill="none" id="CancelarGeneracionView-to-ExamGenCtx" style="stroke:#181818;stroke-width:1;stroke-dasharray:7,7;"/><polygon fill="#181818" points="706.5,315.85,700.3129,308.1871,702.0497,313.5708,696.6661,315.3076,706.5,315.85" style="stroke:#181818;stroke-width:1;"/><text fill="#000000" font-family="sans-serif" font-size="13" lengthAdjust="spacing" textLength="145.9326" x="647" y="282.0669">rechazarCancelacion()</text></g><!--link CancelarGeneracionView to ExamenesController--><g class="link" data-entity-1="ent0005" data-entity-2="ent0006" data-link-type="dependency" data-source-line="18" id="lnk13"><path d="M120.8,239.1 C90.77,252.54 54,269 54,269 C54,269 54,286 54,286 C54,286 66.7216,298.1949 80.7016,311.6149" fill="none" id="CancelarGeneracionView-to-ExamenesController" style="stroke:#181818;stroke-width:1;"/><polygon fill="#181818" points="85.03,315.77,81.3074,306.6518,81.423,312.3074,75.7673,312.423,85.03,315.77" style="stroke:#181818;stroke-width:1;"/><text fill="#000000" font-family="sans-serif" font-size="13" lengthAdjust="spacing" textLength="151.9502" x="55" y="282.0669">confirmarCancelacion()</text></g><!--link ExamenRepository to Examen--><g class="link" data-entity-1="ent0007" data-entity-2="ent0008" data-link-type="association" data-source-line="20" id="lnk14"><path d="M98,465.42 C98,482.57 98,508.58 98,525.69" fill="none" id="ExamenRepository-Examen" style="stroke:#181818;stroke-width:1;"/></g><!--link ExamenesController to ExamenRepository--><g class="link" data-entity-1="ent0006" data-entity-2="ent0007" data-link-type="dependency" data-source-line="22" id="lnk15"><path d="M102.22,352.34 C101.28,373.2 99.978,401.986 99.048,422.786" fill="none" id="ExamenesController-to-ExamenRepository" style="stroke:#181818;stroke-width:1;"/><polygon fill="#181818" points="98.78,428.78,103.178,419.9677,99.0033,423.785,95.186,419.6103,98.78,428.78" style="stroke:#181818;stroke-width:1;"/><text fill="#000000" font-family="sans-serif" font-size="13" lengthAdjust="spacing" textLength="198.0659" x="102" y="395.0669">eliminarExamenes(examenes)</text></g><!--link CancelarGeneracionView to SistemaDisponible--><g class="link" data-entity-1="ent0005" data-entity-2="ent0009" data-link-type="dependency" data-source-line="26" id="lnk18"><path d="M257.26,221 C315.27,221 382.1,221 438.34,221" fill="none" id="CancelarGeneracionView-to-SistemaDisponible" style="stroke:#181818;stroke-width:1;stroke-dasharray:7,7;"/><polygon fill="#181818" points="444.34,221,435.34,217,439.34,221,435.34,225,444.34,221" style="stroke:#181818;stroke-width:1;"/><text fill="#000000" font-family="sans-serif" font-size="13" lengthAdjust="spacing" textLength="151.9502" x="275.25" y="214.0669">confirmarCancelacion()</text></g><!--reverse link AsignaturaAbierto to CancelarGeneracionView--><g class="link" data-entity-1="ent0010" data-entity-2="ent0005" data-link-type="dependency" data-source-line="27" id="lnk20"><path d="M159,49.22 C159,86.03 159,166.04 159,202.82" fill="none" id="AsignaturaAbierto-backto-CancelarGeneracionView" style="stroke:#181818;stroke-width:1;stroke-dasharray:7,7;"/><polygon fill="#181818" points="159,43.22,155,52.22,159,48.22,163,52.22,159,43.22" style="stroke:#181818;stroke-width:1;"/><text fill="#000000" font-family="sans-serif" font-size="13" lengthAdjust="spacing" textLength="151.9502" x="160" y="117.0669">confirmarCancelacion()</text></g><?plantuml-src fPB1Ru8m5CRl_IiQTj437imqquD9XMf851R0nHifsBb6Q4cfcMxP_xwgc3c1pMKSI7XytzVNttl5Xl6SI9B1b76gzZc5kKZtXmy094qKuUkKmZlBncFKWyOGBz4SkpY8flhj8ziB34WAY7Sacr9-eoMoF3V4ot21PlYRtr8xa9DaGzOK9eGdD2LIbwaa2HFy83IgvLRRWEy0wkVYz7vtW2S3Q5NKJuo-NelZNhpgFnoRqBh24bn9aQPKNWidNMJTurBeqrmKJ0cv_r46Fkf91auGuZcAR2Tuz5ndFCD74W4h5Cs8pOfSS1QdjDQC0cVged3XemYD7Uo7tj6C2hRcH6qbGJ6ZKWa0IhBGbEQe0SUmXdMBbZ3Qu6is_mW1zIvehdHY5RnE4_oPoOp8qdYQzEa-b-oXQPv1WsgE_ZkgZ6i8QSeoneay6svejDCPdRTqU9Zr2tcxxkrtfsRuPxFKzifIDF9fZDdgcCfwDCLy0W00?></g></svg>