<svg xmlns="http://www.w3.org/2000/svg" xmlns:xlink="http://www.w3.org/1999/xlink" contentStyleType="text/css" data-diagram-type="SALT" height="691px" preserveAspectRatio="none" style="width:452px;height:691px;background:#FFFFFF;" version="1.1" viewBox="0 0 452 691" width="452px" zoomAndPan="magnify"><defs/><g><text fill="#000000" font-family="sans-serif" font-size="12" font-weight="bold" lengthAdjust="spacing" textLength="226.5469" x="6" y="17.1387">ASIGNAR EX&#193;MENES GENERADOS</text><line style="stroke:#AAAAAA;stroke-width:1;" x1="6" x2="445.8086" y1="24.4688" y2="24.4688"/><line style="stroke:#AAAAAA;stroke-width:1;" x1="6" x2="445.8086" y1="26.4688" y2="26.4688"/><text fill="#000000" font-family="sans-serif" font-size="12" font-weight="bold" lengthAdjust="spacing" textLength="95.7832" x="7" y="42.1074">Destinatarios:</text><line style="stroke:#AAAAAA;stroke-width:1;stroke-dasharray:1,2;" x1="7" x2="444.8086" y1="50.4375" y2="50.4375"/><text fill="#000000" font-family="sans-serif" font-size="12" font-weight="bold" lengthAdjust="spacing" textLength="155.6895" x="7" y="66.0762">Ingenier&#237;a Inform&#225;tica:</text><line style="stroke:#AAAAAA;stroke-width:1;stroke-dasharray:1,2;" x1="8" x2="240.8086" y1="75.4063" y2="75.4063"/><text fill="#000000" font-family="sans-serif" font-size="12" lengthAdjust="spacing" textLength="137.5195" x="8" y="91.0449">B&#250;squeda de alumnos:</text><text fill="#000000" font-family="sans-serif" font-size="12" lengthAdjust="spacing" textLength="84.668" x="244.8086" y="91.0449">Nombre o DNI</text><line style="stroke:#000000;stroke-width:1;" x1="242.8086" x2="373.8086" y1="93.875" y2="93.875"/><line style="stroke:#000000;stroke-width:1;" x1="242.8086" x2="242.8086" y1="90.875" y2="92.875"/><line style="stroke:#000000;stroke-width:1;" x1="373.8086" x2="373.8086" y1="90.875" y2="92.875"/><rect fill="#EEEEEE" height="17.9688" rx="5" ry="5" style="stroke:#000000;stroke-width:2.5;" width="52" x="380.3086" y="82.4063"/><text fill="#000000" font-family="sans-serif" font-size="12" lengthAdjust="spacing" textLength="40.9746" x="385.8213" y="95.5449">Buscar</text><line style="stroke:#AAAAAA;stroke-width:1;stroke-dasharray:1,2;" x1="8" x2="240.8086" y1="108.375" y2="108.375"/><text fill="#000000" font-family="sans-serif" font-size="12" lengthAdjust="spacing" textLength="106.5527" x="28" y="124.0137">Seleccionar todos</text><rect fill="none" height="10" style="stroke:#000000;stroke-width:1.5;" width="10" x="10" y="114.8594"/><polygon fill="#000000" points="11,118.875,14,121.875,21,112.875,14,119.875" style="stroke:#000000;stroke-width:1.5;"/><line style="stroke:#AAAAAA;stroke-width:1;stroke-dasharray:1,2;" x1="8" x2="240.8086" y1="132.3438" y2="132.3438"/><text fill="#000000" font-family="sans-serif" font-size="12" lengthAdjust="spacing" textLength="231.8086" x="8" y="147.9824">Alumnos seleccionados manualmente:</text><text fill="#000000" font-family="sans-serif" font-size="12" lengthAdjust="spacing" textLength="60.2168" x="29" y="164.9512">Ana P&#233;rez</text><rect fill="none" height="10" style="stroke:#000000;stroke-width:1.5;" width="10" x="11" y="155.7969"/><polygon fill="#000000" points="12,159.8125,15,162.8125,22,153.8125,15,160.8125" style="stroke:#000000;stroke-width:1.5;"/><text fill="#000000" font-family="sans-serif" font-size="12" lengthAdjust="spacing" textLength="69.7031" x="29" y="180.9199">Luis G&#243;mez</text><rect fill="none" height="10" style="stroke:#000000;stroke-width:1.5;" width="10" x="11" y="171.7656"/><polygon fill="#000000" points="12,175.7813,15,178.7813,22,169.7813,15,176.7813" style="stroke:#000000;stroke-width:1.5;"/><text fill="#000000" font-family="sans-serif" font-size="12" lengthAdjust="spacing" textLength="100.2246" x="29" y="196.8887">Mar&#237;a Fern&#225;ndez</text><rect fill="none" height="10" style="stroke:#000000;stroke-width:1.5;" width="10" x="11" y="187.7344"/><polygon fill="#000000" points="12,191.75,15,194.75,22,185.75,15,192.75" style="stroke:#000000;stroke-width:1.5;"/><text fill="#000000" font-family="sans-serif" font-size="12" lengthAdjust="spacing" textLength="75.6328" x="29" y="212.8574">Javier Torres</text><rect fill="none" height="10" style="stroke:#000000;stroke-width:1.5;" width="10" x="11" y="203.7031"/><polygon fill="#000000" points="12,207.7188,15,210.7188,22,201.7188,15,208.7188" style="stroke:#000000;stroke-width:1.5;"/><text fill="#000000" font-family="sans-serif" font-size="12" lengthAdjust="spacing" textLength="71.3086" x="29" y="228.8262">Elena Rubio</text><rect fill="none" height="10" style="stroke:#000000;stroke-width:1.5;" width="10" x="11" y="219.6719"/><polygon fill="#000000" points="12,223.6875,15,226.6875,22,217.6875,15,224.6875" style="stroke:#000000;stroke-width:1.5;"/><text fill="#000000" font-family="sans-serif" font-size="12" lengthAdjust="spacing" textLength="70.2773" x="29" y="244.7949">Pablo Mar&#237;n</text><rect fill="none" height="10" style="stroke:#000000;stroke-width:1.5;" width="10" x="11" y="235.6406"/><polygon fill="#000000" points="12,239.6563,15,242.6563,22,233.6563,15,240.6563" style="stroke:#000000;stroke-width:1.5;"/><text fill="#000000" font-family="sans-serif" font-size="12" lengthAdjust="spacing" textLength="72.6504" x="29" y="260.7637">Sof&#237;a Castro</text><rect fill="none" height="10" style="stroke:#000000;stroke-width:1.5;" width="10" x="11" y="251.6094"/><polygon fill="#000000" points="12,255.625,15,258.625,22,249.625,15,256.625" style="stroke:#000000;stroke-width:1.5;"/><text fill="#000000" font-family="sans-serif" font-size="12" lengthAdjust="spacing" textLength="67.5469" x="29" y="276.7324">Daniel Vico</text><rect fill="none" height="10" style="stroke:#000000;stroke-width:1.5;" width="10" x="11" y="267.5781"/><polygon fill="#000000" points="12,271.5938,15,274.5938,22,265.5938,15,272.5938" style="stroke:#000000;stroke-width:1.5;"/><text fill="#000000" font-family="sans-serif" font-size="12" lengthAdjust="spacing" textLength="76.7344" x="29" y="292.7012">Carmen Ruiz</text><rect fill="none" height="10" style="stroke:#000000;stroke-width:1.5;" width="10" x="11" y="283.5469"/><polygon fill="#000000" points="12,287.5625,15,290.5625,22,281.5625,15,288.5625" style="stroke:#000000;stroke-width:1.5;"/><line style="stroke:#000000;stroke-width:1;" x1="8" x2="130.2246" y1="152.8125" y2="152.8125"/><line style="stroke:#000000;stroke-width:1;" x1="8" x2="130.2246" y1="296.5313" y2="296.5313"/><line style="stroke:#000000;stroke-width:1;" x1="8" x2="8" y1="152.8125" y2="168.7813"/><line style="stroke:#000000;stroke-width:1;" x1="130.2246" x2="130.2246" y1="152.8125" y2="168.7813"/><line style="stroke:#000000;stroke-width:1;" x1="8" x2="8" y1="264.5938" y2="280.5625"/><line style="stroke:#000000;stroke-width:1;" x1="130.2246" x2="130.2246" y1="264.5938" y2="280.5625"/><line style="stroke:#000000;stroke-width:1;" x1="8" x2="8" y1="232.6563" y2="248.625"/><line style="stroke:#000000;stroke-width:1;" x1="130.2246" x2="130.2246" y1="232.6563" y2="248.625"/><line style="stroke:#000000;stroke-width:1;" x1="8" x2="8" y1="200.7188" y2="216.6875"/><line style="stroke:#000000;stroke-width:1;" x1="130.2246" x2="130.2246" y1="200.7188" y2="216.6875"/><line style="stroke:#000000;stroke-width:1;" x1="8" x2="8" y1="168.7813" y2="184.75"/><line style="stroke:#000000;stroke-width:1;" x1="130.2246" x2="130.2246" y1="168.7813" y2="184.75"/><line style="stroke:#000000;stroke-width:1;" x1="8" x2="8" y1="280.5625" y2="296.5313"/><line style="stroke:#000000;stroke-width:1;" x1="130.2246" x2="130.2246" y1="280.5625" y2="296.5313"/><line style="stroke:#000000;stroke-width:1;" x1="8" x2="8" y1="248.625" y2="264.5938"/><line style="stroke:#000000;stroke-width:1;" x1="130.2246" x2="130.2246" y1="248.625" y2="264.5938"/><line style="stroke:#000000;stroke-width:1;" x1="8" x2="8" y1="216.6875" y2="232.6563"/><line style="stroke:#000000;stroke-width:1;" x1="130.2246" x2="130.2246" y1="216.6875" y2="232.6563"/><line style="stroke:#000000;stroke-width:1;" x1="8" x2="8" y1="184.75" y2="200.7188"/><line style="stroke:#000000;stroke-width:1;" x1="130.2246" x2="130.2246" y1="184.75" y2="200.7188"/><rect fill="none" height="143.7188" style="stroke:#000000;stroke-width:1;" width="15" x="134.2246" y="152.8125"/><line style="stroke:#000000;stroke-width:1;" x1="134.2246" x2="149.2246" y1="164.8125" y2="164.8125"/><line style="stroke:#000000;stroke-width:1;" x1="134.2246" x2="149.2246" y1="284.5313" y2="284.5313"/><path d="M141.2246,156.8125 L144.2246,161.8125 L138.2246,161.8125 L141.2246,156.8125" fill="#000000"/><path d="M141.2246,293.5313 L144.2246,288.5313 L138.2246,288.5313 L141.2246,293.5313" fill="#000000"/><line style="stroke:#AAAAAA;stroke-width:1;stroke-dasharray:1,2;" x1="8" x2="240.8086" y1="302.0313" y2="302.0313"/><text fill="#000000" font-family="sans-serif" font-size="12" lengthAdjust="spacing" textLength="196.125" x="8" y="317.6699">Total de alumnos seleccionados:</text><text fill="#000000" font-family="sans-serif" font-size="12" font-weight="bold" lengthAdjust="spacing" textLength="16.6992" x="207.9395" y="317.6699">45</text><line style="stroke:#AAAAAA;stroke-width:1;" x1="7" x2="444.8086" y1="327" y2="327"/><text fill="#000000" font-family="sans-serif" font-size="12" font-weight="bold" lengthAdjust="spacing" textLength="256.541" x="7" y="342.6387">Ingenier&#237;a de Organizaci&#243;n Industrial:</text><line style="stroke:#AAAAAA;stroke-width:1;stroke-dasharray:1,2;" x1="8" x2="240.8086" y1="351.9688" y2="351.9688"/><text fill="#000000" font-family="sans-serif" font-size="12" lengthAdjust="spacing" textLength="137.5195" x="8" y="367.6074">B&#250;squeda de alumnos:</text><text fill="#000000" font-family="sans-serif" font-size="12" lengthAdjust="spacing" textLength="84.668" x="244.8086" y="367.6074">Nombre o DNI</text><line style="stroke:#000000;stroke-width:1;" x1="242.8086" x2="381.8086" y1="370.4375" y2="370.4375"/><line style="stroke:#000000;stroke-width:1;" x1="242.8086" x2="242.8086" y1="367.4375" y2="369.4375"/><line style="stroke:#000000;stroke-width:1;" x1="381.8086" x2="381.8086" y1="367.4375" y2="369.4375"/><rect fill="#EEEEEE" height="17.9688" rx="5" ry="5" style="stroke:#000000;stroke-width:2.5;" width="52" x="388.3086" y="358.9688"/><text fill="#000000" font-family="sans-serif" font-size="12" lengthAdjust="spacing" textLength="40.9746" x="393.8213" y="372.1074">Buscar</text><line style="stroke:#AAAAAA;stroke-width:1;stroke-dasharray:1,2;" x1="8" x2="240.8086" y1="384.9375" y2="384.9375"/><text fill="#000000" font-family="sans-serif" font-size="12" lengthAdjust="spacing" textLength="106.5527" x="28" y="400.5762">Seleccionar todos</text><rect fill="none" height="10" style="stroke:#000000;stroke-width:1.5;" width="10" x="10" y="391.4219"/><polygon fill="#000000" points="11,395.4375,14,398.4375,21,389.4375,14,396.4375" style="stroke:#000000;stroke-width:1.5;"/><line style="stroke:#AAAAAA;stroke-width:1;stroke-dasharray:1,2;" x1="8" x2="240.8086" y1="408.9063" y2="408.9063"/><text fill="#000000" font-family="sans-serif" font-size="12" lengthAdjust="spacing" textLength="231.8086" x="8" y="424.5449">Alumnos seleccionados manualmente:</text><text fill="#000000" font-family="sans-serif" font-size="12" lengthAdjust="spacing" textLength="69.123" x="29" y="441.5137">Marta Soler</text><rect fill="none" height="10" style="stroke:#000000;stroke-width:1.5;" width="10" x="11" y="432.3594"/><polygon fill="#000000" points="12,436.375,15,439.375,22,430.375,15,437.375" style="stroke:#000000;stroke-width:1.5;"/><text fill="#000000" font-family="sans-serif" font-size="12" lengthAdjust="spacing" textLength="63.7266" x="29" y="457.4824">David R&#237;os</text><rect fill="none" height="10" style="stroke:#000000;stroke-width:1.5;" width="10" x="11" y="448.3281"/><polygon fill="#000000" points="12,452.3438,15,455.3438,22,446.3438,15,453.3438" style="stroke:#000000;stroke-width:1.5;"/><text fill="#000000" font-family="sans-serif" font-size="12" lengthAdjust="spacing" textLength="68.3086" x="29" y="473.4512">Laura Vega</text><rect fill="none" height="10" style="stroke:#000000;stroke-width:1.5;" width="10" x="11" y="464.2969"/><polygon fill="#000000" points="12,468.3125,15,471.3125,22,462.3125,15,469.3125" style="stroke:#000000;stroke-width:1.5;"/><text fill="#000000" font-family="sans-serif" font-size="12" lengthAdjust="spacing" textLength="64.2773" x="29" y="489.4199">Hugo Sanz</text><rect fill="none" height="10" style="stroke:#000000;stroke-width:1.5;" width="10" x="11" y="480.2656"/><polygon fill="#000000" points="12,484.2813,15,487.2813,22,478.2813,15,485.2813" style="stroke:#000000;stroke-width:1.5;"/><text fill="#000000" font-family="sans-serif" font-size="12" lengthAdjust="spacing" textLength="68.4375" x="29" y="505.3887">Paula Nieto</text><rect fill="none" height="10" style="stroke:#000000;stroke-width:1.5;" width="10" x="11" y="496.2344"/><polygon fill="#000000" points="12,500.25,15,503.25,22,494.25,15,501.25" style="stroke:#000000;stroke-width:1.5;"/><text fill="#000000" font-family="sans-serif" font-size="12" lengthAdjust="spacing" textLength="81.3281" x="29" y="521.3574">Rub&#233;n Castro</text><rect fill="none" height="10" style="stroke:#000000;stroke-width:1.5;" width="10" x="11" y="512.2031"/><polygon fill="#000000" points="12,516.2188,15,519.2188,22,510.2188,15,517.2188" style="stroke:#000000;stroke-width:1.5;"/><text fill="#000000" font-family="sans-serif" font-size="12" lengthAdjust="spacing" textLength="81.8789" x="29" y="537.3262">Andrea Bravo</text><rect fill="none" height="10" style="stroke:#000000;stroke-width:1.5;" width="10" x="11" y="528.1719"/><polygon fill="#000000" points="12,532.1875,15,535.1875,22,526.1875,15,533.1875" style="stroke:#000000;stroke-width:1.5;"/><text fill="#000000" font-family="sans-serif" font-size="12" lengthAdjust="spacing" textLength="64.207" x="29" y="553.2949">Jorge Pe&#241;a</text><rect fill="none" height="10" style="stroke:#000000;stroke-width:1.5;" width="10" x="11" y="544.1406"/><polygon fill="#000000" points="12,548.1563,15,551.1563,22,542.1563,15,549.1563" style="stroke:#000000;stroke-width:1.5;"/><text fill="#000000" font-family="sans-serif" font-size="12" lengthAdjust="spacing" textLength="61.3945" x="29" y="569.2637">Clara D&#237;az</text><rect fill="none" height="10" style="stroke:#000000;stroke-width:1.5;" width="10" x="11" y="560.1094"/><polygon fill="#000000" points="12,564.125,15,567.125,22,558.125,15,565.125" style="stroke:#000000;stroke-width:1.5;"/><line style="stroke:#000000;stroke-width:1;" x1="8" x2="111.8789" y1="429.375" y2="429.375"/><line style="stroke:#000000;stroke-width:1;" x1="8" x2="111.8789" y1="573.0938" y2="573.0938"/><line style="stroke:#000000;stroke-width:1;" x1="8" x2="8" y1="429.375" y2="445.3438"/><line style="stroke:#000000;stroke-width:1;" x1="111.8789" x2="111.8789" y1="429.375" y2="445.3438"/><line style="stroke:#000000;stroke-width:1;" x1="8" x2="8" y1="541.1563" y2="557.125"/><line style="stroke:#000000;stroke-width:1;" x1="111.8789" x2="111.8789" y1="541.1563" y2="557.125"/><line style="stroke:#000000;stroke-width:1;" x1="8" x2="8" y1="509.2188" y2="525.1875"/><line style="stroke:#000000;stroke-width:1;" x1="111.8789" x2="111.8789" y1="509.2188" y2="525.1875"/><line style="stroke:#000000;stroke-width:1;" x1="8" x2="8" y1="477.2813" y2="493.25"/><line style="stroke:#000000;stroke-width:1;" x1="111.8789" x2="111.8789" y1="477.2813" y2="493.25"/><line style="stroke:#000000;stroke-width:1;" x1="8" x2="8" y1="445.3438" y2="461.3125"/><line style="stroke:#000000;stroke-width:1;" x1="111.8789" x2="111.8789" y1="445.3438" y2="461.3125"/><line style="stroke:#000000;stroke-width:1;" x1="8" x2="8" y1="557.125" y2="573.0938"/><line style="stroke:#000000;stroke-width:1;" x1="111.8789" x2="111.8789" y1="557.125" y2="573.0938"/><line style="stroke:#000000;stroke-width:1;" x1="8" x2="8" y1="525.1875" y2="541.1563"/><line style="stroke:#000000;stroke-width:1;" x1="111.8789" x2="111.8789" y1="525.1875" y2="541.1563"/><line style="stroke:#000000;stroke-width:1;" x1="8" x2="8" y1="493.25" y2="509.2188"/><line style="stroke:#000000;stroke-width:1;" x1="111.8789" x2="111.8789" y1="493.25" y2="509.2188"/><line style="stroke:#000000;stroke-width:1;" x1="8" x2="8" y1="461.3125" y2="477.2813"/><line style="stroke:#000000;stroke-width:1;" x1="111.8789" x2="111.8789" y1="461.3125" y2="477.2813"/><rect fill="none" height="143.7188" style="stroke:#000000;stroke-width:1;" width="15" x="115.8789" y="429.375"/><line style="stroke:#000000;stroke-width:1;" x1="115.8789" x2="130.8789" y1="441.375" y2="441.375"/><line style="stroke:#000000;stroke-width:1;" x1="115.8789" x2="130.8789" y1="561.0938" y2="561.0938"/><path d="M122.8789,433.375 L125.8789,438.375 L119.8789,438.375 L122.8789,433.375" fill="#000000"/><path d="M122.8789,570.0938 L125.8789,565.0938 L119.8789,565.0938 L122.8789,570.0938" fill="#000000"/><line style="stroke:#AAAAAA;stroke-width:1;stroke-dasharray:1,2;" x1="8" x2="240.8086" y1="578.5938" y2="578.5938"/><text fill="#000000" font-family="sans-serif" font-size="12" lengthAdjust="spacing" textLength="196.125" x="8" y="594.2324">Total de alumnos seleccionados:</text><text fill="#000000" font-family="sans-serif" font-size="12" font-weight="bold" lengthAdjust="spacing" textLength="16.6992" x="207.9395" y="594.2324">40</text><line style="stroke:#AAAAAA;stroke-width:1.5;" x1="7" x2="444.8086" y1="603.5625" y2="603.5625"/><text fill="#000000" font-family="sans-serif" font-size="12" font-style="italic" lengthAdjust="spacing" textLength="435.5625" x="7" y="635.1699">El sistema generar&#225; una clave alfanum&#233;rica al examen de cada alumno.</text><line style="stroke:#AAAAAA;stroke-width:1.5;" x1="7" x2="444.8086" y1="643.5" y2="643.5"/><rect fill="#EEEEEE" height="17.9688" rx="5" ry="5" style="stroke:#000000;stroke-width:2.5;" width="132" x="10.5" y="667.4688"/><text fill="#000000" font-family="sans-serif" font-size="12" lengthAdjust="spacing" textLength="111.2695" x="20.8652" y="680.6074">Asignar ex&#225;menes</text><rect fill="#EEEEEE" height="17.9688" rx="5" ry="5" style="stroke:#000000;stroke-width:2.5;" width="44" x="149.5" y="667.4688"/><text fill="#000000" font-family="sans-serif" font-size="12" lengthAdjust="spacing" textLength="26.5723" x="158.2139" y="680.6074">Salir</text><rect fill="none" height="143.7188" style="stroke:#000000;stroke-width:1;" width="15" x="134.2246" y="152.8125"/><line style="stroke:#000000;stroke-width:1;" x1="134.2246" x2="149.2246" y1="164.8125" y2="164.8125"/><line style="stroke:#000000;stroke-width:1;" x1="134.2246" x2="149.2246" y1="284.5313" y2="284.5313"/><path d="M141.2246,156.8125 L144.2246,161.8125 L138.2246,161.8125 L141.2246,156.8125" fill="#000000"/><path d="M141.2246,293.5313 L144.2246,288.5313 L138.2246,288.5313 L141.2246,293.5313" fill="#000000"/><rect fill="none" height="143.7188" style="stroke:#000000;stroke-width:1;" width="15" x="115.8789" y="429.375"/><line style="stroke:#000000;stroke-width:1;" x1="115.8789" x2="130.8789" y1="441.375" y2="441.375"/><line style="stroke:#000000;stroke-width:1;" x1="115.8789" x2="130.8789" y1="561.0938" y2="561.0938"/><path d="M122.8789,433.375 L125.8789,438.375 L119.8789,438.375 L122.8789,433.375" fill="#000000"/><path d="M122.8789,570.0938 L125.8789,565.0938 L119.8789,565.0938 L122.8789,570.0938" fill="#000000"/><!--SRC=[pLN9JXj14BtFLvHoWeCTWqoKM83mXcFYJHvZ8I4hAi-qHotrT2UzM8a9IFaK7pbmYBZbEZ-M6flO60yeXqHA7sPxjRofUbrzOYngQr1OGCCZYRh-1MCccVbuskstprlbVhFhNNb0wt1yNFQRZKwv3_MBv7kxtgdxqA1hlrph-eUlnySBiwEZeyLzwPIkrGD5g35ZkKJAofKfhPpIbSy_DcpAY4dET7A7q9GJfUDaRdc0cpxh94yYfAkI_3IV7GiHGWOeN2mf9No3LnqLZpK31RLECpLyHHylAyu4g4Sl1Roy687F10i2hgXKO5Mep4iEvMLIC2idSe0OfKD1LRQij65-vJSttfSPonAXbzngDii0MuuRQ2JtSIRQnaNzJfcMoLo6cJPdEAKomq1fpKm6NXUC2FJTcAiCj8TZePPvP0RigqbAe8h6wYpt6bAF1Gnva8LMKLELA3VV97xzKiq7og9urF7DufTIRHKFDaIq3fVBFIT1YjVL4R6TOS2JUqcQ31tz54VnBnJvtqhoGLKMgRM2QM-xeLCUGZ-vUy9YeLLq6c788jo2thj8WOzovcqBp0c43cTMRM4aokHMPgbhkMz2pH0g6gVRu9dI4OCUItviawaA99urQllC-skIApmZkTN3pSrw4gvLo8_h0WmtbiK894UcQQlDmT6M30HEqvGJwbrCyu668xq1Mmpmb4s08JvGolzXlglByl8Oe339V74GZ58b-YYu7YrPNtlNtWcJONfgU5vFeBJdxHPCcJRqnx2Nto_i7-Jt2Zi3nw2Zfb0embwXj5ye5Tz1snz0YkzwEurU2unoEc0GydGhZPsb0BiUJQHqu4ZBOrQ2xYScpseVVd-0kfnohMIgLUzis5uRl2dcAjpIRj141OPjhyOc91vB7e4AkOnAS3uupRtrMYWZXn75PjAhAeghlvP0EY5-0G00]--></g></svg>