<svg xmlns="http://www.w3.org/2000/svg" xmlns:xlink="http://www.w3.org/1999/xlink" contentStyleType="text/css" data-diagram-type="STATE" height="587px" preserveAspectRatio="none" style="width:607px;height:587px;background:#FFFFFF;" version="1.1" viewBox="0 0 607 587" width="607px" zoomAndPan="magnify"><defs/><g><path d="M19.5,117 L581.5,117 A12.5,12.5 0 0 1 594,129.5 L594,143.2969 L7,143.2969 L7,129.5 A12.5,12.5 0 0 1 19.5,117" fill="#F1F1F1"/><rect fill="none" height="354.2969" rx="12.5" ry="12.5" style="stroke:#181818;stroke-width:0.5;" width="587" x="7" y="117"/><line style="stroke:#181818;stroke-width:0.5;" x1="7" x2="594" y1="143.2969" y2="143.2969"/><text fill="#000000" font-family="sans-serif" font-size="14" lengthAdjust="spacing" textLength="116.6689" x="242.1655" y="134.9951">verAsignaturas()</text><g id="verAsignaturas.MostrandoAsignaturas"><rect fill="#F1F1F1" height="50" rx="12.5" ry="12.5" style="stroke:#181818;stroke-width:0.5;" width="50" x="19" y="245.2969"/><line style="stroke:#181818;stroke-width:0.5;" x1="19" x2="69" y1="271.5938" y2="271.5938"/><text fill="#000000" font-family="sans-serif" font-size="14" lengthAdjust="spacing" textLength="4.4502" x="41.7749" y="263.292">&#160;</text></g><g id="verAsignaturas.FiltrandoAsignaturas"><rect fill="#F1F1F1" height="50" rx="12.5" ry="12.5" style="stroke:#181818;stroke-width:0.5;" width="50" x="19" y="411.2969"/><line style="stroke:#181818;stroke-width:0.5;" x1="19" x2="69" y1="437.5938" y2="437.5938"/><text fill="#000000" font-family="sans-serif" font-size="14" lengthAdjust="spacing" textLength="4.4502" x="41.7749" y="429.292">&#160;</text></g><ellipse cx="44" cy="164.2969" fill="#222222" rx="10" ry="10" style="stroke:#222222;stroke-width:1;"/><!--link *start*verAsignaturas to MostrandoAsignaturas--><g class="link" data-entity-1=".start.verAsignaturas" data-entity-2="MostrandoAsignaturas" data-source-line="8" data-uid="lnk3" id="link_.start.verAsignaturas_MostrandoAsignaturas"><path d="M44,174.5269 C44,190.2369 44,216.6569 44,239.1669" fill="none" id="*start*verAsignaturas-to-MostrandoAsignaturas" style="stroke:#008000;stroke-width:1;"/><polygon fill="#008000" points="44,245.1669,48,236.1669,44,240.1669,40,236.1669,44,245.1669" style="stroke:#008000;stroke-width:1;"/><path d="M49,197.2969 L49,222.2969 L285,222.2969 L285,207.2969 L275,197.2969 L49,197.2969" fill="#FEFFDD" style="stroke:#181818;stroke-width:0.5;"/><path d="M275,197.2969 L275,207.2969 L285,207.2969 L275,197.2969" fill="#FEFFDD" style="stroke:#181818;stroke-width:0.5;"/><text fill="#000000" font-family="sans-serif" font-size="13" font-weight="bold" lengthAdjust="spacing" textLength="60.5313" x="55" y="214.3638">Docente</text><text fill="#000000" font-family="sans-serif" font-size="13" lengthAdjust="spacing" textLength="151.3027" x="119.6636" y="214.3638">solicita ver asignaturas</text></g><!--link MostrandoAsignaturas to FiltrandoAsignaturas--><g class="link" data-entity-1="MostrandoAsignaturas" data-entity-2="FiltrandoAsignaturas" data-source-line="13" data-uid="lnk4" id="link_MostrandoAsignaturas_FiltrandoAsignaturas"><path d="M44,295.4969 C44,326.5869 44,374.2469 44,405.2669" fill="none" id="MostrandoAsignaturas-to-FiltrandoAsignaturas" style="stroke:#008000;stroke-width:1;"/><polygon fill="#008000" points="44,411.2669,48,402.2669,44,406.2669,40,402.2669,44,411.2669" style="stroke:#008000;stroke-width:1;"/><path d="M49,318.2969 L49,388.2969 L585,388.2969 L585,328.2969 L575,318.2969 L49,318.2969" fill="#FEFFDD" style="stroke:#181818;stroke-width:0.5;"/><path d="M575,318.2969 L575,328.2969 L585,328.2969 L575,318.2969" fill="#FEFFDD" style="stroke:#181818;stroke-width:0.5;"/><text fill="#000000" font-family="sans-serif" font-size="13" font-weight="bold" lengthAdjust="spacing" textLength="58.9063" x="55" y="335.3638">Sistema</text><text fill="#000000" font-family="sans-serif" font-size="13" lengthAdjust="spacing" textLength="189.6045" x="118.0386" y="335.3638">presenta lista de asignaturas</text><text fill="#000000" font-family="sans-serif" font-size="13" lengthAdjust="spacing" textLength="515.2329" x="55" y="350.4966">&#8226; Nombre, c&#243;digo, curso acad&#233;mico, alumnos matriculados y grados asociados</text><text fill="#000000" font-family="sans-serif" font-size="13" lengthAdjust="spacing" textLength="4.1323" x="55" y="365.6294">&#160;</text><text fill="#000000" font-family="sans-serif" font-size="13" lengthAdjust="spacing" textLength="188.481" x="55" y="380.7622">&#8226; Permite solicitar filtrar lista</text></g><!--link FiltrandoAsignaturas to FiltrandoAsignaturas--><g class="link" data-entity-1="FiltrandoAsignaturas" data-entity-2="FiltrandoAsignaturas" data-source-line="21" data-uid="lnk5" id="link_FiltrandoAsignaturas_FiltrandoAsignaturas"><path d="M69.18,420.9869 C78.91,420.2969 87,425.4069 87,436.2969 C87,447.1869 84.895,452.7213 75.165,452.0313" fill="none" id="FiltrandoAsignaturas-to-FiltrandoAsignaturas" style="stroke:#008000;stroke-width:1;"/><polygon fill="#008000" points="69.18,451.6069,77.8745,456.2335,74.1675,451.9606,78.4404,448.2535,69.18,451.6069" style="stroke:#008000;stroke-width:1;"/><path d="M92,416.2969 L92,456.2969 L315,456.2969 L315,426.2969 L305,416.2969 L92,416.2969" fill="#FEFFDD" style="stroke:#181818;stroke-width:0.5;"/><path d="M305,416.2969 L305,426.2969 L315,426.2969 L305,416.2969" fill="#FEFFDD" style="stroke:#181818;stroke-width:0.5;"/><text fill="#000000" font-family="sans-serif" font-size="13" font-weight="bold" lengthAdjust="spacing" textLength="60.5313" x="98" y="433.3638">Docente</text><text fill="#000000" font-family="sans-serif" font-size="13" lengthAdjust="spacing" textLength="116.6509" x="162.6636" y="433.3638">solicita filtrar lista</text><text fill="#000000" font-family="sans-serif" font-size="13" font-weight="bold" lengthAdjust="spacing" textLength="58.9063" x="98" y="448.4966">Sistema</text><text fill="#000000" font-family="sans-serif" font-size="13" lengthAdjust="spacing" textLength="139.4199" x="161.0386" y="448.4966">presenta lista filtrada</text></g><g id="SISTEMA_DISPONIBLE"><rect fill="#F1F1F1" height="50" rx="12.5" ry="12.5" style="stroke:#181818;stroke-width:0.5;" width="172.0654" x="109.5" y="7"/><line style="stroke:#181818;stroke-width:0.5;" x1="109.5" x2="281.5654" y1="33.2969" y2="33.2969"/><text fill="#000000" font-family="sans-serif" font-size="14" lengthAdjust="spacing" textLength="152.0654" x="119.5" y="24.9951">SISTEMA_DISPONIBLE</text></g><g id="ASIGNATURA_ABIERTO"><rect fill="#F1F1F1" height="50" rx="12.5" ry="12.5" style="stroke:#181818;stroke-width:0.5;" width="180.0498" x="316.5" y="7"/><line style="stroke:#181818;stroke-width:0.5;" x1="316.5" x2="496.5498" y1="33.2969" y2="33.2969"/><text fill="#000000" font-family="sans-serif" font-size="14" lengthAdjust="spacing" textLength="160.0498" x="326.5" y="24.9951">ASIGNATURA_ABIERTO</text></g><g id="ASIGNATURAS_ABIERTO"><rect fill="#F1F1F1" height="50" rx="12.5" ry="12.5" style="stroke:#181818;stroke-width:0.5;" width="188.9365" x="206" y="531"/><line style="stroke:#181818;stroke-width:0.5;" x1="206" x2="394.9365" y1="557.2969" y2="557.2969"/><text fill="#000000" font-family="sans-serif" font-size="14" lengthAdjust="spacing" textLength="168.9365" x="216" y="548.9951">ASIGNATURAS_ABIERTO</text></g><!--link SISTEMA_DISPONIBLE to verAsignaturas--><g class="link" data-entity-1="SISTEMA_DISPONIBLE" data-entity-2="verAsignaturas" data-source-line="28" data-uid="lnk7" id="link_SISTEMA_DISPONIBLE_verAsignaturas"><path d="M205.38,57.46 C211.5,72.63 217.7319,88.0671 227.1319,111.3271" fill="none" id="SISTEMA_DISPONIBLE-to-verAsignaturas" style="stroke:#008000;stroke-width:1;"/><polygon fill="#008000" points="229.38,116.89,229.7164,107.0469,227.5066,112.2542,222.2992,110.0444,229.38,116.89" style="stroke:#008000;stroke-width:1;"/></g><!--link ASIGNATURA_ABIERTO to verAsignaturas--><g class="link" data-entity-1="ASIGNATURA_ABIERTO" data-entity-2="verAsignaturas" data-source-line="30" data-uid="lnk9" id="link_ASIGNATURA_ABIERTO_verAsignaturas"><path d="M396.53,57.46 C390.34,72.63 384.0445,88.0738 374.5645,111.3338" fill="none" id="ASIGNATURA_ABIERTO-to-verAsignaturas" style="stroke:#008000;stroke-width:1;"/><polygon fill="#008000" points="372.3,116.89,379.401,110.0653,374.1871,112.2598,371.9926,107.0459,372.3,116.89" style="stroke:#008000;stroke-width:1;"/></g><!--link verAsignaturas to ASIGNATURAS_ABIERTO--><g class="link" data-entity-1="verAsignaturas" data-entity-2="ASIGNATURAS_ABIERTO" data-source-line="32" data-uid="lnk11" id="link_verAsignaturas_ASIGNATURAS_ABIERTO"><path d="M300.5,471.3 C300.5,494.67 300.5,509.74 300.5,524.89" fill="none" id="verAsignaturas-to-ASIGNATURAS_ABIERTO" style="stroke:#008000;stroke-width:1;"/><polygon fill="#008000" points="300.5,530.89,304.5,521.89,300.5,525.89,296.5,521.89,300.5,530.89" style="stroke:#008000;stroke-width:1;"/></g><!--SRC=[dPFVIiCm5CRlynI7UQFYy0N6e6DJ2kuFwxmQGywIOmbhavAamX31P_7EQnzXR-AJcBRChMlTXMae9uSlNtxdfBKRgJ8qc48Y5RbjHf3fP5ii6BCE7S4BcS3AMA7B3LhmirDFNLvru9KnyAFQqV6FbusrTGQLq4VQfkfE9arLALjUhw2xl8WDaLfr-wr-K2gLzdvQ5JLioaHltHzgJifHxtRT1wiJoQN3eXP_Pfs6bAWC_62_hzR3ZcbQkV-2YQHrb689ancodWozm3S213M8ljy_OABJjQ4RuBil8MFjWznO3SXHx3vJoNq6apnLsaAApaYU9oZyOWknAGEqciiYEjHK-Cx8fD83xbjYuBain5GujOuSThOL-_zkj5vD4-DytogzE25-OomAeyLe73mDmsWsdOI3Xr6DjFxjCXP4uVqaM3pEWwTW48xcY-bP-SdVS2mzE4Lxgny0]--></g></svg>