<?plantuml 1.2026.2?><svg xmlns="http://www.w3.org/2000/svg" xmlns:xlink="http://www.w3.org/1999/xlink" contentStyleType="text/css" data-diagram-type="SEQUENCE" height="1228px" preserveAspectRatio="none" style="width:1933px;height:1228px;background:#FFFFFF;" version="1.1" viewBox="0 0 1933 1228" width="1933px" zoomAndPan="magnify"><title>Diagrama de Secuencia - Eliminar Respuesta (Spring Boot + React)</title><defs/><g><text fill="#000000" font-family="sans-serif" font-size="14" font-weight="bold" lengthAdjust="spacing" textLength="530.3867" x="702.3318" y="27.9951">Diagrama de Secuencia - Eliminar Respuesta (Spring Boot + React)</text><g><title>Frontend .React.</title><rect fill="#FFFFFF" height="883.4609" style="stroke:#181818;stroke-width:1;" width="10" x="577.6245" y="149.7266"/></g><g><title>RespuestasController</title><rect fill="#FFFFFF" height="270.1953" style="stroke:#181818;stroke-width:1;" width="10" x="874.502" y="267.3906"/></g><g><title>RespuestaService</title><rect fill="#FFFFFF" height="572.1328" style="stroke:#181818;stroke-width:1;" width="10" x="1184.3857" y="338.6563"/></g><g><title>RespuestaRepository</title><rect fill="#FFFFFF" height="87.3984" style="stroke:#181818;stroke-width:1;" width="10" x="1443.918" y="367.7891"/></g><g><title>RespuestaRepository</title><rect fill="#FFFFFF" height="87.3984" style="stroke:#181818;stroke-width:1;" width="10" x="1443.918" y="794.2578"/></g><g><title>Base de Datos .PostgreSQL.</title><rect fill="#FFFFFF" height="29.1328" style="stroke:#181818;stroke-width:1;" width="10" x="1799.3872" y="396.9219"/></g><g><title>Base de Datos .PostgreSQL.</title><rect fill="#FFFFFF" height="29.1328" style="stroke:#181818;stroke-width:1;" width="10" x="1799.3872" y="823.3906"/></g><rect fill="none" height="556" style="stroke:#000000;stroke-width:1.5;" width="1916.0503" x="10" y="470.1875"/><rect fill="none" height="365.3984" style="stroke:#000000;stroke-width:1.5;" width="1896.0503" x="20" y="653.7891"/><rect fill="none" height="90.5313" style="stroke:#000000;stroke-width:1.5;" width="638.9194" x="20" y="1040.1875"/><g class="participant-lifeline" data-entity-uid="part1" data-qualified-name="Teacher" id="part1-lifeline"><g><title>Docente</title><rect fill="#000000" fill-opacity="0.00000" height="1029.125" width="8" x="58.3159" y="118.5938"/><line style="stroke:#181818;stroke-width:0.5;stroke-dasharray:5,5;" x1="62" x2="62" y1="118.5938" y2="1147.7188"/></g></g><g class="participant-lifeline" data-entity-uid="part2" data-qualified-name="FE" id="part2-lifeline"><g><title>Frontend .React.</title><rect fill="#000000" fill-opacity="0.00000" height="1029.125" width="8" x="578.6245" y="118.5938"/><line style="stroke:#181818;stroke-width:0.5;stroke-dasharray:5,5;" x1="582.3296" x2="582.3296" y1="118.5938" y2="1147.7188"/></g></g><g class="participant-lifeline" data-entity-uid="part3" data-qualified-name="Controller" id="part3-lifeline"><g><title>RespuestasController</title><rect fill="#000000" fill-opacity="0.00000" height="1029.125" width="8" x="875.502" y="118.5938"/><line style="stroke:#181818;stroke-width:0.5;stroke-dasharray:5,5;" x1="878.5835" x2="878.5835" y1="118.5938" y2="1147.7188"/></g></g><g class="participant-lifeline" data-entity-uid="part4" data-qualified-name="Service" id="part4-lifeline"><g><title>RespuestaService</title><rect fill="#000000" fill-opacity="0.00000" height="1029.125" width="8" x="1185.3857" y="118.5938"/><line style="stroke:#181818;stroke-width:0.5;stroke-dasharray:5,5;" x1="1188.8301" x2="1188.8301" y1="118.5938" y2="1147.7188"/></g></g><g class="participant-lifeline" data-entity-uid="part5" data-qualified-name="RespuestaRepo" id="part5-lifeline"><g><title>RespuestaRepository</title><rect fill="#000000" fill-opacity="0.00000" height="1029.125" width="8" x="1444.918" y="118.5938"/><line style="stroke:#181818;stroke-width:0.5;stroke-dasharray:5,5;" x1="1448.6968" x2="1448.6968" y1="118.5938" y2="1147.7188"/></g></g><g class="participant-lifeline" data-entity-uid="part6" data-qualified-name="PreguntaRepo" id="part6-lifeline"><g><title>PreguntaRepository</title><rect fill="#000000" fill-opacity="0.00000" height="1029.125" width="8" x="1612.4316" y="118.5938"/><line style="stroke:#181818;stroke-width:0.5;stroke-dasharray:5,5;" x1="1616.1392" x2="1616.1392" y1="118.5938" y2="1147.7188"/></g></g><g class="participant-lifeline" data-entity-uid="part7" data-qualified-name="DB" id="part7-lifeline"><g><title>Base de Datos .PostgreSQL.</title><rect fill="#000000" fill-opacity="0.00000" height="1029.125" width="8" x="1800.3872" y="118.5938"/><line style="stroke:#181818;stroke-width:0.5;stroke-dasharray:5,5;" x1="1803.7241" x2="1803.7241" y1="118.5938" y2="1147.7188"/></g></g><g class="participant participant-head" data-entity-uid="part1" data-qualified-name="Teacher" id="part1-head"><text fill="#000000" font-family="sans-serif" font-size="14" lengthAdjust="spacing" textLength="58.6318" x="30" y="115.292">Docente</text><ellipse cx="62.3159" cy="50.7969" fill="#E2E2F0" rx="8" ry="8" style="stroke:#181818;stroke-width:0.5;"/><path d="M62.3159,58.7969 L62.3159,85.7969 M49.3159,66.7969 L75.3159,66.7969 M62.3159,85.7969 L49.3159,100.7969 M62.3159,85.7969 L75.3159,100.7969" fill="none" style="stroke:#181818;stroke-width:0.5;"/></g><g class="participant participant-tail" data-entity-uid="part1" data-qualified-name="Teacher" id="part1-tail"><text fill="#000000" font-family="sans-serif" font-size="14" lengthAdjust="spacing" textLength="58.6318" x="30" y="1159.7139">Docente</text><ellipse cx="62.3159" cy="1171.5156" fill="#E2E2F0" rx="8" ry="8" style="stroke:#181818;stroke-width:0.5;"/><path d="M62.3159,1179.5156 L62.3159,1206.5156 M49.3159,1187.5156 L75.3159,1187.5156 M62.3159,1206.5156 L49.3159,1221.5156 M62.3159,1206.5156 L75.3159,1221.5156" fill="none" style="stroke:#181818;stroke-width:0.5;"/></g><g class="participant participant-head" data-entity-uid="part2" data-qualified-name="FE" id="part2-head"><rect fill="#E2E2F0" height="30.2969" rx="2.5" ry="2.5" style="stroke:#181818;stroke-width:0.5;" width="132.5898" x="516.3296" y="87.2969"/><text fill="#000000" font-family="sans-serif" font-size="14" lengthAdjust="spacing" textLength="118.5898" x="523.3296" y="107.292">Frontend (React)</text></g><g class="participant participant-tail" data-entity-uid="part2" data-qualified-name="FE" id="part2-tail"><rect fill="#E2E2F0" height="30.2969" rx="2.5" ry="2.5" style="stroke:#181818;stroke-width:0.5;" width="132.5898" x="516.3296" y="1146.7188"/><text fill="#000000" font-family="sans-serif" font-size="14" lengthAdjust="spacing" textLength="118.5898" x="523.3296" y="1166.7139">Frontend (React)</text></g><g class="participant participant-head" data-entity-uid="part3" data-qualified-name="Controller" id="part3-head"><rect fill="#E2E2F0" height="30.2969" rx="2.5" ry="2.5" style="stroke:#181818;stroke-width:0.5;" width="163.8369" x="797.5835" y="87.2969"/><text fill="#000000" font-family="sans-serif" font-size="14" lengthAdjust="spacing" textLength="149.8369" x="804.5835" y="107.292">RespuestasController</text></g><g class="participant participant-tail" data-entity-uid="part3" data-qualified-name="Controller" id="part3-tail"><rect fill="#E2E2F0" height="30.2969" rx="2.5" ry="2.5" style="stroke:#181818;stroke-width:0.5;" width="163.8369" x="797.5835" y="1146.7188"/><text fill="#000000" font-family="sans-serif" font-size="14" lengthAdjust="spacing" textLength="149.8369" x="804.5835" y="1166.7139">RespuestasController</text></g><g class="participant participant-head" data-entity-uid="part4" data-qualified-name="Service" id="part4-head"><rect fill="#E2E2F0" height="30.2969" rx="2.5" ry="2.5" style="stroke:#181818;stroke-width:0.5;" width="139.1113" x="1119.8301" y="87.2969"/><text fill="#000000" font-family="sans-serif" font-size="14" lengthAdjust="spacing" textLength="125.1113" x="1126.8301" y="107.292">RespuestaService</text></g><g class="participant participant-tail" data-entity-uid="part4" data-qualified-name="Service" id="part4-tail"><rect fill="#E2E2F0" height="30.2969" rx="2.5" ry="2.5" style="stroke:#181818;stroke-width:0.5;" width="139.1113" x="1119.8301" y="1146.7188"/><text fill="#000000" font-family="sans-serif" font-size="14" lengthAdjust="spacing" textLength="125.1113" x="1126.8301" y="1166.7139">RespuestaService</text></g><g class="participant participant-head" data-entity-uid="part5" data-qualified-name="RespuestaRepo" id="part5-head"><rect fill="#E2E2F0" height="30.2969" rx="2.5" ry="2.5" style="stroke:#181818;stroke-width:0.5;" width="162.4424" x="1367.6968" y="87.2969"/><text fill="#000000" font-family="sans-serif" font-size="14" lengthAdjust="spacing" textLength="148.4424" x="1374.6968" y="107.292">RespuestaRepository</text></g><g class="participant participant-tail" data-entity-uid="part5" data-qualified-name="RespuestaRepo" id="part5-tail"><rect fill="#E2E2F0" height="30.2969" rx="2.5" ry="2.5" style="stroke:#181818;stroke-width:0.5;" width="162.4424" x="1367.6968" y="1146.7188"/><text fill="#000000" font-family="sans-serif" font-size="14" lengthAdjust="spacing" textLength="148.4424" x="1374.6968" y="1166.7139">RespuestaRepository</text></g><g class="participant participant-head" data-entity-uid="part6" data-qualified-name="PreguntaRepo" id="part6-head"><rect fill="#E2E2F0" height="30.2969" rx="2.5" ry="2.5" style="stroke:#181818;stroke-width:0.5;" width="152.585" x="1540.1392" y="87.2969"/><text fill="#000000" font-family="sans-serif" font-size="14" lengthAdjust="spacing" textLength="138.585" x="1547.1392" y="107.292">PreguntaRepository</text></g><g class="participant participant-tail" data-entity-uid="part6" data-qualified-name="PreguntaRepo" id="part6-tail"><rect fill="#E2E2F0" height="30.2969" rx="2.5" ry="2.5" style="stroke:#181818;stroke-width:0.5;" width="152.585" x="1540.1392" y="1146.7188"/><text fill="#000000" font-family="sans-serif" font-size="14" lengthAdjust="spacing" textLength="138.585" x="1547.1392" y="1166.7139">PreguntaRepository</text></g><g class="participant participant-head" data-entity-uid="part7" data-qualified-name="DB" id="part7-head"><text fill="#000000" font-family="sans-serif" font-size="14" lengthAdjust="spacing" textLength="197.3262" x="1702.7241" y="115.292">Base de Datos (PostgreSQL)</text><path d="M1786.3872,66.2969 C1786.3872,56.2969 1804.3872,56.2969 1804.3872,56.2969 C1804.3872,56.2969 1822.3872,56.2969 1822.3872,66.2969 L1822.3872,92.2969 C1822.3872,102.2969 1804.3872,102.2969 1804.3872,102.2969 C1804.3872,102.2969 1786.3872,102.2969 1786.3872,92.2969 L1786.3872,66.2969" fill="#E2E2F0" style="stroke:#181818;stroke-width:0.5;"/><path d="M1786.3872,66.2969 C1786.3872,76.2969 1804.3872,76.2969 1804.3872,76.2969 C1804.3872,76.2969 1822.3872,76.2969 1822.3872,66.2969" fill="none" style="stroke:#181818;stroke-width:0.5;"/></g><g class="participant participant-tail" data-entity-uid="part7" data-qualified-name="DB" id="part7-tail"><text fill="#000000" font-family="sans-serif" font-size="14" lengthAdjust="spacing" textLength="197.3262" x="1702.7241" y="1159.7139">Base de Datos (PostgreSQL)</text><path d="M1786.3872,1173.0156 C1786.3872,1163.0156 1804.3872,1163.0156 1804.3872,1163.0156 C1804.3872,1163.0156 1822.3872,1163.0156 1822.3872,1173.0156 L1822.3872,1199.0156 C1822.3872,1209.0156 1804.3872,1209.0156 1804.3872,1209.0156 C1804.3872,1209.0156 1786.3872,1209.0156 1786.3872,1199.0156 L1786.3872,1173.0156" fill="#E2E2F0" style="stroke:#181818;stroke-width:0.5;"/><path d="M1786.3872,1173.0156 C1786.3872,1183.0156 1804.3872,1183.0156 1804.3872,1183.0156 C1804.3872,1183.0156 1822.3872,1183.0156 1822.3872,1173.0156" fill="none" style="stroke:#181818;stroke-width:0.5;"/></g><g><title>Frontend .React.</title><rect fill="#FFFFFF" height="883.4609" style="stroke:#181818;stroke-width:1;" width="10" x="577.6245" y="149.7266"/></g><g><title>RespuestasController</title><rect fill="#FFFFFF" height="270.1953" style="stroke:#181818;stroke-width:1;" width="10" x="874.502" y="267.3906"/></g><g><title>RespuestaService</title><rect fill="#FFFFFF" height="572.1328" style="stroke:#181818;stroke-width:1;" width="10" x="1184.3857" y="338.6563"/></g><g><title>RespuestaRepository</title><rect fill="#FFFFFF" height="87.3984" style="stroke:#181818;stroke-width:1;" width="10" x="1443.918" y="367.7891"/></g><g><title>RespuestaRepository</title><rect fill="#FFFFFF" height="87.3984" style="stroke:#181818;stroke-width:1;" width="10" x="1443.918" y="794.2578"/></g><g><title>Base de Datos .PostgreSQL.</title><rect fill="#FFFFFF" height="29.1328" style="stroke:#181818;stroke-width:1;" width="10" x="1799.3872" y="396.9219"/></g><g><title>Base de Datos .PostgreSQL.</title><rect fill="#FFFFFF" height="29.1328" style="stroke:#181818;stroke-width:1;" width="10" x="1799.3872" y="823.3906"/></g><g class="message" data-entity-1="part1" data-entity-2="part2" id="msg1"><polygon fill="#181818" points="565.6245,145.7266,575.6245,149.7266,565.6245,153.7266,569.6245,149.7266" style="stroke:#181818;stroke-width:1;"/><line style="stroke:#181818;stroke-width:1;" x1="62.3159" x2="571.6245" y1="149.7266" y2="149.7266"/><text fill="#000000" font-family="sans-serif" font-size="13" lengthAdjust="spacing" textLength="203.9756" x="69.3159" y="144.6606">Clic en "Eliminar" (respuestaId)</text></g><g class="message" data-entity-1="part2" data-entity-2="part1" id="msg2"><polygon fill="#181818" points="73.3159,189.9922,63.3159,193.9922,73.3159,197.9922,69.3159,193.9922" style="stroke:#181818;stroke-width:1;"/><line style="stroke:#181818;stroke-width:1;stroke-dasharray:2,2;" x1="67.3159" x2="576.6245" y1="193.9922" y2="193.9922"/><text fill="#000000" font-family="sans-serif" font-size="13" lengthAdjust="spacing" textLength="203.728" x="79.3159" y="173.7935">Mostrar Modal de Confirmaci&#243;n</text><text fill="#000000" font-family="sans-serif" font-size="13" lengthAdjust="spacing" textLength="302.8213" x="79.3159" y="188.9263">(datos de la respuesta: contenido, esCorrecta)</text></g><g class="message" data-entity-1="part1" data-entity-2="part2" id="msg3"><polygon fill="#181818" points="565.6245,219.125,575.6245,223.125,565.6245,227.125,569.6245,223.125" style="stroke:#181818;stroke-width:1;"/><line style="stroke:#181818;stroke-width:1;" x1="62.3159" x2="571.6245" y1="223.125" y2="223.125"/><text fill="#000000" font-family="sans-serif" font-size="13" lengthAdjust="spacing" textLength="138.2202" x="69.3159" y="218.0591">Confirma eliminaci&#243;n</text></g><g class="message" data-entity-1="part2" data-entity-2="part3" id="msg4"><polygon fill="#181818" points="862.502,263.3906,872.502,267.3906,862.502,271.3906,866.502,267.3906" style="stroke:#181818;stroke-width:1;"/><line style="stroke:#181818;stroke-width:1;" x1="587.6245" x2="868.502" y1="267.3906" y2="267.3906"/><text fill="#000000" font-family="sans-serif" font-size="13" lengthAdjust="spacing" textLength="251.2212" x="594.6245" y="247.1919">DELETE /api/respuestas/{respuestaId}</text><text fill="#000000" font-family="sans-serif" font-size="13" lengthAdjust="spacing" textLength="267.8774" x="594.6245" y="262.3247">(Header: Authorization: Bearer &lt;token&gt;)</text></g><g class="message" data-entity-1="part3" data-entity-2="part3" id="msg5"><line style="stroke:#181818;stroke-width:1;" x1="884.502" x2="926.502" y1="296.5234" y2="296.5234"/><line style="stroke:#181818;stroke-width:1;" x1="926.502" x2="926.502" y1="296.5234" y2="309.5234"/><line style="stroke:#181818;stroke-width:1;" x1="885.502" x2="926.502" y1="309.5234" y2="309.5234"/><polygon fill="#181818" points="895.502,305.5234,885.502,309.5234,895.502,313.5234,891.502,309.5234" style="stroke:#181818;stroke-width:1;"/><text fill="#000000" font-family="sans-serif" font-size="13" lengthAdjust="spacing" textLength="169.1016" x="891.502" y="291.4575">extraer docenteId del JWT</text></g><g class="message" data-entity-1="part3" data-entity-2="part4" id="msg6"><polygon fill="#181818" points="1172.3857,334.6563,1182.3857,338.6563,1172.3857,342.6563,1176.3857,338.6563" style="stroke:#181818;stroke-width:1;"/><line style="stroke:#181818;stroke-width:1;" x1="884.502" x2="1178.3857" y1="338.6563" y2="338.6563"/><text fill="#000000" font-family="sans-serif" font-size="13" lengthAdjust="spacing" textLength="280.8838" x="891.502" y="333.5903">eliminarRespuesta(respuestaId, docenteId)</text></g><g class="message" data-entity-1="part4" data-entity-2="part5" id="msg7"><polygon fill="#181818" points="1431.918,363.7891,1441.918,367.7891,1431.918,371.7891,1435.918,367.7891" style="stroke:#181818;stroke-width:1;"/><line style="stroke:#181818;stroke-width:1;" x1="1194.3857" x2="1437.918" y1="367.7891" y2="367.7891"/><text fill="#000000" font-family="sans-serif" font-size="13" lengthAdjust="spacing" textLength="140.0483" x="1201.3857" y="362.7231">findById(respuestaId)</text></g><g class="message" data-entity-1="part5" data-entity-2="part7" id="msg8"><polygon fill="#181818" points="1787.3872,392.9219,1797.3872,396.9219,1787.3872,400.9219,1791.3872,396.9219" style="stroke:#181818;stroke-width:1;"/><line style="stroke:#181818;stroke-width:1;" x1="1453.918" x2="1793.3872" y1="396.9219" y2="396.9219"/><text fill="#000000" font-family="sans-serif" font-size="13" lengthAdjust="spacing" textLength="271.2861" x="1460.918" y="391.856">SELECT * FROM respuestas WHERE id = ?</text></g><g class="message" data-entity-1="part7" data-entity-2="part5" id="msg9"><polygon fill="#181818" points="1464.918,422.0547,1454.918,426.0547,1464.918,430.0547,1460.918,426.0547" style="stroke:#181818;stroke-width:1;"/><line style="stroke:#181818;stroke-width:1;stroke-dasharray:2,2;" x1="1458.918" x2="1803.3872" y1="426.0547" y2="426.0547"/><text fill="#000000" font-family="sans-serif" font-size="13" lengthAdjust="spacing" textLength="144.8789" x="1470.918" y="420.9888">Optional&lt;Respuesta&gt;</text></g><g class="message" data-entity-1="part5" data-entity-2="part4" id="msg10"><polygon fill="#181818" points="1205.3857,451.1875,1195.3857,455.1875,1205.3857,459.1875,1201.3857,455.1875" style="stroke:#181818;stroke-width:1;"/><line style="stroke:#181818;stroke-width:1;stroke-dasharray:2,2;" x1="1199.3857" x2="1447.918" y1="455.1875" y2="455.1875"/><text fill="#000000" font-family="sans-serif" font-size="13" lengthAdjust="spacing" textLength="144.8789" x="1211.3857" y="450.1216">Optional&lt;Respuesta&gt;</text></g><path d="M10,470.1875 L74.4429,470.1875 L74.4429,477.3203 L64.4429,487.3203 L10,487.3203 L10,470.1875" fill="#EEEEEE" style="stroke:#000000;stroke-width:1.5;"/><rect fill="none" height="556" style="stroke:#000000;stroke-width:1.5;" width="1916.0503" x="10" y="470.1875"/><text fill="#000000" font-family="sans-serif" font-size="13" font-weight="bold" lengthAdjust="spacing" textLength="19.4429" x="25" y="483.2544">alt</text><text fill="#000000" font-family="sans-serif" font-size="11" font-weight="bold" lengthAdjust="spacing" textLength="136.9951" x="89.4429" y="482.3979">[Respuesta No Existe]</text><g class="message" data-entity-1="part4" data-entity-2="part3" id="msg11"><polygon fill="#181818" points="895.502,504.4531,885.502,508.4531,895.502,512.4531,891.502,508.4531" style="stroke:#181818;stroke-width:1;"/><line style="stroke:#181818;stroke-width:1;stroke-dasharray:2,2;" x1="889.502" x2="1183.3857" y1="508.4531" y2="508.4531"/><text fill="#000000" font-family="sans-serif" font-size="13" lengthAdjust="spacing" textLength="216.6392" x="901.502" y="503.3872">throw EntityNotFoundException()</text></g><g class="message" data-entity-1="part3" data-entity-2="part2" id="msg12"><polygon fill="#181818" points="598.6245,533.5859,588.6245,537.5859,598.6245,541.5859,594.6245,537.5859" style="stroke:#181818;stroke-width:1;"/><line style="stroke:#181818;stroke-width:1;stroke-dasharray:2,2;" x1="592.6245" x2="878.502" y1="537.5859" y2="537.5859"/><text fill="#000000" font-family="sans-serif" font-size="13" lengthAdjust="spacing" textLength="96.0146" x="604.6245" y="532.52">404 Not Found</text></g><g class="message" data-entity-1="part2" data-entity-2="part1" id="msg13"><polygon fill="#181818" points="73.3159,562.7188,63.3159,566.7188,73.3159,570.7188,69.3159,566.7188" style="stroke:#181818;stroke-width:1;"/><line style="stroke:#181818;stroke-width:1;stroke-dasharray:2,2;" x1="67.3159" x2="576.6245" y1="566.7188" y2="566.7188"/><text fill="#000000" font-family="sans-serif" font-size="13" lengthAdjust="spacing" textLength="348.4609" x="79.3159" y="561.6528">Mostrar mensaje de error "Respuesta no encontrada"</text></g><line style="stroke:#000000;stroke-width:1;stroke-dasharray:2,2;" x1="10" x2="1926.0503" y1="575.7188" y2="575.7188"/><text fill="#000000" font-family="sans-serif" font-size="11" font-weight="bold" lengthAdjust="spacing" textLength="116.4023" x="15" y="585.9292">[Respuesta Existe]</text><g class="message" data-entity-1="part4" data-entity-2="part4" id="msg14"><line style="stroke:#181818;stroke-width:1;" x1="1194.3857" x2="1236.3857" y1="625.7891" y2="625.7891"/><line style="stroke:#181818;stroke-width:1;" x1="1236.3857" x2="1236.3857" y1="625.7891" y2="638.7891"/><line style="stroke:#181818;stroke-width:1;" x1="1195.3857" x2="1236.3857" y1="638.7891" y2="638.7891"/><polygon fill="#181818" points="1205.3857,634.7891,1195.3857,638.7891,1205.3857,642.7891,1201.3857,638.7891" style="stroke:#181818;stroke-width:1;"/><text fill="#000000" font-family="sans-serif" font-size="13" lengthAdjust="spacing" textLength="225.4751" x="1201.3857" y="605.5903">Verificar pertenencia de respuesta</text><text fill="#000000" font-family="sans-serif" font-size="13" lengthAdjust="spacing" textLength="225.5322" x="1201.3857" y="620.7231">a docente autenticado (docenteId)</text></g><path d="M20,653.7891 L84.4429,653.7891 L84.4429,660.9219 L74.4429,670.9219 L20,670.9219 L20,653.7891" fill="#EEEEEE" style="stroke:#000000;stroke-width:1.5;"/><rect fill="none" height="365.3984" style="stroke:#000000;stroke-width:1.5;" width="1896.0503" x="20" y="653.7891"/><text fill="#000000" font-family="sans-serif" font-size="13" font-weight="bold" lengthAdjust="spacing" textLength="19.4429" x="35" y="666.856">alt</text><text fill="#000000" font-family="sans-serif" font-size="11" font-weight="bold" lengthAdjust="spacing" textLength="232.3589" x="99.4429" y="665.9995">[Respuesta No Pertenece al Docente]</text><g class="message" data-entity-1="part4" data-entity-2="part3" id="msg15"><polygon fill="#181818" points="890.502,688.0547,880.502,692.0547,890.502,696.0547,886.502,692.0547" style="stroke:#181818;stroke-width:1;"/><line style="stroke:#181818;stroke-width:1;stroke-dasharray:2,2;" x1="884.502" x2="1183.3857" y1="692.0547" y2="692.0547"/><text fill="#000000" font-family="sans-serif" font-size="13" lengthAdjust="spacing" textLength="203.0298" x="896.502" y="686.9888">throw UnauthorizedException()</text></g><g class="message" data-entity-1="part3" data-entity-2="part2" id="msg16"><polygon fill="#181818" points="598.6245,717.1875,588.6245,721.1875,598.6245,725.1875,594.6245,721.1875" style="stroke:#181818;stroke-width:1;"/><line style="stroke:#181818;stroke-width:1;stroke-dasharray:2,2;" x1="592.6245" x2="878.502" y1="721.1875" y2="721.1875"/><text fill="#000000" font-family="sans-serif" font-size="13" lengthAdjust="spacing" textLength="94.3262" x="604.6245" y="716.1216">403 Forbidden</text></g><g class="message" data-entity-1="part2" data-entity-2="part1" id="msg17"><polygon fill="#181818" points="73.3159,746.3203,63.3159,750.3203,73.3159,754.3203,69.3159,750.3203" style="stroke:#181818;stroke-width:1;"/><line style="stroke:#181818;stroke-width:1;stroke-dasharray:2,2;" x1="67.3159" x2="576.6245" y1="750.3203" y2="750.3203"/><text fill="#000000" font-family="sans-serif" font-size="13" lengthAdjust="spacing" textLength="491.3086" x="79.3159" y="745.2544">Mostrar mensaje de error "No tienes permiso para eliminar esta respuesta"</text></g><line style="stroke:#000000;stroke-width:1;stroke-dasharray:2,2;" x1="20" x2="1916.0503" y1="759.3203" y2="759.3203"/><text fill="#000000" font-family="sans-serif" font-size="11" font-weight="bold" lengthAdjust="spacing" textLength="211.7661" x="25" y="769.5308">[Respuesta Pertenece al Docente]</text><g class="message" data-entity-1="part4" data-entity-2="part5" id="msg18"><polygon fill="#181818" points="1431.918,790.2578,1441.918,794.2578,1431.918,798.2578,1435.918,794.2578" style="stroke:#181818;stroke-width:1;"/><line style="stroke:#181818;stroke-width:1;" x1="1194.3857" x2="1437.918" y1="794.2578" y2="794.2578"/><text fill="#000000" font-family="sans-serif" font-size="13" lengthAdjust="spacing" textLength="156.3237" x="1201.3857" y="789.1919">deleteById(respuestaId)</text></g><g class="message" data-entity-1="part5" data-entity-2="part7" id="msg19"><polygon fill="#181818" points="1787.3872,819.3906,1797.3872,823.3906,1787.3872,827.3906,1791.3872,823.3906" style="stroke:#181818;stroke-width:1;"/><line style="stroke:#181818;stroke-width:1;" x1="1453.918" x2="1793.3872" y1="823.3906" y2="823.3906"/><text fill="#000000" font-family="sans-serif" font-size="13" lengthAdjust="spacing" textLength="261.5488" x="1460.918" y="818.3247">DELETE FROM respuestas WHERE id = ?</text></g><g class="message" data-entity-1="part7" data-entity-2="part5" id="msg20"><polygon fill="#181818" points="1464.918,848.5234,1454.918,852.5234,1464.918,856.5234,1460.918,852.5234" style="stroke:#181818;stroke-width:1;"/><line style="stroke:#181818;stroke-width:1;stroke-dasharray:2,2;" x1="1458.918" x2="1803.3872" y1="852.5234" y2="852.5234"/><text fill="#000000" font-family="sans-serif" font-size="13" lengthAdjust="spacing" textLength="18.7573" x="1470.918" y="847.4575">OK</text></g><g class="message" data-entity-1="part5" data-entity-2="part4" id="msg21"><polygon fill="#181818" points="1205.3857,877.6563,1195.3857,881.6563,1205.3857,885.6563,1201.3857,881.6563" style="stroke:#181818;stroke-width:1;"/><line style="stroke:#181818;stroke-width:1;stroke-dasharray:2,2;" x1="1199.3857" x2="1447.918" y1="881.6563" y2="881.6563"/><text fill="#000000" font-family="sans-serif" font-size="13" lengthAdjust="spacing" textLength="27.5107" x="1211.3857" y="876.5903">void</text></g><g class="message" data-entity-1="part4" data-entity-2="part3" id="msg22"><polygon fill="#181818" points="890.502,906.7891,880.502,910.7891,890.502,914.7891,886.502,910.7891" style="stroke:#181818;stroke-width:1;"/><line style="stroke:#181818;stroke-width:1;stroke-dasharray:2,2;" x1="884.502" x2="1188.3857" y1="910.7891" y2="910.7891"/><text fill="#000000" font-family="sans-serif" font-size="13" lengthAdjust="spacing" textLength="27.5107" x="896.502" y="905.7231">void</text></g><g class="message" data-entity-1="part3" data-entity-2="part2" id="msg23"><polygon fill="#181818" points="598.6245,935.9219,588.6245,939.9219,598.6245,943.9219,594.6245,939.9219" style="stroke:#181818;stroke-width:1;"/><line style="stroke:#181818;stroke-width:1;stroke-dasharray:2,2;" x1="592.6245" x2="878.502" y1="939.9219" y2="939.9219"/><text fill="#000000" font-family="sans-serif" font-size="13" lengthAdjust="spacing" textLength="102.4575" x="604.6245" y="934.856">204 No Content</text></g><g class="message" data-entity-1="part2" data-entity-2="part2" id="msg24"><line style="stroke:#181818;stroke-width:1;" x1="587.6245" x2="629.6245" y1="969.0547" y2="969.0547"/><line style="stroke:#181818;stroke-width:1;" x1="629.6245" x2="629.6245" y1="969.0547" y2="982.0547"/><line style="stroke:#181818;stroke-width:1;" x1="588.6245" x2="629.6245" y1="982.0547" y2="982.0547"/><polygon fill="#181818" points="598.6245,978.0547,588.6245,982.0547,598.6245,986.0547,594.6245,982.0547" style="stroke:#181818;stroke-width:1;"/><text fill="#000000" font-family="sans-serif" font-size="13" lengthAdjust="spacing" textLength="239.2939" x="594.6245" y="963.9888">Remover de la lista (actualizar vista)</text></g><g class="message" data-entity-1="part2" data-entity-2="part1" id="msg25"><polygon fill="#181818" points="73.3159,1007.1875,63.3159,1011.1875,73.3159,1015.1875,69.3159,1011.1875" style="stroke:#181818;stroke-width:1;"/><line style="stroke:#181818;stroke-width:1;stroke-dasharray:2,2;" x1="67.3159" x2="576.6245" y1="1011.1875" y2="1011.1875"/><text fill="#000000" font-family="sans-serif" font-size="13" lengthAdjust="spacing" textLength="329.0435" x="79.3159" y="1006.1216">Notificaci&#243;n "Respuesta eliminada correctamente"</text></g><path d="M20,1040.1875 L84.4429,1040.1875 L84.4429,1047.3203 L74.4429,1057.3203 L20,1057.3203 L20,1040.1875" fill="#EEEEEE" style="stroke:#000000;stroke-width:1.5;"/><rect fill="none" height="90.5313" style="stroke:#000000;stroke-width:1.5;" width="638.9194" x="20" y="1040.1875"/><text fill="#000000" font-family="sans-serif" font-size="13" font-weight="bold" lengthAdjust="spacing" textLength="19.4429" x="35" y="1053.2544">alt</text><text fill="#000000" font-family="sans-serif" font-size="11" font-weight="bold" lengthAdjust="spacing" textLength="113.604" x="99.4429" y="1052.3979">[Docente Cancela]</text><g class="message" data-entity-1="part1" data-entity-2="part2" id="msg26"><polygon fill="#181818" points="570.6245,1074.4531,580.6245,1078.4531,570.6245,1082.4531,574.6245,1078.4531" style="stroke:#181818;stroke-width:1;"/><line style="stroke:#181818;stroke-width:1;" x1="62.3159" x2="576.6245" y1="1078.4531" y2="1078.4531"/><text fill="#000000" font-family="sans-serif" font-size="13" lengthAdjust="spacing" textLength="171.9834" x="69.3159" y="1073.3872">Clic en "Cancelar" (modal)</text></g><g class="message" data-entity-1="part2" data-entity-2="part1" id="msg27"><polygon fill="#181818" points="73.3159,1118.7188,63.3159,1122.7188,73.3159,1126.7188,69.3159,1122.7188" style="stroke:#181818;stroke-width:1;"/><line style="stroke:#181818;stroke-width:1;stroke-dasharray:2,2;" x1="67.3159" x2="581.6245" y1="1122.7188" y2="1122.7188"/><text fill="#000000" font-family="sans-serif" font-size="13" lengthAdjust="spacing" textLength="85.6553" x="79.3159" y="1102.52">Cerrar modal</text><text fill="#000000" font-family="sans-serif" font-size="13" lengthAdjust="spacing" textLength="209.3901" x="79.3159" y="1117.6528">Mantener en lista de respuestas</text></g><?plantuml-src bLRRRXCn47tVhnZbAO5MHT2dg0IHPACMI5kIG5_wCbrFKyEk7NcTq8BuAZw17sFilSIvR4iZvMRFzSoPcRNIfWH3YNE36O8Wc5Ao99L8X4E8Kvb9XGOcb2-Mb5k4zdHXf9f3NsiBB_a24zk98lxK1bf3dP2or0BCOSPNTsIY1Heh4xb0PQ4rCfhlbO1seUabH_6cKEqj7x2qqMbAnWkk_pOeJCciP5BuBtytI4veeNF9GJzuuOtpJPLBG_Ebsj48ZoE15cym9sZrtIV3E4IhSsXVwjpE3Kq_VofI7VQZg0G63dkSUHS6gKo05BGgj5lGDbKuPwBZi9KhjEHm6iLmo7gbYIwCsRxX0esrmDJvPOXkfSamaN__g6lL5ZuElaWHQgjTI7mPfD07G8ooCPHOxEo4LXe3AaBpHdqClQ0MNHZ6d-9P34Uua4Ura_peLv36Ruxbb50uyVTBUwUD_8bMQjM5Fg5XdoTMVoVL2_8Doht-kUsRxXa0FXO5zSu49vl2XwlPbav9XswLYwbB7g9ziBOJ159HgVnsvZO8quLRgKJ_uKmqL6wJNXl_dB5XlmjJnd0mWnSmcboCrwNAuUeqdiGW1Ro5TskBJAHXttDXAvABXKCLqvFwl1S92lMst8VOFA6ycGQcDXWCvnhYUvbRYe1VDL9RrR9tHl-0M5bf7ywr7Ucb4l5zGjvlk-DrmxgLH3n-TSmEB7XvBnH45T34tJIrI4Ogns--ESaODwtMmIlD7UXwmg30LaHf7YIxDwy0jAzavArCsCM237TLCJtPJLt4QuKLhm2NBCBJ1OM6Ta0sPtq7qSl283laxYw7gvTy6kCl2iisens46r5-mmYR6oa4gLgm6UddeStfMCd9v0wcJEOQUCpMeyM0pxc6hEKzR1NY_-3OQGaU26HfjpqhpGP-LzTxsxKSUOyswuvzRhxghA5vF-w3FL1xf7TNMefzslkJQY9FavLg13v2dzU-IVqD5-OP_2dK9vJfbHlaVbUbqZzjiEeIKruL1bRkfDD8F1uFlWlzZWfxkoIOG5vwnPxB_3DAGJ0U9-uT1CbRre-sabymG9LGYbwyQNMNCcvrPsuJT_PEeW5tWciD9t6jnkXmOcDieCWs71cv2-iV?></g></svg>