<svg xmlns="http://www.w3.org/2000/svg" xmlns:xlink="http://www.w3.org/1999/xlink" contentStyleType="text/css" data-diagram-type="DESCRIPTION" height="523px" preserveAspectRatio="none" style="width:914px;height:523px;background:#FFFFFF;" version="1.1" viewBox="0 0 914 523" width="914px" zoomAndPan="magnify"><defs/><g><!--cluster eliminarDocente--><g class="cluster" data-entity="eliminarDocente" data-source-line="7" data-uid="ent0005" id="cluster_eliminarDocente"><path d="M8.5,106 L152.2822,106 A3.75,3.75 0 0 1 154.7822,108.5 L161.7822,128.2969 L678.5,128.2969 A2.5,2.5 0 0 1 681,130.7969 L681,513.5 A2.5,2.5 0 0 1 678.5,516 L8.5,516 A2.5,2.5 0 0 1 6,513.5 L6,108.5 A2.5,2.5 0 0 1 8.5,106" fill="none" style="stroke:#000000;stroke-width:1.5;"/><line style="stroke:#000000;stroke-width:1.5;" x1="6" x2="161.7822" y1="128.2969" y2="128.2969"/><text fill="#000000" font-family="sans-serif" font-size="14" font-weight="bold" lengthAdjust="spacing" textLength="142.7822" x="10" y="120.9951">eliminarDocente()</text></g><!--entity EliminarDocenteView--><g class="entity" data-entity="EliminarDocenteView" data-source-line="8" data-uid="ent0006" id="entity_EliminarDocenteView"><rect fill="#629EF9" height="36.2969" rx="2.5" ry="2.5" style="stroke:#181818;stroke-width:0.5;" width="169.5225" x="356" y="141"/><text fill="#000000" font-family="sans-serif" font-size="14" lengthAdjust="spacing" textLength="149.5225" x="366" y="163.9951">EliminarDocenteView</text></g><!--entity DocentesController--><g class="entity" data-entity="DocentesController" data-source-line="9" data-uid="ent0007" id="entity_DocentesController"><rect fill="#B5BD68" height="36.2969" rx="2.5" ry="2.5" style="stroke:#181818;stroke-width:0.5;" width="155.0986" x="134.5" y="254"/><text fill="#000000" font-family="sans-serif" font-size="14" lengthAdjust="spacing" textLength="135.0986" x="144.5" y="276.9951">DocentesController</text></g><!--entity DocenteRepository--><g class="entity" data-entity="DocenteRepository" data-source-line="10" data-uid="ent0008" id="entity_DocenteRepository"><rect fill="#F2AC4E" height="36.2969" rx="2.5" ry="2.5" style="stroke:#181818;stroke-width:0.5;" width="153.7041" x="145" y="367"/><text fill="#000000" font-family="sans-serif" font-size="14" lengthAdjust="spacing" textLength="133.7041" x="155" y="389.9951">DocenteRepository</text></g><!--entity Docente--><g class="entity" data-entity="Docente" data-source-line="11" data-uid="ent0009" id="entity_Docente"><rect fill="#F2AC4E" height="36.2969" rx="2.5" ry="2.5" style="stroke:#181818;stroke-width:0.5;" width="78.6318" x="182.5" y="464"/><text fill="#000000" font-family="sans-serif" font-size="14" lengthAdjust="spacing" textLength="58.6318" x="192.5" y="486.9951">Docente</text></g><!--entity DocentesAbierto--><g class="entity" data-entity="DocentesAbierto" data-source-line="3" data-uid="ent0002" id="entity_DocentesAbierto"><rect fill="#CDEBA5" height="36.2969" rx="2.5" ry="2.5" style="stroke:#181818;stroke-width:0.5;" width="170.3496" x="244" y="7"/><text fill="#000000" font-family="sans-serif" font-size="14" lengthAdjust="spacing" textLength="150.3496" x="254" y="29.9951">:DOCENTES_ABIERTO</text></g><!--entity DocenteAbierto--><g class="entity" data-entity="DocenteAbierto" data-source-line="4" data-uid="ent0003" id="entity_DocenteAbierto"><rect fill="#CDEBA5" height="36.2969" rx="2.5" ry="2.5" style="stroke:#181818;stroke-width:0.5;" width="161.4629" x="472.5" y="7"/><text fill="#000000" font-family="sans-serif" font-size="14" lengthAdjust="spacing" textLength="141.4629" x="482.5" y="29.9951">:DOCENTE_ABIERTO</text></g><!--entity VerDocentes--><g class="entity" data-entity="VerDocentes" data-source-line="5" data-uid="ent0004" id="entity_VerDocentes"><rect fill="#CDEBA5" height="36.2969" rx="2.5" ry="2.5" style="stroke:#181818;stroke-width:0.5;" width="211.0508" x="697.5" y="254"/><text fill="#000000" font-family="sans-serif" font-size="14" lengthAdjust="spacing" textLength="191.0508" x="707.5" y="276.9951">:Collaboration verDocentes</text></g><!--link DocentesAbierto to EliminarDocenteView--><g class="link" data-entity-1="DocentesAbierto" data-entity-2="EliminarDocenteView" data-source-line="14" data-uid="lnk10" id="link_DocentesAbierto_EliminarDocenteView"><path d="M327.9,43.23 C327.04,56.65 326,73 326,73 C326,73 326,90 326,90 C326,90 372.745,117.6468 406.815,137.7868" fill="none" id="DocentesAbierto-to-EliminarDocenteView" style="stroke:#181818;stroke-width:1;"/><polygon fill="#181818" points="411.98,140.84,406.2679,132.8168,407.6758,138.2956,402.1969,139.7035,411.98,140.84" style="stroke:#181818;stroke-width:1;"/><text fill="#000000" font-family="sans-serif" font-size="13" lengthAdjust="spacing" textLength="182.4063" x="327" y="86.0669">eliminarDocente(docenteId)</text></g><!--link DocenteAbierto to EliminarDocenteView--><g class="link" data-entity-1="DocenteAbierto" data-entity-2="EliminarDocenteView" data-source-line="15" data-uid="lnk11" id="link_DocenteAbierto_EliminarDocenteView"><path d="M542.55,43.15 C531,62.11 514,90 514,90 C514,90 485.4412,116.6113 463.8112,136.7513" fill="none" id="DocenteAbierto-to-EliminarDocenteView" style="stroke:#181818;stroke-width:1;"/><polygon fill="#181818" points="459.42,140.84,468.7326,137.6344,463.0793,137.4328,463.281,131.7795,459.42,140.84" style="stroke:#181818;stroke-width:1;"/><text fill="#000000" font-family="sans-serif" font-size="13" lengthAdjust="spacing" textLength="182.4063" x="524" y="86.0669">eliminarDocente(docenteId)</text></g><!--link EliminarDocenteView to DocentesController--><g class="link" data-entity-1="EliminarDocenteView" data-entity-2="DocentesController" data-source-line="17" data-uid="lnk12" id="link_EliminarDocenteView_DocentesController"><path d="M355.59,170.37 C241.62,184.21 54,207 54,207 C54,207 54,224 54,224 C54,224 103.5892,238.7489 148.7592,252.1889" fill="none" id="EliminarDocenteView-to-DocentesController" style="stroke:#181818;stroke-width:1;"/><polygon fill="#181818" points="154.51,253.9,147.0245,247.4994,149.7176,252.4741,144.743,255.1672,154.51,253.9" style="stroke:#181818;stroke-width:1;"/><text fill="#000000" font-family="sans-serif" font-size="13" lengthAdjust="spacing" textLength="342.4561" x="55" y="220.0669">cargarDocenteParaEliminacion(docenteId) : Docente</text></g><!--link EliminarDocenteView to DocentesController--><g class="link" data-entity-1="EliminarDocenteView" data-entity-2="DocentesController" data-source-line="23" data-uid="lnk15" id="link_EliminarDocenteView_DocentesController"><path d="M430.55,177.15 C419,196.11 402,224 402,224 C402,224 341.0642,239.0684 286.6842,252.5284" fill="none" id="EliminarDocenteView-to-DocentesController-1" style="stroke:#181818;stroke-width:1;"/><polygon fill="#181818" points="280.86,253.97,290.5574,255.6904,285.7135,252.7687,288.6353,247.9248,280.86,253.97" style="stroke:#181818;stroke-width:1;"/><text fill="#000000" font-family="sans-serif" font-size="13" lengthAdjust="spacing" textLength="222.5615" x="412" y="220.0669">eliminarDocente(docenteId) : void</text></g><!--link DocentesController to DocenteRepository--><g class="link" data-entity-1="DocentesController" data-entity-2="DocenteRepository" data-source-line="19" data-uid="lnk13" id="link_DocentesController_DocenteRepository"><path d="M162.15,290.1 C122.98,303.54 75,320 75,320 C75,320 75,337 75,337 C75,337 120.7651,351.6325 162.7951,365.0725" fill="none" id="DocentesController-to-DocenteRepository" style="stroke:#181818;stroke-width:1;"/><polygon fill="#181818" points="168.51,366.9,161.1559,360.3488,163.7476,365.3771,158.7193,367.9687,168.51,366.9" style="stroke:#181818;stroke-width:1;"/><text fill="#000000" font-family="sans-serif" font-size="13" lengthAdjust="spacing" textLength="226.1099" x="76" y="333.0669">obtenerPorId(docenteId) : Docente</text></g><!--link DocentesController to DocenteRepository--><g class="link" data-entity-1="DocentesController" data-entity-2="DocenteRepository" data-source-line="25" data-uid="lnk16" id="link_DocentesController_DocenteRepository"><path d="M246.57,290.1 C273.73,303.54 307,320 307,320 C307,320 307,337 307,337 C307,337 282.6802,350.4457 258.4202,363.8657" fill="none" id="DocentesController-to-DocenteRepository-1" style="stroke:#181818;stroke-width:1;"/><polygon fill="#181818" points="253.17,366.77,262.9816,365.9137,257.5452,364.3498,259.1092,358.9134,253.17,366.77" style="stroke:#181818;stroke-width:1;"/><text fill="#000000" font-family="sans-serif" font-size="13" lengthAdjust="spacing" textLength="168.1177" x="308" y="333.0669">eliminar(docenteId) : void</text></g><!--link DocenteRepository to Docente--><g class="link" data-entity-1="DocenteRepository" data-entity-2="Docente" data-source-line="21" data-uid="lnk14" id="link_DocenteRepository_Docente"><path d="M222,403.42 C222,420.57 222,446.58 222,463.69" fill="none" id="DocenteRepository-Docente" style="stroke:#181818;stroke-width:1;"/></g><!--link EliminarDocenteView to VerDocentes--><g class="link" data-entity-1="EliminarDocenteView" data-entity-2="VerDocentes" data-source-line="27" data-uid="lnk17" id="link_EliminarDocenteView_VerDocentes"><path d="M514.21,177.03 C572.02,190.49 643,207 643,207 C643,207 707.1593,232.6613 754.5493,251.6213" fill="none" id="EliminarDocenteView-to-VerDocentes" style="stroke:#181818;stroke-width:1;stroke-dasharray:7,7;"/><polygon fill="#181818" points="760.12,253.85,753.2498,246.7931,755.4778,251.9927,750.2781,254.2207,760.12,253.85" style="stroke:#181818;stroke-width:1;"/><text fill="#000000" font-family="sans-serif" font-size="13" lengthAdjust="spacing" textLength="159.5356" x="682" y="220.0669">&#171;include&#187; verDocentes()</text></g><!--SRC=[dLD1Qy8m6BtdLtnqbthGWqoPHGgrZU1bYXElaZOV4en9IJE7ZFttHRTghRMmvHAIlFU-zxuanKwed1cs1oaKscEEa6jvF2q8CPXPfhOIuIbEw2GQW1SayvY-hkZR9fhCw78rzu0LaEWCbSKYIWKQgzk8JRmsMgobPAasp0gju82ch7KMM5_NXEGisx4j0agn5ugL9oUSLzlpEnvy4d2ZKdFO7z7f2EWjT2tmeuvC1oaVlbnYnrfPutoYgGEd_IX-fYLmYRakXDNcs8uZNuJKMWhTRjZaBAYdzVdFFECTSjlUVqcG1W9qkLEw3nz0nips0bsuP_NBpjpTLLGXk2Gbzp9ddtST2q2d5XMQXJOptYvsPJcjwsbZb0T97hV4rJjemV_Yl1HhKcaorUk5rPSTm7WiL2RVEOPXzGludMy0]--></g></svg>