<svg xmlns="http://www.w3.org/2000/svg" xmlns:xlink="http://www.w3.org/1999/xlink" contentStyleType="text/css" data-diagram-type="SALT" height="423px" preserveAspectRatio="none" style="width:539px;height:423px;background:#FFFFFF;" version="1.1" viewBox="0 0 539 423" width="539px" zoomAndPan="magnify"><defs/><g><text fill="#000000" font-family="sans-serif" font-size="12" font-weight="bold" lengthAdjust="spacing" textLength="182.7715" x="6" y="17.1387">GESTI&#211;N DE ASIGNATURAS</text><line style="stroke:#AAAAAA;stroke-width:1;" x1="6" x2="532.709" y1="24.4688" y2="24.4688"/><line style="stroke:#AAAAAA;stroke-width:1;" x1="6" x2="532.709" y1="26.4688" y2="26.4688"/><text fill="#000000" font-family="sans-serif" font-size="12" font-weight="bold" lengthAdjust="spacing" textLength="167.0918" x="6" y="41.1074">1. Criterios de B&#250;squeda</text><text fill="#000000" font-family="sans-serif" font-size="12" font-style="italic" lengthAdjust="spacing" textLength="209.959" x="6" y="57.0762">Filtre por curso, grado o texto libre</text><text fill="#000000" font-family="sans-serif" font-size="12" lengthAdjust="spacing" textLength="108.4922" x="7" y="90.0137">Curso Acad&#233;mico:</text><rect fill="#EEEEEE" height="16.9688" style="stroke:#000000;stroke-width:1;" width="159" x="117.4922" y="78.875"/><text fill="#000000" font-family="sans-serif" font-size="12" lengthAdjust="spacing" textLength="116.1035" x="119.4922" y="92.0137">2024/2025 (Actual)</text><line style="stroke:#000000;stroke-width:1;" x1="265.4922" x2="265.4922" y1="78.875" y2="95.8438"/><polygon fill="#000000" points="268.4922,84.875,274.4922,84.875,271.4922,90.8438" style="stroke:#000000;stroke-width:1;"/><text fill="#000000" font-family="sans-serif" font-size="12" lengthAdjust="spacing" textLength="98.4492" x="7" y="109.9824">Grado Asociado:</text><rect fill="#EEEEEE" height="16.9688" style="stroke:#000000;stroke-width:1;" width="143" x="117.4922" y="98.8438"/><text fill="#000000" font-family="sans-serif" font-size="12" lengthAdjust="spacing" textLength="101.5547" x="119.4922" y="111.9824">Todos los grados</text><line style="stroke:#000000;stroke-width:1;" x1="249.4922" x2="249.4922" y1="98.8438" y2="115.8125"/><polygon fill="#000000" points="252.4922,104.8438,258.4922,104.8438,255.4922,110.8125" style="stroke:#000000;stroke-width:1;"/><text fill="#000000" font-family="sans-serif" font-size="12" lengthAdjust="spacing" textLength="105.7324" x="7" y="129.9512">B&#250;squeda r&#225;pida:</text><text fill="#000000" font-family="sans-serif" font-size="12" lengthAdjust="spacing" textLength="114.2051" x="120.4922" y="129.9512">Nombre o c&#243;digo...</text><line style="stroke:#000000;stroke-width:1;" x1="118.4922" x2="345.4922" y1="132.7813" y2="132.7813"/><line style="stroke:#000000;stroke-width:1;" x1="118.4922" x2="118.4922" y1="129.7813" y2="131.7813"/><line style="stroke:#000000;stroke-width:1;" x1="345.4922" x2="345.4922" y1="129.7813" y2="131.7813"/><rect fill="#EEEEEE" height="17.9688" rx="5" ry="5" style="stroke:#000000;stroke-width:2.5;" width="52" x="351.9922" y="121.3125"/><text fill="#000000" font-family="sans-serif" font-size="12" lengthAdjust="spacing" textLength="40.9746" x="357.5049" y="134.4512">Buscar</text><line style="stroke:#AAAAAA;stroke-width:1;" x1="6" x2="532.709" y1="164.25" y2="164.25"/><text fill="#000000" font-family="sans-serif" font-size="12" font-weight="bold" lengthAdjust="spacing" textLength="172.9512" x="6" y="195.8574">2. Listado de Asignaturas</text><text fill="#000000" font-family="sans-serif" font-size="12" font-weight="bold" lengthAdjust="spacing" textLength="46.5879" x="7" y="228.7949">C&#243;digo</text><text fill="#000000" font-family="sans-serif" font-size="12" font-weight="bold" lengthAdjust="spacing" textLength="168.9785" x="62.127" y="228.7949">Nombre de la Asignatura</text><text fill="#000000" font-family="sans-serif" font-size="12" font-weight="bold" lengthAdjust="spacing" textLength="38.6543" x="233.1055" y="228.7949">Curso</text><text fill="#000000" font-family="sans-serif" font-size="12" font-weight="bold" lengthAdjust="spacing" textLength="47.8418" x="284.957" y="228.7949">Grados</text><text fill="#000000" font-family="sans-serif" font-size="12" font-weight="bold" lengthAdjust="spacing" textLength="58.377" x="334.7988" y="228.7949">Alumnos</text><text fill="#000000" font-family="sans-serif" font-size="12" font-weight="bold" lengthAdjust="spacing" textLength="59.6953" x="396.0137" y="228.7949">Acciones</text><text fill="#000000" font-family="sans-serif" font-size="12" lengthAdjust="spacing" textLength="53.127" x="7" y="244.7637">MAT-101</text><text fill="#000000" font-family="sans-serif" font-size="12" lengthAdjust="spacing" textLength="51.2988" x="62.127" y="244.7637">C&#225;lculo I</text><text fill="#000000" font-family="sans-serif" font-size="12" lengthAdjust="spacing" textLength="49.8516" x="233.1055" y="244.7637">2024/25</text><text fill="#000000" font-family="sans-serif" font-size="12" lengthAdjust="spacing" textLength="47.1973" x="284.957" y="244.7637">GII, GIM</text><text fill="#000000" font-family="sans-serif" font-size="12" lengthAdjust="spacing" textLength="59.2148" x="334.7988" y="244.7637">120 matr.</text><rect fill="#EEEEEE" height="17.9688" rx="5" ry="5" style="stroke:#000000;stroke-width:2.5;" width="52" x="398.5137" y="236.125"/><text fill="#000000" font-family="sans-serif" font-size="12" lengthAdjust="spacing" textLength="35.5254" x="406.751" y="249.2637">Editar</text><rect fill="#EEEEEE" height="17.9688" rx="5" ry="5" style="stroke:#000000;stroke-width:2.5;" width="68" x="460.209" y="236.125"/><text fill="#000000" font-family="sans-serif" font-size="12" lengthAdjust="spacing" textLength="49.166" x="469.626" y="249.2637">Eliminar</text><text fill="#000000" font-family="sans-serif" font-size="12" lengthAdjust="spacing" textLength="46.6523" x="7" y="269.7324">INF-202</text><text fill="#000000" font-family="sans-serif" font-size="12" lengthAdjust="spacing" textLength="92.9941" x="62.127" y="269.7324">Bases de Datos</text><text fill="#000000" font-family="sans-serif" font-size="12" lengthAdjust="spacing" textLength="49.8516" x="233.1055" y="269.7324">2024/25</text><text fill="#000000" font-family="sans-serif" font-size="12" lengthAdjust="spacing" textLength="16.377" x="284.957" y="269.7324">GII</text><text fill="#000000" font-family="sans-serif" font-size="12" lengthAdjust="spacing" textLength="51.5801" x="334.7988" y="269.7324">85 matr.</text><rect fill="#EEEEEE" height="17.9688" rx="5" ry="5" style="stroke:#000000;stroke-width:2.5;" width="52" x="398.5137" y="261.0938"/><text fill="#000000" font-family="sans-serif" font-size="12" lengthAdjust="spacing" textLength="35.5254" x="406.751" y="274.2324">Editar</text><rect fill="#EEEEEE" height="17.9688" rx="5" ry="5" style="stroke:#000000;stroke-width:2.5;" width="68" x="460.209" y="261.0938"/><text fill="#000000" font-family="sans-serif" font-size="12" lengthAdjust="spacing" textLength="49.166" x="469.626" y="274.2324">Eliminar</text><text fill="#000000" font-family="sans-serif" font-size="12" lengthAdjust="spacing" textLength="45.293" x="7" y="294.7012">FIS-100</text><text fill="#000000" font-family="sans-serif" font-size="12" lengthAdjust="spacing" textLength="84.8789" x="62.127" y="294.7012">F&#237;sica General</text><text fill="#000000" font-family="sans-serif" font-size="12" lengthAdjust="spacing" textLength="49.8516" x="233.1055" y="294.7012">2023/24</text><text fill="#000000" font-family="sans-serif" font-size="12" lengthAdjust="spacing" textLength="23.1914" x="284.957" y="294.7012">GIM</text><text fill="#000000" font-family="sans-serif" font-size="12" lengthAdjust="spacing" textLength="51.5801" x="334.7988" y="294.7012">40 matr.</text><rect fill="#EEEEEE" height="17.9688" rx="5" ry="5" style="stroke:#000000;stroke-width:2.5;" width="52" x="398.5137" y="286.0625"/><text fill="#000000" font-family="sans-serif" font-size="12" lengthAdjust="spacing" textLength="35.5254" x="406.751" y="299.2012">Editar</text><rect fill="#EEEEEE" height="17.9688" rx="5" ry="5" style="stroke:#000000;stroke-width:2.5;" width="68" x="460.209" y="286.0625"/><text fill="#000000" font-family="sans-serif" font-size="12" lengthAdjust="spacing" textLength="49.166" x="469.626" y="299.2012">Eliminar</text><text fill="#000000" font-family="sans-serif" font-size="12" lengthAdjust="spacing" textLength="51.2461" x="7" y="319.6699">OPT-301</text><text fill="#000000" font-family="sans-serif" font-size="12" lengthAdjust="spacing" textLength="122.9648" x="62.127" y="319.6699">Inteligencia Artificial</text><text fill="#000000" font-family="sans-serif" font-size="12" lengthAdjust="spacing" textLength="49.8516" x="233.1055" y="319.6699">2024/25</text><text fill="#000000" font-family="sans-serif" font-size="12" lengthAdjust="spacing" textLength="46.084" x="284.957" y="319.6699">GII, GID</text><text fill="#000000" font-family="sans-serif" font-size="12" lengthAdjust="spacing" textLength="51.5801" x="334.7988" y="319.6699">60 matr.</text><rect fill="#EEEEEE" height="17.9688" rx="5" ry="5" style="stroke:#000000;stroke-width:2.5;" width="52" x="398.5137" y="311.0313"/><text fill="#000000" font-family="sans-serif" font-size="12" lengthAdjust="spacing" textLength="35.5254" x="406.751" y="324.1699">Editar</text><rect fill="#EEEEEE" height="17.9688" rx="5" ry="5" style="stroke:#000000;stroke-width:2.5;" width="68" x="460.209" y="311.0313"/><text fill="#000000" font-family="sans-serif" font-size="12" lengthAdjust="spacing" textLength="49.166" x="469.626" y="324.1699">Eliminar</text><line style="stroke:#000000;stroke-width:1;" x1="6" x2="61.127" y1="216.6563" y2="216.6563"/><line style="stroke:#000000;stroke-width:1;" x1="61.127" x2="232.1055" y1="216.6563" y2="216.6563"/><line style="stroke:#000000;stroke-width:1;" x1="232.1055" x2="283.957" y1="216.6563" y2="216.6563"/><line style="stroke:#000000;stroke-width:1;" x1="283.957" x2="333.7988" y1="216.6563" y2="216.6563"/><line style="stroke:#000000;stroke-width:1;" x1="333.7988" x2="395.0137" y1="216.6563" y2="216.6563"/><line style="stroke:#000000;stroke-width:1;" x1="395.0137" x2="456.709" y1="216.6563" y2="216.6563"/><line style="stroke:#000000;stroke-width:1;" x1="456.709" x2="531.709" y1="216.6563" y2="216.6563"/><line style="stroke:#000000;stroke-width:1;" x1="6" x2="61.127" y1="282.5625" y2="282.5625"/><line style="stroke:#000000;stroke-width:1;" x1="61.127" x2="232.1055" y1="282.5625" y2="282.5625"/><line style="stroke:#000000;stroke-width:1;" x1="232.1055" x2="283.957" y1="282.5625" y2="282.5625"/><line style="stroke:#000000;stroke-width:1;" x1="283.957" x2="333.7988" y1="282.5625" y2="282.5625"/><line style="stroke:#000000;stroke-width:1;" x1="333.7988" x2="395.0137" y1="282.5625" y2="282.5625"/><line style="stroke:#000000;stroke-width:1;" x1="395.0137" x2="456.709" y1="282.5625" y2="282.5625"/><line style="stroke:#000000;stroke-width:1;" x1="456.709" x2="531.709" y1="282.5625" y2="282.5625"/><line style="stroke:#000000;stroke-width:1;" x1="6" x2="61.127" y1="348.4688" y2="348.4688"/><line style="stroke:#000000;stroke-width:1;" x1="61.127" x2="232.1055" y1="348.4688" y2="348.4688"/><line style="stroke:#000000;stroke-width:1;" x1="232.1055" x2="283.957" y1="348.4688" y2="348.4688"/><line style="stroke:#000000;stroke-width:1;" x1="283.957" x2="333.7988" y1="348.4688" y2="348.4688"/><line style="stroke:#000000;stroke-width:1;" x1="333.7988" x2="395.0137" y1="348.4688" y2="348.4688"/><line style="stroke:#000000;stroke-width:1;" x1="395.0137" x2="456.709" y1="348.4688" y2="348.4688"/><line style="stroke:#000000;stroke-width:1;" x1="456.709" x2="531.709" y1="348.4688" y2="348.4688"/><line style="stroke:#000000;stroke-width:1;" x1="6" x2="61.127" y1="232.625" y2="232.625"/><line style="stroke:#000000;stroke-width:1;" x1="61.127" x2="232.1055" y1="232.625" y2="232.625"/><line style="stroke:#000000;stroke-width:1;" x1="232.1055" x2="283.957" y1="232.625" y2="232.625"/><line style="stroke:#000000;stroke-width:1;" x1="283.957" x2="333.7988" y1="232.625" y2="232.625"/><line style="stroke:#000000;stroke-width:1;" x1="333.7988" x2="395.0137" y1="232.625" y2="232.625"/><line style="stroke:#000000;stroke-width:1;" x1="395.0137" x2="456.709" y1="232.625" y2="232.625"/><line style="stroke:#000000;stroke-width:1;" x1="456.709" x2="531.709" y1="232.625" y2="232.625"/><line style="stroke:#000000;stroke-width:1;" x1="6" x2="61.127" y1="307.5313" y2="307.5313"/><line style="stroke:#000000;stroke-width:1;" x1="61.127" x2="232.1055" y1="307.5313" y2="307.5313"/><line style="stroke:#000000;stroke-width:1;" x1="232.1055" x2="283.957" y1="307.5313" y2="307.5313"/><line style="stroke:#000000;stroke-width:1;" x1="283.957" x2="333.7988" y1="307.5313" y2="307.5313"/><line style="stroke:#000000;stroke-width:1;" x1="333.7988" x2="395.0137" y1="307.5313" y2="307.5313"/><line style="stroke:#000000;stroke-width:1;" x1="395.0137" x2="456.709" y1="307.5313" y2="307.5313"/><line style="stroke:#000000;stroke-width:1;" x1="456.709" x2="531.709" y1="307.5313" y2="307.5313"/><line style="stroke:#000000;stroke-width:1;" x1="6" x2="61.127" y1="257.5938" y2="257.5938"/><line style="stroke:#000000;stroke-width:1;" x1="61.127" x2="232.1055" y1="257.5938" y2="257.5938"/><line style="stroke:#000000;stroke-width:1;" x1="232.1055" x2="283.957" y1="257.5938" y2="257.5938"/><line style="stroke:#000000;stroke-width:1;" x1="283.957" x2="333.7988" y1="257.5938" y2="257.5938"/><line style="stroke:#000000;stroke-width:1;" x1="333.7988" x2="395.0137" y1="257.5938" y2="257.5938"/><line style="stroke:#000000;stroke-width:1;" x1="395.0137" x2="456.709" y1="257.5938" y2="257.5938"/><line style="stroke:#000000;stroke-width:1;" x1="456.709" x2="531.709" y1="257.5938" y2="257.5938"/><line style="stroke:#000000;stroke-width:1;" x1="6" x2="61.127" y1="332.5" y2="332.5"/><line style="stroke:#000000;stroke-width:1;" x1="61.127" x2="232.1055" y1="332.5" y2="332.5"/><line style="stroke:#000000;stroke-width:1;" x1="232.1055" x2="283.957" y1="332.5" y2="332.5"/><line style="stroke:#000000;stroke-width:1;" x1="283.957" x2="333.7988" y1="332.5" y2="332.5"/><line style="stroke:#000000;stroke-width:1;" x1="333.7988" x2="395.0137" y1="332.5" y2="332.5"/><line style="stroke:#000000;stroke-width:1;" x1="395.0137" x2="456.709" y1="332.5" y2="332.5"/><line style="stroke:#000000;stroke-width:1;" x1="456.709" x2="531.709" y1="332.5" y2="332.5"/><line style="stroke:#000000;stroke-width:1;" x1="6" x2="6" y1="216.6563" y2="232.625"/><line style="stroke:#000000;stroke-width:1;" x1="333.7988" x2="333.7988" y1="307.5313" y2="332.5"/><line style="stroke:#000000;stroke-width:1;" x1="61.127" x2="61.127" y1="216.6563" y2="232.625"/><line style="stroke:#000000;stroke-width:1;" x1="395.0137" x2="395.0137" y1="307.5313" y2="332.5"/><line style="stroke:#000000;stroke-width:1;" x1="232.1055" x2="232.1055" y1="216.6563" y2="232.625"/><line style="stroke:#000000;stroke-width:1;" x1="456.709" x2="456.709" y1="307.5313" y2="332.5"/><line style="stroke:#000000;stroke-width:1;" x1="531.709" x2="531.709" y1="307.5313" y2="332.5"/><line style="stroke:#000000;stroke-width:1;" x1="283.957" x2="283.957" y1="216.6563" y2="232.625"/><line style="stroke:#000000;stroke-width:1;" x1="333.7988" x2="333.7988" y1="216.6563" y2="232.625"/><line style="stroke:#000000;stroke-width:1;" x1="395.0137" x2="395.0137" y1="216.6563" y2="232.625"/><line style="stroke:#000000;stroke-width:1;" x1="456.709" x2="456.709" y1="216.6563" y2="232.625"/><line style="stroke:#000000;stroke-width:1;" x1="531.709" x2="531.709" y1="216.6563" y2="232.625"/><line style="stroke:#000000;stroke-width:1;" x1="6" x2="6" y1="282.5625" y2="307.5313"/><line style="stroke:#000000;stroke-width:1;" x1="61.127" x2="61.127" y1="282.5625" y2="307.5313"/><line style="stroke:#000000;stroke-width:1;" x1="232.1055" x2="232.1055" y1="282.5625" y2="307.5313"/><line style="stroke:#000000;stroke-width:1;" x1="283.957" x2="283.957" y1="282.5625" y2="307.5313"/><line style="stroke:#000000;stroke-width:1;" x1="333.7988" x2="333.7988" y1="282.5625" y2="307.5313"/><line style="stroke:#000000;stroke-width:1;" x1="395.0137" x2="395.0137" y1="282.5625" y2="307.5313"/><line style="stroke:#000000;stroke-width:1;" x1="456.709" x2="456.709" y1="282.5625" y2="307.5313"/><line style="stroke:#000000;stroke-width:1;" x1="531.709" x2="531.709" y1="282.5625" y2="307.5313"/><line style="stroke:#000000;stroke-width:1;" x1="6" x2="6" y1="257.5938" y2="282.5625"/><line style="stroke:#000000;stroke-width:1;" x1="61.127" x2="61.127" y1="257.5938" y2="282.5625"/><line style="stroke:#000000;stroke-width:1;" x1="232.1055" x2="232.1055" y1="257.5938" y2="282.5625"/><line style="stroke:#000000;stroke-width:1;" x1="283.957" x2="283.957" y1="257.5938" y2="282.5625"/><line style="stroke:#000000;stroke-width:1;" x1="333.7988" x2="333.7988" y1="257.5938" y2="282.5625"/><line style="stroke:#000000;stroke-width:1;" x1="395.0137" x2="395.0137" y1="257.5938" y2="282.5625"/><line style="stroke:#000000;stroke-width:1;" x1="456.709" x2="456.709" y1="257.5938" y2="282.5625"/><line style="stroke:#000000;stroke-width:1;" x1="531.709" x2="531.709" y1="257.5938" y2="282.5625"/><line style="stroke:#000000;stroke-width:1;" x1="6" x2="6" y1="332.5" y2="348.4688"/><line style="stroke:#000000;stroke-width:1;" x1="61.127" x2="61.127" y1="332.5" y2="348.4688"/><line style="stroke:#000000;stroke-width:1;" x1="232.1055" x2="232.1055" y1="332.5" y2="348.4688"/><line style="stroke:#000000;stroke-width:1;" x1="283.957" x2="283.957" y1="332.5" y2="348.4688"/><line style="stroke:#000000;stroke-width:1;" x1="6" x2="6" y1="232.625" y2="257.5938"/><line style="stroke:#000000;stroke-width:1;" x1="333.7988" x2="333.7988" y1="332.5" y2="348.4688"/><line style="stroke:#000000;stroke-width:1;" x1="61.127" x2="61.127" y1="232.625" y2="257.5938"/><line style="stroke:#000000;stroke-width:1;" x1="395.0137" x2="395.0137" y1="332.5" y2="348.4688"/><line style="stroke:#000000;stroke-width:1;" x1="232.1055" x2="232.1055" y1="232.625" y2="257.5938"/><line style="stroke:#000000;stroke-width:1;" x1="456.709" x2="456.709" y1="332.5" y2="348.4688"/><line style="stroke:#000000;stroke-width:1;" x1="531.709" x2="531.709" y1="332.5" y2="348.4688"/><line style="stroke:#000000;stroke-width:1;" x1="283.957" x2="283.957" y1="232.625" y2="257.5938"/><line style="stroke:#000000;stroke-width:1;" x1="333.7988" x2="333.7988" y1="232.625" y2="257.5938"/><line style="stroke:#000000;stroke-width:1;" x1="395.0137" x2="395.0137" y1="232.625" y2="257.5938"/><line style="stroke:#000000;stroke-width:1;" x1="456.709" x2="456.709" y1="232.625" y2="257.5938"/><line style="stroke:#000000;stroke-width:1;" x1="531.709" x2="531.709" y1="232.625" y2="257.5938"/><line style="stroke:#000000;stroke-width:1;" x1="6" x2="6" y1="307.5313" y2="332.5"/><line style="stroke:#000000;stroke-width:1;" x1="61.127" x2="61.127" y1="307.5313" y2="332.5"/><line style="stroke:#000000;stroke-width:1;" x1="232.1055" x2="232.1055" y1="307.5313" y2="332.5"/><line style="stroke:#000000;stroke-width:1;" x1="283.957" x2="283.957" y1="307.5313" y2="332.5"/><line style="stroke:#AAAAAA;stroke-width:1.5;" x1="6" x2="532.709" y1="369.9375" y2="369.9375"/><rect fill="#EEEEEE" height="17.9688" rx="5" ry="5" style="stroke:#000000;stroke-width:2.5;" width="148" x="9.5" y="393.9063"/><text fill="#000000" font-family="sans-serif" font-size="12" lengthAdjust="spacing" textLength="101.7656" x="32.6172" y="407.0449">Crear Asignatura</text><rect fill="#EEEEEE" height="17.9688" rx="5" ry="5" style="stroke:#000000;stroke-width:2.5;" width="84" x="164.5" y="393.9063"/><text fill="#000000" font-family="sans-serif" font-size="12" lengthAdjust="spacing" textLength="52.1133" x="180.4434" y="407.0449">Importar</text><rect fill="#EEEEEE" height="17.9688" rx="5" ry="5" style="stroke:#000000;stroke-width:2.5;" width="148" x="261.3145" y="393.9063"/><text fill="#000000" font-family="sans-serif" font-size="12" lengthAdjust="spacing" textLength="88.3711" x="291.1289" y="407.0449">Volver al Inicio</text><line style="stroke:#000000;stroke-width:1;" x1="5" x2="532.709" y1="5" y2="5"/><line style="stroke:#000000;stroke-width:1;" x1="5" x2="532.709" y1="416.375" y2="416.375"/><line style="stroke:#000000;stroke-width:1;" x1="5" x2="5" y1="5" y2="20.9688"/><line style="stroke:#000000;stroke-width:1;" x1="532.709" x2="532.709" y1="5" y2="20.9688"/><line style="stroke:#000000;stroke-width:1;" x1="5" x2="5" y1="389.4063" y2="416.375"/><line style="stroke:#000000;stroke-width:1;" x1="532.709" x2="532.709" y1="389.4063" y2="416.375"/><line style="stroke:#000000;stroke-width:1;" x1="5" x2="5" y1="215.6563" y2="349.4688"/><line style="stroke:#000000;stroke-width:1;" x1="532.709" x2="532.709" y1="215.6563" y2="349.4688"/><line style="stroke:#000000;stroke-width:1;" x1="5" x2="5" y1="159.75" y2="167.75"/><line style="stroke:#000000;stroke-width:1;" x1="532.709" x2="532.709" y1="159.75" y2="167.75"/><line style="stroke:#000000;stroke-width:1;" x1="5" x2="5" y1="44.9375" y2="60.9063"/><line style="stroke:#000000;stroke-width:1;" x1="532.709" x2="532.709" y1="44.9375" y2="60.9063"/><line style="stroke:#000000;stroke-width:1;" x1="5" x2="5" y1="373.4375" y2="389.4063"/><line style="stroke:#000000;stroke-width:1;" x1="532.709" x2="532.709" y1="373.4375" y2="389.4063"/><line style="stroke:#000000;stroke-width:1;" x1="5" x2="5" y1="199.6875" y2="215.6563"/><line style="stroke:#000000;stroke-width:1;" x1="532.709" x2="532.709" y1="199.6875" y2="215.6563"/><line style="stroke:#000000;stroke-width:1;" x1="5" x2="5" y1="143.7813" y2="159.75"/><line style="stroke:#000000;stroke-width:1;" x1="532.709" x2="532.709" y1="143.7813" y2="159.75"/><line style="stroke:#000000;stroke-width:1;" x1="5" x2="5" y1="28.9688" y2="44.9375"/><line style="stroke:#000000;stroke-width:1;" x1="532.709" x2="532.709" y1="28.9688" y2="44.9375"/><line style="stroke:#000000;stroke-width:1;" x1="5" x2="5" y1="365.4375" y2="373.4375"/><line style="stroke:#000000;stroke-width:1;" x1="532.709" x2="532.709" y1="365.4375" y2="373.4375"/><line style="stroke:#000000;stroke-width:1;" x1="5" x2="5" y1="183.7188" y2="199.6875"/><line style="stroke:#000000;stroke-width:1;" x1="532.709" x2="532.709" y1="183.7188" y2="199.6875"/><line style="stroke:#000000;stroke-width:1;" x1="5" x2="5" y1="76.875" y2="143.7813"/><line style="stroke:#000000;stroke-width:1;" x1="532.709" x2="532.709" y1="76.875" y2="143.7813"/><line style="stroke:#000000;stroke-width:1;" x1="5" x2="5" y1="20.9688" y2="28.9688"/><line style="stroke:#000000;stroke-width:1;" x1="532.709" x2="532.709" y1="20.9688" y2="28.9688"/><line style="stroke:#000000;stroke-width:1;" x1="5" x2="5" y1="349.4688" y2="365.4375"/><line style="stroke:#000000;stroke-width:1;" x1="532.709" x2="532.709" y1="349.4688" y2="365.4375"/><line style="stroke:#000000;stroke-width:1;" x1="5" x2="5" y1="167.75" y2="183.7188"/><line style="stroke:#000000;stroke-width:1;" x1="532.709" x2="532.709" y1="167.75" y2="183.7188"/><line style="stroke:#000000;stroke-width:1;" x1="5" x2="5" y1="60.9063" y2="76.875"/><line style="stroke:#000000;stroke-width:1;" x1="532.709" x2="532.709" y1="60.9063" y2="76.875"/><!--SRC=[ZLHTJzim57tFhxXYBw3HD2qjOb51f9yAQmjg0tj0CBc9gImvDjXEjOd1dzWlu74FUzhRNlF7Tkr2suqzu2ZMTNnyxl79jO-r8SfemWqig8eqcmjY2aNqvq_nfDUVHAEUT__U0sojsT6WDqtYyliOkZs8fl5W72NdasZQgiwE7EJmyF05MlEXevYXYaaD6OLs-LlV5JGZAt2B7VKPDuh2hLIG5ahBNPWhaacGOEWN8u6pcQAjAbiky5r_xthREdO9H2d9oXyvIsK8t-2w7jGRLUoQi1sbfY1yvtgrOE388orJXa485f_830LoV5rglKQl58CgdsvPHYp_rbZcg0aLfkMlZCsbx_kmQbk8k6mNEYNgol4yR0YlL3O6w53TXo53-r4I-hDX_SgXvms_Mqd2LPrbMel1PFZXMH1ISBB1iWOuczP3Pu9UZoDUvEAl3sdAfA1h6RQDegHI2sg8w9HFF2suX1W7IxUR60tYU1Ux4OQrUW0vCSgtRlGoXXLsvKBESYPUhB4j7lShI86JRQAfgvCkCVWl_c76_g3vHiv-F4Mb0Kxsov-QfGG6L515-99qhrflE5AhjF5MeQTdIMNFRJyMXd8sfm9h229bs0t3YF_FYow6-s_DO16ltbSrzFYuMHXmYMUC4hNnsy7HGvpZcS9aRkYImuNaUC81fSO29KkSUl3iSqn5PYy0pplZH9ZpqT1U1Hfh06g-FKb-BTXE2WfZkO2W0RKWh0TXumECfedTT7F7snwS3K7BGgLOY5ZJYiqAWmGxtWbP49WKmh2SXd1wIyL9z-FB1-Y91LDIv5GOx-HYj0RiDofjPc1AbTLyCVAwz8OKU4drH2ep9kOXd2Vzoe4t969Ua3boK-5r9FAgho68WlC_]--></g></svg>