<?plantuml 1.2026.2?><svg xmlns="http://www.w3.org/2000/svg" xmlns:xlink="http://www.w3.org/1999/xlink" contentStyleType="text/css" data-diagram-type="SEQUENCE" height="786px" preserveAspectRatio="none" style="width:1780px;height:786px;background:#FFFFFF;" version="1.1" viewBox="0 0 1780 786" width="1780px" zoomAndPan="magnify"><title>Diagrama de Secuencia - Iniciar Sesi&#243;n (Spring Boot + React)</title><defs/><g><text fill="#000000" font-family="sans-serif" font-size="14" font-weight="bold" lengthAdjust="spacing" textLength="484.6748" x="649.5195" y="27.9951">Diagrama de Secuencia - Iniciar Sesi&#243;n (Spring Boot + React)</text><g><title>Frontend .React.</title><rect fill="#FFFFFF" height="546.0625" style="stroke:#181818;stroke-width:1;" width="10" x="414.7324" y="149.7266"/></g><g><title>AuthController</title><rect fill="#FFFFFF" height="472.7969" style="stroke:#181818;stroke-width:1;" width="10" x="720.082" y="178.8594"/></g><g><title>AuthService</title><rect fill="#FFFFFF" height="414.5313" style="stroke:#181818;stroke-width:1;" width="10" x="1015.0342" y="207.9922"/></g><g><title>UsuarioRepository</title><rect fill="#FFFFFF" height="87.3984" style="stroke:#181818;stroke-width:1;" width="10" x="1335.7197" y="237.125"/></g><g><title>JwtTokenProvider</title><rect fill="#FFFFFF" height="29.1328" style="stroke:#181818;stroke-width:1;" width="10" x="1484.8447" y="419.9219"/></g><g><title>Base de Datos .PostgreSQL.</title><rect fill="#FFFFFF" height="29.1328" style="stroke:#181818;stroke-width:1;" width="10" x="1673.0508" y="266.2578"/></g><rect fill="none" height="307.1328" style="stroke:#000000;stroke-width:1.5;" width="1557.8315" x="10" y="381.6563"/><g class="participant-lifeline" data-entity-uid="part1" data-qualified-name="User" id="part1-lifeline"><g><title>Usuario .Docente.Admin.</title><rect fill="#000000" fill-opacity="0.00000" height="587.1953" width="8" x="107.3955" y="118.5938"/><line style="stroke:#181818;stroke-width:0.5;stroke-dasharray:5,5;" x1="111" x2="111" y1="118.5938" y2="705.7891"/></g></g><g class="participant-lifeline" data-entity-uid="part2" data-qualified-name="FE" id="part2-lifeline"><g><title>Frontend .React.</title><rect fill="#000000" fill-opacity="0.00000" height="587.1953" width="8" x="415.7324" y="118.5938"/><line style="stroke:#181818;stroke-width:0.5;stroke-dasharray:5,5;" x1="419.4375" x2="419.4375" y1="118.5938" y2="705.7891"/></g></g><g class="participant-lifeline" data-entity-uid="part3" data-qualified-name="Controller" id="part3-lifeline"><g><title>AuthController</title><rect fill="#000000" fill-opacity="0.00000" height="587.1953" width="8" x="721.082" y="118.5938"/><line style="stroke:#181818;stroke-width:0.5;stroke-dasharray:5,5;" x1="724.0894" x2="724.0894" y1="118.5938" y2="705.7891"/></g></g><g class="participant-lifeline" data-entity-uid="part4" data-qualified-name="Service" id="part4-lifeline"><g><title>AuthService</title><rect fill="#000000" fill-opacity="0.00000" height="587.1953" width="8" x="1016.0342" y="118.5938"/><line style="stroke:#181818;stroke-width:0.5;stroke-dasharray:5,5;" x1="1019.7573" x2="1019.7573" y1="118.5938" y2="705.7891"/></g></g><g class="participant-lifeline" data-entity-uid="part5" data-qualified-name="Repo" id="part5-lifeline"><g><title>UsuarioRepository</title><rect fill="#000000" fill-opacity="0.00000" height="587.1953" width="8" x="1336.7197" y="118.5938"/><line style="stroke:#181818;stroke-width:0.5;stroke-dasharray:5,5;" x1="1340.5815" x2="1340.5815" y1="118.5938" y2="705.7891"/></g></g><g class="participant-lifeline" data-entity-uid="part6" data-qualified-name="JWT" id="part6-lifeline"><g><title>JwtTokenProvider</title><rect fill="#000000" fill-opacity="0.00000" height="587.1953" width="8" x="1485.8447" y="118.5938"/><line style="stroke:#181818;stroke-width:0.5;stroke-dasharray:5,5;" x1="1488.8579" x2="1488.8579" y1="118.5938" y2="705.7891"/></g></g><g class="participant-lifeline" data-entity-uid="part7" data-qualified-name="DB" id="part7-lifeline"><g><title>Base de Datos .PostgreSQL.</title><rect fill="#000000" fill-opacity="0.00000" height="587.1953" width="8" x="1674.0508" y="118.5938"/><line style="stroke:#181818;stroke-width:0.5;stroke-dasharray:5,5;" x1="1677.3877" x2="1677.3877" y1="118.5938" y2="705.7891"/></g></g><g class="participant participant-head" data-entity-uid="part1" data-qualified-name="User" id="part1-head"><text fill="#000000" font-family="sans-serif" font-size="14" lengthAdjust="spacing" textLength="176.791" x="20" y="115.292">Usuario (Docente/Admin)</text><ellipse cx="111.3955" cy="50.7969" fill="#E2E2F0" rx="8" ry="8" style="stroke:#181818;stroke-width:0.5;"/><path d="M111.3955,58.7969 L111.3955,85.7969 M98.3955,66.7969 L124.3955,66.7969 M111.3955,85.7969 L98.3955,100.7969 M111.3955,85.7969 L124.3955,100.7969" fill="none" style="stroke:#181818;stroke-width:0.5;"/></g><g class="participant participant-tail" data-entity-uid="part1" data-qualified-name="User" id="part1-tail"><text fill="#000000" font-family="sans-serif" font-size="14" lengthAdjust="spacing" textLength="176.791" x="20" y="717.7842">Usuario (Docente/Admin)</text><ellipse cx="111.3955" cy="729.5859" fill="#E2E2F0" rx="8" ry="8" style="stroke:#181818;stroke-width:0.5;"/><path d="M111.3955,737.5859 L111.3955,764.5859 M98.3955,745.5859 L124.3955,745.5859 M111.3955,764.5859 L98.3955,779.5859 M111.3955,764.5859 L124.3955,779.5859" fill="none" style="stroke:#181818;stroke-width:0.5;"/></g><g class="participant participant-head" data-entity-uid="part2" data-qualified-name="FE" id="part2-head"><rect fill="#E2E2F0" height="30.2969" rx="2.5" ry="2.5" style="stroke:#181818;stroke-width:0.5;" width="132.5898" x="353.4375" y="87.2969"/><text fill="#000000" font-family="sans-serif" font-size="14" lengthAdjust="spacing" textLength="118.5898" x="360.4375" y="107.292">Frontend (React)</text></g><g class="participant participant-tail" data-entity-uid="part2" data-qualified-name="FE" id="part2-tail"><rect fill="#E2E2F0" height="30.2969" rx="2.5" ry="2.5" style="stroke:#181818;stroke-width:0.5;" width="132.5898" x="353.4375" y="704.7891"/><text fill="#000000" font-family="sans-serif" font-size="14" lengthAdjust="spacing" textLength="118.5898" x="360.4375" y="724.7842">Frontend (React)</text></g><g class="participant participant-head" data-entity-uid="part3" data-qualified-name="Controller" id="part3-head"><rect fill="#E2E2F0" height="30.2969" rx="2.5" ry="2.5" style="stroke:#181818;stroke-width:0.5;" width="115.9854" x="667.0894" y="87.2969"/><text fill="#000000" font-family="sans-serif" font-size="14" lengthAdjust="spacing" textLength="101.9854" x="674.0894" y="107.292">AuthController</text></g><g class="participant participant-tail" data-entity-uid="part3" data-qualified-name="Controller" id="part3-tail"><rect fill="#E2E2F0" height="30.2969" rx="2.5" ry="2.5" style="stroke:#181818;stroke-width:0.5;" width="115.9854" x="667.0894" y="704.7891"/><text fill="#000000" font-family="sans-serif" font-size="14" lengthAdjust="spacing" textLength="101.9854" x="674.0894" y="724.7842">AuthController</text></g><g class="participant participant-head" data-entity-uid="part4" data-qualified-name="Service" id="part4-head"><rect fill="#E2E2F0" height="30.2969" rx="2.5" ry="2.5" style="stroke:#181818;stroke-width:0.5;" width="98.5537" x="970.7573" y="87.2969"/><text fill="#000000" font-family="sans-serif" font-size="14" lengthAdjust="spacing" textLength="84.5537" x="977.7573" y="107.292">AuthService</text></g><g class="participant participant-tail" data-entity-uid="part4" data-qualified-name="Service" id="part4-tail"><rect fill="#E2E2F0" height="30.2969" rx="2.5" ry="2.5" style="stroke:#181818;stroke-width:0.5;" width="98.5537" x="970.7573" y="704.7891"/><text fill="#000000" font-family="sans-serif" font-size="14" lengthAdjust="spacing" textLength="84.5537" x="977.7573" y="724.7842">AuthService</text></g><g class="participant participant-head" data-entity-uid="part5" data-qualified-name="Repo" id="part5-head"><rect fill="#E2E2F0" height="30.2969" rx="2.5" ry="2.5" style="stroke:#181818;stroke-width:0.5;" width="142.2764" x="1269.5815" y="87.2969"/><text fill="#000000" font-family="sans-serif" font-size="14" lengthAdjust="spacing" textLength="128.2764" x="1276.5815" y="107.292">UsuarioRepository</text></g><g class="participant participant-tail" data-entity-uid="part5" data-qualified-name="Repo" id="part5-tail"><rect fill="#E2E2F0" height="30.2969" rx="2.5" ry="2.5" style="stroke:#181818;stroke-width:0.5;" width="142.2764" x="1269.5815" y="704.7891"/><text fill="#000000" font-family="sans-serif" font-size="14" lengthAdjust="spacing" textLength="128.2764" x="1276.5815" y="724.7842">UsuarioRepository</text></g><g class="participant participant-head" data-entity-uid="part6" data-qualified-name="JWT" id="part6-head"><rect fill="#E2E2F0" height="30.2969" rx="2.5" ry="2.5" style="stroke:#181818;stroke-width:0.5;" width="135.9736" x="1421.8579" y="87.2969"/><text fill="#000000" font-family="sans-serif" font-size="14" lengthAdjust="spacing" textLength="121.9736" x="1428.8579" y="107.292">JwtTokenProvider</text></g><g class="participant participant-tail" data-entity-uid="part6" data-qualified-name="JWT" id="part6-tail"><rect fill="#E2E2F0" height="30.2969" rx="2.5" ry="2.5" style="stroke:#181818;stroke-width:0.5;" width="135.9736" x="1421.8579" y="704.7891"/><text fill="#000000" font-family="sans-serif" font-size="14" lengthAdjust="spacing" textLength="121.9736" x="1428.8579" y="724.7842">JwtTokenProvider</text></g><g class="participant participant-head" data-entity-uid="part7" data-qualified-name="DB" id="part7-head"><text fill="#000000" font-family="sans-serif" font-size="14" lengthAdjust="spacing" textLength="197.3262" x="1576.3877" y="115.292">Base de Datos (PostgreSQL)</text><path d="M1660.0508,66.2969 C1660.0508,56.2969 1678.0508,56.2969 1678.0508,56.2969 C1678.0508,56.2969 1696.0508,56.2969 1696.0508,66.2969 L1696.0508,92.2969 C1696.0508,102.2969 1678.0508,102.2969 1678.0508,102.2969 C1678.0508,102.2969 1660.0508,102.2969 1660.0508,92.2969 L1660.0508,66.2969" fill="#E2E2F0" style="stroke:#181818;stroke-width:0.5;"/><path d="M1660.0508,66.2969 C1660.0508,76.2969 1678.0508,76.2969 1678.0508,76.2969 C1678.0508,76.2969 1696.0508,76.2969 1696.0508,66.2969" fill="none" style="stroke:#181818;stroke-width:0.5;"/></g><g class="participant participant-tail" data-entity-uid="part7" data-qualified-name="DB" id="part7-tail"><text fill="#000000" font-family="sans-serif" font-size="14" lengthAdjust="spacing" textLength="197.3262" x="1576.3877" y="717.7842">Base de Datos (PostgreSQL)</text><path d="M1660.0508,731.0859 C1660.0508,721.0859 1678.0508,721.0859 1678.0508,721.0859 C1678.0508,721.0859 1696.0508,721.0859 1696.0508,731.0859 L1696.0508,757.0859 C1696.0508,767.0859 1678.0508,767.0859 1678.0508,767.0859 C1678.0508,767.0859 1660.0508,767.0859 1660.0508,757.0859 L1660.0508,731.0859" fill="#E2E2F0" style="stroke:#181818;stroke-width:0.5;"/><path d="M1660.0508,731.0859 C1660.0508,741.0859 1678.0508,741.0859 1678.0508,741.0859 C1678.0508,741.0859 1696.0508,741.0859 1696.0508,731.0859" fill="none" style="stroke:#181818;stroke-width:0.5;"/></g><g><title>Frontend .React.</title><rect fill="#FFFFFF" height="546.0625" style="stroke:#181818;stroke-width:1;" width="10" x="414.7324" y="149.7266"/></g><g><title>AuthController</title><rect fill="#FFFFFF" height="472.7969" style="stroke:#181818;stroke-width:1;" width="10" x="720.082" y="178.8594"/></g><g><title>AuthService</title><rect fill="#FFFFFF" height="414.5313" style="stroke:#181818;stroke-width:1;" width="10" x="1015.0342" y="207.9922"/></g><g><title>UsuarioRepository</title><rect fill="#FFFFFF" height="87.3984" style="stroke:#181818;stroke-width:1;" width="10" x="1335.7197" y="237.125"/></g><g><title>JwtTokenProvider</title><rect fill="#FFFFFF" height="29.1328" style="stroke:#181818;stroke-width:1;" width="10" x="1484.8447" y="419.9219"/></g><g><title>Base de Datos .PostgreSQL.</title><rect fill="#FFFFFF" height="29.1328" style="stroke:#181818;stroke-width:1;" width="10" x="1673.0508" y="266.2578"/></g><g class="message" data-entity-1="part1" data-entity-2="part2" id="msg1"><polygon fill="#181818" points="402.7324,145.7266,412.7324,149.7266,402.7324,153.7266,406.7324,149.7266" style="stroke:#181818;stroke-width:1;"/><line style="stroke:#181818;stroke-width:1;" x1="111.3955" x2="408.7324" y1="149.7266" y2="149.7266"/><text fill="#000000" font-family="sans-serif" font-size="13" lengthAdjust="spacing" textLength="284.3369" x="118.3955" y="144.6606">Ingresa credenciales (username, password)</text></g><g class="message" data-entity-1="part2" data-entity-2="part3" id="msg2"><polygon fill="#181818" points="708.082,174.8594,718.082,178.8594,708.082,182.8594,712.082,178.8594" style="stroke:#181818;stroke-width:1;"/><line style="stroke:#181818;stroke-width:1;" x1="424.7324" x2="714.082" y1="178.8594" y2="178.8594"/><text fill="#000000" font-family="sans-serif" font-size="13" lengthAdjust="spacing" textLength="235.5425" x="431.7324" y="173.7935">POST /api/auth/login (LoginRequest)</text></g><g class="message" data-entity-1="part3" data-entity-2="part4" id="msg3"><polygon fill="#181818" points="1003.0342,203.9922,1013.0342,207.9922,1003.0342,211.9922,1007.0342,207.9922" style="stroke:#181818;stroke-width:1;"/><line style="stroke:#181818;stroke-width:1;" x1="730.082" x2="1009.0342" y1="207.9922" y2="207.9922"/><text fill="#000000" font-family="sans-serif" font-size="13" lengthAdjust="spacing" textLength="228.2744" x="737.082" y="202.9263">authenticate(username, password)</text></g><g class="message" data-entity-1="part4" data-entity-2="part5" id="msg4"><polygon fill="#181818" points="1323.7197,233.125,1333.7197,237.125,1323.7197,241.125,1327.7197,237.125" style="stroke:#181818;stroke-width:1;"/><line style="stroke:#181818;stroke-width:1;" x1="1025.0342" x2="1329.7197" y1="237.125" y2="237.125"/><text fill="#000000" font-family="sans-serif" font-size="13" lengthAdjust="spacing" textLength="183.1553" x="1032.0342" y="232.0591">findByUsername(username)</text></g><g class="message" data-entity-1="part5" data-entity-2="part7" id="msg5"><polygon fill="#181818" points="1661.0508,262.2578,1671.0508,266.2578,1661.0508,270.2578,1665.0508,266.2578" style="stroke:#181818;stroke-width:1;"/><line style="stroke:#181818;stroke-width:1;" x1="1345.7197" x2="1667.0508" y1="266.2578" y2="266.2578"/><text fill="#000000" font-family="sans-serif" font-size="13" lengthAdjust="spacing" textLength="308.3311" x="1352.7197" y="261.1919">SELECT * FROM usuarios WHERE username = ?</text></g><g class="message" data-entity-1="part7" data-entity-2="part5" id="msg6"><polygon fill="#181818" points="1356.7197,291.3906,1346.7197,295.3906,1356.7197,299.3906,1352.7197,295.3906" style="stroke:#181818;stroke-width:1;"/><line style="stroke:#181818;stroke-width:1;stroke-dasharray:2,2;" x1="1350.7197" x2="1677.0508" y1="295.3906" y2="295.3906"/><text fill="#000000" font-family="sans-serif" font-size="13" lengthAdjust="spacing" textLength="126.1533" x="1362.7197" y="290.3247">Optional&lt;Usuario&gt;</text></g><g class="message" data-entity-1="part5" data-entity-2="part4" id="msg7"><polygon fill="#181818" points="1036.0342,320.5234,1026.0342,324.5234,1036.0342,328.5234,1032.0342,324.5234" style="stroke:#181818;stroke-width:1;"/><line style="stroke:#181818;stroke-width:1;stroke-dasharray:2,2;" x1="1030.0342" x2="1339.7197" y1="324.5234" y2="324.5234"/><text fill="#000000" font-family="sans-serif" font-size="13" lengthAdjust="spacing" textLength="126.1533" x="1042.0342" y="319.4575">Optional&lt;Usuario&gt;</text></g><g class="message" data-entity-1="part4" data-entity-2="part4" id="msg8"><line style="stroke:#181818;stroke-width:1;" x1="1025.0342" x2="1067.0342" y1="353.6563" y2="353.6563"/><line style="stroke:#181818;stroke-width:1;" x1="1067.0342" x2="1067.0342" y1="353.6563" y2="366.6563"/><line style="stroke:#181818;stroke-width:1;" x1="1026.0342" x2="1067.0342" y1="366.6563" y2="366.6563"/><polygon fill="#181818" points="1036.0342,362.6563,1026.0342,366.6563,1036.0342,370.6563,1032.0342,366.6563" style="stroke:#181818;stroke-width:1;"/><text fill="#000000" font-family="sans-serif" font-size="13" lengthAdjust="spacing" textLength="286.6855" x="1032.0342" y="348.5903">passwordEncoder.matches(password, hash)</text></g><path d="M10,381.6563 L74.4429,381.6563 L74.4429,388.7891 L64.4429,398.7891 L10,398.7891 L10,381.6563" fill="#EEEEEE" style="stroke:#000000;stroke-width:1.5;"/><rect fill="none" height="307.1328" style="stroke:#000000;stroke-width:1.5;" width="1557.8315" x="10" y="381.6563"/><text fill="#000000" font-family="sans-serif" font-size="13" font-weight="bold" lengthAdjust="spacing" textLength="19.4429" x="25" y="394.7231">alt</text><text fill="#000000" font-family="sans-serif" font-size="11" font-weight="bold" lengthAdjust="spacing" textLength="138.8213" x="89.4429" y="393.8667">[Credenciales V&#225;lidas]</text><g class="message" data-entity-1="part4" data-entity-2="part6" id="msg9"><polygon fill="#181818" points="1472.8447,415.9219,1482.8447,419.9219,1472.8447,423.9219,1476.8447,419.9219" style="stroke:#181818;stroke-width:1;"/><line style="stroke:#181818;stroke-width:1;" x1="1025.0342" x2="1478.8447" y1="419.9219" y2="419.9219"/><text fill="#000000" font-family="sans-serif" font-size="13" lengthAdjust="spacing" textLength="241.5347" x="1032.0342" y="414.856">generateToken(username, tipoActor)</text></g><g class="message" data-entity-1="part6" data-entity-2="part4" id="msg10"><polygon fill="#181818" points="1036.0342,445.0547,1026.0342,449.0547,1036.0342,453.0547,1032.0342,449.0547" style="stroke:#181818;stroke-width:1;"/><line style="stroke:#181818;stroke-width:1;stroke-dasharray:2,2;" x1="1030.0342" x2="1488.8447" y1="449.0547" y2="449.0547"/><text fill="#000000" font-family="sans-serif" font-size="13" lengthAdjust="spacing" textLength="79.7456" x="1042.0342" y="443.9888">String token</text></g><g class="message" data-entity-1="part4" data-entity-2="part3" id="msg11"><polygon fill="#181818" points="741.082,474.1875,731.082,478.1875,741.082,482.1875,737.082,478.1875" style="stroke:#181818;stroke-width:1;"/><line style="stroke:#181818;stroke-width:1;stroke-dasharray:2,2;" x1="735.082" x2="1014.0342" y1="478.1875" y2="478.1875"/><text fill="#000000" font-family="sans-serif" font-size="13" lengthAdjust="spacing" textLength="260.9521" x="747.082" y="473.1216">JwtResponse(token, "Bearer", tipoActor)</text></g><g class="message" data-entity-1="part3" data-entity-2="part2" id="msg12"><polygon fill="#181818" points="435.7324,503.3203,425.7324,507.3203,435.7324,511.3203,431.7324,507.3203" style="stroke:#181818;stroke-width:1;"/><line style="stroke:#181818;stroke-width:1;stroke-dasharray:2,2;" x1="429.7324" x2="719.082" y1="507.3203" y2="507.3203"/><text fill="#000000" font-family="sans-serif" font-size="13" lengthAdjust="spacing" textLength="144.5615" x="441.7324" y="502.2544">200 OK (JwtResponse)</text></g><g class="message" data-entity-1="part2" data-entity-2="part2" id="msg13"><line style="stroke:#181818;stroke-width:1;" x1="424.7324" x2="466.7324" y1="536.4531" y2="536.4531"/><line style="stroke:#181818;stroke-width:1;" x1="466.7324" x2="466.7324" y1="536.4531" y2="549.4531"/><line style="stroke:#181818;stroke-width:1;" x1="425.7324" x2="466.7324" y1="549.4531" y2="549.4531"/><polygon fill="#181818" points="435.7324,545.4531,425.7324,549.4531,435.7324,553.4531,431.7324,549.4531" style="stroke:#181818;stroke-width:1;"/><text fill="#000000" font-family="sans-serif" font-size="13" lengthAdjust="spacing" textLength="271.3496" x="431.7324" y="531.3872">Guardar Token (LocalStorage) y tipoActor</text></g><g class="message" data-entity-1="part2" data-entity-2="part1" id="msg14"><polygon fill="#181818" points="122.3955,574.5859,112.3955,578.5859,122.3955,582.5859,118.3955,578.5859" style="stroke:#181818;stroke-width:1;"/><line style="stroke:#181818;stroke-width:1;stroke-dasharray:2,2;" x1="116.3955" x2="413.7324" y1="578.5859" y2="578.5859"/><text fill="#000000" font-family="sans-serif" font-size="13" lengthAdjust="spacing" textLength="142.0479" x="128.3955" y="573.52">Redirigir a Dashboard</text></g><line style="stroke:#000000;stroke-width:1;stroke-dasharray:2,2;" x1="10" x2="1567.8315" y1="587.5859" y2="587.5859"/><text fill="#000000" font-family="sans-serif" font-size="11" font-weight="bold" lengthAdjust="spacing" textLength="149.4023" x="15" y="597.7964">[Credenciales Inv&#225;lidas]</text><g class="message" data-entity-1="part4" data-entity-2="part3" id="msg15"><polygon fill="#181818" points="741.082,618.5234,731.082,622.5234,741.082,626.5234,737.082,622.5234" style="stroke:#181818;stroke-width:1;"/><line style="stroke:#181818;stroke-width:1;stroke-dasharray:2,2;" x1="735.082" x2="1019.0342" y1="622.5234" y2="622.5234"/><text fill="#000000" font-family="sans-serif" font-size="13" lengthAdjust="spacing" textLength="204.7119" x="747.082" y="617.4575">throw BadCredentialsException</text></g><g class="message" data-entity-1="part3" data-entity-2="part2" id="msg16"><polygon fill="#181818" points="435.7324,647.6563,425.7324,651.6563,435.7324,655.6563,431.7324,651.6563" style="stroke:#181818;stroke-width:1;"/><line style="stroke:#181818;stroke-width:1;stroke-dasharray:2,2;" x1="429.7324" x2="724.082" y1="651.6563" y2="651.6563"/><text fill="#000000" font-family="sans-serif" font-size="13" lengthAdjust="spacing" textLength="116.2256" x="441.7324" y="646.5903">401 Unauthorized</text></g><g class="message" data-entity-1="part2" data-entity-2="part1" id="msg17"><polygon fill="#181818" points="122.3955,676.7891,112.3955,680.7891,122.3955,684.7891,118.3955,680.7891" style="stroke:#181818;stroke-width:1;"/><line style="stroke:#181818;stroke-width:1;stroke-dasharray:2,2;" x1="116.3955" x2="413.7324" y1="680.7891" y2="680.7891"/><text fill="#000000" font-family="sans-serif" font-size="13" lengthAdjust="spacing" textLength="247.9966" x="128.3955" y="675.7231">Mostrar Error "Credenciales inv&#225;lidas"</text></g><?plantuml-src VLJRSjCm57ptLvp9amCjAGnF7YXJDmwqj9CI9_Jvr3eu6Xp9I4fA-Hk-WK_eZt5aEuwIGlFWMtPNsjLAJhgAO2onDBX240Gv5MjIXKGuXWib-S7mDoiV_oY8yzf8LKAgjOENC2Cit32A-AeD31PsZKPgYCUw8ELeT2PMKWq7W1OMbanKet4iMADoC9WOpHWb86vb6jWasmUThTtod756LnMP1h9xVGhDoMnaGGskUzu7TLESKQsjv4a_D53_ke-xl7Tp_PtKZT4RARgHBs_daK27TsW91gc_SbvZTDf2VAEjAmtbNwvQ9-CqYhnfE3vbLmb7oVzQXCAGQEAjY5bhHYXSqH7KQEszDcBeqvGRTEJ3c6IUlxESmCqqdyC8Qpb2DZogT2bvNQxyRKO_rcHTe11ajNlqYbqu2NWHNYjPCFpvsMppxEvUnUUMm3UfHFgmwBYzI41jylKNJngd2UJPLNO-XnSmcKslOTqkYeNRJzaiWwq0l8SFEmtESvp2SJ_gj7PIAwpUTKjw6WaAmUrmeTLd6SqK0sizQvj4fWhDHNYrGbSioSRRxqUmHBjaivM3yt1jlpx-hgH06m7_0cLkKG8bAJ8yRbEo87SdQttcTzEmeVNJyzNp7_Y-RoftpOPqNgT119wsf7xmWofnoMTaQwqinOt04RUQq73Tdymah4_Nw3Sd9p3z374WqsBRqdh8HmvQyFdHsFGjBR3AMHDB6iB3ReoUnZnVf8JNGqWZIsa0UOVPvPrcfOWgtdDxAL-epJzpFh3gbaRVGugY9Jics-ndGKqb3dFRDlq_lj-Ul8Q5yXj76_cBn24zs7HFR5tpAM4uaCmOVsBkMP6zbK74vsBOpads5m00?></g></svg>