<?plantuml 1.2026.2?><svg xmlns="http://www.w3.org/2000/svg" xmlns:xlink="http://www.w3.org/1999/xlink" contentStyleType="text/css" data-diagram-type="SEQUENCE" height="1334px" preserveAspectRatio="none" style="width:2037px;height:1334px;background:#FFFFFF;" version="1.1" viewBox="0 0 2037 1334" width="2037px" zoomAndPan="magnify"><title>Diagrama de Secuencia - Editar Alumno - Spring Boot + React</title><defs/><g><text fill="#000000" font-family="sans-serif" font-size="14" font-weight="bold" lengthAdjust="spacing" textLength="488.0449" x="775.7158" y="27.9951">Diagrama de Secuencia - Editar Alumno - Spring Boot + React</text><g><title>Frontend .React.</title><rect fill="#FFFFFF" height="1094.4531" style="stroke:#181818;stroke-width:1;" width="10" x="397.5454" y="149.7266"/></g><g><title>AlumnosController</title><rect fill="#FFFFFF" height="1006.0547" style="stroke:#181818;stroke-width:1;" width="10" x="753.1113" y="193.9922"/></g><g><title>AlumnoService</title><rect fill="#FFFFFF" height="947.7891" style="stroke:#181818;stroke-width:1;" width="10" x="1054.6968" y="223.125"/></g><g><title>AlumnoRepository</title><rect fill="#FFFFFF" height="87.3984" style="stroke:#181818;stroke-width:1;" width="10" x="1455.6484" y="252.2578"/></g><g><title>AlumnoRepository</title><rect fill="#FFFFFF" height="87.3984" style="stroke:#181818;stroke-width:1;" width="10" x="1455.6484" y="709.25"/></g><g><title>AlumnoRepository</title><rect fill="#FFFFFF" height="87.3984" style="stroke:#181818;stroke-width:1;" width="10" x="1455.6484" y="910.0469"/></g><g><title>Base de Datos .PostgreSQL.</title><rect fill="#FFFFFF" height="29.1328" style="stroke:#181818;stroke-width:1;" width="10" x="1913.8135" y="281.3906"/></g><rect fill="none" height="882.5234" style="stroke:#000000;stroke-width:1.5;" width="2020.4766" x="10" y="354.6563"/><g class="participant-lifeline" data-entity-uid="part1" data-qualified-name="Docente" id="part1-lifeline"><g><title>Docente</title><rect fill="#000000" fill-opacity="0.00000" height="1135.5859" width="8" x="48.3159" y="118.5938"/><line style="stroke:#181818;stroke-width:0.5;stroke-dasharray:5,5;" x1="52" x2="52" y1="118.5938" y2="1254.1797"/></g></g><g class="participant-lifeline" data-entity-uid="part2" data-qualified-name="FE" id="part2-lifeline"><g><title>Frontend .React.</title><rect fill="#000000" fill-opacity="0.00000" height="1135.5859" width="8" x="398.5454" y="118.5938"/><line style="stroke:#181818;stroke-width:0.5;stroke-dasharray:5,5;" x1="402.2505" x2="402.2505" y1="118.5938" y2="1254.1797"/></g></g><g class="participant-lifeline" data-entity-uid="part3" data-qualified-name="Controller" id="part3-lifeline"><g><title>AlumnosController</title><rect fill="#000000" fill-opacity="0.00000" height="1135.5859" width="8" x="754.1113" y="118.5938"/><line style="stroke:#181818;stroke-width:0.5;stroke-dasharray:5,5;" x1="757.1699" x2="757.1699" y1="118.5938" y2="1254.1797"/></g></g><g class="participant-lifeline" data-entity-uid="part4" data-qualified-name="Service" id="part4-lifeline"><g><title>AlumnoService</title><rect fill="#000000" fill-opacity="0.00000" height="1135.5859" width="8" x="1055.6968" y="118.5938"/><line style="stroke:#181818;stroke-width:0.5;stroke-dasharray:5,5;" x1="1059.1182" x2="1059.1182" y1="118.5938" y2="1254.1797"/></g></g><g class="participant-lifeline" data-entity-uid="part5" data-qualified-name="Repo" id="part5-lifeline"><g><title>AlumnoRepository</title><rect fill="#000000" fill-opacity="0.00000" height="1135.5859" width="8" x="1456.6484" y="118.5938"/><line style="stroke:#181818;stroke-width:0.5;stroke-dasharray:5,5;" x1="1460.4043" x2="1460.4043" y1="118.5938" y2="1254.1797"/></g></g><g class="participant-lifeline" data-entity-uid="part6" data-qualified-name="DocenteRepo" id="part6-lifeline"><g><title>DocenteRepository</title><rect fill="#000000" fill-opacity="0.00000" height="1135.5859" width="8" x="1611.7446" y="118.5938"/><line style="stroke:#181818;stroke-width:0.5;stroke-dasharray:5,5;" x1="1614.8926" x2="1614.8926" y1="118.5938" y2="1254.1797"/></g></g><g class="participant-lifeline" data-entity-uid="part7" data-qualified-name="DB" id="part7-lifeline"><g><title>Base de Datos .PostgreSQL.</title><rect fill="#000000" fill-opacity="0.00000" height="1135.5859" width="8" x="1914.8135" y="118.5938"/><line style="stroke:#181818;stroke-width:0.5;stroke-dasharray:5,5;" x1="1918.1504" x2="1918.1504" y1="118.5938" y2="1254.1797"/></g></g><g class="participant participant-head" data-entity-uid="part1" data-qualified-name="Docente" id="part1-head"><text fill="#000000" font-family="sans-serif" font-size="14" lengthAdjust="spacing" textLength="58.6318" x="20" y="115.292">Docente</text><ellipse cx="52.3159" cy="50.7969" fill="#E2E2F0" rx="8" ry="8" style="stroke:#181818;stroke-width:0.5;"/><path d="M52.3159,58.7969 L52.3159,85.7969 M39.3159,66.7969 L65.3159,66.7969 M52.3159,85.7969 L39.3159,100.7969 M52.3159,85.7969 L65.3159,100.7969" fill="none" style="stroke:#181818;stroke-width:0.5;"/></g><g class="participant participant-tail" data-entity-uid="part1" data-qualified-name="Docente" id="part1-tail"><text fill="#000000" font-family="sans-serif" font-size="14" lengthAdjust="spacing" textLength="58.6318" x="20" y="1266.1748">Docente</text><ellipse cx="52.3159" cy="1277.9766" fill="#E2E2F0" rx="8" ry="8" style="stroke:#181818;stroke-width:0.5;"/><path d="M52.3159,1285.9766 L52.3159,1312.9766 M39.3159,1293.9766 L65.3159,1293.9766 M52.3159,1312.9766 L39.3159,1327.9766 M52.3159,1312.9766 L65.3159,1327.9766" fill="none" style="stroke:#181818;stroke-width:0.5;"/></g><g class="participant participant-head" data-entity-uid="part2" data-qualified-name="FE" id="part2-head"><rect fill="#E2E2F0" height="30.2969" rx="2.5" ry="2.5" style="stroke:#181818;stroke-width:0.5;" width="132.5898" x="336.2505" y="87.2969"/><text fill="#000000" font-family="sans-serif" font-size="14" lengthAdjust="spacing" textLength="118.5898" x="343.2505" y="107.292">Frontend (React)</text></g><g class="participant participant-tail" data-entity-uid="part2" data-qualified-name="FE" id="part2-tail"><rect fill="#E2E2F0" height="30.2969" rx="2.5" ry="2.5" style="stroke:#181818;stroke-width:0.5;" width="132.5898" x="336.2505" y="1253.1797"/><text fill="#000000" font-family="sans-serif" font-size="14" lengthAdjust="spacing" textLength="118.5898" x="343.2505" y="1273.1748">Frontend (React)</text></g><g class="participant participant-head" data-entity-uid="part3" data-qualified-name="Controller" id="part3-head"><rect fill="#E2E2F0" height="30.2969" rx="2.5" ry="2.5" style="stroke:#181818;stroke-width:0.5;" width="143.8828" x="686.1699" y="87.2969"/><text fill="#000000" font-family="sans-serif" font-size="14" lengthAdjust="spacing" textLength="129.8828" x="693.1699" y="107.292">AlumnosController</text></g><g class="participant participant-tail" data-entity-uid="part3" data-qualified-name="Controller" id="part3-tail"><rect fill="#E2E2F0" height="30.2969" rx="2.5" ry="2.5" style="stroke:#181818;stroke-width:0.5;" width="143.8828" x="686.1699" y="1253.1797"/><text fill="#000000" font-family="sans-serif" font-size="14" lengthAdjust="spacing" textLength="129.8828" x="693.1699" y="1273.1748">AlumnosController</text></g><g class="participant participant-head" data-entity-uid="part4" data-qualified-name="Service" id="part4-head"><rect fill="#E2E2F0" height="30.2969" rx="2.5" ry="2.5" style="stroke:#181818;stroke-width:0.5;" width="119.1572" x="1000.1182" y="87.2969"/><text fill="#000000" font-family="sans-serif" font-size="14" lengthAdjust="spacing" textLength="105.1572" x="1007.1182" y="107.292">AlumnoService</text></g><g class="participant participant-tail" data-entity-uid="part4" data-qualified-name="Service" id="part4-tail"><rect fill="#E2E2F0" height="30.2969" rx="2.5" ry="2.5" style="stroke:#181818;stroke-width:0.5;" width="119.1572" x="1000.1182" y="1253.1797"/><text fill="#000000" font-family="sans-serif" font-size="14" lengthAdjust="spacing" textLength="105.1572" x="1007.1182" y="1273.1748">AlumnoService</text></g><g class="participant participant-head" data-entity-uid="part5" data-qualified-name="Repo" id="part5-head"><rect fill="#E2E2F0" height="30.2969" rx="2.5" ry="2.5" style="stroke:#181818;stroke-width:0.5;" width="142.4883" x="1389.4043" y="87.2969"/><text fill="#000000" font-family="sans-serif" font-size="14" lengthAdjust="spacing" textLength="128.4883" x="1396.4043" y="107.292">AlumnoRepository</text></g><g class="participant participant-tail" data-entity-uid="part5" data-qualified-name="Repo" id="part5-tail"><rect fill="#E2E2F0" height="30.2969" rx="2.5" ry="2.5" style="stroke:#181818;stroke-width:0.5;" width="142.4883" x="1389.4043" y="1253.1797"/><text fill="#000000" font-family="sans-serif" font-size="14" lengthAdjust="spacing" textLength="128.4883" x="1396.4043" y="1273.1748">AlumnoRepository</text></g><g class="participant participant-head" data-entity-uid="part6" data-qualified-name="DocenteRepo" id="part6-head"><rect fill="#E2E2F0" height="30.2969" rx="2.5" ry="2.5" style="stroke:#181818;stroke-width:0.5;" width="147.7041" x="1541.8926" y="87.2969"/><text fill="#000000" font-family="sans-serif" font-size="14" lengthAdjust="spacing" textLength="133.7041" x="1548.8926" y="107.292">DocenteRepository</text></g><g class="participant participant-tail" data-entity-uid="part6" data-qualified-name="DocenteRepo" id="part6-tail"><rect fill="#E2E2F0" height="30.2969" rx="2.5" ry="2.5" style="stroke:#181818;stroke-width:0.5;" width="147.7041" x="1541.8926" y="1253.1797"/><text fill="#000000" font-family="sans-serif" font-size="14" lengthAdjust="spacing" textLength="133.7041" x="1548.8926" y="1273.1748">DocenteRepository</text></g><g class="participant participant-head" data-entity-uid="part7" data-qualified-name="DB" id="part7-head"><text fill="#000000" font-family="sans-serif" font-size="14" lengthAdjust="spacing" textLength="197.3262" x="1817.1504" y="115.292">Base de Datos (PostgreSQL)</text><path d="M1900.8135,66.2969 C1900.8135,56.2969 1918.8135,56.2969 1918.8135,56.2969 C1918.8135,56.2969 1936.8135,56.2969 1936.8135,66.2969 L1936.8135,92.2969 C1936.8135,102.2969 1918.8135,102.2969 1918.8135,102.2969 C1918.8135,102.2969 1900.8135,102.2969 1900.8135,92.2969 L1900.8135,66.2969" fill="#E2E2F0" style="stroke:#181818;stroke-width:0.5;"/><path d="M1900.8135,66.2969 C1900.8135,76.2969 1918.8135,76.2969 1918.8135,76.2969 C1918.8135,76.2969 1936.8135,76.2969 1936.8135,66.2969" fill="none" style="stroke:#181818;stroke-width:0.5;"/></g><g class="participant participant-tail" data-entity-uid="part7" data-qualified-name="DB" id="part7-tail"><text fill="#000000" font-family="sans-serif" font-size="14" lengthAdjust="spacing" textLength="197.3262" x="1817.1504" y="1266.1748">Base de Datos (PostgreSQL)</text><path d="M1900.8135,1279.4766 C1900.8135,1269.4766 1918.8135,1269.4766 1918.8135,1269.4766 C1918.8135,1269.4766 1936.8135,1269.4766 1936.8135,1279.4766 L1936.8135,1305.4766 C1936.8135,1315.4766 1918.8135,1315.4766 1918.8135,1315.4766 C1918.8135,1315.4766 1900.8135,1315.4766 1900.8135,1305.4766 L1900.8135,1279.4766" fill="#E2E2F0" style="stroke:#181818;stroke-width:0.5;"/><path d="M1900.8135,1279.4766 C1900.8135,1289.4766 1918.8135,1289.4766 1918.8135,1289.4766 C1918.8135,1289.4766 1936.8135,1289.4766 1936.8135,1279.4766" fill="none" style="stroke:#181818;stroke-width:0.5;"/></g><g><title>Frontend .React.</title><rect fill="#FFFFFF" height="1094.4531" style="stroke:#181818;stroke-width:1;" width="10" x="397.5454" y="149.7266"/></g><g><title>AlumnosController</title><rect fill="#FFFFFF" height="1006.0547" style="stroke:#181818;stroke-width:1;" width="10" x="753.1113" y="193.9922"/></g><g><title>AlumnoService</title><rect fill="#FFFFFF" height="947.7891" style="stroke:#181818;stroke-width:1;" width="10" x="1054.6968" y="223.125"/></g><g><title>AlumnoRepository</title><rect fill="#FFFFFF" height="87.3984" style="stroke:#181818;stroke-width:1;" width="10" x="1455.6484" y="252.2578"/></g><g><title>AlumnoRepository</title><rect fill="#FFFFFF" height="87.3984" style="stroke:#181818;stroke-width:1;" width="10" x="1455.6484" y="709.25"/></g><g><title>AlumnoRepository</title><rect fill="#FFFFFF" height="87.3984" style="stroke:#181818;stroke-width:1;" width="10" x="1455.6484" y="910.0469"/></g><g><title>Base de Datos .PostgreSQL.</title><rect fill="#FFFFFF" height="29.1328" style="stroke:#181818;stroke-width:1;" width="10" x="1913.8135" y="281.3906"/></g><g class="message" data-entity-1="part1" data-entity-2="part2" id="msg1"><polygon fill="#181818" points="385.5454,145.7266,395.5454,149.7266,385.5454,153.7266,389.5454,149.7266" style="stroke:#181818;stroke-width:1;"/><line style="stroke:#181818;stroke-width:1;" x1="52.3159" x2="391.5454" y1="149.7266" y2="149.7266"/><text fill="#000000" font-family="sans-serif" font-size="13" lengthAdjust="spacing" textLength="98.395" x="59.3159" y="144.6606">Clic en "Editar"</text></g><g class="message" data-entity-1="part2" data-entity-2="part3" id="msg2"><polygon fill="#181818" points="741.1113,189.9922,751.1113,193.9922,741.1113,197.9922,745.1113,193.9922" style="stroke:#181818;stroke-width:1;"/><line style="stroke:#181818;stroke-width:1;" x1="407.5454" x2="747.1113" y1="193.9922" y2="193.9922"/><text fill="#000000" font-family="sans-serif" font-size="13" lengthAdjust="spacing" textLength="147.1831" x="414.5454" y="173.7935">GET /api/alumnos/{id}</text><text fill="#000000" font-family="sans-serif" font-size="13" lengthAdjust="spacing" textLength="267.8774" x="414.5454" y="188.9263">(Header: Authorization: Bearer &lt;token&gt;)</text></g><g class="message" data-entity-1="part3" data-entity-2="part4" id="msg3"><polygon fill="#181818" points="1042.6968,219.125,1052.6968,223.125,1042.6968,227.125,1046.6968,223.125" style="stroke:#181818;stroke-width:1;"/><line style="stroke:#181818;stroke-width:1;" x1="763.1113" x2="1048.6968" y1="223.125" y2="223.125"/><text fill="#000000" font-family="sans-serif" font-size="13" lengthAdjust="spacing" textLength="155.7144" x="770.1113" y="218.0591">obtenerAlumnoPorId(id)</text></g><g class="message" data-entity-1="part4" data-entity-2="part5" id="msg4"><polygon fill="#181818" points="1443.6484,248.2578,1453.6484,252.2578,1443.6484,256.2578,1447.6484,252.2578" style="stroke:#181818;stroke-width:1;"/><line style="stroke:#181818;stroke-width:1;" x1="1064.6968" x2="1449.6484" y1="252.2578" y2="252.2578"/><text fill="#000000" font-family="sans-serif" font-size="13" lengthAdjust="spacing" textLength="75.3848" x="1071.6968" y="247.1919">findById(id)</text></g><g class="message" data-entity-1="part5" data-entity-2="part7" id="msg5"><polygon fill="#181818" points="1901.8135,277.3906,1911.8135,281.3906,1901.8135,285.3906,1905.8135,281.3906" style="stroke:#181818;stroke-width:1;"/><line style="stroke:#181818;stroke-width:1;" x1="1465.6484" x2="1907.8135" y1="281.3906" y2="281.3906"/><text fill="#000000" font-family="sans-serif" font-size="13" lengthAdjust="spacing" textLength="255.5186" x="1472.6484" y="276.3247">SELECT * FROM alumnos WHERE id = ?</text></g><g class="message" data-entity-1="part7" data-entity-2="part5" id="msg6"><polygon fill="#181818" points="1476.6484,306.5234,1466.6484,310.5234,1476.6484,314.5234,1472.6484,310.5234" style="stroke:#181818;stroke-width:1;"/><line style="stroke:#181818;stroke-width:1;stroke-dasharray:2,2;" x1="1470.6484" x2="1917.8135" y1="310.5234" y2="310.5234"/><text fill="#000000" font-family="sans-serif" font-size="13" lengthAdjust="spacing" textLength="126.3501" x="1482.6484" y="305.4575">Optional&lt;Alumno&gt;</text></g><g class="message" data-entity-1="part5" data-entity-2="part4" id="msg7"><polygon fill="#181818" points="1075.6968,335.6563,1065.6968,339.6563,1075.6968,343.6563,1071.6968,339.6563" style="stroke:#181818;stroke-width:1;"/><line style="stroke:#181818;stroke-width:1;stroke-dasharray:2,2;" x1="1069.6968" x2="1459.6484" y1="339.6563" y2="339.6563"/><text fill="#000000" font-family="sans-serif" font-size="13" lengthAdjust="spacing" textLength="126.3501" x="1081.6968" y="334.5903">Optional&lt;Alumno&gt;</text></g><path d="M10,354.6563 L74.4429,354.6563 L74.4429,361.7891 L64.4429,371.7891 L10,371.7891 L10,354.6563" fill="#EEEEEE" style="stroke:#000000;stroke-width:1.5;"/><rect fill="none" height="882.5234" style="stroke:#000000;stroke-width:1.5;" width="2020.4766" x="10" y="354.6563"/><text fill="#000000" font-family="sans-serif" font-size="13" font-weight="bold" lengthAdjust="spacing" textLength="19.4429" x="25" y="367.7231">alt</text><text fill="#000000" font-family="sans-serif" font-size="11" font-weight="bold" lengthAdjust="spacing" textLength="98.4951" x="89.4429" y="366.8667">[Alumno Existe]</text><g class="message" data-entity-1="part4" data-entity-2="part4" id="msg8"><line style="stroke:#181818;stroke-width:1;" x1="1064.6968" x2="1106.6968" y1="392.9219" y2="392.9219"/><line style="stroke:#181818;stroke-width:1;" x1="1106.6968" x2="1106.6968" y1="392.9219" y2="405.9219"/><line style="stroke:#181818;stroke-width:1;" x1="1065.6968" x2="1106.6968" y1="405.9219" y2="405.9219"/><polygon fill="#181818" points="1075.6968,401.9219,1065.6968,405.9219,1075.6968,409.9219,1071.6968,405.9219" style="stroke:#181818;stroke-width:1;"/><text fill="#000000" font-family="sans-serif" font-size="13" lengthAdjust="spacing" textLength="169.1016" x="1071.6968" y="387.856">extraer docenteId del JWT</text></g><g class="message" data-entity-1="part4" data-entity-2="part4" id="msg9"><line style="stroke:#181818;stroke-width:1;" x1="1064.6968" x2="1106.6968" y1="435.0547" y2="435.0547"/><line style="stroke:#181818;stroke-width:1;" x1="1106.6968" x2="1106.6968" y1="435.0547" y2="448.0547"/><line style="stroke:#181818;stroke-width:1;" x1="1065.6968" x2="1106.6968" y1="448.0547" y2="448.0547"/><polygon fill="#181818" points="1075.6968,444.0547,1065.6968,448.0547,1075.6968,452.0547,1071.6968,448.0547" style="stroke:#181818;stroke-width:1;"/><text fill="#000000" font-family="sans-serif" font-size="13" lengthAdjust="spacing" textLength="366.9517" x="1071.6968" y="429.9888">verificar alumnoPerteneceADocente(alumno, docenteId)</text></g><g class="message" data-entity-1="part4" data-entity-2="part3" id="msg10"><polygon fill="#181818" points="774.1113,473.1875,764.1113,477.1875,774.1113,481.1875,770.1113,477.1875" style="stroke:#181818;stroke-width:1;"/><line style="stroke:#181818;stroke-width:1;stroke-dasharray:2,2;" x1="768.1113" x2="1053.6968" y1="477.1875" y2="477.1875"/><text fill="#000000" font-family="sans-serif" font-size="13" lengthAdjust="spacing" textLength="77.7842" x="780.1113" y="472.1216">AlumnoDTO</text></g><g class="message" data-entity-1="part3" data-entity-2="part2" id="msg11"><polygon fill="#181818" points="418.5454,502.3203,408.5454,506.3203,418.5454,510.3203,414.5454,506.3203" style="stroke:#181818;stroke-width:1;"/><line style="stroke:#181818;stroke-width:1;stroke-dasharray:2,2;" x1="412.5454" x2="752.1113" y1="506.3203" y2="506.3203"/><text fill="#000000" font-family="sans-serif" font-size="13" lengthAdjust="spacing" textLength="175.938" x="424.5454" y="501.2544">200 OK (AlumnoDTO JSON)</text></g><g class="message" data-entity-1="part2" data-entity-2="part1" id="msg12"><polygon fill="#181818" points="63.3159,531.4531,53.3159,535.4531,63.3159,539.4531,59.3159,535.4531" style="stroke:#181818;stroke-width:1;"/><line style="stroke:#181818;stroke-width:1;stroke-dasharray:2,2;" x1="57.3159" x2="396.5454" y1="535.4531" y2="535.4531"/><text fill="#000000" font-family="sans-serif" font-size="13" lengthAdjust="spacing" textLength="277.0244" x="69.3159" y="530.3872">Mostrar Formulario con datos precargados</text></g><g class="message" data-entity-1="part1" data-entity-2="part2" id="msg13"><polygon fill="#181818" points="385.5454,560.5859,395.5454,564.5859,385.5454,568.5859,389.5454,564.5859" style="stroke:#181818;stroke-width:1;"/><line style="stroke:#181818;stroke-width:1;" x1="52.3159" x2="391.5454" y1="564.5859" y2="564.5859"/><text fill="#000000" font-family="sans-serif" font-size="13" lengthAdjust="spacing" textLength="178.3691" x="59.3159" y="559.52">Modifica campos y Guardar</text></g><g class="message" data-entity-1="part2" data-entity-2="part2" id="msg14"><line style="stroke:#181818;stroke-width:1;" x1="407.5454" x2="449.5454" y1="593.7188" y2="593.7188"/><line style="stroke:#181818;stroke-width:1;" x1="449.5454" x2="449.5454" y1="593.7188" y2="606.7188"/><line style="stroke:#181818;stroke-width:1;" x1="408.5454" x2="449.5454" y1="606.7188" y2="606.7188"/><polygon fill="#181818" points="418.5454,602.7188,408.5454,606.7188,418.5454,610.7188,414.5454,606.7188" style="stroke:#181818;stroke-width:1;"/><text fill="#000000" font-family="sans-serif" font-size="13" lengthAdjust="spacing" textLength="117.0444" x="414.5454" y="588.6528">Validar formulario</text></g><g class="message" data-entity-1="part2" data-entity-2="part3" id="msg15"><polygon fill="#181818" points="741.1113,646.9844,751.1113,650.9844,741.1113,654.9844,745.1113,650.9844" style="stroke:#181818;stroke-width:1;"/><line style="stroke:#181818;stroke-width:1;" x1="407.5454" x2="747.1113" y1="650.9844" y2="650.9844"/><text fill="#000000" font-family="sans-serif" font-size="13" lengthAdjust="spacing" textLength="321.5659" x="414.5454" y="630.7856">PUT /api/alumnos/{id} (AlumnoUpdateDTO JSON)</text><text fill="#000000" font-family="sans-serif" font-size="13" lengthAdjust="spacing" textLength="267.8774" x="414.5454" y="645.9185">(Header: Authorization: Bearer &lt;token&gt;)</text></g><g class="message" data-entity-1="part3" data-entity-2="part4" id="msg16"><polygon fill="#181818" points="1042.6968,676.1172,1052.6968,680.1172,1042.6968,684.1172,1046.6968,680.1172" style="stroke:#181818;stroke-width:1;"/><line style="stroke:#181818;stroke-width:1;" x1="763.1113" x2="1048.6968" y1="680.1172" y2="680.1172"/><text fill="#000000" font-family="sans-serif" font-size="13" lengthAdjust="spacing" textLength="267.5854" x="770.1113" y="675.0513">actualizarAlumno(id, alumnoUpdateDTO)</text></g><g class="message" data-entity-1="part4" data-entity-2="part5" id="msg17"><polygon fill="#181818" points="1443.6484,705.25,1453.6484,709.25,1443.6484,713.25,1447.6484,709.25" style="stroke:#181818;stroke-width:1;"/><line style="stroke:#181818;stroke-width:1;" x1="1064.6968" x2="1449.6484" y1="709.25" y2="709.25"/><text fill="#000000" font-family="sans-serif" font-size="13" lengthAdjust="spacing" textLength="75.3848" x="1071.6968" y="704.1841">findById(id)</text></g><g class="message" data-entity-1="part5" data-entity-2="part7" id="msg18"><polygon fill="#181818" points="1906.8135,734.3828,1916.8135,738.3828,1906.8135,742.3828,1910.8135,738.3828" style="stroke:#181818;stroke-width:1;"/><line style="stroke:#181818;stroke-width:1;" x1="1465.6484" x2="1912.8135" y1="738.3828" y2="738.3828"/><text fill="#000000" font-family="sans-serif" font-size="13" lengthAdjust="spacing" textLength="255.5186" x="1472.6484" y="733.3169">SELECT * FROM alumnos WHERE id = ?</text></g><g class="message" data-entity-1="part7" data-entity-2="part5" id="msg19"><polygon fill="#181818" points="1476.6484,763.5156,1466.6484,767.5156,1476.6484,771.5156,1472.6484,767.5156" style="stroke:#181818;stroke-width:1;"/><line style="stroke:#181818;stroke-width:1;stroke-dasharray:2,2;" x1="1470.6484" x2="1917.8135" y1="767.5156" y2="767.5156"/><text fill="#000000" font-family="sans-serif" font-size="13" lengthAdjust="spacing" textLength="126.3501" x="1482.6484" y="762.4497">Optional&lt;Alumno&gt;</text></g><g class="message" data-entity-1="part5" data-entity-2="part4" id="msg20"><polygon fill="#181818" points="1075.6968,792.6484,1065.6968,796.6484,1075.6968,800.6484,1071.6968,796.6484" style="stroke:#181818;stroke-width:1;"/><line style="stroke:#181818;stroke-width:1;stroke-dasharray:2,2;" x1="1069.6968" x2="1459.6484" y1="796.6484" y2="796.6484"/><text fill="#000000" font-family="sans-serif" font-size="13" lengthAdjust="spacing" textLength="126.3501" x="1081.6968" y="791.5825">Optional&lt;Alumno&gt;</text></g><g class="message" data-entity-1="part4" data-entity-2="part4" id="msg21"><line style="stroke:#181818;stroke-width:1;" x1="1064.6968" x2="1106.6968" y1="825.7813" y2="825.7813"/><line style="stroke:#181818;stroke-width:1;" x1="1106.6968" x2="1106.6968" y1="825.7813" y2="838.7813"/><line style="stroke:#181818;stroke-width:1;" x1="1065.6968" x2="1106.6968" y1="838.7813" y2="838.7813"/><polygon fill="#181818" points="1075.6968,834.7813,1065.6968,838.7813,1075.6968,842.7813,1071.6968,838.7813" style="stroke:#181818;stroke-width:1;"/><text fill="#000000" font-family="sans-serif" font-size="13" lengthAdjust="spacing" textLength="183.8345" x="1071.6968" y="820.7153">verificarUnicidadDNI(id, dni)</text></g><g class="message" data-entity-1="part4" data-entity-2="part4" id="msg22"><line style="stroke:#181818;stroke-width:1;" x1="1064.6968" x2="1106.6968" y1="867.9141" y2="867.9141"/><line style="stroke:#181818;stroke-width:1;" x1="1106.6968" x2="1106.6968" y1="867.9141" y2="880.9141"/><line style="stroke:#181818;stroke-width:1;" x1="1065.6968" x2="1106.6968" y1="880.9141" y2="880.9141"/><polygon fill="#181818" points="1075.6968,876.9141,1065.6968,880.9141,1075.6968,884.9141,1071.6968,880.9141" style="stroke:#181818;stroke-width:1;"/><text fill="#000000" font-family="sans-serif" font-size="13" lengthAdjust="spacing" textLength="274.0601" x="1071.6968" y="862.8481">actualizarCamposDesdeDTO(alumno, dto)</text></g><g class="message" data-entity-1="part4" data-entity-2="part5" id="msg23"><polygon fill="#181818" points="1443.6484,906.0469,1453.6484,910.0469,1443.6484,914.0469,1447.6484,910.0469" style="stroke:#181818;stroke-width:1;"/><line style="stroke:#181818;stroke-width:1;" x1="1064.6968" x2="1449.6484" y1="910.0469" y2="910.0469"/><text fill="#000000" font-family="sans-serif" font-size="13" lengthAdjust="spacing" textLength="89.248" x="1071.6968" y="904.981">save(alumno)</text></g><g class="message" data-entity-1="part5" data-entity-2="part7" id="msg24"><polygon fill="#181818" points="1906.8135,935.1797,1916.8135,939.1797,1906.8135,943.1797,1910.8135,939.1797" style="stroke:#181818;stroke-width:1;"/><line style="stroke:#181818;stroke-width:1;" x1="1465.6484" x2="1912.8135" y1="939.1797" y2="939.1797"/><text fill="#000000" font-family="sans-serif" font-size="13" lengthAdjust="spacing" textLength="429.165" x="1472.6484" y="934.1138">UPDATE alumnos SET dni=?, nombre=?, apellidos=? WHERE id=?</text></g><g class="message" data-entity-1="part7" data-entity-2="part5" id="msg25"><polygon fill="#181818" points="1476.6484,964.3125,1466.6484,968.3125,1476.6484,972.3125,1472.6484,968.3125" style="stroke:#181818;stroke-width:1;"/><line style="stroke:#181818;stroke-width:1;stroke-dasharray:2,2;" x1="1470.6484" x2="1917.8135" y1="968.3125" y2="968.3125"/><text fill="#000000" font-family="sans-serif" font-size="13" lengthAdjust="spacing" textLength="128.3687" x="1482.6484" y="963.2466">Alumno actualizado</text></g><g class="message" data-entity-1="part5" data-entity-2="part4" id="msg26"><polygon fill="#181818" points="1075.6968,993.4453,1065.6968,997.4453,1075.6968,1001.4453,1071.6968,997.4453" style="stroke:#181818;stroke-width:1;"/><line style="stroke:#181818;stroke-width:1;stroke-dasharray:2,2;" x1="1069.6968" x2="1459.6484" y1="997.4453" y2="997.4453"/><text fill="#000000" font-family="sans-serif" font-size="13" lengthAdjust="spacing" textLength="49.6006" x="1081.6968" y="992.3794">Alumno</text></g><g class="message" data-entity-1="part4" data-entity-2="part3" id="msg27"><polygon fill="#181818" points="774.1113,1022.5781,764.1113,1026.5781,774.1113,1030.5781,770.1113,1026.5781" style="stroke:#181818;stroke-width:1;"/><line style="stroke:#181818;stroke-width:1;stroke-dasharray:2,2;" x1="768.1113" x2="1053.6968" y1="1026.5781" y2="1026.5781"/><text fill="#000000" font-family="sans-serif" font-size="13" lengthAdjust="spacing" textLength="77.7842" x="780.1113" y="1021.5122">AlumnoDTO</text></g><g class="message" data-entity-1="part3" data-entity-2="part2" id="msg28"><polygon fill="#181818" points="418.5454,1051.7109,408.5454,1055.7109,418.5454,1059.7109,414.5454,1055.7109" style="stroke:#181818;stroke-width:1;"/><line style="stroke:#181818;stroke-width:1;stroke-dasharray:2,2;" x1="412.5454" x2="752.1113" y1="1055.7109" y2="1055.7109"/><text fill="#000000" font-family="sans-serif" font-size="13" lengthAdjust="spacing" textLength="175.938" x="424.5454" y="1050.645">200 OK (AlumnoDTO JSON)</text></g><g class="message" data-entity-1="part2" data-entity-2="part2" id="msg29"><line style="stroke:#181818;stroke-width:1;" x1="407.5454" x2="449.5454" y1="1084.8438" y2="1084.8438"/><line style="stroke:#181818;stroke-width:1;" x1="449.5454" x2="449.5454" y1="1084.8438" y2="1097.8438"/><line style="stroke:#181818;stroke-width:1;" x1="408.5454" x2="449.5454" y1="1097.8438" y2="1097.8438"/><polygon fill="#181818" points="418.5454,1093.8438,408.5454,1097.8438,418.5454,1101.8438,414.5454,1097.8438" style="stroke:#181818;stroke-width:1;"/><text fill="#000000" font-family="sans-serif" font-size="13" lengthAdjust="spacing" textLength="201.7285" x="414.5454" y="1079.7778">Actualizar Lista / Mostrar Toast</text></g><g class="message" data-entity-1="part2" data-entity-2="part1" id="msg30"><polygon fill="#181818" points="63.3159,1122.9766,53.3159,1126.9766,63.3159,1130.9766,59.3159,1126.9766" style="stroke:#181818;stroke-width:1;"/><line style="stroke:#181818;stroke-width:1;stroke-dasharray:2,2;" x1="57.3159" x2="396.5454" y1="1126.9766" y2="1126.9766"/><text fill="#000000" font-family="sans-serif" font-size="13" lengthAdjust="spacing" textLength="321.2295" x="69.3159" y="1121.9106">Notificaci&#243;n "Alumno actualizado correctamente"</text></g><line style="stroke:#000000;stroke-width:1;stroke-dasharray:2,2;" x1="10" x2="2030.4766" y1="1135.9766" y2="1135.9766"/><text fill="#000000" font-family="sans-serif" font-size="11" font-weight="bold" lengthAdjust="spacing" textLength="290.791" x="15" y="1146.187">[Alumno No Existe O No Pertenece Al Docente]</text><g class="message" data-entity-1="part4" data-entity-2="part3" id="msg31"><polygon fill="#181818" points="774.1113,1166.9141,764.1113,1170.9141,774.1113,1174.9141,770.1113,1170.9141" style="stroke:#181818;stroke-width:1;"/><line style="stroke:#181818;stroke-width:1;stroke-dasharray:2,2;" x1="768.1113" x2="1058.6968" y1="1170.9141" y2="1170.9141"/><text fill="#000000" font-family="sans-serif" font-size="13" lengthAdjust="spacing" textLength="206.4956" x="780.1113" y="1165.8481">throw EntityNotFoundException</text></g><g class="message" data-entity-1="part3" data-entity-2="part2" id="msg32"><polygon fill="#181818" points="418.5454,1196.0469,408.5454,1200.0469,418.5454,1204.0469,414.5454,1200.0469" style="stroke:#181818;stroke-width:1;"/><line style="stroke:#181818;stroke-width:1;stroke-dasharray:2,2;" x1="412.5454" x2="757.1113" y1="1200.0469" y2="1200.0469"/><text fill="#000000" font-family="sans-serif" font-size="13" lengthAdjust="spacing" textLength="96.0146" x="424.5454" y="1194.981">404 Not Found</text></g><g class="message" data-entity-1="part2" data-entity-2="part1" id="msg33"><polygon fill="#181818" points="63.3159,1225.1797,53.3159,1229.1797,63.3159,1233.1797,59.3159,1229.1797" style="stroke:#181818;stroke-width:1;"/><line style="stroke:#181818;stroke-width:1;stroke-dasharray:2,2;" x1="57.3159" x2="396.5454" y1="1229.1797" y2="1229.1797"/><text fill="#000000" font-family="sans-serif" font-size="13" lengthAdjust="spacing" textLength="250.3706" x="69.3159" y="1224.1138">Mostrar Error "Alumno no encontrado"</text></g><?plantuml-src hLRTRjem5BxdAOwuWgqLrTGhL5e12VrP2uoVzMOtfx5BhGKxSanNEksfzWXxiHtR8GaHq4vQLGN7VEVlEz-nCSB470A12urB1CPXogCLbv50E8QG2OCQkl5gAHMzJnCjv09wIXdu21EEaQdLwA4qr0CLSMbu7J25R5rBK1iHYGIbWVf0AzgJ31hEiEcGWt0Rv4EbVO9g5STSErJnkWizvVfPH3vojju5c_14fO9oNJkaVTs6PLbNSANT6aE33vXogFViazWAqAWK6cELceNcqo-tlgoWLwjbXd1yJbMseH-B2BY4kYUrRdaJpqW0uc0GMbXHPXikmncqC14jz8oqVWhswvjiN75azllkoZmfBLxH22NRqEEekOOpexvpUTuid9UeAvOsMCPK6zG3TOLhJz9OwMlM4ApaOKDfzcbjBHbjU1IIzTPLk2FAFYmmwBLX6jw6_HbyWC5aT0TPEN1_5Kv240mwS54O4sz13uxp4AF4beVncS_klCPu6Ul3b8ivPE0omzXiz1o-Y9H42lHNgYrtnL-CHkAA-JvUC-ft33VtixqMproBHn7HnFWgnrnRQYFUpRJGyFj7XS_cjhEA27oYmMpaKEN-PQBwT782ey_Go85mCnqDlLEhATi27weDTwHHJRaDb5wkOjH2GQGaCAVWH7FAUu5CfSwu8juxnLnb4E6IfWFMSBb2pL3daJpkAyQ2Tk4nZr42b2iRptV8UrF7FA6aU5xD-rLVPQdK6rB1Yf9xnKpe9DgZh4rvk6QripjqRX7RYh8x_wXtn_11dHTE3whRmgeAVrETSqb77aCM3AyT2qoAvbwhWhU-Qtt0KsQvAgHir1xUKdpUAFuzlCt7GNSMveHDwG2ap3eNHo3Lya5pkyA4nwGmbNOkSaOxE_ZC9ZnFdgazZ7hWspp-xy7qg6vEBjpIMOJGogTqfZ0rE-Tug8phOoJ-_9QRowrSAesrfd4sk7GNSet7T5TbiE7cs8EHNUSd57sVtzg72ZTFMls0K1fXrfJ8GAqa2ryYxeHPfN5pS-pXwFJar1O3padLjdHl7JhCGgtjZu-iElgddoxMacYWmibjoUKW_0i0?></g></svg>