<svg xmlns="http://www.w3.org/2000/svg" xmlns:xlink="http://www.w3.org/1999/xlink" contentStyleType="text/css" data-diagram-type="STATE" height="514px" preserveAspectRatio="none" style="width:1449px;height:514px;background:#FFFFFF;" version="1.1" viewBox="0 0 1449 514" width="1449px" zoomAndPan="magnify"><defs/><g><path d="M436,117 L957,117 A12.5,12.5 0 0 1 969.5,129.5 L969.5,143.2969 L423.5,143.2969 L423.5,129.5 A12.5,12.5 0 0 1 436,117" fill="#F1F1F1"/><rect fill="none" height="281.2969" rx="12.5" ry="12.5" style="stroke:#181818;stroke-width:0.5;" width="546" x="423.5" y="117"/><line style="stroke:#181818;stroke-width:0.5;" x1="423.5" x2="969.5" y1="143.2969" y2="143.2969"/><text fill="#000000" font-family="sans-serif" font-size="14" lengthAdjust="spacing" textLength="135.6113" x="628.6943" y="134.9951">completarGestion()</text><g id="completarGestion.PresentandoOpciones"><rect fill="#F1F1F1" height="50" rx="12.5" ry="12.5" style="stroke:#181818;stroke-width:0.5;" width="50" x="435.5" y="245.2969"/><line style="stroke:#181818;stroke-width:0.5;" x1="435.5" x2="485.5" y1="271.5938" y2="271.5938"/><text fill="#000000" font-family="sans-serif" font-size="14" lengthAdjust="spacing" textLength="4.4502" x="458.2749" y="263.292">&#160;</text></g><ellipse cx="460.5" cy="164.2969" fill="#222222" rx="10" ry="10" style="stroke:#222222;stroke-width:1;"/><ellipse cx="460.5" cy="377.2969" fill="none" rx="11" ry="11" style="stroke:#222222;stroke-width:1;"/><ellipse cx="460.5" cy="377.2969" fill="#222222" rx="6" ry="6" style="stroke:#222222;stroke-width:1;"/><!--link *start*completarGestion to PresentandoOpciones--><g class="link" data-entity-1=".start.completarGestion" data-entity-2="PresentandoOpciones" data-source-line="7" data-uid="lnk3" id="link_.start.completarGestion_PresentandoOpciones"><path d="M460.5,174.5269 C460.5,190.2369 460.5,216.6569 460.5,239.1669" fill="none" id="*start*completarGestion-to-PresentandoOpciones" style="stroke:#008000;stroke-width:1;"/><polygon fill="#008000" points="460.5,245.1669,464.5,236.1669,460.5,240.1669,456.5,236.1669,460.5,245.1669" style="stroke:#008000;stroke-width:1;"/><path d="M465.5,197.2969 L465.5,222.2969 L960.5,222.2969 L960.5,207.2969 L950.5,197.2969 L465.5,197.2969" fill="#FEFFDD" style="stroke:#181818;stroke-width:0.5;"/><path d="M950.5,197.2969 L950.5,207.2969 L960.5,207.2969 L950.5,197.2969" fill="#FEFFDD" style="stroke:#181818;stroke-width:0.5;"/><text fill="#000000" font-family="sans-serif" font-size="13" font-weight="bold" lengthAdjust="spacing" textLength="279.0684" x="471.5" y="214.3638">Administrador institucional o Docente</text><text fill="#000000" font-family="sans-serif" font-size="13" lengthAdjust="spacing" textLength="190.8359" x="754.7007" y="214.3638">solicita disponibilizar sistema</text></g><!--link PresentandoOpciones to *end*completarGestion--><g class="link" data-entity-1="PresentandoOpciones" data-entity-2=".end.completarGestion" data-source-line="12" data-uid="lnk5" id="link_PresentandoOpciones_.end.completarGestion"><path d="M460.5,295.3869 C460.5,317.7869 460.5,344.0669 460.5,360.2469" fill="none" id="PresentandoOpciones-to-*end*completarGestion" style="stroke:#008000;stroke-width:1;"/><polygon fill="#008000" points="460.5,366.2469,464.5,357.2469,460.5,361.2469,456.5,357.2469,460.5,366.2469" style="stroke:#008000;stroke-width:1;"/><path d="M465.5,318.2969 L465.5,343.2969 L725.5,343.2969 L725.5,328.2969 L715.5,318.2969 L465.5,318.2969" fill="#FEFFDD" style="stroke:#181818;stroke-width:0.5;"/><path d="M715.5,318.2969 L715.5,328.2969 L725.5,328.2969 L715.5,318.2969" fill="#FEFFDD" style="stroke:#181818;stroke-width:0.5;"/><text fill="#000000" font-family="sans-serif" font-size="13" font-weight="bold" lengthAdjust="spacing" textLength="58.9063" x="471.5" y="335.3638">Sistema</text><text fill="#000000" font-family="sans-serif" font-size="13" lengthAdjust="spacing" textLength="176.1221" x="534.5386" y="335.3638">permite ser disponibilizado</text></g><g id="GRADOS_ABIERTO"><rect fill="#F1F1F1" height="50" rx="12.5" ry="12.5" style="stroke:#181818;stroke-width:0.5;" width="149.2949" x="7" y="7"/><line style="stroke:#181818;stroke-width:0.5;" x1="7" x2="156.2949" y1="33.2969" y2="33.2969"/><text fill="#000000" font-family="sans-serif" font-size="14" lengthAdjust="spacing" textLength="129.2949" x="17" y="24.9951">GRADOS_ABIERTO</text></g><g id="ASIGNATURAS_ABIERTO"><rect fill="#F1F1F1" height="50" rx="12.5" ry="12.5" style="stroke:#181818;stroke-width:0.5;" width="188.9365" x="191" y="7"/><line style="stroke:#181818;stroke-width:0.5;" x1="191" x2="379.9365" y1="33.2969" y2="33.2969"/><text fill="#000000" font-family="sans-serif" font-size="14" lengthAdjust="spacing" textLength="168.9365" x="201" y="24.9951">ASIGNATURAS_ABIERTO</text></g><g id="ALUMNOS_ABIERTO"><rect fill="#F1F1F1" height="50" rx="12.5" ry="12.5" style="stroke:#181818;stroke-width:0.5;" width="158.5371" x="415" y="7"/><line style="stroke:#181818;stroke-width:0.5;" x1="415" x2="573.5371" y1="33.2969" y2="33.2969"/><text fill="#000000" font-family="sans-serif" font-size="14" lengthAdjust="spacing" textLength="138.5371" x="425" y="24.9951">ALUMNOS_ABIERTO</text></g><g id="PREGUNTAS_ABIERTO"><rect fill="#F1F1F1" height="50" rx="12.5" ry="12.5" style="stroke:#181818;stroke-width:0.5;" width="174.0547" x="609.5" y="7"/><line style="stroke:#181818;stroke-width:0.5;" x1="609.5" x2="783.5547" y1="33.2969" y2="33.2969"/><text fill="#000000" font-family="sans-serif" font-size="14" lengthAdjust="spacing" textLength="154.0547" x="619.5" y="24.9951">PREGUNTAS_ABIERTO</text></g><g id="EXAMENES_ASIGNADOS"><rect fill="#F1F1F1" height="50" rx="12.5" ry="12.5" style="stroke:#181818;stroke-width:0.5;" width="188.3213" x="818.5" y="7"/><line style="stroke:#181818;stroke-width:0.5;" x1="818.5" x2="1006.8213" y1="33.2969" y2="33.2969"/><text fill="#000000" font-family="sans-serif" font-size="14" lengthAdjust="spacing" textLength="168.3213" x="828.5" y="24.9951">EXAMENES_ASIGNADOS</text></g><g id="EXAMENES_CORREGIDOS"><rect fill="#F1F1F1" height="50" rx="12.5" ry="12.5" style="stroke:#181818;stroke-width:0.5;" width="198.9033" x="1042" y="7"/><line style="stroke:#181818;stroke-width:0.5;" x1="1042" x2="1240.9033" y1="33.2969" y2="33.2969"/><text fill="#000000" font-family="sans-serif" font-size="14" lengthAdjust="spacing" textLength="178.9033" x="1052" y="24.9951">EXAMENES_CORREGIDOS</text></g><g id="DOCENTES_ABIERTO"><rect fill="#F1F1F1" height="50" rx="12.5" ry="12.5" style="stroke:#181818;stroke-width:0.5;" width="165.6328" x="1276.5" y="7"/><line style="stroke:#181818;stroke-width:0.5;" x1="1276.5" x2="1442.1328" y1="33.2969" y2="33.2969"/><text fill="#000000" font-family="sans-serif" font-size="14" lengthAdjust="spacing" textLength="145.6328" x="1286.5" y="24.9951">DOCENTES_ABIERTO</text></g><g id="SISTEMA_DISPONIBLE"><rect fill="#F1F1F1" height="50" rx="12.5" ry="12.5" style="stroke:#181818;stroke-width:0.5;" width="172.0654" x="610.5" y="458"/><line style="stroke:#181818;stroke-width:0.5;" x1="610.5" x2="782.5654" y1="484.2969" y2="484.2969"/><text fill="#000000" font-family="sans-serif" font-size="14" lengthAdjust="spacing" textLength="152.0654" x="620.5" y="475.9951">SISTEMA_DISPONIBLE</text></g><!--link GRADOS_ABIERTO to completarGestion--><g class="link" data-entity-1="GRADOS_ABIERTO" data-entity-2="completarGestion" data-source-line="19" data-uid="lnk7" id="link_GRADOS_ABIERTO_completarGestion"><path d="M147.61,57.02 C214.15,81.21 315.6409,118.0904 417.6609,155.1704" fill="none" id="GRADOS_ABIERTO-to-completarGestion" style="stroke:#008000;stroke-width:1;"/><polygon fill="#008000" points="423.3,157.22,416.2078,150.3863,418.6008,155.512,413.475,157.905,423.3,157.22" style="stroke:#008000;stroke-width:1;"/></g><!--link ASIGNATURAS_ABIERTO to completarGestion--><g class="link" data-entity-1="ASIGNATURAS_ABIERTO" data-entity-2="completarGestion" data-source-line="21" data-uid="lnk9" id="link_ASIGNATURAS_ABIERTO_completarGestion"><path d="M329.87,57.13 C358.21,72.54 392.2192,91.0333 434.5992,114.0833" fill="none" id="ASIGNATURAS_ABIERTO-to-completarGestion" style="stroke:#008000;stroke-width:1;"/><polygon fill="#008000" points="439.87,116.95,433.8749,109.136,435.4776,114.561,430.0526,116.1638,439.87,116.95" style="stroke:#008000;stroke-width:1;"/></g><!--link ALUMNOS_ABIERTO to completarGestion--><g class="link" data-entity-1="ALUMNOS_ABIERTO" data-entity-2="completarGestion" data-source-line="23" data-uid="lnk11" id="link_ALUMNOS_ABIERTO_completarGestion"><path d="M516.5,57.34 C530.41,72.73 545.6083,89.5374 566.3283,112.4774" fill="none" id="ALUMNOS_ABIERTO-to-completarGestion" style="stroke:#008000;stroke-width:1;"/><polygon fill="#008000" points="570.35,116.93,567.2858,107.5699,566.9986,113.2195,561.349,112.9322,570.35,116.93" style="stroke:#008000;stroke-width:1;"/></g><!--link PREGUNTAS_ABIERTO to completarGestion--><g class="link" data-entity-1="PREGUNTAS_ABIERTO" data-entity-2="completarGestion" data-source-line="25" data-uid="lnk13" id="link_PREGUNTAS_ABIERTO_completarGestion"><path d="M696.5,57.34 C696.5,72.73 696.5,87.99 696.5,110.93" fill="none" id="PREGUNTAS_ABIERTO-to-completarGestion" style="stroke:#008000;stroke-width:1;"/><polygon fill="#008000" points="696.5,116.93,700.5,107.93,696.5,111.93,692.5,107.93,696.5,116.93" style="stroke:#008000;stroke-width:1;"/></g><!--link EXAMENES_ASIGNADOS to completarGestion--><g class="link" data-entity-1="EXAMENES_ASIGNADOS" data-entity-2="completarGestion" data-source-line="27" data-uid="lnk15" id="link_EXAMENES_ASIGNADOS_completarGestion"><path d="M888.97,57.34 C874.1,72.73 857.7186,89.6746 835.5586,112.6146" fill="none" id="EXAMENES_ASIGNADOS-to-completarGestion" style="stroke:#008000;stroke-width:1;"/><polygon fill="#008000" points="831.39,116.93,840.5199,113.236,834.8639,113.3339,834.766,107.6778,831.39,116.93" style="stroke:#008000;stroke-width:1;"/></g><!--link EXAMENES_CORREGIDOS to completarGestion--><g class="link" data-entity-1="EXAMENES_CORREGIDOS" data-entity-2="completarGestion" data-source-line="29" data-uid="lnk17" id="link_EXAMENES_CORREGIDOS_completarGestion"><path d="M1093.45,57.13 C1061.71,73.07 1022.6316,92.6968 974.9116,116.6668" fill="none" id="EXAMENES_CORREGIDOS-to-completarGestion" style="stroke:#008000;stroke-width:1;"/><polygon fill="#008000" points="969.55,119.36,979.3879,118.8947,974.018,117.1157,975.797,111.7458,969.55,119.36" style="stroke:#008000;stroke-width:1;"/></g><!--link DOCENTES_ABIERTO to completarGestion--><g class="link" data-entity-1="DOCENTES_ABIERTO" data-entity-2="completarGestion" data-source-line="31" data-uid="lnk19" id="link_DOCENTES_ABIERTO_completarGestion"><path d="M1288.23,57.02 C1211.81,82.79 1091.4255,123.363 975.2555,162.533" fill="none" id="DOCENTES_ABIERTO-to-completarGestion" style="stroke:#008000;stroke-width:1;"/><polygon fill="#008000" points="969.57,164.45,979.3763,165.3648,974.3079,162.8525,976.8202,157.7841,969.57,164.45" style="stroke:#008000;stroke-width:1;"/></g><!--link completarGestion to SISTEMA_DISPONIBLE--><g class="link" data-entity-1="completarGestion" data-entity-2="SISTEMA_DISPONIBLE" data-source-line="33" data-uid="lnk21" id="link_completarGestion_SISTEMA_DISPONIBLE"><path d="M696.5,398.14 C696.5,421.08 696.5,436.35 696.5,451.73" fill="none" id="completarGestion-to-SISTEMA_DISPONIBLE" style="stroke:#008000;stroke-width:1;"/><polygon fill="#008000" points="696.5,457.73,700.5,448.73,696.5,452.73,692.5,448.73,696.5,457.73" style="stroke:#008000;stroke-width:1;"/></g><!--SRC=[bP7HQi8m58RlynG7TxCDP2yWGhIX5BILji90H69x6C4s2KbsuSRUVSTuerFHjL38uVlF_uNwdT9MEjb3fpI6lKMmfjiV3epv80D2OthROP0kHH-KqI0z3FuEdry6yCqOq7DC3UWbSE7GemvIjwQm3O7eZzJgTGt3rTE7GzJhuVWQ217KXhPHAodjuc2q7VEsLrhvu6Hh72XD2k7p498T64XCGvjmzBOTWpUTQbIGq2flZLPRrQalwS1J6diP5w9kOqiynCyrcLDPah_fLXqtntQBhbU4U7Jd0gqvR_vXZAKbJufgmoUPAElYhE_o7p36gopDURqi-Jyoi-Kylz5nWHE_A4Mwp6l-O88nySxd8XV4HpkwpwE1QL5IMKQ9Unr9CHLvBHvskXYTybLMrMBEDqbMBOeycyp4Bm00]--></g></svg>