<svg xmlns="http://www.w3.org/2000/svg" xmlns:xlink="http://www.w3.org/1999/xlink" contentStyleType="text/css" data-diagram-type="STATE" height="166px" preserveAspectRatio="none" style="width:1255px;height:166px;background:#FFFFFF;" version="1.1" viewBox="0 0 1255 166" width="1255px" zoomAndPan="magnify"><defs/><g><g id="NoAuth"><rect fill="#F1F1F1" height="50" rx="12.5" ry="12.5" style="stroke:#181818;stroke-width:0.5;" width="147.251" x="87" y="68"/><line style="stroke:#181818;stroke-width:0.5;" x1="87" x2="234.251" y1="94.2969" y2="94.2969"/><text fill="#000000" font-family="sans-serif" font-size="14" lengthAdjust="spacing" textLength="127.251" x="97" y="85.9951">SESION_CERRADA</text></g><g id="Menu"><rect fill="#F1F1F1" height="50" rx="12.5" ry="12.5" style="stroke:#181818;stroke-width:0.5;" width="172.0654" x="388" y="68"/><line style="stroke:#181818;stroke-width:0.5;" x1="388" x2="560.0654" y1="94.2969" y2="94.2969"/><text fill="#000000" font-family="sans-serif" font-size="14" lengthAdjust="spacing" textLength="152.0654" x="398" y="85.9951">SISTEMA_DISPONIBLE</text></g><g id="ListDocentes"><rect fill="#F1F1F1" height="50" rx="12.5" ry="12.5" style="stroke:#181818;stroke-width:0.5;" width="165.6328" x="747" y="68"/><line style="stroke:#181818;stroke-width:0.5;" x1="747" x2="912.6328" y1="94.2969" y2="94.2969"/><text fill="#000000" font-family="sans-serif" font-size="14" lengthAdjust="spacing" textLength="145.6328" x="757" y="85.9951">DOCENTES_ABIERTO</text></g><g id="EditDocentes"><rect fill="#F1F1F1" height="50" rx="12.5" ry="12.5" style="stroke:#181818;stroke-width:0.5;" width="156.7461" x="1092" y="68"/><line style="stroke:#181818;stroke-width:0.5;" x1="1092" x2="1248.7461" y1="94.2969" y2="94.2969"/><text fill="#000000" font-family="sans-serif" font-size="14" lengthAdjust="spacing" textLength="136.7461" x="1102" y="85.9951">DOCENTE_ABIERTO</text></g><ellipse cx="16" cy="93" fill="#222222" rx="10" ry="10" style="stroke:#222222;stroke-width:1;"/><!--link *start* to NoAuth--><g class="link" data-entity-1=".start." data-entity-2="NoAuth" data-source-line="12" data-uid="lnk3" id="link_.start._NoAuth"><path d="M26.35,93 C39.04,93 56.92,93 80.98,93" fill="none" id="*start*-to-NoAuth" style="stroke:#181818;stroke-width:1;"/><polygon fill="#181818" points="86.98,93,77.98,89,81.98,93,77.98,97,86.98,93" style="stroke:#181818;stroke-width:1;"/></g><!--link NoAuth to Menu--><g class="link" data-entity-1="NoAuth" data-entity-2="Menu" data-source-line="13" data-uid="lnk4" id="link_NoAuth_Menu"><path d="M234.14,93 C280.07,93 333.64,93 381.8,93" fill="none" id="NoAuth-to-Menu" style="stroke:#181818;stroke-width:1;"/><polygon fill="#181818" points="387.8,93,378.8,89,382.8,93,378.8,97,387.8,93" style="stroke:#181818;stroke-width:1;"/><text fill="#000000" font-family="sans-serif" font-size="13" lengthAdjust="spacing" textLength="92.5044" x="265" y="89.0669">iniciarSesion()</text></g><!--link Menu to NoAuth--><g class="link" data-entity-1="Menu" data-entity-2="NoAuth" data-source-line="14" data-uid="lnk5" id="link_Menu_NoAuth"><path d="M387.92,113.62 C377.89,115.42 367.75,116.95 358,118 C316.46,122.46 305.48,122.99 264,118 C254.27,116.83 250.0042,116.2821 240.0542,114.2121" fill="none" id="Menu-to-NoAuth" style="stroke:#181818;stroke-width:1;"/><polygon fill="#181818" points="234.18,112.99,242.1766,118.7393,239.0752,114.0084,243.8061,110.907,234.18,112.99" style="stroke:#181818;stroke-width:1;"/><text fill="#000000" font-family="sans-serif" font-size="13" lengthAdjust="spacing" textLength="92.1172" x="265" y="114.0669">cerrarSesion()</text></g><!--link Menu to ListDocentes--><g class="link" data-entity-1="Menu" data-entity-2="ListDocentes" data-source-line="18" data-uid="lnk6" id="link_Menu_ListDocentes"><path d="M560.24,93 C616.91,93 684.93,93 740.93,93" fill="none" id="Menu-to-ListDocentes" style="stroke:#181818;stroke-width:1;"/><polygon fill="#181818" points="746.93,93,737.93,89,741.93,93,737.93,97,746.93,93" style="stroke:#181818;stroke-width:1;"/><text fill="#000000" font-family="sans-serif" font-size="13" lengthAdjust="spacing" textLength="92.3965" x="607.5" y="89.0669">verDocentes()</text></g><!--link ListDocentes to Menu--><g class="link" data-entity-1="ListDocentes" data-entity-2="Menu" data-source-line="25" data-uid="lnk13" id="link_ListDocentes_Menu"><path d="M746.77,113.51 C736.8,115.36 726.7,116.93 717,118 C660.9,124.19 646.12,124.03 590,118 C580.25,116.95 576.0157,116.4798 565.9857,114.6798" fill="none" id="ListDocentes-to-Menu" style="stroke:#181818;stroke-width:1;"/><polygon fill="#181818" points="560.08,113.62,568.2319,119.1469,565.0014,114.5032,569.645,111.2727,560.08,113.62" style="stroke:#181818;stroke-width:1;"/><text fill="#000000" font-family="sans-serif" font-size="13" lengthAdjust="spacing" textLength="125.9248" x="591" y="114.0669">completarGestion()</text></g><!--link ListDocentes to EditDocentes--><g class="link" data-entity-1="ListDocentes" data-entity-2="EditDocentes" data-source-line="19" data-uid="lnk7" id="link_ListDocentes_EditDocentes"><path d="M879,67.92 C898.34,59.15 921.19,50.39 943,46 C994.85,35.56 1010.23,35.18 1062,46 C1083.03,50.4 1099.5673,56.582 1118.1073,65.362" fill="none" id="ListDocentes-to-EditDocentes" style="stroke:#181818;stroke-width:1;"/><polygon fill="#181818" points="1123.53,67.93,1117.108,60.4629,1119.0111,65.79,1113.684,67.6931,1123.53,67.93" style="stroke:#181818;stroke-width:1;"/><text fill="#000000" font-family="sans-serif" font-size="13" lengthAdjust="spacing" textLength="98.3887" x="953.5" y="35.0669">crearDocente()</text></g><!--link ListDocentes to EditDocentes--><g class="link" data-entity-1="ListDocentes" data-entity-2="EditDocentes" data-source-line="20" data-uid="lnk8" id="link_ListDocentes_EditDocentes"><path d="M913.37,93 C967.78,93 1032.61,93 1086,93" fill="none" id="ListDocentes-to-EditDocentes-1" style="stroke:#181818;stroke-width:1;"/><polygon fill="#181818" points="1092,93,1083,89,1087,93,1083,97,1092,93" style="stroke:#181818;stroke-width:1;"/><text fill="#000000" font-family="sans-serif" font-size="13" lengthAdjust="spacing" textLength="102.8574" x="951.5" y="89.0669">editarDocente()</text></g><!--link EditDocentes to ListDocentes--><g class="link" data-entity-1="EditDocentes" data-entity-2="ListDocentes" data-source-line="23" data-uid="lnk11" id="link_EditDocentes_ListDocentes"><path d="M1091.78,113.28 C1081.82,115.22 1071.71,116.89 1062,118 C1009.46,124.03 995.57,123.8 943,118 C933.3,116.93 929.0993,116.4547 919.1293,114.6047" fill="none" id="EditDocentes-to-ListDocentes" style="stroke:#181818;stroke-width:1;"/><polygon fill="#181818" points="913.23,113.51,921.3492,119.0848,918.1461,114.4222,922.8087,111.2191,913.23,113.51" style="stroke:#181818;stroke-width:1;"/><text fill="#000000" font-family="sans-serif" font-size="13" lengthAdjust="spacing" textLength="92.3965" x="956.5" y="114.0669">verDocentes()</text></g><!--link EditDocentes to ListDocentes--><g class="link" data-entity-1="EditDocentes" data-entity-2="ListDocentes" data-source-line="24" data-uid="lnk12" id="link_EditDocentes_ListDocentes"><path d="M1130.37,118.2 C1110.69,129.4 1085.98,141.32 1062,147 C1010.54,159.2 994.56,158.78 943,147 C918.06,141.3 897.4752,132.1871 876.9052,120.9471" fill="none" id="EditDocentes-to-ListDocentes-1" style="stroke:#181818;stroke-width:1;"/><polygon fill="#181818" points="871.64,118.07,877.6198,125.8957,876.0277,120.4675,881.4559,118.8754,871.64,118.07" style="stroke:#181818;stroke-width:1;"/><text fill="#000000" font-family="sans-serif" font-size="13" lengthAdjust="spacing" textLength="117.6348" x="944" y="143.0669">eliminarDocente()</text></g><!--link ListDocentes to ListDocentes--><g class="link" data-entity-1="ListDocentes" data-entity-2="ListDocentes" data-source-line="21" data-uid="lnk9" id="link_ListDocentes_ListDocentes"><path d="M800.9,67.72 C792.08,50.23 801.78,33 830,33 C858.22,33 870.6216,44.8727 861.8016,62.3627" fill="none" id="ListDocentes-to-ListDocentes" style="stroke:#181818;stroke-width:1;"/><polygon fill="#181818" points="859.1,67.72,866.724,61.4851,861.3514,63.2555,859.5809,57.8829,859.1,67.72" style="stroke:#181818;stroke-width:1;"/><text fill="#000000" font-family="sans-serif" font-size="13" lengthAdjust="spacing" textLength="117.6348" x="771.5" y="24.0669">eliminarDocente()</text></g><!--link EditDocentes to EditDocentes--><g class="link" data-entity-1="EditDocentes" data-entity-2="EditDocentes" data-source-line="22" data-uid="lnk10" id="link_EditDocentes_EditDocentes"><path d="M1142.08,67.72 C1133.46,50.23 1142.94,33 1170.5,33 C1198.06,33 1210.1925,44.8481 1201.5725,62.3381" fill="none" id="EditDocentes-to-EditDocentes" style="stroke:#181818;stroke-width:1;"/><polygon fill="#181818" points="1198.92,67.72,1206.4866,61.4155,1201.1304,63.2351,1199.3108,57.8789,1198.92,67.72" style="stroke:#181818;stroke-width:1;"/><text fill="#000000" font-family="sans-serif" font-size="13" lengthAdjust="spacing" textLength="102.8574" x="1119.5" y="24.0669">editarDocente()</text></g><!--SRC=[ZP31QiCm343l_WhHIxP1Vw27WjkOOMYI4kSsHWY9kXfIkzZEld-EHr9tWNOdM_AJzAmUJmwS1YE_pWuwQR1rKYj24cPTqscR4E8l3c4bcE15NkzPMTAKhg2na6iwkFCCS56nZDOf5ySYvxi32r26QfYRfCMUvHKJDTrnLbP580xIkbItg1pQF-0TnpfvuqYIwMxeDLYqtZWX7s-Vi5vl9wdV8sH60zY0LBALZH61Vtab8Nshy4IBnaJ0FE9gz0cjDZYkOowBjJVmZMOAV6dy5k3OtGyos4puSnfzz12_Dy5UNgIA2-9s_-Y_m1_zz0cyb5dOZmlrAz6NQu_Uunsj2_l_0G00]--></g></svg>