<svg xmlns="http://www.w3.org/2000/svg" xmlns:xlink="http://www.w3.org/1999/xlink" contentStyleType="text/css" data-diagram-type="STATE" height="852px" preserveAspectRatio="none" style="width:2086px;height:852px;background:#FFFFFF;" version="1.1" viewBox="0 0 2086 852" width="2086px" zoomAndPan="magnify"><defs/><g><g id="RESPUESTAS_ABIERTO"><rect fill="#F1F1F1" height="50" rx="12.5" ry="12.5" style="stroke:#181818;stroke-width:0.5;" width="179.3525" x="236.5" y="7"/><line style="stroke:#181818;stroke-width:0.5;" x1="236.5" x2="415.8525" y1="33.2969" y2="33.2969"/><text fill="#000000" font-family="sans-serif" font-size="14" lengthAdjust="spacing" textLength="159.3525" x="246.5" y="24.9951">RESPUESTAS_ABIERTO</text></g><g id="RESPUESTAS_CONTEXTUALES_ABIERTO"><rect fill="#F1F1F1" height="50" rx="12.5" ry="12.5" style="stroke:#181818;stroke-width:0.5;" width="298.5166" x="450.5" y="7"/><line style="stroke:#181818;stroke-width:0.5;" x1="450.5" x2="749.0166" y1="33.2969" y2="33.2969"/><text fill="#000000" font-family="sans-serif" font-size="14" lengthAdjust="spacing" textLength="278.5166" x="460.5" y="24.9951">RESPUESTAS_CONTEXTUALES_ABIERTO</text></g><g id="PREGUNTAS_ABIERTO"><rect fill="#F1F1F1" height="50" rx="12.5" ry="12.5" style="stroke:#181818;stroke-width:0.5;" width="174.0547" x="785" y="7"/><line style="stroke:#181818;stroke-width:0.5;" x1="785" x2="959.0547" y1="33.2969" y2="33.2969"/><text fill="#000000" font-family="sans-serif" font-size="14" lengthAdjust="spacing" textLength="154.0547" x="795" y="24.9951">PREGUNTAS_ABIERTO</text></g><g id="PREGUNTAS_CONTEXTUALES_ABIERTO"><rect fill="#F1F1F1" height="50" rx="12.5" ry="12.5" style="stroke:#181818;stroke-width:0.5;" width="293.2188" x="994.5" y="7"/><line style="stroke:#181818;stroke-width:0.5;" x1="994.5" x2="1287.7188" y1="33.2969" y2="33.2969"/><text fill="#000000" font-family="sans-serif" font-size="14" lengthAdjust="spacing" textLength="273.2188" x="1004.5" y="24.9951">PREGUNTAS_CONTEXTUALES_ABIERTO</text></g><g id="PREGUNTA_ABIERTO"><rect fill="#F1F1F1" height="50" rx="12.5" ry="12.5" style="stroke:#181818;stroke-width:0.5;" width="165.168" x="1322.5" y="7"/><line style="stroke:#181818;stroke-width:0.5;" x1="1322.5" x2="1487.668" y1="33.2969" y2="33.2969"/><text fill="#000000" font-family="sans-serif" font-size="14" lengthAdjust="spacing" textLength="145.168" x="1332.5" y="24.9951">PREGUNTA_ABIERTO</text></g><g id="PREGUNTA_CONTEXTUAL_ABIERTO"><rect fill="#F1F1F1" height="50" rx="12.5" ry="12.5" style="stroke:#181818;stroke-width:0.5;" width="266.5996" x="1522.5" y="7"/><line style="stroke:#181818;stroke-width:0.5;" x1="1522.5" x2="1789.0996" y1="33.2969" y2="33.2969"/><text fill="#000000" font-family="sans-serif" font-size="14" lengthAdjust="spacing" textLength="246.5996" x="1532.5" y="24.9951">PREGUNTA_CONTEXTUAL_ABIERTO</text></g><g id="PREGUNTAS_ABIERTO2"><rect fill="#F1F1F1" height="50" rx="12.5" ry="12.5" style="stroke:#181818;stroke-width:0.5;" width="174.0547" x="7" y="796"/><line style="stroke:#181818;stroke-width:0.5;" x1="7" x2="181.0547" y1="822.2969" y2="822.2969"/><text fill="#000000" font-family="sans-serif" font-size="14" lengthAdjust="spacing" textLength="154.0547" x="17" y="813.9951">PREGUNTAS_ABIERTO</text></g><g id="PREGUNTAS_CONTEXTUALES_ABIERTO2"><rect fill="#F1F1F1" height="50" rx="12.5" ry="12.5" style="stroke:#181818;stroke-width:0.5;" width="293.2188" x="216.5" y="796"/><line style="stroke:#181818;stroke-width:0.5;" x1="216.5" x2="509.7188" y1="822.2969" y2="822.2969"/><text fill="#000000" font-family="sans-serif" font-size="14" lengthAdjust="spacing" textLength="273.2188" x="226.5" y="813.9951">PREGUNTAS_CONTEXTUALES_ABIERTO</text></g><g id="PREGUNTA_ABIERTO2"><rect fill="#F1F1F1" height="50" rx="12.5" ry="12.5" style="stroke:#181818;stroke-width:0.5;" width="165.168" x="544.5" y="796"/><line style="stroke:#181818;stroke-width:0.5;" x1="544.5" x2="709.668" y1="822.2969" y2="822.2969"/><text fill="#000000" font-family="sans-serif" font-size="14" lengthAdjust="spacing" textLength="145.168" x="554.5" y="813.9951">PREGUNTA_ABIERTO</text></g><g id="PREGUNTA_CONTEXTUAL_ABIERTO2"><rect fill="#F1F1F1" height="50" rx="12.5" ry="12.5" style="stroke:#181818;stroke-width:0.5;" width="266.5996" x="744.5" y="796"/><line style="stroke:#181818;stroke-width:0.5;" x1="744.5" x2="1011.0996" y1="822.2969" y2="822.2969"/><text fill="#000000" font-family="sans-serif" font-size="14" lengthAdjust="spacing" textLength="246.5996" x="754.5" y="813.9951">PREGUNTA_CONTEXTUAL_ABIERTO</text></g><g id="PREGUNTAS_ABIERTO3"><rect fill="#F1F1F1" height="50" rx="12.5" ry="12.5" style="stroke:#181818;stroke-width:0.5;" width="174.0547" x="1047" y="796"/><line style="stroke:#181818;stroke-width:0.5;" x1="1047" x2="1221.0547" y1="822.2969" y2="822.2969"/><text fill="#000000" font-family="sans-serif" font-size="14" lengthAdjust="spacing" textLength="154.0547" x="1057" y="813.9951">PREGUNTAS_ABIERTO</text></g><g id="PREGUNTAS_CONTEXTUALES_ABIERTO3"><rect fill="#F1F1F1" height="50" rx="12.5" ry="12.5" style="stroke:#181818;stroke-width:0.5;" width="275.4863" x="1256.5" y="796"/><line style="stroke:#181818;stroke-width:0.5;" x1="1256.5" x2="1531.9863" y1="822.2969" y2="822.2969"/><text fill="#000000" font-family="sans-serif" font-size="14" lengthAdjust="spacing" textLength="255.4863" x="1266.5" y="813.9951">PREGUNTAS_CONTEXTUAL_ABIERTO</text></g><g id="RESPUESTAS_ABIERTO2"><rect fill="#F1F1F1" height="50" rx="12.5" ry="12.5" style="stroke:#181818;stroke-width:0.5;" width="179.3525" x="1566.5" y="796"/><line style="stroke:#181818;stroke-width:0.5;" x1="1566.5" x2="1745.8525" y1="822.2969" y2="822.2969"/><text fill="#000000" font-family="sans-serif" font-size="14" lengthAdjust="spacing" textLength="159.3525" x="1576.5" y="813.9951">RESPUESTAS_ABIERTO</text></g><g id="RESPUESTAS_CONTEXTUALES_ABIERTO2"><rect fill="#F1F1F1" height="50" rx="12.5" ry="12.5" style="stroke:#181818;stroke-width:0.5;" width="298.5166" x="1780.5" y="796"/><line style="stroke:#181818;stroke-width:0.5;" x1="1780.5" x2="2079.0166" y1="822.2969" y2="822.2969"/><text fill="#000000" font-family="sans-serif" font-size="14" lengthAdjust="spacing" textLength="278.5166" x="1790.5" y="813.9951">RESPUESTAS_CONTEXTUALES_ABIERTO</text></g><path d="M535.5,118 L1476.5,118 A12.5,12.5 0 0 1 1489,130.5 L1489,144.2969 L523,144.2969 L523,130.5 A12.5,12.5 0 0 1 535.5,118" fill="#F1F1F1"/><rect fill="none" height="583.2969" rx="12.5" ry="12.5" style="stroke:#181818;stroke-width:0.5;" width="966" x="523" y="118"/><line style="stroke:#181818;stroke-width:0.5;" x1="523" x2="1489" y1="144.2969" y2="144.2969"/><text fill="#000000" font-family="sans-serif" font-size="14" lengthAdjust="spacing" textLength="115.6504" x="948.1748" y="135.9951">editarPregunta()</text><g id="editarPregunta.EditandoDatos"><rect fill="#F1F1F1" height="50" rx="12.5" ry="12.5" style="stroke:#181818;stroke-width:0.5;" width="50" x="908" y="246.2969"/><line style="stroke:#181818;stroke-width:0.5;" x1="908" x2="958" y1="272.5938" y2="272.5938"/><text fill="#000000" font-family="sans-serif" font-size="14" lengthAdjust="spacing" textLength="4.4502" x="930.7749" y="264.292">&#160;</text></g><g id="editarPregunta.GuardandoDatos"><rect fill="#F1F1F1" height="50" rx="12.5" ry="12.5" style="stroke:#181818;stroke-width:0.5;" width="50" x="908" y="548.2969"/><line style="stroke:#181818;stroke-width:0.5;" x1="908" x2="958" y1="574.5938" y2="574.5938"/><text fill="#000000" font-family="sans-serif" font-size="14" lengthAdjust="spacing" textLength="4.4502" x="930.7749" y="566.292">&#160;</text></g><ellipse cx="933" cy="165.2969" fill="#222222" rx="10" ry="10" style="stroke:#222222;stroke-width:1;"/><ellipse cx="933" cy="680.2969" fill="none" rx="11" ry="11" style="stroke:#222222;stroke-width:1;"/><ellipse cx="933" cy="680.2969" fill="#222222" rx="6" ry="6" style="stroke:#222222;stroke-width:1;"/><!--link *start*editarPregunta to EditandoDatos--><g class="link" data-entity-1=".start.editarPregunta" data-entity-2="EditandoDatos" data-source-line="30" data-uid="lnk9" id="link_.start.editarPregunta_EditandoDatos"><path d="M933,175.5269 C933,191.2369 933,217.6569 933,240.1669" fill="none" id="*start*editarPregunta-to-EditandoDatos" style="stroke:#008000;stroke-width:1;"/><polygon fill="#008000" points="933,246.1669,937,237.1669,933,241.1669,929,237.1669,933,246.1669" style="stroke:#008000;stroke-width:1;"/><path d="M938,198.2969 L938,223.2969 L1111,223.2969 L1111,208.2969 L1101,198.2969 L938,198.2969" fill="#FEFFDD" style="stroke:#181818;stroke-width:0.5;"/><path d="M1101,198.2969 L1101,208.2969 L1111,208.2969 L1101,198.2969" fill="#FEFFDD" style="stroke:#181818;stroke-width:0.5;"/><text fill="#000000" font-family="sans-serif" font-size="13" font-weight="bold" lengthAdjust="spacing" textLength="60.5313" x="944" y="215.3638">Docente</text><text fill="#000000" font-family="sans-serif" font-size="13" lengthAdjust="spacing" textLength="88.1753" x="1008.6636" y="215.3638">solicita editar</text></g><!--link EditandoDatos to GuardandoDatos--><g class="link" data-entity-1="EditandoDatos" data-entity-2="GuardandoDatos" data-source-line="35" data-uid="lnk10" id="link_EditandoDatos_GuardandoDatos"><path d="M907.91,277.6969 C855.24,289.0469 738,314.2969 738,314.2969 C738,314.2969 738,530.2969 738,530.2969 C738,530.2969 849.3746,554.2829 902.0446,565.6329" fill="none" id="EditandoDatos-to-GuardandoDatos" style="stroke:#008000;stroke-width:1;"/><polygon fill="#008000" points="907.91,566.8969,899.9546,561.0907,903.0222,565.8436,898.2693,568.9112,907.91,566.8969" style="stroke:#008000;stroke-width:1;"/><path d="M743,319.2969 L743,525.2969 L1103,525.2969 L1103,329.2969 L1093,319.2969 L743,319.2969" fill="#FEFFDD" style="stroke:#181818;stroke-width:0.5;"/><path d="M1093,319.2969 L1093,329.2969 L1103,329.2969 L1093,319.2969" fill="#FEFFDD" style="stroke:#181818;stroke-width:0.5;"/><text fill="#000000" font-family="sans-serif" font-size="13" font-weight="bold" lengthAdjust="spacing" textLength="58.9063" x="749" y="336.3638">Sistema</text><text fill="#000000" font-family="sans-serif" font-size="13" lengthAdjust="spacing" textLength="169.1714" x="812.0386" y="336.3638">presenta datos de edici&#243;n</text><text fill="#000000" font-family="sans-serif" font-size="13" lengthAdjust="spacing" textLength="4.1323" x="749" y="351.4966">&#160;</text><text fill="#000000" font-family="sans-serif" font-size="13" lengthAdjust="spacing" textLength="158.3105" x="749" y="366.6294">&#8226; Asignatura, Enunciado</text><text fill="#000000" font-family="sans-serif" font-size="13" lengthAdjust="spacing" textLength="170.3901" x="749" y="381.7622">&#8226; Tema, Dificultad (Enum)</text><text fill="#000000" font-family="sans-serif" font-size="13" lengthAdjust="spacing" textLength="339.0791" x="749" y="396.895">&#8226; Respuestas (contenido y si es correcta/incorrecta)</text><text fill="#000000" font-family="sans-serif" font-size="13" lengthAdjust="spacing" textLength="169.8887" x="749" y="412.0278">&#8226; Habilitada/deshabilitada</text><text fill="#000000" font-family="sans-serif" font-size="13" lengthAdjust="spacing" textLength="4.1323" x="749" y="427.1606">&#160;</text><text fill="#000000" font-family="sans-serif" font-size="13" font-weight="bold" lengthAdjust="spacing" textLength="58.9063" x="749" y="442.2935">Sistema</text><text fill="#000000" font-family="sans-serif" font-size="13" lengthAdjust="spacing" textLength="110.5952" x="812.0386" y="442.2935">permite solicitar:</text><text fill="#000000" font-family="sans-serif" font-size="13" lengthAdjust="spacing" textLength="127.8164" x="749" y="457.4263">&#8226; modificar campos</text><text fill="#000000" font-family="sans-serif" font-size="13" lengthAdjust="spacing" textLength="126.6865" x="749" y="472.5591">&#8226; guardar pregunta</text><text fill="#000000" font-family="sans-serif" font-size="13" lengthAdjust="spacing" textLength="118.168" x="749" y="487.6919">&#8226; cancelar edici&#243;n</text><text fill="#000000" font-family="sans-serif" font-size="13" lengthAdjust="spacing" textLength="108.1831" x="749" y="502.8247">&#8226; ver respuestas</text><text fill="#000000" font-family="sans-serif" font-size="13" lengthAdjust="spacing" textLength="64.8477" x="749" y="517.9575">&#8226; eliminar</text></g><!--link GuardandoDatos to EditandoDatos--><g class="link" data-entity-1="GuardandoDatos" data-entity-2="EditandoDatos" data-source-line="52" data-uid="lnk11" id="link_GuardandoDatos_EditandoDatos"><path d="M958.07,566.2769 C1006.46,554.6669 1108,530.2969 1108,530.2969 C1108,530.2969 1108,314.2969 1108,314.2969 C1108,314.2969 1012.2944,291.3267 963.9044,279.7167" fill="none" id="GuardandoDatos-to-EditandoDatos" style="stroke:#008000;stroke-width:1;"/><polygon fill="#008000" points="958.07,278.3169,965.8884,284.3062,962.932,279.4834,967.7549,276.527,958.07,278.3169" style="stroke:#008000;stroke-width:1;"/><path d="M1113,409.7969 L1113,434.7969 L1364,434.7969 L1364,419.7969 L1354,409.7969 L1113,409.7969" fill="#FEFFDD" style="stroke:#181818;stroke-width:0.5;"/><path d="M1354,409.7969 L1354,419.7969 L1364,419.7969 L1354,409.7969" fill="#FEFFDD" style="stroke:#181818;stroke-width:0.5;"/><text fill="#000000" font-family="sans-serif" font-size="13" font-weight="bold" lengthAdjust="spacing" textLength="60.5313" x="1119" y="426.8638">Docente</text><text fill="#000000" font-family="sans-serif" font-size="13" lengthAdjust="spacing" textLength="165.9214" x="1183.6636" y="426.8638">solicita modificar campos</text></g><!--link GuardandoDatos to *end*editarPregunta--><g class="link" data-entity-1="GuardandoDatos" data-entity-2=".end.editarPregunta" data-source-line="57" data-uid="lnk13" id="link_GuardandoDatos_.end.editarPregunta"><path d="M907.74,576.9569 C820.03,586.1869 534,616.2969 534,616.2969 C534,616.2969 534,651.2969 534,651.2969 C534,651.2969 851.4847,673.577 915.9247,678.097" fill="none" id="GuardandoDatos-to-*end*editarPregunta" style="stroke:#008000;stroke-width:1;"/><polygon fill="#008000" points="921.91,678.5169,913.2119,673.8969,916.9223,678.167,912.6522,681.8773,921.91,678.5169" style="stroke:#008000;stroke-width:1;"/><path d="M539,621.2969 L539,646.2969 L769,646.2969 L769,631.2969 L759,621.2969 L539,621.2969" fill="#FEFFDD" style="stroke:#181818;stroke-width:0.5;"/><path d="M759,621.2969 L759,631.2969 L769,631.2969 L759,621.2969" fill="#FEFFDD" style="stroke:#181818;stroke-width:0.5;"/><text fill="#000000" font-family="sans-serif" font-size="13" font-weight="bold" lengthAdjust="spacing" textLength="60.5313" x="545" y="638.3638">Docente</text><text fill="#000000" font-family="sans-serif" font-size="13" lengthAdjust="spacing" textLength="144.5361" x="609.6636" y="638.3638">solicita guardar y salir</text></g><!--link GuardandoDatos to *end*editarPregunta--><g class="link" data-entity-1="GuardandoDatos" data-entity-2=".end.editarPregunta" data-source-line="62" data-uid="lnk14" id="link_GuardandoDatos_.end.editarPregunta"><path d="M907.74,582.0969 C868.41,594.2469 797,616.2969 797,616.2969 C797,616.2969 797,651.2969 797,651.2969 C797,651.2969 884.3932,669.2871 916.4532,675.8871" fill="none" id="GuardandoDatos-to-*end*editarPregunta-1" style="stroke:#FF0000;stroke-width:1;"/><polygon fill="#FF0000" points="922.33,677.0969,914.3214,671.3643,917.4327,676.0887,912.7083,679.2,922.33,677.0969" style="stroke:#FF0000;stroke-width:1;"/><path d="M802,621.2969 L802,646.2969 L1043,646.2969 L1043,631.2969 L1033,621.2969 L802,621.2969" fill="#FEFFDD" style="stroke:#181818;stroke-width:0.5;"/><path d="M1033,621.2969 L1033,631.2969 L1043,631.2969 L1033,621.2969" fill="#FEFFDD" style="stroke:#181818;stroke-width:0.5;"/><text fill="#000000" font-family="sans-serif" font-size="13" font-weight="bold" lengthAdjust="spacing" textLength="60.5313" x="808" y="638.3638">Docente</text><text fill="#000000" font-family="sans-serif" font-size="13" lengthAdjust="spacing" textLength="156.2729" x="872.6636" y="638.3638">solicita cancelar edici&#243;n</text></g><!--link GuardandoDatos to *end*editarPregunta--><g class="link" data-entity-1="GuardandoDatos" data-entity-2=".end.editarPregunta" data-source-line="67" data-uid="lnk15" id="link_GuardandoDatos_.end.editarPregunta"><path d="M958.24,583.5169 C992.09,595.8769 1048,616.2969 1048,616.2969 C1048,616.2969 1048,651.2969 1048,651.2969 C1048,651.2969 977.9093,668.3559 949.4393,675.2959" fill="none" id="GuardandoDatos-to-*end*editarPregunta-2" style="stroke:#0000FF;stroke-width:1;"/><polygon fill="#0000FF" points="943.61,676.7169,953.3013,678.4716,948.4678,675.5327,951.4066,670.6992,943.61,676.7169" style="stroke:#0000FF;stroke-width:1;"/><path d="M1053,621.2969 L1053,646.2969 L1241,646.2969 L1241,631.2969 L1231,621.2969 L1053,621.2969" fill="#FEFFDD" style="stroke:#181818;stroke-width:0.5;"/><path d="M1231,621.2969 L1231,631.2969 L1241,631.2969 L1231,621.2969" fill="#FEFFDD" style="stroke:#181818;stroke-width:0.5;"/><text fill="#000000" font-family="sans-serif" font-size="13" font-weight="bold" lengthAdjust="spacing" textLength="60.5313" x="1059" y="638.3638">Docente</text><text fill="#000000" font-family="sans-serif" font-size="13" lengthAdjust="spacing" textLength="102.9526" x="1123.6636" y="638.3638">solicita eliminar</text></g><!--link GuardandoDatos to *end*editarPregunta--><g class="link" data-entity-1="GuardandoDatos" data-entity-2=".end.editarPregunta" data-source-line="72" data-uid="lnk16" id="link_GuardandoDatos_.end.editarPregunta"><path d="M958.14,577.6269 C1033.12,587.5569 1250,616.2969 1250,616.2969 C1250,616.2969 1250,651.2969 1250,651.2969 C1250,651.2969 1005.6267,672.8783 949.8867,677.8083" fill="none" id="GuardandoDatos-to-*end*editarPregunta-3" style="stroke:#FFA500;stroke-width:1;"/><polygon fill="#FFA500" points="943.91,678.3369,953.2274,681.5284,948.8906,677.8964,952.5226,673.5595,943.91,678.3369" style="stroke:#FFA500;stroke-width:1;"/><path d="M1255,621.2969 L1255,646.2969 L1480,646.2969 L1480,631.2969 L1470,621.2969 L1255,621.2969" fill="#FEFFDD" style="stroke:#181818;stroke-width:0.5;"/><path d="M1470,621.2969 L1470,631.2969 L1480,631.2969 L1470,621.2969" fill="#FEFFDD" style="stroke:#181818;stroke-width:0.5;"/><text fill="#000000" font-family="sans-serif" font-size="13" font-weight="bold" lengthAdjust="spacing" textLength="60.5313" x="1261" y="638.3638">Docente</text><text fill="#000000" font-family="sans-serif" font-size="13" lengthAdjust="spacing" textLength="139.5151" x="1325.6636" y="638.3638">solicita ver respuetas</text></g><!--link RESPUESTAS_ABIERTO to editarPregunta--><g class="link" data-entity-1="RESPUESTAS_ABIERTO" data-entity-2="editarPregunta" data-source-line="18" data-uid="lnk2" id="link_RESPUESTAS_ABIERTO_editarPregunta"><path d="M369.57,57.06 C405.26,76.77 454.7072,104.0803 517.3672,138.6703" fill="none" id="RESPUESTAS_ABIERTO-to-editarPregunta" style="stroke:#008000;stroke-width:1;"/><polygon fill="#008000" points="522.62,141.57,516.6739,133.7186,518.2427,139.1536,512.8077,140.7223,522.62,141.57" style="stroke:#008000;stroke-width:1;"/></g><!--link RESPUESTAS_CONTEXTUALES_ABIERTO to editarPregunta--><g class="link" data-entity-1="RESPUESTAS_CONTEXTUALES_ABIERTO" data-entity-2="editarPregunta" data-source-line="19" data-uid="lnk3" id="link_RESPUESTAS_CONTEXTUALES_ABIERTO_editarPregunta"><path d="M626.01,57.06 C642.29,72.11 660.7857,89.2154 687.3657,113.8054" fill="none" id="RESPUESTAS_CONTEXTUALES_ABIERTO-to-editarPregunta" style="stroke:#008000;stroke-width:1;"/><polygon fill="#008000" points="691.77,117.88,687.8799,108.8319,688.0997,114.4845,682.4472,114.7044,691.77,117.88" style="stroke:#008000;stroke-width:1;"/></g><!--link PREGUNTAS_ABIERTO to editarPregunta--><g class="link" data-entity-1="PREGUNTAS_ABIERTO" data-entity-2="editarPregunta" data-source-line="20" data-uid="lnk4" id="link_PREGUNTAS_ABIERTO_editarPregunta"><path d="M880.59,57.06 C885.96,72.11 891.5045,87.6387 900.2745,112.2287" fill="none" id="PREGUNTAS_ABIERTO-to-editarPregunta" style="stroke:#008000;stroke-width:1;"/><polygon fill="#008000" points="902.29,117.88,903.0342,108.0593,900.6104,113.1706,895.4991,110.7467,902.29,117.88" style="stroke:#008000;stroke-width:1;"/></g><!--link PREGUNTAS_CONTEXTUALES_ABIERTO to editarPregunta--><g class="link" data-entity-1="PREGUNTAS_CONTEXTUALES_ABIERTO" data-entity-2="editarPregunta" data-source-line="21" data-uid="lnk5" id="link_PREGUNTAS_CONTEXTUALES_ABIERTO_editarPregunta"><path d="M1132.35,57.06 C1126.94,72.11 1121.3498,87.6438 1112.5098,112.2338" fill="none" id="PREGUNTAS_CONTEXTUALES_ABIERTO-to-editarPregunta" style="stroke:#008000;stroke-width:1;"/><polygon fill="#008000" points="1110.48,117.88,1117.2888,110.7639,1112.1715,113.1748,1109.7605,108.0575,1110.48,117.88" style="stroke:#008000;stroke-width:1;"/></g><!--link PREGUNTA_ABIERTO to editarPregunta--><g class="link" data-entity-1="PREGUNTA_ABIERTO" data-entity-2="editarPregunta" data-source-line="22" data-uid="lnk6" id="link_PREGUNTA_ABIERTO_editarPregunta"><path d="M1379.43,57.06 C1363.44,72.11 1345.2987,89.1772 1319.1787,113.7672" fill="none" id="PREGUNTA_ABIERTO-to-editarPregunta" style="stroke:#008000;stroke-width:1;"/><polygon fill="#008000" points="1314.81,117.88,1324.1048,114.6233,1318.4505,114.4527,1318.6211,108.7984,1314.81,117.88" style="stroke:#008000;stroke-width:1;"/></g><!--link PREGUNTA_CONTEXTUAL_ABIERTO to editarPregunta--><g class="link" data-entity-1="PREGUNTA_CONTEXTUAL_ABIERTO" data-entity-2="editarPregunta" data-source-line="23" data-uid="lnk7" id="link_PREGUNTA_CONTEXTUAL_ABIERTO_editarPregunta"><path d="M1614.35,57.06 C1584.3,74.42 1545.3354,96.9286 1494.3054,126.4086" fill="none" id="PREGUNTA_CONTEXTUAL_ABIERTO-to-editarPregunta" style="stroke:#008000;stroke-width:1;"/><polygon fill="#008000" points="1489.11,129.41,1498.904,128.3715,1493.4395,126.9089,1494.9021,121.4444,1489.11,129.41" style="stroke:#008000;stroke-width:1;"/></g><!--link editarPregunta to PREGUNTA_ABIERTO2--><g class="link" data-entity-1="editarPregunta" data-entity-2="PREGUNTA_ABIERTO2" data-source-line="80" data-uid="lnk17" id="link_editarPregunta_PREGUNTA_ABIERTO2"><path d="M737.13,701.01 C700.82,740.24 673.3258,769.9468 653.4058,791.4668" fill="none" id="editarPregunta-to-PREGUNTA_ABIERTO2" style="stroke:#008000;stroke-width:1;"/><polygon fill="#008000" points="649.33,795.87,658.3791,791.9824,652.7265,792.2007,652.5082,786.5481,649.33,795.87" style="stroke:#008000;stroke-width:1;"/><path d="M714,736 L714,761 L786,761 L786,746 L776,736 L714,736" fill="#FEFFDD" style="stroke:#181818;stroke-width:0.5;"/><path d="M776,736 L776,746 L786,746 L776,736" fill="#FEFFDD" style="stroke:#181818;stroke-width:0.5;"/><text fill="#000000" font-family="sans-serif" font-size="13" lengthAdjust="spacing" textLength="51.3652" x="720" y="753.0669">guardar</text></g><!--link editarPregunta to PREGUNTA_CONTEXTUAL_ABIERTO2--><g class="link" data-entity-1="editarPregunta" data-entity-2="PREGUNTA_CONTEXTUAL_ABIERTO2" data-source-line="85" data-uid="lnk18" id="link_editarPregunta_PREGUNTA_CONTEXTUAL_ABIERTO2"><path d="M915.19,701.01 C902.93,740.24 894.0609,768.6235 887.3309,790.1435" fill="none" id="editarPregunta-to-PREGUNTA_CONTEXTUAL_ABIERTO2" style="stroke:#008000;stroke-width:1;"/><polygon fill="#008000" points="885.54,795.87,892.044,788.4742,887.0324,791.0979,884.4086,786.0863,885.54,795.87" style="stroke:#008000;stroke-width:1;"/><path d="M911,736 L911,761 L983,761 L983,746 L973,736 L911,736" fill="#FEFFDD" style="stroke:#181818;stroke-width:0.5;"/><path d="M973,736 L973,746 L983,746 L973,736" fill="#FEFFDD" style="stroke:#181818;stroke-width:0.5;"/><text fill="#000000" font-family="sans-serif" font-size="13" lengthAdjust="spacing" textLength="51.3652" x="917" y="753.0669">guardar</text></g><!--link editarPregunta to PREGUNTAS_ABIERTO2--><g class="link" data-entity-1="editarPregunta" data-entity-2="PREGUNTAS_ABIERTO2" data-source-line="91" data-uid="lnk19" id="link_editarPregunta_PREGUNTAS_ABIERTO2"><path d="M522.96,627.39 C371.37,695.46 229.2434,759.2721 152.9734,793.5221" fill="none" id="editarPregunta-to-PREGUNTAS_ABIERTO2" style="stroke:#FF0000;stroke-width:1;"/><polygon fill="#FF0000" points="147.5,795.98,157.3488,795.9421,152.0612,793.9317,154.0716,788.6442,147.5,795.98" style="stroke:#FF0000;stroke-width:1;"/><path d="M296,736 L296,761 L372,761 L372,746 L362,736 L296,736" fill="#FEFFDD" style="stroke:#181818;stroke-width:0.5;"/><path d="M362,736 L362,746 L372,746 L362,736" fill="#FEFFDD" style="stroke:#181818;stroke-width:0.5;"/><text fill="#000000" font-family="sans-serif" font-size="13" lengthAdjust="spacing" textLength="55.4214" x="302" y="753.0669">cancelar</text></g><!--link editarPregunta to PREGUNTAS_CONTEXTUALES_ABIERTO2--><g class="link" data-entity-1="editarPregunta" data-entity-2="PREGUNTAS_CONTEXTUALES_ABIERTO2" data-source-line="96" data-uid="lnk20" id="link_editarPregunta_PREGUNTAS_CONTEXTUALES_ABIERTO2"><path d="M549.85,701.01 C488.23,740.24 439.7412,771.1276 405.9412,792.6476" fill="none" id="editarPregunta-to-PREGUNTAS_CONTEXTUALES_ABIERTO2" style="stroke:#FF0000;stroke-width:1;"/><polygon fill="#FF0000" points="400.88,795.87,410.6201,794.4105,405.0977,793.1847,406.3236,787.6622,400.88,795.87" style="stroke:#FF0000;stroke-width:1;"/><path d="M507,736 L507,761 L583,761 L583,746 L573,736 L507,736" fill="#FEFFDD" style="stroke:#181818;stroke-width:0.5;"/><path d="M573,736 L573,746 L583,746 L573,736" fill="#FEFFDD" style="stroke:#181818;stroke-width:0.5;"/><text fill="#000000" font-family="sans-serif" font-size="13" lengthAdjust="spacing" textLength="55.4214" x="513" y="753.0669">cancelar</text></g><!--link editarPregunta to PREGUNTAS_CONTEXTUALES_ABIERTO3--><g class="link" data-entity-1="editarPregunta" data-entity-2="PREGUNTAS_CONTEXTUALES_ABIERTO3" data-source-line="101" data-uid="lnk21" id="link_editarPregunta_PREGUNTAS_CONTEXTUALES_ABIERTO3"><path d="M1281.25,701.01 C1318.43,740.24 1346.6233,769.9945 1367.0133,791.5145" fill="none" id="editarPregunta-to-PREGUNTAS_CONTEXTUALES_ABIERTO3" style="stroke:#0000FF;stroke-width:1;"/><polygon fill="#0000FF" points="1371.14,795.87,1367.8535,786.5857,1367.701,792.2405,1362.0462,792.088,1371.14,795.87" style="stroke:#0000FF;stroke-width:1;"/><path d="M1343,736 L1343,761 L1417,761 L1417,746 L1407,736 L1343,736" fill="#FEFFDD" style="stroke:#181818;stroke-width:0.5;"/><path d="M1407,736 L1407,746 L1417,746 L1407,736" fill="#FEFFDD" style="stroke:#181818;stroke-width:0.5;"/><text fill="#000000" font-family="sans-serif" font-size="13" lengthAdjust="spacing" textLength="53.0474" x="1349" y="753.0669">eliminar</text></g><!--link editarPregunta to PREGUNTAS_ABIERTO3--><g class="link" data-entity-1="editarPregunta" data-entity-2="PREGUNTAS_ABIERTO3" data-source-line="106" data-uid="lnk22" id="link_editarPregunta_PREGUNTAS_ABIERTO3"><path d="M1096.81,701.01 C1109.07,740.24 1117.9391,768.6235 1124.6691,790.1435" fill="none" id="editarPregunta-to-PREGUNTAS_ABIERTO3" style="stroke:#0000FF;stroke-width:1;"/><polygon fill="#0000FF" points="1126.46,795.87,1127.5914,786.0863,1124.9676,791.0979,1119.956,788.4742,1126.46,795.87" style="stroke:#0000FF;stroke-width:1;"/><path d="M1121,736 L1121,761 L1195,761 L1195,746 L1185,736 L1121,736" fill="#FEFFDD" style="stroke:#181818;stroke-width:0.5;"/><path d="M1185,736 L1185,746 L1195,746 L1185,736" fill="#FEFFDD" style="stroke:#181818;stroke-width:0.5;"/><text fill="#000000" font-family="sans-serif" font-size="13" lengthAdjust="spacing" textLength="53.0474" x="1127" y="753.0669">eliminar</text></g><!--link editarPregunta to RESPUESTAS_ABIERTO2--><g class="link" data-entity-1="editarPregunta" data-entity-2="RESPUESTAS_ABIERTO2" data-source-line="111" data-uid="lnk23" id="link_editarPregunta_RESPUESTAS_ABIERTO2"><path d="M1467.12,701.01 C1529.4,740.24 1578.4634,771.1519 1612.6234,792.6719" fill="none" id="editarPregunta-to-RESPUESTAS_ABIERTO2" style="stroke:#FFA500;stroke-width:1;"/><polygon fill="#FFA500" points="1617.7,795.87,1612.2172,787.6884,1613.4695,793.2049,1607.953,794.4572,1617.7,795.87" style="stroke:#FFA500;stroke-width:1;"/><path d="M1566,736 L1566,761 L1683,761 L1683,746 L1673,736 L1566,736" fill="#FEFFDD" style="stroke:#181818;stroke-width:0.5;"/><path d="M1673,736 L1673,746 L1683,746 L1673,736" fill="#FEFFDD" style="stroke:#181818;stroke-width:0.5;"/><text fill="#000000" font-family="sans-serif" font-size="13" lengthAdjust="spacing" textLength="96.3828" x="1572" y="753.0669">ver respuestas</text></g><!--link editarPregunta to RESPUESTAS_CONTEXTUALES_ABIERTO2--><g class="link" data-entity-1="editarPregunta" data-entity-2="RESPUESTAS_CONTEXTUALES_ABIERTO2" data-source-line="116" data-uid="lnk24" id="link_editarPregunta_RESPUESTAS_CONTEXTUALES_ABIERTO2"><path d="M1489.31,624.69 C1645.06,693.72 1792.0846,758.8788 1870.3546,793.5688" fill="none" id="editarPregunta-to-RESPUESTAS_CONTEXTUALES_ABIERTO2" style="stroke:#FFA500;stroke-width:1;"/><polygon fill="#FFA500" points="1875.84,796,1869.2327,788.6963,1871.2688,793.974,1865.9911,796.0102,1875.84,796" style="stroke:#FFA500;stroke-width:1;"/><path d="M1800,736 L1800,761 L1917,761 L1917,746 L1907,736 L1800,736" fill="#FEFFDD" style="stroke:#181818;stroke-width:0.5;"/><path d="M1907,736 L1907,746 L1917,746 L1907,736" fill="#FEFFDD" style="stroke:#181818;stroke-width:0.5;"/><text fill="#000000" font-family="sans-serif" font-size="13" lengthAdjust="spacing" textLength="96.3828" x="1806" y="753.0669">ver respuestas</text></g><!--SRC=[fLPRQjj05FtNAYxgHvoIrD3yXM1mQv46GcpyW488PQovTOT8Cs96AfXIw5gwXIwXE-bAUYLRKgIHRCbnWh7kuvpxE1h9F0iPCSr228J4U1iXH2hOfXUEOs8M8yoznMpbBPRZnPVnXpjllfpQZe_JXwNtURaQttlrgDdSkrqzsDcblKDocxbCFSRw7fW1rpAxdQgf9pV5k2qbLtDRe-rEQebsWDlMwzLhUhrgxRMEOmjZLx9jTxifnafldhDZ4y3buvkDHfHFboD0BcAcPnetYOoPSmJlKAermcx1fzBqYhNtSYXjlu2gDHjtrJGuT-67um1zTXak_L6ObqP9hYOiLiPstoPCyy8FEu37jq-LaYeOa8L8HHXAfeVFSsQuMOycoaSPuyrmFGAZ0k5JrhxmB0Gbt-NHnoc-gk0lQQkrjT8kX8anP1bjfD5WEY2UeV5iSBxu-qUMXFz-_OQn4Hl9uaIp2_1a8dt1k2gyIuAxW8duAlmaY1c70SM4vuL_ZYPAaEPeOE0hQbaAhc0BHW0Qy9NMwCTiA6J-iqpznDOYe8Ov6t8qtuehfx4RrA6WXlDXwki29rGyBOzfy5aOxQUJEZRPq7GwYPs0SeVFf8y1UIeJIJtVKOCkMYhC68XGoDhkoZ7MbDEgbtvoQUoh5pc9jnzbFZ7Q7mj4hTqMDety9Axc9NJfRnqaU19bxpKgpUJcDAvIIRcG2iAVZdC6L-zWIUY6efMaMsNYmM9yVpSPqvrgE5fdN-tKUxbcwsdjLAhSBzKf5za5g-5PVWps31Qa6ixIisQ_tMonC9X6QPSikAQH49MXKni2-gSRd4I74ZKBG47wfGLTdpUKkDTPmqjHjQvSLmVxjS0Q7-Kd0EVQFF9-KaKkTDaF-HLWfR0RNe2gUBKZiJTgXycsKFm7]--></g></svg>