<svg xmlns="http://www.w3.org/2000/svg" xmlns:xlink="http://www.w3.org/1999/xlink" contentStyleType="text/css" data-diagram-type="DESCRIPTION" height="620px" preserveAspectRatio="none" style="width:1037px;height:620px;background:#FFFFFF;" version="1.1" viewBox="0 0 1037 620" width="1037px" zoomAndPan="magnify"><defs/><g><!--cluster eliminarPregunta--><g class="cluster" data-entity="eliminarPregunta" data-source-line="9" data-uid="ent0007" id="cluster_eliminarPregunta"><path d="M56,106 L207.3496,106 A3.75,3.75 0 0 1 209.8496,108.5 L216.8496,128.2969 L753,128.2969 A2.5,2.5 0 0 1 755.5,130.7969 L755.5,610.5 A2.5,2.5 0 0 1 753,613 L56,613 A2.5,2.5 0 0 1 53.5,610.5 L53.5,108.5 A2.5,2.5 0 0 1 56,106" fill="none" style="stroke:#000000;stroke-width:1.5;"/><line style="stroke:#000000;stroke-width:1.5;" x1="53.5" x2="216.8496" y1="128.2969" y2="128.2969"/><text fill="#000000" font-family="sans-serif" font-size="14" font-weight="bold" lengthAdjust="spacing" textLength="150.3496" x="57.5" y="120.9951">eliminarPregunta()</text></g><!--entity EliminarPreguntaView--><g class="entity" data-entity="EliminarPreguntaView" data-source-line="10" data-uid="ent0008" id="entity_EliminarPreguntaView"><rect fill="#629EF9" height="36.2969" rx="2.5" ry="2.5" style="stroke:#181818;stroke-width:0.5;" width="174.4033" x="417.5" y="141"/><text fill="#000000" font-family="sans-serif" font-size="14" lengthAdjust="spacing" textLength="154.4033" x="427.5" y="163.9951">EliminarPreguntaView</text></g><!--entity PreguntasController--><g class="entity" data-entity="PreguntasController" data-source-line="11" data-uid="ent0009" id="entity_PreguntasController"><rect fill="#B5BD68" height="36.2969" rx="2.5" ry="2.5" style="stroke:#181818;stroke-width:0.5;" width="159.9795" x="186.5" y="254"/><text fill="#000000" font-family="sans-serif" font-size="14" lengthAdjust="spacing" textLength="139.9795" x="196.5" y="276.9951">PreguntasController</text></g><!--entity PreguntaRepository--><g class="entity" data-entity="PreguntaRepository" data-source-line="12" data-uid="ent0010" id="entity_PreguntaRepository"><rect fill="#F2AC4E" height="36.2969" rx="2.5" ry="2.5" style="stroke:#181818;stroke-width:0.5;" width="158.585" x="197" y="367"/><text fill="#000000" font-family="sans-serif" font-size="14" lengthAdjust="spacing" textLength="138.585" x="207" y="389.9951">PreguntaRepository</text></g><!--entity Pregunta--><g class="entity" data-entity="Pregunta" data-source-line="13" data-uid="ent0011" id="entity_Pregunta"><rect fill="#F2AC4E" height="36.2969" rx="2.5" ry="2.5" style="stroke:#181818;stroke-width:0.5;" width="83.5127" x="234.5" y="464"/><text fill="#000000" font-family="sans-serif" font-size="14" lengthAdjust="spacing" textLength="63.5127" x="244.5" y="486.9951">Pregunta</text></g><!--entity Respuesta--><g class="entity" data-entity="Respuesta" data-source-line="14" data-uid="ent0012" id="entity_Respuesta"><rect fill="#F2AC4E" height="36.2969" rx="2.5" ry="2.5" style="stroke:#181818;stroke-width:0.5;" width="93.3701" x="230" y="561"/><text fill="#000000" font-family="sans-serif" font-size="14" lengthAdjust="spacing" textLength="73.3701" x="240" y="583.9951">Respuesta</text></g><!--entity PreguntasAbierto--><g class="entity" data-entity="PreguntasAbierto" data-source-line="3" data-uid="ent0002" id="entity_PreguntasAbierto"><rect fill="#CDEBA5" height="36.2969" rx="2.5" ry="2.5" style="stroke:#181818;stroke-width:0.5;" width="178.7715" x="7" y="7"/><text fill="#000000" font-family="sans-serif" font-size="14" lengthAdjust="spacing" textLength="158.7715" x="17" y="29.9951">:PREGUNTAS_ABIERTO</text></g><!--entity PreguntasContextualesAbierto--><g class="entity" data-entity="PreguntasContextualesAbierto" data-source-line="4" data-uid="ent0003" id="entity_PreguntasContextualesAbierto"><rect fill="#CDEBA5" height="36.2969" rx="2.5" ry="2.5" style="stroke:#181818;stroke-width:0.5;" width="297.9355" x="221.5" y="7"/><text fill="#000000" font-family="sans-serif" font-size="14" lengthAdjust="spacing" textLength="277.9355" x="231.5" y="29.9951">:PREGUNTAS_CONTEXTUALES_ABIERTO</text></g><!--entity PreguntaAbierto--><g class="entity" data-entity="PreguntaAbierto" data-source-line="5" data-uid="ent0004" id="entity_PreguntaAbierto"><rect fill="#CDEBA5" height="36.2969" rx="2.5" ry="2.5" style="stroke:#181818;stroke-width:0.5;" width="169.8848" x="554.5" y="7"/><text fill="#000000" font-family="sans-serif" font-size="14" lengthAdjust="spacing" textLength="149.8848" x="564.5" y="29.9951">:PREGUNTA_ABIERTO</text></g><!--entity PreguntaContextualAbierto--><g class="entity" data-entity="PreguntaContextualAbierto" data-source-line="6" data-uid="ent0005" id="entity_PreguntaContextualAbierto"><rect fill="#CDEBA5" height="36.2969" rx="2.5" ry="2.5" style="stroke:#181818;stroke-width:0.5;" width="271.3164" x="760" y="7"/><text fill="#000000" font-family="sans-serif" font-size="14" lengthAdjust="spacing" textLength="251.3164" x="770" y="29.9951">:PREGUNTA_CONTEXTUAL_ABIERTO</text></g><!--entity VerPreguntas--><g class="entity" data-entity="VerPreguntas" data-source-line="7" data-uid="ent0006" id="entity_VerPreguntas"><rect fill="#CDEBA5" height="36.2969" rx="2.5" ry="2.5" style="stroke:#181818;stroke-width:0.5;" width="215.9316" x="771.5" y="254"/><text fill="#000000" font-family="sans-serif" font-size="14" lengthAdjust="spacing" textLength="195.9316" x="781.5" y="276.9951">:Collaboration verPreguntas</text></g><!--link PreguntasAbierto to EliminarPreguntaView--><g class="link" data-entity-1="PreguntasAbierto" data-entity-2="EliminarPreguntaView" data-source-line="17" data-uid="lnk13" id="link_PreguntasAbierto_EliminarPreguntaView"><path d="M121.96,43.15 C150.1,62.11 191.5,90 191.5,90 C191.5,90 327.3367,119.5164 420.0567,139.6564" fill="none" id="PreguntasAbierto-to-EliminarPreguntaView" style="stroke:#181818;stroke-width:1;"/><polygon fill="#181818" points="425.92,140.93,417.9741,135.1108,421.0339,139.8687,416.276,142.9285,425.92,140.93" style="stroke:#181818;stroke-width:1;"/><text fill="#000000" font-family="sans-serif" font-size="13" lengthAdjust="spacing" textLength="193.6416" x="192.5" y="86.0669">eliminarPregunta(preguntaId)</text></g><!--link PreguntasContextualesAbierto to EliminarPreguntaView--><g class="link" data-entity-1="PreguntasContextualesAbierto" data-entity-2="EliminarPreguntaView" data-source-line="18" data-uid="lnk14" id="link_PreguntasContextualesAbierto_EliminarPreguntaView"><path d="M378.81,43.15 C387.99,62.11 401.5,90 401.5,90 C401.5,90 442.9926,117.3946 473.5026,137.5346" fill="none" id="PreguntasContextualesAbierto-to-EliminarPreguntaView" style="stroke:#181818;stroke-width:1;"/><polygon fill="#181818" points="478.51,140.84,473.2025,132.5436,474.3372,138.0855,468.7953,139.2201,478.51,140.84" style="stroke:#181818;stroke-width:1;"/><text fill="#000000" font-family="sans-serif" font-size="13" lengthAdjust="spacing" textLength="193.6416" x="402.5" y="86.0669">eliminarPregunta(preguntaId)</text></g><!--link PreguntaAbierto to EliminarPreguntaView--><g class="link" data-entity-1="PreguntaAbierto" data-entity-2="EliminarPreguntaView" data-source-line="19" data-uid="lnk15" id="link_PreguntaAbierto_EliminarPreguntaView"><path d="M629.05,43.15 C617.5,62.11 600.5,90 600.5,90 C600.5,90 562.0566,117.2325 533.6166,137.3725" fill="none" id="PreguntaAbierto-to-EliminarPreguntaView" style="stroke:#181818;stroke-width:1;"/><polygon fill="#181818" points="528.72,140.84,538.3765,138.9031,532.8005,137.9504,533.7531,132.3743,528.72,140.84" style="stroke:#181818;stroke-width:1;"/><text fill="#000000" font-family="sans-serif" font-size="13" lengthAdjust="spacing" textLength="193.6416" x="611.5" y="86.0669">eliminarPregunta(preguntaId)</text></g><!--link PreguntaContextualAbierto to EliminarPreguntaView--><g class="link" data-entity-1="PreguntaContextualAbierto" data-entity-2="EliminarPreguntaView" data-source-line="20" data-uid="lnk16" id="link_PreguntaContextualAbierto_EliminarPreguntaView"><path d="M873.53,43.15 C849.24,62.11 813.5,90 813.5,90 C813.5,90 679.4699,119.5008 587.9299,139.6408" fill="none" id="PreguntaContextualAbierto-to-EliminarPreguntaView" style="stroke:#181818;stroke-width:1;"/><polygon fill="#181818" points="582.07,140.93,591.7193,142.9027,586.9532,139.8556,590.0003,135.0896,582.07,140.93" style="stroke:#181818;stroke-width:1;"/><text fill="#000000" font-family="sans-serif" font-size="13" lengthAdjust="spacing" textLength="193.6416" x="834.5" y="86.0669">eliminarPregunta(preguntaId)</text></g><!--link EliminarPreguntaView to PreguntasController--><g class="link" data-entity-1="EliminarPreguntaView" data-entity-2="PreguntasController" data-source-line="22" data-uid="lnk17" id="link_EliminarPreguntaView_PreguntasController"><path d="M417.06,170.2 C298.53,184.02 101.5,207 101.5,207 C101.5,207 101.5,224 101.5,224 C101.5,224 153.5197,238.8159 200.6897,252.2559" fill="none" id="EliminarPreguntaView-to-PreguntasController" style="stroke:#181818;stroke-width:1;"/><polygon fill="#181818" points="206.46,253.9,198.9006,247.5869,201.6514,252.5299,196.7084,255.2807,206.46,253.9" style="stroke:#181818;stroke-width:1;"/><text fill="#000000" font-family="sans-serif" font-size="13" lengthAdjust="spacing" textLength="358.2236" x="102.5" y="220.0669">cargarPreguntaParaEliminacion(preguntaId) : Pregunta</text></g><!--link EliminarPreguntaView to PreguntasController--><g class="link" data-entity-1="EliminarPreguntaView" data-entity-2="PreguntasController" data-source-line="28" data-uid="lnk20" id="link_EliminarPreguntaView_PreguntasController"><path d="M494.05,177.15 C482.5,196.11 465.5,224 465.5,224 C465.5,224 401.4192,239.1302 344.4592,252.5902" fill="none" id="EliminarPreguntaView-to-PreguntasController-1" style="stroke:#181818;stroke-width:1;"/><polygon fill="#181818" points="338.62,253.97,348.2987,255.793,343.486,252.8201,346.4589,248.0075,338.62,253.97" style="stroke:#181818;stroke-width:1;"/><text fill="#000000" font-family="sans-serif" font-size="13" lengthAdjust="spacing" textLength="233.7969" x="476.5" y="220.0669">eliminarPregunta(preguntaId) : void</text></g><!--link PreguntasController to PreguntaRepository--><g class="link" data-entity-1="PreguntasController" data-entity-2="PreguntaRepository" data-source-line="24" data-uid="lnk18" id="link_PreguntasController_PreguntaRepository"><path d="M214.47,290.1 C173.58,303.54 123.5,320 123.5,320 C123.5,320 123.5,337 123.5,337 C123.5,337 171.3445,351.6981 215.0945,365.1381" fill="none" id="PreguntasController-to-PreguntaRepository" style="stroke:#181818;stroke-width:1;"/><polygon fill="#181818" points="220.83,366.9,213.4014,360.4335,216.0504,365.4317,211.0522,368.0807,220.83,366.9" style="stroke:#181818;stroke-width:1;"/><text fill="#000000" font-family="sans-serif" font-size="13" lengthAdjust="spacing" textLength="237.3452" x="124.5" y="333.0669">obtenerPorId(preguntaId) : Pregunta</text></g><!--link PreguntasController to PreguntaRepository--><g class="link" data-entity-1="PreguntasController" data-entity-2="PreguntaRepository" data-source-line="30" data-uid="lnk21" id="link_PreguntasController_PreguntaRepository"><path d="M302.89,290.1 C331.48,303.54 366.5,320 366.5,320 C366.5,320 366.5,337 366.5,337 C366.5,337 340.2982,350.6821 314.5682,364.1221" fill="none" id="PreguntasController-to-PreguntaRepository-1" style="stroke:#181818;stroke-width:1;"/><polygon fill="#181818" points="309.25,366.9,319.0792,366.2785,313.6818,364.5851,315.3753,359.1876,309.25,366.9" style="stroke:#181818;stroke-width:1;"/><text fill="#000000" font-family="sans-serif" font-size="13" lengthAdjust="spacing" textLength="174.8208" x="367.5" y="333.0669">eliminar(preguntaId) : void</text></g><!--link PreguntaRepository to Pregunta--><g class="link" data-entity-1="PreguntaRepository" data-entity-2="Pregunta" data-source-line="26" data-uid="lnk19" id="link_PreguntaRepository_Pregunta"><path d="M276.5,403.42 C276.5,420.57 276.5,446.58 276.5,463.69" fill="none" id="PreguntaRepository-Pregunta" style="stroke:#181818;stroke-width:1;"/></g><!--link EliminarPreguntaView to VerPreguntas--><g class="link" data-entity-1="EliminarPreguntaView" data-entity-2="VerPreguntas" data-source-line="32" data-uid="lnk22" id="link_EliminarPreguntaView_VerPreguntas"><path d="M582.06,177.03 C643.3,190.49 718.5,207 718.5,207 C718.5,207 783.0845,232.6734 830.7745,251.6334" fill="none" id="EliminarPreguntaView-to-VerPreguntas" style="stroke:#181818;stroke-width:1;stroke-dasharray:7,7;"/><polygon fill="#181818" points="836.35,253.85,829.4645,246.808,831.7037,252.0028,826.5089,254.242,836.35,253.85" style="stroke:#181818;stroke-width:1;"/><text fill="#000000" font-family="sans-serif" font-size="13" lengthAdjust="spacing" textLength="164.0679" x="758.5" y="220.0669">&#171;include&#187; verPreguntas()</text></g><!--link Pregunta to Respuesta--><g class="link" data-entity-1="Pregunta" data-entity-2="Respuesta" data-source-line="34" data-uid="lnk23" id="link_Pregunta_Respuesta"><path d="M276.5,500.42 C276.5,517.57 276.5,543.58 276.5,560.69" fill="none" id="Pregunta-Respuesta" style="stroke:#181818;stroke-width:1;"/></g><!--SRC=[hPDTQy8m58RlyoiExaOlz4Acp2A5sjKX31LNPNSZRGybM9EIfcuozjyNXskrnezzz2hDUS-JzoJdP4l6Kohf2XB6KMrIX5Gac-qF8H93HNcS8Douzzx0wK3DciwyX_dOTvvUdC78c_cJ6j0CfXBZd2kQEG53gSI5L7SozhrdV-uyUYSuhk0AtrHE4xoAQQHSbLXwCJ9A8-TehaWI6WX95HCSrYYBGhvWYxqDGb8QBccCW0bRCKwBq5PPgsxM6pLu9w2_lNExxPutx85NqIuOlbQbGIU8kdU75okrMvHLvR3jkBTUePnXAZAcXDnS49u8pp1BSynq_8EGQdz0isaRxLj7jr9FTujHr23d-kElp7_273NCRu74b0FDIDCChsb1I6LSYgTwg7U0KFVaFXciyks80VLb-BWDB121GgvRMSXHT15O9chUNjnSrQcYpjsGFdOjMFIp6hw1Hf3HMwjb7mom1Vq-us6IHsZR1xDURvHUjaKN8_09]--></g></svg>