<?plantuml 1.2026.2?><svg xmlns="http://www.w3.org/2000/svg" xmlns:xlink="http://www.w3.org/1999/xlink" contentStyleType="text/css" data-diagram-type="SEQUENCE" height="1396px" preserveAspectRatio="none" style="width:2605px;height:1396px;background:#FFFFFF;" version="1.1" viewBox="0 0 2605 1396" width="2605px" zoomAndPan="magnify"><title>Diagrama de Secuencia - Crear Pregunta (Spring Boot + React)</title><defs/><g><text fill="#000000" font-family="sans-serif" font-size="14" font-weight="bold" lengthAdjust="spacing" textLength="498.7363" x="1054.9182" y="27.9951">Diagrama de Secuencia - Crear Pregunta (Spring Boot + React)</text><g><title>Frontend .React.</title><rect fill="#FFFFFF" height="1058.5156" style="stroke:#181818;stroke-width:1;" width="10" x="538.9521" y="149.7266"/></g><g><title>PreguntasController</title><rect fill="#FFFFFF" height="800.4531" style="stroke:#181818;stroke-width:1;" width="10" x="886.5137" y="294.3906"/></g><g><title>PreguntaService</title><rect fill="#FFFFFF" height="742.1875" style="stroke:#181818;stroke-width:1;" width="10" x="1222.5244" y="323.5234"/></g><g><title>PreguntaRepository</title><rect fill="#FFFFFF" height="87.3984" style="stroke:#181818;stroke-width:1;" width="10" x="1722.8315" y="658.9844"/></g><g><title>PreguntaRepository</title><rect fill="#FFFFFF" height="87.3984" style="stroke:#181818;stroke-width:1;" width="10" x="1722.8315" y="907.0469"/></g><g><title>AsignaturaService</title><rect fill="#FFFFFF" height="145.6641" style="stroke:#181818;stroke-width:1;" width="10" x="1879.8931" y="352.6563"/></g><g><title>AsignaturaRepository</title><rect fill="#FFFFFF" height="87.3984" style="stroke:#181818;stroke-width:1;" width="10" x="2053.9561" y="381.7891"/></g><g><title>Base de Datos .PostgreSQL.</title><rect fill="#FFFFFF" height="29.1328" style="stroke:#181818;stroke-width:1;" width="10" x="2497.9097" y="410.9219"/></g><g><title>Base de Datos .PostgreSQL.</title><rect fill="#FFFFFF" height="29.1328" style="stroke:#181818;stroke-width:1;" width="10" x="2497.9097" y="688.1172"/></g><g><title>Base de Datos .PostgreSQL.</title><rect fill="#FFFFFF" height="29.1328" style="stroke:#181818;stroke-width:1;" width="10" x="2497.9097" y="936.1797"/></g><rect fill="none" height="75.3984" style="stroke:#000000;stroke-width:1.5;" width="834.4941" x="467.6572" y="513.3203"/><rect fill="none" height="75.3984" style="stroke:#000000;stroke-width:1.5;" width="834.4941" x="467.6572" y="761.3828"/><rect fill="none" height="75.3984" style="stroke:#000000;stroke-width:1.5;" width="968.5034" x="10" y="1223.2422"/><g class="participant-lifeline" data-entity-uid="part1" data-qualified-name="Teacher" id="part1-lifeline"><g><title>Docente</title><rect fill="#000000" fill-opacity="0.00000" height="1197.0469" width="8" x="48.3159" y="118.5938"/><line style="stroke:#181818;stroke-width:0.5;stroke-dasharray:5,5;" x1="52" x2="52" y1="118.5938" y2="1315.6406"/></g></g><g class="participant-lifeline" data-entity-uid="part2" data-qualified-name="FE" id="part2-lifeline"><g><title>Frontend .React.</title><rect fill="#000000" fill-opacity="0.00000" height="1197.0469" width="8" x="539.9521" y="118.5938"/><line style="stroke:#181818;stroke-width:0.5;stroke-dasharray:5,5;" x1="543.6572" x2="543.6572" y1="118.5938" y2="1315.6406"/></g></g><g class="participant-lifeline" data-entity-uid="part3" data-qualified-name="Controller" id="part3-lifeline"><g><title>PreguntasController</title><rect fill="#000000" fill-opacity="0.00000" height="1197.0469" width="8" x="887.5137" y="118.5938"/><line style="stroke:#181818;stroke-width:0.5;stroke-dasharray:5,5;" x1="890.5239" x2="890.5239" y1="118.5938" y2="1315.6406"/></g></g><g class="participant-lifeline" data-entity-uid="part4" data-qualified-name="Service" id="part4-lifeline"><g><title>PreguntaService</title><rect fill="#000000" fill-opacity="0.00000" height="1197.0469" width="8" x="1223.5244" y="118.5938"/><line style="stroke:#181818;stroke-width:0.5;stroke-dasharray:5,5;" x1="1226.8975" x2="1226.8975" y1="118.5938" y2="1315.6406"/></g></g><g class="participant-lifeline" data-entity-uid="part5" data-qualified-name="Repo" id="part5-lifeline"><g><title>PreguntaRepository</title><rect fill="#000000" fill-opacity="0.00000" height="1197.0469" width="8" x="1723.8315" y="118.5938"/><line style="stroke:#181818;stroke-width:0.5;stroke-dasharray:5,5;" x1="1727.5391" x2="1727.5391" y1="118.5938" y2="1315.6406"/></g></g><g class="participant-lifeline" data-entity-uid="part6" data-qualified-name="AsignaturaService" id="part6-lifeline"><g><title>AsignaturaService</title><rect fill="#000000" fill-opacity="0.00000" height="1197.0469" width="8" x="1880.8931" y="118.5938"/><line style="stroke:#181818;stroke-width:0.5;stroke-dasharray:5,5;" x1="1884.124" x2="1884.124" y1="118.5938" y2="1315.6406"/></g></g><g class="participant-lifeline" data-entity-uid="part7" data-qualified-name="AsignaturaRepo" id="part7-lifeline"><g><title>AsignaturaRepository</title><rect fill="#000000" fill-opacity="0.00000" height="1197.0469" width="8" x="2054.9561" y="118.5938"/><line style="stroke:#181818;stroke-width:0.5;stroke-dasharray:5,5;" x1="2058.5215" x2="2058.5215" y1="118.5938" y2="1315.6406"/></g></g><g class="participant-lifeline" data-entity-uid="part8" data-qualified-name="DB" id="part8-lifeline"><g><title>Base de Datos .PostgreSQL.</title><rect fill="#000000" fill-opacity="0.00000" height="1197.0469" width="8" x="2498.9097" y="118.5938"/><line style="stroke:#181818;stroke-width:0.5;stroke-dasharray:5,5;" x1="2502.2466" x2="2502.2466" y1="118.5938" y2="1315.6406"/></g></g><g class="participant participant-head" data-entity-uid="part1" data-qualified-name="Teacher" id="part1-head"><text fill="#000000" font-family="sans-serif" font-size="14" lengthAdjust="spacing" textLength="58.6318" x="20" y="115.292">Docente</text><ellipse cx="52.3159" cy="50.7969" fill="#E2E2F0" rx="8" ry="8" style="stroke:#181818;stroke-width:0.5;"/><path d="M52.3159,58.7969 L52.3159,85.7969 M39.3159,66.7969 L65.3159,66.7969 M52.3159,85.7969 L39.3159,100.7969 M52.3159,85.7969 L65.3159,100.7969" fill="none" style="stroke:#181818;stroke-width:0.5;"/></g><g class="participant participant-tail" data-entity-uid="part1" data-qualified-name="Teacher" id="part1-tail"><text fill="#000000" font-family="sans-serif" font-size="14" lengthAdjust="spacing" textLength="58.6318" x="20" y="1327.6357">Docente</text><ellipse cx="52.3159" cy="1339.4375" fill="#E2E2F0" rx="8" ry="8" style="stroke:#181818;stroke-width:0.5;"/><path d="M52.3159,1347.4375 L52.3159,1374.4375 M39.3159,1355.4375 L65.3159,1355.4375 M52.3159,1374.4375 L39.3159,1389.4375 M52.3159,1374.4375 L65.3159,1389.4375" fill="none" style="stroke:#181818;stroke-width:0.5;"/></g><g class="participant participant-head" data-entity-uid="part2" data-qualified-name="FE" id="part2-head"><rect fill="#E2E2F0" height="30.2969" rx="2.5" ry="2.5" style="stroke:#181818;stroke-width:0.5;" width="132.5898" x="477.6572" y="87.2969"/><text fill="#000000" font-family="sans-serif" font-size="14" lengthAdjust="spacing" textLength="118.5898" x="484.6572" y="107.292">Frontend (React)</text></g><g class="participant participant-tail" data-entity-uid="part2" data-qualified-name="FE" id="part2-tail"><rect fill="#E2E2F0" height="30.2969" rx="2.5" ry="2.5" style="stroke:#181818;stroke-width:0.5;" width="132.5898" x="477.6572" y="1314.6406"/><text fill="#000000" font-family="sans-serif" font-size="14" lengthAdjust="spacing" textLength="118.5898" x="484.6572" y="1334.6357">Frontend (React)</text></g><g class="participant participant-head" data-entity-uid="part3" data-qualified-name="Controller" id="part3-head"><rect fill="#E2E2F0" height="30.2969" rx="2.5" ry="2.5" style="stroke:#181818;stroke-width:0.5;" width="153.9795" x="814.5239" y="87.2969"/><text fill="#000000" font-family="sans-serif" font-size="14" lengthAdjust="spacing" textLength="139.9795" x="821.5239" y="107.292">PreguntasController</text></g><g class="participant participant-tail" data-entity-uid="part3" data-qualified-name="Controller" id="part3-tail"><rect fill="#E2E2F0" height="30.2969" rx="2.5" ry="2.5" style="stroke:#181818;stroke-width:0.5;" width="153.9795" x="814.5239" y="1314.6406"/><text fill="#000000" font-family="sans-serif" font-size="14" lengthAdjust="spacing" textLength="139.9795" x="821.5239" y="1334.6357">PreguntasController</text></g><g class="participant participant-head" data-entity-uid="part4" data-qualified-name="Service" id="part4-head"><rect fill="#E2E2F0" height="30.2969" rx="2.5" ry="2.5" style="stroke:#181818;stroke-width:0.5;" width="129.2539" x="1162.8975" y="87.2969"/><text fill="#000000" font-family="sans-serif" font-size="14" lengthAdjust="spacing" textLength="115.2539" x="1169.8975" y="107.292">PreguntaService</text></g><g class="participant participant-tail" data-entity-uid="part4" data-qualified-name="Service" id="part4-tail"><rect fill="#E2E2F0" height="30.2969" rx="2.5" ry="2.5" style="stroke:#181818;stroke-width:0.5;" width="129.2539" x="1162.8975" y="1314.6406"/><text fill="#000000" font-family="sans-serif" font-size="14" lengthAdjust="spacing" textLength="115.2539" x="1169.8975" y="1334.6357">PreguntaService</text></g><g class="participant participant-head" data-entity-uid="part5" data-qualified-name="Repo" id="part5-head"><rect fill="#E2E2F0" height="30.2969" rx="2.5" ry="2.5" style="stroke:#181818;stroke-width:0.5;" width="152.585" x="1651.5391" y="87.2969"/><text fill="#000000" font-family="sans-serif" font-size="14" lengthAdjust="spacing" textLength="138.585" x="1658.5391" y="107.292">PreguntaRepository</text></g><g class="participant participant-tail" data-entity-uid="part5" data-qualified-name="Repo" id="part5-tail"><rect fill="#E2E2F0" height="30.2969" rx="2.5" ry="2.5" style="stroke:#181818;stroke-width:0.5;" width="152.585" x="1651.5391" y="1314.6406"/><text fill="#000000" font-family="sans-serif" font-size="14" lengthAdjust="spacing" textLength="138.585" x="1658.5391" y="1334.6357">PreguntaRepository</text></g><g class="participant participant-head" data-entity-uid="part6" data-qualified-name="AsignaturaService" id="part6-head"><rect fill="#E2E2F0" height="30.2969" rx="2.5" ry="2.5" style="stroke:#181818;stroke-width:0.5;" width="141.5381" x="1814.124" y="87.2969"/><text fill="#000000" font-family="sans-serif" font-size="14" lengthAdjust="spacing" textLength="127.5381" x="1821.124" y="107.292">AsignaturaService</text></g><g class="participant participant-tail" data-entity-uid="part6" data-qualified-name="AsignaturaService" id="part6-tail"><rect fill="#E2E2F0" height="30.2969" rx="2.5" ry="2.5" style="stroke:#181818;stroke-width:0.5;" width="141.5381" x="1814.124" y="1314.6406"/><text fill="#000000" font-family="sans-serif" font-size="14" lengthAdjust="spacing" textLength="127.5381" x="1821.124" y="1334.6357">AsignaturaService</text></g><g class="participant participant-head" data-entity-uid="part7" data-qualified-name="AsignaturaRepo" id="part7-head"><rect fill="#E2E2F0" height="30.2969" rx="2.5" ry="2.5" style="stroke:#181818;stroke-width:0.5;" width="164.8691" x="1976.5215" y="87.2969"/><text fill="#000000" font-family="sans-serif" font-size="14" lengthAdjust="spacing" textLength="150.8691" x="1983.5215" y="107.292">AsignaturaRepository</text></g><g class="participant participant-tail" data-entity-uid="part7" data-qualified-name="AsignaturaRepo" id="part7-tail"><rect fill="#E2E2F0" height="30.2969" rx="2.5" ry="2.5" style="stroke:#181818;stroke-width:0.5;" width="164.8691" x="1976.5215" y="1314.6406"/><text fill="#000000" font-family="sans-serif" font-size="14" lengthAdjust="spacing" textLength="150.8691" x="1983.5215" y="1334.6357">AsignaturaRepository</text></g><g class="participant participant-head" data-entity-uid="part8" data-qualified-name="DB" id="part8-head"><text fill="#000000" font-family="sans-serif" font-size="14" lengthAdjust="spacing" textLength="197.3262" x="2401.2466" y="115.292">Base de Datos (PostgreSQL)</text><path d="M2484.9097,66.2969 C2484.9097,56.2969 2502.9097,56.2969 2502.9097,56.2969 C2502.9097,56.2969 2520.9097,56.2969 2520.9097,66.2969 L2520.9097,92.2969 C2520.9097,102.2969 2502.9097,102.2969 2502.9097,102.2969 C2502.9097,102.2969 2484.9097,102.2969 2484.9097,92.2969 L2484.9097,66.2969" fill="#E2E2F0" style="stroke:#181818;stroke-width:0.5;"/><path d="M2484.9097,66.2969 C2484.9097,76.2969 2502.9097,76.2969 2502.9097,76.2969 C2502.9097,76.2969 2520.9097,76.2969 2520.9097,66.2969" fill="none" style="stroke:#181818;stroke-width:0.5;"/></g><g class="participant participant-tail" data-entity-uid="part8" data-qualified-name="DB" id="part8-tail"><text fill="#000000" font-family="sans-serif" font-size="14" lengthAdjust="spacing" textLength="197.3262" x="2401.2466" y="1327.6357">Base de Datos (PostgreSQL)</text><path d="M2484.9097,1340.9375 C2484.9097,1330.9375 2502.9097,1330.9375 2502.9097,1330.9375 C2502.9097,1330.9375 2520.9097,1330.9375 2520.9097,1340.9375 L2520.9097,1366.9375 C2520.9097,1376.9375 2502.9097,1376.9375 2502.9097,1376.9375 C2502.9097,1376.9375 2484.9097,1376.9375 2484.9097,1366.9375 L2484.9097,1340.9375" fill="#E2E2F0" style="stroke:#181818;stroke-width:0.5;"/><path d="M2484.9097,1340.9375 C2484.9097,1350.9375 2502.9097,1350.9375 2502.9097,1350.9375 C2502.9097,1350.9375 2520.9097,1350.9375 2520.9097,1340.9375" fill="none" style="stroke:#181818;stroke-width:0.5;"/></g><g><title>Frontend .React.</title><rect fill="#FFFFFF" height="1058.5156" style="stroke:#181818;stroke-width:1;" width="10" x="538.9521" y="149.7266"/></g><g><title>PreguntasController</title><rect fill="#FFFFFF" height="800.4531" style="stroke:#181818;stroke-width:1;" width="10" x="886.5137" y="294.3906"/></g><g><title>PreguntaService</title><rect fill="#FFFFFF" height="742.1875" style="stroke:#181818;stroke-width:1;" width="10" x="1222.5244" y="323.5234"/></g><g><title>PreguntaRepository</title><rect fill="#FFFFFF" height="87.3984" style="stroke:#181818;stroke-width:1;" width="10" x="1722.8315" y="658.9844"/></g><g><title>PreguntaRepository</title><rect fill="#FFFFFF" height="87.3984" style="stroke:#181818;stroke-width:1;" width="10" x="1722.8315" y="907.0469"/></g><g><title>AsignaturaService</title><rect fill="#FFFFFF" height="145.6641" style="stroke:#181818;stroke-width:1;" width="10" x="1879.8931" y="352.6563"/></g><g><title>AsignaturaRepository</title><rect fill="#FFFFFF" height="87.3984" style="stroke:#181818;stroke-width:1;" width="10" x="2053.9561" y="381.7891"/></g><g><title>Base de Datos .PostgreSQL.</title><rect fill="#FFFFFF" height="29.1328" style="stroke:#181818;stroke-width:1;" width="10" x="2497.9097" y="410.9219"/></g><g><title>Base de Datos .PostgreSQL.</title><rect fill="#FFFFFF" height="29.1328" style="stroke:#181818;stroke-width:1;" width="10" x="2497.9097" y="688.1172"/></g><g><title>Base de Datos .PostgreSQL.</title><rect fill="#FFFFFF" height="29.1328" style="stroke:#181818;stroke-width:1;" width="10" x="2497.9097" y="936.1797"/></g><g class="message" data-entity-1="part1" data-entity-2="part2" id="msg1"><polygon fill="#181818" points="526.9521,145.7266,536.9521,149.7266,526.9521,153.7266,530.9521,149.7266" style="stroke:#181818;stroke-width:1;"/><line style="stroke:#181818;stroke-width:1;" x1="52.3159" x2="532.9521" y1="149.7266" y2="149.7266"/><text fill="#000000" font-family="sans-serif" font-size="13" lengthAdjust="spacing" textLength="164.6392" x="59.3159" y="144.6606">Clic en "Nueva Pregunta"</text></g><g class="message" data-entity-1="part2" data-entity-2="part1" id="msg2"><polygon fill="#181818" points="63.3159,174.8594,53.3159,178.8594,63.3159,182.8594,59.3159,178.8594" style="stroke:#181818;stroke-width:1;"/><line style="stroke:#181818;stroke-width:1;stroke-dasharray:2,2;" x1="57.3159" x2="537.9521" y1="178.8594" y2="178.8594"/><text fill="#000000" font-family="sans-serif" font-size="13" lengthAdjust="spacing" textLength="233.9619" x="69.3159" y="173.7935">Mostrar Formulario (datos m&#237;nimos)</text></g><g class="message" data-entity-1="part1" data-entity-2="part2" id="msg3"><polygon fill="#181818" points="526.9521,203.9922,536.9521,207.9922,526.9521,211.9922,530.9521,207.9922" style="stroke:#181818;stroke-width:1;"/><line style="stroke:#181818;stroke-width:1;" x1="52.3159" x2="532.9521" y1="207.9922" y2="207.9922"/><text fill="#000000" font-family="sans-serif" font-size="13" lengthAdjust="spacing" textLength="462.6362" x="59.3159" y="202.9263">Selecciona asignatura, ingresa enunciado, selecciona tema y dificultad</text></g><g class="message" data-entity-1="part2" data-entity-2="part2" id="msg4"><line style="stroke:#181818;stroke-width:1;" x1="548.9521" x2="590.9521" y1="237.125" y2="237.125"/><line style="stroke:#181818;stroke-width:1;" x1="590.9521" x2="590.9521" y1="237.125" y2="250.125"/><line style="stroke:#181818;stroke-width:1;" x1="549.9521" x2="590.9521" y1="250.125" y2="250.125"/><polygon fill="#181818" points="559.9521,246.125,549.9521,250.125,559.9521,254.125,555.9521,250.125" style="stroke:#181818;stroke-width:1;"/><text fill="#000000" font-family="sans-serif" font-size="13" lengthAdjust="spacing" textLength="198.3516" x="555.9521" y="232.0591">Validar formulario (client-side)</text></g><g class="message" data-entity-1="part2" data-entity-2="part3" id="msg5"><polygon fill="#181818" points="874.5137,290.3906,884.5137,294.3906,874.5137,298.3906,878.5137,294.3906" style="stroke:#181818;stroke-width:1;"/><line style="stroke:#181818;stroke-width:1;" x1="548.9521" x2="880.5137" y1="294.3906" y2="294.3906"/><text fill="#000000" font-family="sans-serif" font-size="13" lengthAdjust="spacing" textLength="314.2407" x="555.9521" y="274.1919">POST /api/preguntas (PreguntaCreateDTO JSON)</text><text fill="#000000" font-family="sans-serif" font-size="13" lengthAdjust="spacing" textLength="267.8774" x="555.9521" y="289.3247">(Header: Authorization: Bearer &lt;token&gt;)</text></g><g class="message" data-entity-1="part3" data-entity-2="part4" id="msg6"><polygon fill="#181818" points="1210.5244,319.5234,1220.5244,323.5234,1210.5244,327.5234,1214.5244,323.5234" style="stroke:#181818;stroke-width:1;"/><line style="stroke:#181818;stroke-width:1;" x1="896.5137" x2="1216.5244" y1="323.5234" y2="323.5234"/><text fill="#000000" font-family="sans-serif" font-size="13" lengthAdjust="spacing" textLength="307.0107" x="903.5137" y="318.4575">crearPregunta(preguntaCreateDTO, docenteId)</text></g><g class="message" data-entity-1="part4" data-entity-2="part6" id="msg7"><polygon fill="#181818" points="1867.8931,348.6563,1877.8931,352.6563,1867.8931,356.6563,1871.8931,352.6563" style="stroke:#181818;stroke-width:1;"/><line style="stroke:#181818;stroke-width:1;" x1="1232.5244" x2="1873.8931" y1="352.6563" y2="352.6563"/><text fill="#000000" font-family="sans-serif" font-size="13" lengthAdjust="spacing" textLength="246.1748" x="1239.5244" y="347.5903">obtenerAsignaturaPorId(asignaturaId)</text></g><g class="message" data-entity-1="part6" data-entity-2="part7" id="msg8"><polygon fill="#181818" points="2041.9561,377.7891,2051.9561,381.7891,2041.9561,385.7891,2045.9561,381.7891" style="stroke:#181818;stroke-width:1;"/><line style="stroke:#181818;stroke-width:1;" x1="1889.8931" x2="2047.9561" y1="381.7891" y2="381.7891"/><text fill="#000000" font-family="sans-serif" font-size="13" lengthAdjust="spacing" textLength="145.063" x="1896.8931" y="376.7231">findById(asignaturaId)</text></g><g class="message" data-entity-1="part7" data-entity-2="part8" id="msg9"><polygon fill="#181818" points="2485.9097,406.9219,2495.9097,410.9219,2485.9097,414.9219,2489.9097,410.9219" style="stroke:#181818;stroke-width:1;"/><line style="stroke:#181818;stroke-width:1;" x1="2063.9561" x2="2491.9097" y1="410.9219" y2="410.9219"/><text fill="#000000" font-family="sans-serif" font-size="13" lengthAdjust="spacing" textLength="276.3008" x="2070.9561" y="405.856">SELECT * FROM asignaturas WHERE id = ?</text></g><g class="message" data-entity-1="part8" data-entity-2="part7" id="msg10"><polygon fill="#181818" points="2074.9561,436.0547,2064.9561,440.0547,2074.9561,444.0547,2070.9561,440.0547" style="stroke:#181818;stroke-width:1;"/><line style="stroke:#181818;stroke-width:1;stroke-dasharray:2,2;" x1="2068.9561" x2="2501.9097" y1="440.0547" y2="440.0547"/><text fill="#000000" font-family="sans-serif" font-size="13" lengthAdjust="spacing" textLength="216.5947" x="2080.9561" y="434.9888">Asignatura (o empty si no existe)</text></g><g class="message" data-entity-1="part7" data-entity-2="part6" id="msg11"><polygon fill="#181818" points="1900.8931,465.1875,1890.8931,469.1875,1900.8931,473.1875,1896.8931,469.1875" style="stroke:#181818;stroke-width:1;"/><line style="stroke:#181818;stroke-width:1;stroke-dasharray:2,2;" x1="1894.8931" x2="2057.9561" y1="469.1875" y2="469.1875"/><text fill="#000000" font-family="sans-serif" font-size="13" lengthAdjust="spacing" textLength="70.3828" x="1906.8931" y="464.1216">Asignatura</text></g><g class="message" data-entity-1="part6" data-entity-2="part4" id="msg12"><polygon fill="#181818" points="1243.5244,494.3203,1233.5244,498.3203,1243.5244,502.3203,1239.5244,498.3203" style="stroke:#181818;stroke-width:1;"/><line style="stroke:#181818;stroke-width:1;" x1="1237.5244" x2="1883.8931" y1="498.3203" y2="498.3203"/><text fill="#000000" font-family="sans-serif" font-size="13" lengthAdjust="spacing" textLength="70.3828" x="1249.5244" y="493.2544">Asignatura</text></g><path d="M467.6572,513.3203 L532.1001,513.3203 L532.1001,520.4531 L522.1001,530.4531 L467.6572,530.4531 L467.6572,513.3203" fill="#EEEEEE" style="stroke:#000000;stroke-width:1.5;"/><rect fill="none" height="75.3984" style="stroke:#000000;stroke-width:1.5;" width="834.4941" x="467.6572" y="513.3203"/><text fill="#000000" font-family="sans-serif" font-size="13" font-weight="bold" lengthAdjust="spacing" textLength="19.4429" x="482.6572" y="526.3872">alt</text><text fill="#000000" font-family="sans-serif" font-size="11" font-weight="bold" lengthAdjust="spacing" textLength="138.5903" x="547.1001" y="525.5308">[Asignatura no existe]</text><g class="message" data-entity-1="part4" data-entity-2="part3" id="msg13"><polygon fill="#181818" points="907.5137,547.5859,897.5137,551.5859,907.5137,555.5859,903.5137,551.5859" style="stroke:#181818;stroke-width:1;"/><line style="stroke:#181818;stroke-width:1;stroke-dasharray:2,2;" x1="901.5137" x2="1221.5244" y1="551.5859" y2="551.5859"/><text fill="#000000" font-family="sans-serif" font-size="13" lengthAdjust="spacing" textLength="280.0713" x="913.5137" y="546.52">throw new AsignaturaNotFoundException()</text></g><g class="message" data-entity-1="part3" data-entity-2="part2" id="msg14"><polygon fill="#181818" points="559.9521,576.7188,549.9521,580.7188,559.9521,584.7188,555.9521,580.7188" style="stroke:#181818;stroke-width:1;"/><line style="stroke:#181818;stroke-width:1;stroke-dasharray:2,2;" x1="553.9521" x2="885.5137" y1="580.7188" y2="580.7188"/><text fill="#000000" font-family="sans-serif" font-size="13" lengthAdjust="spacing" textLength="96.0146" x="565.9521" y="575.6528">404 Not Found</text></g><g class="message" data-entity-1="part4" data-entity-2="part4" id="msg15"><line style="stroke:#181818;stroke-width:1;" x1="1232.5244" x2="1274.5244" y1="616.8516" y2="616.8516"/><line style="stroke:#181818;stroke-width:1;" x1="1274.5244" x2="1274.5244" y1="616.8516" y2="629.8516"/><line style="stroke:#181818;stroke-width:1;" x1="1233.5244" x2="1274.5244" y1="629.8516" y2="629.8516"/><polygon fill="#181818" points="1243.5244,625.8516,1233.5244,629.8516,1243.5244,633.8516,1239.5244,629.8516" style="stroke:#181818;stroke-width:1;"/><text fill="#000000" font-family="sans-serif" font-size="13" lengthAdjust="spacing" textLength="279.6841" x="1239.5244" y="611.7856">Verificar unicidad enunciado en asignatura</text></g><g class="message" data-entity-1="part4" data-entity-2="part5" id="msg16"><polygon fill="#181818" points="1710.8315,654.9844,1720.8315,658.9844,1710.8315,662.9844,1714.8315,658.9844" style="stroke:#181818;stroke-width:1;"/><line style="stroke:#181818;stroke-width:1;" x1="1232.5244" x2="1716.8315" y1="658.9844" y2="658.9844"/><text fill="#000000" font-family="sans-serif" font-size="13" lengthAdjust="spacing" textLength="471.3071" x="1239.5244" y="653.9185">existsByAsignaturaIdAndEnunciadoIgnoreCase(asignaturaId, enunciado)</text></g><g class="message" data-entity-1="part5" data-entity-2="part8" id="msg17"><polygon fill="#181818" points="2485.9097,684.1172,2495.9097,688.1172,2485.9097,692.1172,2489.9097,688.1172" style="stroke:#181818;stroke-width:1;"/><line style="stroke:#181818;stroke-width:1;" x1="1732.8315" x2="2491.9097" y1="688.1172" y2="688.1172"/><text fill="#000000" font-family="sans-serif" font-size="13" lengthAdjust="spacing" textLength="644.8584" x="1739.8315" y="683.0513">SELECT COUNT(*) FROM preguntas WHERE asignatura_id = ? AND LOWER(enunciado) = LOWER(?)</text></g><g class="message" data-entity-1="part8" data-entity-2="part5" id="msg18"><polygon fill="#181818" points="1743.8315,713.25,1733.8315,717.25,1743.8315,721.25,1739.8315,717.25" style="stroke:#181818;stroke-width:1;"/><line style="stroke:#181818;stroke-width:1;stroke-dasharray:2,2;" x1="1737.8315" x2="2501.9097" y1="717.25" y2="717.25"/><text fill="#000000" font-family="sans-serif" font-size="13" lengthAdjust="spacing" textLength="137.833" x="1749.8315" y="712.1841">boolean (existe o no)</text></g><g class="message" data-entity-1="part5" data-entity-2="part4" id="msg19"><polygon fill="#181818" points="1243.5244,742.3828,1233.5244,746.3828,1243.5244,750.3828,1239.5244,746.3828" style="stroke:#181818;stroke-width:1;"/><line style="stroke:#181818;stroke-width:1;stroke-dasharray:2,2;" x1="1237.5244" x2="1726.8315" y1="746.3828" y2="746.3828"/><text fill="#000000" font-family="sans-serif" font-size="13" lengthAdjust="spacing" textLength="51.9746" x="1249.5244" y="741.3169">boolean</text></g><path d="M467.6572,761.3828 L532.1001,761.3828 L532.1001,768.5156 L522.1001,778.5156 L467.6572,778.5156 L467.6572,761.3828" fill="#EEEEEE" style="stroke:#000000;stroke-width:1.5;"/><rect fill="none" height="75.3984" style="stroke:#000000;stroke-width:1.5;" width="834.4941" x="467.6572" y="761.3828"/><text fill="#000000" font-family="sans-serif" font-size="13" font-weight="bold" lengthAdjust="spacing" textLength="19.4429" x="482.6572" y="774.4497">alt</text><text fill="#000000" font-family="sans-serif" font-size="11" font-weight="bold" lengthAdjust="spacing" textLength="138.5313" x="547.1001" y="773.5933">[Enunciado duplicado]</text><g class="message" data-entity-1="part4" data-entity-2="part3" id="msg20"><polygon fill="#181818" points="907.5137,795.6484,897.5137,799.6484,907.5137,803.6484,903.5137,799.6484" style="stroke:#181818;stroke-width:1;"/><line style="stroke:#181818;stroke-width:1;stroke-dasharray:2,2;" x1="901.5137" x2="1221.5244" y1="799.6484" y2="799.6484"/><text fill="#000000" font-family="sans-serif" font-size="13" lengthAdjust="spacing" textLength="284.8003" x="913.5137" y="794.5825">throw new DuplicatedEnunciadoException()</text></g><g class="message" data-entity-1="part3" data-entity-2="part2" id="msg21"><polygon fill="#181818" points="559.9521,824.7813,549.9521,828.7813,559.9521,832.7813,555.9521,828.7813" style="stroke:#181818;stroke-width:1;"/><line style="stroke:#181818;stroke-width:1;stroke-dasharray:2,2;" x1="553.9521" x2="885.5137" y1="828.7813" y2="828.7813"/><text fill="#000000" font-family="sans-serif" font-size="13" lengthAdjust="spacing" textLength="78.2603" x="565.9521" y="823.7153">409 Conflict</text></g><g class="message" data-entity-1="part4" data-entity-2="part4" id="msg22"><line style="stroke:#181818;stroke-width:1;" x1="1232.5244" x2="1274.5244" y1="864.9141" y2="864.9141"/><line style="stroke:#181818;stroke-width:1;" x1="1274.5244" x2="1274.5244" y1="864.9141" y2="877.9141"/><line style="stroke:#181818;stroke-width:1;" x1="1233.5244" x2="1274.5244" y1="877.9141" y2="877.9141"/><polygon fill="#181818" points="1243.5244,873.9141,1233.5244,877.9141,1243.5244,881.9141,1239.5244,877.9141" style="stroke:#181818;stroke-width:1;"/><text fill="#000000" font-family="sans-serif" font-size="13" lengthAdjust="spacing" textLength="267.5918" x="1239.5244" y="859.8481">Mapear DTO a Entidad (habilitada=false)</text></g><g class="message" data-entity-1="part4" data-entity-2="part5" id="msg23"><polygon fill="#181818" points="1710.8315,903.0469,1720.8315,907.0469,1710.8315,911.0469,1714.8315,907.0469" style="stroke:#181818;stroke-width:1;"/><line style="stroke:#181818;stroke-width:1;" x1="1232.5244" x2="1716.8315" y1="907.0469" y2="907.0469"/><text fill="#000000" font-family="sans-serif" font-size="13" lengthAdjust="spacing" textLength="99.9629" x="1239.5244" y="901.981">save(pregunta)</text></g><g class="message" data-entity-1="part5" data-entity-2="part8" id="msg24"><polygon fill="#181818" points="2485.9097,932.1797,2495.9097,936.1797,2485.9097,940.1797,2489.9097,936.1797" style="stroke:#181818;stroke-width:1;"/><line style="stroke:#181818;stroke-width:1;" x1="1732.8315" x2="2491.9097" y1="936.1797" y2="936.1797"/><text fill="#000000" font-family="sans-serif" font-size="13" lengthAdjust="spacing" textLength="746.0781" x="1739.8315" y="931.1138">INSERT INTO preguntas (asignatura_id, docente_id, enunciado, tema, dificultad, habilitada) VALUES (?, ?, ?, ?, ?, ?)</text></g><g class="message" data-entity-1="part8" data-entity-2="part5" id="msg25"><polygon fill="#181818" points="1743.8315,961.3125,1733.8315,965.3125,1743.8315,969.3125,1739.8315,965.3125" style="stroke:#181818;stroke-width:1;"/><line style="stroke:#181818;stroke-width:1;stroke-dasharray:2,2;" x1="1737.8315" x2="2501.9097" y1="965.3125" y2="965.3125"/><text fill="#000000" font-family="sans-serif" font-size="13" lengthAdjust="spacing" textLength="180.7051" x="1749.8315" y="960.2466">Pregunta (con ID generado)</text></g><g class="message" data-entity-1="part5" data-entity-2="part4" id="msg26"><polygon fill="#181818" points="1243.5244,990.4453,1233.5244,994.4453,1243.5244,998.4453,1239.5244,994.4453" style="stroke:#181818;stroke-width:1;"/><line style="stroke:#181818;stroke-width:1;stroke-dasharray:2,2;" x1="1237.5244" x2="1726.8315" y1="994.4453" y2="994.4453"/><text fill="#000000" font-family="sans-serif" font-size="13" lengthAdjust="spacing" textLength="58.9761" x="1249.5244" y="989.3794">Pregunta</text></g><g class="message" data-entity-1="part4" data-entity-2="part4" id="msg27"><line style="stroke:#181818;stroke-width:1;" x1="1232.5244" x2="1274.5244" y1="1023.5781" y2="1023.5781"/><line style="stroke:#181818;stroke-width:1;" x1="1274.5244" x2="1274.5244" y1="1023.5781" y2="1036.5781"/><line style="stroke:#181818;stroke-width:1;" x1="1233.5244" x2="1274.5244" y1="1036.5781" y2="1036.5781"/><polygon fill="#181818" points="1243.5244,1032.5781,1233.5244,1036.5781,1243.5244,1040.5781,1239.5244,1036.5781" style="stroke:#181818;stroke-width:1;"/><text fill="#000000" font-family="sans-serif" font-size="13" lengthAdjust="spacing" textLength="205.8989" x="1239.5244" y="1018.5122">Mapear Entidad a PreguntaDTO</text></g><g class="message" data-entity-1="part4" data-entity-2="part3" id="msg28"><polygon fill="#181818" points="907.5137,1061.7109,897.5137,1065.7109,907.5137,1069.7109,903.5137,1065.7109" style="stroke:#181818;stroke-width:1;"/><line style="stroke:#181818;stroke-width:1;stroke-dasharray:2,2;" x1="901.5137" x2="1226.5244" y1="1065.7109" y2="1065.7109"/><text fill="#000000" font-family="sans-serif" font-size="13" lengthAdjust="spacing" textLength="182.1143" x="913.5137" y="1060.645">PreguntaDTO (201 Created)</text></g><g class="message" data-entity-1="part3" data-entity-2="part2" id="msg29"><polygon fill="#181818" points="559.9521,1090.8438,549.9521,1094.8438,559.9521,1098.8438,555.9521,1094.8438" style="stroke:#181818;stroke-width:1;"/><line style="stroke:#181818;stroke-width:1;stroke-dasharray:2,2;" x1="553.9521" x2="890.5137" y1="1094.8438" y2="1094.8438"/><text fill="#000000" font-family="sans-serif" font-size="13" lengthAdjust="spacing" textLength="218.2896" x="565.9521" y="1089.7778">201 Created (PreguntaDTO JSON)</text></g><g class="message" data-entity-1="part2" data-entity-2="part2" id="msg30"><line style="stroke:#181818;stroke-width:1;" x1="548.9521" x2="590.9521" y1="1123.9766" y2="1123.9766"/><line style="stroke:#181818;stroke-width:1;" x1="590.9521" x2="590.9521" y1="1123.9766" y2="1136.9766"/><line style="stroke:#181818;stroke-width:1;" x1="549.9521" x2="590.9521" y1="1136.9766" y2="1136.9766"/><polygon fill="#181818" points="559.9521,1132.9766,549.9521,1136.9766,559.9521,1140.9766,555.9521,1136.9766" style="stroke:#181818;stroke-width:1;"/><text fill="#000000" font-family="sans-serif" font-size="13" lengthAdjust="spacing" textLength="313.5615" x="555.9521" y="1118.9106">Mostrar Toast "Pregunta creada correctamente"</text></g><g class="message" data-entity-1="part2" data-entity-2="part2" id="msg31"><line style="stroke:#181818;stroke-width:1;" x1="548.9521" x2="590.9521" y1="1166.1094" y2="1166.1094"/><line style="stroke:#181818;stroke-width:1;" x1="590.9521" x2="590.9521" y1="1166.1094" y2="1179.1094"/><line style="stroke:#181818;stroke-width:1;" x1="549.9521" x2="590.9521" y1="1179.1094" y2="1179.1094"/><polygon fill="#181818" points="559.9521,1175.1094,549.9521,1179.1094,559.9521,1183.1094,555.9521,1179.1094" style="stroke:#181818;stroke-width:1;"/><text fill="#000000" font-family="sans-serif" font-size="13" lengthAdjust="spacing" textLength="279.6904" x="555.9521" y="1161.0435">Redirigir a editarPregunta(preguntaNueva)</text></g><g class="message" data-entity-1="part2" data-entity-2="part1" id="msg32"><polygon fill="#181818" points="63.3159,1204.2422,53.3159,1208.2422,63.3159,1212.2422,59.3159,1208.2422" style="stroke:#181818;stroke-width:1;"/><line style="stroke:#181818;stroke-width:1;stroke-dasharray:2,2;" x1="57.3159" x2="542.9521" y1="1208.2422" y2="1208.2422"/><text fill="#000000" font-family="sans-serif" font-size="13" lengthAdjust="spacing" textLength="195.5396" x="69.3159" y="1203.1763">Mostrar Formulario de Edici&#243;n</text></g><path d="M10,1223.2422 L74.4429,1223.2422 L74.4429,1230.375 L64.4429,1240.375 L10,1240.375 L10,1223.2422" fill="#EEEEEE" style="stroke:#000000;stroke-width:1.5;"/><rect fill="none" height="75.3984" style="stroke:#000000;stroke-width:1.5;" width="968.5034" x="10" y="1223.2422"/><text fill="#000000" font-family="sans-serif" font-size="13" font-weight="bold" lengthAdjust="spacing" textLength="19.4429" x="25" y="1236.3091">alt</text><text fill="#000000" font-family="sans-serif" font-size="11" font-weight="bold" lengthAdjust="spacing" textLength="105.8374" x="89.4429" y="1235.4526">[Datos Inv&#225;lidos]</text><g class="message" data-entity-1="part3" data-entity-2="part2" id="msg33"><polygon fill="#181818" points="554.9521,1257.5078,544.9521,1261.5078,554.9521,1265.5078,550.9521,1261.5078" style="stroke:#181818;stroke-width:1;"/><line style="stroke:#181818;stroke-width:1;stroke-dasharray:2,2;" x1="548.9521" x2="890.5137" y1="1261.5078" y2="1261.5078"/><text fill="#000000" font-family="sans-serif" font-size="13" lengthAdjust="spacing" textLength="232.7749" x="560.9521" y="1256.4419">400 Bad Request (validation errors)</text></g><g class="message" data-entity-1="part2" data-entity-2="part1" id="msg34"><polygon fill="#181818" points="63.3159,1286.6406,53.3159,1290.6406,63.3159,1294.6406,59.3159,1290.6406" style="stroke:#181818;stroke-width:1;"/><line style="stroke:#181818;stroke-width:1;stroke-dasharray:2,2;" x1="57.3159" x2="542.9521" y1="1290.6406" y2="1290.6406"/><text fill="#000000" font-family="sans-serif" font-size="13" lengthAdjust="spacing" textLength="191.1533" x="69.3159" y="1285.5747">Mostrar errores de validaci&#243;n</text></g><?plantuml-src ZLRDRXit4BxhAGOwhL8PSOjSAZGnzBD2LDYI8odEfK11BySoqHMv9RbAdBVf0_IKH_2BTSZLYbnfvTemjDpbp70utpS_LjWSOIBOHhCj0uwmmgn4cGa65p3Mo3JSQjoKqZ98LeKMSWCZfIpy14jacUrrElIhD7GdAaDfiGlCm9gs7b5t2gQjo4J1f8NkL2lQbnoIIjDBJjEcK7sO6PEmLdcEsik5rtRv5UgToAhJz-jsmIKMoWZo-CdBkjUcuD28ZMIsr0sR9r_FAHtPRsvqEBFidXc4xiZzKhmdp2e3oQqoTgDnzUcwYijarEdiemWN7oXC0nZd8WEKq9sNk6C7MBeE0B5Z5bqmfobSaFnUTG0tP5SJY5EbjsNEj52GS7_azlbVARRAz8xFMM6EMIQKPEH8xNqV27cDXf47fQC7LtqmGT8YqUS9k7WGMPbRnhqdbS4xbWjEFZn4FcIv8BPS6C6njnSD40_WTh5QmrjMYBT5JGYAqNxfQ6bnibx0xwl5lFU7J3uYuqvjMDf7fSLtPicf0Oo8ldIltwpw2-M7NWXKnAQmT3ximHr0vgXV7vWKnoVtWLTqd_78R4sD_TCPFE7D0DGzPG7gi7Ehz8md8TODcwV4E_dIFCVnR00FGlBHqslCUbusNvt1oOYOa5wdupMyWUboSHEHmS2NZ-ao1S7XFLm5eqJQoSZpxzYTy0w90jmMzWcC04dhRy9OuW37sConF-sH39zYzRDNYyBLOWBQRTHHPxcDXG-UTu3-3fQFQ6mVjVeA4hz6gdDbfwgKFFsMOU5uclIyZPY8-yHvT_aEI1oyV8TAPwVj2dUeNTPHWfMI2X9dFEIegnS1jrYzmiNVmOoUXX5BXkHRhJ_RIALnJBMgGQH-E27Yb0zt2t_6Yy_pTVAcLz4e97H5ec3tpufFC9nFu7hn9LqcuHJQg3vTzThuLjtcNgaScOIaWWOKmNJCh0EV3l7RQyLo_YOEyKCWW9S5rLzQlHBmIILlCGJpLOZ_wZu_aAez2_WDArnVTWMGaOVMGvuyidkH2wgyxFq3omsbr0dQXktmKCjU0cusNwNBDJteYAW0Dw0wb42_Zhg2QmNzg1Fq8RZMWxlXzUTq1SbL7nh_By0Q1f1CIPXDOEFgf-VU_s5Rgvw0-q9SwuY65akHxfn3F9A1v9VBdw7g4RpXMrr4MX2FL4A7E_Iss4ZKj49lhVlxMZ4JJJc-Vt5wAAqnisphHxD8RubSQB4Hcgv9IzlIxFoOqNlDH45ZJCgfz3p_Q6GHZIC-YQeHPoPtp__G8A3CUV9VmeW2lyI_IwJR93i_EBYC0THQQLFbJNjCtCuvNxqs6kTePRFobHBiFm00?></g></svg>