<?plantuml 1.2026.2?><svg xmlns="http://www.w3.org/2000/svg" xmlns:xlink="http://www.w3.org/1999/xlink" contentStyleType="text/css" data-diagram-type="SEQUENCE" height="975px" preserveAspectRatio="none" style="width:1720px;height:975px;background:#FFFFFF;" version="1.1" viewBox="0 0 1720 975" width="1720px" zoomAndPan="magnify"><title>Diagrama de Secuencia - Eliminar Alumno (Spring Boot + React)</title><defs/><g><text fill="#000000" font-family="sans-serif" font-size="14" font-weight="bold" lengthAdjust="spacing" textLength="507.5957" x="607.2615" y="27.9951">Diagrama de Secuencia - Eliminar Alumno (Spring Boot + React)</text><g><title>Frontend .React.</title><rect fill="#FFFFFF" height="734.9922" style="stroke:#181818;stroke-width:1;" width="10" x="386.8179" y="149.7266"/></g><g><title>AlumnosController</title><rect fill="#FFFFFF" height="428.8594" style="stroke:#181818;stroke-width:1;" width="10" x="683.6953" y="267.3906"/></g><g><title>AlumnoService</title><rect fill="#FFFFFF" height="370.5938" style="stroke:#181818;stroke-width:1;" width="10" x="914.1909" y="296.5234"/></g><g><title>AlumnoRepository</title><rect fill="#FFFFFF" height="87.3984" style="stroke:#181818;stroke-width:1;" width="10" x="1311.937" y="325.6563"/></g><g><title>AlumnoRepository</title><rect fill="#FFFFFF" height="87.3984" style="stroke:#181818;stroke-width:1;" width="10" x="1311.937" y="550.5859"/></g><g><title>Base de Datos .PostgreSQL.</title><rect fill="#FFFFFF" height="29.1328" style="stroke:#181818;stroke-width:1;" width="10" x="1596.4556" y="354.7891"/></g><g><title>Base de Datos .PostgreSQL.</title><rect fill="#FFFFFF" height="29.1328" style="stroke:#181818;stroke-width:1;" width="10" x="1596.4556" y="579.7188"/></g><rect fill="none" height="449.6641" style="stroke:#000000;stroke-width:1.5;" width="1703.1187" x="10" y="428.0547"/><g class="participant-lifeline" data-entity-uid="part1" data-qualified-name="Teacher" id="part1-lifeline"><g><title>Docente</title><rect fill="#000000" fill-opacity="0.00000" height="776.125" width="8" x="48.3159" y="118.5938"/><line style="stroke:#181818;stroke-width:0.5;stroke-dasharray:5,5;" x1="52" x2="52" y1="118.5938" y2="894.7188"/></g></g><g class="participant-lifeline" data-entity-uid="part2" data-qualified-name="FE" id="part2-lifeline"><g><title>Frontend .React.</title><rect fill="#000000" fill-opacity="0.00000" height="776.125" width="8" x="387.8179" y="118.5938"/><line style="stroke:#181818;stroke-width:0.5;stroke-dasharray:5,5;" x1="391.5229" x2="391.5229" y1="118.5938" y2="894.7188"/></g></g><g class="participant-lifeline" data-entity-uid="part3" data-qualified-name="Controller" id="part3-lifeline"><g><title>AlumnosController</title><rect fill="#000000" fill-opacity="0.00000" height="776.125" width="8" x="684.6953" y="118.5938"/><line style="stroke:#181818;stroke-width:0.5;stroke-dasharray:5,5;" x1="687.7539" x2="687.7539" y1="118.5938" y2="894.7188"/></g></g><g class="participant-lifeline" data-entity-uid="part4" data-qualified-name="Service" id="part4-lifeline"><g><title>AlumnoService</title><rect fill="#000000" fill-opacity="0.00000" height="776.125" width="8" x="915.1909" y="118.5938"/><line style="stroke:#181818;stroke-width:0.5;stroke-dasharray:5,5;" x1="918.6123" x2="918.6123" y1="118.5938" y2="894.7188"/></g></g><g class="participant-lifeline" data-entity-uid="part5" data-qualified-name="Repo" id="part5-lifeline"><g><title>AlumnoRepository</title><rect fill="#000000" fill-opacity="0.00000" height="776.125" width="8" x="1312.937" y="118.5938"/><line style="stroke:#181818;stroke-width:0.5;stroke-dasharray:5,5;" x1="1316.6929" x2="1316.6929" y1="118.5938" y2="894.7188"/></g></g><g class="participant-lifeline" data-entity-uid="part6" data-qualified-name="DB" id="part6-lifeline"><g><title>Base de Datos .PostgreSQL.</title><rect fill="#000000" fill-opacity="0.00000" height="776.125" width="8" x="1597.4556" y="118.5938"/><line style="stroke:#181818;stroke-width:0.5;stroke-dasharray:5,5;" x1="1600.7925" x2="1600.7925" y1="118.5938" y2="894.7188"/></g></g><g class="participant participant-head" data-entity-uid="part1" data-qualified-name="Teacher" id="part1-head"><text fill="#000000" font-family="sans-serif" font-size="14" lengthAdjust="spacing" textLength="58.6318" x="20" y="115.292">Docente</text><ellipse cx="52.3159" cy="50.7969" fill="#E2E2F0" rx="8" ry="8" style="stroke:#181818;stroke-width:0.5;"/><path d="M52.3159,58.7969 L52.3159,85.7969 M39.3159,66.7969 L65.3159,66.7969 M52.3159,85.7969 L39.3159,100.7969 M52.3159,85.7969 L65.3159,100.7969" fill="none" style="stroke:#181818;stroke-width:0.5;"/></g><g class="participant participant-tail" data-entity-uid="part1" data-qualified-name="Teacher" id="part1-tail"><text fill="#000000" font-family="sans-serif" font-size="14" lengthAdjust="spacing" textLength="58.6318" x="20" y="906.7139">Docente</text><ellipse cx="52.3159" cy="918.5156" fill="#E2E2F0" rx="8" ry="8" style="stroke:#181818;stroke-width:0.5;"/><path d="M52.3159,926.5156 L52.3159,953.5156 M39.3159,934.5156 L65.3159,934.5156 M52.3159,953.5156 L39.3159,968.5156 M52.3159,953.5156 L65.3159,968.5156" fill="none" style="stroke:#181818;stroke-width:0.5;"/></g><g class="participant participant-head" data-entity-uid="part2" data-qualified-name="FE" id="part2-head"><rect fill="#E2E2F0" height="30.2969" rx="2.5" ry="2.5" style="stroke:#181818;stroke-width:0.5;" width="132.5898" x="325.5229" y="87.2969"/><text fill="#000000" font-family="sans-serif" font-size="14" lengthAdjust="spacing" textLength="118.5898" x="332.5229" y="107.292">Frontend (React)</text></g><g class="participant participant-tail" data-entity-uid="part2" data-qualified-name="FE" id="part2-tail"><rect fill="#E2E2F0" height="30.2969" rx="2.5" ry="2.5" style="stroke:#181818;stroke-width:0.5;" width="132.5898" x="325.5229" y="893.7188"/><text fill="#000000" font-family="sans-serif" font-size="14" lengthAdjust="spacing" textLength="118.5898" x="332.5229" y="913.7139">Frontend (React)</text></g><g class="participant participant-head" data-entity-uid="part3" data-qualified-name="Controller" id="part3-head"><rect fill="#E2E2F0" height="30.2969" rx="2.5" ry="2.5" style="stroke:#181818;stroke-width:0.5;" width="143.8828" x="616.7539" y="87.2969"/><text fill="#000000" font-family="sans-serif" font-size="14" lengthAdjust="spacing" textLength="129.8828" x="623.7539" y="107.292">AlumnosController</text></g><g class="participant participant-tail" data-entity-uid="part3" data-qualified-name="Controller" id="part3-tail"><rect fill="#E2E2F0" height="30.2969" rx="2.5" ry="2.5" style="stroke:#181818;stroke-width:0.5;" width="143.8828" x="616.7539" y="893.7188"/><text fill="#000000" font-family="sans-serif" font-size="14" lengthAdjust="spacing" textLength="129.8828" x="623.7539" y="913.7139">AlumnosController</text></g><g class="participant participant-head" data-entity-uid="part4" data-qualified-name="Service" id="part4-head"><rect fill="#E2E2F0" height="30.2969" rx="2.5" ry="2.5" style="stroke:#181818;stroke-width:0.5;" width="119.1572" x="859.6123" y="87.2969"/><text fill="#000000" font-family="sans-serif" font-size="14" lengthAdjust="spacing" textLength="105.1572" x="866.6123" y="107.292">AlumnoService</text></g><g class="participant participant-tail" data-entity-uid="part4" data-qualified-name="Service" id="part4-tail"><rect fill="#E2E2F0" height="30.2969" rx="2.5" ry="2.5" style="stroke:#181818;stroke-width:0.5;" width="119.1572" x="859.6123" y="893.7188"/><text fill="#000000" font-family="sans-serif" font-size="14" lengthAdjust="spacing" textLength="105.1572" x="866.6123" y="913.7139">AlumnoService</text></g><g class="participant participant-head" data-entity-uid="part5" data-qualified-name="Repo" id="part5-head"><rect fill="#E2E2F0" height="30.2969" rx="2.5" ry="2.5" style="stroke:#181818;stroke-width:0.5;" width="142.4883" x="1245.6929" y="87.2969"/><text fill="#000000" font-family="sans-serif" font-size="14" lengthAdjust="spacing" textLength="128.4883" x="1252.6929" y="107.292">AlumnoRepository</text></g><g class="participant participant-tail" data-entity-uid="part5" data-qualified-name="Repo" id="part5-tail"><rect fill="#E2E2F0" height="30.2969" rx="2.5" ry="2.5" style="stroke:#181818;stroke-width:0.5;" width="142.4883" x="1245.6929" y="893.7188"/><text fill="#000000" font-family="sans-serif" font-size="14" lengthAdjust="spacing" textLength="128.4883" x="1252.6929" y="913.7139">AlumnoRepository</text></g><g class="participant participant-head" data-entity-uid="part6" data-qualified-name="DB" id="part6-head"><text fill="#000000" font-family="sans-serif" font-size="14" lengthAdjust="spacing" textLength="197.3262" x="1499.7925" y="115.292">Base de Datos (PostgreSQL)</text><path d="M1583.4556,66.2969 C1583.4556,56.2969 1601.4556,56.2969 1601.4556,56.2969 C1601.4556,56.2969 1619.4556,56.2969 1619.4556,66.2969 L1619.4556,92.2969 C1619.4556,102.2969 1601.4556,102.2969 1601.4556,102.2969 C1601.4556,102.2969 1583.4556,102.2969 1583.4556,92.2969 L1583.4556,66.2969" fill="#E2E2F0" style="stroke:#181818;stroke-width:0.5;"/><path d="M1583.4556,66.2969 C1583.4556,76.2969 1601.4556,76.2969 1601.4556,76.2969 C1601.4556,76.2969 1619.4556,76.2969 1619.4556,66.2969" fill="none" style="stroke:#181818;stroke-width:0.5;"/></g><g class="participant participant-tail" data-entity-uid="part6" data-qualified-name="DB" id="part6-tail"><text fill="#000000" font-family="sans-serif" font-size="14" lengthAdjust="spacing" textLength="197.3262" x="1499.7925" y="906.7139">Base de Datos (PostgreSQL)</text><path d="M1583.4556,920.0156 C1583.4556,910.0156 1601.4556,910.0156 1601.4556,910.0156 C1601.4556,910.0156 1619.4556,910.0156 1619.4556,920.0156 L1619.4556,946.0156 C1619.4556,956.0156 1601.4556,956.0156 1601.4556,956.0156 C1601.4556,956.0156 1583.4556,956.0156 1583.4556,946.0156 L1583.4556,920.0156" fill="#E2E2F0" style="stroke:#181818;stroke-width:0.5;"/><path d="M1583.4556,920.0156 C1583.4556,930.0156 1601.4556,930.0156 1601.4556,930.0156 C1601.4556,930.0156 1619.4556,930.0156 1619.4556,920.0156" fill="none" style="stroke:#181818;stroke-width:0.5;"/></g><g><title>Frontend .React.</title><rect fill="#FFFFFF" height="734.9922" style="stroke:#181818;stroke-width:1;" width="10" x="386.8179" y="149.7266"/></g><g><title>AlumnosController</title><rect fill="#FFFFFF" height="428.8594" style="stroke:#181818;stroke-width:1;" width="10" x="683.6953" y="267.3906"/></g><g><title>AlumnoService</title><rect fill="#FFFFFF" height="370.5938" style="stroke:#181818;stroke-width:1;" width="10" x="914.1909" y="296.5234"/></g><g><title>AlumnoRepository</title><rect fill="#FFFFFF" height="87.3984" style="stroke:#181818;stroke-width:1;" width="10" x="1311.937" y="325.6563"/></g><g><title>AlumnoRepository</title><rect fill="#FFFFFF" height="87.3984" style="stroke:#181818;stroke-width:1;" width="10" x="1311.937" y="550.5859"/></g><g><title>Base de Datos .PostgreSQL.</title><rect fill="#FFFFFF" height="29.1328" style="stroke:#181818;stroke-width:1;" width="10" x="1596.4556" y="354.7891"/></g><g><title>Base de Datos .PostgreSQL.</title><rect fill="#FFFFFF" height="29.1328" style="stroke:#181818;stroke-width:1;" width="10" x="1596.4556" y="579.7188"/></g><g class="message" data-entity-1="part1" data-entity-2="part2" id="msg1"><polygon fill="#181818" points="374.8179,145.7266,384.8179,149.7266,374.8179,153.7266,378.8179,149.7266" style="stroke:#181818;stroke-width:1;"/><line style="stroke:#181818;stroke-width:1;" x1="52.3159" x2="380.8179" y1="149.7266" y2="149.7266"/><text fill="#000000" font-family="sans-serif" font-size="13" lengthAdjust="spacing" textLength="188.208" x="59.3159" y="144.6606">Clic en "Eliminar" (alumnoId)</text></g><g class="message" data-entity-1="part2" data-entity-2="part1" id="msg2"><polygon fill="#181818" points="63.3159,189.9922,53.3159,193.9922,63.3159,197.9922,59.3159,193.9922" style="stroke:#181818;stroke-width:1;"/><line style="stroke:#181818;stroke-width:1;stroke-dasharray:2,2;" x1="57.3159" x2="385.8179" y1="193.9922" y2="193.9922"/><text fill="#000000" font-family="sans-serif" font-size="13" lengthAdjust="spacing" textLength="203.728" x="69.3159" y="173.7935">Mostrar Modal de Confirmaci&#243;n</text><text fill="#000000" font-family="sans-serif" font-size="13" lengthAdjust="spacing" textLength="122.9858" x="69.3159" y="188.9263">(datos del alumno)</text></g><g class="message" data-entity-1="part1" data-entity-2="part2" id="msg3"><polygon fill="#181818" points="374.8179,219.125,384.8179,223.125,374.8179,227.125,378.8179,223.125" style="stroke:#181818;stroke-width:1;"/><line style="stroke:#181818;stroke-width:1;" x1="52.3159" x2="380.8179" y1="223.125" y2="223.125"/><text fill="#000000" font-family="sans-serif" font-size="13" lengthAdjust="spacing" textLength="138.2202" x="59.3159" y="218.0591">Confirma eliminaci&#243;n</text></g><g class="message" data-entity-1="part2" data-entity-2="part3" id="msg4"><polygon fill="#181818" points="671.6953,263.3906,681.6953,267.3906,671.6953,271.3906,675.6953,267.3906" style="stroke:#181818;stroke-width:1;"/><line style="stroke:#181818;stroke-width:1;" x1="396.8179" x2="677.6953" y1="267.3906" y2="267.3906"/><text fill="#000000" font-family="sans-serif" font-size="13" lengthAdjust="spacing" textLength="219.686" x="403.8179" y="247.1919">DELETE /api/alumnos/{alumnoId}</text><text fill="#000000" font-family="sans-serif" font-size="13" lengthAdjust="spacing" textLength="267.8774" x="403.8179" y="262.3247">(Header: Authorization: Bearer &lt;token&gt;)</text></g><g class="message" data-entity-1="part3" data-entity-2="part4" id="msg5"><polygon fill="#181818" points="902.1909,292.5234,912.1909,296.5234,902.1909,300.5234,906.1909,296.5234" style="stroke:#181818;stroke-width:1;"/><line style="stroke:#181818;stroke-width:1;" x1="693.6953" x2="908.1909" y1="296.5234" y2="296.5234"/><text fill="#000000" font-family="sans-serif" font-size="13" lengthAdjust="spacing" textLength="173.5513" x="700.6953" y="291.4575">eliminarAlumno(alumnoId)</text></g><g class="message" data-entity-1="part4" data-entity-2="part5" id="msg6"><polygon fill="#181818" points="1299.937,321.6563,1309.937,325.6563,1299.937,329.6563,1303.937,325.6563" style="stroke:#181818;stroke-width:1;"/><line style="stroke:#181818;stroke-width:1;" x1="924.1909" x2="1305.937" y1="325.6563" y2="325.6563"/><text fill="#000000" font-family="sans-serif" font-size="13" lengthAdjust="spacing" textLength="124.2808" x="931.1909" y="320.5903">findById(alumnoId)</text></g><g class="message" data-entity-1="part5" data-entity-2="part6" id="msg7"><polygon fill="#181818" points="1584.4556,350.7891,1594.4556,354.7891,1584.4556,358.7891,1588.4556,354.7891" style="stroke:#181818;stroke-width:1;"/><line style="stroke:#181818;stroke-width:1;" x1="1321.937" x2="1590.4556" y1="354.7891" y2="354.7891"/><text fill="#000000" font-family="sans-serif" font-size="13" lengthAdjust="spacing" textLength="255.5186" x="1328.937" y="349.7231">SELECT * FROM alumnos WHERE id = ?</text></g><g class="message" data-entity-1="part6" data-entity-2="part5" id="msg8"><polygon fill="#181818" points="1332.937,379.9219,1322.937,383.9219,1332.937,387.9219,1328.937,383.9219" style="stroke:#181818;stroke-width:1;"/><line style="stroke:#181818;stroke-width:1;stroke-dasharray:2,2;" x1="1326.937" x2="1600.4556" y1="383.9219" y2="383.9219"/><text fill="#000000" font-family="sans-serif" font-size="13" lengthAdjust="spacing" textLength="126.3501" x="1338.937" y="378.856">Optional&lt;Alumno&gt;</text></g><g class="message" data-entity-1="part5" data-entity-2="part4" id="msg9"><polygon fill="#181818" points="935.1909,409.0547,925.1909,413.0547,935.1909,417.0547,931.1909,413.0547" style="stroke:#181818;stroke-width:1;"/><line style="stroke:#181818;stroke-width:1;stroke-dasharray:2,2;" x1="929.1909" x2="1315.937" y1="413.0547" y2="413.0547"/><text fill="#000000" font-family="sans-serif" font-size="13" lengthAdjust="spacing" textLength="126.3501" x="941.1909" y="407.9888">Optional&lt;Alumno&gt;</text></g><path d="M10,428.0547 L74.4429,428.0547 L74.4429,435.1875 L64.4429,445.1875 L10,445.1875 L10,428.0547" fill="#EEEEEE" style="stroke:#000000;stroke-width:1.5;"/><rect fill="none" height="449.6641" style="stroke:#000000;stroke-width:1.5;" width="1703.1187" x="10" y="428.0547"/><text fill="#000000" font-family="sans-serif" font-size="13" font-weight="bold" lengthAdjust="spacing" textLength="19.4429" x="25" y="441.1216">alt</text><text fill="#000000" font-family="sans-serif" font-size="11" font-weight="bold" lengthAdjust="spacing" textLength="98.4951" x="89.4429" y="440.2651">[Alumno Existe]</text><g class="message" data-entity-1="part4" data-entity-2="part4" id="msg10"><line style="stroke:#181818;stroke-width:1;" x1="924.1909" x2="966.1909" y1="466.3203" y2="466.3203"/><line style="stroke:#181818;stroke-width:1;" x1="966.1909" x2="966.1909" y1="466.3203" y2="479.3203"/><line style="stroke:#181818;stroke-width:1;" x1="925.1909" x2="966.1909" y1="479.3203" y2="479.3203"/><polygon fill="#181818" points="935.1909,475.3203,925.1909,479.3203,935.1909,483.3203,931.1909,479.3203" style="stroke:#181818;stroke-width:1;"/><text fill="#000000" font-family="sans-serif" font-size="13" lengthAdjust="spacing" textLength="169.1016" x="931.1909" y="461.2544">extraer docenteId del JWT</text></g><g class="message" data-entity-1="part4" data-entity-2="part4" id="msg11"><line style="stroke:#181818;stroke-width:1;" x1="924.1909" x2="966.1909" y1="508.4531" y2="508.4531"/><line style="stroke:#181818;stroke-width:1;" x1="966.1909" x2="966.1909" y1="508.4531" y2="521.4531"/><line style="stroke:#181818;stroke-width:1;" x1="925.1909" x2="966.1909" y1="521.4531" y2="521.4531"/><polygon fill="#181818" points="935.1909,517.4531,925.1909,521.4531,935.1909,525.4531,931.1909,521.4531" style="stroke:#181818;stroke-width:1;"/><text fill="#000000" font-family="sans-serif" font-size="13" lengthAdjust="spacing" textLength="363.7461" x="931.1909" y="503.3872">verificarAlumnoPerteneceADocente(alumno, docenteId)</text></g><g class="message" data-entity-1="part4" data-entity-2="part5" id="msg12"><polygon fill="#181818" points="1299.937,546.5859,1309.937,550.5859,1299.937,554.5859,1303.937,550.5859" style="stroke:#181818;stroke-width:1;"/><line style="stroke:#181818;stroke-width:1;" x1="924.1909" x2="1305.937" y1="550.5859" y2="550.5859"/><text fill="#000000" font-family="sans-serif" font-size="13" lengthAdjust="spacing" textLength="140.5562" x="931.1909" y="545.52">deleteById(alumnoId)</text></g><g class="message" data-entity-1="part5" data-entity-2="part6" id="msg13"><polygon fill="#181818" points="1584.4556,575.7188,1594.4556,579.7188,1584.4556,583.7188,1588.4556,579.7188" style="stroke:#181818;stroke-width:1;"/><line style="stroke:#181818;stroke-width:1;" x1="1321.937" x2="1590.4556" y1="579.7188" y2="579.7188"/><text fill="#000000" font-family="sans-serif" font-size="13" lengthAdjust="spacing" textLength="245.7813" x="1328.937" y="574.6528">DELETE FROM alumnos WHERE id = ?</text></g><g class="message" data-entity-1="part6" data-entity-2="part5" id="msg14"><polygon fill="#181818" points="1332.937,604.8516,1322.937,608.8516,1332.937,612.8516,1328.937,608.8516" style="stroke:#181818;stroke-width:1;"/><line style="stroke:#181818;stroke-width:1;stroke-dasharray:2,2;" x1="1326.937" x2="1600.4556" y1="608.8516" y2="608.8516"/><text fill="#000000" font-family="sans-serif" font-size="13" lengthAdjust="spacing" textLength="18.7573" x="1338.937" y="603.7856">OK</text></g><g class="message" data-entity-1="part5" data-entity-2="part4" id="msg15"><polygon fill="#181818" points="935.1909,633.9844,925.1909,637.9844,935.1909,641.9844,931.1909,637.9844" style="stroke:#181818;stroke-width:1;"/><line style="stroke:#181818;stroke-width:1;stroke-dasharray:2,2;" x1="929.1909" x2="1315.937" y1="637.9844" y2="637.9844"/><text fill="#000000" font-family="sans-serif" font-size="13" lengthAdjust="spacing" textLength="27.5107" x="941.1909" y="632.9185">void</text></g><g class="message" data-entity-1="part4" data-entity-2="part3" id="msg16"><polygon fill="#181818" points="704.6953,663.1172,694.6953,667.1172,704.6953,671.1172,700.6953,667.1172" style="stroke:#181818;stroke-width:1;"/><line style="stroke:#181818;stroke-width:1;stroke-dasharray:2,2;" x1="698.6953" x2="918.1909" y1="667.1172" y2="667.1172"/><text fill="#000000" font-family="sans-serif" font-size="13" lengthAdjust="spacing" textLength="27.5107" x="710.6953" y="662.0513">void</text></g><g class="message" data-entity-1="part3" data-entity-2="part2" id="msg17"><polygon fill="#181818" points="407.8179,692.25,397.8179,696.25,407.8179,700.25,403.8179,696.25" style="stroke:#181818;stroke-width:1;"/><line style="stroke:#181818;stroke-width:1;stroke-dasharray:2,2;" x1="401.8179" x2="687.6953" y1="696.25" y2="696.25"/><text fill="#000000" font-family="sans-serif" font-size="13" lengthAdjust="spacing" textLength="102.4575" x="413.8179" y="691.1841">204 No Content</text></g><g class="message" data-entity-1="part2" data-entity-2="part2" id="msg18"><line style="stroke:#181818;stroke-width:1;" x1="396.8179" x2="438.8179" y1="725.3828" y2="725.3828"/><line style="stroke:#181818;stroke-width:1;" x1="438.8179" x2="438.8179" y1="725.3828" y2="738.3828"/><line style="stroke:#181818;stroke-width:1;" x1="397.8179" x2="438.8179" y1="738.3828" y2="738.3828"/><polygon fill="#181818" points="407.8179,734.3828,397.8179,738.3828,407.8179,742.3828,403.8179,738.3828" style="stroke:#181818;stroke-width:1;"/><text fill="#000000" font-family="sans-serif" font-size="13" lengthAdjust="spacing" textLength="239.2939" x="403.8179" y="720.3169">Remover de la lista (actualizar vista)</text></g><g class="message" data-entity-1="part2" data-entity-2="part1" id="msg19"><polygon fill="#181818" points="63.3159,763.5156,53.3159,767.5156,63.3159,771.5156,59.3159,767.5156" style="stroke:#181818;stroke-width:1;"/><line style="stroke:#181818;stroke-width:1;stroke-dasharray:2,2;" x1="57.3159" x2="385.8179" y1="767.5156" y2="767.5156"/><text fill="#000000" font-family="sans-serif" font-size="13" lengthAdjust="spacing" textLength="310.502" x="69.3159" y="762.4497">Notificaci&#243;n "Alumno eliminado correctamente"</text></g><line style="stroke:#000000;stroke-width:1;stroke-dasharray:2,2;" x1="10" x2="1713.1187" y1="776.5156" y2="776.5156"/><text fill="#000000" font-family="sans-serif" font-size="11" font-weight="bold" lengthAdjust="spacing" textLength="290.791" x="15" y="786.7261">[Alumno No Existe O No Pertenece Al Docente]</text><g class="message" data-entity-1="part4" data-entity-2="part3" id="msg20"><polygon fill="#181818" points="699.6953,807.4531,689.6953,811.4531,699.6953,815.4531,695.6953,811.4531" style="stroke:#181818;stroke-width:1;"/><line style="stroke:#181818;stroke-width:1;stroke-dasharray:2,2;" x1="693.6953" x2="918.1909" y1="811.4531" y2="811.4531"/><text fill="#000000" font-family="sans-serif" font-size="13" lengthAdjust="spacing" textLength="206.4956" x="705.6953" y="806.3872">throw EntityNotFoundException</text></g><g class="message" data-entity-1="part3" data-entity-2="part2" id="msg21"><polygon fill="#181818" points="407.8179,836.5859,397.8179,840.5859,407.8179,844.5859,403.8179,840.5859" style="stroke:#181818;stroke-width:1;"/><line style="stroke:#181818;stroke-width:1;stroke-dasharray:2,2;" x1="401.8179" x2="687.6953" y1="840.5859" y2="840.5859"/><text fill="#000000" font-family="sans-serif" font-size="13" lengthAdjust="spacing" textLength="96.0146" x="413.8179" y="835.52">404 Not Found</text></g><g class="message" data-entity-1="part2" data-entity-2="part1" id="msg22"><polygon fill="#181818" points="63.3159,865.7188,53.3159,869.7188,63.3159,873.7188,59.3159,869.7188" style="stroke:#181818;stroke-width:1;"/><line style="stroke:#181818;stroke-width:1;stroke-dasharray:2,2;" x1="57.3159" x2="385.8179" y1="869.7188" y2="869.7188"/><text fill="#000000" font-family="sans-serif" font-size="13" lengthAdjust="spacing" textLength="250.3706" x="69.3159" y="864.6528">Mostrar Error "Alumno no encontrado"</text></g><?plantuml-src bLNDRXCn4BxlKunoIe2g2FKKbQ1kTwCM-aSIgHSkWprjBHmxyZgX1V5KF08lnlXdaqq85UImyThppJVppOpNAwy9AeNt3kS8ac1AOab6A8G3gBMQAuCEJlHoRYpqfmkdp3sKrdfu2HD2uGT5mK_he5TPGSPJ3x216Hyza2iMwBmIQe76Gs_iB9yR2Vs4Z9RZUjieKJMdREgirkIYrUPrd_MKt4g9n9pN-ymcjB2DubYVecLuBIHw_8mDGQyCJnQWGcyRwD_OnjyxcdwyI75MPL7ahE1Wn64FuLGh0MIWr-hKWpv6fdCv2Age5NeA6OvhE61GnW_XafqxrlNIIjI1bFExKswEGltwQJwPlen1IDAG70x-uCu0eCGTWP5dr15h25LzKSzgECI5EaokciFlRP0_cEcCK0R3awL_i4vzGw-i6K99w9ZjsDilP4QTR3gLs2m3QnP-s4RaakZx56bhbFy3EXHZ27VAoFBfNEu3nNA5Hp2loY5CERNJ6Ro0yUJwCklKmErPFQb1INWBxpPWhbvLnXeaekj5I1FrSGfoL4ZgsYQQRbBF0M9ag7qx9lMZQZmLmBzEXXjz7hdsh9bCyt8kOvtVtyx-YbYHKtTAj9BUaECn8a4dUUIoNAysBWUxlbBQJ4IUTXGEbjkvX9skqhc9_gxpbWlMBxnlw_qXxcshlA7PIjOgkMkyZcgTqKwRxmErNHQskwsQ9-ZDwoEuil64DTi5TzeydAJ12h09pUqgL8z08sYkDFBK2xz4pSFZO1Ls1cjGT-glh8zbZBFQNahjk4WBmZf7mkCyNgC5QRwGij5LsrLm7TRh3k1po4tmh3x-mTclK1kl_1E7CRPB8-j7GR6h_rEueoYSX-Za7tJRT_7LpeLFHiukg614GB8Cd3YxxRWSrxy1?></g></svg>