<?plantuml 1.2026.2?><svg xmlns="http://www.w3.org/2000/svg" xmlns:xlink="http://www.w3.org/1999/xlink" contentStyleType="text/css" data-diagram-type="SEQUENCE" height="1445px" preserveAspectRatio="none" style="width:2507px;height:1445px;background:#FFFFFF;" version="1.1" viewBox="0 0 2507 1445" width="2507px" zoomAndPan="magnify"><title>Diagrama de Secuencia - Exportar Configuraci&#243;n Global (Spring Boot + React)</title><defs/><g><text fill="#000000" font-family="sans-serif" font-size="14" font-weight="bold" lengthAdjust="spacing" textLength="615.959" x="947.1875" y="27.9951">Diagrama de Secuencia - Exportar Configuraci&#243;n Global (Spring Boot + React)</text><g><title>Frontend .React.</title><rect fill="#FFFFFF" height="1107.3125" style="stroke:#181818;stroke-width:1;" width="10" x="340.48" y="149.7266"/></g><g><title>ConfiguracionController</title><rect fill="#FFFFFF" height="845.9844" style="stroke:#181818;stroke-width:1;" width="10" x="662.0352" y="297.6563"/></g><g><title>ConfiguracionController</title><rect fill="#FFFFFF" height="749.4531" style="stroke:#181818;stroke-width:1;" width="10" x="667.0352" y="334.7891"/></g><g><title>ConfiguracionService</title><rect fill="#FFFFFF" height="715.3203" style="stroke:#181818;stroke-width:1;" width="10" x="958.2822" y="368.9219"/></g><g><title>GradoRepository</title><rect fill="#FFFFFF" height="87.3984" style="stroke:#181818;stroke-width:1;" width="10" x="1371.4785" y="398.0547"/></g><g><title>AsignaturaRepository</title><rect fill="#FFFFFF" height="87.3984" style="stroke:#181818;stroke-width:1;" width="10" x="1529.7671" y="514.5859"/></g><g><title>AlumnoRepository</title><rect fill="#FFFFFF" height="87.3984" style="stroke:#181818;stroke-width:1;" width="10" x="1693.4458" y="631.1172"/></g><g><title>PreguntaRepository</title><rect fill="#FFFFFF" height="87.3984" style="stroke:#181818;stroke-width:1;" width="10" x="1850.9824" y="747.6484"/></g><g><title>RespuestaRepository</title><rect fill="#FFFFFF" height="87.3984" style="stroke:#181818;stroke-width:1;" width="10" x="2018.4961" y="888.3125"/></g><g><title>Base de Datos .PostgreSQL.</title><rect fill="#FFFFFF" height="29.1328" style="stroke:#181818;stroke-width:1;" width="10" x="2384.6709" y="427.1875"/></g><g><title>Base de Datos .PostgreSQL.</title><rect fill="#FFFFFF" height="29.1328" style="stroke:#181818;stroke-width:1;" width="10" x="2384.6709" y="543.7188"/></g><g><title>Base de Datos .PostgreSQL.</title><rect fill="#FFFFFF" height="29.1328" style="stroke:#181818;stroke-width:1;" width="10" x="2384.6709" y="660.25"/></g><g><title>Base de Datos .PostgreSQL.</title><rect fill="#FFFFFF" height="29.1328" style="stroke:#181818;stroke-width:1;" width="10" x="2384.6709" y="776.7813"/></g><g><title>Base de Datos .PostgreSQL.</title><rect fill="#FFFFFF" height="29.1328" style="stroke:#181818;stroke-width:1;" width="10" x="2384.6709" y="917.4453"/></g><rect fill="none" height="133.6641" style="stroke:#000000;stroke-width:1.5;" width="1629.4985" x="871.8354" y="850.0469"/><rect fill="none" height="75.3984" style="stroke:#000000;stroke-width:1.5;" width="411.7749" x="10" y="1272.0391"/><g class="participant-lifeline" data-entity-uid="part1" data-qualified-name="Teacher" id="part1-lifeline"><g><title>Docente</title><rect fill="#000000" fill-opacity="0.00000" height="1245.8438" width="8" x="48.3159" y="118.5938"/><line style="stroke:#181818;stroke-width:0.5;stroke-dasharray:5,5;" x1="52" x2="52" y1="118.5938" y2="1364.4375"/></g></g><g class="participant-lifeline" data-entity-uid="part2" data-qualified-name="FE" id="part2-lifeline"><g><title>Frontend .React.</title><rect fill="#000000" fill-opacity="0.00000" height="1245.8438" width="8" x="341.48" y="118.5938"/><line style="stroke:#181818;stroke-width:0.5;stroke-dasharray:5,5;" x1="345.1851" x2="345.1851" y1="118.5938" y2="1364.4375"/></g></g><g class="participant-lifeline" data-entity-uid="part3" data-qualified-name="Controller" id="part3-lifeline"><g><title>ConfiguracionController</title><rect fill="#000000" fill-opacity="0.00000" height="1245.8438" width="8" x="663.0352" y="118.5938"/><line style="stroke:#181818;stroke-width:0.5;stroke-dasharray:5,5;" x1="666.8726" x2="666.8726" y1="118.5938" y2="1364.4375"/></g></g><g class="participant-lifeline" data-entity-uid="part4" data-qualified-name="Service" id="part4-lifeline"><g><title>ConfiguracionService</title><rect fill="#000000" fill-opacity="0.00000" height="1245.8438" width="8" x="959.2822" y="118.5938"/><line style="stroke:#181818;stroke-width:0.5;stroke-dasharray:5,5;" x1="962.8354" x2="962.8354" y1="118.5938" y2="1364.4375"/></g></g><g class="participant-lifeline" data-entity-uid="part5" data-qualified-name="GradoRepo" id="part5-lifeline"><g><title>GradoRepository</title><rect fill="#000000" fill-opacity="0.00000" height="1245.8438" width="8" x="1372.4785" y="118.5938"/><line style="stroke:#181818;stroke-width:0.5;stroke-dasharray:5,5;" x1="1375.6245" x2="1375.6245" y1="118.5938" y2="1364.4375"/></g></g><g class="participant-lifeline" data-entity-uid="part6" data-qualified-name="AsignaturaRepo" id="part6-lifeline"><g><title>AsignaturaRepository</title><rect fill="#000000" fill-opacity="0.00000" height="1245.8438" width="8" x="1530.7671" y="118.5938"/><line style="stroke:#181818;stroke-width:0.5;stroke-dasharray:5,5;" x1="1534.3325" x2="1534.3325" y1="118.5938" y2="1364.4375"/></g></g><g class="participant-lifeline" data-entity-uid="part7" data-qualified-name="AlumnoRepo" id="part7-lifeline"><g><title>AlumnoRepository</title><rect fill="#000000" fill-opacity="0.00000" height="1245.8438" width="8" x="1694.4458" y="118.5938"/><line style="stroke:#181818;stroke-width:0.5;stroke-dasharray:5,5;" x1="1698.2017" x2="1698.2017" y1="118.5938" y2="1364.4375"/></g></g><g class="participant-lifeline" data-entity-uid="part8" data-qualified-name="PreguntaRepo" id="part8-lifeline"><g><title>PreguntaRepository</title><rect fill="#000000" fill-opacity="0.00000" height="1245.8438" width="8" x="1851.9824" y="118.5938"/><line style="stroke:#181818;stroke-width:0.5;stroke-dasharray:5,5;" x1="1855.6899" x2="1855.6899" y1="118.5938" y2="1364.4375"/></g></g><g class="participant-lifeline" data-entity-uid="part9" data-qualified-name="RespuestaRepo" id="part9-lifeline"><g><title>RespuestaRepository</title><rect fill="#000000" fill-opacity="0.00000" height="1245.8438" width="8" x="2019.4961" y="118.5938"/><line style="stroke:#181818;stroke-width:0.5;stroke-dasharray:5,5;" x1="2023.2749" x2="2023.2749" y1="118.5938" y2="1364.4375"/></g></g><g class="participant-lifeline" data-entity-uid="part10" data-qualified-name="DB" id="part10-lifeline"><g><title>Base de Datos .PostgreSQL.</title><rect fill="#000000" fill-opacity="0.00000" height="1245.8438" width="8" x="2385.6709" y="118.5938"/><line style="stroke:#181818;stroke-width:0.5;stroke-dasharray:5,5;" x1="2389.0078" x2="2389.0078" y1="118.5938" y2="1364.4375"/></g></g><g class="participant participant-head" data-entity-uid="part1" data-qualified-name="Teacher" id="part1-head"><text fill="#000000" font-family="sans-serif" font-size="14" lengthAdjust="spacing" textLength="58.6318" x="20" y="115.292">Docente</text><ellipse cx="52.3159" cy="50.7969" fill="#E2E2F0" rx="8" ry="8" style="stroke:#181818;stroke-width:0.5;"/><path d="M52.3159,58.7969 L52.3159,85.7969 M39.3159,66.7969 L65.3159,66.7969 M52.3159,85.7969 L39.3159,100.7969 M52.3159,85.7969 L65.3159,100.7969" fill="none" style="stroke:#181818;stroke-width:0.5;"/></g><g class="participant participant-tail" data-entity-uid="part1" data-qualified-name="Teacher" id="part1-tail"><text fill="#000000" font-family="sans-serif" font-size="14" lengthAdjust="spacing" textLength="58.6318" x="20" y="1376.4326">Docente</text><ellipse cx="52.3159" cy="1388.2344" fill="#E2E2F0" rx="8" ry="8" style="stroke:#181818;stroke-width:0.5;"/><path d="M52.3159,1396.2344 L52.3159,1423.2344 M39.3159,1404.2344 L65.3159,1404.2344 M52.3159,1423.2344 L39.3159,1438.2344 M52.3159,1423.2344 L65.3159,1438.2344" fill="none" style="stroke:#181818;stroke-width:0.5;"/></g><g class="participant participant-head" data-entity-uid="part2" data-qualified-name="FE" id="part2-head"><rect fill="#E2E2F0" height="30.2969" rx="2.5" ry="2.5" style="stroke:#181818;stroke-width:0.5;" width="132.5898" x="279.1851" y="87.2969"/><text fill="#000000" font-family="sans-serif" font-size="14" lengthAdjust="spacing" textLength="118.5898" x="286.1851" y="107.292">Frontend (React)</text></g><g class="participant participant-tail" data-entity-uid="part2" data-qualified-name="FE" id="part2-tail"><rect fill="#E2E2F0" height="30.2969" rx="2.5" ry="2.5" style="stroke:#181818;stroke-width:0.5;" width="132.5898" x="279.1851" y="1363.4375"/><text fill="#000000" font-family="sans-serif" font-size="14" lengthAdjust="spacing" textLength="118.5898" x="286.1851" y="1383.4326">Frontend (React)</text></g><g class="participant participant-head" data-entity-uid="part3" data-qualified-name="Controller" id="part3-head"><rect fill="#E2E2F0" height="30.2969" rx="2.5" ry="2.5" style="stroke:#181818;stroke-width:0.5;" width="180.3252" x="576.8726" y="87.2969"/><text fill="#000000" font-family="sans-serif" font-size="14" lengthAdjust="spacing" textLength="166.3252" x="583.8726" y="107.292">ConfiguracionController</text></g><g class="participant participant-tail" data-entity-uid="part3" data-qualified-name="Controller" id="part3-tail"><rect fill="#E2E2F0" height="30.2969" rx="2.5" ry="2.5" style="stroke:#181818;stroke-width:0.5;" width="180.3252" x="576.8726" y="1363.4375"/><text fill="#000000" font-family="sans-serif" font-size="14" lengthAdjust="spacing" textLength="166.3252" x="583.8726" y="1383.4326">ConfiguracionController</text></g><g class="participant participant-head" data-entity-uid="part4" data-qualified-name="Service" id="part4-head"><rect fill="#E2E2F0" height="30.2969" rx="2.5" ry="2.5" style="stroke:#181818;stroke-width:0.5;" width="162.8936" x="881.8354" y="87.2969"/><text fill="#000000" font-family="sans-serif" font-size="14" lengthAdjust="spacing" textLength="148.8936" x="888.8354" y="107.292">ConfiguracionService</text></g><g class="participant participant-tail" data-entity-uid="part4" data-qualified-name="Service" id="part4-tail"><rect fill="#E2E2F0" height="30.2969" rx="2.5" ry="2.5" style="stroke:#181818;stroke-width:0.5;" width="162.8936" x="881.8354" y="1363.4375"/><text fill="#000000" font-family="sans-serif" font-size="14" lengthAdjust="spacing" textLength="148.8936" x="888.8354" y="1383.4326">ConfiguracionService</text></g><g class="participant participant-head" data-entity-uid="part5" data-qualified-name="GradoRepo" id="part5-head"><rect fill="#E2E2F0" height="30.2969" rx="2.5" ry="2.5" style="stroke:#181818;stroke-width:0.5;" width="131.708" x="1310.6245" y="87.2969"/><text fill="#000000" font-family="sans-serif" font-size="14" lengthAdjust="spacing" textLength="117.708" x="1317.6245" y="107.292">GradoRepository</text></g><g class="participant participant-tail" data-entity-uid="part5" data-qualified-name="GradoRepo" id="part5-tail"><rect fill="#E2E2F0" height="30.2969" rx="2.5" ry="2.5" style="stroke:#181818;stroke-width:0.5;" width="131.708" x="1310.6245" y="1363.4375"/><text fill="#000000" font-family="sans-serif" font-size="14" lengthAdjust="spacing" textLength="117.708" x="1317.6245" y="1383.4326">GradoRepository</text></g><g class="participant participant-head" data-entity-uid="part6" data-qualified-name="AsignaturaRepo" id="part6-head"><rect fill="#E2E2F0" height="30.2969" rx="2.5" ry="2.5" style="stroke:#181818;stroke-width:0.5;" width="164.8691" x="1452.3325" y="87.2969"/><text fill="#000000" font-family="sans-serif" font-size="14" lengthAdjust="spacing" textLength="150.8691" x="1459.3325" y="107.292">AsignaturaRepository</text></g><g class="participant participant-tail" data-entity-uid="part6" data-qualified-name="AsignaturaRepo" id="part6-tail"><rect fill="#E2E2F0" height="30.2969" rx="2.5" ry="2.5" style="stroke:#181818;stroke-width:0.5;" width="164.8691" x="1452.3325" y="1363.4375"/><text fill="#000000" font-family="sans-serif" font-size="14" lengthAdjust="spacing" textLength="150.8691" x="1459.3325" y="1383.4326">AsignaturaRepository</text></g><g class="participant participant-head" data-entity-uid="part7" data-qualified-name="AlumnoRepo" id="part7-head"><rect fill="#E2E2F0" height="30.2969" rx="2.5" ry="2.5" style="stroke:#181818;stroke-width:0.5;" width="142.4883" x="1627.2017" y="87.2969"/><text fill="#000000" font-family="sans-serif" font-size="14" lengthAdjust="spacing" textLength="128.4883" x="1634.2017" y="107.292">AlumnoRepository</text></g><g class="participant participant-tail" data-entity-uid="part7" data-qualified-name="AlumnoRepo" id="part7-tail"><rect fill="#E2E2F0" height="30.2969" rx="2.5" ry="2.5" style="stroke:#181818;stroke-width:0.5;" width="142.4883" x="1627.2017" y="1363.4375"/><text fill="#000000" font-family="sans-serif" font-size="14" lengthAdjust="spacing" textLength="128.4883" x="1634.2017" y="1383.4326">AlumnoRepository</text></g><g class="participant participant-head" data-entity-uid="part8" data-qualified-name="PreguntaRepo" id="part8-head"><rect fill="#E2E2F0" height="30.2969" rx="2.5" ry="2.5" style="stroke:#181818;stroke-width:0.5;" width="152.585" x="1779.6899" y="87.2969"/><text fill="#000000" font-family="sans-serif" font-size="14" lengthAdjust="spacing" textLength="138.585" x="1786.6899" y="107.292">PreguntaRepository</text></g><g class="participant participant-tail" data-entity-uid="part8" data-qualified-name="PreguntaRepo" id="part8-tail"><rect fill="#E2E2F0" height="30.2969" rx="2.5" ry="2.5" style="stroke:#181818;stroke-width:0.5;" width="152.585" x="1779.6899" y="1363.4375"/><text fill="#000000" font-family="sans-serif" font-size="14" lengthAdjust="spacing" textLength="138.585" x="1786.6899" y="1383.4326">PreguntaRepository</text></g><g class="participant participant-head" data-entity-uid="part9" data-qualified-name="RespuestaRepo" id="part9-head"><rect fill="#E2E2F0" height="30.2969" rx="2.5" ry="2.5" style="stroke:#181818;stroke-width:0.5;" width="162.4424" x="1942.2749" y="87.2969"/><text fill="#000000" font-family="sans-serif" font-size="14" lengthAdjust="spacing" textLength="148.4424" x="1949.2749" y="107.292">RespuestaRepository</text></g><g class="participant participant-tail" data-entity-uid="part9" data-qualified-name="RespuestaRepo" id="part9-tail"><rect fill="#E2E2F0" height="30.2969" rx="2.5" ry="2.5" style="stroke:#181818;stroke-width:0.5;" width="162.4424" x="1942.2749" y="1363.4375"/><text fill="#000000" font-family="sans-serif" font-size="14" lengthAdjust="spacing" textLength="148.4424" x="1949.2749" y="1383.4326">RespuestaRepository</text></g><g class="participant participant-head" data-entity-uid="part10" data-qualified-name="DB" id="part10-head"><text fill="#000000" font-family="sans-serif" font-size="14" lengthAdjust="spacing" textLength="197.3262" x="2288.0078" y="115.292">Base de Datos (PostgreSQL)</text><path d="M2371.6709,66.2969 C2371.6709,56.2969 2389.6709,56.2969 2389.6709,56.2969 C2389.6709,56.2969 2407.6709,56.2969 2407.6709,66.2969 L2407.6709,92.2969 C2407.6709,102.2969 2389.6709,102.2969 2389.6709,102.2969 C2389.6709,102.2969 2371.6709,102.2969 2371.6709,92.2969 L2371.6709,66.2969" fill="#E2E2F0" style="stroke:#181818;stroke-width:0.5;"/><path d="M2371.6709,66.2969 C2371.6709,76.2969 2389.6709,76.2969 2389.6709,76.2969 C2389.6709,76.2969 2407.6709,76.2969 2407.6709,66.2969" fill="none" style="stroke:#181818;stroke-width:0.5;"/></g><g class="participant participant-tail" data-entity-uid="part10" data-qualified-name="DB" id="part10-tail"><text fill="#000000" font-family="sans-serif" font-size="14" lengthAdjust="spacing" textLength="197.3262" x="2288.0078" y="1376.4326">Base de Datos (PostgreSQL)</text><path d="M2371.6709,1389.7344 C2371.6709,1379.7344 2389.6709,1379.7344 2389.6709,1379.7344 C2389.6709,1379.7344 2407.6709,1379.7344 2407.6709,1389.7344 L2407.6709,1415.7344 C2407.6709,1425.7344 2389.6709,1425.7344 2389.6709,1425.7344 C2389.6709,1425.7344 2371.6709,1425.7344 2371.6709,1415.7344 L2371.6709,1389.7344" fill="#E2E2F0" style="stroke:#181818;stroke-width:0.5;"/><path d="M2371.6709,1389.7344 C2371.6709,1399.7344 2389.6709,1399.7344 2389.6709,1399.7344 C2389.6709,1399.7344 2407.6709,1399.7344 2407.6709,1389.7344" fill="none" style="stroke:#181818;stroke-width:0.5;"/></g><g><title>Frontend .React.</title><rect fill="#FFFFFF" height="1107.3125" style="stroke:#181818;stroke-width:1;" width="10" x="340.48" y="149.7266"/></g><g><title>ConfiguracionController</title><rect fill="#FFFFFF" height="845.9844" style="stroke:#181818;stroke-width:1;" width="10" x="662.0352" y="297.6563"/></g><g><title>ConfiguracionController</title><rect fill="#FFFFFF" height="749.4531" style="stroke:#181818;stroke-width:1;" width="10" x="667.0352" y="334.7891"/></g><g><title>ConfiguracionService</title><rect fill="#FFFFFF" height="715.3203" style="stroke:#181818;stroke-width:1;" width="10" x="958.2822" y="368.9219"/></g><g><title>GradoRepository</title><rect fill="#FFFFFF" height="87.3984" style="stroke:#181818;stroke-width:1;" width="10" x="1371.4785" y="398.0547"/></g><g><title>AsignaturaRepository</title><rect fill="#FFFFFF" height="87.3984" style="stroke:#181818;stroke-width:1;" width="10" x="1529.7671" y="514.5859"/></g><g><title>AlumnoRepository</title><rect fill="#FFFFFF" height="87.3984" style="stroke:#181818;stroke-width:1;" width="10" x="1693.4458" y="631.1172"/></g><g><title>PreguntaRepository</title><rect fill="#FFFFFF" height="87.3984" style="stroke:#181818;stroke-width:1;" width="10" x="1850.9824" y="747.6484"/></g><g><title>RespuestaRepository</title><rect fill="#FFFFFF" height="87.3984" style="stroke:#181818;stroke-width:1;" width="10" x="2018.4961" y="888.3125"/></g><g><title>Base de Datos .PostgreSQL.</title><rect fill="#FFFFFF" height="29.1328" style="stroke:#181818;stroke-width:1;" width="10" x="2384.6709" y="427.1875"/></g><g><title>Base de Datos .PostgreSQL.</title><rect fill="#FFFFFF" height="29.1328" style="stroke:#181818;stroke-width:1;" width="10" x="2384.6709" y="543.7188"/></g><g><title>Base de Datos .PostgreSQL.</title><rect fill="#FFFFFF" height="29.1328" style="stroke:#181818;stroke-width:1;" width="10" x="2384.6709" y="660.25"/></g><g><title>Base de Datos .PostgreSQL.</title><rect fill="#FFFFFF" height="29.1328" style="stroke:#181818;stroke-width:1;" width="10" x="2384.6709" y="776.7813"/></g><g><title>Base de Datos .PostgreSQL.</title><rect fill="#FFFFFF" height="29.1328" style="stroke:#181818;stroke-width:1;" width="10" x="2384.6709" y="917.4453"/></g><g class="message" data-entity-1="part1" data-entity-2="part2" id="msg1"><polygon fill="#181818" points="328.48,145.7266,338.48,149.7266,328.48,153.7266,332.48,149.7266" style="stroke:#181818;stroke-width:1;"/><line style="stroke:#181818;stroke-width:1;" x1="52.3159" x2="334.48" y1="149.7266" y2="149.7266"/><text fill="#000000" font-family="sans-serif" font-size="13" lengthAdjust="spacing" textLength="255.7217" x="59.3159" y="144.6606">Clic en "Exportar Configuraci&#243;n Global"</text></g><g class="message" data-entity-1="part2" data-entity-2="part1" id="msg2"><polygon fill="#181818" points="63.3159,220.2578,53.3159,224.2578,63.3159,228.2578,59.3159,224.2578" style="stroke:#181818;stroke-width:1;"/><line style="stroke:#181818;stroke-width:1;stroke-dasharray:2,2;" x1="57.3159" x2="339.48" y1="224.2578" y2="224.2578"/><text fill="#000000" font-family="sans-serif" font-size="13" lengthAdjust="spacing" textLength="214.0874" x="69.3159" y="173.7935">Mostrar Di&#225;logo de Confirmaci&#243;n</text><text fill="#000000" font-family="sans-serif" font-size="13" lengthAdjust="spacing" textLength="226.3765" x="69.3159" y="188.9263">( "&#191;Exportar toda la configuraci&#243;n?</text><text fill="#000000" font-family="sans-serif" font-size="13" lengthAdjust="spacing" textLength="217.2422" x="77.5806" y="204.0591">Esto incluir&#225; grados, asignaturas,</text><text fill="#000000" font-family="sans-serif" font-size="13" lengthAdjust="spacing" textLength="156.8823" x="77.5806" y="219.1919">alumnos y preguntas." )</text></g><g class="message" data-entity-1="part1" data-entity-2="part2" id="msg3"><polygon fill="#181818" points="328.48,249.3906,338.48,253.3906,328.48,257.3906,332.48,253.3906" style="stroke:#181818;stroke-width:1;"/><line style="stroke:#181818;stroke-width:1;" x1="52.3159" x2="334.48" y1="253.3906" y2="253.3906"/><text fill="#000000" font-family="sans-serif" font-size="13" lengthAdjust="spacing" textLength="146.3833" x="59.3159" y="248.3247">Confirmar Exportaci&#243;n</text></g><g class="message" data-entity-1="part2" data-entity-2="part3" id="msg4"><polygon fill="#181818" points="650.0352,293.6563,660.0352,297.6563,650.0352,301.6563,654.0352,297.6563" style="stroke:#181818;stroke-width:1;"/><line style="stroke:#181818;stroke-width:1;" x1="350.48" x2="656.0352" y1="297.6563" y2="297.6563"/><text fill="#000000" font-family="sans-serif" font-size="13" lengthAdjust="spacing" textLength="207.2637" x="357.48" y="277.4575">GET /api/configuracion/exportar</text><text fill="#000000" font-family="sans-serif" font-size="13" lengthAdjust="spacing" textLength="267.8774" x="357.48" y="292.5903">(Header: Authorization: Bearer &lt;token&gt;)</text></g><g class="message" data-entity-1="part3" data-entity-2="part3" id="msg5"><line style="stroke:#181818;stroke-width:1;" x1="672.0352" x2="719.0352" y1="321.7891" y2="321.7891"/><line style="stroke:#181818;stroke-width:1;" x1="719.0352" x2="719.0352" y1="321.7891" y2="334.7891"/><line style="stroke:#181818;stroke-width:1;" x1="678.0352" x2="719.0352" y1="334.7891" y2="334.7891"/><polygon fill="#181818" points="688.0352,330.7891,678.0352,334.7891,688.0352,338.7891,684.0352,334.7891" style="stroke:#181818;stroke-width:1;"/><text fill="#000000" font-family="sans-serif" font-size="13" lengthAdjust="spacing" textLength="169.1016" x="684.0352" y="316.7231">extraer docenteId del JWT</text></g><g class="message" data-entity-1="part3" data-entity-2="part4" id="msg6"><polygon fill="#181818" points="946.2822,364.9219,956.2822,368.9219,946.2822,372.9219,950.2822,368.9219" style="stroke:#181818;stroke-width:1;"/><line style="stroke:#181818;stroke-width:1;" x1="677.0352" x2="952.2822" y1="368.9219" y2="368.9219"/><text fill="#000000" font-family="sans-serif" font-size="13" lengthAdjust="spacing" textLength="262.2471" x="684.0352" y="363.856">exportarConfiguracionGlobal(docenteId)</text></g><g class="message" data-entity-1="part4" data-entity-2="part5" id="msg7"><polygon fill="#181818" points="1359.4785,394.0547,1369.4785,398.0547,1359.4785,402.0547,1363.4785,398.0547" style="stroke:#181818;stroke-width:1;"/><line style="stroke:#181818;stroke-width:1;" x1="968.2822" x2="1365.4785" y1="398.0547" y2="398.0547"/><text fill="#000000" font-family="sans-serif" font-size="13" lengthAdjust="spacing" textLength="182.7363" x="975.2822" y="392.9888">findByDocenteId(docenteId)</text></g><g class="message" data-entity-1="part5" data-entity-2="part10" id="msg8"><polygon fill="#181818" points="2372.6709,423.1875,2382.6709,427.1875,2372.6709,431.1875,2376.6709,427.1875" style="stroke:#181818;stroke-width:1;"/><line style="stroke:#181818;stroke-width:1;" x1="1381.4785" x2="2378.6709" y1="427.1875" y2="427.1875"/><text fill="#000000" font-family="sans-serif" font-size="13" lengthAdjust="spacing" textLength="303.7988" x="1388.4785" y="422.1216">SELECT * FROM grados WHERE docente_id = ?</text></g><g class="message" data-entity-1="part10" data-entity-2="part5" id="msg9"><polygon fill="#181818" points="1392.4785,452.3203,1382.4785,456.3203,1392.4785,460.3203,1388.4785,456.3203" style="stroke:#181818;stroke-width:1;"/><line style="stroke:#181818;stroke-width:1;stroke-dasharray:2,2;" x1="1386.4785" x2="2388.6709" y1="456.3203" y2="456.3203"/><text fill="#000000" font-family="sans-serif" font-size="13" lengthAdjust="spacing" textLength="84.1001" x="1398.4785" y="451.2544">List&lt;Grado&gt;</text></g><g class="message" data-entity-1="part5" data-entity-2="part4" id="msg10"><polygon fill="#181818" points="979.2822,481.4531,969.2822,485.4531,979.2822,489.4531,975.2822,485.4531" style="stroke:#181818;stroke-width:1;"/><line style="stroke:#181818;stroke-width:1;stroke-dasharray:2,2;" x1="973.2822" x2="1375.4785" y1="485.4531" y2="485.4531"/><text fill="#000000" font-family="sans-serif" font-size="13" lengthAdjust="spacing" textLength="112.2837" x="985.2822" y="480.3872">List&lt;GradoDTO&gt;</text></g><g class="message" data-entity-1="part4" data-entity-2="part6" id="msg11"><polygon fill="#181818" points="1517.7671,510.5859,1527.7671,514.5859,1517.7671,518.5859,1521.7671,514.5859" style="stroke:#181818;stroke-width:1;"/><line style="stroke:#181818;stroke-width:1;" x1="968.2822" x2="1523.7671" y1="514.5859" y2="514.5859"/><text fill="#000000" font-family="sans-serif" font-size="13" lengthAdjust="spacing" textLength="182.7363" x="975.2822" y="509.52">findByDocenteId(docenteId)</text></g><g class="message" data-entity-1="part6" data-entity-2="part10" id="msg12"><polygon fill="#181818" points="2372.6709,539.7188,2382.6709,543.7188,2372.6709,547.7188,2376.6709,543.7188" style="stroke:#181818;stroke-width:1;"/><line style="stroke:#181818;stroke-width:1;" x1="1539.7671" x2="2378.6709" y1="543.7188" y2="543.7188"/><text fill="#000000" font-family="sans-serif" font-size="13" lengthAdjust="spacing" textLength="335.4863" x="1546.7671" y="538.6528">SELECT * FROM asignaturas WHERE docente_id = ?</text></g><g class="message" data-entity-1="part10" data-entity-2="part6" id="msg13"><polygon fill="#181818" points="1550.7671,568.8516,1540.7671,572.8516,1550.7671,576.8516,1546.7671,572.8516" style="stroke:#181818;stroke-width:1;"/><line style="stroke:#181818;stroke-width:1;stroke-dasharray:2,2;" x1="1544.7671" x2="2388.6709" y1="572.8516" y2="572.8516"/><text fill="#000000" font-family="sans-serif" font-size="13" lengthAdjust="spacing" textLength="114.8926" x="1556.7671" y="567.7856">List&lt;Asignatura&gt;</text></g><g class="message" data-entity-1="part6" data-entity-2="part4" id="msg14"><polygon fill="#181818" points="979.2822,597.9844,969.2822,601.9844,979.2822,605.9844,975.2822,601.9844" style="stroke:#181818;stroke-width:1;"/><line style="stroke:#181818;stroke-width:1;stroke-dasharray:2,2;" x1="973.2822" x2="1533.7671" y1="601.9844" y2="601.9844"/><text fill="#000000" font-family="sans-serif" font-size="13" lengthAdjust="spacing" textLength="143.0762" x="985.2822" y="596.9185">List&lt;AsignaturaDTO&gt;</text></g><g class="message" data-entity-1="part4" data-entity-2="part7" id="msg15"><polygon fill="#181818" points="1681.4458,627.1172,1691.4458,631.1172,1681.4458,635.1172,1685.4458,631.1172" style="stroke:#181818;stroke-width:1;"/><line style="stroke:#181818;stroke-width:1;" x1="968.2822" x2="1687.4458" y1="631.1172" y2="631.1172"/><text fill="#000000" font-family="sans-serif" font-size="13" lengthAdjust="spacing" textLength="182.7363" x="975.2822" y="626.0513">findByDocenteId(docenteId)</text></g><g class="message" data-entity-1="part7" data-entity-2="part10" id="msg16"><polygon fill="#181818" points="2372.6709,656.25,2382.6709,660.25,2372.6709,664.25,2376.6709,660.25" style="stroke:#181818;stroke-width:1;"/><line style="stroke:#181818;stroke-width:1;" x1="1703.4458" x2="2378.6709" y1="660.25" y2="660.25"/><text fill="#000000" font-family="sans-serif" font-size="13" lengthAdjust="spacing" textLength="314.7041" x="1710.4458" y="655.1841">SELECT * FROM alumnos WHERE docente_id = ?</text></g><g class="message" data-entity-1="part10" data-entity-2="part7" id="msg17"><polygon fill="#181818" points="1714.4458,685.3828,1704.4458,689.3828,1714.4458,693.3828,1710.4458,689.3828" style="stroke:#181818;stroke-width:1;"/><line style="stroke:#181818;stroke-width:1;stroke-dasharray:2,2;" x1="1708.4458" x2="2388.6709" y1="689.3828" y2="689.3828"/><text fill="#000000" font-family="sans-serif" font-size="13" lengthAdjust="spacing" textLength="94.1104" x="1720.4458" y="684.3169">List&lt;Alumno&gt;</text></g><g class="message" data-entity-1="part7" data-entity-2="part4" id="msg18"><polygon fill="#181818" points="979.2822,714.5156,969.2822,718.5156,979.2822,722.5156,975.2822,718.5156" style="stroke:#181818;stroke-width:1;"/><line style="stroke:#181818;stroke-width:1;stroke-dasharray:2,2;" x1="973.2822" x2="1697.4458" y1="718.5156" y2="718.5156"/><text fill="#000000" font-family="sans-serif" font-size="13" lengthAdjust="spacing" textLength="122.2939" x="985.2822" y="713.4497">List&lt;AlumnoDTO&gt;</text></g><g class="message" data-entity-1="part4" data-entity-2="part8" id="msg19"><polygon fill="#181818" points="1838.9824,743.6484,1848.9824,747.6484,1838.9824,751.6484,1842.9824,747.6484" style="stroke:#181818;stroke-width:1;"/><line style="stroke:#181818;stroke-width:1;" x1="968.2822" x2="1844.9824" y1="747.6484" y2="747.6484"/><text fill="#000000" font-family="sans-serif" font-size="13" lengthAdjust="spacing" textLength="182.7363" x="975.2822" y="742.5825">findByDocenteId(docenteId)</text></g><g class="message" data-entity-1="part8" data-entity-2="part10" id="msg20"><polygon fill="#181818" points="2372.6709,772.7813,2382.6709,776.7813,2372.6709,780.7813,2376.6709,776.7813" style="stroke:#181818;stroke-width:1;"/><line style="stroke:#181818;stroke-width:1;" x1="1860.9824" x2="2378.6709" y1="776.7813" y2="776.7813"/><text fill="#000000" font-family="sans-serif" font-size="13" lengthAdjust="spacing" textLength="325.4189" x="1867.9824" y="771.7153">SELECT * FROM preguntas WHERE docente_id = ?</text></g><g class="message" data-entity-1="part10" data-entity-2="part8" id="msg21"><polygon fill="#181818" points="1871.9824,801.9141,1861.9824,805.9141,1871.9824,809.9141,1867.9824,805.9141" style="stroke:#181818;stroke-width:1;"/><line style="stroke:#181818;stroke-width:1;stroke-dasharray:2,2;" x1="1865.9824" x2="2388.6709" y1="805.9141" y2="805.9141"/><text fill="#000000" font-family="sans-serif" font-size="13" lengthAdjust="spacing" textLength="103.4858" x="1877.9824" y="800.8481">List&lt;Pregunta&gt;</text></g><g class="message" data-entity-1="part8" data-entity-2="part4" id="msg22"><polygon fill="#181818" points="979.2822,831.0469,969.2822,835.0469,979.2822,839.0469,975.2822,835.0469" style="stroke:#181818;stroke-width:1;"/><line style="stroke:#181818;stroke-width:1;stroke-dasharray:2,2;" x1="973.2822" x2="1854.9824" y1="835.0469" y2="835.0469"/><text fill="#000000" font-family="sans-serif" font-size="13" lengthAdjust="spacing" textLength="103.4858" x="985.2822" y="829.981">List&lt;Pregunta&gt;</text></g><path d="M871.8354,850.0469 L948.4595,850.0469 L948.4595,857.1797 L938.4595,867.1797 L871.8354,867.1797 L871.8354,850.0469" fill="#EEEEEE" style="stroke:#000000;stroke-width:1.5;"/><rect fill="none" height="133.6641" style="stroke:#000000;stroke-width:1.5;" width="1629.4985" x="871.8354" y="850.0469"/><text fill="#000000" font-family="sans-serif" font-size="13" font-weight="bold" lengthAdjust="spacing" textLength="31.624" x="886.8354" y="863.1138">loop</text><text fill="#000000" font-family="sans-serif" font-size="11" font-weight="bold" lengthAdjust="spacing" textLength="326.2563" x="963.4595" y="862.2573">[Para cada pregunta, obtener respuestas asociadas]</text><g class="message" data-entity-1="part4" data-entity-2="part9" id="msg23"><polygon fill="#181818" points="2006.4961,884.3125,2016.4961,888.3125,2006.4961,892.3125,2010.4961,888.3125" style="stroke:#181818;stroke-width:1;"/><line style="stroke:#181818;stroke-width:1;" x1="968.2822" x2="2012.4961" y1="888.3125" y2="888.3125"/><text fill="#000000" font-family="sans-serif" font-size="13" lengthAdjust="spacing" textLength="193.9717" x="975.2822" y="883.2466">findByPreguntaId(preguntaId)</text></g><g class="message" data-entity-1="part9" data-entity-2="part10" id="msg24"><polygon fill="#181818" points="2372.6709,913.4453,2382.6709,917.4453,2372.6709,921.4453,2376.6709,917.4453" style="stroke:#181818;stroke-width:1;"/><line style="stroke:#181818;stroke-width:1;" x1="2028.4961" x2="2378.6709" y1="917.4453" y2="917.4453"/><text fill="#000000" font-family="sans-serif" font-size="13" lengthAdjust="spacing" textLength="337.1748" x="2035.4961" y="912.3794">SELECT * FROM respuestas WHERE pregunta_id = ?</text></g><g class="message" data-entity-1="part10" data-entity-2="part9" id="msg25"><polygon fill="#181818" points="2039.4961,942.5781,2029.4961,946.5781,2039.4961,950.5781,2035.4961,946.5781" style="stroke:#181818;stroke-width:1;"/><line style="stroke:#181818;stroke-width:1;stroke-dasharray:2,2;" x1="2033.4961" x2="2388.6709" y1="946.5781" y2="946.5781"/><text fill="#000000" font-family="sans-serif" font-size="13" lengthAdjust="spacing" textLength="112.6392" x="2045.4961" y="941.5122">List&lt;Respuesta&gt;</text></g><g class="message" data-entity-1="part9" data-entity-2="part4" id="msg26"><polygon fill="#181818" points="979.2822,971.7109,969.2822,975.7109,979.2822,979.7109,975.2822,975.7109" style="stroke:#181818;stroke-width:1;"/><line style="stroke:#181818;stroke-width:1;stroke-dasharray:2,2;" x1="973.2822" x2="2022.4961" y1="975.7109" y2="975.7109"/><text fill="#000000" font-family="sans-serif" font-size="13" lengthAdjust="spacing" textLength="140.8228" x="985.2822" y="970.645">List&lt;RespuestaDTO&gt;</text></g><g class="message" data-entity-1="part4" data-entity-2="part4" id="msg27"><line style="stroke:#181818;stroke-width:1;" x1="968.2822" x2="1010.2822" y1="1042.1094" y2="1042.1094"/><line style="stroke:#181818;stroke-width:1;" x1="1010.2822" x2="1010.2822" y1="1042.1094" y2="1055.1094"/><line style="stroke:#181818;stroke-width:1;" x1="969.2822" x2="1010.2822" y1="1055.1094" y2="1055.1094"/><polygon fill="#181818" points="979.2822,1051.1094,969.2822,1055.1094,979.2822,1059.1094,975.2822,1055.1094" style="stroke:#181818;stroke-width:1;"/><text fill="#000000" font-family="sans-serif" font-size="13" lengthAdjust="spacing" textLength="224.7642" x="975.2822" y="1006.7778">Construir ConfiguracionExportDTO</text><text fill="#000000" font-family="sans-serif" font-size="13" lengthAdjust="spacing" textLength="205.6387" x="975.2822" y="1021.9106">(versi&#243;n, fecha, docenteOrigen,</text><text fill="#000000" font-family="sans-serif" font-size="13" lengthAdjust="spacing" textLength="375.064" x="979.4146" y="1037.0435">grados, asignaturas, alumnos, preguntas con respuestas)</text></g><g class="message" data-entity-1="part4" data-entity-2="part3" id="msg28"><polygon fill="#181818" points="683.0352,1080.2422,673.0352,1084.2422,683.0352,1088.2422,679.0352,1084.2422" style="stroke:#181818;stroke-width:1;"/><line style="stroke:#181818;stroke-width:1;stroke-dasharray:2,2;" x1="677.0352" x2="962.2822" y1="1084.2422" y2="1084.2422"/><text fill="#000000" font-family="sans-serif" font-size="13" lengthAdjust="spacing" textLength="160.9512" x="689.0352" y="1079.1763">ConfiguracionExportDTO</text></g><g class="message" data-entity-1="part3" data-entity-2="part2" id="msg29"><polygon fill="#181818" points="361.48,1139.6406,351.48,1143.6406,361.48,1147.6406,357.48,1143.6406" style="stroke:#181818;stroke-width:1;"/><line style="stroke:#181818;stroke-width:1;stroke-dasharray:2,2;" x1="355.48" x2="666.0352" y1="1143.6406" y2="1143.6406"/><text fill="#000000" font-family="sans-serif" font-size="13" lengthAdjust="spacing" textLength="259.105" x="367.48" y="1108.3091">200 OK (ConfiguracionExportDTO JSON)</text><text fill="#000000" font-family="sans-serif" font-size="13" lengthAdjust="spacing" textLength="287.5552" x="367.48" y="1123.4419">+ Header: Content-Disposition: attachment;</text><text fill="#000000" font-family="sans-serif" font-size="13" lengthAdjust="spacing" textLength="251.0815" x="375.7446" y="1138.5747">filename="configuracion_[fecha].json"</text></g><g class="message" data-entity-1="part2" data-entity-2="part2" id="msg30"><line style="stroke:#181818;stroke-width:1;" x1="350.48" x2="392.48" y1="1172.7734" y2="1172.7734"/><line style="stroke:#181818;stroke-width:1;" x1="392.48" x2="392.48" y1="1172.7734" y2="1185.7734"/><line style="stroke:#181818;stroke-width:1;" x1="351.48" x2="392.48" y1="1185.7734" y2="1185.7734"/><polygon fill="#181818" points="361.48,1181.7734,351.48,1185.7734,361.48,1189.7734,357.48,1185.7734" style="stroke:#181818;stroke-width:1;"/><text fill="#000000" font-family="sans-serif" font-size="13" lengthAdjust="spacing" textLength="141.502" x="357.48" y="1167.7075">Convertir JSON a Blob</text></g><g class="message" data-entity-1="part2" data-entity-2="part2" id="msg31"><line style="stroke:#181818;stroke-width:1;" x1="350.48" x2="392.48" y1="1214.9063" y2="1214.9063"/><line style="stroke:#181818;stroke-width:1;" x1="392.48" x2="392.48" y1="1214.9063" y2="1227.9063"/><line style="stroke:#181818;stroke-width:1;" x1="351.48" x2="392.48" y1="1227.9063" y2="1227.9063"/><polygon fill="#181818" points="361.48,1223.9063,351.48,1227.9063,361.48,1231.9063,357.48,1227.9063" style="stroke:#181818;stroke-width:1;"/><text fill="#000000" font-family="sans-serif" font-size="13" lengthAdjust="spacing" textLength="207.9048" x="357.48" y="1209.8403">Trigger download en navegador</text></g><g class="message" data-entity-1="part2" data-entity-2="part1" id="msg32"><polygon fill="#181818" points="63.3159,1253.0391,53.3159,1257.0391,63.3159,1261.0391,59.3159,1257.0391" style="stroke:#181818;stroke-width:1;"/><line style="stroke:#181818;stroke-width:1;stroke-dasharray:2,2;" x1="57.3159" x2="344.48" y1="1257.0391" y2="1257.0391"/><text fill="#000000" font-family="sans-serif" font-size="13" lengthAdjust="spacing" textLength="264.1641" x="69.3159" y="1251.9731">Mostrar Toast "Exportaci&#243;n completada"</text></g><path d="M10,1272.0391 L74.4429,1272.0391 L74.4429,1279.1719 L64.4429,1289.1719 L10,1289.1719 L10,1272.0391" fill="#EEEEEE" style="stroke:#000000;stroke-width:1.5;"/><rect fill="none" height="75.3984" style="stroke:#000000;stroke-width:1.5;" width="411.7749" x="10" y="1272.0391"/><text fill="#000000" font-family="sans-serif" font-size="13" font-weight="bold" lengthAdjust="spacing" textLength="19.4429" x="25" y="1285.106">alt</text><text fill="#000000" font-family="sans-serif" font-size="11" font-weight="bold" lengthAdjust="spacing" textLength="141.6357" x="89.4429" y="1284.2495">[Cancelar Exportaci&#243;n]</text><g class="message" data-entity-1="part1" data-entity-2="part2" id="msg33"><polygon fill="#181818" points="333.48,1306.3047,343.48,1310.3047,333.48,1314.3047,337.48,1310.3047" style="stroke:#181818;stroke-width:1;"/><line style="stroke:#181818;stroke-width:1;" x1="52.3159" x2="339.48" y1="1310.3047" y2="1310.3047"/><text fill="#000000" font-family="sans-serif" font-size="13" lengthAdjust="spacing" textLength="57.3511" x="59.3159" y="1305.2388">Cancelar</text></g><g class="message" data-entity-1="part2" data-entity-2="part1" id="msg34"><polygon fill="#181818" points="63.3159,1335.4375,53.3159,1339.4375,63.3159,1343.4375,59.3159,1339.4375" style="stroke:#181818;stroke-width:1;"/><line style="stroke:#181818;stroke-width:1;stroke-dasharray:2,2;" x1="57.3159" x2="344.48" y1="1339.4375" y2="1339.4375"/><text fill="#000000" font-family="sans-serif" font-size="13" lengthAdjust="spacing" textLength="161.7637" x="69.3159" y="1334.3716">Cerrar di&#225;logo sin acci&#243;n</text></g><?plantuml-src ZLRDSjis4BxpANPuaXevplIe9if48kqqTIfNqamETIUp9c4QBGLm0CY9-pPvXZv0P-eNwmBy0oWw8nqqn69_llsmmAxXfcIGS2mKxX5o1bkM7PZ8EC8Pf5yhgGmgM4bnnuk3mem__IFWifItMC9aMoak2bXAQU05R1XcPXf5z2yLn8dCc30i1jImewrxfg8AbU4Phr0OY2-Kf7sHmwIsT9eNQQZaHPQ25aR9icJAwVRBxzXicNhWMGsZ-GwrBnNcSiCggJdXVdIAdInKVQTv8T2Gvu5-k34mAWzxCGpG2qFbQyMAWp13_xuuDDWmNHsOFh88v56E1czHCuYNzf-EEK4ZDKokfJQ5OjlVhchwasKKDOS5PmiwZJciIfu14n1_lnfYU-xy0GspPtYHmXdPDwxcy97YA39D-DEtKXRIGd1krBxsSYCc4F_tRnV3o1oXHCY2M6zl142gZGGkilB0rTCtAEnPwHcXRyz0pwmQEeerF4BLiATVnZ0zIgz1eTfgTu5S0WklmkPmcUxW72j-dldbTSuQn9J0UuQvrNntCFTIyR_HaC8SbWmLnNjjv5zCBAOzJrxzzf_3iEmh4KVYlBvEF-T4NGaVFkrEyDFKktLIWmnkHdrkaywnXwozA57pOPrrTs8ETrpaoyUaDHnrqL-XxijwIPPpsAPNwMe7Fy35PlsnEJ_uz3xTf6sMdtaER-1jxutgCbcwal9WN75jNhlr8igPh-k5z6de3PBTEh3fqVefXzVwjBm7Jq6u76V0gzoJQHX2SwdrmY4XGnX7hFGAGse62GNyTA_OYTpqhrx_-GmdpUqzcGyFIfsG4npnu8Kzvi1j7kNVW_Ppzv_aqx8F7d5_CSv0zsgTp448oQNKYeOyXE6Fc1Wr2_17fPGLNAEY9nhfgMxHpa3UKbEdzqUr7KXJWKiQA7BK4T3F8p7eKYsBRHoYiUe-fywqmnAsDxiLICOPzH3LbBRkMqw34CIINJVS3f0wbZhPmcc638zWEgAvstSrD_0HfaXpKb1-dIDwqgcrKYk4u76lcndvfRxqm9IsJMq6TooxfoDgIccjUC64RPPZFRIzWZEl4gdrUInEUq23fZKEnI-cjiDuecVQMDEdVtpr2jQ_m6JSDNpOhd-TteWNq3RXbHikpLd2jHkCN2j6G_tzVa_od-o8SCTB9d3FtiH1J__yk-FfZvT_QYdYPo3M0q8pGH33Xax0WW249JLMRtz7D1UkWtyHfSJS3bC27rX1dAjd9wMTH6sweQkUj3Avhqfcw2O5g6ZUYh0qi4AHiN8uoTYo6iuyZQBR6m9OCMNZv-safhcWIr7xeYhy7m00?></g></svg>