<svg xmlns="http://www.w3.org/2000/svg" xmlns:xlink="http://www.w3.org/1999/xlink" contentStyleType="text/css" data-diagram-type="STATE" height="792px" preserveAspectRatio="none" style="width:627px;height:792px;background:#FFFFFF;" version="1.1" viewBox="0 0 627 792" width="627px" zoomAndPan="magnify"><defs/><g><g id="ALUMNO_ABIERTO"><rect fill="#F1F1F1" height="50" rx="12.5" ry="12.5" style="stroke:#181818;stroke-width:0.5;" width="149.6504" x="111.5" y="7"/><line style="stroke:#181818;stroke-width:0.5;" x1="111.5" x2="261.1504" y1="33.2969" y2="33.2969"/><text fill="#000000" font-family="sans-serif" font-size="14" lengthAdjust="spacing" textLength="129.6504" x="121.5" y="24.9951">ALUMNO_ABIERTO</text></g><g id="ALUMNOS_ABIERTO2"><rect fill="#F1F1F1" height="50" rx="12.5" ry="12.5" style="stroke:#181818;stroke-width:0.5;" width="158.5371" x="7" y="736"/><line style="stroke:#181818;stroke-width:0.5;" x1="7" x2="165.5371" y1="762.2969" y2="762.2969"/><text fill="#000000" font-family="sans-serif" font-size="14" lengthAdjust="spacing" textLength="138.5371" x="17" y="753.9951">ALUMNOS_ABIERTO</text></g><g id="ALUMNOS_ABIERTO3"><rect fill="#F1F1F1" height="50" rx="12.5" ry="12.5" style="stroke:#181818;stroke-width:0.5;" width="158.5371" x="201" y="736"/><line style="stroke:#181818;stroke-width:0.5;" x1="201" x2="359.5371" y1="762.2969" y2="762.2969"/><text fill="#000000" font-family="sans-serif" font-size="14" lengthAdjust="spacing" textLength="138.5371" x="211" y="753.9951">ALUMNOS_ABIERTO</text></g><g id="ALUMNOS_ABIERTO4"><rect fill="#F1F1F1" height="50" rx="12.5" ry="12.5" style="stroke:#181818;stroke-width:0.5;" width="158.5371" x="406" y="736"/><line style="stroke:#181818;stroke-width:0.5;" x1="406" x2="564.5371" y1="762.2969" y2="762.2969"/><text fill="#000000" font-family="sans-serif" font-size="14" lengthAdjust="spacing" textLength="138.5371" x="416" y="753.9951">ALUMNOS_ABIERTO</text></g><path d="M83,118 L478,118 A12.5,12.5 0 0 1 490.5,130.5 L490.5,144.2969 L70.5,144.2969 L70.5,130.5 A12.5,12.5 0 0 1 83,118" fill="#F1F1F1"/><rect fill="none" height="523.2969" rx="12.5" ry="12.5" style="stroke:#181818;stroke-width:0.5;" width="420" x="70.5" y="118"/><line style="stroke:#181818;stroke-width:0.5;" x1="70.5" x2="490.5" y1="144.2969" y2="144.2969"/><text fill="#000000" font-family="sans-serif" font-size="14" lengthAdjust="spacing" textLength="121.4678" x="219.7661" y="135.9951">eliminarAlumno()</text><g id="eliminarAlumno.ConfirmandoEliminacion"><rect fill="#F1F1F1" height="50" rx="12.5" ry="12.5" style="stroke:#181818;stroke-width:0.5;" width="50" x="82.5" y="246.2969"/><line style="stroke:#181818;stroke-width:0.5;" x1="82.5" x2="132.5" y1="272.5938" y2="272.5938"/><text fill="#000000" font-family="sans-serif" font-size="14" lengthAdjust="spacing" textLength="4.4502" x="105.2749" y="264.292">&#160;</text></g><g id="eliminarAlumno.EliminandoAlumno"><rect fill="#F1F1F1" height="50" rx="12.5" ry="12.5" style="stroke:#181818;stroke-width:0.5;" width="50" x="82.5" y="473.2969"/><line style="stroke:#181818;stroke-width:0.5;" x1="82.5" x2="132.5" y1="499.5938" y2="499.5938"/><text fill="#000000" font-family="sans-serif" font-size="14" lengthAdjust="spacing" textLength="4.4502" x="105.2749" y="491.292">&#160;</text></g><ellipse cx="107.5" cy="165.2969" fill="#222222" rx="10" ry="10" style="stroke:#222222;stroke-width:1;"/><ellipse cx="107.5" cy="620.2969" fill="none" rx="11" ry="11" style="stroke:#222222;stroke-width:1;"/><ellipse cx="107.5" cy="620.2969" fill="#222222" rx="6" ry="6" style="stroke:#222222;stroke-width:1;"/><!--link *start*eliminarAlumno to ConfirmandoEliminacion--><g class="link" data-entity-1=".start.eliminarAlumno" data-entity-2="ConfirmandoEliminacion" data-source-line="13" data-uid="lnk3" id="link_.start.eliminarAlumno_ConfirmandoEliminacion"><path d="M107.5,175.5269 C107.5,191.2369 107.5,217.6569 107.5,240.1669" fill="none" id="*start*eliminarAlumno-to-ConfirmandoEliminacion" style="stroke:#008000;stroke-width:1;"/><polygon fill="#008000" points="107.5,246.1669,111.5,237.1669,107.5,241.1669,103.5,237.1669,107.5,246.1669" style="stroke:#008000;stroke-width:1;"/><path d="M112.5,198.2969 L112.5,223.2969 L353.5,223.2969 L353.5,208.2969 L343.5,198.2969 L112.5,198.2969" fill="#FEFFDD" style="stroke:#181818;stroke-width:0.5;"/><path d="M343.5,198.2969 L343.5,208.2969 L353.5,208.2969 L343.5,198.2969" fill="#FEFFDD" style="stroke:#181818;stroke-width:0.5;"/><text fill="#000000" font-family="sans-serif" font-size="13" font-weight="bold" lengthAdjust="spacing" textLength="60.5313" x="118.5" y="215.3638">Docente</text><text fill="#000000" font-family="sans-serif" font-size="13" lengthAdjust="spacing" textLength="155.7588" x="183.1636" y="215.3638">solicita eliminar alumno</text></g><!--link ConfirmandoEliminacion to EliminandoAlumno--><g class="link" data-entity-1="ConfirmandoEliminacion" data-entity-2="EliminandoAlumno" data-source-line="18" data-uid="lnk4" id="link_ConfirmandoEliminacion_EliminandoAlumno"><path d="M107.5,296.3769 C107.5,339.5669 107.5,423.7369 107.5,467.0469" fill="none" id="ConfirmandoEliminacion-to-EliminandoAlumno" style="stroke:#008000;stroke-width:1;"/><polygon fill="#008000" points="107.5,473.0469,111.5,464.0469,107.5,468.0469,103.5,464.0469,107.5,473.0469" style="stroke:#008000;stroke-width:1;"/><path d="M112.5,319.2969 L112.5,450.2969 L481.5,450.2969 L481.5,329.2969 L471.5,319.2969 L112.5,319.2969" fill="#FEFFDD" style="stroke:#181818;stroke-width:0.5;"/><path d="M471.5,319.2969 L471.5,329.2969 L481.5,329.2969 L471.5,319.2969" fill="#FEFFDD" style="stroke:#181818;stroke-width:0.5;"/><text fill="#000000" font-family="sans-serif" font-size="13" font-weight="bold" lengthAdjust="spacing" textLength="58.9063" x="118.5" y="336.3638">Sistema</text><text fill="#000000" font-family="sans-serif" font-size="13" lengthAdjust="spacing" textLength="285.1875" x="181.5386" y="336.3638">presenta informaci&#243;n del alumno a eliminar</text><text fill="#000000" font-family="sans-serif" font-size="13" lengthAdjust="spacing" textLength="63.7368" x="118.5" y="351.4966">&#8226; Nombre</text><text fill="#000000" font-family="sans-serif" font-size="13" lengthAdjust="spacing" textLength="70.7573" x="118.5" y="366.6294">&#8226; Apellidos</text><text fill="#000000" font-family="sans-serif" font-size="13" lengthAdjust="spacing" textLength="35.3691" x="118.5" y="381.7622">&#8226; DNI</text><text fill="#000000" font-family="sans-serif" font-size="13" lengthAdjust="spacing" textLength="4.1323" x="118.5" y="396.895">&#160;</text><text fill="#000000" font-family="sans-serif" font-size="13" lengthAdjust="spacing" textLength="249.6724" x="118.5" y="412.0278">&#8226; Presenta advertencia de eliminaci&#243;n</text><text fill="#000000" font-family="sans-serif" font-size="13" lengthAdjust="spacing" textLength="263.3706" x="118.5" y="427.1606">&#8226; Permite solicitar confirmar eliminaci&#243;n</text><text fill="#000000" font-family="sans-serif" font-size="13" lengthAdjust="spacing" textLength="255.9438" x="118.5" y="442.2935">&#8226; Permite solicitar cancelar eliminaci&#243;n</text></g><!--link EliminandoAlumno to *end*eliminarAlumno--><g class="link" data-entity-1="EliminandoAlumno" data-entity-2=".end.eliminarAlumno" data-source-line="30" data-uid="lnk6" id="link_EliminandoAlumno_.end.eliminarAlumno"><path d="M107.5,523.5769 C107.5,549.8769 107.5,584.5669 107.5,603.2769" fill="none" id="EliminandoAlumno-to-*end*eliminarAlumno" style="stroke:#008000;stroke-width:1;"/><polygon fill="#008000" points="107.5,609.2769,111.5,600.2769,107.5,604.2769,103.5,600.2769,107.5,609.2769" style="stroke:#008000;stroke-width:1;"/><path d="M112.5,546.2969 L112.5,586.2969 L431.5,586.2969 L431.5,556.2969 L421.5,546.2969 L112.5,546.2969" fill="#FEFFDD" style="stroke:#181818;stroke-width:0.5;"/><path d="M421.5,546.2969 L421.5,556.2969 L431.5,556.2969 L421.5,546.2969" fill="#FEFFDD" style="stroke:#181818;stroke-width:0.5;"/><text fill="#000000" font-family="sans-serif" font-size="13" font-weight="bold" lengthAdjust="spacing" textLength="60.5313" x="118.5" y="563.3638">Docente</text><text fill="#000000" font-family="sans-serif" font-size="13" lengthAdjust="spacing" textLength="233.5303" x="183.1636" y="563.3638">solicita confirmaci&#243;n de eliminaci&#243;n</text><text fill="#000000" font-family="sans-serif" font-size="13" font-weight="bold" lengthAdjust="spacing" textLength="58.9063" x="118.5" y="578.4966">Sistema</text><text fill="#000000" font-family="sans-serif" font-size="13" lengthAdjust="spacing" textLength="136.2905" x="181.5386" y="578.4966">confirma eliminaci&#243;n</text></g><g id="ALUMNOS_ABIERTO"><rect fill="#F1F1F1" height="50" rx="12.5" ry="12.5" style="stroke:#181818;stroke-width:0.5;" width="158.5371" x="296" y="7"/><line style="stroke:#181818;stroke-width:0.5;" x1="296" x2="454.5371" y1="33.2969" y2="33.2969"/><text fill="#000000" font-family="sans-serif" font-size="14" lengthAdjust="spacing" textLength="138.5371" x="306" y="24.9951">ALUMNOS_ABIERTO</text></g><!--link ALUMNOS_ABIERTO to eliminarAlumno--><g class="link" data-entity-1="ALUMNOS_ABIERTO" data-entity-2="eliminarAlumno" data-source-line="37" data-uid="lnk8" id="link_ALUMNOS_ABIERTO_eliminarAlumno"><path d="M368.9,57.02 C364.75,72.09 360.5212,87.4848 353.8212,111.8448" fill="none" id="ALUMNOS_ABIERTO-to-eliminarAlumno" style="stroke:#008000;stroke-width:1;"/><polygon fill="#008000" points="352.23,117.63,358.4735,110.013,353.556,112.809,350.76,107.8915,352.23,117.63" style="stroke:#008000;stroke-width:1;"/></g><!--link ALUMNO_ABIERTO to eliminarAlumno--><g class="link" data-entity-1="ALUMNO_ABIERTO" data-entity-2="eliminarAlumno" data-source-line="38" data-uid="lnk9" id="link_ALUMNO_ABIERTO_eliminarAlumno"><path d="M193.04,57.02 C197.14,72.09 201.3243,87.4806 207.9543,111.8406" fill="none" id="ALUMNO_ABIERTO-to-eliminarAlumno" style="stroke:#008000;stroke-width:1;"/><polygon fill="#008000" points="209.53,117.63,211.0261,107.8954,208.2169,112.8055,203.3069,109.9964,209.53,117.63" style="stroke:#008000;stroke-width:1;"/></g><!--link eliminarAlumno to ALUMNOS_ABIERTO2--><g class="link" data-entity-1="eliminarAlumno" data-entity-2="ALUMNOS_ABIERTO2" data-source-line="40" data-uid="lnk10" id="link_eliminarAlumno_ALUMNOS_ABIERTO2"><path d="M147.22,641.23 C127.42,679.96 112.7116,708.7379 101.6616,730.3479" fill="none" id="eliminarAlumno-to-ALUMNOS_ABIERTO2" style="stroke:#008000;stroke-width:1;"/><polygon fill="#008000" points="98.93,735.69,106.5888,729.4979,101.2064,731.2382,99.466,725.8557,98.93,735.69" style="stroke:#008000;stroke-width:1;"/><path d="M133.5,676 L133.5,701 L259.5,701 L259.5,686 L249.5,676 L133.5,676" fill="#FEFFDD" style="stroke:#181818;stroke-width:0.5;"/><path d="M249.5,676 L249.5,686 L259.5,686 L249.5,676" fill="#FEFFDD" style="stroke:#181818;stroke-width:0.5;"/><text fill="#000000" font-family="sans-serif" font-size="13" lengthAdjust="spacing" textLength="105.8408" x="139.5" y="693.0669">lista actualizada</text></g><!--link eliminarAlumno to ALUMNOS_ABIERTO3--><g class="link" data-entity-1="eliminarAlumno" data-entity-2="ALUMNOS_ABIERTO3" data-source-line="45" data-uid="lnk11" id="link_eliminarAlumno_ALUMNOS_ABIERTO3"><path d="M277.81,641.01 C277.62,659.47 277.5,671 277.5,671 C277.5,671 277.5,706 277.5,706 C277.5,706 278.0265,715.4793 278.8265,729.8493" fill="none" id="eliminarAlumno-to-ALUMNOS_ABIERTO3" style="stroke:#0000FF;stroke-width:1;"/><polygon fill="#0000FF" points="279.16,735.84,282.6535,726.6316,278.8821,730.8477,274.6659,727.0763,279.16,735.84" style="stroke:#0000FF;stroke-width:1;"/><path d="M282.5,676 L282.5,701 L437.5,701 L437.5,686 L427.5,676 L282.5,676" fill="#FEFFDD" style="stroke:#181818;stroke-width:0.5;"/><path d="M427.5,676 L427.5,686 L437.5,686 L427.5,676" fill="#FEFFDD" style="stroke:#181818;stroke-width:0.5;"/><text fill="#000000" font-family="sans-serif" font-size="13" lengthAdjust="spacing" textLength="134.2085" x="288.5" y="693.0669">cancelar eliminaci&#243;n</text></g><!--link eliminarAlumno to ALUMNOS_ABIERTO4--><g class="link" data-entity-1="eliminarAlumno" data-entity-2="ALUMNOS_ABIERTO4" data-source-line="50" data-uid="lnk12" id="link_eliminarAlumno_ALUMNOS_ABIERTO4"><path d="M429.36,641.01 C439.91,659.47 446.5,671 446.5,671 C446.5,671 460.893,703.834 472.433,730.184" fill="none" id="eliminarAlumno-to-ALUMNOS_ABIERTO4" style="stroke:#0000FF;stroke-width:1;"/><polygon fill="#0000FF" points="474.84,735.68,474.8935,725.8313,472.8342,731.1,467.5655,729.0406,474.84,735.68" style="stroke:#0000FF;stroke-width:1;"/><path d="M465.5,676 L465.5,701 L620.5,701 L620.5,686 L610.5,676 L465.5,676" fill="#FEFFDD" style="stroke:#181818;stroke-width:0.5;"/><path d="M610.5,676 L610.5,686 L620.5,686 L610.5,676" fill="#FEFFDD" style="stroke:#181818;stroke-width:0.5;"/><text fill="#000000" font-family="sans-serif" font-size="13" lengthAdjust="spacing" textLength="134.2085" x="471.5" y="693.0669">cancelar eliminaci&#243;n</text></g><!--SRC=[dLFTIiCm5BxFKuHwey8Gt2x7eBfT37GJfrT394tF92mzAMacJ15y5b_1H_1DV1Aph3-c2yFPGg5Vl_ETBz_fAPO2SwPPHgL0CEiSQAxaUlD2I66O0HfVtLzFfe_nnNXqUpVrm5c5dbDMqAW5Hc5kzm1kBymjoI159f3fMAuoL8xgGySd4NqbXDfhMn7Psz8k5Iw4pXYcQhGju4BXBg_yQ6bRFSTmZ_df0-tCZvuq03vq1liKKLb1XPk0bmxe9uEXue06-cV9W1PA2YuCguz3MTCCC7K2JUTm9yzCq7R8namK1ZBcREGQ2kk9KO4BPVMv-Ff4ce8ixT36e2l_Vl-W4vKb6cZz7kSWfKXLKIF3oRYnlW5kgZOiVGPj0BbWjakbxResPD2PiBQhY3JbvUdrdmiOSf0X_cwqxToyKEt43njdPRKASjT1Qm9LmHwhRuIqbi7pwF_znD_SVKpIMgNVrFQg4oy1QGzWXydDYadnmb96QhC1qKIk8A3PzJN3C_k7RkyGtHy0]--></g></svg>