<svg xmlns="http://www.w3.org/2000/svg" xmlns:xlink="http://www.w3.org/1999/xlink" contentStyleType="text/css" data-diagram-type="DESCRIPTION" height="426px" preserveAspectRatio="none" style="width:2259px;height:426px;background:#FFFFFF;" version="1.1" viewBox="0 0 2259 426" width="2259px" zoomAndPan="magnify"><defs/><g><!--cluster exportarConfiguracionGlobal--><g class="cluster" data-entity="exportarConfiguracionGlobal" data-source-line="4" data-uid="ent0003" id="cluster_exportarConfiguracionGlobal"><path d="M8.5,106 L250.3574,106 A3.75,3.75 0 0 1 252.8574,108.5 L259.8574,128.2969 L1133.5,128.2969 A2.5,2.5 0 0 1 1136,130.7969 L1136,416.5 A2.5,2.5 0 0 1 1133.5,419 L8.5,419 A2.5,2.5 0 0 1 6,416.5 L6,108.5 A2.5,2.5 0 0 1 8.5,106" fill="none" style="stroke:#000000;stroke-width:1.5;"/><line style="stroke:#000000;stroke-width:1.5;" x1="6" x2="259.8574" y1="128.2969" y2="128.2969"/><text fill="#000000" font-family="sans-serif" font-size="14" font-weight="bold" lengthAdjust="spacing" textLength="240.8574" x="10" y="120.9951">exportarConfiguracionGlobal()</text></g><!--entity ExportarConfiguracionGlobalView--><g class="entity" data-entity="ExportarConfiguracionGlobalView" data-source-line="5" data-uid="ent0004" id="entity_ExportarConfiguracionGlobalView"><rect fill="#629EF9" height="36.2969" rx="2.5" ry="2.5" style="stroke:#181818;stroke-width:0.5;" width="255.5049" x="864" y="141"/><text fill="#000000" font-family="sans-serif" font-size="14" lengthAdjust="spacing" textLength="235.5049" x="874" y="163.9951">ExportarConfiguracionGlobalView</text></g><!--entity ExportarConfiguracionGlobalController--><g class="entity" data-entity="ExportarConfiguracionGlobalController" data-source-line="6" data-uid="ent0005" id="entity_ExportarConfiguracionGlobalController"><rect fill="#B5BD68" height="36.2969" rx="2.5" ry="2.5" style="stroke:#181818;stroke-width:0.5;" width="291.1475" x="423.5" y="254"/><text fill="#000000" font-family="sans-serif" font-size="14" lengthAdjust="spacing" textLength="271.1475" x="433.5" y="276.9951">ExportarConfiguracionGlobalController</text></g><!--entity AlumnoRepository--><g class="entity" data-entity="AlumnoRepository" data-source-line="7" data-uid="ent0006" id="entity_AlumnoRepository"><rect fill="#F2AC4E" height="36.2969" rx="2.5" ry="2.5" style="stroke:#181818;stroke-width:0.5;" width="148.4883" x="22" y="367"/><text fill="#000000" font-family="sans-serif" font-size="14" lengthAdjust="spacing" textLength="128.4883" x="32" y="389.9951">AlumnoRepository</text></g><!--entity GradoRepository--><g class="entity" data-entity="GradoRepository" data-source-line="8" data-uid="ent0007" id="entity_GradoRepository"><rect fill="#F2AC4E" height="36.2969" rx="2.5" ry="2.5" style="stroke:#181818;stroke-width:0.5;" width="137.708" x="254" y="367"/><text fill="#000000" font-family="sans-serif" font-size="14" lengthAdjust="spacing" textLength="117.708" x="264" y="389.9951">GradoRepository</text></g><!--entity AsignaturaRepository--><g class="entity" data-entity="AsignaturaRepository" data-source-line="9" data-uid="ent0008" id="entity_AsignaturaRepository"><rect fill="#F2AC4E" height="36.2969" rx="2.5" ry="2.5" style="stroke:#181818;stroke-width:0.5;" width="170.8691" x="483.5" y="367"/><text fill="#000000" font-family="sans-serif" font-size="14" lengthAdjust="spacing" textLength="150.8691" x="493.5" y="389.9951">AsignaturaRepository</text></g><!--entity PreguntaRepository--><g class="entity" data-entity="PreguntaRepository" data-source-line="10" data-uid="ent0009" id="entity_PreguntaRepository"><rect fill="#F2AC4E" height="36.2969" rx="2.5" ry="2.5" style="stroke:#181818;stroke-width:0.5;" width="158.585" x="796.5" y="367"/><text fill="#000000" font-family="sans-serif" font-size="14" lengthAdjust="spacing" textLength="138.585" x="806.5" y="389.9951">PreguntaRepository</text></g><!--entity SistemaDisponible--><g class="entity" data-entity="SistemaDisponible" data-source-line="3" data-uid="ent0002" id="entity_SistemaDisponible"><rect fill="#CDEBA5" height="36.2969" rx="2.5" ry="2.5" style="stroke:#181818;stroke-width:0.5;" width="159.125" x="912.5" y="7"/><text fill="#000000" font-family="sans-serif" font-size="14" lengthAdjust="spacing" textLength="139.125" x="922.5" y="29.9951">:Sistema Disponible</text></g><!--entity ExportarAlumnos--><g class="entity" data-entity="ExportarAlumnos" data-source-line="13" data-uid="ent0010" id="entity_ExportarAlumnos"><rect fill="#CDEBA5" height="36.2969" rx="2.5" ry="2.5" style="stroke:#181818;stroke-width:0.5;" width="243.3438" x="1152.5" y="254"/><text fill="#000000" font-family="sans-serif" font-size="14" lengthAdjust="spacing" textLength="223.3438" x="1162.5" y="276.9951">:Collaboration ExportarAlumnos</text></g><!--entity ExportarGrados--><g class="entity" data-entity="ExportarGrados" data-source-line="14" data-uid="ent0011" id="entity_ExportarGrados"><rect fill="#CDEBA5" height="36.2969" rx="2.5" ry="2.5" style="stroke:#181818;stroke-width:0.5;" width="232.5635" x="1430.5" y="254"/><text fill="#000000" font-family="sans-serif" font-size="14" lengthAdjust="spacing" textLength="212.5635" x="1440.5" y="276.9951">:Collaboration ExportarGrados</text></g><!--entity ExportarAsignaturas--><g class="entity" data-entity="ExportarAsignaturas" data-source-line="15" data-uid="ent0012" id="entity_ExportarAsignaturas"><rect fill="#CDEBA5" height="36.2969" rx="2.5" ry="2.5" style="stroke:#181818;stroke-width:0.5;" width="265.7246" x="1699" y="254"/><text fill="#000000" font-family="sans-serif" font-size="14" lengthAdjust="spacing" textLength="245.7246" x="1709" y="276.9951">:Collaboration ExportarAsignaturas</text></g><!--entity ExportarPreguntas--><g class="entity" data-entity="ExportarPreguntas" data-source-line="16" data-uid="ent0013" id="entity_ExportarPreguntas"><rect fill="#CDEBA5" height="36.2969" rx="2.5" ry="2.5" style="stroke:#181818;stroke-width:0.5;" width="253.4404" x="2000.5" y="254"/><text fill="#000000" font-family="sans-serif" font-size="14" lengthAdjust="spacing" textLength="233.4404" x="2010.5" y="276.9951">:Collaboration ExportarPreguntas</text></g><!--link SistemaDisponible to ExportarConfiguracionGlobalView--><g class="link" data-entity-1="SistemaDisponible" data-entity-2="ExportarConfiguracionGlobalView" data-source-line="18" data-uid="lnk14" id="link_SistemaDisponible_ExportarConfiguracionGlobalView"><path d="M947.61,43.1 C912.73,56.54 870,73 870,73 C870,73 870,90 870,90 C870,90 919.8289,117.7792 955.9689,137.9192" fill="none" id="SistemaDisponible-to-ExportarConfiguracionGlobalView" style="stroke:#181818;stroke-width:1;"/><polygon fill="#181818" points="961.21,140.84,955.2955,132.9648,956.8424,138.406,951.4012,139.9529,961.21,140.84" style="stroke:#181818;stroke-width:1;"/><text fill="#000000" font-family="sans-serif" font-size="13" lengthAdjust="spacing" textLength="197.4756" x="871" y="86.0669">exportarConfiguracionGlobal()</text></g><!--reverse link SistemaDisponible to ExportarConfiguracionGlobalView--><g class="link" data-entity-1="SistemaDisponible" data-entity-2="ExportarConfiguracionGlobalView" data-source-line="32" data-uid="lnk25" id="link_SistemaDisponible_ExportarConfiguracionGlobalView"><path d="M1026.8892,46.2421 C1050.0092,59.6621 1073,73 1073,73 C1073,73 1073,90 1073,90 C1073,90 1036.44,120.7 1012.44,140.84" fill="none" id="SistemaDisponible-backto-ExportarConfiguracionGlobalView" style="stroke:#181818;stroke-width:1;"/><polygon fill="#181818" points="1021.7,43.23,1027.4757,51.2075,1026.0243,45.74,1031.4918,44.2886,1021.7,43.23" style="stroke:#181818;stroke-width:1;"/><text fill="#000000" font-family="sans-serif" font-size="13" lengthAdjust="spacing" textLength="193.1338" x="1074" y="86.0669">cancelarExportacion() / salir()</text></g><!--link ExportarConfiguracionGlobalView to ExportarConfiguracionGlobalController--><g class="link" data-entity-1="ExportarConfiguracionGlobalView" data-entity-2="ExportarConfiguracionGlobalController" data-source-line="20" data-uid="lnk15" id="link_ExportarConfiguracionGlobalView_ExportarConfiguracionGlobalController"><path d="M926.83,177.1 C847.23,197.99 719.1734,231.5869 639.6934,252.4469" fill="none" id="ExportarConfiguracionGlobalView-to-ExportarConfiguracionGlobalController" style="stroke:#181818;stroke-width:1;"/><polygon fill="#181818" points="633.89,253.97,643.6106,255.5542,638.7262,252.7007,641.5797,247.8163,633.89,253.97" style="stroke:#181818;stroke-width:1;"/><text fill="#000000" font-family="sans-serif" font-size="13" lengthAdjust="spacing" textLength="127.1499" x="806" y="220.0669">iniciarExportacion()</text></g><!--link ExportarConfiguracionGlobalController to AlumnoRepository--><g class="link" data-entity-1="ExportarConfiguracionGlobalController" data-entity-2="AlumnoRepository" data-source-line="22" data-uid="lnk16" id="link_ExportarConfiguracionGlobalController_AlumnoRepository"><path d="M423.45,287.9 C289.02,301.67 110,320 110,320 C110,320 105.1829,342.0288 101.0329,360.9888" fill="none" id="ExportarConfiguracionGlobalController-to-AlumnoRepository" style="stroke:#181818;stroke-width:1;"/><polygon fill="#181818" points="99.75,366.85,105.5819,358.9134,100.8191,361.9656,97.7669,357.2029,99.75,366.85" style="stroke:#181818;stroke-width:1;"/><text fill="#000000" font-family="sans-serif" font-size="13" lengthAdjust="spacing" textLength="224.1548" x="111" y="333.0669">obtenerAlumnos() : List&lt;Alumno&gt;</text></g><!--link ExportarConfiguracionGlobalController to GradoRepository--><g class="link" data-entity-1="ExportarConfiguracionGlobalController" data-entity-2="GradoRepository" data-source-line="23" data-uid="lnk17" id="link_ExportarConfiguracionGlobalController_GradoRepository"><path d="M490.35,290.03 C428.25,303.49 352,320 352,320 C352,320 341.8361,342.4247 333.2461,361.3847" fill="none" id="ExportarConfiguracionGlobalController-to-GradoRepository" style="stroke:#181818;stroke-width:1;"/><polygon fill="#181818" points="330.77,366.85,338.1276,360.3028,332.8334,362.2956,330.8406,357.0014,330.77,366.85" style="stroke:#181818;stroke-width:1;"/><text fill="#000000" font-family="sans-serif" font-size="13" lengthAdjust="spacing" textLength="204.1343" x="353" y="333.0669">obtenerGrados() : List&lt;Grado&gt;</text></g><!--link ExportarConfiguracionGlobalController to AsignaturaRepository--><g class="link" data-entity-1="ExportarConfiguracionGlobalController" data-entity-2="AsignaturaRepository" data-source-line="24" data-uid="lnk18" id="link_ExportarConfiguracionGlobalController_AsignaturaRepository"><path d="M567.9,290.23 C567.04,303.65 566,320 566,320 C566,320 566,337 566,337 C566,337 566.6563,347.3623 567.5163,360.7823" fill="none" id="ExportarConfiguracionGlobalController-to-AsignaturaRepository" style="stroke:#181818;stroke-width:1;"/><polygon fill="#181818" points="567.9,366.77,571.3162,357.5326,567.5802,361.7802,563.3326,358.0442,567.9,366.77" style="stroke:#181818;stroke-width:1;"/><text fill="#000000" font-family="sans-serif" font-size="13" lengthAdjust="spacing" textLength="265.7192" x="567" y="333.0669">obtenerAsignaturas() : List&lt;Asignatura&gt;</text></g><!--link ExportarConfiguracionGlobalController to PreguntaRepository--><g class="link" data-entity-1="ExportarConfiguracionGlobalController" data-entity-2="PreguntaRepository" data-source-line="25" data-uid="lnk19" id="link_ExportarConfiguracionGlobalController_PreguntaRepository"><path d="M666.13,290.03 C742.83,303.49 837,320 837,320 C837,320 850.8785,342.7659 862.4285,361.7259" fill="none" id="ExportarConfiguracionGlobalController-to-PreguntaRepository" style="stroke:#181818;stroke-width:1;"/><polygon fill="#181818" points="865.55,366.85,864.2838,357.0829,862.9488,362.5799,857.4517,361.2448,865.55,366.85" style="stroke:#181818;stroke-width:1;"/><text fill="#000000" font-family="sans-serif" font-size="13" lengthAdjust="spacing" textLength="242.9058" x="847" y="333.0669">obtenerPreguntas() : List&lt;Pregunta&gt;</text></g><!--link ExportarConfiguracionGlobalView to ExportarAlumnos--><g class="link" data-entity-1="ExportarConfiguracionGlobalView" data-entity-2="ExportarAlumnos" data-source-line="27" data-uid="lnk20" id="link_ExportarConfiguracionGlobalView_ExportarAlumnos"><path d="M1035.44,177.1 C1088.44,197.96 1171.907,230.8124 1224.927,251.6824" fill="none" id="ExportarConfiguracionGlobalView-to-ExportarAlumnos" style="stroke:#181818;stroke-width:1;stroke-dasharray:7,7;"/><polygon fill="#181818" points="1230.51,253.88,1223.6005,246.8615,1225.8575,252.0486,1220.6703,254.3056,1230.51,253.88" style="stroke:#181818;stroke-width:1;"/><text fill="#000000" font-family="sans-serif" font-size="13" lengthAdjust="spacing" textLength="122.167" x="1150" y="220.0669">exportarAlumnos()</text></g><!--link ExportarConfiguracionGlobalView to ExportarGrados--><g class="link" data-entity-1="ExportarConfiguracionGlobalView" data-entity-2="ExportarGrados" data-source-line="28" data-uid="lnk21" id="link_ExportarConfiguracionGlobalView_ExportarGrados"><path d="M1096.74,177.03 C1179.45,190.49 1281,207 1281,207 C1281,207 1391.4365,233.5664 1470.2365,252.5264" fill="none" id="ExportarConfiguracionGlobalView-to-ExportarGrados" style="stroke:#181818;stroke-width:1;stroke-dasharray:7,7;"/><polygon fill="#181818" points="1476.07,253.93,1468.2555,247.9356,1471.2087,252.7603,1466.384,255.7136,1476.07,253.93" style="stroke:#181818;stroke-width:1;"/><text fill="#000000" font-family="sans-serif" font-size="13" lengthAdjust="spacing" textLength="112.1567" x="1346" y="220.0669">exportarGrados()</text></g><!--link ExportarConfiguracionGlobalView to ExportarAsignaturas--><g class="link" data-entity-1="ExportarConfiguracionGlobalView" data-entity-2="ExportarAsignaturas" data-source-line="29" data-uid="lnk22" id="link_ExportarConfiguracionGlobalView_ExportarAsignaturas"><path d="M1120.23,172.69 C1260.91,186.61 1467,207 1467,207 C1467,207 1620.6302,233.9337 1728.7602,252.8937" fill="none" id="ExportarConfiguracionGlobalView-to-ExportarAsignaturas" style="stroke:#181818;stroke-width:1;stroke-dasharray:7,7;"/><polygon fill="#181818" points="1734.67,253.93,1726.4961,248.4357,1729.7451,253.0665,1725.1144,256.3155,1734.67,253.93" style="stroke:#181818;stroke-width:1;"/><text fill="#000000" font-family="sans-serif" font-size="13" lengthAdjust="spacing" textLength="142.9492" x="1556" y="220.0669">exportarAsignaturas()</text></g><!--link ExportarConfiguracionGlobalView to ExportarPreguntas--><g class="link" data-entity-1="ExportarConfiguracionGlobalView" data-entity-2="ExportarPreguntas" data-source-line="30" data-uid="lnk23" id="link_ExportarConfiguracionGlobalView_ExportarPreguntas"><path d="M1120.24,168.43 C1326,181.96 1707,207 1707,207 C1707,207 1884.9185,234.1162 2009.3485,253.0762" fill="none" id="ExportarConfiguracionGlobalView-to-ExportarPreguntas" style="stroke:#181818;stroke-width:1;stroke-dasharray:7,7;"/><polygon fill="#181818" points="2015.28,253.98,2006.9852,248.6699,2010.3371,253.2268,2005.7802,256.5786,2015.28,253.98" style="stroke:#181818;stroke-width:1;"/><text fill="#000000" font-family="sans-serif" font-size="13" lengthAdjust="spacing" textLength="131.5425" x="1809" y="220.0669">exportarPreguntas()</text></g><!--SRC=[bLFBRi8m4BpdArRq0eTG2HLKeYfI6WAN7gfMwdqJtCZ2s97Zg4LL_xs643k4Hsfk6NPdPsV7vORo0YLkWL5ErAuWK0YsstzudYIPGfup0dVn8dcEfZ08tccfo1PXGSj2S9eoCW0iuGXRr2imss1EW7mNGYgKiU2VDAyaPbJm5HCfidtZuCR_mz40VZpGlvQIsMIUBEUGN6_xeEIhsvLEq_NiyLQNXfGKZ17PxLrEelWXWOXLMoxUI25AgeJSNIbRILptLqKbpJaghQ2tz5MIlEAgNVXx-JQnbe-faAZqLcRNMdTvE5C7Ss0vh7LAKaCkIipI7JKMTs1hV3dbCgZddMKIVEc7VSc106v6qlFw2FprxIasQG5GJZEAybYzh-cPO9l1rsEweGn0f8fmqbnuEDBxl6WZdceWTE3k9DbGrtUtp8Tl5-9BuRV2RHXQuWteCkVyvPWf9YPsHWE5_HSUZyFkKxAfCSuxqTIcMfR6P3SjrhkMdhQXJdJ694lMykqV3w7IHpXxXG5ao3F2Egc7UoYHKJaS_G40]--></g></svg>