<?plantuml 1.2026.2?><svg xmlns="http://www.w3.org/2000/svg" xmlns:xlink="http://www.w3.org/1999/xlink" contentStyleType="text/css" data-diagram-type="DESCRIPTION" height="426px" preserveAspectRatio="none" style="width:2860px;height:426px;background:#FFFFFF;" version="1.1" viewBox="0 0 2860 426" width="2860px" zoomAndPan="magnify"><defs/><g><!--cluster exportarConfiguracionGlobal--><g class="cluster" data-qualified-name="exportarConfiguracionGlobal" data-source-line="4" id="ent0003"><path d="M8.5,106 L250.3574,106 A3.75,3.75 0 0 1 252.8574,108.5 L259.8574,128.2969 L1436.5,128.2969 A2.5,2.5 0 0 1 1439,130.7969 L1439,416.5 A2.5,2.5 0 0 1 1436.5,419 L8.5,419 A2.5,2.5 0 0 1 6,416.5 L6,108.5 A2.5,2.5 0 0 1 8.5,106" fill="none" style="stroke:#000000;stroke-width:1.5;"/><line style="stroke:#000000;stroke-width:1.5;" x1="6" x2="259.8574" y1="128.2969" y2="128.2969"/><text fill="#000000" font-family="sans-serif" font-size="14" font-weight="bold" lengthAdjust="spacing" textLength="240.8574" x="10" y="120.9951">exportarConfiguracionGlobal()</text></g><!--entity ExportarConfiguracionGlobalView--><g class="entity" data-qualified-name="exportarConfiguracionGlobal.ExportarConfiguracionGlobalView" data-source-line="5" id="ent0004"><rect fill="#629EF9" height="36.2969" rx="2.5" ry="2.5" style="stroke:#181818;stroke-width:0.5;" width="255.5049" x="1167" y="141"/><text fill="#000000" font-family="sans-serif" font-size="14" lengthAdjust="spacing" textLength="235.5049" x="1177" y="163.9951">ExportarConfiguracionGlobalView</text></g><!--entity ConfiguracionController--><g class="entity" data-qualified-name="exportarConfiguracionGlobal.ConfiguracionController" data-source-line="6" id="ent0005"><rect fill="#B5BD68" height="36.2969" rx="2.5" ry="2.5" style="stroke:#181818;stroke-width:0.5;" width="186.3252" x="629" y="254"/><text fill="#000000" font-family="sans-serif" font-size="14" lengthAdjust="spacing" textLength="166.3252" x="639" y="276.9951">ConfiguracionController</text></g><!--entity AlumnoRepository--><g class="entity" data-qualified-name="exportarConfiguracionGlobal.AlumnoRepository" data-source-line="7" id="ent0006"><rect fill="#F2AC4E" height="36.2969" rx="2.5" ry="2.5" style="stroke:#181818;stroke-width:0.5;" width="148.4883" x="22" y="367"/><text fill="#000000" font-family="sans-serif" font-size="14" lengthAdjust="spacing" textLength="128.4883" x="32" y="389.9951">AlumnoRepository</text></g><!--entity GradoRepository--><g class="entity" data-qualified-name="exportarConfiguracionGlobal.GradoRepository" data-source-line="8" id="ent0007"><rect fill="#F2AC4E" height="36.2969" rx="2.5" ry="2.5" style="stroke:#181818;stroke-width:0.5;" width="137.708" x="254" y="367"/><text fill="#000000" font-family="sans-serif" font-size="14" lengthAdjust="spacing" textLength="117.708" x="264" y="389.9951">GradoRepository</text></g><!--entity AsignaturaRepository--><g class="entity" data-qualified-name="exportarConfiguracionGlobal.AsignaturaRepository" data-source-line="9" id="ent0008"><rect fill="#F2AC4E" height="36.2969" rx="2.5" ry="2.5" style="stroke:#181818;stroke-width:0.5;" width="170.8691" x="483.5" y="367"/><text fill="#000000" font-family="sans-serif" font-size="14" lengthAdjust="spacing" textLength="150.8691" x="493.5" y="389.9951">AsignaturaRepository</text></g><!--entity PreguntaRepository--><g class="entity" data-qualified-name="exportarConfiguracionGlobal.PreguntaRepository" data-source-line="10" id="ent0009"><rect fill="#F2AC4E" height="36.2969" rx="2.5" ry="2.5" style="stroke:#181818;stroke-width:0.5;" width="158.585" x="796.5" y="367"/><text fill="#000000" font-family="sans-serif" font-size="14" lengthAdjust="spacing" textLength="138.585" x="806.5" y="389.9951">PreguntaRepository</text></g><!--entity RespuestaRepository--><g class="entity" data-qualified-name="exportarConfiguracionGlobal.RespuestaRepository" data-source-line="11" id="ent0010"><rect fill="#F2AC4E" height="36.2969" rx="2.5" ry="2.5" style="stroke:#181818;stroke-width:0.5;" width="168.4424" x="1076" y="367"/><text fill="#000000" font-family="sans-serif" font-size="14" lengthAdjust="spacing" textLength="148.4424" x="1086" y="389.9951">RespuestaRepository</text></g><!--entity SistemaDisponible--><g class="entity" data-qualified-name="SistemaDisponible" data-source-line="3" id="ent0002"><rect fill="#CDEBA5" height="36.2969" rx="2.5" ry="2.5" style="stroke:#181818;stroke-width:0.5;" width="159.125" x="1215.5" y="7"/><text fill="#000000" font-family="sans-serif" font-size="14" lengthAdjust="spacing" textLength="139.125" x="1225.5" y="29.9951">:Sistema Disponible</text></g><!--entity ExportarAlumnos--><g class="entity" data-qualified-name="ExportarAlumnos" data-source-line="14" id="ent0011"><rect fill="#CDEBA5" height="36.2969" rx="2.5" ry="2.5" style="stroke:#181818;stroke-width:0.5;" width="243.3438" x="1455.5" y="254"/><text fill="#000000" font-family="sans-serif" font-size="14" lengthAdjust="spacing" textLength="223.3438" x="1465.5" y="276.9951">:Collaboration ExportarAlumnos</text></g><!--entity ExportarGrados--><g class="entity" data-qualified-name="ExportarGrados" data-source-line="15" id="ent0012"><rect fill="#CDEBA5" height="36.2969" rx="2.5" ry="2.5" style="stroke:#181818;stroke-width:0.5;" width="232.5635" x="1733.5" y="254"/><text fill="#000000" font-family="sans-serif" font-size="14" lengthAdjust="spacing" textLength="212.5635" x="1743.5" y="276.9951">:Collaboration ExportarGrados</text></g><!--entity ExportarAsignaturas--><g class="entity" data-qualified-name="ExportarAsignaturas" data-source-line="16" id="ent0013"><rect fill="#CDEBA5" height="36.2969" rx="2.5" ry="2.5" style="stroke:#181818;stroke-width:0.5;" width="265.7246" x="2002" y="254"/><text fill="#000000" font-family="sans-serif" font-size="14" lengthAdjust="spacing" textLength="245.7246" x="2012" y="276.9951">:Collaboration ExportarAsignaturas</text></g><!--entity ExportarPreguntas--><g class="entity" data-qualified-name="ExportarPreguntas" data-source-line="17" id="ent0014"><rect fill="#CDEBA5" height="36.2969" rx="2.5" ry="2.5" style="stroke:#181818;stroke-width:0.5;" width="253.4404" x="2303.5" y="254"/><text fill="#000000" font-family="sans-serif" font-size="14" lengthAdjust="spacing" textLength="233.4404" x="2313.5" y="276.9951">:Collaboration ExportarPreguntas</text></g><!--entity ExportarRespuestas--><g class="entity" data-qualified-name="ExportarRespuestas" data-source-line="18" id="ent0015"><rect fill="#CDEBA5" height="36.2969" rx="2.5" ry="2.5" style="stroke:#181818;stroke-width:0.5;" width="263.2979" x="2591.5" y="254"/><text fill="#000000" font-family="sans-serif" font-size="14" lengthAdjust="spacing" textLength="243.2979" x="2601.5" y="276.9951">:Collaboration ExportarRespuestas</text></g><!--link SistemaDisponible to ExportarConfiguracionGlobalView--><g class="link" data-entity-1="ent0002" data-entity-2="ent0004" data-link-type="dependency" data-source-line="20" id="lnk16"><path d="M1250.61,43.1 C1215.73,56.54 1173,73 1173,73 C1173,73 1173,90 1173,90 C1173,90 1222.8289,117.7792 1258.9689,137.9192" fill="none" id="SistemaDisponible-to-ExportarConfiguracionGlobalView" style="stroke:#181818;stroke-width:1;"/><polygon fill="#181818" points="1264.21,140.84,1258.2955,132.9648,1259.8424,138.406,1254.4012,139.9529,1264.21,140.84" style="stroke:#181818;stroke-width:1;"/><text fill="#000000" font-family="sans-serif" font-size="13" lengthAdjust="spacing" textLength="197.4756" x="1174" y="86.0669">exportarConfiguracionGlobal()</text></g><!--reverse link SistemaDisponible to ExportarConfiguracionGlobalView--><g class="link" data-entity-1="ent0002" data-entity-2="ent0004" data-link-type="dependency" data-source-line="36" id="lnk29"><path d="M1329.8892,46.2421 C1353.0092,59.6621 1376,73 1376,73 C1376,73 1376,90 1376,90 C1376,90 1339.44,120.7 1315.44,140.84" fill="none" id="SistemaDisponible-backto-ExportarConfiguracionGlobalView" style="stroke:#181818;stroke-width:1;"/><polygon fill="#181818" points="1324.7,43.23,1330.4757,51.2075,1329.0243,45.74,1334.4918,44.2886,1324.7,43.23" style="stroke:#181818;stroke-width:1;"/><text fill="#000000" font-family="sans-serif" font-size="13" lengthAdjust="spacing" textLength="193.1338" x="1377" y="86.0669">cancelarExportacion() / salir()</text></g><!--link ExportarConfiguracionGlobalView to ConfiguracionController--><g class="link" data-entity-1="ent0004" data-entity-2="ent0005" data-link-type="dependency" data-source-line="22" id="lnk17"><path d="M1207.04,177.04 C1099.28,197.92 923.6805,231.9288 815.9005,252.8088" fill="none" id="ExportarConfiguracionGlobalView-to-ConfiguracionController" style="stroke:#181818;stroke-width:1;"/><polygon fill="#181818" points="810.01,253.95,819.6065,256.1653,814.9187,252.999,818.085,248.3113,810.01,253.95" style="stroke:#181818;stroke-width:1;"/><text fill="#000000" font-family="sans-serif" font-size="13" lengthAdjust="spacing" textLength="127.1499" x="1043" y="220.0669">iniciarExportacion()</text></g><!--link ConfiguracionController to AlumnoRepository--><g class="link" data-entity-1="ent0005" data-entity-2="ent0006" data-link-type="dependency" data-source-line="24" id="lnk18"><path d="M628.72,280.16 C457.39,293.32 110,320 110,320 C110,320 105.1829,342.0288 101.0329,360.9888" fill="none" id="ConfiguracionController-to-AlumnoRepository" style="stroke:#181818;stroke-width:1;"/><polygon fill="#181818" points="99.75,366.85,105.5819,358.9134,100.8191,361.9656,97.7669,357.2029,99.75,366.85" style="stroke:#181818;stroke-width:1;"/><text fill="#000000" font-family="sans-serif" font-size="13" lengthAdjust="spacing" textLength="224.1548" x="111" y="333.0669">obtenerAlumnos() : List&lt;Alumno&gt;</text></g><!--link ConfiguracionController to GradoRepository--><g class="link" data-entity-1="ent0005" data-entity-2="ent0007" data-link-type="dependency" data-source-line="25" id="lnk19"><path d="M628.63,284.86 C519.02,298.78 352,320 352,320 C352,320 341.8361,342.4247 333.2461,361.3847" fill="none" id="ConfiguracionController-to-GradoRepository" style="stroke:#181818;stroke-width:1;"/><polygon fill="#181818" points="330.77,366.85,338.1276,360.3028,332.8334,362.2956,330.8406,357.0014,330.77,366.85" style="stroke:#181818;stroke-width:1;"/><text fill="#000000" font-family="sans-serif" font-size="13" lengthAdjust="spacing" textLength="204.1343" x="353" y="333.0669">obtenerGrados() : List&lt;Grado&gt;</text></g><!--link ConfiguracionController to AsignaturaRepository--><g class="link" data-entity-1="ent0005" data-entity-2="ent0008" data-link-type="dependency" data-source-line="26" id="lnk20"><path d="M665.24,290.1 C620.63,303.54 566,320 566,320 C566,320 566,337 566,337 C566,337 566.6563,347.3623 567.5163,360.7823" fill="none" id="ConfiguracionController-to-AsignaturaRepository" style="stroke:#181818;stroke-width:1;"/><polygon fill="#181818" points="567.9,366.77,571.3162,357.5326,567.5802,361.7802,563.3326,358.0442,567.9,366.77" style="stroke:#181818;stroke-width:1;"/><text fill="#000000" font-family="sans-serif" font-size="13" lengthAdjust="spacing" textLength="265.7192" x="567" y="333.0669">obtenerAsignaturas() : List&lt;Asignatura&gt;</text></g><!--link ConfiguracionController to PreguntaRepository--><g class="link" data-entity-1="ent0005" data-entity-2="ent0009" data-link-type="dependency" data-source-line="27" id="lnk21"><path d="M763.84,290.1 C796.72,303.54 837,320 837,320 C837,320 850.8785,342.7659 862.4285,361.7259" fill="none" id="ConfiguracionController-to-PreguntaRepository" style="stroke:#181818;stroke-width:1;"/><polygon fill="#181818" points="865.55,366.85,864.2838,357.0829,862.9488,362.5799,857.4517,361.2448,865.55,366.85" style="stroke:#181818;stroke-width:1;"/><text fill="#000000" font-family="sans-serif" font-size="13" lengthAdjust="spacing" textLength="242.9058" x="847" y="333.0669">obtenerPreguntas() : List&lt;Pregunta&gt;</text></g><!--link ConfiguracionController to RespuestaRepository--><g class="link" data-entity-1="ent0005" data-entity-2="ent0010" data-link-type="dependency" data-source-line="28" id="lnk22"><path d="M815.43,284.68 C926.78,298.6 1098,320 1098,320 C1098,320 1120.8449,343.5808 1139.2149,362.5408" fill="none" id="ConfiguracionController-to-RespuestaRepository" style="stroke:#181818;stroke-width:1;"/><polygon fill="#181818" points="1143.39,366.85,1140.0002,357.6029,1139.9108,363.259,1134.2546,363.1696,1143.39,366.85" style="stroke:#181818;stroke-width:1;"/><text fill="#000000" font-family="sans-serif" font-size="13" lengthAdjust="spacing" textLength="261.2124" x="1113" y="333.0669">obtenerRespuestas() : List&lt;Respuesta&gt;</text></g><!--link ExportarConfiguracionGlobalView to ExportarAlumnos--><g class="link" data-entity-1="ent0004" data-entity-2="ent0011" data-link-type="dependency" data-source-line="30" id="lnk23"><path d="M1338.44,177.1 C1391.44,197.96 1474.907,230.8124 1527.927,251.6824" fill="none" id="ExportarConfiguracionGlobalView-to-ExportarAlumnos" style="stroke:#181818;stroke-width:1;stroke-dasharray:7,7;"/><polygon fill="#181818" points="1533.51,253.88,1526.6005,246.8615,1528.8575,252.0486,1523.6703,254.3056,1533.51,253.88" style="stroke:#181818;stroke-width:1;"/><text fill="#000000" font-family="sans-serif" font-size="13" lengthAdjust="spacing" textLength="122.167" x="1453" y="220.0669">exportarAlumnos()</text></g><!--link ExportarConfiguracionGlobalView to ExportarGrados--><g class="link" data-entity-1="ent0004" data-entity-2="ent0012" data-link-type="dependency" data-source-line="31" id="lnk24"><path d="M1399.74,177.03 C1482.45,190.49 1584,207 1584,207 C1584,207 1694.4365,233.5664 1773.2365,252.5264" fill="none" id="ExportarConfiguracionGlobalView-to-ExportarGrados" style="stroke:#181818;stroke-width:1;stroke-dasharray:7,7;"/><polygon fill="#181818" points="1779.07,253.93,1771.2555,247.9356,1774.2087,252.7603,1769.384,255.7136,1779.07,253.93" style="stroke:#181818;stroke-width:1;"/><text fill="#000000" font-family="sans-serif" font-size="13" lengthAdjust="spacing" textLength="112.1567" x="1649" y="220.0669">exportarGrados()</text></g><!--link ExportarConfiguracionGlobalView to ExportarAsignaturas--><g class="link" data-entity-1="ent0004" data-entity-2="ent0013" data-link-type="dependency" data-source-line="32" id="lnk25"><path d="M1423.23,172.69 C1563.91,186.61 1770,207 1770,207 C1770,207 1923.6302,233.9337 2031.7602,252.8937" fill="none" id="ExportarConfiguracionGlobalView-to-ExportarAsignaturas" style="stroke:#181818;stroke-width:1;stroke-dasharray:7,7;"/><polygon fill="#181818" points="2037.67,253.93,2029.4961,248.4357,2032.7451,253.0665,2028.1144,256.3155,2037.67,253.93" style="stroke:#181818;stroke-width:1;"/><text fill="#000000" font-family="sans-serif" font-size="13" lengthAdjust="spacing" textLength="142.9492" x="1859" y="220.0669">exportarAsignaturas()</text></g><!--link ExportarConfiguracionGlobalView to ExportarPreguntas--><g class="link" data-entity-1="ent0004" data-entity-2="ent0014" data-link-type="dependency" data-source-line="33" id="lnk26"><path d="M1423.24,168.43 C1629,181.96 2010,207 2010,207 C2010,207 2187.9185,234.1162 2312.3485,253.0762" fill="none" id="ExportarConfiguracionGlobalView-to-ExportarPreguntas" style="stroke:#181818;stroke-width:1;stroke-dasharray:7,7;"/><polygon fill="#181818" points="2318.28,253.98,2309.9852,248.6699,2313.3371,253.2268,2308.7802,256.5786,2318.28,253.98" style="stroke:#181818;stroke-width:1;"/><text fill="#000000" font-family="sans-serif" font-size="13" lengthAdjust="spacing" textLength="131.5425" x="2112" y="220.0669">exportarPreguntas()</text></g><!--link ExportarConfiguracionGlobalView to ExportarRespuestas--><g class="link" data-entity-1="ent0004" data-entity-2="ent0015" data-link-type="dependency" data-source-line="34" id="lnk27"><path d="M1423.07,166.29 C1683.85,179.1 2252,207 2252,207 C2252,207 2452.2346,234.2121 2591.7646,253.1721" fill="none" id="ExportarConfiguracionGlobalView-to-ExportarRespuestas" style="stroke:#181818;stroke-width:1;stroke-dasharray:7,7;"/><polygon fill="#181818" points="2597.71,253.98,2589.3305,248.8046,2592.7555,253.3068,2588.2534,256.7317,2597.71,253.98" style="stroke:#181818;stroke-width:1;"/><text fill="#000000" font-family="sans-serif" font-size="13" lengthAdjust="spacing" textLength="140.6958" x="2366" y="220.0669">exportarRespuestas()</text></g><?plantuml-src bPFDRi8m48JlUOeLlS01Ag62sgX2elnTUgYerFicR2CBOqUsenPLVVSQ0dOI86boysJpPRqpgxTCfAXm1vm9ClkK89LyVpW4WQBOe4WumTrildYPZg0JlZDjQ8SmPpgLWaMSEe0QJh9NWnJZBIO4z9rAPL3DfFXaIQOmPbAik8oG7pxirBplzZhm4u1z2fsCXq-BvHCiRd_smUYh-bKqYZRZHoXLsuDHadDIrUhbS3fxMC2KPpiXrvHApOnK-njbAuMRvggfPeb0O__TMFgcACc4QIvSaqupqgNAt-k-pUn5CP8AZRsvcrv-GtsqiAAre1m7K8RaKfjEt7WgtNYz1UqymJBBgIr8RiHbb9U3u2Bxq5VzILD28OJQw0T14w2_iN-vaUWGc60nGtM27DuUc3VAeMzHrRY782D3Wiw9wFPipw_sii-vCAcbLRR2mV9aUDRnN8-wjZg-EH-GGeDEh2TVRfhZkh1uwbcgPrvPIWVriV5KfqsQBHyC9jKzzJ5oDhN2v7vuojcVThru4mhz59rfXNEpzx227QrGVkAULNJX7skMMLClTZo464LClB9XS0yQELFTtXy0?></g></svg>