<svg xmlns="http://www.w3.org/2000/svg" xmlns:xlink="http://www.w3.org/1999/xlink" contentStyleType="text/css" data-diagram-type="STATE" height="587px" preserveAspectRatio="none" style="width:994px;height:587px;background:#FFFFFF;" version="1.1" viewBox="0 0 994 587" width="994px" zoomAndPan="magnify"><defs/><g><path d="M272.5,117 L566.5,117 A12.5,12.5 0 0 1 579,129.5 L579,143.2969 L260,143.2969 L260,129.5 A12.5,12.5 0 0 1 272.5,117" fill="#F1F1F1"/><rect fill="none" height="354.2969" rx="12.5" ry="12.5" style="stroke:#181818;stroke-width:0.5;" width="319" x="260" y="117"/><line style="stroke:#181818;stroke-width:0.5;" x1="260" x2="579" y1="143.2969" y2="143.2969"/><text fill="#000000" font-family="sans-serif" font-size="14" lengthAdjust="spacing" textLength="114.2422" x="362.3789" y="134.9951">verRespuestas()</text><g id="verRespuestas.MostrandoRespuestas"><rect fill="#F1F1F1" height="50" rx="12.5" ry="12.5" style="stroke:#181818;stroke-width:0.5;" width="50" x="272" y="245.2969"/><line style="stroke:#181818;stroke-width:0.5;" x1="272" x2="322" y1="271.5938" y2="271.5938"/><text fill="#000000" font-family="sans-serif" font-size="14" lengthAdjust="spacing" textLength="4.4502" x="294.7749" y="263.292">&#160;</text></g><g id="verRespuestas.FiltrandoRespuestas"><rect fill="#F1F1F1" height="50" rx="12.5" ry="12.5" style="stroke:#181818;stroke-width:0.5;" width="50" x="272" y="411.2969"/><line style="stroke:#181818;stroke-width:0.5;" x1="272" x2="322" y1="437.5938" y2="437.5938"/><text fill="#000000" font-family="sans-serif" font-size="14" lengthAdjust="spacing" textLength="4.4502" x="294.7749" y="429.292">&#160;</text></g><ellipse cx="297" cy="164.2969" fill="#222222" rx="10" ry="10" style="stroke:#222222;stroke-width:1;"/><!--link *start*verRespuestas to MostrandoRespuestas--><g class="link" data-entity-1=".start.verRespuestas" data-entity-2="MostrandoRespuestas" data-source-line="8" data-uid="lnk3" id="link_.start.verRespuestas_MostrandoRespuestas"><path d="M297,174.5269 C297,190.2369 297,216.6569 297,239.1669" fill="none" id="*start*verRespuestas-to-MostrandoRespuestas" style="stroke:#008000;stroke-width:1;"/><polygon fill="#008000" points="297,245.1669,301,236.1669,297,240.1669,293,236.1669,297,245.1669" style="stroke:#008000;stroke-width:1;"/><path d="M302,197.2969 L302,222.2969 L533,222.2969 L533,207.2969 L523,197.2969 L302,197.2969" fill="#FEFFDD" style="stroke:#181818;stroke-width:0.5;"/><path d="M523,197.2969 L523,207.2969 L533,207.2969 L523,197.2969" fill="#FEFFDD" style="stroke:#181818;stroke-width:0.5;"/><text fill="#000000" font-family="sans-serif" font-size="13" font-weight="bold" lengthAdjust="spacing" textLength="60.5313" x="308" y="214.3638">Docente</text><text fill="#000000" font-family="sans-serif" font-size="13" lengthAdjust="spacing" textLength="146.2881" x="372.6636" y="214.3638">solicita ver respuestas</text></g><!--link MostrandoRespuestas to FiltrandoRespuestas--><g class="link" data-entity-1="MostrandoRespuestas" data-entity-2="FiltrandoRespuestas" data-source-line="13" data-uid="lnk4" id="link_MostrandoRespuestas_FiltrandoRespuestas"><path d="M297,295.4969 C297,326.5869 297,374.2469 297,405.2669" fill="none" id="MostrandoRespuestas-to-FiltrandoRespuestas" style="stroke:#008000;stroke-width:1;"/><polygon fill="#008000" points="297,411.2669,301,402.2669,297,406.2669,293,402.2669,297,411.2669" style="stroke:#008000;stroke-width:1;"/><path d="M302,318.2969 L302,388.2969 L570,388.2969 L570,328.2969 L560,318.2969 L302,318.2969" fill="#FEFFDD" style="stroke:#181818;stroke-width:0.5;"/><path d="M560,318.2969 L560,328.2969 L570,328.2969 L560,318.2969" fill="#FEFFDD" style="stroke:#181818;stroke-width:0.5;"/><text fill="#000000" font-family="sans-serif" font-size="13" font-weight="bold" lengthAdjust="spacing" textLength="58.9063" x="308" y="335.3638">Sistema</text><text fill="#000000" font-family="sans-serif" font-size="13" lengthAdjust="spacing" textLength="184.5898" x="371.0386" y="335.3638">presenta lista de respuestas</text><text fill="#000000" font-family="sans-serif" font-size="13" lengthAdjust="spacing" textLength="210.6914" x="308" y="350.4966">&#8226; Contenido, correcto/incorrecto</text><text fill="#000000" font-family="sans-serif" font-size="13" lengthAdjust="spacing" textLength="4.1323" x="308" y="365.6294">&#160;</text><text fill="#000000" font-family="sans-serif" font-size="13" lengthAdjust="spacing" textLength="188.481" x="308" y="380.7622">&#8226; Permite solicitar filtrar lista</text></g><!--link FiltrandoRespuestas to FiltrandoRespuestas--><g class="link" data-entity-1="FiltrandoRespuestas" data-entity-2="FiltrandoRespuestas" data-source-line="21" data-uid="lnk5" id="link_FiltrandoRespuestas_FiltrandoRespuestas"><path d="M322.18,420.9869 C331.91,420.2969 340,425.4069 340,436.2969 C340,447.1869 337.895,452.7213 328.165,452.0313" fill="none" id="FiltrandoRespuestas-to-FiltrandoRespuestas" style="stroke:#008000;stroke-width:1;"/><polygon fill="#008000" points="322.18,451.6069,330.8745,456.2335,327.1675,451.9606,331.4404,448.2535,322.18,451.6069" style="stroke:#008000;stroke-width:1;"/><path d="M345,416.2969 L345,456.2969 L568,456.2969 L568,426.2969 L558,416.2969 L345,416.2969" fill="#FEFFDD" style="stroke:#181818;stroke-width:0.5;"/><path d="M558,416.2969 L558,426.2969 L568,426.2969 L558,416.2969" fill="#FEFFDD" style="stroke:#181818;stroke-width:0.5;"/><text fill="#000000" font-family="sans-serif" font-size="13" font-weight="bold" lengthAdjust="spacing" textLength="60.5313" x="351" y="433.3638">Docente</text><text fill="#000000" font-family="sans-serif" font-size="13" lengthAdjust="spacing" textLength="116.6509" x="415.6636" y="433.3638">solicita filtrar lista</text><text fill="#000000" font-family="sans-serif" font-size="13" font-weight="bold" lengthAdjust="spacing" textLength="58.9063" x="351" y="448.4966">Sistema</text><text fill="#000000" font-family="sans-serif" font-size="13" lengthAdjust="spacing" textLength="139.4199" x="414.0386" y="448.4966">presenta lista filtrada</text></g><g id="PREGUNTA_ABIERTO"><rect fill="#F1F1F1" height="50" rx="12.5" ry="12.5" style="stroke:#181818;stroke-width:0.5;" width="165.168" x="7" y="7"/><line style="stroke:#181818;stroke-width:0.5;" x1="7" x2="172.168" y1="33.2969" y2="33.2969"/><text fill="#000000" font-family="sans-serif" font-size="14" lengthAdjust="spacing" textLength="145.168" x="17" y="24.9951">PREGUNTA_ABIERTO</text></g><g id="RESPUESTA_ABIERTO"><rect fill="#F1F1F1" height="50" rx="12.5" ry="12.5" style="stroke:#181818;stroke-width:0.5;" width="170.4658" x="207.5" y="7"/><line style="stroke:#181818;stroke-width:0.5;" x1="207.5" x2="377.9658" y1="33.2969" y2="33.2969"/><text fill="#000000" font-family="sans-serif" font-size="14" lengthAdjust="spacing" textLength="150.4658" x="217.5" y="24.9951">RESPUESTA_ABIERTO</text></g><g id="PREGUNTA_CONTEXTUAL_ABIERTO"><rect fill="#F1F1F1" height="50" rx="12.5" ry="12.5" style="stroke:#181818;stroke-width:0.5;" width="266.5996" x="413" y="7"/><line style="stroke:#181818;stroke-width:0.5;" x1="413" x2="679.5996" y1="33.2969" y2="33.2969"/><text fill="#000000" font-family="sans-serif" font-size="14" lengthAdjust="spacing" textLength="246.5996" x="423" y="24.9951">PREGUNTA_CONTEXTUAL_ABIERTO</text></g><g id="RESPUESTA_CONTEXTUAL_ABIERTO"><rect fill="#F1F1F1" height="50" rx="12.5" ry="12.5" style="stroke:#181818;stroke-width:0.5;" width="271.8975" x="715.5" y="7"/><line style="stroke:#181818;stroke-width:0.5;" x1="715.5" x2="987.3975" y1="33.2969" y2="33.2969"/><text fill="#000000" font-family="sans-serif" font-size="14" lengthAdjust="spacing" textLength="251.8975" x="725.5" y="24.9951">RESPUESTA_CONTEXTUAL_ABIERTO</text></g><g id="RESPUESTAS_ABIERTO"><rect fill="#F1F1F1" height="50" rx="12.5" ry="12.5" style="stroke:#181818;stroke-width:0.5;" width="179.3525" x="193" y="531"/><line style="stroke:#181818;stroke-width:0.5;" x1="193" x2="372.3525" y1="557.2969" y2="557.2969"/><text fill="#000000" font-family="sans-serif" font-size="14" lengthAdjust="spacing" textLength="159.3525" x="203" y="548.9951">RESPUESTAS_ABIERTO</text></g><g id="RESPUESTAS_CONTEXTUALES_ABIERTO"><rect fill="#F1F1F1" height="50" rx="12.5" ry="12.5" style="stroke:#181818;stroke-width:0.5;" width="298.5166" x="407" y="531"/><line style="stroke:#181818;stroke-width:0.5;" x1="407" x2="705.5166" y1="557.2969" y2="557.2969"/><text fill="#000000" font-family="sans-serif" font-size="14" lengthAdjust="spacing" textLength="278.5166" x="417" y="548.9951">RESPUESTAS_CONTEXTUALES_ABIERTO</text></g><!--link PREGUNTA_ABIERTO to verRespuestas--><g class="link" data-entity-1="PREGUNTA_ABIERTO" data-entity-2="verRespuestas" data-source-line="28" data-uid="lnk7" id="link_PREGUNTA_ABIERTO_verRespuestas"><path d="M120.25,57.23 C152.81,82.88 202.0468,121.677 255.2468,163.587" fill="none" id="PREGUNTA_ABIERTO-to-verRespuestas" style="stroke:#008000;stroke-width:1;"/><polygon fill="#008000" points="259.96,167.3,255.3655,158.5885,256.0324,164.2059,250.4149,164.8727,259.96,167.3" style="stroke:#008000;stroke-width:1;"/></g><!--link RESPUESTA_ABIERTO to verRespuestas--><g class="link" data-entity-1="RESPUESTA_ABIERTO" data-entity-2="verRespuestas" data-source-line="29" data-uid="lnk9" id="link_RESPUESTA_ABIERTO_verRespuestas"><path d="M304.45,57.46 C311.86,72.63 319.475,88.2396 330.845,111.4996" fill="none" id="RESPUESTA_ABIERTO-to-verRespuestas" style="stroke:#008000;stroke-width:1;"/><polygon fill="#008000" points="333.48,116.89,333.1212,107.0477,331.2842,112.398,325.9339,110.561,333.48,116.89" style="stroke:#008000;stroke-width:1;"/></g><!--link PREGUNTA_CONTEXTUAL_ABIERTO to verRespuestas--><g class="link" data-entity-1="PREGUNTA_CONTEXTUAL_ABIERTO" data-entity-2="verRespuestas" data-source-line="30" data-uid="lnk11" id="link_PREGUNTA_CONTEXTUAL_ABIERTO_verRespuestas"><path d="M534.55,57.46 C527.14,72.63 519.525,88.2396 508.155,111.4996" fill="none" id="PREGUNTA_CONTEXTUAL_ABIERTO-to-verRespuestas" style="stroke:#008000;stroke-width:1;"/><polygon fill="#008000" points="505.52,116.89,513.0661,110.561,507.7158,112.398,505.8788,107.0477,505.52,116.89" style="stroke:#008000;stroke-width:1;"/></g><!--link RESPUESTA_CONTEXTUAL_ABIERTO to verRespuestas--><g class="link" data-entity-1="RESPUESTA_CONTEXTUAL_ABIERTO" data-entity-2="verRespuestas" data-source-line="31" data-uid="lnk13" id="link_RESPUESTA_CONTEXTUAL_ABIERTO_verRespuestas"><path d="M811.25,57.23 C758.46,88.99 667.8808,143.5161 584.2708,193.8361" fill="none" id="RESPUESTA_CONTEXTUAL_ABIERTO-to-verRespuestas" style="stroke:#008000;stroke-width:1;"/><polygon fill="#008000" points="579.13,196.93,588.9038,195.7163,583.414,194.3517,584.7785,188.8619,579.13,196.93" style="stroke:#008000;stroke-width:1;"/></g><!--link verRespuestas to RESPUESTAS_ABIERTO--><g class="link" data-entity-1="verRespuestas" data-entity-2="RESPUESTAS_ABIERTO" data-source-line="33" data-uid="lnk15" id="link_verRespuestas_RESPUESTAS_ABIERTO"><path d="M326.6,471.3 C314.29,494.67 305.989,510.4328 297.999,525.5828" fill="none" id="verRespuestas-to-RESPUESTAS_ABIERTO" style="stroke:#008000;stroke-width:1;"/><polygon fill="#008000" points="295.2,530.89,302.9365,524.7952,297.5325,526.4674,295.8603,521.0633,295.2,530.89" style="stroke:#008000;stroke-width:1;"/></g><!--link verRespuestas to RESPUESTAS_CONTEXTUALES_ABIERTO--><g class="link" data-entity-1="verRespuestas" data-entity-2="RESPUESTAS_CONTEXTUALES_ABIERTO" data-source-line="35" data-uid="lnk17" id="link_verRespuestas_RESPUESTAS_CONTEXTUALES_ABIERTO"><path d="M512.4,471.3 C524.71,494.67 533.011,510.4328 541.001,525.5828" fill="none" id="verRespuestas-to-RESPUESTAS_CONTEXTUALES_ABIERTO" style="stroke:#008000;stroke-width:1;"/><polygon fill="#008000" points="543.8,530.89,543.1397,521.0633,541.4675,526.4674,536.0635,524.7952,543.8,530.89" style="stroke:#008000;stroke-width:1;"/></g><!--SRC=[dPFXIiCm483_vocE-KV5iHSOXJch2BgLjWDXZ96rfuHrIKcYC4JmMNmqdyHhIrkpTRAPb9A4x-w-2wrP2vbppJUG2ObscoFaAjiM6yQCvHRX3NM89dz5sXgWf-USd5_qu9qne57nFPf4FIfZDPUfQj5zw5PaUr19pIyNq9-VlMX4kUXx1xD9HScKBEpNvS5mvTse1AN5uM3bWL6PI8JbHHUWtLYKQHLFWpMlZagEIPVo8PD868iRNfhaL9sqE04K0odkwdn_Vi5OaRWKgRg2H6cDYLK38UjbArcm0UgDe9frYngUIpLTLN1QR2CxzF_TNkT5xqlyVH4Ld-xuVZ0MXFxTR1AFbgFhUp-Cfuwcymcoq8-2cHyTnJPfnzD9x3_5iz73IHLE2cFkp_CRR396TPuZwLR0Rq9_0000]--></g></svg>