<svg xmlns="http://www.w3.org/2000/svg" xmlns:xlink="http://www.w3.org/1999/xlink" contentStyleType="text/css" data-diagram-type="STATE" height="450px" preserveAspectRatio="none" style="width:349px;height:450px;background:#FFFFFF;" version="1.1" viewBox="0 0 349 450" width="349px" zoomAndPan="magnify"><title>Diagrama de Estados - Entidad Pregunta</title><defs/><g><g class="title" data-source-line="1"><text fill="#000000" font-family="sans-serif" font-size="14" font-weight="bold" lengthAdjust="spacing" textLength="321.248" x="10" y="22.9951">Diagrama de Estados - Entidad Pregunta</text></g><g id="construccion"><rect fill="#F1F1F1" height="50" rx="12.5" ry="12.5" style="stroke:#181818;stroke-width:0.5;" width="133.5176" x="77.1961" y="140.2969"/><line style="stroke:#181818;stroke-width:0.5;" x1="77.1961" x2="210.7137" y1="166.5938" y2="166.5938"/><text fill="#000000" font-family="sans-serif" font-size="14" lengthAdjust="spacing" textLength="113.5176" x="87.1961" y="158.292">En Construcci&#243;n</text></g><g id="habilitada"><rect fill="#F1F1F1" height="50" rx="12.5" ry="12.5" style="stroke:#181818;stroke-width:0.5;" width="91.1963" x="98.6961" y="267.2969"/><line style="stroke:#181818;stroke-width:0.5;" x1="98.6961" x2="189.8924" y1="293.5938" y2="293.5938"/><text fill="#000000" font-family="sans-serif" font-size="14" lengthAdjust="spacing" textLength="71.1963" x="108.6961" y="285.292">Habilitada</text></g><g id="inhabilitada"><rect fill="#F1F1F1" height="50" rx="12.5" ry="12.5" style="stroke:#181818;stroke-width:0.5;" width="102.5439" x="92.6961" y="394.2969"/><line style="stroke:#181818;stroke-width:0.5;" x1="92.6961" x2="195.24" y1="420.5938" y2="420.5938"/><text fill="#000000" font-family="sans-serif" font-size="14" lengthAdjust="spacing" textLength="82.5439" x="102.6961" y="412.292">Inhabilitada</text></g><ellipse cx="144.1961" cy="53.2969" fill="#222222" rx="10" ry="10" style="stroke:#222222;stroke-width:1;"/><!--link *start* to construccion--><g class="link" data-entity-1=".start." data-entity-2="construccion" data-source-line="7" data-uid="lnk3" id="link_.start._construccion"><path d="M144.1961,63.2969 C144.1961,79.9269 144.1961,109.9569 144.1961,134.1669" fill="none" id="*start*-to-construccion" style="stroke:#181818;stroke-width:1;"/><polygon fill="#181818" points="144.1961,140.1669,148.1961,131.1669,144.1961,135.1669,140.1961,131.1669,144.1961,140.1669" style="stroke:#181818;stroke-width:1;"/><text fill="#000000" font-family="sans-serif" font-size="13" lengthAdjust="spacing" textLength="35.731" x="145.1961" y="106.3638">Crear</text></g><!--link construccion to habilitada--><g class="link" data-entity-1="construccion" data-entity-2="habilitada" data-source-line="8" data-uid="lnk4" id="link_construccion_habilitada"><path d="M144.1961,190.3969 C144.1961,212.5369 144.1961,239.1569 144.1961,261.2669" fill="none" id="construccion-to-habilitada" style="stroke:#181818;stroke-width:1;"/><polygon fill="#181818" points="144.1961,267.2669,148.1961,258.2669,144.1961,262.2669,140.1961,258.2669,144.1961,267.2669" style="stroke:#181818;stroke-width:1;"/><text fill="#000000" font-family="sans-serif" font-size="13" lengthAdjust="spacing" textLength="53.187" x="145.1961" y="233.3638">Guardar</text></g><!--link habilitada to inhabilitada--><g class="link" data-entity-1="habilitada" data-entity-2="inhabilitada" data-source-line="10" data-uid="lnk5" id="link_habilitada_inhabilitada"><path d="M105.5861,317.3869 C95.7961,325.5769 86.5561,335.6469 81.1961,347.2969 C73.0661,364.9669 81.0928,377.7268 97.2028,390.3468" fill="none" id="habilitada-to-inhabilitada" style="stroke:#181818;stroke-width:1;"/><polygon fill="#181818" points="101.9261,394.0469,97.3079,385.3479,97.99,390.9635,92.3744,391.6456,101.9261,394.0469" style="stroke:#181818;stroke-width:1;"/><text fill="#000000" font-family="sans-serif" font-size="13" lengthAdjust="spacing" textLength="78.4824" x="82.1961" y="360.3638">Deshabilitar</text></g><!--link inhabilitada to habilitada--><g class="link" data-entity-1="inhabilitada" data-entity-2="habilitada" data-source-line="11" data-uid="lnk6" id="link_inhabilitada_habilitada"><path d="M157.2561,394.2769 C163.1461,380.6669 168.1861,363.2169 165.1961,347.2969 C163.3061,337.2169 161.8886,332.1275 158.0986,323.0075" fill="none" id="inhabilitada-to-habilitada" style="stroke:#181818;stroke-width:1;"/><polygon fill="#181818" points="155.7961,317.4669,155.5561,327.3128,157.7149,322.0841,162.9436,324.2428,155.7961,317.4669" style="stroke:#181818;stroke-width:1;"/><text fill="#000000" font-family="sans-serif" font-size="13" lengthAdjust="spacing" textLength="55.2373" x="166.1961" y="360.3638">Habilitar</text></g><!--link habilitada to habilitada--><g class="link" data-entity-1="habilitada" data-entity-2="habilitada" data-source-line="13" data-uid="lnk7" id="link_habilitada_habilitada"><path d="M189.7161,280.7769 C208.6461,279.9769 224.6961,283.8169 224.6961,292.2969 C224.6961,300.7769 214.6408,304.8702 195.7108,304.0702" fill="none" id="habilitada-to-habilitada" style="stroke:#181818;stroke-width:1;"/><polygon fill="#181818" points="189.7161,303.8169,198.5392,308.1933,194.7116,304.028,198.877,300.2005,189.7161,303.8169" style="stroke:#181818;stroke-width:1;"/><text fill="#000000" font-family="sans-serif" font-size="13" lengthAdjust="spacing" textLength="38.4858" x="230.6961" y="296.8638">Editar</text></g><!--link inhabilitada to inhabilitada--><g class="link" data-entity-1="inhabilitada" data-entity-2="inhabilitada" data-source-line="14" data-uid="lnk8" id="link_inhabilitada_inhabilitada"><path d="M195.7061,407.6969 C214.8961,407.3169 230.6961,411.1869 230.6961,419.2969 C230.6961,427.4069 220.8949,431.3957 201.7049,431.0157" fill="none" id="inhabilitada-to-inhabilitada" style="stroke:#181818;stroke-width:1;"/><polygon fill="#181818" points="195.7061,430.8969,204.6251,435.0743,200.7051,430.9959,204.7835,427.0758,195.7061,430.8969" style="stroke:#181818;stroke-width:1;"/><text fill="#000000" font-family="sans-serif" font-size="13" lengthAdjust="spacing" textLength="38.4858" x="236.6961" y="423.8638">Editar</text></g><!--SRC=[VSr13e9030NGVK_nmzA42x1m0nDnvzwugCm4ck2GT8QJUGGl9cWWZ1gN_NtzZH9xXqguLRunh8C9aUqGaCFuA9OjJkhQqKSccbRH8JCUvU13rB5fv77t6JYWMPF1Ov4rNwMNgP1Vfbl71HnzbnBP120wxox8yttQNg1Knqf9EAlDQO73o6edHPjqHic70fKBowoKxBuQwzNHFsRixwwFns_s1000]--></g></svg>