<svg xmlns="http://www.w3.org/2000/svg" xmlns:xlink="http://www.w3.org/1999/xlink" contentStyleType="text/css" data-diagram-type="SALT" height="432px" preserveAspectRatio="none" style="width:468px;height:432px;background:#FFFFFF;" version="1.1" viewBox="0 0 468 432" width="468px" zoomAndPan="magnify"><defs/><g><text fill="#000000" font-family="sans-serif" font-size="12" font-weight="bold" lengthAdjust="spacing" textLength="141.5449" x="6" y="17.1387">EDITAR ASIGNATURA</text><line style="stroke:#AAAAAA;stroke-width:1;" x1="6" x2="461" y1="24.4688" y2="24.4688"/><line style="stroke:#AAAAAA;stroke-width:1;" x1="6" x2="461" y1="26.4688" y2="26.4688"/><text fill="#000000" font-family="sans-serif" font-size="12" font-weight="bold" lengthAdjust="spacing" textLength="153.5332" x="7" y="42.1074">Datos de la asignatura</text><line style="stroke:#AAAAAA;stroke-width:1;" x1="7" x2="460" y1="50.4375" y2="50.4375"/><text fill="#000000" font-family="sans-serif" font-size="12" lengthAdjust="spacing" textLength="45.6738" x="8" y="67.0762">C&#243;digo:</text><text fill="#000000" font-family="sans-serif" font-size="12" lengthAdjust="spacing" textLength="53.127" x="139.8145" y="67.0762">MAT-201</text><line style="stroke:#000000;stroke-width:1;" x1="137.8145" x2="364.8145" y1="69.9063" y2="69.9063"/><line style="stroke:#000000;stroke-width:1;" x1="137.8145" x2="137.8145" y1="66.9063" y2="68.9063"/><line style="stroke:#000000;stroke-width:1;" x1="364.8145" x2="364.8145" y1="66.9063" y2="68.9063"/><text fill="#000000" font-family="sans-serif" font-size="12" lengthAdjust="spacing" textLength="56.8711" x="8" y="85.0449">T&#237;tulo (*):</text><text fill="#000000" font-family="sans-serif" font-size="12" lengthAdjust="spacing" textLength="87.9727" x="139.8145" y="85.0449">Matem&#225;ticas II</text><line style="stroke:#000000;stroke-width:1;" x1="137.8145" x2="364.8145" y1="87.875" y2="87.875"/><line style="stroke:#000000;stroke-width:1;" x1="137.8145" x2="137.8145" y1="84.875" y2="86.875"/><line style="stroke:#000000;stroke-width:1;" x1="364.8145" x2="364.8145" y1="84.875" y2="86.875"/><text fill="#000000" font-family="sans-serif" font-size="12" lengthAdjust="spacing" textLength="126.8145" x="8" y="103.0137">Curso acad&#233;mico (*):</text><rect fill="#EEEEEE" height="16.9688" style="stroke:#000000;stroke-width:1;" width="87" x="136.8145" y="91.875"/><text fill="#000000" font-family="sans-serif" font-size="12" lengthAdjust="spacing" textLength="65.1211" x="138.8145" y="105.0137">2024/2025</text><line style="stroke:#000000;stroke-width:1;" x1="212.8145" x2="212.8145" y1="91.875" y2="108.8438"/><polygon fill="#000000" points="215.8145,97.875,221.8145,97.875,218.8145,103.8438" style="stroke:#000000;stroke-width:1;"/><line style="stroke:#AAAAAA;stroke-width:1;" x1="7" x2="460" y1="116.3438" y2="116.3438"/><text fill="#000000" font-family="sans-serif" font-size="12" font-weight="bold" lengthAdjust="spacing" textLength="123.6035" x="7" y="131.9824">Grados asociados:</text><text fill="#000000" font-family="sans-serif" font-size="12" lengthAdjust="spacing" textLength="132.5801" x="28" y="148.9512">Ingenier&#237;a Inform&#225;tica</text><rect fill="none" height="10" style="stroke:#000000;stroke-width:1.5;" width="10" x="10" y="139.7969"/><polygon fill="#000000" points="11,143.8125,14,146.8125,21,137.8125,14,144.8125" style="stroke:#000000;stroke-width:1.5;"/><text fill="#000000" font-family="sans-serif" font-size="12" lengthAdjust="spacing" textLength="120.1816" x="28" y="164.9199">Ingenier&#237;a Industrial</text><rect fill="none" height="10" style="stroke:#000000;stroke-width:1.5;" width="10" x="10" y="155.7656"/><polygon fill="#000000" points="11,159.7813,14,162.7813,21,153.7813,14,160.7813" style="stroke:#000000;stroke-width:1.5;"/><text fill="#000000" font-family="sans-serif" font-size="12" lengthAdjust="spacing" textLength="120.4805" x="28" y="180.8887">Ingenier&#237;a Mec&#225;nica</text><rect fill="none" height="10" style="stroke:#000000;stroke-width:1.5;" width="10" x="10" y="171.7344"/><text fill="#000000" font-family="sans-serif" font-size="12" lengthAdjust="spacing" textLength="74.9824" x="28" y="196.8574">Arquitectura</text><rect fill="none" height="10" style="stroke:#000000;stroke-width:1.5;" width="10" x="10" y="187.7031"/><line style="stroke:#AAAAAA;stroke-width:1;stroke-dasharray:1,2;" x1="8" x2="161.5801" y1="205.1875" y2="205.1875"/><line style="stroke:#000000;stroke-width:1;" x1="7" x2="161.5801" y1="136.8125" y2="136.8125"/><line style="stroke:#000000;stroke-width:1;" x1="7" x2="161.5801" y1="208.6875" y2="208.6875"/><line style="stroke:#000000;stroke-width:1;" x1="7" x2="7" y1="136.8125" y2="152.7813"/><line style="stroke:#000000;stroke-width:1;" x1="161.5801" x2="161.5801" y1="152.7813" y2="168.75"/><line style="stroke:#000000;stroke-width:1;" x1="161.5801" x2="161.5801" y1="136.8125" y2="152.7813"/><line style="stroke:#000000;stroke-width:1;" x1="7" x2="7" y1="200.6875" y2="208.6875"/><line style="stroke:#000000;stroke-width:1;" x1="7" x2="7" y1="184.7188" y2="200.6875"/><line style="stroke:#000000;stroke-width:1;" x1="161.5801" x2="161.5801" y1="200.6875" y2="208.6875"/><line style="stroke:#000000;stroke-width:1;" x1="7" x2="7" y1="168.75" y2="184.7188"/><line style="stroke:#000000;stroke-width:1;" x1="161.5801" x2="161.5801" y1="184.7188" y2="200.6875"/><line style="stroke:#000000;stroke-width:1;" x1="7" x2="7" y1="152.7813" y2="168.75"/><line style="stroke:#000000;stroke-width:1;" x1="161.5801" x2="161.5801" y1="168.75" y2="184.7188"/><rect fill="none" height="71.875" style="stroke:#000000;stroke-width:1;" width="15" x="165.5801" y="136.8125"/><line style="stroke:#000000;stroke-width:1;" x1="165.5801" x2="180.5801" y1="148.8125" y2="148.8125"/><line style="stroke:#000000;stroke-width:1;" x1="165.5801" x2="180.5801" y1="196.6875" y2="196.6875"/><path d="M172.5801,140.8125 L175.5801,145.8125 L169.5801,145.8125 L172.5801,140.8125" fill="#000000"/><path d="M172.5801,205.6875 L175.5801,200.6875 L169.5801,200.6875 L172.5801,205.6875" fill="#000000"/><line style="stroke:#AAAAAA;stroke-width:1;" x1="7" x2="460" y1="214.1875" y2="214.1875"/><text fill="#000000" font-family="sans-serif" font-size="12" font-weight="bold" lengthAdjust="spacing" textLength="155.5664" x="7" y="229.8262">Alumnos matriculados:</text><text fill="#000000" font-family="sans-serif" font-size="12" lengthAdjust="spacing" textLength="68.7598" x="28" y="246.7949">Pepe L&#243;pez</text><rect fill="none" height="10" style="stroke:#000000;stroke-width:1.5;" width="10" x="10" y="237.6406"/><polygon fill="#000000" points="11,241.6563,14,244.6563,21,235.6563,14,242.6563" style="stroke:#000000;stroke-width:1.5;"/><text fill="#000000" font-family="sans-serif" font-size="12" lengthAdjust="spacing" textLength="87.6035" x="28" y="262.7637">Mar&#237;a S&#225;nchez</text><rect fill="none" height="10" style="stroke:#000000;stroke-width:1.5;" width="10" x="10" y="253.6094"/><polygon fill="#000000" points="11,257.625,14,260.625,21,251.625,14,258.625" style="stroke:#000000;stroke-width:1.5;"/><text fill="#000000" font-family="sans-serif" font-size="12" lengthAdjust="spacing" textLength="97.7813" x="28" y="278.7324">Adr&#237;an Gonz&#225;lez</text><rect fill="none" height="10" style="stroke:#000000;stroke-width:1.5;" width="10" x="10" y="269.5781"/><text fill="#000000" font-family="sans-serif" font-size="12" lengthAdjust="spacing" textLength="94.4121" x="28" y="294.7012">Claudia Hidalgo</text><rect fill="none" height="10" style="stroke:#000000;stroke-width:1.5;" width="10" x="10" y="285.5469"/><line style="stroke:#AAAAAA;stroke-width:1;stroke-dasharray:1,2;" x1="8" x2="126.7813" y1="303.0313" y2="303.0313"/><line style="stroke:#000000;stroke-width:1;" x1="7" x2="126.7813" y1="234.6563" y2="234.6563"/><line style="stroke:#000000;stroke-width:1;" x1="7" x2="126.7813" y1="306.5313" y2="306.5313"/><line style="stroke:#000000;stroke-width:1;" x1="7" x2="7" y1="234.6563" y2="250.625"/><line style="stroke:#000000;stroke-width:1;" x1="126.7813" x2="126.7813" y1="250.625" y2="266.5938"/><line style="stroke:#000000;stroke-width:1;" x1="126.7813" x2="126.7813" y1="234.6563" y2="250.625"/><line style="stroke:#000000;stroke-width:1;" x1="7" x2="7" y1="298.5313" y2="306.5313"/><line style="stroke:#000000;stroke-width:1;" x1="7" x2="7" y1="282.5625" y2="298.5313"/><line style="stroke:#000000;stroke-width:1;" x1="126.7813" x2="126.7813" y1="298.5313" y2="306.5313"/><line style="stroke:#000000;stroke-width:1;" x1="7" x2="7" y1="266.5938" y2="282.5625"/><line style="stroke:#000000;stroke-width:1;" x1="126.7813" x2="126.7813" y1="282.5625" y2="298.5313"/><line style="stroke:#000000;stroke-width:1;" x1="7" x2="7" y1="250.625" y2="266.5938"/><line style="stroke:#000000;stroke-width:1;" x1="126.7813" x2="126.7813" y1="266.5938" y2="282.5625"/><rect fill="none" height="71.875" style="stroke:#000000;stroke-width:1;" width="15" x="130.7813" y="234.6563"/><line style="stroke:#000000;stroke-width:1;" x1="130.7813" x2="145.7813" y1="246.6563" y2="246.6563"/><line style="stroke:#000000;stroke-width:1;" x1="130.7813" x2="145.7813" y1="294.5313" y2="294.5313"/><path d="M137.7813,238.6563 L140.7813,243.6563 L134.7813,243.6563 L137.7813,238.6563" fill="#000000"/><path d="M137.7813,303.5313 L140.7813,298.5313 L134.7813,298.5313 L137.7813,303.5313" fill="#000000"/><line style="stroke:#AAAAAA;stroke-width:1;" x1="7" x2="460" y1="312.0313" y2="312.0313"/><rect fill="#EEEEEE" height="17.9688" rx="5" ry="5" style="stroke:#000000;stroke-width:2.5;" width="108" x="9.5" y="319.0313"/><text fill="#000000" font-family="sans-serif" font-size="12" lengthAdjust="spacing" textLength="85.4121" x="20.7939" y="332.1699">Ver preguntas</text><line style="stroke:#AAAAAA;stroke-width:1.5;" x1="7" x2="460" y1="345" y2="345"/><text fill="#000000" font-family="sans-serif" font-size="12" font-style="italic" lengthAdjust="spacing" textLength="142.1309" x="7" y="376.6074">(*) Campos obligatorios</text><line style="stroke:#AAAAAA;stroke-width:1.5;" x1="7" x2="460" y1="384.9375" y2="384.9375"/><rect fill="#EEEEEE" height="17.9688" rx="5" ry="5" style="stroke:#000000;stroke-width:2.5;" width="124" x="10.5" y="408.9063"/><text fill="#000000" font-family="sans-serif" font-size="12" lengthAdjust="spacing" textLength="103.0957" x="20.9521" y="422.0449">Guardar cambios</text><rect fill="#EEEEEE" height="17.9688" rx="5" ry="5" style="stroke:#000000;stroke-width:2.5;" width="84" x="141.5" y="408.9063"/><text fill="#000000" font-family="sans-serif" font-size="12" lengthAdjust="spacing" textLength="49.166" x="158.917" y="422.0449">Eliminar</text><rect fill="#EEEEEE" height="17.9688" rx="5" ry="5" style="stroke:#000000;stroke-width:2.5;" width="148" x="232.5" y="408.9063"/><text fill="#000000" font-family="sans-serif" font-size="12" lengthAdjust="spacing" textLength="115.0547" x="248.9727" y="422.0449">Generar Examenes</text><rect fill="#EEEEEE" height="17.9688" rx="5" ry="5" style="stroke:#000000;stroke-width:2.5;" width="68" x="387.5" y="408.9063"/><text fill="#000000" font-family="sans-serif" font-size="12" lengthAdjust="spacing" textLength="52.9395" x="395.0303" y="422.0449">Cancelar</text><rect fill="none" height="71.875" style="stroke:#000000;stroke-width:1;" width="15" x="165.5801" y="136.8125"/><line style="stroke:#000000;stroke-width:1;" x1="165.5801" x2="180.5801" y1="148.8125" y2="148.8125"/><line style="stroke:#000000;stroke-width:1;" x1="165.5801" x2="180.5801" y1="196.6875" y2="196.6875"/><path d="M172.5801,140.8125 L175.5801,145.8125 L169.5801,145.8125 L172.5801,140.8125" fill="#000000"/><path d="M172.5801,205.6875 L175.5801,200.6875 L169.5801,200.6875 L172.5801,205.6875" fill="#000000"/><rect fill="none" height="71.875" style="stroke:#000000;stroke-width:1;" width="15" x="130.7813" y="234.6563"/><line style="stroke:#000000;stroke-width:1;" x1="130.7813" x2="145.7813" y1="246.6563" y2="246.6563"/><line style="stroke:#000000;stroke-width:1;" x1="130.7813" x2="145.7813" y1="294.5313" y2="294.5313"/><path d="M137.7813,238.6563 L140.7813,243.6563 L134.7813,243.6563 L137.7813,238.6563" fill="#000000"/><path d="M137.7813,303.5313 L140.7813,298.5313 L134.7813,298.5313 L137.7813,303.5313" fill="#000000"/><!--SRC=[fLJDJjj04BxxAKQSe5924gLLQuK8Dmcf8GQKEAXI5Ag9Tt5NMk-c-nEr_BqBnnuuyGX-iQu9DJKW5RLpiCSpttoURppUNMrG6OtS02NC-O5cgK1Z5NxPEnf7qr4m3e-y2m-STHRTGJ-CWp44at1u6CJJST3PNdJlapixE_VtDVG1taSZDH0A705BvhAci5gjT1zB2-lbTuIbqYy3bx0H1N6jrMZ2IxO1bV8ulpMMIzXyi-MNvMXebjyObg26C7nINtsxLLe29aZodnbB7dWkuRJLQBMttUNjQOc_AhsNLFqvZw52uWQ2MYQiyFpAA2ucOQM7sUSvX2AbWb6LtwBppwHwwFylG6ArKGnv5GPLM4IJ_4Oy8tEeG7sppD2a-5gLPBrU_mVP0RUPSBepT4qbbhzE-Z5TKXZbTqjw_YmNuRs2YUi_-VeqNmWWHLx0K8hp_8Q_WEXnj8GXV684UIh_L-NiX2fOAffQOL3FdmEkhqltaRp3kcwle8VPqer7BZXBtH-ZcDITRTPz9Sd5R6XH4LIGOBPmjNEtfpCOS9OnuQBhno4LLBcdmNVCdAlNuHwAX79KyxNCA-_AswM250U2vnrp56OQZM15bMPIGBDUB7wzsTYCBOL3kO966veDlzNmsnyWciHGvBUypU7n2BIqAg50MB692siSmPQtZok4iPiHowWFHqigzli7lmCm42kcf73z6M__97e4l6lNFZ834wfSAt0IUNrwXjOTMWEHIC94wiCqtgkzzqOeKekfuwR2wqd7gtxu82pdlm00]--></g></svg>