<?plantuml 1.2026.2?><svg xmlns="http://www.w3.org/2000/svg" xmlns:xlink="http://www.w3.org/1999/xlink" contentStyleType="text/css" data-diagram-type="SEQUENCE" height="878px" preserveAspectRatio="none" style="width:2307px;height:878px;background:#FFFFFF;" version="1.1" viewBox="0 0 2307 878" width="2307px" zoomAndPan="magnify"><title>Diagrama de Secuencia - Ver Docentes (Spring Boot + React)</title><defs/><g><text fill="#000000" font-family="sans-serif" font-size="14" font-weight="bold" lengthAdjust="spacing" textLength="483.7109" x="913.6362" y="27.9951">Diagrama de Secuencia - Ver Docentes (Spring Boot + React)</text><g><title>Frontend .React.</title><rect fill="#FFFFFF" height="292.4609" style="stroke:#181818;stroke-width:1;" width="10" x="419.3423" y="149.7266"/></g><g><title>Frontend .React.</title><rect fill="#FFFFFF" height="233.0625" style="stroke:#181818;stroke-width:1;" width="10" x="419.3423" y="539.7188"/></g><g><title>DocentesController</title><rect fill="#FFFFFF" height="203.9297" style="stroke:#181818;stroke-width:1;" width="10" x="716.2197" y="193.9922"/></g><g><title>DocentesController</title><rect fill="#FFFFFF" height="203.9297" style="stroke:#181818;stroke-width:1;" width="10" x="716.2197" y="539.7188"/></g><g><title>UsuarioService</title><rect fill="#FFFFFF" height="145.6641" style="stroke:#181818;stroke-width:1;" width="10" x="928.3052" y="223.125"/></g><g><title>UsuarioService</title><rect fill="#FFFFFF" height="145.6641" style="stroke:#181818;stroke-width:1;" width="10" x="928.3052" y="568.8516"/></g><g><title>UsuarioRepository</title><rect fill="#FFFFFF" height="87.3984" style="stroke:#181818;stroke-width:1;" width="10" x="1576.4937" y="252.2578"/></g><g><title>UsuarioRepository</title><rect fill="#FFFFFF" height="87.3984" style="stroke:#181818;stroke-width:1;" width="10" x="1576.4937" y="597.9844"/></g><g><title>Base de Datos .PostgreSQL.</title><rect fill="#FFFFFF" height="29.1328" style="stroke:#181818;stroke-width:1;" width="10" x="2185.3203" y="281.3906"/></g><g><title>Base de Datos .PostgreSQL.</title><rect fill="#FFFFFF" height="29.1328" style="stroke:#181818;stroke-width:1;" width="10" x="2185.3203" y="627.1172"/></g><rect fill="none" height="323.5938" style="stroke:#000000;stroke-width:1.5;" width="2291.9834" x="10" y="457.1875"/><g class="participant-lifeline" data-entity-uid="part1" data-qualified-name="Admin" id="part1-lifeline"><g><title>Administrador Institucional</title><rect fill="#000000" fill-opacity="0.00000" height="679.1875" width="8" x="113.5308" y="118.5938"/><line style="stroke:#181818;stroke-width:0.5;stroke-dasharray:5,5;" x1="117" x2="117" y1="118.5938" y2="797.7813"/></g></g><g class="participant-lifeline" data-entity-uid="part2" data-qualified-name="FE" id="part2-lifeline"><g><title>Frontend .React.</title><rect fill="#000000" fill-opacity="0.00000" height="679.1875" width="8" x="420.3423" y="118.5938"/><line style="stroke:#181818;stroke-width:0.5;stroke-dasharray:5,5;" x1="424.0474" x2="424.0474" y1="118.5938" y2="797.7813"/></g></g><g class="participant-lifeline" data-entity-uid="part3" data-qualified-name="Controller" id="part3-lifeline"><g><title>DocentesController</title><rect fill="#000000" fill-opacity="0.00000" height="679.1875" width="8" x="717.2197" y="118.5938"/><line style="stroke:#181818;stroke-width:0.5;stroke-dasharray:5,5;" x1="720.6704" x2="720.6704" y1="118.5938" y2="797.7813"/></g></g><g class="participant-lifeline" data-entity-uid="part4" data-qualified-name="Service" id="part4-lifeline"><g><title>UsuarioService</title><rect fill="#000000" fill-opacity="0.00000" height="679.1875" width="8" x="929.3052" y="118.5938"/><line style="stroke:#181818;stroke-width:0.5;stroke-dasharray:5,5;" x1="932.8325" x2="932.8325" y1="118.5938" y2="797.7813"/></g></g><g class="participant-lifeline" data-entity-uid="part5" data-qualified-name="Repo" id="part5-lifeline"><g><title>UsuarioRepository</title><rect fill="#000000" fill-opacity="0.00000" height="679.1875" width="8" x="1577.4937" y="118.5938"/><line style="stroke:#181818;stroke-width:0.5;stroke-dasharray:5,5;" x1="1581.3555" x2="1581.3555" y1="118.5938" y2="797.7813"/></g></g><g class="participant-lifeline" data-entity-uid="part6" data-qualified-name="DB" id="part6-lifeline"><g><title>Base de Datos .PostgreSQL.</title><rect fill="#000000" fill-opacity="0.00000" height="679.1875" width="8" x="2186.3203" y="118.5938"/><line style="stroke:#181818;stroke-width:0.5;stroke-dasharray:5,5;" x1="2189.6572" x2="2189.6572" y1="118.5938" y2="797.7813"/></g></g><g class="participant participant-head" data-entity-uid="part1" data-qualified-name="Admin" id="part1-head"><text fill="#000000" font-family="sans-serif" font-size="14" lengthAdjust="spacing" textLength="189.0615" x="20" y="115.292">Administrador Institucional</text><ellipse cx="117.5308" cy="50.7969" fill="#E2E2F0" rx="8" ry="8" style="stroke:#181818;stroke-width:0.5;"/><path d="M117.5308,58.7969 L117.5308,85.7969 M104.5308,66.7969 L130.5308,66.7969 M117.5308,85.7969 L104.5308,100.7969 M117.5308,85.7969 L130.5308,100.7969" fill="none" style="stroke:#181818;stroke-width:0.5;"/></g><g class="participant participant-tail" data-entity-uid="part1" data-qualified-name="Admin" id="part1-tail"><text fill="#000000" font-family="sans-serif" font-size="14" lengthAdjust="spacing" textLength="189.0615" x="20" y="809.7764">Administrador Institucional</text><ellipse cx="117.5308" cy="821.5781" fill="#E2E2F0" rx="8" ry="8" style="stroke:#181818;stroke-width:0.5;"/><path d="M117.5308,829.5781 L117.5308,856.5781 M104.5308,837.5781 L130.5308,837.5781 M117.5308,856.5781 L104.5308,871.5781 M117.5308,856.5781 L130.5308,871.5781" fill="none" style="stroke:#181818;stroke-width:0.5;"/></g><g class="participant participant-head" data-entity-uid="part2" data-qualified-name="FE" id="part2-head"><rect fill="#E2E2F0" height="30.2969" rx="2.5" ry="2.5" style="stroke:#181818;stroke-width:0.5;" width="132.5898" x="358.0474" y="87.2969"/><text fill="#000000" font-family="sans-serif" font-size="14" lengthAdjust="spacing" textLength="118.5898" x="365.0474" y="107.292">Frontend (React)</text></g><g class="participant participant-tail" data-entity-uid="part2" data-qualified-name="FE" id="part2-tail"><rect fill="#E2E2F0" height="30.2969" rx="2.5" ry="2.5" style="stroke:#181818;stroke-width:0.5;" width="132.5898" x="358.0474" y="796.7813"/><text fill="#000000" font-family="sans-serif" font-size="14" lengthAdjust="spacing" textLength="118.5898" x="365.0474" y="816.7764">Frontend (React)</text></g><g class="participant participant-head" data-entity-uid="part3" data-qualified-name="Controller" id="part3-head"><rect fill="#E2E2F0" height="30.2969" rx="2.5" ry="2.5" style="stroke:#181818;stroke-width:0.5;" width="149.0986" x="646.6704" y="87.2969"/><text fill="#000000" font-family="sans-serif" font-size="14" lengthAdjust="spacing" textLength="135.0986" x="653.6704" y="107.292">DocentesController</text></g><g class="participant participant-tail" data-entity-uid="part3" data-qualified-name="Controller" id="part3-tail"><rect fill="#E2E2F0" height="30.2969" rx="2.5" ry="2.5" style="stroke:#181818;stroke-width:0.5;" width="149.0986" x="646.6704" y="796.7813"/><text fill="#000000" font-family="sans-serif" font-size="14" lengthAdjust="spacing" textLength="135.0986" x="653.6704" y="816.7764">DocentesController</text></g><g class="participant participant-head" data-entity-uid="part4" data-qualified-name="Service" id="part4-head"><rect fill="#E2E2F0" height="30.2969" rx="2.5" ry="2.5" style="stroke:#181818;stroke-width:0.5;" width="118.9453" x="873.8325" y="87.2969"/><text fill="#000000" font-family="sans-serif" font-size="14" lengthAdjust="spacing" textLength="104.9453" x="880.8325" y="107.292">UsuarioService</text></g><g class="participant participant-tail" data-entity-uid="part4" data-qualified-name="Service" id="part4-tail"><rect fill="#E2E2F0" height="30.2969" rx="2.5" ry="2.5" style="stroke:#181818;stroke-width:0.5;" width="118.9453" x="873.8325" y="796.7813"/><text fill="#000000" font-family="sans-serif" font-size="14" lengthAdjust="spacing" textLength="104.9453" x="880.8325" y="816.7764">UsuarioService</text></g><g class="participant participant-head" data-entity-uid="part5" data-qualified-name="Repo" id="part5-head"><rect fill="#E2E2F0" height="30.2969" rx="2.5" ry="2.5" style="stroke:#181818;stroke-width:0.5;" width="142.2764" x="1510.3555" y="87.2969"/><text fill="#000000" font-family="sans-serif" font-size="14" lengthAdjust="spacing" textLength="128.2764" x="1517.3555" y="107.292">UsuarioRepository</text></g><g class="participant participant-tail" data-entity-uid="part5" data-qualified-name="Repo" id="part5-tail"><rect fill="#E2E2F0" height="30.2969" rx="2.5" ry="2.5" style="stroke:#181818;stroke-width:0.5;" width="142.2764" x="1510.3555" y="796.7813"/><text fill="#000000" font-family="sans-serif" font-size="14" lengthAdjust="spacing" textLength="128.2764" x="1517.3555" y="816.7764">UsuarioRepository</text></g><g class="participant participant-head" data-entity-uid="part6" data-qualified-name="DB" id="part6-head"><text fill="#000000" font-family="sans-serif" font-size="14" lengthAdjust="spacing" textLength="197.3262" x="2088.6572" y="115.292">Base de Datos (PostgreSQL)</text><path d="M2172.3203,66.2969 C2172.3203,56.2969 2190.3203,56.2969 2190.3203,56.2969 C2190.3203,56.2969 2208.3203,56.2969 2208.3203,66.2969 L2208.3203,92.2969 C2208.3203,102.2969 2190.3203,102.2969 2190.3203,102.2969 C2190.3203,102.2969 2172.3203,102.2969 2172.3203,92.2969 L2172.3203,66.2969" fill="#E2E2F0" style="stroke:#181818;stroke-width:0.5;"/><path d="M2172.3203,66.2969 C2172.3203,76.2969 2190.3203,76.2969 2190.3203,76.2969 C2190.3203,76.2969 2208.3203,76.2969 2208.3203,66.2969" fill="none" style="stroke:#181818;stroke-width:0.5;"/></g><g class="participant participant-tail" data-entity-uid="part6" data-qualified-name="DB" id="part6-tail"><text fill="#000000" font-family="sans-serif" font-size="14" lengthAdjust="spacing" textLength="197.3262" x="2088.6572" y="809.7764">Base de Datos (PostgreSQL)</text><path d="M2172.3203,823.0781 C2172.3203,813.0781 2190.3203,813.0781 2190.3203,813.0781 C2190.3203,813.0781 2208.3203,813.0781 2208.3203,823.0781 L2208.3203,849.0781 C2208.3203,859.0781 2190.3203,859.0781 2190.3203,859.0781 C2190.3203,859.0781 2172.3203,859.0781 2172.3203,849.0781 L2172.3203,823.0781" fill="#E2E2F0" style="stroke:#181818;stroke-width:0.5;"/><path d="M2172.3203,823.0781 C2172.3203,833.0781 2190.3203,833.0781 2190.3203,833.0781 C2190.3203,833.0781 2208.3203,833.0781 2208.3203,823.0781" fill="none" style="stroke:#181818;stroke-width:0.5;"/></g><g><title>Frontend .React.</title><rect fill="#FFFFFF" height="292.4609" style="stroke:#181818;stroke-width:1;" width="10" x="419.3423" y="149.7266"/></g><g><title>Frontend .React.</title><rect fill="#FFFFFF" height="233.0625" style="stroke:#181818;stroke-width:1;" width="10" x="419.3423" y="539.7188"/></g><g><title>DocentesController</title><rect fill="#FFFFFF" height="203.9297" style="stroke:#181818;stroke-width:1;" width="10" x="716.2197" y="193.9922"/></g><g><title>DocentesController</title><rect fill="#FFFFFF" height="203.9297" style="stroke:#181818;stroke-width:1;" width="10" x="716.2197" y="539.7188"/></g><g><title>UsuarioService</title><rect fill="#FFFFFF" height="145.6641" style="stroke:#181818;stroke-width:1;" width="10" x="928.3052" y="223.125"/></g><g><title>UsuarioService</title><rect fill="#FFFFFF" height="145.6641" style="stroke:#181818;stroke-width:1;" width="10" x="928.3052" y="568.8516"/></g><g><title>UsuarioRepository</title><rect fill="#FFFFFF" height="87.3984" style="stroke:#181818;stroke-width:1;" width="10" x="1576.4937" y="252.2578"/></g><g><title>UsuarioRepository</title><rect fill="#FFFFFF" height="87.3984" style="stroke:#181818;stroke-width:1;" width="10" x="1576.4937" y="597.9844"/></g><g><title>Base de Datos .PostgreSQL.</title><rect fill="#FFFFFF" height="29.1328" style="stroke:#181818;stroke-width:1;" width="10" x="2185.3203" y="281.3906"/></g><g><title>Base de Datos .PostgreSQL.</title><rect fill="#FFFFFF" height="29.1328" style="stroke:#181818;stroke-width:1;" width="10" x="2185.3203" y="627.1172"/></g><g class="message" data-entity-1="part1" data-entity-2="part2" id="msg1"><polygon fill="#181818" points="407.3423,145.7266,417.3423,149.7266,407.3423,153.7266,411.3423,149.7266" style="stroke:#181818;stroke-width:1;"/><line style="stroke:#181818;stroke-width:1;" x1="117.5308" x2="413.3423" y1="149.7266" y2="149.7266"/><text fill="#000000" font-family="sans-serif" font-size="13" lengthAdjust="spacing" textLength="147.4941" x="124.5308" y="144.6606">Clic en "Ver Docentes"</text></g><g class="message" data-entity-1="part2" data-entity-2="part3" id="msg2"><polygon fill="#181818" points="704.2197,189.9922,714.2197,193.9922,704.2197,197.9922,708.2197,193.9922" style="stroke:#181818;stroke-width:1;"/><line style="stroke:#181818;stroke-width:1;" x1="429.3423" x2="710.2197" y1="193.9922" y2="193.9922"/><text fill="#000000" font-family="sans-serif" font-size="13" lengthAdjust="spacing" textLength="118.4092" x="436.3423" y="173.7935">GET /api/docentes</text><text fill="#000000" font-family="sans-serif" font-size="13" lengthAdjust="spacing" textLength="267.8774" x="436.3423" y="188.9263">(Header: Authorization: Bearer &lt;token&gt;)</text></g><g class="message" data-entity-1="part3" data-entity-2="part4" id="msg3"><polygon fill="#181818" points="916.3052,219.125,926.3052,223.125,916.3052,227.125,920.3052,223.125" style="stroke:#181818;stroke-width:1;"/><line style="stroke:#181818;stroke-width:1;" x1="726.2197" x2="922.3052" y1="223.125" y2="223.125"/><text fill="#000000" font-family="sans-serif" font-size="13" lengthAdjust="spacing" textLength="183.0854" x="733.2197" y="218.0591">obtenerTodosLosDocentes()</text></g><g class="message" data-entity-1="part4" data-entity-2="part5" id="msg4"><polygon fill="#181818" points="1564.4937,248.2578,1574.4937,252.2578,1564.4937,256.2578,1568.4937,252.2578" style="stroke:#181818;stroke-width:1;"/><line style="stroke:#181818;stroke-width:1;" x1="938.3052" x2="1570.4937" y1="252.2578" y2="252.2578"/><text fill="#000000" font-family="sans-serif" font-size="13" lengthAdjust="spacing" textLength="154.5654" x="945.3052" y="247.1919">findByTipo("DOCENTE")</text></g><g class="message" data-entity-1="part5" data-entity-2="part6" id="msg5"><polygon fill="#181818" points="2173.3203,277.3906,2183.3203,281.3906,2173.3203,285.3906,2177.3203,281.3906" style="stroke:#181818;stroke-width:1;"/><line style="stroke:#181818;stroke-width:1;" x1="1586.4937" x2="2179.3203" y1="281.3906" y2="281.3906"/><text fill="#000000" font-family="sans-serif" font-size="13" lengthAdjust="spacing" textLength="331.6841" x="1593.4937" y="276.3247">SELECT * FROM usuarios WHERE tipo = 'DOCENTE'</text></g><g class="message" data-entity-1="part6" data-entity-2="part5" id="msg6"><polygon fill="#181818" points="1597.4937,306.5234,1587.4937,310.5234,1597.4937,314.5234,1593.4937,310.5234" style="stroke:#181818;stroke-width:1;"/><line style="stroke:#181818;stroke-width:1;stroke-dasharray:2,2;" x1="1591.4937" x2="2189.3203" y1="310.5234" y2="310.5234"/><text fill="#000000" font-family="sans-serif" font-size="13" lengthAdjust="spacing" textLength="93.9136" x="1603.4937" y="305.4575">List&lt;Usuario&gt;</text></g><g class="message" data-entity-1="part5" data-entity-2="part4" id="msg7"><polygon fill="#181818" points="949.3052,335.6563,939.3052,339.6563,949.3052,343.6563,945.3052,339.6563" style="stroke:#181818;stroke-width:1;"/><line style="stroke:#181818;stroke-width:1;stroke-dasharray:2,2;" x1="943.3052" x2="1580.4937" y1="339.6563" y2="339.6563"/><text fill="#000000" font-family="sans-serif" font-size="13" lengthAdjust="spacing" textLength="93.9136" x="955.3052" y="334.5903">List&lt;Usuario&gt;</text></g><g class="message" data-entity-1="part4" data-entity-2="part3" id="msg8"><polygon fill="#181818" points="737.2197,364.7891,727.2197,368.7891,737.2197,372.7891,733.2197,368.7891" style="stroke:#181818;stroke-width:1;"/><line style="stroke:#181818;stroke-width:1;stroke-dasharray:2,2;" x1="731.2197" x2="932.3052" y1="368.7891" y2="368.7891"/><text fill="#000000" font-family="sans-serif" font-size="13" lengthAdjust="spacing" textLength="122.0972" x="743.2197" y="363.7231">List&lt;UsuarioDTO&gt;</text></g><g class="message" data-entity-1="part3" data-entity-2="part2" id="msg9"><polygon fill="#181818" points="440.3423,393.9219,430.3423,397.9219,440.3423,401.9219,436.3423,397.9219" style="stroke:#181818;stroke-width:1;"/><line style="stroke:#181818;stroke-width:1;stroke-dasharray:2,2;" x1="434.3423" x2="720.2197" y1="397.9219" y2="397.9219"/><text fill="#000000" font-family="sans-serif" font-size="13" lengthAdjust="spacing" textLength="220.251" x="446.3423" y="392.856">200 OK (List&lt;UsuarioDTO&gt; JSON)</text></g><g class="message" data-entity-1="part2" data-entity-2="part1" id="msg10"><polygon fill="#181818" points="128.5308,438.1875,118.5308,442.1875,128.5308,446.1875,124.5308,442.1875" style="stroke:#181818;stroke-width:1;"/><line style="stroke:#181818;stroke-width:1;stroke-dasharray:2,2;" x1="122.5308" x2="423.3423" y1="442.1875" y2="442.1875"/><text fill="#000000" font-family="sans-serif" font-size="13" lengthAdjust="spacing" textLength="170.2505" x="134.5308" y="421.9888">Mostrar Lista de Docentes</text><text fill="#000000" font-family="sans-serif" font-size="13" lengthAdjust="spacing" textLength="277.8115" x="134.5308" y="437.1216">(Nombre, apellidos, DNI, username, email)</text></g><path d="M10,457.1875 L74.4429,457.1875 L74.4429,464.3203 L64.4429,474.3203 L10,474.3203 L10,457.1875" fill="#EEEEEE" style="stroke:#000000;stroke-width:1.5;"/><rect fill="none" height="323.5938" style="stroke:#000000;stroke-width:1.5;" width="2291.9834" x="10" y="457.1875"/><text fill="#000000" font-family="sans-serif" font-size="13" font-weight="bold" lengthAdjust="spacing" textLength="19.4429" x="25" y="470.2544">alt</text><text fill="#000000" font-family="sans-serif" font-size="11" font-weight="bold" lengthAdjust="spacing" textLength="110.2363" x="89.4429" y="469.3979">[Filtrar Docentes]</text><g class="message" data-entity-1="part1" data-entity-2="part2" id="msg11"><polygon fill="#181818" points="412.3423,491.4531,422.3423,495.4531,412.3423,499.4531,416.3423,495.4531" style="stroke:#181818;stroke-width:1;"/><line style="stroke:#181818;stroke-width:1;" x1="117.5308" x2="418.3423" y1="495.4531" y2="495.4531"/><text fill="#000000" font-family="sans-serif" font-size="13" lengthAdjust="spacing" textLength="169.5776" x="124.5308" y="490.3872">Ingresa criterio de filtrado</text></g><g class="message" data-entity-1="part2" data-entity-2="part3" id="msg12"><polygon fill="#181818" points="704.2197,535.7188,714.2197,539.7188,704.2197,543.7188,708.2197,539.7188" style="stroke:#181818;stroke-width:1;"/><line style="stroke:#181818;stroke-width:1;" x1="429.3423" x2="710.2197" y1="539.7188" y2="539.7188"/><text fill="#000000" font-family="sans-serif" font-size="13" lengthAdjust="spacing" textLength="229.0488" x="436.3423" y="519.52">GET /api/docentes?filtro={criterio}</text><text fill="#000000" font-family="sans-serif" font-size="13" lengthAdjust="spacing" textLength="267.8774" x="436.3423" y="534.6528">(Header: Authorization: Bearer &lt;token&gt;)</text></g><g class="message" data-entity-1="part3" data-entity-2="part4" id="msg13"><polygon fill="#181818" points="916.3052,564.8516,926.3052,568.8516,916.3052,572.8516,920.3052,568.8516" style="stroke:#181818;stroke-width:1;"/><line style="stroke:#181818;stroke-width:1;" x1="726.2197" x2="922.3052" y1="568.8516" y2="568.8516"/><text fill="#000000" font-family="sans-serif" font-size="13" lengthAdjust="spacing" textLength="153.0229" x="733.2197" y="563.7856">filtrarDocentes(criterio)</text></g><g class="message" data-entity-1="part4" data-entity-2="part5" id="msg14"><polygon fill="#181818" points="1564.4937,593.9844,1574.4937,597.9844,1564.4937,601.9844,1568.4937,597.9844" style="stroke:#181818;stroke-width:1;"/><line style="stroke:#181818;stroke-width:1;" x1="938.3052" x2="1570.4937" y1="597.9844" y2="597.9844"/><text fill="#000000" font-family="sans-serif" font-size="13" lengthAdjust="spacing" textLength="619.1885" x="945.3052" y="592.9185">findByNombreContainingIgnoreCaseOrApellidosContainingIgnoreCaseOrDniContaining(criterio)</text></g><g class="message" data-entity-1="part5" data-entity-2="part6" id="msg15"><polygon fill="#181818" points="2173.3203,623.1172,2183.3203,627.1172,2173.3203,631.1172,2177.3203,627.1172" style="stroke:#181818;stroke-width:1;"/><line style="stroke:#181818;stroke-width:1;" x1="1586.4937" x2="2179.3203" y1="627.1172" y2="627.1172"/><text fill="#000000" font-family="sans-serif" font-size="13" lengthAdjust="spacing" textLength="579.8267" x="1593.4937" y="622.0513">SELECT * FROM usuarios WHERE tipo = 'DOCENTE' AND (nombre ILIKE %criterio% OR ...)</text></g><g class="message" data-entity-1="part6" data-entity-2="part5" id="msg16"><polygon fill="#181818" points="1597.4937,652.25,1587.4937,656.25,1597.4937,660.25,1593.4937,656.25" style="stroke:#181818;stroke-width:1;"/><line style="stroke:#181818;stroke-width:1;stroke-dasharray:2,2;" x1="1591.4937" x2="2189.3203" y1="656.25" y2="656.25"/><text fill="#000000" font-family="sans-serif" font-size="13" lengthAdjust="spacing" textLength="93.9136" x="1603.4937" y="651.1841">List&lt;Usuario&gt;</text></g><g class="message" data-entity-1="part5" data-entity-2="part4" id="msg17"><polygon fill="#181818" points="949.3052,681.3828,939.3052,685.3828,949.3052,689.3828,945.3052,685.3828" style="stroke:#181818;stroke-width:1;"/><line style="stroke:#181818;stroke-width:1;stroke-dasharray:2,2;" x1="943.3052" x2="1580.4937" y1="685.3828" y2="685.3828"/><text fill="#000000" font-family="sans-serif" font-size="13" lengthAdjust="spacing" textLength="93.9136" x="955.3052" y="680.3169">List&lt;Usuario&gt;</text></g><g class="message" data-entity-1="part4" data-entity-2="part3" id="msg18"><polygon fill="#181818" points="737.2197,710.5156,727.2197,714.5156,737.2197,718.5156,733.2197,714.5156" style="stroke:#181818;stroke-width:1;"/><line style="stroke:#181818;stroke-width:1;stroke-dasharray:2,2;" x1="731.2197" x2="932.3052" y1="714.5156" y2="714.5156"/><text fill="#000000" font-family="sans-serif" font-size="13" lengthAdjust="spacing" textLength="122.0972" x="743.2197" y="709.4497">List&lt;UsuarioDTO&gt;</text></g><g class="message" data-entity-1="part3" data-entity-2="part2" id="msg19"><polygon fill="#181818" points="440.3423,739.6484,430.3423,743.6484,440.3423,747.6484,436.3423,743.6484" style="stroke:#181818;stroke-width:1;"/><line style="stroke:#181818;stroke-width:1;stroke-dasharray:2,2;" x1="434.3423" x2="720.2197" y1="743.6484" y2="743.6484"/><text fill="#000000" font-family="sans-serif" font-size="13" lengthAdjust="spacing" textLength="220.251" x="446.3423" y="738.5825">200 OK (List&lt;UsuarioDTO&gt; JSON)</text></g><g class="message" data-entity-1="part2" data-entity-2="part1" id="msg20"><polygon fill="#181818" points="128.5308,768.7813,118.5308,772.7813,128.5308,776.7813,124.5308,772.7813" style="stroke:#181818;stroke-width:1;"/><line style="stroke:#181818;stroke-width:1;stroke-dasharray:2,2;" x1="122.5308" x2="423.3423" y1="772.7813" y2="772.7813"/><text fill="#000000" font-family="sans-serif" font-size="13" lengthAdjust="spacing" textLength="137.979" x="134.5308" y="767.7153">Mostrar Lista Filtrada</text></g><?plantuml-src dLLDRzim3BtxLn06YhfRlx2ZqMQ8OsVDciPRacsNNLXRpOGvaY4h1RfX_tsKRCUoqHJTSb1CYtma7nyJpNN18EQuKRX5o1ciMBPZ8kC8P_2LAOXbneHc5GIhKd6nWKXA3MzXoJ3J9vv7frJWZ_Cj5xpI2dCoPwBINEyoBWKMFc05zjuhKMcUyHA51d-g906B788Qo_fDaxvJctv2laeM1LFMhJFxxb-g7IekLqmzyenPr-RvMRybAsN5gO4dwsfCBqUDzrWny2Dp4YKnQadzVvALtYYs-ZolIuqZpxDjmTc8wWvXKl0Cc03VvSqt3F57rCpqDasCSrTz21-IDLnWoI_o9k2x26uOvkPklDC_fEA_K1EH8KGC5I5VQVcJYT591-omqJsQH4tl8SXxOfgfjSnbDPTLMrpWWBGyDTyctF0HmWCNUVIqvgKC_3YT98jruZjnbZHpc8Wu2c6Lp9F96jx0T9dUmQvcke9lDyao0KqmS0t73T1nXqDqnX6SxTFEIKrNpPn6NivSnpgTs-11RrlUlgS1-MvKl4vxWIqVBgFDeDzTNa9w2y4m73wkqiM92-9CneoUugrYGhYJPbUKhS3kNToDVo6tzugT0fQiA3XDx1JYnUoKg6HAu9Pks1PvqKj4slAmq33bXSLjuJoWJq-bCq4YhX0onJMZmato1nkLI-lz2es-jm7o-dSBykVrgZKftB9xjiENUNz0pNMvQg_Yjee1U3j1y_A0gckgJHgado-ncMs499iMFrNZblxdhsF1kuj39LZrcJV_lI0mNiGG25idpEQpsmIEscH7a2xX_Fnya9GMnDWlR9EvxczKL-FXhHf4xNjxzNOD0Dpv_FkM3S06odbfs-eToN48GMAalwE_?></g></svg>