<svg xmlns="http://www.w3.org/2000/svg" xmlns:xlink="http://www.w3.org/1999/xlink" contentStyleType="text/css" data-diagram-type="SALT" height="374px" preserveAspectRatio="none" style="width:453px;height:374px;background:#FFFFFF;" version="1.1" viewBox="0 0 453 374" width="453px" zoomAndPan="magnify"><defs/><g><text fill="#000000" font-family="sans-serif" font-size="12" font-weight="bold" lengthAdjust="spacing" textLength="149.1387" x="6" y="17.1387">CREAR NUEVO GRADO</text><line style="stroke:#AAAAAA;stroke-width:1;" x1="6" x2="446.6699" y1="24.4688" y2="24.4688"/><line style="stroke:#AAAAAA;stroke-width:1;" x1="6" x2="446.6699" y1="26.4688" y2="26.4688"/><text fill="#000000" font-family="sans-serif" font-size="12" font-weight="bold" lengthAdjust="spacing" textLength="157.6348" x="6" y="41.1074">1. Datos Identificativos</text><text fill="#000000" font-family="sans-serif" font-size="12" font-style="italic" lengthAdjust="spacing" textLength="316.4004" x="6" y="57.0762">Ingrese los datos obligatorios para registrar el grado</text><text fill="#000000" font-family="sans-serif" font-size="12" lengthAdjust="spacing" textLength="133.6699" x="7" y="90.0137">Nombre del Grado (*):</text><text fill="#000000" font-family="sans-serif" font-size="12" lengthAdjust="spacing" textLength="3.8145" x="145.6699" y="90.0137">&#160;</text><line style="stroke:#000000;stroke-width:1;" x1="143.6699" x2="442.6699" y1="92.8438" y2="92.8438"/><line style="stroke:#000000;stroke-width:1;" x1="143.6699" x2="143.6699" y1="89.8438" y2="91.8438"/><line style="stroke:#000000;stroke-width:1;" x1="442.6699" x2="442.6699" y1="89.8438" y2="91.8438"/><text fill="#000000" font-family="sans-serif" font-size="12" lengthAdjust="spacing" textLength="64.8516" x="7" y="107.9824">C&#243;digo (*):</text><text fill="#000000" font-family="sans-serif" font-size="12" lengthAdjust="spacing" textLength="3.8145" x="145.6699" y="107.9824">&#160;</text><line style="stroke:#000000;stroke-width:1;" x1="143.6699" x2="442.6699" y1="110.8125" y2="110.8125"/><line style="stroke:#000000;stroke-width:1;" x1="143.6699" x2="143.6699" y1="107.8125" y2="109.8125"/><line style="stroke:#000000;stroke-width:1;" x1="442.6699" x2="442.6699" y1="107.8125" y2="109.8125"/><line style="stroke:#AAAAAA;stroke-width:1;" x1="6" x2="446.6699" y1="135.2813" y2="135.2813"/><text fill="#000000" font-family="sans-serif" font-size="12" font-weight="bold" lengthAdjust="spacing" textLength="273.5449" x="6" y="166.8887">2. Alumnos enlistados (Selecci&#243;n Inicial)</text><text fill="#000000" font-family="sans-serif" font-size="12" font-style="italic" lengthAdjust="spacing" textLength="341.8418" x="6" y="182.8574">Marque los alumnos que desea vincular inmediatamente</text><text fill="#000000" font-family="sans-serif" font-size="12" lengthAdjust="spacing" textLength="198.7969" x="27" y="215.7949">Seleccionar todos los disponibles</text><rect fill="none" height="10" style="stroke:#000000;stroke-width:1.5;" width="10" x="9" y="206.6406"/><text fill="#000000" font-family="sans-serif" font-size="12" lengthAdjust="spacing" textLength="148.2246" x="27" y="247.7324">12345678Z - P&#233;rez, Juan</text><rect fill="none" height="10" style="stroke:#000000;stroke-width:1.5;" width="10" x="9" y="238.5781"/><text fill="#000000" font-family="sans-serif" font-size="12" lengthAdjust="spacing" textLength="161.0859" x="27" y="263.7012">87654321X - Garc&#237;a, Mar&#237;a</text><rect fill="none" height="10" style="stroke:#000000;stroke-width:1.5;" width="10" x="9" y="254.5469"/><text fill="#000000" font-family="sans-serif" font-size="12" lengthAdjust="spacing" textLength="161.9648" x="27" y="279.6699">11223344C - L&#243;pez, Carlos</text><rect fill="none" height="10" style="stroke:#000000;stroke-width:1.5;" width="10" x="9" y="270.5156"/><text fill="#000000" font-family="sans-serif" font-size="12" lengthAdjust="spacing" textLength="149.2969" x="27" y="295.6387">... (Cargar m&#225;s alumnos)</text><rect fill="none" height="10" style="stroke:#000000;stroke-width:1.5;" width="10" x="9" y="286.4844"/><line style="stroke:#000000;stroke-width:1;" x1="6" x2="226.7969" y1="203.6563" y2="203.6563"/><line style="stroke:#000000;stroke-width:1;" x1="6" x2="226.7969" y1="299.4688" y2="299.4688"/><line style="stroke:#000000;stroke-width:1;" x1="6" x2="6" y1="203.6563" y2="219.625"/><line style="stroke:#000000;stroke-width:1;" x1="226.7969" x2="226.7969" y1="219.625" y2="235.5938"/><line style="stroke:#000000;stroke-width:1;" x1="226.7969" x2="226.7969" y1="203.6563" y2="219.625"/><line style="stroke:#000000;stroke-width:1;" x1="6" x2="6" y1="283.5" y2="299.4688"/><line style="stroke:#000000;stroke-width:1;" x1="6" x2="6" y1="267.5313" y2="283.5"/><line style="stroke:#000000;stroke-width:1;" x1="226.7969" x2="226.7969" y1="283.5" y2="299.4688"/><line style="stroke:#000000;stroke-width:1;" x1="6" x2="6" y1="251.5625" y2="267.5313"/><line style="stroke:#000000;stroke-width:1;" x1="226.7969" x2="226.7969" y1="267.5313" y2="283.5"/><line style="stroke:#000000;stroke-width:1;" x1="6" x2="6" y1="235.5938" y2="251.5625"/><line style="stroke:#000000;stroke-width:1;" x1="226.7969" x2="226.7969" y1="251.5625" y2="267.5313"/><line style="stroke:#000000;stroke-width:1;" x1="6" x2="6" y1="219.625" y2="235.5938"/><line style="stroke:#000000;stroke-width:1;" x1="226.7969" x2="226.7969" y1="235.5938" y2="251.5625"/><rect fill="none" height="95.8125" style="stroke:#000000;stroke-width:1;" width="15" x="230.7969" y="203.6563"/><line style="stroke:#000000;stroke-width:1;" x1="230.7969" x2="245.7969" y1="215.6563" y2="215.6563"/><line style="stroke:#000000;stroke-width:1;" x1="230.7969" x2="245.7969" y1="287.4688" y2="287.4688"/><path d="M237.7969,207.6563 L240.7969,212.6563 L234.7969,212.6563 L237.7969,207.6563" fill="#000000"/><path d="M237.7969,296.4688 L240.7969,291.4688 L234.7969,291.4688 L237.7969,296.4688" fill="#000000"/><line style="stroke:#AAAAAA;stroke-width:1.5;" x1="6" x2="446.6699" y1="320.9375" y2="320.9375"/><rect fill="#EEEEEE" height="17.9688" rx="5" ry="5" style="stroke:#000000;stroke-width:2.5;" width="92" x="9.5" y="344.9063"/><text fill="#000000" font-family="sans-serif" font-size="12" lengthAdjust="spacing" textLength="73.3418" x="18.8291" y="358.0449">Crear Grado</text><rect fill="#EEEEEE" height="17.9688" rx="5" ry="5" style="stroke:#000000;stroke-width:2.5;" width="68" x="108.5" y="344.9063"/><text fill="#000000" font-family="sans-serif" font-size="12" lengthAdjust="spacing" textLength="52.9395" x="116.0303" y="358.0449">Cancelar</text><line style="stroke:#000000;stroke-width:1;" x1="5" x2="446.6699" y1="5" y2="5"/><line style="stroke:#000000;stroke-width:1;" x1="5" x2="446.6699" y1="367.375" y2="367.375"/><line style="stroke:#000000;stroke-width:1;" x1="5" x2="5" y1="5" y2="20.9688"/><line style="stroke:#000000;stroke-width:1;" x1="446.6699" x2="446.6699" y1="5" y2="20.9688"/><line style="stroke:#000000;stroke-width:1;" x1="5" x2="5" y1="324.4375" y2="340.4063"/><line style="stroke:#000000;stroke-width:1;" x1="446.6699" x2="446.6699" y1="324.4375" y2="340.4063"/><line style="stroke:#000000;stroke-width:1;" x1="5" x2="5" y1="186.6875" y2="202.6563"/><line style="stroke:#000000;stroke-width:1;" x1="446.6699" x2="446.6699" y1="186.6875" y2="202.6563"/><line style="stroke:#000000;stroke-width:1;" x1="5" x2="5" y1="130.7813" y2="138.7813"/><line style="stroke:#000000;stroke-width:1;" x1="446.6699" x2="446.6699" y1="130.7813" y2="138.7813"/><line style="stroke:#000000;stroke-width:1;" x1="5" x2="5" y1="44.9375" y2="60.9063"/><line style="stroke:#000000;stroke-width:1;" x1="446.6699" x2="446.6699" y1="44.9375" y2="60.9063"/><line style="stroke:#000000;stroke-width:1;" x1="5" x2="5" y1="316.4375" y2="324.4375"/><line style="stroke:#000000;stroke-width:1;" x1="446.6699" x2="446.6699" y1="316.4375" y2="324.4375"/><line style="stroke:#000000;stroke-width:1;" x1="5" x2="5" y1="170.7188" y2="186.6875"/><line style="stroke:#000000;stroke-width:1;" x1="446.6699" x2="446.6699" y1="170.7188" y2="186.6875"/><line style="stroke:#000000;stroke-width:1;" x1="5" x2="5" y1="114.8125" y2="130.7813"/><line style="stroke:#000000;stroke-width:1;" x1="446.6699" x2="446.6699" y1="114.8125" y2="130.7813"/><line style="stroke:#000000;stroke-width:1;" x1="5" x2="5" y1="28.9688" y2="44.9375"/><line style="stroke:#000000;stroke-width:1;" x1="446.6699" x2="446.6699" y1="28.9688" y2="44.9375"/><line style="stroke:#000000;stroke-width:1;" x1="5" x2="5" y1="300.4688" y2="316.4375"/><line style="stroke:#000000;stroke-width:1;" x1="446.6699" x2="446.6699" y1="300.4688" y2="316.4375"/><line style="stroke:#000000;stroke-width:1;" x1="5" x2="5" y1="154.75" y2="170.7188"/><line style="stroke:#000000;stroke-width:1;" x1="446.6699" x2="446.6699" y1="154.75" y2="170.7188"/><line style="stroke:#000000;stroke-width:1;" x1="5" x2="5" y1="76.875" y2="114.8125"/><line style="stroke:#000000;stroke-width:1;" x1="446.6699" x2="446.6699" y1="76.875" y2="114.8125"/><line style="stroke:#000000;stroke-width:1;" x1="5" x2="5" y1="20.9688" y2="28.9688"/><line style="stroke:#000000;stroke-width:1;" x1="446.6699" x2="446.6699" y1="20.9688" y2="28.9688"/><line style="stroke:#000000;stroke-width:1;" x1="5" x2="5" y1="340.4063" y2="367.375"/><line style="stroke:#000000;stroke-width:1;" x1="446.6699" x2="446.6699" y1="340.4063" y2="367.375"/><line style="stroke:#000000;stroke-width:1;" x1="5" x2="5" y1="202.6563" y2="300.4688"/><line style="stroke:#000000;stroke-width:1;" x1="446.6699" x2="446.6699" y1="202.6563" y2="300.4688"/><line style="stroke:#000000;stroke-width:1;" x1="5" x2="5" y1="138.7813" y2="154.75"/><line style="stroke:#000000;stroke-width:1;" x1="446.6699" x2="446.6699" y1="138.7813" y2="154.75"/><line style="stroke:#000000;stroke-width:1;" x1="5" x2="5" y1="60.9063" y2="76.875"/><line style="stroke:#000000;stroke-width:1;" x1="446.6699" x2="446.6699" y1="60.9063" y2="76.875"/><rect fill="none" height="95.8125" style="stroke:#000000;stroke-width:1;" width="15" x="230.7969" y="203.6563"/><line style="stroke:#000000;stroke-width:1;" x1="230.7969" x2="245.7969" y1="215.6563" y2="215.6563"/><line style="stroke:#000000;stroke-width:1;" x1="230.7969" x2="245.7969" y1="287.4688" y2="287.4688"/><path d="M237.7969,207.6563 L240.7969,212.6563 L234.7969,212.6563 L237.7969,207.6563" fill="#000000"/><path d="M237.7969,296.4688 L240.7969,291.4688 L234.7969,291.4688 L237.7969,296.4688" fill="#000000"/><!--SRC=[bLDDRzf04BtxLunoWZOus1YIMX256eAWV8alLOsYQh0trahBBbclaTeq-Iyzzj0JFy5_h6EIK6WlxHxMdjqtps_UZAyIWzeaA0o4cg7kQ8pKv-lHP33lDoVTaVNmrW9QzULbC6at9p2SjnSZw4oQhL7zR7cvksmq6gyWnuOM6fL0DsBIy3iUek4RbUonTNxPbR5c2GD1i6W7Lal1OthJd88rQWJDOfuOZHgOW3WNLJ_ZpmpsRd_OxVaQgjLICuW8k5CFXJT57xx12VpBEjdp1Dasul5BElmdmUE1j5Bf821FN1kQ8br9ger9GMMHo0GAKoPO6F9iAw4hUSXH50zT6g2-JvzDmfViF8x8EOGDbs4go1qkLopYQ715ThC_FPfszzNTm2syV559IZGg5x5h0K_MIlAbOCaURH_bEMx5gzREBpv12SRP3ys-da8lHNa4kZYlLRsAwtmaK0TrcFt4Kw0Yw7bCvhXkfU9v0U7wsNQTamMeISaHpBPjAD1vJ5fNsVUz2SM_x7vwEYmPRe9yZfz7uPQwU1EW31bvTKjPZzOLar4-xfOr5YZDVD273TC9cGAExPRTgksK2pCoUgWsKFR0AVjksVVUmM0wW_o-Q1KwupuaAjKXoyqpcYzJGmH5guSRX4bAWxzYFepMJFPQ7ruFe2qtN2kPTyhgBGQ_0JMlz9uRQeycAR0OM2rsXodzacqPgeZBs8VvxBfqOVLHnYd6nCsa5IZYrLzyaAaGlm00]--></g></svg>