<svg xmlns="http://www.w3.org/2000/svg" xmlns:xlink="http://www.w3.org/1999/xlink" contentStyleType="text/css" data-diagram-type="DESCRIPTION" height="423px" preserveAspectRatio="none" style="width:1333px;height:423px;background:#FFFFFF;" version="1.1" viewBox="0 0 1333 423" width="1333px" zoomAndPan="magnify"><defs/><g><!--cluster crearDocente--><g class="cluster" data-entity="crearDocente" data-source-line="6" data-uid="ent0004" id="cluster_crearDocente"><path d="M171.5,6 L291.5342,6 A3.75,3.75 0 0 1 294.0342,8.5 L301.0342,28.2969 L1062.5,28.2969 A2.5,2.5 0 0 1 1065,30.7969 L1065,413.5 A2.5,2.5 0 0 1 1062.5,416 L171.5,416 A2.5,2.5 0 0 1 169,413.5 L169,8.5 A2.5,2.5 0 0 1 171.5,6" fill="none" style="stroke:#000000;stroke-width:1.5;"/><line style="stroke:#000000;stroke-width:1.5;" x1="169" x2="301.0342" y1="28.2969" y2="28.2969"/><text fill="#000000" font-family="sans-serif" font-size="14" font-weight="bold" lengthAdjust="spacing" textLength="119.0342" x="173" y="20.9951">crearDocente()</text></g><!--entity CrearDocenteView--><g class="entity" data-entity="CrearDocenteView" data-source-line="7" data-uid="ent0005" id="entity_CrearDocenteView"><rect fill="#629EF9" height="36.2969" rx="2.5" ry="2.5" style="stroke:#181818;stroke-width:0.5;" width="150.6416" x="501.5" y="41"/><text fill="#000000" font-family="sans-serif" font-size="14" lengthAdjust="spacing" textLength="130.6416" x="511.5" y="63.9951">CrearDocenteView</text></g><!--entity DocentesController--><g class="entity" data-entity="DocentesController" data-source-line="8" data-uid="ent0006" id="entity_DocentesController"><rect fill="#B5BD68" height="36.2969" rx="2.5" ry="2.5" style="stroke:#181818;stroke-width:0.5;" width="155.0986" x="338.5" y="154"/><text fill="#000000" font-family="sans-serif" font-size="14" lengthAdjust="spacing" textLength="135.0986" x="348.5" y="176.9951">DocentesController</text></g><!--entity DocenteRepository--><g class="entity" data-entity="DocenteRepository" data-source-line="9" data-uid="ent0007" id="entity_DocenteRepository"><rect fill="#F2AC4E" height="36.2969" rx="2.5" ry="2.5" style="stroke:#181818;stroke-width:0.5;" width="153.7041" x="349" y="267"/><text fill="#000000" font-family="sans-serif" font-size="14" lengthAdjust="spacing" textLength="133.7041" x="359" y="289.9951">DocenteRepository</text></g><!--entity Docente--><g class="entity" data-entity="Docente" data-source-line="10" data-uid="ent0008" id="entity_Docente"><rect fill="#F2AC4E" height="36.2969" rx="2.5" ry="2.5" style="stroke:#181818;stroke-width:0.5;" width="78.6318" x="386.5" y="364"/><text fill="#000000" font-family="sans-serif" font-size="14" lengthAdjust="spacing" textLength="58.6318" x="396.5" y="386.9951">Docente</text></g><!--entity DocentesAbierto--><g class="entity" data-entity="DocentesAbierto" data-source-line="3" data-uid="ent0002" id="entity_DocentesAbierto"><rect fill="#CDEBA5" height="36.2969" rx="2.5" ry="2.5" style="stroke:#181818;stroke-width:0.5;" width="145.8701" x="7" y="41"/><text fill="#000000" font-family="sans-serif" font-size="14" lengthAdjust="spacing" textLength="125.8701" x="17" y="63.9951">:Docentes Abierto</text></g><!--entity EditarDocente--><g class="entity" data-entity="EditarDocente" data-source-line="4" data-uid="ent0003" id="entity_EditarDocente"><rect fill="#CDEBA5" height="36.2969" rx="2.5" ry="2.5" style="stroke:#181818;stroke-width:0.5;" width="222.5488" x="1080.5" y="154"/><text fill="#000000" font-family="sans-serif" font-size="14" lengthAdjust="spacing" textLength="202.5488" x="1090.5" y="176.9951">:Collaboration EditarDocente</text></g><!--link DocentesAbierto to CrearDocenteView--><g class="link" data-entity-1="DocentesAbierto" data-entity-2="CrearDocenteView" data-source-line="13" data-uid="lnk9" id="link_DocentesAbierto_CrearDocenteView"><path d="M153.07,59 C246.29,59 400.74,59 495.24,59" fill="none" id="DocentesAbierto-to-CrearDocenteView" style="stroke:#181818;stroke-width:1;"/><polygon fill="#181818" points="501.24,59,492.24,55,496.24,59,492.24,63,501.24,59" style="stroke:#181818;stroke-width:1;"/><text fill="#000000" font-family="sans-serif" font-size="13" lengthAdjust="spacing" textLength="98.3887" x="278.25" y="52.0669">crearDocente()</text></g><!--link CrearDocenteView to DocentesController--><g class="link" data-entity-1="CrearDocenteView" data-entity-2="DocentesController" data-source-line="15" data-uid="lnk10" id="link_CrearDocenteView_DocentesController"><path d="M501.09,69.91 C395.47,83.7 217,107 217,107 C217,107 217,124 217,124 C217,124 281.0808,139.1302 338.0408,152.5902" fill="none" id="CrearDocenteView-to-DocentesController" style="stroke:#181818;stroke-width:1;"/><polygon fill="#181818" points="343.88,153.97,336.0411,148.0075,339.014,152.8201,334.2013,155.793,343.88,153.97" style="stroke:#181818;stroke-width:1;"/><text fill="#000000" font-family="sans-serif" font-size="13" lengthAdjust="spacing" textLength="530.3784" x="218" y="120.0669">validarDatosM&#237;nimos(nombre, apellidos, DNI, usuario, email, password) : boolean</text></g><!--link CrearDocenteView to DocentesController--><g class="link" data-entity-1="CrearDocenteView" data-entity-2="DocentesController" data-source-line="19" data-uid="lnk12" id="link_CrearDocenteView_DocentesController"><path d="M641.04,77.1 C691.36,90.54 753,107 753,107 C753,107 753,124 753,124 C753,124 599.2025,145.4512 499.6825,159.3312" fill="none" id="CrearDocenteView-to-DocentesController-1" style="stroke:#181818;stroke-width:1;"/><polygon fill="#181818" points="493.74,160.16,503.2063,162.8785,498.6921,159.4693,502.1012,154.9552,493.74,160.16" style="stroke:#181818;stroke-width:1;"/><text fill="#000000" font-family="sans-serif" font-size="13" lengthAdjust="spacing" textLength="255.5884" x="754" y="120.0669">crearDocente(datosMinimos) : Docente</text></g><!--link DocentesController to DocenteRepository--><g class="link" data-entity-1="DocentesController" data-entity-2="DocenteRepository" data-source-line="17" data-uid="lnk11" id="link_DocentesController_DocenteRepository"><path d="M351.49,190.03 C300.55,203.49 238,220 238,220 C238,220 238,237 238,237 C238,237 298.2394,252.0538 352.0394,265.5138" fill="none" id="DocentesController-to-DocenteRepository" style="stroke:#181818;stroke-width:1;"/><polygon fill="#181818" points="357.86,266.97,350.0999,260.9053,353.0095,265.7565,348.1583,268.6661,357.86,266.97" style="stroke:#181818;stroke-width:1;"/><text fill="#000000" font-family="sans-serif" font-size="13" lengthAdjust="spacing" textLength="308.731" x="239" y="233.0669">verificarUnicidad(DNI, usuario, email) : boolean</text></g><!--link DocentesController to DocenteRepository--><g class="link" data-entity-1="DocentesController" data-entity-2="DocenteRepository" data-source-line="21" data-uid="lnk13" id="link_DocentesController_DocenteRepository"><path d="M465.48,190.1 C504.37,203.54 552,220 552,220 C552,220 552,237 552,237 C552,237 513.4914,251.3625 477.4714,264.8025" fill="none" id="DocentesController-to-DocenteRepository-1" style="stroke:#181818;stroke-width:1;"/><polygon fill="#181818" points="471.85,266.9,481.6805,267.5014,476.5345,265.1521,478.8838,260.0061,471.85,266.9" style="stroke:#181818;stroke-width:1;"/><text fill="#000000" font-family="sans-serif" font-size="13" lengthAdjust="spacing" textLength="163.7188" x="553" y="233.0669">crear(docente) : Docente</text></g><!--link DocenteRepository to Docente--><g class="link" data-entity-1="DocenteRepository" data-entity-2="Docente" data-source-line="23" data-uid="lnk14" id="link_DocenteRepository_Docente"><path d="M426,303.42 C426,320.57 426,346.58 426,363.69" fill="none" id="DocenteRepository-Docente" style="stroke:#181818;stroke-width:1;"/></g><!--link CrearDocenteView to EditarDocente--><g class="link" data-entity-1="CrearDocenteView" data-entity-2="EditarDocente" data-source-line="25" data-uid="lnk15" id="link_CrearDocenteView_EditarDocente"><path d="M652.56,68.05 C778.58,81.48 1018,107 1018,107 C1018,107 1088.1989,132.8185 1139.7389,151.7785" fill="none" id="CrearDocenteView-to-EditarDocente" style="stroke:#181818;stroke-width:1;stroke-dasharray:7,7;"/><polygon fill="#181818" points="1145.37,153.85,1138.3044,146.9887,1140.6774,152.1238,1135.5424,154.4968,1145.37,153.85" style="stroke:#181818;stroke-width:1;"/><text fill="#000000" font-family="sans-serif" font-size="13" lengthAdjust="spacing" textLength="264.291" x="1061" y="120.0669">&#171;include&#187; editarDocente(docenteNuevo)</text></g><!--SRC=[ZLBDQi904BxlKmpfHI5wa2erY62ZGW_rK6Zla-nK5jUTiBjHfFIH-XHziSQqciJOqhtjDzzyFykwZJ8PMjo2LeRy8IF8M1-E5o4ifHxDMXFSnFF5_Mm8GJJdb8md1xD4aVKS03euWJ_OrSMOjSQ4BNh51XPIURG_UwL60n4YmtI3QuBKqXazqe8wqEa6y2QWE3N7qM2yM8uXhl5U5EqlQSamaQExS_IOZRT5HBANnELW5jykJiGdojWfp_RmDq-y2t7nBD2plMahLmJDHa9SCg0dYxrsq0Xsg9KikEZPFNv-6BLbrp6yJIo5W1dfOimkXFdg8OJSvMWLXq1RL3g439tRivLTY21XreIcYbovGAyohyeNtcJLgqhHFXkL5YbavufBGxlTwvTQZGUHPJbLTZlAdN_8_wEMUXtvFRYcKP4BYMhQ2jplJvl_D8B9H9bKvvAcKw3wwEItocd7tIy0]--></g></svg>