<svg xmlns="http://www.w3.org/2000/svg" xmlns:xlink="http://www.w3.org/1999/xlink" contentStyleType="text/css" data-diagram-type="STATE" height="587px" preserveAspectRatio="none" style="width:361px;height:587px;background:#FFFFFF;" version="1.1" viewBox="0 0 361 587" width="361px" zoomAndPan="magnify"><defs/><g><path d="M40,117 L336,117 A12.5,12.5 0 0 1 348.5,129.5 L348.5,143.2969 L27.5,143.2969 L27.5,129.5 A12.5,12.5 0 0 1 40,117" fill="#F1F1F1"/><rect fill="none" height="354.2969" rx="12.5" ry="12.5" style="stroke:#181818;stroke-width:0.5;" width="321" x="27.5" y="117"/><line style="stroke:#181818;stroke-width:0.5;" x1="27.5" x2="348.5" y1="143.2969" y2="143.2969"/><text fill="#000000" font-family="sans-serif" font-size="14" lengthAdjust="spacing" textLength="83.5078" x="146.2461" y="134.9951">verGrados()</text><g id="verGrados.MostrandoGrados"><rect fill="#F1F1F1" height="50" rx="12.5" ry="12.5" style="stroke:#181818;stroke-width:0.5;" width="50" x="39.5" y="245.2969"/><line style="stroke:#181818;stroke-width:0.5;" x1="39.5" x2="89.5" y1="271.5938" y2="271.5938"/><text fill="#000000" font-family="sans-serif" font-size="14" lengthAdjust="spacing" textLength="4.4502" x="62.2749" y="263.292">&#160;</text></g><g id="verGrados.FiltrandoGrados"><rect fill="#F1F1F1" height="50" rx="12.5" ry="12.5" style="stroke:#181818;stroke-width:0.5;" width="50" x="39.5" y="411.2969"/><line style="stroke:#181818;stroke-width:0.5;" x1="39.5" x2="89.5" y1="437.5938" y2="437.5938"/><text fill="#000000" font-family="sans-serif" font-size="14" lengthAdjust="spacing" textLength="4.4502" x="62.2749" y="429.292">&#160;</text></g><ellipse cx="64.5" cy="164.2969" fill="#222222" rx="10" ry="10" style="stroke:#222222;stroke-width:1;"/><!--link *start*verGrados to MostrandoGrados--><g class="link" data-entity-1=".start.verGrados" data-entity-2="MostrandoGrados" data-source-line="8" data-uid="lnk3" id="link_.start.verGrados_MostrandoGrados"><path d="M64.5,174.5269 C64.5,190.2369 64.5,216.6569 64.5,239.1669" fill="none" id="*start*verGrados-to-MostrandoGrados" style="stroke:#008000;stroke-width:1;"/><polygon fill="#008000" points="64.5,245.1669,68.5,236.1669,64.5,240.1669,60.5,236.1669,64.5,245.1669" style="stroke:#008000;stroke-width:1;"/><path d="M69.5,197.2969 L69.5,222.2969 L274.5,222.2969 L274.5,207.2969 L264.5,197.2969 L69.5,197.2969" fill="#FEFFDD" style="stroke:#181818;stroke-width:0.5;"/><path d="M264.5,197.2969 L264.5,207.2969 L274.5,207.2969 L264.5,197.2969" fill="#FEFFDD" style="stroke:#181818;stroke-width:0.5;"/><text fill="#000000" font-family="sans-serif" font-size="13" font-weight="bold" lengthAdjust="spacing" textLength="60.5313" x="75.5" y="214.3638">Docente</text><text fill="#000000" font-family="sans-serif" font-size="13" lengthAdjust="spacing" textLength="119.6152" x="140.1636" y="214.3638">solicita ver grados</text></g><!--link MostrandoGrados to FiltrandoGrados--><g class="link" data-entity-1="MostrandoGrados" data-entity-2="FiltrandoGrados" data-source-line="13" data-uid="lnk4" id="link_MostrandoGrados_FiltrandoGrados"><path d="M64.5,295.4969 C64.5,326.5869 64.5,374.2469 64.5,405.2669" fill="none" id="MostrandoGrados-to-FiltrandoGrados" style="stroke:#008000;stroke-width:1;"/><polygon fill="#008000" points="64.5,411.2669,68.5,402.2669,64.5,406.2669,60.5,402.2669,64.5,411.2669" style="stroke:#008000;stroke-width:1;"/><path d="M69.5,318.2969 L69.5,388.2969 L339.5,388.2969 L339.5,328.2969 L329.5,318.2969 L69.5,318.2969" fill="#FEFFDD" style="stroke:#181818;stroke-width:0.5;"/><path d="M329.5,318.2969 L329.5,328.2969 L339.5,328.2969 L329.5,318.2969" fill="#FEFFDD" style="stroke:#181818;stroke-width:0.5;"/><text fill="#000000" font-family="sans-serif" font-size="13" font-weight="bold" lengthAdjust="spacing" textLength="58.9063" x="75.5" y="335.3638">Sistema</text><text fill="#000000" font-family="sans-serif" font-size="13" lengthAdjust="spacing" textLength="157.917" x="138.5386" y="335.3638">presenta lista de grados</text><text fill="#000000" font-family="sans-serif" font-size="13" lengthAdjust="spacing" textLength="249.2915" x="75.5" y="350.4966">&#8226; Nombre, c&#243;digo, alumnos enlistados</text><text fill="#000000" font-family="sans-serif" font-size="13" lengthAdjust="spacing" textLength="4.1323" x="75.5" y="365.6294">&#160;</text><text fill="#000000" font-family="sans-serif" font-size="13" lengthAdjust="spacing" textLength="188.481" x="75.5" y="380.7622">&#8226; Permite solicitar filtrar lista</text></g><!--link FiltrandoGrados to FiltrandoGrados--><g class="link" data-entity-1="FiltrandoGrados" data-entity-2="FiltrandoGrados" data-source-line="21" data-uid="lnk5" id="link_FiltrandoGrados_FiltrandoGrados"><path d="M89.68,420.9869 C99.41,420.2969 107.5,425.4069 107.5,436.2969 C107.5,447.1869 105.395,452.7213 95.665,452.0313" fill="none" id="FiltrandoGrados-to-FiltrandoGrados" style="stroke:#008000;stroke-width:1;"/><polygon fill="#008000" points="89.68,451.6069,98.3745,456.2335,94.6675,451.9606,98.9404,448.2535,89.68,451.6069" style="stroke:#008000;stroke-width:1;"/><path d="M112.5,416.2969 L112.5,456.2969 L335.5,456.2969 L335.5,426.2969 L325.5,416.2969 L112.5,416.2969" fill="#FEFFDD" style="stroke:#181818;stroke-width:0.5;"/><path d="M325.5,416.2969 L325.5,426.2969 L335.5,426.2969 L325.5,416.2969" fill="#FEFFDD" style="stroke:#181818;stroke-width:0.5;"/><text fill="#000000" font-family="sans-serif" font-size="13" font-weight="bold" lengthAdjust="spacing" textLength="60.5313" x="118.5" y="433.3638">Docente</text><text fill="#000000" font-family="sans-serif" font-size="13" lengthAdjust="spacing" textLength="116.6509" x="183.1636" y="433.3638">solicita filtrar lista</text><text fill="#000000" font-family="sans-serif" font-size="13" font-weight="bold" lengthAdjust="spacing" textLength="58.9063" x="118.5" y="448.4966">Sistema</text><text fill="#000000" font-family="sans-serif" font-size="13" lengthAdjust="spacing" textLength="139.4199" x="181.5386" y="448.4966">presenta lista filtrada</text></g><g id="SISTEMA_DISPONIBLE"><rect fill="#F1F1F1" height="50" rx="12.5" ry="12.5" style="stroke:#181818;stroke-width:0.5;" width="172.0654" x="7" y="7"/><line style="stroke:#181818;stroke-width:0.5;" x1="7" x2="179.0654" y1="33.2969" y2="33.2969"/><text fill="#000000" font-family="sans-serif" font-size="14" lengthAdjust="spacing" textLength="152.0654" x="17" y="24.9951">SISTEMA_DISPONIBLE</text></g><g id="GRADO_ABIERTO"><rect fill="#F1F1F1" height="50" rx="12.5" ry="12.5" style="stroke:#181818;stroke-width:0.5;" width="140.4082" x="214" y="7"/><line style="stroke:#181818;stroke-width:0.5;" x1="214" x2="354.4082" y1="33.2969" y2="33.2969"/><text fill="#000000" font-family="sans-serif" font-size="14" lengthAdjust="spacing" textLength="120.4082" x="224" y="24.9951">GRADO_ABIERTO</text></g><g id="GRADOS_ABIERTO"><rect fill="#F1F1F1" height="50" rx="12.5" ry="12.5" style="stroke:#181818;stroke-width:0.5;" width="149.2949" x="113.5" y="531"/><line style="stroke:#181818;stroke-width:0.5;" x1="113.5" x2="262.7949" y1="557.2969" y2="557.2969"/><text fill="#000000" font-family="sans-serif" font-size="14" lengthAdjust="spacing" textLength="129.2949" x="123.5" y="548.9951">GRADOS_ABIERTO</text></g><!--link SISTEMA_DISPONIBLE to verGrados--><g class="link" data-entity-1="SISTEMA_DISPONIBLE" data-entity-2="verGrados" data-source-line="29" data-uid="lnk7" id="link_SISTEMA_DISPONIBLE_verGrados"><path d="M101.94,57.46 C107.48,72.63 113.0906,87.9945 121.5906,111.2545" fill="none" id="SISTEMA_DISPONIBLE-to-verGrados" style="stroke:#008000;stroke-width:1;"/><polygon fill="#008000" points="123.65,116.89,124.3179,107.0638,121.9338,112.1938,116.8039,109.8097,123.65,116.89" style="stroke:#008000;stroke-width:1;"/></g><!--link GRADO_ABIERTO to verGrados--><g class="link" data-entity-1="GRADO_ABIERTO" data-entity-2="verGrados" data-source-line="31" data-uid="lnk9" id="link_GRADO_ABIERTO_verGrados"><path d="M274.97,57.46 C269.37,72.63 263.6865,88.0008 255.1065,111.2608" fill="none" id="GRADO_ABIERTO-to-verGrados" style="stroke:#008000;stroke-width:1;"/><polygon fill="#008000" points="253.03,116.89,259.8975,109.8305,254.7604,112.199,252.3919,107.0618,253.03,116.89" style="stroke:#008000;stroke-width:1;"/></g><!--link verGrados to GRADOS_ABIERTO--><g class="link" data-entity-1="verGrados" data-entity-2="GRADOS_ABIERTO" data-source-line="33" data-uid="lnk11" id="link_verGrados_GRADOS_ABIERTO"><path d="M188,471.3 C188,494.67 188,509.74 188,524.89" fill="none" id="verGrados-to-GRADOS_ABIERTO" style="stroke:#008000;stroke-width:1;"/><polygon fill="#008000" points="188,530.89,192,521.89,188,525.89,184,521.89,188,530.89" style="stroke:#008000;stroke-width:1;"/></g><!--SRC=[dP9DQiCm48NtEiNWRjgIq0i4WuFTO6ZY46SNGb3YgH6n9IEfXL0AFKklq2Fq9Zr9PHd_9kcY8n18V4_lZHXrPBoWakQGCOxwL20K8ZkL1qAKfXhX5ULCqaGee0gSvdHxvy0R8M2guXop334NIalA4r5Xvy0Zotg09JRtMnXlRbA9oBTZT_WAM8WByuhWPTIZlPZiNLySa6kSFEnTK29Z1wPf6HdIrXvvKcbDaMORMdJjXnclkSTCQSofTIyaAXE56i3q2mbs8_nyVC92v7k98pXyVoKi5IEWsKlEZJDoAwdPHh14cJDZMlSbuTdcafL5hxTMESZ-hxuk_kgv-Ty_KF7982Tv9oGEutKmztP-62-ZHJXz2defcnaZPBRo_6ZdJSDWjOwkGUs4TW4hZMljBm00]--></g></svg>