<svg xmlns="http://www.w3.org/2000/svg" xmlns:xlink="http://www.w3.org/1999/xlink" contentStyleType="text/css" data-diagram-type="DESCRIPTION" height="423px" preserveAspectRatio="none" style="width:1941px;height:423px;background:#FFFFFF;" version="1.1" viewBox="0 0 1941 423" width="1941px" zoomAndPan="magnify"><defs/><g><!--cluster verGrados--><g class="cluster" data-entity="verGrados" data-source-line="5" data-uid="ent0004" id="cluster_verGrados"><path d="M184,6 L279.1377,6 A3.75,3.75 0 0 1 281.6377,8.5 L288.6377,28.2969 L751,28.2969 A2.5,2.5 0 0 1 753.5,30.7969 L753.5,413.5 A2.5,2.5 0 0 1 751,416 L184,416 A2.5,2.5 0 0 1 181.5,413.5 L181.5,8.5 A2.5,2.5 0 0 1 184,6" fill="none" style="stroke:#000000;stroke-width:1.5;"/><line style="stroke:#000000;stroke-width:1.5;" x1="181.5" x2="288.6377" y1="28.2969" y2="28.2969"/><text fill="#000000" font-family="sans-serif" font-size="14" font-weight="bold" lengthAdjust="spacing" textLength="94.1377" x="185.5" y="20.9951">verGrados()</text></g><!--entity VerGradosView--><g class="entity" data-entity="VerGradosView" data-source-line="6" data-uid="ent0005" id="entity_VerGradosView"><rect fill="#629EF9" height="36.2969" rx="2.5" ry="2.5" style="stroke:#181818;stroke-width:0.5;" width="127.4063" x="610" y="41"/><text fill="#000000" font-family="sans-serif" font-size="14" lengthAdjust="spacing" textLength="107.4063" x="620" y="63.9951">VerGradosView</text></g><!--entity GradosController--><g class="entity" data-entity="GradosController" data-source-line="7" data-uid="ent0006" id="entity_GradosController"><rect fill="#B5BD68" height="36.2969" rx="2.5" ry="2.5" style="stroke:#181818;stroke-width:0.5;" width="139.1025" x="303" y="154"/><text fill="#000000" font-family="sans-serif" font-size="14" lengthAdjust="spacing" textLength="119.1025" x="313" y="176.9951">GradosController</text></g><!--entity GradoRepository--><g class="entity" data-entity="GradoRepository" data-source-line="8" data-uid="ent0007" id="entity_GradoRepository"><rect fill="#F2AC4E" height="36.2969" rx="2.5" ry="2.5" style="stroke:#181818;stroke-width:0.5;" width="137.708" x="299.5" y="267"/><text fill="#000000" font-family="sans-serif" font-size="14" lengthAdjust="spacing" textLength="117.708" x="309.5" y="289.9951">GradoRepository</text></g><!--entity Grado--><g class="entity" data-entity="Grado" data-source-line="9" data-uid="ent0008" id="entity_Grado"><rect fill="#F2AC4E" height="36.2969" rx="2.5" ry="2.5" style="stroke:#181818;stroke-width:0.5;" width="62.6357" x="337" y="364"/><text fill="#000000" font-family="sans-serif" font-size="14" lengthAdjust="spacing" textLength="42.6357" x="347" y="386.9951">Grado</text></g><!--entity SistemaDisponible--><g class="entity" data-entity="SistemaDisponible" data-source-line="3" data-uid="ent0002" id="entity_SistemaDisponible"><rect fill="#CDEBA5" height="36.2969" rx="2.5" ry="2.5" style="stroke:#181818;stroke-width:0.5;" width="159.125" x="7" y="41"/><text fill="#000000" font-family="sans-serif" font-size="14" lengthAdjust="spacing" textLength="139.125" x="17" y="63.9951">:Sistema Disponible</text></g><!--entity GradoAbierto--><g class="entity" data-entity="GradoAbierto" data-source-line="4" data-uid="ent0003" id="entity_GradoAbierto"><rect fill="#CDEBA5" height="36.2969" rx="2.5" ry="2.5" style="stroke:#181818;stroke-width:0.5;" width="122.5801" x="851" y="41"/><text fill="#000000" font-family="sans-serif" font-size="14" lengthAdjust="spacing" textLength="102.5801" x="861" y="63.9951">:Grado Abierto</text></g><!--entity SistemaDisponibleSalida--><g class="entity" data-entity="SistemaDisponibleSalida" data-source-line="12" data-uid="ent0009" id="entity_SistemaDisponibleSalida"><rect fill="#CDEBA5" height="36.2969" rx="2.5" ry="2.5" style="stroke:#181818;stroke-width:0.5;" width="159.125" x="769" y="154"/><text fill="#000000" font-family="sans-serif" font-size="14" lengthAdjust="spacing" textLength="139.125" x="779" y="176.9951">:Sistema Disponible</text></g><!--entity CrearGrado--><g class="entity" data-entity="CrearGrado" data-source-line="13" data-uid="ent0010" id="entity_CrearGrado"><rect fill="#CDEBA5" height="36.2969" rx="2.5" ry="2.5" style="stroke:#181818;stroke-width:0.5;" width="203.5859" x="962.5" y="154"/><text fill="#000000" font-family="sans-serif" font-size="14" lengthAdjust="spacing" textLength="183.5859" x="972.5" y="176.9951">:Collaboration CrearGrado</text></g><!--entity EditarGrado--><g class="entity" data-entity="EditarGrado" data-source-line="14" data-uid="ent0011" id="entity_EditarGrado"><rect fill="#CDEBA5" height="36.2969" rx="2.5" ry="2.5" style="stroke:#181818;stroke-width:0.5;" width="206.5527" x="1202" y="154"/><text fill="#000000" font-family="sans-serif" font-size="14" lengthAdjust="spacing" textLength="186.5527" x="1212" y="176.9951">:Collaboration EditarGrado</text></g><!--entity EliminarGrado--><g class="entity" data-entity="EliminarGrado" data-source-line="15" data-uid="ent0012" id="entity_EliminarGrado"><rect fill="#CDEBA5" height="36.2969" rx="2.5" ry="2.5" style="stroke:#181818;stroke-width:0.5;" width="222.4668" x="1444.5" y="154"/><text fill="#000000" font-family="sans-serif" font-size="14" lengthAdjust="spacing" textLength="202.4668" x="1454.5" y="176.9951">:Collaboration EliminarGrado</text></g><!--entity ImportarGrados--><g class="entity" data-entity="ImportarGrados" data-source-line="16" data-uid="ent0013" id="entity_ImportarGrados"><rect fill="#CDEBA5" height="36.2969" rx="2.5" ry="2.5" style="stroke:#181818;stroke-width:0.5;" width="233.1992" x="1702" y="154"/><text fill="#000000" font-family="sans-serif" font-size="14" lengthAdjust="spacing" textLength="213.1992" x="1712" y="176.9951">:Collaboration ImportarGrados</text></g><!--link SistemaDisponible to VerGradosView--><g class="link" data-entity-1="SistemaDisponible" data-entity-2="VerGradosView" data-source-line="18" data-uid="lnk14" id="link_SistemaDisponible_VerGradosView"><path d="M166.28,59 C283.98,59 495.86,59 603.67,59" fill="none" id="SistemaDisponible-to-VerGradosView" style="stroke:#181818;stroke-width:1;"/><polygon fill="#181818" points="609.67,59,600.67,55,604.67,59,600.67,63,609.67,59" style="stroke:#181818;stroke-width:1;"/><text fill="#000000" font-family="sans-serif" font-size="13" lengthAdjust="spacing" textLength="77.543" x="349.5" y="52.0669">verGrados()</text></g><!--link GradoAbierto to VerGradosView--><g class="link" data-entity-1="GradoAbierto" data-entity-2="VerGradosView" data-source-line="19" data-uid="lnk15" id="link_GradoAbierto_VerGradosView"><path d="M850.6,59 C815.77,59 778.36,59 743.23,59" fill="none" id="GradoAbierto-to-VerGradosView" style="stroke:#181818;stroke-width:1;"/><polygon fill="#181818" points="737.23,59,746.23,63,742.23,59,746.23,55,737.23,59" style="stroke:#181818;stroke-width:1;"/><text fill="#000000" font-family="sans-serif" font-size="13" lengthAdjust="spacing" textLength="77.543" x="755.5" y="52.0669">verGrados()</text></g><!--link VerGradosView to GradosController--><g class="link" data-entity-1="VerGradosView" data-entity-2="GradosController" data-source-line="21" data-uid="lnk16" id="link_VerGradosView_GradosController"><path d="M609.8,67.45 C496.45,80.7 271.5,107 271.5,107 C271.5,107 271.5,124 271.5,124 C271.5,124 301.4302,137.9285 330.3102,151.3685" fill="none" id="VerGradosView-to-GradosController" style="stroke:#181818;stroke-width:1;"/><polygon fill="#181818" points="335.75,153.9,329.278,146.4762,331.2168,151.7904,325.9026,153.7292,335.75,153.9" style="stroke:#181818;stroke-width:1;"/><text fill="#000000" font-family="sans-serif" font-size="13" lengthAdjust="spacing" textLength="185.6563" x="272.5" y="120.0669">listarGrados() : List&lt;Grado&gt;</text></g><!--link VerGradosView to GradosController--><g class="link" data-entity-1="VerGradosView" data-entity-2="GradosController" data-source-line="27" data-uid="lnk19" id="link_VerGradosView_GradosController"><path d="M612.74,77.1 C564.99,90.54 506.5,107 506.5,107 C506.5,107 453.514,132.3037 413.824,151.2637" fill="none" id="VerGradosView-to-GradosController-1" style="stroke:#181818;stroke-width:1;"/><polygon fill="#181818" points="408.41,153.85,418.2552,153.5799,412.9217,151.6948,414.8068,146.3613,408.41,153.85" style="stroke:#181818;stroke-width:1;"/><text fill="#000000" font-family="sans-serif" font-size="13" lengthAdjust="spacing" textLength="234.9141" x="507.5" y="120.0669">filtrarGrados(criterio) : List&lt;Grado&gt;</text></g><!--link GradosController to GradoRepository--><g class="link" data-entity-1="GradosController" data-entity-2="GradoRepository" data-source-line="23" data-uid="lnk17" id="link_GradosController_GradoRepository"><path d="M320.47,190.1 C279.58,203.54 229.5,220 229.5,220 C229.5,220 229.5,237 229.5,237 C229.5,237 272.4962,251.5378 312.2362,264.9778" fill="none" id="GradosController-to-GradoRepository" style="stroke:#181818;stroke-width:1;"/><polygon fill="#181818" points="317.92,266.9,310.6759,260.2275,313.1835,265.2981,308.1129,267.8058,317.92,266.9" style="stroke:#181818;stroke-width:1;"/><text fill="#000000" font-family="sans-serif" font-size="13" lengthAdjust="spacing" textLength="196.644" x="230.5" y="233.0669">obtenerTodos() : List&lt;Grado&gt;</text></g><!--link GradosController to GradoRepository--><g class="link" data-entity-1="GradosController" data-entity-2="GradoRepository" data-source-line="29" data-uid="lnk20" id="link_GradosController_GradoRepository"><path d="M394.13,190.23 C410.97,203.65 431.5,220 431.5,220 C431.5,220 431.5,237 431.5,237 C431.5,237 414.3883,249.7611 396.4083,263.1811" fill="none" id="GradosController-to-GradoRepository-1" style="stroke:#181818;stroke-width:1;"/><polygon fill="#181818" points="391.6,266.77,401.2051,264.5923,395.6069,263.7793,396.4199,258.1811,391.6,266.77" style="stroke:#181818;stroke-width:1;"/><text fill="#000000" font-family="sans-serif" font-size="13" lengthAdjust="spacing" textLength="265.897" x="432.5" y="233.0669">buscarPorCriterio(criterio) : List&lt;Grado&gt;</text></g><!--link GradoRepository to Grado--><g class="link" data-entity-1="GradoRepository" data-entity-2="Grado" data-source-line="25" data-uid="lnk18" id="link_GradoRepository_Grado"><path d="M368.5,303.42 C368.5,320.57 368.5,346.58 368.5,363.69" fill="none" id="GradoRepository-Grado" style="stroke:#181818;stroke-width:1;"/></g><!--link VerGradosView to SistemaDisponibleSalida--><g class="link" data-entity-1="VerGradosView" data-entity-2="SistemaDisponibleSalida" data-source-line="31" data-uid="lnk21" id="link_VerGradosView_SistemaDisponibleSalida"><path d="M700.46,77.1 C733.35,97.96 783.5434,129.796 816.4434,150.666" fill="none" id="VerGradosView-to-SistemaDisponibleSalida" style="stroke:#181818;stroke-width:1;stroke-dasharray:7,7;"/><polygon fill="#181818" points="821.51,153.88,816.0528,145.6813,817.2878,151.2017,811.7675,152.4368,821.51,153.88" style="stroke:#181818;stroke-width:1;"/><text fill="#000000" font-family="sans-serif" font-size="13" lengthAdjust="spacing" textLength="125.9248" x="771.5" y="120.0669">completarGestion()</text></g><!--link VerGradosView to CrearGrado--><g class="link" data-entity-1="VerGradosView" data-entity-2="CrearGrado" data-source-line="32" data-uid="lnk22" id="link_VerGradosView_CrearGrado"><path d="M737.2,72.91 C805.88,86.82 905.5,107 905.5,107 C905.5,107 969.224,132.6494 1016.324,151.6094" fill="none" id="VerGradosView-to-CrearGrado" style="stroke:#181818;stroke-width:1;stroke-dasharray:7,7;"/><polygon fill="#181818" points="1021.89,153.85,1015.0348,146.7785,1017.2517,151.9829,1012.0474,154.1998,1021.89,153.85" style="stroke:#181818;stroke-width:1;"/><text fill="#000000" font-family="sans-serif" font-size="13" lengthAdjust="spacing" textLength="83.5352" x="944.5" y="120.0669">crearGrado()</text></g><!--link VerGradosView to EditarGrado--><g class="link" data-entity-1="VerGradosView" data-entity-2="EditarGrado" data-source-line="33" data-uid="lnk23" id="link_VerGradosView_EditarGrado"><path d="M737.15,68.24 C841.25,81.72 1036.5,107 1036.5,107 C1036.5,107 1148.2429,133.5812 1227.9329,152.5412" fill="none" id="VerGradosView-to-EditarGrado" style="stroke:#181818;stroke-width:1;stroke-dasharray:7,7;"/><polygon fill="#181818" points="1233.77,153.93,1225.9402,147.9555,1228.9058,152.7727,1224.0886,155.7382,1233.77,153.93" style="stroke:#181818;stroke-width:1;"/><text fill="#000000" font-family="sans-serif" font-size="13" lengthAdjust="spacing" textLength="88.0039" x="1102.5" y="120.0669">editarGrado()</text></g><!--link VerGradosView to EliminarGrado--><g class="link" data-entity-1="VerGradosView" data-entity-2="EliminarGrado" data-source-line="34" data-uid="lnk24" id="link_VerGradosView_EliminarGrado"><path d="M737.2,66.77 C781.81,71.51 833.5,77 833.5,77 C833.5,77 1199.5,107 1199.5,107 C1199.5,107 1349.2047,133.9083 1454.6647,152.8683" fill="none" id="VerGradosView-to-EliminarGrado" style="stroke:#181818;stroke-width:1;stroke-dasharray:7,7;"/><polygon fill="#181818" points="1460.57,153.93,1452.4198,148.4006,1455.6489,153.0453,1451.0042,156.2744,1460.57,153.93" style="stroke:#181818;stroke-width:1;"/><text fill="#000000" font-family="sans-serif" font-size="13" lengthAdjust="spacing" textLength="102.7813" x="1286.5" y="120.0669">eliminarGrado()</text></g><!--link VerGradosView to ImportarGrados--><g class="link" data-entity-1="VerGradosView" data-entity-2="ImportarGrados" data-source-line="35" data-uid="lnk25" id="link_VerGradosView_ImportarGrados"><path d="M737.2,66.77 C781.81,71.51 833.5,77 833.5,77 C833.5,77 1397.5,107 1397.5,107 C1397.5,107 1575.8582,134.1182 1700.5782,153.0782" fill="none" id="VerGradosView-to-ImportarGrados" style="stroke:#181818;stroke-width:1;stroke-dasharray:7,7;"/><polygon fill="#181818" points="1706.51,153.98,1698.2134,148.6728,1701.5668,153.2285,1697.0111,156.5819,1706.51,153.98" style="stroke:#181818;stroke-width:1;"/><text fill="#000000" font-family="sans-serif" font-size="13" lengthAdjust="spacing" textLength="112.7407" x="1499.5" y="120.0669">importarGrados()</text></g><!--SRC=[fLDDJy905BplhtZ12npWG8H8OqYmW37nOCHmtxPFyiAssxnTDSJutrtAHxUbAD6UEjEPsTVNgLbJbakMAIZAq6voX5ohpHO8mHXRcQqKmbKudTrD1j0A5cGifXAcP7ATKQIm1TB0dYxPHlCzoqJ3929agmjVmUm9aSjuBLS8xyW5RxQArX6rEotu5E0kBtlO7ytc8rWUH4l2Zxec6aJ9y6PtbWbrPbahXLoNpVkJy7gsaprZhWrPpPkVLEBhVqjQI4M9R8m8tOWoqYmjwGn2HhbxmIAeX1TuPmbPt-pXIzoAKiegVf-v8E4XpJKVJZH5H9KIucGnqENkkFfH0_2A8FpU_2eMbMVGJPoyNeR0_G3cE5Ax0m4yEkAsm6CXwdhe7aBAgWIW8uiPyei-dr7ANSI-HlK16-Tx9MNvE63CP959_t7GwCt4afyqX_kSyu7LsNgzyRaU1n3hD5UutIAQxRTtkpzrb-LrXkDzezIhQW1OWcQntqidzs6ZeTh20AY2svrl]--></g></svg>