<svg xmlns="http://www.w3.org/2000/svg" xmlns:xlink="http://www.w3.org/1999/xlink" contentStyleType="text/css" data-diagram-type="SEQUENCE" height="512px" preserveAspectRatio="none" style="width:753px;height:512px;background:#FFFFFF;" version="1.1" viewBox="0 0 753 512" width="753px" zoomAndPan="magnify"><defs/><g><g><title>.VerGradosView</title><rect fill="#FFFFFF" height="145.6641" style="stroke:#181818;stroke-width:1;" width="10" x="226.1865" y="67.4297"/></g><g><title>.GradosController</title><rect fill="#FFFFFF" height="87.3984" style="stroke:#181818;stroke-width:1;" width="10" x="388.356" y="96.5625"/></g><g><title>.GradosController</title><rect fill="#FFFFFF" height="87.3984" style="stroke:#181818;stroke-width:1;" width="10" x="388.356" y="307.625"/></g><g><title>.GradoRepository</title><rect fill="#FFFFFF" height="29.1328" style="stroke:#181818;stroke-width:1;" width="10" x="586.5083" y="125.6953"/></g><g><title>.GradoRepository</title><rect fill="#FFFFFF" height="29.1328" style="stroke:#181818;stroke-width:1;" width="10" x="586.5083" y="336.7578"/></g><g><title>.Sistema Disponible</title><rect fill="#000000" fill-opacity="0.00000" height="440.9922" width="8" x="77.5625" y="36.2969"/><line style="stroke:#181818;stroke-width:0.5;stroke-dasharray:5,5;" x1="81" x2="81" y1="36.2969" y2="477.2891"/></g><g><title>.VerGradosView</title><rect fill="#000000" fill-opacity="0.00000" height="440.9922" width="8" x="227.1865" y="36.2969"/><line style="stroke:#181818;stroke-width:0.5;stroke-dasharray:5,5;" x1="231.125" x2="231.125" y1="36.2969" y2="477.2891"/></g><g><title>.GradosController</title><rect fill="#000000" fill-opacity="0.00000" height="440.9922" width="8" x="389.356" y="36.2969"/><line style="stroke:#181818;stroke-width:0.5;stroke-dasharray:5,5;" x1="392.4463" x2="392.4463" y1="36.2969" y2="477.2891"/></g><g><title>.GradoRepository</title><rect fill="#000000" fill-opacity="0.00000" height="440.9922" width="8" x="587.5083" y="36.2969"/><line style="stroke:#181818;stroke-width:0.5;stroke-dasharray:5,5;" x1="591.2959" x2="591.2959" y1="36.2969" y2="477.2891"/></g><g><title>.Grado</title><rect fill="#000000" fill-opacity="0.00000" height="440.9922" width="8" x="713.0942" y="36.2969"/><line style="stroke:#181818;stroke-width:0.5;stroke-dasharray:5,5;" x1="716.418" x2="716.418" y1="36.2969" y2="477.2891"/></g><g class="participant participant-head" data-participant="Sistema"><rect fill="#E2E2F0" height="30.2969" rx="2.5" ry="2.5" style="stroke:#181818;stroke-width:0.5;" width="153.125" x="5" y="5"/><text fill="#000000" font-family="sans-serif" font-size="14" lengthAdjust="spacing" textLength="139.125" x="12" y="24.9951">:Sistema Disponible</text></g><g class="participant participant-tail" data-participant="Sistema"><rect fill="#E2E2F0" height="30.2969" rx="2.5" ry="2.5" style="stroke:#181818;stroke-width:0.5;" width="153.125" x="5" y="476.2891"/><text fill="#000000" font-family="sans-serif" font-size="14" lengthAdjust="spacing" textLength="139.125" x="12" y="496.2842">:Sistema Disponible</text></g><g class="participant participant-head" data-participant="View"><rect fill="#E2E2F0" height="30.2969" rx="2.5" ry="2.5" style="stroke:#181818;stroke-width:0.5;" width="126.123" x="168.125" y="5"/><text fill="#000000" font-family="sans-serif" font-size="14" lengthAdjust="spacing" textLength="112.123" x="175.125" y="24.9951">:VerGradosView</text></g><g class="participant participant-tail" data-participant="View"><rect fill="#E2E2F0" height="30.2969" rx="2.5" ry="2.5" style="stroke:#181818;stroke-width:0.5;" width="126.123" x="168.125" y="476.2891"/><text fill="#000000" font-family="sans-serif" font-size="14" lengthAdjust="spacing" textLength="112.123" x="175.125" y="496.2842">:VerGradosView</text></g><g class="participant participant-head" data-participant="Controller"><rect fill="#E2E2F0" height="30.2969" rx="2.5" ry="2.5" style="stroke:#181818;stroke-width:0.5;" width="137.8193" x="324.4463" y="5"/><text fill="#000000" font-family="sans-serif" font-size="14" lengthAdjust="spacing" textLength="123.8193" x="331.4463" y="24.9951">:GradosController</text></g><g class="participant participant-tail" data-participant="Controller"><rect fill="#E2E2F0" height="30.2969" rx="2.5" ry="2.5" style="stroke:#181818;stroke-width:0.5;" width="137.8193" x="324.4463" y="476.2891"/><text fill="#000000" font-family="sans-serif" font-size="14" lengthAdjust="spacing" textLength="123.8193" x="331.4463" y="496.2842">:GradosController</text></g><g class="participant participant-head" data-participant="Repository"><rect fill="#E2E2F0" height="30.2969" rx="2.5" ry="2.5" style="stroke:#181818;stroke-width:0.5;" width="136.4248" x="523.2959" y="5"/><text fill="#000000" font-family="sans-serif" font-size="14" lengthAdjust="spacing" textLength="122.4248" x="530.2959" y="24.9951">:GradoRepository</text></g><g class="participant participant-tail" data-participant="Repository"><rect fill="#E2E2F0" height="30.2969" rx="2.5" ry="2.5" style="stroke:#181818;stroke-width:0.5;" width="136.4248" x="523.2959" y="476.2891"/><text fill="#000000" font-family="sans-serif" font-size="14" lengthAdjust="spacing" textLength="122.4248" x="530.2959" y="496.2842">:GradoRepository</text></g><g class="participant participant-head" data-participant="Entity"><rect fill="#E2E2F0" height="30.2969" rx="2.5" ry="2.5" style="stroke:#181818;stroke-width:0.5;" width="61.3525" x="686.418" y="5"/><text fill="#000000" font-family="sans-serif" font-size="14" lengthAdjust="spacing" textLength="47.3525" x="693.418" y="24.9951">:Grado</text></g><g class="participant participant-tail" data-participant="Entity"><rect fill="#E2E2F0" height="30.2969" rx="2.5" ry="2.5" style="stroke:#181818;stroke-width:0.5;" width="61.3525" x="686.418" y="476.2891"/><text fill="#000000" font-family="sans-serif" font-size="14" lengthAdjust="spacing" textLength="47.3525" x="693.418" y="496.2842">:Grado</text></g><g><title>.VerGradosView</title><rect fill="#FFFFFF" height="145.6641" style="stroke:#181818;stroke-width:1;" width="10" x="226.1865" y="67.4297"/></g><g><title>.GradosController</title><rect fill="#FFFFFF" height="87.3984" style="stroke:#181818;stroke-width:1;" width="10" x="388.356" y="96.5625"/></g><g><title>.GradosController</title><rect fill="#FFFFFF" height="87.3984" style="stroke:#181818;stroke-width:1;" width="10" x="388.356" y="307.625"/></g><g><title>.GradoRepository</title><rect fill="#FFFFFF" height="29.1328" style="stroke:#181818;stroke-width:1;" width="10" x="586.5083" y="125.6953"/></g><g><title>.GradoRepository</title><rect fill="#FFFFFF" height="29.1328" style="stroke:#181818;stroke-width:1;" width="10" x="586.5083" y="336.7578"/></g><g class="message" data-participant-1="Sistema" data-participant-2="View"><polygon fill="#181818" points="214.1865,63.4297,224.1865,67.4297,214.1865,71.4297,218.1865,67.4297" style="stroke:#181818;stroke-width:1;"/><line style="stroke:#181818;stroke-width:1;" x1="81.5625" x2="220.1865" y1="67.4297" y2="67.4297"/><text fill="#000000" font-family="sans-serif" font-size="13" lengthAdjust="spacing" textLength="77.543" x="88.5625" y="62.3638">verGrados()</text></g><g class="message" data-participant-1="View" data-participant-2="Controller"><polygon fill="#181818" points="376.356,92.5625,386.356,96.5625,376.356,100.5625,380.356,96.5625" style="stroke:#181818;stroke-width:1;"/><line style="stroke:#181818;stroke-width:1;" x1="236.1865" x2="382.356" y1="96.5625" y2="96.5625"/><text fill="#000000" font-family="sans-serif" font-size="13" lengthAdjust="spacing" textLength="88.9116" x="243.1865" y="91.4966">listarGrados()</text></g><g class="message" data-participant-1="Controller" data-participant-2="Repository"><polygon fill="#181818" points="574.5083,121.6953,584.5083,125.6953,574.5083,129.6953,578.5083,125.6953" style="stroke:#181818;stroke-width:1;"/><line style="stroke:#181818;stroke-width:1;" x1="398.356" x2="580.5083" y1="125.6953" y2="125.6953"/><text fill="#000000" font-family="sans-serif" font-size="13" lengthAdjust="spacing" textLength="99.8994" x="405.356" y="120.6294">obtenerTodos()</text></g><g class="message" data-participant-1="Repository" data-participant-2="Entity"><polygon fill="#181818" points="705.0942,150.8281,715.0942,154.8281,705.0942,158.8281,709.0942,154.8281" style="stroke:#181818;stroke-width:1;"/><line style="stroke:#181818;stroke-width:1;" x1="591.5083" x2="711.0942" y1="154.8281" y2="154.8281"/><text fill="#000000" font-family="sans-serif" font-size="13" lengthAdjust="spacing" textLength="96.5859" x="598.5083" y="149.7622">crear instancia</text></g><g class="message" data-participant-1="Repository" data-participant-2="Controller"><polygon fill="#181818" points="404.356,179.9609,394.356,183.9609,404.356,187.9609,400.356,183.9609" style="stroke:#181818;stroke-width:1;"/><line style="stroke:#181818;stroke-width:1;" x1="398.356" x2="590.5083" y1="183.9609" y2="183.9609"/><text fill="#000000" font-family="sans-serif" font-size="13" lengthAdjust="spacing" textLength="84.1001" x="410.356" y="178.895">List&lt;Grado&gt;</text></g><g class="message" data-participant-1="Controller" data-participant-2="View"><polygon fill="#181818" points="242.1865,209.0938,232.1865,213.0938,242.1865,217.0938,238.1865,213.0938" style="stroke:#181818;stroke-width:1;"/><line style="stroke:#181818;stroke-width:1;" x1="236.1865" x2="392.356" y1="213.0938" y2="213.0938"/><text fill="#000000" font-family="sans-serif" font-size="13" lengthAdjust="spacing" textLength="84.1001" x="248.1865" y="208.0278">List&lt;Grado&gt;</text></g><path d="M96,226.0938 L96,281.0938 L366,281.0938 L366,236.0938 L356,226.0938 L96,226.0938" fill="#FEFFDD" style="stroke:#181818;stroke-width:0.5;"/><path d="M356,226.0938 L356,236.0938 L366,236.0938 L356,226.0938" fill="#FEFFDD" style="stroke:#181818;stroke-width:0.5;"/><text fill="#000000" font-family="sans-serif" font-size="13" lengthAdjust="spacing" textLength="161.8843" x="102" y="243.1606">Presenta lista de grados:</text><text fill="#000000" font-family="sans-serif" font-size="13" lengthAdjust="spacing" textLength="249.2915" x="102" y="258.2935">&#8226; Nombre, c&#243;digo, alumnos enlistados</text><text fill="#000000" font-family="sans-serif" font-size="13" lengthAdjust="spacing" textLength="133.231" x="102" y="273.4263">&#8226; Permite filtrar lista</text><g class="message" data-participant-1="View" data-participant-2="Controller"><polygon fill="#181818" points="376.356,303.625,386.356,307.625,376.356,311.625,380.356,307.625" style="stroke:#181818;stroke-width:1;"/><line style="stroke:#181818;stroke-width:1;" x1="231.1865" x2="382.356" y1="307.625" y2="307.625"/><text fill="#000000" font-family="sans-serif" font-size="13" lengthAdjust="spacing" textLength="138.1694" x="238.1865" y="302.5591">filtrarGrados(criterio)</text></g><g class="message" data-participant-1="Controller" data-participant-2="Repository"><polygon fill="#181818" points="574.5083,332.7578,584.5083,336.7578,574.5083,340.7578,578.5083,336.7578" style="stroke:#181818;stroke-width:1;"/><line style="stroke:#181818;stroke-width:1;" x1="398.356" x2="580.5083" y1="336.7578" y2="336.7578"/><text fill="#000000" font-family="sans-serif" font-size="13" lengthAdjust="spacing" textLength="169.1523" x="405.356" y="331.6919">buscarPorCriterio(criterio)</text></g><g class="message" data-participant-1="Repository" data-participant-2="Entity"><polygon fill="#181818" points="705.0942,361.8906,715.0942,365.8906,705.0942,369.8906,709.0942,365.8906" style="stroke:#181818;stroke-width:1;"/><line style="stroke:#181818;stroke-width:1;" x1="591.5083" x2="711.0942" y1="365.8906" y2="365.8906"/><text fill="#000000" font-family="sans-serif" font-size="13" lengthAdjust="spacing" textLength="96.5859" x="598.5083" y="360.8247">crear instancia</text></g><g class="message" data-participant-1="Repository" data-participant-2="Controller"><polygon fill="#181818" points="404.356,391.0234,394.356,395.0234,404.356,399.0234,400.356,395.0234" style="stroke:#181818;stroke-width:1;"/><line style="stroke:#181818;stroke-width:1;" x1="398.356" x2="590.5083" y1="395.0234" y2="395.0234"/><text fill="#000000" font-family="sans-serif" font-size="13" lengthAdjust="spacing" textLength="84.1001" x="410.356" y="389.9575">List&lt;Grado&gt;</text></g><g class="message" data-participant-1="Controller" data-participant-2="View"><polygon fill="#181818" points="242.1865,420.1563,232.1865,424.1563,242.1865,428.1563,238.1865,424.1563" style="stroke:#181818;stroke-width:1;"/><line style="stroke:#181818;stroke-width:1;" x1="236.1865" x2="392.356" y1="424.1563" y2="424.1563"/><text fill="#000000" font-family="sans-serif" font-size="13" lengthAdjust="spacing" textLength="84.1001" x="248.1865" y="419.0903">List&lt;Grado&gt;</text></g><path d="M151,437.1563 L151,462.1563 L311,462.1563 L311,447.1563 L301,437.1563 L151,437.1563" fill="#FEFFDD" style="stroke:#181818;stroke-width:0.5;"/><path d="M301,437.1563 L301,447.1563 L311,447.1563 L301,437.1563" fill="#FEFFDD" style="stroke:#181818;stroke-width:0.5;"/><text fill="#000000" font-family="sans-serif" font-size="13" lengthAdjust="spacing" textLength="139.0073" x="157" y="454.2231">Presenta lista filtrada</text><!--SRC=[rP71JiCm38RlUGfh9v2s5wYcNGRYWb05QFUqDPD56rTEDjGRpy8hy0Yy2Kz2adPAc0eIHowLtNo__TkspsHwBRg3bWoweKVekHr2efH_S5HJhus3HV50rc6duOfipuQg5XUWBKo_p-0ToeteXksEy2Lo8JY3HcBBnWctBKhaKZf7tsFFbXpB4E6Kpi4HkJQEtA3KoVvg4wqKS3nPlBXKkdPqr0v7bofy0vYy57u_rkaPHUPNfJYeaxa2k79eK1xvJ9qDe58SrAFl0cf1BK36TpSrQTNWh3XhlLvzQtthZQ-Zxqqkpdt7URqid_S7sRWWmpvaly4nBmKj6gV79K63i8zxAjJdwnlSSLS9Bg7-U6zepqlGxQ4pR05Dv3qOkHAb8r_tYLedVkRugD0q4DhDNsLYfxFKulL2_EVpL0TRQobPjbE5kLB_xbQvxFUBZMjiqhQ_0000]--></g></svg>