<svg xmlns="http://www.w3.org/2000/svg" xmlns:xlink="http://www.w3.org/1999/xlink" contentStyleType="text/css" data-diagram-type="STATE" height="807px" preserveAspectRatio="none" style="width:638px;height:807px;background:#FFFFFF;" version="1.1" viewBox="0 0 638 807" width="638px" zoomAndPan="magnify"><defs/><g><g id="ASIGNATURAS_ABIERTO"><rect fill="#F1F1F1" height="50" rx="12.5" ry="12.5" style="stroke:#181818;stroke-width:0.5;" width="188.9365" x="188" y="7"/><line style="stroke:#181818;stroke-width:0.5;" x1="188" x2="376.9365" y1="33.2969" y2="33.2969"/><text fill="#000000" font-family="sans-serif" font-size="14" lengthAdjust="spacing" textLength="168.9365" x="198" y="24.9951">ASIGNATURAS_ABIERTO</text></g><g id="ASIGNATURAS_ABIERTO2"><rect fill="#F1F1F1" height="50" rx="12.5" ry="12.5" style="stroke:#181818;stroke-width:0.5;" width="188.9365" x="78" y="751"/><line style="stroke:#181818;stroke-width:0.5;" x1="78" x2="266.9365" y1="777.2969" y2="777.2969"/><text fill="#000000" font-family="sans-serif" font-size="14" lengthAdjust="spacing" textLength="168.9365" x="88" y="768.9951">ASIGNATURAS_ABIERTO</text></g><path d="M19.5,118 L545.5,118 A12.5,12.5 0 0 1 558,130.5 L558,144.2969 L7,144.2969 L7,130.5 A12.5,12.5 0 0 1 19.5,118" fill="#F1F1F1"/><rect fill="none" height="538.2969" rx="12.5" ry="12.5" style="stroke:#181818;stroke-width:0.5;" width="551" x="7" y="118"/><line style="stroke:#181818;stroke-width:0.5;" x1="7" x2="558" y1="144.2969" y2="144.2969"/><text fill="#000000" font-family="sans-serif" font-size="14" lengthAdjust="spacing" textLength="123.1221" x="220.939" y="135.9951">crearAsignatura()</text><g id="crearAsignatura.SolicitandoDatosAsignatura"><rect fill="#F1F1F1" height="50" rx="12.5" ry="12.5" style="stroke:#181818;stroke-width:0.5;" width="50" x="19" y="246.2969"/><line style="stroke:#181818;stroke-width:0.5;" x1="19" x2="69" y1="272.5938" y2="272.5938"/><text fill="#000000" font-family="sans-serif" font-size="14" lengthAdjust="spacing" textLength="4.4502" x="41.7749" y="264.292">&#160;</text></g><g id="crearAsignatura.CreandoAsignatura"><rect fill="#F1F1F1" height="50" rx="12.5" ry="12.5" style="stroke:#181818;stroke-width:0.5;" width="50" x="19" y="488.2969"/><line style="stroke:#181818;stroke-width:0.5;" x1="19" x2="69" y1="514.5938" y2="514.5938"/><text fill="#000000" font-family="sans-serif" font-size="14" lengthAdjust="spacing" textLength="4.4502" x="41.7749" y="506.292">&#160;</text></g><ellipse cx="44" cy="165.2969" fill="#222222" rx="10" ry="10" style="stroke:#222222;stroke-width:1;"/><ellipse cx="44" cy="635.2969" fill="none" rx="11" ry="11" style="stroke:#222222;stroke-width:1;"/><ellipse cx="44" cy="635.2969" fill="#222222" rx="6" ry="6" style="stroke:#222222;stroke-width:1;"/><!--link *start*crearAsignatura to SolicitandoDatosAsignatura--><g class="link" data-entity-1=".start.crearAsignatura" data-entity-2="SolicitandoDatosAsignatura" data-source-line="11" data-uid="lnk3" id="link_.start.crearAsignatura_SolicitandoDatosAsignatura"><path d="M44,175.5269 C44,191.2369 44,217.6569 44,240.1669" fill="none" id="*start*crearAsignatura-to-SolicitandoDatosAsignatura" style="stroke:#008000;stroke-width:1;"/><polygon fill="#008000" points="44,246.1669,48,237.1669,44,241.1669,40,237.1669,44,246.1669" style="stroke:#008000;stroke-width:1;"/><path d="M49,198.2969 L49,223.2969 L336,223.2969 L336,208.2969 L326,198.2969 L49,198.2969" fill="#FEFFDD" style="stroke:#181818;stroke-width:0.5;"/><path d="M326,198.2969 L326,208.2969 L336,208.2969 L326,198.2969" fill="#FEFFDD" style="stroke:#181818;stroke-width:0.5;"/><text fill="#000000" font-family="sans-serif" font-size="13" font-weight="bold" lengthAdjust="spacing" textLength="60.5313" x="55" y="215.3638">Docente</text><text fill="#000000" font-family="sans-serif" font-size="13" lengthAdjust="spacing" textLength="201.5635" x="119.6636" y="215.3638">solicita crear nueva asignatura</text></g><!--link SolicitandoDatosAsignatura to CreandoAsignatura--><g class="link" data-entity-1="SolicitandoDatosAsignatura" data-entity-2="CreandoAsignatura" data-source-line="16" data-uid="lnk4" id="link_SolicitandoDatosAsignatura_CreandoAsignatura"><path d="M44,296.6269 C44,342.7469 44,436.3669 44,482.2569" fill="none" id="SolicitandoDatosAsignatura-to-CreandoAsignatura" style="stroke:#008000;stroke-width:1;"/><polygon fill="#008000" points="44,488.2569,48,479.2569,44,483.2569,40,479.2569,44,488.2569" style="stroke:#008000;stroke-width:1;"/><path d="M49,319.2969 L49,465.2969 L479,465.2969 L479,329.2969 L469,319.2969 L49,319.2969" fill="#FEFFDD" style="stroke:#181818;stroke-width:0.5;"/><path d="M469,319.2969 L469,329.2969 L479,329.2969 L469,319.2969" fill="#FEFFDD" style="stroke:#181818;stroke-width:0.5;"/><text fill="#000000" font-family="sans-serif" font-size="13" font-weight="bold" lengthAdjust="spacing" textLength="58.9063" x="55" y="336.3638">Sistema</text><text fill="#000000" font-family="sans-serif" font-size="13" lengthAdjust="spacing" textLength="345.9854" x="118.0386" y="336.3638">presenta solicitud de datos m&#237;nimos de la asignatura</text><text fill="#000000" font-family="sans-serif" font-size="13" lengthAdjust="spacing" textLength="147.6211" x="55" y="351.4966">&#8226; Nombre (obligatorio)</text><text fill="#000000" font-family="sans-serif" font-size="13" lengthAdjust="spacing" textLength="140.7847" x="55" y="366.6294">&#8226; C&#243;digo (obligatorio)</text><text fill="#000000" font-family="sans-serif" font-size="13" lengthAdjust="spacing" textLength="207.9111" x="55" y="381.7622">&#8226; Curso acad&#233;mico (obligatorio)</text><text fill="#000000" font-family="sans-serif" font-size="13" lengthAdjust="spacing" textLength="156.9331" x="55" y="396.895">&#8226; Alumnos matriculados</text><text fill="#000000" font-family="sans-serif" font-size="13" lengthAdjust="spacing" textLength="126.6929" x="55" y="412.0278">&#8226; Grados asociados</text><text fill="#000000" font-family="sans-serif" font-size="13" lengthAdjust="spacing" textLength="4.1323" x="55" y="427.1606">&#160;</text><text fill="#000000" font-family="sans-serif" font-size="13" lengthAdjust="spacing" textLength="229.125" x="55" y="442.2935">&#8226; Permite solicitar crear asignatura</text><text fill="#000000" font-family="sans-serif" font-size="13" lengthAdjust="spacing" textLength="236.6978" x="55" y="457.4263">&#8226; Permite solicitar cancelar creaci&#243;n</text></g><!--link CreandoAsignatura to *end*crearAsignatura--><g class="link" data-entity-1="CreandoAsignatura" data-entity-2=".end.crearAsignatura" data-source-line="29" data-uid="lnk6" id="link_CreandoAsignatura_.end.crearAsignatura"><path d="M44,538.5769 C44,564.8769 44,599.5669 44,618.2769" fill="none" id="CreandoAsignatura-to-*end*crearAsignatura" style="stroke:#008000;stroke-width:1;"/><polygon fill="#008000" points="44,624.2769,48,615.2769,44,619.2769,40,615.2769,44,624.2769" style="stroke:#008000;stroke-width:1;"/><path d="M49,561.2969 L49,601.2969 L549,601.2969 L549,571.2969 L539,561.2969 L49,561.2969" fill="#FEFFDD" style="stroke:#181818;stroke-width:0.5;"/><path d="M539,561.2969 L539,571.2969 L549,571.2969 L539,561.2969" fill="#FEFFDD" style="stroke:#181818;stroke-width:0.5;"/><text fill="#000000" font-family="sans-serif" font-size="13" font-weight="bold" lengthAdjust="spacing" textLength="60.5313" x="55" y="578.3638">Docente</text><text fill="#000000" font-family="sans-serif" font-size="13" lengthAdjust="spacing" textLength="177.8423" x="119.6636" y="578.3638">proporciona datos m&#237;nimos</text><text fill="#000000" font-family="sans-serif" font-size="13" font-weight="bold" lengthAdjust="spacing" textLength="58.9063" x="55" y="593.4966">Sistema</text><text fill="#000000" font-family="sans-serif" font-size="13" lengthAdjust="spacing" textLength="416.0127" x="118.0386" y="593.4966">crea asignatura y su bater&#237;a de preguntas y transfiere a edici&#243;n</text></g><g id="ASIGNATURA_ABIERTO"><rect fill="#F1F1F1" height="50" rx="12.5" ry="12.5" style="stroke:#181818;stroke-width:0.5;" width="180.0498" x="302.5" y="751"/><line style="stroke:#181818;stroke-width:0.5;" x1="302.5" x2="482.5498" y1="777.2969" y2="777.2969"/><text fill="#000000" font-family="sans-serif" font-size="14" lengthAdjust="spacing" textLength="160.0498" x="312.5" y="768.9951">ASIGNATURA_ABIERTO</text></g><!--link ASIGNATURAS_ABIERTO to crearAsignatura--><g class="link" data-entity-1="ASIGNATURAS_ABIERTO" data-entity-2="crearAsignatura" data-source-line="36" data-uid="lnk7" id="link_ASIGNATURAS_ABIERTO_crearAsignatura"><path d="M282.5,57.26 C282.5,72.37 282.5,87.56 282.5,111.97" fill="none" id="ASIGNATURAS_ABIERTO-to-crearAsignatura" style="stroke:#008000;stroke-width:1;"/><polygon fill="#008000" points="282.5,117.97,286.5,108.97,282.5,112.97,278.5,108.97,282.5,117.97" style="stroke:#008000;stroke-width:1;"/></g><!--link crearAsignatura to ASIGNATURA_ABIERTO--><g class="link" data-entity-1="crearAsignatura" data-entity-2="ASIGNATURA_ABIERTO" data-source-line="38" data-uid="lnk9" id="link_crearAsignatura_ASIGNATURA_ABIERTO"><path d="M358.75,656.26 C369.79,695.1 377.8398,723.4185 383.9698,744.9885" fill="none" id="crearAsignatura-to-ASIGNATURA_ABIERTO" style="stroke:#008000;stroke-width:1;"/><polygon fill="#008000" points="385.61,750.76,386.9973,741.0093,384.2432,745.9504,379.3021,743.1963,385.61,750.76" style="stroke:#008000;stroke-width:1;"/><path d="M381.5,691 L381.5,716 L631.5,716 L631.5,701 L621.5,691 L381.5,691" fill="#FEFFDD" style="stroke:#181818;stroke-width:0.5;"/><path d="M621.5,691 L621.5,701 L631.5,701 L621.5,691" fill="#FEFFDD" style="stroke:#181818;stroke-width:0.5;"/><text fill="#000000" font-family="sans-serif" font-size="13" lengthAdjust="spacing" textLength="229.874" x="387.5" y="708.0669">editarAsignatura(asignaturaNueva)</text></g><!--link crearAsignatura to ASIGNATURAS_ABIERTO2--><g class="link" data-entity-1="crearAsignatura" data-entity-2="ASIGNATURAS_ABIERTO2" data-source-line="43" data-uid="lnk10" id="link_crearAsignatura_ASIGNATURAS_ABIERTO2"><path d="M206.25,656.26 C195.21,695.1 187.1602,723.4185 181.0302,744.9885" fill="none" id="crearAsignatura-to-ASIGNATURAS_ABIERTO2" style="stroke:#0000FF;stroke-width:1;"/><polygon fill="#0000FF" points="179.39,750.76,185.6979,743.1963,180.7568,745.9504,178.0027,741.0093,179.39,750.76" style="stroke:#0000FF;stroke-width:1;"/><path d="M201.5,691 L201.5,716 L336.5,716 L336.5,701 L326.5,691 L201.5,691" fill="#FEFFDD" style="stroke:#181818;stroke-width:0.5;"/><path d="M326.5,691 L326.5,701 L336.5,701 L326.5,691" fill="#FEFFDD" style="stroke:#181818;stroke-width:0.5;"/><text fill="#000000" font-family="sans-serif" font-size="13" lengthAdjust="spacing" textLength="114.9624" x="207.5" y="708.0669">cancelar creaci&#243;n</text></g><!--SRC=[ZLJDQjmm4BxhAORD9Li8XPx3WfkKaCkcPDDJ26KiJOs8B1dz59PIwBFqraDEUGI_IP-a8- -klTxrXifWBCqtCzytet5urhP1ZpKORIck6uB6cNNU214YHe9YTNkpB1w-t1UhhyN7sq_t3tUdBHy00ymc3BDTEEa9VH5qPJ4cZnt-uEnyFeCVGW2lZS-C7yQjdD5IHxJANMDqOV0unbvnICRjGJhCuxidk7WygpoHVRfOl14IEhnr7DBPN9tdxk2oN5mxIJRIvVjo0M7hlv45Dj7tB6d4YwpQnE4b-jSRcVS97kiuHMkbGwGQErgDfy0SSSSlAL04AkU1kdsnkkOFFZ57PF_- -WrBLvUUuDoLHbViuxMRzyQhzbNfofso9XySe4JL_gcrF0KhJAfjveBHQvaCAXTwuutFMoRcfEw-Xg9bysVojMRvkzBxRUqdX4n0qKeoMn-fsrSxQj6GwQZkewxmDVglwz5urpWljRDuKFsfhcLEUp9W3I51oPVQjo-OsyLjhHAtDR0fUhJXcoPk508fFI7cfn0JapWISZ1vGXoEvpvu2DR_24O5O1PnDCU3bcKUZBdegKtbAKsYSPhXjp9EDD75NUH_]--></g></svg>