<svg xmlns="http://www.w3.org/2000/svg" xmlns:xlink="http://www.w3.org/1999/xlink" contentStyleType="text/css" data-diagram-type="STATE" height="777px" preserveAspectRatio="none" style="width:1147px;height:777px;background:#FFFFFF;" version="1.1" viewBox="0 0 1147 777" width="1147px" zoomAndPan="magnify"><defs/><g><g id="RESPUESTAS_ABIERTO"><rect fill="#F1F1F1" height="50" rx="12.5" ry="12.5" style="stroke:#181818;stroke-width:0.5;" width="179.3525" x="269" y="7"/><line style="stroke:#181818;stroke-width:0.5;" x1="269" x2="448.3525" y1="33.2969" y2="33.2969"/><text fill="#000000" font-family="sans-serif" font-size="14" lengthAdjust="spacing" textLength="159.3525" x="279" y="24.9951">RESPUESTAS_ABIERTO</text></g><g id="RESPUESTAS_CONTEXTUALES_ABIERTO"><rect fill="#F1F1F1" height="50" rx="12.5" ry="12.5" style="stroke:#181818;stroke-width:0.5;" width="298.5166" x="483" y="7"/><line style="stroke:#181818;stroke-width:0.5;" x1="483" x2="781.5166" y1="33.2969" y2="33.2969"/><text fill="#000000" font-family="sans-serif" font-size="14" lengthAdjust="spacing" textLength="278.5166" x="493" y="24.9951">RESPUESTAS_CONTEXTUALES_ABIERTO</text></g><g id="RESPUESTAS_ABIERTO2"><rect fill="#F1F1F1" height="50" rx="12.5" ry="12.5" style="stroke:#181818;stroke-width:0.5;" width="179.3525" x="7" y="721"/><line style="stroke:#181818;stroke-width:0.5;" x1="7" x2="186.3525" y1="747.2969" y2="747.2969"/><text fill="#000000" font-family="sans-serif" font-size="14" lengthAdjust="spacing" textLength="159.3525" x="17" y="738.9951">RESPUESTAS_ABIERTO</text></g><g id="RESPUESTAS_CONTEXTUALES_ABIERTO2"><rect fill="#F1F1F1" height="50" rx="12.5" ry="12.5" style="stroke:#181818;stroke-width:0.5;" width="298.5166" x="221" y="721"/><line style="stroke:#181818;stroke-width:0.5;" x1="221" x2="519.5166" y1="747.2969" y2="747.2969"/><text fill="#000000" font-family="sans-serif" font-size="14" lengthAdjust="spacing" textLength="278.5166" x="231" y="738.9951">RESPUESTAS_CONTEXTUALES_ABIERTO</text></g><path d="M306,118 L685,118 A12.5,12.5 0 0 1 697.5,130.5 L697.5,144.2969 L293.5,144.2969 L293.5,130.5 A12.5,12.5 0 0 1 306,118" fill="#F1F1F1"/><rect fill="none" height="508.2969" rx="12.5" ry="12.5" style="stroke:#181818;stroke-width:0.5;" width="404" x="293.5" y="118"/><line style="stroke:#181818;stroke-width:0.5;" x1="293.5" x2="697.5" y1="144.2969" y2="144.2969"/><text fill="#000000" font-family="sans-serif" font-size="14" lengthAdjust="spacing" textLength="120.6953" x="435.1523" y="135.9951">crearRespuesta()</text><g id="crearRespuesta.SolicitandoDatosRespuesta"><rect fill="#F1F1F1" height="50" rx="12.5" ry="12.5" style="stroke:#181818;stroke-width:0.5;" width="50" x="305.5" y="246.2969"/><line style="stroke:#181818;stroke-width:0.5;" x1="305.5" x2="355.5" y1="272.5938" y2="272.5938"/><text fill="#000000" font-family="sans-serif" font-size="14" lengthAdjust="spacing" textLength="4.4502" x="328.2749" y="264.292">&#160;</text></g><g id="crearRespuesta.ProcesandoCreacion"><rect fill="#F1F1F1" height="50" rx="12.5" ry="12.5" style="stroke:#181818;stroke-width:0.5;" width="50" x="305.5" y="458.2969"/><line style="stroke:#181818;stroke-width:0.5;" x1="305.5" x2="355.5" y1="484.5938" y2="484.5938"/><text fill="#000000" font-family="sans-serif" font-size="14" lengthAdjust="spacing" textLength="4.4502" x="328.2749" y="476.292">&#160;</text></g><ellipse cx="330.5" cy="165.2969" fill="#222222" rx="10" ry="10" style="stroke:#222222;stroke-width:1;"/><ellipse cx="330.5" cy="605.2969" fill="none" rx="11" ry="11" style="stroke:#222222;stroke-width:1;"/><ellipse cx="330.5" cy="605.2969" fill="#222222" rx="6" ry="6" style="stroke:#222222;stroke-width:1;"/><!--link *start*crearRespuesta to SolicitandoDatosRespuesta--><g class="link" data-entity-1=".start.crearRespuesta" data-entity-2="SolicitandoDatosRespuesta" data-source-line="16" data-uid="lnk5" id="link_.start.crearRespuesta_SolicitandoDatosRespuesta"><path d="M330.5,175.5269 C330.5,191.2369 330.5,217.6569 330.5,240.1669" fill="none" id="*start*crearRespuesta-to-SolicitandoDatosRespuesta" style="stroke:#008000;stroke-width:1;"/><polygon fill="#008000" points="330.5,246.1669,334.5,237.1669,330.5,241.1669,326.5,237.1669,330.5,246.1669" style="stroke:#008000;stroke-width:1;"/><path d="M335.5,198.2969 L335.5,223.2969 L617.5,223.2969 L617.5,208.2969 L607.5,198.2969 L335.5,198.2969" fill="#FEFFDD" style="stroke:#181818;stroke-width:0.5;"/><path d="M607.5,198.2969 L607.5,208.2969 L617.5,208.2969 L607.5,198.2969" fill="#FEFFDD" style="stroke:#181818;stroke-width:0.5;"/><text fill="#000000" font-family="sans-serif" font-size="13" font-weight="bold" lengthAdjust="spacing" textLength="60.5313" x="341.5" y="215.3638">Docente</text><text fill="#000000" font-family="sans-serif" font-size="13" lengthAdjust="spacing" textLength="196.5488" x="406.1636" y="215.3638">solicita crear nueva respuesta</text></g><!--link SolicitandoDatosRespuesta to ProcesandoCreacion--><g class="link" data-entity-1="SolicitandoDatosRespuesta" data-entity-2="ProcesandoCreacion" data-source-line="21" data-uid="lnk6" id="link_SolicitandoDatosRespuesta_ProcesandoCreacion"><path d="M330.5,296.3869 C330.5,336.7869 330.5,411.7369 330.5,452.1669" fill="none" id="SolicitandoDatosRespuesta-to-ProcesandoCreacion" style="stroke:#008000;stroke-width:1;"/><polygon fill="#008000" points="330.5,458.1669,334.5,449.1669,330.5,453.1669,326.5,449.1669,330.5,458.1669" style="stroke:#008000;stroke-width:1;"/><path d="M335.5,319.2969 L335.5,435.2969 L688.5,435.2969 L688.5,329.2969 L678.5,319.2969 L335.5,319.2969" fill="#FEFFDD" style="stroke:#181818;stroke-width:0.5;"/><path d="M678.5,319.2969 L678.5,329.2969 L688.5,329.2969 L678.5,319.2969" fill="#FEFFDD" style="stroke:#181818;stroke-width:0.5;"/><text fill="#000000" font-family="sans-serif" font-size="13" font-weight="bold" lengthAdjust="spacing" textLength="58.9063" x="341.5" y="336.3638">Sistema</text><text fill="#000000" font-family="sans-serif" font-size="13" lengthAdjust="spacing" textLength="269.2612" x="404.5386" y="336.3638">presenta una solicitud de datos m&#237;nimos:</text><line style="stroke:#181818;stroke-width:1;" x1="336.5" x2="687.7998" y1="339.4297" y2="339.4297"/><text fill="#000000" font-family="sans-serif" font-size="13" font-weight="bold" lengthAdjust="spacing" textLength="81.8657" x="341.5" y="355.4966">Respuesta:</text><text fill="#000000" font-family="sans-serif" font-size="13" lengthAdjust="spacing" textLength="162.1064" x="341.5" y="370.6294">&#8226; Contenido (obligatorio)</text><text fill="#000000" font-family="sans-serif" font-size="13" lengthAdjust="spacing" textLength="230.293" x="341.5" y="385.7622">&#8226; Correcto/no correcto (obligatorio)</text><line style="stroke:#181818;stroke-width:1;" x1="336.5" x2="687.7998" y1="392.8281" y2="392.8281"/><text fill="#000000" font-family="sans-serif" font-size="13" lengthAdjust="spacing" textLength="224.1104" x="341.5" y="408.895">&#8226; Permite solicitar crear respuesta</text><text fill="#000000" font-family="sans-serif" font-size="13" lengthAdjust="spacing" textLength="245.7559" x="341.5" y="424.0278">&#8226; Permite solicitar cancelar operaci&#243;n</text></g><!--link ProcesandoCreacion to *end*crearRespuesta--><g class="link" data-entity-1="ProcesandoCreacion" data-entity-2=".end.crearRespuesta" data-source-line="33" data-uid="lnk8" id="link_ProcesandoCreacion_.end.crearRespuesta"><path d="M330.5,508.5769 C330.5,534.8769 330.5,569.5669 330.5,588.2769" fill="none" id="ProcesandoCreacion-to-*end*crearRespuesta" style="stroke:#008000;stroke-width:1;"/><polygon fill="#008000" points="330.5,594.2769,334.5,585.2769,330.5,589.2769,326.5,585.2769,330.5,594.2769" style="stroke:#008000;stroke-width:1;"/><path d="M335.5,531.2969 L335.5,571.2969 L658.5,571.2969 L658.5,541.2969 L648.5,531.2969 L335.5,531.2969" fill="#FEFFDD" style="stroke:#181818;stroke-width:0.5;"/><path d="M648.5,531.2969 L648.5,541.2969 L658.5,541.2969 L648.5,531.2969" fill="#FEFFDD" style="stroke:#181818;stroke-width:0.5;"/><text fill="#000000" font-family="sans-serif" font-size="13" font-weight="bold" lengthAdjust="spacing" textLength="60.5313" x="341.5" y="548.3638">Docente</text><text fill="#000000" font-family="sans-serif" font-size="13" lengthAdjust="spacing" textLength="177.8423" x="406.1636" y="548.3638">proporciona datos m&#237;nimos</text><text fill="#000000" font-family="sans-serif" font-size="13" font-weight="bold" lengthAdjust="spacing" textLength="58.9063" x="341.5" y="563.4966">Sistema</text><text fill="#000000" font-family="sans-serif" font-size="13" lengthAdjust="spacing" textLength="238.9829" x="404.5386" y="563.4966">crea respuesta y transfiere a edici&#243;n</text></g><g id="RESPUESTA_ABIERTO"><rect fill="#F1F1F1" height="50" rx="12.5" ry="12.5" style="stroke:#181818;stroke-width:0.5;" width="170.4658" x="555.5" y="721"/><line style="stroke:#181818;stroke-width:0.5;" x1="555.5" x2="725.9658" y1="747.2969" y2="747.2969"/><text fill="#000000" font-family="sans-serif" font-size="14" lengthAdjust="spacing" textLength="150.4658" x="565.5" y="738.9951">RESPUESTA_ABIERTO</text></g><g id="RESPUESTA_CONTEXTUAL_ABIERTO"><rect fill="#F1F1F1" height="50" rx="12.5" ry="12.5" style="stroke:#181818;stroke-width:0.5;" width="271.8975" x="779.5" y="721"/><line style="stroke:#181818;stroke-width:0.5;" x1="779.5" x2="1051.3975" y1="747.2969" y2="747.2969"/><text fill="#000000" font-family="sans-serif" font-size="14" lengthAdjust="spacing" textLength="251.8975" x="789.5" y="738.9951">RESPUESTA_CONTEXTUAL_ABIERTO</text></g><!--link RESPUESTAS_ABIERTO to crearRespuesta--><g class="link" data-entity-1="RESPUESTAS_ABIERTO" data-entity-2="crearRespuesta" data-source-line="8" data-uid="lnk2" id="link_RESPUESTAS_ABIERTO_crearRespuesta"><path d="M368.24,57.04 C374.39,72.19 380.7662,87.9394 390.6762,112.3894" fill="none" id="RESPUESTAS_ABIERTO-to-crearRespuesta" style="stroke:#008000;stroke-width:1;"/><polygon fill="#008000" points="392.93,117.95,393.2564,108.1066,391.0518,113.3162,385.8422,111.1116,392.93,117.95" style="stroke:#008000;stroke-width:1;"/></g><!--link RESPUESTAS_CONTEXTUALES_ABIERTO to crearRespuesta--><g class="link" data-entity-1="RESPUESTAS_CONTEXTUALES_ABIERTO" data-entity-2="crearRespuesta" data-source-line="9" data-uid="lnk3" id="link_RESPUESTAS_CONTEXTUALES_ABIERTO_crearRespuesta"><path d="M622.76,57.04 C616.61,72.19 610.2338,87.9394 600.3238,112.3894" fill="none" id="RESPUESTAS_CONTEXTUALES_ABIERTO-to-crearRespuesta" style="stroke:#008000;stroke-width:1;"/><polygon fill="#008000" points="598.07,117.95,605.1578,111.1116,599.9482,113.3162,597.7436,108.1066,598.07,117.95" style="stroke:#008000;stroke-width:1;"/></g><!--link crearRespuesta to RESPUESTA_ABIERTO--><g class="link" data-entity-1="crearRespuesta" data-entity-2="RESPUESTA_ABIERTO" data-source-line="40" data-uid="lnk10" id="link_crearRespuesta_RESPUESTA_ABIERTO"><path d="M592.66,626.26 C607.24,664.25 617.5,691 617.5,691 C617.5,691 621.739,700.9498 627.859,715.3198" fill="none" id="crearRespuesta-to-RESPUESTA_ABIERTO" style="stroke:#008000;stroke-width:1;"/><polygon fill="#008000" points="630.21,720.84,630.3637,710.9923,628.2508,716.2398,623.0034,714.127,630.21,720.84" style="stroke:#008000;stroke-width:1;"/><path d="M622.5,661 L622.5,686 L867.5,686 L867.5,671 L857.5,661 L622.5,661" fill="#FEFFDD" style="stroke:#181818;stroke-width:0.5;"/><path d="M857.5,661 L857.5,671 L867.5,671 L857.5,661" fill="#FEFFDD" style="stroke:#181818;stroke-width:0.5;"/><text fill="#000000" font-family="sans-serif" font-size="13" lengthAdjust="spacing" textLength="224.8086" x="628.5" y="678.0669">editarRespuesta(nuevaRespuesta)</text></g><!--link crearRespuesta to RESPUESTA_CONTEXTUAL_ABIERTO--><g class="link" data-entity-1="crearRespuesta" data-entity-2="RESPUESTA_CONTEXTUAL_ABIERTO" data-source-line="45" data-uid="lnk12" id="link_crearRespuesta_RESPUESTA_CONTEXTUAL_ABIERTO"><path d="M697.71,523.2 C788.9,590.93 876.5,656 876.5,656 C876.5,656 890.893,688.834 902.433,715.184" fill="none" id="crearRespuesta-to-RESPUESTA_CONTEXTUAL_ABIERTO" style="stroke:#008000;stroke-width:1;"/><polygon fill="#008000" points="904.84,720.68,904.8935,710.8313,902.8342,716.1,897.5655,714.0406,904.84,720.68" style="stroke:#008000;stroke-width:1;"/><path d="M895.5,661 L895.5,686 L1140.5,686 L1140.5,671 L1130.5,661 L895.5,661" fill="#FEFFDD" style="stroke:#181818;stroke-width:0.5;"/><path d="M1130.5,661 L1130.5,671 L1140.5,671 L1130.5,661" fill="#FEFFDD" style="stroke:#181818;stroke-width:0.5;"/><text fill="#000000" font-family="sans-serif" font-size="13" lengthAdjust="spacing" textLength="224.8086" x="901.5" y="678.0669">editarRespuesta(nuevaRespuesta)</text></g><!--link crearRespuesta to RESPUESTAS_ABIERTO2--><g class="link" data-entity-1="crearRespuesta" data-entity-2="RESPUESTAS_ABIERTO2" data-source-line="50" data-uid="lnk13" id="link_crearRespuesta_RESPUESTAS_ABIERTO2"><path d="M293.37,561.45 C225.4,624.82 162.2286,683.7186 126.6386,716.8986" fill="none" id="crearRespuesta-to-RESPUESTAS_ABIERTO2" style="stroke:#0000FF;stroke-width:1;"/><polygon fill="#0000FF" points="122.25,720.99,131.5606,717.7786,125.9072,717.5805,126.1053,711.9271,122.25,720.99" style="stroke:#0000FF;stroke-width:1;"/><path d="M188.5,661 L188.5,686 L323.5,686 L323.5,671 L313.5,661 L188.5,661" fill="#FEFFDD" style="stroke:#181818;stroke-width:0.5;"/><path d="M313.5,661 L313.5,671 L323.5,671 L313.5,661" fill="#FEFFDD" style="stroke:#181818;stroke-width:0.5;"/><text fill="#000000" font-family="sans-serif" font-size="13" lengthAdjust="spacing" textLength="114.9624" x="194.5" y="678.0669">cancelar creaci&#243;n</text></g><!--link crearRespuesta to RESPUESTAS_CONTEXTUALES_ABIERTO2--><g class="link" data-entity-1="crearRespuesta" data-entity-2="RESPUESTAS_CONTEXTUALES_ABIERTO2" data-source-line="55" data-uid="lnk14" id="link_crearRespuesta_RESPUESTAS_CONTEXTUALES_ABIERTO2"><path d="M410.48,626.02 C397.49,664.68 387.9139,693.2034 380.6139,714.8934" fill="none" id="crearRespuesta-to-RESPUESTAS_CONTEXTUALES_ABIERTO2" style="stroke:#0000FF;stroke-width:1;"/><polygon fill="#0000FF" points="378.7,720.58,385.3619,713.3261,380.2949,715.8412,377.7798,710.7742,378.7,720.58" style="stroke:#0000FF;stroke-width:1;"/><path d="M402.5,661 L402.5,686 L537.5,686 L537.5,671 L527.5,661 L402.5,661" fill="#FEFFDD" style="stroke:#181818;stroke-width:0.5;"/><path d="M527.5,661 L527.5,671 L537.5,671 L527.5,661" fill="#FEFFDD" style="stroke:#181818;stroke-width:0.5;"/><text fill="#000000" font-family="sans-serif" font-size="13" lengthAdjust="spacing" textLength="114.9624" x="408.5" y="678.0669">cancelar creaci&#243;n</text></g><!--SRC=[hLJ1Qjmm4BthAmRdaYsOG8uXB6mtFWHAiwmtK0YXQErf4B5dZ2G7bbB8j-JUKpyXVz8lgUJrsglOcswXCXXhDFFUcoTBvb5H9RKieL24TbCXL5ni_4G8OwL5M2RfuZP9LxFqw-pZTR9StGmNvZUVLycNrUtiK_9ELhjm3j90D8n7n-4EoiUI8Y66113VdJneHBgFfv1fb7g9fghHqOg_uBrNsieEeut8C7GwYU2x4E36jY9oZqjBkL2Pif9olfAMJOyyI5repj3upBc3pXJJ5k_kmtsWy20aDEd43fB9x_bZ4xXSJwySCbcyF5jFmRJbsvw0QdoIe0DPIFaMnWtHlGxpxgiRwUAGgbGPYwLiL5LEWPCeeIQvarZda2FadWlArv-aIZONJN4SnpkGJiM5nscYlvzVOCwkNr8vmocl2_NWGBJYoTwwrfXPFYE6hFqUITqH-P85wbAvBdO6wjR1qBi3cP8oBDm7LwYTAw-_A72wTtdeNs2l-ncEskLASyNQbyit3ewvxnlf-u0DM2t9V5Ee4IHWhaOK_n3YpQdOrzaTkUx621GxIBj_Ufg_i9jEHCTo74T_gly_tRgeCM3hBwkGfDlZhDauRzW_uexUY4UJ_040]--></g></svg>