<svg xmlns="http://www.w3.org/2000/svg" xmlns:xlink="http://www.w3.org/1999/xlink" contentStyleType="text/css" data-diagram-type="SALT" height="548px" preserveAspectRatio="none" style="width:447px;height:548px;background:#FFFFFF;" version="1.1" viewBox="0 0 447 548" width="447px" zoomAndPan="magnify"><defs/><g><text fill="#000000" font-family="sans-serif" font-size="12" font-weight="bold" lengthAdjust="spacing" textLength="187.7168" x="6" y="17.1387">CREAR NUEVA ASIGNATURA</text><line style="stroke:#AAAAAA;stroke-width:1;" x1="6" x2="440.6699" y1="24.4688" y2="24.4688"/><line style="stroke:#AAAAAA;stroke-width:1;" x1="6" x2="440.6699" y1="26.4688" y2="26.4688"/><text fill="#000000" font-family="sans-serif" font-size="12" font-weight="bold" lengthAdjust="spacing" textLength="128.5254" x="6" y="41.1074">1. Datos Generales</text><text fill="#000000" font-family="sans-serif" font-size="12" font-style="italic" lengthAdjust="spacing" textLength="181.9688" x="6" y="57.0762">Informaci&#243;n b&#225;sica obligatoria</text><text fill="#000000" font-family="sans-serif" font-size="12" lengthAdjust="spacing" textLength="56.8711" x="7" y="90.0137">T&#237;tulo (*):</text><text fill="#000000" font-family="sans-serif" font-size="12" lengthAdjust="spacing" textLength="3.8145" x="139.6699" y="90.0137">&#160;</text><line style="stroke:#000000;stroke-width:1;" x1="137.6699" x2="436.6699" y1="92.8438" y2="92.8438"/><line style="stroke:#000000;stroke-width:1;" x1="137.6699" x2="137.6699" y1="89.8438" y2="91.8438"/><line style="stroke:#000000;stroke-width:1;" x1="436.6699" x2="436.6699" y1="89.8438" y2="91.8438"/><text fill="#000000" font-family="sans-serif" font-size="12" lengthAdjust="spacing" textLength="64.8516" x="7" y="107.9824">C&#243;digo (*):</text><text fill="#000000" font-family="sans-serif" font-size="12" lengthAdjust="spacing" textLength="3.8145" x="139.6699" y="107.9824">&#160;</text><line style="stroke:#000000;stroke-width:1;" x1="137.6699" x2="228.6699" y1="110.8125" y2="110.8125"/><line style="stroke:#000000;stroke-width:1;" x1="137.6699" x2="137.6699" y1="107.8125" y2="109.8125"/><line style="stroke:#000000;stroke-width:1;" x1="228.6699" x2="228.6699" y1="107.8125" y2="109.8125"/><text fill="#000000" font-family="sans-serif" font-size="12" lengthAdjust="spacing" textLength="127.6699" x="7" y="125.9512">Curso Acad&#233;mico (*):</text><rect fill="#EEEEEE" height="16.9688" style="stroke:#000000;stroke-width:1;" width="87" x="136.6699" y="114.8125"/><text fill="#000000" font-family="sans-serif" font-size="12" lengthAdjust="spacing" textLength="65.1211" x="138.6699" y="127.9512">2024/2025</text><line style="stroke:#000000;stroke-width:1;" x1="212.6699" x2="212.6699" y1="114.8125" y2="131.7813"/><polygon fill="#000000" points="215.6699,120.8125,221.6699,120.8125,218.6699,126.7813" style="stroke:#000000;stroke-width:1;"/><line style="stroke:#AAAAAA;stroke-width:1;" x1="6" x2="440.6699" y1="155.25" y2="155.25"/><text fill="#000000" font-family="sans-serif" font-size="12" font-weight="bold" lengthAdjust="spacing" textLength="159.2051" x="6" y="186.8574">2. Vinculaci&#243;n a Grados</text><text fill="#000000" font-family="sans-serif" font-size="12" font-style="italic" lengthAdjust="spacing" textLength="265.6113" x="6" y="202.8262">&#191;A qu&#233; titulaciones pertenece esta materia?</text><text fill="#000000" font-family="sans-serif" font-size="12" lengthAdjust="spacing" textLength="191.7422" x="27" y="235.7637">Grado en Ingenier&#237;a Inform&#225;tica</text><rect fill="none" height="10" style="stroke:#000000;stroke-width:1.5;" width="10" x="9" y="226.6094"/><text fill="#000000" font-family="sans-serif" font-size="12" lengthAdjust="spacing" textLength="176.7715" x="27" y="251.7324">Grado en Ingenier&#237;a de Datos</text><rect fill="none" height="10" style="stroke:#000000;stroke-width:1.5;" width="10" x="9" y="242.5781"/><text fill="#000000" font-family="sans-serif" font-size="12" lengthAdjust="spacing" textLength="136.2422" x="27" y="267.7012">Grado en Matem&#225;ticas</text><rect fill="none" height="10" style="stroke:#000000;stroke-width:1.5;" width="10" x="9" y="258.5469"/><text fill="#000000" font-family="sans-serif" font-size="12" lengthAdjust="spacing" textLength="11.4434" x="27" y="283.6699">...</text><rect fill="none" height="10" style="stroke:#000000;stroke-width:1.5;" width="10" x="9" y="274.5156"/><line style="stroke:#000000;stroke-width:1;" x1="6" x2="219.7422" y1="223.625" y2="223.625"/><line style="stroke:#000000;stroke-width:1;" x1="6" x2="219.7422" y1="287.5" y2="287.5"/><line style="stroke:#000000;stroke-width:1;" x1="6" x2="6" y1="223.625" y2="239.5938"/><line style="stroke:#000000;stroke-width:1;" x1="219.7422" x2="219.7422" y1="239.5938" y2="255.5625"/><line style="stroke:#000000;stroke-width:1;" x1="219.7422" x2="219.7422" y1="223.625" y2="239.5938"/><line style="stroke:#000000;stroke-width:1;" x1="6" x2="6" y1="271.5313" y2="287.5"/><line style="stroke:#000000;stroke-width:1;" x1="6" x2="6" y1="255.5625" y2="271.5313"/><line style="stroke:#000000;stroke-width:1;" x1="219.7422" x2="219.7422" y1="271.5313" y2="287.5"/><line style="stroke:#000000;stroke-width:1;" x1="6" x2="6" y1="239.5938" y2="255.5625"/><line style="stroke:#000000;stroke-width:1;" x1="219.7422" x2="219.7422" y1="255.5625" y2="271.5313"/><rect fill="none" height="63.875" style="stroke:#000000;stroke-width:1;" width="15" x="223.7422" y="223.625"/><line style="stroke:#000000;stroke-width:1;" x1="223.7422" x2="238.7422" y1="235.625" y2="235.625"/><line style="stroke:#000000;stroke-width:1;" x1="223.7422" x2="238.7422" y1="275.5" y2="275.5"/><path d="M230.7422,227.625 L233.7422,232.625 L227.7422,232.625 L230.7422,227.625" fill="#000000"/><path d="M230.7422,284.5 L233.7422,279.5 L227.7422,279.5 L230.7422,284.5" fill="#000000"/><line style="stroke:#AAAAAA;stroke-width:1;" x1="6" x2="440.6699" y1="308.9688" y2="308.9688"/><text fill="#000000" font-family="sans-serif" font-size="12" font-weight="bold" lengthAdjust="spacing" textLength="153.5098" x="6" y="340.5762">3. Matriculaci&#243;n Inicial</text><text fill="#000000" font-family="sans-serif" font-size="12" font-style="italic" lengthAdjust="spacing" textLength="304.5059" x="6" y="356.5449">Seleccione alumnos para inscribir ahora (opcional)</text><text fill="#000000" font-family="sans-serif" font-size="12" lengthAdjust="spacing" textLength="198.7969" x="27" y="389.4824">Seleccionar todos los disponibles</text><rect fill="none" height="10" style="stroke:#000000;stroke-width:1.5;" width="10" x="9" y="380.3281"/><text fill="#000000" font-family="sans-serif" font-size="12" lengthAdjust="spacing" textLength="104.5195" x="27" y="421.4199">001 - Abad, Luisa</text><rect fill="none" height="10" style="stroke:#000000;stroke-width:1.5;" width="10" x="9" y="412.2656"/><text fill="#000000" font-family="sans-serif" font-size="12" lengthAdjust="spacing" textLength="126.4746" x="27" y="437.3887">002 - Barroso, Carlos</text><rect fill="none" height="10" style="stroke:#000000;stroke-width:1.5;" width="10" x="9" y="428.2344"/><text fill="#000000" font-family="sans-serif" font-size="12" lengthAdjust="spacing" textLength="107.8184" x="27" y="453.3574">003 - Cano, David</text><rect fill="none" height="10" style="stroke:#000000;stroke-width:1.5;" width="10" x="9" y="444.2031"/><text fill="#000000" font-family="sans-serif" font-size="12" lengthAdjust="spacing" textLength="11.4434" x="27" y="469.3262">...</text><rect fill="none" height="10" style="stroke:#000000;stroke-width:1.5;" width="10" x="9" y="460.1719"/><line style="stroke:#000000;stroke-width:1;" x1="6" x2="226.7969" y1="377.3438" y2="377.3438"/><line style="stroke:#000000;stroke-width:1;" x1="6" x2="226.7969" y1="473.1563" y2="473.1563"/><line style="stroke:#000000;stroke-width:1;" x1="6" x2="6" y1="377.3438" y2="393.3125"/><line style="stroke:#000000;stroke-width:1;" x1="226.7969" x2="226.7969" y1="393.3125" y2="409.2813"/><line style="stroke:#000000;stroke-width:1;" x1="226.7969" x2="226.7969" y1="377.3438" y2="393.3125"/><line style="stroke:#000000;stroke-width:1;" x1="6" x2="6" y1="457.1875" y2="473.1563"/><line style="stroke:#000000;stroke-width:1;" x1="6" x2="6" y1="441.2188" y2="457.1875"/><line style="stroke:#000000;stroke-width:1;" x1="226.7969" x2="226.7969" y1="457.1875" y2="473.1563"/><line style="stroke:#000000;stroke-width:1;" x1="6" x2="6" y1="425.25" y2="441.2188"/><line style="stroke:#000000;stroke-width:1;" x1="226.7969" x2="226.7969" y1="441.2188" y2="457.1875"/><line style="stroke:#000000;stroke-width:1;" x1="6" x2="6" y1="409.2813" y2="425.25"/><line style="stroke:#000000;stroke-width:1;" x1="226.7969" x2="226.7969" y1="425.25" y2="441.2188"/><line style="stroke:#000000;stroke-width:1;" x1="6" x2="6" y1="393.3125" y2="409.2813"/><line style="stroke:#000000;stroke-width:1;" x1="226.7969" x2="226.7969" y1="409.2813" y2="425.25"/><rect fill="none" height="95.8125" style="stroke:#000000;stroke-width:1;" width="15" x="230.7969" y="377.3438"/><line style="stroke:#000000;stroke-width:1;" x1="230.7969" x2="245.7969" y1="389.3438" y2="389.3438"/><line style="stroke:#000000;stroke-width:1;" x1="230.7969" x2="245.7969" y1="461.1563" y2="461.1563"/><path d="M237.7969,381.3438 L240.7969,386.3438 L234.7969,386.3438 L237.7969,381.3438" fill="#000000"/><path d="M237.7969,470.1563 L240.7969,465.1563 L234.7969,465.1563 L237.7969,470.1563" fill="#000000"/><line style="stroke:#AAAAAA;stroke-width:1.5;" x1="6" x2="440.6699" y1="494.625" y2="494.625"/><rect fill="#EEEEEE" height="17.9688" rx="5" ry="5" style="stroke:#000000;stroke-width:2.5;" width="132" x="9.5" y="518.5938"/><text fill="#000000" font-family="sans-serif" font-size="12" lengthAdjust="spacing" textLength="101.7656" x="24.6172" y="531.7324">Crear Asignatura</text><rect fill="#EEEEEE" height="17.9688" rx="5" ry="5" style="stroke:#000000;stroke-width:2.5;" width="68" x="148.5" y="518.5938"/><text fill="#000000" font-family="sans-serif" font-size="12" lengthAdjust="spacing" textLength="52.9395" x="156.0303" y="531.7324">Cancelar</text><line style="stroke:#000000;stroke-width:1;" x1="5" x2="440.6699" y1="5" y2="5"/><line style="stroke:#000000;stroke-width:1;" x1="5" x2="440.6699" y1="541.0625" y2="541.0625"/><line style="stroke:#000000;stroke-width:1;" x1="5" x2="5" y1="5" y2="20.9688"/><line style="stroke:#000000;stroke-width:1;" x1="440.6699" x2="440.6699" y1="5" y2="20.9688"/><line style="stroke:#000000;stroke-width:1;" x1="5" x2="5" y1="312.4688" y2="328.4375"/><line style="stroke:#000000;stroke-width:1;" x1="440.6699" x2="440.6699" y1="312.4688" y2="328.4375"/><line style="stroke:#000000;stroke-width:1;" x1="5" x2="5" y1="206.6563" y2="222.625"/><line style="stroke:#000000;stroke-width:1;" x1="440.6699" x2="440.6699" y1="206.6563" y2="222.625"/><line style="stroke:#000000;stroke-width:1;" x1="5" x2="5" y1="150.75" y2="158.75"/><line style="stroke:#000000;stroke-width:1;" x1="440.6699" x2="440.6699" y1="150.75" y2="158.75"/><line style="stroke:#000000;stroke-width:1;" x1="5" x2="5" y1="498.125" y2="514.0938"/><line style="stroke:#000000;stroke-width:1;" x1="440.6699" x2="440.6699" y1="498.125" y2="514.0938"/><line style="stroke:#000000;stroke-width:1;" x1="5" x2="5" y1="44.9375" y2="60.9063"/><line style="stroke:#000000;stroke-width:1;" x1="440.6699" x2="440.6699" y1="44.9375" y2="60.9063"/><line style="stroke:#000000;stroke-width:1;" x1="5" x2="5" y1="360.375" y2="376.3438"/><line style="stroke:#000000;stroke-width:1;" x1="440.6699" x2="440.6699" y1="360.375" y2="376.3438"/><line style="stroke:#000000;stroke-width:1;" x1="5" x2="5" y1="304.4688" y2="312.4688"/><line style="stroke:#000000;stroke-width:1;" x1="440.6699" x2="440.6699" y1="304.4688" y2="312.4688"/><line style="stroke:#000000;stroke-width:1;" x1="5" x2="5" y1="190.6875" y2="206.6563"/><line style="stroke:#000000;stroke-width:1;" x1="440.6699" x2="440.6699" y1="190.6875" y2="206.6563"/><line style="stroke:#000000;stroke-width:1;" x1="5" x2="5" y1="134.7813" y2="150.75"/><line style="stroke:#000000;stroke-width:1;" x1="440.6699" x2="440.6699" y1="134.7813" y2="150.75"/><line style="stroke:#000000;stroke-width:1;" x1="5" x2="5" y1="490.125" y2="498.125"/><line style="stroke:#000000;stroke-width:1;" x1="440.6699" x2="440.6699" y1="490.125" y2="498.125"/><line style="stroke:#000000;stroke-width:1;" x1="5" x2="5" y1="28.9688" y2="44.9375"/><line style="stroke:#000000;stroke-width:1;" x1="440.6699" x2="440.6699" y1="28.9688" y2="44.9375"/><line style="stroke:#000000;stroke-width:1;" x1="5" x2="5" y1="344.4063" y2="360.375"/><line style="stroke:#000000;stroke-width:1;" x1="440.6699" x2="440.6699" y1="344.4063" y2="360.375"/><line style="stroke:#000000;stroke-width:1;" x1="5" x2="5" y1="288.5" y2="304.4688"/><line style="stroke:#000000;stroke-width:1;" x1="440.6699" x2="440.6699" y1="288.5" y2="304.4688"/><line style="stroke:#000000;stroke-width:1;" x1="5" x2="5" y1="174.7188" y2="190.6875"/><line style="stroke:#000000;stroke-width:1;" x1="440.6699" x2="440.6699" y1="174.7188" y2="190.6875"/><line style="stroke:#000000;stroke-width:1;" x1="5" x2="5" y1="76.875" y2="134.7813"/><line style="stroke:#000000;stroke-width:1;" x1="440.6699" x2="440.6699" y1="76.875" y2="134.7813"/><line style="stroke:#000000;stroke-width:1;" x1="5" x2="5" y1="474.1563" y2="490.125"/><line style="stroke:#000000;stroke-width:1;" x1="440.6699" x2="440.6699" y1="474.1563" y2="490.125"/><line style="stroke:#000000;stroke-width:1;" x1="5" x2="5" y1="20.9688" y2="28.9688"/><line style="stroke:#000000;stroke-width:1;" x1="440.6699" x2="440.6699" y1="20.9688" y2="28.9688"/><line style="stroke:#000000;stroke-width:1;" x1="5" x2="5" y1="328.4375" y2="344.4063"/><line style="stroke:#000000;stroke-width:1;" x1="440.6699" x2="440.6699" y1="328.4375" y2="344.4063"/><line style="stroke:#000000;stroke-width:1;" x1="5" x2="5" y1="222.625" y2="288.5"/><line style="stroke:#000000;stroke-width:1;" x1="440.6699" x2="440.6699" y1="222.625" y2="288.5"/><line style="stroke:#000000;stroke-width:1;" x1="5" x2="5" y1="158.75" y2="174.7188"/><line style="stroke:#000000;stroke-width:1;" x1="440.6699" x2="440.6699" y1="158.75" y2="174.7188"/><line style="stroke:#000000;stroke-width:1;" x1="5" x2="5" y1="514.0938" y2="541.0625"/><line style="stroke:#000000;stroke-width:1;" x1="440.6699" x2="440.6699" y1="514.0938" y2="541.0625"/><line style="stroke:#000000;stroke-width:1;" x1="5" x2="5" y1="60.9063" y2="76.875"/><line style="stroke:#000000;stroke-width:1;" x1="440.6699" x2="440.6699" y1="60.9063" y2="76.875"/><line style="stroke:#000000;stroke-width:1;" x1="5" x2="5" y1="376.3438" y2="474.1563"/><line style="stroke:#000000;stroke-width:1;" x1="440.6699" x2="440.6699" y1="376.3438" y2="474.1563"/><rect fill="none" height="63.875" style="stroke:#000000;stroke-width:1;" width="15" x="223.7422" y="223.625"/><line style="stroke:#000000;stroke-width:1;" x1="223.7422" x2="238.7422" y1="235.625" y2="235.625"/><line style="stroke:#000000;stroke-width:1;" x1="223.7422" x2="238.7422" y1="275.5" y2="275.5"/><path d="M230.7422,227.625 L233.7422,232.625 L227.7422,232.625 L230.7422,227.625" fill="#000000"/><path d="M230.7422,284.5 L233.7422,279.5 L227.7422,279.5 L230.7422,284.5" fill="#000000"/><rect fill="none" height="95.8125" style="stroke:#000000;stroke-width:1;" width="15" x="230.7969" y="377.3438"/><line style="stroke:#000000;stroke-width:1;" x1="230.7969" x2="245.7969" y1="389.3438" y2="389.3438"/><line style="stroke:#000000;stroke-width:1;" x1="230.7969" x2="245.7969" y1="461.1563" y2="461.1563"/><path d="M237.7969,381.3438 L240.7969,386.3438 L234.7969,386.3438 L237.7969,381.3438" fill="#000000"/><path d="M237.7969,470.1563 L240.7969,465.1563 L234.7969,465.1563 L237.7969,470.1563" fill="#000000"/><!--SRC=[ZPJRJjj048Rl_HGZhfAM62UaLHi5Yab2b3G1bDCDWcfiB-vAczrq3v4g3k_29HTSyG2LwXVhE84GKDLq9Azapp-_Ph-TzO6ngAr1OI7M37LeU2hHEetVZau6_N4l77HElAlt7b3Ke_t6e1KEu7ZSceGG3Zljut0q7eJrdMX_eTZRstjMbdreebK6samoZOAPbQhEzploKkafnZnxb11bTuR722eIFAKQpR6-mvTQVx5UBTOyHjc3TK91uLsn1gkuXYtudzXQ-JIonuId__PPKpjj58Gn9jdzbCTFPTTmKGagrHrQFbmij3ThFPTAQoy4fEB3XClOYQTT8xGr9keLbj-_GlZXidkmt2w4IZ83CwOjGOmPC3ekcA9bXEZBMqR3pghVCpXVkWEJq94favpfx05XoJsxiyHxipfXopFykx9FVJnPlLRulh-HngwVrsl-mgCZUSnHhECOCi7Y1GH0uQQIfcc66e5B4siUSGtuNT5xGSro5OhY1YOhGzHW5S47GK_2pKn97j6ChjJ-gxeWA4C9mWYJRUWvRl1DjaBPGzHQ6RKD3TJY3RCWs2L50oMbcpZdoKPUjxVhsu2pHduxuULwdjFqdP5Xp0JgSogzyGwOJFARx7cd0gKTztimPzhGRg7ivpFgbuF2o34uLdC8gb0EQfMWLlqC_U48ydpHAxHFUs2KqpHhH8NE9tAM38fU5-S80oSjdx8QdCoOx3Q_Fd-0bfnphUIKIUjr9_qNmSTgwP1Rugwf5PZqlIQxH4T_cvQCLS9bMeFnwAZqoUkXJ1scvCsarr3agt_MG3eX_W00]--></g></svg>