<svg xmlns="http://www.w3.org/2000/svg" xmlns:xlink="http://www.w3.org/1999/xlink" contentStyleType="text/css" data-diagram-type="DESCRIPTION" height="443px" preserveAspectRatio="none" style="width:1307px;height:443px;background:#FFFFFF;" version="1.1" viewBox="0 0 1307 443" width="1307px" zoomAndPan="magnify"><defs/><g><!--cluster iniciarSesion--><g class="cluster" data-entity="iniciarSesion" data-source-line="4" data-uid="ent0003" id="cluster_iniciarSesion"><path d="M495.5,6 L610.6055,6 A3.75,3.75 0 0 1 613.1055,8.5 L620.1055,28.2969 L1120.5,28.2969 A2.5,2.5 0 0 1 1123,30.7969 L1123,433.5 A2.5,2.5 0 0 1 1120.5,436 L495.5,436 A2.5,2.5 0 0 1 493,433.5 L493,8.5 A2.5,2.5 0 0 1 495.5,6" fill="none" style="stroke:#000000;stroke-width:1.5;"/><line style="stroke:#000000;stroke-width:1.5;" x1="493" x2="620.1055" y1="28.2969" y2="28.2969"/><text fill="#000000" font-family="sans-serif" font-size="14" font-weight="bold" lengthAdjust="spacing" textLength="114.1055" x="497" y="20.9951">iniciarSesion()</text></g><!--entity LoginView--><g class="entity" data-entity="LoginView" data-source-line="5" data-uid="ent0004" id="entity_LoginView"><rect fill="#629EF9" height="36.2969" rx="2.5" ry="2.5" style="stroke:#181818;stroke-width:0.5;" width="91.5449" x="729" y="41"/><text fill="#000000" font-family="sans-serif" font-size="14" lengthAdjust="spacing" textLength="71.5449" x="739" y="63.9951">LoginView</text></g><!--entity IniciarSesionController--><g class="entity" data-entity="IniciarSesionController" data-source-line="6" data-uid="ent0005" id="entity_IniciarSesionController"><rect fill="#B5BD68" height="36.2969" rx="2.5" ry="2.5" style="stroke:#181818;stroke-width:0.5;" width="178.1084" x="686" y="174"/><text fill="#000000" font-family="sans-serif" font-size="14" lengthAdjust="spacing" textLength="158.1084" x="696" y="196.9951">IniciarSesionController</text></g><!--entity UsuarioRepository--><g class="entity" data-entity="UsuarioRepository" data-source-line="7" data-uid="ent0006" id="entity_UsuarioRepository"><rect fill="#F2AC4E" height="36.2969" rx="2.5" ry="2.5" style="stroke:#181818;stroke-width:0.5;" width="148.2764" x="509" y="287"/><text fill="#000000" font-family="sans-serif" font-size="14" lengthAdjust="spacing" textLength="128.2764" x="519" y="309.9951">UsuarioRepository</text></g><!--entity Usuario--><g class="entity" data-entity="Usuario" data-source-line="8" data-uid="ent0007" id="entity_Usuario"><rect fill="#F2AC4E" height="36.2969" rx="2.5" ry="2.5" style="stroke:#181818;stroke-width:0.5;" width="73.2041" x="546.5" y="384"/><text fill="#000000" font-family="sans-serif" font-size="14" lengthAdjust="spacing" textLength="53.2041" x="556.5" y="406.9951">Usuario</text></g><!--entity Sesion--><g class="entity" data-entity="Sesion" data-source-line="9" data-uid="ent0008" id="entity_Sesion"><rect fill="#F2AC4E" height="36.2969" rx="2.5" ry="2.5" style="stroke:#181818;stroke-width:0.5;" width="66.1221" x="882" y="287"/><text fill="#000000" font-family="sans-serif" font-size="14" lengthAdjust="spacing" textLength="46.1221" x="892" y="309.9951">Sesion</text></g><!--entity UsuarioNoRegistrado--><g class="entity" data-entity="UsuarioNoRegistrado" data-source-line="3" data-uid="ent0002" id="entity_UsuarioNoRegistrado"><ellipse cx="79.9648" cy="29.5" fill="#F1F1F1" rx="8" ry="8" style="stroke:#181818;stroke-width:0.5;"/><path d="M79.9648,37.5 L79.9648,64.5 M66.9648,45.5 L92.9648,45.5 M79.9648,64.5 L66.9648,79.5 M79.9648,64.5 L92.9648,79.5" fill="none" style="stroke:#181818;stroke-width:0.5;"/><text fill="#000000" font-family="sans-serif" font-size="14" lengthAdjust="spacing" textLength="147.9297" x="6" y="93.9951">UsuarioNoRegistrado</text></g><!--entity SistemaDisponible--><g class="entity" data-entity="SistemaDisponible" data-source-line="11" data-uid="ent0009" id="entity_SistemaDisponible"><rect fill="#CDEBA5" height="36.2969" rx="2.5" ry="2.5" style="stroke:#181818;stroke-width:0.5;" width="159.125" x="1142.5" y="41"/><text fill="#000000" font-family="sans-serif" font-size="14" lengthAdjust="spacing" textLength="139.125" x="1152.5" y="63.9951">:Sistema Disponible</text></g><!--entity SesionCerrada--><g class="entity" data-entity="SesionCerrada" data-source-line="12" data-uid="ent0010" id="entity_SesionCerrada"><rect fill="#CDEBA5" height="36.2969" rx="2.5" ry="2.5" style="stroke:#181818;stroke-width:0.5;" width="131.2344" x="340.5" y="41"/><text fill="#000000" font-family="sans-serif" font-size="14" lengthAdjust="spacing" textLength="111.2344" x="350.5" y="63.9951">:Sesi&#243;n Cerrada</text></g><!--link UsuarioNoRegistrado to SesionCerrada--><g class="link" data-entity-1="UsuarioNoRegistrado" data-entity-2="SesionCerrada" data-source-line="14" data-uid="lnk11" id="link_UsuarioNoRegistrado_SesionCerrada"><path d="M154.38,59 C210.48,59 280.69,59 334.49,59" fill="none" id="UsuarioNoRegistrado-to-SesionCerrada" style="stroke:#181818;stroke-width:1;"/><polygon fill="#181818" points="340.49,59,331.49,55,335.49,59,331.49,63,340.49,59" style="stroke:#181818;stroke-width:1;"/><text fill="#000000" font-family="sans-serif" font-size="13" lengthAdjust="spacing" textLength="150.8267" x="172.25" y="52.0669">Docente/Administrador</text></g><!--link SesionCerrada to LoginView--><g class="link" data-entity-1="SesionCerrada" data-entity-2="LoginView" data-source-line="16" data-uid="lnk12" id="link_SesionCerrada_LoginView"><path d="M471.54,59 C545.48,59 657.84,59 722.73,59" fill="none" id="SesionCerrada-to-LoginView" style="stroke:#181818;stroke-width:1;"/><polygon fill="#181818" points="728.73,59,719.73,55,723.73,59,719.73,63,728.73,59" style="stroke:#181818;stroke-width:1;"/><text fill="#000000" font-family="sans-serif" font-size="13" lengthAdjust="spacing" textLength="221.6221" x="489.75" y="52.0669">iniciarSesion(usuario, contrase&#241;a)</text></g><!--link LoginView to IniciarSesionController--><g class="link" data-entity-1="LoginView" data-entity-2="IniciarSesionController" data-source-line="18" data-uid="lnk13" id="link_LoginView_IniciarSesionController"><path d="M775,77.13 C775,102.23 775,142.76 775,167.87" fill="none" id="LoginView-to-IniciarSesionController" style="stroke:#181818;stroke-width:1;"/><polygon fill="#181818" points="775,173.87,779,164.87,775,168.87,771,164.87,775,173.87" style="stroke:#181818;stroke-width:1;"/><text fill="#000000" font-family="sans-serif" font-size="13" lengthAdjust="spacing" textLength="261.4409" x="776" y="140.0669">autenticar(usuario, contrase&#241;a) : Sesion</text></g><!--link IniciarSesionController to UsuarioRepository--><g class="link" data-entity-1="IniciarSesionController" data-entity-2="UsuarioRepository" data-source-line="20" data-uid="lnk14" id="link_IniciarSesionController_UsuarioRepository"><path d="M688.74,210.03 C620.63,223.49 537,240 537,240 C537,240 537,257 537,257 C537,257 548.804,269.0613 561.934,282.4813" fill="none" id="IniciarSesionController-to-UsuarioRepository" style="stroke:#181818;stroke-width:1;"/><polygon fill="#181818" points="566.13,286.77,562.6951,277.5395,562.6333,283.1961,556.9768,283.1343,566.13,286.77" style="stroke:#181818;stroke-width:1;"/><text fill="#000000" font-family="sans-serif" font-size="13" lengthAdjust="spacing" textLength="329.7734" x="538" y="253.0669">validarCredenciales(usuario, contrase&#241;a) : Usuario</text></g><!--link UsuarioRepository to Usuario--><g class="link" data-entity-1="UsuarioRepository" data-entity-2="Usuario" data-source-line="22" data-uid="lnk15" id="link_UsuarioRepository_Usuario"><path d="M583,323.42 C583,340.57 583,366.58 583,383.69" fill="none" id="UsuarioRepository-Usuario" style="stroke:#181818;stroke-width:1;"/></g><!--link IniciarSesionController to Sesion--><g class="link" data-entity-1="IniciarSesionController" data-entity-2="Sesion" data-source-line="24" data-uid="lnk16" id="link_IniciarSesionController_Sesion"><path d="M811.75,210.1 C840.63,223.54 876,240 876,240 C876,240 889.8785,262.7659 901.4285,281.7259" fill="none" id="IniciarSesionController-to-Sesion" style="stroke:#181818;stroke-width:1;"/><polygon fill="#181818" points="904.55,286.85,903.2838,277.0829,901.9488,282.5799,896.4517,281.2448,904.55,286.85" style="stroke:#181818;stroke-width:1;"/><text fill="#000000" font-family="sans-serif" font-size="13" lengthAdjust="spacing" textLength="190.3726" x="886" y="253.0669">crearSesion(usuario) : Sesion</text></g><!--link LoginView to SistemaDisponible--><g class="link" data-entity-1="LoginView" data-entity-2="SistemaDisponible" data-source-line="26" data-uid="lnk17" id="link_LoginView_SistemaDisponible"><path d="M821.15,59 C896.99,59 1042.87,59 1136.36,59" fill="none" id="LoginView-to-SistemaDisponible" style="stroke:#181818;stroke-width:1;"/><polygon fill="#181818" points="1142.36,59,1133.36,55,1137.36,59,1133.36,63,1142.36,59" style="stroke:#181818;stroke-width:1;"/><text fill="#000000" font-family="sans-serif" font-size="13" lengthAdjust="spacing" textLength="285.7461" x="839.25" y="52.0669">sistemaDisponible(docente | administrador)</text></g><!--SRC=[VL71QW8n4BtdAuRjHQ5BGQhK70fsLIYK7fJsFYR34ep9agmjqlQZIZ_17sjigkwkhhdbpPitC-_vfJ85Ebo1LeRAJK5GMBtPVHX3KLe7BtwDJjbdEwDS-TAXjAn0iSISG1ab5BevUMKDe8UaXdIw2Nmm2C-HAD7ack1gq1jEfaDuihaohuhUc_L5Vo47T_1O5SgiAPtLcboJFUsDijl9ViaP5TQhiFNcCg-b6eUnBrOfPUF9mwWF2P-7usc5C5Q-i4OjD2MxY__X8tg-EIXlVmnav8A163lZQH5Xx8pFaBhqlixZCBQ2J4at8xaAPaUYOwp6Yeq7YtazgCuwZhe6iVCLFMs_iSlOWG-f3Eqj2N30THasK0BTUINWUoTPYmQaGVyaCmvlg9L4bpcIP4AZ9jywOXybEz49wiVgfGqYo44uQdfJFQBYoryUpSGv-2RKaJ4b-0IivjJz1G00]--></g></svg>