<?plantuml 1.2026.2?><svg xmlns="http://www.w3.org/2000/svg" xmlns:xlink="http://www.w3.org/1999/xlink" contentStyleType="text/css" data-diagram-type="DESCRIPTION" height="443px" preserveAspectRatio="none" style="width:1307px;height:443px;background:#FFFFFF;" version="1.1" viewBox="0 0 1307 443" width="1307px" zoomAndPan="magnify"><defs/><g><!--cluster iniciarSesion--><g class="cluster" data-qualified-name="iniciarSesion" data-source-line="4" id="ent0003"><path d="M700.5,6 L815.6055,6 A3.75,3.75 0 0 1 818.1055,8.5 L825.1055,28.2969 L1093.5,28.2969 A2.5,2.5 0 0 1 1096,30.7969 L1096,433.5 A2.5,2.5 0 0 1 1093.5,436 L700.5,436 A2.5,2.5 0 0 1 698,433.5 L698,8.5 A2.5,2.5 0 0 1 700.5,6" fill="none" style="stroke:#000000;stroke-width:1.5;"/><line style="stroke:#000000;stroke-width:1.5;" x1="698" x2="825.1055" y1="28.2969" y2="28.2969"/><text fill="#000000" font-family="sans-serif" font-size="14" font-weight="bold" lengthAdjust="spacing" textLength="114.1055" x="702" y="20.9951">iniciarSesion()</text></g><!--entity LoginView--><g class="entity" data-qualified-name="iniciarSesion.LoginView" data-source-line="5" id="ent0004"><rect fill="#629EF9" height="36.2969" rx="2.5" ry="2.5" style="stroke:#181818;stroke-width:0.5;" width="91.5449" x="729" y="41"/><text fill="#000000" font-family="sans-serif" font-size="14" lengthAdjust="spacing" textLength="71.5449" x="739" y="63.9951">LoginView</text></g><!--entity AuthController--><g class="entity" data-qualified-name="iniciarSesion.AuthController" data-source-line="6" id="ent0005"><rect fill="#B5BD68" height="36.2969" rx="2.5" ry="2.5" style="stroke:#181818;stroke-width:0.5;" width="121.9854" x="714" y="174"/><text fill="#000000" font-family="sans-serif" font-size="14" lengthAdjust="spacing" textLength="101.9854" x="724" y="196.9951">AuthController</text></g><!--entity UsuarioRepository--><g class="entity" data-qualified-name="iniciarSesion.UsuarioRepository" data-source-line="7" id="ent0006"><rect fill="#F2AC4E" height="36.2969" rx="2.5" ry="2.5" style="stroke:#181818;stroke-width:0.5;" width="148.2764" x="714" y="287"/><text fill="#000000" font-family="sans-serif" font-size="14" lengthAdjust="spacing" textLength="128.2764" x="724" y="309.9951">UsuarioRepository</text></g><!--entity Usuario--><g class="entity" data-qualified-name="iniciarSesion.Usuario" data-source-line="8" id="ent0007"><rect fill="#F2AC4E" height="36.2969" rx="2.5" ry="2.5" style="stroke:#181818;stroke-width:0.5;" width="73.2041" x="751.5" y="384"/><text fill="#000000" font-family="sans-serif" font-size="14" lengthAdjust="spacing" textLength="53.2041" x="761.5" y="406.9951">Usuario</text></g><!--entity UsuarioNoRegistrado--><g class="entity" data-qualified-name="UsuarioNoRegistrado" data-source-line="3" id="ent0002"><ellipse cx="79.9648" cy="29.5" fill="#F1F1F1" rx="8" ry="8" style="stroke:#181818;stroke-width:0.5;"/><path d="M79.9648,37.5 L79.9648,64.5 M66.9648,45.5 L92.9648,45.5 M79.9648,64.5 L66.9648,79.5 M79.9648,64.5 L92.9648,79.5" fill="none" style="stroke:#181818;stroke-width:0.5;"/><text fill="#000000" font-family="sans-serif" font-size="14" lengthAdjust="spacing" textLength="147.9297" x="6" y="93.9951">UsuarioNoRegistrado</text></g><!--entity SistemaDisponible--><g class="entity" data-qualified-name="SistemaDisponible" data-source-line="10" id="ent0008"><rect fill="#CDEBA5" height="36.2969" rx="2.5" ry="2.5" style="stroke:#181818;stroke-width:0.5;" width="159.125" x="1142.5" y="41"/><text fill="#000000" font-family="sans-serif" font-size="14" lengthAdjust="spacing" textLength="139.125" x="1152.5" y="63.9951">:Sistema Disponible</text></g><!--entity SesionCerrada--><g class="entity" data-qualified-name="SesionCerrada" data-source-line="11" id="ent0009"><rect fill="#CDEBA5" height="36.2969" rx="2.5" ry="2.5" style="stroke:#181818;stroke-width:0.5;" width="131.2344" x="340.5" y="41"/><text fill="#000000" font-family="sans-serif" font-size="14" lengthAdjust="spacing" textLength="111.2344" x="350.5" y="63.9951">:Sesi&#243;n Cerrada</text></g><!--link UsuarioNoRegistrado to SesionCerrada--><g class="link" data-entity-1="ent0002" data-entity-2="ent0009" data-link-type="dependency" data-source-line="13" id="lnk10"><path d="M154.38,59 C210.48,59 280.69,59 334.49,59" fill="none" id="UsuarioNoRegistrado-to-SesionCerrada" style="stroke:#181818;stroke-width:1;"/><polygon fill="#181818" points="340.49,59,331.49,55,335.49,59,331.49,63,340.49,59" style="stroke:#181818;stroke-width:1;"/><text fill="#000000" font-family="sans-serif" font-size="13" lengthAdjust="spacing" textLength="150.8267" x="172.25" y="52.0669">Docente/Administrador</text></g><!--link SesionCerrada to LoginView--><g class="link" data-entity-1="ent0009" data-entity-2="ent0004" data-link-type="dependency" data-source-line="15" id="lnk11"><path d="M471.54,59 C545.48,59 657.84,59 722.73,59" fill="none" id="SesionCerrada-to-LoginView" style="stroke:#181818;stroke-width:1;"/><polygon fill="#181818" points="728.73,59,719.73,55,723.73,59,719.73,63,728.73,59" style="stroke:#181818;stroke-width:1;"/><text fill="#000000" font-family="sans-serif" font-size="13" lengthAdjust="spacing" textLength="221.6221" x="489.75" y="52.0669">iniciarSesion(usuario, contrase&#241;a)</text></g><!--link LoginView to AuthController--><g class="link" data-entity-1="ent0004" data-entity-2="ent0005" data-link-type="dependency" data-source-line="17" id="lnk12"><path d="M775,77.13 C775,102.23 775,142.76 775,167.87" fill="none" id="LoginView-to-AuthController" style="stroke:#181818;stroke-width:1;"/><polygon fill="#181818" points="775,173.87,779,164.87,775,168.87,771,164.87,775,173.87" style="stroke:#181818;stroke-width:1;"/><text fill="#000000" font-family="sans-serif" font-size="13" lengthAdjust="spacing" textLength="261.4409" x="776" y="140.0669">autenticar(usuario, contrase&#241;a) : Sesion</text></g><!--link AuthController to UsuarioRepository--><g class="link" data-entity-1="ent0005" data-entity-2="ent0006" data-link-type="dependency" data-source-line="19" id="lnk13"><path d="M777.03,210.34 C779.47,231.2 782.8538,260.0205 785.2838,280.8205" fill="none" id="AuthController-to-UsuarioRepository" style="stroke:#181818;stroke-width:1;"/><polygon fill="#181818" points="785.98,286.78,788.9086,277.3766,785.3998,281.8138,780.9627,278.3049,785.98,286.78" style="stroke:#181818;stroke-width:1;"/><text fill="#000000" font-family="sans-serif" font-size="13" lengthAdjust="spacing" textLength="329.7734" x="783" y="253.0669">validarCredenciales(usuario, contrase&#241;a) : Usuario</text></g><!--link UsuarioRepository to Usuario--><g class="link" data-entity-1="ent0006" data-entity-2="ent0007" data-link-type="association" data-source-line="21" id="lnk14"><path d="M788,323.42 C788,340.57 788,366.58 788,383.69" fill="none" id="UsuarioRepository-Usuario" style="stroke:#181818;stroke-width:1;"/></g><!--link LoginView to SistemaDisponible--><g class="link" data-entity-1="ent0004" data-entity-2="ent0008" data-link-type="dependency" data-source-line="23" id="lnk15"><path d="M821.15,59 C896.99,59 1042.87,59 1136.36,59" fill="none" id="LoginView-to-SistemaDisponible" style="stroke:#181818;stroke-width:1;"/><polygon fill="#181818" points="1142.36,59,1133.36,55,1137.36,59,1133.36,63,1142.36,59" style="stroke:#181818;stroke-width:1;"/><text fill="#000000" font-family="sans-serif" font-size="13" lengthAdjust="spacing" textLength="285.7461" x="839.25" y="52.0669">sistemaDisponible(docente | administrador)</text></g><?plantuml-src VL7BJiCm4BpxArRXqaf4I1MjQ0v88MrFY4Chk6_ZLLZLjIFR0LN0Ho4-eJ-6s_ILj91RPcV6ExDkmRf4YqjGhCclIeBIgDNcHmZClR7mx2gqR9xCb0fstg8qeiHyWGK1QyuPxOmS6mte86eWdMu47mB2Podtg0j5S3Ne3SUJ8JoQWlKBqtjxFk_FvU0Eqig_PaPxQvGYsoPDUcbsEzxlDgNIE0xBhlxdYIznCij6uuUq3r4o2x5eYJ1YLnhDSqNH9iiEFgANnI7f-aT3HZPKWxLoctw7276XGOXjVD_a9J0oEMbFDwbSXXfheXMYmQg5X_AIvWawLVtKDUIRwj3H-XkxGXpu4CiWRtQR05O-FCmvsii6aEnM5Q8fXJYudHqXWJTKBD5cbYJfi9uYzwVp_ZRYp2Uu7wSd4RRLjO-JW6j37LaN2f-0fvLsVm40?></g></svg>