<svg xmlns="http://www.w3.org/2000/svg" xmlns:xlink="http://www.w3.org/1999/xlink" contentStyleType="text/css" data-diagram-type="SALT" height="340px" preserveAspectRatio="none" style="width:555px;height:340px;background:#FFFFFF;" version="1.1" viewBox="0 0 555 340" width="555px" zoomAndPan="magnify"><defs/><g><text fill="#000000" font-family="sans-serif" font-size="12" font-weight="bold" lengthAdjust="spacing" textLength="141.9902" x="6" y="17.1387">GENERAR EX&#193;MENES</text><line style="stroke:#AAAAAA;stroke-width:1;" x1="6" x2="244.1406" y1="25.4688" y2="25.4688"/><text fill="#000000" font-family="sans-serif" font-size="12" lengthAdjust="spacing" textLength="69.0117" x="6" y="41.1074">Asignatura:</text><rect fill="#EEEEEE" height="16.9688" style="stroke:#000000;stroke-width:1;" width="127" x="245.1406" y="29.9688"/><text fill="#000000" font-family="sans-serif" font-size="12" lengthAdjust="spacing" textLength="87.9727" x="247.1406" y="43.1074">Matem&#225;ticas II</text><line style="stroke:#000000;stroke-width:1;" x1="361.1406" x2="361.1406" y1="29.9688" y2="46.9375"/><polygon fill="#000000" points="364.1406,35.9688,370.1406,35.9688,367.1406,41.9375" style="stroke:#000000;stroke-width:1;"/><text fill="#000000" font-family="sans-serif" font-size="12" lengthAdjust="spacing" textLength="69.252" x="6" y="61.0762">Evaluaci&#243;n:</text><rect fill="#EEEEEE" height="16.9688" style="stroke:#000000;stroke-width:1;" width="95" x="245.1406" y="49.9375"/><text fill="#000000" font-family="sans-serif" font-size="12" lengthAdjust="spacing" textLength="57.2461" x="247.1406" y="63.0762">1&#186; Parcial</text><line style="stroke:#000000;stroke-width:1;" x1="329.1406" x2="329.1406" y1="49.9375" y2="66.9063"/><polygon fill="#000000" points="332.1406,55.9375,338.1406,55.9375,335.1406,61.9063" style="stroke:#000000;stroke-width:1;"/><line style="stroke:#AAAAAA;stroke-width:1;stroke-dasharray:1,2;" x1="6" x2="244.1406" y1="73.4063" y2="73.4063"/><text fill="#000000" font-family="sans-serif" font-size="12" lengthAdjust="spacing" textLength="81.8496" x="6" y="89.0449">Tema/Temas:</text><text fill="#000000" font-family="sans-serif" font-size="12" lengthAdjust="spacing" textLength="45.2051" x="27" y="106.0137">Tema 1</text><rect fill="none" height="10" style="stroke:#000000;stroke-width:1.5;" width="10" x="9" y="96.8594"/><polygon fill="#000000" points="10,100.875,13,103.875,20,94.875,13,101.875" style="stroke:#000000;stroke-width:1.5;"/><text fill="#000000" font-family="sans-serif" font-size="12" lengthAdjust="spacing" textLength="45.2051" x="27" y="121.9824">Tema 2</text><rect fill="none" height="10" style="stroke:#000000;stroke-width:1.5;" width="10" x="9" y="112.8281"/><polygon fill="#000000" points="10,116.8438,13,119.8438,20,110.8438,13,117.8438" style="stroke:#000000;stroke-width:1.5;"/><text fill="#000000" font-family="sans-serif" font-size="12" lengthAdjust="spacing" textLength="45.2051" x="27" y="137.9512">Tema 3</text><rect fill="none" height="10" style="stroke:#000000;stroke-width:1.5;" width="10" x="9" y="128.7969"/><text fill="#000000" font-family="sans-serif" font-size="12" lengthAdjust="spacing" textLength="45.2051" x="27" y="153.9199">Tema 4</text><rect fill="none" height="10" style="stroke:#000000;stroke-width:1.5;" width="10" x="9" y="144.7656"/><polygon fill="#000000" points="10,148.7813,13,151.7813,20,142.7813,13,149.7813" style="stroke:#000000;stroke-width:1.5;"/><line style="stroke:#AAAAAA;stroke-width:1;stroke-dasharray:1,2;" x1="7" x2="73.2051" y1="162.25" y2="162.25"/><line style="stroke:#000000;stroke-width:1;" x1="6" x2="73.2051" y1="93.875" y2="93.875"/><line style="stroke:#000000;stroke-width:1;" x1="6" x2="73.2051" y1="165.75" y2="165.75"/><line style="stroke:#000000;stroke-width:1;" x1="6" x2="6" y1="93.875" y2="109.8438"/><line style="stroke:#000000;stroke-width:1;" x1="73.2051" x2="73.2051" y1="109.8438" y2="125.8125"/><line style="stroke:#000000;stroke-width:1;" x1="73.2051" x2="73.2051" y1="93.875" y2="109.8438"/><line style="stroke:#000000;stroke-width:1;" x1="6" x2="6" y1="157.75" y2="165.75"/><line style="stroke:#000000;stroke-width:1;" x1="6" x2="6" y1="141.7813" y2="157.75"/><line style="stroke:#000000;stroke-width:1;" x1="73.2051" x2="73.2051" y1="157.75" y2="165.75"/><line style="stroke:#000000;stroke-width:1;" x1="6" x2="6" y1="125.8125" y2="141.7813"/><line style="stroke:#000000;stroke-width:1;" x1="73.2051" x2="73.2051" y1="141.7813" y2="157.75"/><line style="stroke:#000000;stroke-width:1;" x1="6" x2="6" y1="109.8438" y2="125.8125"/><line style="stroke:#000000;stroke-width:1;" x1="73.2051" x2="73.2051" y1="125.8125" y2="141.7813"/><rect fill="none" height="71.875" style="stroke:#000000;stroke-width:1;" width="15" x="77.2051" y="93.875"/><line style="stroke:#000000;stroke-width:1;" x1="77.2051" x2="92.2051" y1="105.875" y2="105.875"/><line style="stroke:#000000;stroke-width:1;" x1="77.2051" x2="92.2051" y1="153.75" y2="153.75"/><path d="M84.2051,97.875 L87.2051,102.875 L81.2051,102.875 L84.2051,97.875" fill="#000000"/><path d="M84.2051,162.75 L87.2051,157.75 L81.2051,157.75 L84.2051,162.75" fill="#000000"/><line style="stroke:#AAAAAA;stroke-width:1;stroke-dasharray:1,2;" x1="6" x2="244.1406" y1="171.25" y2="171.25"/><text fill="#000000" font-family="sans-serif" font-size="12" lengthAdjust="spacing" textLength="135.6738" x="6" y="186.8887">N&#250;mero de preguntas:</text><text fill="#000000" font-family="sans-serif" font-size="12" lengthAdjust="spacing" textLength="15.2695" x="248.1406" y="186.8887">10</text><line style="stroke:#000000;stroke-width:1;" x1="246.1406" x2="289.1406" y1="189.7188" y2="189.7188"/><line style="stroke:#000000;stroke-width:1;" x1="246.1406" x2="246.1406" y1="186.7188" y2="188.7188"/><line style="stroke:#000000;stroke-width:1;" x1="289.1406" x2="289.1406" y1="186.7188" y2="188.7188"/><text fill="#000000" font-family="sans-serif" font-size="12" lengthAdjust="spacing" textLength="178.7168" x="6" y="204.8574">N&#250;mero de ex&#225;menes para II:</text><text fill="#000000" font-family="sans-serif" font-size="12" font-weight="bold" lengthAdjust="spacing" textLength="45.1641" x="188.5313" y="204.8574">&lt; 34 &gt;</text><text fill="#000000" font-family="sans-serif" font-size="12" lengthAdjust="spacing" textLength="188.1621" x="6" y="220.8262">N&#250;mero de ex&#225;menes para IOI:</text><text fill="#000000" font-family="sans-serif" font-size="12" font-weight="bold" lengthAdjust="spacing" textLength="45.1641" x="197.9766" y="220.8262">&lt; 25 &gt;</text><text fill="#000000" font-family="sans-serif" font-size="12" lengthAdjust="spacing" textLength="222.9961" x="6" y="236.7949">Cantidad de tipos de ex&#225;men para II:</text><text fill="#000000" font-family="sans-serif" font-size="12" lengthAdjust="spacing" textLength="15.2695" x="248.1406" y="236.7949">34</text><line style="stroke:#000000;stroke-width:1;" x1="246.1406" x2="289.1406" y1="239.625" y2="239.625"/><line style="stroke:#000000;stroke-width:1;" x1="246.1406" x2="246.1406" y1="236.625" y2="238.625"/><line style="stroke:#000000;stroke-width:1;" x1="289.1406" x2="289.1406" y1="236.625" y2="238.625"/><text fill="#000000" font-family="sans-serif" font-size="12" lengthAdjust="spacing" textLength="232.4414" x="6" y="254.7637">Cantidad de tipos de ex&#225;men para IOI:</text><text fill="#000000" font-family="sans-serif" font-size="12" lengthAdjust="spacing" textLength="15.2695" x="248.1406" y="254.7637">25</text><line style="stroke:#000000;stroke-width:1;" x1="246.1406" x2="289.1406" y1="257.5938" y2="257.5938"/><line style="stroke:#000000;stroke-width:1;" x1="246.1406" x2="246.1406" y1="254.5938" y2="256.5938"/><line style="stroke:#000000;stroke-width:1;" x1="289.1406" x2="289.1406" y1="254.5938" y2="256.5938"/><text fill="#000000" font-family="sans-serif" font-size="12" lengthAdjust="spacing" textLength="176.3848" x="6" y="272.7324">Proporci&#243;n de dificultad de II:</text><rect fill="#EEEEEE" height="16.9688" style="stroke:#000000;stroke-width:1;" width="295" x="245.1406" y="261.5938"/><text fill="#000000" font-family="sans-serif" font-size="12" lengthAdjust="spacing" textLength="211.7637" x="247.1406" y="274.7324">30% F&#225;cil / 40% Media / 30% Dif&#237;cil</text><line style="stroke:#000000;stroke-width:1;" x1="529.1406" x2="529.1406" y1="261.5938" y2="278.5625"/><polygon fill="#000000" points="532.1406,267.5938,538.1406,267.5938,535.1406,273.5625" style="stroke:#000000;stroke-width:1;"/><text fill="#000000" font-family="sans-serif" font-size="12" lengthAdjust="spacing" textLength="185.8301" x="6" y="292.7012">Proporci&#243;n de dificultad de IOI:</text><rect fill="#EEEEEE" height="16.9688" style="stroke:#000000;stroke-width:1;" width="295" x="245.1406" y="281.5625"/><text fill="#000000" font-family="sans-serif" font-size="12" lengthAdjust="spacing" textLength="211.7637" x="247.1406" y="294.7012">15% F&#225;cil / 55% Media / 30% Dif&#237;cil</text><line style="stroke:#000000;stroke-width:1;" x1="529.1406" x2="529.1406" y1="281.5625" y2="298.5313"/><polygon fill="#000000" points="532.1406,287.5625,538.1406,287.5625,535.1406,293.5313" style="stroke:#000000;stroke-width:1;"/><line style="stroke:#AAAAAA;stroke-width:1;" x1="6" x2="244.1406" y1="305.0313" y2="305.0313"/><rect fill="#EEEEEE" height="17.9688" rx="5" ry="5" style="stroke:#000000;stroke-width:2.5;" width="60" x="8.5" y="312.0313"/><text fill="#000000" font-family="sans-serif" font-size="12" lengthAdjust="spacing" textLength="26.5723" x="25.2139" y="325.1699">Salir</text><rect fill="#EEEEEE" height="17.9688" rx="5" ry="5" style="stroke:#000000;stroke-width:2.5;" width="172" x="247.6406" y="312.0313"/><text fill="#000000" font-family="sans-serif" font-size="12" lengthAdjust="spacing" textLength="123.416" x="271.9326" y="325.1699">Confirmar y Generar</text><line style="stroke:#000000;stroke-width:1;" x1="5" x2="244.1406" y1="5" y2="5"/><line style="stroke:#000000;stroke-width:1;" x1="244.1406" x2="542.1406" y1="333.5" y2="333.5"/><line style="stroke:#000000;stroke-width:1;" x1="244.1406" x2="542.1406" y1="5" y2="5"/><line style="stroke:#000000;stroke-width:1;" x1="5" x2="244.1406" y1="333.5" y2="333.5"/><line style="stroke:#000000;stroke-width:1;" x1="5" x2="5" y1="5" y2="20.9688"/><line style="stroke:#000000;stroke-width:1;" x1="5" x2="5" y1="300.5313" y2="308.5313"/><line style="stroke:#000000;stroke-width:1;" x1="542.1406" x2="542.1406" y1="5" y2="20.9688"/><line style="stroke:#000000;stroke-width:1;" x1="542.1406" x2="542.1406" y1="300.5313" y2="308.5313"/><line style="stroke:#000000;stroke-width:1;" x1="5" x2="5" y1="224.6563" y2="242.625"/><line style="stroke:#000000;stroke-width:1;" x1="542.1406" x2="542.1406" y1="224.6563" y2="242.625"/><line style="stroke:#000000;stroke-width:1;" x1="5" x2="5" y1="166.75" y2="174.75"/><line style="stroke:#000000;stroke-width:1;" x1="542.1406" x2="542.1406" y1="166.75" y2="174.75"/><line style="stroke:#000000;stroke-width:1;" x1="5" x2="5" y1="48.9375" y2="68.9063"/><line style="stroke:#000000;stroke-width:1;" x1="542.1406" x2="542.1406" y1="48.9375" y2="68.9063"/><line style="stroke:#000000;stroke-width:1;" x1="5" x2="5" y1="280.5625" y2="300.5313"/><line style="stroke:#000000;stroke-width:1;" x1="542.1406" x2="542.1406" y1="280.5625" y2="300.5313"/><line style="stroke:#000000;stroke-width:1;" x1="5" x2="5" y1="208.6875" y2="224.6563"/><line style="stroke:#000000;stroke-width:1;" x1="542.1406" x2="542.1406" y1="208.6875" y2="224.6563"/><line style="stroke:#000000;stroke-width:1;" x1="5" x2="5" y1="92.875" y2="166.75"/><line style="stroke:#000000;stroke-width:1;" x1="542.1406" x2="542.1406" y1="92.875" y2="166.75"/><line style="stroke:#000000;stroke-width:1;" x1="5" x2="5" y1="28.9688" y2="48.9375"/><line style="stroke:#000000;stroke-width:1;" x1="542.1406" x2="542.1406" y1="28.9688" y2="48.9375"/><line style="stroke:#000000;stroke-width:1;" x1="5" x2="5" y1="260.5938" y2="280.5625"/><line style="stroke:#000000;stroke-width:1;" x1="542.1406" x2="542.1406" y1="260.5938" y2="280.5625"/><line style="stroke:#000000;stroke-width:1;" x1="5" x2="5" y1="192.7188" y2="208.6875"/><line style="stroke:#000000;stroke-width:1;" x1="542.1406" x2="542.1406" y1="192.7188" y2="208.6875"/><line style="stroke:#000000;stroke-width:1;" x1="5" x2="5" y1="76.9063" y2="92.875"/><line style="stroke:#000000;stroke-width:1;" x1="542.1406" x2="542.1406" y1="76.9063" y2="92.875"/><line style="stroke:#000000;stroke-width:1;" x1="5" x2="5" y1="20.9688" y2="28.9688"/><line style="stroke:#000000;stroke-width:1;" x1="5" x2="5" y1="308.5313" y2="333.5"/><line style="stroke:#000000;stroke-width:1;" x1="542.1406" x2="542.1406" y1="20.9688" y2="28.9688"/><line style="stroke:#000000;stroke-width:1;" x1="542.1406" x2="542.1406" y1="308.5313" y2="333.5"/><line style="stroke:#000000;stroke-width:1;" x1="5" x2="5" y1="242.625" y2="260.5938"/><line style="stroke:#000000;stroke-width:1;" x1="542.1406" x2="542.1406" y1="242.625" y2="260.5938"/><line style="stroke:#000000;stroke-width:1;" x1="5" x2="5" y1="174.75" y2="192.7188"/><line style="stroke:#000000;stroke-width:1;" x1="542.1406" x2="542.1406" y1="174.75" y2="192.7188"/><line style="stroke:#000000;stroke-width:1;" x1="5" x2="5" y1="68.9063" y2="76.9063"/><line style="stroke:#000000;stroke-width:1;" x1="542.1406" x2="542.1406" y1="68.9063" y2="76.9063"/><rect fill="none" height="71.875" style="stroke:#000000;stroke-width:1;" width="15" x="77.2051" y="93.875"/><line style="stroke:#000000;stroke-width:1;" x1="77.2051" x2="92.2051" y1="105.875" y2="105.875"/><line style="stroke:#000000;stroke-width:1;" x1="77.2051" x2="92.2051" y1="153.75" y2="153.75"/><path d="M84.2051,97.875 L87.2051,102.875 L81.2051,102.875 L84.2051,97.875" fill="#000000"/><path d="M84.2051,162.75 L87.2051,157.75 L81.2051,157.75 L84.2051,162.75" fill="#000000"/><!--SRC=[ZLBDRjf04BxlKumYLKge01jCrLe89GM2e1WGa2XI5QJ1Nj1AzYvQhr6Ya4CUXGV8gRSSwnVhs2PDEFJ7iiOp_hxvTcPspcE3siGO6lRmaG4qbwrUTzITNaoXUvC-UUJFcjLbYw1ocSn5BDOIJQBHXHqiF3GyIlT6-1X3lxyWHdUBOOA-I7_8d6B_V849QbzWcC6L2Xbwvpp2QcPYbwA7MPyimFURsnm1-pYi5I4SmlenwkHX9PT-BEHpVvI-H5mh23XiD5ydqj1fK3mxEB4j-fuSy_XTke-uv35iK2Erv4Afr8Iw0wrIwU_KyO5RQnouRPH611XaP2CsAdwNzIPFXP1wKSX_P8oB53gaI9bejL4w7tT63iHA-4be2erCF-zrKRS-m6MwzqK8LN0ey7WWaFmCw8XL-apGufzwuz-2TkETOAFnPy7NpM7P_Sqm59fkSKT-MycLq15gk8SUpL6JTyiUsJcNGRwGR1BIFAwy8MovZeMIO5TgLgrHiQtJUS9XfBPWEM1RRirodI_WpUQGuMVij3SPGgmIxMSTn4QBPM98u8mDS8imfKqG4NTXlE5oqFds-WEwSYkqaZHjmmRNtXlXarF-AWpCkAPIuDfZ7Rv26Wjb-2eGSkt2rVoo_9aDKQuJN9CsbwojI5VVko2JCFm5]--></g></svg>