<svg xmlns="http://www.w3.org/2000/svg" xmlns:xlink="http://www.w3.org/1999/xlink" contentStyleType="text/css" data-diagram-type="DESCRIPTION" height="423px" preserveAspectRatio="none" style="width:1751px;height:423px;background:#FFFFFF;" version="1.1" viewBox="0 0 1751 423" width="1751px" zoomAndPan="magnify"><defs/><g><!--cluster verDocentes--><g class="cluster" data-entity="verDocentes" data-source-line="5" data-uid="ent0004" id="cluster_verDocentes"><path d="M184,6 L296.8428,6 A3.75,3.75 0 0 1 299.3428,8.5 L306.3428,28.2969 L781,28.2969 A2.5,2.5 0 0 1 783.5,30.7969 L783.5,413.5 A2.5,2.5 0 0 1 781,416 L184,416 A2.5,2.5 0 0 1 181.5,413.5 L181.5,8.5 A2.5,2.5 0 0 1 184,6" fill="none" style="stroke:#000000;stroke-width:1.5;"/><line style="stroke:#000000;stroke-width:1.5;" x1="181.5" x2="306.3428" y1="28.2969" y2="28.2969"/><text fill="#000000" font-family="sans-serif" font-size="14" font-weight="bold" lengthAdjust="spacing" textLength="111.8428" x="185.5" y="20.9951">verDocentes()</text></g><!--entity VerDocentesView--><g class="entity" data-entity="VerDocentesView" data-source-line="6" data-uid="ent0005" id="entity_VerDocentesView"><rect fill="#629EF9" height="36.2969" rx="2.5" ry="2.5" style="stroke:#181818;stroke-width:0.5;" width="143.4023" x="624" y="41"/><text fill="#000000" font-family="sans-serif" font-size="14" lengthAdjust="spacing" textLength="123.4023" x="634" y="63.9951">VerDocentesView</text></g><!--entity DocentesController--><g class="entity" data-entity="DocentesController" data-source-line="7" data-uid="ent0006" id="entity_DocentesController"><rect fill="#B5BD68" height="36.2969" rx="2.5" ry="2.5" style="stroke:#181818;stroke-width:0.5;" width="155.0986" x="303" y="154"/><text fill="#000000" font-family="sans-serif" font-size="14" lengthAdjust="spacing" textLength="135.0986" x="313" y="176.9951">DocentesController</text></g><!--entity DocenteRepository--><g class="entity" data-entity="DocenteRepository" data-source-line="8" data-uid="ent0007" id="entity_DocenteRepository"><rect fill="#F2AC4E" height="36.2969" rx="2.5" ry="2.5" style="stroke:#181818;stroke-width:0.5;" width="153.7041" x="302.5" y="267"/><text fill="#000000" font-family="sans-serif" font-size="14" lengthAdjust="spacing" textLength="133.7041" x="312.5" y="289.9951">DocenteRepository</text></g><!--entity Docente--><g class="entity" data-entity="Docente" data-source-line="9" data-uid="ent0008" id="entity_Docente"><rect fill="#F2AC4E" height="36.2969" rx="2.5" ry="2.5" style="stroke:#181818;stroke-width:0.5;" width="78.6318" x="340" y="364"/><text fill="#000000" font-family="sans-serif" font-size="14" lengthAdjust="spacing" textLength="58.6318" x="350" y="386.9951">Docente</text></g><!--entity SistemaDisponible--><g class="entity" data-entity="SistemaDisponible" data-source-line="3" data-uid="ent0002" id="entity_SistemaDisponible"><rect fill="#CDEBA5" height="36.2969" rx="2.5" ry="2.5" style="stroke:#181818;stroke-width:0.5;" width="159.125" x="7" y="41"/><text fill="#000000" font-family="sans-serif" font-size="14" lengthAdjust="spacing" textLength="139.125" x="17" y="63.9951">:Sistema Disponible</text></g><!--entity DocenteAbierto--><g class="entity" data-entity="DocenteAbierto" data-source-line="4" data-uid="ent0003" id="entity_DocenteAbierto"><rect fill="#CDEBA5" height="36.2969" rx="2.5" ry="2.5" style="stroke:#181818;stroke-width:0.5;" width="138.5762" x="896" y="41"/><text fill="#000000" font-family="sans-serif" font-size="14" lengthAdjust="spacing" textLength="118.5762" x="906" y="63.9951">:Docente Abierto</text></g><!--entity SistemaDisponibleSalida--><g class="entity" data-entity="SistemaDisponibleSalida" data-source-line="12" data-uid="ent0009" id="entity_SistemaDisponibleSalida"><rect fill="#CDEBA5" height="36.2969" rx="2.5" ry="2.5" style="stroke:#181818;stroke-width:0.5;" width="159.125" x="799" y="154"/><text fill="#000000" font-family="sans-serif" font-size="14" lengthAdjust="spacing" textLength="139.125" x="809" y="176.9951">:Sistema Disponible</text></g><!--entity CrearDocente--><g class="entity" data-entity="CrearDocente" data-source-line="13" data-uid="ent0010" id="entity_CrearDocente"><rect fill="#CDEBA5" height="36.2969" rx="2.5" ry="2.5" style="stroke:#181818;stroke-width:0.5;" width="219.582" x="993.5" y="154"/><text fill="#000000" font-family="sans-serif" font-size="14" lengthAdjust="spacing" textLength="199.582" x="1003.5" y="176.9951">:Collaboration CrearDocente</text></g><!--entity EditarDocente--><g class="entity" data-entity="EditarDocente" data-source-line="14" data-uid="ent0011" id="entity_EditarDocente"><rect fill="#CDEBA5" height="36.2969" rx="2.5" ry="2.5" style="stroke:#181818;stroke-width:0.5;" width="222.5488" x="1249" y="154"/><text fill="#000000" font-family="sans-serif" font-size="14" lengthAdjust="spacing" textLength="202.5488" x="1259" y="176.9951">:Collaboration EditarDocente</text></g><!--entity EliminarDocente--><g class="entity" data-entity="EliminarDocente" data-source-line="15" data-uid="ent0012" id="entity_EliminarDocente"><rect fill="#CDEBA5" height="36.2969" rx="2.5" ry="2.5" style="stroke:#181818;stroke-width:0.5;" width="238.4629" x="1507.5" y="154"/><text fill="#000000" font-family="sans-serif" font-size="14" lengthAdjust="spacing" textLength="218.4629" x="1517.5" y="176.9951">:Collaboration EliminarDocente</text></g><!--link SistemaDisponible to VerDocentesView--><g class="link" data-entity-1="SistemaDisponible" data-entity-2="VerDocentesView" data-source-line="17" data-uid="lnk13" id="link_SistemaDisponible_VerDocentesView"><path d="M166.12,59 C285.57,59 503.35,59 617.92,59" fill="none" id="SistemaDisponible-to-VerDocentesView" style="stroke:#181818;stroke-width:1;"/><polygon fill="#181818" points="623.92,59,614.92,55,618.92,59,614.92,63,623.92,59" style="stroke:#181818;stroke-width:1;"/><text fill="#000000" font-family="sans-serif" font-size="13" lengthAdjust="spacing" textLength="92.3965" x="349" y="52.0669">verDocentes()</text></g><!--link DocenteAbierto to VerDocentesView--><g class="link" data-entity-1="DocenteAbierto" data-entity-2="VerDocentesView" data-source-line="18" data-uid="lnk14" id="link_DocenteAbierto_VerDocentesView"><path d="M895.85,59 C856.34,59 812.98,59 773.15,59" fill="none" id="DocenteAbierto-to-VerDocentesView" style="stroke:#181818;stroke-width:1;"/><polygon fill="#181818" points="767.15,59,776.15,63,772.15,59,776.15,55,767.15,59" style="stroke:#181818;stroke-width:1;"/><text fill="#000000" font-family="sans-serif" font-size="13" lengthAdjust="spacing" textLength="92.3965" x="785.5" y="52.0669">verDocentes()</text></g><!--link VerDocentesView to DocentesController--><g class="link" data-entity-1="VerDocentesView" data-entity-2="DocentesController" data-source-line="20" data-uid="lnk15" id="link_VerDocentesView_DocentesController"><path d="M623.81,67.42 C495.88,80.67 241.5,107 241.5,107 C241.5,107 241.5,124 241.5,124 C241.5,124 284.4962,138.5378 324.2362,151.9778" fill="none" id="VerDocentesView-to-DocentesController" style="stroke:#181818;stroke-width:1;"/><polygon fill="#181818" points="329.92,153.9,322.6759,147.2275,325.1835,152.2981,320.1129,154.8058,329.92,153.9" style="stroke:#181818;stroke-width:1;"/><text fill="#000000" font-family="sans-serif" font-size="13" lengthAdjust="spacing" textLength="215.3633" x="242.5" y="120.0669">listarDocentes() : List&lt;Docente&gt;</text></g><!--link VerDocentesView to DocentesController--><g class="link" data-entity-1="VerDocentesView" data-entity-2="DocentesController" data-source-line="26" data-uid="lnk18" id="link_VerDocentesView_DocentesController"><path d="M625.19,77.03 C569.67,90.49 501.5,107 501.5,107 C501.5,107 454.0736,132.0843 418.2336,151.0443" fill="none" id="VerDocentesView-to-DocentesController-1" style="stroke:#181818;stroke-width:1;"/><polygon fill="#181818" points="412.93,153.85,422.7558,153.1772,417.3497,151.5119,419.0149,146.1057,412.93,153.85" style="stroke:#181818;stroke-width:1;"/><text fill="#000000" font-family="sans-serif" font-size="13" lengthAdjust="spacing" textLength="264.6211" x="502.5" y="120.0669">filtrarDocentes(criterio) : List&lt;Docente&gt;</text></g><!--link DocentesController to DocenteRepository--><g class="link" data-entity-1="DocentesController" data-entity-2="DocenteRepository" data-source-line="22" data-uid="lnk16" id="link_DocentesController_DocenteRepository"><path d="M325.56,190.1 C282.38,203.54 229.5,220 229.5,220 C229.5,220 229.5,237 229.5,237 C229.5,237 276.3045,251.6659 319.1945,265.1059" fill="none" id="DocentesController-to-DocenteRepository" style="stroke:#181818;stroke-width:1;"/><polygon fill="#181818" points="324.92,266.9,317.5279,260.3918,320.1488,265.4049,315.1357,268.0258,324.92,266.9" style="stroke:#181818;stroke-width:1;"/><text fill="#000000" font-family="sans-serif" font-size="13" lengthAdjust="spacing" textLength="211.4976" x="230.5" y="233.0669">obtenerTodos() : List&lt;Docente&gt;</text></g><!--link DocentesController to DocenteRepository--><g class="link" data-entity-1="DocentesController" data-entity-2="DocenteRepository" data-source-line="28" data-uid="lnk19" id="link_DocentesController_DocenteRepository"><path d="M404.7,190.23 C423.54,203.65 446.5,220 446.5,220 C446.5,220 446.5,237 446.5,237 C446.5,237 428.101,249.903 408.981,263.323" fill="none" id="DocentesController-to-DocenteRepository-1" style="stroke:#181818;stroke-width:1;"/><polygon fill="#181818" points="404.07,266.77,413.7346,264.8736,408.1625,263.8975,409.1386,258.3255,404.07,266.77" style="stroke:#181818;stroke-width:1;"/><text fill="#000000" font-family="sans-serif" font-size="13" lengthAdjust="spacing" textLength="280.7505" x="447.5" y="233.0669">buscarPorCriterio(criterio) : List&lt;Docente&gt;</text></g><!--link DocenteRepository to Docente--><g class="link" data-entity-1="DocenteRepository" data-entity-2="Docente" data-source-line="24" data-uid="lnk17" id="link_DocenteRepository_Docente"><path d="M379.5,303.42 C379.5,320.57 379.5,346.58 379.5,363.69" fill="none" id="DocenteRepository-Docente" style="stroke:#181818;stroke-width:1;"/></g><!--link VerDocentesView to SistemaDisponibleSalida--><g class="link" data-entity-1="VerDocentesView" data-entity-2="SistemaDisponibleSalida" data-source-line="30" data-uid="lnk20" id="link_VerDocentesView_SistemaDisponibleSalida"><path d="M724.83,77.23 C747.67,90.65 775.5,107 775.5,107 C775.5,107 815.2939,131.7231 845.8039,150.6831" fill="none" id="VerDocentesView-to-SistemaDisponibleSalida" style="stroke:#181818;stroke-width:1;stroke-dasharray:7,7;"/><polygon fill="#181818" points="850.9,153.85,845.3671,145.7022,846.6532,151.2109,841.1445,152.497,850.9,153.85" style="stroke:#181818;stroke-width:1;"/><text fill="#000000" font-family="sans-serif" font-size="13" lengthAdjust="spacing" textLength="125.9248" x="800.5" y="120.0669">completarGestion()</text></g><!--link VerDocentesView to CrearDocente--><g class="link" data-entity-1="VerDocentesView" data-entity-2="CrearDocente" data-source-line="31" data-uid="lnk21" id="link_VerDocentesView_CrearDocente"><path d="M767.21,74.1 C837.61,87.95 934.5,107 934.5,107 C934.5,107 1002.539,132.7648 1052.599,151.7248" fill="none" id="VerDocentesView-to-CrearDocente" style="stroke:#181818;stroke-width:1;stroke-dasharray:7,7;"/><polygon fill="#181818" points="1058.21,153.85,1051.2102,146.9216,1053.5341,152.079,1048.3767,154.403,1058.21,153.85" style="stroke:#181818;stroke-width:1;"/><text fill="#000000" font-family="sans-serif" font-size="13" lengthAdjust="spacing" textLength="98.3887" x="975.5" y="120.0669">crearDocente()</text></g><!--link VerDocentesView to EditarDocente--><g class="link" data-entity-1="VerDocentesView" data-entity-2="EditarDocente" data-source-line="32" data-uid="lnk22" id="link_VerDocentesView_EditarDocente"><path d="M767.38,68.73 C879.3,82.32 1082.5,107 1082.5,107 C1082.5,107 1198.1629,133.624 1280.5229,152.584" fill="none" id="VerDocentesView-to-EditarDocente" style="stroke:#181818;stroke-width:1;stroke-dasharray:7,7;"/><polygon fill="#181818" points="1286.37,153.93,1278.4968,148.0129,1281.4974,152.8083,1276.702,155.809,1286.37,153.93" style="stroke:#181818;stroke-width:1;"/><text fill="#000000" font-family="sans-serif" font-size="13" lengthAdjust="spacing" textLength="102.8574" x="1150.5" y="120.0669">editarDocente()</text></g><!--link VerDocentesView to EliminarDocente--><g class="link" data-entity-1="VerDocentesView" data-entity-2="EliminarDocente" data-source-line="33" data-uid="lnk23" id="link_VerDocentesView_EliminarDocente"><path d="M767.04,66.65 C818.36,71.41 878.5,77 878.5,77 C878.5,77 1261.5,107 1261.5,107 C1261.5,107 1415.1302,133.9337 1523.2602,152.8937" fill="none" id="VerDocentesView-to-EliminarDocente" style="stroke:#181818;stroke-width:1;stroke-dasharray:7,7;"/><polygon fill="#181818" points="1529.17,153.93,1520.9961,148.4357,1524.2451,153.0665,1519.6144,156.3155,1529.17,153.93" style="stroke:#181818;stroke-width:1;"/><text fill="#000000" font-family="sans-serif" font-size="13" lengthAdjust="spacing" textLength="117.6348" x="1350.5" y="120.0669">eliminarDocente()</text></g><!--SRC=[fP8nRy8m48Lt_ufJki0G1bHGYIea6aAN3bMfs9taYauuTcIxhL3L_rw3GXCd126HxPxlUpxddjcHBBdc1GYIQFSbGgd4_b0mfZ6pN6u5mbsyJ9uM4mYYDHcB1OSbcL99IWK6m0rKSgsUXPSgGsaH5YcXjkf8LbebiP9dExv5-49TdPX3Lz2e1yC0VXYuht77T3nBLZFOr6qRmkzsLpf9y-d3wKuJAscr4W9rkt4rNiJtoQdn3Kjbo2gzlzp7Vc_xQMikAETdBM8t9a-LvfQKX5WZFptqQDKKhk2JdAnlu2dNE0WgIBOyV8snpWCXrE6ylQG8lEKoFn5N8Qnr3c7keEwQ8nTpKx_JeH31YvCUAsNEM9U2i3Qhen21IYrArEygLvUSQiGP_KUbEtBFn1yah6wCd6cog4dTD7hwQJAkNvMEAxTBjkr9HwDvNtOZo5HH2dJ_-1dD8IbkE-VuPc0TrAXw02-W4M2px4FyF3h85mR3Fm00]--></g></svg>