<?plantuml 1.2026.2?><svg xmlns="http://www.w3.org/2000/svg" xmlns:xlink="http://www.w3.org/1999/xlink" contentStyleType="text/css" data-diagram-type="DESCRIPTION" height="429px" preserveAspectRatio="none" style="width:2190px;height:429px;background:#FFFFFF;" version="1.1" viewBox="0 0 2190 429" width="2190px" zoomAndPan="magnify"><defs/><g><!--cluster generarExamenes--><g class="cluster" data-qualified-name="generarExamenes" data-source-line="8" id="ent0006"><path d="M8.5,106 L164.4502,106 A3.75,3.75 0 0 1 166.9502,108.5 L173.9502,128.2969 L1479.5,128.2969 A2.5,2.5 0 0 1 1482,130.7969 L1482,419.5 A2.5,2.5 0 0 1 1479.5,422 L8.5,422 A2.5,2.5 0 0 1 6,419.5 L6,108.5 A2.5,2.5 0 0 1 8.5,106" fill="none" style="stroke:#000000;stroke-width:1.5;"/><line style="stroke:#000000;stroke-width:1.5;" x1="6" x2="173.9502" y1="128.2969" y2="128.2969"/><text fill="#000000" font-family="sans-serif" font-size="14" font-weight="bold" lengthAdjust="spacing" textLength="154.9502" x="10" y="120.9951">generarExamenes()</text></g><!--entity GenerarExamenesView--><g class="entity" data-qualified-name="generarExamenes.GenerarExamenesView" data-source-line="9" id="ent0007"><rect fill="#629EF9" height="36.2969" rx="2.5" ry="2.5" style="stroke:#181818;stroke-width:0.5;" width="183.3105" x="773.5" y="160"/><text fill="#000000" font-family="sans-serif" font-size="14" lengthAdjust="spacing" textLength="163.3105" x="783.5" y="182.9951">GenerarExamenesView</text></g><!--entity ExamenesController--><g class="entity" data-qualified-name="generarExamenes.ExamenesController" data-source-line="10" id="ent0008"><rect fill="#B5BD68" height="36.2969" rx="2.5" ry="2.5" style="stroke:#181818;stroke-width:0.5;" width="161.9141" x="22" y="273"/><text fill="#000000" font-family="sans-serif" font-size="14" lengthAdjust="spacing" textLength="141.9141" x="32" y="295.9951">ExamenesController</text></g><!--entity Generador--><g class="entity" data-qualified-name="generarExamenes.Generador" data-source-line="11" id="ent0009"><rect fill="#F2AC4E" height="36.2969" rx="2.5" ry="2.5" style="stroke:#181818;stroke-width:0.5;" width="94.4912" x="441" y="273"/><text fill="#000000" font-family="sans-serif" font-size="14" lengthAdjust="spacing" textLength="74.4912" x="451" y="295.9951">Generador</text></g><!--entity Validador--><g class="entity" data-qualified-name="generarExamenes.Validador" data-source-line="12" id="ent0010"><rect fill="#F2AC4E" height="36.2969" rx="2.5" ry="2.5" style="stroke:#181818;stroke-width:0.5;" width="86.6094" x="1378.5" y="273"/><text fill="#000000" font-family="sans-serif" font-size="14" lengthAdjust="spacing" textLength="66.6094" x="1388.5" y="295.9951">Validador</text></g><!--entity Examen--><g class="entity" data-qualified-name="generarExamenes.Examen" data-source-line="13" id="ent0011"><rect fill="#F2AC4E" height="36.2969" rx="2.5" ry="2.5" style="stroke:#181818;stroke-width:0.5;" width="76.834" x="1046.5" y="273"/><text fill="#000000" font-family="sans-serif" font-size="14" lengthAdjust="spacing" textLength="56.834" x="1056.5" y="295.9951">Examen</text></g><!--entity Asignatura--><g class="entity" data-qualified-name="generarExamenes.Asignatura" data-source-line="14" id="ent0012"><rect fill="#F2AC4E" height="36.2969" rx="2.5" ry="2.5" style="stroke:#181818;stroke-width:0.5;" width="95.7969" x="1258" y="370"/><text fill="#000000" font-family="sans-serif" font-size="14" lengthAdjust="spacing" textLength="75.7969" x="1268" y="392.9951">Asignatura</text></g><!--entity Grado--><g class="entity" data-qualified-name="generarExamenes.Grado" data-source-line="15" id="ent0013"><rect fill="#F2AC4E" height="36.2969" rx="2.5" ry="2.5" style="stroke:#181818;stroke-width:0.5;" width="62.6357" x="1402.5" y="370"/><text fill="#000000" font-family="sans-serif" font-size="14" lengthAdjust="spacing" textLength="42.6357" x="1412.5" y="392.9951">Grado</text></g><!--entity PreguntaRepository--><g class="entity" data-qualified-name="generarExamenes.PreguntaRepository" data-source-line="16" id="ent0014"><rect fill="#F2AC4E" height="36.2969" rx="2.5" ry="2.5" style="stroke:#181818;stroke-width:0.5;" width="158.585" x="1171.5" y="273"/><text fill="#000000" font-family="sans-serif" font-size="14" lengthAdjust="spacing" textLength="138.585" x="1181.5" y="295.9951">PreguntaRepository</text></g><!--entity Pregunta--><g class="entity" data-qualified-name="generarExamenes.Pregunta" data-source-line="17" id="ent0015"><rect fill="#F2AC4E" height="36.2969" rx="2.5" ry="2.5" style="stroke:#181818;stroke-width:0.5;" width="83.5127" x="1126" y="370"/><text fill="#000000" font-family="sans-serif" font-size="14" lengthAdjust="spacing" textLength="63.5127" x="1136" y="392.9951">Pregunta</text></g><!--entity SistemaDisponible--><g class="entity" data-qualified-name="SistemaDisponible" data-source-line="3" id="ent0002"><rect fill="#CDEBA5" height="36.2969" rx="2.5" ry="2.5" style="stroke:#181818;stroke-width:0.5;" width="159.125" x="682.5" y="7"/><text fill="#000000" font-family="sans-serif" font-size="14" lengthAdjust="spacing" textLength="139.125" x="692.5" y="29.9951">:Sistema Disponible</text></g><!--entity AsignaturaAbierto--><g class="entity" data-qualified-name="AsignaturaAbierto" data-source-line="4" id="ent0003"><rect fill="#CDEBA5" height="36.2969" rx="2.5" ry="2.5" style="stroke:#181818;stroke-width:0.5;" width="155.7412" x="890" y="7"/><text fill="#000000" font-family="sans-serif" font-size="14" lengthAdjust="spacing" textLength="135.7412" x="900" y="29.9951">:Asignatura Abierto</text></g><!--entity AsignarExamenes--><g class="entity" data-qualified-name="AsignarExamenes" data-source-line="5" id="ent0004"><rect fill="#CDEBA5" height="36.2969" rx="2.5" ry="2.5" style="stroke:#181818;stroke-width:0.5;" width="248.0674" x="1514" y="273"/><text fill="#000000" font-family="sans-serif" font-size="14" lengthAdjust="spacing" textLength="228.0674" x="1524" y="295.9951">:Collaboration AsignarExamenes</text></g><!--entity CancelarGeneracion--><g class="entity" data-qualified-name="CancelarGeneracion" data-source-line="6" id="ent0005"><rect fill="#CDEBA5" height="36.2969" rx="2.5" ry="2.5" style="stroke:#181818;stroke-width:0.5;" width="264.542" x="1919.5" y="273"/><text fill="#000000" font-family="sans-serif" font-size="14" lengthAdjust="spacing" textLength="244.542" x="1929.5" y="295.9951">:Collaboration CancelarGeneracion</text></g><!--link SistemaDisponible to GenerarExamenesView--><g class="link" data-entity-1="ent0002" data-entity-2="ent0007" data-link-type="dependency" data-source-line="20" id="lnk16"><path d="M766.29,43.15 C771.03,62.11 778,90 778,90 C778,90 818.2174,130.2174 843.5674,155.5674" fill="none" id="SistemaDisponible-to-GenerarExamenesView" style="stroke:#181818;stroke-width:1;"/><polygon fill="#181818" points="847.81,159.81,844.2745,150.6176,844.2745,156.2745,838.6176,156.2745,847.81,159.81" style="stroke:#181818;stroke-width:1;"/><text fill="#000000" font-family="sans-serif" font-size="13" lengthAdjust="spacing" textLength="128.832" x="779" y="86.0669">generarExamenes()</text></g><!--link AsignaturaAbierto to GenerarExamenesView--><g class="link" data-entity-1="ent0003" data-entity-2="ent0007" data-link-type="dependency" data-source-line="21" id="lnk17"><path d="M956.38,43.03 C936.6,72.03 899.9714,125.7336 880.1114,154.8436" fill="none" id="AsignaturaAbierto-to-GenerarExamenesView" style="stroke:#181818;stroke-width:1;"/><polygon fill="#181818" points="876.73,159.8,885.1064,154.6197,879.5479,155.6697,878.4979,150.1111,876.73,159.8" style="stroke:#181818;stroke-width:1;"/><text fill="#000000" font-family="sans-serif" font-size="13" lengthAdjust="spacing" textLength="210.374" x="935" y="86.0669">generarExamenes(asignaturaId)</text></g><!--link GenerarExamenesView to ExamenesController--><g class="link" data-entity-1="ent0007" data-entity-2="ent0008" data-link-type="dependency" data-source-line="23" id="lnk18"><path d="M773.22,184.65 C570.23,197.13 101,226 101,226 C101,226 101,243 101,243 C101,243 101.4454,253.3554 102.0154,266.7754" fill="none" id="GenerarExamenesView-to-ExamenesController" style="stroke:#181818;stroke-width:1;"/><polygon fill="#181818" points="102.27,272.77,105.8845,263.6084,102.0578,267.7745,97.8917,263.9478,102.27,272.77" style="stroke:#181818;stroke-width:1;"/><text fill="#000000" font-family="sans-serif" font-size="13" lengthAdjust="spacing" textLength="193.0513" x="102" y="239.0669">validarDatos(datos) : boolean</text></g><!--link GenerarExamenesView to ExamenesController--><g class="link" data-entity-1="ent0007" data-entity-2="ent0008" data-link-type="dependency" data-source-line="27" id="lnk20"><path d="M773.37,187.51 C627.55,201.06 359,226 359,226 C359,226 304,243 304,243 C304,243 239.2122,258.1429 181.6922,271.6029" fill="none" id="GenerarExamenesView-to-ExamenesController-1" style="stroke:#181818;stroke-width:1;"/><polygon fill="#181818" points="175.85,272.97,185.5247,274.8141,180.7185,271.8307,183.7019,267.0246,175.85,272.97" style="stroke:#181818;stroke-width:1;"/><text fill="#000000" font-family="sans-serif" font-size="13" lengthAdjust="spacing" textLength="207.2573" x="360" y="239.0669">generar(datos) : List&lt;Examen&gt;</text></g><!--link ExamenesController to Validador--><g class="link" data-entity-1="ent0008" data-entity-2="ent0010" data-link-type="dependency" data-source-line="25" id="lnk19"><path d="M184.1,281.47 C320.12,265.48 579.5,235 579.5,235 C579.5,235 782.5,235 782.5,235 C782.5,235 1355,273 1355,273 C1355,273 1359.8459,274.3016 1372.6359,277.7416" fill="none" id="ExamenesController-to-Validador" style="stroke:#181818;stroke-width:1;"/><polygon fill="#181818" points="1378.43,279.3,1370.7778,273.0997,1373.6016,278.0014,1368.6999,280.8252,1378.43,279.3" style="stroke:#181818;stroke-width:1;"/><text fill="#000000" font-family="sans-serif" font-size="13" lengthAdjust="spacing" textLength="201.8999" x="580.5" y="239.0669">verificarDatos(datos) : boolean</text></g><!--link ExamenesController to Generador--><g class="link" data-entity-1="ent0008" data-entity-2="ent0009" data-link-type="dependency" data-source-line="29" id="lnk21"><path d="M184.18,291 C262.06,291 370.97,291 434.83,291" fill="none" id="ExamenesController-to-Generador" style="stroke:#181818;stroke-width:1;"/><polygon fill="#181818" points="440.83,291,431.83,287,435.83,291,431.83,295,440.83,291" style="stroke:#181818;stroke-width:1;"/><text fill="#000000" font-family="sans-serif" font-size="13" lengthAdjust="spacing" textLength="207.2573" x="209" y="284.0669">generar(datos) : List&lt;Examen&gt;</text></g><!--link Generador to PreguntaRepository--><g class="link" data-entity-1="ent0009" data-entity-2="ent0014" data-link-type="dependency" data-source-line="31" id="lnk22"><path d="M535.09,282.31 C620.34,266.58 791.5,235 791.5,235 C791.5,235 1154.5,235 1154.5,235 C1154.5,235 1186.5405,253.5886 1214.7505,269.9586" fill="none" id="Generador-to-PreguntaRepository" style="stroke:#181818;stroke-width:1;"/><polygon fill="#181818" points="1219.94,272.97,1214.1633,264.9932,1215.6154,270.4605,1210.1481,271.9125,1219.94,272.97" style="stroke:#181818;stroke-width:1;"/><text fill="#000000" font-family="sans-serif" font-size="13" lengthAdjust="spacing" textLength="361.1245" x="792.5" y="239.0669">obtenerPreguntas(asignatura, temas) : List&lt;Pregunta&gt;</text></g><!--link Generador to Examen--><g class="link" data-entity-1="ent0009" data-entity-2="ent0011" data-link-type="dependency" data-source-line="33" id="lnk23"><path d="M535.09,291 C649.63,291 935.07,291 1040.33,291" fill="none" id="Generador-to-Examen" style="stroke:#181818;stroke-width:1;"/><polygon fill="#181818" points="1046.33,291,1037.33,287,1041.33,291,1037.33,295,1046.33,291" style="stroke:#181818;stroke-width:1;"/><text fill="#000000" font-family="sans-serif" font-size="13" lengthAdjust="spacing" textLength="462.0205" x="559.75" y="284.0669">new Examen(asignatura, evaluacion, preguntas, clavePendiente=true)</text></g><!--link Validador to Asignatura--><g class="link" data-entity-1="ent0010" data-entity-2="ent0012" data-link-type="association" data-source-line="35" id="lnk24"><path d="M1400.99,309.2 C1379.97,326.42 1347.82,352.75 1326.85,369.92" fill="none" id="Validador-Asignatura" style="stroke:#181818;stroke-width:1;"/></g><!--link Validador to Grado--><g class="link" data-entity-1="ent0010" data-entity-2="ent0013" data-link-type="association" data-source-line="36" id="lnk25"><path d="M1424.2,309.42 C1426.37,326.57 1429.65,352.58 1431.81,369.69" fill="none" id="Validador-Grado" style="stroke:#181818;stroke-width:1;"/></g><!--link PreguntaRepository to Pregunta--><g class="link" data-entity-1="ent0014" data-entity-2="ent0015" data-link-type="association" data-source-line="38" id="lnk26"><path d="M1235.78,309.42 C1220.8,326.57 1198.07,352.58 1183.13,369.69" fill="none" id="PreguntaRepository-Pregunta" style="stroke:#181818;stroke-width:1;"/></g><!--link GenerarExamenesView to AsignarExamenes--><g class="link" data-entity-1="ent0007" data-entity-2="ent0004" data-link-type="dependency" data-source-line="40" id="lnk27"><path d="M956.71,192.17 C1096.98,212.31 1358.8609,249.9174 1513.6409,272.1374" fill="none" id="GenerarExamenesView-to-AsignarExamenes" style="stroke:#181818;stroke-width:1;stroke-dasharray:7,7;"/><polygon fill="#181818" points="1519.58,272.99,1511.2397,267.7517,1514.6307,272.2795,1510.1029,275.6705,1519.58,272.99" style="stroke:#181818;stroke-width:1;"/><text fill="#000000" font-family="sans-serif" font-size="13" lengthAdjust="spacing" textLength="469.1616" x="1298" y="239.0669">&#171;include&#187; asignarExamenes(examenesGenerados) [generaci&#243;n exitosa]</text></g><!--link GenerarExamenesView to CancelarGeneracion--><g class="link" data-entity-1="ent0007" data-entity-2="ent0005" data-link-type="dependency" data-source-line="41" id="lnk28"><path d="M956.5,183.7 C1188.24,195.6 1780,226 1780,226 C1780,226 1893.0495,252.5958 1973.6295,271.5558" fill="none" id="GenerarExamenesView-to-CancelarGeneracion" style="stroke:#181818;stroke-width:1;stroke-dasharray:7,7;"/><polygon fill="#181818" points="1979.47,272.93,1971.6254,266.975,1974.6029,271.7848,1969.7931,274.7623,1979.47,272.93" style="stroke:#181818;stroke-width:1;"/><text fill="#000000" font-family="sans-serif" font-size="13" lengthAdjust="spacing" textLength="298.5811" x="1846" y="239.0669">&#171;include&#187; cancelarGeneracion() [cancelaci&#243;n]</text></g><?plantuml-src ZLJDQjj04BxlKmpknGOxXz24HhW2LtP2eOVGGYubXv4q5KlMks9tbSQKFbKVeI_MrR-bbPhuOEHllf_TcR7C4vSvQZo2u9BiAIV8bJYLFnZJb5YKcI1u5-qFdtPNi0Y-SMFfYB3d9bUInu8MW0OQk4SdnJl3Cucsq0Yxc9EsgXBtS8DEYYCb1CPAe-LADXfzUC4ZIJ9dFXts1fS8PK82zPtZQqmSL1dvC6Cv9a-O4MGLreMKzCK8MwuMy8k1-voTuFhovd1x0tT3wWEddsDcV1Mdrn-WfKHAMkrEJNfClBtSHUyFZMMgvkeFA7ZwdteTD5FiPpENNaRFrEurPOMq-9LoPRXL-lGAaVrcp5ibs6p2gRu5uFMTUQlqTZ5sqi_fYh493MnIP-RF9O3dgiLwZrQPPLf-ho20M2b1w7R7bu0pwkRYzAJv3vxCEqoUPkOmpSLwbo-kezkQ6SuTfbkYL_KTivJv4mv0nRQajANppgwX76rlsdB6jdLO0D9TituUc93hTr7zBzUGjp5hI0G-qpt9b9EqzD7gWjmWkpQxXfslym2ljvZvrocBtNPEZk7Y8Xo_UGBORhbCH95I608EYqjg7jeRktPypvetpTy_4kZ59Hjyd4tpNq_3mCIhBrr4WrOPZ_y0?></g></svg>