<svg xmlns="http://www.w3.org/2000/svg" xmlns:xlink="http://www.w3.org/1999/xlink" contentStyleType="text/css" data-diagram-type="DESCRIPTION" height="636px" preserveAspectRatio="none" style="width:2542px;height:636px;background:#FFFFFF;" version="1.1" viewBox="0 0 2542 636" width="2542px" zoomAndPan="magnify"><defs/><g><!--cluster generarExamenes--><g class="cluster" data-entity="generarExamenes" data-source-line="8" data-uid="ent0006" id="cluster_generarExamenes"><path d="M8.5,106 L164.4502,106 A3.75,3.75 0 0 1 166.9502,108.5 L173.9502,128.2969 L1780.5,128.2969 A2.5,2.5 0 0 1 1783,130.7969 L1783,626.5 A2.5,2.5 0 0 1 1780.5,629 L8.5,629 A2.5,2.5 0 0 1 6,626.5 L6,108.5 A2.5,2.5 0 0 1 8.5,106" fill="none" style="stroke:#000000;stroke-width:1.5;"/><line style="stroke:#000000;stroke-width:1.5;" x1="6" x2="173.9502" y1="128.2969" y2="128.2969"/><text fill="#000000" font-family="sans-serif" font-size="14" font-weight="bold" lengthAdjust="spacing" textLength="154.9502" x="10" y="120.9951">generarExamenes()</text></g><!--entity GenerarExamenesView--><g class="entity" data-entity="GenerarExamenesView" data-source-line="9" data-uid="ent0007" id="entity_GenerarExamenesView"><rect fill="#629EF9" height="36.2969" rx="2.5" ry="2.5" style="stroke:#181818;stroke-width:0.5;" width="183.3105" x="1358.5" y="141"/><text fill="#000000" font-family="sans-serif" font-size="14" lengthAdjust="spacing" textLength="163.3105" x="1368.5" y="163.9951">GenerarExamenesView</text></g><!--entity ExamenesController--><g class="entity" data-entity="ExamenesController" data-source-line="10" data-uid="ent0008" id="entity_ExamenesController"><rect fill="#B5BD68" height="36.2969" rx="2.5" ry="2.5" style="stroke:#181818;stroke-width:0.5;" width="161.9141" x="756" y="254"/><text fill="#000000" font-family="sans-serif" font-size="14" lengthAdjust="spacing" textLength="141.9141" x="766" y="276.9951">ExamenesController</text></g><!--entity ExamenRepository--><g class="entity" data-entity="ExamenRepository" data-source-line="11" data-uid="ent0009" id="entity_ExamenRepository"><rect fill="#F2AC4E" height="36.2969" rx="2.5" ry="2.5" style="stroke:#181818;stroke-width:0.5;" width="151.9063" x="897" y="480"/><text fill="#000000" font-family="sans-serif" font-size="14" lengthAdjust="spacing" textLength="131.9063" x="907" y="502.9951">ExamenRepository</text></g><!--entity ExamenGenerator--><g class="entity" data-entity="ExamenGenerator" data-source-line="12" data-uid="ent0010" id="entity_ExamenGenerator"><rect fill="#F2AC4E" height="36.2969" rx="2.5" ry="2.5" style="stroke:#181818;stroke-width:0.5;" width="147.9277" x="1496" y="367"/><text fill="#000000" font-family="sans-serif" font-size="14" lengthAdjust="spacing" textLength="127.9277" x="1506" y="389.9951">ExamenGenerator</text></g><!--entity Validador--><g class="entity" data-entity="Validador" data-source-line="13" data-uid="ent0011" id="entity_Validador"><rect fill="#F2AC4E" height="36.2969" rx="2.5" ry="2.5" style="stroke:#181818;stroke-width:0.5;" width="86.6094" x="1679.5" y="367"/><text fill="#000000" font-family="sans-serif" font-size="14" lengthAdjust="spacing" textLength="66.6094" x="1689.5" y="389.9951">Validador</text></g><!--entity Examen--><g class="entity" data-entity="Examen" data-source-line="14" data-uid="ent0012" id="entity_Examen"><rect fill="#F2AC4E" height="36.2969" rx="2.5" ry="2.5" style="stroke:#181818;stroke-width:0.5;" width="76.834" x="697.5" y="577"/><text fill="#000000" font-family="sans-serif" font-size="14" lengthAdjust="spacing" textLength="56.834" x="707.5" y="599.9951">Examen</text></g><!--entity Asignatura--><g class="entity" data-entity="Asignatura" data-source-line="15" data-uid="ent0013" id="entity_Asignatura"><rect fill="#F2AC4E" height="36.2969" rx="2.5" ry="2.5" style="stroke:#181818;stroke-width:0.5;" width="95.7969" x="810" y="577"/><text fill="#000000" font-family="sans-serif" font-size="14" lengthAdjust="spacing" textLength="75.7969" x="820" y="599.9951">Asignatura</text></g><!--entity Grado--><g class="entity" data-entity="Grado" data-source-line="16" data-uid="ent0014" id="entity_Grado"><rect fill="#F2AC4E" height="36.2969" rx="2.5" ry="2.5" style="stroke:#181818;stroke-width:0.5;" width="62.6357" x="941.5" y="577"/><text fill="#000000" font-family="sans-serif" font-size="14" lengthAdjust="spacing" textLength="42.6357" x="951.5" y="599.9951">Grado</text></g><!--entity Alumno--><g class="entity" data-entity="Alumno" data-source-line="17" data-uid="ent0015" id="entity_Alumno"><rect fill="#F2AC4E" height="36.2969" rx="2.5" ry="2.5" style="stroke:#181818;stroke-width:0.5;" width="73.416" x="1039.5" y="577"/><text fill="#000000" font-family="sans-serif" font-size="14" lengthAdjust="spacing" textLength="53.416" x="1049.5" y="599.9951">Alumno</text></g><!--entity BateriaDePreguntas--><g class="entity" data-entity="BateriaDePreguntas" data-source-line="18" data-uid="ent0016" id="entity_BateriaDePreguntas"><rect fill="#F2AC4E" height="36.2969" rx="2.5" ry="2.5" style="stroke:#181818;stroke-width:0.5;" width="160.7109" x="1147.5" y="577"/><text fill="#000000" font-family="sans-serif" font-size="14" lengthAdjust="spacing" textLength="140.7109" x="1157.5" y="599.9951">BateriaDePreguntas</text></g><!--entity SistemaDisponible--><g class="entity" data-entity="SistemaDisponible" data-source-line="3" data-uid="ent0002" id="entity_SistemaDisponible"><rect fill="#CDEBA5" height="36.2969" rx="2.5" ry="2.5" style="stroke:#181818;stroke-width:0.5;" width="159.125" x="1274.5" y="7"/><text fill="#000000" font-family="sans-serif" font-size="14" lengthAdjust="spacing" textLength="139.125" x="1284.5" y="29.9951">:Sistema Disponible</text></g><!--entity AsignaturaAbierto--><g class="entity" data-entity="AsignaturaAbierto" data-source-line="4" data-uid="ent0003" id="entity_AsignaturaAbierto"><rect fill="#CDEBA5" height="36.2969" rx="2.5" ry="2.5" style="stroke:#181818;stroke-width:0.5;" width="155.7412" x="1469" y="7"/><text fill="#000000" font-family="sans-serif" font-size="14" lengthAdjust="spacing" textLength="135.7412" x="1479" y="29.9951">:Asignatura Abierto</text></g><!--entity AsignarExamenes--><g class="entity" data-entity="AsignarExamenes" data-source-line="5" data-uid="ent0004" id="entity_AsignarExamenes"><rect fill="#CDEBA5" height="36.2969" rx="2.5" ry="2.5" style="stroke:#181818;stroke-width:0.5;" width="248.0674" x="1799" y="254"/><text fill="#000000" font-family="sans-serif" font-size="14" lengthAdjust="spacing" textLength="228.0674" x="1809" y="276.9951">:Collaboration AsignarExamenes</text></g><!--entity CancelarGeneracion--><g class="entity" data-entity="CancelarGeneracion" data-source-line="6" data-uid="ent0005" id="entity_CancelarGeneracion"><rect fill="#CDEBA5" height="36.2969" rx="2.5" ry="2.5" style="stroke:#181818;stroke-width:0.5;" width="264.542" x="2191.5" y="254"/><text fill="#000000" font-family="sans-serif" font-size="14" lengthAdjust="spacing" textLength="244.542" x="2201.5" y="276.9951">:Collaboration CancelarGeneracion</text></g><!--link SistemaDisponible to GenerarExamenesView--><g class="link" data-entity-1="SistemaDisponible" data-entity-2="GenerarExamenesView" data-source-line="21" data-uid="lnk17" id="link_SistemaDisponible_GenerarExamenesView"><path d="M1359.36,43.15 C1365.28,62.11 1374,90 1374,90 C1374,90 1403.8385,116.6993 1426.3485,136.8393" fill="none" id="SistemaDisponible-to-GenerarExamenesView" style="stroke:#181818;stroke-width:1;"/><polygon fill="#181818" points="1430.82,140.84,1426.7799,131.8579,1427.0938,137.5061,1421.4456,137.8199,1430.82,140.84" style="stroke:#181818;stroke-width:1;"/><text fill="#000000" font-family="sans-serif" font-size="13" lengthAdjust="spacing" textLength="128.832" x="1375" y="86.0669">generarExamenes()</text></g><!--link AsignaturaAbierto to GenerarExamenesView--><g class="link" data-entity-1="AsignaturaAbierto" data-entity-2="GenerarExamenesView" data-source-line="22" data-uid="lnk18" id="link_AsignaturaAbierto_GenerarExamenesView"><path d="M1536.55,43.15 C1525,62.11 1508,90 1508,90 C1508,90 1485.7139,116.1352 1468.5339,136.2752" fill="none" id="AsignaturaAbierto-to-GenerarExamenesView" style="stroke:#181818;stroke-width:1;"/><polygon fill="#181818" points="1464.64,140.84,1473.5241,136.5887,1467.8849,137.036,1467.4377,131.3968,1464.64,140.84" style="stroke:#181818;stroke-width:1;"/><text fill="#000000" font-family="sans-serif" font-size="13" lengthAdjust="spacing" textLength="210.374" x="1518" y="86.0669">generarExamenes(asignaturaId)</text></g><!--link GenerarExamenesView to ExamenesController--><g class="link" data-entity-1="GenerarExamenesView" data-entity-2="ExamenesController" data-source-line="24" data-uid="lnk19" id="link_GenerarExamenesView_ExamenesController"><path d="M1358.44,166.99 C1186.85,180.08 834,207 834,207 C834,207 834,224 834,224 C834,224 834.6563,234.3623 835.5163,247.7823" fill="none" id="GenerarExamenesView-to-ExamenesController" style="stroke:#181818;stroke-width:1;"/><polygon fill="#181818" points="835.9,253.77,839.3162,244.5326,835.5802,248.7802,831.3326,245.0442,835.9,253.77" style="stroke:#181818;stroke-width:1;"/><text fill="#000000" font-family="sans-serif" font-size="13" lengthAdjust="spacing" textLength="336.4004" x="835" y="220.0669">obtenerDatosIniciales(asignaturaId) : DatosIniciales</text></g><!--link GenerarExamenesView to ExamenesController--><g class="link" data-entity-1="GenerarExamenesView" data-entity-2="ExamenesController" data-source-line="29" data-uid="lnk22" id="link_GenerarExamenesView_ExamenesController"><path d="M1363.74,177.03 C1295.63,190.49 1212,207 1212,207 C1212,207 1176,224 1176,224 C1176,224 1024.4332,245.0163 924.1432,258.9163" fill="none" id="GenerarExamenesView-to-ExamenesController-1" style="stroke:#181818;stroke-width:1;"/><polygon fill="#181818" points="918.2,259.74,927.6639,262.4666,923.1527,259.0536,926.5656,254.5423,918.2,259.74" style="stroke:#181818;stroke-width:1;"/><text fill="#000000" font-family="sans-serif" font-size="13" lengthAdjust="spacing" textLength="193.0513" x="1213" y="220.0669">validarDatos(datos) : boolean</text></g><!--link GenerarExamenesView to ExamenesController--><g class="link" data-entity-1="GenerarExamenesView" data-entity-2="ExamenesController" data-source-line="36" data-uid="lnk26" id="link_GenerarExamenesView_ExamenesController"><path d="M1439.55,177.15 C1428,196.11 1411,224 1411,224 C1411,224 1082.23,250.9202 924,263.8802" fill="none" id="GenerarExamenesView-to-ExamenesController-2" style="stroke:#181818;stroke-width:1;"/><polygon fill="#181818" points="918.02,264.37,927.3165,267.622,923.0033,263.9618,926.6634,259.6487,918.02,264.37" style="stroke:#181818;stroke-width:1;"/><text fill="#000000" font-family="sans-serif" font-size="13" lengthAdjust="spacing" textLength="207.2573" x="1421" y="220.0669">generar(datos) : List&lt;Examen&gt;</text></g><!--link ExamenesController to ExamenRepository--><g class="link" data-entity-1="ExamenesController" data-entity-2="ExamenRepository" data-source-line="26" data-uid="lnk20" id="link_ExamenesController_ExamenRepository"><path d="M755.7,283.15 C560.99,307.46 84,367 84,367 C84,367 84,403 84,403 C84,403 476,450 476,450 C476,450 751.7767,476.075 891.0067,489.245" fill="none" id="ExamenesController-to-ExamenRepository" style="stroke:#181818;stroke-width:1;"/><polygon fill="#181818" points="896.98,489.81,888.3967,484.9802,892.0022,489.3391,887.6433,492.9447,896.98,489.81" style="stroke:#181818;stroke-width:1;"/><text fill="#000000" font-family="sans-serif" font-size="13" lengthAdjust="spacing" textLength="356.0591" x="85" y="389.5669">obtenerGradosAsignatura(asignaturaId) : List&lt;Grado&gt;</text></g><!--link ExamenesController to ExamenRepository--><g class="link" data-entity-1="ExamenesController" data-entity-2="ExamenRepository" data-source-line="27" data-uid="lnk21" id="link_ExamenesController_ExamenRepository"><path d="M778.14,290.02 C684.49,317.11 512,367 512,367 C512,367 512,403 512,403 C512,403 760.061,453.5812 891.001,480.2812" fill="none" id="ExamenesController-to-ExamenRepository-1" style="stroke:#181818;stroke-width:1;"/><polygon fill="#181818" points="896.88,481.48,888.8607,475.7625,891.9808,480.481,887.2623,483.6012,896.88,481.48" style="stroke:#181818;stroke-width:1;"/><text fill="#000000" font-family="sans-serif" font-size="13" lengthAdjust="spacing" textLength="416.1523" x="513" y="389.5669">obtenerAlumnosPorGrado(asignaturaId) : Map&lt;Grado, Integer&gt;</text></g><!--link ExamenesController to ExamenRepository--><g class="link" data-entity-1="ExamenesController" data-entity-2="ExamenRepository" data-source-line="34" data-uid="lnk25" id="link_ExamenesController_ExamenRepository"><path d="M831.13,290.23 C826.57,303.65 821,320 821,320 C821,320 821,337 821,337 C821,337 934,367 934,367 C934,367 955.4861,438.623 966.0961,473.993" fill="none" id="ExamenesController-to-ExamenRepository-2" style="stroke:#181818;stroke-width:1;"/><polygon fill="#181818" points="967.82,479.74,969.0654,469.9702,966.3834,474.9508,961.4028,472.2688,967.82,479.74" style="stroke:#181818;stroke-width:1;"/><text fill="#000000" font-family="sans-serif" font-size="13" lengthAdjust="spacing" textLength="486.7256" x="945" y="389.5669">verificarPreguntasSuficientes(asignatura, temas, numPreguntas) : boolean</text></g><!--link ExamenesController to Validador--><g class="link" data-entity-1="ExamenesController" data-entity-2="Validador" data-source-line="31" data-uid="lnk23" id="link_ExamenesController_Validador"><path d="M911.3,290.03 C969.97,303.49 1042,320 1042,320 C1042,320 1078,337 1078,337 C1078,337 1662,367 1662,367 C1662,367 1663.7609,367.4868 1673.5409,370.2168" fill="none" id="ExamenesController-to-Validador" style="stroke:#181818;stroke-width:1;"/><polygon fill="#181818" points="1679.32,371.83,1671.7268,365.5575,1674.5041,370.4857,1669.5759,373.2629,1679.32,371.83" style="stroke:#181818;stroke-width:1;"/><text fill="#000000" font-family="sans-serif" font-size="13" lengthAdjust="spacing" textLength="255.9692" x="1079" y="333.0669">verificarDatosMinimos(datos) : boolean</text></g><!--link ExamenesController to Validador--><g class="link" data-entity-1="ExamenesController" data-entity-2="Validador" data-source-line="32" data-uid="lnk24" id="link_ExamenesController_Validador"><path d="M918.21,280.6 C1060.29,293.91 1339,320 1339,320 C1339,320 1662,367 1662,367 C1662,367 1663.7609,367.4868 1673.5409,370.2168" fill="none" id="ExamenesController-to-Validador-1" style="stroke:#181818;stroke-width:1;"/><polygon fill="#181818" points="1679.32,371.83,1671.7268,365.5575,1674.5041,370.4857,1669.5759,373.2629,1679.32,371.83" style="stroke:#181818;stroke-width:1;"/><text fill="#000000" font-family="sans-serif" font-size="13" lengthAdjust="spacing" textLength="387.4165" x="1453" y="333.0669">validarLimitesPorGrado(datos, alumnosPorGrado) : boolean</text></g><!--link ExamenesController to ExamenGenerator--><g class="link" data-entity-1="ExamenesController" data-entity-2="ExamenGenerator" data-source-line="38" data-uid="lnk27" id="link_ExamenesController_ExamenGenerator"><path d="M834.07,290.23 C831.78,303.65 829,320 829,320 C829,320 829,337 829,337 C829,337 1469,367 1469,367 C1469,367 1474.6132,367.9442 1489.8832,370.5142" fill="none" id="ExamenesController-to-ExamenGenerator" style="stroke:#181818;stroke-width:1;"/><polygon fill="#181818" points="1495.8,371.51,1487.5887,366.0717,1490.8693,370.6802,1486.2609,373.9608,1495.8,371.51" style="stroke:#181818;stroke-width:1;"/><text fill="#000000" font-family="sans-serif" font-size="13" lengthAdjust="spacing" textLength="207.2573" x="830" y="333.0669">generar(datos) : List&lt;Examen&gt;</text></g><!--link ExamenGenerator to ExamenRepository--><g class="link" data-entity-1="ExamenGenerator" data-entity-2="ExamenRepository" data-source-line="40" data-uid="lnk28" id="link_ExamenGenerator_ExamenRepository"><path d="M1495.8,398.49 C1480.53,401.06 1469,403 1469,403 C1469,403 1076,433 1076,433 C1076,433 1036.2061,457.7231 1005.6961,476.6831" fill="none" id="ExamenGenerator-to-ExamenRepository" style="stroke:#181818;stroke-width:1;"/><polygon fill="#181818" points="1000.6,479.85,1010.3555,478.497,1004.8468,477.2109,1006.1329,471.7022,1000.6,479.85" style="stroke:#181818;stroke-width:1;"/><text fill="#000000" font-family="sans-serif" font-size="13" lengthAdjust="spacing" textLength="361.1245" x="1077" y="446.0669">obtenerPreguntas(asignatura, temas) : List&lt;Pregunta&gt;</text></g><!--link ExamenGenerator to ExamenRepository--><g class="link" data-entity-1="ExamenGenerator" data-entity-2="ExamenRepository" data-source-line="41" data-uid="lnk29" id="link_ExamenGenerator_ExamenRepository"><path d="M1535.97,403.15 C1498.35,422.11 1443,450 1443,450 C1443,450 1188.0302,475.4926 1055.0102,488.8026" fill="none" id="ExamenGenerator-to-ExamenRepository-1" style="stroke:#181818;stroke-width:1;"/><polygon fill="#181818" points="1049.04,489.4,1058.3935,492.4841,1054.0152,488.9022,1057.597,484.5238,1049.04,489.4" style="stroke:#181818;stroke-width:1;"/><text fill="#000000" font-family="sans-serif" font-size="13" lengthAdjust="spacing" textLength="261.0029" x="1474" y="446.0669">guardarExamenes(examenes) : boolean</text></g><!--link ExamenRepository to Asignatura--><g class="link" data-entity-1="ExamenRepository" data-entity-2="Asignatura" data-source-line="43" data-uid="lnk30" id="link_ExamenRepository_Asignatura"><path d="M952.17,516.2 C931.33,533.42 899.46,559.75 878.67,576.92" fill="none" id="ExamenRepository-Asignatura" style="stroke:#181818;stroke-width:1;"/></g><!--link ExamenRepository to Grado--><g class="link" data-entity-1="ExamenRepository" data-entity-2="Grado" data-source-line="44" data-uid="lnk31" id="link_ExamenRepository_Grado"><path d="M973,516.42 C973,533.57 973,559.58 973,576.69" fill="none" id="ExamenRepository-Grado" style="stroke:#181818;stroke-width:1;"/></g><!--link ExamenRepository to Alumno--><g class="link" data-entity-1="ExamenRepository" data-entity-2="Alumno" data-source-line="45" data-uid="lnk32" id="link_ExamenRepository_Alumno"><path d="M991.89,516.42 C1010.48,533.57 1038.68,559.58 1057.23,576.69" fill="none" id="ExamenRepository-Alumno" style="stroke:#181818;stroke-width:1;"/></g><!--link ExamenRepository to BateriaDePreguntas--><g class="link" data-entity-1="ExamenRepository" data-entity-2="BateriaDePreguntas" data-source-line="46" data-uid="lnk33" id="link_ExamenRepository_BateriaDePreguntas"><path d="M1018.88,516.09 C1065.06,533.3 1135.86,559.67 1182.06,576.88" fill="none" id="ExamenRepository-BateriaDePreguntas" style="stroke:#181818;stroke-width:1;"/></g><!--link ExamenRepository to Examen--><g class="link" data-entity-1="ExamenRepository" data-entity-2="Examen" data-source-line="47" data-uid="lnk34" id="link_ExamenRepository_Examen"><path d="M930.36,516.09 C886.11,533.83 817.52,561.32 774.77,578.46" fill="none" id="ExamenRepository-Examen" style="stroke:#181818;stroke-width:1;"/></g><!--link GenerarExamenesView to AsignarExamenes--><g class="link" data-entity-1="GenerarExamenesView" data-entity-2="AsignarExamenes" data-source-line="49" data-uid="lnk35" id="link_GenerarExamenesView_AsignarExamenes"><path d="M1528.65,177.03 C1590.75,190.49 1667,207 1667,207 C1667,207 1773.0792,233.5146 1848.9092,252.4746" fill="none" id="GenerarExamenesView-to-AsignarExamenes" style="stroke:#181818;stroke-width:1;stroke-dasharray:7,7;"/><polygon fill="#181818" points="1854.73,253.93,1846.969,247.8664,1849.8793,252.7172,1845.0285,255.6274,1854.73,253.93" style="stroke:#181818;stroke-width:1;"/><text fill="#000000" font-family="sans-serif" font-size="13" lengthAdjust="spacing" textLength="469.1616" x="1729" y="220.0669">&#171;include&#187; asignarExamenes(examenesGenerados) [generaci&#243;n exitosa]</text></g><!--link GenerarExamenesView to CancelarGeneracion--><g class="link" data-entity-1="GenerarExamenesView" data-entity-2="CancelarGeneracion" data-source-line="50" data-uid="lnk36" id="link_GenerarExamenesView_CancelarGeneracion"><path d="M1541.69,165.69 C1743.23,178.21 2207,207 2207,207 C2207,207 2252.7261,232.0105 2287.3861,250.9705" fill="none" id="GenerarExamenesView-to-CancelarGeneracion" style="stroke:#181818;stroke-width:1;stroke-dasharray:7,7;"/><polygon fill="#181818" points="2292.65,253.85,2286.6738,246.0215,2288.2634,251.4504,2282.8345,253.04,2292.65,253.85" style="stroke:#181818;stroke-width:1;"/><text fill="#000000" font-family="sans-serif" font-size="13" lengthAdjust="spacing" textLength="298.5811" x="2236" y="220.0669">&#171;include&#187; cancelarGeneracion() [cancelaci&#243;n]</text></g><!--SRC=[bLLDQzj04BtlhnZSYmDn3g49ZJ42ntQC8O7GG2ubXv4q5KkaNR6xQcDAVrL_GlzOLnzPsTBALNmmrioRzsRVZ5VwbOiS5MQGSa5cdnFaCjsN3umfYWoA92Nuj5flRfTNC9a_SMqeGrXpdKl1mvGcW1gQS1lr5YyrJmIQGY4iGqxAoAgu3JTHR_5AfYc6Kg7XKZGrQlE66GdI1pmkDe9bXIAY5DNMuXL6DbGHzSECvHYzOaAGL34dKi8ddTZqR0A_6DZFGGVNbpURknlO7aEVEVti8iEhCBx-0k-GbHH6sQv9TO5tbylLvqq3_4gvrDn8jJy9g_KjR03rZ2cFCPQdnGQIxI0705jbgOUAqo8JGybRDAGuhkbHKL88WvhzPgotTJ2R1JwBvz0R4UjjtVXYTAMx-8mnJmtCOalM7-4SP6XA-DhEGEy4ZpYcNKQOmt6QiJvJrMrtz8w-CbgtH-m9t5lh5XKg-31vFIdzA6kP7lS3vZNrEUo4eOHKC63IW4S_gYMiFPh6vNT96qgP4ef1CzpgMWAxBDzvr50ySC4p7zC8ehgJUvvnG-s9AwPpm6CZnZJPDzNrwbRxgR3FdAnrXujn3kMkMrLHP0vw9FaHYvkLRZsf5g961l_ftjqX8saS_lHQkKFr3-sOtp71IEgaG1KV_7Ef-U4PLLjckGwlCb-wliYyXVKrvajvBZ4VhBbYlUEyk0YwhxavB1PSH6aHKn007YVTWMkok1pIjwHvhVtz8u3UhAx6bq6r_hlmM33gvQTMeebM6Y__0000]--></g></svg>