<svg xmlns="http://www.w3.org/2000/svg" xmlns:xlink="http://www.w3.org/1999/xlink" contentStyleType="text/css" data-diagram-type="STATE" height="822px" preserveAspectRatio="none" style="width:551px;height:822px;background:#FFFFFF;" version="1.1" viewBox="0 0 551 822" width="551px" zoomAndPan="magnify"><defs/><g><g id="DOCENTES_ABIERTO"><rect fill="#F1F1F1" height="50" rx="12.5" ry="12.5" style="stroke:#181818;stroke-width:0.5;" width="165.6328" x="154.5" y="7"/><line style="stroke:#181818;stroke-width:0.5;" x1="154.5" x2="320.1328" y1="33.2969" y2="33.2969"/><text fill="#000000" font-family="sans-serif" font-size="14" lengthAdjust="spacing" textLength="145.6328" x="164.5" y="24.9951">DOCENTES_ABIERTO</text></g><g id="DOCENTES_ABIERTO2"><rect fill="#F1F1F1" height="50" rx="12.5" ry="12.5" style="stroke:#181818;stroke-width:0.5;" width="165.6328" x="56.5" y="766"/><line style="stroke:#181818;stroke-width:0.5;" x1="56.5" x2="222.1328" y1="792.2969" y2="792.2969"/><text fill="#000000" font-family="sans-serif" font-size="14" lengthAdjust="spacing" textLength="145.6328" x="66.5" y="783.9951">DOCENTES_ABIERTO</text></g><path d="M19.5,118 L455.5,118 A12.5,12.5 0 0 1 468,130.5 L468,144.2969 L7,144.2969 L7,130.5 A12.5,12.5 0 0 1 19.5,118" fill="#F1F1F1"/><rect fill="none" height="553.2969" rx="12.5" ry="12.5" style="stroke:#181818;stroke-width:0.5;" width="461" x="7" y="118"/><line style="stroke:#181818;stroke-width:0.5;" x1="7" x2="468" y1="144.2969" y2="144.2969"/><text fill="#000000" font-family="sans-serif" font-size="14" lengthAdjust="spacing" textLength="105.957" x="184.5215" y="135.9951">crearDocente()</text><g id="crearDocente.SolicitandoDatos"><rect fill="#F1F1F1" height="50" rx="12.5" ry="12.5" style="stroke:#181818;stroke-width:0.5;" width="50" x="19" y="246.2969"/><line style="stroke:#181818;stroke-width:0.5;" x1="19" x2="69" y1="272.5938" y2="272.5938"/><text fill="#000000" font-family="sans-serif" font-size="14" lengthAdjust="spacing" textLength="4.4502" x="41.7749" y="264.292">&#160;</text></g><g id="crearDocente.CreandoDocente"><rect fill="#F1F1F1" height="50" rx="12.5" ry="12.5" style="stroke:#181818;stroke-width:0.5;" width="50" x="19" y="503.2969"/><line style="stroke:#181818;stroke-width:0.5;" x1="19" x2="69" y1="529.5938" y2="529.5938"/><text fill="#000000" font-family="sans-serif" font-size="14" lengthAdjust="spacing" textLength="4.4502" x="41.7749" y="521.292">&#160;</text></g><ellipse cx="44" cy="165.2969" fill="#222222" rx="10" ry="10" style="stroke:#222222;stroke-width:1;"/><ellipse cx="44" cy="650.2969" fill="none" rx="11" ry="11" style="stroke:#222222;stroke-width:1;"/><ellipse cx="44" cy="650.2969" fill="#222222" rx="6" ry="6" style="stroke:#222222;stroke-width:1;"/><!--link *start*crearDocente to SolicitandoDatos--><g class="link" data-entity-1=".start.crearDocente" data-entity-2="SolicitandoDatos" data-source-line="13" data-uid="lnk4" id="link_.start.crearDocente_SolicitandoDatos"><path d="M44,175.5269 C44,191.2369 44,217.6569 44,240.1669" fill="none" id="*start*crearDocente-to-SolicitandoDatos" style="stroke:#008000;stroke-width:1;"/><polygon fill="#008000" points="44,246.1669,48,237.1669,44,241.1669,40,237.1669,44,246.1669" style="stroke:#008000;stroke-width:1;"/><path d="M49,198.2969 L49,223.2969 L459,223.2969 L459,208.2969 L449,198.2969 L49,198.2969" fill="#FEFFDD" style="stroke:#181818;stroke-width:0.5;"/><path d="M449,198.2969 L449,208.2969 L459,208.2969 L449,198.2969" fill="#FEFFDD" style="stroke:#181818;stroke-width:0.5;"/><text fill="#000000" font-family="sans-serif" font-size="13" font-weight="bold" lengthAdjust="spacing" textLength="200.5542" x="55" y="215.3638">Administrador institucional</text><text fill="#000000" font-family="sans-serif" font-size="13" lengthAdjust="spacing" textLength="184.7803" x="259.6865" y="215.3638">solicita crear docente nuevo</text></g><!--link SolicitandoDatos to CreandoDocente--><g class="link" data-entity-1="SolicitandoDatos" data-entity-2="CreandoDocente" data-source-line="18" data-uid="lnk5" id="link_SolicitandoDatos_CreandoDocente"><path d="M44,296.7469 C44,345.6169 44,448.7969 44,497.2969" fill="none" id="SolicitandoDatos-to-CreandoDocente" style="stroke:#008000;stroke-width:1;"/><polygon fill="#008000" points="44,503.2969,48,494.2969,44,498.2969,40,494.2969,44,503.2969" style="stroke:#008000;stroke-width:1;"/><path d="M49,319.2969 L49,480.2969 L450,480.2969 L450,329.2969 L440,319.2969 L49,319.2969" fill="#FEFFDD" style="stroke:#181818;stroke-width:0.5;"/><path d="M440,319.2969 L440,329.2969 L450,329.2969 L440,319.2969" fill="#FEFFDD" style="stroke:#181818;stroke-width:0.5;"/><text fill="#000000" font-family="sans-serif" font-size="13" font-weight="bold" lengthAdjust="spacing" textLength="58.9063" x="55" y="336.3638">Sistema</text><text fill="#000000" font-family="sans-serif" font-size="13" lengthAdjust="spacing" textLength="317.1162" x="118.0386" y="336.3638">presenta solicitud de datos m&#237;nimos del docente</text><text fill="#000000" font-family="sans-serif" font-size="13" lengthAdjust="spacing" textLength="147.6211" x="55" y="351.4966">&#8226; Nombre (obligatorio)</text><text fill="#000000" font-family="sans-serif" font-size="13" lengthAdjust="spacing" textLength="154.6416" x="55" y="366.6294">&#8226; Apellidos (obligatorio)</text><text fill="#000000" font-family="sans-serif" font-size="13" lengthAdjust="spacing" textLength="119.2534" x="55" y="381.7622">&#8226; DNI (obligatorio)</text><text fill="#000000" font-family="sans-serif" font-size="13" lengthAdjust="spacing" textLength="220.2637" x="55" y="396.895">&#8226; Nombre de usuario (obligatorio)</text><text fill="#000000" font-family="sans-serif" font-size="13" lengthAdjust="spacing" textLength="131.752" x="55" y="412.0278">&#8226; Email (obligatorio)</text><text fill="#000000" font-family="sans-serif" font-size="13" lengthAdjust="spacing" textLength="157.2188" x="55" y="427.1606">&#8226; Password (obligatorio)</text><text fill="#000000" font-family="sans-serif" font-size="13" lengthAdjust="spacing" textLength="4.1323" x="55" y="442.2935">&#160;</text><text fill="#000000" font-family="sans-serif" font-size="13" lengthAdjust="spacing" textLength="212.3545" x="55" y="457.4263">&#8226; Permite solicitar crear docente</text><text fill="#000000" font-family="sans-serif" font-size="13" lengthAdjust="spacing" textLength="236.6978" x="55" y="472.5591">&#8226; Permite solicitar cancelar creaci&#243;n</text></g><!--link CreandoDocente to *end*crearDocente--><g class="link" data-entity-1="CreandoDocente" data-entity-2=".end.crearDocente" data-source-line="32" data-uid="lnk7" id="link_CreandoDocente_.end.crearDocente"><path d="M44,553.5769 C44,579.8769 44,614.5669 44,633.2769" fill="none" id="CreandoDocente-to-*end*crearDocente" style="stroke:#008000;stroke-width:1;"/><polygon fill="#008000" points="44,639.2769,48,630.2769,44,634.2769,40,630.2769,44,639.2769" style="stroke:#008000;stroke-width:1;"/><path d="M49,576.2969 L49,616.2969 L452,616.2969 L452,586.2969 L442,576.2969 L49,576.2969" fill="#FEFFDD" style="stroke:#181818;stroke-width:0.5;"/><path d="M442,576.2969 L442,586.2969 L452,586.2969 L442,576.2969" fill="#FEFFDD" style="stroke:#181818;stroke-width:0.5;"/><text fill="#000000" font-family="sans-serif" font-size="13" font-weight="bold" lengthAdjust="spacing" textLength="200.5542" x="55" y="593.3638">Administrador institucional</text><text fill="#000000" font-family="sans-serif" font-size="13" lengthAdjust="spacing" textLength="177.8423" x="259.6865" y="593.3638">proporciona datos m&#237;nimos</text><text fill="#000000" font-family="sans-serif" font-size="13" font-weight="bold" lengthAdjust="spacing" textLength="58.9063" x="55" y="608.4966">Sistema</text><text fill="#000000" font-family="sans-serif" font-size="13" lengthAdjust="spacing" textLength="227.2271" x="118.0386" y="608.4966">crea docente y transfiere a edici&#243;n</text></g><g id="DOCENTE_ABIERTO"><rect fill="#F1F1F1" height="50" rx="12.5" ry="12.5" style="stroke:#181818;stroke-width:0.5;" width="156.7461" x="258" y="766"/><line style="stroke:#181818;stroke-width:0.5;" x1="258" x2="414.7461" y1="792.2969" y2="792.2969"/><text fill="#000000" font-family="sans-serif" font-size="14" lengthAdjust="spacing" textLength="136.7461" x="268" y="783.9951">DOCENTE_ABIERTO</text></g><!--link DOCENTES_ABIERTO to crearDocente--><g class="link" data-entity-1="DOCENTES_ABIERTO" data-entity-2="crearDocente" data-source-line="6" data-uid="lnk2" id="link_DOCENTES_ABIERTO_crearDocente"><path d="M237.5,57.21 C237.5,72.29 237.5,87.44 237.5,111.88" fill="none" id="DOCENTES_ABIERTO-to-crearDocente" style="stroke:#008000;stroke-width:1;"/><polygon fill="#008000" points="237.5,117.88,241.5,108.88,237.5,112.88,233.5,108.88,237.5,117.88" style="stroke:#008000;stroke-width:1;"/></g><!--link crearDocente to DOCENTE_ABIERTO--><g class="link" data-entity-1="crearDocente" data-entity-2="DOCENTE_ABIERTO" data-source-line="39" data-uid="lnk9" id="link_crearDocente_DOCENTE_ABIERTO"><path d="M306.66,671.1 C316.45,710.1 323.5497,738.4004 328.9597,759.9604" fill="none" id="crearDocente-to-DOCENTE_ABIERTO" style="stroke:#008000;stroke-width:1;"/><polygon fill="#008000" points="330.42,765.78,332.1093,756.0771,329.2031,760.9303,324.3498,758.0242,330.42,765.78" style="stroke:#008000;stroke-width:1;"/><path d="M326.5,706 L326.5,731 L544.5,731 L544.5,716 L534.5,706 L326.5,706" fill="#FEFFDD" style="stroke:#181818;stroke-width:0.5;"/><path d="M534.5,706 L534.5,716 L544.5,716 L534.5,706" fill="#FEFFDD" style="stroke:#181818;stroke-width:0.5;"/><text fill="#000000" font-family="sans-serif" font-size="13" lengthAdjust="spacing" textLength="197.1519" x="332.5" y="723.0669">editarDocente(docenteNuevo)</text></g><!--link crearDocente to DOCENTES_ABIERTO2--><g class="link" data-entity-1="crearDocente" data-entity-2="DOCENTES_ABIERTO2" data-source-line="44" data-uid="lnk10" id="link_crearDocente_DOCENTES_ABIERTO2"><path d="M157.2,671.15 C151.83,689.58 148.5,701 148.5,701 C148.5,701 145.2226,733.3603 142.5626,759.7103" fill="none" id="crearDocente-to-DOCENTES_ABIERTO2" style="stroke:#0000FF;stroke-width:1;"/><polygon fill="#0000FF" points="141.96,765.68,146.8437,757.1273,142.4622,760.7053,138.8842,756.3238,141.96,765.68" style="stroke:#0000FF;stroke-width:1;"/><path d="M153.5,706 L153.5,731 L288.5,731 L288.5,716 L278.5,706 L153.5,706" fill="#FEFFDD" style="stroke:#181818;stroke-width:0.5;"/><path d="M278.5,706 L278.5,716 L288.5,716 L278.5,706" fill="#FEFFDD" style="stroke:#181818;stroke-width:0.5;"/><text fill="#000000" font-family="sans-serif" font-size="13" lengthAdjust="spacing" textLength="114.9624" x="159.5" y="723.0669">cancelar creaci&#243;n</text></g><!--SRC=[dPJ1IiD048Rl-nH3lRH24JoNGhKzUAbYlOd89ZlAu6Otx6wK8eBFujsJZ-2R-2HEqYHDqiI32OHavjzl_ztPYNyYaqed4z1aC6nJXDJgRVuXX0yo82mlprVhczNcVd5siRg-kHm8duBqCEf6Hq9qGp2zFNfqYEPkEeVOeNHB6wC9zOJDM05j1iQJ4RmA0Npjr2E-MRIncc8AqYYxbC7wGyKvK_9iDLakk3s-QzdfKg1G6SiKQ_8jUYe2isY-K0aPyi59PHsGyO525fCrKizEeZduahHR3QXoEIR3PrimqAWTc2zHFmuCDDrrLZ1aRSEsC965ZTIXPx6i_6GA588gqCdtfw64NnJgoc31-7d_WBLD8eSmjf6cHvOxifCwkKXHQr8yj3-_N5yCP4eiUyXy9Zare5ibalH0xafw_sATwadlDUWIugsfok3QTVXB9qsCkXmGq_UNQPLhFqsx6gr2yR7wzy59dKsjAmATElNLDpTP7wujCDNu1qBUOWcegCV_cn2j1clwBbkrxlIMVyQ5VHkMSwxpypmHDVs07UaC6-Zzxw8DxzdrYlaB]--></g></svg>