<svg xmlns="http://www.w3.org/2000/svg" xmlns:xlink="http://www.w3.org/1999/xlink" contentStyleType="text/css" data-diagram-type="DESCRIPTION" height="423px" preserveAspectRatio="none" style="width:2002px;height:423px;background:#FFFFFF;" version="1.1" viewBox="0 0 2002 423" width="2002px" zoomAndPan="magnify"><defs/><g><!--cluster verAlumnos--><g class="cluster" data-entity="verAlumnos" data-source-line="4" data-uid="ent0003" id="cluster_verAlumnos"><path d="M184,6 L291.4287,6 A3.75,3.75 0 0 1 293.9287,8.5 L300.9287,28.2969 L771,28.2969 A2.5,2.5 0 0 1 773.5,30.7969 L773.5,413.5 A2.5,2.5 0 0 1 771,416 L184,416 A2.5,2.5 0 0 1 181.5,413.5 L181.5,8.5 A2.5,2.5 0 0 1 184,6" fill="none" style="stroke:#000000;stroke-width:1.5;"/><line style="stroke:#000000;stroke-width:1.5;" x1="181.5" x2="300.9287" y1="28.2969" y2="28.2969"/><text fill="#000000" font-family="sans-serif" font-size="14" font-weight="bold" lengthAdjust="spacing" textLength="106.4287" x="185.5" y="20.9951">verAlumnos()</text></g><!--entity VerAlumnosView--><g class="entity" data-entity="VerAlumnosView" data-source-line="5" data-uid="ent0004" id="entity_VerAlumnosView"><rect fill="#629EF9" height="36.2969" rx="2.5" ry="2.5" style="stroke:#181818;stroke-width:0.5;" width="138.1865" x="619.5" y="41"/><text fill="#000000" font-family="sans-serif" font-size="14" lengthAdjust="spacing" textLength="118.1865" x="629.5" y="63.9951">VerAlumnosView</text></g><!--entity AlumnosController--><g class="entity" data-entity="AlumnosController" data-source-line="6" data-uid="ent0005" id="entity_AlumnosController"><rect fill="#B5BD68" height="36.2969" rx="2.5" ry="2.5" style="stroke:#181818;stroke-width:0.5;" width="149.8828" x="301.5" y="154"/><text fill="#000000" font-family="sans-serif" font-size="14" lengthAdjust="spacing" textLength="129.8828" x="311.5" y="176.9951">AlumnosController</text></g><!--entity AlumnoRepository--><g class="entity" data-entity="AlumnoRepository" data-source-line="7" data-uid="ent0006" id="entity_AlumnoRepository"><rect fill="#F2AC4E" height="36.2969" rx="2.5" ry="2.5" style="stroke:#181818;stroke-width:0.5;" width="148.4883" x="301.5" y="267"/><text fill="#000000" font-family="sans-serif" font-size="14" lengthAdjust="spacing" textLength="128.4883" x="311.5" y="289.9951">AlumnoRepository</text></g><!--entity Alumno--><g class="entity" data-entity="Alumno" data-source-line="8" data-uid="ent0007" id="entity_Alumno"><rect fill="#F2AC4E" height="36.2969" rx="2.5" ry="2.5" style="stroke:#181818;stroke-width:0.5;" width="73.416" x="339" y="364"/><text fill="#000000" font-family="sans-serif" font-size="14" lengthAdjust="spacing" textLength="53.416" x="349" y="386.9951">Alumno</text></g><!--entity SistemaDisponible--><g class="entity" data-entity="SistemaDisponible" data-source-line="3" data-uid="ent0002" id="entity_SistemaDisponible"><rect fill="#CDEBA5" height="36.2969" rx="2.5" ry="2.5" style="stroke:#181818;stroke-width:0.5;" width="159.125" x="7" y="41"/><text fill="#000000" font-family="sans-serif" font-size="14" lengthAdjust="spacing" textLength="139.125" x="17" y="63.9951">:Sistema Disponible</text></g><!--entity SistemaDisponibleSalida--><g class="entity" data-entity="SistemaDisponibleSalida" data-source-line="11" data-uid="ent0008" id="entity_SistemaDisponibleSalida"><rect fill="#CDEBA5" height="36.2969" rx="2.5" ry="2.5" style="stroke:#181818;stroke-width:0.5;" width="159.125" x="789" y="154"/><text fill="#000000" font-family="sans-serif" font-size="14" lengthAdjust="spacing" textLength="139.125" x="799" y="176.9951">:Sistema Disponible</text></g><!--entity AlumnoAbierto--><g class="entity" data-entity="AlumnoAbierto" data-source-line="12" data-uid="ent0009" id="entity_AlumnoAbierto"><rect fill="#CDEBA5" height="36.2969" rx="2.5" ry="2.5" style="stroke:#181818;stroke-width:0.5;" width="133.3604" x="881" y="41"/><text fill="#000000" font-family="sans-serif" font-size="14" lengthAdjust="spacing" textLength="113.3604" x="891" y="63.9951">:Alumno Abierto</text></g><!--entity CrearAlumno--><g class="entity" data-entity="CrearAlumno" data-source-line="13" data-uid="ent0010" id="entity_CrearAlumno"><rect fill="#CDEBA5" height="36.2969" rx="2.5" ry="2.5" style="stroke:#181818;stroke-width:0.5;" width="214.3662" x="982.5" y="154"/><text fill="#000000" font-family="sans-serif" font-size="14" lengthAdjust="spacing" textLength="194.3662" x="992.5" y="176.9951">:Collaboration CrearAlumno</text></g><!--entity EditarAlumno--><g class="entity" data-entity="EditarAlumno" data-source-line="14" data-uid="ent0011" id="entity_EditarAlumno"><rect fill="#CDEBA5" height="36.2969" rx="2.5" ry="2.5" style="stroke:#181818;stroke-width:0.5;" width="217.333" x="1232" y="154"/><text fill="#000000" font-family="sans-serif" font-size="14" lengthAdjust="spacing" textLength="197.333" x="1242" y="176.9951">:Collaboration EditarAlumno</text></g><!--entity EliminarAlumno--><g class="entity" data-entity="EliminarAlumno" data-source-line="15" data-uid="ent0012" id="entity_EliminarAlumno"><rect fill="#CDEBA5" height="36.2969" rx="2.5" ry="2.5" style="stroke:#181818;stroke-width:0.5;" width="233.2471" x="1484" y="154"/><text fill="#000000" font-family="sans-serif" font-size="14" lengthAdjust="spacing" textLength="213.2471" x="1494" y="176.9951">:Collaboration EliminarAlumno</text></g><!--entity ImportarAlumnos--><g class="entity" data-entity="ImportarAlumnos" data-source-line="16" data-uid="ent0013" id="entity_ImportarAlumnos"><rect fill="#CDEBA5" height="36.2969" rx="2.5" ry="2.5" style="stroke:#181818;stroke-width:0.5;" width="243.9795" x="1752.5" y="154"/><text fill="#000000" font-family="sans-serif" font-size="14" lengthAdjust="spacing" textLength="223.9795" x="1762.5" y="176.9951">:Collaboration ImportarAlumnos</text></g><!--link SistemaDisponible to VerAlumnosView--><g class="link" data-entity-1="SistemaDisponible" data-entity-2="VerAlumnosView" data-source-line="18" data-uid="lnk14" id="link_SistemaDisponible_VerAlumnosView"><path d="M166.13,59 C285.01,59 500.9,59 613.35,59" fill="none" id="SistemaDisponible-to-VerAlumnosView" style="stroke:#181818;stroke-width:1;"/><polygon fill="#181818" points="619.35,59,610.35,55,614.35,59,610.35,63,619.35,59" style="stroke:#181818;stroke-width:1;"/><text fill="#000000" font-family="sans-serif" font-size="13" lengthAdjust="spacing" textLength="87.5532" x="349.25" y="52.0669">verAlumnos()</text></g><!--link AlumnoAbierto to VerAlumnosView--><g class="link" data-entity-1="AlumnoAbierto" data-entity-2="VerAlumnosView" data-source-line="19" data-uid="lnk15" id="link_AlumnoAbierto_VerAlumnosView"><path d="M880.86,59 C843.04,59 801.78,59 763.57,59" fill="none" id="AlumnoAbierto-to-VerAlumnosView" style="stroke:#181818;stroke-width:1;"/><polygon fill="#181818" points="757.57,59,766.57,63,762.57,59,766.57,55,757.57,59" style="stroke:#181818;stroke-width:1;"/><text fill="#000000" font-family="sans-serif" font-size="13" lengthAdjust="spacing" textLength="87.5532" x="775.75" y="52.0669">verAlumnos()</text></g><!--link VerAlumnosView to AlumnosController--><g class="link" data-entity-1="VerAlumnosView" data-entity-2="AlumnosController" data-source-line="21" data-uid="lnk16" id="link_VerAlumnosView_AlumnosController"><path d="M619.26,67.45 C496.03,80.7 251.5,107 251.5,107 C251.5,107 251.5,124 251.5,124 C251.5,124 289.664,138.3481 325.404,151.7881" fill="none" id="VerAlumnosView-to-AlumnosController" style="stroke:#181818;stroke-width:1;"/><polygon fill="#181818" points="331.02,153.9,324.0039,146.9881,326.34,152.1401,321.188,154.4762,331.02,153.9" style="stroke:#181818;stroke-width:1;"/><text fill="#000000" font-family="sans-serif" font-size="13" lengthAdjust="spacing" textLength="205.6768" x="252.5" y="120.0669">listarAlumnos() : List&lt;Alumno&gt;</text></g><!--link VerAlumnosView to AlumnosController--><g class="link" data-entity-1="VerAlumnosView" data-entity-2="AlumnosController" data-source-line="27" data-uid="lnk19" id="link_VerAlumnosView_AlumnosController"><path d="M620.72,77.03 C567.21,90.49 501.5,107 501.5,107 C501.5,107 452.3603,132.1549 415.3403,151.1149" fill="none" id="VerAlumnosView-to-AlumnosController-1" style="stroke:#181818;stroke-width:1;"/><polygon fill="#181818" points="410,153.85,419.8339,153.3076,414.4503,151.5708,416.1871,146.1871,410,153.85" style="stroke:#181818;stroke-width:1;"/><text fill="#000000" font-family="sans-serif" font-size="13" lengthAdjust="spacing" textLength="254.9346" x="502.5" y="120.0669">filtrarAlumnos(criterio) : List&lt;Alumno&gt;</text></g><!--link AlumnosController to AlumnoRepository--><g class="link" data-entity-1="AlumnosController" data-entity-2="AlumnoRepository" data-source-line="23" data-uid="lnk17" id="link_AlumnosController_AlumnoRepository"><path d="M323.01,190.1 C280.98,203.54 229.5,220 229.5,220 C229.5,220 229.5,237 229.5,237 C229.5,237 274.9186,251.6214 316.6686,265.0614" fill="none" id="AlumnosController-to-AlumnoRepository" style="stroke:#181818;stroke-width:1;"/><polygon fill="#181818" points="322.38,266.9,315.0387,260.3346,317.6205,265.3679,312.5872,267.9497,322.38,266.9" style="stroke:#181818;stroke-width:1;"/><text fill="#000000" font-family="sans-serif" font-size="13" lengthAdjust="spacing" textLength="206.6543" x="230.5" y="233.0669">obtenerTodos() : List&lt;Alumno&gt;</text></g><!--link AlumnosController to AlumnoRepository--><g class="link" data-entity-1="AlumnosController" data-entity-2="AlumnoRepository" data-source-line="29" data-uid="lnk20" id="link_AlumnosController_AlumnoRepository"><path d="M400.33,190.23 C418.89,203.65 441.5,220 441.5,220 C441.5,220 441.5,237 441.5,237 C441.5,237 423.427,249.869 404.587,263.289" fill="none" id="AlumnosController-to-AlumnoRepository-1" style="stroke:#181818;stroke-width:1;"/><polygon fill="#181818" points="399.7,266.77,409.3511,264.8064,403.7725,263.8691,404.7097,258.2905,399.7,266.77" style="stroke:#181818;stroke-width:1;"/><text fill="#000000" font-family="sans-serif" font-size="13" lengthAdjust="spacing" textLength="275.9072" x="442.5" y="233.0669">buscarPorCriterio(criterio) : List&lt;Alumno&gt;</text></g><!--link AlumnoRepository to Alumno--><g class="link" data-entity-1="AlumnoRepository" data-entity-2="Alumno" data-source-line="25" data-uid="lnk18" id="link_AlumnoRepository_Alumno"><path d="M375.5,303.42 C375.5,320.57 375.5,346.58 375.5,363.69" fill="none" id="AlumnoRepository-Alumno" style="stroke:#181818;stroke-width:1;"/></g><!--link VerAlumnosView to SistemaDisponibleSalida--><g class="link" data-entity-1="VerAlumnosView" data-entity-2="SistemaDisponibleSalida" data-source-line="31" data-uid="lnk21" id="link_VerAlumnosView_SistemaDisponibleSalida"><path d="M716.73,77.23 C738.71,90.65 765.5,107 765.5,107 C765.5,107 805.2939,131.7231 835.8039,150.6831" fill="none" id="VerAlumnosView-to-SistemaDisponibleSalida" style="stroke:#181818;stroke-width:1;stroke-dasharray:7,7;"/><polygon fill="#181818" points="840.9,153.85,835.3671,145.7022,836.6532,151.2109,831.1445,152.497,840.9,153.85" style="stroke:#181818;stroke-width:1;"/><text fill="#000000" font-family="sans-serif" font-size="13" lengthAdjust="spacing" textLength="125.9248" x="790.5" y="120.0669">completarGestion()</text></g><!--link VerAlumnosView to CrearAlumno--><g class="link" data-entity-1="VerAlumnosView" data-entity-2="CrearAlumno" data-source-line="32" data-uid="lnk22" id="link_VerAlumnosView_CrearAlumno"><path d="M757.71,73.78 C827.35,87.65 924.5,107 924.5,107 C924.5,107 990.8162,132.7198 1039.6862,151.6798" fill="none" id="VerAlumnosView-to-CrearAlumno" style="stroke:#181818;stroke-width:1;stroke-dasharray:7,7;"/><polygon fill="#181818" points="1045.28,153.85,1038.3362,146.8655,1040.6185,152.0415,1035.4425,154.3239,1045.28,153.85" style="stroke:#181818;stroke-width:1;"/><text fill="#000000" font-family="sans-serif" font-size="13" lengthAdjust="spacing" textLength="93.5454" x="964.5" y="120.0669">crearAlumno()</text></g><!--link VerAlumnosView to EditarAlumno--><g class="link" data-entity-1="VerAlumnosView" data-entity-2="EditarAlumno" data-source-line="33" data-uid="lnk23" id="link_VerAlumnosView_EditarAlumno"><path d="M757.83,68.62 C866.96,82.19 1066.5,107 1066.5,107 C1066.5,107 1180.4173,133.6052 1261.5873,152.5652" fill="none" id="VerAlumnosView-to-EditarAlumno" style="stroke:#181818;stroke-width:1;stroke-dasharray:7,7;"/><polygon fill="#181818" points="1267.43,153.93,1259.5758,147.9877,1262.5611,152.7927,1257.7561,155.778,1267.43,153.93" style="stroke:#181818;stroke-width:1;"/><text fill="#000000" font-family="sans-serif" font-size="13" lengthAdjust="spacing" textLength="98.0142" x="1133.5" y="120.0669">editarAlumno()</text></g><!--link VerAlumnosView to EliminarAlumno--><g class="link" data-entity-1="VerAlumnosView" data-entity-2="EliminarAlumno" data-source-line="34" data-uid="lnk24" id="link_VerAlumnosView_EliminarAlumno"><path d="M757.66,66.72 C806.58,71.47 863.5,77 863.5,77 C863.5,77 1240.5,107 1240.5,107 C1240.5,107 1391.9426,133.9198 1498.5926,152.8798" fill="none" id="VerAlumnosView-to-EliminarAlumno" style="stroke:#181818;stroke-width:1;stroke-dasharray:7,7;"/><polygon fill="#181818" points="1504.5,153.93,1496.3391,148.4164,1499.5772,153.0548,1494.9388,156.293,1504.5,153.93" style="stroke:#181818;stroke-width:1;"/><text fill="#000000" font-family="sans-serif" font-size="13" lengthAdjust="spacing" textLength="112.7915" x="1327.5" y="120.0669">eliminarAlumno()</text></g><!--link VerAlumnosView to ImportarAlumnos--><g class="link" data-entity-1="VerAlumnosView" data-entity-2="ImportarAlumnos" data-source-line="35" data-uid="lnk25" id="link_VerAlumnosView_ImportarAlumnos"><path d="M757.66,66.72 C806.58,71.47 863.5,77 863.5,77 C863.5,77 1448.5,107 1448.5,107 C1448.5,107 1629.0466,134.1286 1755.2466,153.0886" fill="none" id="VerAlumnosView-to-ImportarAlumnos" style="stroke:#181818;stroke-width:1;stroke-dasharray:7,7;"/><polygon fill="#181818" points="1761.18,153.98,1752.8742,148.6873,1756.2355,153.2371,1751.6856,156.5985,1761.18,153.98" style="stroke:#181818;stroke-width:1;"/><text fill="#000000" font-family="sans-serif" font-size="13" lengthAdjust="spacing" textLength="122.751" x="1551.5" y="120.0669">importarAlumnos()</text></g><!--SRC=[fLDDJy904BtlhvZW1Gvm84AaCIHOm9XuC6AuRzkHJDZkDhEBXXZ_kmjK-a4XH7kRj- -zcPs-jMlIcMIPWYADRfiXP4PjTuKGZB6JUgKGRiBfx64oW5Qm8EimbJ0bcnbDaS8MI0ivNA0Ya_5QhX0-a2TgasfZTxnMKROxBVWIuBzIds5_D9kFO7baBGa_wwHe42N3EyWPeT6EZLB8TTwyFmblPpdl5JDZoHdUNgI9x__TUo4L9RBHuj009X4XExEN7w0SQHI5_cOoCYmT6GqXeymtizUNwYlKiuHSHLu6hj4hIabN7IhG5HvFQMRusDJkJMgO42TRXIvtnxLK153EagYiyWg-g9v2D_6AaqW5_btOOhHs1m9uziZz0HWBSIA1xj6eo5m09dAeaTzCSi6c47YNtqIUJDeyw3ifnyMaCPD39lFtYQEDZIM_60vpgmkUjH5xlV6vfn50RD9CeL_g8zfT9lpFQ92NekqbHT7CBYSv02nLP_YLt7f5fMxMr68Q05M1TkS7]--></g></svg>