<svg xmlns="http://www.w3.org/2000/svg" xmlns:xlink="http://www.w3.org/1999/xlink" contentStyleType="text/css" data-diagram-type="DESCRIPTION" height="620px" preserveAspectRatio="none" style="width:1132px;height:620px;background:#FFFFFF;" version="1.1" viewBox="0 0 1132 620" width="1132px" zoomAndPan="magnify"><defs/><g><!--cluster crearPregunta--><g class="cluster" data-entity="crearPregunta" data-source-line="7" data-uid="ent0005" id="cluster_crearPregunta"><path d="M8.5,106 L136.1016,106 A3.75,3.75 0 0 1 138.6016,108.5 L145.6016,128.2969 L845.5,128.2969 A2.5,2.5 0 0 1 848,130.7969 L848,610.5 A2.5,2.5 0 0 1 845.5,613 L8.5,613 A2.5,2.5 0 0 1 6,610.5 L6,108.5 A2.5,2.5 0 0 1 8.5,106" fill="none" style="stroke:#000000;stroke-width:1.5;"/><line style="stroke:#000000;stroke-width:1.5;" x1="6" x2="145.6016" y1="128.2969" y2="128.2969"/><text fill="#000000" font-family="sans-serif" font-size="14" font-weight="bold" lengthAdjust="spacing" textLength="126.6016" x="10" y="120.9951">crearPregunta()</text></g><!--entity CrearPreguntaView--><g class="entity" data-entity="CrearPreguntaView" data-source-line="8" data-uid="ent0006" id="entity_CrearPreguntaView"><rect fill="#629EF9" height="36.2969" rx="2.5" ry="2.5" style="stroke:#181818;stroke-width:0.5;" width="155.5225" x="488" y="141"/><text fill="#000000" font-family="sans-serif" font-size="14" lengthAdjust="spacing" textLength="135.5225" x="498" y="163.9951">CrearPreguntaView</text></g><!--entity PreguntasController--><g class="entity" data-entity="PreguntasController" data-source-line="9" data-uid="ent0007" id="entity_PreguntasController"><rect fill="#B5BD68" height="36.2969" rx="2.5" ry="2.5" style="stroke:#181818;stroke-width:0.5;" width="159.9795" x="123" y="254"/><text fill="#000000" font-family="sans-serif" font-size="14" lengthAdjust="spacing" textLength="139.9795" x="133" y="276.9951">PreguntasController</text></g><!--entity PreguntaRepository--><g class="entity" data-entity="PreguntaRepository" data-source-line="10" data-uid="ent0008" id="entity_PreguntaRepository"><rect fill="#F2AC4E" height="36.2969" rx="2.5" ry="2.5" style="stroke:#181818;stroke-width:0.5;" width="158.585" x="133.5" y="367"/><text fill="#000000" font-family="sans-serif" font-size="14" lengthAdjust="spacing" textLength="138.585" x="143.5" y="389.9951">PreguntaRepository</text></g><!--entity Pregunta--><g class="entity" data-entity="Pregunta" data-source-line="11" data-uid="ent0009" id="entity_Pregunta"><rect fill="#F2AC4E" height="36.2969" rx="2.5" ry="2.5" style="stroke:#181818;stroke-width:0.5;" width="83.5127" x="171" y="464"/><text fill="#000000" font-family="sans-serif" font-size="14" lengthAdjust="spacing" textLength="63.5127" x="181" y="486.9951">Pregunta</text></g><!--entity Asignatura--><g class="entity" data-entity="Asignatura" data-source-line="12" data-uid="ent0010" id="entity_Asignatura"><rect fill="#F2AC4E" height="36.2969" rx="2.5" ry="2.5" style="stroke:#181818;stroke-width:0.5;" width="95.7969" x="165" y="561"/><text fill="#000000" font-family="sans-serif" font-size="14" lengthAdjust="spacing" textLength="75.7969" x="175" y="583.9951">Asignatura</text></g><!--entity PreguntasAbierto--><g class="entity" data-entity="PreguntasAbierto" data-source-line="3" data-uid="ent0002" id="entity_PreguntasAbierto"><rect fill="#CDEBA5" height="36.2969" rx="2.5" ry="2.5" style="stroke:#181818;stroke-width:0.5;" width="178.7715" x="339.5" y="7"/><text fill="#000000" font-family="sans-serif" font-size="14" lengthAdjust="spacing" textLength="158.7715" x="349.5" y="29.9951">:PREGUNTAS_ABIERTO</text></g><!--entity PreguntasContextualesAbierto--><g class="entity" data-entity="PreguntasContextualesAbierto" data-source-line="4" data-uid="ent0003" id="entity_PreguntasContextualesAbierto"><rect fill="#CDEBA5" height="36.2969" rx="2.5" ry="2.5" style="stroke:#181818;stroke-width:0.5;" width="297.9355" x="554" y="7"/><text fill="#000000" font-family="sans-serif" font-size="14" lengthAdjust="spacing" textLength="277.9355" x="564" y="29.9951">:PREGUNTAS_CONTEXTUALES_ABIERTO</text></g><!--entity EditarPregunta--><g class="entity" data-entity="EditarPregunta" data-source-line="5" data-uid="ent0004" id="entity_EditarPregunta"><rect fill="#CDEBA5" height="36.2969" rx="2.5" ry="2.5" style="stroke:#181818;stroke-width:0.5;" width="227.4297" x="864.5" y="254"/><text fill="#000000" font-family="sans-serif" font-size="14" lengthAdjust="spacing" textLength="207.4297" x="874.5" y="276.9951">:Collaboration EditarPregunta</text></g><!--link PreguntasAbierto to CrearPreguntaView--><g class="link" data-entity-1="PreguntasAbierto" data-entity-2="CrearPreguntaView" data-source-line="15" data-uid="lnk11" id="link_PreguntasAbierto_CrearPreguntaView"><path d="M446.91,43.26 C473.17,68.55 517.5091,111.2771 543.7691,136.5771" fill="none" id="PreguntasAbierto-to-CrearPreguntaView" style="stroke:#181818;stroke-width:1;"/><polygon fill="#181818" points="548.09,140.74,544.384,131.615,544.4893,137.2709,538.8334,137.3762,548.09,140.74" style="stroke:#181818;stroke-width:1;"/><text fill="#000000" font-family="sans-serif" font-size="13" lengthAdjust="spacing" textLength="102.9209" x="494" y="86.0669">crearPregunta()</text></g><!--link PreguntasContextualesAbierto to CrearPreguntaView--><g class="link" data-entity-1="PreguntasContextualesAbierto" data-entity-2="CrearPreguntaView" data-source-line="16" data-uid="lnk12" id="link_PreguntasContextualesAbierto_CrearPreguntaView"><path d="M685.09,43.26 C658.83,68.55 614.4909,111.2771 588.2309,136.5771" fill="none" id="PreguntasContextualesAbierto-to-CrearPreguntaView" style="stroke:#181818;stroke-width:1;"/><polygon fill="#181818" points="583.91,140.74,593.1666,137.3762,587.5107,137.2709,587.616,131.615,583.91,140.74" style="stroke:#181818;stroke-width:1;"/><text fill="#000000" font-family="sans-serif" font-size="13" lengthAdjust="spacing" textLength="184.4629" x="651" y="86.0669">crearPregunta(asignaturaId)</text></g><!--link CrearPreguntaView to PreguntasController--><g class="link" data-entity-1="CrearPreguntaView" data-entity-2="PreguntasController" data-source-line="18" data-uid="lnk13" id="link_CrearPreguntaView_PreguntasController"><path d="M487.96,167.16 C344.63,180.32 54,207 54,207 C54,207 54,224 54,224 C54,224 100.4579,238.6551 143.0679,252.0951" fill="none" id="CrearPreguntaView-to-PreguntasController" style="stroke:#181818;stroke-width:1;"/><polygon fill="#181818" points="148.79,253.9,141.4101,247.378,144.0216,252.3959,139.0036,255.0074,148.79,253.9" style="stroke:#181818;stroke-width:1;"/><text fill="#000000" font-family="sans-serif" font-size="13" lengthAdjust="spacing" textLength="467.0669" x="55" y="220.0669">validarDatosMinimos(asignatura, enunciado, tema, dificultad) : boolean</text></g><!--link CrearPreguntaView to PreguntasController--><g class="link" data-entity-1="CrearPreguntaView" data-entity-2="PreguntasController" data-source-line="19" data-uid="lnk14" id="link_CrearPreguntaView_PreguntasController"><path d="M555.55,177.15 C544,196.11 527,224 527,224 C527,224 384.9778,244.5986 289.0278,258.5186" fill="none" id="CrearPreguntaView-to-PreguntasController-1" style="stroke:#181818;stroke-width:1;"/><polygon fill="#181818" points="283.09,259.38,292.571,262.0464,288.0382,258.6621,291.4225,254.1293,283.09,259.38" style="stroke:#181818;stroke-width:1;"/><text fill="#000000" font-family="sans-serif" font-size="13" lengthAdjust="spacing" textLength="264.6528" x="537" y="220.0669">crearPregunta(datosMinimos) : Pregunta</text></g><!--link PreguntasController to PreguntaRepository--><g class="link" data-entity-1="PreguntasController" data-entity-2="PreguntaRepository" data-source-line="21" data-uid="lnk15" id="link_PreguntasController_PreguntaRepository"><path d="M156.79,290.1 C120.48,303.54 76,320 76,320 C76,320 76,337 76,337 C76,337 118.3048,351.5127 157.4748,364.9527" fill="none" id="PreguntasController-to-PreguntaRepository" style="stroke:#181818;stroke-width:1;"/><polygon fill="#181818" points="163.15,366.9,155.9354,360.1956,158.4207,365.2773,153.339,367.7626,163.15,366.9" style="stroke:#181818;stroke-width:1;"/><text fill="#000000" font-family="sans-serif" font-size="13" lengthAdjust="spacing" textLength="205.6768" x="77" y="333.0669">crear(datosMinimos) : Pregunta</text></g><!--link PreguntasController to PreguntaRepository--><g class="link" data-entity-1="PreguntasController" data-entity-2="PreguntaRepository" data-source-line="22" data-uid="lnk16" id="link_PreguntasController_PreguntaRepository"><path d="M233.8,290.23 C257.78,303.65 287,320 287,320 C287,320 287,337 287,337 C287,337 266.3141,350.1322 245.1941,363.5522" fill="none" id="PreguntasController-to-PreguntaRepository-1" style="stroke:#181818;stroke-width:1;"/><polygon fill="#181818" points="240.13,366.77,249.8714,365.3193,244.3501,364.0885,245.581,358.5671,240.13,366.77" style="stroke:#181818;stroke-width:1;"/><text fill="#000000" font-family="sans-serif" font-size="13" lengthAdjust="spacing" textLength="320.1631" x="288" y="333.0669">verificarUnicidadEnunciado(enunciado) : boolean</text></g><!--link PreguntaRepository to Pregunta--><g class="link" data-entity-1="PreguntaRepository" data-entity-2="Pregunta" data-source-line="24" data-uid="lnk17" id="link_PreguntaRepository_Pregunta"><path d="M213,403.42 C213,420.57 213,446.58 213,463.69" fill="none" id="PreguntaRepository-Pregunta" style="stroke:#181818;stroke-width:1;"/></g><!--link Pregunta to Asignatura--><g class="link" data-entity-1="Pregunta" data-entity-2="Asignatura" data-source-line="25" data-uid="lnk18" id="link_Pregunta_Asignatura"><path d="M213,500.42 C213,517.57 213,537.58 213,554.69" fill="none" id="Pregunta-to-Asignatura" style="stroke:#181818;stroke-width:1;"/><polygon fill="#181818" points="213,560.69,217,551.69,213,555.69,209,551.69,213,560.69" style="stroke:#181818;stroke-width:1;"/></g><!--link CrearPreguntaView to EditarPregunta--><g class="link" data-entity-1="CrearPreguntaView" data-entity-2="EditarPregunta" data-source-line="27" data-uid="lnk19" id="link_CrearPreguntaView_EditarPregunta"><path d="M644.21,175.07 C715.58,188.81 810,207 810,207 C810,207 877.6132,232.7537 927.3732,251.7137" fill="none" id="CrearPreguntaView-to-EditarPregunta" style="stroke:#181818;stroke-width:1;stroke-dasharray:7,7;"/><polygon fill="#181818" points="932.98,253.85,925.9941,246.9076,928.3077,252.0697,923.1456,254.3833,932.98,253.85" style="stroke:#181818;stroke-width:1;"/><text fill="#000000" font-family="sans-serif" font-size="13" lengthAdjust="spacing" textLength="273.6411" x="851" y="220.0669">&#171;include&#187; editarPregunta(nuevaPregunta)</text></g><!--SRC=[bPDDJm8n48Rl_HKJl40278WQsH2IPQt6H8KW66zcTZkInj9kkbsK6F-x2n7O3n3fhTEtpyoyqoRlKiTeSGvAQdBBc20sQhdQC6OfSgXdYk0ikEO3_m9gtcZCRwUF4__frH_SyV5aM0DCO6Hfbcg7YHzAiiuSkHeC7oVyPJBrx_a1Jc2qeq-Neg8_cO5H2aDZqKcZWGlfq6uWQs8nn5YCqJlE229Bk_1AM2j4weqQV378LYxhPQVBRxeGv8NFaZxAkl0Y59TNnMPiLYZPilAcumVdVAiSKsmIwOnT7X4UEFOJETFeKelicx7oKA3LwbUBzw3KEFjh2FzZuBQEEz5WhAA7biWmU_pnO85A2hJNw4po8BMScoI7QmBfL4SIXMc2etaM4F9DHgboA1hWGMYC8jGdfIpMBdAPLyJTqzbpUMr7TNg_pCEiKr0BigiMqKwrZ39l1DzOKD-QaM-TLI4PkvfxdJ3tOlPurcxtIn_8WrvFwaYbWlfzeC9PNQUqmCskyGC0]--></g></svg>