<svg xmlns="http://www.w3.org/2000/svg" xmlns:xlink="http://www.w3.org/1999/xlink" contentStyleType="text/css" data-diagram-type="DESCRIPTION" height="620px" preserveAspectRatio="none" style="width:1678px;height:620px;background:#FFFFFF;" version="1.1" viewBox="0 0 1678 620" width="1678px" zoomAndPan="magnify"><defs/><g><!--cluster editarPregunta--><g class="cluster" data-entity="editarPregunta" data-source-line="14" data-uid="ent0012" id="cluster_editarPregunta"><path d="M103,106 L236.9111,106 A3.75,3.75 0 0 1 239.4111,108.5 L246.4111,128.2969 L861,128.2969 A2.5,2.5 0 0 1 863.5,130.7969 L863.5,610.5 A2.5,2.5 0 0 1 861,613 L103,613 A2.5,2.5 0 0 1 100.5,610.5 L100.5,108.5 A2.5,2.5 0 0 1 103,106" fill="none" style="stroke:#000000;stroke-width:1.5;"/><line style="stroke:#000000;stroke-width:1.5;" x1="100.5" x2="246.4111" y1="128.2969" y2="128.2969"/><text fill="#000000" font-family="sans-serif" font-size="14" font-weight="bold" lengthAdjust="spacing" textLength="132.9111" x="104.5" y="120.9951">editarPregunta()</text></g><!--entity EditarPreguntaView--><g class="entity" data-entity="EditarPreguntaView" data-source-line="15" data-uid="ent0013" id="entity_EditarPreguntaView"><rect fill="#629EF9" height="36.2969" rx="2.5" ry="2.5" style="stroke:#181818;stroke-width:0.5;" width="158.4893" x="689.5" y="141"/><text fill="#000000" font-family="sans-serif" font-size="14" lengthAdjust="spacing" textLength="138.4893" x="699.5" y="163.9951">EditarPreguntaView</text></g><!--entity PreguntasController--><g class="entity" data-entity="PreguntasController" data-source-line="16" data-uid="ent0014" id="entity_PreguntasController"><rect fill="#B5BD68" height="36.2969" rx="2.5" ry="2.5" style="stroke:#181818;stroke-width:0.5;" width="159.9795" x="233.5" y="254"/><text fill="#000000" font-family="sans-serif" font-size="14" lengthAdjust="spacing" textLength="139.9795" x="243.5" y="276.9951">PreguntasController</text></g><!--entity PreguntaRepository--><g class="entity" data-entity="PreguntaRepository" data-source-line="17" data-uid="ent0015" id="entity_PreguntaRepository"><rect fill="#F2AC4E" height="36.2969" rx="2.5" ry="2.5" style="stroke:#181818;stroke-width:0.5;" width="158.585" x="244" y="367"/><text fill="#000000" font-family="sans-serif" font-size="14" lengthAdjust="spacing" textLength="138.585" x="254" y="389.9951">PreguntaRepository</text></g><!--entity Pregunta--><g class="entity" data-entity="Pregunta" data-source-line="18" data-uid="ent0016" id="entity_Pregunta"><rect fill="#F2AC4E" height="36.2969" rx="2.5" ry="2.5" style="stroke:#181818;stroke-width:0.5;" width="83.5127" x="281.5" y="464"/><text fill="#000000" font-family="sans-serif" font-size="14" lengthAdjust="spacing" textLength="63.5127" x="291.5" y="486.9951">Pregunta</text></g><!--entity Respuesta--><g class="entity" data-entity="Respuesta" data-source-line="19" data-uid="ent0017" id="entity_Respuesta"><rect fill="#F2AC4E" height="36.2969" rx="2.5" ry="2.5" style="stroke:#181818;stroke-width:0.5;" width="93.3701" x="277" y="561"/><text fill="#000000" font-family="sans-serif" font-size="14" lengthAdjust="spacing" textLength="73.3701" x="287" y="583.9951">Respuesta</text></g><!--entity PreguntasAbierto--><g class="entity" data-entity="PreguntasAbierto" data-source-line="3" data-uid="ent0002" id="entity_PreguntasAbierto"><rect fill="#CDEBA5" height="36.2969" rx="2.5" ry="2.5" style="stroke:#181818;stroke-width:0.5;" width="150.751" x="7" y="7"/><text fill="#000000" font-family="sans-serif" font-size="14" lengthAdjust="spacing" textLength="130.751" x="17" y="29.9951">:Preguntas Abierto</text></g><!--entity PreguntasContextualesAbierto--><g class="entity" data-entity="PreguntasContextualesAbierto" data-source-line="4" data-uid="ent0003" id="entity_PreguntasContextualesAbierto"><rect fill="#CDEBA5" height="36.2969" rx="2.5" ry="2.5" style="stroke:#181818;stroke-width:0.5;" width="247.541" x="193.5" y="7"/><text fill="#000000" font-family="sans-serif" font-size="14" lengthAdjust="spacing" textLength="227.541" x="203.5" y="29.9951">:Preguntas Contextuales Abierto</text></g><!--entity PreguntaAbierto--><g class="entity" data-entity="PreguntaAbierto" data-source-line="5" data-uid="ent0004" id="entity_PreguntaAbierto"><rect fill="#CDEBA5" height="36.2969" rx="2.5" ry="2.5" style="stroke:#181818;stroke-width:0.5;" width="143.457" x="477" y="7"/><text fill="#000000" font-family="sans-serif" font-size="14" lengthAdjust="spacing" textLength="123.457" x="487" y="29.9951">:Pregunta Abierto</text></g><!--entity PreguntaContextualAbierto--><g class="entity" data-entity="PreguntaContextualAbierto" data-source-line="6" data-uid="ent0005" id="entity_PreguntaContextualAbierto"><rect fill="#CDEBA5" height="36.2969" rx="2.5" ry="2.5" style="stroke:#181818;stroke-width:0.5;" width="224.3398" x="655.5" y="7"/><text fill="#000000" font-family="sans-serif" font-size="14" lengthAdjust="spacing" textLength="204.3398" x="665.5" y="29.9951">:Pregunta Contextual Abierto</text></g><!--entity RespuestasAbierto--><g class="entity" data-entity="RespuestasAbierto" data-source-line="7" data-uid="ent0006" id="entity_RespuestasAbierto"><rect fill="#CDEBA5" height="36.2969" rx="2.5" ry="2.5" style="stroke:#181818;stroke-width:0.5;" width="160.6084" x="915" y="7"/><text fill="#000000" font-family="sans-serif" font-size="14" lengthAdjust="spacing" textLength="140.6084" x="925" y="29.9951">:Respuestas Abierto</text></g><!--entity RespuestasContextualAbierto--><g class="entity" data-entity="RespuestasContextualAbierto" data-source-line="8" data-uid="ent0007" id="entity_RespuestasContextualAbierto"><rect fill="#CDEBA5" height="36.2969" rx="2.5" ry="2.5" style="stroke:#181818;stroke-width:0.5;" width="241.4912" x="1111" y="7"/><text fill="#000000" font-family="sans-serif" font-size="14" lengthAdjust="spacing" textLength="221.4912" x="1121" y="29.9951">:Respuestas Contextual Abierto</text></g><!--entity CrearPregunta--><g class="entity" data-entity="CrearPregunta" data-source-line="9" data-uid="ent0008" id="entity_CrearPregunta"><rect fill="#CDEBA5" height="36.2969" rx="2.5" ry="2.5" style="stroke:#181818;stroke-width:0.5;" width="222.3848" x="1387.5" y="7"/><text fill="#000000" font-family="sans-serif" font-size="14" lengthAdjust="spacing" textLength="202.3848" x="1397.5" y="29.9951">:Collaboration crearPregunta</text></g><!--entity VerRespuestas--><g class="entity" data-entity="VerRespuestas" data-source-line="10" data-uid="ent0009" id="entity_VerRespuestas"><rect fill="#CDEBA5" height="36.2969" rx="2.5" ry="2.5" style="stroke:#181818;stroke-width:0.5;" width="225.7891" x="879.5" y="254"/><text fill="#000000" font-family="sans-serif" font-size="14" lengthAdjust="spacing" textLength="205.7891" x="889.5" y="276.9951">:Collaboration verRespuestas</text></g><!--entity EliminarPregunta--><g class="entity" data-entity="EliminarPregunta" data-source-line="11" data-uid="ent0010" id="entity_EliminarPregunta"><rect fill="#CDEBA5" height="36.2969" rx="2.5" ry="2.5" style="stroke:#181818;stroke-width:0.5;" width="243.1113" x="1141" y="254"/><text fill="#000000" font-family="sans-serif" font-size="14" lengthAdjust="spacing" textLength="223.1113" x="1151" y="276.9951">:Collaboration eliminarPregunta</text></g><!--entity VerPreguntas--><g class="entity" data-entity="VerPreguntas" data-source-line="12" data-uid="ent0011" id="entity_VerPreguntas"><rect fill="#CDEBA5" height="36.2969" rx="2.5" ry="2.5" style="stroke:#181818;stroke-width:0.5;" width="215.9316" x="1456.5" y="254"/><text fill="#000000" font-family="sans-serif" font-size="14" lengthAdjust="spacing" textLength="195.9316" x="1466.5" y="276.9951">:Collaboration verPreguntas</text></g><!--link CrearPregunta to EditarPreguntaView--><g class="link" data-entity-1="CrearPregunta" data-entity-2="EditarPreguntaView" data-source-line="22" data-uid="lnk18" id="link_CrearPregunta_EditarPreguntaView"><path d="M1461.79,43.15 C1421.21,62.11 1361.5,90 1361.5,90 C1361.5,90 1014.961,129.7366 853.511,148.2466" fill="none" id="CrearPregunta-to-EditarPreguntaView" style="stroke:#181818;stroke-width:1;"/><polygon fill="#181818" points="847.55,148.93,856.947,151.8788,852.5175,148.3605,856.0358,143.9309,847.55,148.93" style="stroke:#181818;stroke-width:1;"/><text fill="#000000" font-family="sans-serif" font-size="13" lengthAdjust="spacing" textLength="208.3999" x="1396.5" y="86.0669">editarPregunta(preguntaNueva)</text></g><!--link PreguntasAbierto to EditarPreguntaView--><g class="link" data-entity-1="PreguntasAbierto" data-entity-2="EditarPreguntaView" data-source-line="23" data-uid="lnk19" id="link_PreguntasAbierto_EditarPreguntaView"><path d="M109.03,43.15 C138.36,62.11 181.5,90 181.5,90 C181.5,90 523.1499,129.5796 683.3699,148.1396" fill="none" id="PreguntasAbierto-to-EditarPreguntaView" style="stroke:#181818;stroke-width:1;"/><polygon fill="#181818" points="689.33,148.83,680.8501,143.8209,684.3632,148.2546,679.9295,151.7678,689.33,148.83" style="stroke:#181818;stroke-width:1;"/><text fill="#000000" font-family="sans-serif" font-size="13" lengthAdjust="spacing" textLength="178.8643" x="182.5" y="86.0669">editarPregunta(preguntaId)</text></g><!--link PreguntasContextualesAbierto to EditarPreguntaView--><g class="link" data-entity-1="PreguntasContextualesAbierto" data-entity-2="EditarPreguntaView" data-source-line="24" data-uid="lnk20" id="link_PreguntasContextualesAbierto_EditarPreguntaView"><path d="M335.72,43.15 C355.87,62.11 385.5,90 385.5,90 C385.5,90 571.0524,122.941 683.2324,142.861" fill="none" id="PreguntasContextualesAbierto-to-EditarPreguntaView" style="stroke:#181818;stroke-width:1;"/><polygon fill="#181818" points="689.14,143.91,680.978,138.3981,684.217,143.0358,679.5793,146.2749,689.14,143.91" style="stroke:#181818;stroke-width:1;"/><text fill="#000000" font-family="sans-serif" font-size="13" lengthAdjust="spacing" textLength="178.8643" x="386.5" y="86.0669">editarPregunta(preguntaId)</text></g><!--link PreguntaAbierto to EditarPreguntaView--><g class="link" data-entity-1="PreguntaAbierto" data-entity-2="EditarPreguntaView" data-source-line="25" data-uid="lnk21" id="link_PreguntaAbierto_EditarPreguntaView"><path d="M557.08,43.15 C566.55,62.11 580.5,90 580.5,90 C580.5,90 659.7276,118.6595 715.4176,138.7995" fill="none" id="PreguntaAbierto-to-EditarPreguntaView" style="stroke:#181818;stroke-width:1;"/><polygon fill="#181818" points="721.06,140.84,713.9568,134.0176,716.358,139.1396,711.2361,141.5408,721.06,140.84" style="stroke:#181818;stroke-width:1;"/><text fill="#000000" font-family="sans-serif" font-size="13" lengthAdjust="spacing" textLength="178.8643" x="581.5" y="86.0669">editarPregunta(preguntaId)</text></g><!--link PreguntaContextualAbierto to EditarPreguntaView--><g class="link" data-entity-1="PreguntaContextualAbierto" data-entity-2="EditarPreguntaView" data-source-line="26" data-uid="lnk22" id="link_PreguntaContextualAbierto_EditarPreguntaView"><path d="M767.63,43.26 C767.82,68.55 768.1349,109.4402 768.3249,134.7402" fill="none" id="PreguntaContextualAbierto-to-EditarPreguntaView" style="stroke:#181818;stroke-width:1;"/><polygon fill="#181818" points="768.37,140.74,772.3023,131.7102,768.3325,135.7401,764.3025,131.7703,768.37,140.74" style="stroke:#181818;stroke-width:1;"/><text fill="#000000" font-family="sans-serif" font-size="13" lengthAdjust="spacing" textLength="178.8643" x="769.5" y="86.0669">editarPregunta(preguntaId)</text></g><!--link RespuestasAbierto to EditarPreguntaView--><g class="link" data-entity-1="RespuestasAbierto" data-entity-2="EditarPreguntaView" data-source-line="27" data-uid="lnk23" id="link_RespuestasAbierto_EditarPreguntaView"><path d="M985.05,43.15 C973.5,62.11 956.5,90 956.5,90 C956.5,90 877.2724,118.6595 821.5824,138.7995" fill="none" id="RespuestasAbierto-to-EditarPreguntaView" style="stroke:#181818;stroke-width:1;"/><polygon fill="#181818" points="815.94,140.84,825.7639,141.5408,820.642,139.1396,823.0432,134.0176,815.94,140.84" style="stroke:#181818;stroke-width:1;"/><text fill="#000000" font-family="sans-serif" font-size="13" lengthAdjust="spacing" textLength="178.8643" x="967.5" y="86.0669">editarPregunta(preguntaId)</text></g><!--link RespuestasContextualAbierto to EditarPreguntaView--><g class="link" data-entity-1="RespuestasContextualAbierto" data-entity-2="EditarPreguntaView" data-source-line="28" data-uid="lnk24" id="link_RespuestasContextualAbierto_EditarPreguntaView"><path d="M1210.87,43.15 C1188.06,62.11 1154.5,90 1154.5,90 C1154.5,90 966.379,123.1388 853.449,143.0388" fill="none" id="RespuestasContextualAbierto-to-EditarPreguntaView" style="stroke:#181818;stroke-width:1;"/><polygon fill="#181818" points="847.54,144.08,857.0976,146.4574,852.4641,143.2123,855.7093,138.5788,847.54,144.08" style="stroke:#181818;stroke-width:1;"/><text fill="#000000" font-family="sans-serif" font-size="13" lengthAdjust="spacing" textLength="178.8643" x="1174.5" y="86.0669">editarPregunta(preguntaId)</text></g><!--link EditarPreguntaView to PreguntasController--><g class="link" data-entity-1="EditarPreguntaView" data-entity-2="PreguntasController" data-source-line="30" data-uid="lnk25" id="link_EditarPreguntaView_PreguntasController"><path d="M689.35,166 C522.2,178.67 148.5,207 148.5,207 C148.5,207 148.5,224 148.5,224 C148.5,224 200.5197,238.8159 247.6897,252.2559" fill="none" id="EditarPreguntaView-to-PreguntasController" style="stroke:#181818;stroke-width:1;"/><polygon fill="#181818" points="253.46,253.9,245.9006,247.5869,248.6514,252.5299,243.7084,255.2807,253.46,253.9" style="stroke:#181818;stroke-width:1;"/><text fill="#000000" font-family="sans-serif" font-size="13" lengthAdjust="spacing" textLength="330.3828" x="149.5" y="220.0669">cargarPreguntaParaEdici&#243;n(preguntaId) : Pregunta</text></g><!--link EditarPreguntaView to PreguntasController--><g class="link" data-entity-1="EditarPreguntaView" data-entity-2="PreguntasController" data-source-line="37" data-uid="lnk29" id="link_EditarPreguntaView_PreguntasController"><path d="M689.29,175.98 C621.74,189.6 535.5,207 535.5,207 C535.5,207 484.5,224 484.5,224 C484.5,224 430.3954,238.8696 381.5054,252.3096" fill="none" id="EditarPreguntaView-to-PreguntasController-1" style="stroke:#181818;stroke-width:1;"/><polygon fill="#181818" points="375.72,253.9,385.4583,255.3713,380.5411,252.5747,383.3378,247.6575,375.72,253.9" style="stroke:#181818;stroke-width:1;"/><text fill="#000000" font-family="sans-serif" font-size="13" lengthAdjust="spacing" textLength="322.6831" x="536.5" y="220.0669">modificarCampos(preguntaId, cambios) : boolean</text></g><!--link PreguntasController to PreguntaRepository--><g class="link" data-entity-1="PreguntasController" data-entity-2="PreguntaRepository" data-source-line="32" data-uid="lnk26" id="link_PreguntasController_PreguntaRepository"><path d="M261.47,290.1 C220.58,303.54 170.5,320 170.5,320 C170.5,320 170.5,337 170.5,337 C170.5,337 218.3445,351.6981 262.0945,365.1381" fill="none" id="PreguntasController-to-PreguntaRepository" style="stroke:#181818;stroke-width:1;"/><polygon fill="#181818" points="267.83,366.9,260.4014,360.4335,263.0504,365.4317,258.0522,368.0807,267.83,366.9" style="stroke:#181818;stroke-width:1;"/><text fill="#000000" font-family="sans-serif" font-size="13" lengthAdjust="spacing" textLength="237.3452" x="171.5" y="333.0669">obtenerPorId(preguntaId) : Pregunta</text></g><!--link PreguntasController to PreguntaRepository--><g class="link" data-entity-1="PreguntasController" data-entity-2="PreguntaRepository" data-source-line="39" data-uid="lnk30" id="link_PreguntasController_PreguntaRepository"><path d="M349.89,290.1 C378.48,303.54 413.5,320 413.5,320 C413.5,320 413.5,337 413.5,337 C413.5,337 387.2982,350.6821 361.5682,364.1221" fill="none" id="PreguntasController-to-PreguntaRepository-1" style="stroke:#181818;stroke-width:1;"/><polygon fill="#181818" points="356.25,366.9,366.0792,366.2785,360.6818,364.5851,362.3753,359.1876,356.25,366.9" style="stroke:#181818;stroke-width:1;"/><text fill="#000000" font-family="sans-serif" font-size="13" lengthAdjust="spacing" textLength="197.9263" x="414.5" y="333.0669">actualizar(pregunta) : boolean</text></g><!--link PreguntaRepository to Pregunta--><g class="link" data-entity-1="PreguntaRepository" data-entity-2="Pregunta" data-source-line="34" data-uid="lnk27" id="link_PreguntaRepository_Pregunta"><path d="M323.5,403.42 C323.5,420.57 323.5,446.58 323.5,463.69" fill="none" id="PreguntaRepository-Pregunta" style="stroke:#181818;stroke-width:1;"/></g><!--link Pregunta to Respuesta--><g class="link" data-entity-1="Pregunta" data-entity-2="Respuesta" data-source-line="35" data-uid="lnk28" id="link_Pregunta_Respuesta"><path d="M323.5,500.42 C323.5,517.57 323.5,543.58 323.5,560.69" fill="none" id="Pregunta-Respuesta" style="stroke:#181818;stroke-width:1;"/></g><!--link EditarPreguntaView to VerRespuestas--><g class="link" data-entity-1="EditarPreguntaView" data-entity-2="VerRespuestas" data-source-line="41" data-uid="lnk31" id="link_EditarPreguntaView_VerRespuestas"><path d="M803.01,177.1 C845.1,197.96 910.464,230.3456 952.574,251.2156" fill="none" id="EditarPreguntaView-to-VerRespuestas" style="stroke:#181818;stroke-width:1;stroke-dasharray:7,7;"/><polygon fill="#181818" points="957.95,253.88,951.6623,246.2995,953.47,251.6597,948.1098,253.4674,957.95,253.88" style="stroke:#181818;stroke-width:1;"/><text fill="#000000" font-family="sans-serif" font-size="13" lengthAdjust="spacing" textLength="244.6958" x="895.5" y="220.0669">&#171;include&#187; verRespuestas(preguntaId)</text></g><!--link EditarPreguntaView to EliminarPregunta--><g class="link" data-entity-1="EditarPreguntaView" data-entity-2="EliminarPregunta" data-source-line="42" data-uid="lnk32" id="link_EditarPreguntaView_EliminarPregunta"><path d="M847.7,169.8 C959.06,183.57 1148.5,207 1148.5,207 C1148.5,207 1192.9482,231.9526 1226.7182,250.9126" fill="none" id="EditarPreguntaView-to-EliminarPregunta" style="stroke:#181818;stroke-width:1;stroke-dasharray:7,7;"/><polygon fill="#181818" points="1231.95,253.85,1226.0605,245.9561,1227.5902,251.4022,1222.144,252.9318,1231.95,253.85" style="stroke:#181818;stroke-width:1;"/><text fill="#000000" font-family="sans-serif" font-size="13" lengthAdjust="spacing" textLength="260.7808" x="1177.5" y="220.0669">&#171;include&#187; eliminarPregunta(preguntaId)</text></g><!--link EditarPreguntaView to VerPreguntas--><g class="link" data-entity-1="EditarPreguntaView" data-entity-2="VerPreguntas" data-source-line="43" data-uid="lnk33" id="link_EditarPreguntaView_VerPreguntas"><path d="M847.6,165.48 C1026.45,177.88 1446.5,207 1446.5,207 C1446.5,207 1492.6561,232.0289 1527.6061,250.9889" fill="none" id="EditarPreguntaView-to-VerPreguntas" style="stroke:#181818;stroke-width:1;stroke-dasharray:7,7;"/><polygon fill="#181818" points="1532.88,253.85,1526.8765,246.0425,1528.4851,251.4658,1523.0617,253.0744,1532.88,253.85" style="stroke:#181818;stroke-width:1;"/><text fill="#000000" font-family="sans-serif" font-size="13" lengthAdjust="spacing" textLength="164.0679" x="1476.5" y="220.0669">&#171;include&#187; verPreguntas()</text></g><!--SRC=[hPHBJiCm48RtFiMeR5g9ia2084ALIaWbDWYnOEyaGsNXs97Z50hYL1o1Y-5M43-IqF3eAXt__loFFJFL0nCbLRG0pWJgTObGIhxU_254OQQfM7A4lVWokPWVmoYwKRYiXQOLp5E6IiiHcEyc-XdSiJMMGkEJhYd77ewh6CBif0pQQ4_gPDZbxsYtM9KrLk6rsF30pJrch6AOdLXoJbEfg6PIGAQGggzyjhpOZGmWh51P2rl2dHiPG43E2YO26qaG7EQagP4l8qs0a99c3tI9W3dJbhlHZVpGU3A25mBcvvnvSdYMBCuWyPHt31z3ONgSvYUdVhKgunDLg5mSpkEZf57UOYahfgLQxn3sB3TtJbu9yLuHfjDPX_Cek8fn-VbnNUEAJaZOk3_5NEKEewDf_yBx1qIhNNu3QtNnto3_uecqzJ3D3QUZ9YF8g5fQyOsPzsPxnjxVX0k5o9OVwU1iVROhEGAPQXIc3wMwodS2xKR3i-jE7JjLtfbcNvQ5pDazCxd6j31dE4xspGqKAPFLnb8g9KSgVfOYpJOFnfwfQh0UgyFdmS7C7vCHd9ypaV4wnzdCdwdUs_Qmmcdfuy81EuJepiwMkMPbFFa0]--></g></svg>