<svg xmlns="http://www.w3.org/2000/svg" xmlns:xlink="http://www.w3.org/1999/xlink" contentStyleType="text/css" data-diagram-type="DESCRIPTION" height="572px" preserveAspectRatio="none" style="width:1889px;height:572px;background:#FFFFFF;" version="1.1" viewBox="0 0 1889 572" width="1889px" zoomAndPan="magnify"><defs/><g><!--cluster verRespuestas--><g class="cluster" data-entity="verRespuestas" data-source-line="7" data-uid="ent0006" id="cluster_verRespuestas"><path d="M169,39.5659 L299.2197,39.5659 A3.75,3.75 0 0 1 301.7197,42.0659 L308.7197,61.8628 L808,61.8628 A2.5,2.5 0 0 1 810.5,64.3628 L810.5,563.0659 A2.5,2.5 0 0 1 808,565.5659 L169,565.5659 A2.5,2.5 0 0 1 166.5,563.0659 L166.5,42.0659 A2.5,2.5 0 0 1 169,39.5659" fill="none" style="stroke:#000000;stroke-width:1.5;"/><line style="stroke:#000000;stroke-width:1.5;" x1="166.5" x2="308.7197" y1="61.8628" y2="61.8628"/><text fill="#000000" font-family="sans-serif" font-size="14" font-weight="bold" lengthAdjust="spacing" textLength="129.2197" x="170.5" y="54.561">verRespuestas()</text></g><!--entity VerRespuestasView--><g class="entity" data-entity="VerRespuestasView" data-source-line="8" data-uid="ent0007" id="entity_VerRespuestasView"><rect fill="#629EF9" height="36.2969" rx="2.5" ry="2.5" style="stroke:#181818;stroke-width:0.5;" width="158.1406" x="636.5" y="93.5659"/><text fill="#000000" font-family="sans-serif" font-size="14" lengthAdjust="spacing" textLength="138.1406" x="646.5" y="116.561">VerRespuestasView</text></g><!--entity RespuestasController--><g class="entity" data-entity="RespuestasController" data-source-line="9" data-uid="ent0008" id="entity_RespuestasController"><rect fill="#B5BD68" height="36.2969" rx="2.5" ry="2.5" style="stroke:#181818;stroke-width:0.5;" width="169.8369" x="290.5" y="206.5659"/><text fill="#000000" font-family="sans-serif" font-size="14" lengthAdjust="spacing" textLength="149.8369" x="300.5" y="229.561">RespuestasController</text></g><!--entity RespuestaRepository--><g class="entity" data-entity="RespuestaRepository" data-source-line="10" data-uid="ent0009" id="entity_RespuestaRepository"><rect fill="#F2AC4E" height="36.2969" rx="2.5" ry="2.5" style="stroke:#181818;stroke-width:0.5;" width="168.4424" x="294.5" y="319.5659"/><text fill="#000000" font-family="sans-serif" font-size="14" lengthAdjust="spacing" textLength="148.4424" x="304.5" y="342.561">RespuestaRepository</text></g><!--entity Respuesta--><g class="entity" data-entity="Respuesta" data-source-line="11" data-uid="ent0010" id="entity_Respuesta"><rect fill="#F2AC4E" height="36.2969" rx="2.5" ry="2.5" style="stroke:#181818;stroke-width:0.5;" width="93.3701" x="332" y="416.5659"/><text fill="#000000" font-family="sans-serif" font-size="14" lengthAdjust="spacing" textLength="73.3701" x="342" y="439.561">Respuesta</text></g><!--entity Pregunta--><g class="entity" data-entity="Pregunta" data-source-line="12" data-uid="ent0011" id="entity_Pregunta"><rect fill="#F2AC4E" height="36.2969" rx="2.5" ry="2.5" style="stroke:#181818;stroke-width:0.5;" width="83.5127" x="336.5" y="513.5659"/><text fill="#000000" font-family="sans-serif" font-size="14" lengthAdjust="spacing" textLength="63.5127" x="346.5" y="536.561">Pregunta</text></g><!--entity PreguntaAbierto--><g class="entity" data-entity="PreguntaAbierto" data-source-line="3" data-uid="ent0002" id="entity_PreguntaAbierto"><rect fill="#CDEBA5" height="36.2969" rx="2.5" ry="2.5" style="stroke:#181818;stroke-width:0.5;" width="143.457" x="7" y="93.5659"/><text fill="#000000" font-family="sans-serif" font-size="14" lengthAdjust="spacing" textLength="123.457" x="17" y="116.561">:Pregunta Abierto</text></g><!--entity RespuestaAbierto--><g class="entity" data-entity="RespuestaAbierto" data-source-line="4" data-uid="ent0003" id="entity_RespuestaAbierto"><rect fill="#CDEBA5" height="36.2969" rx="2.5" ry="2.5" style="stroke:#181818;stroke-width:0.5;" width="153.3145" x="937" y="93.5659"/><text fill="#000000" font-family="sans-serif" font-size="14" lengthAdjust="spacing" textLength="133.3145" x="947" y="116.561">:Respuesta Abierto</text></g><!--entity PreguntaContextualAbierto--><g class="entity" data-entity="PreguntaContextualAbierto" data-source-line="5" data-uid="ent0004" id="entity_PreguntaContextualAbierto"><rect fill="#CDEBA5" height="36.2969" rx="2.5" ry="2.5" style="stroke:#181818;stroke-width:0.5;" width="224.3398" x="1125.5" y="93.5659"/><text fill="#000000" font-family="sans-serif" font-size="14" lengthAdjust="spacing" textLength="204.3398" x="1135.5" y="116.561">:Pregunta Contextual Abierto</text></g><!--entity RespuestaContextualAbierto--><g class="entity" data-entity="RespuestaContextualAbierto" data-source-line="6" data-uid="ent0005" id="entity_RespuestaContextualAbierto"><rect fill="#CDEBA5" height="36.2969" rx="2.5" ry="2.5" style="stroke:#181818;stroke-width:0.5;" width="234.1973" x="1384.5" y="93.5659"/><text fill="#000000" font-family="sans-serif" font-size="14" lengthAdjust="spacing" textLength="214.1973" x="1394.5" y="116.561">:Respuesta Contextual Abierto</text></g><!--entity CrearRespuesta--><g class="entity" data-entity="CrearRespuesta" data-source-line="15" data-uid="ent0012" id="entity_CrearRespuesta"><rect fill="#CDEBA5" height="36.2969" rx="2.5" ry="2.5" style="stroke:#181818;stroke-width:0.5;" width="234.3203" x="826.5" y="206.5659"/><text fill="#000000" font-family="sans-serif" font-size="14" lengthAdjust="spacing" textLength="214.3203" x="836.5" y="229.561">:Collaboration CrearRespuesta</text></g><!--entity EditarRespuesta--><g class="entity" data-entity="EditarRespuesta" data-source-line="16" data-uid="ent0013" id="entity_EditarRespuesta"><rect fill="#CDEBA5" height="36.2969" rx="2.5" ry="2.5" style="stroke:#181818;stroke-width:0.5;" width="237.2871" x="1096" y="206.5659"/><text fill="#000000" font-family="sans-serif" font-size="14" lengthAdjust="spacing" textLength="217.2871" x="1106" y="229.561">:Collaboration EditarRespuesta</text></g><!--entity EliminarRespuesta--><g class="entity" data-entity="EliminarRespuesta" data-source-line="17" data-uid="ent0014" id="entity_EliminarRespuesta"><rect fill="#CDEBA5" height="36.2969" rx="2.5" ry="2.5" style="stroke:#181818;stroke-width:0.5;" width="253.2012" x="1368" y="206.5659"/><text fill="#000000" font-family="sans-serif" font-size="14" lengthAdjust="spacing" textLength="233.2012" x="1378" y="229.561">:Collaboration EliminarRespuesta</text></g><!--entity EditarPregunta--><g class="entity" data-entity="EditarPregunta" data-source-line="18" data-uid="ent0015" id="entity_EditarPregunta"><rect fill="#CDEBA5" height="36.2969" rx="2.5" ry="2.5" style="stroke:#181818;stroke-width:0.5;" width="227.4297" x="1656" y="206.5659"/><text fill="#000000" font-family="sans-serif" font-size="14" lengthAdjust="spacing" textLength="207.4297" x="1666" y="229.561">:Collaboration EditarPregunta</text></g><!--link PreguntaAbierto to VerRespuestasView--><g class="link" data-entity-1="PreguntaAbierto" data-entity-2="VerRespuestasView" data-source-line="20" data-uid="lnk16" id="link_PreguntaAbierto_VerRespuestasView"><path d="M150.03,111.5659 C270.12,111.5659 505.39,111.5659 630.38,111.5659" fill="none" id="PreguntaAbierto-to-VerRespuestasView" style="stroke:#181818;stroke-width:1;"/><polygon fill="#181818" points="636.38,111.5659,627.38,107.5659,631.38,111.5659,627.38,115.5659,636.38,111.5659" style="stroke:#181818;stroke-width:1;"/><text fill="#000000" font-family="sans-serif" font-size="13" lengthAdjust="spacing" textLength="106.082" x="340.25" y="104.6328">verRespuestas()</text></g><!--link RespuestaAbierto to VerRespuestasView--><g class="link" data-entity-1="RespuestaAbierto" data-entity-2="VerRespuestasView" data-source-line="21" data-uid="lnk17" id="link_RespuestaAbierto_VerRespuestasView"><path d="M936.89,111.5659 C893.24,111.5659 844.63,111.5659 800.58,111.5659" fill="none" id="RespuestaAbierto-to-VerRespuestasView" style="stroke:#181818;stroke-width:1;"/><polygon fill="#181818" points="794.58,111.5659,803.58,115.5659,799.58,111.5659,803.58,107.5659,794.58,111.5659" style="stroke:#181818;stroke-width:1;"/><text fill="#000000" font-family="sans-serif" font-size="13" lengthAdjust="spacing" textLength="106.082" x="812.75" y="104.6328">verRespuestas()</text></g><!--link PreguntaContextualAbierto to VerRespuestasView--><g class="link" data-entity-1="PreguntaContextualAbierto" data-entity-2="VerRespuestasView" data-source-line="22" data-uid="lnk18" id="link_PreguntaContextualAbierto_VerRespuestasView"><path d="M1207.68,93.4459 C1169.29,70.1159 1107.5,32.5659 1107.5,32.5659 C1107.5,32.5659 919.5,32.5659 919.5,32.5659 C919.5,32.5659 827.8452,68.0594 767.6452,91.3694" fill="none" id="PreguntaContextualAbierto-to-VerRespuestasView" style="stroke:#181818;stroke-width:1;"/><polygon fill="#181818" points="762.05,93.5359,771.8871,94.0163,766.7127,91.7305,768.9985,86.556,762.05,93.5359" style="stroke:#181818;stroke-width:1;"/><text fill="#000000" font-family="sans-serif" font-size="13" lengthAdjust="spacing" textLength="106.082" x="990.5" y="19.6328">verRespuestas()</text></g><!--link RespuestaContextualAbierto to VerRespuestasView--><g class="link" data-entity-1="RespuestaContextualAbierto" data-entity-2="VerRespuestasView" data-source-line="23" data-uid="lnk19" id="link_RespuestaContextualAbierto_VerRespuestasView"><path d="M1470.76,93.4459 C1431.2,70.1159 1367.5,32.5659 1367.5,32.5659 C1367.5,32.5659 919.5,32.5659 919.5,32.5659 C919.5,32.5659 827.8452,68.0594 767.6452,91.3694" fill="none" id="RespuestaContextualAbierto-to-VerRespuestasView" style="stroke:#181818;stroke-width:1;"/><polygon fill="#181818" points="762.05,93.5359,771.8871,94.0163,766.7127,91.7305,768.9985,86.556,762.05,93.5359" style="stroke:#181818;stroke-width:1;"/><text fill="#000000" font-family="sans-serif" font-size="13" lengthAdjust="spacing" textLength="106.082" x="850.5" y="19.6328">verRespuestas()</text></g><!--link VerRespuestasView to RespuestasController--><g class="link" data-entity-1="VerRespuestasView" data-entity-2="RespuestasController" data-source-line="25" data-uid="lnk20" id="link_VerRespuestasView_RespuestasController"><path d="M636.39,119.9859 C495.21,133.2359 214.5,159.5659 214.5,159.5659 C214.5,159.5659 214.5,176.5659 214.5,176.5659 C214.5,176.5659 265.1305,191.3442 311.1605,204.7842" fill="none" id="VerRespuestasView-to-RespuestasController" style="stroke:#181818;stroke-width:1;"/><polygon fill="#181818" points="316.92,206.4659,309.4019,200.1037,312.1204,205.0645,307.1596,207.7831,316.92,206.4659" style="stroke:#181818;stroke-width:1;"/><text fill="#000000" font-family="sans-serif" font-size="13" lengthAdjust="spacing" textLength="242.7344" x="215.5" y="172.6328">listarRespuestas() : List&lt;Respuesta&gt;</text></g><!--link VerRespuestasView to RespuestasController--><g class="link" data-entity-1="VerRespuestasView" data-entity-2="RespuestasController" data-source-line="32" data-uid="lnk24" id="link_VerRespuestasView_RespuestasController"><path d="M642.65,129.5959 C585.13,143.0559 514.5,159.5659 514.5,159.5659 C514.5,159.5659 459.3698,184.9461 418.1998,203.9061" fill="none" id="VerRespuestasView-to-RespuestasController-1" style="stroke:#181818;stroke-width:1;"/><polygon fill="#181818" points="412.75,206.4159,422.598,206.2844,417.2915,204.3244,419.2516,199.018,412.75,206.4159" style="stroke:#181818;stroke-width:1;"/><text fill="#000000" font-family="sans-serif" font-size="13" lengthAdjust="spacing" textLength="291.9922" x="515.5" y="172.6328">filtrarRespuestas(criterio) : List&lt;Respuesta&gt;</text></g><!--link RespuestasController to RespuestaRepository--><g class="link" data-entity-1="RespuestasController" data-entity-2="RespuestaRepository" data-source-line="27" data-uid="lnk21" id="link_RespuestasController_RespuestaRepository"><path d="M319.47,242.6659 C275.43,256.1059 221.5,272.5659 221.5,272.5659 C221.5,272.5659 221.5,289.5659 221.5,289.5659 C221.5,289.5659 270.7421,304.305 315.6321,317.745" fill="none" id="RespuestasController-to-RespuestaRepository" style="stroke:#181818;stroke-width:1;"/><polygon fill="#181818" points="321.38,319.4659,313.9054,313.0526,316.5901,318.0318,311.6109,320.7165,321.38,319.4659" style="stroke:#181818;stroke-width:1;"/><text fill="#000000" font-family="sans-serif" font-size="13" lengthAdjust="spacing" textLength="225.1831" x="222.5" y="285.6328">obtenerTodos() : List&lt;Respuesta&gt;</text></g><!--link RespuestasController to RespuestaRepository--><g class="link" data-entity-1="RespuestasController" data-entity-2="RespuestaRepository" data-source-line="34" data-uid="lnk25" id="link_RespuestasController_RespuestaRepository"><path d="M403.73,242.7959 C425.71,256.2159 452.5,272.5659 452.5,272.5659 C452.5,272.5659 452.5,289.5659 452.5,289.5659 C452.5,289.5659 431.8141,302.6981 410.6941,316.1181" fill="none" id="RespuestasController-to-RespuestaRepository-1" style="stroke:#181818;stroke-width:1;"/><polygon fill="#181818" points="405.63,319.3359,415.3714,317.8853,409.8501,316.6544,411.081,311.1331,405.63,319.3359" style="stroke:#181818;stroke-width:1;"/><text fill="#000000" font-family="sans-serif" font-size="13" lengthAdjust="spacing" textLength="294.436" x="453.5" y="285.6328">buscarPorCriterio(criterio) : List&lt;Respuesta&gt;</text></g><!--link RespuestaRepository to Respuesta--><g class="link" data-entity-1="RespuestaRepository" data-entity-2="Respuesta" data-source-line="29" data-uid="lnk22" id="link_RespuestaRepository_Respuesta"><path d="M378.5,355.9859 C378.5,373.1359 378.5,399.1459 378.5,416.2559" fill="none" id="RespuestaRepository-Respuesta" style="stroke:#181818;stroke-width:1;"/></g><!--link Respuesta to Pregunta--><g class="link" data-entity-1="Respuesta" data-entity-2="Pregunta" data-source-line="30" data-uid="lnk23" id="link_Respuesta_Pregunta"><path d="M378.5,452.9859 C378.5,470.1359 378.5,496.1459 378.5,513.2559" fill="none" id="Respuesta-Pregunta" style="stroke:#181818;stroke-width:1;"/></g><!--link VerRespuestasView to CrearRespuesta--><g class="link" data-entity-1="VerRespuestasView" data-entity-2="CrearRespuesta" data-source-line="36" data-uid="lnk26" id="link_VerRespuestasView_CrearRespuesta"><path d="M750.63,129.6659 C793.47,150.5259 860.0755,182.9492 902.9355,203.8192" fill="none" id="VerRespuestasView-to-CrearRespuesta" style="stroke:#181818;stroke-width:1;stroke-dasharray:7,7;"/><polygon fill="#181818" points="908.33,206.4459,901.9895,198.9095,903.8346,204.257,898.4871,206.1021,908.33,206.4459" style="stroke:#181818;stroke-width:1;"/><text fill="#000000" font-family="sans-serif" font-size="13" lengthAdjust="spacing" textLength="112.0742" x="843.5" y="172.6328">crearRespuesta()</text></g><!--link VerRespuestasView to EditarRespuesta--><g class="link" data-entity-1="VerRespuestasView" data-entity-2="EditarRespuesta" data-source-line="37" data-uid="lnk27" id="link_VerRespuestasView_EditarRespuesta"><path d="M794.63,127.5059 C867.54,141.2659 964.5,159.5659 964.5,159.5659 C964.5,159.5659 1067.9575,186.0479 1142.0175,205.0079" fill="none" id="VerRespuestasView-to-EditarRespuesta" style="stroke:#181818;stroke-width:1;stroke-dasharray:7,7;"/><polygon fill="#181818" points="1147.83,206.4959,1140.1032,200.3888,1142.9862,205.2559,1138.1191,208.1389,1147.83,206.4959" style="stroke:#181818;stroke-width:1;"/><text fill="#000000" font-family="sans-serif" font-size="13" lengthAdjust="spacing" textLength="116.543" x="1025.5" y="172.6328">editarRespuesta()</text></g><!--link VerRespuestasView to EliminarRespuesta--><g class="link" data-entity-1="VerRespuestasView" data-entity-2="EliminarRespuesta" data-source-line="38" data-uid="lnk28" id="link_VerRespuestasView_EliminarRespuesta"><path d="M794.53,121.1059 C919.94,134.6559 1150.5,159.5659 1150.5,159.5659 C1150.5,159.5659 1294.9612,186.4385 1396.8712,205.3985" fill="none" id="VerRespuestasView-to-EliminarRespuesta" style="stroke:#181818;stroke-width:1;stroke-dasharray:7,7;"/><polygon fill="#181818" points="1402.77,206.4959,1394.6535,200.9172,1397.8543,205.5814,1393.1902,208.7823,1402.77,206.4959" style="stroke:#181818;stroke-width:1;"/><text fill="#000000" font-family="sans-serif" font-size="13" lengthAdjust="spacing" textLength="131.3203" x="1234.5" y="172.6328">eliminarRespuesta()</text></g><!--link VerRespuestasView to EditarPregunta--><g class="link" data-entity-1="VerRespuestasView" data-entity-2="EditarPregunta" data-source-line="39" data-uid="lnk29" id="link_VerRespuestasView_EditarPregunta"><path d="M794.66,119.1659 C852.01,123.9459 919.5,129.5659 919.5,129.5659 C919.5,129.5659 1374.5,159.5659 1374.5,159.5659 C1374.5,159.5659 1541.4872,186.6263 1658.5072,205.5863" fill="none" id="VerRespuestasView-to-EditarPregunta" style="stroke:#181818;stroke-width:1;stroke-dasharray:7,7;"/><polygon fill="#181818" points="1664.43,206.5459,1656.1856,201.158,1659.4944,205.7462,1654.9061,209.055,1664.43,206.5459" style="stroke:#181818;stroke-width:1;"/><text fill="#000000" font-family="sans-serif" font-size="13" lengthAdjust="spacing" textLength="107.3896" x="1470.5" y="172.6328">editarPregunta()</text></g><!--SRC=[hLJBRi8m4BpxArRf1GxXW0egKOL4qt3geK8LToVP8WjZHxRJ5bNzzvgAl9m4qggvURmpE_jmz9w9Z2fw0Cu4ccE6a4b-F1q8KPWOAdOSuIPyZ1vMC_22PuMxN1WAgvYXCj83gg40prWdSOCwor4xp1AzH2rpXb8O_30vvPtfg-jXHdhaoe2sNaQJFTqXlA4ge_I9upMGqTY3JmBsgncOJnVHUW7RUk2MuRiR5y_YT7vNkT0d6qfoZieDNKzNuMrKXMumavePgOxN8dlkYqwIh-xfXzO6ZQMYXaa1eK9Q5VFJkoOqG2DAcN5576o82cS79bewBZhOJz67cfsoDSJPTl2LlsoFDG1d9OYxwuE9lVlz-zH_bo2j6F1JI-tQqy3-JNHzX5O00dYou7s9BGdfue9V5wqsEW0P6nIeNcGgh-bLD2jNs_hgxLkuccX7QRsLlJ9kLAEqH363Yib_A37ETM9NJQhmh7bPlErxCbawRp20f76se-ocEQyk06m2_KJtcLcg2rt9MeoYI5gSH-Dl]--></g></svg>