<svg xmlns="http://www.w3.org/2000/svg" xmlns:xlink="http://www.w3.org/1999/xlink" contentStyleType="text/css" data-diagram-type="SEQUENCE" height="512px" preserveAspectRatio="none" style="width:903px;height:512px;background:#FFFFFF;" version="1.1" viewBox="0 0 903 512" width="903px" zoomAndPan="magnify"><defs/><g><g><title>.VerRespuestasView</title><rect fill="#FFFFFF" height="145.6641" style="stroke:#181818;stroke-width:1;" width="10" x="225.8857" y="67.4297"/></g><g><title>.RespuestasController</title><rect fill="#FFFFFF" height="87.3984" style="stroke:#181818;stroke-width:1;" width="10" x="416.5942" y="96.5625"/></g><g><title>.RespuestasController</title><rect fill="#FFFFFF" height="87.3984" style="stroke:#181818;stroke-width:1;" width="10" x="416.5942" y="307.625"/></g><g><title>.RespuestaRepository</title><rect fill="#FFFFFF" height="29.1328" style="stroke:#181818;stroke-width:1;" width="10" x="614.7466" y="125.6953"/></g><g><title>.RespuestaRepository</title><rect fill="#FFFFFF" height="29.1328" style="stroke:#181818;stroke-width:1;" width="10" x="614.7466" y="336.7578"/></g><g><title>.Pregunta Abierto</title><rect fill="#000000" fill-opacity="0.00000" height="440.9922" width="8" x="69.7285" y="36.2969"/><line style="stroke:#181818;stroke-width:0.5;stroke-dasharray:5,5;" x1="73" x2="73" y1="36.2969" y2="477.2891"/></g><g><title>.VerRespuestasView</title><rect fill="#000000" fill-opacity="0.00000" height="440.9922" width="8" x="226.8857" y="36.2969"/><line style="stroke:#181818;stroke-width:0.5;stroke-dasharray:5,5;" x1="230.457" x2="230.457" y1="36.2969" y2="477.2891"/></g><g><title>.RespuestasController</title><rect fill="#000000" fill-opacity="0.00000" height="440.9922" width="8" x="417.5942" y="36.2969"/><line style="stroke:#181818;stroke-width:0.5;stroke-dasharray:5,5;" x1="421.3174" x2="421.3174" y1="36.2969" y2="477.2891"/></g><g><title>.RespuestaRepository</title><rect fill="#000000" fill-opacity="0.00000" height="440.9922" width="8" x="615.7466" y="36.2969"/><line style="stroke:#181818;stroke-width:0.5;stroke-dasharray:5,5;" x1="619.167" x2="619.167" y1="36.2969" y2="477.2891"/></g><g><title>.Respuesta</title><rect fill="#000000" fill-opacity="0.00000" height="440.9922" width="8" x="755.3696" y="36.2969"/><line style="stroke:#181818;stroke-width:0.5;stroke-dasharray:5,5;" x1="759.3262" x2="759.3262" y1="36.2969" y2="477.2891"/></g><g><title>.Pregunta</title><rect fill="#000000" fill-opacity="0.00000" height="440.9922" width="8" x="852.5278" y="36.2969"/><line style="stroke:#181818;stroke-width:0.5;stroke-dasharray:5,5;" x1="856.4131" x2="856.4131" y1="36.2969" y2="477.2891"/></g><g class="participant participant-head" data-participant="PreguntaState"><rect fill="#E2E2F0" height="30.2969" rx="2.5" ry="2.5" style="stroke:#181818;stroke-width:0.5;" width="137.457" x="5" y="5"/><text fill="#000000" font-family="sans-serif" font-size="14" lengthAdjust="spacing" textLength="123.457" x="12" y="24.9951">:Pregunta Abierto</text></g><g class="participant participant-tail" data-participant="PreguntaState"><rect fill="#E2E2F0" height="30.2969" rx="2.5" ry="2.5" style="stroke:#181818;stroke-width:0.5;" width="137.457" x="5" y="476.2891"/><text fill="#000000" font-family="sans-serif" font-size="14" lengthAdjust="spacing" textLength="123.457" x="12" y="496.2842">:Pregunta Abierto</text></g><g class="participant participant-head" data-participant="View"><rect fill="#E2E2F0" height="30.2969" rx="2.5" ry="2.5" style="stroke:#181818;stroke-width:0.5;" width="156.8574" x="152.457" y="5"/><text fill="#000000" font-family="sans-serif" font-size="14" lengthAdjust="spacing" textLength="142.8574" x="159.457" y="24.9951">:VerRespuestasView</text></g><g class="participant participant-tail" data-participant="View"><rect fill="#E2E2F0" height="30.2969" rx="2.5" ry="2.5" style="stroke:#181818;stroke-width:0.5;" width="156.8574" x="152.457" y="476.2891"/><text fill="#000000" font-family="sans-serif" font-size="14" lengthAdjust="spacing" textLength="142.8574" x="159.457" y="496.2842">:VerRespuestasView</text></g><g class="participant participant-head" data-participant="Controller"><rect fill="#E2E2F0" height="30.2969" rx="2.5" ry="2.5" style="stroke:#181818;stroke-width:0.5;" width="168.5537" x="337.3174" y="5"/><text fill="#000000" font-family="sans-serif" font-size="14" lengthAdjust="spacing" textLength="154.5537" x="344.3174" y="24.9951">:RespuestasController</text></g><g class="participant participant-tail" data-participant="Controller"><rect fill="#E2E2F0" height="30.2969" rx="2.5" ry="2.5" style="stroke:#181818;stroke-width:0.5;" width="168.5537" x="337.3174" y="476.2891"/><text fill="#000000" font-family="sans-serif" font-size="14" lengthAdjust="spacing" textLength="154.5537" x="344.3174" y="496.2842">:RespuestasController</text></g><g class="participant participant-head" data-participant="Repository"><rect fill="#E2E2F0" height="30.2969" rx="2.5" ry="2.5" style="stroke:#181818;stroke-width:0.5;" width="167.1592" x="536.167" y="5"/><text fill="#000000" font-family="sans-serif" font-size="14" lengthAdjust="spacing" textLength="153.1592" x="543.167" y="24.9951">:RespuestaRepository</text></g><g class="participant participant-tail" data-participant="Repository"><rect fill="#E2E2F0" height="30.2969" rx="2.5" ry="2.5" style="stroke:#181818;stroke-width:0.5;" width="167.1592" x="536.167" y="476.2891"/><text fill="#000000" font-family="sans-serif" font-size="14" lengthAdjust="spacing" textLength="153.1592" x="543.167" y="496.2842">:RespuestaRepository</text></g><g class="participant participant-head" data-participant="Entity"><rect fill="#E2E2F0" height="30.2969" rx="2.5" ry="2.5" style="stroke:#181818;stroke-width:0.5;" width="92.0869" x="713.3262" y="5"/><text fill="#000000" font-family="sans-serif" font-size="14" lengthAdjust="spacing" textLength="78.0869" x="720.3262" y="24.9951">:Respuesta</text></g><g class="participant participant-tail" data-participant="Entity"><rect fill="#E2E2F0" height="30.2969" rx="2.5" ry="2.5" style="stroke:#181818;stroke-width:0.5;" width="92.0869" x="713.3262" y="476.2891"/><text fill="#000000" font-family="sans-serif" font-size="14" lengthAdjust="spacing" textLength="78.0869" x="720.3262" y="496.2842">:Respuesta</text></g><g class="participant participant-head" data-participant="Pregunta"><rect fill="#E2E2F0" height="30.2969" rx="2.5" ry="2.5" style="stroke:#181818;stroke-width:0.5;" width="82.2295" x="815.4131" y="5"/><text fill="#000000" font-family="sans-serif" font-size="14" lengthAdjust="spacing" textLength="68.2295" x="822.4131" y="24.9951">:Pregunta</text></g><g class="participant participant-tail" data-participant="Pregunta"><rect fill="#E2E2F0" height="30.2969" rx="2.5" ry="2.5" style="stroke:#181818;stroke-width:0.5;" width="82.2295" x="815.4131" y="476.2891"/><text fill="#000000" font-family="sans-serif" font-size="14" lengthAdjust="spacing" textLength="68.2295" x="822.4131" y="496.2842">:Pregunta</text></g><g><title>.VerRespuestasView</title><rect fill="#FFFFFF" height="145.6641" style="stroke:#181818;stroke-width:1;" width="10" x="225.8857" y="67.4297"/></g><g><title>.RespuestasController</title><rect fill="#FFFFFF" height="87.3984" style="stroke:#181818;stroke-width:1;" width="10" x="416.5942" y="96.5625"/></g><g><title>.RespuestasController</title><rect fill="#FFFFFF" height="87.3984" style="stroke:#181818;stroke-width:1;" width="10" x="416.5942" y="307.625"/></g><g><title>.RespuestaRepository</title><rect fill="#FFFFFF" height="29.1328" style="stroke:#181818;stroke-width:1;" width="10" x="614.7466" y="125.6953"/></g><g><title>.RespuestaRepository</title><rect fill="#FFFFFF" height="29.1328" style="stroke:#181818;stroke-width:1;" width="10" x="614.7466" y="336.7578"/></g><g class="message" data-participant-1="PreguntaState" data-participant-2="View"><polygon fill="#181818" points="213.8857,63.4297,223.8857,67.4297,213.8857,71.4297,217.8857,67.4297" style="stroke:#181818;stroke-width:1;"/><line style="stroke:#181818;stroke-width:1;" x1="73.7285" x2="219.8857" y1="67.4297" y2="67.4297"/><text fill="#000000" font-family="sans-serif" font-size="13" lengthAdjust="spacing" textLength="106.082" x="80.7285" y="62.3638">verRespuestas()</text></g><g class="message" data-participant-1="View" data-participant-2="Controller"><polygon fill="#181818" points="404.5942,92.5625,414.5942,96.5625,404.5942,100.5625,408.5942,96.5625" style="stroke:#181818;stroke-width:1;"/><line style="stroke:#181818;stroke-width:1;" x1="235.8857" x2="410.5942" y1="96.5625" y2="96.5625"/><text fill="#000000" font-family="sans-serif" font-size="13" lengthAdjust="spacing" textLength="117.4507" x="242.8857" y="91.4966">listarRespuestas()</text></g><g class="message" data-participant-1="Controller" data-participant-2="Repository"><polygon fill="#181818" points="602.7466,121.6953,612.7466,125.6953,602.7466,129.6953,606.7466,125.6953" style="stroke:#181818;stroke-width:1;"/><line style="stroke:#181818;stroke-width:1;" x1="426.5942" x2="608.7466" y1="125.6953" y2="125.6953"/><text fill="#000000" font-family="sans-serif" font-size="13" lengthAdjust="spacing" textLength="99.8994" x="433.5942" y="120.6294">obtenerTodos()</text></g><g class="message" data-participant-1="Repository" data-participant-2="Entity"><polygon fill="#181818" points="747.3696,150.8281,757.3696,154.8281,747.3696,158.8281,751.3696,154.8281" style="stroke:#181818;stroke-width:1;"/><line style="stroke:#181818;stroke-width:1;" x1="619.7466" x2="753.3696" y1="154.8281" y2="154.8281"/><text fill="#000000" font-family="sans-serif" font-size="13" lengthAdjust="spacing" textLength="96.5859" x="626.7466" y="149.7622">crear instancia</text></g><g class="message" data-participant-1="Repository" data-participant-2="Controller"><polygon fill="#181818" points="432.5942,179.9609,422.5942,183.9609,432.5942,187.9609,428.5942,183.9609" style="stroke:#181818;stroke-width:1;"/><line style="stroke:#181818;stroke-width:1;" x1="426.5942" x2="618.7466" y1="183.9609" y2="183.9609"/><text fill="#000000" font-family="sans-serif" font-size="13" lengthAdjust="spacing" textLength="112.6392" x="438.5942" y="178.895">List&lt;Respuesta&gt;</text></g><g class="message" data-participant-1="Controller" data-participant-2="View"><polygon fill="#181818" points="241.8857,209.0938,231.8857,213.0938,241.8857,217.0938,237.8857,213.0938" style="stroke:#181818;stroke-width:1;"/><line style="stroke:#181818;stroke-width:1;" x1="235.8857" x2="420.5942" y1="213.0938" y2="213.0938"/><text fill="#000000" font-family="sans-serif" font-size="13" lengthAdjust="spacing" textLength="112.6392" x="247.8857" y="208.0278">List&lt;Respuesta&gt;</text></g><path d="M126,226.0938 L126,281.0938 L335,281.0938 L335,236.0938 L325,226.0938 L126,226.0938" fill="#FEFFDD" style="stroke:#181818;stroke-width:0.5;"/><path d="M325,226.0938 L325,236.0938 L335,236.0938 L325,226.0938" fill="#FEFFDD" style="stroke:#181818;stroke-width:0.5;"/><text fill="#000000" font-family="sans-serif" font-size="13" lengthAdjust="spacing" textLength="188.5571" x="132" y="243.1606">Presenta lista de respuestas:</text><text fill="#000000" font-family="sans-serif" font-size="13" lengthAdjust="spacing" textLength="141.3179" x="132" y="258.2935">&#8226; Opci&#243;n, correctness</text><text fill="#000000" font-family="sans-serif" font-size="13" lengthAdjust="spacing" textLength="133.231" x="132" y="273.4263">&#8226; Permite filtrar lista</text><g class="message" data-participant-1="View" data-participant-2="Controller"><polygon fill="#181818" points="404.5942,303.625,414.5942,307.625,404.5942,311.625,408.5942,307.625" style="stroke:#181818;stroke-width:1;"/><line style="stroke:#181818;stroke-width:1;" x1="230.8857" x2="410.5942" y1="307.625" y2="307.625"/><text fill="#000000" font-family="sans-serif" font-size="13" lengthAdjust="spacing" textLength="166.7085" x="237.8857" y="302.5591">filtrarRespuestas(criterio)</text></g><g class="message" data-participant-1="Controller" data-participant-2="Repository"><polygon fill="#181818" points="602.7466,332.7578,612.7466,336.7578,602.7466,340.7578,606.7466,336.7578" style="stroke:#181818;stroke-width:1;"/><line style="stroke:#181818;stroke-width:1;" x1="426.5942" x2="608.7466" y1="336.7578" y2="336.7578"/><text fill="#000000" font-family="sans-serif" font-size="13" lengthAdjust="spacing" textLength="169.1523" x="433.5942" y="331.6919">buscarPorCriterio(criterio)</text></g><g class="message" data-participant-1="Repository" data-participant-2="Entity"><polygon fill="#181818" points="747.3696,361.8906,757.3696,365.8906,747.3696,369.8906,751.3696,365.8906" style="stroke:#181818;stroke-width:1;"/><line style="stroke:#181818;stroke-width:1;" x1="619.7466" x2="753.3696" y1="365.8906" y2="365.8906"/><text fill="#000000" font-family="sans-serif" font-size="13" lengthAdjust="spacing" textLength="96.5859" x="626.7466" y="360.8247">crear instancia</text></g><g class="message" data-participant-1="Repository" data-participant-2="Controller"><polygon fill="#181818" points="432.5942,391.0234,422.5942,395.0234,432.5942,399.0234,428.5942,395.0234" style="stroke:#181818;stroke-width:1;"/><line style="stroke:#181818;stroke-width:1;" x1="426.5942" x2="618.7466" y1="395.0234" y2="395.0234"/><text fill="#000000" font-family="sans-serif" font-size="13" lengthAdjust="spacing" textLength="112.6392" x="438.5942" y="389.9575">List&lt;Respuesta&gt;</text></g><g class="message" data-participant-1="Controller" data-participant-2="View"><polygon fill="#181818" points="241.8857,420.1563,231.8857,424.1563,241.8857,428.1563,237.8857,424.1563" style="stroke:#181818;stroke-width:1;"/><line style="stroke:#181818;stroke-width:1;" x1="235.8857" x2="420.5942" y1="424.1563" y2="424.1563"/><text fill="#000000" font-family="sans-serif" font-size="13" lengthAdjust="spacing" textLength="112.6392" x="247.8857" y="419.0903">List&lt;Respuesta&gt;</text></g><path d="M150,437.1563 L150,462.1563 L310,462.1563 L310,447.1563 L300,437.1563 L150,437.1563" fill="#FEFFDD" style="stroke:#181818;stroke-width:0.5;"/><path d="M300,437.1563 L300,447.1563 L310,447.1563 L300,437.1563" fill="#FEFFDD" style="stroke:#181818;stroke-width:0.5;"/><text fill="#000000" font-family="sans-serif" font-size="13" lengthAdjust="spacing" textLength="139.0073" x="156" y="454.2231">Presenta lista filtrada</text><!--SRC=[rL91JiCm4Bpx5QkUGA8VYAfAgEA6H5LGxwwpe1Mf7QstHRdn5hx04_W9By5sIkrKJIMENA9TUsRMCnl_IhRLhBVGa4NfMeJMDLrib0eNGePQRGKcrPBnPMT5m-s6aCLDG7luFNmKBNX2M2ElqBSxzABzcl0jCM9n0ioeXRF2hccG4pQtOumLjiwJEEuI8RTZX0IxiqBIZVWR-59gu12cysIWWdrfxkfQQIEqZuZaJyLl16S7LKWuO4TOXLELwwYGBLNWDe8M-SdLRi0kRAjSHtRlj0B3g1d8XhdMa5OrdYKNesVJmUZxyFZPyUtpKg1yU_8TgANl2zG-BEj2wKAYVHyIznX_j1GOr0XypAnIt-yVyD0Q-lgqDs0SCngnw7swM29lAOWzKoCS32S5XRQ6EEFyMWxOOY-6WmQJ-_D-DZjlD2yTBmuAvwJ-xR9AwkMLzP7MEVaV]--></g></svg>