<?plantuml 1.2026.2?><svg xmlns="http://www.w3.org/2000/svg" xmlns:xlink="http://www.w3.org/1999/xlink" contentStyleType="text/css" data-diagram-type="DESCRIPTION" height="523px" preserveAspectRatio="none" style="width:1166px;height:523px;background:#FFFFFF;" version="1.1" viewBox="0 0 1166 523" width="1166px" zoomAndPan="magnify"><defs/><g><!--cluster asignarExamenes--><g class="cluster" data-qualified-name="asignarExamenes" data-source-line="8" id="ent0006"><path d="M226.5,106 L379.1348,106 A3.75,3.75 0 0 1 381.6348,108.5 L388.6348,128.2969 L1156.5,128.2969 A2.5,2.5 0 0 1 1159,130.7969 L1159,513.5 A2.5,2.5 0 0 1 1156.5,516 L226.5,516 A2.5,2.5 0 0 1 224,513.5 L224,108.5 A2.5,2.5 0 0 1 226.5,106" fill="none" style="stroke:#000000;stroke-width:1.5;"/><line style="stroke:#000000;stroke-width:1.5;" x1="224" x2="388.6348" y1="128.2969" y2="128.2969"/><text fill="#000000" font-family="sans-serif" font-size="14" font-weight="bold" lengthAdjust="spacing" textLength="151.6348" x="228" y="120.9951">asignarExamenes()</text></g><!--entity AsignarExamenesView--><g class="entity" data-qualified-name="asignarExamenes.AsignarExamenesView" data-source-line="9" id="ent0007"><rect fill="#629EF9" height="36.2969" rx="2.5" ry="2.5" style="stroke:#181818;stroke-width:0.5;" width="179.127" x="465.5" y="141"/><text fill="#000000" font-family="sans-serif" font-size="14" lengthAdjust="spacing" textLength="159.127" x="475.5" y="163.9951">AsignarExamenesView</text></g><!--entity ExamenesController--><g class="entity" data-qualified-name="asignarExamenes.ExamenesController" data-source-line="10" id="ent0008"><rect fill="#B5BD68" height="36.2969" rx="2.5" ry="2.5" style="stroke:#181818;stroke-width:0.5;" width="161.9141" x="472" y="254"/><text fill="#000000" font-family="sans-serif" font-size="14" lengthAdjust="spacing" textLength="141.9141" x="482" y="276.9951">ExamenesController</text></g><!--entity ExamenRepository--><g class="entity" data-qualified-name="asignarExamenes.ExamenRepository" data-source-line="11" id="ent0009"><rect fill="#F2AC4E" height="36.2969" rx="2.5" ry="2.5" style="stroke:#181818;stroke-width:0.5;" width="151.9063" x="519" y="367"/><text fill="#000000" font-family="sans-serif" font-size="14" lengthAdjust="spacing" textLength="131.9063" x="529" y="389.9951">ExamenRepository</text></g><!--entity Examen--><g class="entity" data-qualified-name="asignarExamenes.Examen" data-source-line="12" id="ent0010"><rect fill="#F2AC4E" height="36.2969" rx="2.5" ry="2.5" style="stroke:#181818;stroke-width:0.5;" width="76.834" x="446.5" y="464"/><text fill="#000000" font-family="sans-serif" font-size="14" lengthAdjust="spacing" textLength="56.834" x="456.5" y="486.9951">Examen</text></g><!--entity Alumno--><g class="entity" data-qualified-name="asignarExamenes.Alumno" data-source-line="13" id="ent0011"><rect fill="#F2AC4E" height="36.2969" rx="2.5" ry="2.5" style="stroke:#181818;stroke-width:0.5;" width="73.416" x="558.5" y="464"/><text fill="#000000" font-family="sans-serif" font-size="14" lengthAdjust="spacing" textLength="53.416" x="568.5" y="486.9951">Alumno</text></g><!--entity Grado--><g class="entity" data-qualified-name="asignarExamenes.Grado" data-source-line="14" id="ent0012"><rect fill="#F2AC4E" height="36.2969" rx="2.5" ry="2.5" style="stroke:#181818;stroke-width:0.5;" width="62.6357" x="666.5" y="464"/><text fill="#000000" font-family="sans-serif" font-size="14" lengthAdjust="spacing" textLength="42.6357" x="676.5" y="486.9951">Grado</text></g><!--entity ExamGenerados--><g class="entity" data-qualified-name="ExamGenerados" data-source-line="3" id="ent0002"><rect fill="#CDEBA5" height="36.2969" rx="2.5" ry="2.5" style="stroke:#181818;stroke-width:0.5;" width="197.8643" x="7" y="7"/><text fill="#000000" font-family="sans-serif" font-size="14" lengthAdjust="spacing" textLength="177.8643" x="17" y="29.9951">:EXAMENES_GENERADOS</text></g><!--entity ExamGeneradosContext--><g class="entity" data-qualified-name="ExamGeneradosContext" data-source-line="4" id="ent0003"><rect fill="#CDEBA5" height="36.2969" rx="2.5" ry="2.5" style="stroke:#181818;stroke-width:0.5;" width="317.0283" x="251.5" y="7"/><text fill="#000000" font-family="sans-serif" font-size="14" lengthAdjust="spacing" textLength="297.0283" x="261.5" y="29.9951">:EXAMENES_GENERADOS_CONTEXTUALES</text></g><!--entity ExamAsignados--><g class="entity" data-qualified-name="ExamAsignados" data-source-line="5" id="ent0004"><rect fill="#CDEBA5" height="36.2969" rx="2.5" ry="2.5" style="stroke:#181818;stroke-width:0.5;" width="193.0381" x="603.5" y="7"/><text fill="#000000" font-family="sans-serif" font-size="14" lengthAdjust="spacing" textLength="173.0381" x="613.5" y="29.9951">:EXAMENES_ASIGNADOS</text></g><!--entity ExamAsignadosContext--><g class="entity" data-qualified-name="ExamAsignadosContext" data-source-line="6" id="ent0005"><rect fill="#CDEBA5" height="36.2969" rx="2.5" ry="2.5" style="stroke:#181818;stroke-width:0.5;" width="312.2021" x="832" y="7"/><text fill="#000000" font-family="sans-serif" font-size="14" lengthAdjust="spacing" textLength="292.2021" x="842" y="29.9951">:EXAMENES_ASIGNADOS_CONTEXTUALES</text></g><!--link ExamGenerados to AsignarExamenesView--><g class="link" data-entity-1="ent0002" data-entity-2="ent0007" data-link-type="dependency" data-source-line="17" id="lnk13"><path d="M114.04,43.15 C122.93,62.11 136,90 136,90 C136,90 336.3675,122.5191 459.4475,142.4891" fill="none" id="ExamGenerados-to-AsignarExamenesView" style="stroke:#181818;stroke-width:1;"/><polygon fill="#181818" points="465.37,143.45,457.1268,138.0602,460.4345,142.6492,455.8455,145.9569,465.37,143.45" style="stroke:#181818;stroke-width:1;"/><text fill="#000000" font-family="sans-serif" font-size="13" lengthAdjust="spacing" textLength="263.7705" x="137" y="86.0669">asignarExamenes(examenesGenerados)</text></g><!--link ExamGeneradosContext to AsignarExamenesView--><g class="link" data-entity-1="ent0003" data-entity-2="ent0007" data-link-type="dependency" data-source-line="18" id="lnk14"><path d="M409.63,43.23 C409.35,56.65 409,73 409,73 C409,73 409,90 409,90 C409,90 469.4708,118.1672 512.7208,138.3072" fill="none" id="ExamGeneradosContext-to-AsignarExamenesView" style="stroke:#181818;stroke-width:1;"/><polygon fill="#181818" points="518.16,140.84,511.6898,133.4146,513.6273,138.7293,508.3127,140.6669,518.16,140.84" style="stroke:#181818;stroke-width:1;"/><text fill="#000000" font-family="sans-serif" font-size="13" lengthAdjust="spacing" textLength="263.7705" x="410" y="86.0669">asignarExamenes(examenesGenerados)</text></g><!--link AsignarExamenesView to ExamenesController--><g class="link" data-entity-1="ent0007" data-entity-2="ent0008" data-link-type="dependency" data-source-line="20" id="lnk15"><path d="M465.13,175.19 C383.9,188.93 277,207 277,207 C277,207 277,224 277,224 C277,224 384.3551,242.283 465.7651,256.143" fill="none" id="AsignarExamenesView-to-ExamenesController" style="stroke:#181818;stroke-width:1;"/><polygon fill="#181818" points="471.68,257.15,463.479,251.6962,466.7509,256.3108,462.1363,259.5828,471.68,257.15" style="stroke:#181818;stroke-width:1;"/><text fill="#000000" font-family="sans-serif" font-size="13" lengthAdjust="spacing" textLength="463.4995" x="278" y="220.0669">obtenerAlumnosPorGrado(asignaturaId) : Map&lt;Grado, List&lt;Alumno&gt;&gt;</text></g><!--link AsignarExamenesView to ExamenesController--><g class="link" data-entity-1="ent0007" data-entity-2="ent0008" data-link-type="dependency" data-source-line="25" id="lnk19"><path d="M624.23,177.03 C678.89,190.49 746,207 746,207 C746,207 746,224 746,224 C746,224 684.0094,239.0893 628.7794,252.5493" fill="none" id="AsignarExamenesView-to-ExamenesController-1" style="stroke:#181818;stroke-width:1;"/><polygon fill="#181818" points="622.95,253.97,632.6412,255.7253,627.8078,252.7861,630.747,247.9527,622.95,253.97" style="stroke:#181818;stroke-width:1;"/><text fill="#000000" font-family="sans-serif" font-size="13" lengthAdjust="spacing" textLength="350.5874" x="747" y="220.0669">asignarExamenes(examenes, asignaciones) : boolean</text></g><!--link ExamenesController to ExamenRepository--><g class="link" data-entity-1="ent0008" data-entity-2="ent0009" data-link-type="dependency" data-source-line="21" id="lnk16"><path d="M471.72,286.59 C388.73,300.48 272,320 272,320 C272,320 272,337 272,337 C272,337 417.4325,358.1663 512.9225,372.0563" fill="none" id="ExamenesController-to-ExamenRepository" style="stroke:#181818;stroke-width:1;"/><polygon fill="#181818" points="518.86,372.92,510.5295,367.6661,513.9121,372.2003,509.3779,375.5828,518.86,372.92" style="stroke:#181818;stroke-width:1;"/><text fill="#000000" font-family="sans-serif" font-size="13" lengthAdjust="spacing" textLength="485.9512" x="273" y="333.0669">obtenerAlumnosMatriculados(asignaturaId) : Map&lt;Grado, List&lt;Alumno&gt;&gt;</text></g><!--link ExamenesController to ExamenRepository--><g class="link" data-entity-1="ent0008" data-entity-2="ent0009" data-link-type="dependency" data-source-line="26" id="lnk20"><path d="M629.11,290.03 C689.21,303.49 763,320 763,320 C763,320 763,337 763,337 C763,337 709.938,351.8432 661.908,365.2832" fill="none" id="ExamenesController-to-ExamenRepository-1" style="stroke:#181818;stroke-width:1;"/><polygon fill="#181818" points="656.13,366.9,665.875,368.3268,660.945,365.5526,663.7192,360.6227,656.13,366.9" style="stroke:#181818;stroke-width:1;"/><text fill="#000000" font-family="sans-serif" font-size="13" lengthAdjust="spacing" textLength="339.4155" x="764" y="333.0669">asignarAlumnos(examenes, asignaciones) : boolean</text></g><!--link ExamenRepository to Alumno--><g class="link" data-entity-1="ent0009" data-entity-2="ent0011" data-link-type="association" data-source-line="22" id="lnk17"><path d="M595,403.42 C595,420.57 595,446.58 595,463.69" fill="none" id="ExamenRepository-Alumno" style="stroke:#181818;stroke-width:1;"/></g><!--link ExamenRepository to Grado--><g class="link" data-entity-1="ent0009" data-entity-2="ent0012" data-link-type="association" data-source-line="23" id="lnk18"><path d="M613.89,403.42 C632.48,420.57 660.68,446.58 679.23,463.69" fill="none" id="ExamenRepository-Grado" style="stroke:#181818;stroke-width:1;"/></g><!--link ExamenRepository to Examen--><g class="link" data-entity-1="ent0009" data-entity-2="ent0010" data-link-type="association" data-source-line="27" id="lnk21"><path d="M575.08,403.2 C555.14,420.42 524.66,446.75 504.77,463.92" fill="none" id="ExamenRepository-Examen" style="stroke:#181818;stroke-width:1;"/></g><!--reverse link ExamAsignados to AsignarExamenesView--><g class="link" data-entity-1="ent0004" data-entity-2="ent0007" data-link-type="dependency" data-source-line="29" id="lnk22"><path d="M692.1515,48.8248 C685.6415,67.7848 678,90 678,90 C678,90 622.48,120.7 586.04,140.84" fill="none" id="ExamAsignados-backto-AsignarExamenesView" style="stroke:#181818;stroke-width:1;"/><polygon fill="#181818" points="694.1,43.15,687.3941,50.3632,692.4763,47.879,694.9605,52.9612,694.1,43.15" style="stroke:#181818;stroke-width:1;"/></g><!--reverse link ExamAsignadosContext to AsignarExamenesView--><g class="link" data-entity-1="ent0005" data-entity-2="ent0007" data-link-type="dependency" data-source-line="30" id="lnk23"><path d="M926.1007,44.8694 C843.0307,70.1894 694.07,115.6 611.06,140.91" fill="none" id="ExamAsignadosContext-backto-AsignarExamenesView" style="stroke:#181818;stroke-width:1;"/><polygon fill="#181818" points="931.84,43.12,922.0648,41.9178,927.0572,44.5778,924.3973,49.5703,931.84,43.12" style="stroke:#181818;stroke-width:1;"/></g><?plantuml-src fLDTQy8m57tFhxXqBmhw8bDc4I6hiGX-37N3DqdR8CNQb2GoPUo_hx7LhJLrZlMXDBddddlkkRro6yO95NG7KHWpTKmO93mwwWD2WlcAnfk8mOCp8C-u3PPDLdX2fcInTjFt70zc2mke17AWEvV5JD20opiJryvikYIhvIiU4mEBmsF53kes6LwCt6b11PRX9lvTnINHhEB2SbQ14kflwOQb01qH6fGgbJh1AjtLwXPy84YV7n8whIuPTW4NeMyXUoyZlRONT9xW3D4A18yY9ih0OGixZoG7pbd2PQYuEDw4LGHnjD_5l2BewdcWJuGAyu5ciszgnovRL6FvnoMrZaoJ_XSXCYH2CqWPhtsqWNjAfsPTonSkJYtMiZfgB-Weg8CD4vhqJf46Z4EfUXc-tqVNd2VnvKcK2qse4g6_ZxJalnRxParBdUTb2cNJCljHOKULluqyueSyFMcH7kSHe_7z1kJKkG5tCnTRodzTLDXCw6aV3Ejasjygy1S0?></g></svg>