<?plantuml 1.2026.2?><svg xmlns="http://www.w3.org/2000/svg" xmlns:xlink="http://www.w3.org/1999/xlink" contentStyleType="text/css" data-diagram-type="DESCRIPTION" height="429px" preserveAspectRatio="none" style="width:2017px;height:429px;background:#FFFFFF;" version="1.1" viewBox="0 0 2017 429" width="2017px" zoomAndPan="magnify"><defs/><g><!--cluster asignarExamenes--><g class="cluster" data-qualified-name="asignarExamenes" data-source-line="8" id="ent0006"><path d="M321.5,106 L474.1348,106 A3.75,3.75 0 0 1 476.6348,108.5 L483.6348,128.2969 L2007.5,128.2969 A2.5,2.5 0 0 1 2010,130.7969 L2010,419.5 A2.5,2.5 0 0 1 2007.5,422 L321.5,422 A2.5,2.5 0 0 1 319,419.5 L319,108.5 A2.5,2.5 0 0 1 321.5,106" fill="none" style="stroke:#000000;stroke-width:1.5;"/><line style="stroke:#000000;stroke-width:1.5;" x1="319" x2="483.6348" y1="128.2969" y2="128.2969"/><text fill="#000000" font-family="sans-serif" font-size="14" font-weight="bold" lengthAdjust="spacing" textLength="151.6348" x="323" y="120.9951">asignarExamenes()</text></g><!--entity AsignarExamenesView--><g class="entity" data-qualified-name="asignarExamenes.AsignarExamenesView" data-source-line="9" id="ent0007"><rect fill="#629EF9" height="36.2969" rx="2.5" ry="2.5" style="stroke:#181818;stroke-width:0.5;" width="179.127" x="466.5" y="160"/><text fill="#000000" font-family="sans-serif" font-size="14" lengthAdjust="spacing" textLength="159.127" x="476.5" y="182.9951">AsignarExamenesView</text></g><!--entity ExamenesController--><g class="entity" data-qualified-name="asignarExamenes.ExamenesController" data-source-line="10" id="ent0008"><rect fill="#B5BD68" height="36.2969" rx="2.5" ry="2.5" style="stroke:#181818;stroke-width:0.5;" width="161.9141" x="335" y="273"/><text fill="#000000" font-family="sans-serif" font-size="14" lengthAdjust="spacing" textLength="141.9141" x="345" y="295.9951">ExamenesController</text></g><!--entity GestorExamen--><g class="entity" data-qualified-name="asignarExamenes.GestorExamen" data-source-line="11" id="ent0009"><rect fill="#F2AC4E" height="36.2969" rx="2.5" ry="2.5" style="stroke:#181818;stroke-width:0.5;" width="123.4004" x="759.5" y="273"/><text fill="#000000" font-family="sans-serif" font-size="14" lengthAdjust="spacing" textLength="103.4004" x="769.5" y="295.9951">GestorExamen</text></g><!--entity GestorAlumnos--><g class="entity" data-qualified-name="asignarExamenes.GestorAlumnos" data-source-line="12" id="ent0010"><rect fill="#F2AC4E" height="36.2969" rx="2.5" ry="2.5" style="stroke:#181818;stroke-width:0.5;" width="127.2764" x="1866.5" y="273"/><text fill="#000000" font-family="sans-serif" font-size="14" lengthAdjust="spacing" textLength="107.2764" x="1876.5" y="295.9951">GestorAlumnos</text></g><!--entity Examen--><g class="entity" data-qualified-name="asignarExamenes.Examen" data-source-line="13" id="ent0011"><rect fill="#F2AC4E" height="36.2969" rx="2.5" ry="2.5" style="stroke:#181818;stroke-width:0.5;" width="76.834" x="1746.5" y="273"/><text fill="#000000" font-family="sans-serif" font-size="14" lengthAdjust="spacing" textLength="56.834" x="1756.5" y="295.9951">Examen</text></g><!--entity Grado--><g class="entity" data-qualified-name="asignarExamenes.Grado" data-source-line="14" id="ent0012"><rect fill="#F2AC4E" height="36.2969" rx="2.5" ry="2.5" style="stroke:#181818;stroke-width:0.5;" width="62.6357" x="1807.5" y="370"/><text fill="#000000" font-family="sans-serif" font-size="14" lengthAdjust="spacing" textLength="42.6357" x="1817.5" y="392.9951">Grado</text></g><!--entity Alumno--><g class="entity" data-qualified-name="asignarExamenes.Alumno" data-source-line="15" id="ent0013"><rect fill="#F2AC4E" height="36.2969" rx="2.5" ry="2.5" style="stroke:#181818;stroke-width:0.5;" width="73.416" x="1913.5" y="370"/><text fill="#000000" font-family="sans-serif" font-size="14" lengthAdjust="spacing" textLength="53.416" x="1923.5" y="392.9951">Alumno</text></g><!--entity ExamGenerados--><g class="entity" data-qualified-name="ExamGenerados" data-source-line="3" id="ent0002"><rect fill="#CDEBA5" height="36.2969" rx="2.5" ry="2.5" style="stroke:#181818;stroke-width:0.5;" width="197.8643" x="7" y="7"/><text fill="#000000" font-family="sans-serif" font-size="14" lengthAdjust="spacing" textLength="177.8643" x="17" y="29.9951">:EXAMENES_GENERADOS</text></g><!--entity ExamGeneradosContext--><g class="entity" data-qualified-name="ExamGeneradosContext" data-source-line="4" id="ent0003"><rect fill="#CDEBA5" height="36.2969" rx="2.5" ry="2.5" style="stroke:#181818;stroke-width:0.5;" width="317.0283" x="248.5" y="7"/><text fill="#000000" font-family="sans-serif" font-size="14" lengthAdjust="spacing" textLength="297.0283" x="258.5" y="29.9951">:EXAMENES_GENERADOS_CONTEXTUALES</text></g><!--entity ExamAsignados--><g class="entity" data-qualified-name="ExamAsignados" data-source-line="5" id="ent0004"><rect fill="#CDEBA5" height="36.2969" rx="2.5" ry="2.5" style="stroke:#181818;stroke-width:0.5;" width="193.0381" x="608.5" y="7"/><text fill="#000000" font-family="sans-serif" font-size="14" lengthAdjust="spacing" textLength="173.0381" x="618.5" y="29.9951">:EXAMENES_ASIGNADOS</text></g><!--entity ExamAsignadosContext--><g class="entity" data-qualified-name="ExamAsignadosContext" data-source-line="6" id="ent0005"><rect fill="#CDEBA5" height="36.2969" rx="2.5" ry="2.5" style="stroke:#181818;stroke-width:0.5;" width="312.2021" x="845" y="7"/><text fill="#000000" font-family="sans-serif" font-size="14" lengthAdjust="spacing" textLength="292.2021" x="855" y="29.9951">:EXAMENES_ASIGNADOS_CONTEXTUALES</text></g><!--link ExamGenerados to AsignarExamenesView--><g class="link" data-entity-1="ent0002" data-entity-2="ent0007" data-link-type="dependency" data-source-line="18" id="lnk14"><path d="M156.75,43.03 C243.29,72.07 412.7619,128.9308 499.4019,158.0108" fill="none" id="ExamGenerados-to-AsignarExamenesView" style="stroke:#181818;stroke-width:1;"/><polygon fill="#181818" points="505.09,159.92,497.8306,153.2641,500.3499,158.329,495.285,160.8483,505.09,159.92" style="stroke:#181818;stroke-width:1;"/><text fill="#000000" font-family="sans-serif" font-size="13" lengthAdjust="spacing" textLength="125.8423" x="292" y="86.0669">asignarExamenes()</text></g><!--link ExamGeneradosContext to AsignarExamenesView--><g class="link" data-entity-1="ent0003" data-entity-2="ent0007" data-link-type="dependency" data-source-line="19" id="lnk15"><path d="M423.8,43.03 C452.42,72.03 506.0853,126.4196 534.8153,155.5296" fill="none" id="ExamGeneradosContext-to-AsignarExamenesView" style="stroke:#181818;stroke-width:1;"/><polygon fill="#181818" points="539.03,159.8,535.5549,150.5846,535.5178,156.2413,529.861,156.2042,539.03,159.8" style="stroke:#181818;stroke-width:1;"/><text fill="#000000" font-family="sans-serif" font-size="13" lengthAdjust="spacing" textLength="125.8423" x="470" y="86.0669">asignarExamenes()</text></g><!--link AsignarExamenesView to ExamenesController--><g class="link" data-entity-1="ent0007" data-entity-2="ent0008" data-link-type="dependency" data-source-line="21" id="lnk16"><path d="M496.33,196.1 C449.44,209.54 392,226 392,226 C392,226 392,243 392,243 C392,243 397.6222,254.0059 404.4722,267.4259" fill="none" id="AsignarExamenesView-to-ExamenesController" style="stroke:#181818;stroke-width:1;"/><polygon fill="#181818" points="407.2,272.77,406.671,262.9354,404.9268,268.3166,399.5456,266.5724,407.2,272.77" style="stroke:#181818;stroke-width:1;"/><text fill="#000000" font-family="sans-serif" font-size="13" lengthAdjust="spacing" textLength="259.6699" x="393" y="239.0669">obtenerAlumnosPorGrado(asignaturaId)</text></g><!--link AsignarExamenesView to ExamenesController--><g class="link" data-entity-1="ent0007" data-entity-2="ent0008" data-link-type="dependency" data-source-line="27" id="lnk20"><path d="M593.48,196.1 C622.93,209.54 659,226 659,226 C659,226 659,243 659,243 C659,243 573.7909,259.481 503.1409,273.141" fill="none" id="AsignarExamenesView-to-ExamenesController-1" style="stroke:#181818;stroke-width:1;"/><polygon fill="#181818" points="497.25,274.28,506.8457,276.4988,502.1591,273.3308,505.327,268.6442,497.25,274.28" style="stroke:#181818;stroke-width:1;"/><text fill="#000000" font-family="sans-serif" font-size="13" lengthAdjust="spacing" textLength="210.374" x="660" y="239.0669">asignarExamenes(asignaciones)</text></g><!--link ExamenesController to GestorAlumnos--><g class="link" data-entity-1="ent0008" data-entity-2="ent0010" data-link-type="dependency" data-source-line="23" id="lnk17"><path d="M497.36,285.63 C709.73,271.61 1264.5,235 1264.5,235 C1264.5,235 1525.5,235 1525.5,235 C1525.5,235 1845,273 1845,273 C1845,273 1848.2797,273.6991 1860.5797,276.2991" fill="none" id="ExamenesController-to-GestorAlumnos" style="stroke:#181818;stroke-width:1;"/><polygon fill="#181818" points="1866.45,277.54,1858.4718,271.7652,1861.5581,276.5059,1856.8173,279.5922,1866.45,277.54" style="stroke:#181818;stroke-width:1;"/><text fill="#000000" font-family="sans-serif" font-size="13" lengthAdjust="spacing" textLength="259.6699" x="1265.5" y="239.0669">obtenerAlumnosPorGrado(asignaturaId)</text></g><!--link GestorAlumnos to Grado--><g class="link" data-entity-1="ent0010" data-entity-2="ent0012" data-link-type="association" data-source-line="24" id="lnk18"><path d="M1913.31,309.42 C1896.89,326.57 1871.97,352.58 1855.58,369.69" fill="none" id="GestorAlumnos-Grado" style="stroke:#181818;stroke-width:1;"/></g><!--link GestorAlumnos to Alumno--><g class="link" data-entity-1="ent0010" data-entity-2="ent0013" data-link-type="association" data-source-line="25" id="lnk19"><path d="M1933.67,309.42 C1937.28,326.57 1942.75,352.58 1946.35,369.69" fill="none" id="GestorAlumnos-Alumno" style="stroke:#181818;stroke-width:1;"/></g><!--link ExamenesController to GestorExamen--><g class="link" data-entity-1="ent0008" data-entity-2="ent0009" data-link-type="dependency" data-source-line="29" id="lnk21"><path d="M497.38,302.05 C531.43,306.68 563.25,311 563.25,311 C563.25,311 693.25,311 693.25,311 C693.25,311 720.7721,306.6872 753.4421,301.5772" fill="none" id="ExamenesController-to-GestorExamen" style="stroke:#181818;stroke-width:1;"/><polygon fill="#181818" points="759.37,300.65,749.86,298.0889,754.4301,301.4227,751.0962,305.9928,759.37,300.65" style="stroke:#181818;stroke-width:1;"/><text fill="#000000" font-family="sans-serif" font-size="13" lengthAdjust="spacing" textLength="128.5718" x="564.25" y="307.0669">obtenerExamenes()</text></g><!--link ExamenesController to GestorExamen--><g class="link" data-entity-1="ent0008" data-entity-2="ent0009" data-link-type="dependency" data-source-line="31" id="lnk22"><path d="M497.47,291 C574.85,291 683.48,291 753.48,291" fill="none" id="ExamenesController-to-GestorExamen-1" style="stroke:#181818;stroke-width:1;"/><polygon fill="#181818" points="759.48,291,750.48,287,754.48,291,750.48,295,759.48,291" style="stroke:#181818;stroke-width:1;"/><text fill="#000000" font-family="sans-serif" font-size="13" lengthAdjust="spacing" textLength="177.2139" x="539.6672" y="269.0669">[PARA_CADA_ASIGNACION]</text><text fill="#000000" font-family="sans-serif" font-size="13" lengthAdjust="spacing" textLength="218.0483" x="519.25" y="284.1997">actualizarExamen(alumno, clave)</text></g><!--link GestorExamen to GestorExamen--><g class="link" data-entity-1="ent0009" data-entity-2="ent0009" data-link-type="dependency" data-source-line="32" id="lnk23"><path d="M882.7,282.03 C906.13,281.68 925.5,284.67 925.5,291 C925.5,297.33 912.1293,300.4096 888.6993,300.0596" fill="none" id="GestorExamen-to-GestorExamen" style="stroke:#181818;stroke-width:1;"/><polygon fill="#181818" points="882.7,299.97,891.6393,304.104,887.6994,300.0447,891.7587,296.1049,882.7,299.97" style="stroke:#181818;stroke-width:1;"/><text fill="#000000" font-family="sans-serif" font-size="13" lengthAdjust="spacing" textLength="370.0303" x="931.5" y="295.5669">generarClaveCorreccion(preguntas, respuestas, alumno)</text></g><!--link GestorExamen to Examen--><g class="link" data-entity-1="ent0009" data-entity-2="ent0011" data-link-type="dependency" data-source-line="33" id="lnk24"><path d="M882.77,291 C1065.2,291 1592.09,291 1740.33,291" fill="none" id="GestorExamen-to-Examen" style="stroke:#181818;stroke-width:1;"/><polygon fill="#181818" points="1746.33,291,1737.33,287,1741.33,291,1737.33,295,1746.33,291" style="stroke:#181818;stroke-width:1;"/><text fill="#000000" font-family="sans-serif" font-size="13" lengthAdjust="spacing" textLength="419.9102" x="1105" y="284.0669">actualizar(alumno, clave, clavePendiente=false, asignada=true)</text></g><!--reverse link ExamAsignados to AsignarExamenesView--><g class="link" data-entity-1="ent0004" data-entity-2="ent0007" data-link-type="dependency" data-source-line="35" id="lnk25"><path d="M683.9854,47.3005 C655.3654,76.3005 601.7,130.69 572.97,159.8" fill="none" id="ExamAsignados-backto-AsignarExamenesView" style="stroke:#181818;stroke-width:1;"/><polygon fill="#181818" points="688.2,43.03,679.0311,46.6261,684.6879,46.5888,684.7252,52.2455,688.2,43.03" style="stroke:#181818;stroke-width:1;"/></g><!--reverse link ExamAsignadosContext to AsignarExamenesView--><g class="link" data-entity-1="ent0005" data-entity-2="ent0007" data-link-type="dependency" data-source-line="36" id="lnk26"><path d="M945.1382,44.958 C859.5582,73.998 692.03,130.84 606.34,159.92" fill="none" id="ExamAsignadosContext-backto-AsignarExamenesView" style="stroke:#181818;stroke-width:1;"/><polygon fill="#181818" points="950.82,43.03,941.012,42.1342,946.0852,44.6367,943.5827,49.7099,950.82,43.03" style="stroke:#181818;stroke-width:1;"/></g><?plantuml-src bLHRJy8m67tlh_Y2BvZ82r6ZH4tgA8H4WOWQ4pMaiBeib7PfEw_nlzko3HahY7lOrlPyf-USNlGi5WbLT0uy5iny90mIoJzS0o75feQAY3FO2zha4Xz1hKKUy3Nfaz6uQzytk3qOrO1g8EzqtcM2AHfAlMFXE1ZqRyd3xHs-8XwMG0h3tirsCZpgTVib5LZ7aVXRnRBGhsB9KgX02PtEQCGim8qe1x9AjIkehVNLzslmXS0-AnAEcwUaSmgu3BsFsTiwSd8q2OzFe80u1KfopjGwiDF4mI61BjD6venR8PYdSs63yMEs4xWbsJ2MqQ9lX4hh1ut6XSzk2ofn8T_2_wSUUN3G22r1DSKMo8bnS-Ln3ALQkAjdj2PLj1VkPsRAbM3vIadkI5MgiRRoD2lTUP1-Cnkyh6UHjQUnj8q_J6HZIm-hSUvIzZZ4DtWSu3RE3rFG6_IVd-pa9gKy_Yn4rUd2rW5CENrbHHhPM9KrMkm25JXi89NTRSvBFL4iIeMX-i1kG9sajiRzPzHLpeBjLqjPHVuPCX76pEwsynVAjUtDqWlfkL4fotDONWLmvjR8Stvz5yOcy0y0?></g></svg>