<svg xmlns="http://www.w3.org/2000/svg" xmlns:xlink="http://www.w3.org/1999/xlink" contentStyleType="text/css" data-diagram-type="SALT" height="201px" preserveAspectRatio="none" style="width:405px;height:201px;background:#FFFFFF;" version="1.1" viewBox="0 0 405 201" width="405px" zoomAndPan="magnify"><defs/><g><text fill="#000000" font-family="sans-serif" font-size="12" font-weight="bold" lengthAdjust="spacing" textLength="153.6035" x="6" y="17.1387">GESTI&#211;N DE ALUMNOS</text><line style="stroke:#AAAAAA;stroke-width:1;" x1="6" x2="398.8711" y1="24.4688" y2="24.4688"/><line style="stroke:#AAAAAA;stroke-width:1;" x1="6" x2="398.8711" y1="26.4688" y2="26.4688"/><text fill="#000000" font-family="sans-serif" font-size="12" lengthAdjust="spacing" textLength="21.7559" x="7" y="42.1074">DNI</text><text fill="#000000" font-family="sans-serif" font-size="12" lengthAdjust="spacing" textLength="52.9277" x="78.3105" y="42.1074">NOMBRE</text><text fill="#000000" font-family="sans-serif" font-size="12" lengthAdjust="spacing" textLength="66.2402" x="133.2383" y="42.1074">APELLIDOS</text><text fill="#000000" font-family="sans-serif" font-size="12" lengthAdjust="spacing" textLength="46.9277" x="264.8711" y="42.1074">ACCI&#211;N</text><line style="stroke:#AAAAAA;stroke-width:1;" x1="7" x2="77.3105" y1="50.4375" y2="50.4375"/><line style="stroke:#AAAAAA;stroke-width:1;" x1="78.3105" x2="132.2383" y1="50.4375" y2="50.4375"/><line style="stroke:#AAAAAA;stroke-width:1;" x1="133.2383" x2="263.8711" y1="50.4375" y2="50.4375"/><line style="stroke:#AAAAAA;stroke-width:1;" x1="264.8711" x2="322.8711" y1="50.4375" y2="50.4375"/><text fill="#000000" font-family="sans-serif" font-size="12" lengthAdjust="spacing" textLength="69.2871" x="7" y="66.0762">12345678A</text><text fill="#000000" font-family="sans-serif" font-size="12" lengthAdjust="spacing" textLength="47.6602" x="78.3105" y="66.0762">Roberto</text><text fill="#000000" font-family="sans-serif" font-size="12" lengthAdjust="spacing" textLength="62.3203" x="133.2383" y="66.0762">S&#225;nz Roca</text><rect fill="#EEEEEE" height="17.9688" rx="5" ry="5" style="stroke:#000000;stroke-width:2.5;" width="52" x="267.3711" y="57.4375"/><text fill="#000000" font-family="sans-serif" font-size="12" lengthAdjust="spacing" textLength="35.5254" x="275.6084" y="70.5762">Editar</text><rect fill="#EEEEEE" height="17.9688" rx="5" ry="5" style="stroke:#000000;stroke-width:2.5;" width="68" x="326.3711" y="57.4375"/><text fill="#000000" font-family="sans-serif" font-size="12" lengthAdjust="spacing" textLength="49.166" x="335.7881" y="70.5762">Eliminar</text><text fill="#000000" font-family="sans-serif" font-size="12" lengthAdjust="spacing" textLength="69.3105" x="7" y="91.0449">87654321B</text><text fill="#000000" font-family="sans-serif" font-size="12" lengthAdjust="spacing" textLength="26.6309" x="78.3105" y="91.0449">Ra&#250;l</text><text fill="#000000" font-family="sans-serif" font-size="12" lengthAdjust="spacing" textLength="129.6328" x="133.2383" y="91.0449">Gonz&#225;lez Gurruchaga</text><rect fill="#EEEEEE" height="17.9688" rx="5" ry="5" style="stroke:#000000;stroke-width:2.5;" width="52" x="267.3711" y="82.4063"/><text fill="#000000" font-family="sans-serif" font-size="12" lengthAdjust="spacing" textLength="35.5254" x="275.6084" y="95.5449">Editar</text><rect fill="#EEEEEE" height="17.9688" rx="5" ry="5" style="stroke:#000000;stroke-width:2.5;" width="68" x="326.3711" y="82.4063"/><text fill="#000000" font-family="sans-serif" font-size="12" lengthAdjust="spacing" textLength="49.166" x="335.7881" y="95.5449">Eliminar</text><text fill="#000000" font-family="sans-serif" font-size="12" lengthAdjust="spacing" textLength="31.0078" x="7" y="116.0137">PXYZ</text><text fill="#000000" font-family="sans-serif" font-size="12" lengthAdjust="spacing" textLength="29.6191" x="78.3105" y="116.0137">Pepe</text><text fill="#000000" font-family="sans-serif" font-size="12" lengthAdjust="spacing" textLength="35.3262" x="133.2383" y="116.0137">L&#243;pez</text><rect fill="#EEEEEE" height="17.9688" rx="5" ry="5" style="stroke:#000000;stroke-width:2.5;" width="52" x="267.3711" y="107.375"/><text fill="#000000" font-family="sans-serif" font-size="12" lengthAdjust="spacing" textLength="35.5254" x="275.6084" y="120.5137">Editar</text><rect fill="#EEEEEE" height="17.9688" rx="5" ry="5" style="stroke:#000000;stroke-width:2.5;" width="68" x="326.3711" y="107.375"/><text fill="#000000" font-family="sans-serif" font-size="12" lengthAdjust="spacing" textLength="49.166" x="335.7881" y="120.5137">Eliminar</text><line style="stroke:#000000;stroke-width:1;" x1="6" x2="77.3105" y1="29.9688" y2="29.9688"/><line style="stroke:#000000;stroke-width:1;" x1="77.3105" x2="132.2383" y1="29.9688" y2="29.9688"/><line style="stroke:#000000;stroke-width:1;" x1="132.2383" x2="263.8711" y1="29.9688" y2="29.9688"/><line style="stroke:#000000;stroke-width:1;" x1="263.8711" x2="322.8711" y1="29.9688" y2="29.9688"/><line style="stroke:#000000;stroke-width:1;" x1="322.8711" x2="397.8711" y1="29.9688" y2="29.9688"/><line style="stroke:#000000;stroke-width:1;" x1="6" x2="77.3105" y1="128.8438" y2="128.8438"/><line style="stroke:#000000;stroke-width:1;" x1="77.3105" x2="132.2383" y1="128.8438" y2="128.8438"/><line style="stroke:#000000;stroke-width:1;" x1="132.2383" x2="263.8711" y1="128.8438" y2="128.8438"/><line style="stroke:#000000;stroke-width:1;" x1="263.8711" x2="322.8711" y1="128.8438" y2="128.8438"/><line style="stroke:#000000;stroke-width:1;" x1="322.8711" x2="397.8711" y1="128.8438" y2="128.8438"/><line style="stroke:#000000;stroke-width:1;" x1="6" x2="6" y1="29.9688" y2="45.9375"/><line style="stroke:#000000;stroke-width:1;" x1="397.8711" x2="397.8711" y1="103.875" y2="128.8438"/><line style="stroke:#000000;stroke-width:1;" x1="397.8711" x2="397.8711" y1="78.9063" y2="103.875"/><line style="stroke:#000000;stroke-width:1;" x1="397.8711" x2="397.8711" y1="53.9375" y2="78.9063"/><line style="stroke:#000000;stroke-width:1;" x1="397.8711" x2="397.8711" y1="45.9375" y2="53.9375"/><line style="stroke:#000000;stroke-width:1;" x1="397.8711" x2="397.8711" y1="29.9688" y2="45.9375"/><line style="stroke:#000000;stroke-width:1;" x1="6" x2="6" y1="103.875" y2="128.8438"/><line style="stroke:#000000;stroke-width:1;" x1="6" x2="6" y1="78.9063" y2="103.875"/><line style="stroke:#000000;stroke-width:1;" x1="6" x2="6" y1="53.9375" y2="78.9063"/><line style="stroke:#000000;stroke-width:1;" x1="6" x2="6" y1="45.9375" y2="53.9375"/><line style="stroke:#AAAAAA;stroke-width:1.5;" x1="6" x2="398.8711" y1="134.3438" y2="134.3438"/><text fill="#000000" font-family="sans-serif" font-size="12" font-weight="bold" lengthAdjust="spacing" textLength="59.666" x="7" y="150.9824">BUSCAR:</text><text fill="#000000" font-family="sans-serif" font-size="12" lengthAdjust="spacing" textLength="154.3125" x="70.4805" y="150.9824">[                                      ]</text><rect fill="#EEEEEE" height="17.9688" rx="5" ry="5" style="stroke:#000000;stroke-width:2.5;" width="60" x="229.293" y="142.3438"/><text fill="#000000" font-family="sans-serif" font-size="12" lengthAdjust="spacing" textLength="35.4961" x="241.5449" y="155.4824">Filtrar</text><line style="stroke:#AAAAAA;stroke-width:1.5;" x1="6" x2="398.8711" y1="169.3125" y2="169.3125"/><rect fill="#EEEEEE" height="17.9688" rx="5" ry="5" style="stroke:#000000;stroke-width:2.5;" width="92" x="9.5" y="177.3125"/><text fill="#000000" font-family="sans-serif" font-size="12" lengthAdjust="spacing" textLength="73.834" x="18.583" y="190.4512">Crear nuevo</text><rect fill="#EEEEEE" height="17.9688" rx="5" ry="5" style="stroke:#000000;stroke-width:2.5;" width="68" x="108.5" y="177.3125"/><text fill="#000000" font-family="sans-serif" font-size="12" lengthAdjust="spacing" textLength="52.1133" x="116.4434" y="190.4512">Importar</text><rect fill="#EEEEEE" height="17.9688" rx="5" ry="5" style="stroke:#000000;stroke-width:2.5;" width="44" x="189.3145" y="177.3125"/><text fill="#000000" font-family="sans-serif" font-size="12" lengthAdjust="spacing" textLength="26.5723" x="198.0283" y="190.4512">Salir</text><!--SRC=[ZLBTRfim5BxtKvpBLXCPK99cgAcQ08sI0K4XgRP5lJ29ara2EpA6QVdfI-m9-WoxsoqljaEdgbULPja-t_dxV8xjkr9JfKkQQw2PuYfHSijAgLXf_E2ARHKj63a2kSbknq6wc3I_Ol0368RBA9wbDn-pMm0o60p8yGE07q_W1F4i6iq31CCa2CE9FqjRx7bjBW4mZDFhHCsohvnkxxe_n9Yvp9ZI4b7QF8i3wckAoYhOS2po4Kwh8ES55uWnit_TwpfNjZLgCsdp9qSvbkBGFEVi0EDAgMhzdUxUPqY-VFs6peJj6Ogm-Rt7l7UFE-DwUiBjY5SnMgRUSEw-jB-2_ngFBVKzpxL2lZSoM7cAKGMYOhLyYPaKUwd-5G2Trf3IdADs9cTonyIcVIj2afmAlOn2g9agkHHWTMpJxdOiys9HCOXb3QO3bkdQfkjyWYXTGEk_91VZ98HILchDOCDBhNXMQIIu95DQKvXNGlE2kJ3RCp7rFxyQ810rLr8KJ6WoVOZU0dgECU8QKgQm57Y8YC-sjCB_58Yrt72nSs6vk3Vw9AHYLz4TSZD1F8cywgUBZUVvNm00]--></g></svg>