<svg xmlns="http://www.w3.org/2000/svg" xmlns:xlink="http://www.w3.org/1999/xlink" contentStyleType="text/css" data-diagram-type="STATE" height="807px" preserveAspectRatio="none" style="width:684px;height:807px;background:#FFFFFF;" version="1.1" viewBox="0 0 684 807" width="684px" zoomAndPan="magnify"><defs/><g><g id="ASIGNATURA_ABIERTO"><rect fill="#F1F1F1" height="50" rx="12.5" ry="12.5" style="stroke:#181818;stroke-width:0.5;" width="180.0498" x="125.5" y="7"/><line style="stroke:#181818;stroke-width:0.5;" x1="125.5" x2="305.5498" y1="33.2969" y2="33.2969"/><text fill="#000000" font-family="sans-serif" font-size="14" lengthAdjust="spacing" textLength="160.0498" x="135.5" y="24.9951">ASIGNATURA_ABIERTO</text></g><g id="ASIGNATURAS_ABIERTO2"><rect fill="#F1F1F1" height="50" rx="12.5" ry="12.5" style="stroke:#181818;stroke-width:0.5;" width="188.9365" x="7" y="751"/><line style="stroke:#181818;stroke-width:0.5;" x1="7" x2="195.9365" y1="777.2969" y2="777.2969"/><text fill="#000000" font-family="sans-serif" font-size="14" lengthAdjust="spacing" textLength="168.9365" x="17" y="768.9951">ASIGNATURAS_ABIERTO</text></g><g id="ASIGNATURAS_ABIERTO3"><rect fill="#F1F1F1" height="50" rx="12.5" ry="12.5" style="stroke:#181818;stroke-width:0.5;" width="188.9365" x="231" y="751"/><line style="stroke:#181818;stroke-width:0.5;" x1="231" x2="419.9365" y1="777.2969" y2="777.2969"/><text fill="#000000" font-family="sans-serif" font-size="14" lengthAdjust="spacing" textLength="168.9365" x="241" y="768.9951">ASIGNATURAS_ABIERTO</text></g><g id="ASIGNATURAS_ABIERTO4"><rect fill="#F1F1F1" height="50" rx="12.5" ry="12.5" style="stroke:#181818;stroke-width:0.5;" width="188.9365" x="455" y="751"/><line style="stroke:#181818;stroke-width:0.5;" x1="455" x2="643.9365" y1="777.2969" y2="777.2969"/><text fill="#000000" font-family="sans-serif" font-size="14" lengthAdjust="spacing" textLength="168.9365" x="465" y="768.9951">ASIGNATURAS_ABIERTO</text></g><path d="M111.5,118 L539.5,118 A12.5,12.5 0 0 1 552,130.5 L552,144.2969 L99,144.2969 L99,130.5 A12.5,12.5 0 0 1 111.5,118" fill="#F1F1F1"/><rect fill="none" height="538.2969" rx="12.5" ry="12.5" style="stroke:#181818;stroke-width:0.5;" width="453" x="99" y="118"/><line style="stroke:#181818;stroke-width:0.5;" x1="99" x2="552" y1="144.2969" y2="144.2969"/><text fill="#000000" font-family="sans-serif" font-size="14" lengthAdjust="spacing" textLength="143.8486" x="253.5757" y="135.9951">eliminarAsignatura()</text><g id="eliminarAsignatura.ConfirmandoEliminacion"><rect fill="#F1F1F1" height="50" rx="12.5" ry="12.5" style="stroke:#181818;stroke-width:0.5;" width="50" x="111" y="246.2969"/><line style="stroke:#181818;stroke-width:0.5;" x1="111" x2="161" y1="272.5938" y2="272.5938"/><text fill="#000000" font-family="sans-serif" font-size="14" lengthAdjust="spacing" textLength="4.4502" x="133.7749" y="264.292">&#160;</text></g><g id="eliminarAsignatura.EliminandoAsignatura"><rect fill="#F1F1F1" height="50" rx="12.5" ry="12.5" style="stroke:#181818;stroke-width:0.5;" width="50" x="111" y="488.2969"/><line style="stroke:#181818;stroke-width:0.5;" x1="111" x2="161" y1="514.5938" y2="514.5938"/><text fill="#000000" font-family="sans-serif" font-size="14" lengthAdjust="spacing" textLength="4.4502" x="133.7749" y="506.292">&#160;</text></g><ellipse cx="136" cy="165.2969" fill="#222222" rx="10" ry="10" style="stroke:#222222;stroke-width:1;"/><ellipse cx="136" cy="635.2969" fill="none" rx="11" ry="11" style="stroke:#222222;stroke-width:1;"/><ellipse cx="136" cy="635.2969" fill="#222222" rx="6" ry="6" style="stroke:#222222;stroke-width:1;"/><!--link *start*eliminarAsignatura to ConfirmandoEliminacion--><g class="link" data-entity-1=".start.eliminarAsignatura" data-entity-2="ConfirmandoEliminacion" data-source-line="13" data-uid="lnk3" id="link_.start.eliminarAsignatura_ConfirmandoEliminacion"><path d="M136,175.5269 C136,191.2369 136,217.6569 136,240.1669" fill="none" id="*start*eliminarAsignatura-to-ConfirmandoEliminacion" style="stroke:#008000;stroke-width:1;"/><polygon fill="#008000" points="136,246.1669,140,237.1669,136,241.1669,132,237.1669,136,246.1669" style="stroke:#008000;stroke-width:1;"/><path d="M141,198.2969 L141,223.2969 L403,223.2969 L403,208.2969 L393,198.2969 L141,198.2969" fill="#FEFFDD" style="stroke:#181818;stroke-width:0.5;"/><path d="M393,198.2969 L393,208.2969 L403,208.2969 L393,198.2969" fill="#FEFFDD" style="stroke:#181818;stroke-width:0.5;"/><text fill="#000000" font-family="sans-serif" font-size="13" font-weight="bold" lengthAdjust="spacing" textLength="60.5313" x="147" y="215.3638">Docente</text><text fill="#000000" font-family="sans-serif" font-size="13" lengthAdjust="spacing" textLength="176.541" x="211.6636" y="215.3638">solicita eliminar asignatura</text></g><!--link ConfirmandoEliminacion to EliminandoAsignatura--><g class="link" data-entity-1="ConfirmandoEliminacion" data-entity-2="EliminandoAsignatura" data-source-line="18" data-uid="lnk4" id="link_ConfirmandoEliminacion_EliminandoAsignatura"><path d="M136,296.6269 C136,342.7469 136,436.3669 136,482.2569" fill="none" id="ConfirmandoEliminacion-to-EliminandoAsignatura" style="stroke:#008000;stroke-width:1;"/><polygon fill="#008000" points="136,488.2569,140,479.2569,136,483.2569,132,479.2569,136,488.2569" style="stroke:#008000;stroke-width:1;"/><path d="M141,319.2969 L141,465.2969 L543,465.2969 L543,329.2969 L533,319.2969 L141,319.2969" fill="#FEFFDD" style="stroke:#181818;stroke-width:0.5;"/><path d="M533,319.2969 L533,329.2969 L543,329.2969 L533,319.2969" fill="#FEFFDD" style="stroke:#181818;stroke-width:0.5;"/><text fill="#000000" font-family="sans-serif" font-size="13" font-weight="bold" lengthAdjust="spacing" textLength="58.9063" x="147" y="336.3638">Sistema</text><text fill="#000000" font-family="sans-serif" font-size="13" lengthAdjust="spacing" textLength="318.0684" x="210.0386" y="336.3638">presenta informaci&#243;n de la asignatura a eliminar</text><text fill="#000000" font-family="sans-serif" font-size="13" lengthAdjust="spacing" textLength="63.7368" x="147" y="351.4966">&#8226; Nombre</text><text fill="#000000" font-family="sans-serif" font-size="13" lengthAdjust="spacing" textLength="56.9004" x="147" y="366.6294">&#8226; C&#243;digo</text><text fill="#000000" font-family="sans-serif" font-size="13" lengthAdjust="spacing" textLength="124.0269" x="147" y="381.7622">&#8226; Curso acad&#233;mico</text><text fill="#000000" font-family="sans-serif" font-size="13" lengthAdjust="spacing" textLength="149.3794" x="147" y="396.895">&#8226; Bater&#237;a de preguntas</text><text fill="#000000" font-family="sans-serif" font-size="13" lengthAdjust="spacing" textLength="4.1323" x="147" y="412.0278">&#160;</text><text fill="#000000" font-family="sans-serif" font-size="13" lengthAdjust="spacing" textLength="249.6724" x="147" y="427.1606">&#8226; Presenta advertencia de eliminaci&#243;n</text><text fill="#000000" font-family="sans-serif" font-size="13" lengthAdjust="spacing" textLength="263.3706" x="147" y="442.2935">&#8226; Permite solicitar confirmar eliminaci&#243;n</text><text fill="#000000" font-family="sans-serif" font-size="13" lengthAdjust="spacing" textLength="255.9438" x="147" y="457.4263">&#8226; Permite solicitar cancelar eliminaci&#243;n</text></g><!--link EliminandoAsignatura to *end*eliminarAsignatura--><g class="link" data-entity-1="EliminandoAsignatura" data-entity-2=".end.eliminarAsignatura" data-source-line="31" data-uid="lnk6" id="link_EliminandoAsignatura_.end.eliminarAsignatura"><path d="M136,538.5769 C136,564.8769 136,599.5669 136,618.2769" fill="none" id="EliminandoAsignatura-to-*end*eliminarAsignatura" style="stroke:#008000;stroke-width:1;"/><polygon fill="#008000" points="136,624.2769,140,615.2769,136,619.2769,132,615.2769,136,624.2769" style="stroke:#008000;stroke-width:1;"/><path d="M141,561.2969 L141,601.2969 L460,601.2969 L460,571.2969 L450,561.2969 L141,561.2969" fill="#FEFFDD" style="stroke:#181818;stroke-width:0.5;"/><path d="M450,561.2969 L450,571.2969 L460,571.2969 L450,561.2969" fill="#FEFFDD" style="stroke:#181818;stroke-width:0.5;"/><text fill="#000000" font-family="sans-serif" font-size="13" font-weight="bold" lengthAdjust="spacing" textLength="60.5313" x="147" y="578.3638">Docente</text><text fill="#000000" font-family="sans-serif" font-size="13" lengthAdjust="spacing" textLength="233.5303" x="211.6636" y="578.3638">solicita confirmaci&#243;n de eliminaci&#243;n</text><text fill="#000000" font-family="sans-serif" font-size="13" font-weight="bold" lengthAdjust="spacing" textLength="58.9063" x="147" y="593.4966">Sistema</text><text fill="#000000" font-family="sans-serif" font-size="13" lengthAdjust="spacing" textLength="136.2905" x="210.0386" y="593.4966">confirma eliminaci&#243;n</text></g><g id="ASIGNATURAS_ABIERTO"><rect fill="#F1F1F1" height="50" rx="12.5" ry="12.5" style="stroke:#181818;stroke-width:0.5;" width="188.9365" x="341" y="7"/><line style="stroke:#181818;stroke-width:0.5;" x1="341" x2="529.9365" y1="33.2969" y2="33.2969"/><text fill="#000000" font-family="sans-serif" font-size="14" lengthAdjust="spacing" textLength="168.9365" x="351" y="24.9951">ASIGNATURAS_ABIERTO</text></g><!--link ASIGNATURAS_ABIERTO to eliminarAsignatura--><g class="link" data-entity-1="ASIGNATURAS_ABIERTO" data-entity-2="eliminarAsignatura" data-source-line="38" data-uid="lnk8" id="link_ASIGNATURAS_ABIERTO_eliminarAsignatura"><path d="M427.94,57.26 C423.23,72.37 418.4158,87.8319 410.8058,112.2419" fill="none" id="ASIGNATURAS_ABIERTO-to-eliminarAsignatura" style="stroke:#008000;stroke-width:1;"/><polygon fill="#008000" points="409.02,117.97,415.5174,110.5684,410.5081,113.1966,407.8799,108.1873,409.02,117.97" style="stroke:#008000;stroke-width:1;"/></g><!--link ASIGNATURA_ABIERTO to eliminarAsignatura--><g class="link" data-entity-1="ASIGNATURA_ABIERTO" data-entity-2="eliminarAsignatura" data-source-line="39" data-uid="lnk9" id="link_ASIGNATURA_ABIERTO_eliminarAsignatura"><path d="M223.06,57.26 C227.77,72.37 232.5842,87.8319 240.1942,112.2419" fill="none" id="ASIGNATURA_ABIERTO-to-eliminarAsignatura" style="stroke:#008000;stroke-width:1;"/><polygon fill="#008000" points="241.98,117.97,243.1201,108.1873,240.4919,113.1966,235.4826,110.5684,241.98,117.97" style="stroke:#008000;stroke-width:1;"/></g><!--link eliminarAsignatura to ASIGNATURAS_ABIERTO2--><g class="link" data-entity-1="eliminarAsignatura" data-entity-2="ASIGNATURAS_ABIERTO2" data-source-line="41" data-uid="lnk10" id="link_eliminarAsignatura_ASIGNATURAS_ABIERTO2"><path d="M170.23,656.26 C147.75,695.1 131.0266,723.9977 118.5366,745.5677" fill="none" id="eliminarAsignatura-to-ASIGNATURAS_ABIERTO2" style="stroke:#008000;stroke-width:1;"/><polygon fill="#008000" points="115.53,750.76,123.5015,744.9759,118.0355,746.4331,116.5783,740.9671,115.53,750.76" style="stroke:#008000;stroke-width:1;"/><path d="M155.5,691 L155.5,716 L281.5,716 L281.5,701 L271.5,691 L155.5,691" fill="#FEFFDD" style="stroke:#181818;stroke-width:0.5;"/><path d="M271.5,691 L271.5,701 L281.5,701 L271.5,691" fill="#FEFFDD" style="stroke:#181818;stroke-width:0.5;"/><text fill="#000000" font-family="sans-serif" font-size="13" lengthAdjust="spacing" textLength="105.8408" x="161.5" y="708.0669">lista actualizada</text></g><!--link eliminarAsignatura to ASIGNATURAS_ABIERTO3--><g class="link" data-entity-1="eliminarAsignatura" data-entity-2="ASIGNATURAS_ABIERTO3" data-source-line="46" data-uid="lnk11" id="link_eliminarAsignatura_ASIGNATURAS_ABIERTO3"><path d="M325.5,656.26 C325.5,695.1 325.5,723.19 325.5,744.76" fill="none" id="eliminarAsignatura-to-ASIGNATURAS_ABIERTO3" style="stroke:#0000FF;stroke-width:1;"/><polygon fill="#0000FF" points="325.5,750.76,329.5,741.76,325.5,745.76,321.5,741.76,325.5,750.76" style="stroke:#0000FF;stroke-width:1;"/><path d="M330.5,691 L330.5,716 L485.5,716 L485.5,701 L475.5,691 L330.5,691" fill="#FEFFDD" style="stroke:#181818;stroke-width:0.5;"/><path d="M475.5,691 L475.5,701 L485.5,701 L475.5,691" fill="#FEFFDD" style="stroke:#181818;stroke-width:0.5;"/><text fill="#000000" font-family="sans-serif" font-size="13" lengthAdjust="spacing" textLength="134.2085" x="336.5" y="708.0669">cancelar eliminaci&#243;n</text></g><!--link eliminarAsignatura to ASIGNATURAS_ABIERTO4--><g class="link" data-entity-1="eliminarAsignatura" data-entity-2="ASIGNATURAS_ABIERTO4" data-source-line="51" data-uid="lnk12" id="link_eliminarAsignatura_ASIGNATURAS_ABIERTO4"><path d="M481.12,656.06 C491.83,674.52 498.5,686 498.5,686 C498.5,686 517.4768,719.1242 532.5768,745.4742" fill="none" id="eliminarAsignatura-to-ASIGNATURAS_ABIERTO4" style="stroke:#0000FF;stroke-width:1;"/><polygon fill="#0000FF" points="535.56,750.68,534.5557,740.8825,533.074,746.3418,527.6146,744.8601,535.56,750.68" style="stroke:#0000FF;stroke-width:1;"/><path d="M522.5,691 L522.5,716 L677.5,716 L677.5,701 L667.5,691 L522.5,691" fill="#FEFFDD" style="stroke:#181818;stroke-width:0.5;"/><path d="M667.5,691 L667.5,701 L677.5,701 L667.5,691" fill="#FEFFDD" style="stroke:#181818;stroke-width:0.5;"/><text fill="#000000" font-family="sans-serif" font-size="13" lengthAdjust="spacing" textLength="134.2085" x="528.5" y="708.0669">cancelar eliminaci&#243;n</text></g><!--SRC=[fPHBJiCm48RtFiMeR02fGWAMg59u2B41rC8A8JHrfjK8nwvi1waW9Cx2ZWKhZj2RS1BSj4aRul9CLl7C_y_dcTZkblK8BMQWM9CVZmX6Hesd7q8uZvuWwPqSdoONbzta9ja_EUfUd3K2lJAo3UYW5GcqLcjs_g3PNQsPYqXnnXfjudYeqUSM2qbpUNsZ1Gz2G7XcobPuG-g1qGEs6UhK7Cr4aerkvis38MtXERExsho6zjNQq1BfwtRdAqTjWg7Hqo7S5Wjx_SwXaQGzxMtrE-2COiaUgss5obMnQJxfj32PLOvNgi54iLUXzDXvoh106LboWGk1zS246f8dRnfI0eLBKB10BKpUdvxXr6HzIr1z7qpUKXwQfONSEWCeCPsyP2oN8lkXuNRoYjCw0M2O1m0dgl1voOJf7LbFMdAHIkNc0-8YcMp6OOzbJot8URliZmMe9QbOVdqEiIRNfX1-aT_DlqIjkjuW-3IkKl05wgCGaPDKusmU6z6y5hvJYCYPN9R4xXDHwumA6mj3bZv7nVUOebZqEsxULpcjyDwfUyTd-W__tT_uVm00]--></g></svg>