<svg xmlns="http://www.w3.org/2000/svg" xmlns:xlink="http://www.w3.org/1999/xlink" contentStyleType="text/css" data-diagram-type="STATE" height="577px" preserveAspectRatio="none" style="width:338px;height:577px;background:#FFFFFF;" version="1.1" viewBox="0 0 338 577" width="338px" zoomAndPan="magnify"><title>Diagrama de Estados - Entidad Examen</title><defs/><g><g class="title" data-source-line="1"><text fill="#000000" font-family="sans-serif" font-size="14" font-weight="bold" lengthAdjust="spacing" textLength="310.584" x="10" y="22.9951">Diagrama de Estados - Entidad Examen</text></g><ellipse cx="101.7549" cy="53.2969" fill="#222222" rx="10" ry="10" style="stroke:#222222;stroke-width:1;"/><g id="Generado"><rect fill="#F1F1F1" height="50" rx="12.5" ry="12.5" style="stroke:#181818;stroke-width:0.5;" width="88.7354" x="57.2549" y="140.2969"/><line style="stroke:#181818;stroke-width:0.5;" x1="57.2549" x2="145.9902" y1="166.5938" y2="166.5938"/><text fill="#000000" font-family="sans-serif" font-size="14" lengthAdjust="spacing" textLength="68.7354" x="67.2549" y="158.292">Generado</text></g><g id="Asignado"><rect fill="#F1F1F1" height="50" rx="12.5" ry="12.5" style="stroke:#181818;stroke-width:0.5;" width="84.5518" x="59.2549" y="267.2969"/><line style="stroke:#181818;stroke-width:0.5;" x1="59.2549" x2="143.8066" y1="293.5938" y2="293.5938"/><text fill="#000000" font-family="sans-serif" font-size="14" lengthAdjust="spacing" textLength="64.5518" x="69.2549" y="285.292">Asignado</text></g><g id="Resuelto"><rect fill="#F1F1F1" height="50" rx="12.5" ry="12.5" style="stroke:#181818;stroke-width:0.5;" width="81.0654" x="61.2549" y="394.2969"/><line style="stroke:#181818;stroke-width:0.5;" x1="61.2549" x2="142.3203" y1="420.5938" y2="420.5938"/><text fill="#000000" font-family="sans-serif" font-size="14" lengthAdjust="spacing" textLength="61.0654" x="71.2549" y="412.292">Resuelto</text></g><g id="Corregido"><rect fill="#F1F1F1" height="50" rx="12.5" ry="12.5" style="stroke:#181818;stroke-width:0.5;" width="88.6943" x="57.2549" y="521.2969"/><line style="stroke:#181818;stroke-width:0.5;" x1="57.2549" x2="145.9492" y1="547.5938" y2="547.5938"/><text fill="#000000" font-family="sans-serif" font-size="14" lengthAdjust="spacing" textLength="68.6943" x="67.2549" y="539.292">Corregido</text></g><!--link *start* to Generado--><g class="link" data-entity-1=".start." data-entity-2="Generado" data-source-line="3" data-uid="lnk4" id="link_.start._Generado"><path d="M101.7549,63.2969 C101.7549,79.9269 101.7549,109.9569 101.7549,134.1669" fill="none" id="*start*-to-Generado" style="stroke:#181818;stroke-width:1;"/><polygon fill="#181818" points="101.7549,140.1669,105.7549,131.1669,101.7549,135.1669,97.7549,131.1669,101.7549,140.1669" style="stroke:#181818;stroke-width:1;"/><text fill="#000000" font-family="sans-serif" font-size="13" lengthAdjust="spacing" textLength="51.1431" x="102.7549" y="106.3638">generar</text></g><!--link Generado to Asignado--><g class="link" data-entity-1="Generado" data-entity-2="Asignado" data-source-line="4" data-uid="lnk6" id="link_Generado_Asignado"><path d="M101.7549,190.3969 C101.7549,212.5369 101.7549,239.1569 101.7549,261.2669" fill="none" id="Generado-to-Asignado" style="stroke:#181818;stroke-width:1;"/><polygon fill="#181818" points="101.7549,267.2669,105.7549,258.2669,101.7549,262.2669,97.7549,258.2669,101.7549,267.2669" style="stroke:#181818;stroke-width:1;"/><text fill="#000000" font-family="sans-serif" font-size="13" lengthAdjust="spacing" textLength="48.1533" x="102.7549" y="233.3638">asignar</text></g><!--link Asignado to Resuelto--><g class="link" data-entity-1="Asignado" data-entity-2="Resuelto" data-source-line="5" data-uid="lnk8" id="link_Asignado_Resuelto"><path d="M101.7549,317.3969 C101.7549,339.5369 101.7549,366.1569 101.7549,388.2669" fill="none" id="Asignado-to-Resuelto" style="stroke:#181818;stroke-width:1;"/><polygon fill="#181818" points="101.7549,394.2669,105.7549,385.2669,101.7549,389.2669,97.7549,385.2669,101.7549,394.2669" style="stroke:#181818;stroke-width:1;"/><text fill="#000000" font-family="sans-serif" font-size="13" lengthAdjust="spacing" textLength="183.5742" x="102.7549" y="360.3638">alumnos realizan el examen</text></g><!--link Resuelto to Corregido--><g class="link" data-entity-1="Resuelto" data-entity-2="Corregido" data-source-line="6" data-uid="lnk10" id="link_Resuelto_Corregido"><path d="M101.7549,444.3969 C101.7549,466.5369 101.7549,493.1569 101.7549,515.2669" fill="none" id="Resuelto-to-Corregido" style="stroke:#181818;stroke-width:1;"/><polygon fill="#181818" points="101.7549,521.2669,105.7549,512.2669,101.7549,516.2669,97.7549,512.2669,101.7549,521.2669" style="stroke:#181818;stroke-width:1;"/><text fill="#000000" font-family="sans-serif" font-size="13" lengthAdjust="spacing" textLength="50.9971" x="102.7549" y="487.3638">corregir</text></g><!--SRC=[HStD2W8n30JWUvzYpiA-W0T1j7ZtAXx2DfH0cuMq2-BJsnzmRyFm9LEb9iPTA1fbGc3uKYbi1GkyLWaKu3-KMPt3w_J6ibpmO6Lh26V44SqTNGVN8b4de14R-7STFBdidEe0QS_QzemfoPSKdC1pyM3zvhQPSPJnTPtPVW00]--></g></svg>