<?plantuml 1.2026.2?><svg xmlns="http://www.w3.org/2000/svg" xmlns:xlink="http://www.w3.org/1999/xlink" contentStyleType="text/css" data-diagram-type="SEQUENCE" height="704px" preserveAspectRatio="none" style="width:1516px;height:704px;background:#FFFFFF;" version="1.1" viewBox="0 0 1516 704" width="1516px" zoomAndPan="magnify"><title>Diagrama de Secuencia - Cancelar Generaci&#243;n - Spring Boot + React</title><defs/><g><text fill="#000000" font-family="sans-serif" font-size="14" font-weight="bold" lengthAdjust="spacing" textLength="538.959" x="489.9019" y="27.9951">Diagrama de Secuencia - Cancelar Generaci&#243;n - Spring Boot + React</text><g><title>Docente</title><rect fill="#FFFFFF" height="420.7969" style="stroke:#181818;stroke-width:1;" width="10" x="47.3159" y="193.9922"/></g><g><title>Frontend .React.</title><rect fill="#FFFFFF" height="464.0625" style="stroke:#181818;stroke-width:1;" width="10" x="539.8896" y="149.7266"/></g><g><title>ExamenesController</title><rect fill="#FFFFFF" height="174.7969" style="stroke:#181818;stroke-width:1;" width="10" x="836.7671" y="291.5234"/></g><g><title>ExamenService</title><rect fill="#FFFFFF" height="116.5313" style="stroke:#181818;stroke-width:1;" width="10" x="1005.9043" y="320.6563"/></g><g><title>ExamenSessionService</title><rect fill="#FFFFFF" height="58.2656" style="stroke:#181818;stroke-width:1;" width="10" x="1165.1875" y="349.7891"/></g><rect fill="none" height="397.7969" style="stroke:#000000;stroke-width:1.5;" width="1499.7627" x="10" y="208.9922"/><g class="participant-lifeline" data-entity-uid="part1" data-qualified-name="Teacher" id="part1-lifeline"><g><title>Docente</title><rect fill="#000000" fill-opacity="0.00000" height="505.1953" width="8" x="48.3159" y="118.5938"/><line style="stroke:#181818;stroke-width:0.5;stroke-dasharray:5,5;" x1="52" x2="52" y1="118.5938" y2="623.7891"/></g></g><g class="participant-lifeline" data-entity-uid="part2" data-qualified-name="FE" id="part2-lifeline"><g><title>Frontend .React.</title><rect fill="#000000" fill-opacity="0.00000" height="505.1953" width="8" x="540.8896" y="118.5938"/><line style="stroke:#181818;stroke-width:0.5;stroke-dasharray:5,5;" x1="544.5947" x2="544.5947" y1="118.5938" y2="623.7891"/></g></g><g class="participant-lifeline" data-entity-uid="part3" data-qualified-name="Controller" id="part3-lifeline"><g><title>ExamenesController</title><rect fill="#000000" fill-opacity="0.00000" height="505.1953" width="8" x="837.7671" y="118.5938"/><line style="stroke:#181818;stroke-width:0.5;stroke-dasharray:5,5;" x1="840.8101" x2="840.8101" y1="118.5938" y2="623.7891"/></g></g><g class="participant-lifeline" data-entity-uid="part4" data-qualified-name="Service" id="part4-lifeline"><g><title>ExamenService</title><rect fill="#000000" fill-opacity="0.00000" height="505.1953" width="8" x="1006.9043" y="118.5938"/><line style="stroke:#181818;stroke-width:0.5;stroke-dasharray:5,5;" x1="1010.6167" x2="1010.6167" y1="118.5938" y2="623.7891"/></g></g><g class="participant-lifeline" data-entity-uid="part5" data-qualified-name="SessionService" id="part5-lifeline"><g><title>ExamenSessionService</title><rect fill="#000000" fill-opacity="0.00000" height="505.1953" width="8" x="1166.1875" y="118.5938"/><line style="stroke:#181818;stroke-width:0.5;stroke-dasharray:5,5;" x1="1169.1919" x2="1169.1919" y1="118.5938" y2="623.7891"/></g></g><g class="participant-lifeline" data-entity-uid="part6" data-qualified-name="Session" id="part6-lifeline"><g><title>HttpSession</title><rect fill="#000000" fill-opacity="0.00000" height="505.1953" width="8" x="1450.8584" y="118.5938"/><line style="stroke:#181818;stroke-width:0.5;stroke-dasharray:5,5;" x1="1453.9541" x2="1453.9541" y1="118.5938" y2="623.7891"/></g></g><g class="participant participant-head" data-entity-uid="part1" data-qualified-name="Teacher" id="part1-head"><text fill="#000000" font-family="sans-serif" font-size="14" lengthAdjust="spacing" textLength="58.6318" x="20" y="115.292">Docente</text><ellipse cx="52.3159" cy="50.7969" fill="#E2E2F0" rx="8" ry="8" style="stroke:#181818;stroke-width:0.5;"/><path d="M52.3159,58.7969 L52.3159,85.7969 M39.3159,66.7969 L65.3159,66.7969 M52.3159,85.7969 L39.3159,100.7969 M52.3159,85.7969 L65.3159,100.7969" fill="none" style="stroke:#181818;stroke-width:0.5;"/></g><g class="participant participant-tail" data-entity-uid="part1" data-qualified-name="Teacher" id="part1-tail"><text fill="#000000" font-family="sans-serif" font-size="14" lengthAdjust="spacing" textLength="58.6318" x="20" y="635.7842">Docente</text><ellipse cx="52.3159" cy="647.5859" fill="#E2E2F0" rx="8" ry="8" style="stroke:#181818;stroke-width:0.5;"/><path d="M52.3159,655.5859 L52.3159,682.5859 M39.3159,663.5859 L65.3159,663.5859 M52.3159,682.5859 L39.3159,697.5859 M52.3159,682.5859 L65.3159,697.5859" fill="none" style="stroke:#181818;stroke-width:0.5;"/></g><g class="participant participant-head" data-entity-uid="part2" data-qualified-name="FE" id="part2-head"><rect fill="#E2E2F0" height="30.2969" rx="2.5" ry="2.5" style="stroke:#181818;stroke-width:0.5;" width="132.5898" x="478.5947" y="87.2969"/><text fill="#000000" font-family="sans-serif" font-size="14" lengthAdjust="spacing" textLength="118.5898" x="485.5947" y="107.292">Frontend (React)</text></g><g class="participant participant-tail" data-entity-uid="part2" data-qualified-name="FE" id="part2-tail"><rect fill="#E2E2F0" height="30.2969" rx="2.5" ry="2.5" style="stroke:#181818;stroke-width:0.5;" width="132.5898" x="478.5947" y="622.7891"/><text fill="#000000" font-family="sans-serif" font-size="14" lengthAdjust="spacing" textLength="118.5898" x="485.5947" y="642.7842">Frontend (React)</text></g><g class="participant participant-head" data-entity-uid="part3" data-qualified-name="Controller" id="part3-head"><rect fill="#E2E2F0" height="30.2969" rx="2.5" ry="2.5" style="stroke:#181818;stroke-width:0.5;" width="155.9141" x="763.8101" y="87.2969"/><text fill="#000000" font-family="sans-serif" font-size="14" lengthAdjust="spacing" textLength="141.9141" x="770.8101" y="107.292">ExamenesController</text></g><g class="participant participant-tail" data-entity-uid="part3" data-qualified-name="Controller" id="part3-tail"><rect fill="#E2E2F0" height="30.2969" rx="2.5" ry="2.5" style="stroke:#181818;stroke-width:0.5;" width="155.9141" x="763.8101" y="622.7891"/><text fill="#000000" font-family="sans-serif" font-size="14" lengthAdjust="spacing" textLength="141.9141" x="770.8101" y="642.7842">ExamenesController</text></g><g class="participant participant-head" data-entity-uid="part4" data-qualified-name="Service" id="part4-head"><rect fill="#E2E2F0" height="30.2969" rx="2.5" ry="2.5" style="stroke:#181818;stroke-width:0.5;" width="122.5752" x="949.6167" y="87.2969"/><text fill="#000000" font-family="sans-serif" font-size="14" lengthAdjust="spacing" textLength="108.5752" x="956.6167" y="107.292">ExamenService</text></g><g class="participant participant-tail" data-entity-uid="part4" data-qualified-name="Service" id="part4-tail"><rect fill="#E2E2F0" height="30.2969" rx="2.5" ry="2.5" style="stroke:#181818;stroke-width:0.5;" width="122.5752" x="949.6167" y="622.7891"/><text fill="#000000" font-family="sans-serif" font-size="14" lengthAdjust="spacing" textLength="108.5752" x="956.6167" y="642.7842">ExamenService</text></g><g class="participant participant-head" data-entity-uid="part5" data-qualified-name="SessionService" id="part5-head"><rect fill="#E2E2F0" height="30.2969" rx="2.5" ry="2.5" style="stroke:#181818;stroke-width:0.5;" width="175.9912" x="1082.1919" y="87.2969"/><text fill="#000000" font-family="sans-serif" font-size="14" lengthAdjust="spacing" textLength="161.9912" x="1089.1919" y="107.292">ExamenSessionService</text></g><g class="participant participant-tail" data-entity-uid="part5" data-qualified-name="SessionService" id="part5-tail"><rect fill="#E2E2F0" height="30.2969" rx="2.5" ry="2.5" style="stroke:#181818;stroke-width:0.5;" width="175.9912" x="1082.1919" y="622.7891"/><text fill="#000000" font-family="sans-serif" font-size="14" lengthAdjust="spacing" textLength="161.9912" x="1089.1919" y="642.7842">ExamenSessionService</text></g><g class="participant participant-head" data-entity-uid="part6" data-qualified-name="Session" id="part6-head"><text fill="#000000" font-family="sans-serif" font-size="14" lengthAdjust="spacing" textLength="83.8086" x="1409.9541" y="115.292">HttpSession</text><path d="M1436.8584,66.2969 C1436.8584,56.2969 1454.8584,56.2969 1454.8584,56.2969 C1454.8584,56.2969 1472.8584,56.2969 1472.8584,66.2969 L1472.8584,92.2969 C1472.8584,102.2969 1454.8584,102.2969 1454.8584,102.2969 C1454.8584,102.2969 1436.8584,102.2969 1436.8584,92.2969 L1436.8584,66.2969" fill="#E2E2F0" style="stroke:#181818;stroke-width:0.5;"/><path d="M1436.8584,66.2969 C1436.8584,76.2969 1454.8584,76.2969 1454.8584,76.2969 C1454.8584,76.2969 1472.8584,76.2969 1472.8584,66.2969" fill="none" style="stroke:#181818;stroke-width:0.5;"/></g><g class="participant participant-tail" data-entity-uid="part6" data-qualified-name="Session" id="part6-tail"><text fill="#000000" font-family="sans-serif" font-size="14" lengthAdjust="spacing" textLength="83.8086" x="1409.9541" y="635.7842">HttpSession</text><path d="M1436.8584,649.0859 C1436.8584,639.0859 1454.8584,639.0859 1454.8584,639.0859 C1454.8584,639.0859 1472.8584,639.0859 1472.8584,649.0859 L1472.8584,675.0859 C1472.8584,685.0859 1454.8584,685.0859 1454.8584,685.0859 C1454.8584,685.0859 1436.8584,685.0859 1436.8584,675.0859 L1436.8584,649.0859" fill="#E2E2F0" style="stroke:#181818;stroke-width:0.5;"/><path d="M1436.8584,649.0859 C1436.8584,659.0859 1454.8584,659.0859 1454.8584,659.0859 C1454.8584,659.0859 1472.8584,659.0859 1472.8584,649.0859" fill="none" style="stroke:#181818;stroke-width:0.5;"/></g><g><title>Docente</title><rect fill="#FFFFFF" height="420.7969" style="stroke:#181818;stroke-width:1;" width="10" x="47.3159" y="193.9922"/></g><g><title>Frontend .React.</title><rect fill="#FFFFFF" height="464.0625" style="stroke:#181818;stroke-width:1;" width="10" x="539.8896" y="149.7266"/></g><g><title>ExamenesController</title><rect fill="#FFFFFF" height="174.7969" style="stroke:#181818;stroke-width:1;" width="10" x="836.7671" y="291.5234"/></g><g><title>ExamenService</title><rect fill="#FFFFFF" height="116.5313" style="stroke:#181818;stroke-width:1;" width="10" x="1005.9043" y="320.6563"/></g><g><title>ExamenSessionService</title><rect fill="#FFFFFF" height="58.2656" style="stroke:#181818;stroke-width:1;" width="10" x="1165.1875" y="349.7891"/></g><g class="message" data-entity-1="part1" data-entity-2="part2" id="msg1"><polygon fill="#181818" points="527.8896,145.7266,537.8896,149.7266,527.8896,153.7266,531.8896,149.7266" style="stroke:#181818;stroke-width:1;"/><line style="stroke:#181818;stroke-width:1;" x1="52.3159" x2="533.8896" y1="149.7266" y2="149.7266"/><text fill="#000000" font-family="sans-serif" font-size="13" lengthAdjust="spacing" textLength="195.9648" x="59.3159" y="144.6606">Clic en "Cancelar Generaci&#243;n"</text></g><g class="message" data-entity-1="part2" data-entity-2="part1" id="msg2"><polygon fill="#181818" points="68.3159,189.9922,58.3159,193.9922,68.3159,197.9922,64.3159,193.9922" style="stroke:#181818;stroke-width:1;"/><line style="stroke:#181818;stroke-width:1;stroke-dasharray:2,2;" x1="62.3159" x2="538.8896" y1="193.9922" y2="193.9922"/><text fill="#000000" font-family="sans-serif" font-size="13" lengthAdjust="spacing" textLength="210.3994" x="74.3159" y="173.7935">Mostrar di&#225;logo de confirmaci&#243;n</text><text fill="#000000" font-family="sans-serif" font-size="13" lengthAdjust="spacing" textLength="218.6514" x="74.3159" y="188.9263">"&#191;Desea cancelar la generaci&#243;n?"</text></g><path d="M10,208.9922 L74.4429,208.9922 L74.4429,216.125 L64.4429,226.125 L10,226.125 L10,208.9922" fill="#EEEEEE" style="stroke:#000000;stroke-width:1.5;"/><rect fill="none" height="397.7969" style="stroke:#000000;stroke-width:1.5;" width="1499.7627" x="10" y="208.9922"/><text fill="#000000" font-family="sans-serif" font-size="13" font-weight="bold" lengthAdjust="spacing" textLength="19.4429" x="25" y="222.0591">alt</text><text fill="#000000" font-family="sans-serif" font-size="11" font-weight="bold" lengthAdjust="spacing" textLength="167.6748" x="89.4429" y="221.2026">[CONFIRMA CANCELACI&#211;N]</text><g class="message" data-entity-1="part1" data-entity-2="part2" id="msg3"><polygon fill="#181818" points="527.8896,243.2578,537.8896,247.2578,527.8896,251.2578,531.8896,247.2578" style="stroke:#181818;stroke-width:1;"/><line style="stroke:#181818;stroke-width:1;" x1="57.3159" x2="533.8896" y1="247.2578" y2="247.2578"/><text fill="#000000" font-family="sans-serif" font-size="13" lengthAdjust="spacing" textLength="145.939" x="64.3159" y="242.1919">Confirmar cancelaci&#243;n</text></g><g class="message" data-entity-1="part2" data-entity-2="part3" id="msg4"><polygon fill="#181818" points="824.7671,287.5234,834.7671,291.5234,824.7671,295.5234,828.7671,291.5234" style="stroke:#181818;stroke-width:1;"/><line style="stroke:#181818;stroke-width:1;" x1="549.8896" x2="830.7671" y1="291.5234" y2="291.5234"/><text fill="#000000" font-family="sans-serif" font-size="13" lengthAdjust="spacing" textLength="265.2114" x="556.8896" y="271.3247">DELETE /api/examenes/generar/cancelar</text><text fill="#000000" font-family="sans-serif" font-size="13" lengthAdjust="spacing" textLength="267.8774" x="556.8896" y="286.4575">(Header: Authorization: Bearer &lt;token&gt;)</text></g><g class="message" data-entity-1="part3" data-entity-2="part4" id="msg5"><polygon fill="#181818" points="993.9043,316.6563,1003.9043,320.6563,993.9043,324.6563,997.9043,320.6563" style="stroke:#181818;stroke-width:1;"/><line style="stroke:#181818;stroke-width:1;" x1="846.7671" x2="999.9043" y1="320.6563" y2="320.6563"/><text fill="#000000" font-family="sans-serif" font-size="13" lengthAdjust="spacing" textLength="140.1372" x="853.7671" y="315.5903">cancelarGeneracion()</text></g><g class="message" data-entity-1="part4" data-entity-2="part5" id="msg6"><polygon fill="#181818" points="1153.1875,345.7891,1163.1875,349.7891,1153.1875,353.7891,1157.1875,349.7891" style="stroke:#181818;stroke-width:1;"/><line style="stroke:#181818;stroke-width:1;" x1="1015.9043" x2="1159.1875" y1="349.7891" y2="349.7891"/><text fill="#000000" font-family="sans-serif" font-size="13" lengthAdjust="spacing" textLength="113.5342" x="1022.9043" y="344.7231">limpiarPlantillas()</text></g><g class="message" data-entity-1="part5" data-entity-2="part6" id="msg7"><polygon fill="#181818" points="1442.8584,374.9219,1452.8584,378.9219,1442.8584,382.9219,1446.8584,378.9219" style="stroke:#181818;stroke-width:1;"/><line style="stroke:#181818;stroke-width:1;" x1="1175.1875" x2="1448.8584" y1="378.9219" y2="378.9219"/><text fill="#000000" font-family="sans-serif" font-size="13" lengthAdjust="spacing" textLength="255.6709" x="1182.1875" y="373.856">removeAttribute("plantillasExamenes")</text></g><g class="message" data-entity-1="part6" data-entity-2="part5" id="msg8"><polygon fill="#181818" points="1181.1875,404.0547,1171.1875,408.0547,1181.1875,412.0547,1177.1875,408.0547" style="stroke:#181818;stroke-width:1;"/><line style="stroke:#181818;stroke-width:1;stroke-dasharray:2,2;" x1="1175.1875" x2="1453.8584" y1="408.0547" y2="408.0547"/><text fill="#000000" font-family="sans-serif" font-size="13" lengthAdjust="spacing" textLength="27.5107" x="1187.1875" y="402.9888">void</text></g><g class="message" data-entity-1="part4" data-entity-2="part3" id="msg9"><polygon fill="#181818" points="857.7671,433.1875,847.7671,437.1875,857.7671,441.1875,853.7671,437.1875" style="stroke:#181818;stroke-width:1;"/><line style="stroke:#181818;stroke-width:1;stroke-dasharray:2,2;" x1="851.7671" x2="1009.9043" y1="437.1875" y2="437.1875"/><text fill="#000000" font-family="sans-serif" font-size="13" lengthAdjust="spacing" textLength="27.5107" x="863.7671" y="432.1216">void</text></g><g class="message" data-entity-1="part3" data-entity-2="part2" id="msg10"><polygon fill="#181818" points="560.8896,462.3203,550.8896,466.3203,560.8896,470.3203,556.8896,466.3203" style="stroke:#181818;stroke-width:1;"/><line style="stroke:#181818;stroke-width:1;stroke-dasharray:2,2;" x1="554.8896" x2="840.7671" y1="466.3203" y2="466.3203"/><text fill="#000000" font-family="sans-serif" font-size="13" lengthAdjust="spacing" textLength="102.4575" x="566.8896" y="461.2544">204 No Content</text></g><g class="message" data-entity-1="part2" data-entity-2="part1" id="msg11"><polygon fill="#181818" points="68.3159,506.5859,58.3159,510.5859,68.3159,514.5859,64.3159,510.5859" style="stroke:#181818;stroke-width:1;"/><line style="stroke:#181818;stroke-width:1;stroke-dasharray:2,2;" x1="62.3159" x2="538.8896" y1="510.5859" y2="510.5859"/><text fill="#000000" font-family="sans-serif" font-size="13" lengthAdjust="spacing" textLength="160.0054" x="74.3159" y="490.3872">Redirigir seg&#250;n contexto</text><text fill="#000000" font-family="sans-serif" font-size="13" lengthAdjust="spacing" textLength="316.1831" x="74.3159" y="505.52">(SISTEMA_DISPONIBLE o ASIGNATURA_ABIERTO)</text></g><line style="stroke:#000000;stroke-width:1;stroke-dasharray:2,2;" x1="10" x2="1509.7627" y1="519.5859" y2="519.5859"/><text fill="#000000" font-family="sans-serif" font-size="11" font-weight="bold" lengthAdjust="spacing" textLength="156.5083" x="15" y="529.7964">[DENIEGA CANCELACI&#211;N]</text><g class="message" data-entity-1="part1" data-entity-2="part2" id="msg12"><polygon fill="#181818" points="527.8896,550.5234,537.8896,554.5234,527.8896,558.5234,531.8896,554.5234" style="stroke:#181818;stroke-width:1;"/><line style="stroke:#181818;stroke-width:1;" x1="57.3159" x2="533.8896" y1="554.5234" y2="554.5234"/><text fill="#000000" font-family="sans-serif" font-size="13" lengthAdjust="spacing" textLength="136.9697" x="64.3159" y="549.4575">Denegar cancelaci&#243;n</text></g><g class="message" data-entity-1="part2" data-entity-2="part1" id="msg13"><polygon fill="#181818" points="68.3159,594.7891,58.3159,598.7891,68.3159,602.7891,64.3159,598.7891" style="stroke:#181818;stroke-width:1;"/><line style="stroke:#181818;stroke-width:1;stroke-dasharray:2,2;" x1="62.3159" x2="538.8896" y1="598.7891" y2="598.7891"/><text fill="#000000" font-family="sans-serif" font-size="13" lengthAdjust="spacing" textLength="154.4321" x="74.3159" y="578.5903">Mantener estado actual</text><text fill="#000000" font-family="sans-serif" font-size="13" lengthAdjust="spacing" textLength="458.5737" x="74.3159" y="593.7231">(EXAMENES_GENERADOS o EXAMENES_GENERADOS_CONTEXTUALES)</text></g><?plantuml-src ZLF1Yjim4BtxAmQV4igIKdeoPOjZArb3uYon5_Qm46RjgLTKaOoiXAM_qI_eD_JMIs7pOvKTE_5wqr8VX3LwC_FqtiXm8mX2ZeN6BK9Ea52s8vbnX2i8K6OaKCES96dC-E6djE6ar5mMC5NAm3jO4sR6SUoYDBYXoaWQSW4hIEt94scdH6runakK1joPLlPSvZ1g4iSDSiPUWzWpRctBAh1OhOGWtS3EsqlmXFIUPyVMxVzbM5LnDK3tGqwE1X-n8d1lZ2dRmpxGSTghmTMrvUv187W69C6zf9XRQyFtQAY-vup1bSrg2tYmL9NHDY7dXnz25Qhs85Fo2zVRO_g3T5z-XrGHGjPL5mZ5kS7dNeTESmU5WM0LpwBrqeV0ZmEsy8Fey3rs7B3Vy09jHztrQ0eto9hmTKzw3qAsO2c32PPyGgrJaoCVFUauFiZH3M5Uu_sTULAQVqDZjVDWIgXjvqz6VILvFMwQdFZtBAxZvsrDeZN8EmdHgQpaQ52dyx8Ejl_72dsdFH1yMtBKjy8E21S2gxTrNet6iLm_rAlgWQQjsfDlZEQFEqCZjpmLxaRQ7VUBDBCm9BLNF6z0EVsRHqjWOC_bz7DUNzFM_W_lFqAicXFxUeV90q-64xocd6jUS0qL5OTViXvVGyz6sH58eYHbItyJHidjAewc2mOA_2IQntvwj_Ot_ZHYwtGrTXmIzi65B8xO_3_cDRHI5d-RrbVF2-ihsKIg3EQgDdQ7mZ9Zz_wInIpPpEswziDLOfcz3Mxi6qhPVNhdBrXIqvIvu_IqcR4_?></g></svg>