<?plantuml 1.2026.2?><svg xmlns="http://www.w3.org/2000/svg" xmlns:xlink="http://www.w3.org/1999/xlink" contentStyleType="text/css" data-diagram-type="SEQUENCE" height="926px" preserveAspectRatio="none" style="width:1767px;height:926px;background:#FFFFFF;" version="1.1" viewBox="0 0 1767 926" width="1767px" zoomAndPan="magnify"><title>Diagrama de Secuencia - Crear Grado (Spring Boot + React)</title><defs/><g><text fill="#000000" font-family="sans-serif" font-size="14" font-weight="bold" lengthAdjust="spacing" textLength="473.4639" x="648.3152" y="27.9951">Diagrama de Secuencia - Crear Grado (Spring Boot + React)</text><g><title>Frontend .React.</title><rect fill="#FFFFFF" height="588.3906" style="stroke:#181818;stroke-width:1;" width="10" x="310.2778" y="149.7266"/></g><g><title>GradosController</title><rect fill="#FFFFFF" height="330.3281" style="stroke:#181818;stroke-width:1;" width="10" x="638.4409" y="294.3906"/></g><g><title>GradosController</title><rect fill="#FFFFFF" height="264.0625" style="stroke:#181818;stroke-width:1;" width="10" x="643.4409" y="331.5234"/></g><g><title>GradoService</title><rect fill="#FFFFFF" height="229.9297" style="stroke:#181818;stroke-width:1;" width="10" x="938.4458" y="365.6563"/></g><g><title>GradoRepository</title><rect fill="#FFFFFF" height="87.3984" style="stroke:#181818;stroke-width:1;" width="10" x="1213.6123" y="479.0547"/></g><g><title>Base de Datos .PostgreSQL.</title><rect fill="#FFFFFF" height="29.1328" style="stroke:#181818;stroke-width:1;" width="10" x="1659.4312" y="508.1875"/></g><rect fill="none" height="75.3984" style="stroke:#000000;stroke-width:1.5;" width="709.9922" x="10" y="753.1172"/><g class="participant-lifeline" data-entity-uid="part1" data-qualified-name="Teacher" id="part1-lifeline"><g><title>Docente</title><rect fill="#000000" fill-opacity="0.00000" height="726.9219" width="8" x="48.3159" y="118.5938"/><line style="stroke:#181818;stroke-width:0.5;stroke-dasharray:5,5;" x1="52" x2="52" y1="118.5938" y2="845.5156"/></g></g><g class="participant-lifeline" data-entity-uid="part2" data-qualified-name="FE" id="part2-lifeline"><g><title>Frontend .React.</title><rect fill="#000000" fill-opacity="0.00000" height="726.9219" width="8" x="311.2778" y="118.5938"/><line style="stroke:#181818;stroke-width:0.5;stroke-dasharray:5,5;" x1="314.9829" x2="314.9829" y1="118.5938" y2="845.5156"/></g></g><g class="participant-lifeline" data-entity-uid="part3" data-qualified-name="Controller" id="part3-lifeline"><g><title>GradosController</title><rect fill="#000000" fill-opacity="0.00000" height="726.9219" width="8" x="639.4409" y="118.5938"/><line style="stroke:#181818;stroke-width:0.5;stroke-dasharray:5,5;" x1="642.8896" x2="642.8896" y1="118.5938" y2="845.5156"/></g></g><g class="participant-lifeline" data-entity-uid="part4" data-qualified-name="Service" id="part4-lifeline"><g><title>GradoService</title><rect fill="#000000" fill-opacity="0.00000" height="726.9219" width="8" x="939.4458" y="118.5938"/><line style="stroke:#181818;stroke-width:0.5;stroke-dasharray:5,5;" x1="943.2573" x2="943.2573" y1="118.5938" y2="845.5156"/></g></g><g class="participant-lifeline" data-entity-uid="part5" data-qualified-name="Repo" id="part5-lifeline"><g><title>GradoRepository</title><rect fill="#000000" fill-opacity="0.00000" height="726.9219" width="8" x="1214.6123" y="118.5938"/><line style="stroke:#181818;stroke-width:0.5;stroke-dasharray:5,5;" x1="1217.7583" x2="1217.7583" y1="118.5938" y2="845.5156"/></g></g><g class="participant-lifeline" data-entity-uid="part6" data-qualified-name="DB" id="part6-lifeline"><g><title>Base de Datos .PostgreSQL.</title><rect fill="#000000" fill-opacity="0.00000" height="726.9219" width="8" x="1660.4312" y="118.5938"/><line style="stroke:#181818;stroke-width:0.5;stroke-dasharray:5,5;" x1="1663.7681" x2="1663.7681" y1="118.5938" y2="845.5156"/></g></g><g class="participant participant-head" data-entity-uid="part1" data-qualified-name="Teacher" id="part1-head"><text fill="#000000" font-family="sans-serif" font-size="14" lengthAdjust="spacing" textLength="58.6318" x="20" y="115.292">Docente</text><ellipse cx="52.3159" cy="50.7969" fill="#E2E2F0" rx="8" ry="8" style="stroke:#181818;stroke-width:0.5;"/><path d="M52.3159,58.7969 L52.3159,85.7969 M39.3159,66.7969 L65.3159,66.7969 M52.3159,85.7969 L39.3159,100.7969 M52.3159,85.7969 L65.3159,100.7969" fill="none" style="stroke:#181818;stroke-width:0.5;"/></g><g class="participant participant-tail" data-entity-uid="part1" data-qualified-name="Teacher" id="part1-tail"><text fill="#000000" font-family="sans-serif" font-size="14" lengthAdjust="spacing" textLength="58.6318" x="20" y="857.5107">Docente</text><ellipse cx="52.3159" cy="869.3125" fill="#E2E2F0" rx="8" ry="8" style="stroke:#181818;stroke-width:0.5;"/><path d="M52.3159,877.3125 L52.3159,904.3125 M39.3159,885.3125 L65.3159,885.3125 M52.3159,904.3125 L39.3159,919.3125 M52.3159,904.3125 L65.3159,919.3125" fill="none" style="stroke:#181818;stroke-width:0.5;"/></g><g class="participant participant-head" data-entity-uid="part2" data-qualified-name="FE" id="part2-head"><rect fill="#E2E2F0" height="30.2969" rx="2.5" ry="2.5" style="stroke:#181818;stroke-width:0.5;" width="132.5898" x="248.9829" y="87.2969"/><text fill="#000000" font-family="sans-serif" font-size="14" lengthAdjust="spacing" textLength="118.5898" x="255.9829" y="107.292">Frontend (React)</text></g><g class="participant participant-tail" data-entity-uid="part2" data-qualified-name="FE" id="part2-tail"><rect fill="#E2E2F0" height="30.2969" rx="2.5" ry="2.5" style="stroke:#181818;stroke-width:0.5;" width="132.5898" x="248.9829" y="844.5156"/><text fill="#000000" font-family="sans-serif" font-size="14" lengthAdjust="spacing" textLength="118.5898" x="255.9829" y="864.5107">Frontend (React)</text></g><g class="participant participant-head" data-entity-uid="part3" data-qualified-name="Controller" id="part3-head"><rect fill="#E2E2F0" height="30.2969" rx="2.5" ry="2.5" style="stroke:#181818;stroke-width:0.5;" width="133.1025" x="576.8896" y="87.2969"/><text fill="#000000" font-family="sans-serif" font-size="14" lengthAdjust="spacing" textLength="119.1025" x="583.8896" y="107.292">GradosController</text></g><g class="participant participant-tail" data-entity-uid="part3" data-qualified-name="Controller" id="part3-tail"><rect fill="#E2E2F0" height="30.2969" rx="2.5" ry="2.5" style="stroke:#181818;stroke-width:0.5;" width="133.1025" x="576.8896" y="844.5156"/><text fill="#000000" font-family="sans-serif" font-size="14" lengthAdjust="spacing" textLength="119.1025" x="583.8896" y="864.5107">GradosController</text></g><g class="participant participant-head" data-entity-uid="part4" data-qualified-name="Service" id="part4-head"><rect fill="#E2E2F0" height="30.2969" rx="2.5" ry="2.5" style="stroke:#181818;stroke-width:0.5;" width="108.377" x="889.2573" y="87.2969"/><text fill="#000000" font-family="sans-serif" font-size="14" lengthAdjust="spacing" textLength="94.377" x="896.2573" y="107.292">GradoService</text></g><g class="participant participant-tail" data-entity-uid="part4" data-qualified-name="Service" id="part4-tail"><rect fill="#E2E2F0" height="30.2969" rx="2.5" ry="2.5" style="stroke:#181818;stroke-width:0.5;" width="108.377" x="889.2573" y="844.5156"/><text fill="#000000" font-family="sans-serif" font-size="14" lengthAdjust="spacing" textLength="94.377" x="896.2573" y="864.5107">GradoService</text></g><g class="participant participant-head" data-entity-uid="part5" data-qualified-name="Repo" id="part5-head"><rect fill="#E2E2F0" height="30.2969" rx="2.5" ry="2.5" style="stroke:#181818;stroke-width:0.5;" width="131.708" x="1152.7583" y="87.2969"/><text fill="#000000" font-family="sans-serif" font-size="14" lengthAdjust="spacing" textLength="117.708" x="1159.7583" y="107.292">GradoRepository</text></g><g class="participant participant-tail" data-entity-uid="part5" data-qualified-name="Repo" id="part5-tail"><rect fill="#E2E2F0" height="30.2969" rx="2.5" ry="2.5" style="stroke:#181818;stroke-width:0.5;" width="131.708" x="1152.7583" y="844.5156"/><text fill="#000000" font-family="sans-serif" font-size="14" lengthAdjust="spacing" textLength="117.708" x="1159.7583" y="864.5107">GradoRepository</text></g><g class="participant participant-head" data-entity-uid="part6" data-qualified-name="DB" id="part6-head"><text fill="#000000" font-family="sans-serif" font-size="14" lengthAdjust="spacing" textLength="197.3262" x="1562.7681" y="115.292">Base de Datos (PostgreSQL)</text><path d="M1646.4312,66.2969 C1646.4312,56.2969 1664.4312,56.2969 1664.4312,56.2969 C1664.4312,56.2969 1682.4312,56.2969 1682.4312,66.2969 L1682.4312,92.2969 C1682.4312,102.2969 1664.4312,102.2969 1664.4312,102.2969 C1664.4312,102.2969 1646.4312,102.2969 1646.4312,92.2969 L1646.4312,66.2969" fill="#E2E2F0" style="stroke:#181818;stroke-width:0.5;"/><path d="M1646.4312,66.2969 C1646.4312,76.2969 1664.4312,76.2969 1664.4312,76.2969 C1664.4312,76.2969 1682.4312,76.2969 1682.4312,66.2969" fill="none" style="stroke:#181818;stroke-width:0.5;"/></g><g class="participant participant-tail" data-entity-uid="part6" data-qualified-name="DB" id="part6-tail"><text fill="#000000" font-family="sans-serif" font-size="14" lengthAdjust="spacing" textLength="197.3262" x="1562.7681" y="857.5107">Base de Datos (PostgreSQL)</text><path d="M1646.4312,870.8125 C1646.4312,860.8125 1664.4312,860.8125 1664.4312,860.8125 C1664.4312,860.8125 1682.4312,860.8125 1682.4312,870.8125 L1682.4312,896.8125 C1682.4312,906.8125 1664.4312,906.8125 1664.4312,906.8125 C1664.4312,906.8125 1646.4312,906.8125 1646.4312,896.8125 L1646.4312,870.8125" fill="#E2E2F0" style="stroke:#181818;stroke-width:0.5;"/><path d="M1646.4312,870.8125 C1646.4312,880.8125 1664.4312,880.8125 1664.4312,880.8125 C1664.4312,880.8125 1682.4312,880.8125 1682.4312,870.8125" fill="none" style="stroke:#181818;stroke-width:0.5;"/></g><g><title>Frontend .React.</title><rect fill="#FFFFFF" height="588.3906" style="stroke:#181818;stroke-width:1;" width="10" x="310.2778" y="149.7266"/></g><g><title>GradosController</title><rect fill="#FFFFFF" height="330.3281" style="stroke:#181818;stroke-width:1;" width="10" x="638.4409" y="294.3906"/></g><g><title>GradosController</title><rect fill="#FFFFFF" height="264.0625" style="stroke:#181818;stroke-width:1;" width="10" x="643.4409" y="331.5234"/></g><g><title>GradoService</title><rect fill="#FFFFFF" height="229.9297" style="stroke:#181818;stroke-width:1;" width="10" x="938.4458" y="365.6563"/></g><g><title>GradoRepository</title><rect fill="#FFFFFF" height="87.3984" style="stroke:#181818;stroke-width:1;" width="10" x="1213.6123" y="479.0547"/></g><g><title>Base de Datos .PostgreSQL.</title><rect fill="#FFFFFF" height="29.1328" style="stroke:#181818;stroke-width:1;" width="10" x="1659.4312" y="508.1875"/></g><g class="message" data-entity-1="part1" data-entity-2="part2" id="msg1"><polygon fill="#181818" points="298.2778,145.7266,308.2778,149.7266,298.2778,153.7266,302.2778,149.7266" style="stroke:#181818;stroke-width:1;"/><line style="stroke:#181818;stroke-width:1;" x1="52.3159" x2="304.2778" y1="149.7266" y2="149.7266"/><text fill="#000000" font-family="sans-serif" font-size="13" lengthAdjust="spacing" textLength="145.2407" x="59.3159" y="144.6606">Clic en "Nuevo Grado"</text></g><g class="message" data-entity-1="part2" data-entity-2="part1" id="msg2"><polygon fill="#181818" points="63.3159,174.8594,53.3159,178.8594,63.3159,182.8594,59.3159,178.8594" style="stroke:#181818;stroke-width:1;"/><line style="stroke:#181818;stroke-width:1;stroke-dasharray:2,2;" x1="57.3159" x2="309.2778" y1="178.8594" y2="178.8594"/><text fill="#000000" font-family="sans-serif" font-size="13" lengthAdjust="spacing" textLength="233.9619" x="69.3159" y="173.7935">Mostrar Formulario (datos m&#237;nimos)</text></g><g class="message" data-entity-1="part1" data-entity-2="part2" id="msg3"><polygon fill="#181818" points="298.2778,203.9922,308.2778,207.9922,298.2778,211.9922,302.2778,207.9922" style="stroke:#181818;stroke-width:1;"/><line style="stroke:#181818;stroke-width:1;" x1="52.3159" x2="304.2778" y1="207.9922" y2="207.9922"/><text fill="#000000" font-family="sans-serif" font-size="13" lengthAdjust="spacing" textLength="187.9033" x="59.3159" y="202.9263">Ingresa datos (t&#237;tulo, c&#243;digo)</text></g><g class="message" data-entity-1="part2" data-entity-2="part2" id="msg4"><line style="stroke:#181818;stroke-width:1;" x1="320.2778" x2="362.2778" y1="237.125" y2="237.125"/><line style="stroke:#181818;stroke-width:1;" x1="362.2778" x2="362.2778" y1="237.125" y2="250.125"/><line style="stroke:#181818;stroke-width:1;" x1="321.2778" x2="362.2778" y1="250.125" y2="250.125"/><polygon fill="#181818" points="331.2778,246.125,321.2778,250.125,331.2778,254.125,327.2778,250.125" style="stroke:#181818;stroke-width:1;"/><text fill="#000000" font-family="sans-serif" font-size="13" lengthAdjust="spacing" textLength="198.3516" x="327.2778" y="232.0591">Validar formulario (client-side)</text></g><g class="message" data-entity-1="part2" data-entity-2="part3" id="msg5"><polygon fill="#181818" points="626.4409,290.3906,636.4409,294.3906,626.4409,298.3906,630.4409,294.3906" style="stroke:#181818;stroke-width:1;"/><line style="stroke:#181818;stroke-width:1;" x1="320.2778" x2="632.4409" y1="294.3906" y2="294.3906"/><text fill="#000000" font-family="sans-serif" font-size="13" lengthAdjust="spacing" textLength="273.2349" x="327.2778" y="274.1919">POST /api/grados (GradoCreateDTO JSON)</text><text fill="#000000" font-family="sans-serif" font-size="13" lengthAdjust="spacing" textLength="267.8774" x="327.2778" y="289.3247">(Header: Authorization: Bearer &lt;token&gt;)</text></g><g class="message" data-entity-1="part3" data-entity-2="part3" id="msg6"><line style="stroke:#181818;stroke-width:1;" x1="648.4409" x2="695.4409" y1="318.5234" y2="318.5234"/><line style="stroke:#181818;stroke-width:1;" x1="695.4409" x2="695.4409" y1="318.5234" y2="331.5234"/><line style="stroke:#181818;stroke-width:1;" x1="654.4409" x2="695.4409" y1="331.5234" y2="331.5234"/><polygon fill="#181818" points="664.4409,327.5234,654.4409,331.5234,664.4409,335.5234,660.4409,331.5234" style="stroke:#181818;stroke-width:1;"/><text fill="#000000" font-family="sans-serif" font-size="13" lengthAdjust="spacing" textLength="169.1016" x="660.4409" y="313.4575">extraer docenteId del JWT</text></g><g class="message" data-entity-1="part3" data-entity-2="part4" id="msg7"><polygon fill="#181818" points="926.4458,361.6563,936.4458,365.6563,926.4458,369.6563,930.4458,365.6563" style="stroke:#181818;stroke-width:1;"/><line style="stroke:#181818;stroke-width:1;" x1="653.4409" x2="932.4458" y1="365.6563" y2="365.6563"/><text fill="#000000" font-family="sans-serif" font-size="13" lengthAdjust="spacing" textLength="266.0049" x="660.4409" y="360.5903">crearGrado(gradoCreateDTO, docenteId)</text></g><g class="message" data-entity-1="part4" data-entity-2="part4" id="msg8"><line style="stroke:#181818;stroke-width:1;" x1="948.4458" x2="990.4458" y1="394.7891" y2="394.7891"/><line style="stroke:#181818;stroke-width:1;" x1="990.4458" x2="990.4458" y1="394.7891" y2="407.7891"/><line style="stroke:#181818;stroke-width:1;" x1="949.4458" x2="990.4458" y1="407.7891" y2="407.7891"/><polygon fill="#181818" points="959.4458,403.7891,949.4458,407.7891,959.4458,411.7891,955.4458,407.7891" style="stroke:#181818;stroke-width:1;"/><text fill="#000000" font-family="sans-serif" font-size="13" lengthAdjust="spacing" textLength="146.9229" x="955.4458" y="389.7231">Mapear DTO a Entidad</text></g><g class="message" data-entity-1="part4" data-entity-2="part4" id="msg9"><line style="stroke:#181818;stroke-width:1;" x1="948.4458" x2="990.4458" y1="436.9219" y2="436.9219"/><line style="stroke:#181818;stroke-width:1;" x1="990.4458" x2="990.4458" y1="436.9219" y2="449.9219"/><line style="stroke:#181818;stroke-width:1;" x1="949.4458" x2="990.4458" y1="449.9219" y2="449.9219"/><polygon fill="#181818" points="959.4458,445.9219,949.4458,449.9219,959.4458,453.9219,955.4458,449.9219" style="stroke:#181818;stroke-width:1;"/><text fill="#000000" font-family="sans-serif" font-size="13" lengthAdjust="spacing" textLength="241.1665" x="955.4458" y="431.856">Asociar grado al docente (docenteId)</text></g><g class="message" data-entity-1="part4" data-entity-2="part5" id="msg10"><polygon fill="#181818" points="1201.6123,475.0547,1211.6123,479.0547,1201.6123,483.0547,1205.6123,479.0547" style="stroke:#181818;stroke-width:1;"/><line style="stroke:#181818;stroke-width:1;" x1="948.4458" x2="1207.6123" y1="479.0547" y2="479.0547"/><text fill="#000000" font-family="sans-serif" font-size="13" lengthAdjust="spacing" textLength="78.3428" x="955.4458" y="473.9888">save(grado)</text></g><g class="message" data-entity-1="part5" data-entity-2="part6" id="msg11"><polygon fill="#181818" points="1647.4312,504.1875,1657.4312,508.1875,1647.4312,512.1875,1651.4312,508.1875" style="stroke:#181818;stroke-width:1;"/><line style="stroke:#181818;stroke-width:1;" x1="1223.6123" x2="1653.4312" y1="508.1875" y2="508.1875"/><text fill="#000000" font-family="sans-serif" font-size="13" lengthAdjust="spacing" textLength="416.8188" x="1230.6123" y="503.1216">INSERT INTO grados (titulo, codigo, docente_id) VALUES (?, ?, ?)</text></g><g class="message" data-entity-1="part6" data-entity-2="part5" id="msg12"><polygon fill="#181818" points="1234.6123,533.3203,1224.6123,537.3203,1234.6123,541.3203,1230.6123,537.3203" style="stroke:#181818;stroke-width:1;"/><line style="stroke:#181818;stroke-width:1;stroke-dasharray:2,2;" x1="1228.6123" x2="1663.4312" y1="537.3203" y2="537.3203"/><text fill="#000000" font-family="sans-serif" font-size="13" lengthAdjust="spacing" textLength="161.3193" x="1240.6123" y="532.2544">Grado (con ID generado)</text></g><g class="message" data-entity-1="part5" data-entity-2="part4" id="msg13"><polygon fill="#181818" points="959.4458,562.4531,949.4458,566.4531,959.4458,570.4531,955.4458,566.4531" style="stroke:#181818;stroke-width:1;"/><line style="stroke:#181818;stroke-width:1;stroke-dasharray:2,2;" x1="953.4458" x2="1217.6123" y1="566.4531" y2="566.4531"/><text fill="#000000" font-family="sans-serif" font-size="13" lengthAdjust="spacing" textLength="39.5903" x="965.4458" y="561.3872">Grado</text></g><g class="message" data-entity-1="part4" data-entity-2="part3" id="msg14"><polygon fill="#181818" points="659.4409,591.5859,649.4409,595.5859,659.4409,599.5859,655.4409,595.5859" style="stroke:#181818;stroke-width:1;"/><line style="stroke:#181818;stroke-width:1;stroke-dasharray:2,2;" x1="653.4409" x2="942.4458" y1="595.5859" y2="595.5859"/><text fill="#000000" font-family="sans-serif" font-size="13" lengthAdjust="spacing" textLength="162.7285" x="665.4409" y="590.52">GradoDTO (201 Created)</text></g><g class="message" data-entity-1="part3" data-entity-2="part2" id="msg15"><polygon fill="#181818" points="331.2778,620.7188,321.2778,624.7188,331.2778,628.7188,327.2778,624.7188" style="stroke:#181818;stroke-width:1;"/><line style="stroke:#181818;stroke-width:1;stroke-dasharray:2,2;" x1="325.2778" x2="642.4409" y1="624.7188" y2="624.7188"/><text fill="#000000" font-family="sans-serif" font-size="13" lengthAdjust="spacing" textLength="198.9038" x="337.2778" y="619.6528">201 Created (GradoDTO JSON)</text></g><g class="message" data-entity-1="part2" data-entity-2="part2" id="msg16"><line style="stroke:#181818;stroke-width:1;" x1="320.2778" x2="362.2778" y1="653.8516" y2="653.8516"/><line style="stroke:#181818;stroke-width:1;" x1="362.2778" x2="362.2778" y1="653.8516" y2="666.8516"/><line style="stroke:#181818;stroke-width:1;" x1="321.2778" x2="362.2778" y1="666.8516" y2="666.8516"/><polygon fill="#181818" points="331.2778,662.8516,321.2778,666.8516,331.2778,670.8516,327.2778,666.8516" style="stroke:#181818;stroke-width:1;"/><text fill="#000000" font-family="sans-serif" font-size="13" lengthAdjust="spacing" textLength="294.1631" x="327.2778" y="648.7856">Mostrar Toast "Grado creado correctamente"</text></g><g class="message" data-entity-1="part2" data-entity-2="part2" id="msg17"><line style="stroke:#181818;stroke-width:1;" x1="320.2778" x2="362.2778" y1="695.9844" y2="695.9844"/><line style="stroke:#181818;stroke-width:1;" x1="362.2778" x2="362.2778" y1="695.9844" y2="708.9844"/><line style="stroke:#181818;stroke-width:1;" x1="321.2778" x2="362.2778" y1="708.9844" y2="708.9844"/><polygon fill="#181818" points="331.2778,704.9844,321.2778,708.9844,331.2778,712.9844,327.2778,708.9844" style="stroke:#181818;stroke-width:1;"/><text fill="#000000" font-family="sans-serif" font-size="13" lengthAdjust="spacing" textLength="238.6719" x="327.2778" y="690.9185">Redirigir a editarGrado(gradoNuevo)</text></g><g class="message" data-entity-1="part2" data-entity-2="part1" id="msg18"><polygon fill="#181818" points="63.3159,734.1172,53.3159,738.1172,63.3159,742.1172,59.3159,738.1172" style="stroke:#181818;stroke-width:1;"/><line style="stroke:#181818;stroke-width:1;stroke-dasharray:2,2;" x1="57.3159" x2="314.2778" y1="738.1172" y2="738.1172"/><text fill="#000000" font-family="sans-serif" font-size="13" lengthAdjust="spacing" textLength="195.5396" x="69.3159" y="733.0513">Mostrar Formulario de Edici&#243;n</text></g><path d="M10,753.1172 L74.4429,753.1172 L74.4429,760.25 L64.4429,770.25 L10,770.25 L10,753.1172" fill="#EEEEEE" style="stroke:#000000;stroke-width:1.5;"/><rect fill="none" height="75.3984" style="stroke:#000000;stroke-width:1.5;" width="709.9922" x="10" y="753.1172"/><text fill="#000000" font-family="sans-serif" font-size="13" font-weight="bold" lengthAdjust="spacing" textLength="19.4429" x="25" y="766.1841">alt</text><text fill="#000000" font-family="sans-serif" font-size="11" font-weight="bold" lengthAdjust="spacing" textLength="105.8374" x="89.4429" y="765.3276">[Datos Inv&#225;lidos]</text><g class="message" data-entity-1="part3" data-entity-2="part2" id="msg19"><polygon fill="#181818" points="326.2778,787.3828,316.2778,791.3828,326.2778,795.3828,322.2778,791.3828" style="stroke:#181818;stroke-width:1;"/><line style="stroke:#181818;stroke-width:1;stroke-dasharray:2,2;" x1="320.2778" x2="642.4409" y1="791.3828" y2="791.3828"/><text fill="#000000" font-family="sans-serif" font-size="13" lengthAdjust="spacing" textLength="232.7749" x="332.2778" y="786.3169">400 Bad Request (validation errors)</text></g><g class="message" data-entity-1="part2" data-entity-2="part1" id="msg20"><polygon fill="#181818" points="63.3159,816.5156,53.3159,820.5156,63.3159,824.5156,59.3159,820.5156" style="stroke:#181818;stroke-width:1;"/><line style="stroke:#181818;stroke-width:1;stroke-dasharray:2,2;" x1="57.3159" x2="314.2778" y1="820.5156" y2="820.5156"/><text fill="#000000" font-family="sans-serif" font-size="13" lengthAdjust="spacing" textLength="191.1533" x="69.3159" y="815.4497">Mostrar errores de validaci&#243;n</text></g><?plantuml-src ZLJRRjD047ttLupov8X6BOYd21N5TGAfUYCEvGK93Tx1NU7iXjrD1FmD7z2dVa9-ZDbTktQgL6eK-RPpEJFdp3ZfQe9SOcLmXI082Yetf4g9C88pGsZWWq6X8ItMHgeACgqTl885OUc6IS9NRM2GwvAKem6WXIKVtP59rcYSBEKQbOF1p6W-LmBIw1aiPzDzev39dh6bqNLD9XXrhmUC2p9RMSQypVC1gmMjjPKCz4ymzA-9G8VVqH8CCd_bodDqsa9wewsh31MVBYB8F4kIfYGOdJBcCPpLiWHICBZQq5R71WryA-GM7VcoPbCOiN7ZDuPB3cgubpDjLfiQZUI6Yf1ljRjNSgNjy6cIkM8KbZc9iDpktcrgVGJbxa78IWz3ZcXwYxKK7Fr7BtfPIsPaPAMWrhJhv1Xkheib7EDQ7bUXwP26AZpZZlBbDPmNrrV3hohzI2YymsJZxhIHVz59hSQGiJ8OwpkdVv8w7NR5z-Zg7fzcfz_S3VuiecpcWljVm_cNvGlYD3IFeVJg3AZJQW_xKHUt1woLHtFV2tM9QwzqNpV2L3dkfZXeEB6QHyD0I0XOjvcOpIvbpz5BRGmMjnGnzl045VgBjyip9logc2wMV6CKBIbEDgHhp_bZOT-a6CBjvEBpj83q_H7uVoyqIpRFWW1Z_cQ2IwrWdaD5YY8MGNsNYALVRV3hMmNCZ-Kz8JLO-nQcRqvUGsH3x2LfAUXzUeRcHjYzG8r07wNvJ91kADgHMsgqxI88cl4tRGoL3bTXQVMS5YIaaPKqh0D-T7i22zC-VCbiypQP2jv1kmVLnycB8S7QDPjchhQxVpousYR0lmFblpqvWGm5e_gr8IuYtOP1znC8P8msl3Myw-5M-9Fdi0PliXveZ1cnyeB-3m00?></g></svg>