<svg xmlns="http://www.w3.org/2000/svg" xmlns:xlink="http://www.w3.org/1999/xlink" contentStyleType="text/css" data-diagram-type="STATE" height="913px" preserveAspectRatio="none" style="width:1406px;height:913px;background:#FFFFFF;" version="1.1" viewBox="0 0 1406 913" width="1406px" zoomAndPan="magnify"><defs/><g><g id="EXAMENES_ASIGNADOS_CONTEXTUALES"><rect fill="#F1F1F1" height="50" rx="12.5" ry="12.5" style="stroke:#181818;stroke-width:0.5;" width="307.4854" x="7" y="7"/><line style="stroke:#181818;stroke-width:0.5;" x1="7" x2="314.4854" y1="33.2969" y2="33.2969"/><text fill="#000000" font-family="sans-serif" font-size="14" lengthAdjust="spacing" textLength="287.4854" x="17" y="24.9951">EXAMENES_ASIGNADOS_CONTEXTUALES</text></g><g id="PREGUNTAS_CONTEXTUALES_ABIERTO"><rect fill="#F1F1F1" height="50" rx="12.5" ry="12.5" style="stroke:#181818;stroke-width:0.5;" width="293.2188" x="349" y="7"/><line style="stroke:#181818;stroke-width:0.5;" x1="349" x2="642.2188" y1="33.2969" y2="33.2969"/><text fill="#000000" font-family="sans-serif" font-size="14" lengthAdjust="spacing" textLength="273.2188" x="359" y="24.9951">PREGUNTAS_CONTEXTUALES_ABIERTO</text></g><g id="ASIGNATURAS_ABIERTO"><rect fill="#F1F1F1" height="50" rx="12.5" ry="12.5" style="stroke:#181818;stroke-width:0.5;" width="188.9365" x="677" y="7"/><line style="stroke:#181818;stroke-width:0.5;" x1="677" x2="865.9365" y1="33.2969" y2="33.2969"/><text fill="#000000" font-family="sans-serif" font-size="14" lengthAdjust="spacing" textLength="168.9365" x="687" y="24.9951">ASIGNATURAS_ABIERTO</text></g><g id="ASIGNATURAS_ABIERTO1"><rect fill="#F1F1F1" height="50" rx="12.5" ry="12.5" style="stroke:#181818;stroke-width:0.5;" width="188.9365" x="95" y="857"/><line style="stroke:#181818;stroke-width:0.5;" x1="95" x2="283.9365" y1="883.2969" y2="883.2969"/><text fill="#000000" font-family="sans-serif" font-size="14" lengthAdjust="spacing" textLength="168.9365" x="105" y="874.9951">ASIGNATURAS_ABIERTO</text></g><g id="ASIGNATURA_ABIERTO"><rect fill="#F1F1F1" height="50" rx="12.5" ry="12.5" style="stroke:#181818;stroke-width:0.5;" width="180.0498" x="901.5" y="7"/><line style="stroke:#181818;stroke-width:0.5;" x1="901.5" x2="1081.5498" y1="33.2969" y2="33.2969"/><text fill="#000000" font-family="sans-serif" font-size="14" lengthAdjust="spacing" textLength="160.0498" x="911.5" y="24.9951">ASIGNATURA_ABIERTO</text></g><g id="ASIGNATURAS_ABIERTO2"><rect fill="#F1F1F1" height="50" rx="12.5" ry="12.5" style="stroke:#181818;stroke-width:0.5;" width="188.9365" x="319" y="857"/><line style="stroke:#181818;stroke-width:0.5;" x1="319" x2="507.9365" y1="883.2969" y2="883.2969"/><text fill="#000000" font-family="sans-serif" font-size="14" lengthAdjust="spacing" textLength="168.9365" x="329" y="874.9951">ASIGNATURAS_ABIERTO</text></g><g id="ASIGNATURA_ABIERTO2"><rect fill="#F1F1F1" height="50" rx="12.5" ry="12.5" style="stroke:#181818;stroke-width:0.5;" width="180.0498" x="543.5" y="857"/><line style="stroke:#181818;stroke-width:0.5;" x1="543.5" x2="723.5498" y1="883.2969" y2="883.2969"/><text fill="#000000" font-family="sans-serif" font-size="14" lengthAdjust="spacing" textLength="160.0498" x="553.5" y="874.9951">ASIGNATURA_ABIERTO</text></g><g id="PREGUNTAS_CONTEXTUALES_ABIERTO1"><rect fill="#F1F1F1" height="50" rx="12.5" ry="12.5" style="stroke:#181818;stroke-width:0.5;" width="293.2188" x="759" y="857"/><line style="stroke:#181818;stroke-width:0.5;" x1="759" x2="1052.2188" y1="883.2969" y2="883.2969"/><text fill="#000000" font-family="sans-serif" font-size="14" lengthAdjust="spacing" textLength="273.2188" x="769" y="874.9951">PREGUNTAS_CONTEXTUALES_ABIERTO</text></g><path d="M24.5,118 L1242.5,118 A12.5,12.5 0 0 1 1255,130.5 L1255,144.2969 L12,144.2969 L12,130.5 A12.5,12.5 0 0 1 24.5,118" fill="#F1F1F1"/><rect fill="none" height="644.2969" rx="12.5" ry="12.5" style="stroke:#181818;stroke-width:0.5;" width="1243" x="12" y="118"/><line style="stroke:#181818;stroke-width:0.5;" x1="12" x2="1255" y1="144.2969" y2="144.2969"/><text fill="#000000" font-family="sans-serif" font-size="14" lengthAdjust="spacing" textLength="127.9346" x="569.5327" y="135.9951">editarAsignatura()</text><g id="editarAsignatura.EditandoDatos"><rect fill="#F1F1F1" height="50" rx="12.5" ry="12.5" style="stroke:#181818;stroke-width:0.5;" width="50" x="534" y="246.2969"/><line style="stroke:#181818;stroke-width:0.5;" x1="534" x2="584" y1="272.5938" y2="272.5938"/><text fill="#000000" font-family="sans-serif" font-size="14" lengthAdjust="spacing" textLength="4.4502" x="556.7749" y="264.292">&#160;</text></g><g id="editarAsignatura.GuardandoDatos"><rect fill="#F1F1F1" height="50" rx="12.5" ry="12.5" style="stroke:#181818;stroke-width:0.5;" width="50" x="534" y="609.2969"/><line style="stroke:#181818;stroke-width:0.5;" x1="534" x2="584" y1="635.5938" y2="635.5938"/><text fill="#000000" font-family="sans-serif" font-size="14" lengthAdjust="spacing" textLength="4.4502" x="556.7749" y="627.292">&#160;</text></g><ellipse cx="559" cy="165.2969" fill="#222222" rx="10" ry="10" style="stroke:#222222;stroke-width:1;"/><ellipse cx="559" cy="741.2969" fill="none" rx="11" ry="11" style="stroke:#222222;stroke-width:1;"/><ellipse cx="559" cy="741.2969" fill="#222222" rx="6" ry="6" style="stroke:#222222;stroke-width:1;"/><!--link *start*editarAsignatura to EditandoDatos--><g class="link" data-entity-1=".start.editarAsignatura" data-entity-2="EditandoDatos" data-source-line="22" data-uid="lnk7" id="link_.start.editarAsignatura_EditandoDatos"><path d="M559,175.5269 C559,191.2369 559,217.6569 559,240.1669" fill="none" id="*start*editarAsignatura-to-EditandoDatos" style="stroke:#008000;stroke-width:1;"/><polygon fill="#008000" points="559,246.1669,563,237.1669,559,241.1669,555,237.1669,559,246.1669" style="stroke:#008000;stroke-width:1;"/><path d="M564,198.2969 L564,223.2969 L811,223.2969 L811,208.2969 L801,198.2969 L564,198.2969" fill="#FEFFDD" style="stroke:#181818;stroke-width:0.5;"/><path d="M801,198.2969 L801,208.2969 L811,208.2969 L801,198.2969" fill="#FEFFDD" style="stroke:#181818;stroke-width:0.5;"/><text fill="#000000" font-family="sans-serif" font-size="13" font-weight="bold" lengthAdjust="spacing" textLength="60.5313" x="570" y="215.3638">Docente</text><text fill="#000000" font-family="sans-serif" font-size="13" lengthAdjust="spacing" textLength="161.7637" x="634.6636" y="215.3638">solicita editar asignatura</text></g><!--link EditandoDatos to GuardandoDatos--><g class="link" data-entity-1="EditandoDatos" data-entity-2="GuardandoDatos" data-source-line="27" data-uid="lnk8" id="link_EditandoDatos_GuardandoDatos"><path d="M533.94,279.7069 C493.17,291.7669 417,314.2969 417,314.2969 C417,314.2969 417,591.2969 417,591.2969 C417,591.2969 487.4164,612.1249 528.1864,624.1849" fill="none" id="EditandoDatos-to-GuardandoDatos" style="stroke:#008000;stroke-width:1;"/><polygon fill="#008000" points="533.94,625.8869,526.4443,619.4983,529.1454,624.4686,524.175,627.1697,533.94,625.8869" style="stroke:#008000;stroke-width:1;"/><path d="M422,319.2969 L422,586.2969 L675,586.2969 L675,329.2969 L665,319.2969 L422,319.2969" fill="#FEFFDD" style="stroke:#181818;stroke-width:0.5;"/><path d="M665,319.2969 L665,329.2969 L675,329.2969 L665,319.2969" fill="#FEFFDD" style="stroke:#181818;stroke-width:0.5;"/><text fill="#000000" font-family="sans-serif" font-size="13" font-weight="bold" lengthAdjust="spacing" textLength="58.9063" x="428" y="336.3638">Sistema</text><text fill="#000000" font-family="sans-serif" font-size="13" lengthAdjust="spacing" textLength="169.1714" x="491.0386" y="336.3638">presenta datos de edici&#243;n</text><text fill="#000000" font-family="sans-serif" font-size="13" lengthAdjust="spacing" textLength="4.1323" x="428" y="351.4966">&#160;</text><text fill="#000000" font-family="sans-serif" font-size="13" font-weight="bold" lengthAdjust="spacing" textLength="132.4121" x="428" y="366.6294">Datos Asignatura:</text><text fill="#000000" font-family="sans-serif" font-size="13" lengthAdjust="spacing" textLength="48.2549" x="428" y="381.7622">&#8226; T&#237;tulo</text><text fill="#000000" font-family="sans-serif" font-size="13" lengthAdjust="spacing" textLength="56.9004" x="428" y="396.895">&#8226; C&#243;digo</text><text fill="#000000" font-family="sans-serif" font-size="13" lengthAdjust="spacing" textLength="124.9536" x="428" y="412.0278">&#8226; Curso Acad&#233;mico</text><text fill="#000000" font-family="sans-serif" font-size="13" lengthAdjust="spacing" textLength="156.9331" x="428" y="427.1606">&#8226; Alumnos matriculados</text><text fill="#000000" font-family="sans-serif" font-size="13" lengthAdjust="spacing" textLength="126.6929" x="428" y="442.2935">&#8226; Grados asociados</text><text fill="#000000" font-family="sans-serif" font-size="13" lengthAdjust="spacing" textLength="149.3794" x="428" y="457.4263">&#8226; Bater&#237;a de preguntas</text><text fill="#000000" font-family="sans-serif" font-size="13" lengthAdjust="spacing" textLength="4.1323" x="428" y="472.5591">&#160;</text><text fill="#000000" font-family="sans-serif" font-size="13" font-weight="bold" lengthAdjust="spacing" textLength="58.9063" x="428" y="487.6919">Sistema</text><text fill="#000000" font-family="sans-serif" font-size="13" lengthAdjust="spacing" textLength="110.5952" x="491.0386" y="487.6919">permite solicitar:</text><text fill="#000000" font-family="sans-serif" font-size="13" lengthAdjust="spacing" textLength="127.8164" x="428" y="502.8247">&#8226; modificar campos</text><text fill="#000000" font-family="sans-serif" font-size="13" lengthAdjust="spacing" textLength="136.7539" x="428" y="517.9575">&#8226; guardar asignatura</text><text fill="#000000" font-family="sans-serif" font-size="13" lengthAdjust="spacing" textLength="118.168" x="428" y="533.0903">&#8226; cancelar edici&#243;n</text><text fill="#000000" font-family="sans-serif" font-size="13" lengthAdjust="spacing" textLength="103.1304" x="428" y="548.2231">&#8226; ver preguntas</text><text fill="#000000" font-family="sans-serif" font-size="13" lengthAdjust="spacing" textLength="119.6343" x="428" y="563.356">&#8226; generar examen</text><text fill="#000000" font-family="sans-serif" font-size="13" lengthAdjust="spacing" textLength="64.8477" x="428" y="578.4888">&#8226; eliminar</text></g><!--link GuardandoDatos to EditandoDatos--><g class="link" data-entity-1="GuardandoDatos" data-entity-2="EditandoDatos" data-source-line="48" data-uid="lnk9" id="link_GuardandoDatos_EditandoDatos"><path d="M584.07,624.5969 C619.51,612.2969 680,591.2969 680,591.2969 C680,591.2969 680,314.2969 680,314.2969 C680,314.2969 625.1783,295.2642 589.7383,282.9642" fill="none" id="GuardandoDatos-to-EditandoDatos" style="stroke:#008000;stroke-width:1;"/><polygon fill="#008000" points="584.07,280.9969,591.261,287.7267,588.7936,282.6363,593.884,280.1689,584.07,280.9969" style="stroke:#008000;stroke-width:1;"/><path d="M685,440.2969 L685,465.2969 L936,465.2969 L936,450.2969 L926,440.2969 L685,440.2969" fill="#FEFFDD" style="stroke:#181818;stroke-width:0.5;"/><path d="M926,440.2969 L926,450.2969 L936,450.2969 L926,440.2969" fill="#FEFFDD" style="stroke:#181818;stroke-width:0.5;"/><text fill="#000000" font-family="sans-serif" font-size="13" font-weight="bold" lengthAdjust="spacing" textLength="60.5313" x="691" y="457.3638">Docente</text><text fill="#000000" font-family="sans-serif" font-size="13" lengthAdjust="spacing" textLength="165.9214" x="755.6636" y="457.3638">solicita modificar campos</text></g><!--link GuardandoDatos to *end*editarAsignatura--><g class="link" data-entity-1="GuardandoDatos" data-entity-2=".end.editarAsignatura" data-source-line="53" data-uid="lnk11" id="link_GuardandoDatos_.end.editarAsignatura"><path d="M533.87,637.2669 C427.9,645.5669 23,677.2969 23,677.2969 C23,677.2969 23,712.2969 23,712.2969 C23,712.2969 464.8382,735.3732 541.8082,739.4032" fill="none" id="GuardandoDatos-to-*end*editarAsignatura" style="stroke:#008000;stroke-width:1;"/><polygon fill="#008000" points="547.8,739.7169,539.0215,735.2518,542.8068,739.4554,538.6032,743.2408,547.8,739.7169" style="stroke:#008000;stroke-width:1;"/><path d="M28,682.2969 L28,707.2969 L258,707.2969 L258,692.2969 L248,682.2969 L28,682.2969" fill="#FEFFDD" style="stroke:#181818;stroke-width:0.5;"/><path d="M248,682.2969 L248,692.2969 L258,692.2969 L248,682.2969" fill="#FEFFDD" style="stroke:#181818;stroke-width:0.5;"/><text fill="#000000" font-family="sans-serif" font-size="13" font-weight="bold" lengthAdjust="spacing" textLength="60.5313" x="34" y="699.3638">Docente</text><text fill="#000000" font-family="sans-serif" font-size="13" lengthAdjust="spacing" textLength="144.5361" x="98.6636" y="699.3638">solicita guardar y salir</text></g><!--link GuardandoDatos to *end*editarAsignatura--><g class="link" data-entity-1="GuardandoDatos" data-entity-2=".end.editarAsignatura" data-source-line="58" data-uid="lnk12" id="link_GuardandoDatos_.end.editarAsignatura"><path d="M533.81,639.1769 C466.22,649.5669 286,677.2969 286,677.2969 C286,677.2969 286,712.2969 286,712.2969 C286,712.2969 490.9213,733.3145 541.9913,738.5545" fill="none" id="GuardandoDatos-to-*end*editarAsignatura-1" style="stroke:#FF0000;stroke-width:1;"/><polygon fill="#FF0000" points="547.96,739.1669,539.4153,734.2691,542.9861,738.6565,538.5987,742.2274,547.96,739.1669" style="stroke:#FF0000;stroke-width:1;"/><path d="M291,682.2969 L291,707.2969 L532,707.2969 L532,692.2969 L522,682.2969 L291,682.2969" fill="#FEFFDD" style="stroke:#181818;stroke-width:0.5;"/><path d="M522,682.2969 L522,692.2969 L532,692.2969 L522,682.2969" fill="#FEFFDD" style="stroke:#181818;stroke-width:0.5;"/><text fill="#000000" font-family="sans-serif" font-size="13" font-weight="bold" lengthAdjust="spacing" textLength="60.5313" x="297" y="699.3638">Docente</text><text fill="#000000" font-family="sans-serif" font-size="13" lengthAdjust="spacing" textLength="156.2729" x="361.6636" y="699.3638">solicita cancelar edici&#243;n</text></g><!--link GuardandoDatos to *end*editarAsignatura--><g class="link" data-entity-1="GuardandoDatos" data-entity-2=".end.editarAsignatura" data-source-line="63" data-uid="lnk13" id="link_GuardandoDatos_.end.editarAsignatura"><path d="M559,659.3869 C559,681.7869 559,708.0669 559,724.2469" fill="none" id="GuardandoDatos-to-*end*editarAsignatura-2" style="stroke:#0000FF;stroke-width:1;"/><polygon fill="#0000FF" points="559,730.2469,563,721.2469,559,725.2469,555,721.2469,559,730.2469" style="stroke:#0000FF;stroke-width:1;"/><path d="M564,682.2969 L564,707.2969 L790,707.2969 L790,692.2969 L780,682.2969 L564,682.2969" fill="#FEFFDD" style="stroke:#181818;stroke-width:0.5;"/><path d="M780,682.2969 L780,692.2969 L790,692.2969 L780,682.2969" fill="#FEFFDD" style="stroke:#181818;stroke-width:0.5;"/><text fill="#000000" font-family="sans-serif" font-size="13" font-weight="bold" lengthAdjust="spacing" textLength="60.5313" x="570" y="699.3638">Docente</text><text fill="#000000" font-family="sans-serif" font-size="13" lengthAdjust="spacing" textLength="141.2354" x="634.6636" y="699.3638">solicita ver preguntas</text></g><!--link GuardandoDatos to *end*editarAsignatura--><g class="link" data-entity-1="GuardandoDatos" data-entity-2=".end.editarAsignatura" data-source-line="68" data-uid="lnk14" id="link_GuardandoDatos_.end.editarAsignatura"><path d="M584.36,639.7869 C645.5,650.6269 796,677.2969 796,677.2969 C796,677.2969 796,712.2969 796,712.2969 C796,712.2969 622.1187,732.8438 575.7587,738.3138" fill="none" id="GuardandoDatos-to-*end*editarAsignatura-3" style="stroke:#FFFF00;stroke-width:1;"/><polygon fill="#FFFF00" points="569.8,739.0169,579.2067,741.9347,574.7656,738.431,578.2693,733.9898,569.8,739.0169" style="stroke:#FFFF00;stroke-width:1;"/><path d="M801,682.2969 L801,707.2969 L1044,707.2969 L1044,692.2969 L1034,682.2969 L801,682.2969" fill="#FEFFDD" style="stroke:#181818;stroke-width:0.5;"/><path d="M1034,682.2969 L1034,692.2969 L1044,692.2969 L1034,682.2969" fill="#FEFFDD" style="stroke:#181818;stroke-width:0.5;"/><text fill="#000000" font-family="sans-serif" font-size="13" font-weight="bold" lengthAdjust="spacing" textLength="60.5313" x="807" y="699.3638">Docente</text><text fill="#000000" font-family="sans-serif" font-size="13" lengthAdjust="spacing" textLength="157.7393" x="871.6636" y="699.3638">solicita generar examen</text></g><!--link GuardandoDatos to *end*editarAsignatura--><g class="link" data-entity-1="GuardandoDatos" data-entity-2=".end.editarAsignatura" data-source-line="73" data-uid="lnk15" id="link_GuardandoDatos_.end.editarAsignatura"><path d="M584.18,637.4369 C684.84,645.9969 1053,677.2969 1053,677.2969 C1053,677.2969 1053,712.2969 1053,712.2969 C1053,712.2969 649.7704,735.1472 576.2404,739.3172" fill="none" id="GuardandoDatos-to-*end*editarAsignatura-4" style="stroke:#FFA500;stroke-width:1;"/><polygon fill="#FFA500" points="570.25,739.6569,579.462,743.1409,575.242,739.3738,579.0091,735.1537,570.25,739.6569" style="stroke:#FFA500;stroke-width:1;"/><path d="M1058,682.2969 L1058,707.2969 L1246,707.2969 L1246,692.2969 L1236,682.2969 L1058,682.2969" fill="#FEFFDD" style="stroke:#181818;stroke-width:0.5;"/><path d="M1236,682.2969 L1236,692.2969 L1246,692.2969 L1236,682.2969" fill="#FEFFDD" style="stroke:#181818;stroke-width:0.5;"/><text fill="#000000" font-family="sans-serif" font-size="13" font-weight="bold" lengthAdjust="spacing" textLength="60.5313" x="1064" y="699.3638">Docente</text><text fill="#000000" font-family="sans-serif" font-size="13" lengthAdjust="spacing" textLength="102.9526" x="1128.6636" y="699.3638">solicita eliminar</text></g><g id="EXAMENES_GENERADOS_CONTEXTUALES"><rect fill="#F1F1F1" height="50" rx="12.5" ry="12.5" style="stroke:#181818;stroke-width:0.5;" width="312.3115" x="1087.5" y="857"/><line style="stroke:#181818;stroke-width:0.5;" x1="1087.5" x2="1399.8115" y1="883.2969" y2="883.2969"/><text fill="#000000" font-family="sans-serif" font-size="14" lengthAdjust="spacing" textLength="292.3115" x="1097.5" y="874.9951">EXAMENES_GENERADOS_CONTEXTUALES</text></g><!--link EXAMENES_ASIGNADOS_CONTEXTUALES to editarAsignatura--><g class="link" data-entity-1="EXAMENES_ASIGNADOS_CONTEXTUALES" data-entity-2="editarAsignatura" data-source-line="12" data-uid="lnk2" id="link_EXAMENES_ASIGNADOS_CONTEXTUALES_editarAsignatura"><path d="M188.67,57.18 C206.07,72.12 225.9677,89.1914 254.5377,113.7214" fill="none" id="EXAMENES_ASIGNADOS_CONTEXTUALES-to-editarAsignatura" style="stroke:#008000;stroke-width:1;"/><polygon fill="#008000" points="259.09,117.63,254.8673,108.7323,255.2964,114.3729,249.6559,114.802,259.09,117.63" style="stroke:#008000;stroke-width:1;"/></g><!--link PREGUNTAS_CONTEXTUALES_ABIERTO to editarAsignatura--><g class="link" data-entity-1="PREGUNTAS_CONTEXTUALES_ABIERTO" data-entity-2="editarAsignatura" data-source-line="13" data-uid="lnk3" id="link_PREGUNTAS_CONTEXTUALES_ABIERTO_editarAsignatura"><path d="M503.72,57.18 C508.8,72.12 513.9986,87.4193 522.3386,111.9493" fill="none" id="PREGUNTAS_CONTEXTUALES_ABIERTO-to-editarAsignatura" style="stroke:#008000;stroke-width:1;"/><polygon fill="#008000" points="524.27,117.63,525.16,107.8214,522.6605,112.8961,517.5858,110.3966,524.27,117.63" style="stroke:#008000;stroke-width:1;"/></g><!--link ASIGNATURAS_ABIERTO to editarAsignatura--><g class="link" data-entity-1="ASIGNATURAS_ABIERTO" data-entity-2="editarAsignatura" data-source-line="14" data-uid="lnk4" id="link_ASIGNATURAS_ABIERTO_editarAsignatura"><path d="M763.28,57.18 C758.2,72.12 753.0014,87.4193 744.6614,111.9493" fill="none" id="ASIGNATURAS_ABIERTO-to-editarAsignatura" style="stroke:#008000;stroke-width:1;"/><polygon fill="#008000" points="742.73,117.63,749.4142,110.3966,744.3395,112.8961,741.84,107.8214,742.73,117.63" style="stroke:#008000;stroke-width:1;"/></g><!--link ASIGNATURA_ABIERTO to editarAsignatura--><g class="link" data-entity-1="ASIGNATURA_ABIERTO" data-entity-2="editarAsignatura" data-source-line="15" data-uid="lnk5" id="link_ASIGNATURA_ABIERTO_editarAsignatura"><path d="M970.18,57.18 C957.01,72.12 942.4672,88.5988 920.8472,113.1288" fill="none" id="ASIGNATURA_ABIERTO-to-editarAsignatura" style="stroke:#008000;stroke-width:1;"/><polygon fill="#008000" points="916.88,117.63,925.8317,113.523,920.186,113.879,919.83,108.2333,916.88,117.63" style="stroke:#008000;stroke-width:1;"/></g><!--link editarAsignatura to ASIGNATURA_ABIERTO2--><g class="link" data-entity-1="editarAsignatura" data-entity-2="ASIGNATURA_ABIERTO2" data-source-line="79" data-uid="lnk16" id="link_editarAsignatura_ASIGNATURA_ABIERTO2"><path d="M633.5,762.22 C633.5,801.52 633.5,829.31 633.5,850.69" fill="none" id="editarAsignatura-to-ASIGNATURA_ABIERTO2" style="stroke:#008000;stroke-width:1;"/><polygon fill="#008000" points="633.5,856.69,637.5,847.69,633.5,851.69,629.5,847.69,633.5,856.69" style="stroke:#008000;stroke-width:1;"/><path d="M638.5,797 L638.5,822 L712.5,822 L712.5,807 L702.5,797 L638.5,797" fill="#FEFFDD" style="stroke:#181818;stroke-width:0.5;"/><path d="M702.5,797 L702.5,807 L712.5,807 L702.5,797" fill="#FEFFDD" style="stroke:#181818;stroke-width:0.5;"/><text fill="#000000" font-family="sans-serif" font-size="13" lengthAdjust="spacing" textLength="53.187" x="644.5" y="814.0669">Guardar</text></g><!--link editarAsignatura to ASIGNATURAS_ABIERTO2--><g class="link" data-entity-1="editarAsignatura" data-entity-2="ASIGNATURAS_ABIERTO2" data-source-line="86" data-uid="lnk17" id="link_editarAsignatura_ASIGNATURAS_ABIERTO2"><path d="M472.89,762.22 C453.24,801.52 439.0233,829.9434 428.3333,851.3234" fill="none" id="editarAsignatura-to-ASIGNATURAS_ABIERTO2" style="stroke:#FF0000;stroke-width:1;"/><polygon fill="#FF0000" points="425.65,856.69,433.2526,850.429,427.8861,852.2179,426.0972,846.8513,425.65,856.69" style="stroke:#FF0000;stroke-width:1;"/><path d="M461.5,797 L461.5,822 L588.5,822 L588.5,807 L578.5,797 L461.5,797" fill="#FEFFDD" style="stroke:#181818;stroke-width:0.5;"/><path d="M578.5,797 L578.5,807 L588.5,807 L578.5,797" fill="#FEFFDD" style="stroke:#181818;stroke-width:0.5;"/><text fill="#000000" font-family="sans-serif" font-size="13" lengthAdjust="spacing" textLength="106.3677" x="467.5" y="814.0669">cancelar edici&#243;n</text></g><!--link editarAsignatura to EXAMENES_GENERADOS_CONTEXTUALES--><g class="link" data-entity-1="editarAsignatura" data-entity-2="EXAMENES_GENERADOS_CONTEXTUALES" data-source-line="91" data-uid="lnk19" id="link_editarAsignatura_EXAMENES_GENERADOS_CONTEXTUALES"><path d="M1078.83,762.22 C1133.5,801.65 1175.6036,832.0302 1205.2336,853.4002" fill="none" id="editarAsignatura-to-EXAMENES_GENERADOS_CONTEXTUALES" style="stroke:#FFFF00;stroke-width:1;"/><polygon fill="#FFFF00" points="1210.1,856.91,1205.1403,848.4011,1206.0447,853.9852,1200.4606,854.8896,1210.1,856.91" style="stroke:#FFFF00;stroke-width:1;"/><path d="M1172.5,797 L1172.5,822 L1300.5,822 L1300.5,807 L1290.5,797 L1172.5,797" fill="#FEFFDD" style="stroke:#181818;stroke-width:0.5;"/><path d="M1290.5,797 L1290.5,807 L1300.5,807 L1290.5,797" fill="#FEFFDD" style="stroke:#181818;stroke-width:0.5;"/><text fill="#000000" font-family="sans-serif" font-size="13" lengthAdjust="spacing" textLength="107.834" x="1178.5" y="814.0669">generar examen</text></g><!--link editarAsignatura to PREGUNTAS_CONTEXTUALES_ABIERTO1--><g class="link" data-entity-1="editarAsignatura" data-entity-2="PREGUNTAS_CONTEXTUALES_ABIERTO1" data-source-line="96" data-uid="lnk20" id="link_editarAsignatura_PREGUNTAS_CONTEXTUALES_ABIERTO1"><path d="M832.07,762.22 C856.37,801.52 874.1062,830.2057 887.3162,851.5857" fill="none" id="editarAsignatura-to-PREGUNTAS_CONTEXTUALES_ABIERTO1" style="stroke:#0000FF;stroke-width:1;"/><polygon fill="#0000FF" points="890.47,856.69,889.1422,846.9311,887.8419,852.4364,882.3365,851.1361,890.47,856.69" style="stroke:#0000FF;stroke-width:1;"/><path d="M876.5,797 L876.5,822 L988.5,822 L988.5,807 L978.5,797 L876.5,797" fill="#FEFFDD" style="stroke:#181818;stroke-width:0.5;"/><path d="M978.5,797 L978.5,807 L988.5,807 L978.5,797" fill="#FEFFDD" style="stroke:#181818;stroke-width:0.5;"/><text fill="#000000" font-family="sans-serif" font-size="13" lengthAdjust="spacing" textLength="91.3301" x="882.5" y="814.0669">ver preguntas</text></g><!--link editarAsignatura to ASIGNATURAS_ABIERTO1--><g class="link" data-entity-1="editarAsignatura" data-entity-2="ASIGNATURAS_ABIERTO1" data-source-line="101" data-uid="lnk21" id="link_editarAsignatura_ASIGNATURAS_ABIERTO1"><path d="M309.36,762.22 C269.7,801.52 239.8614,831.0862 218.2914,852.4662" fill="none" id="editarAsignatura-to-ASIGNATURAS_ABIERTO1" style="stroke:#FFA500;stroke-width:1;"/><polygon fill="#FFA500" points="214.03,856.69,223.2379,853.1952,217.5811,853.1701,217.6062,847.5133,214.03,856.69" style="stroke:#FFA500;stroke-width:1;"/><path d="M279.5,797 L279.5,822 L353.5,822 L353.5,807 L343.5,797 L279.5,797" fill="#FEFFDD" style="stroke:#181818;stroke-width:0.5;"/><path d="M343.5,797 L343.5,807 L353.5,807 L343.5,797" fill="#FEFFDD" style="stroke:#181818;stroke-width:0.5;"/><text fill="#000000" font-family="sans-serif" font-size="13" lengthAdjust="spacing" textLength="53.0474" x="285.5" y="814.0669">eliminar</text></g><!--SRC=[dLRTQjim5BxNKuZiOZ-i6zjbAGMtDLbXIqT-e51AER7KJAiiPPBSBPJ1dcLtlUXL7o5liYVPaPtOaUscIHnmiCyvt_dEfy-oxOrGKp2GKYaKTxCffrCjP_w24El0SHgVHr_YNZouYWQdtLvqSZQuEZxh3UFpuIZw70yMML_xSNVK6qPXy2ewEetxmxD5Ke4m7FMZ3I8VA5ZQQGbq6ZNFWttS7gnUKgzOFt71VdrEXv1dnALx5oycXdDrkNT8EHCEJ6J5H87B393rwEjhMwJOj62p_8LAzVkvBFMRhrvtw1qX58-YgeC_J8nzdcBw19ospN0t0yFAE2q0BjvS1iG239gdA8qOMddBt-Gt3iQ79phXol63z-D3QhKK2LOjo6EhSYgVpHKh8F0WvIdiiyeWfFaaWu6mZgUGCvWQRf4EK9QZiLp7HCmV5Ia9vv5AmtrVc0V__VbBX_C7bqbTNX_F7vcOh5ndnceQ9S3czwb8ga0airGXS0hEY2IJm1QKVR1h_2NgeHCH18vmLSpy0JnJv3x9aBkjjAbFnqqgK82bpcQ_14er4zSYGT4JIASh7IQvY8sryA44LC8bnagDbf5RRcfqSYYkkF7flo3bLJAN8XKAJB36rGmriprfiUqSrZhlLitHxzkrN2evenQag8txH3V3sKwzsfTca_d6CkCxjMok-IRjPbnA_NCtFPjssgIZDg0ckutOxjJVX3GssrMZjBpXID2ou6X8YVYIzhI3VVg9utQ0B9HWcifoLVC5fT_m7_nTYK_uKWtvbc8rFkUQMk6NurfmtDBeZunJa9Kj7AHZCRzNz1Pc-6feuLW0PPnXTUAplT8IzndhXD8Knl1TlsiTVE7Pje-1SEwcIQl7eGsuyahvzkxYkT_yD0hQr7ooliVI_izyP8GTGkklRr3Ph-tJAyGj_RQ4_0y0]--></g></svg>