<?plantuml 1.2026.2?><svg xmlns="http://www.w3.org/2000/svg" xmlns:xlink="http://www.w3.org/1999/xlink" contentStyleType="text/css" data-diagram-type="SEQUENCE" height="926px" preserveAspectRatio="none" style="width:1912px;height:926px;background:#FFFFFF;" version="1.1" viewBox="0 0 1912 926" width="1912px" zoomAndPan="magnify"><title>Diagrama de Secuencia - Crear Alumno (Spring Boot + React)</title><defs/><g><text fill="#000000" font-family="sans-serif" font-size="14" font-weight="bold" lengthAdjust="spacing" textLength="485.7549" x="714.8916" y="27.9951">Diagrama de Secuencia - Crear Alumno (Spring Boot + React)</text><g><title>Frontend .React.</title><rect fill="#FFFFFF" height="588.3906" style="stroke:#181818;stroke-width:1;" width="10" x="327.7529" y="149.7266"/></g><g><title>AlumnosController</title><rect fill="#FFFFFF" height="330.3281" style="stroke:#181818;stroke-width:1;" width="10" x="665.9263" y="294.3906"/></g><g><title>AlumnosController</title><rect fill="#FFFFFF" height="264.0625" style="stroke:#181818;stroke-width:1;" width="10" x="670.9263" y="331.5234"/></g><g><title>AlumnoService</title><rect fill="#FFFFFF" height="229.9297" style="stroke:#181818;stroke-width:1;" width="10" x="986.8467" y="365.6563"/></g><g><title>AlumnoRepository</title><rect fill="#FFFFFF" height="87.3984" style="stroke:#181818;stroke-width:1;" width="10" x="1272.9185" y="479.0547"/></g><g><title>Base de Datos .PostgreSQL.</title><rect fill="#FFFFFF" height="29.1328" style="stroke:#181818;stroke-width:1;" width="10" x="1804.875" y="508.1875"/></g><rect fill="none" height="75.3984" style="stroke:#000000;stroke-width:1.5;" width="742.8677" x="10" y="753.1172"/><g class="participant-lifeline" data-entity-uid="part1" data-qualified-name="Teacher" id="part1-lifeline"><g><title>Docente</title><rect fill="#000000" fill-opacity="0.00000" height="726.9219" width="8" x="48.3159" y="118.5938"/><line style="stroke:#181818;stroke-width:0.5;stroke-dasharray:5,5;" x1="52" x2="52" y1="118.5938" y2="845.5156"/></g></g><g class="participant-lifeline" data-entity-uid="part2" data-qualified-name="FE" id="part2-lifeline"><g><title>Frontend .React.</title><rect fill="#000000" fill-opacity="0.00000" height="726.9219" width="8" x="328.7529" y="118.5938"/><line style="stroke:#181818;stroke-width:0.5;stroke-dasharray:5,5;" x1="332.458" x2="332.458" y1="118.5938" y2="845.5156"/></g></g><g class="participant-lifeline" data-entity-uid="part3" data-qualified-name="Controller" id="part3-lifeline"><g><title>AlumnosController</title><rect fill="#000000" fill-opacity="0.00000" height="726.9219" width="8" x="666.9263" y="118.5938"/><line style="stroke:#181818;stroke-width:0.5;stroke-dasharray:5,5;" x1="669.9849" x2="669.9849" y1="118.5938" y2="845.5156"/></g></g><g class="participant-lifeline" data-entity-uid="part4" data-qualified-name="Service" id="part4-lifeline"><g><title>AlumnoService</title><rect fill="#000000" fill-opacity="0.00000" height="726.9219" width="8" x="987.8467" y="118.5938"/><line style="stroke:#181818;stroke-width:0.5;stroke-dasharray:5,5;" x1="991.2681" x2="991.2681" y1="118.5938" y2="845.5156"/></g></g><g class="participant-lifeline" data-entity-uid="part5" data-qualified-name="Repo" id="part5-lifeline"><g><title>AlumnoRepository</title><rect fill="#000000" fill-opacity="0.00000" height="726.9219" width="8" x="1273.9185" y="118.5938"/><line style="stroke:#181818;stroke-width:0.5;stroke-dasharray:5,5;" x1="1277.6743" x2="1277.6743" y1="118.5938" y2="845.5156"/></g></g><g class="participant-lifeline" data-entity-uid="part6" data-qualified-name="DB" id="part6-lifeline"><g><title>Base de Datos .PostgreSQL.</title><rect fill="#000000" fill-opacity="0.00000" height="726.9219" width="8" x="1805.875" y="118.5938"/><line style="stroke:#181818;stroke-width:0.5;stroke-dasharray:5,5;" x1="1809.2119" x2="1809.2119" y1="118.5938" y2="845.5156"/></g></g><g class="participant participant-head" data-entity-uid="part1" data-qualified-name="Teacher" id="part1-head"><text fill="#000000" font-family="sans-serif" font-size="14" lengthAdjust="spacing" textLength="58.6318" x="20" y="115.292">Docente</text><ellipse cx="52.3159" cy="50.7969" fill="#E2E2F0" rx="8" ry="8" style="stroke:#181818;stroke-width:0.5;"/><path d="M52.3159,58.7969 L52.3159,85.7969 M39.3159,66.7969 L65.3159,66.7969 M52.3159,85.7969 L39.3159,100.7969 M52.3159,85.7969 L65.3159,100.7969" fill="none" style="stroke:#181818;stroke-width:0.5;"/></g><g class="participant participant-tail" data-entity-uid="part1" data-qualified-name="Teacher" id="part1-tail"><text fill="#000000" font-family="sans-serif" font-size="14" lengthAdjust="spacing" textLength="58.6318" x="20" y="857.5107">Docente</text><ellipse cx="52.3159" cy="869.3125" fill="#E2E2F0" rx="8" ry="8" style="stroke:#181818;stroke-width:0.5;"/><path d="M52.3159,877.3125 L52.3159,904.3125 M39.3159,885.3125 L65.3159,885.3125 M52.3159,904.3125 L39.3159,919.3125 M52.3159,904.3125 L65.3159,919.3125" fill="none" style="stroke:#181818;stroke-width:0.5;"/></g><g class="participant participant-head" data-entity-uid="part2" data-qualified-name="FE" id="part2-head"><rect fill="#E2E2F0" height="30.2969" rx="2.5" ry="2.5" style="stroke:#181818;stroke-width:0.5;" width="132.5898" x="266.458" y="87.2969"/><text fill="#000000" font-family="sans-serif" font-size="14" lengthAdjust="spacing" textLength="118.5898" x="273.458" y="107.292">Frontend (React)</text></g><g class="participant participant-tail" data-entity-uid="part2" data-qualified-name="FE" id="part2-tail"><rect fill="#E2E2F0" height="30.2969" rx="2.5" ry="2.5" style="stroke:#181818;stroke-width:0.5;" width="132.5898" x="266.458" y="844.5156"/><text fill="#000000" font-family="sans-serif" font-size="14" lengthAdjust="spacing" textLength="118.5898" x="273.458" y="864.5107">Frontend (React)</text></g><g class="participant participant-head" data-entity-uid="part3" data-qualified-name="Controller" id="part3-head"><rect fill="#E2E2F0" height="30.2969" rx="2.5" ry="2.5" style="stroke:#181818;stroke-width:0.5;" width="143.8828" x="598.9849" y="87.2969"/><text fill="#000000" font-family="sans-serif" font-size="14" lengthAdjust="spacing" textLength="129.8828" x="605.9849" y="107.292">AlumnosController</text></g><g class="participant participant-tail" data-entity-uid="part3" data-qualified-name="Controller" id="part3-tail"><rect fill="#E2E2F0" height="30.2969" rx="2.5" ry="2.5" style="stroke:#181818;stroke-width:0.5;" width="143.8828" x="598.9849" y="844.5156"/><text fill="#000000" font-family="sans-serif" font-size="14" lengthAdjust="spacing" textLength="129.8828" x="605.9849" y="864.5107">AlumnosController</text></g><g class="participant participant-head" data-entity-uid="part4" data-qualified-name="Service" id="part4-head"><rect fill="#E2E2F0" height="30.2969" rx="2.5" ry="2.5" style="stroke:#181818;stroke-width:0.5;" width="119.1572" x="932.2681" y="87.2969"/><text fill="#000000" font-family="sans-serif" font-size="14" lengthAdjust="spacing" textLength="105.1572" x="939.2681" y="107.292">AlumnoService</text></g><g class="participant participant-tail" data-entity-uid="part4" data-qualified-name="Service" id="part4-tail"><rect fill="#E2E2F0" height="30.2969" rx="2.5" ry="2.5" style="stroke:#181818;stroke-width:0.5;" width="119.1572" x="932.2681" y="844.5156"/><text fill="#000000" font-family="sans-serif" font-size="14" lengthAdjust="spacing" textLength="105.1572" x="939.2681" y="864.5107">AlumnoService</text></g><g class="participant participant-head" data-entity-uid="part5" data-qualified-name="Repo" id="part5-head"><rect fill="#E2E2F0" height="30.2969" rx="2.5" ry="2.5" style="stroke:#181818;stroke-width:0.5;" width="142.4883" x="1206.6743" y="87.2969"/><text fill="#000000" font-family="sans-serif" font-size="14" lengthAdjust="spacing" textLength="128.4883" x="1213.6743" y="107.292">AlumnoRepository</text></g><g class="participant participant-tail" data-entity-uid="part5" data-qualified-name="Repo" id="part5-tail"><rect fill="#E2E2F0" height="30.2969" rx="2.5" ry="2.5" style="stroke:#181818;stroke-width:0.5;" width="142.4883" x="1206.6743" y="844.5156"/><text fill="#000000" font-family="sans-serif" font-size="14" lengthAdjust="spacing" textLength="128.4883" x="1213.6743" y="864.5107">AlumnoRepository</text></g><g class="participant participant-head" data-entity-uid="part6" data-qualified-name="DB" id="part6-head"><text fill="#000000" font-family="sans-serif" font-size="14" lengthAdjust="spacing" textLength="197.3262" x="1708.2119" y="115.292">Base de Datos (PostgreSQL)</text><path d="M1791.875,66.2969 C1791.875,56.2969 1809.875,56.2969 1809.875,56.2969 C1809.875,56.2969 1827.875,56.2969 1827.875,66.2969 L1827.875,92.2969 C1827.875,102.2969 1809.875,102.2969 1809.875,102.2969 C1809.875,102.2969 1791.875,102.2969 1791.875,92.2969 L1791.875,66.2969" fill="#E2E2F0" style="stroke:#181818;stroke-width:0.5;"/><path d="M1791.875,66.2969 C1791.875,76.2969 1809.875,76.2969 1809.875,76.2969 C1809.875,76.2969 1827.875,76.2969 1827.875,66.2969" fill="none" style="stroke:#181818;stroke-width:0.5;"/></g><g class="participant participant-tail" data-entity-uid="part6" data-qualified-name="DB" id="part6-tail"><text fill="#000000" font-family="sans-serif" font-size="14" lengthAdjust="spacing" textLength="197.3262" x="1708.2119" y="857.5107">Base de Datos (PostgreSQL)</text><path d="M1791.875,870.8125 C1791.875,860.8125 1809.875,860.8125 1809.875,860.8125 C1809.875,860.8125 1827.875,860.8125 1827.875,870.8125 L1827.875,896.8125 C1827.875,906.8125 1809.875,906.8125 1809.875,906.8125 C1809.875,906.8125 1791.875,906.8125 1791.875,896.8125 L1791.875,870.8125" fill="#E2E2F0" style="stroke:#181818;stroke-width:0.5;"/><path d="M1791.875,870.8125 C1791.875,880.8125 1809.875,880.8125 1809.875,880.8125 C1809.875,880.8125 1827.875,880.8125 1827.875,870.8125" fill="none" style="stroke:#181818;stroke-width:0.5;"/></g><g><title>Frontend .React.</title><rect fill="#FFFFFF" height="588.3906" style="stroke:#181818;stroke-width:1;" width="10" x="327.7529" y="149.7266"/></g><g><title>AlumnosController</title><rect fill="#FFFFFF" height="330.3281" style="stroke:#181818;stroke-width:1;" width="10" x="665.9263" y="294.3906"/></g><g><title>AlumnosController</title><rect fill="#FFFFFF" height="264.0625" style="stroke:#181818;stroke-width:1;" width="10" x="670.9263" y="331.5234"/></g><g><title>AlumnoService</title><rect fill="#FFFFFF" height="229.9297" style="stroke:#181818;stroke-width:1;" width="10" x="986.8467" y="365.6563"/></g><g><title>AlumnoRepository</title><rect fill="#FFFFFF" height="87.3984" style="stroke:#181818;stroke-width:1;" width="10" x="1272.9185" y="479.0547"/></g><g><title>Base de Datos .PostgreSQL.</title><rect fill="#FFFFFF" height="29.1328" style="stroke:#181818;stroke-width:1;" width="10" x="1804.875" y="508.1875"/></g><g class="message" data-entity-1="part1" data-entity-2="part2" id="msg1"><polygon fill="#181818" points="315.7529,145.7266,325.7529,149.7266,315.7529,153.7266,319.7529,149.7266" style="stroke:#181818;stroke-width:1;"/><line style="stroke:#181818;stroke-width:1;" x1="52.3159" x2="321.7529" y1="149.7266" y2="149.7266"/><text fill="#000000" font-family="sans-serif" font-size="13" lengthAdjust="spacing" textLength="155.251" x="59.3159" y="144.6606">Clic en "Nuevo Alumno"</text></g><g class="message" data-entity-1="part2" data-entity-2="part1" id="msg2"><polygon fill="#181818" points="63.3159,174.8594,53.3159,178.8594,63.3159,182.8594,59.3159,178.8594" style="stroke:#181818;stroke-width:1;"/><line style="stroke:#181818;stroke-width:1;stroke-dasharray:2,2;" x1="57.3159" x2="326.7529" y1="178.8594" y2="178.8594"/><text fill="#000000" font-family="sans-serif" font-size="13" lengthAdjust="spacing" textLength="233.9619" x="69.3159" y="173.7935">Mostrar Formulario (datos m&#237;nimos)</text></g><g class="message" data-entity-1="part1" data-entity-2="part2" id="msg3"><polygon fill="#181818" points="315.7529,203.9922,325.7529,207.9922,315.7529,211.9922,319.7529,207.9922" style="stroke:#181818;stroke-width:1;"/><line style="stroke:#181818;stroke-width:1;" x1="52.3159" x2="321.7529" y1="207.9922" y2="207.9922"/><text fill="#000000" font-family="sans-serif" font-size="13" lengthAdjust="spacing" textLength="251.437" x="59.3159" y="202.9263">Ingresa datos (nombre, apellidos, DNI)</text></g><g class="message" data-entity-1="part2" data-entity-2="part2" id="msg4"><line style="stroke:#181818;stroke-width:1;" x1="337.7529" x2="379.7529" y1="237.125" y2="237.125"/><line style="stroke:#181818;stroke-width:1;" x1="379.7529" x2="379.7529" y1="237.125" y2="250.125"/><line style="stroke:#181818;stroke-width:1;" x1="338.7529" x2="379.7529" y1="250.125" y2="250.125"/><polygon fill="#181818" points="348.7529,246.125,338.7529,250.125,348.7529,254.125,344.7529,250.125" style="stroke:#181818;stroke-width:1;"/><text fill="#000000" font-family="sans-serif" font-size="13" lengthAdjust="spacing" textLength="198.3516" x="344.7529" y="232.0591">Validar formulario (client-side)</text></g><g class="message" data-entity-1="part2" data-entity-2="part3" id="msg5"><polygon fill="#181818" points="653.9263,290.3906,663.9263,294.3906,653.9263,298.3906,657.9263,294.3906" style="stroke:#181818;stroke-width:1;"/><line style="stroke:#181818;stroke-width:1;" x1="337.7529" x2="659.9263" y1="294.3906" y2="294.3906"/><text fill="#000000" font-family="sans-serif" font-size="13" lengthAdjust="spacing" textLength="294.1504" x="344.7529" y="274.1919">POST /api/alumnos (AlumnoCreateDTO JSON)</text><text fill="#000000" font-family="sans-serif" font-size="13" lengthAdjust="spacing" textLength="267.8774" x="344.7529" y="289.3247">(Header: Authorization: Bearer &lt;token&gt;)</text></g><g class="message" data-entity-1="part3" data-entity-2="part3" id="msg6"><line style="stroke:#181818;stroke-width:1;" x1="675.9263" x2="722.9263" y1="318.5234" y2="318.5234"/><line style="stroke:#181818;stroke-width:1;" x1="722.9263" x2="722.9263" y1="318.5234" y2="331.5234"/><line style="stroke:#181818;stroke-width:1;" x1="681.9263" x2="722.9263" y1="331.5234" y2="331.5234"/><polygon fill="#181818" points="691.9263,327.5234,681.9263,331.5234,691.9263,335.5234,687.9263,331.5234" style="stroke:#181818;stroke-width:1;"/><text fill="#000000" font-family="sans-serif" font-size="13" lengthAdjust="spacing" textLength="169.1016" x="687.9263" y="313.4575">extraer docenteId del JWT</text></g><g class="message" data-entity-1="part3" data-entity-2="part4" id="msg7"><polygon fill="#181818" points="974.8467,361.6563,984.8467,365.6563,974.8467,369.6563,978.8467,365.6563" style="stroke:#181818;stroke-width:1;"/><line style="stroke:#181818;stroke-width:1;" x1="680.9263" x2="980.8467" y1="365.6563" y2="365.6563"/><text fill="#000000" font-family="sans-serif" font-size="13" lengthAdjust="spacing" textLength="286.9204" x="687.9263" y="360.5903">crearAlumno(alumnoCreateDTO, docenteId)</text></g><g class="message" data-entity-1="part4" data-entity-2="part4" id="msg8"><line style="stroke:#181818;stroke-width:1;" x1="996.8467" x2="1038.8467" y1="394.7891" y2="394.7891"/><line style="stroke:#181818;stroke-width:1;" x1="1038.8467" x2="1038.8467" y1="394.7891" y2="407.7891"/><line style="stroke:#181818;stroke-width:1;" x1="997.8467" x2="1038.8467" y1="407.7891" y2="407.7891"/><polygon fill="#181818" points="1007.8467,403.7891,997.8467,407.7891,1007.8467,411.7891,1003.8467,407.7891" style="stroke:#181818;stroke-width:1;"/><text fill="#000000" font-family="sans-serif" font-size="13" lengthAdjust="spacing" textLength="146.9229" x="1003.8467" y="389.7231">Mapear DTO a Entidad</text></g><g class="message" data-entity-1="part4" data-entity-2="part4" id="msg9"><line style="stroke:#181818;stroke-width:1;" x1="996.8467" x2="1038.8467" y1="436.9219" y2="436.9219"/><line style="stroke:#181818;stroke-width:1;" x1="1038.8467" x2="1038.8467" y1="436.9219" y2="449.9219"/><line style="stroke:#181818;stroke-width:1;" x1="997.8467" x2="1038.8467" y1="449.9219" y2="449.9219"/><polygon fill="#181818" points="1007.8467,445.9219,997.8467,449.9219,1007.8467,453.9219,1003.8467,449.9219" style="stroke:#181818;stroke-width:1;"/><text fill="#000000" font-family="sans-serif" font-size="13" lengthAdjust="spacing" textLength="252.0718" x="1003.8467" y="431.856">Asociar alumno al docente (docenteId)</text></g><g class="message" data-entity-1="part4" data-entity-2="part5" id="msg10"><polygon fill="#181818" points="1260.9185,475.0547,1270.9185,479.0547,1260.9185,483.0547,1264.9185,479.0547" style="stroke:#181818;stroke-width:1;"/><line style="stroke:#181818;stroke-width:1;" x1="996.8467" x2="1266.9185" y1="479.0547" y2="479.0547"/><text fill="#000000" font-family="sans-serif" font-size="13" lengthAdjust="spacing" textLength="89.248" x="1003.8467" y="473.9888">save(alumno)</text></g><g class="message" data-entity-1="part5" data-entity-2="part6" id="msg11"><polygon fill="#181818" points="1792.875,504.1875,1802.875,508.1875,1792.875,512.1875,1796.875,508.1875" style="stroke:#181818;stroke-width:1;"/><line style="stroke:#181818;stroke-width:1;" x1="1282.9185" x2="1798.875" y1="508.1875" y2="508.1875"/><text fill="#000000" font-family="sans-serif" font-size="13" lengthAdjust="spacing" textLength="502.9565" x="1289.9185" y="503.1216">INSERT INTO alumnos (nombre, apellidos, dni, docente_id) VALUES (?, ?, ?, ?)</text></g><g class="message" data-entity-1="part6" data-entity-2="part5" id="msg12"><polygon fill="#181818" points="1293.9185,533.3203,1283.9185,537.3203,1293.9185,541.3203,1289.9185,537.3203" style="stroke:#181818;stroke-width:1;"/><line style="stroke:#181818;stroke-width:1;stroke-dasharray:2,2;" x1="1287.9185" x2="1808.875" y1="537.3203" y2="537.3203"/><text fill="#000000" font-family="sans-serif" font-size="13" lengthAdjust="spacing" textLength="171.3296" x="1299.9185" y="532.2544">Alumno (con ID generado)</text></g><g class="message" data-entity-1="part5" data-entity-2="part4" id="msg13"><polygon fill="#181818" points="1007.8467,562.4531,997.8467,566.4531,1007.8467,570.4531,1003.8467,566.4531" style="stroke:#181818;stroke-width:1;"/><line style="stroke:#181818;stroke-width:1;stroke-dasharray:2,2;" x1="1001.8467" x2="1276.9185" y1="566.4531" y2="566.4531"/><text fill="#000000" font-family="sans-serif" font-size="13" lengthAdjust="spacing" textLength="49.6006" x="1013.8467" y="561.3872">Alumno</text></g><g class="message" data-entity-1="part4" data-entity-2="part3" id="msg14"><polygon fill="#181818" points="686.9263,591.5859,676.9263,595.5859,686.9263,599.5859,682.9263,595.5859" style="stroke:#181818;stroke-width:1;"/><line style="stroke:#181818;stroke-width:1;stroke-dasharray:2,2;" x1="680.9263" x2="990.8467" y1="595.5859" y2="595.5859"/><text fill="#000000" font-family="sans-serif" font-size="13" lengthAdjust="spacing" textLength="172.7388" x="692.9263" y="590.52">AlumnoDTO (201 Created)</text></g><g class="message" data-entity-1="part3" data-entity-2="part2" id="msg15"><polygon fill="#181818" points="348.7529,620.7188,338.7529,624.7188,348.7529,628.7188,344.7529,624.7188" style="stroke:#181818;stroke-width:1;"/><line style="stroke:#181818;stroke-width:1;stroke-dasharray:2,2;" x1="342.7529" x2="669.9263" y1="624.7188" y2="624.7188"/><text fill="#000000" font-family="sans-serif" font-size="13" lengthAdjust="spacing" textLength="208.9141" x="354.7529" y="619.6528">201 Created (AlumnoDTO JSON)</text></g><g class="message" data-entity-1="part2" data-entity-2="part2" id="msg16"><line style="stroke:#181818;stroke-width:1;" x1="337.7529" x2="379.7529" y1="653.8516" y2="653.8516"/><line style="stroke:#181818;stroke-width:1;" x1="379.7529" x2="379.7529" y1="653.8516" y2="666.8516"/><line style="stroke:#181818;stroke-width:1;" x1="338.7529" x2="379.7529" y1="666.8516" y2="666.8516"/><polygon fill="#181818" points="348.7529,662.8516,338.7529,666.8516,348.7529,670.8516,344.7529,666.8516" style="stroke:#181818;stroke-width:1;"/><text fill="#000000" font-family="sans-serif" font-size="13" lengthAdjust="spacing" textLength="304.1733" x="344.7529" y="648.7856">Mostrar Toast "Alumno creado correctamente"</text></g><g class="message" data-entity-1="part2" data-entity-2="part2" id="msg17"><line style="stroke:#181818;stroke-width:1;" x1="337.7529" x2="379.7529" y1="695.9844" y2="695.9844"/><line style="stroke:#181818;stroke-width:1;" x1="379.7529" x2="379.7529" y1="695.9844" y2="708.9844"/><line style="stroke:#181818;stroke-width:1;" x1="338.7529" x2="379.7529" y1="708.9844" y2="708.9844"/><polygon fill="#181818" points="348.7529,704.9844,338.7529,708.9844,348.7529,712.9844,344.7529,708.9844" style="stroke:#181818;stroke-width:1;"/><text fill="#000000" font-family="sans-serif" font-size="13" lengthAdjust="spacing" textLength="259.5874" x="344.7529" y="690.9185">Redirigir a editarAlumno(alumnoNuevo)</text></g><g class="message" data-entity-1="part2" data-entity-2="part1" id="msg18"><polygon fill="#181818" points="63.3159,734.1172,53.3159,738.1172,63.3159,742.1172,59.3159,738.1172" style="stroke:#181818;stroke-width:1;"/><line style="stroke:#181818;stroke-width:1;stroke-dasharray:2,2;" x1="57.3159" x2="331.7529" y1="738.1172" y2="738.1172"/><text fill="#000000" font-family="sans-serif" font-size="13" lengthAdjust="spacing" textLength="195.5396" x="69.3159" y="733.0513">Mostrar Formulario de Edici&#243;n</text></g><path d="M10,753.1172 L74.4429,753.1172 L74.4429,760.25 L64.4429,770.25 L10,770.25 L10,753.1172" fill="#EEEEEE" style="stroke:#000000;stroke-width:1.5;"/><rect fill="none" height="75.3984" style="stroke:#000000;stroke-width:1.5;" width="742.8677" x="10" y="753.1172"/><text fill="#000000" font-family="sans-serif" font-size="13" font-weight="bold" lengthAdjust="spacing" textLength="19.4429" x="25" y="766.1841">alt</text><text fill="#000000" font-family="sans-serif" font-size="11" font-weight="bold" lengthAdjust="spacing" textLength="105.8374" x="89.4429" y="765.3276">[Datos Inv&#225;lidos]</text><g class="message" data-entity-1="part3" data-entity-2="part2" id="msg19"><polygon fill="#181818" points="343.7529,787.3828,333.7529,791.3828,343.7529,795.3828,339.7529,791.3828" style="stroke:#181818;stroke-width:1;"/><line style="stroke:#181818;stroke-width:1;stroke-dasharray:2,2;" x1="337.7529" x2="669.9263" y1="791.3828" y2="791.3828"/><text fill="#000000" font-family="sans-serif" font-size="13" lengthAdjust="spacing" textLength="232.7749" x="349.7529" y="786.3169">400 Bad Request (validation errors)</text></g><g class="message" data-entity-1="part2" data-entity-2="part1" id="msg20"><polygon fill="#181818" points="63.3159,816.5156,53.3159,820.5156,63.3159,824.5156,59.3159,820.5156" style="stroke:#181818;stroke-width:1;"/><line style="stroke:#181818;stroke-width:1;stroke-dasharray:2,2;" x1="57.3159" x2="331.7529" y1="820.5156" y2="820.5156"/><text fill="#000000" font-family="sans-serif" font-size="13" lengthAdjust="spacing" textLength="191.1533" x="69.3159" y="815.4497">Mostrar errores de validaci&#243;n</text></g><?plantuml-src ZLHBRjim4Dth50El9DH6qg8heqXXHJRg875Ioqqt1Og9E7M8IgHBqKRRs_G0NVK8kLY7f6J9XWF4C4HzPZXltdiSAsr9a4bS6wmG145EnPPK8H56S6a83KpARQKqnFd6IBM6L6iBhs19MDWaYlYg3GmoNP2oD02iOSMV7ib46pHM5dA3oi9WPZH_LmBYaEaZPzF3e52glkHGeykIZ8_g7az5vsHsiWYLc_jJOKlQw5eorby-qZr60Yq-O4qmIDsLky_GwXhYErtRjQ7yutN0cQLHr7G5emk6FORBKXP02WQBBUrqGzB0qI5tQCcrDfl2YAERn37SyAw62PrfKsrBD9995RvWzVHNoKhNoN6LkM8ODGiJS2bTFHWQ0cweBANGzH2onJpnbKB2FV9xhl6jLwCe9MipggMWDhIZT0ntj_aApd0Zpp3G3t7eniblALlTmbL-kqY-gFW3eN0fawrzr4R-HYkr6aFADc7Cxwp-JkeYwKZeATVT7jUddymAlnR1GdF1GfHmzNdrWdqQmSTGEAi6s34UeXzsE_UWjLPfreFDRfXVvj1rZZ1LbXaL9mCdjUQJOY1KvAKjnS9sDNkPpdPZg7573SeU8cz9Tt61MShYB_BfSiMBmz5ASy82GibzZr-bIE1-SlrfcaFyVWZDlrU6lPobtfW1J7ky2wrWdi6Q51aK34nGFoS0EsZU9_R3V0VxReza3k6Eq_ZD-Mi8yeY3CgqclLVFAD-ulRTHQzgzNP_PfJigxN5SQQptOy8RIV2YZQ72OkMdMYzhIK8QkPOiEl2jFNATdmR9Iuu-Jvkfu27rz4_reVBSYB2qpIIQgztJ7ozp1FmxGS7RytD8KJ2k7rlYFkATdm3kO08PemqF5PTwcWttvJciFfjg1pJi6R3o3FyF?></g></svg>