<svg xmlns="http://www.w3.org/2000/svg" xmlns:xlink="http://www.w3.org/1999/xlink" contentStyleType="text/css" data-diagram-type="STATE" height="852px" preserveAspectRatio="none" style="width:1167px;height:852px;background:#FFFFFF;" version="1.1" viewBox="0 0 1167 852" width="1167px" zoomAndPan="magnify"><defs/><g><g id="DOCENTES_ABIERTO"><rect fill="#F1F1F1" height="50" rx="12.5" ry="12.5" style="stroke:#181818;stroke-width:0.5;" width="165.6328" x="399.5" y="7"/><line style="stroke:#181818;stroke-width:0.5;" x1="399.5" x2="565.1328" y1="33.2969" y2="33.2969"/><text fill="#000000" font-family="sans-serif" font-size="14" lengthAdjust="spacing" textLength="145.6328" x="409.5" y="24.9951">DOCENTES_ABIERTO</text></g><g id="DOCENTES_ABIERTO2"><rect fill="#F1F1F1" height="50" rx="12.5" ry="12.5" style="stroke:#181818;stroke-width:0.5;" width="165.6328" x="300.5" y="796"/><line style="stroke:#181818;stroke-width:0.5;" x1="300.5" x2="466.1328" y1="822.2969" y2="822.2969"/><text fill="#000000" font-family="sans-serif" font-size="14" lengthAdjust="spacing" textLength="145.6328" x="310.5" y="813.9951">DOCENTES_ABIERTO</text></g><g id="DOCENTE_ABIERTO"><rect fill="#F1F1F1" height="50" rx="12.5" ry="12.5" style="stroke:#181818;stroke-width:0.5;" width="156.7461" x="601" y="7"/><line style="stroke:#181818;stroke-width:0.5;" x1="601" x2="757.7461" y1="33.2969" y2="33.2969"/><text fill="#000000" font-family="sans-serif" font-size="14" lengthAdjust="spacing" textLength="136.7461" x="611" y="24.9951">DOCENTE_ABIERTO</text></g><g id="DOCENTE_ABIERTO2"><rect fill="#F1F1F1" height="50" rx="12.5" ry="12.5" style="stroke:#181818;stroke-width:0.5;" width="156.7461" x="502" y="796"/><line style="stroke:#181818;stroke-width:0.5;" x1="502" x2="658.7461" y1="822.2969" y2="822.2969"/><text fill="#000000" font-family="sans-serif" font-size="14" lengthAdjust="spacing" textLength="136.7461" x="512" y="813.9951">DOCENTE_ABIERTO</text></g><g id="DOCENTES_ABIERTO3"><rect fill="#F1F1F1" height="50" rx="12.5" ry="12.5" style="stroke:#181818;stroke-width:0.5;" width="165.6328" x="694.5" y="796"/><line style="stroke:#181818;stroke-width:0.5;" x1="694.5" x2="860.1328" y1="822.2969" y2="822.2969"/><text fill="#000000" font-family="sans-serif" font-size="14" lengthAdjust="spacing" textLength="145.6328" x="704.5" y="813.9951">DOCENTES_ABIERTO</text></g><path d="M19.5,118 L1141.5,118 A12.5,12.5 0 0 1 1154,130.5 L1154,144.2969 L7,144.2969 L7,130.5 A12.5,12.5 0 0 1 19.5,118" fill="#F1F1F1"/><rect fill="none" height="583.2969" rx="12.5" ry="12.5" style="stroke:#181818;stroke-width:0.5;" width="1147" x="7" y="118"/><line style="stroke:#181818;stroke-width:0.5;" x1="7" x2="1154" y1="144.2969" y2="144.2969"/><text fill="#000000" font-family="sans-serif" font-size="14" lengthAdjust="spacing" textLength="110.7695" x="525.1152" y="135.9951">editarDocente()</text><g id="editarDocente.EditandoDatos"><rect fill="#F1F1F1" height="50" rx="12.5" ry="12.5" style="stroke:#181818;stroke-width:0.5;" width="50" x="395" y="246.2969"/><line style="stroke:#181818;stroke-width:0.5;" x1="395" x2="445" y1="272.5938" y2="272.5938"/><text fill="#000000" font-family="sans-serif" font-size="14" lengthAdjust="spacing" textLength="4.4502" x="417.7749" y="264.292">&#160;</text></g><g id="editarDocente.GuardandoDatos"><rect fill="#F1F1F1" height="50" rx="12.5" ry="12.5" style="stroke:#181818;stroke-width:0.5;" width="50" x="395" y="548.2969"/><line style="stroke:#181818;stroke-width:0.5;" x1="395" x2="445" y1="574.5938" y2="574.5938"/><text fill="#000000" font-family="sans-serif" font-size="14" lengthAdjust="spacing" textLength="4.4502" x="417.7749" y="566.292">&#160;</text></g><ellipse cx="420" cy="165.2969" fill="#222222" rx="10" ry="10" style="stroke:#222222;stroke-width:1;"/><ellipse cx="420" cy="680.2969" fill="none" rx="11" ry="11" style="stroke:#222222;stroke-width:1;"/><ellipse cx="420" cy="680.2969" fill="#222222" rx="6" ry="6" style="stroke:#222222;stroke-width:1;"/><!--link *start*editarDocente to EditandoDatos--><g class="link" data-entity-1=".start.editarDocente" data-entity-2="EditandoDatos" data-source-line="18" data-uid="lnk5" id="link_.start.editarDocente_EditandoDatos"><path d="M420,175.5269 C420,191.2369 420,217.6569 420,240.1669" fill="none" id="*start*editarDocente-to-EditandoDatos" style="stroke:#008000;stroke-width:1;"/><polygon fill="#008000" points="420,246.1669,424,237.1669,420,241.1669,416,237.1669,420,246.1669" style="stroke:#008000;stroke-width:1;"/><path d="M425,198.2969 L425,223.2969 L795,223.2969 L795,208.2969 L785,198.2969 L425,198.2969" fill="#FEFFDD" style="stroke:#181818;stroke-width:0.5;"/><path d="M785,198.2969 L785,208.2969 L795,208.2969 L785,198.2969" fill="#FEFFDD" style="stroke:#181818;stroke-width:0.5;"/><text fill="#000000" font-family="sans-serif" font-size="13" font-weight="bold" lengthAdjust="spacing" textLength="200.5542" x="431" y="215.3638">Administrador institucional</text><text fill="#000000" font-family="sans-serif" font-size="13" lengthAdjust="spacing" textLength="144.9932" x="635.6865" y="215.3638">solicita editar docente</text></g><!--link EditandoDatos to GuardandoDatos--><g class="link" data-entity-1="EditandoDatos" data-entity-2="GuardandoDatos" data-source-line="23" data-uid="lnk6" id="link_EditandoDatos_GuardandoDatos"><path d="M394.94,279.7069 C354.17,291.7669 278,314.2969 278,314.2969 C278,314.2969 278,530.2969 278,530.2969 C278,530.2969 348.4164,551.1249 389.1864,563.1849" fill="none" id="EditandoDatos-to-GuardandoDatos" style="stroke:#008000;stroke-width:1;"/><polygon fill="#008000" points="394.94,564.8869,387.4443,558.4983,390.1454,563.4686,385.175,566.1697,394.94,564.8869" style="stroke:#008000;stroke-width:1;"/><path d="M283,319.2969 L283,525.2969 L536,525.2969 L536,329.2969 L526,319.2969 L283,319.2969" fill="#FEFFDD" style="stroke:#181818;stroke-width:0.5;"/><path d="M526,319.2969 L526,329.2969 L536,329.2969 L526,319.2969" fill="#FEFFDD" style="stroke:#181818;stroke-width:0.5;"/><text fill="#000000" font-family="sans-serif" font-size="13" font-weight="bold" lengthAdjust="spacing" textLength="58.9063" x="289" y="336.3638">Sistema</text><text fill="#000000" font-family="sans-serif" font-size="13" lengthAdjust="spacing" textLength="169.1714" x="352.0386" y="336.3638">presenta datos de edici&#243;n</text><text fill="#000000" font-family="sans-serif" font-size="13" lengthAdjust="spacing" textLength="63.7368" x="289" y="351.4966">&#8226; Nombre</text><text fill="#000000" font-family="sans-serif" font-size="13" lengthAdjust="spacing" textLength="70.7573" x="289" y="366.6294">&#8226; Apellidos</text><text fill="#000000" font-family="sans-serif" font-size="13" lengthAdjust="spacing" textLength="35.3691" x="289" y="381.7622">&#8226; DNI</text><text fill="#000000" font-family="sans-serif" font-size="13" lengthAdjust="spacing" textLength="136.3794" x="289" y="396.895">&#8226; Nombre de usuario</text><text fill="#000000" font-family="sans-serif" font-size="13" lengthAdjust="spacing" textLength="47.8677" x="289" y="412.0278">&#8226; Email</text><text fill="#000000" font-family="sans-serif" font-size="13" lengthAdjust="spacing" textLength="73.3345" x="289" y="427.1606">&#8226; Password</text><text fill="#000000" font-family="sans-serif" font-size="13" lengthAdjust="spacing" textLength="4.1323" x="289" y="442.2935">&#160;</text><text fill="#000000" font-family="sans-serif" font-size="13" font-weight="bold" lengthAdjust="spacing" textLength="58.9063" x="289" y="457.4263">Sistema</text><text fill="#000000" font-family="sans-serif" font-size="13" lengthAdjust="spacing" textLength="110.5952" x="352.0386" y="457.4263">permite solicitar:</text><text fill="#000000" font-family="sans-serif" font-size="13" lengthAdjust="spacing" textLength="127.8164" x="289" y="472.5591">&#8226; modificar campos</text><text fill="#000000" font-family="sans-serif" font-size="13" lengthAdjust="spacing" textLength="119.9834" x="289" y="487.6919">&#8226; guardar docente</text><text fill="#000000" font-family="sans-serif" font-size="13" lengthAdjust="spacing" textLength="118.168" x="289" y="502.8247">&#8226; cancelar edici&#243;n</text><text fill="#000000" font-family="sans-serif" font-size="13" lengthAdjust="spacing" textLength="64.8477" x="289" y="517.9575">&#8226; eliminar</text></g><!--link GuardandoDatos to EditandoDatos--><g class="link" data-entity-1="GuardandoDatos" data-entity-2="EditandoDatos" data-source-line="40" data-uid="lnk7" id="link_GuardandoDatos_EditandoDatos"><path d="M445.07,563.5969 C480.51,551.2969 541,530.2969 541,530.2969 C541,530.2969 541,314.2969 541,314.2969 C541,314.2969 486.1783,295.2642 450.7383,282.9642" fill="none" id="GuardandoDatos-to-EditandoDatos" style="stroke:#008000;stroke-width:1;"/><polygon fill="#008000" points="445.07,280.9969,452.261,287.7267,449.7936,282.6363,454.884,280.1689,445.07,280.9969" style="stroke:#008000;stroke-width:1;"/><path d="M546,409.7969 L546,434.7969 L937,434.7969 L937,419.7969 L927,409.7969 L546,409.7969" fill="#FEFFDD" style="stroke:#181818;stroke-width:0.5;"/><path d="M927,409.7969 L927,419.7969 L937,419.7969 L927,409.7969" fill="#FEFFDD" style="stroke:#181818;stroke-width:0.5;"/><text fill="#000000" font-family="sans-serif" font-size="13" font-weight="bold" lengthAdjust="spacing" textLength="200.5542" x="552" y="426.8638">Administrador institucional</text><text fill="#000000" font-family="sans-serif" font-size="13" lengthAdjust="spacing" textLength="165.9214" x="756.6865" y="426.8638">solicita modificar campos</text></g><!--link GuardandoDatos to *end*editarDocente--><g class="link" data-entity-1="GuardandoDatos" data-entity-2=".end.editarDocente" data-source-line="45" data-uid="lnk9" id="link_GuardandoDatos_.end.editarDocente"><path d="M394.85,576.9269 C306.85,586.1169 18,616.2969 18,616.2969 C18,616.2969 18,651.2969 18,651.2969 C18,651.2969 337.9145,673.5802 402.8445,678.1002" fill="none" id="GuardandoDatos-to-*end*editarDocente" style="stroke:#008000;stroke-width:1;"/><polygon fill="#008000" points="408.83,678.5169,400.1295,673.9015,403.8421,678.1696,399.5739,681.8822,408.83,678.5169" style="stroke:#008000;stroke-width:1;"/><path d="M23,621.2969 L23,646.2969 L393,646.2969 L393,631.2969 L383,621.2969 L23,621.2969" fill="#FEFFDD" style="stroke:#181818;stroke-width:0.5;"/><path d="M383,621.2969 L383,631.2969 L393,631.2969 L383,621.2969" fill="#FEFFDD" style="stroke:#181818;stroke-width:0.5;"/><text fill="#000000" font-family="sans-serif" font-size="13" font-weight="bold" lengthAdjust="spacing" textLength="200.5542" x="29" y="638.3638">Administrador institucional</text><text fill="#000000" font-family="sans-serif" font-size="13" lengthAdjust="spacing" textLength="144.5361" x="233.6865" y="638.3638">solicita guardar y salir</text></g><!--link GuardandoDatos to *end*editarDocente--><g class="link" data-entity-1="GuardandoDatos" data-entity-2=".end.editarDocente" data-source-line="50" data-uid="lnk10" id="link_GuardandoDatos_.end.editarDocente"><path d="M420,598.3869 C420,620.7869 420,647.0669 420,663.2469" fill="none" id="GuardandoDatos-to-*end*editarDocente-1" style="stroke:#0000FF;stroke-width:1;"/><polygon fill="#0000FF" points="420,669.2469,424,660.2469,420,664.2469,416,660.2469,420,669.2469" style="stroke:#0000FF;stroke-width:1;"/><path d="M425,621.2969 L425,646.2969 L753,646.2969 L753,631.2969 L743,621.2969 L425,621.2969" fill="#FEFFDD" style="stroke:#181818;stroke-width:0.5;"/><path d="M743,621.2969 L743,631.2969 L753,631.2969 L743,621.2969" fill="#FEFFDD" style="stroke:#181818;stroke-width:0.5;"/><text fill="#000000" font-family="sans-serif" font-size="13" font-weight="bold" lengthAdjust="spacing" textLength="200.5542" x="431" y="638.3638">Administrador institucional</text><text fill="#000000" font-family="sans-serif" font-size="13" lengthAdjust="spacing" textLength="102.9526" x="635.6865" y="638.3638">solicita eliminar</text></g><!--link GuardandoDatos to *end*editarDocente--><g class="link" data-entity-1="GuardandoDatos" data-entity-2=".end.editarDocente" data-source-line="55" data-uid="lnk11" id="link_GuardandoDatos_.end.editarDocente"><path d="M445.2,577.4169 C523.77,587.1569 759,616.2969 759,616.2969 C759,616.2969 759,651.2969 759,651.2969 C759,651.2969 494.8997,673.1132 436.8797,677.9032" fill="none" id="GuardandoDatos-to-*end*editarDocente-2" style="stroke:#FF0000;stroke-width:1;"/><polygon fill="#FF0000" points="430.9,678.3969,440.1986,681.6428,435.883,677.9855,439.5404,673.6699,430.9,678.3969" style="stroke:#FF0000;stroke-width:1;"/><path d="M764,621.2969 L764,646.2969 L1145,646.2969 L1145,631.2969 L1135,621.2969 L764,621.2969" fill="#FEFFDD" style="stroke:#181818;stroke-width:0.5;"/><path d="M1135,621.2969 L1135,631.2969 L1145,631.2969 L1135,621.2969" fill="#FEFFDD" style="stroke:#181818;stroke-width:0.5;"/><text fill="#000000" font-family="sans-serif" font-size="13" font-weight="bold" lengthAdjust="spacing" textLength="200.5542" x="770" y="638.3638">Administrador institucional</text><text fill="#000000" font-family="sans-serif" font-size="13" lengthAdjust="spacing" textLength="156.2729" x="974.6865" y="638.3638">solicita cancelar edici&#243;n</text></g><!--link DOCENTES_ABIERTO to editarDocente--><g class="link" data-entity-1="DOCENTES_ABIERTO" data-entity-2="editarDocente" data-source-line="9" data-uid="lnk2" id="link_DOCENTES_ABIERTO_editarDocente"><path d="M488.78,57.06 C492.71,72.11 496.7265,87.484 503.1365,112.074" fill="none" id="DOCENTES_ABIERTO-to-editarDocente" style="stroke:#008000;stroke-width:1;"/><polygon fill="#008000" points="504.65,117.88,506.2504,108.162,503.3888,113.0417,498.5091,110.18,504.65,117.88" style="stroke:#008000;stroke-width:1;"/></g><!--link DOCENTE_ABIERTO to editarDocente--><g class="link" data-entity-1="DOCENTE_ABIERTO" data-entity-2="editarDocente" data-source-line="11" data-uid="lnk3" id="link_DOCENTE_ABIERTO_editarDocente"><path d="M673.16,57.06 C669.19,72.11 665.1289,87.4881 658.6489,112.0781" fill="none" id="DOCENTE_ABIERTO-to-editarDocente" style="stroke:#008000;stroke-width:1;"/><polygon fill="#008000" points="657.12,117.88,663.2814,110.1964,658.3941,113.0451,655.5454,108.1578,657.12,117.88" style="stroke:#008000;stroke-width:1;"/></g><!--link editarDocente to DOCENTE_ABIERTO2--><g class="link" data-entity-1="editarDocente" data-entity-2="DOCENTE_ABIERTO2" data-source-line="61" data-uid="lnk12" id="link_editarDocente_DOCENTE_ABIERTO2"><path d="M580.5,701.01 C580.5,740.24 580.5,768.35 580.5,789.87" fill="none" id="editarDocente-to-DOCENTE_ABIERTO2" style="stroke:#008000;stroke-width:1;"/><polygon fill="#008000" points="580.5,795.87,584.5,786.87,580.5,790.87,576.5,786.87,580.5,795.87" style="stroke:#008000;stroke-width:1;"/><path d="M585.5,736 L585.5,761 L657.5,761 L657.5,746 L647.5,736 L585.5,736" fill="#FEFFDD" style="stroke:#181818;stroke-width:0.5;"/><path d="M647.5,736 L647.5,746 L657.5,746 L647.5,736" fill="#FEFFDD" style="stroke:#181818;stroke-width:0.5;"/><text fill="#000000" font-family="sans-serif" font-size="13" lengthAdjust="spacing" textLength="51.3652" x="591.5" y="753.0669">guardar</text></g><!--link editarDocente to DOCENTES_ABIERTO2--><g class="link" data-entity-1="editarDocente" data-entity-2="DOCENTES_ABIERTO2" data-source-line="66" data-uid="lnk13" id="link_editarDocente_DOCENTES_ABIERTO2"><path d="M440.75,701.01 C421.87,740.24 408.0606,768.9429 397.7106,790.4629" fill="none" id="editarDocente-to-DOCENTES_ABIERTO2" style="stroke:#FF0000;stroke-width:1;"/><polygon fill="#FF0000" points="395.11,795.87,402.6156,789.493,397.2771,791.3641,395.4061,786.0256,395.11,795.87" style="stroke:#FF0000;stroke-width:1;"/><path d="M431.5,736 L431.5,761 L558.5,761 L558.5,746 L548.5,736 L431.5,736" fill="#FEFFDD" style="stroke:#181818;stroke-width:0.5;"/><path d="M548.5,736 L548.5,746 L558.5,746 L548.5,736" fill="#FEFFDD" style="stroke:#181818;stroke-width:0.5;"/><text fill="#000000" font-family="sans-serif" font-size="13" lengthAdjust="spacing" textLength="106.3677" x="437.5" y="753.0669">cancelar edici&#243;n</text></g><!--link editarDocente to DOCENTES_ABIERTO3--><g class="link" data-entity-1="editarDocente" data-entity-2="DOCENTES_ABIERTO3" data-source-line="71" data-uid="lnk14" id="link_editarDocente_DOCENTES_ABIERTO3"><path d="M720.25,701.01 C739.13,740.24 752.9394,768.9429 763.2894,790.4629" fill="none" id="editarDocente-to-DOCENTES_ABIERTO3" style="stroke:#0000FF;stroke-width:1;"/><polygon fill="#0000FF" points="765.89,795.87,765.5939,786.0256,763.7229,791.3641,758.3844,789.493,765.89,795.87" style="stroke:#0000FF;stroke-width:1;"/><path d="M753.5,736 L753.5,761 L827.5,761 L827.5,746 L817.5,736 L753.5,736" fill="#FEFFDD" style="stroke:#181818;stroke-width:0.5;"/><path d="M817.5,736 L817.5,746 L827.5,746 L817.5,736" fill="#FEFFDD" style="stroke:#181818;stroke-width:0.5;"/><text fill="#000000" font-family="sans-serif" font-size="13" lengthAdjust="spacing" textLength="53.0474" x="759.5" y="753.0669">eliminar</text></g><!--SRC=[hLJjQjim5FslfxXaVzP1AMJ_HWXaYndzavQb_qeODzPjkKIMZAHGmXZiMVeAVOI-oPvaikEFoexNbCO6WwwEpptdw2AtOPsZnGmKQ_Axd20tQbSiX70UFS7ywbkok4cMFsTVBvCVDrU03aRTucW0F3u6VOZv5UZu26pJxlE02D6pTdxxuTuIwTNv54YoHpitAMbF3VOOw5v5L2mLH9MFPoFu9GI4PuyVXJUWaWAafPcZDww__NsBLZRxi2Uu_RIAz4GSK4Aq2Hn65yUyAGkJzNGcCzRil4LfBB1sdlqsPQDHJIxMKt16SHgOAYiWAuF5xwJbdZCyeld4ZLzAYdKFIbe6EPHXsJwtv48_15cooJBIb9-VT8d- - -SH5YPRMu9cFSj9APQrwQ8qNrn25n-ejYu8OjDk9HcoQfVNwDo3iRBrrbL7DkDWe0x9Vcd-pOpaEqv3OYbcUUMssBWlGuY3BEefwfHKsEWP9CNXZD16cRUQEjCmE0Fl7u63djuaA0pf-sNK2Ux0eUBZOrchBPrCnE536UXiIPwiyU4vQHJy5YA-T5x6txr0HQIaobMqRdfCbP7U3HyJzIN-Xx8-bTw57NCsUTTK_m00]--></g></svg>