<svg xmlns="http://www.w3.org/2000/svg" xmlns:xlink="http://www.w3.org/1999/xlink" contentStyleType="text/css" data-diagram-type="CLASS" height="559px" preserveAspectRatio="none" style="width:930px;height:559px;background:#FFFFFF;" version="1.1" viewBox="0 0 930 559" width="930px" zoomAndPan="magnify"><defs/><g><!--cluster PackPreguntaRespuesta--><g class="cluster" data-entity="PackPreguntaRespuesta" data-source-line="25" data-uid="ent0006" id="cluster_PackPreguntaRespuesta"><path d="M433.5,270.5 L627.1367,270.5 A3.75,3.75 0 0 1 629.6367,273 L636.6367,292.7969 L636.5,292.7969 A2.5,2.5 0 0 1 639,295.2969 L639,549.5 A2.5,2.5 0 0 1 636.5,552 L433.5,552 A2.5,2.5 0 0 1 431,549.5 L431,273 A2.5,2.5 0 0 1 433.5,270.5" fill="none" style="stroke:#000000;stroke-width:1.5;"/><line style="stroke:#000000;stroke-width:1.5;" x1="431" x2="636.6367" y1="292.7969" y2="292.7969"/><text fill="#000000" font-family="sans-serif" font-size="14" font-weight="bold" lengthAdjust="spacing" textLength="192.6367" x="435" y="285.4951">PackPreguntaRespuesta</text></g><!--class Pregunta--><g class="entity" data-entity="Pregunta" data-source-line="26" data-uid="ent0007" id="entity_Pregunta"><rect fill="#F1F1F1" height="56.2969" rx="2.5" ry="2.5" style="stroke:#181818;stroke-width:0.5;" width="95.5127" x="500" y="305.5"/><ellipse cx="515" cy="321.5" fill="#ADD1B2" rx="11" ry="11" style="stroke:#181818;stroke-width:1;"/><path d="M517.9688,327.1406 Q517.3906,327.4375 516.75,327.5781 Q516.1094,327.7344 515.4063,327.7344 Q512.9063,327.7344 511.5781,326.0938 Q510.2656,324.4375 510.2656,321.3125 Q510.2656,318.1875 511.5781,316.5313 Q512.9063,314.875 515.4063,314.875 Q516.1094,314.875 516.75,315.0313 Q517.4063,315.1875 517.9688,315.4844 L517.9688,318.2031 Q517.3438,317.625 516.75,317.3594 Q516.1563,317.0781 515.5313,317.0781 Q514.1875,317.0781 513.5,318.1563 Q512.8125,319.2188 512.8125,321.3125 Q512.8125,323.4063 513.5,324.4844 Q514.1875,325.5469 515.5313,325.5469 Q516.1563,325.5469 516.75,325.2813 Q517.3438,325 517.9688,324.4219 L517.9688,327.1406 Z " fill="#000000"/><text fill="#000000" font-family="sans-serif" font-size="14" lengthAdjust="spacing" textLength="63.5127" x="529" y="326.3467">Pregunta</text><line style="stroke:#181818;stroke-width:0.5;" x1="501" x2="594.5127" y1="337.5" y2="337.5"/><text fill="#000000" font-family="sans-serif" font-size="14" lengthAdjust="spacing" textLength="72.8506" x="506" y="354.4951">enunciado</text></g><!--class Respuesta--><g class="entity" data-entity="Respuesta" data-source-line="29" data-uid="ent0008" id="entity_Respuesta"><rect fill="#F1F1F1" height="72.5938" rx="2.5" ry="2.5" style="stroke:#181818;stroke-width:0.5;" width="105.3701" x="495.5" y="463"/><ellipse cx="510.5" cy="479" fill="#ADD1B2" rx="11" ry="11" style="stroke:#181818;stroke-width:1;"/><path d="M513.4688,484.6406 Q512.8906,484.9375 512.25,485.0781 Q511.6094,485.2344 510.9063,485.2344 Q508.4063,485.2344 507.0781,483.5938 Q505.7656,481.9375 505.7656,478.8125 Q505.7656,475.6875 507.0781,474.0313 Q508.4063,472.375 510.9063,472.375 Q511.6094,472.375 512.25,472.5313 Q512.9063,472.6875 513.4688,472.9844 L513.4688,475.7031 Q512.8438,475.125 512.25,474.8594 Q511.6563,474.5781 511.0313,474.5781 Q509.6875,474.5781 509,475.6563 Q508.3125,476.7188 508.3125,478.8125 Q508.3125,480.9063 509,481.9844 Q509.6875,483.0469 511.0313,483.0469 Q511.6563,483.0469 512.25,482.7813 Q512.8438,482.5 513.4688,481.9219 L513.4688,484.6406 Z " fill="#000000"/><text fill="#000000" font-family="sans-serif" font-size="14" lengthAdjust="spacing" textLength="73.3701" x="524.5" y="483.8467">Respuesta</text><line style="stroke:#181818;stroke-width:0.5;" x1="496.5" x2="599.8701" y1="495" y2="495"/><text fill="#000000" font-family="sans-serif" font-size="14" lengthAdjust="spacing" textLength="46.4775" x="501.5" y="511.9951">opci&#243;n</text><text fill="#000000" font-family="sans-serif" font-size="14" lengthAdjust="spacing" textLength="76.1387" x="501.5" y="528.292">esCorrecta</text></g><!--class Examen--><g class="entity" data-entity="Examen" data-source-line="3" data-uid="ent0002" id="entity_Examen"><rect fill="#F1F1F1" height="56.2969" rx="2.5" ry="2.5" style="stroke:#181818;stroke-width:0.5;" width="126.625" x="280.5" y="140"/><ellipse cx="312.506" cy="156" fill="#ADD1B2" rx="11" ry="11" style="stroke:#181818;stroke-width:1;"/><path d="M315.4747,161.6406 Q314.8966,161.9375 314.256,162.0781 Q313.6153,162.2344 312.9122,162.2344 Q310.4122,162.2344 309.0841,160.5938 Q307.7716,158.9375 307.7716,155.8125 Q307.7716,152.6875 309.0841,151.0313 Q310.4122,149.375 312.9122,149.375 Q313.6153,149.375 314.256,149.5313 Q314.9122,149.6875 315.4747,149.9844 L315.4747,152.7031 Q314.8497,152.125 314.256,151.8594 Q313.6622,151.5781 313.0372,151.5781 Q311.6935,151.5781 311.006,152.6563 Q310.3185,153.7188 310.3185,155.8125 Q310.3185,157.9063 311.006,158.9844 Q311.6935,160.0469 313.0372,160.0469 Q313.6622,160.0469 314.256,159.7813 Q314.8497,159.5 315.4747,158.9219 L315.4747,161.6406 Z " fill="#000000"/><text fill="#000000" font-family="sans-serif" font-size="14" lengthAdjust="spacing" textLength="56.834" x="330.2851" y="160.8467">Examen</text><line style="stroke:#181818;stroke-width:0.5;" x1="281.5" x2="406.125" y1="172" y2="172"/><text fill="#000000" font-family="sans-serif" font-size="14" lengthAdjust="spacing" textLength="114.625" x="286.5" y="188.9951">clave correcci&#243;n</text></g><!--class Asignatura--><g class="entity" data-entity="Asignatura" data-source-line="7" data-uid="ent0003" id="entity_Asignatura"><rect fill="#F1F1F1" height="56.2969" rx="2.5" ry="2.5" style="stroke:#181818;stroke-width:0.5;" width="130.7813" x="165.5" y="7"/><ellipse cx="190.843" cy="23" fill="#ADD1B2" rx="11" ry="11" style="stroke:#181818;stroke-width:1;"/><path d="M193.8117,28.6406 Q193.2336,28.9375 192.593,29.0781 Q191.9523,29.2344 191.2492,29.2344 Q188.7492,29.2344 187.4211,27.5938 Q186.1086,25.9375 186.1086,22.8125 Q186.1086,19.6875 187.4211,18.0313 Q188.7492,16.375 191.2492,16.375 Q191.9523,16.375 192.593,16.5313 Q193.2492,16.6875 193.8117,16.9844 L193.8117,19.7031 Q193.1867,19.125 192.593,18.8594 Q191.9992,18.5781 191.3742,18.5781 Q190.0305,18.5781 189.343,19.6563 Q188.6555,20.7188 188.6555,22.8125 Q188.6555,24.9063 189.343,25.9844 Q190.0305,27.0469 191.3742,27.0469 Q191.9992,27.0469 192.593,26.7813 Q193.1867,26.5 193.8117,25.9219 L193.8117,28.6406 Z " fill="#000000"/><text fill="#000000" font-family="sans-serif" font-size="14" lengthAdjust="spacing" textLength="75.7969" x="207.1414" y="27.8467">Asignatura</text><line style="stroke:#181818;stroke-width:0.5;" x1="166.5" x2="295.2813" y1="39" y2="39"/><text fill="#000000" font-family="sans-serif" font-size="14" lengthAdjust="spacing" textLength="118.7813" x="171.5" y="55.9951">curso acad&#233;mico</text></g><!--class TipoExamen--><g class="entity" data-entity="TipoExamen" data-source-line="11" data-uid="ent0004" id="entity_TipoExamen"><rect fill="#F1F1F1" height="121.4844" rx="2.5" ry="2.5" style="stroke:#181818;stroke-width:0.5;" width="172.7676" x="241.5" y="273"/><ellipse cx="280.818" cy="289" fill="#EB937F" rx="11" ry="11" style="stroke:#181818;stroke-width:1;"/><path d="M284.9274,295 L277.2086,295 L277.2086,282.6094 L284.9274,282.6094 L284.9274,284.7656 L279.6618,284.7656 L279.6618,287.4375 L284.4274,287.4375 L284.4274,289.5938 L279.6618,289.5938 L279.6618,292.8438 L284.9274,292.8438 L284.9274,295 Z " fill="#000000"/><text fill="#000000" font-family="sans-serif" font-size="14" lengthAdjust="spacing" textLength="86.7275" x="300.222" y="293.8467">TipoExamen</text><line style="stroke:#181818;stroke-width:0.5;" x1="242.5" x2="413.2676" y1="305" y2="305"/><text fill="#000000" font-family="sans-serif" font-size="14" lengthAdjust="spacing" textLength="60.1904" x="247.5" y="321.9951">Parcial 1</text><text fill="#000000" font-family="sans-serif" font-size="14" lengthAdjust="spacing" textLength="60.1904" x="247.5" y="338.292">Parcial 2</text><text fill="#000000" font-family="sans-serif" font-size="14" lengthAdjust="spacing" textLength="60.1904" x="247.5" y="354.5889">Parcial 3</text><text fill="#000000" font-family="sans-serif" font-size="14" lengthAdjust="spacing" textLength="91.4443" x="247.5" y="370.8857">Examen final</text><text fill="#000000" font-family="sans-serif" font-size="14" lengthAdjust="spacing" textLength="160.7676" x="247.5" y="387.1826">Examen extraordinario</text></g><!--class DificultadPregunta--><g class="entity" data-entity="DificultadPregunta" data-source-line="19" data-uid="ent0005" id="entity_DificultadPregunta"><rect fill="#F1F1F1" height="88.8906" rx="2.5" ry="2.5" style="stroke:#181818;stroke-width:0.5;" width="162.416" x="655" y="455"/><ellipse cx="670" cy="471" fill="#EB937F" rx="11" ry="11" style="stroke:#181818;stroke-width:1;"/><path d="M674.1094,477 L666.3906,477 L666.3906,464.6094 L674.1094,464.6094 L674.1094,466.7656 L668.8438,466.7656 L668.8438,469.4375 L673.6094,469.4375 L673.6094,471.5938 L668.8438,471.5938 L668.8438,474.8438 L674.1094,474.8438 L674.1094,477 Z " fill="#000000"/><text fill="#000000" font-family="sans-serif" font-size="14" lengthAdjust="spacing" textLength="130.416" x="684" y="475.8467">DificultadPregunta</text><line style="stroke:#181818;stroke-width:0.5;" x1="656" x2="816.416" y1="487" y2="487"/><text fill="#000000" font-family="sans-serif" font-size="14" lengthAdjust="spacing" textLength="28.9844" x="661" y="503.9951">facil</text><text fill="#000000" font-family="sans-serif" font-size="14" lengthAdjust="spacing" textLength="43.5928" x="661" y="520.292">medio</text><text fill="#000000" font-family="sans-serif" font-size="14" lengthAdjust="spacing" textLength="37.0713" x="661" y="536.5889">dificil</text></g><!--class Tema--><g class="entity" data-entity="Tema" data-source-line="35" data-uid="ent0009" id="entity_Tema"><rect fill="#F1F1F1" height="32" rx="2.5" ry="2.5" style="stroke:#181818;stroke-width:0.5;" width="71.3818" x="852.5" y="483.5"/><ellipse cx="867.5" cy="499.5" fill="#EB937F" rx="11" ry="11" style="stroke:#181818;stroke-width:1;"/><path d="M871.6094,505.5 L863.8906,505.5 L863.8906,493.1094 L871.6094,493.1094 L871.6094,495.2656 L866.3438,495.2656 L866.3438,497.9375 L871.1094,497.9375 L871.1094,500.0938 L866.3438,500.0938 L866.3438,503.3438 L871.6094,503.3438 L871.6094,505.5 Z " fill="#000000"/><text fill="#000000" font-family="sans-serif" font-size="14" lengthAdjust="spacing" textLength="39.3818" x="881.5" y="504.3467">Tema</text></g><!--class BateriaDePreguntas--><g class="entity" data-entity="BateriaDePreguntas" data-source-line="41" data-uid="ent0015" id="entity_BateriaDePreguntas"><rect fill="#F1F1F1" height="32" rx="2.5" ry="2.5" style="stroke:#181818;stroke-width:0.5;" width="172.7109" x="447.5" y="152"/><ellipse cx="462.5" cy="168" fill="#ADD1B2" rx="11" ry="11" style="stroke:#181818;stroke-width:1;"/><path d="M465.4688,173.6406 Q464.8906,173.9375 464.25,174.0781 Q463.6094,174.2344 462.9063,174.2344 Q460.4063,174.2344 459.0781,172.5938 Q457.7656,170.9375 457.7656,167.8125 Q457.7656,164.6875 459.0781,163.0313 Q460.4063,161.375 462.9063,161.375 Q463.6094,161.375 464.25,161.5313 Q464.9063,161.6875 465.4688,161.9844 L465.4688,164.7031 Q464.8438,164.125 464.25,163.8594 Q463.6563,163.5781 463.0313,163.5781 Q461.6875,163.5781 461,164.6563 Q460.3125,165.7188 460.3125,167.8125 Q460.3125,169.9063 461,170.9844 Q461.6875,172.0469 463.0313,172.0469 Q463.6563,172.0469 464.25,171.7813 Q464.8438,171.5 465.4688,170.9219 L465.4688,173.6406 Z " fill="#000000"/><text fill="#000000" font-family="sans-serif" font-size="14" lengthAdjust="spacing" textLength="140.7109" x="476.5" y="172.8467">BateriaDePreguntas</text></g><!--class Profesor--><g class="entity" data-entity="Profesor" data-source-line="45" data-uid="ent0023" id="entity_Profesor"><rect fill="#F1F1F1" height="32" rx="2.5" ry="2.5" style="stroke:#181818;stroke-width:0.5;" width="89.9209" x="7" y="19"/><ellipse cx="22" cy="35" fill="#ADD1B2" rx="11" ry="11" style="stroke:#181818;stroke-width:1;"/><path d="M24.9688,40.6406 Q24.3906,40.9375 23.75,41.0781 Q23.1094,41.2344 22.4063,41.2344 Q19.9063,41.2344 18.5781,39.5938 Q17.2656,37.9375 17.2656,34.8125 Q17.2656,31.6875 18.5781,30.0313 Q19.9063,28.375 22.4063,28.375 Q23.1094,28.375 23.75,28.5313 Q24.4063,28.6875 24.9688,28.9844 L24.9688,31.7031 Q24.3438,31.125 23.75,30.8594 Q23.1563,30.5781 22.5313,30.5781 Q21.1875,30.5781 20.5,31.6563 Q19.8125,32.7188 19.8125,34.8125 Q19.8125,36.9063 20.5,37.9844 Q21.1875,39.0469 22.5313,39.0469 Q23.1563,39.0469 23.75,38.7813 Q24.3438,38.5 24.9688,37.9219 L24.9688,40.6406 Z " fill="#000000"/><text fill="#000000" font-family="sans-serif" font-size="14" lengthAdjust="spacing" textLength="57.9209" x="36" y="39.8467">Profesor</text></g><!--class Grado--><g class="entity" data-entity="Grado" data-source-line="46" data-uid="ent0025" id="entity_Grado"><rect fill="#F1F1F1" height="32" rx="2.5" ry="2.5" style="stroke:#181818;stroke-width:0.5;" width="74.6357" x="28.5" y="152"/><ellipse cx="43.5" cy="168" fill="#ADD1B2" rx="11" ry="11" style="stroke:#181818;stroke-width:1;"/><path d="M46.4688,173.6406 Q45.8906,173.9375 45.25,174.0781 Q44.6094,174.2344 43.9063,174.2344 Q41.4063,174.2344 40.0781,172.5938 Q38.7656,170.9375 38.7656,167.8125 Q38.7656,164.6875 40.0781,163.0313 Q41.4063,161.375 43.9063,161.375 Q44.6094,161.375 45.25,161.5313 Q45.9063,161.6875 46.4688,161.9844 L46.4688,164.7031 Q45.8438,164.125 45.25,163.8594 Q44.6563,163.5781 44.0313,163.5781 Q42.6875,163.5781 42,164.6563 Q41.3125,165.7188 41.3125,167.8125 Q41.3125,169.9063 42,170.9844 Q42.6875,172.0469 44.0313,172.0469 Q44.6563,172.0469 45.25,171.7813 Q45.8438,171.5 46.4688,170.9219 L46.4688,173.6406 Z " fill="#000000"/><text fill="#000000" font-family="sans-serif" font-size="14" lengthAdjust="spacing" textLength="42.6357" x="57.5" y="172.8467">Grado</text></g><!--class Alumno--><g class="entity" data-entity="Alumno" data-source-line="47" data-uid="ent0027" id="entity_Alumno"><rect fill="#F1F1F1" height="32" rx="2.5" ry="2.5" style="stroke:#181818;stroke-width:0.5;" width="85.416" x="121.5" y="317.5"/><ellipse cx="136.5" cy="333.5" fill="#ADD1B2" rx="11" ry="11" style="stroke:#181818;stroke-width:1;"/><path d="M139.4688,339.1406 Q138.8906,339.4375 138.25,339.5781 Q137.6094,339.7344 136.9063,339.7344 Q134.4063,339.7344 133.0781,338.0938 Q131.7656,336.4375 131.7656,333.3125 Q131.7656,330.1875 133.0781,328.5313 Q134.4063,326.875 136.9063,326.875 Q137.6094,326.875 138.25,327.0313 Q138.9063,327.1875 139.4688,327.4844 L139.4688,330.2031 Q138.8438,329.625 138.25,329.3594 Q137.6563,329.0781 137.0313,329.0781 Q135.6875,329.0781 135,330.1563 Q134.3125,331.2188 134.3125,333.3125 Q134.3125,335.4063 135,336.4844 Q135.6875,337.5469 137.0313,337.5469 Q137.6563,337.5469 138.25,337.2813 Q138.8438,337 139.4688,336.4219 L139.4688,339.1406 Z " fill="#000000"/><text fill="#000000" font-family="sans-serif" font-size="14" lengthAdjust="spacing" textLength="53.416" x="150.5" y="338.3467">Alumno</text></g><!--reverse link Pregunta to Respuesta--><g class="link" data-entity-1="Pregunta" data-entity-2="Respuesta" data-source-line="38" data-uid="lnk11" id="link_Pregunta_Respuesta"><path codeLine="38" d="M548,373.58 C548,401.24 548,432.32 548,462.76" fill="none" id="Pregunta-backto-Respuesta" style="stroke:#181818;stroke-width:1;"/><polygon fill="#181818" points="548,361.58,544,367.58,548,373.58,552,367.58,548,361.58" style="stroke:#181818;stroke-width:1;"/></g><!--link Pregunta to DificultadPregunta--><g class="link" data-entity-1="Pregunta" data-entity-2="DificultadPregunta" data-source-line="39" data-uid="lnk12" id="link_Pregunta_DificultadPregunta"><path codeLine="39" d="M579.04,361.58 C608.04,386.87 647.2983,421.1261 681.2583,450.7461" fill="none" id="Pregunta-to-DificultadPregunta" style="stroke:#181818;stroke-width:1;stroke-dasharray:7,7;"/><polygon fill="#181818" points="685.78,454.69,681.6267,445.7597,682.0119,451.4035,676.3682,451.7887,685.78,454.69" style="stroke:#181818;stroke-width:1;"/></g><!--reverse link Examen to Pregunta--><g class="link" data-entity-1="Examen" data-entity-2="Pregunta" data-source-line="40" data-uid="lnk14" id="link_Examen_Pregunta"><path codeLine="40" d="M387.5139,203.8745 C425.2839,234.1445 476.4,275.12 514.08,305.32" fill="none" id="Examen-backto-Pregunta" style="stroke:#181818;stroke-width:1;"/><polygon fill="none" points="378.15,196.37,380.3304,203.2435,387.5139,203.8745,385.3334,197.001,378.15,196.37" style="stroke:#181818;stroke-width:1;"/><text fill="#000000" font-family="sans-serif" font-size="13" lengthAdjust="spacing" textLength="56.2847" x="434" y="239.0669">contiene</text></g><!--reverse link BateriaDePreguntas to Pregunta--><g class="link" data-entity-1="BateriaDePreguntas" data-entity-2="Pregunta" data-source-line="41" data-uid="lnk17" id="link_BateriaDePreguntas_Pregunta"><path codeLine="41" d="M536.3127,196.0463 C538.6727,223.6363 542.7,270.61 545.67,305.34" fill="none" id="BateriaDePreguntas-backto-Pregunta" style="stroke:#181818;stroke-width:1;"/><polygon fill="#181818" points="535.29,184.09,531.8159,190.4091,536.3127,196.0463,539.7868,189.7273,535.29,184.09" style="stroke:#181818;stroke-width:1;"/><text fill="#000000" font-family="sans-serif" font-size="13" lengthAdjust="spacing" textLength="56.2847" x="541" y="239.0669">contiene</text></g><!--link Examen to TipoExamen--><g class="link" data-entity-1="Examen" data-entity-2="TipoExamen" data-source-line="42" data-uid="lnk18" id="link_Examen_TipoExamen"><path codeLine="42" d="M341.32,196.37 C339.28,217.18 336.9839,240.6385 334.4239,266.8185" fill="none" id="Examen-to-TipoExamen" style="stroke:#181818;stroke-width:1;stroke-dasharray:7,7;"/><polygon fill="#181818" points="333.84,272.79,338.6969,264.222,334.3266,267.8137,330.7349,263.4434,333.84,272.79" style="stroke:#181818;stroke-width:1;"/></g><!--reverse link Asignatura to BateriaDePreguntas--><g class="link" data-entity-1="Asignatura" data-entity-2="BateriaDePreguntas" data-source-line="43" data-uid="lnk20" id="link_Asignatura_BateriaDePreguntas"><path codeLine="43" d="M304.7943,67.9029 C367.0243,94.8129 449.07,130.28 499.14,151.93" fill="none" id="Asignatura-backto-BateriaDePreguntas" style="stroke:#181818;stroke-width:1;"/><polygon fill="#181818" points="293.78,63.14,297.6995,69.1929,304.7943,67.9029,300.8748,61.85,293.78,63.14" style="stroke:#181818;stroke-width:1;"/><text fill="#000000" font-family="sans-serif" font-size="13" lengthAdjust="spacing" textLength="32.9443" x="402" y="106.0669">tiene</text></g><!--reverse link Asignatura to Examen--><g class="link" data-entity-1="Asignatura" data-entity-2="Examen" data-source-line="44" data-uid="lnk22" id="link_Asignatura_Examen"><path codeLine="44" d="M262.2481,72.2265 C281.6481,94.7165 301.23,117.42 320.62,139.89" fill="none" id="Asignatura-backto-Examen" style="stroke:#181818;stroke-width:1;"/><polygon fill="#181818" points="254.41,63.14,255.3002,70.2959,262.2481,72.2265,261.3579,65.0706,254.41,63.14" style="stroke:#181818;stroke-width:1;"/><text fill="#000000" font-family="sans-serif" font-size="13" lengthAdjust="spacing" textLength="32.9443" x="296" y="106.0669">tiene</text></g><!--reverse link Profesor to Asignatura--><g class="link" data-entity-1="Profesor" data-entity-2="Asignatura" data-source-line="45" data-uid="lnk24" id="link_Profesor_Asignatura"><path codeLine="45" d="M109.17,35 C129.78,35 142.59,35 165.21,35" fill="none" id="Profesor-backto-Asignatura" style="stroke:#181818;stroke-width:1;"/><polygon fill="none" points="97.17,35,103.17,39,109.17,35,103.17,31,97.17,35" style="stroke:#181818;stroke-width:1;"/><text fill="#000000" font-family="sans-serif" font-size="13" lengthAdjust="spacing" textLength="32.9443" x="115.25" y="28.0669">tiene</text></g><!--link Asignatura to Grado--><g class="link" data-entity-1="Asignatura" data-entity-2="Grado" data-source-line="46" data-uid="lnk26" id="link_Asignatura_Grado"><path codeLine="46" d="M165.2,45.76 C135,53.59 101.26,67.68 80,93 C66.13,109.52 64.1478,129.4925 64.6178,145.8625" fill="none" id="Asignatura-to-Grado" style="stroke:#181818;stroke-width:1;"/><polygon fill="#181818" points="64.79,151.86,68.5301,142.7489,64.6465,146.8621,60.5334,142.9785,64.79,151.86" style="stroke:#181818;stroke-width:1;"/><text fill="#000000" font-family="sans-serif" font-size="13" lengthAdjust="spacing" textLength="66.0728" x="81" y="106.0669">pertenece</text></g><!--reverse link Examen to Alumno--><g class="link" data-entity-1="Examen" data-entity-2="Alumno" data-source-line="47" data-uid="lnk29" id="link_Examen_Alumno"><path codeLine="47" d="M295.6948,203.0913 C271.3448,220.8513 249.51,238.16 224,262.5 C205.7,279.96 187.14,302.53 175.6,317.26" fill="none" id="Examen-backto-Alumno" style="stroke:#181818;stroke-width:1;"/><polygon fill="none" points="305.39,196.02,298.1853,196.3239,295.6948,203.0913,302.8995,202.7874,305.39,196.02" style="stroke:#181818;stroke-width:1;"/><text fill="#000000" font-family="sans-serif" font-size="13" lengthAdjust="spacing" textLength="43.3228" x="267" y="239.0669">realiza</text></g><!--reverse link Asignatura to Alumno--><g class="link" data-entity-1="Asignatura" data-entity-2="Alumno" data-source-line="48" data-uid="lnk31" id="link_Asignatura_Alumno"><path codeLine="48" d="M214.2712,74.3529 C205.5812,95.0329 198.87,113.29 192,140 C175.35,204.76 167.71,284.5 165.1,317.31" fill="none" id="Asignatura-backto-Alumno" style="stroke:#181818;stroke-width:1;"/><polygon fill="#181818" points="218.92,63.29,212.908,67.2719,214.2712,74.3529,220.2833,70.3711,218.92,63.29" style="stroke:#181818;stroke-width:1;"/><text fill="#000000" font-family="sans-serif" font-size="13" lengthAdjust="spacing" textLength="69.8369" x="193" y="172.5669">se imparte</text></g><!--reverse link Grado to Alumno--><g class="link" data-entity-1="Grado" data-entity-2="Alumno" data-source-line="49" data-uid="lnk33" id="link_Grado_Alumno"><path codeLine="49" d="M72.7846,195.6814 C76.9146,211.1014 81.34,223.84 92,243 C107.9,271.58 132.98,300.27 148.95,317.2" fill="none" id="Grado-backto-Alumno" style="stroke:#181818;stroke-width:1;"/><polygon fill="#181818" points="69.68,184.09,67.3685,190.9206,72.7846,195.6814,75.0961,188.8509,69.68,184.09" style="stroke:#181818;stroke-width:1;"/><text fill="#000000" font-family="sans-serif" font-size="13" lengthAdjust="spacing" textLength="54.374" x="93" y="239.0669">se cursa</text></g><!--link Pregunta to Tema--><g class="link" data-entity-1="Pregunta" data-entity-2="Tema" data-source-line="50" data-uid="lnk34" id="link_Pregunta_Tema"><path codeLine="50" d="M596.25,349.93 C654.98,369.78 756.09,407.44 835,455 C848.46,463.11 857.6676,470.4091 867.7476,479.4691" fill="none" id="Pregunta-to-Tema" style="stroke:#181818;stroke-width:1;stroke-dasharray:7,7;"/><polygon fill="#181818" points="872.21,483.48,868.1903,474.4888,868.4913,480.1376,862.8425,480.4387,872.21,483.48" style="stroke:#181818;stroke-width:1;"/></g><!--SRC=[TPB1JiCm38RlUGgV9tKISECm2HZYMY5UmAJki6YIoadG0Es1EFC8Up7STMtNQPpgvF_yExRxnXK1kJPzWYFtIXADiGt628zRTEI_kzC7WGqYP2tlVxtP3SXTv8t7b0KLon83eCLg_-FOXeuYdnsyS1i6hnB5CZPmDKRNOtHZUWfgzjWC1zecmI2LtWbFfckksUOcOLKARR9F-e8QBJV6KQLSrUbwKhv5-uuRWbA_0_nCiSqKkoo0lfV91q1BU7rJ5JJUZSGiARJzB1IE3uVP93pGOzla5DJJc0P5BXPZ7JC4i5okBlGpwPeMZjk0Mrs4JqoUPle2xZ6HCAvfk8wdx36xgpIjmrp8ENXDQrMFcS5_SYcXfXW4GY759U3agYXMy2GwN1LRagIoLQ39peUpNeMmuIyy4S-gHm9sBQh9Z1diLUv-oxDPTvlv0m00]--></g></svg>