<svg xmlns="http://www.w3.org/2000/svg" xmlns:xlink="http://www.w3.org/1999/xlink" contentStyleType="text/css" data-diagram-type="CLASS" height="632px" preserveAspectRatio="none" style="width:703px;height:632px;background:#FFFFFF;" version="1.1" viewBox="0 0 703 632" width="703px" zoomAndPan="magnify"><defs/><g><!--class Examen--><g class="entity" data-entity="Examen" data-source-line="1" data-uid="ent0002" id="entity_Examen"><rect fill="#F1F1F1" height="80.5938" rx="2.5" ry="2.5" style="stroke:#181818;stroke-width:0.5;" width="140.625" x="285.5" y="181"/><ellipse cx="323.806" cy="197" fill="#ADD1B2" rx="11" ry="11" style="stroke:#181818;stroke-width:1;"/><path d="M326.7747,202.6406 Q326.1966,202.9375 325.556,203.0781 Q324.9153,203.2344 324.2122,203.2344 Q321.7122,203.2344 320.3841,201.5938 Q319.0716,199.9375 319.0716,196.8125 Q319.0716,193.6875 320.3841,192.0313 Q321.7122,190.375 324.2122,190.375 Q324.9153,190.375 325.556,190.5313 Q326.2122,190.6875 326.7747,190.9844 L326.7747,193.7031 Q326.1497,193.125 325.556,192.8594 Q324.9622,192.5781 324.3372,192.5781 Q322.9935,192.5781 322.306,193.6563 Q321.6185,194.7188 321.6185,196.8125 Q321.6185,198.9063 322.306,199.9844 Q322.9935,201.0469 324.3372,201.0469 Q324.9622,201.0469 325.556,200.7813 Q326.1497,200.5 326.7747,199.9219 L326.7747,202.6406 Z " fill="#000000"/><text fill="#000000" font-family="sans-serif" font-size="14" lengthAdjust="spacing" textLength="56.834" x="342.9851" y="201.8467">Examen</text><line style="stroke:#181818;stroke-width:0.5;" x1="286.5" x2="425.125" y1="213" y2="213"/><rect fill="none" height="6" style="stroke:#C82930;stroke-width:1;" width="6" x="293.5" y="223.6484"/><text fill="#000000" font-family="sans-serif" font-size="14" lengthAdjust="spacing" textLength="75.8447" x="305.5" y="229.9951">evaluaci&#243;n</text><rect fill="none" height="6" style="stroke:#C82930;stroke-width:1;" width="6" x="293.5" y="239.9453"/><text fill="#000000" font-family="sans-serif" font-size="14" lengthAdjust="spacing" textLength="114.625" x="305.5" y="246.292">clave correcci&#243;n</text><line style="stroke:#181818;stroke-width:0.5;" x1="286.5" x2="425.125" y1="253.5938" y2="253.5938"/></g><!--class Asignatura--><g class="entity" data-entity="Asignatura" data-source-line="5" data-uid="ent0003" id="entity_Asignatura"><rect fill="#F1F1F1" height="96.8906" rx="2.5" ry="2.5" style="stroke:#181818;stroke-width:0.5;" width="144.7813" x="165.5" y="7"/><ellipse cx="197.143" cy="23" fill="#ADD1B2" rx="11" ry="11" style="stroke:#181818;stroke-width:1;"/><path d="M200.1117,28.6406 Q199.5336,28.9375 198.893,29.0781 Q198.2523,29.2344 197.5492,29.2344 Q195.0492,29.2344 193.7211,27.5938 Q192.4086,25.9375 192.4086,22.8125 Q192.4086,19.6875 193.7211,18.0313 Q195.0492,16.375 197.5492,16.375 Q198.2523,16.375 198.893,16.5313 Q199.5492,16.6875 200.1117,16.9844 L200.1117,19.7031 Q199.4867,19.125 198.893,18.8594 Q198.2992,18.5781 197.6742,18.5781 Q196.3305,18.5781 195.643,19.6563 Q194.9555,20.7188 194.9555,22.8125 Q194.9555,24.9063 195.643,25.9844 Q196.3305,27.0469 197.6742,27.0469 Q198.2992,27.0469 198.893,26.7813 Q199.4867,26.5 200.1117,25.9219 L200.1117,28.6406 Z " fill="#000000"/><text fill="#000000" font-family="sans-serif" font-size="14" lengthAdjust="spacing" textLength="75.7969" x="214.8414" y="27.8467">Asignatura</text><line style="stroke:#181818;stroke-width:0.5;" x1="166.5" x2="309.2813" y1="39" y2="39"/><rect fill="none" height="6" style="stroke:#C82930;stroke-width:1;" width="6" x="173.5" y="49.6484"/><text fill="#000000" font-family="sans-serif" font-size="14" lengthAdjust="spacing" textLength="36.1963" x="185.5" y="55.9951">t&#237;tulo</text><rect fill="none" height="6" style="stroke:#C82930;stroke-width:1;" width="6" x="173.5" y="65.9453"/><text fill="#000000" font-family="sans-serif" font-size="14" lengthAdjust="spacing" textLength="46.4912" x="185.5" y="72.292">c&#243;digo</text><rect fill="none" height="6" style="stroke:#C82930;stroke-width:1;" width="6" x="173.5" y="82.2422"/><text fill="#000000" font-family="sans-serif" font-size="14" lengthAdjust="spacing" textLength="118.7813" x="185.5" y="88.5889">curso acad&#233;mico</text><line style="stroke:#181818;stroke-width:0.5;" x1="166.5" x2="309.2813" y1="95.8906" y2="95.8906"/></g><!--class Pregunta--><g class="entity" data-entity="Pregunta" data-source-line="10" data-uid="ent0004" id="entity_Pregunta"><rect fill="#F1F1F1" height="113.1875" rx="2.5" ry="2.5" style="stroke:#181818;stroke-width:0.5;" width="100.7988" x="487.5" y="347"/><ellipse cx="504.8788" cy="363" fill="#ADD1B2" rx="11" ry="11" style="stroke:#181818;stroke-width:1;"/><path d="M507.8475,368.6406 Q507.2694,368.9375 506.6288,369.0781 Q505.9881,369.2344 505.285,369.2344 Q502.785,369.2344 501.4569,367.5938 Q500.1444,365.9375 500.1444,362.8125 Q500.1444,359.6875 501.4569,358.0313 Q502.785,356.375 505.285,356.375 Q505.9881,356.375 506.6288,356.5313 Q507.285,356.6875 507.8475,356.9844 L507.8475,359.7031 Q507.2225,359.125 506.6288,358.8594 Q506.035,358.5781 505.41,358.5781 Q504.0663,358.5781 503.3788,359.6563 Q502.6913,360.7188 502.6913,362.8125 Q502.6913,364.9063 503.3788,365.9844 Q504.0663,367.0469 505.41,367.0469 Q506.035,367.0469 506.6288,366.7813 Q507.2225,366.5 507.8475,365.9219 L507.8475,368.6406 Z " fill="#000000"/><text fill="#000000" font-family="sans-serif" font-size="14" lengthAdjust="spacing" textLength="63.5127" x="519.4074" y="367.8467">Pregunta</text><line style="stroke:#181818;stroke-width:0.5;" x1="488.5" x2="587.2988" y1="379" y2="379"/><rect fill="none" height="6" style="stroke:#C82930;stroke-width:1;" width="6" x="495.5" y="389.6484"/><text fill="#000000" font-family="sans-serif" font-size="14" lengthAdjust="spacing" textLength="74.7988" x="507.5" y="395.9951">asignatura</text><rect fill="none" height="6" style="stroke:#C82930;stroke-width:1;" width="6" x="495.5" y="405.9453"/><text fill="#000000" font-family="sans-serif" font-size="14" lengthAdjust="spacing" textLength="72.8506" x="507.5" y="412.292">enunciado</text><rect fill="none" height="6" style="stroke:#C82930;stroke-width:1;" width="6" x="495.5" y="422.2422"/><text fill="#000000" font-family="sans-serif" font-size="14" lengthAdjust="spacing" textLength="36.3193" x="507.5" y="428.5889">tema</text><rect fill="none" height="6" style="stroke:#C82930;stroke-width:1;" width="6" x="495.5" y="438.5391"/><text fill="#000000" font-family="sans-serif" font-size="14" lengthAdjust="spacing" textLength="65.0098" x="507.5" y="444.8857">dificultad</text><line style="stroke:#181818;stroke-width:0.5;" x1="488.5" x2="587.2988" y1="452.1875" y2="452.1875"/></g><!--class BateriaDePreguntas--><g class="entity" data-entity="BateriaDePreguntas" data-source-line="16" data-uid="ent0005" id="entity_BateriaDePreguntas"><rect fill="#F1F1F1" height="48" rx="2.5" ry="2.5" style="stroke:#181818;stroke-width:0.5;" width="172.7109" x="461.5" y="197.5"/><ellipse cx="476.5" cy="213.5" fill="#ADD1B2" rx="11" ry="11" style="stroke:#181818;stroke-width:1;"/><path d="M479.4688,219.1406 Q478.8906,219.4375 478.25,219.5781 Q477.6094,219.7344 476.9063,219.7344 Q474.4063,219.7344 473.0781,218.0938 Q471.7656,216.4375 471.7656,213.3125 Q471.7656,210.1875 473.0781,208.5313 Q474.4063,206.875 476.9063,206.875 Q477.6094,206.875 478.25,207.0313 Q478.9063,207.1875 479.4688,207.4844 L479.4688,210.2031 Q478.8438,209.625 478.25,209.3594 Q477.6563,209.0781 477.0313,209.0781 Q475.6875,209.0781 475,210.1563 Q474.3125,211.2188 474.3125,213.3125 Q474.3125,215.4063 475,216.4844 Q475.6875,217.5469 477.0313,217.5469 Q477.6563,217.5469 478.25,217.2813 Q478.8438,217 479.4688,216.4219 L479.4688,219.1406 Z " fill="#000000"/><text fill="#000000" font-family="sans-serif" font-size="14" lengthAdjust="spacing" textLength="140.7109" x="490.5" y="218.3467">BateriaDePreguntas</text><line style="stroke:#181818;stroke-width:0.5;" x1="462.5" x2="633.2109" y1="229.5" y2="229.5"/><line style="stroke:#181818;stroke-width:0.5;" x1="462.5" x2="633.2109" y1="237.5" y2="237.5"/></g><!--class Grado--><g class="entity" data-entity="Grado" data-source-line="18" data-uid="ent0006" id="entity_Grado"><rect fill="#F1F1F1" height="80.5938" rx="2.5" ry="2.5" style="stroke:#181818;stroke-width:0.5;" width="74.6357" x="33.5" y="181"/><ellipse cx="48.5" cy="197" fill="#ADD1B2" rx="11" ry="11" style="stroke:#181818;stroke-width:1;"/><path d="M51.4688,202.6406 Q50.8906,202.9375 50.25,203.0781 Q49.6094,203.2344 48.9063,203.2344 Q46.4063,203.2344 45.0781,201.5938 Q43.7656,199.9375 43.7656,196.8125 Q43.7656,193.6875 45.0781,192.0313 Q46.4063,190.375 48.9063,190.375 Q49.6094,190.375 50.25,190.5313 Q50.9063,190.6875 51.4688,190.9844 L51.4688,193.7031 Q50.8438,193.125 50.25,192.8594 Q49.6563,192.5781 49.0313,192.5781 Q47.6875,192.5781 47,193.6563 Q46.3125,194.7188 46.3125,196.8125 Q46.3125,198.9063 47,199.9844 Q47.6875,201.0469 49.0313,201.0469 Q49.6563,201.0469 50.25,200.7813 Q50.8438,200.5 51.4688,199.9219 L51.4688,202.6406 Z " fill="#000000"/><text fill="#000000" font-family="sans-serif" font-size="14" lengthAdjust="spacing" textLength="42.6357" x="62.5" y="201.8467">Grado</text><line style="stroke:#181818;stroke-width:0.5;" x1="34.5" x2="107.1357" y1="213" y2="213"/><rect fill="none" height="6" style="stroke:#C82930;stroke-width:1;" width="6" x="41.5" y="223.6484"/><text fill="#000000" font-family="sans-serif" font-size="14" lengthAdjust="spacing" textLength="36.1963" x="53.5" y="229.9951">t&#237;tulo</text><rect fill="none" height="6" style="stroke:#C82930;stroke-width:1;" width="6" x="41.5" y="239.9453"/><text fill="#000000" font-family="sans-serif" font-size="14" lengthAdjust="spacing" textLength="46.4912" x="53.5" y="246.292">c&#243;digo</text><line style="stroke:#181818;stroke-width:0.5;" x1="34.5" x2="107.1357" y1="253.5938" y2="253.5938"/></g><!--class Profesor--><g class="entity" data-entity="Profesor" data-source-line="22" data-uid="ent0007" id="entity_Profesor"><rect fill="#F1F1F1" height="96.8906" rx="2.5" ry="2.5" style="stroke:#181818;stroke-width:0.5;" width="89.9209" x="7" y="7"/><ellipse cx="22" cy="23" fill="#ADD1B2" rx="11" ry="11" style="stroke:#181818;stroke-width:1;"/><path d="M24.9688,28.6406 Q24.3906,28.9375 23.75,29.0781 Q23.1094,29.2344 22.4063,29.2344 Q19.9063,29.2344 18.5781,27.5938 Q17.2656,25.9375 17.2656,22.8125 Q17.2656,19.6875 18.5781,18.0313 Q19.9063,16.375 22.4063,16.375 Q23.1094,16.375 23.75,16.5313 Q24.4063,16.6875 24.9688,16.9844 L24.9688,19.7031 Q24.3438,19.125 23.75,18.8594 Q23.1563,18.5781 22.5313,18.5781 Q21.1875,18.5781 20.5,19.6563 Q19.8125,20.7188 19.8125,22.8125 Q19.8125,24.9063 20.5,25.9844 Q21.1875,27.0469 22.5313,27.0469 Q23.1563,27.0469 23.75,26.7813 Q24.3438,26.5 24.9688,25.9219 L24.9688,28.6406 Z " fill="#000000"/><text fill="#000000" font-family="sans-serif" font-size="14" lengthAdjust="spacing" textLength="57.9209" x="36" y="27.8467">Profesor</text><line style="stroke:#181818;stroke-width:0.5;" x1="8" x2="95.9209" y1="39" y2="39"/><rect fill="none" height="6" style="stroke:#C82930;stroke-width:1;" width="6" x="15" y="49.6484"/><text fill="#000000" font-family="sans-serif" font-size="14" lengthAdjust="spacing" textLength="54.332" x="27" y="55.9951">nombre</text><rect fill="none" height="6" style="stroke:#C82930;stroke-width:1;" width="6" x="15" y="65.9453"/><text fill="#000000" font-family="sans-serif" font-size="14" lengthAdjust="spacing" textLength="62.4941" x="27" y="72.292">apellidos</text><rect fill="none" height="6" style="stroke:#C82930;stroke-width:1;" width="6" x="15" y="82.2422"/><text fill="#000000" font-family="sans-serif" font-size="14" lengthAdjust="spacing" textLength="25.3818" x="27" y="88.5889">DNI</text><line style="stroke:#181818;stroke-width:0.5;" x1="8" x2="95.9209" y1="95.8906" y2="95.8906"/></g><!--class Alumno--><g class="entity" data-entity="Alumno" data-source-line="27" data-uid="ent0008" id="entity_Alumno"><rect fill="#F1F1F1" height="96.8906" rx="2.5" ry="2.5" style="stroke:#181818;stroke-width:0.5;" width="88.4941" x="135" y="355"/><ellipse cx="151.3852" cy="371" fill="#ADD1B2" rx="11" ry="11" style="stroke:#181818;stroke-width:1;"/><path d="M154.3539,376.6406 Q153.7758,376.9375 153.1352,377.0781 Q152.4945,377.2344 151.7914,377.2344 Q149.2914,377.2344 147.9633,375.5938 Q146.6508,373.9375 146.6508,370.8125 Q146.6508,367.6875 147.9633,366.0313 Q149.2914,364.375 151.7914,364.375 Q152.4945,364.375 153.1352,364.5313 Q153.7914,364.6875 154.3539,364.9844 L154.3539,367.7031 Q153.7289,367.125 153.1352,366.8594 Q152.5414,366.5781 151.9164,366.5781 Q150.5727,366.5781 149.8852,367.6563 Q149.1977,368.7188 149.1977,370.8125 Q149.1977,372.9063 149.8852,373.9844 Q150.5727,375.0469 151.9164,375.0469 Q152.5414,375.0469 153.1352,374.7813 Q153.7289,374.5 154.3539,373.9219 L154.3539,376.6406 Z " fill="#000000"/><text fill="#000000" font-family="sans-serif" font-size="14" lengthAdjust="spacing" textLength="53.416" x="165.693" y="375.8467">Alumno</text><line style="stroke:#181818;stroke-width:0.5;" x1="136" x2="222.4941" y1="387" y2="387"/><rect fill="none" height="6" style="stroke:#C82930;stroke-width:1;" width="6" x="143" y="397.6484"/><text fill="#000000" font-family="sans-serif" font-size="14" lengthAdjust="spacing" textLength="54.332" x="155" y="403.9951">nombre</text><rect fill="none" height="6" style="stroke:#C82930;stroke-width:1;" width="6" x="143" y="413.9453"/><text fill="#000000" font-family="sans-serif" font-size="14" lengthAdjust="spacing" textLength="62.4941" x="155" y="420.292">apellidos</text><rect fill="none" height="6" style="stroke:#C82930;stroke-width:1;" width="6" x="143" y="430.2422"/><text fill="#000000" font-family="sans-serif" font-size="14" lengthAdjust="spacing" textLength="25.3818" x="155" y="436.5889">DNI</text><line style="stroke:#181818;stroke-width:0.5;" x1="136" x2="222.4941" y1="443.8906" y2="443.8906"/></g><!--class Evaluaci?nExamen--><g class="entity" data-entity="Evaluaci.nExamen" data-source-line="32" data-uid="ent0009" id="entity_Evaluaci.nExamen"><rect fill="#F1F1F1" height="129.4844" rx="2.5" ry="2.5" style="stroke:#181818;stroke-width:0.5;" width="186.7676" x="262.5" y="339"/><ellipse cx="287.3354" cy="355" fill="#EB937F" rx="11" ry="11" style="stroke:#181818;stroke-width:1;"/><path d="M291.4448,361 L283.726,361 L283.726,348.6094 L291.4448,348.6094 L291.4448,350.7656 L286.1792,350.7656 L286.1792,353.4375 L290.9448,353.4375 L290.9448,355.5938 L286.1792,355.5938 L286.1792,358.8438 L291.4448,358.8438 L291.4448,361 Z " fill="#000000"/><text fill="#000000" font-family="sans-serif" font-size="14" lengthAdjust="spacing" textLength="132.9111" x="303.521" y="359.8467">Evaluaci&#243;nExamen</text><line style="stroke:#181818;stroke-width:0.5;" x1="263.5" x2="448.2676" y1="371" y2="371"/><rect fill="none" height="6" style="stroke:#C82930;stroke-width:1;" width="6" x="270.5" y="381.6484"/><text fill="#000000" font-family="sans-serif" font-size="14" lengthAdjust="spacing" textLength="60.1904" x="282.5" y="387.9951">Parcial 1</text><rect fill="none" height="6" style="stroke:#C82930;stroke-width:1;" width="6" x="270.5" y="397.9453"/><text fill="#000000" font-family="sans-serif" font-size="14" lengthAdjust="spacing" textLength="60.1904" x="282.5" y="404.292">Parcial 2</text><rect fill="none" height="6" style="stroke:#C82930;stroke-width:1;" width="6" x="270.5" y="414.2422"/><text fill="#000000" font-family="sans-serif" font-size="14" lengthAdjust="spacing" textLength="60.1904" x="282.5" y="420.5889">Parcial 3</text><rect fill="none" height="6" style="stroke:#C82930;stroke-width:1;" width="6" x="270.5" y="430.5391"/><text fill="#000000" font-family="sans-serif" font-size="14" lengthAdjust="spacing" textLength="91.4443" x="282.5" y="436.8857">Examen final</text><rect fill="none" height="6" style="stroke:#C82930;stroke-width:1;" width="6" x="270.5" y="446.8359"/><text fill="#000000" font-family="sans-serif" font-size="14" lengthAdjust="spacing" textLength="160.7676" x="282.5" y="453.1826">Examen extraordinario</text><line style="stroke:#181818;stroke-width:0.5;" x1="263.5" x2="448.2676" y1="460.4844" y2="460.4844"/></g><!--class DificultadPregunta--><g class="entity" data-entity="DificultadPregunta" data-source-line="39" data-uid="ent0010" id="entity_DificultadPregunta"><rect fill="#F1F1F1" height="96.8906" rx="2.5" ry="2.5" style="stroke:#181818;stroke-width:0.5;" width="162.416" x="288" y="529"/><ellipse cx="303" cy="545" fill="#EB937F" rx="11" ry="11" style="stroke:#181818;stroke-width:1;"/><path d="M307.1094,551 L299.3906,551 L299.3906,538.6094 L307.1094,538.6094 L307.1094,540.7656 L301.8438,540.7656 L301.8438,543.4375 L306.6094,543.4375 L306.6094,545.5938 L301.8438,545.5938 L301.8438,548.8438 L307.1094,548.8438 L307.1094,551 Z " fill="#000000"/><text fill="#000000" font-family="sans-serif" font-size="14" lengthAdjust="spacing" textLength="130.416" x="317" y="549.8467">DificultadPregunta</text><line style="stroke:#181818;stroke-width:0.5;" x1="289" x2="449.416" y1="561" y2="561"/><rect fill="none" height="6" style="stroke:#C82930;stroke-width:1;" width="6" x="296" y="571.6484"/><text fill="#000000" font-family="sans-serif" font-size="14" lengthAdjust="spacing" textLength="28.9844" x="308" y="577.9951">facil</text><rect fill="none" height="6" style="stroke:#C82930;stroke-width:1;" width="6" x="296" y="587.9453"/><text fill="#000000" font-family="sans-serif" font-size="14" lengthAdjust="spacing" textLength="43.5928" x="308" y="594.292">medio</text><rect fill="none" height="6" style="stroke:#C82930;stroke-width:1;" width="6" x="296" y="604.2422"/><text fill="#000000" font-family="sans-serif" font-size="14" lengthAdjust="spacing" textLength="37.0713" x="308" y="610.5889">dificil</text><line style="stroke:#181818;stroke-width:0.5;" x1="289" x2="449.416" y1="617.8906" y2="617.8906"/></g><!--class Respuesta--><g class="entity" data-entity="Respuesta" data-source-line="45" data-uid="ent0011" id="entity_Respuesta"><rect fill="#F1F1F1" height="80.5938" rx="2.5" ry="2.5" style="stroke:#181818;stroke-width:0.5;" width="105.3701" x="485.5" y="537"/><ellipse cx="500.5" cy="553" fill="#ADD1B2" rx="11" ry="11" style="stroke:#181818;stroke-width:1;"/><path d="M503.4688,558.6406 Q502.8906,558.9375 502.25,559.0781 Q501.6094,559.2344 500.9063,559.2344 Q498.4063,559.2344 497.0781,557.5938 Q495.7656,555.9375 495.7656,552.8125 Q495.7656,549.6875 497.0781,548.0313 Q498.4063,546.375 500.9063,546.375 Q501.6094,546.375 502.25,546.5313 Q502.9063,546.6875 503.4688,546.9844 L503.4688,549.7031 Q502.8438,549.125 502.25,548.8594 Q501.6563,548.5781 501.0313,548.5781 Q499.6875,548.5781 499,549.6563 Q498.3125,550.7188 498.3125,552.8125 Q498.3125,554.9063 499,555.9844 Q499.6875,557.0469 501.0313,557.0469 Q501.6563,557.0469 502.25,556.7813 Q502.8438,556.5 503.4688,555.9219 L503.4688,558.6406 Z " fill="#000000"/><text fill="#000000" font-family="sans-serif" font-size="14" lengthAdjust="spacing" textLength="73.3701" x="514.5" y="557.8467">Respuesta</text><line style="stroke:#181818;stroke-width:0.5;" x1="486.5" x2="589.8701" y1="569" y2="569"/><rect fill="none" height="6" style="stroke:#C82930;stroke-width:1;" width="6" x="493.5" y="579.6484"/><text fill="#000000" font-family="sans-serif" font-size="14" lengthAdjust="spacing" textLength="46.4775" x="505.5" y="585.9951">opci&#243;n</text><rect fill="none" height="6" style="stroke:#C82930;stroke-width:1;" width="6" x="493.5" y="595.9453"/><text fill="#000000" font-family="sans-serif" font-size="14" lengthAdjust="spacing" textLength="76.1387" x="505.5" y="602.292">esCorrecta</text><line style="stroke:#181818;stroke-width:0.5;" x1="486.5" x2="589.8701" y1="609.5938" y2="609.5938"/></g><!--class Tema--><g class="entity" data-entity="Tema" data-source-line="50" data-uid="ent0012" id="entity_Tema"><rect fill="#F1F1F1" height="48" rx="2.5" ry="2.5" style="stroke:#181818;stroke-width:0.5;" width="71.3818" x="625.5" y="553.5"/><ellipse cx="640.5" cy="569.5" fill="#EB937F" rx="11" ry="11" style="stroke:#181818;stroke-width:1;"/><path d="M644.6094,575.5 L636.8906,575.5 L636.8906,563.1094 L644.6094,563.1094 L644.6094,565.2656 L639.3438,565.2656 L639.3438,567.9375 L644.1094,567.9375 L644.1094,570.0938 L639.3438,570.0938 L639.3438,573.3438 L644.6094,573.3438 L644.6094,575.5 Z " fill="#000000"/><text fill="#000000" font-family="sans-serif" font-size="14" lengthAdjust="spacing" textLength="39.3818" x="654.5" y="574.3467">Tema</text><line style="stroke:#181818;stroke-width:0.5;" x1="626.5" x2="695.8818" y1="585.5" y2="585.5"/><line style="stroke:#181818;stroke-width:0.5;" x1="626.5" x2="695.8818" y1="593.5" y2="593.5"/></g><!--reverse link Pregunta to Respuesta--><g class="link" data-entity-1="Pregunta" data-entity-2="Respuesta" data-source-line="53" data-uid="lnk14" id="link_Pregunta_Respuesta"><path codeLine="53" d="M538,472.34 C538,497.36 538,514.27 538,536.99" fill="none" id="Pregunta-backto-Respuesta" style="stroke:#181818;stroke-width:1;"/><polygon fill="#181818" points="538,460.34,534,466.34,538,472.34,542,466.34,538,460.34" style="stroke:#181818;stroke-width:1;"/></g><!--link Pregunta to DificultadPregunta--><g class="link" data-entity-1="Pregunta" data-entity-2="DificultadPregunta" data-source-line="54" data-uid="lnk15" id="link_Pregunta_DificultadPregunta"><path codeLine="54" d="M487.29,456.11 C464.64,479.16 442.3155,501.8906 420.1255,524.4706" fill="none" id="Pregunta-to-DificultadPregunta" style="stroke:#181818;stroke-width:1;stroke-dasharray:7,7;"/><polygon fill="#181818" points="415.92,528.75,425.0812,525.1345,419.4246,525.1838,419.3753,519.5272,415.92,528.75" style="stroke:#181818;stroke-width:1;"/></g><!--reverse link Examen to Pregunta--><g class="link" data-entity-1="Examen" data-entity-2="Pregunta" data-source-line="55" data-uid="lnk17" id="link_Examen_Pregunta"><path codeLine="55" d="M404.4712,270.4392 C431.3612,297.0392 458.52,323.89 487.4,352.45" fill="none" id="Examen-backto-Pregunta" style="stroke:#181818;stroke-width:1;"/><polygon fill="none" points="395.94,262,397.3925,269.0633,404.4712,270.4392,403.0186,263.3759,395.94,262" style="stroke:#181818;stroke-width:1;"/><text fill="#000000" font-family="sans-serif" font-size="13" lengthAdjust="spacing" textLength="56.2847" x="442" y="305.0669">contiene</text></g><!--reverse link BateriaDePreguntas to Pregunta--><g class="link" data-entity-1="BateriaDePreguntas" data-entity-2="Pregunta" data-source-line="56" data-uid="lnk19" id="link_BateriaDePreguntas_Pregunta"><path codeLine="56" d="M546.0462,257.6416 C544.6362,283.0916 542.98,312.89 541.09,346.93" fill="none" id="BateriaDePreguntas-backto-Pregunta" style="stroke:#181818;stroke-width:1;"/><polygon fill="#181818" points="546.71,245.66,542.3842,251.4295,546.0462,257.6416,550.372,251.8721,546.71,245.66" style="stroke:#181818;stroke-width:1;"/><text fill="#000000" font-family="sans-serif" font-size="13" lengthAdjust="spacing" textLength="56.2847" x="544" y="305.0669">contiene</text></g><!--link Examen to Evaluaci?nExamen--><g class="link" data-entity-1="Examen" data-entity-2="Evaluaci.nExamen" data-source-line="57" data-uid="lnk20" id="link_Examen_Evaluaci.nExamen"><path codeLine="57" d="M356,262 C356,284.46 356,307.12 356,332.69" fill="none" id="Examen-to-Evaluaci&#243;nExamen" style="stroke:#181818;stroke-width:1;stroke-dasharray:7,7;"/><polygon fill="#181818" points="356,338.69,360,329.69,356,333.69,352,329.69,356,338.69" style="stroke:#181818;stroke-width:1;"/></g><!--reverse link Asignatura to BateriaDePreguntas--><g class="link" data-entity-1="Asignatura" data-entity-2="BateriaDePreguntas" data-source-line="58" data-uid="lnk22" id="link_Asignatura_BateriaDePreguntas"><path codeLine="58" d="M321.2872,100.5614 C381.4172,132.3714 454.23,170.89 504.47,197.47" fill="none" id="Asignatura-backto-BateriaDePreguntas" style="stroke:#181818;stroke-width:1;"/><polygon fill="#181818" points="310.68,94.95,314.1131,101.2914,321.2872,100.5614,317.8541,94.22,310.68,94.95" style="stroke:#181818;stroke-width:1;"/><text fill="#000000" font-family="sans-serif" font-size="13" lengthAdjust="spacing" textLength="32.9443" x="412" y="147.0669">tiene</text></g><!--reverse link Asignatura to Examen--><g class="link" data-entity-1="Asignatura" data-entity-2="Examen" data-source-line="59" data-uid="lnk24" id="link_Asignatura_Examen"><path codeLine="59" d="M279.4593,114.1201 C296.9393,138.4101 310.91,157.84 327.48,180.86" fill="none" id="Asignatura-backto-Examen" style="stroke:#181818;stroke-width:1;"/><polygon fill="#181818" points="272.45,104.38,272.708,111.5865,279.4593,114.1201,279.2014,106.9136,272.45,104.38" style="stroke:#181818;stroke-width:1;"/><text fill="#000000" font-family="sans-serif" font-size="13" lengthAdjust="spacing" textLength="32.9443" x="305" y="147.0669">tiene</text></g><!--reverse link Profesor to Asignatura--><g class="link" data-entity-1="Profesor" data-entity-2="Asignatura" data-source-line="60" data-uid="lnk25" id="link_Profesor_Asignatura"><path codeLine="60" d="M109.03,55.5 C129.56,55.5 142.39,55.5 165.46,55.5" fill="none" id="Profesor-backto-Asignatura" style="stroke:#181818;stroke-width:1;"/><polygon fill="none" points="97.03,55.5,103.03,59.5,109.03,55.5,103.03,51.5,97.03,55.5" style="stroke:#181818;stroke-width:1;"/><text fill="#000000" font-family="sans-serif" font-size="13" lengthAdjust="spacing" textLength="32.9443" x="115.25" y="48.5669">tiene</text></g><!--link Asignatura to Grado--><g class="link" data-entity-1="Asignatura" data-entity-2="Grado" data-source-line="61" data-uid="lnk26" id="link_Asignatura_Grado"><path codeLine="61" d="M165.12,77.24 C135.86,89.2 104.5,107.32 85,134 C75.21,147.39 71.7286,159.0816 70.3786,174.9516" fill="none" id="Asignatura-to-Grado" style="stroke:#181818;stroke-width:1;"/><polygon fill="#181818" points="69.87,180.93,74.6184,172.3014,70.2938,175.948,66.6472,171.6233,69.87,180.93" style="stroke:#181818;stroke-width:1;"/><text fill="#000000" font-family="sans-serif" font-size="13" lengthAdjust="spacing" textLength="66.0728" x="86" y="147.0669">pertenece</text></g><!--reverse link Examen to Alumno--><g class="link" data-entity-1="Examen" data-entity-2="Alumno" data-source-line="62" data-uid="lnk28" id="link_Examen_Alumno"><path codeLine="62" d="M308.7462,270.5562 C280.9662,298.8062 251.94,328.32 223.05,357.71" fill="none" id="Examen-backto-Alumno" style="stroke:#181818;stroke-width:1;"/><polygon fill="none" points="317.16,262,310.101,263.4735,308.7462,270.5562,315.8051,269.0827,317.16,262" style="stroke:#181818;stroke-width:1;"/><text fill="#000000" font-family="sans-serif" font-size="13" lengthAdjust="spacing" textLength="43.3228" x="284" y="305.0669">realiza</text></g><!--reverse link Asignatura to Alumno--><g class="link" data-entity-1="Asignatura" data-entity-2="Alumno" data-source-line="63" data-uid="lnk30" id="link_Asignatura_Alumno"><path codeLine="63" d="M215.2802,115.5596 C207.1002,138.4396 202.23,155.13 197,181 C185.03,240.18 180.97,309.78 179.62,354.95" fill="none" id="Asignatura-backto-Alumno" style="stroke:#181818;stroke-width:1;"/><polygon fill="#181818" points="219.32,104.26,213.5336,108.5632,215.2802,115.5596,221.0666,111.2564,219.32,104.26" style="stroke:#181818;stroke-width:1;"/><text fill="#000000" font-family="sans-serif" font-size="13" lengthAdjust="spacing" textLength="69.8369" x="198" y="226.0669">se imparte</text></g><!--reverse link Grado to Alumno--><g class="link" data-entity-1="Grado" data-entity-2="Alumno" data-source-line="64" data-uid="lnk32" id="link_Grado_Alumno"><path codeLine="64" d="M82.2419,273.8422 C86.3119,289.0522 89.02,294.6 97,309 C107.05,327.13 121.09,344.81 134.72,359.83" fill="none" id="Grado-backto-Alumno" style="stroke:#181818;stroke-width:1;"/><polygon fill="#181818" points="79.14,262.25,76.8269,269.0801,82.2419,273.8422,84.555,267.0121,79.14,262.25" style="stroke:#181818;stroke-width:1;"/><text fill="#000000" font-family="sans-serif" font-size="13" lengthAdjust="spacing" textLength="54.374" x="98" y="305.0669">se cursa</text></g><!--link Pregunta to Tema--><g class="link" data-entity-1="Pregunta" data-entity-2="Tema" data-source-line="65" data-uid="lnk33" id="link_Pregunta_Tema"><path codeLine="65" d="M577.93,460.34 C600.52,491.93 624.0596,524.8497 641.0096,548.5497" fill="none" id="Pregunta-to-Tema" style="stroke:#181818;stroke-width:1;stroke-dasharray:7,7;"/><polygon fill="#181818" points="644.5,553.43,642.518,543.7826,641.5914,549.3631,636.0109,548.4364,644.5,553.43" style="stroke:#181818;stroke-width:1;"/></g><!--SRC=[XLDBJiCm4Dtd55vNIYLWnw8IK8JOe0fnWS6PL9RyYSPsLL7rG2nOzGYv6BRJE4b9nSupRzwRhxa4Qzdp7XJgGy5AXZkG7hXeJpgQNC8E6JT4o3ldiU29ys35LeFp18ddsX_dfKcSzbI9RVVqP0q33bNxhGGtcRqXt7hjEYvagLI1zfeBg9A0GvMSbQW5zz91bIKUmI49M6ElPGyPUw70lrRNK8EfqHfASTgeJy9KJODIYihOQApVNeUEfLVQ_1yT6b3iUPZZQBeReD2QP3TZutPit4MZOx1QQ90Z6_UEm50Lt2HCdscTHpCPQXsI9xB2IfWym-0x5kU6tj4s7ksPO9gyTRHFQUCEOd3AyX4M4UTRP18hVRd8Yopw1rikLpCr3NYWcRwZ-t1QsWdKEC4NCyiTnvxPCTEVEHSpr2Gv76oGckXSW_i3OQQaSYvWv2hBLNTr0MoGN81v24WdSz4o8KZn1IFm8hj59bG3GMGIqyi7EFwhYv771Vq2]--></g></svg>