<?plantuml 1.2026.2?><svg xmlns="http://www.w3.org/2000/svg" xmlns:xlink="http://www.w3.org/1999/xlink" contentStyleType="text/css" data-diagram-type="SEQUENCE" height="884px" preserveAspectRatio="none" style="width:2393px;height:884px;background:#FFFFFF;" version="1.1" viewBox="0 0 2393 884" width="2393px" zoomAndPan="magnify"><title>Diagrama de Secuencia - Crear Docente (Spring Boot + React)</title><defs/><g><text fill="#000000" font-family="sans-serif" font-size="14" font-weight="bold" lengthAdjust="spacing" textLength="491.1689" x="952.428" y="27.9951">Diagrama de Secuencia - Crear Docente (Spring Boot + React)</text><g><title>Frontend .React.</title><rect fill="#FFFFFF" height="546.2578" style="stroke:#181818;stroke-width:1;" width="10" x="580.7822" y="149.7266"/></g><g><title>DocentesController</title><rect fill="#FFFFFF" height="288.1953" style="stroke:#181818;stroke-width:1;" width="10" x="923.7988" y="294.3906"/></g><g><title>UsuarioService</title><rect fill="#FFFFFF" height="229.9297" style="stroke:#181818;stroke-width:1;" width="10" x="1170.9805" y="323.5234"/></g><g><title>UsuarioRepository</title><rect fill="#FFFFFF" height="87.3984" style="stroke:#181818;stroke-width:1;" width="10" x="1465.3994" y="394.7891"/></g><g><title>Base de Datos .PostgreSQL.</title><rect fill="#FFFFFF" height="29.1328" style="stroke:#181818;stroke-width:1;" width="10" x="2285.3618" y="423.9219"/></g><rect fill="none" height="75.3984" style="stroke:#000000;stroke-width:1.5;" width="1003.3481" x="10" y="710.9844"/><g class="participant-lifeline" data-entity-uid="part1" data-qualified-name="Admin" id="part1-lifeline"><g><title>Administrador Institucional</title><rect fill="#000000" fill-opacity="0.00000" height="684.7891" width="8" x="113.5308" y="118.5938"/><line style="stroke:#181818;stroke-width:0.5;stroke-dasharray:5,5;" x1="117" x2="117" y1="118.5938" y2="803.3828"/></g></g><g class="participant-lifeline" data-entity-uid="part2" data-qualified-name="FE" id="part2-lifeline"><g><title>Frontend .React.</title><rect fill="#000000" fill-opacity="0.00000" height="684.7891" width="8" x="581.7822" y="118.5938"/><line style="stroke:#181818;stroke-width:0.5;stroke-dasharray:5,5;" x1="585.4873" x2="585.4873" y1="118.5938" y2="803.3828"/></g></g><g class="participant-lifeline" data-entity-uid="part3" data-qualified-name="Controller" id="part3-lifeline"><g><title>DocentesController</title><rect fill="#000000" fill-opacity="0.00000" height="684.7891" width="8" x="924.7988" y="118.5938"/><line style="stroke:#181818;stroke-width:0.5;stroke-dasharray:5,5;" x1="928.2495" x2="928.2495" y1="118.5938" y2="803.3828"/></g></g><g class="participant-lifeline" data-entity-uid="part4" data-qualified-name="Service" id="part4-lifeline"><g><title>UsuarioService</title><rect fill="#000000" fill-opacity="0.00000" height="684.7891" width="8" x="1171.9805" y="118.5938"/><line style="stroke:#181818;stroke-width:0.5;stroke-dasharray:5,5;" x1="1175.5078" x2="1175.5078" y1="118.5938" y2="803.3828"/></g></g><g class="participant-lifeline" data-entity-uid="part5" data-qualified-name="Repo" id="part5-lifeline"><g><title>UsuarioRepository</title><rect fill="#000000" fill-opacity="0.00000" height="684.7891" width="8" x="1466.3994" y="118.5938"/><line style="stroke:#181818;stroke-width:0.5;stroke-dasharray:5,5;" x1="1470.2612" x2="1470.2612" y1="118.5938" y2="803.3828"/></g></g><g class="participant-lifeline" data-entity-uid="part6" data-qualified-name="DB" id="part6-lifeline"><g><title>Base de Datos .PostgreSQL.</title><rect fill="#000000" fill-opacity="0.00000" height="684.7891" width="8" x="2286.3618" y="118.5938"/><line style="stroke:#181818;stroke-width:0.5;stroke-dasharray:5,5;" x1="2289.6987" x2="2289.6987" y1="118.5938" y2="803.3828"/></g></g><g class="participant participant-head" data-entity-uid="part1" data-qualified-name="Admin" id="part1-head"><text fill="#000000" font-family="sans-serif" font-size="14" lengthAdjust="spacing" textLength="189.0615" x="20" y="115.292">Administrador Institucional</text><ellipse cx="117.5308" cy="50.7969" fill="#E2E2F0" rx="8" ry="8" style="stroke:#181818;stroke-width:0.5;"/><path d="M117.5308,58.7969 L117.5308,85.7969 M104.5308,66.7969 L130.5308,66.7969 M117.5308,85.7969 L104.5308,100.7969 M117.5308,85.7969 L130.5308,100.7969" fill="none" style="stroke:#181818;stroke-width:0.5;"/></g><g class="participant participant-tail" data-entity-uid="part1" data-qualified-name="Admin" id="part1-tail"><text fill="#000000" font-family="sans-serif" font-size="14" lengthAdjust="spacing" textLength="189.0615" x="20" y="815.3779">Administrador Institucional</text><ellipse cx="117.5308" cy="827.1797" fill="#E2E2F0" rx="8" ry="8" style="stroke:#181818;stroke-width:0.5;"/><path d="M117.5308,835.1797 L117.5308,862.1797 M104.5308,843.1797 L130.5308,843.1797 M117.5308,862.1797 L104.5308,877.1797 M117.5308,862.1797 L130.5308,877.1797" fill="none" style="stroke:#181818;stroke-width:0.5;"/></g><g class="participant participant-head" data-entity-uid="part2" data-qualified-name="FE" id="part2-head"><rect fill="#E2E2F0" height="30.2969" rx="2.5" ry="2.5" style="stroke:#181818;stroke-width:0.5;" width="132.5898" x="519.4873" y="87.2969"/><text fill="#000000" font-family="sans-serif" font-size="14" lengthAdjust="spacing" textLength="118.5898" x="526.4873" y="107.292">Frontend (React)</text></g><g class="participant participant-tail" data-entity-uid="part2" data-qualified-name="FE" id="part2-tail"><rect fill="#E2E2F0" height="30.2969" rx="2.5" ry="2.5" style="stroke:#181818;stroke-width:0.5;" width="132.5898" x="519.4873" y="802.3828"/><text fill="#000000" font-family="sans-serif" font-size="14" lengthAdjust="spacing" textLength="118.5898" x="526.4873" y="822.3779">Frontend (React)</text></g><g class="participant participant-head" data-entity-uid="part3" data-qualified-name="Controller" id="part3-head"><rect fill="#E2E2F0" height="30.2969" rx="2.5" ry="2.5" style="stroke:#181818;stroke-width:0.5;" width="149.0986" x="854.2495" y="87.2969"/><text fill="#000000" font-family="sans-serif" font-size="14" lengthAdjust="spacing" textLength="135.0986" x="861.2495" y="107.292">DocentesController</text></g><g class="participant participant-tail" data-entity-uid="part3" data-qualified-name="Controller" id="part3-tail"><rect fill="#E2E2F0" height="30.2969" rx="2.5" ry="2.5" style="stroke:#181818;stroke-width:0.5;" width="149.0986" x="854.2495" y="802.3828"/><text fill="#000000" font-family="sans-serif" font-size="14" lengthAdjust="spacing" textLength="135.0986" x="861.2495" y="822.3779">DocentesController</text></g><g class="participant participant-head" data-entity-uid="part4" data-qualified-name="Service" id="part4-head"><rect fill="#E2E2F0" height="30.2969" rx="2.5" ry="2.5" style="stroke:#181818;stroke-width:0.5;" width="118.9453" x="1116.5078" y="87.2969"/><text fill="#000000" font-family="sans-serif" font-size="14" lengthAdjust="spacing" textLength="104.9453" x="1123.5078" y="107.292">UsuarioService</text></g><g class="participant participant-tail" data-entity-uid="part4" data-qualified-name="Service" id="part4-tail"><rect fill="#E2E2F0" height="30.2969" rx="2.5" ry="2.5" style="stroke:#181818;stroke-width:0.5;" width="118.9453" x="1116.5078" y="802.3828"/><text fill="#000000" font-family="sans-serif" font-size="14" lengthAdjust="spacing" textLength="104.9453" x="1123.5078" y="822.3779">UsuarioService</text></g><g class="participant participant-head" data-entity-uid="part5" data-qualified-name="Repo" id="part5-head"><rect fill="#E2E2F0" height="30.2969" rx="2.5" ry="2.5" style="stroke:#181818;stroke-width:0.5;" width="142.2764" x="1399.2612" y="87.2969"/><text fill="#000000" font-family="sans-serif" font-size="14" lengthAdjust="spacing" textLength="128.2764" x="1406.2612" y="107.292">UsuarioRepository</text></g><g class="participant participant-tail" data-entity-uid="part5" data-qualified-name="Repo" id="part5-tail"><rect fill="#E2E2F0" height="30.2969" rx="2.5" ry="2.5" style="stroke:#181818;stroke-width:0.5;" width="142.2764" x="1399.2612" y="802.3828"/><text fill="#000000" font-family="sans-serif" font-size="14" lengthAdjust="spacing" textLength="128.2764" x="1406.2612" y="822.3779">UsuarioRepository</text></g><g class="participant participant-head" data-entity-uid="part6" data-qualified-name="DB" id="part6-head"><text fill="#000000" font-family="sans-serif" font-size="14" lengthAdjust="spacing" textLength="197.3262" x="2188.6987" y="115.292">Base de Datos (PostgreSQL)</text><path d="M2272.3618,66.2969 C2272.3618,56.2969 2290.3618,56.2969 2290.3618,56.2969 C2290.3618,56.2969 2308.3618,56.2969 2308.3618,66.2969 L2308.3618,92.2969 C2308.3618,102.2969 2290.3618,102.2969 2290.3618,102.2969 C2290.3618,102.2969 2272.3618,102.2969 2272.3618,92.2969 L2272.3618,66.2969" fill="#E2E2F0" style="stroke:#181818;stroke-width:0.5;"/><path d="M2272.3618,66.2969 C2272.3618,76.2969 2290.3618,76.2969 2290.3618,76.2969 C2290.3618,76.2969 2308.3618,76.2969 2308.3618,66.2969" fill="none" style="stroke:#181818;stroke-width:0.5;"/></g><g class="participant participant-tail" data-entity-uid="part6" data-qualified-name="DB" id="part6-tail"><text fill="#000000" font-family="sans-serif" font-size="14" lengthAdjust="spacing" textLength="197.3262" x="2188.6987" y="815.3779">Base de Datos (PostgreSQL)</text><path d="M2272.3618,828.6797 C2272.3618,818.6797 2290.3618,818.6797 2290.3618,818.6797 C2290.3618,818.6797 2308.3618,818.6797 2308.3618,828.6797 L2308.3618,854.6797 C2308.3618,864.6797 2290.3618,864.6797 2290.3618,864.6797 C2290.3618,864.6797 2272.3618,864.6797 2272.3618,854.6797 L2272.3618,828.6797" fill="#E2E2F0" style="stroke:#181818;stroke-width:0.5;"/><path d="M2272.3618,828.6797 C2272.3618,838.6797 2290.3618,838.6797 2290.3618,838.6797 C2290.3618,838.6797 2308.3618,838.6797 2308.3618,828.6797" fill="none" style="stroke:#181818;stroke-width:0.5;"/></g><g><title>Frontend .React.</title><rect fill="#FFFFFF" height="546.2578" style="stroke:#181818;stroke-width:1;" width="10" x="580.7822" y="149.7266"/></g><g><title>DocentesController</title><rect fill="#FFFFFF" height="288.1953" style="stroke:#181818;stroke-width:1;" width="10" x="923.7988" y="294.3906"/></g><g><title>UsuarioService</title><rect fill="#FFFFFF" height="229.9297" style="stroke:#181818;stroke-width:1;" width="10" x="1170.9805" y="323.5234"/></g><g><title>UsuarioRepository</title><rect fill="#FFFFFF" height="87.3984" style="stroke:#181818;stroke-width:1;" width="10" x="1465.3994" y="394.7891"/></g><g><title>Base de Datos .PostgreSQL.</title><rect fill="#FFFFFF" height="29.1328" style="stroke:#181818;stroke-width:1;" width="10" x="2285.3618" y="423.9219"/></g><g class="message" data-entity-1="part1" data-entity-2="part2" id="msg1"><polygon fill="#181818" points="568.7822,145.7266,578.7822,149.7266,568.7822,153.7266,572.7822,149.7266" style="stroke:#181818;stroke-width:1;"/><line style="stroke:#181818;stroke-width:1;" x1="117.5308" x2="574.7822" y1="149.7266" y2="149.7266"/><text fill="#000000" font-family="sans-serif" font-size="13" lengthAdjust="spacing" textLength="160.0942" x="124.5308" y="144.6606">Clic en "Nuevo Docente"</text></g><g class="message" data-entity-1="part2" data-entity-2="part1" id="msg2"><polygon fill="#181818" points="128.5308,174.8594,118.5308,178.8594,128.5308,182.8594,124.5308,178.8594" style="stroke:#181818;stroke-width:1;"/><line style="stroke:#181818;stroke-width:1;stroke-dasharray:2,2;" x1="122.5308" x2="579.7822" y1="178.8594" y2="178.8594"/><text fill="#000000" font-family="sans-serif" font-size="13" lengthAdjust="spacing" textLength="233.9619" x="134.5308" y="173.7935">Mostrar Formulario (datos m&#237;nimos)</text></g><g class="message" data-entity-1="part1" data-entity-2="part2" id="msg3"><polygon fill="#181818" points="568.7822,203.9922,578.7822,207.9922,568.7822,211.9922,572.7822,207.9922" style="stroke:#181818;stroke-width:1;"/><line style="stroke:#181818;stroke-width:1;" x1="117.5308" x2="574.7822" y1="207.9922" y2="207.9922"/><text fill="#000000" font-family="sans-serif" font-size="13" lengthAdjust="spacing" textLength="439.2515" x="124.5308" y="202.9263">Ingresa datos (nombre, apellidos, DNI, username, email, password)</text></g><g class="message" data-entity-1="part2" data-entity-2="part2" id="msg4"><line style="stroke:#181818;stroke-width:1;" x1="590.7822" x2="632.7822" y1="237.125" y2="237.125"/><line style="stroke:#181818;stroke-width:1;" x1="632.7822" x2="632.7822" y1="237.125" y2="250.125"/><line style="stroke:#181818;stroke-width:1;" x1="591.7822" x2="632.7822" y1="250.125" y2="250.125"/><polygon fill="#181818" points="601.7822,246.125,591.7822,250.125,601.7822,254.125,597.7822,250.125" style="stroke:#181818;stroke-width:1;"/><text fill="#000000" font-family="sans-serif" font-size="13" lengthAdjust="spacing" textLength="198.3516" x="597.7822" y="232.0591">Validar formulario (client-side)</text></g><g class="message" data-entity-1="part2" data-entity-2="part3" id="msg5"><polygon fill="#181818" points="911.7988,290.3906,921.7988,294.3906,911.7988,298.3906,915.7988,294.3906" style="stroke:#181818;stroke-width:1;"/><line style="stroke:#181818;stroke-width:1;" x1="590.7822" x2="917.7988" y1="294.3906" y2="294.3906"/><text fill="#000000" font-family="sans-serif" font-size="13" lengthAdjust="spacing" textLength="297.9653" x="597.7822" y="274.1919">POST /api/docentes (UsuarioCreateDTO JSON)</text><text fill="#000000" font-family="sans-serif" font-size="13" lengthAdjust="spacing" textLength="267.8774" x="597.7822" y="289.3247">(Header: Authorization: Bearer &lt;token&gt;)</text></g><g class="message" data-entity-1="part3" data-entity-2="part4" id="msg6"><polygon fill="#181818" points="1158.9805,319.5234,1168.9805,323.5234,1158.9805,327.5234,1162.9805,323.5234" style="stroke:#181818;stroke-width:1;"/><line style="stroke:#181818;stroke-width:1;" x1="933.7988" x2="1164.9805" y1="323.5234" y2="323.5234"/><text fill="#000000" font-family="sans-serif" font-size="13" lengthAdjust="spacing" textLength="218.1816" x="940.7988" y="318.4575">crearDocente(usuarioCreateDTO)</text></g><g class="message" data-entity-1="part4" data-entity-2="part4" id="msg7"><line style="stroke:#181818;stroke-width:1;" x1="1180.9805" x2="1222.9805" y1="352.6563" y2="352.6563"/><line style="stroke:#181818;stroke-width:1;" x1="1222.9805" x2="1222.9805" y1="352.6563" y2="365.6563"/><line style="stroke:#181818;stroke-width:1;" x1="1181.9805" x2="1222.9805" y1="365.6563" y2="365.6563"/><polygon fill="#181818" points="1191.9805,361.6563,1181.9805,365.6563,1191.9805,369.6563,1187.9805,365.6563" style="stroke:#181818;stroke-width:1;"/><text fill="#000000" font-family="sans-serif" font-size="13" lengthAdjust="spacing" textLength="260.4189" x="1187.9805" y="347.5903">Mapear DTO a Entidad (tipo=DOCENTE)</text></g><g class="message" data-entity-1="part4" data-entity-2="part5" id="msg8"><polygon fill="#181818" points="1453.3994,390.7891,1463.3994,394.7891,1453.3994,398.7891,1457.3994,394.7891" style="stroke:#181818;stroke-width:1;"/><line style="stroke:#181818;stroke-width:1;" x1="1180.9805" x2="1459.3994" y1="394.7891" y2="394.7891"/><text fill="#000000" font-family="sans-serif" font-size="13" lengthAdjust="spacing" textLength="88.7021" x="1187.9805" y="389.7231">save(usuario)</text></g><g class="message" data-entity-1="part5" data-entity-2="part6" id="msg9"><polygon fill="#181818" points="2273.3618,419.9219,2283.3618,423.9219,2273.3618,427.9219,2277.3618,423.9219" style="stroke:#181818;stroke-width:1;"/><line style="stroke:#181818;stroke-width:1;" x1="1475.3994" x2="2279.3618" y1="423.9219" y2="423.9219"/><text fill="#000000" font-family="sans-serif" font-size="13" lengthAdjust="spacing" textLength="790.9624" x="1482.3994" y="418.856">INSERT INTO usuarios (tipo, nombre, apellidos, dni, username, email, password_hash) VALUES ('DOCENTE', ?, ?, ?, ?, ?, ?)</text></g><g class="message" data-entity-1="part6" data-entity-2="part5" id="msg10"><polygon fill="#181818" points="1486.3994,449.0547,1476.3994,453.0547,1486.3994,457.0547,1482.3994,453.0547" style="stroke:#181818;stroke-width:1;"/><line style="stroke:#181818;stroke-width:1;stroke-dasharray:2,2;" x1="1480.3994" x2="2289.3618" y1="453.0547" y2="453.0547"/><text fill="#000000" font-family="sans-serif" font-size="13" lengthAdjust="spacing" textLength="171.1328" x="1492.3994" y="447.9888">Usuario (con ID generado)</text></g><g class="message" data-entity-1="part5" data-entity-2="part4" id="msg11"><polygon fill="#181818" points="1191.9805,478.1875,1181.9805,482.1875,1191.9805,486.1875,1187.9805,482.1875" style="stroke:#181818;stroke-width:1;"/><line style="stroke:#181818;stroke-width:1;stroke-dasharray:2,2;" x1="1185.9805" x2="1469.3994" y1="482.1875" y2="482.1875"/><text fill="#000000" font-family="sans-serif" font-size="13" lengthAdjust="spacing" textLength="49.4038" x="1197.9805" y="477.1216">Usuario</text></g><g class="message" data-entity-1="part4" data-entity-2="part4" id="msg12"><line style="stroke:#181818;stroke-width:1;" x1="1180.9805" x2="1222.9805" y1="511.3203" y2="511.3203"/><line style="stroke:#181818;stroke-width:1;" x1="1222.9805" x2="1222.9805" y1="511.3203" y2="524.3203"/><line style="stroke:#181818;stroke-width:1;" x1="1181.9805" x2="1222.9805" y1="524.3203" y2="524.3203"/><polygon fill="#181818" points="1191.9805,520.3203,1181.9805,524.3203,1191.9805,528.3203,1187.9805,524.3203" style="stroke:#181818;stroke-width:1;"/><text fill="#000000" font-family="sans-serif" font-size="13" lengthAdjust="spacing" textLength="196.3267" x="1187.9805" y="506.2544">Mapear Entidad a UsuarioDTO</text></g><g class="message" data-entity-1="part4" data-entity-2="part3" id="msg13"><polygon fill="#181818" points="944.7988,549.4531,934.7988,553.4531,944.7988,557.4531,940.7988,553.4531" style="stroke:#181818;stroke-width:1;"/><line style="stroke:#181818;stroke-width:1;stroke-dasharray:2,2;" x1="938.7988" x2="1174.9805" y1="553.4531" y2="553.4531"/><text fill="#000000" font-family="sans-serif" font-size="13" lengthAdjust="spacing" textLength="172.542" x="950.7988" y="548.3872">UsuarioDTO (201 Created)</text></g><g class="message" data-entity-1="part3" data-entity-2="part2" id="msg14"><polygon fill="#181818" points="601.7822,578.5859,591.7822,582.5859,601.7822,586.5859,597.7822,582.5859" style="stroke:#181818;stroke-width:1;"/><line style="stroke:#181818;stroke-width:1;stroke-dasharray:2,2;" x1="595.7822" x2="927.7988" y1="582.5859" y2="582.5859"/><text fill="#000000" font-family="sans-serif" font-size="13" lengthAdjust="spacing" textLength="208.7173" x="607.7822" y="577.52">201 Created (UsuarioDTO JSON)</text></g><g class="message" data-entity-1="part2" data-entity-2="part2" id="msg15"><line style="stroke:#181818;stroke-width:1;" x1="590.7822" x2="632.7822" y1="611.7188" y2="611.7188"/><line style="stroke:#181818;stroke-width:1;" x1="632.7822" x2="632.7822" y1="611.7188" y2="624.7188"/><line style="stroke:#181818;stroke-width:1;" x1="591.7822" x2="632.7822" y1="624.7188" y2="624.7188"/><polygon fill="#181818" points="601.7822,620.7188,591.7822,624.7188,601.7822,628.7188,597.7822,624.7188" style="stroke:#181818;stroke-width:1;"/><text fill="#000000" font-family="sans-serif" font-size="13" lengthAdjust="spacing" textLength="309.0166" x="597.7822" y="606.6528">Mostrar Toast "Docente creado correctamente"</text></g><g class="message" data-entity-1="part2" data-entity-2="part2" id="msg16"><line style="stroke:#181818;stroke-width:1;" x1="590.7822" x2="632.7822" y1="653.8516" y2="653.8516"/><line style="stroke:#181818;stroke-width:1;" x1="632.7822" x2="632.7822" y1="653.8516" y2="666.8516"/><line style="stroke:#181818;stroke-width:1;" x1="591.7822" x2="632.7822" y1="666.8516" y2="666.8516"/><polygon fill="#181818" points="601.7822,662.8516,591.7822,666.8516,601.7822,670.8516,597.7822,666.8516" style="stroke:#181818;stroke-width:1;"/><text fill="#000000" font-family="sans-serif" font-size="13" lengthAdjust="spacing" textLength="263.8848" x="597.7822" y="648.7856">Redirigir a editarDocente(usuarioNuevo)</text></g><g class="message" data-entity-1="part2" data-entity-2="part1" id="msg17"><polygon fill="#181818" points="128.5308,691.9844,118.5308,695.9844,128.5308,699.9844,124.5308,695.9844" style="stroke:#181818;stroke-width:1;"/><line style="stroke:#181818;stroke-width:1;stroke-dasharray:2,2;" x1="122.5308" x2="584.7822" y1="695.9844" y2="695.9844"/><text fill="#000000" font-family="sans-serif" font-size="13" lengthAdjust="spacing" textLength="195.5396" x="134.5308" y="690.9185">Mostrar Formulario de Edici&#243;n</text></g><path d="M10,710.9844 L74.4429,710.9844 L74.4429,718.1172 L64.4429,728.1172 L10,728.1172 L10,710.9844" fill="#EEEEEE" style="stroke:#000000;stroke-width:1.5;"/><rect fill="none" height="75.3984" style="stroke:#000000;stroke-width:1.5;" width="1003.3481" x="10" y="710.9844"/><text fill="#000000" font-family="sans-serif" font-size="13" font-weight="bold" lengthAdjust="spacing" textLength="19.4429" x="25" y="724.0513">alt</text><text fill="#000000" font-family="sans-serif" font-size="11" font-weight="bold" lengthAdjust="spacing" textLength="105.8374" x="89.4429" y="723.1948">[Datos Inv&#225;lidos]</text><g class="message" data-entity-1="part3" data-entity-2="part2" id="msg18"><polygon fill="#181818" points="596.7822,745.25,586.7822,749.25,596.7822,753.25,592.7822,749.25" style="stroke:#181818;stroke-width:1;"/><line style="stroke:#181818;stroke-width:1;stroke-dasharray:2,2;" x1="590.7822" x2="927.7988" y1="749.25" y2="749.25"/><text fill="#000000" font-family="sans-serif" font-size="13" lengthAdjust="spacing" textLength="232.7749" x="602.7822" y="744.1841">400 Bad Request (validation errors)</text></g><g class="message" data-entity-1="part2" data-entity-2="part1" id="msg19"><polygon fill="#181818" points="128.5308,774.3828,118.5308,778.3828,128.5308,782.3828,124.5308,778.3828" style="stroke:#181818;stroke-width:1;"/><line style="stroke:#181818;stroke-width:1;stroke-dasharray:2,2;" x1="122.5308" x2="584.7822" y1="778.3828" y2="778.3828"/><text fill="#000000" font-family="sans-serif" font-size="13" lengthAdjust="spacing" textLength="191.1533" x="134.5308" y="773.3169">Mostrar errores de validaci&#243;n</text></g><?plantuml-src XLJRRjD047ttLupoKbiaQa4yHL3Kn8u8QfCIftr2GbFlaAwmTyFkEWZ-XW_WYK_eZp6xTcgdH2MAV97Fp9mzSsQST2L1Ad5Zi48G13aLDQb28enWQWWDfBeWvGZYV6kasi14QmSlO4LOk2IA-AeD32v49PMqpg3WrxcoJhgwa5fXEG2q4Bv7MpHE5dABoi5WPZJdLGBY9bV0pR93K5lTJXbhT5cI2R3kzH1-OsiqKkTaThAW06sVZ-9MjDLMyW5-1AX_ZGGwl4DBC9ZuAskIejCMucjjtSPG_l6oePfEeYWS2qRdp7iCqr8MG0e6YvfsUY_Sm4iaTyWIyk5c6OmO7kB6SAMzOWPcsbHrwHb1B4Arwk6tafMsoM69kM86bZlLK5AwkZCq1DnIMKgXxH3InNm8jIMZiE8lLA4iXx15Qxzh8v90eCbrYnp2nR_qYXUbPCuZAmNjePtKOxXUvciunQqy5MrV86wbz6PnbAwNy25VBf9FAdvFA7pGHUtkjP4_qR4TnZ1XKv61Dqv_9NMUTEhqUjezUWPj1yTGU4EsiiRraxgzJFkMj_U375UibNSr4qN8b6C9s85ERlNRT3dD5kiiwSTvIup1ukwnOAzEy8k_U6GwuVOiycorvXjdR-6sIJw48xqIIZxJgy_tQEyJkBsulCboY4zQUYT3UFVatwF4famdmM8DyxOxt5cjO9x2XXJv6KqYGVsWvXHzeTh8FYwSznbHztBYFfXLxl1FlDH187vrzXAQHee3Olj6zltGkhSNykZ1H_VrS_HirNb_FtXhZRRRCi5WGaEXZQ72SLF2_7PXAnBIo8qqV4H-TF-uCKn-ylyfvwsI2Tv63tzKdoilY0XBrswSkTez_0fMYO1_HqHuVNO64nPyHTzgueF4kp3JVj20ZD66zuSFFIw7_tASQOZbuMQQJSQ6AI_hlm00?></g></svg>