<?plantuml 1.2026.2?><svg xmlns="http://www.w3.org/2000/svg" xmlns:xlink="http://www.w3.org/1999/xlink" contentStyleType="text/css" data-diagram-type="SEQUENCE" height="1708px" preserveAspectRatio="none" style="width:2875px;height:1708px;background:#FFFFFF;" version="1.1" viewBox="0 0 2875 1708" width="2875px" zoomAndPan="magnify"><title>Diagrama de Secuencia - Ver Respuestas (Spring Boot + React)</title><defs/><g><text fill="#000000" font-family="sans-serif" font-size="14" font-weight="bold" lengthAdjust="spacing" textLength="501.0879" x="1188.7761" y="27.9951">Diagrama de Secuencia - Ver Respuestas (Spring Boot + React)</text><g><title>Frontend .React.</title><rect fill="#FFFFFF" height="1453.1172" style="stroke:#181818;stroke-width:1;" width="10" x="425.6001" y="164.8594"/></g><g><title>RespuestasController</title><rect fill="#FFFFFF" height="604.4609" style="stroke:#181818;stroke-width:1;" width="10" x="851.5698" y="209.125"/></g><g><title>RespuestasController</title><rect fill="#FFFFFF" height="604.4609" style="stroke:#181818;stroke-width:1;" width="10" x="851.5698" y="962.3828"/></g><g><title>RespuestaService</title><rect fill="#FFFFFF" height="1338.5859" style="stroke:#181818;stroke-width:1;" width="10" x="1285.1675" y="280.3906"/></g><g><title>RespuestaService</title><rect fill="#FFFFFF" height="504.0625" style="stroke:#181818;stroke-width:1;" width="10" x="1290.1675" y="1033.6484"/></g><g><title>PreguntaService</title><rect fill="#FFFFFF" height="202.9297" style="stroke:#181818;stroke-width:1;" width="10" x="1616.9043" y="309.5234"/></g><g><title>PreguntaService</title><rect fill="#FFFFFF" height="202.9297" style="stroke:#181818;stroke-width:1;" width="10" x="1616.9043" y="1062.7813"/></g><g><title>PreguntaRepository</title><rect fill="#FFFFFF" height="87.3984" style="stroke:#181818;stroke-width:1;" width="10" x="1876.4365" y="338.6563"/></g><g><title>PreguntaRepository</title><rect fill="#FFFFFF" height="87.3984" style="stroke:#181818;stroke-width:1;" width="10" x="1876.4365" y="1091.9141"/></g><g><title>RespuestaRepository</title><rect fill="#FFFFFF" height="87.3984" style="stroke:#181818;stroke-width:1;" width="10" x="2043.9502" y="667.9219"/></g><g><title>RespuestaRepository</title><rect fill="#FFFFFF" height="87.3984" style="stroke:#181818;stroke-width:1;" width="10" x="2043.9502" y="1421.1797"/></g><g><title>Base de Datos .PostgreSQL.</title><rect fill="#FFFFFF" height="29.1328" style="stroke:#181818;stroke-width:1;" width="10" x="2742.9771" y="367.7891"/></g><g><title>Base de Datos .PostgreSQL.</title><rect fill="#FFFFFF" height="29.1328" style="stroke:#181818;stroke-width:1;" width="10" x="2742.9771" y="697.0547"/></g><g><title>Base de Datos .PostgreSQL.</title><rect fill="#FFFFFF" height="29.1328" style="stroke:#181818;stroke-width:1;" width="10" x="2742.9771" y="1121.0469"/></g><g><title>Base de Datos .PostgreSQL.</title><rect fill="#FFFFFF" height="29.1328" style="stroke:#181818;stroke-width:1;" width="10" x="2742.9771" y="1450.3125"/></g><rect fill="none" height="338.3984" style="stroke:#000000;stroke-width:1.5;" width="2839.6401" x="20" y="527.4531"/><rect fill="none" height="731.125" style="stroke:#000000;stroke-width:1.5;" width="2859.6401" x="10" y="879.8516"/><rect fill="none" height="323.2656" style="stroke:#000000;stroke-width:1.5;" width="2839.6401" x="20" y="1280.7109"/><g class="participant-lifeline" data-entity-uid="part1" data-qualified-name="Teacher" id="part1-lifeline"><g><title>Docente</title><rect fill="#000000" fill-opacity="0.00000" height="1509.3828" width="8" x="58.3159" y="118.5938"/><line style="stroke:#181818;stroke-width:0.5;stroke-dasharray:5,5;" x1="62" x2="62" y1="118.5938" y2="1627.9766"/></g></g><g class="participant-lifeline" data-entity-uid="part2" data-qualified-name="FE" id="part2-lifeline"><g><title>Frontend .React.</title><rect fill="#000000" fill-opacity="0.00000" height="1509.3828" width="8" x="426.6001" y="118.5938"/><line style="stroke:#181818;stroke-width:0.5;stroke-dasharray:5,5;" x1="430.3921" x2="430.3921" y1="118.5938" y2="1627.9766"/></g></g><g class="participant-lifeline" data-entity-uid="part3" data-qualified-name="Controller" id="part3-lifeline"><g><title>RespuestasController</title><rect fill="#000000" fill-opacity="0.00000" height="1509.3828" width="8" x="852.5698" y="118.5938"/><line style="stroke:#181818;stroke-width:0.5;stroke-dasharray:5,5;" x1="855.6514" x2="855.6514" y1="118.5938" y2="1627.9766"/></g></g><g class="participant-lifeline" data-entity-uid="part4" data-qualified-name="Service" id="part4-lifeline"><g><title>RespuestaService</title><rect fill="#000000" fill-opacity="0.00000" height="1509.3828" width="8" x="1286.1675" y="118.5938"/><line style="stroke:#181818;stroke-width:0.5;stroke-dasharray:5,5;" x1="1289.6118" x2="1289.6118" y1="118.5938" y2="1627.9766"/></g></g><g class="participant-lifeline" data-entity-uid="part5" data-qualified-name="PreguntaService" id="part5-lifeline"><g><title>PreguntaService</title><rect fill="#000000" fill-opacity="0.00000" height="1509.3828" width="8" x="1617.9043" y="118.5938"/><line style="stroke:#181818;stroke-width:0.5;stroke-dasharray:5,5;" x1="1621.2773" x2="1621.2773" y1="118.5938" y2="1627.9766"/></g></g><g class="participant-lifeline" data-entity-uid="part6" data-qualified-name="PreguntaRepo" id="part6-lifeline"><g><title>PreguntaRepository</title><rect fill="#000000" fill-opacity="0.00000" height="1509.3828" width="8" x="1877.4365" y="118.5938"/><line style="stroke:#181818;stroke-width:0.5;stroke-dasharray:5,5;" x1="1881.144" x2="1881.144" y1="118.5938" y2="1627.9766"/></g></g><g class="participant-lifeline" data-entity-uid="part7" data-qualified-name="RespuestaRepo" id="part7-lifeline"><g><title>RespuestaRepository</title><rect fill="#000000" fill-opacity="0.00000" height="1509.3828" width="8" x="2044.9502" y="118.5938"/><line style="stroke:#181818;stroke-width:0.5;stroke-dasharray:5,5;" x1="2048.729" x2="2048.729" y1="118.5938" y2="1627.9766"/></g></g><g class="participant-lifeline" data-entity-uid="part8" data-qualified-name="DB" id="part8-lifeline"><g><title>Base de Datos .PostgreSQL.</title><rect fill="#000000" fill-opacity="0.00000" height="1509.3828" width="8" x="2743.9771" y="118.5938"/><line style="stroke:#181818;stroke-width:0.5;stroke-dasharray:5,5;" x1="2747.314" x2="2747.314" y1="118.5938" y2="1627.9766"/></g></g><g class="participant participant-head" data-entity-uid="part1" data-qualified-name="Teacher" id="part1-head"><text fill="#000000" font-family="sans-serif" font-size="14" lengthAdjust="spacing" textLength="58.6318" x="30" y="115.292">Docente</text><ellipse cx="62.3159" cy="50.7969" fill="#E2E2F0" rx="8" ry="8" style="stroke:#181818;stroke-width:0.5;"/><path d="M62.3159,58.7969 L62.3159,85.7969 M49.3159,66.7969 L75.3159,66.7969 M62.3159,85.7969 L49.3159,100.7969 M62.3159,85.7969 L75.3159,100.7969" fill="none" style="stroke:#181818;stroke-width:0.5;"/></g><g class="participant participant-tail" data-entity-uid="part1" data-qualified-name="Teacher" id="part1-tail"><text fill="#000000" font-family="sans-serif" font-size="14" lengthAdjust="spacing" textLength="58.6318" x="30" y="1639.9717">Docente</text><ellipse cx="62.3159" cy="1651.7734" fill="#E2E2F0" rx="8" ry="8" style="stroke:#181818;stroke-width:0.5;"/><path d="M62.3159,1659.7734 L62.3159,1686.7734 M49.3159,1667.7734 L75.3159,1667.7734 M62.3159,1686.7734 L49.3159,1701.7734 M62.3159,1686.7734 L75.3159,1701.7734" fill="none" style="stroke:#181818;stroke-width:0.5;"/></g><g class="participant participant-head" data-entity-uid="part2" data-qualified-name="FE" id="part2-head"><rect fill="#E2E2F0" height="46.5938" rx="2.5" ry="2.5" style="stroke:#181818;stroke-width:0.5;" width="200.416" x="330.3921" y="71"/><text fill="#000000" font-family="sans-serif" font-size="14" lengthAdjust="spacing" textLength="118.5898" x="371.3052" y="90.9951">Frontend (React)</text><text fill="#000000" font-family="sans-serif" font-size="14" lengthAdjust="spacing" textLength="186.416" x="337.3921" y="107.292">RespuestasListComponent</text></g><g class="participant participant-tail" data-entity-uid="part2" data-qualified-name="FE" id="part2-tail"><rect fill="#E2E2F0" height="46.5938" rx="2.5" ry="2.5" style="stroke:#181818;stroke-width:0.5;" width="200.416" x="330.3921" y="1626.9766"/><text fill="#000000" font-family="sans-serif" font-size="14" lengthAdjust="spacing" textLength="118.5898" x="371.3052" y="1646.9717">Frontend (React)</text><text fill="#000000" font-family="sans-serif" font-size="14" lengthAdjust="spacing" textLength="186.416" x="337.3921" y="1663.2686">RespuestasListComponent</text></g><g class="participant participant-head" data-entity-uid="part3" data-qualified-name="Controller" id="part3-head"><rect fill="#E2E2F0" height="30.2969" rx="2.5" ry="2.5" style="stroke:#181818;stroke-width:0.5;" width="163.8369" x="774.6514" y="87.2969"/><text fill="#000000" font-family="sans-serif" font-size="14" lengthAdjust="spacing" textLength="149.8369" x="781.6514" y="107.292">RespuestasController</text></g><g class="participant participant-tail" data-entity-uid="part3" data-qualified-name="Controller" id="part3-tail"><rect fill="#E2E2F0" height="30.2969" rx="2.5" ry="2.5" style="stroke:#181818;stroke-width:0.5;" width="163.8369" x="774.6514" y="1626.9766"/><text fill="#000000" font-family="sans-serif" font-size="14" lengthAdjust="spacing" textLength="149.8369" x="781.6514" y="1646.9717">RespuestasController</text></g><g class="participant participant-head" data-entity-uid="part4" data-qualified-name="Service" id="part4-head"><rect fill="#E2E2F0" height="30.2969" rx="2.5" ry="2.5" style="stroke:#181818;stroke-width:0.5;" width="139.1113" x="1220.6118" y="87.2969"/><text fill="#000000" font-family="sans-serif" font-size="14" lengthAdjust="spacing" textLength="125.1113" x="1227.6118" y="107.292">RespuestaService</text></g><g class="participant participant-tail" data-entity-uid="part4" data-qualified-name="Service" id="part4-tail"><rect fill="#E2E2F0" height="30.2969" rx="2.5" ry="2.5" style="stroke:#181818;stroke-width:0.5;" width="139.1113" x="1220.6118" y="1626.9766"/><text fill="#000000" font-family="sans-serif" font-size="14" lengthAdjust="spacing" textLength="125.1113" x="1227.6118" y="1646.9717">RespuestaService</text></g><g class="participant participant-head" data-entity-uid="part5" data-qualified-name="PreguntaService" id="part5-head"><rect fill="#E2E2F0" height="30.2969" rx="2.5" ry="2.5" style="stroke:#181818;stroke-width:0.5;" width="129.2539" x="1557.2773" y="87.2969"/><text fill="#000000" font-family="sans-serif" font-size="14" lengthAdjust="spacing" textLength="115.2539" x="1564.2773" y="107.292">PreguntaService</text></g><g class="participant participant-tail" data-entity-uid="part5" data-qualified-name="PreguntaService" id="part5-tail"><rect fill="#E2E2F0" height="30.2969" rx="2.5" ry="2.5" style="stroke:#181818;stroke-width:0.5;" width="129.2539" x="1557.2773" y="1626.9766"/><text fill="#000000" font-family="sans-serif" font-size="14" lengthAdjust="spacing" textLength="115.2539" x="1564.2773" y="1646.9717">PreguntaService</text></g><g class="participant participant-head" data-entity-uid="part6" data-qualified-name="PreguntaRepo" id="part6-head"><rect fill="#E2E2F0" height="30.2969" rx="2.5" ry="2.5" style="stroke:#181818;stroke-width:0.5;" width="152.585" x="1805.144" y="87.2969"/><text fill="#000000" font-family="sans-serif" font-size="14" lengthAdjust="spacing" textLength="138.585" x="1812.144" y="107.292">PreguntaRepository</text></g><g class="participant participant-tail" data-entity-uid="part6" data-qualified-name="PreguntaRepo" id="part6-tail"><rect fill="#E2E2F0" height="30.2969" rx="2.5" ry="2.5" style="stroke:#181818;stroke-width:0.5;" width="152.585" x="1805.144" y="1626.9766"/><text fill="#000000" font-family="sans-serif" font-size="14" lengthAdjust="spacing" textLength="138.585" x="1812.144" y="1646.9717">PreguntaRepository</text></g><g class="participant participant-head" data-entity-uid="part7" data-qualified-name="RespuestaRepo" id="part7-head"><rect fill="#E2E2F0" height="30.2969" rx="2.5" ry="2.5" style="stroke:#181818;stroke-width:0.5;" width="162.4424" x="1967.729" y="87.2969"/><text fill="#000000" font-family="sans-serif" font-size="14" lengthAdjust="spacing" textLength="148.4424" x="1974.729" y="107.292">RespuestaRepository</text></g><g class="participant participant-tail" data-entity-uid="part7" data-qualified-name="RespuestaRepo" id="part7-tail"><rect fill="#E2E2F0" height="30.2969" rx="2.5" ry="2.5" style="stroke:#181818;stroke-width:0.5;" width="162.4424" x="1967.729" y="1626.9766"/><text fill="#000000" font-family="sans-serif" font-size="14" lengthAdjust="spacing" textLength="148.4424" x="1974.729" y="1646.9717">RespuestaRepository</text></g><g class="participant participant-head" data-entity-uid="part8" data-qualified-name="DB" id="part8-head"><text fill="#000000" font-family="sans-serif" font-size="14" lengthAdjust="spacing" textLength="197.3262" x="2646.314" y="115.292">Base de Datos (PostgreSQL)</text><path d="M2729.9771,66.2969 C2729.9771,56.2969 2747.9771,56.2969 2747.9771,56.2969 C2747.9771,56.2969 2765.9771,56.2969 2765.9771,66.2969 L2765.9771,92.2969 C2765.9771,102.2969 2747.9771,102.2969 2747.9771,102.2969 C2747.9771,102.2969 2729.9771,102.2969 2729.9771,92.2969 L2729.9771,66.2969" fill="#E2E2F0" style="stroke:#181818;stroke-width:0.5;"/><path d="M2729.9771,66.2969 C2729.9771,76.2969 2747.9771,76.2969 2747.9771,76.2969 C2747.9771,76.2969 2765.9771,76.2969 2765.9771,66.2969" fill="none" style="stroke:#181818;stroke-width:0.5;"/></g><g class="participant participant-tail" data-entity-uid="part8" data-qualified-name="DB" id="part8-tail"><text fill="#000000" font-family="sans-serif" font-size="14" lengthAdjust="spacing" textLength="197.3262" x="2646.314" y="1639.9717">Base de Datos (PostgreSQL)</text><path d="M2729.9771,1653.2734 C2729.9771,1643.2734 2747.9771,1643.2734 2747.9771,1643.2734 C2747.9771,1643.2734 2765.9771,1643.2734 2765.9771,1653.2734 L2765.9771,1679.2734 C2765.9771,1689.2734 2747.9771,1689.2734 2747.9771,1689.2734 C2747.9771,1689.2734 2729.9771,1689.2734 2729.9771,1679.2734 L2729.9771,1653.2734" fill="#E2E2F0" style="stroke:#181818;stroke-width:0.5;"/><path d="M2729.9771,1653.2734 C2729.9771,1663.2734 2747.9771,1663.2734 2747.9771,1663.2734 C2747.9771,1663.2734 2765.9771,1663.2734 2765.9771,1653.2734" fill="none" style="stroke:#181818;stroke-width:0.5;"/></g><g><title>Frontend .React.</title><rect fill="#FFFFFF" height="1453.1172" style="stroke:#181818;stroke-width:1;" width="10" x="425.6001" y="164.8594"/></g><g><title>RespuestasController</title><rect fill="#FFFFFF" height="604.4609" style="stroke:#181818;stroke-width:1;" width="10" x="851.5698" y="209.125"/></g><g><title>RespuestasController</title><rect fill="#FFFFFF" height="604.4609" style="stroke:#181818;stroke-width:1;" width="10" x="851.5698" y="962.3828"/></g><g><title>RespuestaService</title><rect fill="#FFFFFF" height="1338.5859" style="stroke:#181818;stroke-width:1;" width="10" x="1285.1675" y="280.3906"/></g><g><title>RespuestaService</title><rect fill="#FFFFFF" height="504.0625" style="stroke:#181818;stroke-width:1;" width="10" x="1290.1675" y="1033.6484"/></g><g><title>PreguntaService</title><rect fill="#FFFFFF" height="202.9297" style="stroke:#181818;stroke-width:1;" width="10" x="1616.9043" y="309.5234"/></g><g><title>PreguntaService</title><rect fill="#FFFFFF" height="202.9297" style="stroke:#181818;stroke-width:1;" width="10" x="1616.9043" y="1062.7813"/></g><g><title>PreguntaRepository</title><rect fill="#FFFFFF" height="87.3984" style="stroke:#181818;stroke-width:1;" width="10" x="1876.4365" y="338.6563"/></g><g><title>PreguntaRepository</title><rect fill="#FFFFFF" height="87.3984" style="stroke:#181818;stroke-width:1;" width="10" x="1876.4365" y="1091.9141"/></g><g><title>RespuestaRepository</title><rect fill="#FFFFFF" height="87.3984" style="stroke:#181818;stroke-width:1;" width="10" x="2043.9502" y="667.9219"/></g><g><title>RespuestaRepository</title><rect fill="#FFFFFF" height="87.3984" style="stroke:#181818;stroke-width:1;" width="10" x="2043.9502" y="1421.1797"/></g><g><title>Base de Datos .PostgreSQL.</title><rect fill="#FFFFFF" height="29.1328" style="stroke:#181818;stroke-width:1;" width="10" x="2742.9771" y="367.7891"/></g><g><title>Base de Datos .PostgreSQL.</title><rect fill="#FFFFFF" height="29.1328" style="stroke:#181818;stroke-width:1;" width="10" x="2742.9771" y="697.0547"/></g><g><title>Base de Datos .PostgreSQL.</title><rect fill="#FFFFFF" height="29.1328" style="stroke:#181818;stroke-width:1;" width="10" x="2742.9771" y="1121.0469"/></g><g><title>Base de Datos .PostgreSQL.</title><rect fill="#FFFFFF" height="29.1328" style="stroke:#181818;stroke-width:1;" width="10" x="2742.9771" y="1450.3125"/></g><g class="message" data-entity-1="part1" data-entity-2="part2" id="msg1"><polygon fill="#181818" points="413.6001,160.8594,423.6001,164.8594,413.6001,168.8594,417.6001,164.8594" style="stroke:#181818;stroke-width:1;"/><line style="stroke:#181818;stroke-width:1;" x1="62.3159" x2="419.6001" y1="164.8594" y2="164.8594"/><text fill="#000000" font-family="sans-serif" font-size="13" lengthAdjust="spacing" textLength="160.0498" x="69.3159" y="144.6606">Accede a ver respuestas</text><text fill="#000000" font-family="sans-serif" font-size="13" lengthAdjust="spacing" textLength="344.2842" x="69.3159" y="159.7935">(desde PREGUNTA_ABIERTO o RESPUESTA_ABIERTO)</text></g><g class="message" data-entity-1="part2" data-entity-2="part3" id="msg2"><polygon fill="#181818" points="839.5698,205.125,849.5698,209.125,839.5698,213.125,843.5698,209.125" style="stroke:#181818;stroke-width:1;"/><line style="stroke:#181818;stroke-width:1;" x1="435.6001" x2="845.5698" y1="209.125" y2="209.125"/><text fill="#000000" font-family="sans-serif" font-size="13" lengthAdjust="spacing" textLength="286.3301" x="442.6001" y="188.9263">GET /api/respuestas/pregunta/{preguntaId}</text><text fill="#000000" font-family="sans-serif" font-size="13" lengthAdjust="spacing" textLength="267.8774" x="442.6001" y="204.0591">(Header: Authorization: Bearer &lt;token&gt;)</text></g><g class="message" data-entity-1="part3" data-entity-2="part3" id="msg3"><line style="stroke:#181818;stroke-width:1;" x1="861.5698" x2="903.5698" y1="238.2578" y2="238.2578"/><line style="stroke:#181818;stroke-width:1;" x1="903.5698" x2="903.5698" y1="238.2578" y2="251.2578"/><line style="stroke:#181818;stroke-width:1;" x1="862.5698" x2="903.5698" y1="251.2578" y2="251.2578"/><polygon fill="#181818" points="872.5698,247.2578,862.5698,251.2578,872.5698,255.2578,868.5698,251.2578" style="stroke:#181818;stroke-width:1;"/><text fill="#000000" font-family="sans-serif" font-size="13" lengthAdjust="spacing" textLength="169.1016" x="868.5698" y="233.1919">extraer docenteId del JWT</text></g><g class="message" data-entity-1="part3" data-entity-2="part4" id="msg4"><polygon fill="#181818" points="1273.1675,276.3906,1283.1675,280.3906,1273.1675,284.3906,1277.1675,280.3906" style="stroke:#181818;stroke-width:1;"/><line style="stroke:#181818;stroke-width:1;" x1="861.5698" x2="1279.1675" y1="280.3906" y2="280.3906"/><text fill="#000000" font-family="sans-serif" font-size="13" lengthAdjust="spacing" textLength="360.5532" x="868.5698" y="275.3247">obtenerRespuestasPorPregunta(preguntaId, docenteId)</text></g><g class="message" data-entity-1="part4" data-entity-2="part5" id="msg5"><polygon fill="#181818" points="1604.9043,305.5234,1614.9043,309.5234,1604.9043,313.5234,1608.9043,309.5234" style="stroke:#181818;stroke-width:1;"/><line style="stroke:#181818;stroke-width:1;" x1="1295.1675" x2="1610.9043" y1="309.5234" y2="309.5234"/><text fill="#000000" font-family="sans-serif" font-size="13" lengthAdjust="spacing" textLength="297.7368" x="1302.1675" y="304.4575">obtenerPreguntaPorId(preguntaId, docenteId)</text></g><g class="message" data-entity-1="part5" data-entity-2="part6" id="msg6"><polygon fill="#181818" points="1864.4365,334.6563,1874.4365,338.6563,1864.4365,342.6563,1868.4365,338.6563" style="stroke:#181818;stroke-width:1;"/><line style="stroke:#181818;stroke-width:1;" x1="1626.9043" x2="1870.4365" y1="338.6563" y2="338.6563"/><text fill="#000000" font-family="sans-serif" font-size="13" lengthAdjust="spacing" textLength="134.9956" x="1633.9043" y="333.5903">findById(preguntaId)</text></g><g class="message" data-entity-1="part6" data-entity-2="part8" id="msg7"><polygon fill="#181818" points="2730.9771,363.7891,2740.9771,367.7891,2730.9771,371.7891,2734.9771,367.7891" style="stroke:#181818;stroke-width:1;"/><line style="stroke:#181818;stroke-width:1;" x1="1886.4365" x2="2736.9771" y1="367.7891" y2="367.7891"/><text fill="#000000" font-family="sans-serif" font-size="13" lengthAdjust="spacing" textLength="266.2334" x="1893.4365" y="362.7231">SELECT * FROM preguntas WHERE id = ?</text></g><g class="message" data-entity-1="part8" data-entity-2="part6" id="msg8"><polygon fill="#181818" points="1897.4365,392.9219,1887.4365,396.9219,1897.4365,400.9219,1893.4365,396.9219" style="stroke:#181818;stroke-width:1;"/><line style="stroke:#181818;stroke-width:1;stroke-dasharray:2,2;" x1="1891.4365" x2="2746.9771" y1="396.9219" y2="396.9219"/><text fill="#000000" font-family="sans-serif" font-size="13" lengthAdjust="spacing" textLength="135.7256" x="1903.4365" y="391.856">Optional&lt;Pregunta&gt;</text></g><g class="message" data-entity-1="part6" data-entity-2="part5" id="msg9"><polygon fill="#181818" points="1637.9043,422.0547,1627.9043,426.0547,1637.9043,430.0547,1633.9043,426.0547" style="stroke:#181818;stroke-width:1;"/><line style="stroke:#181818;stroke-width:1;stroke-dasharray:2,2;" x1="1631.9043" x2="1880.4365" y1="426.0547" y2="426.0547"/><text fill="#000000" font-family="sans-serif" font-size="13" lengthAdjust="spacing" textLength="135.7256" x="1643.9043" y="420.9888">Optional&lt;Pregunta&gt;</text></g><g class="message" data-entity-1="part5" data-entity-2="part5" id="msg10"><line style="stroke:#181818;stroke-width:1;" x1="1626.9043" x2="1668.9043" y1="470.3203" y2="470.3203"/><line style="stroke:#181818;stroke-width:1;" x1="1668.9043" x2="1668.9043" y1="470.3203" y2="483.3203"/><line style="stroke:#181818;stroke-width:1;" x1="1627.9043" x2="1668.9043" y1="483.3203" y2="483.3203"/><polygon fill="#181818" points="1637.9043,479.3203,1627.9043,483.3203,1637.9043,487.3203,1633.9043,483.3203" style="stroke:#181818;stroke-width:1;"/><text fill="#000000" font-family="sans-serif" font-size="13" lengthAdjust="spacing" textLength="220.4224" x="1633.9043" y="450.1216">Verificar pertenencia de pregunta</text><text fill="#000000" font-family="sans-serif" font-size="13" lengthAdjust="spacing" textLength="225.5322" x="1633.9043" y="465.2544">a docente autenticado (docenteId)</text></g><g class="message" data-entity-1="part5" data-entity-2="part4" id="msg11"><polygon fill="#181818" points="1306.1675,508.4531,1296.1675,512.4531,1306.1675,516.4531,1302.1675,512.4531" style="stroke:#181818;stroke-width:1;"/><line style="stroke:#181818;stroke-width:1;stroke-dasharray:2,2;" x1="1300.1675" x2="1620.9043" y1="512.4531" y2="512.4531"/><text fill="#000000" font-family="sans-serif" font-size="13" lengthAdjust="spacing" textLength="58.9761" x="1312.1675" y="507.3872">Pregunta</text></g><path d="M20,527.4531 L84.4429,527.4531 L84.4429,534.5859 L74.4429,544.5859 L20,544.5859 L20,527.4531" fill="#EEEEEE" style="stroke:#000000;stroke-width:1.5;"/><rect fill="none" height="338.3984" style="stroke:#000000;stroke-width:1.5;" width="2839.6401" x="20" y="527.4531"/><text fill="#000000" font-family="sans-serif" font-size="13" font-weight="bold" lengthAdjust="spacing" textLength="19.4429" x="35" y="540.52">alt</text><text fill="#000000" font-family="sans-serif" font-size="11" font-weight="bold" lengthAdjust="spacing" textLength="298.1064" x="99.4429" y="539.6636">[Pregunta No Existe o No Pertenece al Docente]</text><g class="message" data-entity-1="part4" data-entity-2="part3" id="msg12"><polygon fill="#181818" points="872.5698,561.7188,862.5698,565.7188,872.5698,569.7188,868.5698,565.7188" style="stroke:#181818;stroke-width:1;"/><line style="stroke:#181818;stroke-width:1;stroke-dasharray:2,2;" x1="866.5698" x2="1284.1675" y1="565.7188" y2="565.7188"/><text fill="#000000" font-family="sans-serif" font-size="13" lengthAdjust="spacing" textLength="203.0298" x="878.5698" y="560.6528">throw UnauthorizedException()</text></g><g class="message" data-entity-1="part3" data-entity-2="part2" id="msg13"><polygon fill="#181818" points="446.6001,590.8516,436.6001,594.8516,446.6001,598.8516,442.6001,594.8516" style="stroke:#181818;stroke-width:1;"/><line style="stroke:#181818;stroke-width:1;stroke-dasharray:2,2;" x1="440.6001" x2="850.5698" y1="594.8516" y2="594.8516"/><text fill="#000000" font-family="sans-serif" font-size="13" lengthAdjust="spacing" textLength="94.3262" x="452.6001" y="589.7856">403 Forbidden</text></g><g class="message" data-entity-1="part2" data-entity-2="part1" id="msg14"><polygon fill="#181818" points="73.3159,619.9844,63.3159,623.9844,73.3159,627.9844,69.3159,623.9844" style="stroke:#181818;stroke-width:1;"/><line style="stroke:#181818;stroke-width:1;stroke-dasharray:2,2;" x1="67.3159" x2="424.6001" y1="623.9844" y2="623.9844"/><text fill="#000000" font-family="sans-serif" font-size="13" lengthAdjust="spacing" textLength="165.5786" x="79.3159" y="618.9185">Mostrar mensaje de error</text></g><line style="stroke:#000000;stroke-width:1;stroke-dasharray:2,2;" x1="20" x2="2859.6401" y1="632.9844" y2="632.9844"/><text fill="#000000" font-family="sans-serif" font-size="11" font-weight="bold" lengthAdjust="spacing" textLength="256.5342" x="25" y="643.1948">[Pregunta Existe y Pertenece al Docente]</text><g class="message" data-entity-1="part4" data-entity-2="part7" id="msg15"><polygon fill="#181818" points="2031.9502,663.9219,2041.9502,667.9219,2031.9502,671.9219,2035.9502,667.9219" style="stroke:#181818;stroke-width:1;"/><line style="stroke:#181818;stroke-width:1;" x1="1295.1675" x2="2037.9502" y1="667.9219" y2="667.9219"/><text fill="#000000" font-family="sans-serif" font-size="13" lengthAdjust="spacing" textLength="193.9717" x="1302.1675" y="662.856">findByPreguntaId(preguntaId)</text></g><g class="message" data-entity-1="part7" data-entity-2="part8" id="msg16"><polygon fill="#181818" points="2730.9771,693.0547,2740.9771,697.0547,2730.9771,701.0547,2734.9771,697.0547" style="stroke:#181818;stroke-width:1;"/><line style="stroke:#181818;stroke-width:1;" x1="2053.9502" x2="2736.9771" y1="697.0547" y2="697.0547"/><text fill="#000000" font-family="sans-serif" font-size="13" lengthAdjust="spacing" textLength="424.8169" x="2060.9502" y="691.9888">SELECT * FROM respuestas WHERE pregunta_id = ? ORDER BY id</text></g><g class="message" data-entity-1="part8" data-entity-2="part7" id="msg17"><polygon fill="#181818" points="2064.9502,722.1875,2054.9502,726.1875,2064.9502,730.1875,2060.9502,726.1875" style="stroke:#181818;stroke-width:1;"/><line style="stroke:#181818;stroke-width:1;stroke-dasharray:2,2;" x1="2058.9502" x2="2746.9771" y1="726.1875" y2="726.1875"/><text fill="#000000" font-family="sans-serif" font-size="13" lengthAdjust="spacing" textLength="112.6392" x="2070.9502" y="721.1216">List&lt;Respuesta&gt;</text></g><g class="message" data-entity-1="part7" data-entity-2="part4" id="msg18"><polygon fill="#181818" points="1306.1675,751.3203,1296.1675,755.3203,1306.1675,759.3203,1302.1675,755.3203" style="stroke:#181818;stroke-width:1;"/><line style="stroke:#181818;stroke-width:1;stroke-dasharray:2,2;" x1="1300.1675" x2="2047.9502" y1="755.3203" y2="755.3203"/><text fill="#000000" font-family="sans-serif" font-size="13" lengthAdjust="spacing" textLength="112.6392" x="1312.1675" y="750.2544">List&lt;Respuesta&gt;</text></g><g class="message" data-entity-1="part4" data-entity-2="part3" id="msg19"><polygon fill="#181818" points="872.5698,780.4531,862.5698,784.4531,872.5698,788.4531,868.5698,784.4531" style="stroke:#181818;stroke-width:1;"/><line style="stroke:#181818;stroke-width:1;stroke-dasharray:2,2;" x1="866.5698" x2="1284.1675" y1="784.4531" y2="784.4531"/><text fill="#000000" font-family="sans-serif" font-size="13" lengthAdjust="spacing" textLength="140.8228" x="878.5698" y="779.3872">List&lt;RespuestaDTO&gt;</text></g><g class="message" data-entity-1="part3" data-entity-2="part2" id="msg20"><polygon fill="#181818" points="446.6001,809.5859,436.6001,813.5859,446.6001,817.5859,442.6001,813.5859" style="stroke:#181818;stroke-width:1;"/><line style="stroke:#181818;stroke-width:1;stroke-dasharray:2,2;" x1="440.6001" x2="855.5698" y1="813.5859" y2="813.5859"/><text fill="#000000" font-family="sans-serif" font-size="13" lengthAdjust="spacing" textLength="238.9766" x="452.6001" y="808.52">200 OK (List&lt;RespuestaDTO&gt; JSON)</text></g><g class="message" data-entity-1="part2" data-entity-2="part1" id="msg21"><polygon fill="#181818" points="73.3159,853.8516,63.3159,857.8516,73.3159,861.8516,69.3159,857.8516" style="stroke:#181818;stroke-width:1;"/><line style="stroke:#181818;stroke-width:1;stroke-dasharray:2,2;" x1="67.3159" x2="424.6001" y1="857.8516" y2="857.8516"/><text fill="#000000" font-family="sans-serif" font-size="13" lengthAdjust="spacing" textLength="176.6172" x="79.3159" y="837.6528">Mostrar lista de respuestas</text><text fill="#000000" font-family="sans-serif" font-size="13" lengthAdjust="spacing" textLength="153.6006" x="79.3159" y="852.7856">(contenido, esCorrecta)</text></g><path d="M10,879.8516 L74.4429,879.8516 L74.4429,886.9844 L64.4429,896.9844 L10,896.9844 L10,879.8516" fill="#EEEEEE" style="stroke:#000000;stroke-width:1.5;"/><rect fill="none" height="731.125" style="stroke:#000000;stroke-width:1.5;" width="2859.6401" x="10" y="879.8516"/><text fill="#000000" font-family="sans-serif" font-size="13" font-weight="bold" lengthAdjust="spacing" textLength="19.4429" x="25" y="892.9185">alt</text><text fill="#000000" font-family="sans-serif" font-size="11" font-weight="bold" lengthAdjust="spacing" textLength="123.8896" x="89.4429" y="892.062">[Filtrar Respuestas]</text><g class="message" data-entity-1="part1" data-entity-2="part2" id="msg22"><polygon fill="#181818" points="413.6001,914.1172,423.6001,918.1172,413.6001,922.1172,417.6001,918.1172" style="stroke:#181818;stroke-width:1;"/><line style="stroke:#181818;stroke-width:1;" x1="62.3159" x2="419.6001" y1="918.1172" y2="918.1172"/><text fill="#000000" font-family="sans-serif" font-size="13" lengthAdjust="spacing" textLength="169.5776" x="69.3159" y="913.0513">Ingresa criterio de filtrado</text></g><g class="message" data-entity-1="part2" data-entity-2="part3" id="msg23"><polygon fill="#181818" points="839.5698,958.3828,849.5698,962.3828,839.5698,966.3828,843.5698,962.3828" style="stroke:#181818;stroke-width:1;"/><line style="stroke:#181818;stroke-width:1;" x1="435.6001" x2="845.5698" y1="962.3828" y2="962.3828"/><text fill="#000000" font-family="sans-serif" font-size="13" lengthAdjust="spacing" textLength="396.9697" x="442.6001" y="942.1841">GET /api/respuestas/pregunta/{preguntaId}?filtro={criterio}</text><text fill="#000000" font-family="sans-serif" font-size="13" lengthAdjust="spacing" textLength="267.8774" x="442.6001" y="957.3169">(Header: Authorization: Bearer &lt;token&gt;)</text></g><g class="message" data-entity-1="part3" data-entity-2="part3" id="msg24"><line style="stroke:#181818;stroke-width:1;" x1="861.5698" x2="903.5698" y1="991.5156" y2="991.5156"/><line style="stroke:#181818;stroke-width:1;" x1="903.5698" x2="903.5698" y1="991.5156" y2="1004.5156"/><line style="stroke:#181818;stroke-width:1;" x1="862.5698" x2="903.5698" y1="1004.5156" y2="1004.5156"/><polygon fill="#181818" points="872.5698,1000.5156,862.5698,1004.5156,872.5698,1008.5156,868.5698,1004.5156" style="stroke:#181818;stroke-width:1;"/><text fill="#000000" font-family="sans-serif" font-size="13" lengthAdjust="spacing" textLength="169.1016" x="868.5698" y="986.4497">extraer docenteId del JWT</text></g><g class="message" data-entity-1="part3" data-entity-2="part4" id="msg25"><polygon fill="#181818" points="1278.1675,1029.6484,1288.1675,1033.6484,1278.1675,1037.6484,1282.1675,1033.6484" style="stroke:#181818;stroke-width:1;"/><line style="stroke:#181818;stroke-width:1;" x1="861.5698" x2="1284.1675" y1="1033.6484" y2="1033.6484"/><text fill="#000000" font-family="sans-serif" font-size="13" lengthAdjust="spacing" textLength="399.5977" x="868.5698" y="1028.5825">filtrarRespuestasPorPregunta(preguntaId, criterio, docenteId)</text></g><g class="message" data-entity-1="part4" data-entity-2="part5" id="msg26"><polygon fill="#181818" points="1604.9043,1058.7813,1614.9043,1062.7813,1604.9043,1066.7813,1608.9043,1062.7813" style="stroke:#181818;stroke-width:1;"/><line style="stroke:#181818;stroke-width:1;" x1="1300.1675" x2="1610.9043" y1="1062.7813" y2="1062.7813"/><text fill="#000000" font-family="sans-serif" font-size="13" lengthAdjust="spacing" textLength="297.7368" x="1307.1675" y="1057.7153">obtenerPreguntaPorId(preguntaId, docenteId)</text></g><g class="message" data-entity-1="part5" data-entity-2="part6" id="msg27"><polygon fill="#181818" points="1864.4365,1087.9141,1874.4365,1091.9141,1864.4365,1095.9141,1868.4365,1091.9141" style="stroke:#181818;stroke-width:1;"/><line style="stroke:#181818;stroke-width:1;" x1="1626.9043" x2="1870.4365" y1="1091.9141" y2="1091.9141"/><text fill="#000000" font-family="sans-serif" font-size="13" lengthAdjust="spacing" textLength="134.9956" x="1633.9043" y="1086.8481">findById(preguntaId)</text></g><g class="message" data-entity-1="part6" data-entity-2="part8" id="msg28"><polygon fill="#181818" points="2730.9771,1117.0469,2740.9771,1121.0469,2730.9771,1125.0469,2734.9771,1121.0469" style="stroke:#181818;stroke-width:1;"/><line style="stroke:#181818;stroke-width:1;" x1="1886.4365" x2="2736.9771" y1="1121.0469" y2="1121.0469"/><text fill="#000000" font-family="sans-serif" font-size="13" lengthAdjust="spacing" textLength="266.2334" x="1893.4365" y="1115.981">SELECT * FROM preguntas WHERE id = ?</text></g><g class="message" data-entity-1="part8" data-entity-2="part6" id="msg29"><polygon fill="#181818" points="1897.4365,1146.1797,1887.4365,1150.1797,1897.4365,1154.1797,1893.4365,1150.1797" style="stroke:#181818;stroke-width:1;"/><line style="stroke:#181818;stroke-width:1;stroke-dasharray:2,2;" x1="1891.4365" x2="2746.9771" y1="1150.1797" y2="1150.1797"/><text fill="#000000" font-family="sans-serif" font-size="13" lengthAdjust="spacing" textLength="135.7256" x="1903.4365" y="1145.1138">Optional&lt;Pregunta&gt;</text></g><g class="message" data-entity-1="part6" data-entity-2="part5" id="msg30"><polygon fill="#181818" points="1637.9043,1175.3125,1627.9043,1179.3125,1637.9043,1183.3125,1633.9043,1179.3125" style="stroke:#181818;stroke-width:1;"/><line style="stroke:#181818;stroke-width:1;stroke-dasharray:2,2;" x1="1631.9043" x2="1880.4365" y1="1179.3125" y2="1179.3125"/><text fill="#000000" font-family="sans-serif" font-size="13" lengthAdjust="spacing" textLength="135.7256" x="1643.9043" y="1174.2466">Optional&lt;Pregunta&gt;</text></g><g class="message" data-entity-1="part5" data-entity-2="part5" id="msg31"><line style="stroke:#181818;stroke-width:1;" x1="1626.9043" x2="1668.9043" y1="1223.5781" y2="1223.5781"/><line style="stroke:#181818;stroke-width:1;" x1="1668.9043" x2="1668.9043" y1="1223.5781" y2="1236.5781"/><line style="stroke:#181818;stroke-width:1;" x1="1627.9043" x2="1668.9043" y1="1236.5781" y2="1236.5781"/><polygon fill="#181818" points="1637.9043,1232.5781,1627.9043,1236.5781,1637.9043,1240.5781,1633.9043,1236.5781" style="stroke:#181818;stroke-width:1;"/><text fill="#000000" font-family="sans-serif" font-size="13" lengthAdjust="spacing" textLength="220.4224" x="1633.9043" y="1203.3794">Verificar pertenencia de pregunta</text><text fill="#000000" font-family="sans-serif" font-size="13" lengthAdjust="spacing" textLength="146.4849" x="1633.9043" y="1218.5122">a docente autenticado</text></g><g class="message" data-entity-1="part5" data-entity-2="part4" id="msg32"><polygon fill="#181818" points="1311.1675,1261.7109,1301.1675,1265.7109,1311.1675,1269.7109,1307.1675,1265.7109" style="stroke:#181818;stroke-width:1;"/><line style="stroke:#181818;stroke-width:1;stroke-dasharray:2,2;" x1="1305.1675" x2="1620.9043" y1="1265.7109" y2="1265.7109"/><text fill="#000000" font-family="sans-serif" font-size="13" lengthAdjust="spacing" textLength="58.9761" x="1317.1675" y="1260.645">Pregunta</text></g><path d="M20,1280.7109 L84.4429,1280.7109 L84.4429,1287.8438 L74.4429,1297.8438 L20,1297.8438 L20,1280.7109" fill="#EEEEEE" style="stroke:#000000;stroke-width:1.5;"/><rect fill="none" height="323.2656" style="stroke:#000000;stroke-width:1.5;" width="2839.6401" x="20" y="1280.7109"/><text fill="#000000" font-family="sans-serif" font-size="13" font-weight="bold" lengthAdjust="spacing" textLength="19.4429" x="35" y="1293.7778">alt</text><text fill="#000000" font-family="sans-serif" font-size="11" font-weight="bold" lengthAdjust="spacing" textLength="298.1064" x="99.4429" y="1292.9214">[Pregunta No Existe o No Pertenece al Docente]</text><g class="message" data-entity-1="part4" data-entity-2="part3" id="msg33"><polygon fill="#181818" points="872.5698,1314.9766,862.5698,1318.9766,872.5698,1322.9766,868.5698,1318.9766" style="stroke:#181818;stroke-width:1;"/><line style="stroke:#181818;stroke-width:1;stroke-dasharray:2,2;" x1="866.5698" x2="1289.1675" y1="1318.9766" y2="1318.9766"/><text fill="#000000" font-family="sans-serif" font-size="13" lengthAdjust="spacing" textLength="203.0298" x="878.5698" y="1313.9106">throw UnauthorizedException()</text></g><g class="message" data-entity-1="part3" data-entity-2="part2" id="msg34"><polygon fill="#181818" points="446.6001,1344.1094,436.6001,1348.1094,446.6001,1352.1094,442.6001,1348.1094" style="stroke:#181818;stroke-width:1;"/><line style="stroke:#181818;stroke-width:1;stroke-dasharray:2,2;" x1="440.6001" x2="850.5698" y1="1348.1094" y2="1348.1094"/><text fill="#000000" font-family="sans-serif" font-size="13" lengthAdjust="spacing" textLength="94.3262" x="452.6001" y="1343.0435">403 Forbidden</text></g><g class="message" data-entity-1="part2" data-entity-2="part1" id="msg35"><polygon fill="#181818" points="73.3159,1373.2422,63.3159,1377.2422,73.3159,1381.2422,69.3159,1377.2422" style="stroke:#181818;stroke-width:1;"/><line style="stroke:#181818;stroke-width:1;stroke-dasharray:2,2;" x1="67.3159" x2="424.6001" y1="1377.2422" y2="1377.2422"/><text fill="#000000" font-family="sans-serif" font-size="13" lengthAdjust="spacing" textLength="165.5786" x="79.3159" y="1372.1763">Mostrar mensaje de error</text></g><line style="stroke:#000000;stroke-width:1;stroke-dasharray:2,2;" x1="20" x2="2859.6401" y1="1386.2422" y2="1386.2422"/><text fill="#000000" font-family="sans-serif" font-size="11" font-weight="bold" lengthAdjust="spacing" textLength="256.5342" x="25" y="1396.4526">[Pregunta Existe y Pertenece al Docente]</text><g class="message" data-entity-1="part4" data-entity-2="part7" id="msg36"><polygon fill="#181818" points="2031.9502,1417.1797,2041.9502,1421.1797,2031.9502,1425.1797,2035.9502,1421.1797" style="stroke:#181818;stroke-width:1;"/><line style="stroke:#181818;stroke-width:1;" x1="1300.1675" x2="2037.9502" y1="1421.1797" y2="1421.1797"/><text fill="#000000" font-family="sans-serif" font-size="13" lengthAdjust="spacing" textLength="483.8755" x="1307.1675" y="1416.1138">findByPreguntaIdAndContenidoContainingIgnoreCase(preguntaId, criterio)</text></g><g class="message" data-entity-1="part7" data-entity-2="part8" id="msg37"><polygon fill="#181818" points="2730.9771,1446.3125,2740.9771,1450.3125,2730.9771,1454.3125,2734.9771,1450.3125" style="stroke:#181818;stroke-width:1;"/><line style="stroke:#181818;stroke-width:1;" x1="2053.9502" x2="2736.9771" y1="1450.3125" y2="1450.3125"/><text fill="#000000" font-family="sans-serif" font-size="13" lengthAdjust="spacing" textLength="670.0269" x="2060.9502" y="1445.2466">SELECT * FROM respuestas WHERE pregunta_id = ? AND LOWER(contenido) LIKE '%' || LOWER(?) || '%'</text></g><g class="message" data-entity-1="part8" data-entity-2="part7" id="msg38"><polygon fill="#181818" points="2064.9502,1475.4453,2054.9502,1479.4453,2064.9502,1483.4453,2060.9502,1479.4453" style="stroke:#181818;stroke-width:1;"/><line style="stroke:#181818;stroke-width:1;stroke-dasharray:2,2;" x1="2058.9502" x2="2746.9771" y1="1479.4453" y2="1479.4453"/><text fill="#000000" font-family="sans-serif" font-size="13" lengthAdjust="spacing" textLength="112.6392" x="2070.9502" y="1474.3794">List&lt;Respuesta&gt;</text></g><g class="message" data-entity-1="part7" data-entity-2="part4" id="msg39"><polygon fill="#181818" points="1311.1675,1504.5781,1301.1675,1508.5781,1311.1675,1512.5781,1307.1675,1508.5781" style="stroke:#181818;stroke-width:1;"/><line style="stroke:#181818;stroke-width:1;stroke-dasharray:2,2;" x1="1305.1675" x2="2047.9502" y1="1508.5781" y2="1508.5781"/><text fill="#000000" font-family="sans-serif" font-size="13" lengthAdjust="spacing" textLength="112.6392" x="1317.1675" y="1503.5122">List&lt;Respuesta&gt;</text></g><g class="message" data-entity-1="part4" data-entity-2="part3" id="msg40"><polygon fill="#181818" points="872.5698,1533.7109,862.5698,1537.7109,872.5698,1541.7109,868.5698,1537.7109" style="stroke:#181818;stroke-width:1;"/><line style="stroke:#181818;stroke-width:1;stroke-dasharray:2,2;" x1="866.5698" x2="1284.1675" y1="1537.7109" y2="1537.7109"/><text fill="#000000" font-family="sans-serif" font-size="13" lengthAdjust="spacing" textLength="140.8228" x="878.5698" y="1532.645">List&lt;RespuestaDTO&gt;</text></g><g class="message" data-entity-1="part3" data-entity-2="part2" id="msg41"><polygon fill="#181818" points="446.6001,1562.8438,436.6001,1566.8438,446.6001,1570.8438,442.6001,1566.8438" style="stroke:#181818;stroke-width:1;"/><line style="stroke:#181818;stroke-width:1;stroke-dasharray:2,2;" x1="440.6001" x2="855.5698" y1="1566.8438" y2="1566.8438"/><text fill="#000000" font-family="sans-serif" font-size="13" lengthAdjust="spacing" textLength="238.9766" x="452.6001" y="1561.7778">200 OK (List&lt;RespuestaDTO&gt; JSON)</text></g><g class="message" data-entity-1="part2" data-entity-2="part1" id="msg42"><polygon fill="#181818" points="73.3159,1591.9766,63.3159,1595.9766,73.3159,1599.9766,69.3159,1595.9766" style="stroke:#181818;stroke-width:1;"/><line style="stroke:#181818;stroke-width:1;stroke-dasharray:2,2;" x1="67.3159" x2="424.6001" y1="1595.9766" y2="1595.9766"/><text fill="#000000" font-family="sans-serif" font-size="13" lengthAdjust="spacing" textLength="227.1763" x="79.3159" y="1590.9106">Mostrar lista filtrada de respuestas</text></g><?plantuml-src jLTjRnev4Fw-ls8KwLJeDKfqrqye9M9XQMbfu1PoqKcHAcVj4Dzjx9NNfCcrzzzlRFRDomA1j7o0NTlpp7ZccNaIpNNCOC39Gf5x0fJ1Z4LB9Y9Eu1Z-P0f2bYPBbcgIGckMA2uMu4kfuLVS8P5kUnv-ImL70naneTaHuCavRjqnvIL4QHxnX0WDHqCbSLzGQAqihqM9FUQfxilxH0h4i133mBKkp_OHHiauPieUB5yt6CoOUk3HAh3isJqvLMon5Ex1sbgpGSWIcNAy_PDZOvOtn5ApSDOzIZIv8Ic38zzyOp46H4lC-rIcUg7Ox8znsveDVC_BKWp7NKnL1tfHnD20m0EkgI9Nrw95MOeRqp1uVtanxttf-QCWd4z0GXZCffV1h5nhcrBo1wAPoVumCDXbTZlmFfZ32KduIOb_acHtFlcMFuteV-Zr0oFKsFIM-aug_Y_HN8eE-8me3F1Cot-Ow5OSLgfOFjO3O8zQ4LocAwgDAEOeXezNyvfDLhGEo1ia75CbTwPIvLLgbG6_AH4h8UMbptuDS8qLXODy7U57T2TmdLkrzweZmuiEt791_IS7kG7ESgZwOe06VWTcmJZep-4r3CF9PyWnKhZw48G1S0hluBo4Gt8DV3XU2sAIc1AI-2nVxdgKLQrSrqtPsWxHU8zjoSVnn6zvH1GaJ9awsB65PC-lU2r8NW0WIpo17KceX5QbAckEglp9Dvl2pAj7ObsimOM4u15d6SF-mkVfAYw49J5a0z83_5IzLHckxvJy2fU2P6t3QF0OCPksLjjQLfcUzVxRqzzXADKDfvG9UyZqBcvcCw83dt60ACpJFHCf-TkE5gQKL1wBq_96UUXFpuYxwywkdAFJWg0ELurfaK1tw9ajPwMPjUN8oMYRmtzPyHScuI08mVyB-UowGsQQzupJjQYDxfmLQrrxqcLrGtnLXkm0MB_hfigxG8FvfBkftB-TdiBa4xJMBU3ZR7BHhiTG6QtRk14ZdEqUHpqYgzcSoZV0K7cLOf4cRGzbtBFC7_BOMfSZrZgfgTD8e7ob12B5DJQjD6vkhIMLHL07Yisv1PBllkNWUyYFGvHQdWwHeNMxWYYhwpv3Yl9hEDhX19fFdbf3laYS70Vr4MSs3nEfHjYY5muMgoqDlbEqcbly8F6gGMsytyyGiMO7ZUAr8SngTGyIiPS9sRF5R2z1CuVt5RNzXAqdQ3yVYkQ1S87_58qMGYhMnx_R6vkvlF8MQVXHKjYx6C1uSXM4vVHkmtZqAO1Nlxo2xz-ppVEsUSQbzTYofjXFDviRwm3ztAcX1-Xe3RFA_PV8x7QftIstcGZMT7V5OfHOAxCL_67mFm00?></g></svg>