<svg xmlns="http://www.w3.org/2000/svg" xmlns:xlink="http://www.w3.org/1999/xlink" contentStyleType="text/css" data-diagram-type="STATE" height="587px" preserveAspectRatio="none" style="width:507px;height:587px;background:#FFFFFF;" version="1.1" viewBox="0 0 507 587" width="507px" zoomAndPan="magnify"><defs/><g><path d="M19.5,117 L481.5,117 A12.5,12.5 0 0 1 494,129.5 L494,143.2969 L7,143.2969 L7,129.5 A12.5,12.5 0 0 1 19.5,117" fill="#F1F1F1"/><rect fill="none" height="354.2969" rx="12.5" ry="12.5" style="stroke:#181818;stroke-width:0.5;" width="487" x="7" y="117"/><line style="stroke:#181818;stroke-width:0.5;" x1="7" x2="494" y1="143.2969" y2="143.2969"/><text fill="#000000" font-family="sans-serif" font-size="14" lengthAdjust="spacing" textLength="99.5039" x="200.748" y="134.9951">verDocentes()</text><g id="verDocentes.MostrandoDocentes"><rect fill="#F1F1F1" height="50" rx="12.5" ry="12.5" style="stroke:#181818;stroke-width:0.5;" width="50" x="19" y="245.2969"/><line style="stroke:#181818;stroke-width:0.5;" x1="19" x2="69" y1="271.5938" y2="271.5938"/><text fill="#000000" font-family="sans-serif" font-size="14" lengthAdjust="spacing" textLength="4.4502" x="41.7749" y="263.292">&#160;</text></g><g id="verDocentes.FiltrandoDocentes"><rect fill="#F1F1F1" height="50" rx="12.5" ry="12.5" style="stroke:#181818;stroke-width:0.5;" width="50" x="19" y="411.2969"/><line style="stroke:#181818;stroke-width:0.5;" x1="19" x2="69" y1="437.5938" y2="437.5938"/><text fill="#000000" font-family="sans-serif" font-size="14" lengthAdjust="spacing" textLength="4.4502" x="41.7749" y="429.292">&#160;</text></g><ellipse cx="44" cy="164.2969" fill="#222222" rx="10" ry="10" style="stroke:#222222;stroke-width:1;"/><!--link *start*verDocentes to MostrandoDocentes--><g class="link" data-entity-1=".start.verDocentes" data-entity-2="MostrandoDocentes" data-source-line="8" data-uid="lnk3" id="link_.start.verDocentes_MostrandoDocentes"><path d="M44,174.5269 C44,190.2369 44,216.6569 44,239.1669" fill="none" id="*start*verDocentes-to-MostrandoDocentes" style="stroke:#008000;stroke-width:1;"/><polygon fill="#008000" points="44,245.1669,48,236.1669,44,240.1669,40,236.1669,44,245.1669" style="stroke:#008000;stroke-width:1;"/><path d="M49,197.2969 L49,222.2969 L409,222.2969 L409,207.2969 L399,197.2969 L49,197.2969" fill="#FEFFDD" style="stroke:#181818;stroke-width:0.5;"/><path d="M399,197.2969 L399,207.2969 L409,207.2969 L399,197.2969" fill="#FEFFDD" style="stroke:#181818;stroke-width:0.5;"/><text fill="#000000" font-family="sans-serif" font-size="13" font-weight="bold" lengthAdjust="spacing" textLength="200.5542" x="55" y="214.3638">Administrador institucional</text><text fill="#000000" font-family="sans-serif" font-size="13" lengthAdjust="spacing" textLength="134.5322" x="259.6865" y="214.3638">solicita ver docentes</text></g><!--link MostrandoDocentes to FiltrandoDocentes--><g class="link" data-entity-1="MostrandoDocentes" data-entity-2="FiltrandoDocentes" data-source-line="13" data-uid="lnk4" id="link_MostrandoDocentes_FiltrandoDocentes"><path d="M44,295.4969 C44,326.5869 44,374.2469 44,405.2669" fill="none" id="MostrandoDocentes-to-FiltrandoDocentes" style="stroke:#008000;stroke-width:1;"/><polygon fill="#008000" points="44,411.2669,48,402.2669,44,406.2669,40,402.2669,44,411.2669" style="stroke:#008000;stroke-width:1;"/><path d="M49,318.2969 L49,388.2969 L485,388.2969 L485,328.2969 L475,318.2969 L49,318.2969" fill="#FEFFDD" style="stroke:#181818;stroke-width:0.5;"/><path d="M475,318.2969 L475,328.2969 L485,328.2969 L475,318.2969" fill="#FEFFDD" style="stroke:#181818;stroke-width:0.5;"/><text fill="#000000" font-family="sans-serif" font-size="13" font-weight="bold" lengthAdjust="spacing" textLength="58.9063" x="55" y="335.3638">Sistema</text><text fill="#000000" font-family="sans-serif" font-size="13" lengthAdjust="spacing" textLength="172.834" x="118.0386" y="335.3638">presenta lista de docentes</text><text fill="#000000" font-family="sans-serif" font-size="13" lengthAdjust="spacing" textLength="411.6836" x="55" y="350.4966">&#8226;  Nombre, apellidos, DNI, nombre de usuario, email, password</text><text fill="#000000" font-family="sans-serif" font-size="13" lengthAdjust="spacing" textLength="4.1323" x="55" y="365.6294">&#160;</text><text fill="#000000" font-family="sans-serif" font-size="13" lengthAdjust="spacing" textLength="188.481" x="55" y="380.7622">&#8226; Permite solicitar filtrar lista</text></g><!--link FiltrandoDocentes to FiltrandoDocentes--><g class="link" data-entity-1="FiltrandoDocentes" data-entity-2="FiltrandoDocentes" data-source-line="21" data-uid="lnk5" id="link_FiltrandoDocentes_FiltrandoDocentes"><path d="M69.18,420.9869 C78.91,420.2969 87,425.4069 87,436.2969 C87,447.1869 84.895,452.7213 75.165,452.0313" fill="none" id="FiltrandoDocentes-to-FiltrandoDocentes" style="stroke:#008000;stroke-width:1;"/><polygon fill="#008000" points="69.18,451.6069,77.8745,456.2335,74.1675,451.9606,78.4404,448.2535,69.18,451.6069" style="stroke:#008000;stroke-width:1;"/><path d="M92,416.2969 L92,456.2969 L434,456.2969 L434,426.2969 L424,416.2969 L92,416.2969" fill="#FEFFDD" style="stroke:#181818;stroke-width:0.5;"/><path d="M424,416.2969 L424,426.2969 L434,426.2969 L424,416.2969" fill="#FEFFDD" style="stroke:#181818;stroke-width:0.5;"/><text fill="#000000" font-family="sans-serif" font-size="13" font-weight="bold" lengthAdjust="spacing" textLength="200.5542" x="98" y="433.3638">Administrador institucional</text><text fill="#000000" font-family="sans-serif" font-size="13" lengthAdjust="spacing" textLength="116.6509" x="302.6865" y="433.3638">solicita filtrar lista</text><text fill="#000000" font-family="sans-serif" font-size="13" font-weight="bold" lengthAdjust="spacing" textLength="58.9063" x="98" y="448.4966">Sistema</text><text fill="#000000" font-family="sans-serif" font-size="13" lengthAdjust="spacing" textLength="139.4199" x="161.0386" y="448.4966">presenta lista filtrada</text></g><g id="SISTEMA_DISPONIBLE"><rect fill="#F1F1F1" height="50" rx="12.5" ry="12.5" style="stroke:#181818;stroke-width:0.5;" width="172.0654" x="64.5" y="7"/><line style="stroke:#181818;stroke-width:0.5;" x1="64.5" x2="236.5654" y1="33.2969" y2="33.2969"/><text fill="#000000" font-family="sans-serif" font-size="14" lengthAdjust="spacing" textLength="152.0654" x="74.5" y="24.9951">SISTEMA_DISPONIBLE</text></g><g id="DOCENTE_ABIERTO"><rect fill="#F1F1F1" height="50" rx="12.5" ry="12.5" style="stroke:#181818;stroke-width:0.5;" width="156.7461" x="272" y="7"/><line style="stroke:#181818;stroke-width:0.5;" x1="272" x2="428.7461" y1="33.2969" y2="33.2969"/><text fill="#000000" font-family="sans-serif" font-size="14" lengthAdjust="spacing" textLength="136.7461" x="282" y="24.9951">DOCENTE_ABIERTO</text></g><g id="DOCENTES_ABIERTO"><rect fill="#F1F1F1" height="50" rx="12.5" ry="12.5" style="stroke:#181818;stroke-width:0.5;" width="165.6328" x="167.5" y="531"/><line style="stroke:#181818;stroke-width:0.5;" x1="167.5" x2="333.1328" y1="557.2969" y2="557.2969"/><text fill="#000000" font-family="sans-serif" font-size="14" lengthAdjust="spacing" textLength="145.6328" x="177.5" y="548.9951">DOCENTES_ABIERTO</text></g><!--link SISTEMA_DISPONIBLE to verDocentes--><g class="link" data-entity-1="SISTEMA_DISPONIBLE" data-entity-2="verDocentes" data-source-line="28" data-uid="lnk7" id="link_SISTEMA_DISPONIBLE_verDocentes"><path d="M159.91,57.46 C165.74,72.63 171.6674,88.0294 180.6074,111.2894" fill="none" id="SISTEMA_DISPONIBLE-to-verDocentes" style="stroke:#008000;stroke-width:1;"/><polygon fill="#008000" points="182.76,116.89,183.2648,107.0541,180.9662,112.2229,175.7974,109.9242,182.76,116.89" style="stroke:#008000;stroke-width:1;"/></g><!--link DOCENTE_ABIERTO to verDocentes--><g class="link" data-entity-1="DOCENTE_ABIERTO" data-entity-2="verDocentes" data-source-line="30" data-uid="lnk9" id="link_DOCENTE_ABIERTO_verDocentes"><path d="M341.09,57.46 C335.26,72.63 329.3326,88.0294 320.3926,111.2894" fill="none" id="DOCENTE_ABIERTO-to-verDocentes" style="stroke:#008000;stroke-width:1;"/><polygon fill="#008000" points="318.24,116.89,325.2026,109.9242,320.0338,112.2229,317.7352,107.0541,318.24,116.89" style="stroke:#008000;stroke-width:1;"/></g><!--link verDocentes to DOCENTES_ABIERTO--><g class="link" data-entity-1="verDocentes" data-entity-2="DOCENTES_ABIERTO" data-source-line="32" data-uid="lnk11" id="link_verDocentes_DOCENTES_ABIERTO"><path d="M250.5,471.3 C250.5,494.67 250.5,509.74 250.5,524.89" fill="none" id="verDocentes-to-DOCENTES_ABIERTO" style="stroke:#008000;stroke-width:1;"/><polygon fill="#008000" points="250.5,530.89,254.5,521.89,250.5,525.89,246.5,521.89,250.5,530.89" style="stroke:#008000;stroke-width:1;"/></g><!--SRC=[dPBHIiCm58RlynI7UQFIuGkCmMOh55mtxEx6a6mvoc5fKf9C6IBuB3wQJsBIEirM9c82WOGlVxwJn6v8rTpm2YGfTBiQeTPo5oQCMSSTmXEQLAzHERJ0BVIY-Vb53ruO0zzQjkUxPoRQEiELq7kmYzoGF48QPd6vXFxYxD4WgcL_s4s21bFQ9saLf3VDmc0r78cA50LSQ0Eah2EtNPDMN0wkLaEmMjAQ70y5WOZ5K8asqJVsFNIFZiMw_gUyIk-45MySQeFMqzm3_ZP0uA78nzixGA6hbS44U8rIaj0sWRJ84vyTriEUhTroGpe17qioWPfR-woDYEH3qWnDHTvdNxY1XqRQjASVbFwpirFOFyl-ytDqfNw_j9ONH_wlZ9LvESyce_iqBsVJ8X_VPWVgqRzbB9rUPyKykn-Dy-nkFZqDnhy_Xhu2odt29m00]--></g></svg>