<?plantuml 1.2026.2?><svg xmlns="http://www.w3.org/2000/svg" xmlns:xlink="http://www.w3.org/1999/xlink" contentStyleType="text/css" data-diagram-type="SEQUENCE" height="1419px" preserveAspectRatio="none" style="width:2270px;height:1419px;background:#FFFFFF;" version="1.1" viewBox="0 0 2270 1419" width="2270px" zoomAndPan="magnify"><title>Diagrama de Secuencia - Eliminar Grado - Spring Boot + React</title><defs/><g><text fill="#000000" font-family="sans-serif" font-size="14" font-weight="bold" lengthAdjust="spacing" textLength="493.1924" x="889.5989" y="27.9951">Diagrama de Secuencia - Eliminar Grado - Spring Boot + React</text><g><title>Frontend .React.</title><rect fill="#FFFFFF" height="1179.1172" style="stroke:#181818;stroke-width:1;" width="10" x="376.8076" y="149.7266"/></g><g><title>GradosController</title><rect fill="#FFFFFF" height="872.9844" style="stroke:#181818;stroke-width:1;" width="10" x="673.6851" y="267.3906"/></g><g><title>GradoService</title><rect fill="#FFFFFF" height="814.7188" style="stroke:#181818;stroke-width:1;" width="10" x="904.1807" y="296.5234"/></g><g><title>AlumnoService</title><rect fill="#FFFFFF" height="73.3984" style="stroke:#181818;stroke-width:1;" width="10" x="1321.8984" y="768.6484"/></g><g><title>AsignaturaService</title><rect fill="#FFFFFF" height="116.5313" style="stroke:#181818;stroke-width:1;" width="10" x="1462.2461" y="466.3203"/></g><g><title>AsignaturaService</title><rect fill="#FFFFFF" height="73.3984" style="stroke:#181818;stroke-width:1;" width="10" x="1462.2461" y="885.1797"/></g><g><title>GradoRepository</title><rect fill="#FFFFFF" height="87.3984" style="stroke:#181818;stroke-width:1;" width="10" x="1608.8691" y="325.6563"/></g><g><title>GradoRepository</title><rect fill="#FFFFFF" height="87.3984" style="stroke:#181818;stroke-width:1;" width="10" x="1608.8691" y="994.7109"/></g><g><title>AsignaturaRepository</title><rect fill="#FFFFFF" height="58.2656" style="stroke:#181818;stroke-width:1;" width="10" x="1767.1577" y="495.4531"/></g><g><title>Base de Datos .PostgreSQL.</title><rect fill="#FFFFFF" height="29.1328" style="stroke:#181818;stroke-width:1;" width="10" x="2116.7271" y="354.7891"/></g><g><title>Base de Datos .PostgreSQL.</title><rect fill="#FFFFFF" height="29.1328" style="stroke:#181818;stroke-width:1;" width="10" x="2116.7271" y="1023.8438"/></g><rect fill="none" height="893.7891" style="stroke:#000000;stroke-width:1.5;" width="2253.3901" x="10" y="428.0547"/><rect fill="none" height="368.7266" style="stroke:#000000;stroke-width:1.5;" width="1428.3979" x="824.9922" y="597.8516"/><rect fill="none" height="192.9297" style="stroke:#000000;stroke-width:1.5;" width="1408.3979" x="834.9922" y="664.1172"/><rect fill="none" height="119.6641" style="stroke:#000000;stroke-width:1.5;" width="1388.3979" x="844.9922" y="730.3828"/><g class="participant-lifeline" data-entity-uid="part1" data-qualified-name="Teacher" id="part1-lifeline"><g><title>Docente</title><rect fill="#000000" fill-opacity="0.00000" height="1220.25" width="8" x="48.3159" y="118.5938"/><line style="stroke:#181818;stroke-width:0.5;stroke-dasharray:5,5;" x1="52" x2="52" y1="118.5938" y2="1338.8438"/></g></g><g class="participant-lifeline" data-entity-uid="part2" data-qualified-name="FE" id="part2-lifeline"><g><title>Frontend .React.</title><rect fill="#000000" fill-opacity="0.00000" height="1220.25" width="8" x="377.8076" y="118.5938"/><line style="stroke:#181818;stroke-width:0.5;stroke-dasharray:5,5;" x1="381.5127" x2="381.5127" y1="118.5938" y2="1338.8438"/></g></g><g class="participant-lifeline" data-entity-uid="part3" data-qualified-name="Controller" id="part3-lifeline"><g><title>GradosController</title><rect fill="#000000" fill-opacity="0.00000" height="1220.25" width="8" x="674.6851" y="118.5938"/><line style="stroke:#181818;stroke-width:0.5;stroke-dasharray:5,5;" x1="678.1338" x2="678.1338" y1="118.5938" y2="1338.8438"/></g></g><g class="participant-lifeline" data-entity-uid="part4" data-qualified-name="Service" id="part4-lifeline"><g><title>GradoService</title><rect fill="#000000" fill-opacity="0.00000" height="1220.25" width="8" x="905.1807" y="118.5938"/><line style="stroke:#181818;stroke-width:0.5;stroke-dasharray:5,5;" x1="908.9922" x2="908.9922" y1="118.5938" y2="1338.8438"/></g></g><g class="participant-lifeline" data-entity-uid="part5" data-qualified-name="AlumnoService" id="part5-lifeline"><g><title>AlumnoService</title><rect fill="#000000" fill-opacity="0.00000" height="1220.25" width="8" x="1322.8984" y="118.5938"/><line style="stroke:#181818;stroke-width:0.5;stroke-dasharray:5,5;" x1="1326.3198" x2="1326.3198" y1="118.5938" y2="1338.8438"/></g></g><g class="participant-lifeline" data-entity-uid="part6" data-qualified-name="AsignaturaService" id="part6-lifeline"><g><title>AsignaturaService</title><rect fill="#000000" fill-opacity="0.00000" height="1220.25" width="8" x="1463.2461" y="118.5938"/><line style="stroke:#181818;stroke-width:0.5;stroke-dasharray:5,5;" x1="1466.4771" x2="1466.4771" y1="118.5938" y2="1338.8438"/></g></g><g class="participant-lifeline" data-entity-uid="part7" data-qualified-name="Repo" id="part7-lifeline"><g><title>GradoRepository</title><rect fill="#000000" fill-opacity="0.00000" height="1220.25" width="8" x="1609.8691" y="118.5938"/><line style="stroke:#181818;stroke-width:0.5;stroke-dasharray:5,5;" x1="1613.0151" x2="1613.0151" y1="118.5938" y2="1338.8438"/></g></g><g class="participant-lifeline" data-entity-uid="part8" data-qualified-name="AsignaturaRepo" id="part8-lifeline"><g><title>AsignaturaRepository</title><rect fill="#000000" fill-opacity="0.00000" height="1220.25" width="8" x="1768.1577" y="118.5938"/><line style="stroke:#181818;stroke-width:0.5;stroke-dasharray:5,5;" x1="1771.7231" x2="1771.7231" y1="118.5938" y2="1338.8438"/></g></g><g class="participant-lifeline" data-entity-uid="part9" data-qualified-name="DB" id="part9-lifeline"><g><title>Base de Datos .PostgreSQL.</title><rect fill="#000000" fill-opacity="0.00000" height="1220.25" width="8" x="2117.7271" y="118.5938"/><line style="stroke:#181818;stroke-width:0.5;stroke-dasharray:5,5;" x1="2121.064" x2="2121.064" y1="118.5938" y2="1338.8438"/></g></g><g class="participant participant-head" data-entity-uid="part1" data-qualified-name="Teacher" id="part1-head"><text fill="#000000" font-family="sans-serif" font-size="14" lengthAdjust="spacing" textLength="58.6318" x="20" y="115.292">Docente</text><ellipse cx="52.3159" cy="50.7969" fill="#E2E2F0" rx="8" ry="8" style="stroke:#181818;stroke-width:0.5;"/><path d="M52.3159,58.7969 L52.3159,85.7969 M39.3159,66.7969 L65.3159,66.7969 M52.3159,85.7969 L39.3159,100.7969 M52.3159,85.7969 L65.3159,100.7969" fill="none" style="stroke:#181818;stroke-width:0.5;"/></g><g class="participant participant-tail" data-entity-uid="part1" data-qualified-name="Teacher" id="part1-tail"><text fill="#000000" font-family="sans-serif" font-size="14" lengthAdjust="spacing" textLength="58.6318" x="20" y="1350.8389">Docente</text><ellipse cx="52.3159" cy="1362.6406" fill="#E2E2F0" rx="8" ry="8" style="stroke:#181818;stroke-width:0.5;"/><path d="M52.3159,1370.6406 L52.3159,1397.6406 M39.3159,1378.6406 L65.3159,1378.6406 M52.3159,1397.6406 L39.3159,1412.6406 M52.3159,1397.6406 L65.3159,1412.6406" fill="none" style="stroke:#181818;stroke-width:0.5;"/></g><g class="participant participant-head" data-entity-uid="part2" data-qualified-name="FE" id="part2-head"><rect fill="#E2E2F0" height="30.2969" rx="2.5" ry="2.5" style="stroke:#181818;stroke-width:0.5;" width="132.5898" x="315.5127" y="87.2969"/><text fill="#000000" font-family="sans-serif" font-size="14" lengthAdjust="spacing" textLength="118.5898" x="322.5127" y="107.292">Frontend (React)</text></g><g class="participant participant-tail" data-entity-uid="part2" data-qualified-name="FE" id="part2-tail"><rect fill="#E2E2F0" height="30.2969" rx="2.5" ry="2.5" style="stroke:#181818;stroke-width:0.5;" width="132.5898" x="315.5127" y="1337.8438"/><text fill="#000000" font-family="sans-serif" font-size="14" lengthAdjust="spacing" textLength="118.5898" x="322.5127" y="1357.8389">Frontend (React)</text></g><g class="participant participant-head" data-entity-uid="part3" data-qualified-name="Controller" id="part3-head"><rect fill="#E2E2F0" height="30.2969" rx="2.5" ry="2.5" style="stroke:#181818;stroke-width:0.5;" width="133.1025" x="612.1338" y="87.2969"/><text fill="#000000" font-family="sans-serif" font-size="14" lengthAdjust="spacing" textLength="119.1025" x="619.1338" y="107.292">GradosController</text></g><g class="participant participant-tail" data-entity-uid="part3" data-qualified-name="Controller" id="part3-tail"><rect fill="#E2E2F0" height="30.2969" rx="2.5" ry="2.5" style="stroke:#181818;stroke-width:0.5;" width="133.1025" x="612.1338" y="1337.8438"/><text fill="#000000" font-family="sans-serif" font-size="14" lengthAdjust="spacing" textLength="119.1025" x="619.1338" y="1357.8389">GradosController</text></g><g class="participant participant-head" data-entity-uid="part4" data-qualified-name="Service" id="part4-head"><rect fill="#E2E2F0" height="30.2969" rx="2.5" ry="2.5" style="stroke:#181818;stroke-width:0.5;" width="108.377" x="854.9922" y="87.2969"/><text fill="#000000" font-family="sans-serif" font-size="14" lengthAdjust="spacing" textLength="94.377" x="861.9922" y="107.292">GradoService</text></g><g class="participant participant-tail" data-entity-uid="part4" data-qualified-name="Service" id="part4-tail"><rect fill="#E2E2F0" height="30.2969" rx="2.5" ry="2.5" style="stroke:#181818;stroke-width:0.5;" width="108.377" x="854.9922" y="1337.8438"/><text fill="#000000" font-family="sans-serif" font-size="14" lengthAdjust="spacing" textLength="94.377" x="861.9922" y="1357.8389">GradoService</text></g><g class="participant participant-head" data-entity-uid="part5" data-qualified-name="AlumnoService" id="part5-head"><rect fill="#E2E2F0" height="30.2969" rx="2.5" ry="2.5" style="stroke:#181818;stroke-width:0.5;" width="119.1572" x="1267.3198" y="87.2969"/><text fill="#000000" font-family="sans-serif" font-size="14" lengthAdjust="spacing" textLength="105.1572" x="1274.3198" y="107.292">AlumnoService</text></g><g class="participant participant-tail" data-entity-uid="part5" data-qualified-name="AlumnoService" id="part5-tail"><rect fill="#E2E2F0" height="30.2969" rx="2.5" ry="2.5" style="stroke:#181818;stroke-width:0.5;" width="119.1572" x="1267.3198" y="1337.8438"/><text fill="#000000" font-family="sans-serif" font-size="14" lengthAdjust="spacing" textLength="105.1572" x="1274.3198" y="1357.8389">AlumnoService</text></g><g class="participant participant-head" data-entity-uid="part6" data-qualified-name="AsignaturaService" id="part6-head"><rect fill="#E2E2F0" height="30.2969" rx="2.5" ry="2.5" style="stroke:#181818;stroke-width:0.5;" width="141.5381" x="1396.4771" y="87.2969"/><text fill="#000000" font-family="sans-serif" font-size="14" lengthAdjust="spacing" textLength="127.5381" x="1403.4771" y="107.292">AsignaturaService</text></g><g class="participant participant-tail" data-entity-uid="part6" data-qualified-name="AsignaturaService" id="part6-tail"><rect fill="#E2E2F0" height="30.2969" rx="2.5" ry="2.5" style="stroke:#181818;stroke-width:0.5;" width="141.5381" x="1396.4771" y="1337.8438"/><text fill="#000000" font-family="sans-serif" font-size="14" lengthAdjust="spacing" textLength="127.5381" x="1403.4771" y="1357.8389">AsignaturaService</text></g><g class="participant participant-head" data-entity-uid="part7" data-qualified-name="Repo" id="part7-head"><rect fill="#E2E2F0" height="30.2969" rx="2.5" ry="2.5" style="stroke:#181818;stroke-width:0.5;" width="131.708" x="1548.0151" y="87.2969"/><text fill="#000000" font-family="sans-serif" font-size="14" lengthAdjust="spacing" textLength="117.708" x="1555.0151" y="107.292">GradoRepository</text></g><g class="participant participant-tail" data-entity-uid="part7" data-qualified-name="Repo" id="part7-tail"><rect fill="#E2E2F0" height="30.2969" rx="2.5" ry="2.5" style="stroke:#181818;stroke-width:0.5;" width="131.708" x="1548.0151" y="1337.8438"/><text fill="#000000" font-family="sans-serif" font-size="14" lengthAdjust="spacing" textLength="117.708" x="1555.0151" y="1357.8389">GradoRepository</text></g><g class="participant participant-head" data-entity-uid="part8" data-qualified-name="AsignaturaRepo" id="part8-head"><rect fill="#E2E2F0" height="30.2969" rx="2.5" ry="2.5" style="stroke:#181818;stroke-width:0.5;" width="164.8691" x="1689.7231" y="87.2969"/><text fill="#000000" font-family="sans-serif" font-size="14" lengthAdjust="spacing" textLength="150.8691" x="1696.7231" y="107.292">AsignaturaRepository</text></g><g class="participant participant-tail" data-entity-uid="part8" data-qualified-name="AsignaturaRepo" id="part8-tail"><rect fill="#E2E2F0" height="30.2969" rx="2.5" ry="2.5" style="stroke:#181818;stroke-width:0.5;" width="164.8691" x="1689.7231" y="1337.8438"/><text fill="#000000" font-family="sans-serif" font-size="14" lengthAdjust="spacing" textLength="150.8691" x="1696.7231" y="1357.8389">AsignaturaRepository</text></g><g class="participant participant-head" data-entity-uid="part9" data-qualified-name="DB" id="part9-head"><text fill="#000000" font-family="sans-serif" font-size="14" lengthAdjust="spacing" textLength="197.3262" x="2020.064" y="115.292">Base de Datos (PostgreSQL)</text><path d="M2103.7271,66.2969 C2103.7271,56.2969 2121.7271,56.2969 2121.7271,56.2969 C2121.7271,56.2969 2139.7271,56.2969 2139.7271,66.2969 L2139.7271,92.2969 C2139.7271,102.2969 2121.7271,102.2969 2121.7271,102.2969 C2121.7271,102.2969 2103.7271,102.2969 2103.7271,92.2969 L2103.7271,66.2969" fill="#E2E2F0" style="stroke:#181818;stroke-width:0.5;"/><path d="M2103.7271,66.2969 C2103.7271,76.2969 2121.7271,76.2969 2121.7271,76.2969 C2121.7271,76.2969 2139.7271,76.2969 2139.7271,66.2969" fill="none" style="stroke:#181818;stroke-width:0.5;"/></g><g class="participant participant-tail" data-entity-uid="part9" data-qualified-name="DB" id="part9-tail"><text fill="#000000" font-family="sans-serif" font-size="14" lengthAdjust="spacing" textLength="197.3262" x="2020.064" y="1350.8389">Base de Datos (PostgreSQL)</text><path d="M2103.7271,1364.1406 C2103.7271,1354.1406 2121.7271,1354.1406 2121.7271,1354.1406 C2121.7271,1354.1406 2139.7271,1354.1406 2139.7271,1364.1406 L2139.7271,1390.1406 C2139.7271,1400.1406 2121.7271,1400.1406 2121.7271,1400.1406 C2121.7271,1400.1406 2103.7271,1400.1406 2103.7271,1390.1406 L2103.7271,1364.1406" fill="#E2E2F0" style="stroke:#181818;stroke-width:0.5;"/><path d="M2103.7271,1364.1406 C2103.7271,1374.1406 2121.7271,1374.1406 2121.7271,1374.1406 C2121.7271,1374.1406 2139.7271,1374.1406 2139.7271,1364.1406" fill="none" style="stroke:#181818;stroke-width:0.5;"/></g><g><title>Frontend .React.</title><rect fill="#FFFFFF" height="1179.1172" style="stroke:#181818;stroke-width:1;" width="10" x="376.8076" y="149.7266"/></g><g><title>GradosController</title><rect fill="#FFFFFF" height="872.9844" style="stroke:#181818;stroke-width:1;" width="10" x="673.6851" y="267.3906"/></g><g><title>GradoService</title><rect fill="#FFFFFF" height="814.7188" style="stroke:#181818;stroke-width:1;" width="10" x="904.1807" y="296.5234"/></g><g><title>AlumnoService</title><rect fill="#FFFFFF" height="73.3984" style="stroke:#181818;stroke-width:1;" width="10" x="1321.8984" y="768.6484"/></g><g><title>AsignaturaService</title><rect fill="#FFFFFF" height="116.5313" style="stroke:#181818;stroke-width:1;" width="10" x="1462.2461" y="466.3203"/></g><g><title>AsignaturaService</title><rect fill="#FFFFFF" height="73.3984" style="stroke:#181818;stroke-width:1;" width="10" x="1462.2461" y="885.1797"/></g><g><title>GradoRepository</title><rect fill="#FFFFFF" height="87.3984" style="stroke:#181818;stroke-width:1;" width="10" x="1608.8691" y="325.6563"/></g><g><title>GradoRepository</title><rect fill="#FFFFFF" height="87.3984" style="stroke:#181818;stroke-width:1;" width="10" x="1608.8691" y="994.7109"/></g><g><title>AsignaturaRepository</title><rect fill="#FFFFFF" height="58.2656" style="stroke:#181818;stroke-width:1;" width="10" x="1767.1577" y="495.4531"/></g><g><title>Base de Datos .PostgreSQL.</title><rect fill="#FFFFFF" height="29.1328" style="stroke:#181818;stroke-width:1;" width="10" x="2116.7271" y="354.7891"/></g><g><title>Base de Datos .PostgreSQL.</title><rect fill="#FFFFFF" height="29.1328" style="stroke:#181818;stroke-width:1;" width="10" x="2116.7271" y="1023.8438"/></g><g class="message" data-entity-1="part1" data-entity-2="part2" id="msg1"><polygon fill="#181818" points="364.8076,145.7266,374.8076,149.7266,364.8076,153.7266,368.8076,149.7266" style="stroke:#181818;stroke-width:1;"/><line style="stroke:#181818;stroke-width:1;" x1="52.3159" x2="370.8076" y1="149.7266" y2="149.7266"/><text fill="#000000" font-family="sans-serif" font-size="13" lengthAdjust="spacing" textLength="196.1616" x="59.3159" y="144.6606">Clic en "Eliminar" (en una fila)</text></g><g class="message" data-entity-1="part2" data-entity-2="part1" id="msg2"><polygon fill="#181818" points="63.3159,189.9922,53.3159,193.9922,63.3159,197.9922,59.3159,193.9922" style="stroke:#181818;stroke-width:1;"/><line style="stroke:#181818;stroke-width:1;stroke-dasharray:2,2;" x1="57.3159" x2="375.8076" y1="193.9922" y2="193.9922"/><text fill="#000000" font-family="sans-serif" font-size="13" lengthAdjust="spacing" textLength="267.3633" x="69.3159" y="173.7935">Mostrar Di&#225;logo de Confirmaci&#243;n (Modal)</text><text fill="#000000" font-family="sans-serif" font-size="13" lengthAdjust="spacing" textLength="129.4097" x="69.3159" y="188.9263">con datos del grado</text></g><g class="message" data-entity-1="part1" data-entity-2="part2" id="msg3"><polygon fill="#181818" points="364.8076,219.125,374.8076,223.125,364.8076,227.125,368.8076,223.125" style="stroke:#181818;stroke-width:1;"/><line style="stroke:#181818;stroke-width:1;" x1="52.3159" x2="370.8076" y1="223.125" y2="223.125"/><text fill="#000000" font-family="sans-serif" font-size="13" lengthAdjust="spacing" textLength="138.2202" x="59.3159" y="218.0591">Confirma eliminaci&#243;n</text></g><g class="message" data-entity-1="part2" data-entity-2="part3" id="msg4"><polygon fill="#181818" points="661.6851,263.3906,671.6851,267.3906,661.6851,271.3906,665.6851,267.3906" style="stroke:#181818;stroke-width:1;"/><line style="stroke:#181818;stroke-width:1;" x1="386.8076" x2="667.6851" y1="267.3906" y2="267.3906"/><text fill="#000000" font-family="sans-serif" font-size="13" lengthAdjust="spacing" textLength="159.8848" x="393.8076" y="247.1919">DELETE /api/grados/{id}</text><text fill="#000000" font-family="sans-serif" font-size="13" lengthAdjust="spacing" textLength="267.8774" x="393.8076" y="262.3247">(Header: Authorization: Bearer &lt;token&gt;)</text></g><g class="message" data-entity-1="part3" data-entity-2="part4" id="msg5"><polygon fill="#181818" points="892.1807,292.5234,902.1807,296.5234,892.1807,300.5234,896.1807,296.5234" style="stroke:#181818;stroke-width:1;"/><line style="stroke:#181818;stroke-width:1;" x1="683.6851" x2="898.1807" y1="296.5234" y2="296.5234"/><text fill="#000000" font-family="sans-serif" font-size="13" lengthAdjust="spacing" textLength="187.6812" x="690.6851" y="291.4575">eliminarGrado(id, docenteId)</text></g><g class="message" data-entity-1="part4" data-entity-2="part7" id="msg6"><polygon fill="#181818" points="1596.8691,321.6563,1606.8691,325.6563,1596.8691,329.6563,1600.8691,325.6563" style="stroke:#181818;stroke-width:1;"/><line style="stroke:#181818;stroke-width:1;" x1="914.1807" x2="1602.8691" y1="325.6563" y2="325.6563"/><text fill="#000000" font-family="sans-serif" font-size="13" lengthAdjust="spacing" textLength="75.3848" x="921.1807" y="320.5903">findById(id)</text></g><g class="message" data-entity-1="part7" data-entity-2="part9" id="msg7"><polygon fill="#181818" points="2104.7271,350.7891,2114.7271,354.7891,2104.7271,358.7891,2108.7271,354.7891" style="stroke:#181818;stroke-width:1;"/><line style="stroke:#181818;stroke-width:1;" x1="1618.8691" x2="2110.7271" y1="354.7891" y2="354.7891"/><text fill="#000000" font-family="sans-serif" font-size="13" lengthAdjust="spacing" textLength="244.6133" x="1625.8691" y="349.7231">SELECT * FROM grados WHERE id = ?</text></g><g class="message" data-entity-1="part9" data-entity-2="part7" id="msg8"><polygon fill="#181818" points="1629.8691,379.9219,1619.8691,383.9219,1629.8691,387.9219,1625.8691,383.9219" style="stroke:#181818;stroke-width:1;"/><line style="stroke:#181818;stroke-width:1;stroke-dasharray:2,2;" x1="1623.8691" x2="2120.7271" y1="383.9219" y2="383.9219"/><text fill="#000000" font-family="sans-serif" font-size="13" lengthAdjust="spacing" textLength="116.3398" x="1635.8691" y="378.856">Optional&lt;Grado&gt;</text></g><g class="message" data-entity-1="part7" data-entity-2="part4" id="msg9"><polygon fill="#181818" points="925.1807,409.0547,915.1807,413.0547,925.1807,417.0547,921.1807,413.0547" style="stroke:#181818;stroke-width:1;"/><line style="stroke:#181818;stroke-width:1;stroke-dasharray:2,2;" x1="919.1807" x2="1612.8691" y1="413.0547" y2="413.0547"/><text fill="#000000" font-family="sans-serif" font-size="13" lengthAdjust="spacing" textLength="116.3398" x="931.1807" y="407.9888">Optional&lt;Grado&gt;</text></g><path d="M10,428.0547 L74.4429,428.0547 L74.4429,435.1875 L64.4429,445.1875 L10,445.1875 L10,428.0547" fill="#EEEEEE" style="stroke:#000000;stroke-width:1.5;"/><rect fill="none" height="893.7891" style="stroke:#000000;stroke-width:1.5;" width="2253.3901" x="10" y="428.0547"/><text fill="#000000" font-family="sans-serif" font-size="13" font-weight="bold" lengthAdjust="spacing" textLength="19.4429" x="25" y="441.1216">alt</text><text fill="#000000" font-family="sans-serif" font-size="11" font-weight="bold" lengthAdjust="spacing" textLength="236.6772" x="89.4429" y="440.2651">[Grado Existe y Pertenece al Docente]</text><g class="message" data-entity-1="part4" data-entity-2="part6" id="msg10"><polygon fill="#181818" points="1450.2461,462.3203,1460.2461,466.3203,1450.2461,470.3203,1454.2461,466.3203" style="stroke:#181818;stroke-width:1;"/><line style="stroke:#181818;stroke-width:1;" x1="914.1807" x2="1456.2461" y1="466.3203" y2="466.3203"/><text fill="#000000" font-family="sans-serif" font-size="13" lengthAdjust="spacing" textLength="248.7646" x="921.1807" y="461.2544">obtenerAsignaturasPorGrado(gradoId)</text></g><g class="message" data-entity-1="part6" data-entity-2="part8" id="msg11"><polygon fill="#181818" points="1755.1577,491.4531,1765.1577,495.4531,1755.1577,499.4531,1759.1577,495.4531" style="stroke:#181818;stroke-width:1;"/><line style="stroke:#181818;stroke-width:1;" x1="1472.2461" x2="1761.1577" y1="495.4531" y2="495.4531"/><text fill="#000000" font-family="sans-serif" font-size="13" lengthAdjust="spacing" textLength="159.7388" x="1479.2461" y="490.3872">findByGradosId(gradoId)</text></g><g class="message" data-entity-1="part8" data-entity-2="part9" id="msg12"><polygon fill="#181818" points="2109.7271,520.5859,2119.7271,524.5859,2109.7271,528.5859,2113.7271,524.5859" style="stroke:#181818;stroke-width:1;"/><line style="stroke:#181818;stroke-width:1;" x1="1777.1577" x2="2115.7271" y1="524.5859" y2="524.5859"/><text fill="#000000" font-family="sans-serif" font-size="13" lengthAdjust="spacing" textLength="320.5693" x="1784.1577" y="519.52">SELECT * FROM asignaturas WHERE grado_id = ?</text></g><g class="message" data-entity-1="part8" data-entity-2="part6" id="msg13"><polygon fill="#181818" points="1483.2461,549.7188,1473.2461,553.7188,1483.2461,557.7188,1479.2461,553.7188" style="stroke:#181818;stroke-width:1;"/><line style="stroke:#181818;stroke-width:1;stroke-dasharray:2,2;" x1="1477.2461" x2="1771.1577" y1="553.7188" y2="553.7188"/><text fill="#000000" font-family="sans-serif" font-size="13" lengthAdjust="spacing" textLength="114.8926" x="1489.2461" y="548.6528">List&lt;Asignatura&gt;</text></g><g class="message" data-entity-1="part6" data-entity-2="part4" id="msg14"><polygon fill="#181818" points="925.1807,578.8516,915.1807,582.8516,925.1807,586.8516,921.1807,582.8516" style="stroke:#181818;stroke-width:1;"/><line style="stroke:#181818;stroke-width:1;stroke-dasharray:2,2;" x1="919.1807" x2="1466.2461" y1="582.8516" y2="582.8516"/><text fill="#000000" font-family="sans-serif" font-size="13" lengthAdjust="spacing" textLength="114.8926" x="931.1807" y="577.7856">List&lt;Asignatura&gt;</text></g><path d="M824.9922,597.8516 L901.6162,597.8516 L901.6162,604.9844 L891.6162,614.9844 L824.9922,614.9844 L824.9922,597.8516" fill="#EEEEEE" style="stroke:#000000;stroke-width:1.5;"/><rect fill="none" height="368.7266" style="stroke:#000000;stroke-width:1.5;" width="1428.3979" x="824.9922" y="597.8516"/><text fill="#000000" font-family="sans-serif" font-size="13" font-weight="bold" lengthAdjust="spacing" textLength="31.624" x="839.9922" y="610.9185">loop</text><text fill="#000000" font-family="sans-serif" font-size="11" font-weight="bold" lengthAdjust="spacing" textLength="142.0923" x="916.6162" y="610.062">[Para cada asignatura]</text><g class="message" data-entity-1="part4" data-entity-2="part4" id="msg15"><line style="stroke:#181818;stroke-width:1;" x1="914.1807" x2="956.1807" y1="636.1172" y2="636.1172"/><line style="stroke:#181818;stroke-width:1;" x1="956.1807" x2="956.1807" y1="636.1172" y2="649.1172"/><line style="stroke:#181818;stroke-width:1;" x1="915.1807" x2="956.1807" y1="649.1172" y2="649.1172"/><polygon fill="#181818" points="925.1807,645.1172,915.1807,649.1172,925.1807,653.1172,921.1807,649.1172" style="stroke:#181818;stroke-width:1;"/><text fill="#000000" font-family="sans-serif" font-size="13" lengthAdjust="spacing" textLength="161.4526" x="921.1807" y="631.0513">asignatura.getAlumnos()</text></g><path d="M834.9922,664.1172 L911.6162,664.1172 L911.6162,671.25 L901.6162,681.25 L834.9922,681.25 L834.9922,664.1172" fill="#EEEEEE" style="stroke:#000000;stroke-width:1.5;"/><rect fill="none" height="192.9297" style="stroke:#000000;stroke-width:1.5;" width="1408.3979" x="834.9922" y="664.1172"/><text fill="#000000" font-family="sans-serif" font-size="13" font-weight="bold" lengthAdjust="spacing" textLength="31.624" x="849.9922" y="677.1841">loop</text><text fill="#000000" font-family="sans-serif" font-size="11" font-weight="bold" lengthAdjust="spacing" textLength="225.9834" x="926.6162" y="676.3276">[Para cada alumno de la asignatura]</text><g class="message" data-entity-1="part4" data-entity-2="part4" id="msg16"><line style="stroke:#181818;stroke-width:1;" x1="914.1807" x2="956.1807" y1="702.3828" y2="702.3828"/><line style="stroke:#181818;stroke-width:1;" x1="956.1807" x2="956.1807" y1="702.3828" y2="715.3828"/><line style="stroke:#181818;stroke-width:1;" x1="915.1807" x2="956.1807" y1="715.3828" y2="715.3828"/><polygon fill="#181818" points="925.1807,711.3828,915.1807,715.3828,925.1807,719.3828,921.1807,715.3828" style="stroke:#181818;stroke-width:1;"/><text fill="#000000" font-family="sans-serif" font-size="13" lengthAdjust="spacing" textLength="285.4668" x="921.1807" y="697.3169">alumno.getGrado().getId().equals(gradoId)?</text></g><path d="M844.9922,730.3828 L909.4351,730.3828 L909.4351,737.5156 L899.4351,747.5156 L844.9922,747.5156 L844.9922,730.3828" fill="#EEEEEE" style="stroke:#000000;stroke-width:1.5;"/><rect fill="none" height="119.6641" style="stroke:#000000;stroke-width:1.5;" width="1388.3979" x="844.9922" y="730.3828"/><text fill="#000000" font-family="sans-serif" font-size="13" font-weight="bold" lengthAdjust="spacing" textLength="19.4429" x="859.9922" y="743.4497">alt</text><text fill="#000000" font-family="sans-serif" font-size="11" font-weight="bold" lengthAdjust="spacing" textLength="178.605" x="924.4351" y="742.5933">[Alumno pertenece al grado]</text><g class="message" data-entity-1="part4" data-entity-2="part5" id="msg17"><polygon fill="#181818" points="1309.8984,764.6484,1319.8984,768.6484,1309.8984,772.6484,1313.8984,768.6484" style="stroke:#181818;stroke-width:1;"/><line style="stroke:#181818;stroke-width:1;" x1="914.1807" x2="1315.8984" y1="768.6484" y2="768.6484"/><text fill="#000000" font-family="sans-serif" font-size="13" lengthAdjust="spacing" textLength="388.7178" x="921.1807" y="763.5825">desmatricularAlumnoDeAsignatura(alumnoId, asignaturaId)</text></g><g class="message" data-entity-1="part5" data-entity-2="part9" id="msg18"><polygon fill="#181818" points="2109.7271,808.9141,2119.7271,812.9141,2109.7271,816.9141,2113.7271,812.9141" style="stroke:#181818;stroke-width:1;"/><line style="stroke:#181818;stroke-width:1;" x1="1331.8984" x2="2115.7271" y1="812.9141" y2="812.9141"/><text fill="#000000" font-family="sans-serif" font-size="13" lengthAdjust="spacing" textLength="181.1748" x="1338.8984" y="792.7153">UPDATE alumno_asignatura</text><text fill="#000000" font-family="sans-serif" font-size="13" lengthAdjust="spacing" textLength="121.145" x="1338.8984" y="807.8481">(remover relaci&#243;n)</text></g><g class="message" data-entity-1="part5" data-entity-2="part4" id="msg19"><polygon fill="#181818" points="925.1807,838.0469,915.1807,842.0469,925.1807,846.0469,921.1807,842.0469" style="stroke:#181818;stroke-width:1;"/><line style="stroke:#181818;stroke-width:1;stroke-dasharray:2,2;" x1="919.1807" x2="1325.8984" y1="842.0469" y2="842.0469"/><text fill="#000000" font-family="sans-serif" font-size="13" lengthAdjust="spacing" textLength="27.5107" x="931.1807" y="836.981">void</text></g><g class="message" data-entity-1="part4" data-entity-2="part6" id="msg20"><polygon fill="#181818" points="1450.2461,881.1797,1460.2461,885.1797,1450.2461,889.1797,1454.2461,885.1797" style="stroke:#181818;stroke-width:1;"/><line style="stroke:#181818;stroke-width:1;" x1="914.1807" x2="1456.2461" y1="885.1797" y2="885.1797"/><text fill="#000000" font-family="sans-serif" font-size="13" lengthAdjust="spacing" textLength="298.0034" x="921.1807" y="880.1138">eliminarRelacionGrado(gradoId, asignaturaId)</text></g><g class="message" data-entity-1="part6" data-entity-2="part9" id="msg21"><polygon fill="#181818" points="2109.7271,925.4453,2119.7271,929.4453,2109.7271,933.4453,2113.7271,929.4453" style="stroke:#181818;stroke-width:1;"/><line style="stroke:#181818;stroke-width:1;" x1="1472.2461" x2="2115.7271" y1="929.4453" y2="929.4453"/><text fill="#000000" font-family="sans-serif" font-size="13" lengthAdjust="spacing" textLength="170.2695" x="1479.2461" y="909.2466">UPDATE asignatura_grado</text><text fill="#000000" font-family="sans-serif" font-size="13" lengthAdjust="spacing" textLength="121.145" x="1479.2461" y="924.3794">(remover relaci&#243;n)</text></g><g class="message" data-entity-1="part6" data-entity-2="part4" id="msg22"><polygon fill="#181818" points="925.1807,954.5781,915.1807,958.5781,925.1807,962.5781,921.1807,958.5781" style="stroke:#181818;stroke-width:1;"/><line style="stroke:#181818;stroke-width:1;stroke-dasharray:2,2;" x1="919.1807" x2="1466.2461" y1="958.5781" y2="958.5781"/><text fill="#000000" font-family="sans-serif" font-size="13" lengthAdjust="spacing" textLength="27.5107" x="931.1807" y="953.5122">void</text></g><g class="message" data-entity-1="part4" data-entity-2="part7" id="msg23"><polygon fill="#181818" points="1596.8691,990.7109,1606.8691,994.7109,1596.8691,998.7109,1600.8691,994.7109" style="stroke:#181818;stroke-width:1;"/><line style="stroke:#181818;stroke-width:1;" x1="914.1807" x2="1602.8691" y1="994.7109" y2="994.7109"/><text fill="#000000" font-family="sans-serif" font-size="13" lengthAdjust="spacing" textLength="91.6602" x="921.1807" y="989.645">deleteById(id)</text></g><g class="message" data-entity-1="part7" data-entity-2="part9" id="msg24"><polygon fill="#181818" points="2104.7271,1019.8438,2114.7271,1023.8438,2104.7271,1027.8438,2108.7271,1023.8438" style="stroke:#181818;stroke-width:1;"/><line style="stroke:#181818;stroke-width:1;" x1="1618.8691" x2="2110.7271" y1="1023.8438" y2="1023.8438"/><text fill="#000000" font-family="sans-serif" font-size="13" lengthAdjust="spacing" textLength="234.876" x="1625.8691" y="1018.7778">DELETE FROM grados WHERE id = ?</text></g><g class="message" data-entity-1="part9" data-entity-2="part7" id="msg25"><polygon fill="#181818" points="1629.8691,1048.9766,1619.8691,1052.9766,1629.8691,1056.9766,1625.8691,1052.9766" style="stroke:#181818;stroke-width:1;"/><line style="stroke:#181818;stroke-width:1;stroke-dasharray:2,2;" x1="1623.8691" x2="2120.7271" y1="1052.9766" y2="1052.9766"/><text fill="#000000" font-family="sans-serif" font-size="13" lengthAdjust="spacing" textLength="18.7573" x="1635.8691" y="1047.9106">OK</text></g><g class="message" data-entity-1="part7" data-entity-2="part4" id="msg26"><polygon fill="#181818" points="925.1807,1078.1094,915.1807,1082.1094,925.1807,1086.1094,921.1807,1082.1094" style="stroke:#181818;stroke-width:1;"/><line style="stroke:#181818;stroke-width:1;stroke-dasharray:2,2;" x1="919.1807" x2="1612.8691" y1="1082.1094" y2="1082.1094"/><text fill="#000000" font-family="sans-serif" font-size="13" lengthAdjust="spacing" textLength="27.5107" x="931.1807" y="1077.0435">void</text></g><g class="message" data-entity-1="part4" data-entity-2="part3" id="msg27"><polygon fill="#181818" points="694.6851,1107.2422,684.6851,1111.2422,694.6851,1115.2422,690.6851,1111.2422" style="stroke:#181818;stroke-width:1;"/><line style="stroke:#181818;stroke-width:1;stroke-dasharray:2,2;" x1="688.6851" x2="908.1807" y1="1111.2422" y2="1111.2422"/><text fill="#000000" font-family="sans-serif" font-size="13" lengthAdjust="spacing" textLength="27.5107" x="700.6851" y="1106.1763">void</text></g><g class="message" data-entity-1="part3" data-entity-2="part2" id="msg28"><polygon fill="#181818" points="397.8076,1136.375,387.8076,1140.375,397.8076,1144.375,393.8076,1140.375" style="stroke:#181818;stroke-width:1;"/><line style="stroke:#181818;stroke-width:1;stroke-dasharray:2,2;" x1="391.8076" x2="677.6851" y1="1140.375" y2="1140.375"/><text fill="#000000" font-family="sans-serif" font-size="13" lengthAdjust="spacing" textLength="102.4575" x="403.8076" y="1135.3091">204 No Content</text></g><g class="message" data-entity-1="part2" data-entity-2="part2" id="msg29"><line style="stroke:#181818;stroke-width:1;" x1="386.8076" x2="428.8076" y1="1169.5078" y2="1169.5078"/><line style="stroke:#181818;stroke-width:1;" x1="428.8076" x2="428.8076" y1="1169.5078" y2="1182.5078"/><line style="stroke:#181818;stroke-width:1;" x1="387.8076" x2="428.8076" y1="1182.5078" y2="1182.5078"/><polygon fill="#181818" points="397.8076,1178.5078,387.8076,1182.5078,397.8076,1186.5078,393.8076,1182.5078" style="stroke:#181818;stroke-width:1;"/><text fill="#000000" font-family="sans-serif" font-size="13" lengthAdjust="spacing" textLength="239.2939" x="393.8076" y="1164.4419">Remover de la lista (actualizar vista)</text></g><g class="message" data-entity-1="part2" data-entity-2="part1" id="msg30"><polygon fill="#181818" points="63.3159,1207.6406,53.3159,1211.6406,63.3159,1215.6406,59.3159,1211.6406" style="stroke:#181818;stroke-width:1;"/><line style="stroke:#181818;stroke-width:1;stroke-dasharray:2,2;" x1="57.3159" x2="375.8076" y1="1211.6406" y2="1211.6406"/><text fill="#000000" font-family="sans-serif" font-size="13" lengthAdjust="spacing" textLength="300.4917" x="69.3159" y="1206.5747">Notificaci&#243;n "Grado eliminado correctamente"</text></g><line style="stroke:#000000;stroke-width:1;stroke-dasharray:2,2;" x1="10" x2="2263.3901" y1="1220.6406" y2="1220.6406"/><text fill="#000000" font-family="sans-serif" font-size="11" font-weight="bold" lengthAdjust="spacing" textLength="278.2495" x="15" y="1230.8511">[Grado No Existe o No Pertenece al Docente]</text><g class="message" data-entity-1="part4" data-entity-2="part3" id="msg31"><polygon fill="#181818" points="689.6851,1251.5781,679.6851,1255.5781,689.6851,1259.5781,685.6851,1255.5781" style="stroke:#181818;stroke-width:1;"/><line style="stroke:#181818;stroke-width:1;stroke-dasharray:2,2;" x1="683.6851" x2="908.1807" y1="1255.5781" y2="1255.5781"/><text fill="#000000" font-family="sans-serif" font-size="13" lengthAdjust="spacing" textLength="206.4956" x="695.6851" y="1250.5122">throw EntityNotFoundException</text></g><g class="message" data-entity-1="part3" data-entity-2="part2" id="msg32"><polygon fill="#181818" points="397.8076,1280.7109,387.8076,1284.7109,397.8076,1288.7109,393.8076,1284.7109" style="stroke:#181818;stroke-width:1;"/><line style="stroke:#181818;stroke-width:1;stroke-dasharray:2,2;" x1="391.8076" x2="677.6851" y1="1284.7109" y2="1284.7109"/><text fill="#000000" font-family="sans-serif" font-size="13" lengthAdjust="spacing" textLength="96.0146" x="403.8076" y="1279.645">404 Not Found</text></g><g class="message" data-entity-1="part2" data-entity-2="part1" id="msg33"><polygon fill="#181818" points="63.3159,1309.8438,53.3159,1313.8438,63.3159,1317.8438,59.3159,1313.8438" style="stroke:#181818;stroke-width:1;"/><line style="stroke:#181818;stroke-width:1;stroke-dasharray:2,2;" x1="57.3159" x2="375.8076" y1="1313.8438" y2="1313.8438"/><text fill="#000000" font-family="sans-serif" font-size="13" lengthAdjust="spacing" textLength="240.3604" x="69.3159" y="1308.7778">Mostrar Error "Grado no encontrado"</text></g><?plantuml-src bLRDRXit4BxlKmnqMhLrN1Gv2Qu2oxjgZDgE8hde9O0nMT8oKOfKkPGIj-Z3z1do27cn3idLBhcIh5I75Sdv_sOuGokiv508N1fS8J0E2rvjkAe4mXcKKgo4GWE_66IQ3XPh8zGI9bfR-1xc72kRPVJH1WQ5hhYoV01OmprHdhZ9rcYigCGQbON1r6YYAmQv5nnwpccPCdbBzHLn6YqbDvwfsnvWNd2p5LMmswnJhakvMQc4BJdfCTTYgT1k32O2_TC3VipvMjU2e7Zs8cvxJ7MFDILa32r-n9h3OEA-b9C2hQuXd-dQBWrVlBy9s1MJB6kGXhCnGJc2Aoagu0e6kzGD8AVjHY4y2eb3boonHSiTyDCIpaYkKJ62Mz9lADk5-Fglr4ljJ1FqZyAii19VloZ8RpL3EVoWAgs0UQyObx1qyU-vqaW23wvu3TxcE4he28hofhmluHpNujmhgi__5koV3of_ov4vZikDVT96_8LMQ3M22KT3PYwi_eEhSHHIL2RTqfbhaZRQkM9ymdB1VW0MglQQHNfsEMx-dGQNc151gDZa-PgHPCJka-O-Zh6OZ6114LtTmtSmdR-x3U3KyFlRSbw2OF0plEbaAON5n6SXM7YtTZ6YlF0UZZF6OzPW90xe1Nxl5ahRNDxoiwZfz1bctD0jv1GNIcWkRGRqYyBTg_SHw8zEodIKUgOR77s43a6dfRM_VsSSUUyqDHVZ75e1eNrAluyqLNuy7TW5qEJ4gtzeCdD8pM50RWZFY-vyx4KZ_5_qhmq-JkQtQumHbLglOOO6eKA6KNoUsajiQwjZUxNaDZJ4EX-sCdsjdi4r17dGn54pNiwP2AKoT4jAwV0L_tE3icvp-oPHvSes-0Jhk5n3eu7UBwwakBEFoDzwXTQ8QYFH15h1EnZpuDurzO4kfbsX9VwqAKWcHvyjeUxAxxTPSKdzBPXwwEnGWpDyfRVKeWoNeJqEJwcCiTrgmVRuut8vwYiDuUpG-kKEi6kUS--jLidbFuRWYU8zsX9Yv5hwWpVsCd0dxbW2sicxjGDdRnBGrEEMjxCWYRIzxd4JQgRSqOcGQA1Mx_RfPFYrtmuQhlsXqCROdmP9ABqnV4WeXYAUgCs4_-d7rt2dFOM6I5yuciQE4WQ_4vitoGlDH5BJGyX9ZFe1pNW3MtSoR8NY5ygTjk9HLCrh9BoxTdL9gqeRmokBA_yGpRYavrFWkMi7e5-Vde4zTEoJqP-WL5ROPt9YgZUAbPyhxiVl_uJjjOVDWbVo3QWTUgALnhWtTmYEkYHtBpBhTXGsQOqqJil_0000?></g></svg>