<?plantuml 1.2026.2?><svg xmlns="http://www.w3.org/2000/svg" xmlns:xlink="http://www.w3.org/1999/xlink" contentStyleType="text/css" data-diagram-type="SEQUENCE" height="1376px" preserveAspectRatio="none" style="width:2144px;height:1376px;background:#FFFFFF;" version="1.1" viewBox="0 0 2144 1376" width="2144px" zoomAndPan="magnify"><title>Diagrama de Secuencia - Eliminar Grado - Spring Boot + React</title><defs/><g><text fill="#000000" font-family="sans-serif" font-size="14" font-weight="bold" lengthAdjust="spacing" textLength="493.1924" x="826.8269" y="27.9951">Diagrama de Secuencia - Eliminar Grado - Spring Boot + React</text><g><title>Frontend .React.</title><rect fill="#FFFFFF" height="1135.9844" style="stroke:#181818;stroke-width:1;" width="10" x="376.8076" y="149.7266"/></g><g><title>GradosController</title><rect fill="#FFFFFF" height="829.8516" style="stroke:#181818;stroke-width:1;" width="10" x="673.6851" y="267.3906"/></g><g><title>GradoService</title><rect fill="#FFFFFF" height="771.5859" style="stroke:#181818;stroke-width:1;" width="10" x="904.1807" y="296.5234"/></g><g><title>AsignaturaService</title><rect fill="#FFFFFF" height="449.125" style="stroke:#181818;stroke-width:1;" width="10" x="1164.4194" y="466.3203"/></g><g><title>AlumnoService</title><rect fill="#FFFFFF" height="73.3984" style="stroke:#181818;stroke-width:1;" width="10" x="1582.1372" y="609.9844"/></g><g><title>AlumnoService</title><rect fill="#FFFFFF" height="73.3984" style="stroke:#181818;stroke-width:1;" width="10" x="1582.1372" y="712.5156"/></g><g><title>GradoRepository</title><rect fill="#FFFFFF" height="87.3984" style="stroke:#181818;stroke-width:1;" width="10" x="1717.5698" y="325.6563"/></g><g><title>GradoRepository</title><rect fill="#FFFFFF" height="87.3984" style="stroke:#181818;stroke-width:1;" width="10" x="1717.5698" y="951.5781"/></g><g><title>Base de Datos .PostgreSQL.</title><rect fill="#FFFFFF" height="29.1328" style="stroke:#181818;stroke-width:1;" width="10" x="1991.1831" y="354.7891"/></g><g><title>Base de Datos .PostgreSQL.</title><rect fill="#FFFFFF" height="29.1328" style="stroke:#181818;stroke-width:1;" width="10" x="1991.1831" y="980.7109"/></g><rect fill="none" height="850.6563" style="stroke:#000000;stroke-width:1.5;" width="2127.8462" x="10" y="428.0547"/><rect fill="none" height="399.9922" style="stroke:#000000;stroke-width:1.5;" width="1282.854" x="844.9922" y="523.4531"/><rect fill="none" height="253.3281" style="stroke:#000000;stroke-width:1.5;" width="1039.1958" x="1078.6504" y="547.5859"/><rect fill="none" height="222.1953" style="stroke:#000000;stroke-width:1.5;" width="1019.1958" x="1088.6504" y="571.7188"/><g class="participant-lifeline" data-entity-uid="part1" data-qualified-name="Teacher" id="part1-lifeline"><g><title>Docente</title><rect fill="#000000" fill-opacity="0.00000" height="1177.1172" width="8" x="48.3159" y="118.5938"/><line style="stroke:#181818;stroke-width:0.5;stroke-dasharray:5,5;" x1="52" x2="52" y1="118.5938" y2="1295.7109"/></g></g><g class="participant-lifeline" data-entity-uid="part2" data-qualified-name="FE" id="part2-lifeline"><g><title>Frontend .React.</title><rect fill="#000000" fill-opacity="0.00000" height="1177.1172" width="8" x="377.8076" y="118.5938"/><line style="stroke:#181818;stroke-width:0.5;stroke-dasharray:5,5;" x1="381.5127" x2="381.5127" y1="118.5938" y2="1295.7109"/></g></g><g class="participant-lifeline" data-entity-uid="part3" data-qualified-name="Controller" id="part3-lifeline"><g><title>GradosController</title><rect fill="#000000" fill-opacity="0.00000" height="1177.1172" width="8" x="674.6851" y="118.5938"/><line style="stroke:#181818;stroke-width:0.5;stroke-dasharray:5,5;" x1="678.1338" x2="678.1338" y1="118.5938" y2="1295.7109"/></g></g><g class="participant-lifeline" data-entity-uid="part4" data-qualified-name="Service" id="part4-lifeline"><g><title>GradoService</title><rect fill="#000000" fill-opacity="0.00000" height="1177.1172" width="8" x="905.1807" y="118.5938"/><line style="stroke:#181818;stroke-width:0.5;stroke-dasharray:5,5;" x1="908.9922" x2="908.9922" y1="118.5938" y2="1295.7109"/></g></g><g class="participant-lifeline" data-entity-uid="part5" data-qualified-name="AsignaturaService" id="part5-lifeline"><g><title>AsignaturaService</title><rect fill="#000000" fill-opacity="0.00000" height="1177.1172" width="8" x="1165.4194" y="118.5938"/><line style="stroke:#181818;stroke-width:0.5;stroke-dasharray:5,5;" x1="1168.6504" x2="1168.6504" y1="118.5938" y2="1295.7109"/></g></g><g class="participant-lifeline" data-entity-uid="part6" data-qualified-name="AlumnoService" id="part6-lifeline"><g><title>AlumnoService</title><rect fill="#000000" fill-opacity="0.00000" height="1177.1172" width="8" x="1583.1372" y="118.5938"/><line style="stroke:#181818;stroke-width:0.5;stroke-dasharray:5,5;" x1="1586.5586" x2="1586.5586" y1="118.5938" y2="1295.7109"/></g></g><g class="participant-lifeline" data-entity-uid="part7" data-qualified-name="Repo" id="part7-lifeline"><g><title>GradoRepository</title><rect fill="#000000" fill-opacity="0.00000" height="1177.1172" width="8" x="1718.5698" y="118.5938"/><line style="stroke:#181818;stroke-width:0.5;stroke-dasharray:5,5;" x1="1721.7158" x2="1721.7158" y1="118.5938" y2="1295.7109"/></g></g><g class="participant-lifeline" data-entity-uid="part8" data-qualified-name="DB" id="part8-lifeline"><g><title>Base de Datos .PostgreSQL.</title><rect fill="#000000" fill-opacity="0.00000" height="1177.1172" width="8" x="1992.1831" y="118.5938"/><line style="stroke:#181818;stroke-width:0.5;stroke-dasharray:5,5;" x1="1995.52" x2="1995.52" y1="118.5938" y2="1295.7109"/></g></g><g class="participant participant-head" data-entity-uid="part1" data-qualified-name="Teacher" id="part1-head"><text fill="#000000" font-family="sans-serif" font-size="14" lengthAdjust="spacing" textLength="58.6318" x="20" y="115.292">Docente</text><ellipse cx="52.3159" cy="50.7969" fill="#E2E2F0" rx="8" ry="8" style="stroke:#181818;stroke-width:0.5;"/><path d="M52.3159,58.7969 L52.3159,85.7969 M39.3159,66.7969 L65.3159,66.7969 M52.3159,85.7969 L39.3159,100.7969 M52.3159,85.7969 L65.3159,100.7969" fill="none" style="stroke:#181818;stroke-width:0.5;"/></g><g class="participant participant-tail" data-entity-uid="part1" data-qualified-name="Teacher" id="part1-tail"><text fill="#000000" font-family="sans-serif" font-size="14" lengthAdjust="spacing" textLength="58.6318" x="20" y="1307.7061">Docente</text><ellipse cx="52.3159" cy="1319.5078" fill="#E2E2F0" rx="8" ry="8" style="stroke:#181818;stroke-width:0.5;"/><path d="M52.3159,1327.5078 L52.3159,1354.5078 M39.3159,1335.5078 L65.3159,1335.5078 M52.3159,1354.5078 L39.3159,1369.5078 M52.3159,1354.5078 L65.3159,1369.5078" fill="none" style="stroke:#181818;stroke-width:0.5;"/></g><g class="participant participant-head" data-entity-uid="part2" data-qualified-name="FE" id="part2-head"><rect fill="#E2E2F0" height="30.2969" rx="2.5" ry="2.5" style="stroke:#181818;stroke-width:0.5;" width="132.5898" x="315.5127" y="87.2969"/><text fill="#000000" font-family="sans-serif" font-size="14" lengthAdjust="spacing" textLength="118.5898" x="322.5127" y="107.292">Frontend (React)</text></g><g class="participant participant-tail" data-entity-uid="part2" data-qualified-name="FE" id="part2-tail"><rect fill="#E2E2F0" height="30.2969" rx="2.5" ry="2.5" style="stroke:#181818;stroke-width:0.5;" width="132.5898" x="315.5127" y="1294.7109"/><text fill="#000000" font-family="sans-serif" font-size="14" lengthAdjust="spacing" textLength="118.5898" x="322.5127" y="1314.7061">Frontend (React)</text></g><g class="participant participant-head" data-entity-uid="part3" data-qualified-name="Controller" id="part3-head"><rect fill="#E2E2F0" height="30.2969" rx="2.5" ry="2.5" style="stroke:#181818;stroke-width:0.5;" width="133.1025" x="612.1338" y="87.2969"/><text fill="#000000" font-family="sans-serif" font-size="14" lengthAdjust="spacing" textLength="119.1025" x="619.1338" y="107.292">GradosController</text></g><g class="participant participant-tail" data-entity-uid="part3" data-qualified-name="Controller" id="part3-tail"><rect fill="#E2E2F0" height="30.2969" rx="2.5" ry="2.5" style="stroke:#181818;stroke-width:0.5;" width="133.1025" x="612.1338" y="1294.7109"/><text fill="#000000" font-family="sans-serif" font-size="14" lengthAdjust="spacing" textLength="119.1025" x="619.1338" y="1314.7061">GradosController</text></g><g class="participant participant-head" data-entity-uid="part4" data-qualified-name="Service" id="part4-head"><rect fill="#E2E2F0" height="30.2969" rx="2.5" ry="2.5" style="stroke:#181818;stroke-width:0.5;" width="108.377" x="854.9922" y="87.2969"/><text fill="#000000" font-family="sans-serif" font-size="14" lengthAdjust="spacing" textLength="94.377" x="861.9922" y="107.292">GradoService</text></g><g class="participant participant-tail" data-entity-uid="part4" data-qualified-name="Service" id="part4-tail"><rect fill="#E2E2F0" height="30.2969" rx="2.5" ry="2.5" style="stroke:#181818;stroke-width:0.5;" width="108.377" x="854.9922" y="1294.7109"/><text fill="#000000" font-family="sans-serif" font-size="14" lengthAdjust="spacing" textLength="94.377" x="861.9922" y="1314.7061">GradoService</text></g><g class="participant participant-head" data-entity-uid="part5" data-qualified-name="AsignaturaService" id="part5-head"><rect fill="#E2E2F0" height="30.2969" rx="2.5" ry="2.5" style="stroke:#181818;stroke-width:0.5;" width="141.5381" x="1098.6504" y="87.2969"/><text fill="#000000" font-family="sans-serif" font-size="14" lengthAdjust="spacing" textLength="127.5381" x="1105.6504" y="107.292">AsignaturaService</text></g><g class="participant participant-tail" data-entity-uid="part5" data-qualified-name="AsignaturaService" id="part5-tail"><rect fill="#E2E2F0" height="30.2969" rx="2.5" ry="2.5" style="stroke:#181818;stroke-width:0.5;" width="141.5381" x="1098.6504" y="1294.7109"/><text fill="#000000" font-family="sans-serif" font-size="14" lengthAdjust="spacing" textLength="127.5381" x="1105.6504" y="1314.7061">AsignaturaService</text></g><g class="participant participant-head" data-entity-uid="part6" data-qualified-name="AlumnoService" id="part6-head"><rect fill="#E2E2F0" height="30.2969" rx="2.5" ry="2.5" style="stroke:#181818;stroke-width:0.5;" width="119.1572" x="1527.5586" y="87.2969"/><text fill="#000000" font-family="sans-serif" font-size="14" lengthAdjust="spacing" textLength="105.1572" x="1534.5586" y="107.292">AlumnoService</text></g><g class="participant participant-tail" data-entity-uid="part6" data-qualified-name="AlumnoService" id="part6-tail"><rect fill="#E2E2F0" height="30.2969" rx="2.5" ry="2.5" style="stroke:#181818;stroke-width:0.5;" width="119.1572" x="1527.5586" y="1294.7109"/><text fill="#000000" font-family="sans-serif" font-size="14" lengthAdjust="spacing" textLength="105.1572" x="1534.5586" y="1314.7061">AlumnoService</text></g><g class="participant participant-head" data-entity-uid="part7" data-qualified-name="Repo" id="part7-head"><rect fill="#E2E2F0" height="30.2969" rx="2.5" ry="2.5" style="stroke:#181818;stroke-width:0.5;" width="131.708" x="1656.7158" y="87.2969"/><text fill="#000000" font-family="sans-serif" font-size="14" lengthAdjust="spacing" textLength="117.708" x="1663.7158" y="107.292">GradoRepository</text></g><g class="participant participant-tail" data-entity-uid="part7" data-qualified-name="Repo" id="part7-tail"><rect fill="#E2E2F0" height="30.2969" rx="2.5" ry="2.5" style="stroke:#181818;stroke-width:0.5;" width="131.708" x="1656.7158" y="1294.7109"/><text fill="#000000" font-family="sans-serif" font-size="14" lengthAdjust="spacing" textLength="117.708" x="1663.7158" y="1314.7061">GradoRepository</text></g><g class="participant participant-head" data-entity-uid="part8" data-qualified-name="DB" id="part8-head"><text fill="#000000" font-family="sans-serif" font-size="14" lengthAdjust="spacing" textLength="197.3262" x="1894.52" y="115.292">Base de Datos (PostgreSQL)</text><path d="M1978.1831,66.2969 C1978.1831,56.2969 1996.1831,56.2969 1996.1831,56.2969 C1996.1831,56.2969 2014.1831,56.2969 2014.1831,66.2969 L2014.1831,92.2969 C2014.1831,102.2969 1996.1831,102.2969 1996.1831,102.2969 C1996.1831,102.2969 1978.1831,102.2969 1978.1831,92.2969 L1978.1831,66.2969" fill="#E2E2F0" style="stroke:#181818;stroke-width:0.5;"/><path d="M1978.1831,66.2969 C1978.1831,76.2969 1996.1831,76.2969 1996.1831,76.2969 C1996.1831,76.2969 2014.1831,76.2969 2014.1831,66.2969" fill="none" style="stroke:#181818;stroke-width:0.5;"/></g><g class="participant participant-tail" data-entity-uid="part8" data-qualified-name="DB" id="part8-tail"><text fill="#000000" font-family="sans-serif" font-size="14" lengthAdjust="spacing" textLength="197.3262" x="1894.52" y="1307.7061">Base de Datos (PostgreSQL)</text><path d="M1978.1831,1321.0078 C1978.1831,1311.0078 1996.1831,1311.0078 1996.1831,1311.0078 C1996.1831,1311.0078 2014.1831,1311.0078 2014.1831,1321.0078 L2014.1831,1347.0078 C2014.1831,1357.0078 1996.1831,1357.0078 1996.1831,1357.0078 C1996.1831,1357.0078 1978.1831,1357.0078 1978.1831,1347.0078 L1978.1831,1321.0078" fill="#E2E2F0" style="stroke:#181818;stroke-width:0.5;"/><path d="M1978.1831,1321.0078 C1978.1831,1331.0078 1996.1831,1331.0078 1996.1831,1331.0078 C1996.1831,1331.0078 2014.1831,1331.0078 2014.1831,1321.0078" fill="none" style="stroke:#181818;stroke-width:0.5;"/></g><g><title>Frontend .React.</title><rect fill="#FFFFFF" height="1135.9844" style="stroke:#181818;stroke-width:1;" width="10" x="376.8076" y="149.7266"/></g><g><title>GradosController</title><rect fill="#FFFFFF" height="829.8516" style="stroke:#181818;stroke-width:1;" width="10" x="673.6851" y="267.3906"/></g><g><title>GradoService</title><rect fill="#FFFFFF" height="771.5859" style="stroke:#181818;stroke-width:1;" width="10" x="904.1807" y="296.5234"/></g><g><title>AsignaturaService</title><rect fill="#FFFFFF" height="449.125" style="stroke:#181818;stroke-width:1;" width="10" x="1164.4194" y="466.3203"/></g><g><title>AlumnoService</title><rect fill="#FFFFFF" height="73.3984" style="stroke:#181818;stroke-width:1;" width="10" x="1582.1372" y="609.9844"/></g><g><title>AlumnoService</title><rect fill="#FFFFFF" height="73.3984" style="stroke:#181818;stroke-width:1;" width="10" x="1582.1372" y="712.5156"/></g><g><title>GradoRepository</title><rect fill="#FFFFFF" height="87.3984" style="stroke:#181818;stroke-width:1;" width="10" x="1717.5698" y="325.6563"/></g><g><title>GradoRepository</title><rect fill="#FFFFFF" height="87.3984" style="stroke:#181818;stroke-width:1;" width="10" x="1717.5698" y="951.5781"/></g><g><title>Base de Datos .PostgreSQL.</title><rect fill="#FFFFFF" height="29.1328" style="stroke:#181818;stroke-width:1;" width="10" x="1991.1831" y="354.7891"/></g><g><title>Base de Datos .PostgreSQL.</title><rect fill="#FFFFFF" height="29.1328" style="stroke:#181818;stroke-width:1;" width="10" x="1991.1831" y="980.7109"/></g><g class="message" data-entity-1="part1" data-entity-2="part2" id="msg1"><polygon fill="#181818" points="364.8076,145.7266,374.8076,149.7266,364.8076,153.7266,368.8076,149.7266" style="stroke:#181818;stroke-width:1;"/><line style="stroke:#181818;stroke-width:1;" x1="52.3159" x2="370.8076" y1="149.7266" y2="149.7266"/><text fill="#000000" font-family="sans-serif" font-size="13" lengthAdjust="spacing" textLength="196.1616" x="59.3159" y="144.6606">Clic en "Eliminar" (en una fila)</text></g><g class="message" data-entity-1="part2" data-entity-2="part1" id="msg2"><polygon fill="#181818" points="63.3159,189.9922,53.3159,193.9922,63.3159,197.9922,59.3159,193.9922" style="stroke:#181818;stroke-width:1;"/><line style="stroke:#181818;stroke-width:1;stroke-dasharray:2,2;" x1="57.3159" x2="375.8076" y1="193.9922" y2="193.9922"/><text fill="#000000" font-family="sans-serif" font-size="13" lengthAdjust="spacing" textLength="267.3633" x="69.3159" y="173.7935">Mostrar Di&#225;logo de Confirmaci&#243;n (Modal)</text><text fill="#000000" font-family="sans-serif" font-size="13" lengthAdjust="spacing" textLength="129.4097" x="69.3159" y="188.9263">con datos del grado</text></g><g class="message" data-entity-1="part1" data-entity-2="part2" id="msg3"><polygon fill="#181818" points="364.8076,219.125,374.8076,223.125,364.8076,227.125,368.8076,223.125" style="stroke:#181818;stroke-width:1;"/><line style="stroke:#181818;stroke-width:1;" x1="52.3159" x2="370.8076" y1="223.125" y2="223.125"/><text fill="#000000" font-family="sans-serif" font-size="13" lengthAdjust="spacing" textLength="138.2202" x="59.3159" y="218.0591">Confirma eliminaci&#243;n</text></g><g class="message" data-entity-1="part2" data-entity-2="part3" id="msg4"><polygon fill="#181818" points="661.6851,263.3906,671.6851,267.3906,661.6851,271.3906,665.6851,267.3906" style="stroke:#181818;stroke-width:1;"/><line style="stroke:#181818;stroke-width:1;" x1="386.8076" x2="667.6851" y1="267.3906" y2="267.3906"/><text fill="#000000" font-family="sans-serif" font-size="13" lengthAdjust="spacing" textLength="159.8848" x="393.8076" y="247.1919">DELETE /api/grados/{id}</text><text fill="#000000" font-family="sans-serif" font-size="13" lengthAdjust="spacing" textLength="267.8774" x="393.8076" y="262.3247">(Header: Authorization: Bearer &lt;token&gt;)</text></g><g class="message" data-entity-1="part3" data-entity-2="part4" id="msg5"><polygon fill="#181818" points="892.1807,292.5234,902.1807,296.5234,892.1807,300.5234,896.1807,296.5234" style="stroke:#181818;stroke-width:1;"/><line style="stroke:#181818;stroke-width:1;" x1="683.6851" x2="898.1807" y1="296.5234" y2="296.5234"/><text fill="#000000" font-family="sans-serif" font-size="13" lengthAdjust="spacing" textLength="187.6812" x="690.6851" y="291.4575">eliminarGrado(id, docenteId)</text></g><g class="message" data-entity-1="part4" data-entity-2="part7" id="msg6"><polygon fill="#181818" points="1705.5698,321.6563,1715.5698,325.6563,1705.5698,329.6563,1709.5698,325.6563" style="stroke:#181818;stroke-width:1;"/><line style="stroke:#181818;stroke-width:1;" x1="914.1807" x2="1711.5698" y1="325.6563" y2="325.6563"/><text fill="#000000" font-family="sans-serif" font-size="13" lengthAdjust="spacing" textLength="75.3848" x="921.1807" y="320.5903">findById(id)</text></g><g class="message" data-entity-1="part7" data-entity-2="part8" id="msg7"><polygon fill="#181818" points="1979.1831,350.7891,1989.1831,354.7891,1979.1831,358.7891,1983.1831,354.7891" style="stroke:#181818;stroke-width:1;"/><line style="stroke:#181818;stroke-width:1;" x1="1727.5698" x2="1985.1831" y1="354.7891" y2="354.7891"/><text fill="#000000" font-family="sans-serif" font-size="13" lengthAdjust="spacing" textLength="244.6133" x="1734.5698" y="349.7231">SELECT * FROM grados WHERE id = ?</text></g><g class="message" data-entity-1="part8" data-entity-2="part7" id="msg8"><polygon fill="#181818" points="1738.5698,379.9219,1728.5698,383.9219,1738.5698,387.9219,1734.5698,383.9219" style="stroke:#181818;stroke-width:1;"/><line style="stroke:#181818;stroke-width:1;stroke-dasharray:2,2;" x1="1732.5698" x2="1995.1831" y1="383.9219" y2="383.9219"/><text fill="#000000" font-family="sans-serif" font-size="13" lengthAdjust="spacing" textLength="116.3398" x="1744.5698" y="378.856">Optional&lt;Grado&gt;</text></g><g class="message" data-entity-1="part7" data-entity-2="part4" id="msg9"><polygon fill="#181818" points="925.1807,409.0547,915.1807,413.0547,925.1807,417.0547,921.1807,413.0547" style="stroke:#181818;stroke-width:1;"/><line style="stroke:#181818;stroke-width:1;stroke-dasharray:2,2;" x1="919.1807" x2="1721.5698" y1="413.0547" y2="413.0547"/><text fill="#000000" font-family="sans-serif" font-size="13" lengthAdjust="spacing" textLength="116.3398" x="931.1807" y="407.9888">Optional&lt;Grado&gt;</text></g><path d="M10,428.0547 L74.4429,428.0547 L74.4429,435.1875 L64.4429,445.1875 L10,445.1875 L10,428.0547" fill="#EEEEEE" style="stroke:#000000;stroke-width:1.5;"/><rect fill="none" height="850.6563" style="stroke:#000000;stroke-width:1.5;" width="2127.8462" x="10" y="428.0547"/><text fill="#000000" font-family="sans-serif" font-size="13" font-weight="bold" lengthAdjust="spacing" textLength="19.4429" x="25" y="441.1216">alt</text><text fill="#000000" font-family="sans-serif" font-size="11" font-weight="bold" lengthAdjust="spacing" textLength="236.6772" x="89.4429" y="440.2651">[Grado Existe y Pertenece al Docente]</text><g class="message" data-entity-1="part4" data-entity-2="part5" id="msg10"><polygon fill="#181818" points="1152.4194,462.3203,1162.4194,466.3203,1152.4194,470.3203,1156.4194,466.3203" style="stroke:#181818;stroke-width:1;"/><line style="stroke:#181818;stroke-width:1;" x1="914.1807" x2="1158.4194" y1="466.3203" y2="466.3203"/><text fill="#000000" font-family="sans-serif" font-size="13" lengthAdjust="spacing" textLength="231.2388" x="921.1807" y="461.2544">procesarEliminacionGrado(gradoId)</text></g><g class="message" data-entity-1="part5" data-entity-2="part5" id="msg11"><line style="stroke:#181818;stroke-width:1;" x1="1174.4194" x2="1216.4194" y1="495.4531" y2="495.4531"/><line style="stroke:#181818;stroke-width:1;" x1="1216.4194" x2="1216.4194" y1="495.4531" y2="508.4531"/><line style="stroke:#181818;stroke-width:1;" x1="1175.4194" x2="1216.4194" y1="508.4531" y2="508.4531"/><polygon fill="#181818" points="1185.4194,504.4531,1175.4194,508.4531,1185.4194,512.4531,1181.4194,508.4531" style="stroke:#181818;stroke-width:1;"/><text fill="#000000" font-family="sans-serif" font-size="13" lengthAdjust="spacing" textLength="303.0371" x="1181.4194" y="490.3872">asignaturaRepository.findByGradosId(gradoId)</text></g><path d="M844.9922,523.4531 L921.6162,523.4531 L921.6162,530.5859 L911.6162,540.5859 L844.9922,540.5859 L844.9922,523.4531" fill="#EEEEEE" style="stroke:#000000;stroke-width:1.5;"/><rect fill="none" height="399.9922" style="stroke:#000000;stroke-width:1.5;" width="1282.854" x="844.9922" y="523.4531"/><text fill="#000000" font-family="sans-serif" font-size="13" font-weight="bold" lengthAdjust="spacing" textLength="31.624" x="859.9922" y="536.52">loop</text><text fill="#000000" font-family="sans-serif" font-size="11" font-weight="bold" lengthAdjust="spacing" textLength="142.0923" x="936.6162" y="535.6636">[Para cada asignatura]</text><path d="M1078.6504,547.5859 L1155.2744,547.5859 L1155.2744,554.7188 L1145.2744,564.7188 L1078.6504,564.7188 L1078.6504,547.5859" fill="#EEEEEE" style="stroke:#000000;stroke-width:1.5;"/><rect fill="none" height="253.3281" style="stroke:#000000;stroke-width:1.5;" width="1039.1958" x="1078.6504" y="547.5859"/><text fill="#000000" font-family="sans-serif" font-size="13" font-weight="bold" lengthAdjust="spacing" textLength="31.624" x="1093.6504" y="560.6528">loop</text><text fill="#000000" font-family="sans-serif" font-size="11" font-weight="bold" lengthAdjust="spacing" textLength="225.9834" x="1170.2744" y="559.7964">[Para cada alumno de la asignatura]</text><path d="M1088.6504,571.7188 L1153.0933,571.7188 L1153.0933,578.8516 L1143.0933,588.8516 L1088.6504,588.8516 L1088.6504,571.7188" fill="#EEEEEE" style="stroke:#000000;stroke-width:1.5;"/><rect fill="none" height="222.1953" style="stroke:#000000;stroke-width:1.5;" width="1019.1958" x="1088.6504" y="571.7188"/><text fill="#000000" font-family="sans-serif" font-size="13" font-weight="bold" lengthAdjust="spacing" textLength="19.4429" x="1103.6504" y="584.7856">alt</text><text fill="#000000" font-family="sans-serif" font-size="11" font-weight="bold" lengthAdjust="spacing" textLength="178.605" x="1168.0933" y="583.9292">[Alumno pertenece al grado]</text><g class="message" data-entity-1="part5" data-entity-2="part6" id="msg12"><polygon fill="#181818" points="1570.1372,605.9844,1580.1372,609.9844,1570.1372,613.9844,1574.1372,609.9844" style="stroke:#181818;stroke-width:1;"/><line style="stroke:#181818;stroke-width:1;" x1="1174.4194" x2="1576.1372" y1="609.9844" y2="609.9844"/><text fill="#000000" font-family="sans-serif" font-size="13" lengthAdjust="spacing" textLength="388.7178" x="1181.4194" y="604.9185">desmatricularAlumnoDeAsignatura(alumnoId, asignaturaId)</text></g><g class="message" data-entity-1="part6" data-entity-2="part8" id="msg13"><polygon fill="#181818" points="1984.1831,650.25,1994.1831,654.25,1984.1831,658.25,1988.1831,654.25" style="stroke:#181818;stroke-width:1;"/><line style="stroke:#181818;stroke-width:1;" x1="1592.1372" x2="1990.1831" y1="654.25" y2="654.25"/><text fill="#000000" font-family="sans-serif" font-size="13" lengthAdjust="spacing" textLength="181.1748" x="1599.1372" y="634.0513">UPDATE alumno_asignatura</text><text fill="#000000" font-family="sans-serif" font-size="13" lengthAdjust="spacing" textLength="121.145" x="1599.1372" y="649.1841">(remover relaci&#243;n)</text></g><g class="message" data-entity-1="part6" data-entity-2="part5" id="msg14"><polygon fill="#181818" points="1185.4194,679.3828,1175.4194,683.3828,1185.4194,687.3828,1181.4194,683.3828" style="stroke:#181818;stroke-width:1;"/><line style="stroke:#181818;stroke-width:1;stroke-dasharray:2,2;" x1="1179.4194" x2="1586.1372" y1="683.3828" y2="683.3828"/><text fill="#000000" font-family="sans-serif" font-size="13" lengthAdjust="spacing" textLength="27.5107" x="1191.4194" y="678.3169">void</text></g><g class="message" data-entity-1="part5" data-entity-2="part6" id="msg15"><polygon fill="#181818" points="1570.1372,708.5156,1580.1372,712.5156,1570.1372,716.5156,1574.1372,712.5156" style="stroke:#181818;stroke-width:1;"/><line style="stroke:#181818;stroke-width:1;" x1="1174.4194" x2="1576.1372" y1="712.5156" y2="712.5156"/><text fill="#000000" font-family="sans-serif" font-size="13" lengthAdjust="spacing" textLength="274.7329" x="1181.4194" y="707.4497">quitarAlumnoDeGrado(gradoId, alumnoId)</text></g><g class="message" data-entity-1="part6" data-entity-2="part8" id="msg16"><polygon fill="#181818" points="1984.1831,752.7813,1994.1831,756.7813,1984.1831,760.7813,1988.1831,756.7813" style="stroke:#181818;stroke-width:1;"/><line style="stroke:#181818;stroke-width:1;" x1="1592.1372" x2="1990.1831" y1="756.7813" y2="756.7813"/><text fill="#000000" font-family="sans-serif" font-size="13" lengthAdjust="spacing" textLength="243.6548" x="1599.1372" y="736.5825">UPDATE alumnos SET grado_id = null</text><text fill="#000000" font-family="sans-serif" font-size="13" lengthAdjust="spacing" textLength="137.1602" x="1599.1372" y="751.7153">(donde grado_id = ?)</text></g><g class="message" data-entity-1="part6" data-entity-2="part5" id="msg17"><polygon fill="#181818" points="1185.4194,781.9141,1175.4194,785.9141,1185.4194,789.9141,1181.4194,785.9141" style="stroke:#181818;stroke-width:1;"/><line style="stroke:#181818;stroke-width:1;stroke-dasharray:2,2;" x1="1179.4194" x2="1586.1372" y1="785.9141" y2="785.9141"/><text fill="#000000" font-family="sans-serif" font-size="13" lengthAdjust="spacing" textLength="27.5107" x="1191.4194" y="780.8481">void</text></g><g class="message" data-entity-1="part5" data-entity-2="part5" id="msg18"><line style="stroke:#181818;stroke-width:1;" x1="1174.4194" x2="1216.4194" y1="829.0469" y2="829.0469"/><line style="stroke:#181818;stroke-width:1;" x1="1216.4194" x2="1216.4194" y1="829.0469" y2="842.0469"/><line style="stroke:#181818;stroke-width:1;" x1="1175.4194" x2="1216.4194" y1="842.0469" y2="842.0469"/><polygon fill="#181818" points="1185.4194,838.0469,1175.4194,842.0469,1185.4194,846.0469,1181.4194,842.0469" style="stroke:#181818;stroke-width:1;"/><text fill="#000000" font-family="sans-serif" font-size="13" lengthAdjust="spacing" textLength="298.0034" x="1181.4194" y="823.981">eliminarRelacionGrado(gradoId, asignaturaId)</text></g><g class="message" data-entity-1="part5" data-entity-2="part8" id="msg19"><polygon fill="#181818" points="1984.1831,882.3125,1994.1831,886.3125,1984.1831,890.3125,1988.1831,886.3125" style="stroke:#181818;stroke-width:1;"/><line style="stroke:#181818;stroke-width:1;" x1="1174.4194" x2="1990.1831" y1="886.3125" y2="886.3125"/><text fill="#000000" font-family="sans-serif" font-size="13" lengthAdjust="spacing" textLength="170.2695" x="1181.4194" y="866.1138">UPDATE asignatura_grado</text><text fill="#000000" font-family="sans-serif" font-size="13" lengthAdjust="spacing" textLength="121.145" x="1181.4194" y="881.2466">(remover relaci&#243;n)</text></g><g class="message" data-entity-1="part5" data-entity-2="part4" id="msg20"><polygon fill="#181818" points="925.1807,911.4453,915.1807,915.4453,925.1807,919.4453,921.1807,915.4453" style="stroke:#181818;stroke-width:1;"/><line style="stroke:#181818;stroke-width:1;stroke-dasharray:2,2;" x1="919.1807" x2="1168.4194" y1="915.4453" y2="915.4453"/><text fill="#000000" font-family="sans-serif" font-size="13" lengthAdjust="spacing" textLength="27.5107" x="931.1807" y="910.3794">void</text></g><g class="message" data-entity-1="part4" data-entity-2="part7" id="msg21"><polygon fill="#181818" points="1705.5698,947.5781,1715.5698,951.5781,1705.5698,955.5781,1709.5698,951.5781" style="stroke:#181818;stroke-width:1;"/><line style="stroke:#181818;stroke-width:1;" x1="914.1807" x2="1711.5698" y1="951.5781" y2="951.5781"/><text fill="#000000" font-family="sans-serif" font-size="13" lengthAdjust="spacing" textLength="91.6602" x="921.1807" y="946.5122">deleteById(id)</text></g><g class="message" data-entity-1="part7" data-entity-2="part8" id="msg22"><polygon fill="#181818" points="1979.1831,976.7109,1989.1831,980.7109,1979.1831,984.7109,1983.1831,980.7109" style="stroke:#181818;stroke-width:1;"/><line style="stroke:#181818;stroke-width:1;" x1="1727.5698" x2="1985.1831" y1="980.7109" y2="980.7109"/><text fill="#000000" font-family="sans-serif" font-size="13" lengthAdjust="spacing" textLength="234.876" x="1734.5698" y="975.645">DELETE FROM grados WHERE id = ?</text></g><g class="message" data-entity-1="part8" data-entity-2="part7" id="msg23"><polygon fill="#181818" points="1738.5698,1005.8438,1728.5698,1009.8438,1738.5698,1013.8438,1734.5698,1009.8438" style="stroke:#181818;stroke-width:1;"/><line style="stroke:#181818;stroke-width:1;stroke-dasharray:2,2;" x1="1732.5698" x2="1995.1831" y1="1009.8438" y2="1009.8438"/><text fill="#000000" font-family="sans-serif" font-size="13" lengthAdjust="spacing" textLength="18.7573" x="1744.5698" y="1004.7778">OK</text></g><g class="message" data-entity-1="part7" data-entity-2="part4" id="msg24"><polygon fill="#181818" points="925.1807,1034.9766,915.1807,1038.9766,925.1807,1042.9766,921.1807,1038.9766" style="stroke:#181818;stroke-width:1;"/><line style="stroke:#181818;stroke-width:1;stroke-dasharray:2,2;" x1="919.1807" x2="1721.5698" y1="1038.9766" y2="1038.9766"/><text fill="#000000" font-family="sans-serif" font-size="13" lengthAdjust="spacing" textLength="27.5107" x="931.1807" y="1033.9106">void</text></g><g class="message" data-entity-1="part4" data-entity-2="part3" id="msg25"><polygon fill="#181818" points="694.6851,1064.1094,684.6851,1068.1094,694.6851,1072.1094,690.6851,1068.1094" style="stroke:#181818;stroke-width:1;"/><line style="stroke:#181818;stroke-width:1;stroke-dasharray:2,2;" x1="688.6851" x2="908.1807" y1="1068.1094" y2="1068.1094"/><text fill="#000000" font-family="sans-serif" font-size="13" lengthAdjust="spacing" textLength="27.5107" x="700.6851" y="1063.0435">void</text></g><g class="message" data-entity-1="part3" data-entity-2="part2" id="msg26"><polygon fill="#181818" points="397.8076,1093.2422,387.8076,1097.2422,397.8076,1101.2422,393.8076,1097.2422" style="stroke:#181818;stroke-width:1;"/><line style="stroke:#181818;stroke-width:1;stroke-dasharray:2,2;" x1="391.8076" x2="677.6851" y1="1097.2422" y2="1097.2422"/><text fill="#000000" font-family="sans-serif" font-size="13" lengthAdjust="spacing" textLength="102.4575" x="403.8076" y="1092.1763">204 No Content</text></g><g class="message" data-entity-1="part2" data-entity-2="part2" id="msg27"><line style="stroke:#181818;stroke-width:1;" x1="386.8076" x2="428.8076" y1="1126.375" y2="1126.375"/><line style="stroke:#181818;stroke-width:1;" x1="428.8076" x2="428.8076" y1="1126.375" y2="1139.375"/><line style="stroke:#181818;stroke-width:1;" x1="387.8076" x2="428.8076" y1="1139.375" y2="1139.375"/><polygon fill="#181818" points="397.8076,1135.375,387.8076,1139.375,397.8076,1143.375,393.8076,1139.375" style="stroke:#181818;stroke-width:1;"/><text fill="#000000" font-family="sans-serif" font-size="13" lengthAdjust="spacing" textLength="239.2939" x="393.8076" y="1121.3091">Remover de la lista (actualizar vista)</text></g><g class="message" data-entity-1="part2" data-entity-2="part1" id="msg28"><polygon fill="#181818" points="63.3159,1164.5078,53.3159,1168.5078,63.3159,1172.5078,59.3159,1168.5078" style="stroke:#181818;stroke-width:1;"/><line style="stroke:#181818;stroke-width:1;stroke-dasharray:2,2;" x1="57.3159" x2="375.8076" y1="1168.5078" y2="1168.5078"/><text fill="#000000" font-family="sans-serif" font-size="13" lengthAdjust="spacing" textLength="300.4917" x="69.3159" y="1163.4419">Notificaci&#243;n "Grado eliminado correctamente"</text></g><line style="stroke:#000000;stroke-width:1;stroke-dasharray:2,2;" x1="10" x2="2137.8462" y1="1177.5078" y2="1177.5078"/><text fill="#000000" font-family="sans-serif" font-size="11" font-weight="bold" lengthAdjust="spacing" textLength="278.2495" x="15" y="1187.7183">[Grado No Existe o No Pertenece al Docente]</text><g class="message" data-entity-1="part4" data-entity-2="part3" id="msg29"><polygon fill="#181818" points="689.6851,1208.4453,679.6851,1212.4453,689.6851,1216.4453,685.6851,1212.4453" style="stroke:#181818;stroke-width:1;"/><line style="stroke:#181818;stroke-width:1;stroke-dasharray:2,2;" x1="683.6851" x2="908.1807" y1="1212.4453" y2="1212.4453"/><text fill="#000000" font-family="sans-serif" font-size="13" lengthAdjust="spacing" textLength="206.4956" x="695.6851" y="1207.3794">throw EntityNotFoundException</text></g><g class="message" data-entity-1="part3" data-entity-2="part2" id="msg30"><polygon fill="#181818" points="397.8076,1237.5781,387.8076,1241.5781,397.8076,1245.5781,393.8076,1241.5781" style="stroke:#181818;stroke-width:1;"/><line style="stroke:#181818;stroke-width:1;stroke-dasharray:2,2;" x1="391.8076" x2="677.6851" y1="1241.5781" y2="1241.5781"/><text fill="#000000" font-family="sans-serif" font-size="13" lengthAdjust="spacing" textLength="96.0146" x="403.8076" y="1236.5122">404 Not Found</text></g><g class="message" data-entity-1="part2" data-entity-2="part1" id="msg31"><polygon fill="#181818" points="63.3159,1266.7109,53.3159,1270.7109,63.3159,1274.7109,59.3159,1270.7109" style="stroke:#181818;stroke-width:1;"/><line style="stroke:#181818;stroke-width:1;stroke-dasharray:2,2;" x1="57.3159" x2="375.8076" y1="1270.7109" y2="1270.7109"/><text fill="#000000" font-family="sans-serif" font-size="13" lengthAdjust="spacing" textLength="240.3604" x="69.3159" y="1265.645">Mostrar Error "Grado no encontrado"</text></g><?plantuml-src lLRTRjis5BxNKnpuokwQPIXo9QG9uaXkW-MlTeRT10ZEHCOXHfCgHNdDYZvCdw6Fq1VR8IdPbAKqsSNc2va_v_SxVxJ2IWwPmAN15GBZiE15pLKX4FOWbs8b51fuPv1fEbYKHgWbJBMsy1FCEHOsIUYZ3OmoNN1b-GYmWXkwUU0cAT5OKOWIbONHp6YwLmp6dd7YAMTvbyXhgaw9qcWfkV54s-q0yOARjIY2tcRTfJgfn5AXhGt6fBtJ7IPPhrH7TkTam8uvBtKb28f7J-ws2KEBVs35OJHrNu8tGwih65_hoYuDNtmu3p1aqoHfG8Ez8q8bXLCf2k0AHcqKHZ2cRQqGxeN4YSDThD5oX-4iXptYQqIaS47o3GKk4z-_IhtKJZMXU2_C2Wln_Pk2yOLcA2Utgj0AcBUASGbBvqhFb8OJU335I_0wZwBOf93bv_bD3ljOYdqlgDh_BDYNMpL-pv4vYfFQFcWZ_aOhj4fXoj6GcaEh_-JgA78fYlXswTGr-AUjASPZFnRiDR2GW6SiajE6g_bt4bnWKe9GiUdZ6IFEYDm7pNqSOJPDOK4UdTx0AvZDhou2E1Ny_ZwVvo0Ol8NZBI-5C9lwA0GDLwNp4UMXj_0eOJmc3KfYXtv0xyr2QPiwp3-9YauVuPeRAYXEVg64fluIe5_aRY_FKoWDaLPeyZQQMWKKlNyEFoTZexrVAUwwT_g4CjmSRGlavu1-g7MAGKUlrBg4QpG81JAC-Ftj48KlJ9VXSf3SEqFWXGA6CWOjf3li_8PzY-i_9NNL2gqHHItHXBkCRnd7mQepoikjIQsB7SisC7VwIy-a-BRDpj-kinEgjw3gRgk72ixmbLvJoHWkGxbEdXCv7Bwr5gp76QNcCrQ_0CYFjR1R13k9-1fQ5Fz3t6Xgv3SX4UvyJQjQIaAGQKKf5PqV_-yGqh1CXjOlhRssHyvz4knK-LE9EIWyHcrpV-Sb_JZP1gJ5JQ-3JOp9OCzfCUXrSvfStF9DF-_aXs-UxYJkwysaUhAhToHGktRxRdV_DTankQ7gD_QDZxiTlUFApYWTOegXYATYCwNV_780bzhVq23OPOucghi9mzknpPlWXVufQRGWZ8cjHabpsi3QdKmsJF4hur9RSI-AvaKHda5jqj6gqCRmmkBAlmiJBka956WkDqFChv-VOples0UZ_u9SMM4VoOYPhXNBFnNSZz1_2Tk1Xys25_82r8QUMRanxWaSdACPmzshoheTkKrI8ucp_1y0?></g></svg>