<?plantuml 1.2026.2?><svg xmlns="http://www.w3.org/2000/svg" xmlns:xlink="http://www.w3.org/1999/xlink" contentStyleType="text/css" data-diagram-type="SEQUENCE" height="1242px" preserveAspectRatio="none" style="width:2026px;height:1242px;background:#FFFFFF;" version="1.1" viewBox="0 0 2026 1242" width="2026px" zoomAndPan="magnify"><title>Diagrama de Secuencia - Eliminar Grado - Spring Boot + React</title><defs/><g><text fill="#000000" font-family="sans-serif" font-size="14" font-weight="bold" lengthAdjust="spacing" textLength="493.1924" x="767.4766" y="27.9951">Diagrama de Secuencia - Eliminar Grado - Spring Boot + React</text><g><title>Frontend .React.</title><rect fill="#FFFFFF" height="1002.3203" style="stroke:#181818;stroke-width:1;" width="10" x="376.8076" y="149.7266"/></g><g><title>GradosController</title><rect fill="#FFFFFF" height="696.1875" style="stroke:#181818;stroke-width:1;" width="10" x="673.6851" y="267.3906"/></g><g><title>GradoService</title><rect fill="#FFFFFF" height="637.9219" style="stroke:#181818;stroke-width:1;" width="10" x="904.1807" y="296.5234"/></g><g><title>AlumnoService</title><rect fill="#FFFFFF" height="73.3984" style="stroke:#181818;stroke-width:1;" width="10" x="1321.8984" y="598.8516"/></g><g><title>AsignaturaService</title><rect fill="#FFFFFF" height="73.3984" style="stroke:#181818;stroke-width:1;" width="10" x="1462.2461" y="708.3828"/></g><g><title>GradoRepository</title><rect fill="#FFFFFF" height="87.3984" style="stroke:#181818;stroke-width:1;" width="10" x="1608.8691" y="325.6563"/></g><g><title>GradoRepository</title><rect fill="#FFFFFF" height="87.3984" style="stroke:#181818;stroke-width:1;" width="10" x="1608.8691" y="817.9141"/></g><g><title>Base de Datos .PostgreSQL.</title><rect fill="#FFFFFF" height="29.1328" style="stroke:#181818;stroke-width:1;" width="10" x="1882.4824" y="354.7891"/></g><g><title>Base de Datos .PostgreSQL.</title><rect fill="#FFFFFF" height="29.1328" style="stroke:#181818;stroke-width:1;" width="10" x="1882.4824" y="847.0469"/></g><rect fill="none" height="716.9922" style="stroke:#000000;stroke-width:1.5;" width="2009.1455" x="10" y="428.0547"/><rect fill="none" height="295.4609" style="stroke:#000000;stroke-width:1.5;" width="1174.1533" x="834.9922" y="494.3203"/><rect fill="none" height="119.6641" style="stroke:#000000;stroke-width:1.5;" width="1154.1533" x="844.9922" y="560.5859"/><g class="participant-lifeline" data-entity-uid="part1" data-qualified-name="Teacher" id="part1-lifeline"><g><title>Docente</title><rect fill="#000000" fill-opacity="0.00000" height="1043.4531" width="8" x="48.3159" y="118.5938"/><line style="stroke:#181818;stroke-width:0.5;stroke-dasharray:5,5;" x1="52" x2="52" y1="118.5938" y2="1162.0469"/></g></g><g class="participant-lifeline" data-entity-uid="part2" data-qualified-name="FE" id="part2-lifeline"><g><title>Frontend .React.</title><rect fill="#000000" fill-opacity="0.00000" height="1043.4531" width="8" x="377.8076" y="118.5938"/><line style="stroke:#181818;stroke-width:0.5;stroke-dasharray:5,5;" x1="381.5127" x2="381.5127" y1="118.5938" y2="1162.0469"/></g></g><g class="participant-lifeline" data-entity-uid="part3" data-qualified-name="Controller" id="part3-lifeline"><g><title>GradosController</title><rect fill="#000000" fill-opacity="0.00000" height="1043.4531" width="8" x="674.6851" y="118.5938"/><line style="stroke:#181818;stroke-width:0.5;stroke-dasharray:5,5;" x1="678.1338" x2="678.1338" y1="118.5938" y2="1162.0469"/></g></g><g class="participant-lifeline" data-entity-uid="part4" data-qualified-name="Service" id="part4-lifeline"><g><title>GradoService</title><rect fill="#000000" fill-opacity="0.00000" height="1043.4531" width="8" x="905.1807" y="118.5938"/><line style="stroke:#181818;stroke-width:0.5;stroke-dasharray:5,5;" x1="908.9922" x2="908.9922" y1="118.5938" y2="1162.0469"/></g></g><g class="participant-lifeline" data-entity-uid="part5" data-qualified-name="AlumnoService" id="part5-lifeline"><g><title>AlumnoService</title><rect fill="#000000" fill-opacity="0.00000" height="1043.4531" width="8" x="1322.8984" y="118.5938"/><line style="stroke:#181818;stroke-width:0.5;stroke-dasharray:5,5;" x1="1326.3198" x2="1326.3198" y1="118.5938" y2="1162.0469"/></g></g><g class="participant-lifeline" data-entity-uid="part6" data-qualified-name="AsignaturaService" id="part6-lifeline"><g><title>AsignaturaService</title><rect fill="#000000" fill-opacity="0.00000" height="1043.4531" width="8" x="1463.2461" y="118.5938"/><line style="stroke:#181818;stroke-width:0.5;stroke-dasharray:5,5;" x1="1466.4771" x2="1466.4771" y1="118.5938" y2="1162.0469"/></g></g><g class="participant-lifeline" data-entity-uid="part7" data-qualified-name="Repo" id="part7-lifeline"><g><title>GradoRepository</title><rect fill="#000000" fill-opacity="0.00000" height="1043.4531" width="8" x="1609.8691" y="118.5938"/><line style="stroke:#181818;stroke-width:0.5;stroke-dasharray:5,5;" x1="1613.0151" x2="1613.0151" y1="118.5938" y2="1162.0469"/></g></g><g class="participant-lifeline" data-entity-uid="part8" data-qualified-name="DB" id="part8-lifeline"><g><title>Base de Datos .PostgreSQL.</title><rect fill="#000000" fill-opacity="0.00000" height="1043.4531" width="8" x="1883.4824" y="118.5938"/><line style="stroke:#181818;stroke-width:0.5;stroke-dasharray:5,5;" x1="1886.8193" x2="1886.8193" y1="118.5938" y2="1162.0469"/></g></g><g class="participant participant-head" data-entity-uid="part1" data-qualified-name="Teacher" id="part1-head"><text fill="#000000" font-family="sans-serif" font-size="14" lengthAdjust="spacing" textLength="58.6318" x="20" y="115.292">Docente</text><ellipse cx="52.3159" cy="50.7969" fill="#E2E2F0" rx="8" ry="8" style="stroke:#181818;stroke-width:0.5;"/><path d="M52.3159,58.7969 L52.3159,85.7969 M39.3159,66.7969 L65.3159,66.7969 M52.3159,85.7969 L39.3159,100.7969 M52.3159,85.7969 L65.3159,100.7969" fill="none" style="stroke:#181818;stroke-width:0.5;"/></g><g class="participant participant-tail" data-entity-uid="part1" data-qualified-name="Teacher" id="part1-tail"><text fill="#000000" font-family="sans-serif" font-size="14" lengthAdjust="spacing" textLength="58.6318" x="20" y="1174.042">Docente</text><ellipse cx="52.3159" cy="1185.8438" fill="#E2E2F0" rx="8" ry="8" style="stroke:#181818;stroke-width:0.5;"/><path d="M52.3159,1193.8438 L52.3159,1220.8438 M39.3159,1201.8438 L65.3159,1201.8438 M52.3159,1220.8438 L39.3159,1235.8438 M52.3159,1220.8438 L65.3159,1235.8438" fill="none" style="stroke:#181818;stroke-width:0.5;"/></g><g class="participant participant-head" data-entity-uid="part2" data-qualified-name="FE" id="part2-head"><rect fill="#E2E2F0" height="30.2969" rx="2.5" ry="2.5" style="stroke:#181818;stroke-width:0.5;" width="132.5898" x="315.5127" y="87.2969"/><text fill="#000000" font-family="sans-serif" font-size="14" lengthAdjust="spacing" textLength="118.5898" x="322.5127" y="107.292">Frontend (React)</text></g><g class="participant participant-tail" data-entity-uid="part2" data-qualified-name="FE" id="part2-tail"><rect fill="#E2E2F0" height="30.2969" rx="2.5" ry="2.5" style="stroke:#181818;stroke-width:0.5;" width="132.5898" x="315.5127" y="1161.0469"/><text fill="#000000" font-family="sans-serif" font-size="14" lengthAdjust="spacing" textLength="118.5898" x="322.5127" y="1181.042">Frontend (React)</text></g><g class="participant participant-head" data-entity-uid="part3" data-qualified-name="Controller" id="part3-head"><rect fill="#E2E2F0" height="30.2969" rx="2.5" ry="2.5" style="stroke:#181818;stroke-width:0.5;" width="133.1025" x="612.1338" y="87.2969"/><text fill="#000000" font-family="sans-serif" font-size="14" lengthAdjust="spacing" textLength="119.1025" x="619.1338" y="107.292">GradosController</text></g><g class="participant participant-tail" data-entity-uid="part3" data-qualified-name="Controller" id="part3-tail"><rect fill="#E2E2F0" height="30.2969" rx="2.5" ry="2.5" style="stroke:#181818;stroke-width:0.5;" width="133.1025" x="612.1338" y="1161.0469"/><text fill="#000000" font-family="sans-serif" font-size="14" lengthAdjust="spacing" textLength="119.1025" x="619.1338" y="1181.042">GradosController</text></g><g class="participant participant-head" data-entity-uid="part4" data-qualified-name="Service" id="part4-head"><rect fill="#E2E2F0" height="30.2969" rx="2.5" ry="2.5" style="stroke:#181818;stroke-width:0.5;" width="108.377" x="854.9922" y="87.2969"/><text fill="#000000" font-family="sans-serif" font-size="14" lengthAdjust="spacing" textLength="94.377" x="861.9922" y="107.292">GradoService</text></g><g class="participant participant-tail" data-entity-uid="part4" data-qualified-name="Service" id="part4-tail"><rect fill="#E2E2F0" height="30.2969" rx="2.5" ry="2.5" style="stroke:#181818;stroke-width:0.5;" width="108.377" x="854.9922" y="1161.0469"/><text fill="#000000" font-family="sans-serif" font-size="14" lengthAdjust="spacing" textLength="94.377" x="861.9922" y="1181.042">GradoService</text></g><g class="participant participant-head" data-entity-uid="part5" data-qualified-name="AlumnoService" id="part5-head"><rect fill="#E2E2F0" height="30.2969" rx="2.5" ry="2.5" style="stroke:#181818;stroke-width:0.5;" width="119.1572" x="1267.3198" y="87.2969"/><text fill="#000000" font-family="sans-serif" font-size="14" lengthAdjust="spacing" textLength="105.1572" x="1274.3198" y="107.292">AlumnoService</text></g><g class="participant participant-tail" data-entity-uid="part5" data-qualified-name="AlumnoService" id="part5-tail"><rect fill="#E2E2F0" height="30.2969" rx="2.5" ry="2.5" style="stroke:#181818;stroke-width:0.5;" width="119.1572" x="1267.3198" y="1161.0469"/><text fill="#000000" font-family="sans-serif" font-size="14" lengthAdjust="spacing" textLength="105.1572" x="1274.3198" y="1181.042">AlumnoService</text></g><g class="participant participant-head" data-entity-uid="part6" data-qualified-name="AsignaturaService" id="part6-head"><rect fill="#E2E2F0" height="30.2969" rx="2.5" ry="2.5" style="stroke:#181818;stroke-width:0.5;" width="141.5381" x="1396.4771" y="87.2969"/><text fill="#000000" font-family="sans-serif" font-size="14" lengthAdjust="spacing" textLength="127.5381" x="1403.4771" y="107.292">AsignaturaService</text></g><g class="participant participant-tail" data-entity-uid="part6" data-qualified-name="AsignaturaService" id="part6-tail"><rect fill="#E2E2F0" height="30.2969" rx="2.5" ry="2.5" style="stroke:#181818;stroke-width:0.5;" width="141.5381" x="1396.4771" y="1161.0469"/><text fill="#000000" font-family="sans-serif" font-size="14" lengthAdjust="spacing" textLength="127.5381" x="1403.4771" y="1181.042">AsignaturaService</text></g><g class="participant participant-head" data-entity-uid="part7" data-qualified-name="Repo" id="part7-head"><rect fill="#E2E2F0" height="30.2969" rx="2.5" ry="2.5" style="stroke:#181818;stroke-width:0.5;" width="131.708" x="1548.0151" y="87.2969"/><text fill="#000000" font-family="sans-serif" font-size="14" lengthAdjust="spacing" textLength="117.708" x="1555.0151" y="107.292">GradoRepository</text></g><g class="participant participant-tail" data-entity-uid="part7" data-qualified-name="Repo" id="part7-tail"><rect fill="#E2E2F0" height="30.2969" rx="2.5" ry="2.5" style="stroke:#181818;stroke-width:0.5;" width="131.708" x="1548.0151" y="1161.0469"/><text fill="#000000" font-family="sans-serif" font-size="14" lengthAdjust="spacing" textLength="117.708" x="1555.0151" y="1181.042">GradoRepository</text></g><g class="participant participant-head" data-entity-uid="part8" data-qualified-name="DB" id="part8-head"><text fill="#000000" font-family="sans-serif" font-size="14" lengthAdjust="spacing" textLength="197.3262" x="1785.8193" y="115.292">Base de Datos (PostgreSQL)</text><path d="M1869.4824,66.2969 C1869.4824,56.2969 1887.4824,56.2969 1887.4824,56.2969 C1887.4824,56.2969 1905.4824,56.2969 1905.4824,66.2969 L1905.4824,92.2969 C1905.4824,102.2969 1887.4824,102.2969 1887.4824,102.2969 C1887.4824,102.2969 1869.4824,102.2969 1869.4824,92.2969 L1869.4824,66.2969" fill="#E2E2F0" style="stroke:#181818;stroke-width:0.5;"/><path d="M1869.4824,66.2969 C1869.4824,76.2969 1887.4824,76.2969 1887.4824,76.2969 C1887.4824,76.2969 1905.4824,76.2969 1905.4824,66.2969" fill="none" style="stroke:#181818;stroke-width:0.5;"/></g><g class="participant participant-tail" data-entity-uid="part8" data-qualified-name="DB" id="part8-tail"><text fill="#000000" font-family="sans-serif" font-size="14" lengthAdjust="spacing" textLength="197.3262" x="1785.8193" y="1174.042">Base de Datos (PostgreSQL)</text><path d="M1869.4824,1187.3438 C1869.4824,1177.3438 1887.4824,1177.3438 1887.4824,1177.3438 C1887.4824,1177.3438 1905.4824,1177.3438 1905.4824,1187.3438 L1905.4824,1213.3438 C1905.4824,1223.3438 1887.4824,1223.3438 1887.4824,1223.3438 C1887.4824,1223.3438 1869.4824,1223.3438 1869.4824,1213.3438 L1869.4824,1187.3438" fill="#E2E2F0" style="stroke:#181818;stroke-width:0.5;"/><path d="M1869.4824,1187.3438 C1869.4824,1197.3438 1887.4824,1197.3438 1887.4824,1197.3438 C1887.4824,1197.3438 1905.4824,1197.3438 1905.4824,1187.3438" fill="none" style="stroke:#181818;stroke-width:0.5;"/></g><g><title>Frontend .React.</title><rect fill="#FFFFFF" height="1002.3203" style="stroke:#181818;stroke-width:1;" width="10" x="376.8076" y="149.7266"/></g><g><title>GradosController</title><rect fill="#FFFFFF" height="696.1875" style="stroke:#181818;stroke-width:1;" width="10" x="673.6851" y="267.3906"/></g><g><title>GradoService</title><rect fill="#FFFFFF" height="637.9219" style="stroke:#181818;stroke-width:1;" width="10" x="904.1807" y="296.5234"/></g><g><title>AlumnoService</title><rect fill="#FFFFFF" height="73.3984" style="stroke:#181818;stroke-width:1;" width="10" x="1321.8984" y="598.8516"/></g><g><title>AsignaturaService</title><rect fill="#FFFFFF" height="73.3984" style="stroke:#181818;stroke-width:1;" width="10" x="1462.2461" y="708.3828"/></g><g><title>GradoRepository</title><rect fill="#FFFFFF" height="87.3984" style="stroke:#181818;stroke-width:1;" width="10" x="1608.8691" y="325.6563"/></g><g><title>GradoRepository</title><rect fill="#FFFFFF" height="87.3984" style="stroke:#181818;stroke-width:1;" width="10" x="1608.8691" y="817.9141"/></g><g><title>Base de Datos .PostgreSQL.</title><rect fill="#FFFFFF" height="29.1328" style="stroke:#181818;stroke-width:1;" width="10" x="1882.4824" y="354.7891"/></g><g><title>Base de Datos .PostgreSQL.</title><rect fill="#FFFFFF" height="29.1328" style="stroke:#181818;stroke-width:1;" width="10" x="1882.4824" y="847.0469"/></g><g class="message" data-entity-1="part1" data-entity-2="part2" id="msg1"><polygon fill="#181818" points="364.8076,145.7266,374.8076,149.7266,364.8076,153.7266,368.8076,149.7266" style="stroke:#181818;stroke-width:1;"/><line style="stroke:#181818;stroke-width:1;" x1="52.3159" x2="370.8076" y1="149.7266" y2="149.7266"/><text fill="#000000" font-family="sans-serif" font-size="13" lengthAdjust="spacing" textLength="196.1616" x="59.3159" y="144.6606">Clic en "Eliminar" (en una fila)</text></g><g class="message" data-entity-1="part2" data-entity-2="part1" id="msg2"><polygon fill="#181818" points="63.3159,189.9922,53.3159,193.9922,63.3159,197.9922,59.3159,193.9922" style="stroke:#181818;stroke-width:1;"/><line style="stroke:#181818;stroke-width:1;stroke-dasharray:2,2;" x1="57.3159" x2="375.8076" y1="193.9922" y2="193.9922"/><text fill="#000000" font-family="sans-serif" font-size="13" lengthAdjust="spacing" textLength="267.3633" x="69.3159" y="173.7935">Mostrar Di&#225;logo de Confirmaci&#243;n (Modal)</text><text fill="#000000" font-family="sans-serif" font-size="13" lengthAdjust="spacing" textLength="129.4097" x="69.3159" y="188.9263">con datos del grado</text></g><g class="message" data-entity-1="part1" data-entity-2="part2" id="msg3"><polygon fill="#181818" points="364.8076,219.125,374.8076,223.125,364.8076,227.125,368.8076,223.125" style="stroke:#181818;stroke-width:1;"/><line style="stroke:#181818;stroke-width:1;" x1="52.3159" x2="370.8076" y1="223.125" y2="223.125"/><text fill="#000000" font-family="sans-serif" font-size="13" lengthAdjust="spacing" textLength="138.2202" x="59.3159" y="218.0591">Confirma eliminaci&#243;n</text></g><g class="message" data-entity-1="part2" data-entity-2="part3" id="msg4"><polygon fill="#181818" points="661.6851,263.3906,671.6851,267.3906,661.6851,271.3906,665.6851,267.3906" style="stroke:#181818;stroke-width:1;"/><line style="stroke:#181818;stroke-width:1;" x1="386.8076" x2="667.6851" y1="267.3906" y2="267.3906"/><text fill="#000000" font-family="sans-serif" font-size="13" lengthAdjust="spacing" textLength="159.8848" x="393.8076" y="247.1919">DELETE /api/grados/{id}</text><text fill="#000000" font-family="sans-serif" font-size="13" lengthAdjust="spacing" textLength="267.8774" x="393.8076" y="262.3247">(Header: Authorization: Bearer &lt;token&gt;)</text></g><g class="message" data-entity-1="part3" data-entity-2="part4" id="msg5"><polygon fill="#181818" points="892.1807,292.5234,902.1807,296.5234,892.1807,300.5234,896.1807,296.5234" style="stroke:#181818;stroke-width:1;"/><line style="stroke:#181818;stroke-width:1;" x1="683.6851" x2="898.1807" y1="296.5234" y2="296.5234"/><text fill="#000000" font-family="sans-serif" font-size="13" lengthAdjust="spacing" textLength="187.6812" x="690.6851" y="291.4575">eliminarGrado(id, docenteId)</text></g><g class="message" data-entity-1="part4" data-entity-2="part7" id="msg6"><polygon fill="#181818" points="1596.8691,321.6563,1606.8691,325.6563,1596.8691,329.6563,1600.8691,325.6563" style="stroke:#181818;stroke-width:1;"/><line style="stroke:#181818;stroke-width:1;" x1="914.1807" x2="1602.8691" y1="325.6563" y2="325.6563"/><text fill="#000000" font-family="sans-serif" font-size="13" lengthAdjust="spacing" textLength="75.3848" x="921.1807" y="320.5903">findById(id)</text></g><g class="message" data-entity-1="part7" data-entity-2="part8" id="msg7"><polygon fill="#181818" points="1870.4824,350.7891,1880.4824,354.7891,1870.4824,358.7891,1874.4824,354.7891" style="stroke:#181818;stroke-width:1;"/><line style="stroke:#181818;stroke-width:1;" x1="1618.8691" x2="1876.4824" y1="354.7891" y2="354.7891"/><text fill="#000000" font-family="sans-serif" font-size="13" lengthAdjust="spacing" textLength="244.6133" x="1625.8691" y="349.7231">SELECT * FROM grados WHERE id = ?</text></g><g class="message" data-entity-1="part8" data-entity-2="part7" id="msg8"><polygon fill="#181818" points="1629.8691,379.9219,1619.8691,383.9219,1629.8691,387.9219,1625.8691,383.9219" style="stroke:#181818;stroke-width:1;"/><line style="stroke:#181818;stroke-width:1;stroke-dasharray:2,2;" x1="1623.8691" x2="1886.4824" y1="383.9219" y2="383.9219"/><text fill="#000000" font-family="sans-serif" font-size="13" lengthAdjust="spacing" textLength="116.3398" x="1635.8691" y="378.856">Optional&lt;Grado&gt;</text></g><g class="message" data-entity-1="part7" data-entity-2="part4" id="msg9"><polygon fill="#181818" points="925.1807,409.0547,915.1807,413.0547,925.1807,417.0547,921.1807,413.0547" style="stroke:#181818;stroke-width:1;"/><line style="stroke:#181818;stroke-width:1;stroke-dasharray:2,2;" x1="919.1807" x2="1612.8691" y1="413.0547" y2="413.0547"/><text fill="#000000" font-family="sans-serif" font-size="13" lengthAdjust="spacing" textLength="116.3398" x="931.1807" y="407.9888">Optional&lt;Grado&gt;</text></g><path d="M10,428.0547 L74.4429,428.0547 L74.4429,435.1875 L64.4429,445.1875 L10,445.1875 L10,428.0547" fill="#EEEEEE" style="stroke:#000000;stroke-width:1.5;"/><rect fill="none" height="716.9922" style="stroke:#000000;stroke-width:1.5;" width="2009.1455" x="10" y="428.0547"/><text fill="#000000" font-family="sans-serif" font-size="13" font-weight="bold" lengthAdjust="spacing" textLength="19.4429" x="25" y="441.1216">alt</text><text fill="#000000" font-family="sans-serif" font-size="11" font-weight="bold" lengthAdjust="spacing" textLength="236.6772" x="89.4429" y="440.2651">[Grado Existe y Pertenece al Docente]</text><g class="message" data-entity-1="part4" data-entity-2="part4" id="msg10"><line style="stroke:#181818;stroke-width:1;" x1="914.1807" x2="956.1807" y1="466.3203" y2="466.3203"/><line style="stroke:#181818;stroke-width:1;" x1="956.1807" x2="956.1807" y1="466.3203" y2="479.3203"/><line style="stroke:#181818;stroke-width:1;" x1="915.1807" x2="956.1807" y1="479.3203" y2="479.3203"/><polygon fill="#181818" points="925.1807,475.3203,915.1807,479.3203,925.1807,483.3203,921.1807,479.3203" style="stroke:#181818;stroke-width:1;"/><text fill="#000000" font-family="sans-serif" font-size="13" lengthAdjust="spacing" textLength="150.5474" x="921.1807" y="461.2544">grado.getAsignaturas()</text></g><path d="M834.9922,494.3203 L911.6162,494.3203 L911.6162,501.4531 L901.6162,511.4531 L834.9922,511.4531 L834.9922,494.3203" fill="#EEEEEE" style="stroke:#000000;stroke-width:1.5;"/><rect fill="none" height="295.4609" style="stroke:#000000;stroke-width:1.5;" width="1174.1533" x="834.9922" y="494.3203"/><text fill="#000000" font-family="sans-serif" font-size="13" font-weight="bold" lengthAdjust="spacing" textLength="31.624" x="849.9922" y="507.3872">loop</text><text fill="#000000" font-family="sans-serif" font-size="11" font-weight="bold" lengthAdjust="spacing" textLength="205.0093" x="926.6162" y="506.5308">[Para cada asignatura del grado]</text><g class="message" data-entity-1="part4" data-entity-2="part4" id="msg11"><line style="stroke:#181818;stroke-width:1;" x1="914.1807" x2="956.1807" y1="532.5859" y2="532.5859"/><line style="stroke:#181818;stroke-width:1;" x1="956.1807" x2="956.1807" y1="532.5859" y2="545.5859"/><line style="stroke:#181818;stroke-width:1;" x1="915.1807" x2="956.1807" y1="545.5859" y2="545.5859"/><polygon fill="#181818" points="925.1807,541.5859,915.1807,545.5859,925.1807,549.5859,921.1807,545.5859" style="stroke:#181818;stroke-width:1;"/><text fill="#000000" font-family="sans-serif" font-size="13" lengthAdjust="spacing" textLength="129.7651" x="921.1807" y="527.52">grado.getAlumnos()</text></g><path d="M844.9922,560.5859 L921.6162,560.5859 L921.6162,567.7188 L911.6162,577.7188 L844.9922,577.7188 L844.9922,560.5859" fill="#EEEEEE" style="stroke:#000000;stroke-width:1.5;"/><rect fill="none" height="119.6641" style="stroke:#000000;stroke-width:1.5;" width="1154.1533" x="844.9922" y="560.5859"/><text fill="#000000" font-family="sans-serif" font-size="13" font-weight="bold" lengthAdjust="spacing" textLength="31.624" x="859.9922" y="573.6528">loop</text><text fill="#000000" font-family="sans-serif" font-size="11" font-weight="bold" lengthAdjust="spacing" textLength="184.0781" x="936.6162" y="572.7964">[Para cada alumno del grado]</text><g class="message" data-entity-1="part4" data-entity-2="part5" id="msg12"><polygon fill="#181818" points="1309.8984,594.8516,1319.8984,598.8516,1309.8984,602.8516,1313.8984,598.8516" style="stroke:#181818;stroke-width:1;"/><line style="stroke:#181818;stroke-width:1;" x1="914.1807" x2="1315.8984" y1="598.8516" y2="598.8516"/><text fill="#000000" font-family="sans-serif" font-size="13" lengthAdjust="spacing" textLength="388.7178" x="921.1807" y="593.7856">desmatricularAlumnoDeAsignatura(alumnoId, asignaturaId)</text></g><g class="message" data-entity-1="part5" data-entity-2="part8" id="msg13"><polygon fill="#181818" points="1875.4824,639.1172,1885.4824,643.1172,1875.4824,647.1172,1879.4824,643.1172" style="stroke:#181818;stroke-width:1;"/><line style="stroke:#181818;stroke-width:1;" x1="1331.8984" x2="1881.4824" y1="643.1172" y2="643.1172"/><text fill="#000000" font-family="sans-serif" font-size="13" lengthAdjust="spacing" textLength="181.1748" x="1338.8984" y="622.9185">UPDATE alumno_asignatura</text><text fill="#000000" font-family="sans-serif" font-size="13" lengthAdjust="spacing" textLength="121.145" x="1338.8984" y="638.0513">(remover relaci&#243;n)</text></g><g class="message" data-entity-1="part5" data-entity-2="part4" id="msg14"><polygon fill="#181818" points="925.1807,668.25,915.1807,672.25,925.1807,676.25,921.1807,672.25" style="stroke:#181818;stroke-width:1;"/><line style="stroke:#181818;stroke-width:1;stroke-dasharray:2,2;" x1="919.1807" x2="1325.8984" y1="672.25" y2="672.25"/><text fill="#000000" font-family="sans-serif" font-size="13" lengthAdjust="spacing" textLength="27.5107" x="931.1807" y="667.1841">void</text></g><g class="message" data-entity-1="part4" data-entity-2="part6" id="msg15"><polygon fill="#181818" points="1450.2461,704.3828,1460.2461,708.3828,1450.2461,712.3828,1454.2461,708.3828" style="stroke:#181818;stroke-width:1;"/><line style="stroke:#181818;stroke-width:1;" x1="914.1807" x2="1456.2461" y1="708.3828" y2="708.3828"/><text fill="#000000" font-family="sans-serif" font-size="13" lengthAdjust="spacing" textLength="298.0034" x="921.1807" y="703.3169">eliminarRelacionGrado(gradoId, asignaturaId)</text></g><g class="message" data-entity-1="part6" data-entity-2="part8" id="msg16"><polygon fill="#181818" points="1875.4824,748.6484,1885.4824,752.6484,1875.4824,756.6484,1879.4824,752.6484" style="stroke:#181818;stroke-width:1;"/><line style="stroke:#181818;stroke-width:1;" x1="1472.2461" x2="1881.4824" y1="752.6484" y2="752.6484"/><text fill="#000000" font-family="sans-serif" font-size="13" lengthAdjust="spacing" textLength="170.2695" x="1479.2461" y="732.4497">UPDATE asignatura_grado</text><text fill="#000000" font-family="sans-serif" font-size="13" lengthAdjust="spacing" textLength="121.145" x="1479.2461" y="747.5825">(remover relaci&#243;n)</text></g><g class="message" data-entity-1="part6" data-entity-2="part4" id="msg17"><polygon fill="#181818" points="925.1807,777.7813,915.1807,781.7813,925.1807,785.7813,921.1807,781.7813" style="stroke:#181818;stroke-width:1;"/><line style="stroke:#181818;stroke-width:1;stroke-dasharray:2,2;" x1="919.1807" x2="1466.2461" y1="781.7813" y2="781.7813"/><text fill="#000000" font-family="sans-serif" font-size="13" lengthAdjust="spacing" textLength="27.5107" x="931.1807" y="776.7153">void</text></g><g class="message" data-entity-1="part4" data-entity-2="part7" id="msg18"><polygon fill="#181818" points="1596.8691,813.9141,1606.8691,817.9141,1596.8691,821.9141,1600.8691,817.9141" style="stroke:#181818;stroke-width:1;"/><line style="stroke:#181818;stroke-width:1;" x1="914.1807" x2="1602.8691" y1="817.9141" y2="817.9141"/><text fill="#000000" font-family="sans-serif" font-size="13" lengthAdjust="spacing" textLength="91.6602" x="921.1807" y="812.8481">deleteById(id)</text></g><g class="message" data-entity-1="part7" data-entity-2="part8" id="msg19"><polygon fill="#181818" points="1870.4824,843.0469,1880.4824,847.0469,1870.4824,851.0469,1874.4824,847.0469" style="stroke:#181818;stroke-width:1;"/><line style="stroke:#181818;stroke-width:1;" x1="1618.8691" x2="1876.4824" y1="847.0469" y2="847.0469"/><text fill="#000000" font-family="sans-serif" font-size="13" lengthAdjust="spacing" textLength="234.876" x="1625.8691" y="841.981">DELETE FROM grados WHERE id = ?</text></g><g class="message" data-entity-1="part8" data-entity-2="part7" id="msg20"><polygon fill="#181818" points="1629.8691,872.1797,1619.8691,876.1797,1629.8691,880.1797,1625.8691,876.1797" style="stroke:#181818;stroke-width:1;"/><line style="stroke:#181818;stroke-width:1;stroke-dasharray:2,2;" x1="1623.8691" x2="1886.4824" y1="876.1797" y2="876.1797"/><text fill="#000000" font-family="sans-serif" font-size="13" lengthAdjust="spacing" textLength="18.7573" x="1635.8691" y="871.1138">OK</text></g><g class="message" data-entity-1="part7" data-entity-2="part4" id="msg21"><polygon fill="#181818" points="925.1807,901.3125,915.1807,905.3125,925.1807,909.3125,921.1807,905.3125" style="stroke:#181818;stroke-width:1;"/><line style="stroke:#181818;stroke-width:1;stroke-dasharray:2,2;" x1="919.1807" x2="1612.8691" y1="905.3125" y2="905.3125"/><text fill="#000000" font-family="sans-serif" font-size="13" lengthAdjust="spacing" textLength="27.5107" x="931.1807" y="900.2466">void</text></g><g class="message" data-entity-1="part4" data-entity-2="part3" id="msg22"><polygon fill="#181818" points="694.6851,930.4453,684.6851,934.4453,694.6851,938.4453,690.6851,934.4453" style="stroke:#181818;stroke-width:1;"/><line style="stroke:#181818;stroke-width:1;stroke-dasharray:2,2;" x1="688.6851" x2="908.1807" y1="934.4453" y2="934.4453"/><text fill="#000000" font-family="sans-serif" font-size="13" lengthAdjust="spacing" textLength="27.5107" x="700.6851" y="929.3794">void</text></g><g class="message" data-entity-1="part3" data-entity-2="part2" id="msg23"><polygon fill="#181818" points="397.8076,959.5781,387.8076,963.5781,397.8076,967.5781,393.8076,963.5781" style="stroke:#181818;stroke-width:1;"/><line style="stroke:#181818;stroke-width:1;stroke-dasharray:2,2;" x1="391.8076" x2="677.6851" y1="963.5781" y2="963.5781"/><text fill="#000000" font-family="sans-serif" font-size="13" lengthAdjust="spacing" textLength="102.4575" x="403.8076" y="958.5122">204 No Content</text></g><g class="message" data-entity-1="part2" data-entity-2="part2" id="msg24"><line style="stroke:#181818;stroke-width:1;" x1="386.8076" x2="428.8076" y1="992.7109" y2="992.7109"/><line style="stroke:#181818;stroke-width:1;" x1="428.8076" x2="428.8076" y1="992.7109" y2="1005.7109"/><line style="stroke:#181818;stroke-width:1;" x1="387.8076" x2="428.8076" y1="1005.7109" y2="1005.7109"/><polygon fill="#181818" points="397.8076,1001.7109,387.8076,1005.7109,397.8076,1009.7109,393.8076,1005.7109" style="stroke:#181818;stroke-width:1;"/><text fill="#000000" font-family="sans-serif" font-size="13" lengthAdjust="spacing" textLength="239.2939" x="393.8076" y="987.645">Remover de la lista (actualizar vista)</text></g><g class="message" data-entity-1="part2" data-entity-2="part1" id="msg25"><polygon fill="#181818" points="63.3159,1030.8438,53.3159,1034.8438,63.3159,1038.8438,59.3159,1034.8438" style="stroke:#181818;stroke-width:1;"/><line style="stroke:#181818;stroke-width:1;stroke-dasharray:2,2;" x1="57.3159" x2="375.8076" y1="1034.8438" y2="1034.8438"/><text fill="#000000" font-family="sans-serif" font-size="13" lengthAdjust="spacing" textLength="300.4917" x="69.3159" y="1029.7778">Notificaci&#243;n "Grado eliminado correctamente"</text></g><line style="stroke:#000000;stroke-width:1;stroke-dasharray:2,2;" x1="10" x2="2019.1455" y1="1043.8438" y2="1043.8438"/><text fill="#000000" font-family="sans-serif" font-size="11" font-weight="bold" lengthAdjust="spacing" textLength="278.2495" x="15" y="1054.0542">[Grado No Existe o No Pertenece al Docente]</text><g class="message" data-entity-1="part4" data-entity-2="part3" id="msg26"><polygon fill="#181818" points="689.6851,1074.7813,679.6851,1078.7813,689.6851,1082.7813,685.6851,1078.7813" style="stroke:#181818;stroke-width:1;"/><line style="stroke:#181818;stroke-width:1;stroke-dasharray:2,2;" x1="683.6851" x2="908.1807" y1="1078.7813" y2="1078.7813"/><text fill="#000000" font-family="sans-serif" font-size="13" lengthAdjust="spacing" textLength="206.4956" x="695.6851" y="1073.7153">throw EntityNotFoundException</text></g><g class="message" data-entity-1="part3" data-entity-2="part2" id="msg27"><polygon fill="#181818" points="397.8076,1103.9141,387.8076,1107.9141,397.8076,1111.9141,393.8076,1107.9141" style="stroke:#181818;stroke-width:1;"/><line style="stroke:#181818;stroke-width:1;stroke-dasharray:2,2;" x1="391.8076" x2="677.6851" y1="1107.9141" y2="1107.9141"/><text fill="#000000" font-family="sans-serif" font-size="13" lengthAdjust="spacing" textLength="96.0146" x="403.8076" y="1102.8481">404 Not Found</text></g><g class="message" data-entity-1="part2" data-entity-2="part1" id="msg28"><polygon fill="#181818" points="63.3159,1133.0469,53.3159,1137.0469,63.3159,1141.0469,59.3159,1137.0469" style="stroke:#181818;stroke-width:1;"/><line style="stroke:#181818;stroke-width:1;stroke-dasharray:2,2;" x1="57.3159" x2="375.8076" y1="1137.0469" y2="1137.0469"/><text fill="#000000" font-family="sans-serif" font-size="13" lengthAdjust="spacing" textLength="240.3604" x="69.3159" y="1131.981">Mostrar Error "Grado no encontrado"</text></g><?plantuml-src bLRTRjCm5BxFKnprAWN64DfLDORM9MKJR8nsY1iaT8ZFEWlNhXotR20UXcVW4NWnZfsqST9iG2_IsFxEttT-72UT8iWapYqk40J1Z8eLwK8Yx46kv49gjF3AeZ2yCLjQgUSmDiR1OvWI5Yv9-64i339Ja7Oq02pXYazko2PBj4uMSedQmM1Y3Pzh0MaG70Ra96-3WgNoX97MA4KsW9fb3tX6TYsBocxztaOTgzL2js2jdGwub7EDRcMn9T3TxV5ZIajJIgRYBeZuPIBGuMSi2GPZ_sHwCtIcXFJIb6vkQVRkJKL3DawIcZJOEs9MHd2YP06aOR39mW1INguqmhLKEFIyopKwyXnESjXZkLh52CvPl-N4PVBtJsNcnfjc5g-bNM0XV__Ia9uRWMhuKHT6WmXU2L8mzw7ik59B0bMk10t1vb6Kcn5a-PlyAeTzNChzeAZS_ox5ZuywFIKK7d6ySZV6oc_efD4Z61DQDdFep1VIHr58KSQRLs-kvd-qSSK6xbCfde2e2l1CH7eswQh_lGQVc15JgCNuxaomP0GFIVCF3yp68vXnH2TNy0WcqxVd5JabV3ZDfpb80I_WPIFBASp68GkLXRTB7oEgm-3XKI8eXbP6ue0Um0UtKBcw3_DRMVBk7LoIvOOYZWiLrFsN0F-YSBVwW_DFv-IQOYxJOO0hOvPmYHQXG85SZnj0L19G_nvM7HfhexPFTG3qgEseRdNeYF7b0fsLnKgXhSuoQk98AxLdN0IDxxuEOkrRDjlT7qDQ9viIU7-P7NDHLoO-DVgvgYqjp9hhqfAgUcBuaBgOiRMHeeMDijtl7m_ElXpiJAQcCwR1AwEh3WbqtyzGOtrdr6t3wPvq6TgUVmh67YQeHzkz1CNazBgt8MUdpRdGoD6sqLkHXgxoEt73roFitdPlQU0-zkjssxzEEYxNgDsEtyRORVLMA9qPsoSKKn6FotfyFtzs01ScdF24w0f7ezQVL5FTYqthvF7LeH0Kpno4bCLMg7Y0MrZxdU5MABv-BeoJrxAehvhgVjpK9RyLnbeg72x21qD2Yk_62dEndMxX_Uy3hiEEkx7cA-JQINV7JapCIelyjg0mM_-JjeD0cuEWv1zOwxj_Sslzjr4L70y-yjUjyoiEcxL66YVv7m00?></g></svg>