<?plantuml 1.2026.2?><svg xmlns="http://www.w3.org/2000/svg" xmlns:xlink="http://www.w3.org/1999/xlink" contentStyleType="text/css" data-diagram-type="SEQUENCE" height="891px" preserveAspectRatio="none" style="width:1451px;height:891px;background:#FFFFFF;" version="1.1" viewBox="0 0 1451 891" width="1451px" zoomAndPan="magnify"><title>Diagrama de Secuencia - Eliminar Grado - Spring Boot + React</title><defs/><g><text fill="#000000" font-family="sans-serif" font-size="14" font-weight="bold" lengthAdjust="spacing" textLength="493.1924" x="480.3022" y="27.9951">Diagrama de Secuencia - Eliminar Grado - Spring Boot + React</text><g><title>Frontend .React.</title><rect fill="#FFFFFF" height="650.7266" style="stroke:#181818;stroke-width:1;" width="10" x="376.8076" y="149.7266"/></g><g><title>GradosController</title><rect fill="#FFFFFF" height="344.5938" style="stroke:#181818;stroke-width:1;" width="10" x="673.6851" y="267.3906"/></g><g><title>GradoService</title><rect fill="#FFFFFF" height="286.3281" style="stroke:#181818;stroke-width:1;" width="10" x="904.1807" y="296.5234"/></g><g><title>GradoRepository</title><rect fill="#FFFFFF" height="87.3984" style="stroke:#181818;stroke-width:1;" width="10" x="1054.5205" y="325.6563"/></g><g><title>GradoRepository</title><rect fill="#FFFFFF" height="87.3984" style="stroke:#181818;stroke-width:1;" width="10" x="1054.5205" y="466.3203"/></g><g><title>Base de Datos .PostgreSQL.</title><rect fill="#FFFFFF" height="29.1328" style="stroke:#181818;stroke-width:1;" width="10" x="1328.1338" y="354.7891"/></g><g><title>Base de Datos .PostgreSQL.</title><rect fill="#FFFFFF" height="29.1328" style="stroke:#181818;stroke-width:1;" width="10" x="1328.1338" y="495.4531"/></g><rect fill="none" height="365.3984" style="stroke:#000000;stroke-width:1.5;" width="1434.7969" x="10" y="428.0547"/><g class="participant-lifeline" data-entity-uid="part1" data-qualified-name="Teacher" id="part1-lifeline"><g><title>Docente</title><rect fill="#000000" fill-opacity="0.00000" height="691.8594" width="8" x="48.3159" y="118.5938"/><line style="stroke:#181818;stroke-width:0.5;stroke-dasharray:5,5;" x1="52" x2="52" y1="118.5938" y2="810.4531"/></g></g><g class="participant-lifeline" data-entity-uid="part2" data-qualified-name="FE" id="part2-lifeline"><g><title>Frontend .React.</title><rect fill="#000000" fill-opacity="0.00000" height="691.8594" width="8" x="377.8076" y="118.5938"/><line style="stroke:#181818;stroke-width:0.5;stroke-dasharray:5,5;" x1="381.5127" x2="381.5127" y1="118.5938" y2="810.4531"/></g></g><g class="participant-lifeline" data-entity-uid="part3" data-qualified-name="Controller" id="part3-lifeline"><g><title>GradosController</title><rect fill="#000000" fill-opacity="0.00000" height="691.8594" width="8" x="674.6851" y="118.5938"/><line style="stroke:#181818;stroke-width:0.5;stroke-dasharray:5,5;" x1="678.1338" x2="678.1338" y1="118.5938" y2="810.4531"/></g></g><g class="participant-lifeline" data-entity-uid="part4" data-qualified-name="Service" id="part4-lifeline"><g><title>GradoService</title><rect fill="#000000" fill-opacity="0.00000" height="691.8594" width="8" x="905.1807" y="118.5938"/><line style="stroke:#181818;stroke-width:0.5;stroke-dasharray:5,5;" x1="908.9922" x2="908.9922" y1="118.5938" y2="810.4531"/></g></g><g class="participant-lifeline" data-entity-uid="part5" data-qualified-name="Repo" id="part5-lifeline"><g><title>GradoRepository</title><rect fill="#000000" fill-opacity="0.00000" height="691.8594" width="8" x="1055.5205" y="118.5938"/><line style="stroke:#181818;stroke-width:0.5;stroke-dasharray:5,5;" x1="1058.6665" x2="1058.6665" y1="118.5938" y2="810.4531"/></g></g><g class="participant-lifeline" data-entity-uid="part6" data-qualified-name="DB" id="part6-lifeline"><g><title>Base de Datos .PostgreSQL.</title><rect fill="#000000" fill-opacity="0.00000" height="691.8594" width="8" x="1329.1338" y="118.5938"/><line style="stroke:#181818;stroke-width:0.5;stroke-dasharray:5,5;" x1="1332.4707" x2="1332.4707" y1="118.5938" y2="810.4531"/></g></g><g class="participant participant-head" data-entity-uid="part1" data-qualified-name="Teacher" id="part1-head"><text fill="#000000" font-family="sans-serif" font-size="14" lengthAdjust="spacing" textLength="58.6318" x="20" y="115.292">Docente</text><ellipse cx="52.3159" cy="50.7969" fill="#E2E2F0" rx="8" ry="8" style="stroke:#181818;stroke-width:0.5;"/><path d="M52.3159,58.7969 L52.3159,85.7969 M39.3159,66.7969 L65.3159,66.7969 M52.3159,85.7969 L39.3159,100.7969 M52.3159,85.7969 L65.3159,100.7969" fill="none" style="stroke:#181818;stroke-width:0.5;"/></g><g class="participant participant-tail" data-entity-uid="part1" data-qualified-name="Teacher" id="part1-tail"><text fill="#000000" font-family="sans-serif" font-size="14" lengthAdjust="spacing" textLength="58.6318" x="20" y="822.4482">Docente</text><ellipse cx="52.3159" cy="834.25" fill="#E2E2F0" rx="8" ry="8" style="stroke:#181818;stroke-width:0.5;"/><path d="M52.3159,842.25 L52.3159,869.25 M39.3159,850.25 L65.3159,850.25 M52.3159,869.25 L39.3159,884.25 M52.3159,869.25 L65.3159,884.25" fill="none" style="stroke:#181818;stroke-width:0.5;"/></g><g class="participant participant-head" data-entity-uid="part2" data-qualified-name="FE" id="part2-head"><rect fill="#E2E2F0" height="30.2969" rx="2.5" ry="2.5" style="stroke:#181818;stroke-width:0.5;" width="132.5898" x="315.5127" y="87.2969"/><text fill="#000000" font-family="sans-serif" font-size="14" lengthAdjust="spacing" textLength="118.5898" x="322.5127" y="107.292">Frontend (React)</text></g><g class="participant participant-tail" data-entity-uid="part2" data-qualified-name="FE" id="part2-tail"><rect fill="#E2E2F0" height="30.2969" rx="2.5" ry="2.5" style="stroke:#181818;stroke-width:0.5;" width="132.5898" x="315.5127" y="809.4531"/><text fill="#000000" font-family="sans-serif" font-size="14" lengthAdjust="spacing" textLength="118.5898" x="322.5127" y="829.4482">Frontend (React)</text></g><g class="participant participant-head" data-entity-uid="part3" data-qualified-name="Controller" id="part3-head"><rect fill="#E2E2F0" height="30.2969" rx="2.5" ry="2.5" style="stroke:#181818;stroke-width:0.5;" width="133.1025" x="612.1338" y="87.2969"/><text fill="#000000" font-family="sans-serif" font-size="14" lengthAdjust="spacing" textLength="119.1025" x="619.1338" y="107.292">GradosController</text></g><g class="participant participant-tail" data-entity-uid="part3" data-qualified-name="Controller" id="part3-tail"><rect fill="#E2E2F0" height="30.2969" rx="2.5" ry="2.5" style="stroke:#181818;stroke-width:0.5;" width="133.1025" x="612.1338" y="809.4531"/><text fill="#000000" font-family="sans-serif" font-size="14" lengthAdjust="spacing" textLength="119.1025" x="619.1338" y="829.4482">GradosController</text></g><g class="participant participant-head" data-entity-uid="part4" data-qualified-name="Service" id="part4-head"><rect fill="#E2E2F0" height="30.2969" rx="2.5" ry="2.5" style="stroke:#181818;stroke-width:0.5;" width="108.377" x="854.9922" y="87.2969"/><text fill="#000000" font-family="sans-serif" font-size="14" lengthAdjust="spacing" textLength="94.377" x="861.9922" y="107.292">GradoService</text></g><g class="participant participant-tail" data-entity-uid="part4" data-qualified-name="Service" id="part4-tail"><rect fill="#E2E2F0" height="30.2969" rx="2.5" ry="2.5" style="stroke:#181818;stroke-width:0.5;" width="108.377" x="854.9922" y="809.4531"/><text fill="#000000" font-family="sans-serif" font-size="14" lengthAdjust="spacing" textLength="94.377" x="861.9922" y="829.4482">GradoService</text></g><g class="participant participant-head" data-entity-uid="part5" data-qualified-name="Repo" id="part5-head"><rect fill="#E2E2F0" height="30.2969" rx="2.5" ry="2.5" style="stroke:#181818;stroke-width:0.5;" width="131.708" x="993.6665" y="87.2969"/><text fill="#000000" font-family="sans-serif" font-size="14" lengthAdjust="spacing" textLength="117.708" x="1000.6665" y="107.292">GradoRepository</text></g><g class="participant participant-tail" data-entity-uid="part5" data-qualified-name="Repo" id="part5-tail"><rect fill="#E2E2F0" height="30.2969" rx="2.5" ry="2.5" style="stroke:#181818;stroke-width:0.5;" width="131.708" x="993.6665" y="809.4531"/><text fill="#000000" font-family="sans-serif" font-size="14" lengthAdjust="spacing" textLength="117.708" x="1000.6665" y="829.4482">GradoRepository</text></g><g class="participant participant-head" data-entity-uid="part6" data-qualified-name="DB" id="part6-head"><text fill="#000000" font-family="sans-serif" font-size="14" lengthAdjust="spacing" textLength="197.3262" x="1231.4707" y="115.292">Base de Datos (PostgreSQL)</text><path d="M1315.1338,66.2969 C1315.1338,56.2969 1333.1338,56.2969 1333.1338,56.2969 C1333.1338,56.2969 1351.1338,56.2969 1351.1338,66.2969 L1351.1338,92.2969 C1351.1338,102.2969 1333.1338,102.2969 1333.1338,102.2969 C1333.1338,102.2969 1315.1338,102.2969 1315.1338,92.2969 L1315.1338,66.2969" fill="#E2E2F0" style="stroke:#181818;stroke-width:0.5;"/><path d="M1315.1338,66.2969 C1315.1338,76.2969 1333.1338,76.2969 1333.1338,76.2969 C1333.1338,76.2969 1351.1338,76.2969 1351.1338,66.2969" fill="none" style="stroke:#181818;stroke-width:0.5;"/></g><g class="participant participant-tail" data-entity-uid="part6" data-qualified-name="DB" id="part6-tail"><text fill="#000000" font-family="sans-serif" font-size="14" lengthAdjust="spacing" textLength="197.3262" x="1231.4707" y="822.4482">Base de Datos (PostgreSQL)</text><path d="M1315.1338,835.75 C1315.1338,825.75 1333.1338,825.75 1333.1338,825.75 C1333.1338,825.75 1351.1338,825.75 1351.1338,835.75 L1351.1338,861.75 C1351.1338,871.75 1333.1338,871.75 1333.1338,871.75 C1333.1338,871.75 1315.1338,871.75 1315.1338,861.75 L1315.1338,835.75" fill="#E2E2F0" style="stroke:#181818;stroke-width:0.5;"/><path d="M1315.1338,835.75 C1315.1338,845.75 1333.1338,845.75 1333.1338,845.75 C1333.1338,845.75 1351.1338,845.75 1351.1338,835.75" fill="none" style="stroke:#181818;stroke-width:0.5;"/></g><g><title>Frontend .React.</title><rect fill="#FFFFFF" height="650.7266" style="stroke:#181818;stroke-width:1;" width="10" x="376.8076" y="149.7266"/></g><g><title>GradosController</title><rect fill="#FFFFFF" height="344.5938" style="stroke:#181818;stroke-width:1;" width="10" x="673.6851" y="267.3906"/></g><g><title>GradoService</title><rect fill="#FFFFFF" height="286.3281" style="stroke:#181818;stroke-width:1;" width="10" x="904.1807" y="296.5234"/></g><g><title>GradoRepository</title><rect fill="#FFFFFF" height="87.3984" style="stroke:#181818;stroke-width:1;" width="10" x="1054.5205" y="325.6563"/></g><g><title>GradoRepository</title><rect fill="#FFFFFF" height="87.3984" style="stroke:#181818;stroke-width:1;" width="10" x="1054.5205" y="466.3203"/></g><g><title>Base de Datos .PostgreSQL.</title><rect fill="#FFFFFF" height="29.1328" style="stroke:#181818;stroke-width:1;" width="10" x="1328.1338" y="354.7891"/></g><g><title>Base de Datos .PostgreSQL.</title><rect fill="#FFFFFF" height="29.1328" style="stroke:#181818;stroke-width:1;" width="10" x="1328.1338" y="495.4531"/></g><g class="message" data-entity-1="part1" data-entity-2="part2" id="msg1"><polygon fill="#181818" points="364.8076,145.7266,374.8076,149.7266,364.8076,153.7266,368.8076,149.7266" style="stroke:#181818;stroke-width:1;"/><line style="stroke:#181818;stroke-width:1;" x1="52.3159" x2="370.8076" y1="149.7266" y2="149.7266"/><text fill="#000000" font-family="sans-serif" font-size="13" lengthAdjust="spacing" textLength="196.1616" x="59.3159" y="144.6606">Clic en "Eliminar" (en una fila)</text></g><g class="message" data-entity-1="part2" data-entity-2="part1" id="msg2"><polygon fill="#181818" points="63.3159,189.9922,53.3159,193.9922,63.3159,197.9922,59.3159,193.9922" style="stroke:#181818;stroke-width:1;"/><line style="stroke:#181818;stroke-width:1;stroke-dasharray:2,2;" x1="57.3159" x2="375.8076" y1="193.9922" y2="193.9922"/><text fill="#000000" font-family="sans-serif" font-size="13" lengthAdjust="spacing" textLength="267.3633" x="69.3159" y="173.7935">Mostrar Di&#225;logo de Confirmaci&#243;n (Modal)</text><text fill="#000000" font-family="sans-serif" font-size="13" lengthAdjust="spacing" textLength="129.4097" x="69.3159" y="188.9263">con datos del grado</text></g><g class="message" data-entity-1="part1" data-entity-2="part2" id="msg3"><polygon fill="#181818" points="364.8076,219.125,374.8076,223.125,364.8076,227.125,368.8076,223.125" style="stroke:#181818;stroke-width:1;"/><line style="stroke:#181818;stroke-width:1;" x1="52.3159" x2="370.8076" y1="223.125" y2="223.125"/><text fill="#000000" font-family="sans-serif" font-size="13" lengthAdjust="spacing" textLength="138.2202" x="59.3159" y="218.0591">Confirma eliminaci&#243;n</text></g><g class="message" data-entity-1="part2" data-entity-2="part3" id="msg4"><polygon fill="#181818" points="661.6851,263.3906,671.6851,267.3906,661.6851,271.3906,665.6851,267.3906" style="stroke:#181818;stroke-width:1;"/><line style="stroke:#181818;stroke-width:1;" x1="386.8076" x2="667.6851" y1="267.3906" y2="267.3906"/><text fill="#000000" font-family="sans-serif" font-size="13" lengthAdjust="spacing" textLength="159.8848" x="393.8076" y="247.1919">DELETE /api/grados/{id}</text><text fill="#000000" font-family="sans-serif" font-size="13" lengthAdjust="spacing" textLength="267.8774" x="393.8076" y="262.3247">(Header: Authorization: Bearer &lt;token&gt;)</text></g><g class="message" data-entity-1="part3" data-entity-2="part4" id="msg5"><polygon fill="#181818" points="892.1807,292.5234,902.1807,296.5234,892.1807,300.5234,896.1807,296.5234" style="stroke:#181818;stroke-width:1;"/><line style="stroke:#181818;stroke-width:1;" x1="683.6851" x2="898.1807" y1="296.5234" y2="296.5234"/><text fill="#000000" font-family="sans-serif" font-size="13" lengthAdjust="spacing" textLength="114.645" x="690.6851" y="291.4575">eliminarGrado(id)</text></g><g class="message" data-entity-1="part4" data-entity-2="part5" id="msg6"><polygon fill="#181818" points="1042.5205,321.6563,1052.5205,325.6563,1042.5205,329.6563,1046.5205,325.6563" style="stroke:#181818;stroke-width:1;"/><line style="stroke:#181818;stroke-width:1;" x1="914.1807" x2="1048.5205" y1="325.6563" y2="325.6563"/><text fill="#000000" font-family="sans-serif" font-size="13" lengthAdjust="spacing" textLength="75.3848" x="921.1807" y="320.5903">findById(id)</text></g><g class="message" data-entity-1="part5" data-entity-2="part6" id="msg7"><polygon fill="#181818" points="1316.1338,350.7891,1326.1338,354.7891,1316.1338,358.7891,1320.1338,354.7891" style="stroke:#181818;stroke-width:1;"/><line style="stroke:#181818;stroke-width:1;" x1="1064.5205" x2="1322.1338" y1="354.7891" y2="354.7891"/><text fill="#000000" font-family="sans-serif" font-size="13" lengthAdjust="spacing" textLength="244.6133" x="1071.5205" y="349.7231">SELECT * FROM grados WHERE id = ?</text></g><g class="message" data-entity-1="part6" data-entity-2="part5" id="msg8"><polygon fill="#181818" points="1075.5205,379.9219,1065.5205,383.9219,1075.5205,387.9219,1071.5205,383.9219" style="stroke:#181818;stroke-width:1;"/><line style="stroke:#181818;stroke-width:1;stroke-dasharray:2,2;" x1="1069.5205" x2="1332.1338" y1="383.9219" y2="383.9219"/><text fill="#000000" font-family="sans-serif" font-size="13" lengthAdjust="spacing" textLength="116.3398" x="1081.5205" y="378.856">Optional&lt;Grado&gt;</text></g><g class="message" data-entity-1="part5" data-entity-2="part4" id="msg9"><polygon fill="#181818" points="925.1807,409.0547,915.1807,413.0547,925.1807,417.0547,921.1807,413.0547" style="stroke:#181818;stroke-width:1;"/><line style="stroke:#181818;stroke-width:1;stroke-dasharray:2,2;" x1="919.1807" x2="1058.5205" y1="413.0547" y2="413.0547"/><text fill="#000000" font-family="sans-serif" font-size="13" lengthAdjust="spacing" textLength="116.3398" x="931.1807" y="407.9888">Optional&lt;Grado&gt;</text></g><path d="M10,428.0547 L74.4429,428.0547 L74.4429,435.1875 L64.4429,445.1875 L10,445.1875 L10,428.0547" fill="#EEEEEE" style="stroke:#000000;stroke-width:1.5;"/><rect fill="none" height="365.3984" style="stroke:#000000;stroke-width:1.5;" width="1434.7969" x="10" y="428.0547"/><text fill="#000000" font-family="sans-serif" font-size="13" font-weight="bold" lengthAdjust="spacing" textLength="19.4429" x="25" y="441.1216">alt</text><text fill="#000000" font-family="sans-serif" font-size="11" font-weight="bold" lengthAdjust="spacing" textLength="88.8379" x="89.4429" y="440.2651">[Grado Existe]</text><g class="message" data-entity-1="part4" data-entity-2="part5" id="msg10"><polygon fill="#181818" points="1042.5205,462.3203,1052.5205,466.3203,1042.5205,470.3203,1046.5205,466.3203" style="stroke:#181818;stroke-width:1;"/><line style="stroke:#181818;stroke-width:1;" x1="914.1807" x2="1048.5205" y1="466.3203" y2="466.3203"/><text fill="#000000" font-family="sans-serif" font-size="13" lengthAdjust="spacing" textLength="91.6602" x="921.1807" y="461.2544">deleteById(id)</text></g><g class="message" data-entity-1="part5" data-entity-2="part6" id="msg11"><polygon fill="#181818" points="1316.1338,491.4531,1326.1338,495.4531,1316.1338,499.4531,1320.1338,495.4531" style="stroke:#181818;stroke-width:1;"/><line style="stroke:#181818;stroke-width:1;" x1="1064.5205" x2="1322.1338" y1="495.4531" y2="495.4531"/><text fill="#000000" font-family="sans-serif" font-size="13" lengthAdjust="spacing" textLength="234.876" x="1071.5205" y="490.3872">DELETE FROM grados WHERE id = ?</text></g><g class="message" data-entity-1="part6" data-entity-2="part5" id="msg12"><polygon fill="#181818" points="1075.5205,520.5859,1065.5205,524.5859,1075.5205,528.5859,1071.5205,524.5859" style="stroke:#181818;stroke-width:1;"/><line style="stroke:#181818;stroke-width:1;stroke-dasharray:2,2;" x1="1069.5205" x2="1332.1338" y1="524.5859" y2="524.5859"/><text fill="#000000" font-family="sans-serif" font-size="13" lengthAdjust="spacing" textLength="18.7573" x="1081.5205" y="519.52">OK</text></g><g class="message" data-entity-1="part5" data-entity-2="part4" id="msg13"><polygon fill="#181818" points="925.1807,549.7188,915.1807,553.7188,925.1807,557.7188,921.1807,553.7188" style="stroke:#181818;stroke-width:1;"/><line style="stroke:#181818;stroke-width:1;stroke-dasharray:2,2;" x1="919.1807" x2="1058.5205" y1="553.7188" y2="553.7188"/><text fill="#000000" font-family="sans-serif" font-size="13" lengthAdjust="spacing" textLength="27.5107" x="931.1807" y="548.6528">void</text></g><g class="message" data-entity-1="part4" data-entity-2="part3" id="msg14"><polygon fill="#181818" points="694.6851,578.8516,684.6851,582.8516,694.6851,586.8516,690.6851,582.8516" style="stroke:#181818;stroke-width:1;"/><line style="stroke:#181818;stroke-width:1;stroke-dasharray:2,2;" x1="688.6851" x2="908.1807" y1="582.8516" y2="582.8516"/><text fill="#000000" font-family="sans-serif" font-size="13" lengthAdjust="spacing" textLength="27.5107" x="700.6851" y="577.7856">void</text></g><g class="message" data-entity-1="part3" data-entity-2="part2" id="msg15"><polygon fill="#181818" points="397.8076,607.9844,387.8076,611.9844,397.8076,615.9844,393.8076,611.9844" style="stroke:#181818;stroke-width:1;"/><line style="stroke:#181818;stroke-width:1;stroke-dasharray:2,2;" x1="391.8076" x2="677.6851" y1="611.9844" y2="611.9844"/><text fill="#000000" font-family="sans-serif" font-size="13" lengthAdjust="spacing" textLength="102.4575" x="403.8076" y="606.9185">204 No Content</text></g><g class="message" data-entity-1="part2" data-entity-2="part2" id="msg16"><line style="stroke:#181818;stroke-width:1;" x1="386.8076" x2="428.8076" y1="641.1172" y2="641.1172"/><line style="stroke:#181818;stroke-width:1;" x1="428.8076" x2="428.8076" y1="641.1172" y2="654.1172"/><line style="stroke:#181818;stroke-width:1;" x1="387.8076" x2="428.8076" y1="654.1172" y2="654.1172"/><polygon fill="#181818" points="397.8076,650.1172,387.8076,654.1172,397.8076,658.1172,393.8076,654.1172" style="stroke:#181818;stroke-width:1;"/><text fill="#000000" font-family="sans-serif" font-size="13" lengthAdjust="spacing" textLength="239.2939" x="393.8076" y="636.0513">Remover de la lista (actualizar vista)</text></g><g class="message" data-entity-1="part2" data-entity-2="part1" id="msg17"><polygon fill="#181818" points="63.3159,679.25,53.3159,683.25,63.3159,687.25,59.3159,683.25" style="stroke:#181818;stroke-width:1;"/><line style="stroke:#181818;stroke-width:1;stroke-dasharray:2,2;" x1="57.3159" x2="375.8076" y1="683.25" y2="683.25"/><text fill="#000000" font-family="sans-serif" font-size="13" lengthAdjust="spacing" textLength="300.4917" x="69.3159" y="678.1841">Notificaci&#243;n "Grado eliminado correctamente"</text></g><line style="stroke:#000000;stroke-width:1;stroke-dasharray:2,2;" x1="10" x2="1444.7969" y1="692.25" y2="692.25"/><text fill="#000000" font-family="sans-serif" font-size="11" font-weight="bold" lengthAdjust="spacing" textLength="109.4307" x="15" y="702.4604">[Grado No Existe]</text><g class="message" data-entity-1="part4" data-entity-2="part3" id="msg18"><polygon fill="#181818" points="689.6851,723.1875,679.6851,727.1875,689.6851,731.1875,685.6851,727.1875" style="stroke:#181818;stroke-width:1;"/><line style="stroke:#181818;stroke-width:1;stroke-dasharray:2,2;" x1="683.6851" x2="908.1807" y1="727.1875" y2="727.1875"/><text fill="#000000" font-family="sans-serif" font-size="13" lengthAdjust="spacing" textLength="206.4956" x="695.6851" y="722.1216">throw EntityNotFoundException</text></g><g class="message" data-entity-1="part3" data-entity-2="part2" id="msg19"><polygon fill="#181818" points="397.8076,752.3203,387.8076,756.3203,397.8076,760.3203,393.8076,756.3203" style="stroke:#181818;stroke-width:1;"/><line style="stroke:#181818;stroke-width:1;stroke-dasharray:2,2;" x1="391.8076" x2="677.6851" y1="756.3203" y2="756.3203"/><text fill="#000000" font-family="sans-serif" font-size="13" lengthAdjust="spacing" textLength="96.0146" x="403.8076" y="751.2544">404 Not Found</text></g><g class="message" data-entity-1="part2" data-entity-2="part1" id="msg20"><polygon fill="#181818" points="63.3159,781.4531,53.3159,785.4531,63.3159,789.4531,59.3159,785.4531" style="stroke:#181818;stroke-width:1;"/><line style="stroke:#181818;stroke-width:1;stroke-dasharray:2,2;" x1="57.3159" x2="375.8076" y1="785.4531" y2="785.4531"/><text fill="#000000" font-family="sans-serif" font-size="13" lengthAdjust="spacing" textLength="240.3604" x="69.3159" y="780.3872">Mostrar Error "Grado no encontrado"</text></g><?plantuml-src bLJRRjD047ttLupov82Y8jGdgmJXsg68NY2fn4jV1kya6R7PZTQRq8Bu6Bw1J-YFCRjs4YSD2FBWxENCvPoP7SzU4nICCuSB14KmeMf5fcA40PIQ5spGmLk7oih1PEdOp22triDp61DMFadaOntq2bkHyTG3hE5MRkRaaYKwpnKlqNZeZPoLUwCWZORzY1oL-w0OgJuNfBDQaukWtVO8U49kpLKJjrqVGOrfQMkMH1yYC6mJXHu_OqtGoyDNo1VeRGtf1rlxcQF9nyicoI9FafOI38QISmRdcYiW0xsDHZr8PRio25FMs0-gy1ez1OQZ4WPYrxh8u4hyEv6ruCUVsivi22qSf-mMMF7ZBmFfbLMe-tUciWPKp4gHXbcWyYILrXAeIILwY3677UKoAChByhQ44rpoINHKdtndzUFEf1U4AY3UhFpSElw6dgt982Tq4kRCsozaXXrAdNhibY5Sgt-sISL5xLDM7UDDZTh_O1QgaObkHkKFxzG-F5OgV0Amo3EO28tpMtW6e_7DLQD83Pykod49hE0LlDxPIjsAF4hVHBXP1cAeps9QmqHH5ze4wRBu2pwcXTgtJwEyvzfJ0l9xmaiAHvwsp09ctqquwJ9i2_L7VdiU9F6mt-VvFfxjqzj5wL9SMrQ7u6rIMoe7dNJCQ5FMSDnjYhP9NxuuXMiRRsHA71ft6YhSDBqRpCQqi6jn8mz48sWH6I4LinLgQLC7wt3Itnfr7zcrzJpbgdrGpHJOzAMiAkiSLHuNSMWbf6K2D9Zhu-KyqC3FdVqAfV7i7oJKoAwCAkyhYYtpd-ASHd4yH2V_eCsnML8w5wPmGy48qp0wVDW9EV7QyJWgVmC0?></g></svg>