<?plantuml 1.2026.2?><svg xmlns="http://www.w3.org/2000/svg" xmlns:xlink="http://www.w3.org/1999/xlink" contentStyleType="text/css" data-diagram-type="DESCRIPTION" height="523px" preserveAspectRatio="none" style="width:1236px;height:523px;background:#FFFFFF;" version="1.1" viewBox="0 0 1236 523" width="1236px" zoomAndPan="magnify"><defs/><g><!--cluster crearAsignatura--><g class="cluster" data-qualified-name="crearAsignatura" data-source-line="6" id="ent0004"><path d="M8.5,106 L149.7598,106 A3.75,3.75 0 0 1 152.2598,108.5 L159.2598,128.2969 L922.5,128.2969 A2.5,2.5 0 0 1 925,130.7969 L925,513.5 A2.5,2.5 0 0 1 922.5,516 L8.5,516 A2.5,2.5 0 0 1 6,513.5 L6,108.5 A2.5,2.5 0 0 1 8.5,106" fill="none" style="stroke:#000000;stroke-width:1.5;"/><line style="stroke:#000000;stroke-width:1.5;" x1="6" x2="159.2598" y1="128.2969" y2="128.2969"/><text fill="#000000" font-family="sans-serif" font-size="14" font-weight="bold" lengthAdjust="spacing" textLength="140.2598" x="10" y="120.9951">crearAsignatura()</text></g><!--entity CrearAsignaturaView--><g class="entity" data-qualified-name="crearAsignatura.CrearAsignaturaView" data-source-line="7" id="ent0005"><rect fill="#629EF9" height="36.2969" rx="2.5" ry="2.5" style="stroke:#181818;stroke-width:0.5;" width="167.8066" x="426" y="141"/><text fill="#000000" font-family="sans-serif" font-size="14" lengthAdjust="spacing" textLength="147.8066" x="436" y="163.9951">CrearAsignaturaView</text></g><!--entity AsignaturaController--><g class="entity" data-qualified-name="crearAsignatura.AsignaturaController" data-source-line="8" id="ent0006"><rect fill="#B5BD68" height="36.2969" rx="2.5" ry="2.5" style="stroke:#181818;stroke-width:0.5;" width="164.9697" x="132.5" y="254"/><text fill="#000000" font-family="sans-serif" font-size="14" lengthAdjust="spacing" textLength="144.9697" x="142.5" y="276.9951">AsignaturaController</text></g><!--entity AsignaturaRepository--><g class="entity" data-qualified-name="crearAsignatura.AsignaturaRepository" data-source-line="9" id="ent0007"><rect fill="#F2AC4E" height="36.2969" rx="2.5" ry="2.5" style="stroke:#181818;stroke-width:0.5;" width="170.8691" x="143.5" y="367"/><text fill="#000000" font-family="sans-serif" font-size="14" lengthAdjust="spacing" textLength="150.8691" x="153.5" y="389.9951">AsignaturaRepository</text></g><!--entity Asignatura--><g class="entity" data-qualified-name="crearAsignatura.Asignatura" data-source-line="10" id="ent0008"><rect fill="#F2AC4E" height="36.2969" rx="2.5" ry="2.5" style="stroke:#181818;stroke-width:0.5;" width="95.7969" x="181" y="464"/><text fill="#000000" font-family="sans-serif" font-size="14" lengthAdjust="spacing" textLength="75.7969" x="191" y="486.9951">Asignatura</text></g><!--entity AsignaturasAbierto--><g class="entity" data-qualified-name="AsignaturasAbierto" data-source-line="3" id="ent0002"><rect fill="#CDEBA5" height="36.2969" rx="2.5" ry="2.5" style="stroke:#181818;stroke-width:0.5;" width="163.0352" x="428.5" y="7"/><text fill="#000000" font-family="sans-serif" font-size="14" lengthAdjust="spacing" textLength="143.0352" x="438.5" y="29.9951">:Asignaturas Abierto</text></g><!--entity EditarAsignatura--><g class="entity" data-qualified-name="EditarAsignatura" data-source-line="4" id="ent0003"><rect fill="#CDEBA5" height="36.2969" rx="2.5" ry="2.5" style="stroke:#181818;stroke-width:0.5;" width="239.7139" x="941" y="254"/><text fill="#000000" font-family="sans-serif" font-size="14" lengthAdjust="spacing" textLength="219.7139" x="951" y="276.9951">:Collaboration EditarAsignatura</text></g><!--link AsignaturasAbierto to CrearAsignaturaView--><g class="link" data-entity-1="ent0002" data-entity-2="ent0005" data-link-type="dependency" data-source-line="13" id="lnk9"><path d="M510,43.26 C510,68.55 510,109.44 510,134.74" fill="none" id="AsignaturasAbierto-to-CrearAsignaturaView" style="stroke:#181818;stroke-width:1;"/><polygon fill="#181818" points="510,140.74,514,131.74,510,135.74,506,131.74,510,140.74" style="stroke:#181818;stroke-width:1;"/><text fill="#000000" font-family="sans-serif" font-size="13" lengthAdjust="spacing" textLength="114.3276" x="511" y="86.0669">crearAsignatura()</text></g><!--link CrearAsignaturaView to AsignaturaController--><g class="link" data-entity-1="ent0005" data-entity-2="ent0006" data-link-type="dependency" data-source-line="16" id="lnk10"><path d="M425.83,168.68 C294.07,182.26 54,207 54,207 C54,207 54,224 54,224 C54,224 104.6305,238.7783 150.6605,252.2183" fill="none" id="CrearAsignaturaView-to-AsignaturaController" style="stroke:#181818;stroke-width:1;"/><polygon fill="#181818" points="156.42,253.9,148.9019,247.5378,151.6204,252.4986,146.6596,255.2172,156.42,253.9" style="stroke:#181818;stroke-width:1;"/><text fill="#000000" font-family="sans-serif" font-size="13" lengthAdjust="spacing" textLength="411.4805" x="55" y="220.0669">validarDatosM&#237;nimos(t&#237;tulo, c&#243;digo, cursoAcad&#233;mico) : boolean</text></g><!--link CrearAsignaturaView to AsignaturaController--><g class="link" data-entity-1="ent0005" data-entity-2="ent0006" data-link-type="dependency" data-source-line="20" id="lnk12"><path d="M499.55,177.15 C488,196.11 471,224 471,224 C471,224 378.4613,240.986 303.6613,254.726" fill="none" id="CrearAsignaturaView-to-AsignaturaController-1" style="stroke:#181818;stroke-width:1;"/><polygon fill="#181818" points="297.76,255.81,307.3346,258.1182,302.6777,254.9067,305.8892,250.2498,297.76,255.81" style="stroke:#181818;stroke-width:1;"/><text fill="#000000" font-family="sans-serif" font-size="13" lengthAdjust="spacing" textLength="397.7568" x="482" y="220.0669">crearAsignatura(t&#237;tulo, c&#243;digo, cursoAcad&#233;mico) : Asignatura</text></g><!--link AsignaturaController to AsignaturaRepository--><g class="link" data-entity-1="ent0006" data-entity-2="ent0007" data-link-type="dependency" data-source-line="18" id="lnk11"><path d="M165.52,290.1 C126.63,303.54 79,320 79,320 C79,320 79,337 79,337 C79,337 125.8045,351.6659 168.6945,365.1059" fill="none" id="AsignaturaController-to-AsignaturaRepository" style="stroke:#181818;stroke-width:1;"/><polygon fill="#181818" points="174.42,366.9,167.0279,360.3918,169.6488,365.4049,164.6357,368.0258,174.42,366.9" style="stroke:#181818;stroke-width:1;"/><text fill="#000000" font-family="sans-serif" font-size="13" lengthAdjust="spacing" textLength="227.8237" x="80" y="333.0669">verificarUnicidad(c&#243;digo) : boolean</text></g><!--link AsignaturaController to AsignaturaRepository--><g class="link" data-entity-1="ent0006" data-entity-2="ent0007" data-link-type="dependency" data-source-line="22" id="lnk13"><path d="M250.29,290.1 C278.03,303.54 312,320 312,320 C312,320 312,337 312,337 C312,337 288.3405,350.3926 264.6505,363.8126" fill="none" id="AsignaturaController-to-AsignaturaRepository-1" style="stroke:#181818;stroke-width:1;"/><polygon fill="#181818" points="259.43,366.77,269.2324,365.8143,263.7805,364.3055,265.2892,358.8536,259.43,366.77" style="stroke:#181818;stroke-width:1;"/><text fill="#000000" font-family="sans-serif" font-size="13" lengthAdjust="spacing" textLength="327.374" x="313" y="333.0669">crear(t&#237;tulo, c&#243;digo, cursoAcad&#233;mico) : Asignatura</text></g><!--link AsignaturaRepository to Asignatura--><g class="link" data-entity-1="ent0007" data-entity-2="ent0008" data-link-type="association" data-source-line="24" id="lnk14"><path d="M229,403.42 C229,420.57 229,446.58 229,463.69" fill="none" id="AsignaturaRepository-Asignatura" style="stroke:#181818;stroke-width:1;"/></g><!--link CrearAsignaturaView to EditarAsignatura--><g class="link" data-entity-1="ent0005" data-entity-2="ent0003" data-link-type="dependency" data-source-line="26" id="lnk15"><path d="M594.36,170.49 C705.77,184.34 888,207 888,207 C888,207 957.7627,232.8082 1009.0127,251.7682" fill="none" id="CrearAsignaturaView-to-EditarAsignatura" style="stroke:#181818;stroke-width:1;stroke-dasharray:7,7;"/><polygon fill="#181818" points="1014.64,253.85,1007.587,246.9758,1009.9506,252.1152,1004.8112,254.4788,1014.64,253.85" style="stroke:#181818;stroke-width:1;"/><text fill="#000000" font-family="sans-serif" font-size="13" lengthAdjust="spacing" textLength="297.0132" x="931" y="220.0669">&#171;include&#187; editarAsignatura(asignaturaNueva)</text></g><?plantuml-src fLAzJiCm4Dxz5AUmf1BjKD4AeYfIIDCD1YJOBxQ9JdNjo76AAiG3CNJY4V9Y95L5qZG849xETv-_dvEBDUaSBMv0aPPkbql8ZTer5yQiv0vrfYHSnClaDfg15qG5PHfTQR60A2LfdV6WgTl-iJtuF3PAOMeiEZ8Q4a4ERVlqmDHlCfOZNsCcWLlP7JHWhzVpHnwyCgXFHtq-lKbMDn2VGfz8llIHwImLy-jEcDXePslFqlQXgsaKNoKTw8FCJK7EsDsFKFR6sFd2O3mEXqm6S1QICJO0XB6e6ORC1x15HGBj4fqfxggzfeqfV5VjNQdC9V3gGr3M5AKjJCHHLEyRucO40QJ6A8cwwxWbFdWUsa6jA2qz4qVxg8dNsi8_gfoG3iRuDaL_4RyAqFrAVynmqFkFIajMgvnWXe9F9k7PzmzWiI3DLIba68BiJNtyAkzBkSNH9m00?></g></svg>