<svg xmlns="http://www.w3.org/2000/svg" xmlns:xlink="http://www.w3.org/1999/xlink" contentStyleType="text/css" data-diagram-type="DESCRIPTION" height="523px" preserveAspectRatio="none" style="width:1236px;height:523px;background:#FFFFFF;" version="1.1" viewBox="0 0 1236 523" width="1236px" zoomAndPan="magnify"><defs/><g><!--cluster crearAsignatura--><g class="cluster" data-entity="crearAsignatura" data-source-line="6" data-uid="ent0004" id="cluster_crearAsignatura"><path d="M8.5,106 L149.7598,106 A3.75,3.75 0 0 1 152.2598,108.5 L159.2598,128.2969 L922.5,128.2969 A2.5,2.5 0 0 1 925,130.7969 L925,513.5 A2.5,2.5 0 0 1 922.5,516 L8.5,516 A2.5,2.5 0 0 1 6,513.5 L6,108.5 A2.5,2.5 0 0 1 8.5,106" fill="none" style="stroke:#000000;stroke-width:1.5;"/><line style="stroke:#000000;stroke-width:1.5;" x1="6" x2="159.2598" y1="128.2969" y2="128.2969"/><text fill="#000000" font-family="sans-serif" font-size="14" font-weight="bold" lengthAdjust="spacing" textLength="140.2598" x="10" y="120.9951">crearAsignatura()</text></g><!--entity CrearAsignaturaView--><g class="entity" data-entity="CrearAsignaturaView" data-source-line="7" data-uid="ent0005" id="entity_CrearAsignaturaView"><rect fill="#629EF9" height="36.2969" rx="2.5" ry="2.5" style="stroke:#181818;stroke-width:0.5;" width="167.8066" x="426" y="141"/><text fill="#000000" font-family="sans-serif" font-size="14" lengthAdjust="spacing" textLength="147.8066" x="436" y="163.9951">CrearAsignaturaView</text></g><!--entity AsignaturaController--><g class="entity" data-entity="AsignaturaController" data-source-line="8" data-uid="ent0006" id="entity_AsignaturaController"><rect fill="#B5BD68" height="36.2969" rx="2.5" ry="2.5" style="stroke:#181818;stroke-width:0.5;" width="164.9697" x="132.5" y="254"/><text fill="#000000" font-family="sans-serif" font-size="14" lengthAdjust="spacing" textLength="144.9697" x="142.5" y="276.9951">AsignaturaController</text></g><!--entity AsignaturaRepository--><g class="entity" data-entity="AsignaturaRepository" data-source-line="9" data-uid="ent0007" id="entity_AsignaturaRepository"><rect fill="#F2AC4E" height="36.2969" rx="2.5" ry="2.5" style="stroke:#181818;stroke-width:0.5;" width="170.8691" x="85.5" y="367"/><text fill="#000000" font-family="sans-serif" font-size="14" lengthAdjust="spacing" textLength="150.8691" x="95.5" y="389.9951">AsignaturaRepository</text></g><!--entity Asignatura--><g class="entity" data-entity="Asignatura" data-source-line="10" data-uid="ent0008" id="entity_Asignatura"><rect fill="#F2AC4E" height="36.2969" rx="2.5" ry="2.5" style="stroke:#181818;stroke-width:0.5;" width="95.7969" x="69" y="464"/><text fill="#000000" font-family="sans-serif" font-size="14" lengthAdjust="spacing" textLength="75.7969" x="79" y="486.9951">Asignatura</text></g><!--entity BateriaDePreguntas--><g class="entity" data-entity="BateriaDePreguntas" data-source-line="11" data-uid="ent0009" id="entity_BateriaDePreguntas"><rect fill="#F2AC4E" height="36.2969" rx="2.5" ry="2.5" style="stroke:#181818;stroke-width:0.5;" width="160.7109" x="200.5" y="464"/><text fill="#000000" font-family="sans-serif" font-size="14" lengthAdjust="spacing" textLength="140.7109" x="210.5" y="486.9951">BateriaDePreguntas</text></g><!--entity AsignaturasAbierto--><g class="entity" data-entity="AsignaturasAbierto" data-source-line="3" data-uid="ent0002" id="entity_AsignaturasAbierto"><rect fill="#CDEBA5" height="36.2969" rx="2.5" ry="2.5" style="stroke:#181818;stroke-width:0.5;" width="163.0352" x="428.5" y="7"/><text fill="#000000" font-family="sans-serif" font-size="14" lengthAdjust="spacing" textLength="143.0352" x="438.5" y="29.9951">:Asignaturas Abierto</text></g><!--entity EditarAsignatura--><g class="entity" data-entity="EditarAsignatura" data-source-line="4" data-uid="ent0003" id="entity_EditarAsignatura"><rect fill="#CDEBA5" height="36.2969" rx="2.5" ry="2.5" style="stroke:#181818;stroke-width:0.5;" width="239.7139" x="941" y="254"/><text fill="#000000" font-family="sans-serif" font-size="14" lengthAdjust="spacing" textLength="219.7139" x="951" y="276.9951">:Collaboration EditarAsignatura</text></g><!--link AsignaturasAbierto to CrearAsignaturaView--><g class="link" data-entity-1="AsignaturasAbierto" data-entity-2="CrearAsignaturaView" data-source-line="14" data-uid="lnk10" id="link_AsignaturasAbierto_CrearAsignaturaView"><path d="M510,43.26 C510,68.55 510,109.44 510,134.74" fill="none" id="AsignaturasAbierto-to-CrearAsignaturaView" style="stroke:#181818;stroke-width:1;"/><polygon fill="#181818" points="510,140.74,514,131.74,510,135.74,506,131.74,510,140.74" style="stroke:#181818;stroke-width:1;"/><text fill="#000000" font-family="sans-serif" font-size="13" lengthAdjust="spacing" textLength="114.3276" x="511" y="86.0669">crearAsignatura()</text></g><!--link CrearAsignaturaView to AsignaturaController--><g class="link" data-entity-1="CrearAsignaturaView" data-entity-2="AsignaturaController" data-source-line="17" data-uid="lnk11" id="link_CrearAsignaturaView_AsignaturaController"><path d="M425.83,168.68 C294.07,182.26 54,207 54,207 C54,207 54,224 54,224 C54,224 104.6305,238.7783 150.6605,252.2183" fill="none" id="CrearAsignaturaView-to-AsignaturaController" style="stroke:#181818;stroke-width:1;"/><polygon fill="#181818" points="156.42,253.9,148.9019,247.5378,151.6204,252.4986,146.6596,255.2172,156.42,253.9" style="stroke:#181818;stroke-width:1;"/><text fill="#000000" font-family="sans-serif" font-size="13" lengthAdjust="spacing" textLength="411.4805" x="55" y="220.0669">validarDatosM&#237;nimos(t&#237;tulo, c&#243;digo, cursoAcad&#233;mico) : boolean</text></g><!--link CrearAsignaturaView to AsignaturaController--><g class="link" data-entity-1="CrearAsignaturaView" data-entity-2="AsignaturaController" data-source-line="21" data-uid="lnk13" id="link_CrearAsignaturaView_AsignaturaController"><path d="M499.55,177.15 C488,196.11 471,224 471,224 C471,224 378.4613,240.986 303.6613,254.726" fill="none" id="CrearAsignaturaView-to-AsignaturaController-1" style="stroke:#181818;stroke-width:1;"/><polygon fill="#181818" points="297.76,255.81,307.3346,258.1182,302.6777,254.9067,305.8892,250.2498,297.76,255.81" style="stroke:#181818;stroke-width:1;"/><text fill="#000000" font-family="sans-serif" font-size="13" lengthAdjust="spacing" textLength="397.7568" x="482" y="220.0669">crearAsignatura(t&#237;tulo, c&#243;digo, cursoAcad&#233;mico) : Asignatura</text></g><!--link AsignaturaController to AsignaturaRepository--><g class="link" data-entity-1="AsignaturaController" data-entity-2="AsignaturaRepository" data-source-line="19" data-uid="lnk12" id="link_AsignaturaController_AsignaturaRepository"><path d="M165.52,290.1 C126.63,303.54 79,320 79,320 C79,320 79,337 79,337 C79,337 105.8768,350.7305 132.1868,364.1705" fill="none" id="AsignaturaController-to-AsignaturaRepository" style="stroke:#181818;stroke-width:1;"/><polygon fill="#181818" points="137.53,366.9,131.3348,359.2436,133.0773,364.6254,127.6955,366.3679,137.53,366.9" style="stroke:#181818;stroke-width:1;"/><text fill="#000000" font-family="sans-serif" font-size="13" lengthAdjust="spacing" textLength="227.8237" x="80" y="333.0669">verificarUnicidad(c&#243;digo) : boolean</text></g><!--link AsignaturaController to AsignaturaRepository--><g class="link" data-entity-1="AsignaturaController" data-entity-2="AsignaturaRepository" data-source-line="23" data-uid="lnk14" id="link_AsignaturaController_AsignaturaRepository"><path d="M250.29,290.1 C278.03,303.54 312,320 312,320 C312,320 312,337 312,337 C312,337 268.3121,351.5626 227.9921,365.0026" fill="none" id="AsignaturaController-to-AsignaturaRepository-1" style="stroke:#181818;stroke-width:1;"/><polygon fill="#181818" points="222.3,366.9,232.1031,367.8487,227.0434,365.3189,229.5732,360.2592,222.3,366.9" style="stroke:#181818;stroke-width:1;"/><text fill="#000000" font-family="sans-serif" font-size="13" lengthAdjust="spacing" textLength="327.374" x="313" y="333.0669">crear(t&#237;tulo, c&#243;digo, cursoAcad&#233;mico) : Asignatura</text></g><!--link AsignaturaRepository to Asignatura--><g class="link" data-entity-1="AsignaturaRepository" data-entity-2="Asignatura" data-source-line="25" data-uid="lnk15" id="link_AsignaturaRepository_Asignatura"><path d="M161.1,403.42 C151.35,420.57 136.56,446.58 126.84,463.69" fill="none" id="AsignaturaRepository-Asignatura" style="stroke:#181818;stroke-width:1;"/></g><!--link AsignaturaRepository to BateriaDePreguntas--><g class="link" data-entity-1="AsignaturaRepository" data-entity-2="BateriaDePreguntas" data-source-line="26" data-uid="lnk16" id="link_AsignaturaRepository_BateriaDePreguntas"><path d="M190.92,403.2 C210.86,420.42 241.34,446.75 261.23,463.92" fill="none" id="AsignaturaRepository-BateriaDePreguntas" style="stroke:#181818;stroke-width:1;"/></g><!--link CrearAsignaturaView to EditarAsignatura--><g class="link" data-entity-1="CrearAsignaturaView" data-entity-2="EditarAsignatura" data-source-line="28" data-uid="lnk17" id="link_CrearAsignaturaView_EditarAsignatura"><path d="M594.36,170.49 C705.77,184.34 888,207 888,207 C888,207 957.7627,232.8082 1009.0127,251.7682" fill="none" id="CrearAsignaturaView-to-EditarAsignatura" style="stroke:#181818;stroke-width:1;stroke-dasharray:7,7;"/><polygon fill="#181818" points="1014.64,253.85,1007.587,246.9758,1009.9506,252.1152,1004.8112,254.4788,1014.64,253.85" style="stroke:#181818;stroke-width:1;"/><text fill="#000000" font-family="sans-serif" font-size="13" lengthAdjust="spacing" textLength="297.0132" x="931" y="220.0669">&#171;include&#187; editarAsignatura(asignaturaNueva)</text></g><!--SRC=[fLD1QiCm4Bph5OjxSQ398JIXCS7WECwjfHJQ-rhU6X55ChAS4aeVr4DEVO8_LZk4sd4SsbATLglHpCuWvMkXCZIu0IaKsLr6a6cvgpUC6U8MLIe9hi9bj0Wcu7X1BbA5jZ2OGn0BCbOxKDTD_zZklHvgAJ7M1gtG2g94M3JDrGDJjybOXdoDAG4tr3wemKwdvmuSU6DGhPRwT3oBLZC8Jw7FWbwxo7WI9zFRbfbGAskgcSbqeQjn4Dv4BUWZPJeNLflTZz0BW0LQCWANz60eBPJ5dBqpTfui38T-dniFpj9WZFK0OPXK37qkFTYY50cQ9LgTtvLx9JOwTssvjuNKry3BpqIaTL6ON0SSa_9Z8xWUW0Unrf9GjITkY0ypzuLLALQcNmH7ywG4hxGJzwXoGjfhuwABRX2_Cj1-St_qSD3xZqf3LgcqCPSWFO-bDwFHo3_xKXxCvq9nMIJa-q2TKnU_o_k2jZZu0W00]--></g></svg>