<svg xmlns="http://www.w3.org/2000/svg" xmlns:xlink="http://www.w3.org/1999/xlink" contentStyleType="text/css" data-diagram-type="DESCRIPTION" height="523px" preserveAspectRatio="none" style="width:1224px;height:523px;background:#FFFFFF;" version="1.1" viewBox="0 0 1224 523" width="1224px" zoomAndPan="magnify"><defs/><g><!--cluster editarAlumno--><g class="cluster" data-entity="editarAlumno" data-source-line="9" data-uid="ent0007" id="cluster_editarAlumno"><path d="M8.5,106 L129.4297,106 A3.75,3.75 0 0 1 131.9297,108.5 L138.9297,128.2969 L725.5,128.2969 A2.5,2.5 0 0 1 728,130.7969 L728,513.5 A2.5,2.5 0 0 1 725.5,516 L8.5,516 A2.5,2.5 0 0 1 6,513.5 L6,108.5 A2.5,2.5 0 0 1 8.5,106" fill="none" style="stroke:#000000;stroke-width:1.5;"/><line style="stroke:#000000;stroke-width:1.5;" x1="6" x2="138.9297" y1="128.2969" y2="128.2969"/><text fill="#000000" font-family="sans-serif" font-size="14" font-weight="bold" lengthAdjust="spacing" textLength="119.9297" x="10" y="120.9951">editarAlumno()</text></g><!--entity EditarAlumnoView--><g class="entity" data-entity="EditarAlumnoView" data-source-line="10" data-uid="ent0008" id="entity_EditarAlumnoView"><rect fill="#629EF9" height="36.2969" rx="2.5" ry="2.5" style="stroke:#181818;stroke-width:0.5;" width="148.3926" x="444" y="141"/><text fill="#000000" font-family="sans-serif" font-size="14" lengthAdjust="spacing" textLength="128.3926" x="454" y="163.9951">EditarAlumnoView</text></g><!--entity AlumnosController--><g class="entity" data-entity="AlumnosController" data-source-line="11" data-uid="ent0009" id="entity_AlumnosController"><rect fill="#B5BD68" height="36.2969" rx="2.5" ry="2.5" style="stroke:#181818;stroke-width:0.5;" width="149.8828" x="131" y="254"/><text fill="#000000" font-family="sans-serif" font-size="14" lengthAdjust="spacing" textLength="129.8828" x="141" y="276.9951">AlumnosController</text></g><!--entity AlumnoRepository--><g class="entity" data-entity="AlumnoRepository" data-source-line="12" data-uid="ent0010" id="entity_AlumnoRepository"><rect fill="#F2AC4E" height="36.2969" rx="2.5" ry="2.5" style="stroke:#181818;stroke-width:0.5;" width="148.4883" x="141" y="367"/><text fill="#000000" font-family="sans-serif" font-size="14" lengthAdjust="spacing" textLength="128.4883" x="151" y="389.9951">AlumnoRepository</text></g><!--entity Alumno--><g class="entity" data-entity="Alumno" data-source-line="13" data-uid="ent0011" id="entity_Alumno"><rect fill="#F2AC4E" height="36.2969" rx="2.5" ry="2.5" style="stroke:#181818;stroke-width:0.5;" width="73.416" x="178.5" y="464"/><text fill="#000000" font-family="sans-serif" font-size="14" lengthAdjust="spacing" textLength="53.416" x="188.5" y="486.9951">Alumno</text></g><!--entity AlumnosAbierto--><g class="entity" data-entity="AlumnosAbierto" data-source-line="3" data-uid="ent0002" id="entity_AlumnosAbierto"><rect fill="#CDEBA5" height="36.2969" rx="2.5" ry="2.5" style="stroke:#181818;stroke-width:0.5;" width="140.6543" x="247.5" y="7"/><text fill="#000000" font-family="sans-serif" font-size="14" lengthAdjust="spacing" textLength="120.6543" x="257.5" y="29.9951">:Alumnos Abierto</text></g><!--entity AlumnoAbierto--><g class="entity" data-entity="AlumnoAbierto" data-source-line="4" data-uid="ent0003" id="entity_AlumnoAbierto"><rect fill="#CDEBA5" height="36.2969" rx="2.5" ry="2.5" style="stroke:#181818;stroke-width:0.5;" width="133.3604" x="451.5" y="7"/><text fill="#000000" font-family="sans-serif" font-size="14" lengthAdjust="spacing" textLength="113.3604" x="461.5" y="29.9951">:Alumno Abierto</text></g><!--entity CrearAlumno--><g class="entity" data-entity="CrearAlumno" data-source-line="5" data-uid="ent0004" id="entity_CrearAlumno"><rect fill="#CDEBA5" height="36.2969" rx="2.5" ry="2.5" style="stroke:#181818;stroke-width:0.5;" width="214.3662" x="620" y="7"/><text fill="#000000" font-family="sans-serif" font-size="14" lengthAdjust="spacing" textLength="194.3662" x="630" y="29.9951">:Collaboration CrearAlumno</text></g><!--entity VerAlumnos--><g class="entity" data-entity="VerAlumnos" data-source-line="6" data-uid="ent0005" id="entity_VerAlumnos"><rect fill="#CDEBA5" height="36.2969" rx="2.5" ry="2.5" style="stroke:#181818;stroke-width:0.5;" width="205.835" x="744" y="254"/><text fill="#000000" font-family="sans-serif" font-size="14" lengthAdjust="spacing" textLength="185.835" x="754" y="276.9951">:Collaboration verAlumnos</text></g><!--entity EliminarAlumno--><g class="entity" data-entity="EliminarAlumno" data-source-line="7" data-uid="ent0006" id="entity_EliminarAlumno"><rect fill="#CDEBA5" height="36.2969" rx="2.5" ry="2.5" style="stroke:#181818;stroke-width:0.5;" width="233.0146" x="985.5" y="254"/><text fill="#000000" font-family="sans-serif" font-size="14" lengthAdjust="spacing" textLength="213.0146" x="995.5" y="276.9951">:Collaboration eliminarAlumno</text></g><!--link CrearAlumno to EditarAlumnoView--><g class="link" data-entity-1="CrearAlumno" data-entity-2="EditarAlumnoView" data-source-line="16" data-uid="lnk12" id="link_CrearAlumno_EditarAlumnoView"><path d="M716.01,43.15 C703.87,62.11 686,90 686,90 C686,90 615.7219,118.4493 565.9519,138.5893" fill="none" id="CrearAlumno-to-EditarAlumnoView" style="stroke:#181818;stroke-width:1;"/><polygon fill="#181818" points="560.39,140.84,570.2333,141.1719,565.0249,138.9644,567.2324,133.7561,560.39,140.84" style="stroke:#181818;stroke-width:1;"/><text fill="#000000" font-family="sans-serif" font-size="13" lengthAdjust="spacing" textLength="188.2969" x="696" y="86.0669">editarAlumno(alumnoNuevo)</text></g><!--link AlumnosAbierto to EditarAlumnoView--><g class="link" data-entity-1="AlumnosAbierto" data-entity-2="EditarAlumnoView" data-source-line="17" data-uid="lnk13" id="link_AlumnosAbierto_EditarAlumnoView"><path d="M326.58,43.15 C336.05,62.11 350,90 350,90 C350,90 420.2781,118.4493 470.0481,138.5893" fill="none" id="AlumnosAbierto-to-EditarAlumnoView" style="stroke:#181818;stroke-width:1;"/><polygon fill="#181818" points="475.61,140.84,468.7676,133.7561,470.9751,138.9644,465.7667,141.1719,475.61,140.84" style="stroke:#181818;stroke-width:1;"/><text fill="#000000" font-family="sans-serif" font-size="13" lengthAdjust="spacing" textLength="158.7739" x="351" y="86.0669">editarAlumno(alumnoId)</text></g><!--link AlumnoAbierto to EditarAlumnoView--><g class="link" data-entity-1="AlumnoAbierto" data-entity-2="EditarAlumnoView" data-source-line="18" data-uid="lnk14" id="link_AlumnoAbierto_EditarAlumnoView"><path d="M518,43.26 C518,68.55 518,109.44 518,134.74" fill="none" id="AlumnoAbierto-to-EditarAlumnoView" style="stroke:#181818;stroke-width:1;"/><polygon fill="#181818" points="518,140.74,522,131.74,518,135.74,514,131.74,518,140.74" style="stroke:#181818;stroke-width:1;"/><text fill="#000000" font-family="sans-serif" font-size="13" lengthAdjust="spacing" textLength="158.7739" x="519" y="86.0669">editarAlumno(alumnoId)</text></g><!--link EditarAlumnoView to AlumnosController--><g class="link" data-entity-1="EditarAlumnoView" data-entity-2="AlumnosController" data-source-line="20" data-uid="lnk15" id="link_EditarAlumnoView_AlumnosController"><path d="M443.96,167.5 C312.96,180.77 54,207 54,207 C54,207 54,224 54,224 C54,224 101.4978,238.6873 144.9578,252.1273" fill="none" id="EditarAlumnoView-to-AlumnosController" style="stroke:#181818;stroke-width:1;"/><polygon fill="#181818" points="150.69,253.9,143.2735,247.4196,145.9132,252.4228,140.91,255.0624,150.69,253.9" style="stroke:#181818;stroke-width:1;"/><text fill="#000000" font-family="sans-serif" font-size="13" lengthAdjust="spacing" textLength="300.917" x="55" y="220.0669">cargarAlumnoParaEdici&#243;n(alumnoId) : Alumno</text></g><!--link EditarAlumnoView to AlumnosController--><g class="link" data-entity-1="EditarAlumnoView" data-entity-2="AlumnosController" data-source-line="24" data-uid="lnk17" id="link_EditarAlumnoView_AlumnosController"><path d="M475.66,177.15 C428.86,196.11 360,224 360,224 C360,224 311.8087,238.7087 267.7687,252.1487" fill="none" id="EditarAlumnoView-to-AlumnosController-1" style="stroke:#181818;stroke-width:1;"/><polygon fill="#181818" points="262.03,253.9,271.8056,255.0988,266.8123,252.4406,269.4705,247.4472,262.03,253.9" style="stroke:#181818;stroke-width:1;"/><text fill="#000000" font-family="sans-serif" font-size="13" lengthAdjust="spacing" textLength="311.9683" x="400" y="220.0669">modificarCampos(alumnoId, cambios) : boolean</text></g><!--link AlumnosController to AlumnoRepository--><g class="link" data-entity-1="AlumnosController" data-entity-2="AlumnoRepository" data-source-line="22" data-uid="lnk16" id="link_AlumnosController_AlumnoRepository"><path d="M157.61,290.1 C119.58,303.54 73,320 73,320 C73,320 73,337 73,337 C73,337 117.034,351.5744 157.634,365.0144" fill="none" id="AlumnosController-to-AlumnoRepository" style="stroke:#181818;stroke-width:1;"/><polygon fill="#181818" points="163.33,366.9,156.043,360.2743,158.5833,365.3287,153.5289,367.869,163.33,366.9" style="stroke:#181818;stroke-width:1;"/><text fill="#000000" font-family="sans-serif" font-size="13" lengthAdjust="spacing" textLength="217.2549" x="74" y="333.0669">obtenerPorId(alumnoId) : Alumno</text></g><!--link AlumnosController to AlumnoRepository--><g class="link" data-entity-1="AlumnosController" data-entity-2="AlumnoRepository" data-source-line="26" data-uid="lnk18" id="link_AlumnosController_AlumnoRepository"><path d="M238.75,290.1 C264.48,303.54 296,320 296,320 C296,320 296,337 296,337 C296,337 273.0092,350.3379 249.8892,363.7579" fill="none" id="AlumnosController-to-AlumnoRepository-1" style="stroke:#181818;stroke-width:1;"/><polygon fill="#181818" points="244.7,366.77,254.4918,365.7114,249.0243,364.26,250.4757,358.7925,244.7,366.77" style="stroke:#181818;stroke-width:1;"/><text fill="#000000" font-family="sans-serif" font-size="13" lengthAdjust="spacing" textLength="187.2114" x="297" y="333.0669">actualizar(alumno) : boolean</text></g><!--link AlumnoRepository to Alumno--><g class="link" data-entity-1="AlumnoRepository" data-entity-2="Alumno" data-source-line="28" data-uid="lnk19" id="link_AlumnoRepository_Alumno"><path d="M215,403.42 C215,420.57 215,446.58 215,463.69" fill="none" id="AlumnoRepository-Alumno" style="stroke:#181818;stroke-width:1;"/></g><!--link EditarAlumnoView to VerAlumnos--><g class="link" data-entity-1="EditarAlumnoView" data-entity-2="VerAlumnos" data-source-line="30" data-uid="lnk20" id="link_EditarAlumnoView_VerAlumnos"><path d="M591.21,177.03 C649.02,190.49 720,207 720,207 C720,207 769.992,232.1896 807.612,251.1496" fill="none" id="EditarAlumnoView-to-VerAlumnos" style="stroke:#181818;stroke-width:1;stroke-dasharray:7,7;"/><polygon fill="#181818" points="812.97,253.85,806.7333,246.2275,808.505,251.5997,803.1328,253.3715,812.97,253.85" style="stroke:#181818;stroke-width:1;"/><text fill="#000000" font-family="sans-serif" font-size="13" lengthAdjust="spacing" textLength="154.6924" x="751" y="220.0669">&#171;include&#187; verAlumnos()</text></g><!--link EditarAlumnoView to EliminarAlumno--><g class="link" data-entity-1="EditarAlumnoView" data-entity-2="EliminarAlumno" data-source-line="31" data-uid="lnk21" id="link_EditarAlumnoView_EliminarAlumno"><path d="M592.02,168.79 C706.64,182.39 914,207 914,207 C914,207 990.2502,232.9563 1045.9402,251.9163" fill="none" id="EditarAlumnoView-to-EliminarAlumno" style="stroke:#181818;stroke-width:1;stroke-dasharray:7,7;"/><polygon fill="#181818" points="1051.62,253.85,1044.3894,247.1628,1046.8868,252.2386,1041.8111,254.736,1051.62,253.85" style="stroke:#181818;stroke-width:1;"/><text fill="#000000" font-family="sans-serif" font-size="13" lengthAdjust="spacing" textLength="179.9307" x="960" y="220.0669">&#171;include&#187; eliminarAlumno()</text></g><!--SRC=[dPFFQeD04CRl-nI3lIWqEOGcD184QmtaKa8FkQyw3KlMNLdNbBJqgVe8VR5k4atyro3reZDylsy_HoVVCP5HHLFWJA0-P0YPv8TZGOZ2M5EnvGXtmNFuv4_1SdrUf4Bcu4SCbPOMKFDyxfMj6rWFTGiA9ESqaefg9WK42gawGoU-LW-WzrXgynEykPG3MEGiPQ9nUDXe4PBHU4Ut29WmNNMFEglUi1qBFWcOgtRcR38FbtC8QxeDm_UsB9f6oUon6dKWXLOc8wgsRZdnWuUmrBrY9dEcfJhSb94lGchJXD78w-Hn6wzcqzFjfS2zT4Zp-m_7Lqd5_WibRIMC4iDtHkH2JDMs4gxDtsx0cFryYwiPkDKiI8S_fMeFr0KPQHIerbAjabwZRhp-TAbCs1ip6GEQ6lkBrxt9dKPCvaVJI4gEL0oFHsDTKCu-g2eDUrokUcFoT-xnsAijZ0kB1HCnBnBqlDfUsKu_sLoL9jtSBDlv1G00]--></g></svg>