<?plantuml 1.2026.2?><svg xmlns="http://www.w3.org/2000/svg" xmlns:xlink="http://www.w3.org/1999/xlink" contentStyleType="text/css" data-diagram-type="CLASS" height="510px" preserveAspectRatio="none" style="width:834px;height:510px;background:#FFFFFF;" version="1.1" viewBox="0 0 834 510" width="834px" zoomAndPan="magnify"><defs/><g><!--class usuarios--><g class="entity" data-qualified-name="usuarios" data-source-line="5" id="ent0002"><rect fill="#F1F1F1" height="58.5938" rx="2.5" ry="2.5" style="stroke:#181818;stroke-width:0.5;" width="114.751" x="453.5" y="7"/><text fill="#000000" font-family="sans-serif" font-size="14" lengthAdjust="spacing" textLength="59.124" x="481.3135" y="24.9951">usuarios</text><line style="stroke:#181818;stroke-width:0.5;" x1="454.5" x2="567.251" y1="33.2969" y2="33.2969"/><g data-visibility-modifier="IE_MANDATORY"><ellipse cx="464.5" cy="46.9453" fill="#000000" rx="3" ry="3" style="stroke:#000000;stroke-width:1;"/></g><text fill="#000000" font-family="sans-serif" font-size="14" lengthAdjust="spacing" textLength="88.751" x="473.5" y="50.292">id : INT &#171;PK&#187;</text><line style="stroke:#181818;stroke-width:0.5;" x1="454.5" x2="567.251" y1="57.5938" y2="57.5938"/></g><!--class grados--><g class="entity" data-qualified-name="grados" data-source-line="9" id="ent0003"><rect fill="#F1F1F1" height="74.8906" rx="2.5" ry="2.5" style="stroke:#181818;stroke-width:0.5;" width="178.0996" x="209" y="126"/><text fill="#000000" font-family="sans-serif" font-size="14" lengthAdjust="spacing" textLength="47.9678" x="274.0659" y="143.9951">grados</text><line style="stroke:#181818;stroke-width:0.5;" x1="210" x2="386.0996" y1="152.2969" y2="152.2969"/><g data-visibility-modifier="IE_MANDATORY"><ellipse cx="220" cy="165.9453" fill="#000000" rx="3" ry="3" style="stroke:#000000;stroke-width:1;"/></g><text fill="#000000" font-family="sans-serif" font-size="14" lengthAdjust="spacing" textLength="88.751" x="229" y="169.292">id : INT &#171;PK&#187;</text><line style="stroke:#181818;stroke-width:1;" x1="210" x2="386.0996" y1="176.5938" y2="176.5938"/><g data-visibility-modifier="IE_MANDATORY"><ellipse cx="220" cy="190.2422" fill="#000000" rx="3" ry="3" style="stroke:#000000;stroke-width:1;"/></g><text fill="#000000" font-family="sans-serif" font-size="14" lengthAdjust="spacing" textLength="152.0996" x="229" y="193.5889">docente_id : INT &#171;FK&#187;</text></g><!--class alumnos--><g class="entity" data-qualified-name="alumnos" data-source-line="15" id="ent0004"><rect fill="#F1F1F1" height="91.1875" rx="2.5" ry="2.5" style="stroke:#181818;stroke-width:0.5;" width="178.0996" x="7" y="261"/><text fill="#000000" font-family="sans-serif" font-size="14" lengthAdjust="spacing" textLength="59.7119" x="66.1938" y="278.9951">alumnos</text><line style="stroke:#181818;stroke-width:0.5;" x1="8" x2="184.0996" y1="287.2969" y2="287.2969"/><g data-visibility-modifier="IE_MANDATORY"><ellipse cx="18" cy="300.9453" fill="#000000" rx="3" ry="3" style="stroke:#000000;stroke-width:1;"/></g><text fill="#000000" font-family="sans-serif" font-size="14" lengthAdjust="spacing" textLength="88.751" x="27" y="304.292">id : INT &#171;PK&#187;</text><line style="stroke:#181818;stroke-width:1;" x1="8" x2="184.0996" y1="311.5938" y2="311.5938"/><g data-visibility-modifier="IE_MANDATORY"><ellipse cx="18" cy="325.2422" fill="#000000" rx="3" ry="3" style="stroke:#000000;stroke-width:1;"/></g><text fill="#000000" font-family="sans-serif" font-size="14" lengthAdjust="spacing" textLength="152.0996" x="27" y="328.5889">docente_id : INT &#171;FK&#187;</text><g data-visibility-modifier="IE_MANDATORY"><ellipse cx="18" cy="341.5391" fill="#000000" rx="3" ry="3" style="stroke:#000000;stroke-width:1;"/></g><text fill="#000000" font-family="sans-serif" font-size="14" lengthAdjust="spacing" textLength="136.0352" x="27" y="344.8857">grado_id : INT &#171;FK&#187;</text></g><!--class asignaturas--><g class="entity" data-qualified-name="asignaturas" data-source-line="22" id="ent0005"><rect fill="#F1F1F1" height="74.8906" rx="2.5" ry="2.5" style="stroke:#181818;stroke-width:0.5;" width="178.0996" x="422" y="126"/><text fill="#000000" font-family="sans-serif" font-size="14" lengthAdjust="spacing" textLength="82.0928" x="470.0034" y="143.9951">asignaturas</text><line style="stroke:#181818;stroke-width:0.5;" x1="423" x2="599.0996" y1="152.2969" y2="152.2969"/><g data-visibility-modifier="IE_MANDATORY"><ellipse cx="433" cy="165.9453" fill="#000000" rx="3" ry="3" style="stroke:#000000;stroke-width:1;"/></g><text fill="#000000" font-family="sans-serif" font-size="14" lengthAdjust="spacing" textLength="88.751" x="442" y="169.292">id : INT &#171;PK&#187;</text><line style="stroke:#181818;stroke-width:1;" x1="423" x2="599.0996" y1="176.5938" y2="176.5938"/><g data-visibility-modifier="IE_MANDATORY"><ellipse cx="433" cy="190.2422" fill="#000000" rx="3" ry="3" style="stroke:#000000;stroke-width:1;"/></g><text fill="#000000" font-family="sans-serif" font-size="14" lengthAdjust="spacing" textLength="152.0996" x="442" y="193.5889">docente_id : INT &#171;FK&#187;</text></g><!--class alumnos_asignaturas--><g class="entity" data-qualified-name="alumnos_asignaturas" data-source-line="29" id="ent0006"><rect fill="#F1F1F1" height="74.8906" rx="2.5" ry="2.5" style="stroke:#181818;stroke-width:0.5;" width="235.3643" x="213.5" y="420"/><text fill="#000000" font-family="sans-serif" font-size="14" lengthAdjust="spacing" textLength="148.8047" x="256.7798" y="437.9951">alumnos_asignaturas</text><line style="stroke:#181818;stroke-width:0.5;" x1="214.5" x2="447.8643" y1="446.2969" y2="446.2969"/><g data-visibility-modifier="IE_MANDATORY"><ellipse cx="224.5" cy="459.9453" fill="#000000" rx="3" ry="3" style="stroke:#000000;stroke-width:1;"/></g><text fill="#000000" font-family="sans-serif" font-size="14" lengthAdjust="spacing" textLength="186.9834" x="233.5" y="463.292">alumno_id : INT &#171;PK&#187; &#171;FK&#187;</text><g data-visibility-modifier="IE_MANDATORY"><ellipse cx="224.5" cy="476.2422" fill="#000000" rx="3" ry="3" style="stroke:#000000;stroke-width:1;"/></g><text fill="#000000" font-family="sans-serif" font-size="14" lengthAdjust="spacing" textLength="209.3643" x="233.5" y="479.5889">asignatura_id : INT &#171;PK&#187; &#171;FK&#187;</text><line style="stroke:#181818;stroke-width:0.5;" x1="214.5" x2="447.8643" y1="486.8906" y2="486.8906"/></g><!--class asignatura_grado--><g class="entity" data-qualified-name="asignatura_grado" data-source-line="35" id="ent0007"><rect fill="#F1F1F1" height="74.8906" rx="2.5" ry="2.5" style="stroke:#181818;stroke-width:0.5;" width="235.3643" x="220.5" y="269"/><text fill="#000000" font-family="sans-serif" font-size="14" lengthAdjust="spacing" textLength="122.4727" x="276.9458" y="286.9951">asignatura_grado</text><line style="stroke:#181818;stroke-width:0.5;" x1="221.5" x2="454.8643" y1="295.2969" y2="295.2969"/><g data-visibility-modifier="IE_MANDATORY"><ellipse cx="231.5" cy="308.9453" fill="#000000" rx="3" ry="3" style="stroke:#000000;stroke-width:1;"/></g><text fill="#000000" font-family="sans-serif" font-size="14" lengthAdjust="spacing" textLength="209.3643" x="240.5" y="312.292">asignatura_id : INT &#171;PK&#187; &#171;FK&#187;</text><g data-visibility-modifier="IE_MANDATORY"><ellipse cx="231.5" cy="325.2422" fill="#000000" rx="3" ry="3" style="stroke:#000000;stroke-width:1;"/></g><text fill="#000000" font-family="sans-serif" font-size="14" lengthAdjust="spacing" textLength="175.2393" x="240.5" y="328.5889">grado_id : INT &#171;PK&#187; &#171;FK&#187;</text><line style="stroke:#181818;stroke-width:0.5;" x1="221.5" x2="454.8643" y1="335.8906" y2="335.8906"/></g><!--class preguntas--><g class="entity" data-qualified-name="preguntas" data-source-line="40" id="ent0008"><rect fill="#F1F1F1" height="91.1875" rx="2.5" ry="2.5" style="stroke:#181818;stroke-width:0.5;" width="196.1602" x="562" y="261"/><text fill="#000000" font-family="sans-serif" font-size="14" lengthAdjust="spacing" textLength="71.251" x="624.4546" y="278.9951">preguntas</text><line style="stroke:#181818;stroke-width:0.5;" x1="563" x2="757.1602" y1="287.2969" y2="287.2969"/><g data-visibility-modifier="IE_MANDATORY"><ellipse cx="573" cy="300.9453" fill="#000000" rx="3" ry="3" style="stroke:#000000;stroke-width:1;"/></g><text fill="#000000" font-family="sans-serif" font-size="14" lengthAdjust="spacing" textLength="88.751" x="582" y="304.292">id : INT &#171;PK&#187;</text><line style="stroke:#181818;stroke-width:1;" x1="563" x2="757.1602" y1="311.5938" y2="311.5938"/><g data-visibility-modifier="IE_MANDATORY"><ellipse cx="573" cy="325.2422" fill="#000000" rx="3" ry="3" style="stroke:#000000;stroke-width:1;"/></g><text fill="#000000" font-family="sans-serif" font-size="14" lengthAdjust="spacing" textLength="170.1602" x="582" y="328.5889">asignatura_id : INT &#171;FK&#187;</text><g data-visibility-modifier="IE_MANDATORY"><ellipse cx="573" cy="341.5391" fill="#000000" rx="3" ry="3" style="stroke:#000000;stroke-width:1;"/></g><text fill="#000000" font-family="sans-serif" font-size="14" lengthAdjust="spacing" textLength="152.0996" x="582" y="344.8857">docente_id : INT &#171;FK&#187;</text></g><!--class respuestas--><g class="entity" data-qualified-name="respuestas" data-source-line="47" id="ent0009"><rect fill="#F1F1F1" height="91.1875" rx="2.5" ry="2.5" style="stroke:#181818;stroke-width:0.5;" width="185.3184" x="642.5" y="412"/><text fill="#000000" font-family="sans-serif" font-size="14" lengthAdjust="spacing" textLength="76.6924" x="696.813" y="429.9951">respuestas</text><line style="stroke:#181818;stroke-width:0.5;" x1="643.5" x2="826.8184" y1="438.2969" y2="438.2969"/><g data-visibility-modifier="IE_MANDATORY"><ellipse cx="653.5" cy="451.9453" fill="#000000" rx="3" ry="3" style="stroke:#000000;stroke-width:1;"/></g><text fill="#000000" font-family="sans-serif" font-size="14" lengthAdjust="spacing" textLength="88.751" x="662.5" y="455.292">id : INT &#171;PK&#187;</text><line style="stroke:#181818;stroke-width:1;" x1="643.5" x2="826.8184" y1="462.5938" y2="462.5938"/><g data-visibility-modifier="IE_MANDATORY"><ellipse cx="653.5" cy="476.2422" fill="#000000" rx="3" ry="3" style="stroke:#000000;stroke-width:1;"/></g><text fill="#000000" font-family="sans-serif" font-size="14" lengthAdjust="spacing" textLength="159.3184" x="662.5" y="479.5889">pregunta_id : INT &#171;FK&#187;</text><g data-visibility-modifier="IE_MANDATORY"><ellipse cx="653.5" cy="492.5391" fill="#000000" rx="3" ry="3" style="stroke:#000000;stroke-width:1;"/></g><text fill="#000000" font-family="sans-serif" font-size="14" lengthAdjust="spacing" textLength="152.0996" x="662.5" y="495.8857">docente_id : INT &#171;FK&#187;</text></g><!--link usuarios to grados--><g class="link" data-entity-1="ent0002" data-entity-2="ent0003" data-link-type="crowfoot" data-source-line="55" id="lnk10"><path codeLine="55" d="M445.36,47 C382.28,47 298,47 298,47 C298,47 298,73.94 298,108" fill="none" id="usuarios-grados" style="stroke:#181818;stroke-width:1;"/><line style="stroke:#181818;stroke-width:1;" x1="449.36" x2="449.36" y1="43" y2="51"/><line style="stroke:#181818;stroke-width:1;" x1="446.36" x2="446.36" y1="43" y2="51"/><line style="stroke:#181818;stroke-width:1;" x1="445.36" x2="453.36" y1="47" y2="47"/><line style="stroke:#181818;stroke-width:1;" x1="298" x2="304" y1="118" y2="126"/><line style="stroke:#181818;stroke-width:1;" x1="298" x2="292" y1="118" y2="126"/><line style="stroke:#181818;stroke-width:1;" x1="298" x2="298" y1="118" y2="126"/><ellipse cx="298" cy="112" fill="none" rx="4" ry="4" style="stroke:#181818;stroke-width:1;"/><text fill="#000000" font-family="sans-serif" font-size="13" lengthAdjust="spacing" textLength="71.0493" x="264.18" y="43.0669">docente_id</text></g><!--link usuarios to alumnos--><g class="link" data-entity-1="ent0002" data-entity-2="ent0004" data-link-type="crowfoot" data-source-line="56" id="lnk11"><path codeLine="56" d="M445.3,27 C331.27,27 96,27 96,27 C96,27 96,163.77 96,242.97" fill="none" id="usuarios-alumnos" style="stroke:#181818;stroke-width:1;"/><line style="stroke:#181818;stroke-width:1;" x1="449.3" x2="449.3" y1="23" y2="31"/><line style="stroke:#181818;stroke-width:1;" x1="446.3" x2="446.3" y1="23" y2="31"/><line style="stroke:#181818;stroke-width:1;" x1="445.3" x2="453.3" y1="27" y2="27"/><line style="stroke:#181818;stroke-width:1;" x1="96" x2="102" y1="252.97" y2="260.97"/><line style="stroke:#181818;stroke-width:1;" x1="96" x2="90" y1="252.97" y2="260.97"/><line style="stroke:#181818;stroke-width:1;" x1="96" x2="96" y1="252.97" y2="260.97"/><ellipse cx="96" cy="246.97" fill="none" rx="4" ry="4" style="stroke:#181818;stroke-width:1;"/><text fill="#000000" font-family="sans-serif" font-size="13" lengthAdjust="spacing" textLength="71.0493" x="85.66" y="23.0669">docente_id</text></g><!--link grados to alumnos--><g class="link" data-entity-1="ent0003" data-entity-2="ent0004" data-link-type="crowfoot" data-source-line="57" id="lnk12"><path codeLine="57" d="M218.17,209.01 C218.17,237.92 218.17,265 218.17,265 C218.17,265 221.89,265 203.11,265" fill="none" id="grados-alumnos" style="stroke:#181818;stroke-width:1;"/><line style="stroke:#181818;stroke-width:1;" x1="214.17" x2="222.17" y1="205.01" y2="205.01"/><line style="stroke:#181818;stroke-width:1;" x1="214.17" x2="222.17" y1="208.01" y2="208.01"/><line style="stroke:#181818;stroke-width:1;" x1="218.17" x2="218.17" y1="209.01" y2="201.01"/><line style="stroke:#181818;stroke-width:1;" x1="193.11" x2="185.11" y1="265" y2="271"/><line style="stroke:#181818;stroke-width:1;" x1="193.11" x2="185.11" y1="265" y2="259"/><line style="stroke:#181818;stroke-width:1;" x1="193.11" x2="185.11" y1="265" y2="265"/><ellipse cx="199.11" cy="265" fill="none" rx="4" ry="4" style="stroke:#181818;stroke-width:1;"/><text fill="#000000" font-family="sans-serif" font-size="13" lengthAdjust="spacing" textLength="56.1323" x="161.17" y="245.5969">grado_id</text></g><!--link usuarios to asignaturas--><g class="link" data-entity-1="ent0002" data-entity-2="ent0005" data-link-type="crowfoot" data-source-line="59" id="lnk13"><path codeLine="59" d="M511,74.28 C511,92.02 511,88.71 511,107.71" fill="none" id="usuarios-asignaturas" style="stroke:#181818;stroke-width:1;"/><line style="stroke:#181818;stroke-width:1;" x1="507" x2="515" y1="70.28" y2="70.28"/><line style="stroke:#181818;stroke-width:1;" x1="507" x2="515" y1="73.28" y2="73.28"/><line style="stroke:#181818;stroke-width:1;" x1="511" x2="511" y1="74.28" y2="66.28"/><line style="stroke:#181818;stroke-width:1;" x1="511" x2="517" y1="117.71" y2="125.71"/><line style="stroke:#181818;stroke-width:1;" x1="511" x2="505" y1="117.71" y2="125.71"/><line style="stroke:#181818;stroke-width:1;" x1="511" x2="511" y1="117.71" y2="125.71"/><ellipse cx="511" cy="111.71" fill="none" rx="4" ry="4" style="stroke:#181818;stroke-width:1;"/><text fill="#000000" font-family="sans-serif" font-size="13" lengthAdjust="spacing" textLength="71.0493" x="439" y="92.0569">docente_id</text></g><!--link alumnos to alumnos_asignaturas--><g class="link" data-entity-1="ent0004" data-entity-2="ent0006" data-link-type="crowfoot" data-source-line="62" id="lnk14"><path codeLine="62" d="M193.28,348 C210.78,348 215.83,348 215.83,348 C215.83,348 215.83,370.14 215.83,401.82" fill="none" id="alumnos-alumnos_asignaturas" style="stroke:#181818;stroke-width:1;"/><line style="stroke:#181818;stroke-width:1;" x1="189.28" x2="189.28" y1="352" y2="344"/><line style="stroke:#181818;stroke-width:1;" x1="192.28" x2="192.28" y1="352" y2="344"/><line style="stroke:#181818;stroke-width:1;" x1="193.28" x2="185.28" y1="348" y2="348"/><line style="stroke:#181818;stroke-width:1;" x1="215.83" x2="221.83" y1="411.82" y2="419.82"/><line style="stroke:#181818;stroke-width:1;" x1="215.83" x2="209.83" y1="411.82" y2="419.82"/><line style="stroke:#181818;stroke-width:1;" x1="215.83" x2="215.83" y1="411.82" y2="419.82"/><ellipse cx="215.83" cy="405.82" fill="none" rx="4" ry="4" style="stroke:#181818;stroke-width:1;"/><text fill="#000000" font-family="sans-serif" font-size="13" lengthAdjust="spacing" textLength="4.1323" x="210.83" y="364.6969">&#160;</text></g><!--link asignaturas to alumnos_asignaturas--><g class="link" data-entity-1="ent0005" data-entity-2="ent0006" data-link-type="crowfoot" data-source-line="63" id="lnk15"><path codeLine="63" d="M508.75,209.1 C508.75,288.49 508.75,458 508.75,458 C508.75,458 499.63,458 466.57,458" fill="none" id="asignaturas-alumnos_asignaturas" style="stroke:#181818;stroke-width:1;"/><line style="stroke:#181818;stroke-width:1;" x1="504.75" x2="512.75" y1="205.1" y2="205.1"/><line style="stroke:#181818;stroke-width:1;" x1="504.75" x2="512.75" y1="208.1" y2="208.1"/><line style="stroke:#181818;stroke-width:1;" x1="508.75" x2="508.75" y1="209.1" y2="201.1"/><line style="stroke:#181818;stroke-width:1;" x1="456.57" x2="448.57" y1="458" y2="464"/><line style="stroke:#181818;stroke-width:1;" x1="456.57" x2="448.57" y1="458" y2="452"/><line style="stroke:#181818;stroke-width:1;" x1="456.57" x2="448.57" y1="458" y2="458"/><ellipse cx="462.57" cy="458" fill="none" rx="4" ry="4" style="stroke:#181818;stroke-width:1;"/><text fill="#000000" font-family="sans-serif" font-size="13" lengthAdjust="spacing" textLength="4.1323" x="503.75" y="355.7069">&#160;</text></g><!--link asignaturas to asignatura_grado--><g class="link" data-entity-1="ent0005" data-entity-2="ent0007" data-link-type="crowfoot" data-source-line="66" id="lnk16"><path codeLine="66" d="M438.75,209.07 C438.75,229.92 438.75,229.79 438.75,250.68" fill="none" id="asignaturas-asignatura_grado" style="stroke:#181818;stroke-width:1;"/><line style="stroke:#181818;stroke-width:1;" x1="434.75" x2="442.75" y1="205.07" y2="205.07"/><line style="stroke:#181818;stroke-width:1;" x1="434.75" x2="442.75" y1="208.07" y2="208.07"/><line style="stroke:#181818;stroke-width:1;" x1="438.75" x2="438.75" y1="209.07" y2="201.07"/><line style="stroke:#181818;stroke-width:1;" x1="438.75" x2="444.75" y1="260.68" y2="268.68"/><line style="stroke:#181818;stroke-width:1;" x1="438.75" x2="432.75" y1="260.68" y2="268.68"/><line style="stroke:#181818;stroke-width:1;" x1="438.75" x2="438.75" y1="260.68" y2="268.68"/><ellipse cx="438.75" cy="254.68" fill="none" rx="4" ry="4" style="stroke:#181818;stroke-width:1;"/><text fill="#000000" font-family="sans-serif" font-size="13" lengthAdjust="spacing" textLength="4.1323" x="433.75" y="230.9469">&#160;</text></g><!--link grados to asignatura_grado--><g class="link" data-entity-1="ent0003" data-entity-2="ent0007" data-link-type="crowfoot" data-source-line="67" id="lnk17"><path codeLine="67" d="M303.75,209.07 C303.75,229.92 303.75,229.79 303.75,250.68" fill="none" id="grados-asignatura_grado" style="stroke:#181818;stroke-width:1;"/><line style="stroke:#181818;stroke-width:1;" x1="299.75" x2="307.75" y1="205.07" y2="205.07"/><line style="stroke:#181818;stroke-width:1;" x1="299.75" x2="307.75" y1="208.07" y2="208.07"/><line style="stroke:#181818;stroke-width:1;" x1="303.75" x2="303.75" y1="209.07" y2="201.07"/><line style="stroke:#181818;stroke-width:1;" x1="303.75" x2="309.75" y1="260.68" y2="268.68"/><line style="stroke:#181818;stroke-width:1;" x1="303.75" x2="297.75" y1="260.68" y2="268.68"/><line style="stroke:#181818;stroke-width:1;" x1="303.75" x2="303.75" y1="260.68" y2="268.68"/><ellipse cx="303.75" cy="254.68" fill="none" rx="4" ry="4" style="stroke:#181818;stroke-width:1;"/><text fill="#000000" font-family="sans-serif" font-size="13" lengthAdjust="spacing" textLength="4.1323" x="298.75" y="230.9469">&#160;</text></g><!--link asignaturas to preguntas--><g class="link" data-entity-1="ent0005" data-entity-2="ent0008" data-link-type="crowfoot" data-source-line="69" id="lnk18"><path codeLine="69" d="M581,209.07 C581,227.36 581,223.5 581,242.77" fill="none" id="asignaturas-preguntas" style="stroke:#181818;stroke-width:1;"/><line style="stroke:#181818;stroke-width:1;" x1="577" x2="585" y1="205.07" y2="205.07"/><line style="stroke:#181818;stroke-width:1;" x1="577" x2="585" y1="208.07" y2="208.07"/><line style="stroke:#181818;stroke-width:1;" x1="581" x2="581" y1="209.07" y2="201.07"/><line style="stroke:#181818;stroke-width:1;" x1="581" x2="587" y1="252.77" y2="260.77"/><line style="stroke:#181818;stroke-width:1;" x1="581" x2="575" y1="252.77" y2="260.77"/><line style="stroke:#181818;stroke-width:1;" x1="581" x2="581" y1="252.77" y2="260.77"/><ellipse cx="581" cy="246.77" fill="none" rx="4" ry="4" style="stroke:#181818;stroke-width:1;"/><text fill="#000000" font-family="sans-serif" font-size="13" lengthAdjust="spacing" textLength="87.8198" x="493" y="226.9869">asignatura_id</text></g><!--link preguntas to respuestas--><g class="link" data-entity-1="ent0008" data-entity-2="ent0009" data-link-type="crowfoot" data-source-line="70" id="lnk19"><path codeLine="70" d="M700.25,360.21 C700.25,379.14 700.25,375.03 700.25,393.94" fill="none" id="preguntas-respuestas" style="stroke:#181818;stroke-width:1;"/><line style="stroke:#181818;stroke-width:1;" x1="696.25" x2="704.25" y1="356.21" y2="356.21"/><line style="stroke:#181818;stroke-width:1;" x1="696.25" x2="704.25" y1="359.21" y2="359.21"/><line style="stroke:#181818;stroke-width:1;" x1="700.25" x2="700.25" y1="360.21" y2="352.21"/><line style="stroke:#181818;stroke-width:1;" x1="700.25" x2="706.25" y1="403.94" y2="411.94"/><line style="stroke:#181818;stroke-width:1;" x1="700.25" x2="694.25" y1="403.94" y2="411.94"/><line style="stroke:#181818;stroke-width:1;" x1="700.25" x2="700.25" y1="403.94" y2="411.94"/><ellipse cx="700.25" cy="397.94" fill="none" rx="4" ry="4" style="stroke:#181818;stroke-width:1;"/><text fill="#000000" font-family="sans-serif" font-size="13" lengthAdjust="spacing" textLength="77.7524" x="622.25" y="378.1469">pregunta_id</text></g><!--link usuarios to preguntas--><g class="link" data-entity-1="ent0002" data-entity-2="ent0008" data-link-type="crowfoot" data-source-line="73" id="lnk20"><path codeLine="73" d="M576.82,47 C625.41,47 679,47 679,47 C679,47 679,168.21 679,242.7" fill="none" id="usuarios-preguntas" style="stroke:#181818;stroke-width:1;"/><line style="stroke:#181818;stroke-width:1;" x1="572.82" x2="572.82" y1="51" y2="43"/><line style="stroke:#181818;stroke-width:1;" x1="575.82" x2="575.82" y1="51" y2="43"/><line style="stroke:#181818;stroke-width:1;" x1="576.82" x2="568.82" y1="47" y2="47"/><line style="stroke:#181818;stroke-width:1;" x1="679" x2="685" y1="252.7" y2="260.7"/><line style="stroke:#181818;stroke-width:1;" x1="679" x2="673" y1="252.7" y2="260.7"/><line style="stroke:#181818;stroke-width:1;" x1="679" x2="679" y1="252.7" y2="260.7"/><ellipse cx="679" cy="246.7" fill="none" rx="4" ry="4" style="stroke:#181818;stroke-width:1;"/><text fill="#000000" font-family="sans-serif" font-size="13" lengthAdjust="spacing" textLength="71.0493" x="607" y="94.8269">docente_id</text></g><!--link usuarios to respuestas--><g class="link" data-entity-1="ent0002" data-entity-2="ent0009" data-link-type="crowfoot" data-source-line="74" id="lnk21"><path codeLine="74" d="M576.7,27 C659.13,27 792.75,27 792.75,27 C792.75,27 792.75,283.04 792.75,393.84" fill="none" id="usuarios-respuestas" style="stroke:#181818;stroke-width:1;"/><line style="stroke:#181818;stroke-width:1;" x1="572.7" x2="572.7" y1="31" y2="23"/><line style="stroke:#181818;stroke-width:1;" x1="575.7" x2="575.7" y1="31" y2="23"/><line style="stroke:#181818;stroke-width:1;" x1="576.7" x2="568.7" y1="27" y2="27"/><line style="stroke:#181818;stroke-width:1;" x1="792.75" x2="798.75" y1="403.84" y2="411.84"/><line style="stroke:#181818;stroke-width:1;" x1="792.75" x2="786.75" y1="403.84" y2="411.84"/><line style="stroke:#181818;stroke-width:1;" x1="792.75" x2="792.75" y1="403.84" y2="411.84"/><ellipse cx="792.75" cy="397.84" fill="none" rx="4" ry="4" style="stroke:#181818;stroke-width:1;"/><text fill="#000000" font-family="sans-serif" font-size="13" lengthAdjust="spacing" textLength="71.0493" x="720.75" y="103.4569">docente_id</text></g><?plantuml-src fLHBReCm4Dtx52CsIIfn0HH5YlfJLJMgekpH55nYbPZ8XaXHqbFr2BrOmTYO61AQTWFOytblPjumWjkClxEa41YnxoyEEoOBJ66B0gi7ZQY0WaFCC16uGRXVtf4rYob4J4Gf9VA3ySfv0odZDDzlAMGYNsU4K9wpV0zUKIOKB9CUe0HpW0C1k04MGm1FYnLCfw_Findvj64bNAo3wiyp8G2-hmnn5fMnD6mvF3WvCIqsN2VLtt_DMjaKhujuaYKSyxAv6jEU_r7D25RubYAmqYusj1nDFQxoIj1Kp_45-TxFCxzwmtYkY_LXRYbCtBw47RxTUysxjeGE_NPpRCmvBrNAeg0xXFpgWbgCV7XK0fdqz3rKCtAQNr-QIWPvzexQASGWRmLD2fxh_ZMdeMdtasZGVo5jGUMseD8Ws-CGjE5uBV08bces6QSInhSeOiOnPJ76j9n4i-V7e-zd1xF20NWsfTVnCZlfkEdWhfEPYaUwgLe2ST8rr5rP1T2x9yGWdX887GYFj2-6V1lfdwNIe_1U15VMAhtJibwVlcnMiS796bLzipRjt19POALlUgpAatg3bKgm-VrtndM2UqaYfvWjpny0?></g></svg>