<?plantuml 1.2026.2?><svg xmlns="http://www.w3.org/2000/svg" xmlns:xlink="http://www.w3.org/1999/xlink" contentStyleType="text/css" data-diagram-type="CLASS" height="628px" preserveAspectRatio="none" style="width:480px;height:628px;background:#FFFFFF;" version="1.1" viewBox="0 0 480 628" width="480px" zoomAndPan="magnify"><defs/><g><!--class usuarios--><g class="entity" data-qualified-name="usuarios" data-source-line="5" id="ent0002"><rect fill="#F1F1F1" height="58.5938" rx="2.5" ry="2.5" style="stroke:#181818;stroke-width:0.5;" width="114.751" x="174" y="7"/><text fill="#000000" font-family="sans-serif" font-size="14" lengthAdjust="spacing" textLength="59.124" x="201.8135" y="24.9951">usuarios</text><line style="stroke:#181818;stroke-width:0.5;" x1="175" x2="287.751" y1="33.2969" y2="33.2969"/><g data-visibility-modifier="IE_MANDATORY"><ellipse cx="185" cy="46.9453" fill="#000000" rx="3" ry="3" style="stroke:#000000;stroke-width:1;"/></g><text fill="#000000" font-family="sans-serif" font-size="14" lengthAdjust="spacing" textLength="88.751" x="194" y="50.292">id : INT &#171;PK&#187;</text><line style="stroke:#181818;stroke-width:0.5;" x1="175" x2="287.751" y1="57.5938" y2="57.5938"/></g><!--class grados--><g class="entity" data-qualified-name="grados" data-source-line="9" id="ent0003"><rect fill="#F1F1F1" height="74.8906" rx="2.5" ry="2.5" style="stroke:#181818;stroke-width:0.5;" width="178.0996" x="142.5" y="126"/><text fill="#000000" font-family="sans-serif" font-size="14" lengthAdjust="spacing" textLength="47.9678" x="207.5659" y="143.9951">grados</text><line style="stroke:#181818;stroke-width:0.5;" x1="143.5" x2="319.5996" y1="152.2969" y2="152.2969"/><g data-visibility-modifier="IE_MANDATORY"><ellipse cx="153.5" cy="165.9453" fill="#000000" rx="3" ry="3" style="stroke:#000000;stroke-width:1;"/></g><text fill="#000000" font-family="sans-serif" font-size="14" lengthAdjust="spacing" textLength="88.751" x="162.5" y="169.292">id : INT &#171;PK&#187;</text><line style="stroke:#181818;stroke-width:1;" x1="143.5" x2="319.5996" y1="176.5938" y2="176.5938"/><g data-visibility-modifier="IE_MANDATORY"><ellipse cx="153.5" cy="190.2422" fill="#000000" rx="3" ry="3" style="stroke:#000000;stroke-width:1;"/></g><text fill="#000000" font-family="sans-serif" font-size="14" lengthAdjust="spacing" textLength="152.0996" x="162.5" y="193.5889">docente_id : INT &#171;FK&#187;</text></g><!--class alumnos--><g class="entity" data-qualified-name="alumnos" data-source-line="15" id="ent0004"><rect fill="#F1F1F1" height="91.1875" rx="2.5" ry="2.5" style="stroke:#181818;stroke-width:0.5;" width="178.0996" x="35.5" y="261"/><text fill="#000000" font-family="sans-serif" font-size="14" lengthAdjust="spacing" textLength="59.7119" x="94.6938" y="278.9951">alumnos</text><line style="stroke:#181818;stroke-width:0.5;" x1="36.5" x2="212.5996" y1="287.2969" y2="287.2969"/><g data-visibility-modifier="IE_MANDATORY"><ellipse cx="46.5" cy="300.9453" fill="#000000" rx="3" ry="3" style="stroke:#000000;stroke-width:1;"/></g><text fill="#000000" font-family="sans-serif" font-size="14" lengthAdjust="spacing" textLength="88.751" x="55.5" y="304.292">id : INT &#171;PK&#187;</text><line style="stroke:#181818;stroke-width:1;" x1="36.5" x2="212.5996" y1="311.5938" y2="311.5938"/><g data-visibility-modifier="IE_MANDATORY"><ellipse cx="46.5" cy="325.2422" fill="#000000" rx="3" ry="3" style="stroke:#000000;stroke-width:1;"/></g><text fill="#000000" font-family="sans-serif" font-size="14" lengthAdjust="spacing" textLength="152.0996" x="55.5" y="328.5889">docente_id : INT &#171;FK&#187;</text><g data-visibility-modifier="IE_MANDATORY"><ellipse cx="46.5" cy="341.5391" fill="#000000" rx="3" ry="3" style="stroke:#000000;stroke-width:1;"/></g><text fill="#000000" font-family="sans-serif" font-size="14" lengthAdjust="spacing" textLength="136.0352" x="55.5" y="344.8857">grado_id : INT &#171;FK&#187;</text></g><!--class asignaturas--><g class="entity" data-qualified-name="asignaturas" data-source-line="22" id="ent0005"><rect fill="#F1F1F1" height="91.1875" rx="2.5" ry="2.5" style="stroke:#181818;stroke-width:0.5;" width="178.0996" x="266.5" y="261"/><text fill="#000000" font-family="sans-serif" font-size="14" lengthAdjust="spacing" textLength="82.0928" x="314.5034" y="278.9951">asignaturas</text><line style="stroke:#181818;stroke-width:0.5;" x1="267.5" x2="443.5996" y1="287.2969" y2="287.2969"/><g data-visibility-modifier="IE_MANDATORY"><ellipse cx="277.5" cy="300.9453" fill="#000000" rx="3" ry="3" style="stroke:#000000;stroke-width:1;"/></g><text fill="#000000" font-family="sans-serif" font-size="14" lengthAdjust="spacing" textLength="88.751" x="286.5" y="304.292">id : INT &#171;PK&#187;</text><line style="stroke:#181818;stroke-width:1;" x1="267.5" x2="443.5996" y1="311.5938" y2="311.5938"/><g data-visibility-modifier="IE_MANDATORY"><ellipse cx="277.5" cy="325.2422" fill="#000000" rx="3" ry="3" style="stroke:#000000;stroke-width:1;"/></g><text fill="#000000" font-family="sans-serif" font-size="14" lengthAdjust="spacing" textLength="152.0996" x="286.5" y="328.5889">docente_id : INT &#171;FK&#187;</text><g data-visibility-modifier="IE_MANDATORY"><ellipse cx="277.5" cy="341.5391" fill="#000000" rx="3" ry="3" style="stroke:#000000;stroke-width:1;"/></g><text fill="#000000" font-family="sans-serif" font-size="14" lengthAdjust="spacing" textLength="136.0352" x="286.5" y="344.8857">grado_id : INT &#171;FK&#187;</text></g><!--class alumnos_asignaturas--><g class="entity" data-qualified-name="alumnos_asignaturas" data-source-line="30" id="ent0006"><rect fill="#F1F1F1" height="74.8906" rx="2.5" ry="2.5" style="stroke:#181818;stroke-width:0.5;" width="235.3643" x="7" y="412"/><text fill="#000000" font-family="sans-serif" font-size="14" lengthAdjust="spacing" textLength="148.8047" x="50.2798" y="429.9951">alumnos_asignaturas</text><line style="stroke:#181818;stroke-width:0.5;" x1="8" x2="241.3643" y1="438.2969" y2="438.2969"/><g data-visibility-modifier="IE_MANDATORY"><ellipse cx="18" cy="451.9453" fill="#000000" rx="3" ry="3" style="stroke:#000000;stroke-width:1;"/></g><text fill="#000000" font-family="sans-serif" font-size="14" lengthAdjust="spacing" textLength="186.9834" x="27" y="455.292">alumno_id : INT &#171;PK&#187; &#171;FK&#187;</text><g data-visibility-modifier="IE_MANDATORY"><ellipse cx="18" cy="468.2422" fill="#000000" rx="3" ry="3" style="stroke:#000000;stroke-width:1;"/></g><text fill="#000000" font-family="sans-serif" font-size="14" lengthAdjust="spacing" textLength="209.3643" x="27" y="471.5889">asignatura_id : INT &#171;PK&#187; &#171;FK&#187;</text><line style="stroke:#181818;stroke-width:0.5;" x1="8" x2="241.3643" y1="478.8906" y2="478.8906"/></g><!--class preguntas--><g class="entity" data-qualified-name="preguntas" data-source-line="35" id="ent0007"><rect fill="#F1F1F1" height="74.8906" rx="2.5" ry="2.5" style="stroke:#181818;stroke-width:0.5;" width="196.1602" x="277.5" y="412"/><text fill="#000000" font-family="sans-serif" font-size="14" lengthAdjust="spacing" textLength="71.251" x="339.9546" y="429.9951">preguntas</text><line style="stroke:#181818;stroke-width:0.5;" x1="278.5" x2="472.6602" y1="438.2969" y2="438.2969"/><g data-visibility-modifier="IE_MANDATORY"><ellipse cx="288.5" cy="451.9453" fill="#000000" rx="3" ry="3" style="stroke:#000000;stroke-width:1;"/></g><text fill="#000000" font-family="sans-serif" font-size="14" lengthAdjust="spacing" textLength="88.751" x="297.5" y="455.292">id : INT &#171;PK&#187;</text><line style="stroke:#181818;stroke-width:1;" x1="278.5" x2="472.6602" y1="462.5938" y2="462.5938"/><g data-visibility-modifier="IE_MANDATORY"><ellipse cx="288.5" cy="476.2422" fill="#000000" rx="3" ry="3" style="stroke:#000000;stroke-width:1;"/></g><text fill="#000000" font-family="sans-serif" font-size="14" lengthAdjust="spacing" textLength="170.1602" x="297.5" y="479.5889">asignatura_id : INT &#171;FK&#187;</text></g><!--class respuestas--><g class="entity" data-qualified-name="respuestas" data-source-line="41" id="ent0008"><rect fill="#F1F1F1" height="74.8906" rx="2.5" ry="2.5" style="stroke:#181818;stroke-width:0.5;" width="185.3184" x="283" y="547"/><text fill="#000000" font-family="sans-serif" font-size="14" lengthAdjust="spacing" textLength="76.6924" x="337.313" y="564.9951">respuestas</text><line style="stroke:#181818;stroke-width:0.5;" x1="284" x2="467.3184" y1="573.2969" y2="573.2969"/><g data-visibility-modifier="IE_MANDATORY"><ellipse cx="294" cy="586.9453" fill="#000000" rx="3" ry="3" style="stroke:#000000;stroke-width:1;"/></g><text fill="#000000" font-family="sans-serif" font-size="14" lengthAdjust="spacing" textLength="88.751" x="303" y="590.292">id : INT &#171;PK&#187;</text><line style="stroke:#181818;stroke-width:1;" x1="284" x2="467.3184" y1="597.5938" y2="597.5938"/><g data-visibility-modifier="IE_MANDATORY"><ellipse cx="294" cy="611.2422" fill="#000000" rx="3" ry="3" style="stroke:#000000;stroke-width:1;"/></g><text fill="#000000" font-family="sans-serif" font-size="14" lengthAdjust="spacing" textLength="159.3184" x="303" y="614.5889">pregunta_id : INT &#171;FK&#187;</text></g><!--link usuarios to grados--><g class="link" data-entity-1="ent0002" data-entity-2="ent0003" data-link-type="crowfoot" data-source-line="48" id="lnk9"><path codeLine="48" d="M231.5,74.28 C231.5,92.02 231.5,88.71 231.5,107.71" fill="none" id="usuarios-grados" style="stroke:#181818;stroke-width:1;"/><line style="stroke:#181818;stroke-width:1;" x1="227.5" x2="235.5" y1="70.28" y2="70.28"/><line style="stroke:#181818;stroke-width:1;" x1="227.5" x2="235.5" y1="73.28" y2="73.28"/><line style="stroke:#181818;stroke-width:1;" x1="231.5" x2="231.5" y1="74.28" y2="66.28"/><line style="stroke:#181818;stroke-width:1;" x1="231.5" x2="237.5" y1="117.71" y2="125.71"/><line style="stroke:#181818;stroke-width:1;" x1="231.5" x2="225.5" y1="117.71" y2="125.71"/><line style="stroke:#181818;stroke-width:1;" x1="231.5" x2="231.5" y1="117.71" y2="125.71"/><ellipse cx="231.5" cy="111.71" fill="none" rx="4" ry="4" style="stroke:#181818;stroke-width:1;"/><text fill="#000000" font-family="sans-serif" font-size="13" lengthAdjust="spacing" textLength="71.0493" x="159.5" y="92.0569">docente_id</text></g><!--link usuarios to alumnos--><g class="link" data-entity-1="ent0002" data-entity-2="ent0004" data-link-type="crowfoot" data-source-line="49" id="lnk10"><path codeLine="49" d="M165.95,37 C126.4,37 89,37 89,37 C89,37 89,165.89 89,242.78" fill="none" id="usuarios-alumnos" style="stroke:#181818;stroke-width:1;"/><line style="stroke:#181818;stroke-width:1;" x1="169.95" x2="169.95" y1="33" y2="41"/><line style="stroke:#181818;stroke-width:1;" x1="166.95" x2="166.95" y1="33" y2="41"/><line style="stroke:#181818;stroke-width:1;" x1="165.95" x2="173.95" y1="37" y2="37"/><line style="stroke:#181818;stroke-width:1;" x1="89" x2="95" y1="252.78" y2="260.78"/><line style="stroke:#181818;stroke-width:1;" x1="89" x2="83" y1="252.78" y2="260.78"/><line style="stroke:#181818;stroke-width:1;" x1="89" x2="89" y1="252.78" y2="260.78"/><ellipse cx="89" cy="246.78" fill="none" rx="4" ry="4" style="stroke:#181818;stroke-width:1;"/><text fill="#000000" font-family="sans-serif" font-size="13" lengthAdjust="spacing" textLength="71.0493" x="17" y="102.4869">docente_id</text></g><!--link grados to alumnos--><g class="link" data-entity-1="ent0003" data-entity-2="ent0004" data-link-type="crowfoot" data-source-line="50" id="lnk11"><path codeLine="50" d="M178,209.07 C178,227.36 178,223.5 178,242.77" fill="none" id="grados-alumnos" style="stroke:#181818;stroke-width:1;"/><line style="stroke:#181818;stroke-width:1;" x1="174" x2="182" y1="205.07" y2="205.07"/><line style="stroke:#181818;stroke-width:1;" x1="174" x2="182" y1="208.07" y2="208.07"/><line style="stroke:#181818;stroke-width:1;" x1="178" x2="178" y1="209.07" y2="201.07"/><line style="stroke:#181818;stroke-width:1;" x1="178" x2="184" y1="252.77" y2="260.77"/><line style="stroke:#181818;stroke-width:1;" x1="178" x2="172" y1="252.77" y2="260.77"/><line style="stroke:#181818;stroke-width:1;" x1="178" x2="178" y1="252.77" y2="260.77"/><ellipse cx="178" cy="246.77" fill="none" rx="4" ry="4" style="stroke:#181818;stroke-width:1;"/><text fill="#000000" font-family="sans-serif" font-size="13" lengthAdjust="spacing" textLength="56.1323" x="121" y="226.9869">grado_id</text></g><!--link usuarios to asignaturas--><g class="link" data-entity-1="ent0002" data-entity-2="ent0005" data-link-type="crowfoot" data-source-line="52" id="lnk12"><path codeLine="52" d="M297.02,37 C339.69,37 382.5,37 382.5,37 C382.5,37 382.5,165.89 382.5,242.78" fill="none" id="usuarios-asignaturas" style="stroke:#181818;stroke-width:1;"/><line style="stroke:#181818;stroke-width:1;" x1="293.02" x2="293.02" y1="41" y2="33"/><line style="stroke:#181818;stroke-width:1;" x1="296.02" x2="296.02" y1="41" y2="33"/><line style="stroke:#181818;stroke-width:1;" x1="297.02" x2="289.02" y1="37" y2="37"/><line style="stroke:#181818;stroke-width:1;" x1="382.5" x2="388.5" y1="252.78" y2="260.78"/><line style="stroke:#181818;stroke-width:1;" x1="382.5" x2="376.5" y1="252.78" y2="260.78"/><line style="stroke:#181818;stroke-width:1;" x1="382.5" x2="382.5" y1="252.78" y2="260.78"/><ellipse cx="382.5" cy="246.78" fill="none" rx="4" ry="4" style="stroke:#181818;stroke-width:1;"/><text fill="#000000" font-family="sans-serif" font-size="13" lengthAdjust="spacing" textLength="71.0493" x="310.5" y="98.2169">docente_id</text></g><!--link grados to asignaturas--><g class="link" data-entity-1="ent0003" data-entity-2="ent0005" data-link-type="crowfoot" data-source-line="53" id="lnk13"><path codeLine="53" d="M293.5,209.07 C293.5,227.36 293.5,223.5 293.5,242.77" fill="none" id="grados-asignaturas" style="stroke:#181818;stroke-width:1;"/><line style="stroke:#181818;stroke-width:1;" x1="289.5" x2="297.5" y1="205.07" y2="205.07"/><line style="stroke:#181818;stroke-width:1;" x1="289.5" x2="297.5" y1="208.07" y2="208.07"/><line style="stroke:#181818;stroke-width:1;" x1="293.5" x2="293.5" y1="209.07" y2="201.07"/><line style="stroke:#181818;stroke-width:1;" x1="293.5" x2="299.5" y1="252.77" y2="260.77"/><line style="stroke:#181818;stroke-width:1;" x1="293.5" x2="287.5" y1="252.77" y2="260.77"/><line style="stroke:#181818;stroke-width:1;" x1="293.5" x2="293.5" y1="252.77" y2="260.77"/><ellipse cx="293.5" cy="246.77" fill="none" rx="4" ry="4" style="stroke:#181818;stroke-width:1;"/><text fill="#000000" font-family="sans-serif" font-size="13" lengthAdjust="spacing" textLength="56.1323" x="236.5" y="226.9869">grado_id</text></g><!--link alumnos to alumnos_asignaturas--><g class="link" data-entity-1="ent0004" data-entity-2="ent0006" data-link-type="crowfoot" data-source-line="56" id="lnk14"><path codeLine="56" d="M124.5,360.14 C124.5,379.43 124.5,375.62 124.5,393.94" fill="none" id="alumnos-alumnos_asignaturas" style="stroke:#181818;stroke-width:1;"/><line style="stroke:#181818;stroke-width:1;" x1="120.5" x2="128.5" y1="356.14" y2="356.14"/><line style="stroke:#181818;stroke-width:1;" x1="120.5" x2="128.5" y1="359.14" y2="359.14"/><line style="stroke:#181818;stroke-width:1;" x1="124.5" x2="124.5" y1="360.14" y2="352.14"/><line style="stroke:#181818;stroke-width:1;" x1="124.5" x2="130.5" y1="403.94" y2="411.94"/><line style="stroke:#181818;stroke-width:1;" x1="124.5" x2="118.5" y1="403.94" y2="411.94"/><line style="stroke:#181818;stroke-width:1;" x1="124.5" x2="124.5" y1="403.94" y2="411.94"/><ellipse cx="124.5" cy="397.94" fill="none" rx="4" ry="4" style="stroke:#181818;stroke-width:1;"/><text fill="#000000" font-family="sans-serif" font-size="13" lengthAdjust="spacing" textLength="4.1323" x="119.5" y="378.1069">&#160;</text></g><!--link asignaturas to alumnos_asignaturas--><g class="link" data-entity-1="ent0005" data-entity-2="ent0006" data-link-type="crowfoot" data-source-line="57" id="lnk15"><path codeLine="57" d="M272,360.3 C272,402.3 272,450 272,450 C272,450 277.68,450 260.15,450" fill="none" id="asignaturas-alumnos_asignaturas" style="stroke:#181818;stroke-width:1;"/><line style="stroke:#181818;stroke-width:1;" x1="268" x2="276" y1="356.3" y2="356.3"/><line style="stroke:#181818;stroke-width:1;" x1="268" x2="276" y1="359.3" y2="359.3"/><line style="stroke:#181818;stroke-width:1;" x1="272" x2="272" y1="360.3" y2="352.3"/><line style="stroke:#181818;stroke-width:1;" x1="250.15" x2="242.15" y1="450" y2="456"/><line style="stroke:#181818;stroke-width:1;" x1="250.15" x2="242.15" y1="450" y2="444"/><line style="stroke:#181818;stroke-width:1;" x1="250.15" x2="242.15" y1="450" y2="450"/><ellipse cx="256.15" cy="450" fill="none" rx="4" ry="4" style="stroke:#181818;stroke-width:1;"/><text fill="#000000" font-family="sans-serif" font-size="13" lengthAdjust="spacing" textLength="4.1323" x="267" y="412.1369">&#160;</text></g><!--link asignaturas to preguntas--><g class="link" data-entity-1="ent0005" data-entity-2="ent0007" data-link-type="crowfoot" data-source-line="59" id="lnk16"><path codeLine="59" d="M361,360.14 C361,379.43 361,375.62 361,393.94" fill="none" id="asignaturas-preguntas" style="stroke:#181818;stroke-width:1;"/><line style="stroke:#181818;stroke-width:1;" x1="357" x2="365" y1="356.14" y2="356.14"/><line style="stroke:#181818;stroke-width:1;" x1="357" x2="365" y1="359.14" y2="359.14"/><line style="stroke:#181818;stroke-width:1;" x1="361" x2="361" y1="360.14" y2="352.14"/><line style="stroke:#181818;stroke-width:1;" x1="361" x2="367" y1="403.94" y2="411.94"/><line style="stroke:#181818;stroke-width:1;" x1="361" x2="355" y1="403.94" y2="411.94"/><line style="stroke:#181818;stroke-width:1;" x1="361" x2="361" y1="403.94" y2="411.94"/><ellipse cx="361" cy="397.94" fill="none" rx="4" ry="4" style="stroke:#181818;stroke-width:1;"/><text fill="#000000" font-family="sans-serif" font-size="13" lengthAdjust="spacing" textLength="87.8198" x="273" y="378.1069">asignatura_id</text></g><!--link preguntas to respuestas--><g class="link" data-entity-1="ent0007" data-entity-2="ent0008" data-link-type="crowfoot" data-source-line="60" id="lnk17"><path codeLine="60" d="M375.5,495.11 C375.5,513.67 375.5,510.02 375.5,528.63" fill="none" id="preguntas-respuestas" style="stroke:#181818;stroke-width:1;"/><line style="stroke:#181818;stroke-width:1;" x1="371.5" x2="379.5" y1="491.11" y2="491.11"/><line style="stroke:#181818;stroke-width:1;" x1="371.5" x2="379.5" y1="494.11" y2="494.11"/><line style="stroke:#181818;stroke-width:1;" x1="375.5" x2="375.5" y1="495.11" y2="487.11"/><line style="stroke:#181818;stroke-width:1;" x1="375.5" x2="381.5" y1="538.63" y2="546.63"/><line style="stroke:#181818;stroke-width:1;" x1="375.5" x2="369.5" y1="538.63" y2="546.63"/><line style="stroke:#181818;stroke-width:1;" x1="375.5" x2="375.5" y1="538.63" y2="546.63"/><ellipse cx="375.5" cy="532.63" fill="none" rx="4" ry="4" style="stroke:#181818;stroke-width:1;"/><text fill="#000000" font-family="sans-serif" font-size="13" lengthAdjust="spacing" textLength="77.7524" x="297.5" y="512.9369">pregunta_id</text></g><?plantuml-src jLJDJiCm3BxdAQnU1aXzWMhQPO2440XDkrUcCIEYJQeadPWs7eWpZx0N8-tIjKlt8o5nQMFxysV7_jeHJ9Ly4ujAOoQsFnAMmbIOGuaQwmTbfA6Im0KkD1O8TxDRzYuuGIPqbXCp7qBMu09o8SckIWAbxRjYZAGLTWLHvGYrK2O2DD0Qi6O0Do0u9F3mF8Vn-ELnCc5VNPehnttIxdWY1I2Ecm1NcSkbj0Uu3pWnhmhfIVtvhwnrhEdhR3qZ5XAj6wwlsTd_KdS4StpD4OJBr0MvfUqMwLoQSh_X9vIhsAguVeUJIGST3_s-yrqa3IxGRxFBEONgZQhKjAYazMNtrgKn7QyHacioPKMcPU_CI_Hj7yU7FMjcgYGPk9gYva9YBZXoCjTiB_JD9exLkjLm0b6tsMY0QaKPm7po4DGg8M93gjx6pjCT0dkKxGr3rG1zbhd8a2CWM8tBxRS1zqjmChE1_bZRx67lQL0qOdt79UmnSAUOfF_TDHVfOXxS4q3IIQ_6_W80?></g></svg>