<?plantuml 1.2026.2?><svg xmlns="http://www.w3.org/2000/svg" xmlns:xlink="http://www.w3.org/1999/xlink" contentStyleType="text/css" data-diagram-type="CLASS" height="493px" preserveAspectRatio="none" style="width:765px;height:493px;background:#FFFFFF;" version="1.1" viewBox="0 0 765 493" width="765px" zoomAndPan="magnify"><defs/><g><!--class usuarios--><g class="entity" data-qualified-name="usuarios" data-source-line="5" id="ent0002"><rect fill="#F1F1F1" height="58.5938" rx="2.5" ry="2.5" style="stroke:#181818;stroke-width:0.5;" width="114.751" x="223.5" y="7"/><text fill="#000000" font-family="sans-serif" font-size="14" lengthAdjust="spacing" textLength="59.124" x="251.3135" y="24.9951">usuarios</text><line style="stroke:#181818;stroke-width:0.5;" x1="224.5" x2="337.251" y1="33.2969" y2="33.2969"/><g data-visibility-modifier="IE_MANDATORY"><ellipse cx="234.5" cy="46.9453" fill="#000000" rx="3" ry="3" style="stroke:#000000;stroke-width:1;"/></g><text fill="#000000" font-family="sans-serif" font-size="14" lengthAdjust="spacing" textLength="88.751" x="243.5" y="50.292">id : INT &#171;PK&#187;</text><line style="stroke:#181818;stroke-width:0.5;" x1="224.5" x2="337.251" y1="57.5938" y2="57.5938"/></g><!--class grados--><g class="entity" data-qualified-name="grados" data-source-line="9" id="ent0003"><rect fill="#F1F1F1" height="74.8906" rx="2.5" ry="2.5" style="stroke:#181818;stroke-width:0.5;" width="178.0996" x="192" y="126"/><text fill="#000000" font-family="sans-serif" font-size="14" lengthAdjust="spacing" textLength="47.9678" x="257.0659" y="143.9951">grados</text><line style="stroke:#181818;stroke-width:0.5;" x1="193" x2="369.0996" y1="152.2969" y2="152.2969"/><g data-visibility-modifier="IE_MANDATORY"><ellipse cx="203" cy="165.9453" fill="#000000" rx="3" ry="3" style="stroke:#000000;stroke-width:1;"/></g><text fill="#000000" font-family="sans-serif" font-size="14" lengthAdjust="spacing" textLength="88.751" x="212" y="169.292">id : INT &#171;PK&#187;</text><line style="stroke:#181818;stroke-width:1;" x1="193" x2="369.0996" y1="176.5938" y2="176.5938"/><g data-visibility-modifier="IE_MANDATORY"><ellipse cx="203" cy="190.2422" fill="#000000" rx="3" ry="3" style="stroke:#000000;stroke-width:1;"/></g><text fill="#000000" font-family="sans-serif" font-size="14" lengthAdjust="spacing" textLength="152.0996" x="212" y="193.5889">docente_id : INT &#171;FK&#187;</text></g><!--class alumnos--><g class="entity" data-qualified-name="alumnos" data-source-line="15" id="ent0004"><rect fill="#F1F1F1" height="91.1875" rx="2.5" ry="2.5" style="stroke:#181818;stroke-width:0.5;" width="178.0996" x="7" y="261"/><text fill="#000000" font-family="sans-serif" font-size="14" lengthAdjust="spacing" textLength="59.7119" x="66.1938" y="278.9951">alumnos</text><line style="stroke:#181818;stroke-width:0.5;" x1="8" x2="184.0996" y1="287.2969" y2="287.2969"/><g data-visibility-modifier="IE_MANDATORY"><ellipse cx="18" cy="300.9453" fill="#000000" rx="3" ry="3" style="stroke:#000000;stroke-width:1;"/></g><text fill="#000000" font-family="sans-serif" font-size="14" lengthAdjust="spacing" textLength="88.751" x="27" y="304.292">id : INT &#171;PK&#187;</text><line style="stroke:#181818;stroke-width:1;" x1="8" x2="184.0996" y1="311.5938" y2="311.5938"/><g data-visibility-modifier="IE_MANDATORY"><ellipse cx="18" cy="325.2422" fill="#000000" rx="3" ry="3" style="stroke:#000000;stroke-width:1;"/></g><text fill="#000000" font-family="sans-serif" font-size="14" lengthAdjust="spacing" textLength="152.0996" x="27" y="328.5889">docente_id : INT &#171;FK&#187;</text><g data-visibility-modifier="IE_MANDATORY"><ellipse cx="18" cy="341.5391" fill="#000000" rx="3" ry="3" style="stroke:#000000;stroke-width:1;"/></g><text fill="#000000" font-family="sans-serif" font-size="14" lengthAdjust="spacing" textLength="136.0352" x="27" y="344.8857">grado_id : INT &#171;FK&#187;</text></g><!--class asignaturas--><g class="entity" data-qualified-name="asignaturas" data-source-line="22" id="ent0005"><rect fill="#F1F1F1" height="74.8906" rx="2.5" ry="2.5" style="stroke:#181818;stroke-width:0.5;" width="178.0996" x="412" y="126"/><text fill="#000000" font-family="sans-serif" font-size="14" lengthAdjust="spacing" textLength="82.0928" x="460.0034" y="143.9951">asignaturas</text><line style="stroke:#181818;stroke-width:0.5;" x1="413" x2="589.0996" y1="152.2969" y2="152.2969"/><g data-visibility-modifier="IE_MANDATORY"><ellipse cx="423" cy="165.9453" fill="#000000" rx="3" ry="3" style="stroke:#000000;stroke-width:1;"/></g><text fill="#000000" font-family="sans-serif" font-size="14" lengthAdjust="spacing" textLength="88.751" x="432" y="169.292">id : INT &#171;PK&#187;</text><line style="stroke:#181818;stroke-width:1;" x1="413" x2="589.0996" y1="176.5938" y2="176.5938"/><g data-visibility-modifier="IE_MANDATORY"><ellipse cx="423" cy="190.2422" fill="#000000" rx="3" ry="3" style="stroke:#000000;stroke-width:1;"/></g><text fill="#000000" font-family="sans-serif" font-size="14" lengthAdjust="spacing" textLength="152.0996" x="432" y="193.5889">docente_id : INT &#171;FK&#187;</text></g><!--class alumnos_asignaturas--><g class="entity" data-qualified-name="alumnos_asignaturas" data-source-line="29" id="ent0006"><rect fill="#F1F1F1" height="74.8906" rx="2.5" ry="2.5" style="stroke:#181818;stroke-width:0.5;" width="235.3643" x="138.5" y="412"/><text fill="#000000" font-family="sans-serif" font-size="14" lengthAdjust="spacing" textLength="148.8047" x="181.7798" y="429.9951">alumnos_asignaturas</text><line style="stroke:#181818;stroke-width:0.5;" x1="139.5" x2="372.8643" y1="438.2969" y2="438.2969"/><g data-visibility-modifier="IE_MANDATORY"><ellipse cx="149.5" cy="451.9453" fill="#000000" rx="3" ry="3" style="stroke:#000000;stroke-width:1;"/></g><text fill="#000000" font-family="sans-serif" font-size="14" lengthAdjust="spacing" textLength="186.9834" x="158.5" y="455.292">alumno_id : INT &#171;PK&#187; &#171;FK&#187;</text><g data-visibility-modifier="IE_MANDATORY"><ellipse cx="149.5" cy="468.2422" fill="#000000" rx="3" ry="3" style="stroke:#000000;stroke-width:1;"/></g><text fill="#000000" font-family="sans-serif" font-size="14" lengthAdjust="spacing" textLength="209.3643" x="158.5" y="471.5889">asignatura_id : INT &#171;PK&#187; &#171;FK&#187;</text><line style="stroke:#181818;stroke-width:0.5;" x1="139.5" x2="372.8643" y1="478.8906" y2="478.8906"/></g><!--class asignatura_grado--><g class="entity" data-qualified-name="asignatura_grado" data-source-line="35" id="ent0007"><rect fill="#F1F1F1" height="74.8906" rx="2.5" ry="2.5" style="stroke:#181818;stroke-width:0.5;" width="235.3643" x="220.5" y="269"/><text fill="#000000" font-family="sans-serif" font-size="14" lengthAdjust="spacing" textLength="122.4727" x="276.9458" y="286.9951">asignatura_grado</text><line style="stroke:#181818;stroke-width:0.5;" x1="221.5" x2="454.8643" y1="295.2969" y2="295.2969"/><g data-visibility-modifier="IE_MANDATORY"><ellipse cx="231.5" cy="308.9453" fill="#000000" rx="3" ry="3" style="stroke:#000000;stroke-width:1;"/></g><text fill="#000000" font-family="sans-serif" font-size="14" lengthAdjust="spacing" textLength="209.3643" x="240.5" y="312.292">asignatura_id : INT &#171;PK&#187; &#171;FK&#187;</text><g data-visibility-modifier="IE_MANDATORY"><ellipse cx="231.5" cy="325.2422" fill="#000000" rx="3" ry="3" style="stroke:#000000;stroke-width:1;"/></g><text fill="#000000" font-family="sans-serif" font-size="14" lengthAdjust="spacing" textLength="175.2393" x="240.5" y="328.5889">grado_id : INT &#171;PK&#187; &#171;FK&#187;</text><line style="stroke:#181818;stroke-width:0.5;" x1="221.5" x2="454.8643" y1="335.8906" y2="335.8906"/></g><!--class preguntas--><g class="entity" data-qualified-name="preguntas" data-source-line="40" id="ent0008"><rect fill="#F1F1F1" height="74.8906" rx="2.5" ry="2.5" style="stroke:#181818;stroke-width:0.5;" width="196.1602" x="562" y="269"/><text fill="#000000" font-family="sans-serif" font-size="14" lengthAdjust="spacing" textLength="71.251" x="624.4546" y="286.9951">preguntas</text><line style="stroke:#181818;stroke-width:0.5;" x1="563" x2="757.1602" y1="295.2969" y2="295.2969"/><g data-visibility-modifier="IE_MANDATORY"><ellipse cx="573" cy="308.9453" fill="#000000" rx="3" ry="3" style="stroke:#000000;stroke-width:1;"/></g><text fill="#000000" font-family="sans-serif" font-size="14" lengthAdjust="spacing" textLength="88.751" x="582" y="312.292">id : INT &#171;PK&#187;</text><line style="stroke:#181818;stroke-width:1;" x1="563" x2="757.1602" y1="319.5938" y2="319.5938"/><g data-visibility-modifier="IE_MANDATORY"><ellipse cx="573" cy="333.2422" fill="#000000" rx="3" ry="3" style="stroke:#000000;stroke-width:1;"/></g><text fill="#000000" font-family="sans-serif" font-size="14" lengthAdjust="spacing" textLength="170.1602" x="582" y="336.5889">asignatura_id : INT &#171;FK&#187;</text></g><!--class respuestas--><g class="entity" data-qualified-name="respuestas" data-source-line="46" id="ent0009"><rect fill="#F1F1F1" height="74.8906" rx="2.5" ry="2.5" style="stroke:#181818;stroke-width:0.5;" width="185.3184" x="567.5" y="412"/><text fill="#000000" font-family="sans-serif" font-size="14" lengthAdjust="spacing" textLength="76.6924" x="621.813" y="429.9951">respuestas</text><line style="stroke:#181818;stroke-width:0.5;" x1="568.5" x2="751.8184" y1="438.2969" y2="438.2969"/><g data-visibility-modifier="IE_MANDATORY"><ellipse cx="578.5" cy="451.9453" fill="#000000" rx="3" ry="3" style="stroke:#000000;stroke-width:1;"/></g><text fill="#000000" font-family="sans-serif" font-size="14" lengthAdjust="spacing" textLength="88.751" x="587.5" y="455.292">id : INT &#171;PK&#187;</text><line style="stroke:#181818;stroke-width:1;" x1="568.5" x2="751.8184" y1="462.5938" y2="462.5938"/><g data-visibility-modifier="IE_MANDATORY"><ellipse cx="578.5" cy="476.2422" fill="#000000" rx="3" ry="3" style="stroke:#000000;stroke-width:1;"/></g><text fill="#000000" font-family="sans-serif" font-size="14" lengthAdjust="spacing" textLength="159.3184" x="587.5" y="479.5889">pregunta_id : INT &#171;FK&#187;</text></g><!--link usuarios to grados--><g class="link" data-entity-1="ent0002" data-entity-2="ent0003" data-link-type="crowfoot" data-source-line="53" id="lnk10"><path codeLine="53" d="M281,74.28 C281,92.02 281,88.71 281,107.71" fill="none" id="usuarios-grados" style="stroke:#181818;stroke-width:1;"/><line style="stroke:#181818;stroke-width:1;" x1="277" x2="285" y1="70.28" y2="70.28"/><line style="stroke:#181818;stroke-width:1;" x1="277" x2="285" y1="73.28" y2="73.28"/><line style="stroke:#181818;stroke-width:1;" x1="281" x2="281" y1="74.28" y2="66.28"/><line style="stroke:#181818;stroke-width:1;" x1="281" x2="287" y1="117.71" y2="125.71"/><line style="stroke:#181818;stroke-width:1;" x1="281" x2="275" y1="117.71" y2="125.71"/><line style="stroke:#181818;stroke-width:1;" x1="281" x2="281" y1="117.71" y2="125.71"/><ellipse cx="281" cy="111.71" fill="none" rx="4" ry="4" style="stroke:#181818;stroke-width:1;"/><text fill="#000000" font-family="sans-serif" font-size="13" lengthAdjust="spacing" textLength="71.0493" x="209" y="92.0569">docente_id</text></g><!--link usuarios to alumnos--><g class="link" data-entity-1="ent0002" data-entity-2="ent0004" data-link-type="crowfoot" data-source-line="54" id="lnk11"><path codeLine="54" d="M215.48,37 C161.17,37 96,37 96,37 C96,37 96,165.89 96,242.78" fill="none" id="usuarios-alumnos" style="stroke:#181818;stroke-width:1;"/><line style="stroke:#181818;stroke-width:1;" x1="219.48" x2="219.48" y1="33" y2="41"/><line style="stroke:#181818;stroke-width:1;" x1="216.48" x2="216.48" y1="33" y2="41"/><line style="stroke:#181818;stroke-width:1;" x1="215.48" x2="223.48" y1="37" y2="37"/><line style="stroke:#181818;stroke-width:1;" x1="96" x2="102" y1="252.78" y2="260.78"/><line style="stroke:#181818;stroke-width:1;" x1="96" x2="90" y1="252.78" y2="260.78"/><line style="stroke:#181818;stroke-width:1;" x1="96" x2="96" y1="252.78" y2="260.78"/><ellipse cx="96" cy="246.78" fill="none" rx="4" ry="4" style="stroke:#181818;stroke-width:1;"/><text fill="#000000" font-family="sans-serif" font-size="13" lengthAdjust="spacing" textLength="71.0493" x="24" y="81.2169">docente_id</text></g><!--link grados to alumnos--><g class="link" data-entity-1="ent0003" data-entity-2="ent0004" data-link-type="crowfoot" data-source-line="55" id="lnk12"><path codeLine="55" d="M206.25,209.01 C206.25,237.92 206.25,265 206.25,265 C206.25,265 215.65,265 203.25,265" fill="none" id="grados-alumnos" style="stroke:#181818;stroke-width:1;"/><line style="stroke:#181818;stroke-width:1;" x1="202.25" x2="210.25" y1="205.01" y2="205.01"/><line style="stroke:#181818;stroke-width:1;" x1="202.25" x2="210.25" y1="208.01" y2="208.01"/><line style="stroke:#181818;stroke-width:1;" x1="206.25" x2="206.25" y1="209.01" y2="201.01"/><line style="stroke:#181818;stroke-width:1;" x1="193.25" x2="185.25" y1="265" y2="271"/><line style="stroke:#181818;stroke-width:1;" x1="193.25" x2="185.25" y1="265" y2="259"/><line style="stroke:#181818;stroke-width:1;" x1="193.25" x2="185.25" y1="265" y2="265"/><ellipse cx="199.25" cy="265" fill="none" rx="4" ry="4" style="stroke:#181818;stroke-width:1;"/><text fill="#000000" font-family="sans-serif" font-size="13" lengthAdjust="spacing" textLength="56.1323" x="149.25" y="239.5669">grado_id</text></g><!--link usuarios to asignaturas--><g class="link" data-entity-1="ent0002" data-entity-2="ent0005" data-link-type="crowfoot" data-source-line="57" id="lnk13"><path codeLine="57" d="M346.52,37 C411.7,37 501,37 501,37 C501,37 501,70.6 501,107.89" fill="none" id="usuarios-asignaturas" style="stroke:#181818;stroke-width:1;"/><line style="stroke:#181818;stroke-width:1;" x1="342.52" x2="342.52" y1="41" y2="33"/><line style="stroke:#181818;stroke-width:1;" x1="345.52" x2="345.52" y1="41" y2="33"/><line style="stroke:#181818;stroke-width:1;" x1="346.52" x2="338.52" y1="37" y2="37"/><line style="stroke:#181818;stroke-width:1;" x1="501" x2="507" y1="117.89" y2="125.89"/><line style="stroke:#181818;stroke-width:1;" x1="501" x2="495" y1="117.89" y2="125.89"/><line style="stroke:#181818;stroke-width:1;" x1="501" x2="501" y1="117.89" y2="125.89"/><ellipse cx="501" cy="111.89" fill="none" rx="4" ry="4" style="stroke:#181818;stroke-width:1;"/><text fill="#000000" font-family="sans-serif" font-size="13" lengthAdjust="spacing" textLength="71.0493" x="392.2" y="33.0669">docente_id</text></g><!--link alumnos to alumnos_asignaturas--><g class="link" data-entity-1="ent0004" data-entity-2="ent0006" data-link-type="crowfoot" data-source-line="60" id="lnk14"><path codeLine="60" d="M161.75,360.14 C161.75,379.43 161.75,375.62 161.75,393.94" fill="none" id="alumnos-alumnos_asignaturas" style="stroke:#181818;stroke-width:1;"/><line style="stroke:#181818;stroke-width:1;" x1="157.75" x2="165.75" y1="356.14" y2="356.14"/><line style="stroke:#181818;stroke-width:1;" x1="157.75" x2="165.75" y1="359.14" y2="359.14"/><line style="stroke:#181818;stroke-width:1;" x1="161.75" x2="161.75" y1="360.14" y2="352.14"/><line style="stroke:#181818;stroke-width:1;" x1="161.75" x2="167.75" y1="403.94" y2="411.94"/><line style="stroke:#181818;stroke-width:1;" x1="161.75" x2="155.75" y1="403.94" y2="411.94"/><line style="stroke:#181818;stroke-width:1;" x1="161.75" x2="161.75" y1="403.94" y2="411.94"/><ellipse cx="161.75" cy="397.94" fill="none" rx="4" ry="4" style="stroke:#181818;stroke-width:1;"/><text fill="#000000" font-family="sans-serif" font-size="13" lengthAdjust="spacing" textLength="4.1323" x="156.75" y="378.1069">&#160;</text></g><!--link asignaturas to alumnos_asignaturas--><g class="link" data-entity-1="ent0005" data-entity-2="ent0006" data-link-type="crowfoot" data-source-line="61" id="lnk15"><path codeLine="61" d="M508.75,209.25 C508.75,287.05 508.75,450 508.75,450 C508.75,450 457.76,450 391.87,450" fill="none" id="asignaturas-alumnos_asignaturas" style="stroke:#181818;stroke-width:1;"/><line style="stroke:#181818;stroke-width:1;" x1="504.75" x2="512.75" y1="205.25" y2="205.25"/><line style="stroke:#181818;stroke-width:1;" x1="504.75" x2="512.75" y1="208.25" y2="208.25"/><line style="stroke:#181818;stroke-width:1;" x1="508.75" x2="508.75" y1="209.25" y2="201.25"/><line style="stroke:#181818;stroke-width:1;" x1="381.87" x2="373.87" y1="450" y2="456"/><line style="stroke:#181818;stroke-width:1;" x1="381.87" x2="373.87" y1="450" y2="444"/><line style="stroke:#181818;stroke-width:1;" x1="381.87" x2="373.87" y1="450" y2="450"/><ellipse cx="387.87" cy="450" fill="none" rx="4" ry="4" style="stroke:#181818;stroke-width:1;"/><text fill="#000000" font-family="sans-serif" font-size="13" lengthAdjust="spacing" textLength="4.1323" x="503.75" y="389.1369">&#160;</text></g><!--link asignaturas to asignatura_grado--><g class="link" data-entity-1="ent0005" data-entity-2="ent0007" data-link-type="crowfoot" data-source-line="64" id="lnk16"><path codeLine="64" d="M433.75,209.07 C433.75,229.92 433.75,229.79 433.75,250.68" fill="none" id="asignaturas-asignatura_grado" style="stroke:#181818;stroke-width:1;"/><line style="stroke:#181818;stroke-width:1;" x1="429.75" x2="437.75" y1="205.07" y2="205.07"/><line style="stroke:#181818;stroke-width:1;" x1="429.75" x2="437.75" y1="208.07" y2="208.07"/><line style="stroke:#181818;stroke-width:1;" x1="433.75" x2="433.75" y1="209.07" y2="201.07"/><line style="stroke:#181818;stroke-width:1;" x1="433.75" x2="439.75" y1="260.68" y2="268.68"/><line style="stroke:#181818;stroke-width:1;" x1="433.75" x2="427.75" y1="260.68" y2="268.68"/><line style="stroke:#181818;stroke-width:1;" x1="433.75" x2="433.75" y1="260.68" y2="268.68"/><ellipse cx="433.75" cy="254.68" fill="none" rx="4" ry="4" style="stroke:#181818;stroke-width:1;"/><text fill="#000000" font-family="sans-serif" font-size="13" lengthAdjust="spacing" textLength="4.1323" x="428.75" y="230.9469">&#160;</text></g><!--link grados to asignatura_grado--><g class="link" data-entity-1="ent0003" data-entity-2="ent0007" data-link-type="crowfoot" data-source-line="65" id="lnk17"><path codeLine="65" d="M295.25,209.07 C295.25,229.92 295.25,229.79 295.25,250.68" fill="none" id="grados-asignatura_grado" style="stroke:#181818;stroke-width:1;"/><line style="stroke:#181818;stroke-width:1;" x1="291.25" x2="299.25" y1="205.07" y2="205.07"/><line style="stroke:#181818;stroke-width:1;" x1="291.25" x2="299.25" y1="208.07" y2="208.07"/><line style="stroke:#181818;stroke-width:1;" x1="295.25" x2="295.25" y1="209.07" y2="201.07"/><line style="stroke:#181818;stroke-width:1;" x1="295.25" x2="301.25" y1="260.68" y2="268.68"/><line style="stroke:#181818;stroke-width:1;" x1="295.25" x2="289.25" y1="260.68" y2="268.68"/><line style="stroke:#181818;stroke-width:1;" x1="295.25" x2="295.25" y1="260.68" y2="268.68"/><ellipse cx="295.25" cy="254.68" fill="none" rx="4" ry="4" style="stroke:#181818;stroke-width:1;"/><text fill="#000000" font-family="sans-serif" font-size="13" lengthAdjust="spacing" textLength="4.1323" x="290.25" y="230.9469">&#160;</text></g><!--link asignaturas to preguntas--><g class="link" data-entity-1="ent0005" data-entity-2="ent0008" data-link-type="crowfoot" data-source-line="67" id="lnk18"><path codeLine="67" d="M576,209.07 C576,229.92 576,229.79 576,250.68" fill="none" id="asignaturas-preguntas" style="stroke:#181818;stroke-width:1;"/><line style="stroke:#181818;stroke-width:1;" x1="572" x2="580" y1="205.07" y2="205.07"/><line style="stroke:#181818;stroke-width:1;" x1="572" x2="580" y1="208.07" y2="208.07"/><line style="stroke:#181818;stroke-width:1;" x1="576" x2="576" y1="209.07" y2="201.07"/><line style="stroke:#181818;stroke-width:1;" x1="576" x2="582" y1="260.68" y2="268.68"/><line style="stroke:#181818;stroke-width:1;" x1="576" x2="570" y1="260.68" y2="268.68"/><line style="stroke:#181818;stroke-width:1;" x1="576" x2="576" y1="260.68" y2="268.68"/><ellipse cx="576" cy="254.68" fill="none" rx="4" ry="4" style="stroke:#181818;stroke-width:1;"/><text fill="#000000" font-family="sans-serif" font-size="13" lengthAdjust="spacing" textLength="87.8198" x="488" y="230.9469">asignatura_id</text></g><!--link preguntas to respuestas--><g class="link" data-entity-1="ent0008" data-entity-2="ent0009" data-link-type="crowfoot" data-source-line="68" id="lnk19"><path codeLine="68" d="M660,352.07 C660,372.92 660,372.79 660,393.68" fill="none" id="preguntas-respuestas" style="stroke:#181818;stroke-width:1;"/><line style="stroke:#181818;stroke-width:1;" x1="656" x2="664" y1="348.07" y2="348.07"/><line style="stroke:#181818;stroke-width:1;" x1="656" x2="664" y1="351.07" y2="351.07"/><line style="stroke:#181818;stroke-width:1;" x1="660" x2="660" y1="352.07" y2="344.07"/><line style="stroke:#181818;stroke-width:1;" x1="660" x2="666" y1="403.68" y2="411.68"/><line style="stroke:#181818;stroke-width:1;" x1="660" x2="654" y1="403.68" y2="411.68"/><line style="stroke:#181818;stroke-width:1;" x1="660" x2="660" y1="403.68" y2="411.68"/><ellipse cx="660" cy="397.68" fill="none" rx="4" ry="4" style="stroke:#181818;stroke-width:1;"/><text fill="#000000" font-family="sans-serif" font-size="13" lengthAdjust="spacing" textLength="77.7524" x="582" y="373.9469">pregunta_id</text></g><?plantuml-src fLDBReCm4Dtx52CsIIfn0HH5YjAFggfH5MMFfk0Igs2GWKXHqbFr2BrO3TWnCKvHsqs2FJDlthnvdi0gvsyigGL6xEkJmvwLDQPGeC3cXqPKGCqXPfW8p13kDhTans8A4HDHIadvpdYJd47AEAqE1OLSLBkS4CehLXt0goMWO7df0PQW3t0a03V0OWZWSRs5-VpbQR4W7wPCjejLKVTvfGJ0zzj0d4UobeQzX7iB4zCwumfKVVyLjOcrl7xiLxA4OoN5LJtD-H_JJ62Bhoa2at6HKRcQRbtoIj1KxV4P-S6lSh_vX-bI3Ul3qb2OsRg40xx3UyMxYuGM_RuufkPQLZlAkgPxXEhN0_KO-V3G6cJcq3riTsI9trtgIKPvEbTj3Q8x5u8cDQ-KVkVJsBRT96nmGSkYfgL6DySnUCt3xQPDgt7EQGdJ5OgOSKnPZ36LYfxVw-da-_bHFyK0F6DGRv2btvQLfeg7ILfTZmoXUeksuCxKRNi4uFGxqHql2OHM2u_qByPopnQ-IiNXL6S7svujl2MPCyU5PfmNN3o7HZSJKyaz8mN6matkDm00?></g></svg>