<svg xmlns="http://www.w3.org/2000/svg" xmlns:xlink="http://www.w3.org/1999/xlink" contentStyleType="text/css" data-diagram-type="DESCRIPTION" height="426px" preserveAspectRatio="none" style="width:2173px;height:426px;background:#FFFFFF;" version="1.1" viewBox="0 0 2173 426" width="2173px" zoomAndPan="magnify"><defs/><g><!--cluster importarConfiguracionGlobal--><g class="cluster" data-entity="importarConfiguracionGlobal" data-source-line="4" data-uid="ent0003" id="cluster_importarConfiguracionGlobal"><path d="M8.5,106 L251.2188,106 A3.75,3.75 0 0 1 253.7188,108.5 L260.7188,128.2969 L1046.5,128.2969 A2.5,2.5 0 0 1 1049,130.7969 L1049,416.5 A2.5,2.5 0 0 1 1046.5,419 L8.5,419 A2.5,2.5 0 0 1 6,416.5 L6,108.5 A2.5,2.5 0 0 1 8.5,106" fill="none" style="stroke:#000000;stroke-width:1.5;"/><line style="stroke:#000000;stroke-width:1.5;" x1="6" x2="260.7188" y1="128.2969" y2="128.2969"/><text fill="#000000" font-family="sans-serif" font-size="14" font-weight="bold" lengthAdjust="spacing" textLength="241.7188" x="10" y="120.9951">importarConfiguracionGlobal()</text></g><!--entity ImportarConfiguracionGlobalView--><g class="entity" data-entity="ImportarConfiguracionGlobalView" data-source-line="5" data-uid="ent0004" id="entity_ImportarConfiguracionGlobalView"><rect fill="#629EF9" height="36.2969" rx="2.5" ry="2.5" style="stroke:#181818;stroke-width:0.5;" width="256.1406" x="777" y="141"/><text fill="#000000" font-family="sans-serif" font-size="14" lengthAdjust="spacing" textLength="236.1406" x="787" y="163.9951">ImportarConfiguracionGlobalView</text></g><!--entity ImportarConfiguracionGlobalController--><g class="entity" data-entity="ImportarConfiguracionGlobalController" data-source-line="6" data-uid="ent0005" id="entity_ImportarConfiguracionGlobalController"><rect fill="#B5BD68" height="36.2969" rx="2.5" ry="2.5" style="stroke:#181818;stroke-width:0.5;" width="291.7832" x="417" y="254"/><text fill="#000000" font-family="sans-serif" font-size="14" lengthAdjust="spacing" textLength="271.7832" x="427" y="276.9951">ImportarConfiguracionGlobalController</text></g><!--entity GradoRepository--><g class="entity" data-entity="GradoRepository" data-source-line="7" data-uid="ent0006" id="entity_GradoRepository"><rect fill="#F2AC4E" height="36.2969" rx="2.5" ry="2.5" style="stroke:#181818;stroke-width:0.5;" width="137.708" x="22" y="367"/><text fill="#000000" font-family="sans-serif" font-size="14" lengthAdjust="spacing" textLength="117.708" x="32" y="389.9951">GradoRepository</text></g><!--entity AsignaturaRepository--><g class="entity" data-entity="AsignaturaRepository" data-source-line="8" data-uid="ent0007" id="entity_AsignaturaRepository"><rect fill="#F2AC4E" height="36.2969" rx="2.5" ry="2.5" style="stroke:#181818;stroke-width:0.5;" width="170.8691" x="195.5" y="367"/><text fill="#000000" font-family="sans-serif" font-size="14" lengthAdjust="spacing" textLength="150.8691" x="205.5" y="389.9951">AsignaturaRepository</text></g><!--entity AlumnoRepository--><g class="entity" data-entity="AlumnoRepository" data-source-line="9" data-uid="ent0008" id="entity_AlumnoRepository"><rect fill="#F2AC4E" height="36.2969" rx="2.5" ry="2.5" style="stroke:#181818;stroke-width:0.5;" width="148.4883" x="489" y="367"/><text fill="#000000" font-family="sans-serif" font-size="14" lengthAdjust="spacing" textLength="128.4883" x="499" y="389.9951">AlumnoRepository</text></g><!--entity PreguntaRepository--><g class="entity" data-entity="PreguntaRepository" data-source-line="10" data-uid="ent0009" id="entity_PreguntaRepository"><rect fill="#F2AC4E" height="36.2969" rx="2.5" ry="2.5" style="stroke:#181818;stroke-width:0.5;" width="158.585" x="728.5" y="367"/><text fill="#000000" font-family="sans-serif" font-size="14" lengthAdjust="spacing" textLength="138.585" x="738.5" y="389.9951">PreguntaRepository</text></g><!--entity SistemaDisponible--><g class="entity" data-entity="SistemaDisponible" data-source-line="3" data-uid="ent0002" id="entity_SistemaDisponible"><rect fill="#CDEBA5" height="36.2969" rx="2.5" ry="2.5" style="stroke:#181818;stroke-width:0.5;" width="159.125" x="825.5" y="7"/><text fill="#000000" font-family="sans-serif" font-size="14" lengthAdjust="spacing" textLength="139.125" x="835.5" y="29.9951">:Sistema Disponible</text></g><!--entity ImportarGrados--><g class="entity" data-entity="ImportarGrados" data-source-line="13" data-uid="ent0010" id="entity_ImportarGrados"><rect fill="#CDEBA5" height="36.2969" rx="2.5" ry="2.5" style="stroke:#181818;stroke-width:0.5;" width="233.1992" x="1064.5" y="254"/><text fill="#000000" font-family="sans-serif" font-size="14" lengthAdjust="spacing" textLength="213.1992" x="1074.5" y="276.9951">:Collaboration ImportarGrados</text></g><!--entity ImportarAsignaturas--><g class="entity" data-entity="ImportarAsignaturas" data-source-line="14" data-uid="ent0011" id="entity_ImportarAsignaturas"><rect fill="#CDEBA5" height="36.2969" rx="2.5" ry="2.5" style="stroke:#181818;stroke-width:0.5;" width="266.3604" x="1333" y="254"/><text fill="#000000" font-family="sans-serif" font-size="14" lengthAdjust="spacing" textLength="246.3604" x="1343" y="276.9951">:Collaboration ImportarAsignaturas</text></g><!--entity ImportarAlumnos--><g class="entity" data-entity="ImportarAlumnos" data-source-line="15" data-uid="ent0012" id="entity_ImportarAlumnos"><rect fill="#CDEBA5" height="36.2969" rx="2.5" ry="2.5" style="stroke:#181818;stroke-width:0.5;" width="243.9795" x="1634" y="254"/><text fill="#000000" font-family="sans-serif" font-size="14" lengthAdjust="spacing" textLength="223.9795" x="1644" y="276.9951">:Collaboration ImportarAlumnos</text></g><!--entity ImportarPreguntas--><g class="entity" data-entity="ImportarPreguntas" data-source-line="16" data-uid="ent0013" id="entity_ImportarPreguntas"><rect fill="#CDEBA5" height="36.2969" rx="2.5" ry="2.5" style="stroke:#181818;stroke-width:0.5;" width="254.0762" x="1913" y="254"/><text fill="#000000" font-family="sans-serif" font-size="14" lengthAdjust="spacing" textLength="234.0762" x="1923" y="276.9951">:Collaboration ImportarPreguntas</text></g><!--link SistemaDisponible to ImportarConfiguracionGlobalView--><g class="link" data-entity-1="SistemaDisponible" data-entity-2="ImportarConfiguracionGlobalView" data-source-line="18" data-uid="lnk14" id="link_SistemaDisponible_ImportarConfiguracionGlobalView"><path d="M853.33,43.1 C812.73,56.54 763,73 763,73 C763,73 763,90 763,90 C763,90 821.6882,118.1092 863.7582,138.2492" fill="none" id="SistemaDisponible-to-ImportarConfiguracionGlobalView" style="stroke:#181818;stroke-width:1;"/><polygon fill="#181818" points="869.17,140.84,862.7794,133.3459,864.6601,138.681,859.3251,140.5617,869.17,140.84" style="stroke:#181818;stroke-width:1;"/><text fill="#000000" font-family="sans-serif" font-size="13" lengthAdjust="spacing" textLength="237.8403" x="764" y="86.0669">importarConfiguracionGlobal(config)</text></g><!--reverse link SistemaDisponible to ImportarConfiguracionGlobalView--><g class="link" data-entity-1="SistemaDisponible" data-entity-2="ImportarConfiguracionGlobalView" data-source-line="32" data-uid="lnk25" id="link_SistemaDisponible_ImportarConfiguracionGlobalView"><path d="M947.1898,45.6315 C976.0698,59.0715 1006,73 1006,73 C1006,73 1006,90 1006,90 C1006,90 960.41,120.7 930.49,140.84" fill="none" id="SistemaDisponible-backto-ImportarConfiguracionGlobalView" style="stroke:#181818;stroke-width:1;"/><polygon fill="#181818" points="941.75,43.1,948.222,50.5238,946.2832,45.2096,951.5974,43.2708,941.75,43.1" style="stroke:#181818;stroke-width:1;"/><text fill="#000000" font-family="sans-serif" font-size="13" lengthAdjust="spacing" textLength="193.7241" x="1007" y="86.0669">cancelarImportacion() / salir()</text></g><!--link ImportarConfiguracionGlobalView to ImportarConfiguracionGlobalController--><g class="link" data-entity-1="ImportarConfiguracionGlobalView" data-entity-2="ImportarConfiguracionGlobalController" data-source-line="20" data-uid="lnk15" id="link_ImportarConfiguracionGlobalView_ImportarConfiguracionGlobalController"><path d="M852.31,177.1 C787.95,197.99 685.4368,231.2575 621.1768,252.1175" fill="none" id="ImportarConfiguracionGlobalView-to-ImportarConfiguracionGlobalController" style="stroke:#181818;stroke-width:1;"/><polygon fill="#181818" points="615.47,253.97,625.2653,254.9957,620.2257,252.4262,622.7952,247.3866,615.47,253.97" style="stroke:#181818;stroke-width:1;"/><text fill="#000000" font-family="sans-serif" font-size="13" lengthAdjust="spacing" textLength="167.521" x="755" y="220.0669">iniciarImportacion(config)</text></g><!--link ImportarConfiguracionGlobalController to AlumnoRepository--><g class="link" data-entity-1="ImportarConfiguracionGlobalController" data-entity-2="AlumnoRepository" data-source-line="22" data-uid="lnk16" id="link_ImportarConfiguracionGlobalController_AlumnoRepository"><path d="M561.9,290.23 C561.04,303.65 560,320 560,320 C560,320 560,337 560,337 C560,337 560.6563,347.3623 561.5163,360.7823" fill="none" id="ImportarConfiguracionGlobalController-to-AlumnoRepository" style="stroke:#181818;stroke-width:1;"/><polygon fill="#181818" points="561.9,366.77,565.3162,357.5326,561.5802,361.7802,557.3326,358.0442,561.9,366.77" style="stroke:#181818;stroke-width:1;"/><text fill="#000000" font-family="sans-serif" font-size="13" lengthAdjust="spacing" textLength="203.4995" x="561" y="333.0669">a&#241;adirAlumnos(alumnos) : void</text></g><!--link ImportarConfiguracionGlobalController to GradoRepository--><g class="link" data-entity-1="ImportarConfiguracionGlobalController" data-entity-2="GradoRepository" data-source-line="23" data-uid="lnk17" id="link_ImportarConfiguracionGlobalController_GradoRepository"><path d="M416.86,288.16 C284.47,301.9 110,320 110,320 C110,320 103.4279,342.1382 97.7979,361.0982" fill="none" id="ImportarConfiguracionGlobalController-to-GradoRepository" style="stroke:#181818;stroke-width:1;"/><polygon fill="#181818" points="96.09,366.85,102.4864,359.361,97.5133,362.0569,94.8174,357.0837,96.09,366.85" style="stroke:#181818;stroke-width:1;"/><text fill="#000000" font-family="sans-serif" font-size="13" lengthAdjust="spacing" textLength="182.584" x="111" y="333.0669">a&#241;adirGrados(grados) : void</text></g><!--link ImportarConfiguracionGlobalController to AsignaturaRepository--><g class="link" data-entity-1="ImportarConfiguracionGlobalController" data-entity-2="AsignaturaRepository" data-source-line="24" data-uid="lnk18" id="link_ImportarConfiguracionGlobalController_AsignaturaRepository"><path d="M471.3,290.03 C398.9,303.49 310,320 310,320 C310,320 299.8361,342.4247 291.2461,361.3847" fill="none" id="ImportarConfiguracionGlobalController-to-AsignaturaRepository" style="stroke:#181818;stroke-width:1;"/><polygon fill="#181818" points="288.77,366.85,296.1276,360.3028,290.8334,362.2956,288.8406,357.0014,288.77,366.85" style="stroke:#181818;stroke-width:1;"/><text fill="#000000" font-family="sans-serif" font-size="13" lengthAdjust="spacing" textLength="240.9316" x="311" y="333.0669">a&#241;adirAsignaturas(asignaturas) :void</text></g><!--link ImportarConfiguracionGlobalController to PreguntaRepository--><g class="link" data-entity-1="ImportarConfiguracionGlobalController" data-entity-2="PreguntaRepository" data-source-line="25" data-uid="lnk19" id="link_ImportarConfiguracionGlobalController_PreguntaRepository"><path d="M637.66,290.03 C696.62,303.49 769,320 769,320 C769,320 782.8785,342.7659 794.4285,361.7259" fill="none" id="ImportarConfiguracionGlobalController-to-PreguntaRepository" style="stroke:#181818;stroke-width:1;"/><polygon fill="#181818" points="797.55,366.85,796.2838,357.0829,794.9488,362.5799,789.4517,361.2448,797.55,366.85" style="stroke:#181818;stroke-width:1;"/><text fill="#000000" font-family="sans-serif" font-size="13" lengthAdjust="spacing" textLength="223.5898" x="779" y="333.0669">a&#241;adirPreguntas(preguntas) : void</text></g><!--link ImportarConfiguracionGlobalView to ImportarGrados--><g class="link" data-entity-1="ImportarConfiguracionGlobalView" data-entity-2="ImportarGrados" data-source-line="27" data-uid="lnk20" id="link_ImportarConfiguracionGlobalView_ImportarGrados"><path d="M947.52,177.1 C999.39,197.96 1080.9734,230.7711 1132.8634,251.6411" fill="none" id="ImportarConfiguracionGlobalView-to-ImportarGrados" style="stroke:#181818;stroke-width:1;stroke-dasharray:7,7;"/><polygon fill="#181818" points="1138.43,253.88,1131.5726,246.8106,1133.7911,252.0143,1128.5875,254.2328,1138.43,253.88" style="stroke:#181818;stroke-width:1;"/><text fill="#000000" font-family="sans-serif" font-size="13" lengthAdjust="spacing" textLength="112.7407" x="1060" y="220.0669">importarGrados()</text></g><!--link ImportarConfiguracionGlobalView to ImportarAsignaturas--><g class="link" data-entity-1="ImportarConfiguracionGlobalView" data-entity-2="ImportarAsignaturas" data-source-line="28" data-uid="lnk21" id="link_ImportarConfiguracionGlobalView_ImportarAsignaturas"><path d="M1005.03,177.03 C1084.02,190.49 1181,207 1181,207 C1181,207 1299.7158,233.6554 1384.1458,252.6154" fill="none" id="ImportarConfiguracionGlobalView-to-ImportarAsignaturas" style="stroke:#181818;stroke-width:1;stroke-dasharray:7,7;"/><polygon fill="#181818" points="1390,253.93,1382.0951,248.0552,1385.1215,252.8345,1380.3423,255.8608,1390,253.93" style="stroke:#181818;stroke-width:1;"/><text fill="#000000" font-family="sans-serif" font-size="13" lengthAdjust="spacing" textLength="143.5332" x="1250" y="220.0669">importarAsignaturas()</text></g><!--link ImportarConfiguracionGlobalView to ImportarAlumnos--><g class="link" data-entity-1="ImportarConfiguracionGlobalView" data-entity-2="ImportarAlumnos" data-source-line="29" data-uid="lnk22" id="link_ImportarConfiguracionGlobalView_ImportarAlumnos"><path d="M1033.31,172.13 C1180.57,186.06 1402,207 1402,207 C1402,207 1550.8257,233.9025 1655.6957,252.8625" fill="none" id="ImportarConfiguracionGlobalView-to-ImportarAlumnos" style="stroke:#181818;stroke-width:1;stroke-dasharray:7,7;"/><polygon fill="#181818" points="1661.6,253.93,1653.4552,248.3926,1656.6798,253.0404,1652.0319,256.265,1661.6,253.93" style="stroke:#181818;stroke-width:1;"/><text fill="#000000" font-family="sans-serif" font-size="13" lengthAdjust="spacing" textLength="122.751" x="1488" y="220.0669">importarAlumnos()</text></g><!--link ImportarConfiguracionGlobalView to ImportarPreguntas--><g class="link" data-entity-1="ImportarConfiguracionGlobalView" data-entity-2="ImportarPreguntas" data-source-line="30" data-uid="lnk23" id="link_ImportarConfiguracionGlobalView_ImportarPreguntas"><path d="M1033.06,168.43 C1238.53,181.96 1619,207 1619,207 C1619,207 1797.3582,234.1182 1922.0782,253.0782" fill="none" id="ImportarConfiguracionGlobalView-to-ImportarPreguntas" style="stroke:#181818;stroke-width:1;stroke-dasharray:7,7;"/><polygon fill="#181818" points="1928.01,253.98,1919.7134,248.6728,1923.0668,253.2285,1918.5111,256.5819,1928.01,253.98" style="stroke:#181818;stroke-width:1;"/><text fill="#000000" font-family="sans-serif" font-size="13" lengthAdjust="spacing" textLength="132.1265" x="1721" y="220.0669">importarPreguntas()</text></g><!--SRC=[dPDBRi8m48RtESKetIGBg8GAQbaWKLxghcgbxYU96raOsx9DArJrK3r3BrOJ80u14jnid4mytxp-qKlA9IfS0QESc8qa80NRR3-2G97K8CyPWPl9TFOuxaCuVANQa1N2b6efE4qO2G4rxCtE6aXCbvWJe2ifb44r4VoTvck5AHLymKI2REiODloFuX2-0h1F9PD1xs4sVu2dosvlb7pMlP9-aWtkcxoioIZ1655rttblFBcRmK9X9bw859eQeJONReqrpJaQYsw_ojOhtavyLYHVSrFbVP-VpSIcZubGQ6nLPQr5thgOqh79W-6gEWPLx3wqel0QQMVpe1pwSimfhK5meadegCweJJamR99ib1QsE0ZQC9siEPRJcmt8QKfHxMzlxrmLno6WOuFLzJG4_Ft1Z1vw6-7kZ6s97u9c7kYQzaloJaXHNXp_u9xR5fUs4rU4xjs6yOnoka5bZ58kaJoybMMqZhZR7TLMocbdtvdO2rAfs96gRV34xUPTGUs5u8SfU-H0hctNRCBQpk1a6OUG8ay9EvPz3BUWaL4LnNy0]--></g></svg>