<?plantuml 1.2026.2?><svg xmlns="http://www.w3.org/2000/svg" xmlns:xlink="http://www.w3.org/1999/xlink" contentStyleType="text/css" data-diagram-type="DESCRIPTION" height="426px" preserveAspectRatio="none" style="width:2750px;height:426px;background:#FFFFFF;" version="1.1" viewBox="0 0 2750 426" width="2750px" zoomAndPan="magnify"><defs/><g><!--cluster importarConfiguracionGlobal--><g class="cluster" data-qualified-name="importarConfiguracionGlobal" data-source-line="4" id="ent0003"><path d="M8.5,106 L251.2188,106 A3.75,3.75 0 0 1 253.7188,108.5 L260.7188,128.2969 L1325.5,128.2969 A2.5,2.5 0 0 1 1328,130.7969 L1328,416.5 A2.5,2.5 0 0 1 1325.5,419 L8.5,419 A2.5,2.5 0 0 1 6,416.5 L6,108.5 A2.5,2.5 0 0 1 8.5,106" fill="none" style="stroke:#000000;stroke-width:1.5;"/><line style="stroke:#000000;stroke-width:1.5;" x1="6" x2="260.7188" y1="128.2969" y2="128.2969"/><text fill="#000000" font-family="sans-serif" font-size="14" font-weight="bold" lengthAdjust="spacing" textLength="241.7188" x="10" y="120.9951">importarConfiguracionGlobal()</text></g><!--entity ImportarConfiguracionGlobalView--><g class="entity" data-qualified-name="importarConfiguracionGlobal.ImportarConfiguracionGlobalView" data-source-line="5" id="ent0004"><rect fill="#629EF9" height="36.2969" rx="2.5" ry="2.5" style="stroke:#181818;stroke-width:0.5;" width="256.1406" x="1056" y="141"/><text fill="#000000" font-family="sans-serif" font-size="14" lengthAdjust="spacing" textLength="236.1406" x="1066" y="163.9951">ImportarConfiguracionGlobalView</text></g><!--entity ConfiguracionController--><g class="entity" data-qualified-name="importarConfiguracionGlobal.ConfiguracionController" data-source-line="6" id="ent0005"><rect fill="#B5BD68" height="36.2969" rx="2.5" ry="2.5" style="stroke:#181818;stroke-width:0.5;" width="186.3252" x="592" y="254"/><text fill="#000000" font-family="sans-serif" font-size="14" lengthAdjust="spacing" textLength="166.3252" x="602" y="276.9951">ConfiguracionController</text></g><!--entity GradoRepository--><g class="entity" data-qualified-name="importarConfiguracionGlobal.GradoRepository" data-source-line="7" id="ent0006"><rect fill="#F2AC4E" height="36.2969" rx="2.5" ry="2.5" style="stroke:#181818;stroke-width:0.5;" width="137.708" x="22" y="367"/><text fill="#000000" font-family="sans-serif" font-size="14" lengthAdjust="spacing" textLength="117.708" x="32" y="389.9951">GradoRepository</text></g><!--entity AsignaturaRepository--><g class="entity" data-qualified-name="importarConfiguracionGlobal.AsignaturaRepository" data-source-line="8" id="ent0007"><rect fill="#F2AC4E" height="36.2969" rx="2.5" ry="2.5" style="stroke:#181818;stroke-width:0.5;" width="170.8691" x="195.5" y="367"/><text fill="#000000" font-family="sans-serif" font-size="14" lengthAdjust="spacing" textLength="150.8691" x="205.5" y="389.9951">AsignaturaRepository</text></g><!--entity AlumnoRepository--><g class="entity" data-qualified-name="importarConfiguracionGlobal.AlumnoRepository" data-source-line="9" id="ent0008"><rect fill="#F2AC4E" height="36.2969" rx="2.5" ry="2.5" style="stroke:#181818;stroke-width:0.5;" width="148.4883" x="489" y="367"/><text fill="#000000" font-family="sans-serif" font-size="14" lengthAdjust="spacing" textLength="128.4883" x="499" y="389.9951">AlumnoRepository</text></g><!--entity PreguntaRepository--><g class="entity" data-qualified-name="importarConfiguracionGlobal.PreguntaRepository" data-source-line="10" id="ent0009"><rect fill="#F2AC4E" height="36.2969" rx="2.5" ry="2.5" style="stroke:#181818;stroke-width:0.5;" width="158.585" x="728.5" y="367"/><text fill="#000000" font-family="sans-serif" font-size="14" lengthAdjust="spacing" textLength="138.585" x="738.5" y="389.9951">PreguntaRepository</text></g><!--entity RespuestaRepository--><g class="entity" data-qualified-name="importarConfiguracionGlobal.RespuestaRepository" data-source-line="11" id="ent0010"><rect fill="#F2AC4E" height="36.2969" rx="2.5" ry="2.5" style="stroke:#181818;stroke-width:0.5;" width="168.4424" x="989" y="367"/><text fill="#000000" font-family="sans-serif" font-size="14" lengthAdjust="spacing" textLength="148.4424" x="999" y="389.9951">RespuestaRepository</text></g><!--entity SistemaDisponible--><g class="entity" data-qualified-name="SistemaDisponible" data-source-line="3" id="ent0002"><rect fill="#CDEBA5" height="36.2969" rx="2.5" ry="2.5" style="stroke:#181818;stroke-width:0.5;" width="159.125" x="1104.5" y="7"/><text fill="#000000" font-family="sans-serif" font-size="14" lengthAdjust="spacing" textLength="139.125" x="1114.5" y="29.9951">:Sistema Disponible</text></g><!--entity ImportarGrados--><g class="entity" data-qualified-name="ImportarGrados" data-source-line="14" id="ent0011"><rect fill="#CDEBA5" height="36.2969" rx="2.5" ry="2.5" style="stroke:#181818;stroke-width:0.5;" width="233.1992" x="1343.5" y="254"/><text fill="#000000" font-family="sans-serif" font-size="14" lengthAdjust="spacing" textLength="213.1992" x="1353.5" y="276.9951">:Collaboration ImportarGrados</text></g><!--entity ImportarAsignaturas--><g class="entity" data-qualified-name="ImportarAsignaturas" data-source-line="15" id="ent0012"><rect fill="#CDEBA5" height="36.2969" rx="2.5" ry="2.5" style="stroke:#181818;stroke-width:0.5;" width="266.3604" x="1612" y="254"/><text fill="#000000" font-family="sans-serif" font-size="14" lengthAdjust="spacing" textLength="246.3604" x="1622" y="276.9951">:Collaboration ImportarAsignaturas</text></g><!--entity ImportarAlumnos--><g class="entity" data-qualified-name="ImportarAlumnos" data-source-line="16" id="ent0013"><rect fill="#CDEBA5" height="36.2969" rx="2.5" ry="2.5" style="stroke:#181818;stroke-width:0.5;" width="243.9795" x="1913" y="254"/><text fill="#000000" font-family="sans-serif" font-size="14" lengthAdjust="spacing" textLength="223.9795" x="1923" y="276.9951">:Collaboration ImportarAlumnos</text></g><!--entity ImportarPreguntas--><g class="entity" data-qualified-name="ImportarPreguntas" data-source-line="17" id="ent0014"><rect fill="#CDEBA5" height="36.2969" rx="2.5" ry="2.5" style="stroke:#181818;stroke-width:0.5;" width="254.0762" x="2192" y="254"/><text fill="#000000" font-family="sans-serif" font-size="14" lengthAdjust="spacing" textLength="234.0762" x="2202" y="276.9951">:Collaboration ImportarPreguntas</text></g><!--entity ImportarRespuestas--><g class="entity" data-qualified-name="ImportarRespuestas" data-source-line="18" id="ent0015"><rect fill="#CDEBA5" height="36.2969" rx="2.5" ry="2.5" style="stroke:#181818;stroke-width:0.5;" width="263.9336" x="2481" y="254"/><text fill="#000000" font-family="sans-serif" font-size="14" lengthAdjust="spacing" textLength="243.9336" x="2491" y="276.9951">:Collaboration ImportarRespuestas</text></g><!--link SistemaDisponible to ImportarConfiguracionGlobalView--><g class="link" data-entity-1="ent0002" data-entity-2="ent0004" data-link-type="dependency" data-source-line="20" id="lnk16"><path d="M1132.33,43.1 C1091.73,56.54 1042,73 1042,73 C1042,73 1042,90 1042,90 C1042,90 1100.6882,118.1092 1142.7582,138.2492" fill="none" id="SistemaDisponible-to-ImportarConfiguracionGlobalView" style="stroke:#181818;stroke-width:1;"/><polygon fill="#181818" points="1148.17,140.84,1141.7794,133.3459,1143.6601,138.681,1138.3251,140.5617,1148.17,140.84" style="stroke:#181818;stroke-width:1;"/><text fill="#000000" font-family="sans-serif" font-size="13" lengthAdjust="spacing" textLength="237.8403" x="1043" y="86.0669">importarConfiguracionGlobal(config)</text></g><!--reverse link SistemaDisponible to ImportarConfiguracionGlobalView--><g class="link" data-entity-1="ent0002" data-entity-2="ent0004" data-link-type="dependency" data-source-line="36" id="lnk29"><path d="M1226.1898,45.6315 C1255.0698,59.0715 1285,73 1285,73 C1285,73 1285,90 1285,90 C1285,90 1239.41,120.7 1209.49,140.84" fill="none" id="SistemaDisponible-backto-ImportarConfiguracionGlobalView" style="stroke:#181818;stroke-width:1;"/><polygon fill="#181818" points="1220.75,43.1,1227.222,50.5238,1225.2832,45.2096,1230.5974,43.2708,1220.75,43.1" style="stroke:#181818;stroke-width:1;"/><text fill="#000000" font-family="sans-serif" font-size="13" lengthAdjust="spacing" textLength="193.7241" x="1286" y="86.0669">cancelarImportacion() / salir()</text></g><!--link ImportarConfiguracionGlobalView to ConfiguracionController--><g class="link" data-entity-1="ent0004" data-entity-2="ent0005" data-link-type="dependency" data-source-line="22" id="lnk17"><path d="M1107.4,177.04 C1013.55,197.92 861.3669,231.7672 767.4969,252.6472" fill="none" id="ImportarConfiguracionGlobalView-to-ConfiguracionController" style="stroke:#181818;stroke-width:1;"/><polygon fill="#181818" points="761.64,253.95,771.2938,255.9004,766.5207,252.8644,769.5568,248.0913,761.64,253.95" style="stroke:#181818;stroke-width:1;"/><text fill="#000000" font-family="sans-serif" font-size="13" lengthAdjust="spacing" textLength="167.521" x="965" y="220.0669">iniciarImportacion(config)</text></g><!--link ConfiguracionController to AlumnoRepository--><g class="link" data-entity-1="ent0005" data-entity-2="ent0008" data-link-type="dependency" data-source-line="24" id="lnk18"><path d="M639.52,290.1 C603.78,303.54 560,320 560,320 C560,320 560,337 560,337 C560,337 560.6563,347.3623 561.5163,360.7823" fill="none" id="ConfiguracionController-to-AlumnoRepository" style="stroke:#181818;stroke-width:1;"/><polygon fill="#181818" points="561.9,366.77,565.3162,357.5326,561.5802,361.7802,557.3326,358.0442,561.9,366.77" style="stroke:#181818;stroke-width:1;"/><text fill="#000000" font-family="sans-serif" font-size="13" lengthAdjust="spacing" textLength="203.4995" x="561" y="333.0669">a&#241;adirAlumnos(alumnos) : void</text></g><!--link ConfiguracionController to GradoRepository--><g class="link" data-entity-1="ent0005" data-entity-2="ent0006" data-link-type="dependency" data-source-line="25" id="lnk19"><path d="M591.98,280.6 C429.24,293.91 110,320 110,320 C110,320 103.4279,342.1382 97.7979,361.0982" fill="none" id="ConfiguracionController-to-GradoRepository" style="stroke:#181818;stroke-width:1;"/><polygon fill="#181818" points="96.09,366.85,102.4864,359.361,97.5133,362.0569,94.8174,357.0837,96.09,366.85" style="stroke:#181818;stroke-width:1;"/><text fill="#000000" font-family="sans-serif" font-size="13" lengthAdjust="spacing" textLength="182.584" x="111" y="333.0669">a&#241;adirGrados(grados) : void</text></g><!--link ConfiguracionController to AsignaturaRepository--><g class="link" data-entity-1="ent0005" data-entity-2="ent0007" data-link-type="dependency" data-source-line="26" id="lnk20"><path d="M591.82,284.68 C480.76,298.6 310,320 310,320 C310,320 299.8361,342.4247 291.2461,361.3847" fill="none" id="ConfiguracionController-to-AsignaturaRepository" style="stroke:#181818;stroke-width:1;"/><polygon fill="#181818" points="288.77,366.85,296.1276,360.3028,290.8334,362.2956,288.8406,357.0014,288.77,366.85" style="stroke:#181818;stroke-width:1;"/><text fill="#000000" font-family="sans-serif" font-size="13" lengthAdjust="spacing" textLength="240.9316" x="311" y="333.0669">a&#241;adirAsignaturas(asignaturas) :void</text></g><!--link ConfiguracionController to PreguntaRepository--><g class="link" data-entity-1="ent0005" data-entity-2="ent0009" data-link-type="dependency" data-source-line="27" id="lnk21"><path d="M715.8,290.23 C739.78,303.65 769,320 769,320 C769,320 782.8785,342.7659 794.4285,361.7259" fill="none" id="ConfiguracionController-to-PreguntaRepository" style="stroke:#181818;stroke-width:1;"/><polygon fill="#181818" points="797.55,366.85,796.2838,357.0829,794.9488,362.5799,789.4517,361.2448,797.55,366.85" style="stroke:#181818;stroke-width:1;"/><text fill="#000000" font-family="sans-serif" font-size="13" lengthAdjust="spacing" textLength="223.5898" x="779" y="333.0669">a&#241;adirPreguntas(preguntas) : void</text></g><!--link ConfiguracionController to RespuestaRepository--><g class="link" data-entity-1="ent0005" data-entity-2="ent0010" data-link-type="dependency" data-source-line="28" id="lnk22"><path d="M778.42,286.47 C874.75,300.36 1011,320 1011,320 C1011,320 1033.8449,343.5808 1052.2149,362.5408" fill="none" id="ConfiguracionController-to-RespuestaRepository" style="stroke:#181818;stroke-width:1;"/><polygon fill="#181818" points="1056.39,366.85,1053.0002,357.6029,1052.9108,363.259,1047.2546,363.1696,1056.39,366.85" style="stroke:#181818;stroke-width:1;"/><text fill="#000000" font-family="sans-serif" font-size="13" lengthAdjust="spacing" textLength="237.7959" x="1026" y="333.0669">a&#241;adirRespuestas(respuestas) : void</text></g><!--link ImportarConfiguracionGlobalView to ImportarGrados--><g class="link" data-entity-1="ent0004" data-entity-2="ent0011" data-link-type="dependency" data-source-line="30" id="lnk23"><path d="M1226.52,177.1 C1278.39,197.96 1359.9734,230.7711 1411.8634,251.6411" fill="none" id="ImportarConfiguracionGlobalView-to-ImportarGrados" style="stroke:#181818;stroke-width:1;stroke-dasharray:7,7;"/><polygon fill="#181818" points="1417.43,253.88,1410.5726,246.8106,1412.7911,252.0143,1407.5875,254.2328,1417.43,253.88" style="stroke:#181818;stroke-width:1;"/><text fill="#000000" font-family="sans-serif" font-size="13" lengthAdjust="spacing" textLength="112.7407" x="1339" y="220.0669">importarGrados()</text></g><!--link ImportarConfiguracionGlobalView to ImportarAsignaturas--><g class="link" data-entity-1="ent0004" data-entity-2="ent0012" data-link-type="dependency" data-source-line="31" id="lnk24"><path d="M1284.03,177.03 C1363.02,190.49 1460,207 1460,207 C1460,207 1578.7158,233.6554 1663.1458,252.6154" fill="none" id="ImportarConfiguracionGlobalView-to-ImportarAsignaturas" style="stroke:#181818;stroke-width:1;stroke-dasharray:7,7;"/><polygon fill="#181818" points="1669,253.93,1661.0951,248.0552,1664.1215,252.8345,1659.3423,255.8608,1669,253.93" style="stroke:#181818;stroke-width:1;"/><text fill="#000000" font-family="sans-serif" font-size="13" lengthAdjust="spacing" textLength="143.5332" x="1529" y="220.0669">importarAsignaturas()</text></g><!--link ImportarConfiguracionGlobalView to ImportarAlumnos--><g class="link" data-entity-1="ent0004" data-entity-2="ent0013" data-link-type="dependency" data-source-line="32" id="lnk25"><path d="M1312.31,172.13 C1459.57,186.06 1681,207 1681,207 C1681,207 1829.8257,233.9025 1934.6957,252.8625" fill="none" id="ImportarConfiguracionGlobalView-to-ImportarAlumnos" style="stroke:#181818;stroke-width:1;stroke-dasharray:7,7;"/><polygon fill="#181818" points="1940.6,253.93,1932.4552,248.3926,1935.6798,253.0404,1931.0319,256.265,1940.6,253.93" style="stroke:#181818;stroke-width:1;"/><text fill="#000000" font-family="sans-serif" font-size="13" lengthAdjust="spacing" textLength="122.751" x="1767" y="220.0669">importarAlumnos()</text></g><!--link ImportarConfiguracionGlobalView to ImportarPreguntas--><g class="link" data-entity-1="ent0004" data-entity-2="ent0014" data-link-type="dependency" data-source-line="33" id="lnk26"><path d="M1312.06,168.43 C1517.53,181.96 1898,207 1898,207 C1898,207 2076.3582,234.1182 2201.0782,253.0782" fill="none" id="ImportarConfiguracionGlobalView-to-ImportarPreguntas" style="stroke:#181818;stroke-width:1;stroke-dasharray:7,7;"/><polygon fill="#181818" points="2207.01,253.98,2198.7134,248.6728,2202.0668,253.2285,2197.5111,256.5819,2207.01,253.98" style="stroke:#181818;stroke-width:1;"/><text fill="#000000" font-family="sans-serif" font-size="13" lengthAdjust="spacing" textLength="132.1265" x="2000" y="220.0669">importarPreguntas()</text></g><!--link ImportarConfiguracionGlobalView to ImportarRespuestas--><g class="link" data-entity-1="ent0004" data-entity-2="ent0015" data-link-type="dependency" data-source-line="34" id="lnk27"><path d="M1312.07,166.29 C1572.85,179.1 2141,207 2141,207 C2141,207 2341.6644,234.2138 2481.4944,253.1738" fill="none" id="ImportarConfiguracionGlobalView-to-ImportarRespuestas" style="stroke:#181818;stroke-width:1;stroke-dasharray:7,7;"/><polygon fill="#181818" points="2487.44,253.98,2479.0591,248.807,2482.4853,253.3082,2477.9842,256.7345,2487.44,253.98" style="stroke:#181818;stroke-width:1;"/><text fill="#000000" font-family="sans-serif" font-size="13" lengthAdjust="spacing" textLength="141.2798" x="2256" y="220.0669">importarRespuestas()</text></g><?plantuml-src bPDBRi8m48RtESM8Rf85L485jIoGA2zrLr6f-qdYHXR6jcod5Qfwg9wX5wi9O2VX4P9DxCduY-UVV_IQSeaADy0e9sOh2KZ1jhjD42YI6EGP8t0tdSsV9mFeZDweDcI3CADQ2avZHZg06WvX7mqa9clC2D2D5CgWcWh-GRDSOK85Np8H8ziTx5pv7aOT-0x0FgMR3FjFyyKJl5m-zax9L_rKF8ZJuIDKikt6AC4OKVNiHNyoVPZ3Kc4gLaGAJOrGsmjP4qqpZiP2crDPlk7Dn5T5ifoRPjwAQ9aJNSdyET-tgIqKOw7GsCgTUaM5kkXWDTI2uUklWahnDhH2eXff7sj1EIfOvRXe2vAJk8houI0uyJvqLNVSv50ONHkDC2bYKH0qORgf_TS5NzjVS9fGL0V8xgidNpW4NGkiEtK4-FUBAJts8iJzEx9bV0gQNeNLviYnzbOBi-9r4-dShFchUSE5wDSMtCWzdJX7TQO9vN5rqrNFpAPZUlU4oYqTjR7blTwuDgxUImTDerQGadAUL9Qp9MxlZHBgO9fs6AUy1_bcj4DvmJshr8HRnYotFJsPz14ao1F2gXCMmJreP5I5qJy0?></g></svg>