<svg xmlns="http://www.w3.org/2000/svg" xmlns:xlink="http://www.w3.org/1999/xlink" contentStyleType="text/css" data-diagram-type="DESCRIPTION" height="572px" preserveAspectRatio="none" style="width:2337px;height:572px;background:#FFFFFF;" version="1.1" viewBox="0 0 2337 572" width="2337px" zoomAndPan="magnify"><defs/><g><!--cluster verPreguntas--><g class="cluster" data-entity="verPreguntas" data-source-line="7" data-uid="ent0006" id="cluster_verPreguntas"><path d="M184,39.5659 L304.4102,39.5659 A3.75,3.75 0 0 1 306.9102,42.0659 L313.9102,61.8628 L791,61.8628 A2.5,2.5 0 0 1 793.5,64.3628 L793.5,563.0659 A2.5,2.5 0 0 1 791,565.5659 L184,565.5659 A2.5,2.5 0 0 1 181.5,563.0659 L181.5,42.0659 A2.5,2.5 0 0 1 184,39.5659" fill="none" style="stroke:#000000;stroke-width:1.5;"/><line style="stroke:#000000;stroke-width:1.5;" x1="181.5" x2="313.9102" y1="61.8628" y2="61.8628"/><text fill="#000000" font-family="sans-serif" font-size="14" font-weight="bold" lengthAdjust="spacing" textLength="119.4102" x="185.5" y="54.561">verPreguntas()</text></g><!--entity VerPreguntasView--><g class="entity" data-entity="VerPreguntasView" data-source-line="8" data-uid="ent0007" id="entity_VerPreguntasView"><rect fill="#629EF9" height="36.2969" rx="2.5" ry="2.5" style="stroke:#181818;stroke-width:0.5;" width="148.2832" x="629.5" y="93.5659"/><text fill="#000000" font-family="sans-serif" font-size="14" lengthAdjust="spacing" textLength="128.2832" x="639.5" y="116.561">VerPreguntasView</text></g><!--entity PreguntasController--><g class="entity" data-entity="PreguntasController" data-source-line="9" data-uid="ent0008" id="entity_PreguntasController"><rect fill="#B5BD68" height="36.2969" rx="2.5" ry="2.5" style="stroke:#181818;stroke-width:0.5;" width="159.9795" x="303.5" y="206.5659"/><text fill="#000000" font-family="sans-serif" font-size="14" lengthAdjust="spacing" textLength="139.9795" x="313.5" y="229.561">PreguntasController</text></g><!--entity PreguntaRepository--><g class="entity" data-entity="PreguntaRepository" data-source-line="10" data-uid="ent0009" id="entity_PreguntaRepository"><rect fill="#F2AC4E" height="36.2969" rx="2.5" ry="2.5" style="stroke:#181818;stroke-width:0.5;" width="158.585" x="245" y="319.5659"/><text fill="#000000" font-family="sans-serif" font-size="14" lengthAdjust="spacing" textLength="138.585" x="255" y="342.561">PreguntaRepository</text></g><!--entity Pregunta--><g class="entity" data-entity="Pregunta" data-source-line="11" data-uid="ent0010" id="entity_Pregunta"><rect fill="#F2AC4E" height="36.2969" rx="2.5" ry="2.5" style="stroke:#181818;stroke-width:0.5;" width="83.5127" x="282.5" y="416.5659"/><text fill="#000000" font-family="sans-serif" font-size="14" lengthAdjust="spacing" textLength="63.5127" x="292.5" y="439.561">Pregunta</text></g><!--entity Respuesta--><g class="entity" data-entity="Respuesta" data-source-line="12" data-uid="ent0011" id="entity_Respuesta"><rect fill="#F2AC4E" height="36.2969" rx="2.5" ry="2.5" style="stroke:#181818;stroke-width:0.5;" width="93.3701" x="234" y="513.5659"/><text fill="#000000" font-family="sans-serif" font-size="14" lengthAdjust="spacing" textLength="73.3701" x="244" y="536.561">Respuesta</text></g><!--entity Asignatura--><g class="entity" data-entity="Asignatura" data-source-line="13" data-uid="ent0012" id="entity_Asignatura"><rect fill="#F2AC4E" height="36.2969" rx="2.5" ry="2.5" style="stroke:#181818;stroke-width:0.5;" width="95.7969" x="362.5" y="513.5659"/><text fill="#000000" font-family="sans-serif" font-size="14" lengthAdjust="spacing" textLength="75.7969" x="372.5" y="536.561">Asignatura</text></g><!--entity SistemaDisponible--><g class="entity" data-entity="SistemaDisponible" data-source-line="3" data-uid="ent0002" id="entity_SistemaDisponible"><rect fill="#CDEBA5" height="36.2969" rx="2.5" ry="2.5" style="stroke:#181818;stroke-width:0.5;" width="159.125" x="7" y="93.5659"/><text fill="#000000" font-family="sans-serif" font-size="14" lengthAdjust="spacing" textLength="139.125" x="17" y="116.561">:Sistema Disponible</text></g><!--entity AsignaturaAbierto--><g class="entity" data-entity="AsignaturaAbierto" data-source-line="4" data-uid="ent0003" id="entity_AsignaturaAbierto"><rect fill="#CDEBA5" height="36.2969" rx="2.5" ry="2.5" style="stroke:#181818;stroke-width:0.5;" width="155.7412" x="910.5" y="93.5659"/><text fill="#000000" font-family="sans-serif" font-size="14" lengthAdjust="spacing" textLength="135.7412" x="920.5" y="116.561">:Asignatura Abierto</text></g><!--entity PreguntaAbierto--><g class="entity" data-entity="PreguntaAbierto" data-source-line="5" data-uid="ent0004" id="entity_PreguntaAbierto"><rect fill="#CDEBA5" height="36.2969" rx="2.5" ry="2.5" style="stroke:#181818;stroke-width:0.5;" width="143.457" x="1102" y="93.5659"/><text fill="#000000" font-family="sans-serif" font-size="14" lengthAdjust="spacing" textLength="123.457" x="1112" y="116.561">:Pregunta Abierto</text></g><!--entity PreguntaContextualAbierto--><g class="entity" data-entity="PreguntaContextualAbierto" data-source-line="6" data-uid="ent0005" id="entity_PreguntaContextualAbierto"><rect fill="#CDEBA5" height="36.2969" rx="2.5" ry="2.5" style="stroke:#181818;stroke-width:0.5;" width="224.3398" x="1280.5" y="93.5659"/><text fill="#000000" font-family="sans-serif" font-size="14" lengthAdjust="spacing" textLength="204.3398" x="1290.5" y="116.561">:Pregunta Contextual Abierto</text></g><!--entity SistemaDisponibleSalida--><g class="entity" data-entity="SistemaDisponibleSalida" data-source-line="16" data-uid="ent0013" id="entity_SistemaDisponibleSalida"><rect fill="#CDEBA5" height="36.2969" rx="2.5" ry="2.5" style="stroke:#181818;stroke-width:0.5;" width="159.125" x="809" y="206.5659"/><text fill="#000000" font-family="sans-serif" font-size="14" lengthAdjust="spacing" textLength="139.125" x="819" y="229.561">:Sistema Disponible</text></g><!--entity CrearPregunta--><g class="entity" data-entity="CrearPregunta" data-source-line="17" data-uid="ent0014" id="entity_CrearPregunta"><rect fill="#CDEBA5" height="36.2969" rx="2.5" ry="2.5" style="stroke:#181818;stroke-width:0.5;" width="224.4629" x="1002.5" y="206.5659"/><text fill="#000000" font-family="sans-serif" font-size="14" lengthAdjust="spacing" textLength="204.4629" x="1012.5" y="229.561">:Collaboration CrearPregunta</text></g><!--entity EditarPregunta--><g class="entity" data-entity="EditarPregunta" data-source-line="18" data-uid="ent0015" id="entity_EditarPregunta"><rect fill="#CDEBA5" height="36.2969" rx="2.5" ry="2.5" style="stroke:#181818;stroke-width:0.5;" width="227.4297" x="1262" y="206.5659"/><text fill="#000000" font-family="sans-serif" font-size="14" lengthAdjust="spacing" textLength="207.4297" x="1272" y="229.561">:Collaboration EditarPregunta</text></g><!--entity EliminarPregunta--><g class="entity" data-entity="EliminarPregunta" data-source-line="19" data-uid="ent0016" id="entity_EliminarPregunta"><rect fill="#CDEBA5" height="36.2969" rx="2.5" ry="2.5" style="stroke:#181818;stroke-width:0.5;" width="243.3438" x="1524" y="206.5659"/><text fill="#000000" font-family="sans-serif" font-size="14" lengthAdjust="spacing" textLength="223.3438" x="1534" y="229.561">:Collaboration EliminarPregunta</text></g><!--entity ImportarPreguntas--><g class="entity" data-entity="ImportarPreguntas" data-source-line="20" data-uid="ent0017" id="entity_ImportarPreguntas"><rect fill="#CDEBA5" height="36.2969" rx="2.5" ry="2.5" style="stroke:#181818;stroke-width:0.5;" width="254.0762" x="1802.5" y="206.5659"/><text fill="#000000" font-family="sans-serif" font-size="14" lengthAdjust="spacing" textLength="234.0762" x="1812.5" y="229.561">:Collaboration ImportarPreguntas</text></g><!--entity EditarAsignatura--><g class="entity" data-entity="EditarAsignatura" data-source-line="21" data-uid="ent0018" id="entity_EditarAsignatura"><rect fill="#CDEBA5" height="36.2969" rx="2.5" ry="2.5" style="stroke:#181818;stroke-width:0.5;" width="239.7139" x="2091.5" y="206.5659"/><text fill="#000000" font-family="sans-serif" font-size="14" lengthAdjust="spacing" textLength="219.7139" x="2101.5" y="229.561">:Collaboration EditarAsignatura</text></g><!--link SistemaDisponible to VerPreguntasView--><g class="link" data-entity-1="SistemaDisponible" data-entity-2="VerPreguntasView" data-source-line="23" data-uid="lnk19" id="link_SistemaDisponible_VerPreguntasView"><path d="M166.21,111.5659 C286.42,111.5659 506.44,111.5659 623.31,111.5659" fill="none" id="SistemaDisponible-to-VerPreguntasView" style="stroke:#181818;stroke-width:1;"/><polygon fill="#181818" points="629.31,111.5659,620.31,107.5659,624.31,111.5659,620.31,115.5659,629.31,111.5659" style="stroke:#181818;stroke-width:1;"/><text fill="#000000" font-family="sans-serif" font-size="13" lengthAdjust="spacing" textLength="96.9287" x="349.75" y="104.6328">verPreguntas()</text></g><!--link AsignaturaAbierto to VerPreguntasView--><g class="link" data-entity-1="AsignaturaAbierto" data-entity-2="VerPreguntasView" data-source-line="24" data-uid="lnk20" id="link_AsignaturaAbierto_VerPreguntasView"><path d="M910.25,111.5659 C868.88,111.5659 824.37,111.5659 783.64,111.5659" fill="none" id="AsignaturaAbierto-to-VerPreguntasView" style="stroke:#181818;stroke-width:1;"/><polygon fill="#181818" points="777.64,111.5659,786.64,115.5659,782.64,111.5659,786.64,107.5659,777.64,111.5659" style="stroke:#181818;stroke-width:1;"/><text fill="#000000" font-family="sans-serif" font-size="13" lengthAdjust="spacing" textLength="96.9287" x="796" y="104.6328">verPreguntas()</text></g><!--link PreguntaAbierto to VerPreguntasView--><g class="link" data-entity-1="PreguntaAbierto" data-entity-2="VerPreguntasView" data-source-line="25" data-uid="lnk21" id="link_PreguntaAbierto_VerPreguntasView"><path d="M1152.86,93.2459 C1126.57,69.9059 1084.5,32.5659 1084.5,32.5659 C1084.5,32.5659 893.5,32.5659 893.5,32.5659 C893.5,32.5659 808.7199,67.8117 752.6299,91.1417" fill="none" id="PreguntaAbierto-to-VerPreguntasView" style="stroke:#181818;stroke-width:1;"/><polygon fill="#181818" points="747.09,93.4459,756.936,93.6828,751.7066,91.5257,753.8637,86.2963,747.09,93.4459" style="stroke:#181818;stroke-width:1;"/><text fill="#000000" font-family="sans-serif" font-size="13" lengthAdjust="spacing" textLength="96.9287" x="974.5" y="19.6328">verPreguntas()</text></g><!--link PreguntaContextualAbierto to VerPreguntasView--><g class="link" data-entity-1="PreguntaContextualAbierto" data-entity-2="VerPreguntasView" data-source-line="26" data-uid="lnk22" id="link_PreguntaContextualAbierto_VerPreguntasView"><path d="M1362.68,93.4459 C1324.29,70.1159 1262.5,32.5659 1262.5,32.5659 C1262.5,32.5659 893.5,32.5659 893.5,32.5659 C893.5,32.5659 808.7199,67.8117 752.6299,91.1417" fill="none" id="PreguntaContextualAbierto-to-VerPreguntasView" style="stroke:#181818;stroke-width:1;"/><polygon fill="#181818" points="747.09,93.4459,756.936,93.6828,751.7066,91.5257,753.8637,86.2963,747.09,93.4459" style="stroke:#181818;stroke-width:1;"/><text fill="#000000" font-family="sans-serif" font-size="13" lengthAdjust="spacing" textLength="96.9287" x="840.5" y="19.6328">verPreguntas()</text></g><!--link VerPreguntasView to PreguntasController--><g class="link" data-entity-1="VerPreguntasView" data-entity-2="PreguntasController" data-source-line="28" data-uid="lnk23" id="link_VerPreguntasView_PreguntasController"><path d="M629.29,119.9859 C496.84,133.2359 233.5,159.5659 233.5,159.5659 C233.5,159.5659 233.5,176.5659 233.5,176.5659 C233.5,176.5659 280.3045,191.2318 323.1945,204.6718" fill="none" id="VerPreguntasView-to-PreguntasController" style="stroke:#181818;stroke-width:1;"/><polygon fill="#181818" points="328.92,206.4659,321.5279,199.9577,324.1488,204.9708,319.1357,207.5917,328.92,206.4659" style="stroke:#181818;stroke-width:1;"/><text fill="#000000" font-family="sans-serif" font-size="13" lengthAdjust="spacing" textLength="224.4277" x="234.5" y="172.6328">listarPreguntas() : List&lt;Pregunta&gt;</text></g><!--link VerPreguntasView to PreguntasController--><g class="link" data-entity-1="VerPreguntasView" data-entity-2="PreguntasController" data-source-line="36" data-uid="lnk28" id="link_VerPreguntasView_PreguntasController"><path d="M630.65,129.5959 C573.13,143.0559 502.5,159.5659 502.5,159.5659 C502.5,159.5659 455.9241,184.6137 420.6741,203.5737" fill="none" id="VerPreguntasView-to-PreguntasController-1" style="stroke:#181818;stroke-width:1;"/><polygon fill="#181818" points="415.39,206.4159,425.211,205.6754,419.7934,204.0474,421.4214,198.6299,415.39,206.4159" style="stroke:#181818;stroke-width:1;"/><text fill="#000000" font-family="sans-serif" font-size="13" lengthAdjust="spacing" textLength="273.6855" x="503.5" y="172.6328">filtrarPreguntas(criterio) : List&lt;Pregunta&gt;</text></g><!--link PreguntasController to PreguntaRepository--><g class="link" data-entity-1="PreguntasController" data-entity-2="PreguntaRepository" data-source-line="30" data-uid="lnk24" id="link_PreguntasController_PreguntaRepository"><path d="M327.47,242.6659 C283.43,256.1059 229.5,272.5659 229.5,272.5659 C229.5,272.5659 229.5,289.5659 229.5,289.5659 C229.5,289.5659 257.3924,303.3648 284.5524,316.8048" fill="none" id="PreguntasController-to-PreguntaRepository" style="stroke:#181818;stroke-width:1;"/><polygon fill="#181818" points="289.93,319.4659,283.6376,311.8892,285.4487,317.2483,280.0895,319.0594,289.93,319.4659" style="stroke:#181818;stroke-width:1;"/><text fill="#000000" font-family="sans-serif" font-size="13" lengthAdjust="spacing" textLength="216.0298" x="230.5" y="285.6328">obtenerTodos() : List&lt;Pregunta&gt;</text></g><!--link PreguntasController to PreguntaRepository--><g class="link" data-entity-1="PreguntasController" data-entity-2="PreguntaRepository" data-source-line="38" data-uid="lnk29" id="link_PreguntasController_PreguntaRepository"><path d="M408.43,242.7959 C427.84,256.2159 451.5,272.5659 451.5,272.5659 C451.5,272.5659 451.5,289.5659 451.5,289.5659 C451.5,289.5659 412.6469,303.9431 376.3369,317.3831" fill="none" id="PreguntasController-to-PreguntaRepository-1" style="stroke:#181818;stroke-width:1;"/><polygon fill="#181818" points="370.71,319.4659,380.5389,320.093,375.3991,317.7303,377.7618,312.5905,370.71,319.4659" style="stroke:#181818;stroke-width:1;"/><text fill="#000000" font-family="sans-serif" font-size="13" lengthAdjust="spacing" textLength="285.2827" x="452.5" y="285.6328">buscarPorCriterio(criterio) : List&lt;Pregunta&gt;</text></g><!--link PreguntaRepository to Pregunta--><g class="link" data-entity-1="PreguntaRepository" data-entity-2="Pregunta" data-source-line="32" data-uid="lnk25" id="link_PreguntaRepository_Pregunta"><path d="M324.5,355.9859 C324.5,373.1359 324.5,399.1459 324.5,416.2559" fill="none" id="PreguntaRepository-Pregunta" style="stroke:#181818;stroke-width:1;"/></g><!--link Pregunta to Respuesta--><g class="link" data-entity-1="Pregunta" data-entity-2="Respuesta" data-source-line="33" data-uid="lnk26" id="link_Pregunta_Respuesta"><path d="M316.43,452.9859 C308.49,470.1359 296.44,496.1459 288.52,513.2559" fill="none" id="Pregunta-Respuesta" style="stroke:#181818;stroke-width:1;"/></g><!--link Pregunta to Asignatura--><g class="link" data-entity-1="Pregunta" data-entity-2="Asignatura" data-source-line="34" data-uid="lnk27" id="link_Pregunta_Asignatura"><path d="M340.27,452.9859 C355.79,470.1359 379.34,496.1459 394.83,513.2559" fill="none" id="Pregunta-Asignatura" style="stroke:#181818;stroke-width:1;"/></g><!--link VerPreguntasView to SistemaDisponibleSalida--><g class="link" data-entity-1="VerPreguntasView" data-entity-2="SistemaDisponibleSalida" data-source-line="40" data-uid="lnk30" id="link_VerPreguntasView_SistemaDisponibleSalida"><path d="M733.57,129.7959 C756.97,143.2159 785.5,159.5659 785.5,159.5659 C785.5,159.5659 825.2939,184.289 855.8039,203.249" fill="none" id="VerPreguntasView-to-SistemaDisponibleSalida" style="stroke:#181818;stroke-width:1;stroke-dasharray:7,7;"/><polygon fill="#181818" points="860.9,206.4159,855.3671,198.2681,856.6532,203.7768,851.1445,205.063,860.9,206.4159" style="stroke:#181818;stroke-width:1;"/><text fill="#000000" font-family="sans-serif" font-size="13" lengthAdjust="spacing" textLength="125.9248" x="810.5" y="172.6328">completarGestion()</text></g><!--link VerPreguntasView to CrearPregunta--><g class="link" data-entity-1="VerPreguntasView" data-entity-2="CrearPregunta" data-source-line="41" data-uid="lnk31" id="link_VerPreguntasView_CrearPregunta"><path d="M777.77,127.0559 C848.59,140.8559 944.5,159.5659 944.5,159.5659 C944.5,159.5659 1012.9749,185.3415 1063.3249,204.3015" fill="none" id="VerPreguntasView-to-CrearPregunta" style="stroke:#181818;stroke-width:1;stroke-dasharray:7,7;"/><polygon fill="#181818" points="1068.94,206.4159,1061.927,199.5009,1064.2608,204.6539,1059.1078,206.9876,1068.94,206.4159" style="stroke:#181818;stroke-width:1;"/><text fill="#000000" font-family="sans-serif" font-size="13" lengthAdjust="spacing" textLength="102.9209" x="986.5" y="172.6328">crearPregunta()</text></g><!--link VerPreguntasView to EditarPregunta--><g class="link" data-entity-1="VerPreguntasView" data-entity-2="EditarPregunta" data-source-line="42" data-uid="lnk32" id="link_VerPreguntasView_EditarPregunta"><path d="M777.61,121.4059 C891.74,135.0259 1097.5,159.5659 1097.5,159.5659 C1097.5,159.5659 1213.1629,186.1899 1295.5229,205.1499" fill="none" id="VerPreguntasView-to-EditarPregunta" style="stroke:#181818;stroke-width:1;stroke-dasharray:7,7;"/><polygon fill="#181818" points="1301.37,206.4959,1293.4968,200.5788,1296.4974,205.3742,1291.702,208.3749,1301.37,206.4959" style="stroke:#181818;stroke-width:1;"/><text fill="#000000" font-family="sans-serif" font-size="13" lengthAdjust="spacing" textLength="107.3896" x="1165.5" y="172.6328">editarPregunta()</text></g><!--link VerPreguntasView to EliminarPregunta--><g class="link" data-entity-1="VerPreguntasView" data-entity-2="EliminarPregunta" data-source-line="43" data-uid="lnk33" id="link_VerPreguntasView_EliminarPregunta"><path d="M777.5,119.1859 C830.85,123.9559 893.5,129.5659 893.5,129.5659 C893.5,129.5659 1281.5,159.5659 1281.5,159.5659 C1281.5,159.5659 1434.6907,186.4969 1542.5207,205.4569" fill="none" id="VerPreguntasView-to-EliminarPregunta" style="stroke:#181818;stroke-width:1;stroke-dasharray:7,7;"/><polygon fill="#181818" points="1548.43,206.4959,1540.2587,200.9978,1543.5055,205.63,1538.8733,208.8769,1548.43,206.4959" style="stroke:#181818;stroke-width:1;"/><text fill="#000000" font-family="sans-serif" font-size="13" lengthAdjust="spacing" textLength="122.167" x="1369.5" y="172.6328">eliminarPregunta()</text></g><!--link VerPreguntasView to ImportarPreguntas--><g class="link" data-entity-1="VerPreguntasView" data-entity-2="ImportarPreguntas" data-source-line="44" data-uid="lnk34" id="link_VerPreguntasView_ImportarPreguntas"><path d="M777.5,119.1859 C830.85,123.9559 893.5,129.5659 893.5,129.5659 C893.5,129.5659 1500.5,159.5659 1500.5,159.5659 C1500.5,159.5659 1682.3557,186.7006 1809.4457,205.6606" fill="none" id="VerPreguntasView-to-ImportarPreguntas" style="stroke:#181818;stroke-width:1;stroke-dasharray:7,7;"/><polygon fill="#181818" points="1815.38,206.5459,1807.0687,201.2617,1810.4347,205.8082,1805.8883,209.1742,1815.38,206.5459" style="stroke:#181818;stroke-width:1;"/><text fill="#000000" font-family="sans-serif" font-size="13" lengthAdjust="spacing" textLength="132.1265" x="1604.5" y="172.6328">importarPreguntas()</text></g><!--link VerPreguntasView to EditarAsignatura--><g class="link" data-entity-1="VerPreguntasView" data-entity-2="EditarAsignatura" data-source-line="45" data-uid="lnk35" id="link_VerPreguntasView_EditarAsignatura"><path d="M777.5,119.1859 C830.85,123.9559 893.5,129.5659 893.5,129.5659 C893.5,129.5659 1745.5,159.5659 1745.5,159.5659 C1745.5,159.5659 1947.4758,187.3096 2085.5458,206.2696" fill="none" id="VerPreguntasView-to-EditarAsignatura" style="stroke:#181818;stroke-width:1;stroke-dasharray:7,7;"/><polygon fill="#181818" points="2091.49,207.0859,2083.1179,201.8987,2086.5365,206.4057,2082.0295,209.8243,2091.49,207.0859" style="stroke:#181818;stroke-width:1;"/><text fill="#000000" font-family="sans-serif" font-size="13" lengthAdjust="spacing" textLength="118.7964" x="1858.5" y="172.6328">editarAsignatura()</text></g><!--SRC=[fLJBRjim4BppAnREnJuuXo096Y4mu2fEKQ278YbofwIjiGX54YJLrYZwxwKDowGeoL4GtJZS6UrhQ5z9Qcvu3O8akfr6q4hizWV639QEowr0kCWVDf_NDp3Bdiawh3ayaDLAKY5m1jp24Gxe87bjQIkvQmo7TK5ed3gG0tn41ydV3MuRwRhK5fn4p9Lq-CSrN0ngXEjMJVFobMyHVg5fW-oUCOk1-M86VnduB_hvxTNTvl4ENgAu5yBVQLXnKrItdquPs7qAHWc19eryl5hdrvjJv1DgPSafitiZSEJw2Qrkq8xUXv6mVnzRX6SkgEA34hclb1VAS4TAGcwGdxfrqEeW4nGs5Rb4eWjDqH1KaqnL4d22pjTQAnFzsXw4UkZagi90ehgYAR5Uus5fbglU1cRGtLtMCzz4NkAyTx9wNfl8Psa4B2lF6p1Gvbyq6xTwle0ClddileLMZ0qGOHa91fzbe0g74iqFLQdpOe7ajO8JJ- -G1uF_OZIUPx_GiJf_ad0cBhGqvD2G-cZ1HMDBhwjCVXGygznB-F9oDVOSP52gMWlqy_dYk-3NtCzsKA3p1dXQV1pZT4sV0NREewp4v9wN86FCdgipe1GwdsiOV9jjGEQB_m00]--></g></svg>