<svg xmlns="http://www.w3.org/2000/svg" xmlns:xlink="http://www.w3.org/1999/xlink" contentStyleType="text/css" data-diagram-type="SEQUENCE" height="527px" preserveAspectRatio="none" style="width:1004px;height:527px;background:#FFFFFF;" version="1.1" viewBox="0 0 1004 527" width="1004px" zoomAndPan="magnify"><defs/><g><g><title>.VerPreguntasView</title><rect fill="#FFFFFF" height="145.6641" style="stroke:#181818;stroke-width:1;" width="10" x="236.625" y="67.4297"/></g><g><title>.PreguntasController</title><rect fill="#FFFFFF" height="87.3984" style="stroke:#181818;stroke-width:1;" width="10" x="418.1802" y="96.5625"/></g><g><title>.PreguntasController</title><rect fill="#FFFFFF" height="87.3984" style="stroke:#181818;stroke-width:1;" width="10" x="418.1802" y="322.7578"/></g><g><title>.PreguntaRepository</title><rect fill="#FFFFFF" height="29.1328" style="stroke:#181818;stroke-width:1;" width="10" x="616.3325" y="125.6953"/></g><g><title>.PreguntaRepository</title><rect fill="#FFFFFF" height="29.1328" style="stroke:#181818;stroke-width:1;" width="10" x="616.3325" y="351.8906"/></g><g><title>.Sistema Disponible</title><rect fill="#000000" fill-opacity="0.00000" height="456.125" width="8" x="77.5625" y="36.2969"/><line style="stroke:#181818;stroke-width:0.5;stroke-dasharray:5,5;" x1="81" x2="81" y1="36.2969" y2="492.4219"/></g><g><title>.VerPreguntasView</title><rect fill="#000000" fill-opacity="0.00000" height="456.125" width="8" x="237.625" y="36.2969"/><line style="stroke:#181818;stroke-width:0.5;stroke-dasharray:5,5;" x1="241.125" x2="241.125" y1="36.2969" y2="492.4219"/></g><g><title>.PreguntasController</title><rect fill="#000000" fill-opacity="0.00000" height="456.125" width="8" x="419.1802" y="36.2969"/><line style="stroke:#181818;stroke-width:0.5;stroke-dasharray:5,5;" x1="422.832" x2="422.832" y1="36.2969" y2="492.4219"/></g><g><title>.PreguntaRepository</title><rect fill="#000000" fill-opacity="0.00000" height="456.125" width="8" x="617.3325" y="36.2969"/><line style="stroke:#181818;stroke-width:0.5;stroke-dasharray:5,5;" x1="620.6816" x2="620.6816" y1="36.2969" y2="492.4219"/></g><g><title>.Pregunta</title><rect fill="#000000" fill-opacity="0.00000" height="456.125" width="8" x="747.0981" y="36.2969"/><line style="stroke:#181818;stroke-width:0.5;stroke-dasharray:5,5;" x1="750.9834" x2="750.9834" y1="36.2969" y2="492.4219"/></g><g><title>.Respuesta</title><rect fill="#000000" fill-opacity="0.00000" height="456.125" width="8" x="844.2563" y="36.2969"/><line style="stroke:#181818;stroke-width:0.5;stroke-dasharray:5,5;" x1="848.2129" x2="848.2129" y1="36.2969" y2="492.4219"/></g><g><title>.Asignatura</title><rect fill="#000000" fill-opacity="0.00000" height="456.125" width="8" x="947.5566" y="36.2969"/><line style="stroke:#181818;stroke-width:0.5;stroke-dasharray:5,5;" x1="951.2998" x2="951.2998" y1="36.2969" y2="492.4219"/></g><g class="participant participant-head" data-participant="Sistema"><rect fill="#E2E2F0" height="30.2969" rx="2.5" ry="2.5" style="stroke:#181818;stroke-width:0.5;" width="153.125" x="5" y="5"/><text fill="#000000" font-family="sans-serif" font-size="14" lengthAdjust="spacing" textLength="139.125" x="12" y="24.9951">:Sistema Disponible</text></g><g class="participant participant-tail" data-participant="Sistema"><rect fill="#E2E2F0" height="30.2969" rx="2.5" ry="2.5" style="stroke:#181818;stroke-width:0.5;" width="153.125" x="5" y="491.4219"/><text fill="#000000" font-family="sans-serif" font-size="14" lengthAdjust="spacing" textLength="139.125" x="12" y="511.417">:Sistema Disponible</text></g><g class="participant participant-head" data-participant="View"><rect fill="#E2E2F0" height="30.2969" rx="2.5" ry="2.5" style="stroke:#181818;stroke-width:0.5;" width="147" x="168.125" y="5"/><text fill="#000000" font-family="sans-serif" font-size="14" lengthAdjust="spacing" textLength="133" x="175.125" y="24.9951">:VerPreguntasView</text></g><g class="participant participant-tail" data-participant="View"><rect fill="#E2E2F0" height="30.2969" rx="2.5" ry="2.5" style="stroke:#181818;stroke-width:0.5;" width="147" x="168.125" y="491.4219"/><text fill="#000000" font-family="sans-serif" font-size="14" lengthAdjust="spacing" textLength="133" x="175.125" y="511.417">:VerPreguntasView</text></g><g class="participant participant-head" data-participant="Controller"><rect fill="#E2E2F0" height="30.2969" rx="2.5" ry="2.5" style="stroke:#181818;stroke-width:0.5;" width="158.6963" x="343.832" y="5"/><text fill="#000000" font-family="sans-serif" font-size="14" lengthAdjust="spacing" textLength="144.6963" x="350.832" y="24.9951">:PreguntasController</text></g><g class="participant participant-tail" data-participant="Controller"><rect fill="#E2E2F0" height="30.2969" rx="2.5" ry="2.5" style="stroke:#181818;stroke-width:0.5;" width="158.6963" x="343.832" y="491.4219"/><text fill="#000000" font-family="sans-serif" font-size="14" lengthAdjust="spacing" textLength="144.6963" x="350.832" y="511.417">:PreguntasController</text></g><g class="participant participant-head" data-participant="Repository"><rect fill="#E2E2F0" height="30.2969" rx="2.5" ry="2.5" style="stroke:#181818;stroke-width:0.5;" width="157.3018" x="542.6816" y="5"/><text fill="#000000" font-family="sans-serif" font-size="14" lengthAdjust="spacing" textLength="143.3018" x="549.6816" y="24.9951">:PreguntaRepository</text></g><g class="participant participant-tail" data-participant="Repository"><rect fill="#E2E2F0" height="30.2969" rx="2.5" ry="2.5" style="stroke:#181818;stroke-width:0.5;" width="157.3018" x="542.6816" y="491.4219"/><text fill="#000000" font-family="sans-serif" font-size="14" lengthAdjust="spacing" textLength="143.3018" x="549.6816" y="511.417">:PreguntaRepository</text></g><g class="participant participant-head" data-participant="Entity"><rect fill="#E2E2F0" height="30.2969" rx="2.5" ry="2.5" style="stroke:#181818;stroke-width:0.5;" width="82.2295" x="709.9834" y="5"/><text fill="#000000" font-family="sans-serif" font-size="14" lengthAdjust="spacing" textLength="68.2295" x="716.9834" y="24.9951">:Pregunta</text></g><g class="participant participant-tail" data-participant="Entity"><rect fill="#E2E2F0" height="30.2969" rx="2.5" ry="2.5" style="stroke:#181818;stroke-width:0.5;" width="82.2295" x="709.9834" y="491.4219"/><text fill="#000000" font-family="sans-serif" font-size="14" lengthAdjust="spacing" textLength="68.2295" x="716.9834" y="511.417">:Pregunta</text></g><g class="participant participant-head" data-participant="Respuesta"><rect fill="#E2E2F0" height="30.2969" rx="2.5" ry="2.5" style="stroke:#181818;stroke-width:0.5;" width="92.0869" x="802.2129" y="5"/><text fill="#000000" font-family="sans-serif" font-size="14" lengthAdjust="spacing" textLength="78.0869" x="809.2129" y="24.9951">:Respuesta</text></g><g class="participant participant-tail" data-participant="Respuesta"><rect fill="#E2E2F0" height="30.2969" rx="2.5" ry="2.5" style="stroke:#181818;stroke-width:0.5;" width="92.0869" x="802.2129" y="491.4219"/><text fill="#000000" font-family="sans-serif" font-size="14" lengthAdjust="spacing" textLength="78.0869" x="809.2129" y="511.417">:Respuesta</text></g><g class="participant participant-head" data-participant="Asignatura"><rect fill="#E2E2F0" height="30.2969" rx="2.5" ry="2.5" style="stroke:#181818;stroke-width:0.5;" width="94.5137" x="904.2998" y="5"/><text fill="#000000" font-family="sans-serif" font-size="14" lengthAdjust="spacing" textLength="80.5137" x="911.2998" y="24.9951">:Asignatura</text></g><g class="participant participant-tail" data-participant="Asignatura"><rect fill="#E2E2F0" height="30.2969" rx="2.5" ry="2.5" style="stroke:#181818;stroke-width:0.5;" width="94.5137" x="904.2998" y="491.4219"/><text fill="#000000" font-family="sans-serif" font-size="14" lengthAdjust="spacing" textLength="80.5137" x="911.2998" y="511.417">:Asignatura</text></g><g><title>.VerPreguntasView</title><rect fill="#FFFFFF" height="145.6641" style="stroke:#181818;stroke-width:1;" width="10" x="236.625" y="67.4297"/></g><g><title>.PreguntasController</title><rect fill="#FFFFFF" height="87.3984" style="stroke:#181818;stroke-width:1;" width="10" x="418.1802" y="96.5625"/></g><g><title>.PreguntasController</title><rect fill="#FFFFFF" height="87.3984" style="stroke:#181818;stroke-width:1;" width="10" x="418.1802" y="322.7578"/></g><g><title>.PreguntaRepository</title><rect fill="#FFFFFF" height="29.1328" style="stroke:#181818;stroke-width:1;" width="10" x="616.3325" y="125.6953"/></g><g><title>.PreguntaRepository</title><rect fill="#FFFFFF" height="29.1328" style="stroke:#181818;stroke-width:1;" width="10" x="616.3325" y="351.8906"/></g><g class="message" data-participant-1="Sistema" data-participant-2="View"><polygon fill="#181818" points="224.625,63.4297,234.625,67.4297,224.625,71.4297,228.625,67.4297" style="stroke:#181818;stroke-width:1;"/><line style="stroke:#181818;stroke-width:1;" x1="81.5625" x2="230.625" y1="67.4297" y2="67.4297"/><text fill="#000000" font-family="sans-serif" font-size="13" lengthAdjust="spacing" textLength="96.9287" x="88.5625" y="62.3638">verPreguntas()</text></g><g class="message" data-participant-1="View" data-participant-2="Controller"><polygon fill="#181818" points="406.1802,92.5625,416.1802,96.5625,406.1802,100.5625,410.1802,96.5625" style="stroke:#181818;stroke-width:1;"/><line style="stroke:#181818;stroke-width:1;" x1="246.625" x2="412.1802" y1="96.5625" y2="96.5625"/><text fill="#000000" font-family="sans-serif" font-size="13" lengthAdjust="spacing" textLength="108.2974" x="253.625" y="91.4966">listarPreguntas()</text></g><g class="message" data-participant-1="Controller" data-participant-2="Repository"><polygon fill="#181818" points="604.3325,121.6953,614.3325,125.6953,604.3325,129.6953,608.3325,125.6953" style="stroke:#181818;stroke-width:1;"/><line style="stroke:#181818;stroke-width:1;" x1="428.1802" x2="610.3325" y1="125.6953" y2="125.6953"/><text fill="#000000" font-family="sans-serif" font-size="13" lengthAdjust="spacing" textLength="99.8994" x="435.1802" y="120.6294">obtenerTodos()</text></g><g class="message" data-participant-1="Repository" data-participant-2="Entity"><polygon fill="#181818" points="739.0981,150.8281,749.0981,154.8281,739.0981,158.8281,743.0981,154.8281" style="stroke:#181818;stroke-width:1;"/><line style="stroke:#181818;stroke-width:1;" x1="621.3325" x2="745.0981" y1="154.8281" y2="154.8281"/><text fill="#000000" font-family="sans-serif" font-size="13" lengthAdjust="spacing" textLength="96.5859" x="628.3325" y="149.7622">crear instancia</text></g><g class="message" data-participant-1="Repository" data-participant-2="Controller"><polygon fill="#181818" points="434.1802,179.9609,424.1802,183.9609,434.1802,187.9609,430.1802,183.9609" style="stroke:#181818;stroke-width:1;"/><line style="stroke:#181818;stroke-width:1;" x1="428.1802" x2="620.3325" y1="183.9609" y2="183.9609"/><text fill="#000000" font-family="sans-serif" font-size="13" lengthAdjust="spacing" textLength="103.4858" x="440.1802" y="178.895">List&lt;Pregunta&gt;</text></g><g class="message" data-participant-1="Controller" data-participant-2="View"><polygon fill="#181818" points="252.625,209.0938,242.625,213.0938,252.625,217.0938,248.625,213.0938" style="stroke:#181818;stroke-width:1;"/><line style="stroke:#181818;stroke-width:1;" x1="246.625" x2="422.1802" y1="213.0938" y2="213.0938"/><text fill="#000000" font-family="sans-serif" font-size="13" lengthAdjust="spacing" textLength="103.4858" x="258.625" y="208.0278">List&lt;Pregunta&gt;</text></g><path d="M97,226.0938 L97,296.0938 L386,296.0938 L386,236.0938 L376,226.0938 L97,226.0938" fill="#FEFFDD" style="stroke:#181818;stroke-width:0.5;"/><path d="M376,226.0938 L376,236.0938 L386,236.0938 L376,226.0938" fill="#FEFFDD" style="stroke:#181818;stroke-width:0.5;"/><text fill="#000000" font-family="sans-serif" font-size="13" lengthAdjust="spacing" textLength="183.5044" x="103" y="243.1606">Presenta lista de preguntas:</text><text fill="#000000" font-family="sans-serif" font-size="13" lengthAdjust="spacing" textLength="268.0044" x="103" y="258.2935">&#8226; Enunciado, asignatura, tema, dificultad</text><text fill="#000000" font-family="sans-serif" font-size="13" lengthAdjust="spacing" textLength="160.9639" x="103" y="273.4263">&#8226; Opciones de respuesta</text><text fill="#000000" font-family="sans-serif" font-size="13" lengthAdjust="spacing" textLength="133.231" x="103" y="288.5591">&#8226; Permite filtrar lista</text><g class="message" data-participant-1="View" data-participant-2="Controller"><polygon fill="#181818" points="406.1802,318.7578,416.1802,322.7578,406.1802,326.7578,410.1802,322.7578" style="stroke:#181818;stroke-width:1;"/><line style="stroke:#181818;stroke-width:1;" x1="241.625" x2="412.1802" y1="322.7578" y2="322.7578"/><text fill="#000000" font-family="sans-serif" font-size="13" lengthAdjust="spacing" textLength="157.5552" x="248.625" y="317.6919">filtrarPreguntas(criterio)</text></g><g class="message" data-participant-1="Controller" data-participant-2="Repository"><polygon fill="#181818" points="604.3325,347.8906,614.3325,351.8906,604.3325,355.8906,608.3325,351.8906" style="stroke:#181818;stroke-width:1;"/><line style="stroke:#181818;stroke-width:1;" x1="428.1802" x2="610.3325" y1="351.8906" y2="351.8906"/><text fill="#000000" font-family="sans-serif" font-size="13" lengthAdjust="spacing" textLength="169.1523" x="435.1802" y="346.8247">buscarPorCriterio(criterio)</text></g><g class="message" data-participant-1="Repository" data-participant-2="Entity"><polygon fill="#181818" points="739.0981,377.0234,749.0981,381.0234,739.0981,385.0234,743.0981,381.0234" style="stroke:#181818;stroke-width:1;"/><line style="stroke:#181818;stroke-width:1;" x1="621.3325" x2="745.0981" y1="381.0234" y2="381.0234"/><text fill="#000000" font-family="sans-serif" font-size="13" lengthAdjust="spacing" textLength="96.5859" x="628.3325" y="375.9575">crear instancia</text></g><g class="message" data-participant-1="Repository" data-participant-2="Controller"><polygon fill="#181818" points="434.1802,406.1563,424.1802,410.1563,434.1802,414.1563,430.1802,410.1563" style="stroke:#181818;stroke-width:1;"/><line style="stroke:#181818;stroke-width:1;" x1="428.1802" x2="620.3325" y1="410.1563" y2="410.1563"/><text fill="#000000" font-family="sans-serif" font-size="13" lengthAdjust="spacing" textLength="103.4858" x="440.1802" y="405.0903">List&lt;Pregunta&gt;</text></g><g class="message" data-participant-1="Controller" data-participant-2="View"><polygon fill="#181818" points="252.625,435.2891,242.625,439.2891,252.625,443.2891,248.625,439.2891" style="stroke:#181818;stroke-width:1;"/><line style="stroke:#181818;stroke-width:1;" x1="246.625" x2="422.1802" y1="439.2891" y2="439.2891"/><text fill="#000000" font-family="sans-serif" font-size="13" lengthAdjust="spacing" textLength="103.4858" x="258.625" y="434.2231">List&lt;Pregunta&gt;</text></g><path d="M161,452.2891 L161,477.2891 L321,477.2891 L321,462.2891 L311,452.2891 L161,452.2891" fill="#FEFFDD" style="stroke:#181818;stroke-width:0.5;"/><path d="M311,452.2891 L311,462.2891 L321,462.2891 L311,452.2891" fill="#FEFFDD" style="stroke:#181818;stroke-width:0.5;"/><text fill="#000000" font-family="sans-serif" font-size="13" lengthAdjust="spacing" textLength="139.0073" x="167" y="469.356">Presenta lista filtrada</text><!--SRC=[rL91QiCm4Bph5IAd5f8Fc10eQM-5XhJahiYRiDIHn4fEoQrlwTFwagva9rACK-Yn5xDhp-pkpDY_et6Ar44sQ22S74XdcrDiXE0F0JKwPOASLA_e0noKV4JlhC5j0nEflEnV3y0Re1N1lZL1-Gt2HuB6Oe2xW9RM1B9D0vIWkRr1M8Ep7eEbKyBdzWO-ePvCm314hC6x5dmFkNG3r8F7lL6XfGwMMo7EnimMIM4bZuNuktkXTC2Z2j3f5_4PiLbYnURpnd5IuOJ8THoGDLVIRWCOe3TRsojsuOl8TMHtNbHI4oYIQFW0er696aR9nUhvx6hrCzy-Fv- -AFdbwKarCqlLjvcTKyPoQTdDhcUa1qPsRicQVzMpOPNu_lnYIMsKKDifHtJEPofZE5DPumvrsmHL9-oBqsWD-3Y6Bfd7BokW0_BY7JQ1s9gqJO2fPRndFByUcmFKn2C8xP-3tBPUyo1Botx2sAX_cch9_3tRpiyws_u3]--></g></svg>