<svg xmlns="http://www.w3.org/2000/svg" xmlns:xlink="http://www.w3.org/1999/xlink" contentStyleType="text/css" data-diagram-type="DESCRIPTION" height="326px" preserveAspectRatio="none" style="width:3792px;height:326px;background:#FFFFFF;" version="1.1" viewBox="0 0 3792 326" width="3792px" zoomAndPan="magnify"><defs/><g><!--cluster completarGestion--><g class="cluster" data-entity="completarGestion" data-source-line="4" data-uid="ent0003" id="cluster_completarGestion"><path d="M184,6 L338.0566,6 A3.75,3.75 0 0 1 340.5566,8.5 L347.5566,28.2969 L1022,28.2969 A2.5,2.5 0 0 1 1024.5,30.7969 L1024.5,316.5 A2.5,2.5 0 0 1 1022,319 L184,319 A2.5,2.5 0 0 1 181.5,316.5 L181.5,8.5 A2.5,2.5 0 0 1 184,6" fill="none" style="stroke:#000000;stroke-width:1.5;"/><line style="stroke:#000000;stroke-width:1.5;" x1="181.5" x2="347.5566" y1="28.2969" y2="28.2969"/><text fill="#000000" font-family="sans-serif" font-size="14" font-weight="bold" lengthAdjust="spacing" textLength="153.0566" x="185.5" y="20.9951">completarGestion()</text></g><!--entity CompletarGestionView--><g class="entity" data-entity="CompletarGestionView" data-source-line="5" data-uid="ent0004" id="entity_CompletarGestionView"><rect fill="#629EF9" height="36.2969" rx="2.5" ry="2.5" style="stroke:#181818;stroke-width:0.5;" width="180.2959" x="828.5" y="41"/><text fill="#000000" font-family="sans-serif" font-size="14" lengthAdjust="spacing" textLength="160.2959" x="838.5" y="63.9951">CompletarGestionView</text></g><!--entity CompletarGestionController--><g class="entity" data-entity="CompletarGestionController" data-source-line="6" data-uid="ent0005" id="entity_CompletarGestionController"><rect fill="#B5BD68" height="36.2969" rx="2.5" ry="2.5" style="stroke:#181818;stroke-width:0.5;" width="215.9385" x="529.5" y="154"/><text fill="#000000" font-family="sans-serif" font-size="14" lengthAdjust="spacing" textLength="195.9385" x="539.5" y="176.9951">CompletarGestionController</text></g><!--entity PermisosRepository--><g class="entity" data-entity="PermisosRepository" data-source-line="7" data-uid="ent0006" id="entity_PermisosRepository"><rect fill="#F2AC4E" height="36.2969" rx="2.5" ry="2.5" style="stroke:#181818;stroke-width:0.5;" width="158.5645" x="472" y="267"/><text fill="#000000" font-family="sans-serif" font-size="14" lengthAdjust="spacing" textLength="138.5645" x="482" y="289.9951">PermisosRepository</text></g><!--entity OpcionesMenu--><g class="entity" data-entity="OpcionesMenu" data-source-line="8" data-uid="ent0007" id="entity_OpcionesMenu"><rect fill="#F2AC4E" height="36.2969" rx="2.5" ry="2.5" style="stroke:#181818;stroke-width:0.5;" width="123.2773" x="198" y="267"/><text fill="#000000" font-family="sans-serif" font-size="14" lengthAdjust="spacing" textLength="103.2773" x="208" y="289.9951">OpcionesMenu</text></g><!--entity Sesion--><g class="entity" data-entity="Sesion" data-source-line="9" data-uid="ent0008" id="entity_Sesion"><rect fill="#F2AC4E" height="36.2969" rx="2.5" ry="2.5" style="stroke:#181818;stroke-width:0.5;" width="66.1221" x="831.5" y="267"/><text fill="#000000" font-family="sans-serif" font-size="14" lengthAdjust="spacing" textLength="46.1221" x="841.5" y="289.9951">Sesion</text></g><!--entity SistemaDisponible--><g class="entity" data-entity="SistemaDisponible" data-source-line="3" data-uid="ent0002" id="entity_SistemaDisponible"><rect fill="#CDEBA5" height="36.2969" rx="2.5" ry="2.5" style="stroke:#181818;stroke-width:0.5;" width="159.125" x="7" y="41"/><text fill="#000000" font-family="sans-serif" font-size="14" lengthAdjust="spacing" textLength="139.125" x="17" y="63.9951">:Sistema Disponible</text></g><!--entity VerGrados--><g class="entity" data-entity="VerGrados" data-source-line="12" data-uid="ent0009" id="entity_VerGrados"><rect fill="#CDEBA5" height="36.2969" rx="2.5" ry="2.5" style="stroke:#181818;stroke-width:0.5;" width="196.3467" x="1040.5" y="154"/><text fill="#000000" font-family="sans-serif" font-size="14" lengthAdjust="spacing" textLength="176.3467" x="1050.5" y="176.9951">:Collaboration VerGrados</text></g><!--entity VerAsignaturas--><g class="entity" data-entity="VerAsignaturas" data-source-line="13" data-uid="ent0010" id="entity_VerAsignaturas"><rect fill="#CDEBA5" height="36.2969" rx="2.5" ry="2.5" style="stroke:#181818;stroke-width:0.5;" width="229.5078" x="1271.5" y="154"/><text fill="#000000" font-family="sans-serif" font-size="14" lengthAdjust="spacing" textLength="209.5078" x="1281.5" y="176.9951">:Collaboration VerAsignaturas</text></g><!--entity VerAlumnos--><g class="entity" data-entity="VerAlumnos" data-source-line="14" data-uid="ent0011" id="entity_VerAlumnos"><rect fill="#CDEBA5" height="36.2969" rx="2.5" ry="2.5" style="stroke:#181818;stroke-width:0.5;" width="207.127" x="1537" y="154"/><text fill="#000000" font-family="sans-serif" font-size="14" lengthAdjust="spacing" textLength="187.127" x="1547" y="176.9951">:Collaboration VerAlumnos</text></g><!--entity VerPreguntas--><g class="entity" data-entity="VerPreguntas" data-source-line="15" data-uid="ent0012" id="entity_VerPreguntas"><rect fill="#CDEBA5" height="36.2969" rx="2.5" ry="2.5" style="stroke:#181818;stroke-width:0.5;" width="217.2236" x="1779" y="154"/><text fill="#000000" font-family="sans-serif" font-size="14" lengthAdjust="spacing" textLength="197.2236" x="1789" y="176.9951">:Collaboration VerPreguntas</text></g><!--entity GenerarExamenes--><g class="entity" data-entity="GenerarExamenes" data-source-line="16" data-uid="ent0013" id="entity_GenerarExamenes"><rect fill="#CDEBA5" height="36.2969" rx="2.5" ry="2.5" style="stroke:#181818;stroke-width:0.5;" width="252.251" x="2031.5" y="154"/><text fill="#000000" font-family="sans-serif" font-size="14" lengthAdjust="spacing" textLength="232.251" x="2041.5" y="176.9951">:Collaboration GenerarExamenes</text></g><!--entity CorregirExamenes--><g class="entity" data-entity="CorregirExamenes" data-source-line="17" data-uid="ent0014" id="entity_CorregirExamenes"><rect fill="#CDEBA5" height="36.2969" rx="2.5" ry="2.5" style="stroke:#181818;stroke-width:0.5;" width="252.21" x="2318.5" y="154"/><text fill="#000000" font-family="sans-serif" font-size="14" lengthAdjust="spacing" textLength="232.21" x="2328.5" y="176.9951">:Collaboration CorregirExamenes</text></g><!--entity ImportarConfiguracionGlobal--><g class="entity" data-entity="ImportarConfiguracionGlobal" data-source-line="18" data-uid="ent0015" id="entity_ImportarConfiguracionGlobal"><rect fill="#CDEBA5" height="36.2969" rx="2.5" ry="2.5" style="stroke:#181818;stroke-width:0.5;" width="325.0811" x="2606" y="154"/><text fill="#000000" font-family="sans-serif" font-size="14" lengthAdjust="spacing" textLength="305.0811" x="2616" y="176.9951">:Collaboration ImportarConfiguracionGlobal</text></g><!--entity ExportarConfiguracionGlobal--><g class="entity" data-entity="ExportarConfiguracionGlobal" data-source-line="19" data-uid="ent0016" id="entity_ExportarConfiguracionGlobal"><rect fill="#CDEBA5" height="36.2969" rx="2.5" ry="2.5" style="stroke:#181818;stroke-width:0.5;" width="324.4453" x="2966.5" y="154"/><text fill="#000000" font-family="sans-serif" font-size="14" lengthAdjust="spacing" textLength="304.4453" x="2976.5" y="176.9951">:Collaboration ExportarConfiguracionGlobal</text></g><!--entity CerrarSesion--><g class="entity" data-entity="CerrarSesion" data-source-line="20" data-uid="ent0017" id="entity_CerrarSesion"><rect fill="#CDEBA5" height="36.2969" rx="2.5" ry="2.5" style="stroke:#181818;stroke-width:0.5;" width="212.8281" x="3326" y="154"/><text fill="#000000" font-family="sans-serif" font-size="14" lengthAdjust="spacing" textLength="192.8281" x="3336" y="176.9951">:Collaboration CerrarSesion</text></g><!--entity VerDocentes--><g class="entity" data-entity="VerDocentes" data-source-line="21" data-uid="ent0018" id="entity_VerDocentes"><rect fill="#CDEBA5" height="36.2969" rx="2.5" ry="2.5" style="stroke:#181818;stroke-width:0.5;" width="212.3428" x="3574.5" y="154"/><text fill="#000000" font-family="sans-serif" font-size="14" lengthAdjust="spacing" textLength="192.3428" x="3584.5" y="176.9951">:Collaboration VerDocentes</text></g><!--link SistemaDisponible to CompletarGestionView--><g class="link" data-entity-1="SistemaDisponible" data-entity-2="CompletarGestionView" data-source-line="23" data-uid="lnk19" id="link_SistemaDisponible_CompletarGestionView"><path d="M166.28,59 C321.85,59 658.8,59 822.33,59" fill="none" id="SistemaDisponible-to-CompletarGestionView" style="stroke:#181818;stroke-width:1;"/><polygon fill="#181818" points="828.33,59,819.33,55,823.33,59,819.33,63,828.33,59" style="stroke:#181818;stroke-width:1;"/><text fill="#000000" font-family="sans-serif" font-size="13" lengthAdjust="spacing" textLength="96.9795" x="449.25" y="52.0669">mostrarMenu()</text></g><!--link CompletarGestionView to CompletarGestionController--><g class="link" data-entity-1="CompletarGestionView" data-entity-2="CompletarGestionController" data-source-line="25" data-uid="lnk20" id="link_CompletarGestionView_CompletarGestionController"><path d="M875.21,77.1 C822.4,97.96 739.2504,130.8055 686.4204,151.6755" fill="none" id="CompletarGestionView-to-CompletarGestionController" style="stroke:#181818;stroke-width:1;"/><polygon fill="#181818" points="680.84,153.88,690.6802,154.2935,685.4903,152.0429,687.7409,146.8531,680.84,153.88" style="stroke:#181818;stroke-width:1;"/><text fill="#000000" font-family="sans-serif" font-size="13" lengthAdjust="spacing" textLength="172.1802" x="795.5" y="120.0669">habilitarOpciones(usuario)</text></g><!--link CompletarGestionController to Sesion--><g class="link" data-entity-1="CompletarGestionController" data-entity-2="Sesion" data-source-line="27" data-uid="lnk21" id="link_CompletarGestionController_Sesion"><path d="M705.64,190.03 C759.44,203.49 825.5,220 825.5,220 C825.5,220 839.3785,242.7659 850.9285,261.7259" fill="none" id="CompletarGestionController-to-Sesion" style="stroke:#181818;stroke-width:1;"/><polygon fill="#181818" points="854.05,266.85,852.7838,257.0829,851.4488,262.5799,845.9517,261.2448,854.05,266.85" style="stroke:#181818;stroke-width:1;"/><text fill="#000000" font-family="sans-serif" font-size="13" lengthAdjust="spacing" textLength="142.9429" x="835.5" y="233.0669">getUsuario() : Usuario</text></g><!--link CompletarGestionController to PermisosRepository--><g class="link" data-entity-1="CompletarGestionController" data-entity-2="PermisosRepository" data-source-line="28" data-uid="lnk22" id="link_CompletarGestionController_PermisosRepository"><path d="M605.12,190.1 C579.67,203.54 548.5,220 548.5,220 C548.5,220 548.5,237 548.5,237 C548.5,237 549.1563,247.3623 550.0163,260.7823" fill="none" id="CompletarGestionController-to-PermisosRepository" style="stroke:#181818;stroke-width:1;"/><polygon fill="#181818" points="550.4,266.77,553.8162,257.5326,550.0802,261.7802,545.8326,258.0442,550.4,266.77" style="stroke:#181818;stroke-width:1;"/><text fill="#000000" font-family="sans-serif" font-size="13" lengthAdjust="spacing" textLength="271.9526" x="549.5" y="233.0669">obtenerOpciones(usuario) : List&lt;Opcion&gt;</text></g><!--link CompletarGestionController to OpcionesMenu--><g class="link" data-entity-1="CompletarGestionController" data-entity-2="OpcionesMenu" data-source-line="29" data-uid="lnk23" id="link_CompletarGestionController_OpcionesMenu"><path d="M529.28,186.78 C420.4,200.65 268.5,220 268.5,220 C268.5,220 265.4167,241.9486 262.7467,260.9086" fill="none" id="CompletarGestionController-to-OpcionesMenu" style="stroke:#181818;stroke-width:1;"/><polygon fill="#181818" points="261.91,266.85,267.1259,258.4957,262.6072,261.8989,259.2041,257.3801,261.91,266.85" style="stroke:#181818;stroke-width:1;"/><text fill="#000000" font-family="sans-serif" font-size="13" lengthAdjust="spacing" textLength="270.626" x="269.5" y="233.0669">crearOpciones(opciones) : OpcionesMenu</text></g><!--link CompletarGestionView to OpcionesMenu--><g class="link" data-entity-1="CompletarGestionView" data-entity-2="OpcionesMenu" data-source-line="31" data-uid="lnk24" id="link_CompletarGestionView_OpcionesMenu"><path d="M828.37,74.07 C660.44,100.3 316.5,154 316.5,154 C316.5,154 257.5,220 257.5,220 C257.5,220 257.5,237 257.5,237 C257.5,237 257.9454,247.3554 258.5154,260.7754" fill="none" id="CompletarGestionView-to-OpcionesMenu" style="stroke:#181818;stroke-width:1;"/><polygon fill="#181818" points="258.77,266.77,262.3845,257.6084,258.5578,261.7745,254.3917,257.9478,258.77,266.77" style="stroke:#181818;stroke-width:1;"/><text fill="#000000" font-family="sans-serif" font-size="13" lengthAdjust="spacing" textLength="194.2891" x="317.5" y="176.5669">getOpciones() : List&lt;Opcion&gt;</text></g><!--link CompletarGestionView to VerGrados--><g class="link" data-entity-1="CompletarGestionView" data-entity-2="VerGrados" data-source-line="33" data-uid="lnk25" id="link_CompletarGestionView_VerGrados"><path d="M952.39,77.1 C993.73,97.96 1057.8533,130.3071 1099.2133,151.1771" fill="none" id="CompletarGestionView-to-VerGrados" style="stroke:#181818;stroke-width:1;stroke-dasharray:7,7;"/><polygon fill="#181818" points="1104.57,153.88,1098.3369,146.2545,1100.1061,151.6275,1094.733,153.3967,1104.57,153.88" style="stroke:#181818;stroke-width:1;"/><text fill="#000000" font-family="sans-serif" font-size="13" lengthAdjust="spacing" textLength="77.543" x="1042.5" y="120.0669">verGrados()</text></g><!--link CompletarGestionView to VerAsignaturas--><g class="link" data-entity-1="CompletarGestionView" data-entity-2="VerAsignaturas" data-source-line="34" data-uid="lnk26" id="link_CompletarGestionView_VerAsignaturas"><path d="M994.61,77.03 C1054.71,90.49 1128.5,107 1128.5,107 C1128.5,107 1235.4465,133.5254 1311.8765,152.4854" fill="none" id="CompletarGestionView-to-VerAsignaturas" style="stroke:#181818;stroke-width:1;stroke-dasharray:7,7;"/><polygon fill="#181818" points="1317.7,153.93,1309.9279,147.8807,1312.8471,152.7261,1308.0017,155.6454,1317.7,153.93" style="stroke:#181818;stroke-width:1;"/><text fill="#000000" font-family="sans-serif" font-size="13" lengthAdjust="spacing" textLength="108.3354" x="1191.5" y="120.0669">verAsignaturas()</text></g><!--link CompletarGestionView to VerAlumnos--><g class="link" data-entity-1="CompletarGestionView" data-entity-2="VerAlumnos" data-source-line="35" data-uid="lnk27" id="link_CompletarGestionView_VerAlumnos"><path d="M1008.95,70.9 C1124.16,84.79 1308.5,107 1308.5,107 C1308.5,107 1447.7285,133.8342 1546.0785,152.7942" fill="none" id="CompletarGestionView-to-VerAlumnos" style="stroke:#181818;stroke-width:1;stroke-dasharray:7,7;"/><polygon fill="#181818" points="1551.97,153.93,1543.8899,148.2987,1547.0604,152.9835,1542.3755,156.154,1551.97,153.93" style="stroke:#181818;stroke-width:1;"/><text fill="#000000" font-family="sans-serif" font-size="13" lengthAdjust="spacing" textLength="87.5532" x="1389.5" y="120.0669">verAlumnos()</text></g><!--link CompletarGestionView to VerPreguntas--><g class="link" data-entity-1="CompletarGestionView" data-entity-2="VerPreguntas" data-source-line="36" data-uid="lnk28" id="link_CompletarGestionView_VerPreguntas"><path d="M1008.66,67.47 C1168.64,80.73 1485.5,107 1485.5,107 C1485.5,107 1655.5446,134.0766 1774.6346,153.0366" fill="none" id="CompletarGestionView-to-VerPreguntas" style="stroke:#181818;stroke-width:1;stroke-dasharray:7,7;"/><polygon fill="#181818" points="1780.56,153.98,1772.3008,148.6147,1775.6222,153.1939,1771.043,156.5152,1780.56,153.98" style="stroke:#181818;stroke-width:1;"/><text fill="#000000" font-family="sans-serif" font-size="13" lengthAdjust="spacing" textLength="96.9287" x="1583.5" y="120.0669">verPreguntas()</text></g><!--link CompletarGestionView to GenerarExamenes--><g class="link" data-entity-1="CompletarGestionView" data-entity-2="GenerarExamenes" data-source-line="37" data-uid="lnk29" id="link_CompletarGestionView_GenerarExamenes"><path d="M1008.71,65.51 C1212.04,77.92 1688.5,107 1688.5,107 C1688.5,107 1887.8551,134.2087 2026.7951,153.1687" fill="none" id="CompletarGestionView-to-GenerarExamenes" style="stroke:#181818;stroke-width:1;stroke-dasharray:7,7;"/><polygon fill="#181818" points="2032.74,153.98,2024.3635,148.7999,2027.7859,153.304,2023.2818,156.7264,2032.74,153.98" style="stroke:#181818;stroke-width:1;"/><text fill="#000000" font-family="sans-serif" font-size="13" lengthAdjust="spacing" textLength="128.832" x="1802.5" y="120.0669">generarExamenes()</text></g><!--link CompletarGestionView to CorregirExamenes--><g class="link" data-entity-1="CompletarGestionView" data-entity-2="CorregirExamenes" data-source-line="38" data-uid="lnk30" id="link_CompletarGestionView_CorregirExamenes"><path d="M1008.66,64.15 C1258.17,75.64 1939.5,107 1939.5,107 C1939.5,107 2162.8376,135.3055 2312.4176,154.2655" fill="none" id="CompletarGestionView-to-CorregirExamenes" style="stroke:#181818;stroke-width:1;stroke-dasharray:7,7;"/><polygon fill="#181818" points="2318.37,155.02,2309.9444,149.92,2313.4097,154.3913,2308.9384,157.8565,2318.37,155.02" style="stroke:#181818;stroke-width:1;"/><text fill="#000000" font-family="sans-serif" font-size="13" lengthAdjust="spacing" textLength="128.686" x="2062.5" y="120.0669">corregirExamenes()</text></g><!--link CompletarGestionView to ImportarConfiguracionGlobal--><g class="link" data-entity-1="CompletarGestionView" data-entity-2="ImportarConfiguracionGlobal" data-source-line="39" data-uid="lnk31" id="link_CompletarGestionView_ImportarConfiguracionGlobal"><path d="M1008.58,63.3 C1300.16,74 2199.5,107 2199.5,107 C2199.5,107 2442.6176,134.3493 2611.1776,153.3093" fill="none" id="CompletarGestionView-to-ImportarConfiguracionGlobal" style="stroke:#181818;stroke-width:1;stroke-dasharray:7,7;"/><polygon fill="#181818" points="2617.14,153.98,2608.6435,148.9991,2612.1713,153.4211,2607.7493,156.9489,2617.14,153.98" style="stroke:#181818;stroke-width:1;"/><text fill="#000000" font-family="sans-serif" font-size="13" lengthAdjust="spacing" textLength="198.0596" x="2337.5" y="120.0669">importarConfiguracionGlobal()</text></g><!--link CompletarGestionView to ExportarConfiguracionGlobal--><g class="link" data-entity-1="CompletarGestionView" data-entity-2="ExportarConfiguracionGlobal" data-source-line="40" data-uid="lnk32" id="link_CompletarGestionView_ExportarConfiguracionGlobal"><path d="M1008.53,62.6 C1349.79,72.47 2544.5,107 2544.5,107 C2544.5,107 2794.1757,134.3664 2967.1857,153.3264" fill="none" id="CompletarGestionView-to-ExportarConfiguracionGlobal" style="stroke:#181818;stroke-width:1;stroke-dasharray:7,7;"/><polygon fill="#181818" points="2973.15,153.98,2964.6393,149.0234,2968.1798,153.4353,2963.7678,156.9758,2973.15,153.98" style="stroke:#181818;stroke-width:1;"/><text fill="#000000" font-family="sans-serif" font-size="13" lengthAdjust="spacing" textLength="197.4756" x="2686.5" y="120.0669">exportarConfiguracionGlobal()</text></g><!--link CompletarGestionView to CerrarSesion--><g class="link" data-entity-1="CompletarGestionView" data-entity-2="CerrarSesion" data-source-line="41" data-uid="lnk33" id="link_CompletarGestionView_CerrarSesion"><path d="M1008.77,62.15 C1395.46,71.36 2892.5,107 2892.5,107 C2892.5,107 3308.5,154 3308.5,154 C3308.5,154 3309.3656,154.115 3319.7956,155.545" fill="none" id="CompletarGestionView-to-CerrarSesion" style="stroke:#181818;stroke-width:1;stroke-dasharray:7,7;"/><polygon fill="#181818" points="3325.74,156.36,3317.3668,151.1746,3320.7863,155.6808,3316.2801,159.1004,3325.74,156.36" style="stroke:#181818;stroke-width:1;"/><text fill="#000000" font-family="sans-serif" font-size="13" lengthAdjust="spacing" textLength="92.1172" x="3039.5" y="120.0669">cerrarSesion()</text></g><!--link CompletarGestionView to VerDocentes--><g class="link" data-entity-1="CompletarGestionView" data-entity-2="VerDocentes" data-source-line="42" data-uid="lnk34" id="link_CompletarGestionView_VerDocentes"><path d="M1008.7,61.91 C1425.01,70.71 3140.5,107 3140.5,107 C3140.5,107 3556.5,154 3556.5,154 C3556.5,154 3557.5955,154.1556 3568.3255,155.6256" fill="none" id="CompletarGestionView-to-VerDocentes" style="stroke:#181818;stroke-width:1;stroke-dasharray:7,7;"/><polygon fill="#181818" points="3574.27,156.44,3565.8962,151.2554,3569.3163,155.7613,3564.8104,159.1814,3574.27,156.44" style="stroke:#181818;stroke-width:1;"/><text fill="#000000" font-family="sans-serif" font-size="13" lengthAdjust="spacing" textLength="92.3965" x="3287.5" y="120.0669">verDocentes()</text></g><!--SRC=[dLHDZvim4BtpAqRfXHooXrLtrRMgI2bXeqgjkkfgzsx8b5fhR3GsRQAg_xq6maU045HEde_tXfcndtaJAkF4Kv12eJrc29cMnyBmFCBOSfL8X7V1DloqkOC5UnR6OifXAqocbOWaBe0REBbRhvVn-8qd2B5ECucMqmwD5LeLsOk-qryku8y7xklKlBzz21yV8EZblWhytK-DxgBz_OT1Qg2L9IqbKX_mUBi9teVmX9GAeyrtpBGHLjFnGkAtB7PyQBwYoY-aFADnATxVyRa5xZTuf8cNCtX5sX7VQrCEhx7c8JT698hRd7W3xxXcSiWyLMtvapaF-qIOvCgsrHl73FmE5HAdyC1JTweeUhuPB84cLrESq_ITCtW-fvacTr_SHVaX4ZU-OiixgICkIyg9-0psy33DFX6VCmCaDxJgrbNzTnppDhdLCIgBpI9hs_C6xnbMj5gFlaK6gJRMLIxUXh_qlB4aMEr7uEtxPF2JHq8A5wkVcf-Rd9FG8umj3bQEjcgPGOBsfSBuIs1mEbz33pM0WOviSIS7l-9OlxZ9VAm2wslKNTLW41DskjEdGy5vfYuNvZUWSzqsP8CV6oUvkLctOiFWLtrqMvlAxwXB2UhOrv2LhbIewdm5qMX9YMciALHFFeh9d3cci7tDS5lgUQRG4_B0G5mEJd5EY083FFmNPrSPN8STwyesQa4ebr4R_l8V]--></g></svg>