<svg xmlns="http://www.w3.org/2000/svg" xmlns:xlink="http://www.w3.org/1999/xlink" contentStyleType="text/css" data-diagram-type="STATE" height="911px" preserveAspectRatio="none" style="width:1365px;height:911px;background:#FFFFFF;" version="1.1" viewBox="0 0 1365 911" width="1365px" zoomAndPan="magnify"><defs/><g><path d="M19.5,117 L1339.7295,117 A12.5,12.5 0 0 1 1352.2295,129.5 L1352.2295,143.2969 L7,143.2969 L7,129.5 A12.5,12.5 0 0 1 19.5,117" fill="#F1F1F1"/><rect fill="none" height="678.2969" rx="12.5" ry="12.5" style="stroke:#181818;stroke-width:0.5;" width="1345.2295" x="7" y="117"/><line style="stroke:#181818;stroke-width:0.5;" x1="7" x2="1352.2295" y1="143.2969" y2="143.2969"/><text fill="#000000" font-family="sans-serif" font-size="14" lengthAdjust="spacing" textLength="135.5225" x="611.8535" y="134.9951">asignarExamenes()</text><g id="asignarExamenes.RequiringAssignment"><rect fill="#F1F1F1" height="50" rx="12.5" ry="12.5" style="stroke:#181818;stroke-width:0.5;" width="50" x="388.2295" y="245.2969"/><line style="stroke:#181818;stroke-width:0.5;" x1="388.2295" x2="438.2295" y1="271.5938" y2="271.5938"/><text fill="#000000" font-family="sans-serif" font-size="14" lengthAdjust="spacing" textLength="4.4502" x="411.0044" y="263.292">&#160;</text></g><g id="asignarExamenes.ProvidingAssignment"><rect fill="#F1F1F1" height="50" rx="12.5" ry="12.5" style="stroke:#181818;stroke-width:0.5;" width="50" x="388.2295" y="396.2969"/><line style="stroke:#181818;stroke-width:0.5;" x1="388.2295" x2="438.2295" y1="422.5938" y2="422.5938"/><text fill="#000000" font-family="sans-serif" font-size="14" lengthAdjust="spacing" textLength="4.4502" x="411.0044" y="414.292">&#160;</text></g><g id="asignarExamenes.ProvidingConfirmation"><rect fill="#F1F1F1" height="50" rx="12.5" ry="12.5" style="stroke:#181818;stroke-width:0.5;" width="50" x="927.2295" y="517.2969"/><line style="stroke:#181818;stroke-width:0.5;" x1="927.2295" x2="977.2295" y1="543.5938" y2="543.5938"/><text fill="#000000" font-family="sans-serif" font-size="14" lengthAdjust="spacing" textLength="4.4502" x="950.0044" y="535.292">&#160;</text></g><g class="entity" data-entity="c" data-uid="ent0006" id="entity_c"><polygon fill="#F1F1F1" points="413.2295,668.2969,425.2295,680.2969,413.2295,692.2969,401.2295,680.2969,413.2295,668.2969" style="stroke:#181818;stroke-width:0.5;"/></g><ellipse cx="413.2295" cy="164.2969" fill="#222222" rx="10" ry="10" style="stroke:#222222;stroke-width:1;"/><ellipse cx="29.2295" cy="774.2969" fill="none" rx="11" ry="11" style="stroke:#222222;stroke-width:1;"/><ellipse cx="29.2295" cy="774.2969" fill="#222222" rx="6" ry="6" style="stroke:#222222;stroke-width:1;"/><!--link *start*asignarExamenes to RequiringAssignment--><g class="link" data-entity-1=".start.asignarExamenes" data-entity-2="RequiringAssignment" data-source-line="10" data-uid="lnk3" id="link_.start.asignarExamenes_RequiringAssignment"><path d="M413.2295,174.5269 C413.2295,190.2369 413.2295,216.6569 413.2295,239.1669" fill="none" id="*start*asignarExamenes-to-RequiringAssignment" style="stroke:#008000;stroke-width:1;"/><polygon fill="#008000" points="413.2295,245.1669,417.2295,236.1669,413.2295,240.1669,409.2295,236.1669,413.2295,245.1669" style="stroke:#008000;stroke-width:1;"/><path d="M418.2295,197.2969 L418.2295,222.2969 L677.2295,222.2969 L677.2295,207.2969 L667.2295,197.2969 L418.2295,197.2969" fill="#FEFFDD" style="stroke:#181818;stroke-width:0.5;"/><path d="M667.2295,197.2969 L667.2295,207.2969 L677.2295,207.2969 L667.2295,197.2969" fill="#FEFFDD" style="stroke:#181818;stroke-width:0.5;"/><text fill="#000000" font-family="sans-serif" font-size="13" font-weight="bold" lengthAdjust="spacing" textLength="60.5313" x="424.2295" y="214.3638">Docente</text><text fill="#000000" font-family="sans-serif" font-size="13" lengthAdjust="spacing" textLength="169.5205" x="488.8931" y="214.3638">solicita asignar ex&#225;menes</text></g><!--link RequiringAssignment to ProvidingAssignment--><g class="link" data-entity-1="RequiringAssignment" data-entity-2="ProvidingAssignment" data-source-line="15" data-uid="lnk4" id="link_RequiringAssignment_ProvidingAssignment"><path d="M413.2295,295.5669 C413.2295,323.2769 413.2295,362.3369 413.2295,390.0369" fill="none" id="RequiringAssignment-to-ProvidingAssignment" style="stroke:#008000;stroke-width:1;"/><polygon fill="#008000" points="413.2295,396.0369,417.2295,387.0369,413.2295,391.0369,409.2295,387.0369,413.2295,396.0369" style="stroke:#008000;stroke-width:1;"/><path d="M418.2295,318.2969 L418.2295,373.2969 L887.2295,373.2969 L887.2295,328.2969 L877.2295,318.2969 L418.2295,318.2969" fill="#FEFFDD" style="stroke:#181818;stroke-width:0.5;"/><path d="M877.2295,318.2969 L877.2295,328.2969 L887.2295,328.2969 L877.2295,318.2969" fill="#FEFFDD" style="stroke:#181818;stroke-width:0.5;"/><text fill="#000000" font-family="sans-serif" font-size="13" font-weight="bold" lengthAdjust="spacing" textLength="58.9063" x="424.2295" y="335.3638">Sistema</text><text fill="#000000" font-family="sans-serif" font-size="13" lengthAdjust="spacing" textLength="50.9653" x="487.2681" y="335.3638">permite</text><text fill="#000000" font-family="sans-serif" font-size="13" lengthAdjust="spacing" textLength="448.3794" x="424.2295" y="350.4966">&#8226; introducir alumnos destinatarios para los ex&#225;menes de cada grado</text><text fill="#000000" font-family="sans-serif" font-size="13" lengthAdjust="spacing" textLength="133.3833" x="424.2295" y="365.6294">&#8226; salir de asignaci&#243;n</text></g><!--link ProvidingAssignment to ProvidingConfirmation--><g class="link" data-entity-1="ProvidingAssignment" data-entity-2="ProvidingConfirmation" data-source-line="22" data-uid="lnk5" id="link_ProvidingAssignment_ProvidingConfirmation"><path d="M438.3695,427.0769 C539.7595,446.3369 913.2295,517.2969 913.2295,517.2969 C913.2295,517.2969 914.3082,517.9646 921.7582,522.5446" fill="none" id="ProvidingAssignment-to-ProvidingConfirmation" style="stroke:#008000;stroke-width:1;"/><polygon fill="#008000" points="926.8695,525.6869,921.2973,517.5659,922.6101,523.0683,917.1076,524.381,926.8695,525.6869" style="stroke:#008000;stroke-width:1;"/><path d="M822.2295,469.2969 L822.2295,494.2969 L1343.2295,494.2969 L1343.2295,479.2969 L1333.2295,469.2969 L822.2295,469.2969" fill="#FEFFDD" style="stroke:#181818;stroke-width:0.5;"/><path d="M1333.2295,469.2969 L1333.2295,479.2969 L1343.2295,479.2969 L1333.2295,469.2969" fill="#FEFFDD" style="stroke:#181818;stroke-width:0.5;"/><text fill="#000000" font-family="sans-serif" font-size="13" font-weight="bold" lengthAdjust="spacing" textLength="60.5313" x="828.2295" y="486.3638">Docente</text><text fill="#000000" font-family="sans-serif" font-size="13" lengthAdjust="spacing" textLength="435.6206" x="892.8931" y="486.3638">introduce alumnos destinatarios para los ex&#225;menes de cada grado</text></g><!--link ProvidingConfirmation to c--><g class="link" data-entity-1="ProvidingConfirmation" data-entity-2="c" data-source-line="27" data-uid="lnk6" id="link_ProvidingConfirmation_c"><path d="M926.8695,558.9069 C919.4195,563.4869 913.2295,567.2969 913.2295,567.2969 C913.2295,567.2969 552.2295,650.2969 552.2295,650.2969 C552.2295,650.2969 459.1431,669.7216 428.2231,676.1716" fill="none" id="ProvidingConfirmation-to-c" style="stroke:#008000;stroke-width:1;"/><polygon fill="#008000" points="422.3495,677.3969,431.9767,679.4747,427.2442,676.3758,430.3431,671.6433,422.3495,677.3969" style="stroke:#008000;stroke-width:1;"/><path d="M830.2295,590.2969 L830.2295,645.2969 L999.2295,645.2969 L999.2295,600.2969 L989.2295,590.2969 L830.2295,590.2969" fill="#FEFFDD" style="stroke:#181818;stroke-width:0.5;"/><path d="M989.2295,590.2969 L989.2295,600.2969 L999.2295,600.2969 L989.2295,590.2969" fill="#FEFFDD" style="stroke:#181818;stroke-width:0.5;"/><text fill="#000000" font-family="sans-serif" font-size="13" font-weight="bold" lengthAdjust="spacing" textLength="58.9063" x="836.2295" y="607.3638">Sistema</text><text fill="#000000" font-family="sans-serif" font-size="13" lengthAdjust="spacing" textLength="50.9653" x="899.2681" y="607.3638">permite</text><text fill="#000000" font-family="sans-serif" font-size="13" lengthAdjust="spacing" textLength="148.5415" x="836.2295" y="622.4966">&#8226; confirmar asignaci&#243;n</text><text fill="#000000" font-family="sans-serif" font-size="13" lengthAdjust="spacing" textLength="141.1147" x="836.2295" y="637.6294">&#8226; cancelar asignaci&#243;n</text></g><!--link c to ProvidingAssignment--><g class="link" data-entity-1="c" data-entity-2="ProvidingAssignment" data-source-line="34" data-uid="lnk7" id="link_c_ProvidingAssignment"><path d="M407.6195,673.5869 C385.2095,650.7669 303.2295,567.2969 303.2295,567.2969 C303.2295,567.2969 303.2295,517.2969 303.2295,517.2969 C303.2295,517.2969 350.9791,476.0592 383.4491,448.0092" fill="none" id="c-to-ProvidingAssignment" style="stroke:#FF0000;stroke-width:1;"/><polygon fill="#FF0000" points="387.9895,444.0869,378.564,446.9434,384.2059,447.3555,383.7938,452.9973,387.9895,444.0869" style="stroke:#FF0000;stroke-width:1;"/><path d="M308.2295,529.7969 L308.2295,554.7969 L511.2295,554.7969 L511.2295,539.7969 L501.2295,529.7969 L308.2295,529.7969" fill="#FEFFDD" style="stroke:#181818;stroke-width:0.5;"/><path d="M501.2295,529.7969 L501.2295,539.7969 L511.2295,539.7969 L501.2295,529.7969" fill="#FEFFDD" style="stroke:#181818;stroke-width:0.5;"/><text fill="#000000" font-family="sans-serif" font-size="13" lengthAdjust="spacing" textLength="182.5459" x="314.2295" y="546.8638">Docente cancela asignaci&#243;n</text></g><!--link c to ProvidingAssignment--><g class="link" data-entity-1="c" data-entity-2="ProvidingAssignment" data-source-line="39" data-uid="lnk8" id="link_c_ProvidingAssignment"><path d="M418.7695,673.2769 C440.1595,650.0069 516.2295,567.2969 516.2295,567.2969 C516.2295,567.2969 516.2295,517.2969 516.2295,517.2969 C516.2295,517.2969 473.3301,477.7246 442.8401,449.6046" fill="none" id="c-to-ProvidingAssignment-1" style="stroke:#FF0000;stroke-width:1;"/><polygon fill="#FF0000" points="438.4295,445.5369,442.3336,454.5789,442.105,448.9267,447.7573,448.6981,438.4295,445.5369" style="stroke:#FF0000;stroke-width:1;"/><path d="M521.2295,529.7969 L521.2295,554.7969 L882.2295,554.7969 L882.2295,539.7969 L872.2295,529.7969 L521.2295,529.7969" fill="#FEFFDD" style="stroke:#181818;stroke-width:0.5;"/><path d="M872.2295,529.7969 L872.2295,539.7969 L882.2295,539.7969 L872.2295,529.7969" fill="#FEFFDD" style="stroke:#181818;stroke-width:0.5;"/><text fill="#000000" font-family="sans-serif" font-size="13" lengthAdjust="spacing" textLength="340.4438" x="527.2295" y="546.8638">Docente confirma asignaci&#243;n: error en la asignaci&#243;n</text></g><!--link c to *end*asignarExamenes--><g class="link" data-entity-1="c" data-entity-2=".end.asignarExamenes" data-source-line="44" data-uid="lnk10" id="link_c_.end.asignarExamenes"><path d="M404.1195,683.4769 C352.3295,695.8869 101.2543,756.0385 45.6743,769.3585" fill="none" id="c-to-*end*asignarExamenes" style="stroke:#008000;stroke-width:1;"/><polygon fill="#008000" points="39.8395,770.7569,49.5239,772.5492,44.7018,769.5916,47.6595,764.7695,39.8395,770.7569" style="stroke:#008000;stroke-width:1;"/><path d="M294.2295,715.2969 L294.2295,740.2969 L634.2295,740.2969 L634.2295,725.2969 L624.2295,715.2969 L294.2295,715.2969" fill="#FEFFDD" style="stroke:#181818;stroke-width:0.5;"/><path d="M624.2295,715.2969 L624.2295,725.2969 L634.2295,725.2969 L624.2295,715.2969" fill="#FEFFDD" style="stroke:#181818;stroke-width:0.5;"/><text fill="#000000" font-family="sans-serif" font-size="13" lengthAdjust="spacing" textLength="319.4712" x="300.2295" y="732.3638">Docente confirma asignaci&#243;n: asignaci&#243;n exitosa</text></g><!--link ProvidingAssignment to *end*asignarExamenes--><g class="link" data-entity-1="ProvidingAssignment" data-entity-2=".end.asignarExamenes" data-source-line="49" data-uid="lnk11" id="link_ProvidingAssignment_.end.asignarExamenes"><path d="M388.1295,433.7569 C306.8695,470.8569 56.2295,585.2969 56.2295,585.2969 C56.2295,585.2969 37.1427,718.1978 31.5327,757.2478" fill="none" id="ProvidingAssignment-to-*end*asignarExamenes" style="stroke:#0000FF;stroke-width:1;"/><polygon fill="#0000FF" points="30.6795,763.1869,35.9187,754.8471,31.3905,758.2377,28,753.7095,30.6795,763.1869" style="stroke:#0000FF;stroke-width:1;"/><path d="M61.2295,605.2969 L61.2295,630.2969 L312.2295,630.2969 L312.2295,615.2969 L302.2295,605.2969 L61.2295,605.2969" fill="#FEFFDD" style="stroke:#181818;stroke-width:0.5;"/><path d="M302.2295,605.2969 L302.2295,615.2969 L312.2295,615.2969 L302.2295,605.2969" fill="#FEFFDD" style="stroke:#181818;stroke-width:0.5;"/><text fill="#000000" font-family="sans-serif" font-size="13" lengthAdjust="spacing" textLength="230.0645" x="67.2295" y="622.3638">Docente solicita salir de asignaci&#243;n</text></g><g id="EXAMENES_GENERADOS"><rect fill="#F1F1F1" height="50" rx="12.5" ry="12.5" style="stroke:#181818;stroke-width:0.5;" width="193.1475" x="439" y="7"/><line style="stroke:#181818;stroke-width:0.5;" x1="439" x2="632.1475" y1="33.2969" y2="33.2969"/><text fill="#000000" font-family="sans-serif" font-size="14" lengthAdjust="spacing" textLength="173.1475" x="449" y="24.9951">EXAMENES_GENERADOS</text></g><g id="EXAMENES_GENERADOS_CONTEXTUALES"><rect fill="#F1F1F1" height="50" rx="12.5" ry="12.5" style="stroke:#181818;stroke-width:0.5;" width="312.3115" x="667.5" y="7"/><line style="stroke:#181818;stroke-width:0.5;" x1="667.5" x2="979.8115" y1="33.2969" y2="33.2969"/><text fill="#000000" font-family="sans-serif" font-size="14" lengthAdjust="spacing" textLength="292.3115" x="677.5" y="24.9951">EXAMENES_GENERADOS_CONTEXTUALES</text></g><g id="EXAMENES_ASIGNADOS"><rect fill="#F1F1F1" height="50" rx="12.5" ry="12.5" style="stroke:#181818;stroke-width:0.5;" width="188.3213" x="444.5" y="855"/><line style="stroke:#181818;stroke-width:0.5;" x1="444.5" x2="632.8213" y1="881.2969" y2="881.2969"/><text fill="#000000" font-family="sans-serif" font-size="14" lengthAdjust="spacing" textLength="168.3213" x="454.5" y="872.9951">EXAMENES_ASIGNADOS</text></g><g id="EXAMENES_ASIGNADOS_CONTEXTUALES"><rect fill="#F1F1F1" height="50" rx="12.5" ry="12.5" style="stroke:#181818;stroke-width:0.5;" width="307.4854" x="668" y="855"/><line style="stroke:#181818;stroke-width:0.5;" x1="668" x2="975.4854" y1="881.2969" y2="881.2969"/><text fill="#000000" font-family="sans-serif" font-size="14" lengthAdjust="spacing" textLength="287.4854" x="678" y="872.9951">EXAMENES_ASIGNADOS_CONTEXTUALES</text></g><!--link EXAMENES_GENERADOS to asignarExamenes--><g class="link" data-entity-1="EXAMENES_GENERADOS" data-entity-2="asignarExamenes" data-source-line="55" data-uid="lnk13" id="link_EXAMENES_GENERADOS_asignarExamenes"><path d="M543.76,57.2 C548.78,71.92 553.8718,86.8317 562.1118,110.9717" fill="none" id="EXAMENES_GENERADOS-to-asignarExamenes" style="stroke:#008000;stroke-width:1;"/><polygon fill="#008000" points="564.05,116.65,564.9282,106.8404,562.4348,111.9181,557.3571,109.4247,564.05,116.65" style="stroke:#008000;stroke-width:1;"/></g><!--link EXAMENES_GENERADOS_CONTEXTUALES to asignarExamenes--><g class="link" data-entity-1="EXAMENES_GENERADOS_CONTEXTUALES" data-entity-2="asignarExamenes" data-source-line="56" data-uid="lnk15" id="link_EXAMENES_GENERADOS_CONTEXTUALES_asignarExamenes"><path d="M815.24,57.2 C810.22,71.92 805.1282,86.8317 796.8882,110.9717" fill="none" id="EXAMENES_GENERADOS_CONTEXTUALES-to-asignarExamenes" style="stroke:#008000;stroke-width:1;"/><polygon fill="#008000" points="794.95,116.65,801.6429,109.4247,796.5652,111.9181,794.0718,106.8404,794.95,116.65" style="stroke:#008000;stroke-width:1;"/></g><!--link asignarExamenes to EXAMENES_ASIGNADOS--><g class="link" data-entity-1="asignarExamenes" data-entity-2="EXAMENES_ASIGNADOS" data-source-line="57" data-uid="lnk17" id="link_asignarExamenes_EXAMENES_ASIGNADOS"><path d="M566.53,795.12 C558.41,819.4 553.4008,834.4091 548.4708,849.1691" fill="none" id="asignarExamenes-to-EXAMENES_ASIGNADOS" style="stroke:#008000;stroke-width:1;"/><polygon fill="#008000" points="546.57,854.86,553.2152,847.5908,548.154,850.1175,545.6273,845.0564,546.57,854.86" style="stroke:#008000;stroke-width:1;"/></g><!--link asignarExamenes to EXAMENES_ASIGNADOS_CONTEXTUALES--><g class="link" data-entity-1="asignarExamenes" data-entity-2="EXAMENES_ASIGNADOS_CONTEXTUALES" data-source-line="58" data-uid="lnk19" id="link_asignarExamenes_EXAMENES_ASIGNADOS_CONTEXTUALES"><path d="M793.28,795.12 C801.45,819.4 806.4953,834.4137 811.4653,849.1737" fill="none" id="asignarExamenes-to-EXAMENES_ASIGNADOS_CONTEXTUALES" style="stroke:#008000;stroke-width:1;"/><polygon fill="#008000" points="813.38,854.86,814.2988,845.0541,811.7844,850.1214,806.7171,847.607,813.38,854.86" style="stroke:#008000;stroke-width:1;"/></g><!--SRC=[jLJTIiCm5BxlKuHveu9uBwDGj8YWcpW5GKJEakCys2OpoKGHmLVHL_0HV1EVnDDsg-tMpKsnXT8qNyxtavowMz93i92AX3Jwno6AeKaUiq4GE0yU1JWQQB3n0wIeqV5OjAQ-hM-qn5CG2BwADIs-6NU2ToEof0UHonOmri-2Zgsv9xKiQDVeQx8fU3Aw0fEYtPOtXYI6OI7aOlDIR5si3IoYljmAvshHXfSRdVc_pJ-q- -6UaJoDxUr-A9n9I9A7IGu27pvUYoHoE6fLrE2hO6vWgYcPPxX9IO-SnnHo9KEqAJ4ad_jyUHEalJLg9CaAI4QfDaueT9uqUB34esndHS8ltveLPmKAnC22CcKb1maNKPFDblJnhclk2cSDofkTpUpIJobFhE1VdCmHMnLJaojNYRtCIexBsPcmybdG4fE6oReucGcng5Ow3-F09Xp_IZ4sMUNO4MYjuGPW_5BaPT3SYx-XgmnutyaR1tMglESM7Cn-CiAb-Cic_xaHdeCWFe-EuaxSkzhdvqcqr-tLt4xz71lWLxlTpcbyVdeM7SQBrqx_VAlOicxKEzZlP7LNXDTaV040]--></g></svg>