<svg xmlns="http://www.w3.org/2000/svg" xmlns:xlink="http://www.w3.org/1999/xlink" contentStyleType="text/css" data-diagram-type="STATE" height="653px" preserveAspectRatio="none" style="width:903px;height:653px;background:#FFFFFF;" version="1.1" viewBox="0 0 903 653" width="903px" zoomAndPan="magnify"><defs/><g><g id="ASIGNATURA_ABIERTO"><rect fill="#F1F1F1" height="50" rx="12.5" ry="12.5" style="stroke:#181818;stroke-width:0.5;" width="180.0498" x="7" y="7"/><line style="stroke:#181818;stroke-width:0.5;" x1="7" x2="187.0498" y1="33.2969" y2="33.2969"/><text fill="#000000" font-family="sans-serif" font-size="14" lengthAdjust="spacing" textLength="160.0498" x="17" y="24.9951">ASIGNATURA_ABIERTO</text></g><g id="SISTEMA_DISPONIBLE"><rect fill="#F1F1F1" height="50" rx="12.5" ry="12.5" style="stroke:#181818;stroke-width:0.5;" width="172.0654" x="222" y="7"/><line style="stroke:#181818;stroke-width:0.5;" x1="222" x2="394.0654" y1="33.2969" y2="33.2969"/><text fill="#000000" font-family="sans-serif" font-size="14" lengthAdjust="spacing" textLength="152.0654" x="232" y="24.9951">SISTEMA_DISPONIBLE</text></g><g id="PREGUNTA_CONTEXTUAL_ABIERTO"><rect fill="#F1F1F1" height="50" rx="12.5" ry="12.5" style="stroke:#181818;stroke-width:0.5;" width="266.5996" x="429.5" y="7"/><line style="stroke:#181818;stroke-width:0.5;" x1="429.5" x2="696.0996" y1="33.2969" y2="33.2969"/><text fill="#000000" font-family="sans-serif" font-size="14" lengthAdjust="spacing" textLength="246.5996" x="439.5" y="24.9951">PREGUNTA_CONTEXTUAL_ABIERTO</text></g><g id="PREGUNTA_ABIERTO"><rect fill="#F1F1F1" height="50" rx="12.5" ry="12.5" style="stroke:#181818;stroke-width:0.5;" width="165.168" x="731.5" y="7"/><line style="stroke:#181818;stroke-width:0.5;" x1="731.5" x2="896.668" y1="33.2969" y2="33.2969"/><text fill="#000000" font-family="sans-serif" font-size="14" lengthAdjust="spacing" textLength="145.168" x="741.5" y="24.9951">PREGUNTA_ABIERTO</text></g><g id="PREGUNTAS_ABIERTO"><rect fill="#F1F1F1" height="50" rx="12.5" ry="12.5" style="stroke:#181818;stroke-width:0.5;" width="174.0547" x="214" y="597"/><line style="stroke:#181818;stroke-width:0.5;" x1="214" x2="388.0547" y1="623.2969" y2="623.2969"/><text fill="#000000" font-family="sans-serif" font-size="14" lengthAdjust="spacing" textLength="154.0547" x="224" y="614.9951">PREGUNTAS_ABIERTO</text></g><g id="PREGUNTAS_CONTEXTUALES_ABIERTO"><rect fill="#F1F1F1" height="50" rx="12.5" ry="12.5" style="stroke:#181818;stroke-width:0.5;" width="293.2188" x="423.5" y="597"/><line style="stroke:#181818;stroke-width:0.5;" x1="423.5" x2="716.7188" y1="623.2969" y2="623.2969"/><text fill="#000000" font-family="sans-serif" font-size="14" lengthAdjust="spacing" textLength="273.2188" x="433.5" y="614.9951">PREGUNTAS_CONTEXTUALES_ABIERTO</text></g><path d="M238,118 L632,118 A12.5,12.5 0 0 1 644.5,130.5 L644.5,144.2969 L225.5,144.2969 L225.5,130.5 A12.5,12.5 0 0 1 238,118" fill="#F1F1F1"/><rect fill="none" height="369.2969" rx="12.5" ry="12.5" style="stroke:#181818;stroke-width:0.5;" width="419" x="225.5" y="118"/><line style="stroke:#181818;stroke-width:0.5;" x1="225.5" x2="644.5" y1="144.2969" y2="144.2969"/><text fill="#000000" font-family="sans-serif" font-size="14" lengthAdjust="spacing" textLength="104.3848" x="382.8076" y="135.9951">verPreguntas()</text><g id="verPreguntas.MostrandoPreguntas"><rect fill="#F1F1F1" height="50" rx="12.5" ry="12.5" style="stroke:#181818;stroke-width:0.5;" width="50" x="237.5" y="246.2969"/><line style="stroke:#181818;stroke-width:0.5;" x1="237.5" x2="287.5" y1="272.5938" y2="272.5938"/><text fill="#000000" font-family="sans-serif" font-size="14" lengthAdjust="spacing" textLength="4.4502" x="260.2749" y="264.292">&#160;</text></g><g id="verPreguntas.FiltrandoPreguntas"><rect fill="#F1F1F1" height="50" rx="12.5" ry="12.5" style="stroke:#181818;stroke-width:0.5;" width="50" x="237.5" y="427.2969"/><line style="stroke:#181818;stroke-width:0.5;" x1="237.5" x2="287.5" y1="453.5938" y2="453.5938"/><text fill="#000000" font-family="sans-serif" font-size="14" lengthAdjust="spacing" textLength="4.4502" x="260.2749" y="445.292">&#160;</text></g><ellipse cx="262.5" cy="165.2969" fill="#222222" rx="10" ry="10" style="stroke:#222222;stroke-width:1;"/><!--link *start*verPreguntas to MostrandoPreguntas--><g class="link" data-entity-1=".start.verPreguntas" data-entity-2="MostrandoPreguntas" data-source-line="22" data-uid="lnk7" id="link_.start.verPreguntas_MostrandoPreguntas"><path d="M262.5,175.5269 C262.5,191.2369 262.5,217.6569 262.5,240.1669" fill="none" id="*start*verPreguntas-to-MostrandoPreguntas" style="stroke:#008000;stroke-width:1;"/><polygon fill="#008000" points="262.5,246.1669,266.5,237.1669,262.5,241.1669,258.5,237.1669,262.5,246.1669" style="stroke:#008000;stroke-width:1;"/><path d="M267.5,198.2969 L267.5,223.2969 L493.5,223.2969 L493.5,208.2969 L483.5,198.2969 L267.5,198.2969" fill="#FEFFDD" style="stroke:#181818;stroke-width:0.5;"/><path d="M483.5,198.2969 L483.5,208.2969 L493.5,208.2969 L483.5,198.2969" fill="#FEFFDD" style="stroke:#181818;stroke-width:0.5;"/><text fill="#000000" font-family="sans-serif" font-size="13" font-weight="bold" lengthAdjust="spacing" textLength="60.5313" x="273.5" y="215.3638">Docente</text><text fill="#000000" font-family="sans-serif" font-size="13" lengthAdjust="spacing" textLength="141.2354" x="338.1636" y="215.3638">solicita ver preguntas</text></g><!--link MostrandoPreguntas to FiltrandoPreguntas--><g class="link" data-entity-1="MostrandoPreguntas" data-entity-2="FiltrandoPreguntas" data-source-line="27" data-uid="lnk8" id="link_MostrandoPreguntas_FiltrandoPreguntas"><path d="M262.5,296.4369 C262.5,330.6969 262.5,387.0469 262.5,421.2569" fill="none" id="MostrandoPreguntas-to-FiltrandoPreguntas" style="stroke:#008000;stroke-width:1;"/><polygon fill="#008000" points="262.5,427.2569,266.5,418.2569,262.5,422.2569,258.5,418.2569,262.5,427.2569" style="stroke:#008000;stroke-width:1;"/><path d="M267.5,319.2969 L267.5,404.2969 L635.5,404.2969 L635.5,329.2969 L625.5,319.2969 L267.5,319.2969" fill="#FEFFDD" style="stroke:#181818;stroke-width:0.5;"/><path d="M625.5,319.2969 L625.5,329.2969 L635.5,329.2969 L625.5,319.2969" fill="#FEFFDD" style="stroke:#181818;stroke-width:0.5;"/><text fill="#000000" font-family="sans-serif" font-size="13" font-weight="bold" lengthAdjust="spacing" textLength="58.9063" x="273.5" y="336.3638">Sistema</text><text fill="#000000" font-family="sans-serif" font-size="13" lengthAdjust="spacing" textLength="179.5371" x="336.5386" y="336.3638">presenta lista de preguntas</text><text fill="#000000" font-family="sans-serif" font-size="13" lengthAdjust="spacing" textLength="347.4834" x="273.5" y="351.4966">&#8226; Enunciado, asignatura, tema, dificultad, respuestas</text><text fill="#000000" font-family="sans-serif" font-size="13" lengthAdjust="spacing" textLength="4.1323" x="273.5" y="366.6294">&#160;</text><text fill="#000000" font-family="sans-serif" font-size="13" font-weight="bold" lengthAdjust="spacing" textLength="158.1582" x="273.5" y="381.7622">Acciones disponibles:</text><text fill="#000000" font-family="sans-serif" font-size="13" lengthAdjust="spacing" textLength="81.4468" x="273.5" y="396.895">&#8226; Filtrar lista</text></g><!--link FiltrandoPreguntas to FiltrandoPreguntas--><g class="link" data-entity-1="FiltrandoPreguntas" data-entity-2="FiltrandoPreguntas" data-source-line="36" data-uid="lnk9" id="link_FiltrandoPreguntas_FiltrandoPreguntas"><path d="M287.68,435.4869 C297.41,434.7369 305.5,440.3469 305.5,452.2969 C305.5,464.2469 303.3923,470.318 293.6623,469.568" fill="none" id="FiltrandoPreguntas-to-FiltrandoPreguntas" style="stroke:#008000;stroke-width:1;"/><polygon fill="#008000" points="287.68,469.1069,296.346,473.7867,292.6652,469.4911,296.9608,465.8104,287.68,469.1069" style="stroke:#008000;stroke-width:1;"/><path d="M310.5,432.2969 L310.5,472.2969 L515.5,472.2969 L515.5,442.2969 L505.5,432.2969 L310.5,432.2969" fill="#FEFFDD" style="stroke:#181818;stroke-width:0.5;"/><path d="M505.5,432.2969 L505.5,442.2969 L515.5,442.2969 L505.5,432.2969" fill="#FEFFDD" style="stroke:#181818;stroke-width:0.5;"/><text fill="#000000" font-family="sans-serif" font-size="13" font-weight="bold" lengthAdjust="spacing" textLength="60.5313" x="316.5" y="449.3638">Docente</text><text fill="#000000" font-family="sans-serif" font-size="13" lengthAdjust="spacing" textLength="116.6509" x="381.1636" y="449.3638">solicita filtrar lista</text><text fill="#000000" font-family="sans-serif" font-size="13" font-weight="bold" lengthAdjust="spacing" textLength="58.9063" x="316.5" y="464.4966">Sistema</text><text fill="#000000" font-family="sans-serif" font-size="13" lengthAdjust="spacing" textLength="121.8433" x="379.5386" y="464.4966">permite filtrar lista</text></g><!--link ASIGNATURA_ABIERTO to verPreguntas--><g class="link" data-entity-1="ASIGNATURA_ABIERTO" data-entity-2="verPreguntas" data-source-line="12" data-uid="lnk2" id="link_ASIGNATURA_ABIERTO_verPreguntas"><path d="M127.29,57.06 C151.11,75.99 181.922,100.4579 220.442,131.0579" fill="none" id="ASIGNATURA_ABIERTO-to-verPreguntas" style="stroke:#008000;stroke-width:1;"/><polygon fill="#008000" points="225.14,134.79,220.581,126.0598,221.225,131.6799,215.6049,132.3239,225.14,134.79" style="stroke:#008000;stroke-width:1;"/></g><!--link SISTEMA_DISPONIBLE to verPreguntas--><g class="link" data-entity-1="SISTEMA_DISPONIBLE" data-entity-2="verPreguntas" data-source-line="13" data-uid="lnk3" id="link_SISTEMA_DISPONIBLE_verPreguntas"><path d="M319.49,57.3 C326.76,72.66 334.3239,88.6564 345.5939,112.4764" fill="none" id="SISTEMA_DISPONIBLE-to-verPreguntas" style="stroke:#008000;stroke-width:1;"/><polygon fill="#008000" points="348.16,117.9,347.9266,108.0539,346.0216,113.3803,340.6952,111.4753,348.16,117.9" style="stroke:#008000;stroke-width:1;"/></g><!--link PREGUNTA_CONTEXTUAL_ABIERTO to verPreguntas--><g class="link" data-entity-1="PREGUNTA_CONTEXTUAL_ABIERTO" data-entity-2="verPreguntas" data-source-line="14" data-uid="lnk4" id="link_PREGUNTA_CONTEXTUAL_ABIERTO_verPreguntas"><path d="M551.42,57.3 C544.09,72.66 536.4609,88.6635 525.1109,112.4835" fill="none" id="PREGUNTA_CONTEXTUAL_ABIERTO-to-verPreguntas" style="stroke:#008000;stroke-width:1;"/><polygon fill="#008000" points="522.53,117.9,530.0124,111.4958,524.6808,113.3862,522.7904,108.0546,522.53,117.9" style="stroke:#008000;stroke-width:1;"/></g><!--link PREGUNTA_ABIERTO to verPreguntas--><g class="link" data-entity-1="PREGUNTA_ABIERTO" data-entity-2="verPreguntas" data-source-line="15" data-uid="lnk5" id="link_PREGUNTA_ABIERTO_verPreguntas"><path d="M780.03,57.06 C748.15,79.65 702.4758,112.0114 649.7858,149.3414" fill="none" id="PREGUNTA_ABIERTO-to-verPreguntas" style="stroke:#008000;stroke-width:1;"/><polygon fill="#008000" points="644.89,152.81,654.5461,150.871,648.9698,149.9195,649.9213,144.3432,644.89,152.81" style="stroke:#008000;stroke-width:1;"/></g><!--link verPreguntas to PREGUNTAS_ABIERTO--><g class="link" data-entity-1="verPreguntas" data-entity-2="PREGUNTAS_ABIERTO" data-source-line="45" data-uid="lnk10" id="link_verPreguntas_PREGUNTAS_ABIERTO"><path d="M357.44,487.27 C339.03,530.88 324.0539,566.3825 313.5739,591.2025" fill="none" id="verPreguntas-to-PREGUNTAS_ABIERTO" style="stroke:#008000;stroke-width:1;"/><polygon fill="#008000" points="311.24,596.73,318.4258,589.9948,313.1849,592.1238,311.0559,586.8829,311.24,596.73" style="stroke:#008000;stroke-width:1;"/><path d="M350,529.5 L350,554.5 L505,554.5 L505,539.5 L495,529.5 L350,529.5" fill="#FEFFDD" style="stroke:#181818;stroke-width:0.5;"/><path d="M495,529.5 L495,539.5 L505,539.5 L495,529.5" fill="#FEFFDD" style="stroke:#181818;stroke-width:0.5;"/><text fill="#000000" font-family="sans-serif" font-size="13" lengthAdjust="spacing" textLength="134.4307" x="356" y="546.5669">Mostrar lista general</text></g><!--link verPreguntas to PREGUNTAS_CONTEXTUALES_ABIERTO--><g class="link" data-entity-1="verPreguntas" data-entity-2="PREGUNTAS_CONTEXTUALES_ABIERTO" data-source-line="51" data-uid="lnk11" id="link_verPreguntas_PREGUNTAS_CONTEXTUALES_ABIERTO"><path d="M513.14,487.27 C531.68,530.88 546.7829,566.3881 557.3329,591.2081" fill="none" id="verPreguntas-to-PREGUNTAS_CONTEXTUALES_ABIERTO" style="stroke:#008000;stroke-width:1;"/><polygon fill="#008000" points="559.68,596.73,559.8406,586.8825,557.7241,592.1284,552.4781,590.012,559.68,596.73" style="stroke:#008000;stroke-width:1;"/><path d="M550,522 L550,562 L769,562 L769,532 L759,522 L550,522" fill="#FEFFDD" style="stroke:#181818;stroke-width:0.5;"/><path d="M759,522 L759,532 L769,532 L759,522" fill="#FEFFDD" style="stroke:#181818;stroke-width:0.5;"/><text fill="#000000" font-family="sans-serif" font-size="13" lengthAdjust="spacing" textLength="154.064" x="556" y="539.0669">Mostrar lista contextual</text><text fill="#000000" font-family="sans-serif" font-size="13" lengthAdjust="spacing" textLength="198.4404" x="556" y="554.1997">(Preguntas de una asignatura)</text></g><!--SRC=[dLJRQjj047tNLmpkG-tYf3Hz2y6mYTKWI6HZoL08mQobjLWYxuhTLKaeXNvBt_lKJyYVz4iwAzcwsaceRg3PCsVEcHr9Ft2HKKMta7B1p5F689FfatrndFVmwHIcRCC5Z_Zp7m4n0rSR6aiDxgDXIaZjuBjXG0BlsYVXSa5MvD9p5-5ijn1uGUZUajNK2-OptxkySNSByuLxlVH3ihgQ-Q7xDLoIcqvgXJWS3ex6QqQt1g6RirC85HKQtKZ1T6773nTaIc0OIkignLkgvzy9i-jQfWWj_8wSlaCukNkNACR4_Sa4lZ4rLop9XQ7QwPi-ZdsX3sz8UXMvQqup1dWDce7XQ03V7GVmAD43F15qAxN1ViMofkjXll2qYob0Tn_kMwAES0c9L5BOwNie0XVhoLH6J1XsyN4zgRR06e2ibSf4NARZuLIFVfsMZ0DoZya8k3PiImiPM5cZ9ee0T6y7fwtbxyzVu8fSH1o7POnzuOcW9bTq39PZ337Vy2XFSPR6W5nPplG-Tr-FHFknv3gJWgzJfizjzQf2ALwL8bezg8dw1l_N_y5jsFGaT3l5r9OZsUOLhJ_i1ndGbCSKpixXYgfaZmRxzIcQEgsXRRhe_m9Q1iePwB9LzUl2dpk58uc67qt-jje7VpCl26cm3sjkdALSqCR8Z2gb_m00]--></g></svg>