<svg xmlns="http://www.w3.org/2000/svg" xmlns:xlink="http://www.w3.org/1999/xlink" contentStyleType="text/css" data-diagram-type="STATE" height="432px" preserveAspectRatio="none" style="width:494px;height:432px;background:#FFFFFF;" version="1.1" viewBox="0 0 494 432" width="494px" zoomAndPan="magnify"><defs/><g><g id="exportarConfiguracionGlobal"><rect fill="#F1F1F1" height="50" rx="12.5" ry="12.5" style="stroke:#181818;stroke-width:0.5;" width="221.7422" x="133" y="7"/><line style="stroke:#181818;stroke-width:0.5;" x1="133" x2="354.7422" y1="33.2969" y2="33.2969"/><text fill="#000000" font-family="sans-serif" font-size="14" lengthAdjust="spacing" textLength="201.7422" x="143" y="24.9951">exportarConfiguracionGlobal</text></g><path d="M19.5,117 L468.5,117 A12.5,12.5 0 0 1 481,129.5 L481,143.2969 L7,143.2969 L7,129.5 A12.5,12.5 0 0 1 19.5,117" fill="#F1F1F1"/><rect fill="none" height="309.2969" rx="12.5" ry="12.5" style="stroke:#181818;stroke-width:0.5;" width="474" x="7" y="117"/><line style="stroke:#181818;stroke-width:0.5;" x1="7" x2="481" y1="143.2969" y2="143.2969"/><text fill="#000000" font-family="sans-serif" font-size="14" lengthAdjust="spacing" textLength="153.9453" x="167.0273" y="134.9951">exportarAsignaturas()</text><g id="exportarAsignaturas.RequiringExport"><rect fill="#F1F1F1" height="50" rx="12.5" ry="12.5" style="stroke:#181818;stroke-width:0.5;" width="50" x="19" y="245.2969"/><line style="stroke:#181818;stroke-width:0.5;" x1="19" x2="69" y1="271.5938" y2="271.5938"/><text fill="#000000" font-family="sans-serif" font-size="14" lengthAdjust="spacing" textLength="4.4502" x="41.7749" y="263.292">&#160;</text></g><g id="exportarAsignaturas.ProvidingAsignaturas"><rect fill="#F1F1F1" height="50" rx="12.5" ry="12.5" style="stroke:#181818;stroke-width:0.5;" width="50" x="19" y="366.2969"/><line style="stroke:#181818;stroke-width:0.5;" x1="19" x2="69" y1="392.5938" y2="392.5938"/><text fill="#000000" font-family="sans-serif" font-size="14" lengthAdjust="spacing" textLength="4.4502" x="41.7749" y="384.292">&#160;</text></g><ellipse cx="44" cy="164.2969" fill="#222222" rx="10" ry="10" style="stroke:#222222;stroke-width:1;"/><!--link *start*exportarAsignaturas to RequiringExport--><g class="link" data-entity-1=".start.exportarAsignaturas" data-entity-2="RequiringExport" data-source-line="10" data-uid="lnk3" id="link_.start.exportarAsignaturas_RequiringExport"><path d="M44,174.5269 C44,190.2369 44,216.6569 44,239.1669" fill="none" id="*start*exportarAsignaturas-to-RequiringExport" style="stroke:#008000;stroke-width:1;"/><polygon fill="#008000" points="44,245.1669,48,236.1669,44,240.1669,40,236.1669,44,245.1669" style="stroke:#008000;stroke-width:1;"/><path d="M49,197.2969 L49,222.2969 L472,222.2969 L472,207.2969 L462,197.2969 L49,197.2969" fill="#FEFFDD" style="stroke:#181818;stroke-width:0.5;"/><path d="M462,197.2969 L462,207.2969 L472,207.2969 L462,197.2969" fill="#FEFFDD" style="stroke:#181818;stroke-width:0.5;"/><text fill="#000000" font-family="sans-serif" font-size="13" font-weight="bold" lengthAdjust="spacing" textLength="211.7705" x="55" y="214.3638">exportarConfiguracionGlobal</text><text fill="#000000" font-family="sans-serif" font-size="13" lengthAdjust="spacing" textLength="186.8433" x="270.9028" y="214.3638">solicita exportar Asignaturas</text></g><!--link RequiringExport to ProvidingAsignaturas--><g class="link" data-entity-1="RequiringExport" data-entity-2="ProvidingAsignaturas" data-source-line="15" data-uid="lnk4" id="link_RequiringExport_ProvidingAsignaturas"><path d="M44,295.3769 C44,316.0269 44,339.6169 44,360.2469" fill="none" id="RequiringExport-to-ProvidingAsignaturas" style="stroke:#008000;stroke-width:1;"/><polygon fill="#008000" points="44,366.2469,48,357.2469,44,361.2469,40,357.2469,44,366.2469" style="stroke:#008000;stroke-width:1;"/><path d="M49,318.2969 L49,343.2969 L325,343.2969 L325,328.2969 L315,318.2969 L49,318.2969" fill="#FEFFDD" style="stroke:#181818;stroke-width:0.5;"/><path d="M315,318.2969 L315,328.2969 L325,328.2969 L315,318.2969" fill="#FEFFDD" style="stroke:#181818;stroke-width:0.5;"/><text fill="#000000" font-family="sans-serif" font-size="13" font-weight="bold" lengthAdjust="spacing" textLength="58.9063" x="55" y="335.3638">Sistema</text><text fill="#000000" font-family="sans-serif" font-size="13" lengthAdjust="spacing" textLength="192.0356" x="118.0386" y="335.3638">permite exportar Asignaturas</text></g><!--link exportarConfiguracionGlobal to exportarAsignaturas--><g class="link" data-entity-1="exportarConfiguracionGlobal" data-entity-2="exportarAsignaturas" data-source-line="22" data-uid="lnk5" id="link_exportarConfiguracionGlobal_exportarAsignaturas"><path d="M244,57.08 C244,72.41 244,87.71 244,110.97" fill="none" id="exportarConfiguracionGlobal-to-exportarAsignaturas" style="stroke:#008000;stroke-width:1;"/><polygon fill="#008000" points="244,116.97,248,107.97,244,111.97,240,107.97,244,116.97" style="stroke:#008000;stroke-width:1;"/></g><!--SRC=[VP71QiCm38RlVWgHNhP1w0kKG1bZrx8UImzAgmPHH_9ijxIKlVkS18RRfP5Fbdzz-cM58uj3ZorO5efNH-3KNhkBCI5Y9A2BKn_HlwiSk3bvtB7AfzKQBM20OkAzU6Gi0pU2COd2NMsMVtaju6OCf1XgYtIIzek-J-nPce- -vhzWvVNC-oJ8O0DdyxQ5SZDhF95ioseK9Pf8Ajqt7Fl4eguc9blCwmg2MjvnnB_n86_TGKZs0pd5uEMXzvslqGcUcLjpYDHYRyIHRpdxvgS-ZFanPcgXkPsHvVm2]--></g></svg>