<?plantuml 1.2026.2?><svg xmlns="http://www.w3.org/2000/svg" xmlns:xlink="http://www.w3.org/1999/xlink" contentStyleType="text/css" data-diagram-type="DESCRIPTION" height="620px" preserveAspectRatio="none" style="width:1013px;height:620px;background:#FFFFFF;" version="1.1" viewBox="0 0 1013 620" width="1013px" zoomAndPan="magnify"><defs/><g><!--cluster eliminarAsignatura--><g class="cluster" data-qualified-name="eliminarAsignatura" data-source-line="7" id="ent0005"><path d="M8.5,106 L173.5078,106 A3.75,3.75 0 0 1 176.0078,108.5 L183.0078,128.2969 L760.5,128.2969 A2.5,2.5 0 0 1 763,130.7969 L763,610.5 A2.5,2.5 0 0 1 760.5,613 L8.5,613 A2.5,2.5 0 0 1 6,610.5 L6,108.5 A2.5,2.5 0 0 1 8.5,106" fill="none" style="stroke:#000000;stroke-width:1.5;"/><line style="stroke:#000000;stroke-width:1.5;" x1="6" x2="183.0078" y1="128.2969" y2="128.2969"/><text fill="#000000" font-family="sans-serif" font-size="14" font-weight="bold" lengthAdjust="spacing" textLength="164.0078" x="10" y="120.9951">eliminarAsignatura()</text></g><!--entity EliminarAsignaturaView--><g class="entity" data-qualified-name="eliminarAsignatura.EliminarAsignaturaView" data-source-line="8" id="ent0006"><rect fill="#629EF9" height="36.2969" rx="2.5" ry="2.5" style="stroke:#181818;stroke-width:0.5;" width="186.6875" x="396.5" y="141"/><text fill="#000000" font-family="sans-serif" font-size="14" lengthAdjust="spacing" textLength="166.6875" x="406.5" y="163.9951">EliminarAsignaturaView</text></g><!--entity AsignaturasController--><g class="entity" data-qualified-name="eliminarAsignatura.AsignaturasController" data-source-line="9" id="ent0007"><rect fill="#B5BD68" height="36.2969" rx="2.5" ry="2.5" style="stroke:#181818;stroke-width:0.5;" width="172.2637" x="146" y="254"/><text fill="#000000" font-family="sans-serif" font-size="14" lengthAdjust="spacing" textLength="152.2637" x="156" y="276.9951">AsignaturasController</text></g><!--entity AsignaturaRepository--><g class="entity" data-qualified-name="eliminarAsignatura.AsignaturaRepository" data-source-line="10" id="ent0008"><rect fill="#F2AC4E" height="36.2969" rx="2.5" ry="2.5" style="stroke:#181818;stroke-width:0.5;" width="170.8691" x="196.5" y="367"/><text fill="#000000" font-family="sans-serif" font-size="14" lengthAdjust="spacing" textLength="150.8691" x="206.5" y="389.9951">AsignaturaRepository</text></g><!--entity Asignatura--><g class="entity" data-qualified-name="eliminarAsignatura.Asignatura" data-source-line="11" id="ent0009"><rect fill="#F2AC4E" height="36.2969" rx="2.5" ry="2.5" style="stroke:#181818;stroke-width:0.5;" width="95.7969" x="234" y="464"/><text fill="#000000" font-family="sans-serif" font-size="14" lengthAdjust="spacing" textLength="75.7969" x="244" y="486.9951">Asignatura</text></g><!--entity Grado--><g class="entity" data-qualified-name="eliminarAsignatura.Grado" data-source-line="12" id="ent0010"><rect fill="#F2AC4E" height="36.2969" rx="2.5" ry="2.5" style="stroke:#181818;stroke-width:0.5;" width="62.6357" x="147.5" y="561"/><text fill="#000000" font-family="sans-serif" font-size="14" lengthAdjust="spacing" textLength="42.6357" x="157.5" y="583.9951">Grado</text></g><!--entity Alumno--><g class="entity" data-qualified-name="eliminarAsignatura.Alumno" data-source-line="13" id="ent0011"><rect fill="#F2AC4E" height="36.2969" rx="2.5" ry="2.5" style="stroke:#181818;stroke-width:0.5;" width="73.416" x="245.5" y="561"/><text fill="#000000" font-family="sans-serif" font-size="14" lengthAdjust="spacing" textLength="53.416" x="255.5" y="583.9951">Alumno</text></g><!--entity Pregunta--><g class="entity" data-qualified-name="eliminarAsignatura.Pregunta" data-source-line="14" id="ent0012"><rect fill="#F2AC4E" height="36.2969" rx="2.5" ry="2.5" style="stroke:#181818;stroke-width:0.5;" width="83.5127" x="354" y="561"/><text fill="#000000" font-family="sans-serif" font-size="14" lengthAdjust="spacing" textLength="63.5127" x="364" y="583.9951">Pregunta</text></g><!--entity AsignaturasAbierto--><g class="entity" data-qualified-name="AsignaturasAbierto" data-source-line="3" id="ent0002"><rect fill="#CDEBA5" height="36.2969" rx="2.5" ry="2.5" style="stroke:#181818;stroke-width:0.5;" width="193.6533" x="265" y="7"/><text fill="#000000" font-family="sans-serif" font-size="14" lengthAdjust="spacing" textLength="173.6533" x="275" y="29.9951">:ASIGNATURAS_ABIERTO</text></g><!--entity AsignaturaAbierto--><g class="entity" data-qualified-name="AsignaturaAbierto" data-source-line="4" id="ent0003"><rect fill="#CDEBA5" height="36.2969" rx="2.5" ry="2.5" style="stroke:#181818;stroke-width:0.5;" width="184.7666" x="526.5" y="7"/><text fill="#000000" font-family="sans-serif" font-size="14" lengthAdjust="spacing" textLength="164.7666" x="536.5" y="29.9951">:ASIGNATURA_ABIERTO</text></g><!--entity VerAsignaturas--><g class="entity" data-qualified-name="VerAsignaturas" data-source-line="5" id="ent0004"><rect fill="#CDEBA5" height="36.2969" rx="2.5" ry="2.5" style="stroke:#181818;stroke-width:0.5;" width="228.2158" x="779" y="254"/><text fill="#000000" font-family="sans-serif" font-size="14" lengthAdjust="spacing" textLength="208.2158" x="789" y="276.9951">:Collaboration verAsignaturas</text></g><!--link AsignaturasAbierto to EliminarAsignaturaView--><g class="link" data-entity-1="ent0002" data-entity-2="ent0006" data-link-type="dependency" data-source-line="17" id="lnk13"><path d="M360.9,43.23 C360.04,56.65 359,73 359,73 C359,73 359,90 359,90 C359,90 412.8147,117.9358 451.6147,138.0758" fill="none" id="AsignaturasAbierto-to-EliminarAsignaturaView" style="stroke:#181818;stroke-width:1;"/><polygon fill="#181818" points="456.94,140.84,450.7948,133.1434,452.5022,138.5365,447.1092,140.2439,456.94,140.84" style="stroke:#181818;stroke-width:1;"/><text fill="#000000" font-family="sans-serif" font-size="13" lengthAdjust="spacing" textLength="215.1157" x="360" y="86.0669">eliminarAsignatura(asignaturaId)</text></g><!--link AsignaturaAbierto to EliminarAsignaturaView--><g class="link" data-entity-1="ent0003" data-entity-2="ent0006" data-link-type="dependency" data-source-line="18" id="lnk14"><path d="M608.55,43.15 C597,62.11 580,90 580,90 C580,90 544.1575,117.0834 517.4975,137.2234" fill="none" id="AsignaturaAbierto-to-EliminarAsignaturaView" style="stroke:#181818;stroke-width:1;"/><polygon fill="#181818" points="512.71,140.84,522.3023,138.6067,516.6996,137.8261,517.4801,132.2234,512.71,140.84" style="stroke:#181818;stroke-width:1;"/><text fill="#000000" font-family="sans-serif" font-size="13" lengthAdjust="spacing" textLength="215.1157" x="590" y="86.0669">eliminarAsignatura(asignaturaId)</text></g><!--link EliminarAsignaturaView to AsignaturasController--><g class="link" data-entity-1="ent0006" data-entity-2="ent0007" data-link-type="dependency" data-source-line="20" id="lnk15"><path d="M396.47,170.08 C268.36,183.89 54,207 54,207 C54,207 54,224 54,224 C54,224 110.7491,238.9772 161.6891,252.4372" fill="none" id="EliminarAsignaturaView-to-AsignaturasController" style="stroke:#181818;stroke-width:1;"/><polygon fill="#181818" points="167.49,253.97,159.8105,247.8035,162.6559,252.6927,157.7668,255.5381,167.49,253.97" style="stroke:#181818;stroke-width:1;"/><text fill="#000000" font-family="sans-serif" font-size="13" lengthAdjust="spacing" textLength="391.1045" x="55" y="220.0669">cargarAsignaturaParaEliminacion(asignaturaId) : Asignatura</text></g><!--link EliminarAsignaturaView to AsignaturasController--><g class="link" data-entity-1="ent0006" data-entity-2="ent0007" data-link-type="dependency" data-source-line="30" id="lnk21"><path d="M479.55,177.15 C468,196.11 451,224 451,224 C451,224 379.9163,239.2503 317.2363,252.7103" fill="none" id="EliminarAsignaturaView-to-AsignaturasController-1" style="stroke:#181818;stroke-width:1;"/><polygon fill="#181818" points="311.37,253.97,321.0092,255.9912,316.2586,252.9202,319.3296,248.1696,311.37,253.97" style="stroke:#181818;stroke-width:1;"/><text fill="#000000" font-family="sans-serif" font-size="13" lengthAdjust="spacing" textLength="255.271" x="461" y="220.0669">eliminarAsignatura(asignaturaId) : void</text></g><!--link AsignaturasController to AsignaturaRepository--><g class="link" data-entity-1="ent0007" data-entity-2="ent0008" data-link-type="dependency" data-source-line="22" id="lnk16"><path d="M185.43,290.1 C148.83,303.54 104,320 104,320 C104,320 104,337 104,337 C104,337 160.7491,351.9772 211.6891,365.4372" fill="none" id="AsignaturasController-to-AsignaturaRepository" style="stroke:#181818;stroke-width:1;"/><polygon fill="#181818" points="217.49,366.97,209.8105,360.8035,212.6559,365.6927,207.7668,368.5381,217.49,366.97" style="stroke:#181818;stroke-width:1;"/><text fill="#000000" font-family="sans-serif" font-size="13" lengthAdjust="spacing" textLength="258.8193" x="105" y="333.0669">obtenerPorId(asignaturaId) : Asignatura</text></g><!--link AsignaturasController to AsignaturaRepository--><g class="link" data-entity-1="ent0007" data-entity-2="ent0008" data-link-type="dependency" data-source-line="32" id="lnk22"><path d="M281.48,290.1 C320.37,303.54 368,320 368,320 C368,320 368,337 368,337 C368,337 343.3447,350.4721 318.7947,363.8921" fill="none" id="AsignaturasController-to-AsignaturaRepository-1" style="stroke:#181818;stroke-width:1;"/><polygon fill="#181818" points="313.53,366.77,323.3457,365.963,317.9173,364.3717,319.5085,358.9433,313.53,366.77" style="stroke:#181818;stroke-width:1;"/><text fill="#000000" font-family="sans-serif" font-size="13" lengthAdjust="spacing" textLength="184.8882" x="369" y="333.0669">eliminar(asignaturaId) : void</text></g><!--link AsignaturaRepository to Asignatura--><g class="link" data-entity-1="ent0008" data-entity-2="ent0009" data-link-type="association" data-source-line="24" id="lnk17"><path d="M282,403.42 C282,420.57 282,446.58 282,463.69" fill="none" id="AsignaturaRepository-Asignatura" style="stroke:#181818;stroke-width:1;"/></g><!--link Asignatura to Grado--><g class="link" data-entity-1="ent0009" data-entity-2="ent0010" data-link-type="association" data-source-line="26" id="lnk18"><path d="M263.11,500.42 C244.52,517.57 216.32,543.58 197.77,560.69" fill="none" id="Asignatura-Grado" style="stroke:#181818;stroke-width:1;"/></g><!--link Asignatura to Alumno--><g class="link" data-entity-1="ent0009" data-entity-2="ent0011" data-link-type="association" data-source-line="27" id="lnk19"><path d="M282,500.42 C282,517.57 282,543.58 282,560.69" fill="none" id="Asignatura-Alumno" style="stroke:#181818;stroke-width:1;"/></g><!--link Asignatura to Pregunta--><g class="link" data-entity-1="ent0009" data-entity-2="ent0012" data-link-type="association" data-source-line="28" id="lnk20"><path d="M302.64,500.2 C323.31,517.42 354.9,543.75 375.51,560.92" fill="none" id="Asignatura-Pregunta" style="stroke:#181818;stroke-width:1;"/></g><!--link EliminarAsignaturaView to VerAsignaturas--><g class="link" data-entity-1="ent0006" data-entity-2="ent0004" data-link-type="dependency" data-source-line="34" id="lnk23"><path d="M575.17,177.03 C642.43,190.49 725,207 725,207 C725,207 792.6132,232.7537 842.3732,251.7137" fill="none" id="EliminarAsignaturaView-to-VerAsignaturas" style="stroke:#181818;stroke-width:1;stroke-dasharray:7,7;"/><polygon fill="#181818" points="847.98,253.85,840.9941,246.9076,843.3077,252.0697,838.1456,254.3833,847.98,253.85" style="stroke:#181818;stroke-width:1;"/><text fill="#000000" font-family="sans-serif" font-size="13" lengthAdjust="spacing" textLength="175.4746" x="766" y="220.0669">&#171;include&#187; verAsignaturas()</text></g><?plantuml-src fLJHRe8m57tlLzom5ttG1pFD98QaCZIyR4OtNvS2DwInjgGK5xFituVEEGGwjumdkFUSSzjpIlCDbndJR0k2IpJx325JOd_u84HZR9XC1SADVnzCwH0Sbwx2-GDzUbxIrGkTXi7owT41bWFDUIgPAJJBQSHH6tM5Rc7_HFQL42nIcXck9EnGLuOUPTON9K8o5czOYe22RxbabUO1xJJBdQu3RmJAfp9_D1W7ip443VIQusiT70sZP7HNjSDNqkXovQZhsDc0-hT11Rl4JENSABs_2hK0vfeboaOMnLRQcWkDQI4D8--4DBE4Ni-p6E2skDjXvzSmwP96kl-J8-rCw2MbQglnBiHCfrN2eZpp9vcuF4oN4y2j6arQ9OzRQ4lE1HKPbAWNIeV9BuM_wQMk1NFeVCPxMJl5Ubaynsaro-xLjG3ANUmKJ_vkp9UmHSwoqdxVg_tOBamcNCQYID3pQlT0f_i1?></g></svg>