<svg xmlns="http://www.w3.org/2000/svg" xmlns:xlink="http://www.w3.org/1999/xlink" contentStyleType="text/css" data-diagram-type="DESCRIPTION" height="523px" preserveAspectRatio="none" style="width:1013px;height:523px;background:#FFFFFF;" version="1.1" viewBox="0 0 1013 523" width="1013px" zoomAndPan="magnify"><defs/><g><!--cluster eliminarAsignatura--><g class="cluster" data-entity="eliminarAsignatura" data-source-line="7" data-uid="ent0005" id="cluster_eliminarAsignatura"><path d="M8.5,106 L173.5078,106 A3.75,3.75 0 0 1 176.0078,108.5 L183.0078,128.2969 L760.5,128.2969 A2.5,2.5 0 0 1 763,130.7969 L763,513.5 A2.5,2.5 0 0 1 760.5,516 L8.5,516 A2.5,2.5 0 0 1 6,513.5 L6,108.5 A2.5,2.5 0 0 1 8.5,106" fill="none" style="stroke:#000000;stroke-width:1.5;"/><line style="stroke:#000000;stroke-width:1.5;" x1="6" x2="183.0078" y1="128.2969" y2="128.2969"/><text fill="#000000" font-family="sans-serif" font-size="14" font-weight="bold" lengthAdjust="spacing" textLength="164.0078" x="10" y="120.9951">eliminarAsignatura()</text></g><!--entity EliminarAsignaturaView--><g class="entity" data-entity="EliminarAsignaturaView" data-source-line="8" data-uid="ent0006" id="entity_EliminarAsignaturaView"><rect fill="#629EF9" height="36.2969" rx="2.5" ry="2.5" style="stroke:#181818;stroke-width:0.5;" width="186.6875" x="396.5" y="141"/><text fill="#000000" font-family="sans-serif" font-size="14" lengthAdjust="spacing" textLength="166.6875" x="406.5" y="163.9951">EliminarAsignaturaView</text></g><!--entity AsignaturasController--><g class="entity" data-entity="AsignaturasController" data-source-line="9" data-uid="ent0007" id="entity_AsignaturasController"><rect fill="#B5BD68" height="36.2969" rx="2.5" ry="2.5" style="stroke:#181818;stroke-width:0.5;" width="172.2637" x="146" y="254"/><text fill="#000000" font-family="sans-serif" font-size="14" lengthAdjust="spacing" textLength="152.2637" x="156" y="276.9951">AsignaturasController</text></g><!--entity AsignaturaRepository--><g class="entity" data-entity="AsignaturaRepository" data-source-line="10" data-uid="ent0008" id="entity_AsignaturaRepository"><rect fill="#F2AC4E" height="36.2969" rx="2.5" ry="2.5" style="stroke:#181818;stroke-width:0.5;" width="170.8691" x="159.5" y="367"/><text fill="#000000" font-family="sans-serif" font-size="14" lengthAdjust="spacing" textLength="150.8691" x="169.5" y="389.9951">AsignaturaRepository</text></g><!--entity Asignatura--><g class="entity" data-entity="Asignatura" data-source-line="11" data-uid="ent0009" id="entity_Asignatura"><rect fill="#F2AC4E" height="36.2969" rx="2.5" ry="2.5" style="stroke:#181818;stroke-width:0.5;" width="95.7969" x="197" y="464"/><text fill="#000000" font-family="sans-serif" font-size="14" lengthAdjust="spacing" textLength="75.7969" x="207" y="486.9951">Asignatura</text></g><!--entity AsignaturasAbierto--><g class="entity" data-entity="AsignaturasAbierto" data-source-line="3" data-uid="ent0002" id="entity_AsignaturasAbierto"><rect fill="#CDEBA5" height="36.2969" rx="2.5" ry="2.5" style="stroke:#181818;stroke-width:0.5;" width="193.6533" x="265" y="7"/><text fill="#000000" font-family="sans-serif" font-size="14" lengthAdjust="spacing" textLength="173.6533" x="275" y="29.9951">:ASIGNATURAS_ABIERTO</text></g><!--entity AsignaturaAbierto--><g class="entity" data-entity="AsignaturaAbierto" data-source-line="4" data-uid="ent0003" id="entity_AsignaturaAbierto"><rect fill="#CDEBA5" height="36.2969" rx="2.5" ry="2.5" style="stroke:#181818;stroke-width:0.5;" width="184.7666" x="526.5" y="7"/><text fill="#000000" font-family="sans-serif" font-size="14" lengthAdjust="spacing" textLength="164.7666" x="536.5" y="29.9951">:ASIGNATURA_ABIERTO</text></g><!--entity VerAsignaturas--><g class="entity" data-entity="VerAsignaturas" data-source-line="5" data-uid="ent0004" id="entity_VerAsignaturas"><rect fill="#CDEBA5" height="36.2969" rx="2.5" ry="2.5" style="stroke:#181818;stroke-width:0.5;" width="228.2158" x="779" y="254"/><text fill="#000000" font-family="sans-serif" font-size="14" lengthAdjust="spacing" textLength="208.2158" x="789" y="276.9951">:Collaboration verAsignaturas</text></g><!--link AsignaturasAbierto to EliminarAsignaturaView--><g class="link" data-entity-1="AsignaturasAbierto" data-entity-2="EliminarAsignaturaView" data-source-line="14" data-uid="lnk10" id="link_AsignaturasAbierto_EliminarAsignaturaView"><path d="M360.9,43.23 C360.04,56.65 359,73 359,73 C359,73 359,90 359,90 C359,90 412.8147,117.9358 451.6147,138.0758" fill="none" id="AsignaturasAbierto-to-EliminarAsignaturaView" style="stroke:#181818;stroke-width:1;"/><polygon fill="#181818" points="456.94,140.84,450.7948,133.1434,452.5022,138.5365,447.1092,140.2439,456.94,140.84" style="stroke:#181818;stroke-width:1;"/><text fill="#000000" font-family="sans-serif" font-size="13" lengthAdjust="spacing" textLength="215.1157" x="360" y="86.0669">eliminarAsignatura(asignaturaId)</text></g><!--link AsignaturaAbierto to EliminarAsignaturaView--><g class="link" data-entity-1="AsignaturaAbierto" data-entity-2="EliminarAsignaturaView" data-source-line="15" data-uid="lnk11" id="link_AsignaturaAbierto_EliminarAsignaturaView"><path d="M608.55,43.15 C597,62.11 580,90 580,90 C580,90 544.1575,117.0834 517.4975,137.2234" fill="none" id="AsignaturaAbierto-to-EliminarAsignaturaView" style="stroke:#181818;stroke-width:1;"/><polygon fill="#181818" points="512.71,140.84,522.3023,138.6067,516.6996,137.8261,517.4801,132.2234,512.71,140.84" style="stroke:#181818;stroke-width:1;"/><text fill="#000000" font-family="sans-serif" font-size="13" lengthAdjust="spacing" textLength="215.1157" x="590" y="86.0669">eliminarAsignatura(asignaturaId)</text></g><!--link EliminarAsignaturaView to AsignaturasController--><g class="link" data-entity-1="EliminarAsignaturaView" data-entity-2="AsignaturasController" data-source-line="17" data-uid="lnk12" id="link_EliminarAsignaturaView_AsignaturasController"><path d="M396.47,170.08 C268.36,183.89 54,207 54,207 C54,207 54,224 54,224 C54,224 110.7491,238.9772 161.6891,252.4372" fill="none" id="EliminarAsignaturaView-to-AsignaturasController" style="stroke:#181818;stroke-width:1;"/><polygon fill="#181818" points="167.49,253.97,159.8105,247.8035,162.6559,252.6927,157.7668,255.5381,167.49,253.97" style="stroke:#181818;stroke-width:1;"/><text fill="#000000" font-family="sans-serif" font-size="13" lengthAdjust="spacing" textLength="391.1045" x="55" y="220.0669">cargarAsignaturaParaEliminacion(asignaturaId) : Asignatura</text></g><!--link EliminarAsignaturaView to AsignaturasController--><g class="link" data-entity-1="EliminarAsignaturaView" data-entity-2="AsignaturasController" data-source-line="23" data-uid="lnk15" id="link_EliminarAsignaturaView_AsignaturasController"><path d="M479.55,177.15 C468,196.11 451,224 451,224 C451,224 379.9163,239.2503 317.2363,252.7103" fill="none" id="EliminarAsignaturaView-to-AsignaturasController-1" style="stroke:#181818;stroke-width:1;"/><polygon fill="#181818" points="311.37,253.97,321.0092,255.9912,316.2586,252.9202,319.3296,248.1696,311.37,253.97" style="stroke:#181818;stroke-width:1;"/><text fill="#000000" font-family="sans-serif" font-size="13" lengthAdjust="spacing" textLength="255.271" x="461" y="220.0669">eliminarAsignatura(asignaturaId) : void</text></g><!--link AsignaturasController to AsignaturaRepository--><g class="link" data-entity-1="AsignaturasController" data-entity-2="AsignaturaRepository" data-source-line="19" data-uid="lnk13" id="link_AsignaturasController_AsignaturaRepository"><path d="M176.33,290.1 C132.58,303.54 79,320 79,320 C79,320 79,337 79,337 C79,337 131.367,351.8252 178.827,365.2652" fill="none" id="AsignaturasController-to-AsignaturaRepository" style="stroke:#181818;stroke-width:1;"/><polygon fill="#181818" points="184.6,366.9,177.0304,360.5991,179.7892,365.5376,174.8506,368.2964,184.6,366.9" style="stroke:#181818;stroke-width:1;"/><text fill="#000000" font-family="sans-serif" font-size="13" lengthAdjust="spacing" textLength="258.8193" x="80" y="333.0669">obtenerPorId(asignaturaId) : Asignatura</text></g><!--link AsignaturasController to AsignaturaRepository--><g class="link" data-entity-1="AsignaturasController" data-entity-2="AsignaturaRepository" data-source-line="25" data-uid="lnk16" id="link_AsignaturasController_AsignaturaRepository"><path d="M272.39,290.1 C304.13,303.54 343,320 343,320 C343,320 343,337 343,337 C343,337 314.0899,350.8651 286.0699,364.3051" fill="none" id="AsignaturasController-to-AsignaturaRepository-1" style="stroke:#181818;stroke-width:1;"/><polygon fill="#181818" points="280.66,366.9,290.5047,366.6143,285.1682,364.7376,287.0449,359.4011,280.66,366.9" style="stroke:#181818;stroke-width:1;"/><text fill="#000000" font-family="sans-serif" font-size="13" lengthAdjust="spacing" textLength="184.8882" x="344" y="333.0669">eliminar(asignaturaId) : void</text></g><!--link AsignaturaRepository to Asignatura--><g class="link" data-entity-1="AsignaturaRepository" data-entity-2="Asignatura" data-source-line="21" data-uid="lnk14" id="link_AsignaturaRepository_Asignatura"><path d="M245,403.42 C245,420.57 245,446.58 245,463.69" fill="none" id="AsignaturaRepository-Asignatura" style="stroke:#181818;stroke-width:1;"/></g><!--link EliminarAsignaturaView to VerAsignaturas--><g class="link" data-entity-1="EliminarAsignaturaView" data-entity-2="VerAsignaturas" data-source-line="27" data-uid="lnk17" id="link_EliminarAsignaturaView_VerAsignaturas"><path d="M575.17,177.03 C642.43,190.49 725,207 725,207 C725,207 792.6132,232.7537 842.3732,251.7137" fill="none" id="EliminarAsignaturaView-to-VerAsignaturas" style="stroke:#181818;stroke-width:1;stroke-dasharray:7,7;"/><polygon fill="#181818" points="847.98,253.85,840.9941,246.9076,843.3077,252.0697,838.1456,254.3833,847.98,253.85" style="stroke:#181818;stroke-width:1;"/><text fill="#000000" font-family="sans-serif" font-size="13" lengthAdjust="spacing" textLength="175.4746" x="766" y="220.0669">&#171;include&#187; verAsignaturas()</text></g><!--SRC=[fPDVJy8m5CNV-obkvWiym0CH8WjPKkOmUr42oAlfjfkbeRHBLp34-DqjHANiZsZSqzQUyxltdgxbXik2QRO5mIMQGu5GA74uVX2YCJLCvWBX9hoFfdG8da-NySCZNJqlwFA5JkDeiNhoW9L0IvvBPdQQbJJXg8swOczn_sGEbH0iKPePhYJiKJj5JvZrnH8X1KitB4T0mRTSCcVpgFRgovsk1sy4xEFK7mt6qMmCKKszvlXQ5IV391lTkN64IXfjEqTTrSu6DBoD7Eq22rLoe_JXgfIy4rBF77gzeALHlo653lj-ZRCkgPt2_t2asGczp58R0_8XPJft3NFxRtvYKdlebnN0TmCXZSZJ24q9-w0IWnBrNEau-oNuRBVS2qtRhEsZNilFDh5NFFlxN5_W5bnBf_r-KBa_FamcNAPYbs4GLAvRf_i1]--></g></svg>