<svg xmlns="http://www.w3.org/2000/svg" xmlns:xlink="http://www.w3.org/1999/xlink" contentStyleType="text/css" data-diagram-type="DESCRIPTION" height="523px" preserveAspectRatio="none" style="width:885px;height:523px;background:#FFFFFF;" version="1.1" viewBox="0 0 885 523" width="885px" zoomAndPan="magnify"><defs/><g><!--cluster eliminarAlumno--><g class="cluster" data-entity="eliminarAlumno" data-source-line="7" data-uid="ent0005" id="cluster_eliminarAlumno"><path d="M8.5,106 L146.8682,106 A3.75,3.75 0 0 1 149.3682,108.5 L156.3682,128.2969 L655.5,128.2969 A2.5,2.5 0 0 1 658,130.7969 L658,513.5 A2.5,2.5 0 0 1 655.5,516 L8.5,516 A2.5,2.5 0 0 1 6,513.5 L6,108.5 A2.5,2.5 0 0 1 8.5,106" fill="none" style="stroke:#000000;stroke-width:1.5;"/><line style="stroke:#000000;stroke-width:1.5;" x1="6" x2="156.3682" y1="128.2969" y2="128.2969"/><text fill="#000000" font-family="sans-serif" font-size="14" font-weight="bold" lengthAdjust="spacing" textLength="137.3682" x="10" y="120.9951">eliminarAlumno()</text></g><!--entity EliminarAlumnoView--><g class="entity" data-entity="EliminarAlumnoView" data-source-line="8" data-uid="ent0006" id="entity_EliminarAlumnoView"><rect fill="#629EF9" height="36.2969" rx="2.5" ry="2.5" style="stroke:#181818;stroke-width:0.5;" width="164.3066" x="345" y="141"/><text fill="#000000" font-family="sans-serif" font-size="14" lengthAdjust="spacing" textLength="144.3066" x="355" y="163.9951">EliminarAlumnoView</text></g><!--entity AlumnosController--><g class="entity" data-entity="AlumnosController" data-source-line="9" data-uid="ent0007" id="entity_AlumnosController"><rect fill="#B5BD68" height="36.2969" rx="2.5" ry="2.5" style="stroke:#181818;stroke-width:0.5;" width="149.8828" x="131" y="254"/><text fill="#000000" font-family="sans-serif" font-size="14" lengthAdjust="spacing" textLength="129.8828" x="141" y="276.9951">AlumnosController</text></g><!--entity AlumnoRepository--><g class="entity" data-entity="AlumnoRepository" data-source-line="10" data-uid="ent0008" id="entity_AlumnoRepository"><rect fill="#F2AC4E" height="36.2969" rx="2.5" ry="2.5" style="stroke:#181818;stroke-width:0.5;" width="148.4883" x="141" y="367"/><text fill="#000000" font-family="sans-serif" font-size="14" lengthAdjust="spacing" textLength="128.4883" x="151" y="389.9951">AlumnoRepository</text></g><!--entity Alumno--><g class="entity" data-entity="Alumno" data-source-line="11" data-uid="ent0009" id="entity_Alumno"><rect fill="#F2AC4E" height="36.2969" rx="2.5" ry="2.5" style="stroke:#181818;stroke-width:0.5;" width="73.416" x="178.5" y="464"/><text fill="#000000" font-family="sans-serif" font-size="14" lengthAdjust="spacing" textLength="53.416" x="188.5" y="486.9951">Alumno</text></g><!--entity AlumnosAbierto--><g class="entity" data-entity="AlumnosAbierto" data-source-line="3" data-uid="ent0002" id="entity_AlumnosAbierto"><rect fill="#CDEBA5" height="36.2969" rx="2.5" ry="2.5" style="stroke:#181818;stroke-width:0.5;" width="163.2539" x="238.5" y="7"/><text fill="#000000" font-family="sans-serif" font-size="14" lengthAdjust="spacing" textLength="143.2539" x="248.5" y="29.9951">:ALUMNOS_ABIERTO</text></g><!--entity AlumnoAbierto--><g class="entity" data-entity="AlumnoAbierto" data-source-line="4" data-uid="ent0003" id="entity_AlumnoAbierto"><rect fill="#CDEBA5" height="36.2969" rx="2.5" ry="2.5" style="stroke:#181818;stroke-width:0.5;" width="154.3672" x="458" y="7"/><text fill="#000000" font-family="sans-serif" font-size="14" lengthAdjust="spacing" textLength="134.3672" x="468" y="29.9951">:ALUMNO_ABIERTO</text></g><!--entity VerAlumnos--><g class="entity" data-entity="VerAlumnos" data-source-line="5" data-uid="ent0004" id="entity_VerAlumnos"><rect fill="#CDEBA5" height="36.2969" rx="2.5" ry="2.5" style="stroke:#181818;stroke-width:0.5;" width="205.835" x="674" y="254"/><text fill="#000000" font-family="sans-serif" font-size="14" lengthAdjust="spacing" textLength="185.835" x="684" y="276.9951">:Collaboration verAlumnos</text></g><!--link AlumnosAbierto to EliminarAlumnoView--><g class="link" data-entity-1="AlumnosAbierto" data-entity-2="EliminarAlumnoView" data-source-line="14" data-uid="lnk10" id="link_AlumnosAbierto_EliminarAlumnoView"><path d="M318.9,43.23 C318.04,56.65 317,73 317,73 C317,73 317,90 317,90 C317,90 361.5564,117.5451 394.1364,137.6851" fill="none" id="AlumnosAbierto-to-EliminarAlumnoView" style="stroke:#181818;stroke-width:1;"/><polygon fill="#181818" points="399.24,140.84,393.6879,132.7053,394.987,138.2109,389.4813,139.5101,399.24,140.84" style="stroke:#181818;stroke-width:1;"/><text fill="#000000" font-family="sans-serif" font-size="13" lengthAdjust="spacing" textLength="173.5513" x="318" y="86.0669">eliminarAlumno(alumnoId)</text></g><!--link AlumnoAbierto to EliminarAlumnoView--><g class="link" data-entity-1="AlumnoAbierto" data-entity-2="EliminarAlumnoView" data-source-line="15" data-uid="lnk11" id="link_AlumnoAbierto_EliminarAlumnoView"><path d="M524.55,43.15 C513,62.11 496,90 496,90 C496,90 469.1239,116.4888 448.6839,136.6288" fill="none" id="AlumnoAbierto-to-EliminarAlumnoView" style="stroke:#181818;stroke-width:1;"/><polygon fill="#181818" points="444.41,140.84,453.6283,137.3725,447.9716,137.3307,448.0134,131.674,444.41,140.84" style="stroke:#181818;stroke-width:1;"/><text fill="#000000" font-family="sans-serif" font-size="13" lengthAdjust="spacing" textLength="173.5513" x="506" y="86.0669">eliminarAlumno(alumnoId)</text></g><!--link EliminarAlumnoView to AlumnosController--><g class="link" data-entity-1="EliminarAlumnoView" data-entity-2="AlumnosController" data-source-line="17" data-uid="lnk12" id="link_EliminarAlumnoView_AlumnosController"><path d="M344.68,170.37 C234.84,184.21 54,207 54,207 C54,207 54,224 54,224 C54,224 101.4978,238.6873 144.9578,252.1273" fill="none" id="EliminarAlumnoView-to-AlumnosController" style="stroke:#181818;stroke-width:1;"/><polygon fill="#181818" points="150.69,253.9,143.2735,247.4196,145.9132,252.4228,140.91,255.0624,150.69,253.9" style="stroke:#181818;stroke-width:1;"/><text fill="#000000" font-family="sans-serif" font-size="13" lengthAdjust="spacing" textLength="328.7578" x="55" y="220.0669">cargarAlumnoParaEliminacion(alumnoId) : Alumno</text></g><!--link EliminarAlumnoView to AlumnosController--><g class="link" data-entity-1="EliminarAlumnoView" data-entity-2="AlumnosController" data-source-line="23" data-uid="lnk15" id="link_EliminarAlumnoView_AlumnosController"><path d="M416.55,177.15 C405,196.11 388,224 388,224 C388,224 329.8592,239.0089 277.7692,252.4689" fill="none" id="EliminarAlumnoView-to-AlumnosController-1" style="stroke:#181818;stroke-width:1;"/><polygon fill="#181818" points="271.96,253.97,281.6745,255.5912,276.801,252.7191,279.6731,247.8456,271.96,253.97" style="stroke:#181818;stroke-width:1;"/><text fill="#000000" font-family="sans-serif" font-size="13" lengthAdjust="spacing" textLength="213.7065" x="398" y="220.0669">eliminarAlumno(alumnoId) : void</text></g><!--link AlumnosController to AlumnoRepository--><g class="link" data-entity-1="AlumnosController" data-entity-2="AlumnoRepository" data-source-line="19" data-uid="lnk13" id="link_AlumnosController_AlumnoRepository"><path d="M157.61,290.1 C119.58,303.54 73,320 73,320 C73,320 73,337 73,337 C73,337 117.034,351.5744 157.634,365.0144" fill="none" id="AlumnosController-to-AlumnoRepository" style="stroke:#181818;stroke-width:1;"/><polygon fill="#181818" points="163.33,366.9,156.043,360.2743,158.5833,365.3287,153.5289,367.869,163.33,366.9" style="stroke:#181818;stroke-width:1;"/><text fill="#000000" font-family="sans-serif" font-size="13" lengthAdjust="spacing" textLength="217.2549" x="74" y="333.0669">obtenerPorId(alumnoId) : Alumno</text></g><!--link AlumnosController to AlumnoRepository--><g class="link" data-entity-1="AlumnosController" data-entity-2="AlumnoRepository" data-source-line="25" data-uid="lnk16" id="link_AlumnosController_AlumnoRepository"><path d="M238.75,290.1 C264.48,303.54 296,320 296,320 C296,320 296,337 296,337 C296,337 273.0092,350.3379 249.8892,363.7579" fill="none" id="AlumnosController-to-AlumnoRepository-1" style="stroke:#181818;stroke-width:1;"/><polygon fill="#181818" points="244.7,366.77,254.4918,365.7114,249.0243,364.26,250.4757,358.7925,244.7,366.77" style="stroke:#181818;stroke-width:1;"/><text fill="#000000" font-family="sans-serif" font-size="13" lengthAdjust="spacing" textLength="164.106" x="297" y="333.0669">eliminar(alumnoId) : void</text></g><!--link AlumnoRepository to Alumno--><g class="link" data-entity-1="AlumnoRepository" data-entity-2="Alumno" data-source-line="21" data-uid="lnk14" id="link_AlumnoRepository_Alumno"><path d="M215,403.42 C215,420.57 215,446.58 215,463.69" fill="none" id="AlumnoRepository-Alumno" style="stroke:#181818;stroke-width:1;"/></g><!--link EliminarAlumnoView to VerAlumnos--><g class="link" data-entity-1="EliminarAlumnoView" data-entity-2="VerAlumnos" data-source-line="27" data-uid="lnk17" id="link_EliminarAlumnoView_VerAlumnos"><path d="M496.95,177.03 C552.18,190.49 620,207 620,207 C620,207 682.8639,232.625 729.3739,251.585" fill="none" id="EliminarAlumnoView-to-VerAlumnos" style="stroke:#181818;stroke-width:1;stroke-dasharray:7,7;"/><polygon fill="#181818" points="734.93,253.85,728.1059,246.7485,730.2999,251.9625,725.0859,254.1566,734.93,253.85" style="stroke:#181818;stroke-width:1;"/><text fill="#000000" font-family="sans-serif" font-size="13" lengthAdjust="spacing" textLength="154.6924" x="658" y="220.0669">&#171;include&#187; verAlumnos()</text></g><!--SRC=[bL9DQy904BtlhnZIYpdeGQhK886OHWYqLMphjMoIGHOtks6pMgJqltULHFFLqEvbcPttthoPdNpFH4OLJO4pWVgK8MIIdyu18GfZJSME8zpvZy72cu3bU4_lpo-hrmzl4GQRjvK5D0UF7r8XSozYgBJieNMm-aY-v9n6Kb7Df80ZggBGXRwzXeHaDDxJ7G9obZ91YyGPPTMV1hO5NmJCgTIRZcV1SWP13Rbb-Da4HfCecJwKxVfIQ6KSechYbcFFlmyAt0OpcJCjrQaNHhu9gSyHXaEtmvJJw790BrUOsAGsqV_JIHiDmyIej1fs8APgLmBNPdyAQcm-wgO8JjaSQKbSx3Kdv82CD0fKQwd2f4VeHZ4wrroN_sxxlyt053fAblpTRodK8T7XPZHoAtlhm7pEHCmF2RfkPRq7zWy0]--></g></svg>