<svg xmlns="http://www.w3.org/2000/svg" xmlns:xlink="http://www.w3.org/1999/xlink" contentStyleType="text/css" data-diagram-type="STATE" height="911px" preserveAspectRatio="none" style="width:1197px;height:911px;background:#FFFFFF;" version="1.1" viewBox="0 0 1197 911" width="1197px" zoomAndPan="magnify"><defs/><g><g id="SISTEMA_DISPONIBLE2"><rect fill="#F1F1F1" height="50" rx="12.5" ry="12.5" style="stroke:#181818;stroke-width:0.5;" width="172.0654" x="509.5" y="855"/><line style="stroke:#181818;stroke-width:0.5;" x1="509.5" x2="681.5654" y1="881.2969" y2="881.2969"/><text fill="#000000" font-family="sans-serif" font-size="14" lengthAdjust="spacing" textLength="152.0654" x="519.5" y="872.9951">SISTEMA_DISPONIBLE</text></g><path d="M19.5,117 L1171.622,117 A12.5,12.5 0 0 1 1184.122,129.5 L1184.122,143.2969 L7,143.2969 L7,129.5 A12.5,12.5 0 0 1 19.5,117" fill="#F1F1F1"/><rect fill="none" height="678.2969" rx="12.5" ry="12.5" style="stroke:#181818;stroke-width:0.5;" width="1177.122" x="7" y="117"/><line style="stroke:#181818;stroke-width:0.5;" x1="7" x2="1184.122" y1="143.2969" y2="143.2969"/><text fill="#000000" font-family="sans-serif" font-size="14" lengthAdjust="spacing" textLength="212.666" x="489.228" y="134.9951">exportarConfiguracionGlobal()</text><g id="exportarConfiguracionGlobal.RequiringGlobalConfigurationExport"><rect fill="#F1F1F1" height="50" rx="12.5" ry="12.5" style="stroke:#181818;stroke-width:0.5;" width="50" x="399.122" y="245.2969"/><line style="stroke:#181818;stroke-width:0.5;" x1="399.122" x2="449.122" y1="271.5938" y2="271.5938"/><text fill="#000000" font-family="sans-serif" font-size="14" lengthAdjust="spacing" textLength="4.4502" x="421.8969" y="263.292">&#160;</text></g><g id="exportarConfiguracionGlobal.ProvidingGlobalConfiguration"><rect fill="#F1F1F1" height="50" rx="12.5" ry="12.5" style="stroke:#181818;stroke-width:0.5;" width="50" x="399.122" y="396.2969"/><line style="stroke:#181818;stroke-width:0.5;" x1="399.122" x2="449.122" y1="422.5938" y2="422.5938"/><text fill="#000000" font-family="sans-serif" font-size="14" lengthAdjust="spacing" textLength="4.4502" x="421.8969" y="414.292">&#160;</text></g><g id="exportarConfiguracionGlobal.ProvidingConfirmation"><rect fill="#F1F1F1" height="50" rx="12.5" ry="12.5" style="stroke:#181818;stroke-width:0.5;" width="50" x="957.122" y="517.2969"/><line style="stroke:#181818;stroke-width:0.5;" x1="957.122" x2="1007.122" y1="543.5938" y2="543.5938"/><text fill="#000000" font-family="sans-serif" font-size="14" lengthAdjust="spacing" textLength="4.4502" x="979.8969" y="535.292">&#160;</text></g><g class="entity" data-entity="c" data-uid="ent0007" id="entity_c"><polygon fill="#F1F1F1" points="424.122,668.2969,436.122,680.2969,424.122,692.2969,412.122,680.2969,424.122,668.2969" style="stroke:#181818;stroke-width:0.5;"/></g><ellipse cx="424.122" cy="164.2969" fill="#222222" rx="10" ry="10" style="stroke:#222222;stroke-width:1;"/><ellipse cx="29.122" cy="774.2969" fill="none" rx="11" ry="11" style="stroke:#222222;stroke-width:1;"/><ellipse cx="29.122" cy="774.2969" fill="#222222" rx="6" ry="6" style="stroke:#222222;stroke-width:1;"/><!--link *start*exportarConfiguracionGlobal to RequiringGlobalConfigurationExport--><g class="link" data-entity-1=".start.exportarConfiguracionGlobal" data-entity-2="RequiringGlobalConfigurationExport" data-source-line="12" data-uid="lnk3" id="link_.start.exportarConfiguracionGlobal_RequiringGlobalConfigurationExport"><path d="M424.122,174.5269 C424.122,190.2369 424.122,216.6569 424.122,239.1669" fill="none" id="*start*exportarConfiguracionGlobal-to-RequiringGlobalConfigurationExport" style="stroke:#008000;stroke-width:1;"/><polygon fill="#008000" points="424.122,245.1669,428.122,236.1669,424.122,240.1669,420.122,236.1669,424.122,245.1669" style="stroke:#008000;stroke-width:1;"/><path d="M429.122,197.2969 L429.122,222.2969 L756.122,222.2969 L756.122,207.2969 L746.122,197.2969 L429.122,197.2969" fill="#FEFFDD" style="stroke:#181818;stroke-width:0.5;"/><path d="M746.122,197.2969 L746.122,207.2969 L756.122,207.2969 L746.122,197.2969" fill="#FEFFDD" style="stroke:#181818;stroke-width:0.5;"/><text fill="#000000" font-family="sans-serif" font-size="13" font-weight="bold" lengthAdjust="spacing" textLength="60.5313" x="435.122" y="214.3638">Docente</text><text fill="#000000" font-family="sans-serif" font-size="13" lengthAdjust="spacing" textLength="241.7505" x="499.7855" y="214.3638">solicita exportar configuraci&#243;n global</text></g><!--link RequiringGlobalConfigurationExport to ProvidingGlobalConfiguration--><g class="link" data-entity-1="RequiringGlobalConfigurationExport" data-entity-2="ProvidingGlobalConfiguration" data-source-line="17" data-uid="lnk4" id="link_RequiringGlobalConfigurationExport_ProvidingGlobalConfiguration"><path d="M424.122,295.5669 C424.122,323.2769 424.122,362.3369 424.122,390.0369" fill="none" id="RequiringGlobalConfigurationExport-to-ProvidingGlobalConfiguration" style="stroke:#008000;stroke-width:1;"/><polygon fill="#008000" points="424.122,396.0369,428.122,387.0369,424.122,391.0369,420.122,387.0369,424.122,396.0369" style="stroke:#008000;stroke-width:1;"/><path d="M429.122,318.2969 L429.122,373.2969 L788.122,373.2969 L788.122,328.2969 L778.122,318.2969 L429.122,318.2969" fill="#FEFFDD" style="stroke:#181818;stroke-width:0.5;"/><path d="M778.122,318.2969 L778.122,328.2969 L788.122,328.2969 L778.122,318.2969" fill="#FEFFDD" style="stroke:#181818;stroke-width:0.5;"/><text fill="#000000" font-family="sans-serif" font-size="13" font-weight="bold" lengthAdjust="spacing" textLength="58.9063" x="435.122" y="335.3638">Sistema</text><text fill="#000000" font-family="sans-serif" font-size="13" lengthAdjust="spacing" textLength="50.9653" x="498.1605" y="335.3638">permite</text><text fill="#000000" font-family="sans-serif" font-size="13" lengthAdjust="spacing" textLength="338.7554" x="435.122" y="350.4966">&#8226; exportar alumnos, grados, asignaturas, preguntas</text><text fill="#000000" font-family="sans-serif" font-size="13" lengthAdjust="spacing" textLength="140.8799" x="435.122" y="365.6294">&#8226; salir de exportaci&#243;n</text></g><!--link ProvidingGlobalConfiguration to ProvidingConfirmation--><g class="link" data-entity-1="ProvidingGlobalConfiguration" data-entity-2="ProvidingConfirmation" data-source-line="24" data-uid="lnk5" id="link_ProvidingGlobalConfiguration_ProvidingConfirmation"><path d="M449.152,426.8769 C552.822,445.8569 943.122,517.2969 943.122,517.2969 C943.122,517.2969 944.2006,517.9646 951.6506,522.5446" fill="none" id="ProvidingGlobalConfiguration-to-ProvidingConfirmation" style="stroke:#008000;stroke-width:1;"/><polygon fill="#008000" points="956.762,525.6869,951.1898,517.5659,952.5025,523.0683,947.0001,524.381,956.762,525.6869" style="stroke:#008000;stroke-width:1;"/><path d="M848.122,469.2969 L848.122,494.2969 L1175.122,494.2969 L1175.122,479.2969 L1165.122,469.2969 L848.122,469.2969" fill="#FEFFDD" style="stroke:#181818;stroke-width:0.5;"/><path d="M1165.122,469.2969 L1165.122,479.2969 L1175.122,479.2969 L1165.122,469.2969" fill="#FEFFDD" style="stroke:#181818;stroke-width:0.5;"/><text fill="#000000" font-family="sans-serif" font-size="13" font-weight="bold" lengthAdjust="spacing" textLength="60.5313" x="854.122" y="486.3638">Docente</text><text fill="#000000" font-family="sans-serif" font-size="13" lengthAdjust="spacing" textLength="241.7505" x="918.7855" y="486.3638">solicita exportar configuraci&#243;n global</text></g><!--link ProvidingConfirmation to c--><g class="link" data-entity-1="ProvidingConfirmation" data-entity-2="c" data-source-line="29" data-uid="lnk6" id="link_ProvidingConfirmation_c"><path d="M956.762,558.9069 C949.312,563.4869 943.122,567.2969 943.122,567.2969 C943.122,567.2969 567.122,650.2969 567.122,650.2969 C567.122,650.2969 471.2024,669.7549 439.3824,676.2049" fill="none" id="ProvidingConfirmation-to-c" style="stroke:#008000;stroke-width:1;"/><polygon fill="#008000" points="433.502,677.3969,443.1172,679.5292,438.4023,676.4036,441.5279,671.6886,433.502,677.3969" style="stroke:#008000;stroke-width:1;"/><path d="M857.122,590.2969 L857.122,645.2969 L1034.122,645.2969 L1034.122,600.2969 L1024.122,590.2969 L857.122,590.2969" fill="#FEFFDD" style="stroke:#181818;stroke-width:0.5;"/><path d="M1024.122,590.2969 L1024.122,600.2969 L1034.122,600.2969 L1024.122,590.2969" fill="#FEFFDD" style="stroke:#181818;stroke-width:0.5;"/><text fill="#000000" font-family="sans-serif" font-size="13" font-weight="bold" lengthAdjust="spacing" textLength="60.5313" x="863.122" y="607.3638">Docente</text><text fill="#000000" font-family="sans-serif" font-size="13" lengthAdjust="spacing" textLength="45.7729" x="927.7855" y="607.3638">solicita</text><text fill="#000000" font-family="sans-serif" font-size="13" lengthAdjust="spacing" textLength="156.0381" x="863.122" y="622.4966">&#8226; confirmar exportaci&#243;n</text><text fill="#000000" font-family="sans-serif" font-size="13" lengthAdjust="spacing" textLength="148.6113" x="863.122" y="637.6294">&#8226; cancelar exportaci&#243;n</text></g><!--link c to ProvidingGlobalConfiguration--><g class="link" data-entity-1="c" data-entity-2="ProvidingGlobalConfiguration" data-source-line="36" data-uid="lnk7" id="link_c_ProvidingGlobalConfiguration"><path d="M418.312,673.5869 C395.082,650.7669 310.122,567.2969 310.122,567.2969 C310.122,567.2969 310.122,517.2969 310.122,517.2969 C310.122,517.2969 360.9322,474.9474 394.4922,446.9874" fill="none" id="c-to-ProvidingGlobalConfiguration" style="stroke:#FF0000;stroke-width:1;"/><polygon fill="#FF0000" points="399.102,443.1469,389.6269,445.8345,395.2605,446.3473,394.7477,451.9809,399.102,443.1469" style="stroke:#FF0000;stroke-width:1;"/><path d="M315.122,529.7969 L315.122,554.7969 L526.122,554.7969 L526.122,539.7969 L516.122,529.7969 L315.122,529.7969" fill="#FEFFDD" style="stroke:#181818;stroke-width:0.5;"/><path d="M516.122,529.7969 L516.122,539.7969 L526.122,539.7969 L516.122,529.7969" fill="#FEFFDD" style="stroke:#181818;stroke-width:0.5;"/><text fill="#000000" font-family="sans-serif" font-size="13" lengthAdjust="spacing" textLength="190.0425" x="321.122" y="546.8638">Docente cancela exportaci&#243;n</text></g><!--link c to ProvidingGlobalConfiguration--><g class="link" data-entity-1="c" data-entity-2="ProvidingGlobalConfiguration" data-source-line="41" data-uid="lnk8" id="link_c_ProvidingGlobalConfiguration"><path d="M429.572,673.5869 C451.382,650.7669 531.122,567.2969 531.122,567.2969 C531.122,567.2969 531.122,517.2969 531.122,517.2969 C531.122,517.2969 485.3183,476.6309 453.6983,448.5509" fill="none" id="c-to-ProvidingGlobalConfiguration-1" style="stroke:#FF0000;stroke-width:1;"/><polygon fill="#FF0000" points="449.212,444.5669,453.2854,453.5339,452.9506,447.8869,458.5975,447.5521,449.212,444.5669" style="stroke:#FF0000;stroke-width:1;"/><path d="M536.122,529.7969 L536.122,554.7969 L912.122,554.7969 L912.122,539.7969 L902.122,529.7969 L536.122,529.7969" fill="#FEFFDD" style="stroke:#181818;stroke-width:0.5;"/><path d="M902.122,529.7969 L902.122,539.7969 L912.122,539.7969 L902.122,529.7969" fill="#FEFFDD" style="stroke:#181818;stroke-width:0.5;"/><text fill="#000000" font-family="sans-serif" font-size="13" lengthAdjust="spacing" textLength="355.437" x="542.122" y="546.8638">Docente confirma exportaci&#243;n: error en la exportaci&#243;n</text></g><!--link c to *end*exportarConfiguracionGlobal--><g class="link" data-entity-1="c" data-entity-2=".end.exportarConfiguracionGlobal" data-source-line="46" data-uid="lnk10" id="link_c_.end.exportarConfiguracionGlobal"><path d="M415.132,683.3869 C362.652,695.6169 102.1657,756.2863 45.5557,769.4663" fill="none" id="c-to-*end*exportarConfiguracionGlobal" style="stroke:#008000;stroke-width:1;"/><polygon fill="#008000" points="39.712,770.8269,49.3846,772.6819,44.5817,769.6931,47.5705,764.8903,39.712,770.8269" style="stroke:#008000;stroke-width:1;"/><path d="M302.122,715.2969 L302.122,740.2969 L657.122,740.2969 L657.122,725.2969 L647.122,715.2969 L302.122,715.2969" fill="#FEFFDD" style="stroke:#181818;stroke-width:0.5;"/><path d="M647.122,715.2969 L647.122,725.2969 L657.122,725.2969 L647.122,715.2969" fill="#FEFFDD" style="stroke:#181818;stroke-width:0.5;"/><text fill="#000000" font-family="sans-serif" font-size="13" lengthAdjust="spacing" textLength="334.4644" x="308.122" y="732.3638">Docente confirma exportaci&#243;n: exportaci&#243;n exitosa</text></g><!--link ProvidingGlobalConfiguration to *end*exportarConfiguracionGlobal--><g class="link" data-entity-1="ProvidingGlobalConfiguration" data-entity-2=".end.exportarConfiguracionGlobal" data-source-line="51" data-uid="lnk11" id="link_ProvidingGlobalConfiguration_.end.exportarConfiguracionGlobal"><path d="M398.892,433.4969 C315.982,470.3269 57.122,585.2969 57.122,585.2969 C57.122,585.2969 37.325,718.2022 31.515,757.2522" fill="none" id="ProvidingGlobalConfiguration-to-*end*exportarConfiguracionGlobal" style="stroke:#0000FF;stroke-width:1;"/><polygon fill="#0000FF" points="30.632,763.1869,35.9129,754.8735,31.3678,758.2413,28,753.6962,30.632,763.1869" style="stroke:#0000FF;stroke-width:1;"/><path d="M62.122,605.2969 L62.122,630.2969 L320.122,630.2969 L320.122,615.2969 L310.122,605.2969 L62.122,605.2969" fill="#FEFFDD" style="stroke:#181818;stroke-width:0.5;"/><path d="M310.122,605.2969 L310.122,615.2969 L320.122,615.2969 L310.122,605.2969" fill="#FEFFDD" style="stroke:#181818;stroke-width:0.5;"/><text fill="#000000" font-family="sans-serif" font-size="13" lengthAdjust="spacing" textLength="237.561" x="68.122" y="622.3638">Docente solicita salir de exportaci&#243;n</text></g><g id="SISTEMA_DISPONIBLE"><rect fill="#F1F1F1" height="50" rx="12.5" ry="12.5" style="stroke:#181818;stroke-width:0.5;" width="172.0654" x="509.5" y="7"/><line style="stroke:#181818;stroke-width:0.5;" x1="509.5" x2="681.5654" y1="33.2969" y2="33.2969"/><text fill="#000000" font-family="sans-serif" font-size="14" lengthAdjust="spacing" textLength="152.0654" x="519.5" y="24.9951">SISTEMA_DISPONIBLE</text></g><!--link SISTEMA_DISPONIBLE to exportarConfiguracionGlobal--><g class="link" data-entity-1="SISTEMA_DISPONIBLE" data-entity-2="exportarConfiguracionGlobal" data-source-line="57" data-uid="lnk13" id="link_SISTEMA_DISPONIBLE_exportarConfiguracionGlobal"><path d="M595.5,57.2 C595.5,71.92 595.5,86.51 595.5,110.65" fill="none" id="SISTEMA_DISPONIBLE-to-exportarConfiguracionGlobal" style="stroke:#008000;stroke-width:1;"/><polygon fill="#008000" points="595.5,116.65,599.5,107.65,595.5,111.65,591.5,107.65,595.5,116.65" style="stroke:#008000;stroke-width:1;"/></g><!--link exportarConfiguracionGlobal to SISTEMA_DISPONIBLE2--><g class="link" data-entity-1="exportarConfiguracionGlobal" data-entity-2="SISTEMA_DISPONIBLE2" data-source-line="59" data-uid="lnk14" id="link_exportarConfiguracionGlobal_SISTEMA_DISPONIBLE2"><path d="M595.5,795.12 C595.5,819.4 595.5,834.1 595.5,848.86" fill="none" id="exportarConfiguracionGlobal-to-SISTEMA_DISPONIBLE2" style="stroke:#008000;stroke-width:1;"/><polygon fill="#008000" points="595.5,854.86,599.5,845.86,595.5,849.86,591.5,845.86,595.5,854.86" style="stroke:#008000;stroke-width:1;"/></g><!--SRC=[jLNTIiCm5BxFKuHve-8Gl9HIK3TauCzmteqXP-cnXgL9JL9nYE2p-0e-Wc_YavXcMxVQqisXARISv7pV-Sx9IMecNAQW8Q62IxJJ56cgn3Gt234MBD91Rt3RlJovw_G6_Ukhtkb5zuY2eQtgV6i1mUTKQGlwJCbx7cSQ65VoNAWn20zjMD_TQz4NGgWRCwwMUnpc1XyphhcCPsu5qZfarzDLCNsjddXKZsdmzduw-Ud6Q12m1yKPXk5Cu71_HDl3dLWZob4xt5IZL8vDoRpY4pyHZCEEOYWj1eVZa1ebEECMYZ9IjgpJvuUaiQVtK9JHZCyDKhpM2odfNbkdEiK3RYmcu1Mdg1FkNFpQrzlxKZc8B97A7D1OGvH_mV1OWdNipaWrnfcqO0gW0S4rZOeMyWcNCbrcsIIxFh_Aplx7LjG8N8rRKiP-fQAe4flpwMgP_398Xg9kjQgHvNeqHjlrmLpb8c93mByCDi- -5EsOejRAfUm0c-aeDi4Tu-q2hbZEu5OPsB9LnoB3ZQGK3Rd1GNabf7f7bp9lk8S9QRh4Lqbg_W_V]--></g></svg>