<?plantuml 1.2026.2?><svg xmlns="http://www.w3.org/2000/svg" xmlns:xlink="http://www.w3.org/1999/xlink" contentStyleType="text/css" data-diagram-type="DESCRIPTION" height="523px" preserveAspectRatio="none" style="width:1390px;height:523px;background:#FFFFFF;" version="1.1" viewBox="0 0 1390 523" width="1390px" zoomAndPan="magnify"><defs/><g><!--cluster corregirExamenes--><g class="cluster" data-qualified-name="corregirExamenes" data-source-line="6" id="ent0004"><path d="M8.5,106 L165.1611,106 A3.75,3.75 0 0 1 167.6611,108.5 L174.6611,128.2969 L1162.5,128.2969 A2.5,2.5 0 0 1 1165,130.7969 L1165,513.5 A2.5,2.5 0 0 1 1162.5,516 L8.5,516 A2.5,2.5 0 0 1 6,513.5 L6,108.5 A2.5,2.5 0 0 1 8.5,106" fill="none" style="stroke:#000000;stroke-width:1.5;"/><line style="stroke:#000000;stroke-width:1.5;" x1="6" x2="174.6611" y1="128.2969" y2="128.2969"/><text fill="#000000" font-family="sans-serif" font-size="14" font-weight="bold" lengthAdjust="spacing" textLength="155.6611" x="10" y="120.9951">corregirExamenes()</text></g><!--entity CorregirExamenesView--><g class="entity" data-qualified-name="corregirExamenes.CorregirExamenesView" data-source-line="7" id="ent0005"><rect fill="#629EF9" height="36.2969" rx="2.5" ry="2.5" style="stroke:#181818;stroke-width:0.5;" width="183.2695" x="649.5" y="141"/><text fill="#000000" font-family="sans-serif" font-size="14" lengthAdjust="spacing" textLength="163.2695" x="659.5" y="163.9951">CorregirExamenesView</text></g><!--entity ExamenesController--><g class="entity" data-qualified-name="corregirExamenes.ExamenesController" data-source-line="8" id="ent0006"><rect fill="#B5BD68" height="36.2969" rx="2.5" ry="2.5" style="stroke:#181818;stroke-width:0.5;" width="161.9141" x="329" y="254"/><text fill="#000000" font-family="sans-serif" font-size="14" lengthAdjust="spacing" textLength="141.9141" x="339" y="276.9951">ExamenesController</text></g><!--entity ExamenRepository--><g class="entity" data-qualified-name="corregirExamenes.ExamenRepository" data-source-line="9" id="ent0007"><rect fill="#F2AC4E" height="36.2969" rx="2.5" ry="2.5" style="stroke:#181818;stroke-width:0.5;" width="151.9063" x="334" y="367"/><text fill="#000000" font-family="sans-serif" font-size="14" lengthAdjust="spacing" textLength="131.9063" x="344" y="389.9951">ExamenRepository</text></g><!--entity Examen--><g class="entity" data-qualified-name="corregirExamenes.Examen" data-source-line="10" id="ent0008"><rect fill="#F2AC4E" height="36.2969" rx="2.5" ry="2.5" style="stroke:#181818;stroke-width:0.5;" width="76.834" x="326.5" y="464"/><text fill="#000000" font-family="sans-serif" font-size="14" lengthAdjust="spacing" textLength="56.834" x="336.5" y="486.9951">Examen</text></g><!--entity Pregunta--><g class="entity" data-qualified-name="corregirExamenes.Pregunta" data-source-line="11" id="ent0009"><rect fill="#F2AC4E" height="36.2969" rx="2.5" ry="2.5" style="stroke:#181818;stroke-width:0.5;" width="83.5127" x="439" y="464"/><text fill="#000000" font-family="sans-serif" font-size="14" lengthAdjust="spacing" textLength="63.5127" x="449" y="486.9951">Pregunta</text></g><!--entity Respuesta--><g class="entity" data-qualified-name="corregirExamenes.Respuesta" data-source-line="12" id="ent0010"><rect fill="#F2AC4E" height="36.2969" rx="2.5" ry="2.5" style="stroke:#181818;stroke-width:0.5;" width="93.3701" x="558.5" y="464"/><text fill="#000000" font-family="sans-serif" font-size="14" lengthAdjust="spacing" textLength="73.3701" x="568.5" y="486.9951">Respuesta</text></g><!--entity SistemaDisponible--><g class="entity" data-qualified-name="SistemaDisponible" data-source-line="3" id="ent0002"><rect fill="#CDEBA5" height="36.2969" rx="2.5" ry="2.5" style="stroke:#181818;stroke-width:0.5;" width="159.125" x="661.5" y="7"/><text fill="#000000" font-family="sans-serif" font-size="14" lengthAdjust="spacing" textLength="139.125" x="671.5" y="29.9951">:Sistema Disponible</text></g><!--entity ExamCorregidos--><g class="entity" data-qualified-name="ExamCorregidos" data-source-line="4" id="ent0003"><rect fill="#CDEBA5" height="36.2969" rx="2.5" ry="2.5" style="stroke:#181818;stroke-width:0.5;" width="203.6201" x="1181" y="254"/><text fill="#000000" font-family="sans-serif" font-size="14" lengthAdjust="spacing" textLength="183.6201" x="1191" y="276.9951">:EXAMENES_CORREGIDOS</text></g><!--link SistemaDisponible to CorregirExamenesView--><g class="link" data-entity-1="ent0002" data-entity-2="ent0005" data-link-type="dependency" data-source-line="15" id="lnk11"><path d="M741,43.26 C741,68.55 741,109.44 741,134.74" fill="none" id="SistemaDisponible-to-CorregirExamenesView" style="stroke:#181818;stroke-width:1;"/><polygon fill="#181818" points="741,140.74,745,131.74,741,135.74,737,131.74,741,140.74" style="stroke:#181818;stroke-width:1;"/><text fill="#000000" font-family="sans-serif" font-size="13" lengthAdjust="spacing" textLength="128.686" x="742" y="86.0669">corregirExamenes()</text></g><!--link CorregirExamenesView to ExamenesController--><g class="link" data-entity-1="ent0005" data-entity-2="ent0006" data-link-type="dependency" data-source-line="17" id="lnk12"><path d="M649.12,172.16 C543.93,186.09 386,207 386,207 C386,207 386,224 386,224 C386,224 391.6222,235.0059 398.4722,248.4259" fill="none" id="CorregirExamenesView-to-ExamenesController" style="stroke:#181818;stroke-width:1;"/><polygon fill="#181818" points="401.2,253.77,400.671,243.9354,398.9268,249.3166,393.5456,247.5724,401.2,253.77" style="stroke:#181818;stroke-width:1;"/><text fill="#000000" font-family="sans-serif" font-size="13" lengthAdjust="spacing" textLength="310.5464" x="387" y="220.0669">obtenerExamenesPendientes() : List&lt;Examen&gt;</text></g><!--link CorregirExamenesView to ExamenesController--><g class="link" data-entity-1="ent0005" data-entity-2="ent0006" data-link-type="dependency" data-source-line="21" id="lnk15"><path d="M730.55,177.15 C719,196.11 702,224 702,224 C702,224 583.6637,243.0463 497.2637,256.9563" fill="none" id="CorregirExamenesView-to-ExamenesController-1" style="stroke:#181818;stroke-width:1;"/><polygon fill="#181818" points="491.34,257.91,500.8614,260.4286,496.2764,257.1153,499.5898,252.5303,491.34,257.91" style="stroke:#181818;stroke-width:1;"/><text fill="#000000" font-family="sans-serif" font-size="13" lengthAdjust="spacing" textLength="406.9292" x="713" y="220.0669">introducirExamenesRealizados(examenes, respuestasAlumno)</text></g><!--link ExamenesController to ExamenRepository--><g class="link" data-entity-1="ent0006" data-entity-2="ent0007" data-link-type="dependency" data-source-line="18" id="lnk13"><path d="M328.77,283.72 C223.7,297.6 54,320 54,320 C54,320 54,337 54,337 C54,337 223.0716,359.3247 327.6816,373.1347" fill="none" id="ExamenesController-to-ExamenRepository" style="stroke:#181818;stroke-width:1;"/><polygon fill="#181818" points="333.63,373.92,325.2309,368.7765,328.673,373.2656,324.1839,376.7077,333.63,373.92" style="stroke:#181818;stroke-width:1;"/><text fill="#000000" font-family="sans-serif" font-size="13" lengthAdjust="spacing" textLength="311.5303" x="55" y="333.0669">obtenerExamenesSinCorregir() : List&lt;Examen&gt;</text></g><!--link ExamenesController to ExamenRepository--><g class="link" data-entity-1="ent0006" data-entity-2="ent0007" data-link-type="dependency" data-source-line="22" id="lnk16"><path d="M408.9,290.23 C408.04,303.65 407,320 407,320 C407,320 407,337 407,337 C407,337 407.6563,347.3623 408.5163,360.7823" fill="none" id="ExamenesController-to-ExamenRepository-1" style="stroke:#181818;stroke-width:1;"/><polygon fill="#181818" points="408.9,366.77,412.3162,357.5326,408.5802,361.7802,404.3326,358.0442,408.9,366.77" style="stroke:#181818;stroke-width:1;"/><text fill="#000000" font-family="sans-serif" font-size="13" lengthAdjust="spacing" textLength="357.1191" x="408" y="333.0669">obtenerClaveCorreccion(examenId) : List&lt;Respuesta&gt;</text></g><!--link ExamenesController to ExamenRepository--><g class="link" data-entity-1="ent0006" data-entity-2="ent0007" data-link-type="dependency" data-source-line="26" id="lnk19"><path d="M491.24,283.61 C597.42,297.47 770,320 770,320 C770,320 770,337 770,337 C770,337 597.9696,359.4636 492.2996,373.2536" fill="none" id="ExamenesController-to-ExamenRepository-2" style="stroke:#181818;stroke-width:1;"/><polygon fill="#181818" points="486.35,374.03,495.7919,376.8317,491.308,373.383,494.7567,368.899,486.35,374.03" style="stroke:#181818;stroke-width:1;"/><text fill="#000000" font-family="sans-serif" font-size="13" lengthAdjust="spacing" textLength="338.7427" x="771" y="333.0669">guardarResultados(examenId, resultados) : boolean</text></g><!--link ExamenRepository to Examen--><g class="link" data-entity-1="ent0007" data-entity-2="ent0008" data-link-type="association" data-source-line="19" id="lnk14"><path d="M391.61,403.42 C380,420.57 367.68,446.58 363.09,463.69" fill="none" id="ExamenRepository-Examen" style="stroke:#181818;stroke-width:1;"/></g><!--link ExamenRepository to Examen--><g class="link" data-entity-1="ent0007" data-entity-2="ent0008" data-link-type="association" data-source-line="27" id="lnk20"><path d="M412.47,403.42 C408.06,420.57 395.73,446.58 383.91,463.69" fill="none" id="ExamenRepository-Examen-1" style="stroke:#181818;stroke-width:1;"/></g><!--link ExamenRepository to Pregunta--><g class="link" data-entity-1="ent0007" data-entity-2="ent0009" data-link-type="association" data-source-line="23" id="lnk17"><path d="M423.02,403.42 C435.83,420.57 455.28,446.58 468.06,463.69" fill="none" id="ExamenRepository-Pregunta" style="stroke:#181818;stroke-width:1;"/></g><!--link ExamenRepository to Respuesta--><g class="link" data-entity-1="ent0007" data-entity-2="ent0010" data-link-type="association" data-source-line="24" id="lnk18"><path d="M445.31,403.2 C480.65,420.42 534.7,446.75 569.95,463.92" fill="none" id="ExamenRepository-Respuesta" style="stroke:#181818;stroke-width:1;"/></g><!--link CorregirExamenesView to ExamCorregidos--><g class="link" data-entity-1="ent0005" data-entity-2="ent0003" data-link-type="dependency" data-source-line="29" id="lnk21"><path d="M832.71,171.14 C947.15,185.04 1128,207 1128,207 C1128,207 1190.0043,232.5997 1235.9143,251.5597" fill="none" id="CorregirExamenesView-to-ExamCorregidos" style="stroke:#181818;stroke-width:1;stroke-dasharray:7,7;"/><polygon fill="#181818" points="1241.46,253.85,1234.6683,246.7175,1236.8386,251.9414,1231.6146,254.1117,1241.46,253.85" style="stroke:#181818;stroke-width:1;"/><text fill="#000000" font-family="sans-serif" font-size="13" lengthAdjust="spacing" textLength="193.064" x="1166" y="220.0669">&#171;include&#187; completarGestion()</text></g><?plantuml-src bLDTIyCm57tFhxZKbmtS7eQAbb6eNIS3l-X0V9EqkOomD2b9gaxnlvlERfD-YEjJU-wvj-USt9WrbmNLD0V19TfDWL0eiQa-2D6OMIfN0k4aciNNuJbu_f8RYpc56JU5aZmLw04rKCC7jBCvVWxlulju-H8z94byivWzBBVTyJlD8wKrhZXJXf22PckwGiX-C5tLKQAfk5uJ70mz-2JWdb-_l9XSnVChY1hS9uvlJMfwdhABIzXH8YMjLaAWRXBdap0wYsjYWeKot2gz-PFMKtnqgaffQKyvGLEKQ5pzYv1Mj30Q1PtEV6XdGqWN4qRCpMXRza6bra5xyYDAnb7QQXJuSEkqJ7zg0MctRvKrysdDN7AvqzGtzD3jHkwYx77IOuHNhwpC3lG4gU0Vr6tO06ler8LVHsr2KUPI3O-s5GdwYbjfMSQLh6SlsDxQ_ZIxtUrteQjus8J_wrgLL3EgNMifx2-x2xQrMuELl5GfWLGU7_fu73GkhG_JAPUPA1a6WTl3l11egRvnsgjGXjy0?></g></svg>