<?plantuml 1.2026.2?><svg xmlns="http://www.w3.org/2000/svg" xmlns:xlink="http://www.w3.org/1999/xlink" contentStyleType="text/css" data-diagram-type="DESCRIPTION" height="295px" preserveAspectRatio="none" style="width:945px;height:295px;background:#FFFFFF;" version="1.1" viewBox="0 0 945 295" width="945px" zoomAndPan="magnify"><defs/><g><!--cluster corregirExamenes--><g class="cluster" data-qualified-name="corregirExamenes" data-source-line="6" id="ent0004"><path d="M8.5,6 L165.1611,6 A3.75,3.75 0 0 1 167.6611,8.5 L174.6611,28.2969 L762.5,28.2969 A2.5,2.5 0 0 1 765,30.7969 L765,203.5 A2.5,2.5 0 0 1 762.5,206 L8.5,206 A2.5,2.5 0 0 1 6,203.5 L6,8.5 A2.5,2.5 0 0 1 8.5,6" fill="none" style="stroke:#000000;stroke-width:1.5;"/><line style="stroke:#000000;stroke-width:1.5;" x1="6" x2="174.6611" y1="28.2969" y2="28.2969"/><text fill="#000000" font-family="sans-serif" font-size="14" font-weight="bold" lengthAdjust="spacing" textLength="155.6611" x="10" y="20.9951">corregirExamenes()</text></g><!--entity CorregirExamenesView--><g class="entity" data-qualified-name="corregirExamenes.CorregirExamenesView" data-source-line="7" id="ent0005"><rect fill="#629EF9" height="36.2969" rx="2.5" ry="2.5" style="stroke:#181818;stroke-width:0.5;" width="183.2695" x="459.5" y="154"/><text fill="#000000" font-family="sans-serif" font-size="14" lengthAdjust="spacing" textLength="163.2695" x="469.5" y="176.9951">CorregirExamenesView</text></g><!--entity ExamenesController--><g class="entity" data-qualified-name="corregirExamenes.ExamenesController" data-source-line="8" id="ent0006"><rect fill="#B5BD68" height="36.2969" rx="2.5" ry="2.5" style="stroke:#181818;stroke-width:0.5;" width="161.9141" x="253" y="41"/><text fill="#000000" font-family="sans-serif" font-size="14" lengthAdjust="spacing" textLength="141.9141" x="263" y="63.9951">ExamenesController</text></g><!--entity Corrector--><g class="entity" data-qualified-name="corregirExamenes.Corrector" data-source-line="9" id="ent0007"><rect fill="#F2AC4E" height="36.2969" rx="2.5" ry="2.5" style="stroke:#181818;stroke-width:0.5;" width="85.9736" x="103" y="154"/><text fill="#000000" font-family="sans-serif" font-size="14" lengthAdjust="spacing" textLength="65.9736" x="113" y="176.9951">Corrector</text></g><!--entity SistemaDisponible--><g class="entity" data-qualified-name="SistemaDisponible" data-source-line="3" id="ent0002"><rect fill="#CDEBA5" height="36.2969" rx="2.5" ry="2.5" style="stroke:#181818;stroke-width:0.5;" width="159.125" x="780.5" y="41"/><text fill="#000000" font-family="sans-serif" font-size="14" lengthAdjust="spacing" textLength="139.125" x="790.5" y="63.9951">:Sistema Disponible</text></g><!--entity ExamCorregidos--><g class="entity" data-qualified-name="ExamCorregidos" data-source-line="4" id="ent0003"><rect fill="#CDEBA5" height="36.2969" rx="2.5" ry="2.5" style="stroke:#181818;stroke-width:0.5;" width="203.6201" x="449" y="253"/><text fill="#000000" font-family="sans-serif" font-size="14" lengthAdjust="spacing" textLength="183.6201" x="459" y="275.9951">:EXAMENES_CORREGIDOS</text></g><!--link SistemaDisponible to CorregirExamenesView--><g class="link" data-entity-1="ent0002" data-entity-2="ent0005" data-link-type="dependency" data-source-line="12" id="lnk8"><path d="M824.63,77.15 C785.53,96.11 728,124 728,124 C728,124 671.6088,138.9693 620.9488,152.4293" fill="none" id="SistemaDisponible-to-CorregirExamenesView" style="stroke:#181818;stroke-width:1;"/><polygon fill="#181818" points="615.15,153.97,624.8754,155.5248,619.9823,152.6861,622.8211,147.7931,615.15,153.97" style="stroke:#181818;stroke-width:1;"/><text fill="#000000" font-family="sans-serif" font-size="13" lengthAdjust="spacing" textLength="128.686" x="761" y="120.0669">corregirExamenes()</text></g><!--link CorregirExamenesView to ExamenesController--><g class="link" data-entity-1="ent0005" data-entity-2="ent0006" data-link-type="dependency" data-source-line="13" id="lnk9"><path d="M540.55,153.85 C529,134.89 512,107 512,107 C512,107 455.2509,92.0228 404.3109,78.5628" fill="none" id="CorregirExamenesView-to-ExamenesController" style="stroke:#181818;stroke-width:1;"/><polygon fill="#181818" points="398.51,77.03,406.1895,83.1965,403.3441,78.3073,408.2332,75.4619,398.51,77.03" style="stroke:#181818;stroke-width:1;"/><text fill="#000000" font-family="sans-serif" font-size="13" lengthAdjust="spacing" textLength="196.0156" x="523" y="120.0669">corregirExamenes(examenes)</text></g><!--link ExamenesController to CorregirExamenesView--><g class="link" data-entity-1="ent0006" data-entity-2="ent0005" data-link-type="dependency" data-source-line="17" id="lnk12"><path d="M360.8,77.15 C390.42,96.11 434,124 434,124 C434,124 469.4126,138.223 502.8626,151.663" fill="none" id="ExamenesController-to-CorregirExamenesView" style="stroke:#181818;stroke-width:1;"/><polygon fill="#181818" points="508.43,153.9,501.5702,146.833,503.7905,152.0359,498.5876,154.2562,508.43,153.9" style="stroke:#181818;stroke-width:1;"/><text fill="#000000" font-family="sans-serif" font-size="13" lengthAdjust="spacing" textLength="68.0088" x="435" y="120.0669">resultados</text></g><!--link ExamenesController to Corrector--><g class="link" data-entity-1="ent0006" data-entity-2="ent0007" data-link-type="dependency" data-source-line="14" id="lnk10"><path d="M252.64,73.66 C169.97,87.53 54,107 54,107 C54,107 54,124 54,124 C54,124 80.8768,137.7305 107.1868,151.1705" fill="none" id="ExamenesController-to-Corrector" style="stroke:#181818;stroke-width:1;"/><polygon fill="#181818" points="112.53,153.9,106.3348,146.2436,108.0773,151.6254,102.6955,153.3679,112.53,153.9" style="stroke:#181818;stroke-width:1;"/><text fill="#000000" font-family="sans-serif" font-size="13" lengthAdjust="spacing" textLength="128.4702" x="55" y="120.0669">corregir(examenes)</text></g><!--link Corrector to ExamenesController--><g class="link" data-entity-1="ent0007" data-entity-2="ent0006" data-link-type="dependency" data-source-line="16" id="lnk11"><path d="M166.9,153.85 C190.01,134.89 224,107 224,107 C224,107 257.0024,92.8972 288.4624,79.4572" fill="none" id="Corrector-to-ExamenesController" style="stroke:#181818;stroke-width:1;"/><polygon fill="#181818" points="293.98,77.1,284.1322,76.9574,289.382,79.0643,287.2751,84.3141,293.98,77.1" style="stroke:#181818;stroke-width:1;"/><text fill="#000000" font-family="sans-serif" font-size="13" lengthAdjust="spacing" textLength="172.3643" x="225" y="120.0669">resultados (examen, nota)</text></g><!--link CorregirExamenesView to ExamCorregidos--><g class="link" data-entity-1="ent0005" data-entity-2="ent0003" data-link-type="dependency" data-source-line="18" id="lnk13"><path d="M551,190.34 C551,208 551,229.21 551,246.81" fill="none" id="CorregirExamenesView-to-ExamCorregidos" style="stroke:#181818;stroke-width:1;stroke-dasharray:7,7;"/><polygon fill="#181818" points="551,252.81,555,243.81,551,247.81,547,243.81,551,252.81" style="stroke:#181818;stroke-width:1;"/></g><?plantuml-src TL9DIyCm6BxdLxpKYmExmt33xJ2eQIOUTB22x2Pf-rB2qYGa4HtYVxVTEZlQc5FovFbwITn1ACCjhq4AXVve48oMn_P0YCN2SrL9X1kQiiTa3j4g4yvZpI4LpcWbSeaHS0STtAD1CTidB-oLPUzqkzknf-TqcvtKx8lNL5kBbIYr8yJmui0hXEACsVOU5RgM6mt1sqa4tmIQTHMvc2tPPWbqm7qJ-3cavlEyN3p0XKArybPBYNP8tCmIUi_EdeNNblmGCfeRudWTZ5t1k3W94I4k6ujndO01Tfi96TFXqgEjscklDEJl-bGwb6ZHVKZFcqU1JdW7IdiU3lntyjucFF5qkXxyWLy0?></g></svg>