<svg xmlns="http://www.w3.org/2000/svg" xmlns:xlink="http://www.w3.org/1999/xlink" contentStyleType="text/css" data-diagram-type="STATE" height="822px" preserveAspectRatio="none" style="width:1053px;height:822px;background:#FFFFFF;" version="1.1" viewBox="0 0 1053 822" width="1053px" zoomAndPan="magnify"><defs/><g><g id="PREGUNTAS_ABIERTO"><rect fill="#F1F1F1" height="50" rx="12.5" ry="12.5" style="stroke:#181818;stroke-width:0.5;" width="174.0547" x="216" y="7"/><line style="stroke:#181818;stroke-width:0.5;" x1="216" x2="390.0547" y1="33.2969" y2="33.2969"/><text fill="#000000" font-family="sans-serif" font-size="14" lengthAdjust="spacing" textLength="154.0547" x="226" y="24.9951">PREGUNTAS_ABIERTO</text></g><g id="PREGUNTAS_ABIERTO2"><rect fill="#F1F1F1" height="50" rx="12.5" ry="12.5" style="stroke:#181818;stroke-width:0.5;" width="174.0547" x="7" y="766"/><line style="stroke:#181818;stroke-width:0.5;" x1="7" x2="181.0547" y1="792.2969" y2="792.2969"/><text fill="#000000" font-family="sans-serif" font-size="14" lengthAdjust="spacing" textLength="154.0547" x="17" y="783.9951">PREGUNTAS_ABIERTO</text></g><g id="PREGUNTAS_ABIERTO3"><rect fill="#F1F1F1" height="50" rx="12.5" ry="12.5" style="stroke:#181818;stroke-width:0.5;" width="174.0547" x="216" y="766"/><line style="stroke:#181818;stroke-width:0.5;" x1="216" x2="390.0547" y1="792.2969" y2="792.2969"/><text fill="#000000" font-family="sans-serif" font-size="14" lengthAdjust="spacing" textLength="154.0547" x="226" y="783.9951">PREGUNTAS_ABIERTO</text></g><g id="PREGUNTAS_CONTEXTUALES_ABIERTO"><rect fill="#F1F1F1" height="50" rx="12.5" ry="12.5" style="stroke:#181818;stroke-width:0.5;" width="293.2188" x="425.5" y="7"/><line style="stroke:#181818;stroke-width:0.5;" x1="425.5" x2="718.7188" y1="33.2969" y2="33.2969"/><text fill="#000000" font-family="sans-serif" font-size="14" lengthAdjust="spacing" textLength="273.2188" x="435.5" y="24.9951">PREGUNTAS_CONTEXTUALES_ABIERTO</text></g><g id="PREGUNTAS_CONTEXTUALES_ABIERTO2"><rect fill="#F1F1F1" height="50" rx="12.5" ry="12.5" style="stroke:#181818;stroke-width:0.5;" width="293.2188" x="425.5" y="766"/><line style="stroke:#181818;stroke-width:0.5;" x1="425.5" x2="718.7188" y1="792.2969" y2="792.2969"/><text fill="#000000" font-family="sans-serif" font-size="14" lengthAdjust="spacing" textLength="273.2188" x="435.5" y="783.9951">PREGUNTAS_CONTEXTUALES_ABIERTO</text></g><g id="PREGUNTAS_CONTEXTUALES_ABIERTO3"><rect fill="#F1F1F1" height="50" rx="12.5" ry="12.5" style="stroke:#181818;stroke-width:0.5;" width="293.2188" x="753.5" y="766"/><line style="stroke:#181818;stroke-width:0.5;" x1="753.5" x2="1046.7188" y1="792.2969" y2="792.2969"/><text fill="#000000" font-family="sans-serif" font-size="14" lengthAdjust="spacing" textLength="273.2188" x="763.5" y="783.9951">PREGUNTAS_CONTEXTUALES_ABIERTO</text></g><path d="M211,118 L663,118 A12.5,12.5 0 0 1 675.5,130.5 L675.5,144.2969 L198.5,144.2969 L198.5,130.5 A12.5,12.5 0 0 1 211,118" fill="#F1F1F1"/><rect fill="none" height="553.2969" rx="12.5" ry="12.5" style="stroke:#181818;stroke-width:0.5;" width="477" x="198.5" y="118"/><line style="stroke:#181818;stroke-width:0.5;" x1="198.5" x2="675.5" y1="144.2969" y2="144.2969"/><text fill="#000000" font-family="sans-serif" font-size="14" lengthAdjust="spacing" textLength="131.5645" x="371.2178" y="135.9951">eliminarPregunta()</text><g id="eliminarPregunta.ConfirmandoEliminacion"><rect fill="#F1F1F1" height="50" rx="12.5" ry="12.5" style="stroke:#181818;stroke-width:0.5;" width="50" x="384.5" y="246.2969"/><line style="stroke:#181818;stroke-width:0.5;" x1="384.5" x2="434.5" y1="272.5938" y2="272.5938"/><text fill="#000000" font-family="sans-serif" font-size="14" lengthAdjust="spacing" textLength="4.4502" x="407.2749" y="264.292">&#160;</text></g><g id="eliminarPregunta.EliminandoPregunta"><rect fill="#F1F1F1" height="50" rx="12.5" ry="12.5" style="stroke:#181818;stroke-width:0.5;" width="50" x="210.5" y="503.2969"/><line style="stroke:#181818;stroke-width:0.5;" x1="210.5" x2="260.5" y1="529.5938" y2="529.5938"/><text fill="#000000" font-family="sans-serif" font-size="14" lengthAdjust="spacing" textLength="4.4502" x="233.2749" y="521.292">&#160;</text></g><ellipse cx="409.5" cy="165.2969" fill="#222222" rx="10" ry="10" style="stroke:#222222;stroke-width:1;"/><ellipse cx="411.5" cy="650.2969" fill="none" rx="11" ry="11" style="stroke:#222222;stroke-width:1;"/><ellipse cx="411.5" cy="650.2969" fill="#222222" rx="6" ry="6" style="stroke:#222222;stroke-width:1;"/><!--link *start*eliminarPregunta to ConfirmandoEliminacion--><g class="link" data-entity-1=".start.eliminarPregunta" data-entity-2="ConfirmandoEliminacion" data-source-line="20" data-uid="lnk5" id="link_.start.eliminarPregunta_ConfirmandoEliminacion"><path d="M409.5,175.5269 C409.5,191.2369 409.5,217.6569 409.5,240.1669" fill="none" id="*start*eliminarPregunta-to-ConfirmandoEliminacion" style="stroke:#008000;stroke-width:1;"/><polygon fill="#008000" points="409.5,246.1669,413.5,237.1669,409.5,241.1669,405.5,237.1669,409.5,246.1669" style="stroke:#008000;stroke-width:1;"/><path d="M414.5,198.2969 L414.5,223.2969 L666.5,223.2969 L666.5,208.2969 L656.5,198.2969 L414.5,198.2969" fill="#FEFFDD" style="stroke:#181818;stroke-width:0.5;"/><path d="M656.5,198.2969 L656.5,208.2969 L666.5,208.2969 L656.5,198.2969" fill="#FEFFDD" style="stroke:#181818;stroke-width:0.5;"/><text fill="#000000" font-family="sans-serif" font-size="13" font-weight="bold" lengthAdjust="spacing" textLength="60.5313" x="420.5" y="215.3638">Docente</text><text fill="#000000" font-family="sans-serif" font-size="13" lengthAdjust="spacing" textLength="166.4736" x="485.1636" y="215.3638">solicita eliminar pregunta</text></g><!--link ConfirmandoEliminacion to EliminandoPregunta--><g class="link" data-entity-1="ConfirmandoEliminacion" data-entity-2="EliminandoPregunta" data-source-line="25" data-uid="lnk6" id="link_ConfirmandoEliminacion_EliminandoPregunta"><path d="M384.43,278.3169 C336.04,289.9269 234.5,314.2969 234.5,314.2969 C234.5,314.2969 234.5,485.2969 234.5,485.2969 C234.5,485.2969 234.5572,487.6286 234.7772,496.8686" fill="none" id="ConfirmandoEliminacion-to-EliminandoPregunta" style="stroke:#008000;stroke-width:1;"/><polygon fill="#008000" points="234.92,502.8669,238.7046,493.7742,234.801,497.8683,230.7069,493.9646,234.92,502.8669" style="stroke:#008000;stroke-width:1;"/><path d="M239.5,319.2969 L239.5,480.2969 L566.5,480.2969 L566.5,329.2969 L556.5,319.2969 L239.5,319.2969" fill="#FEFFDD" style="stroke:#181818;stroke-width:0.5;"/><path d="M556.5,319.2969 L556.5,329.2969 L566.5,329.2969 L556.5,319.2969" fill="#FEFFDD" style="stroke:#181818;stroke-width:0.5;"/><text fill="#000000" font-family="sans-serif" font-size="13" font-weight="bold" lengthAdjust="spacing" textLength="58.9063" x="245.5" y="336.3638">Sistema</text><text fill="#000000" font-family="sans-serif" font-size="13" lengthAdjust="spacing" textLength="243.1025" x="308.5386" y="336.3638">presenta informaci&#243;n de la pregunta:</text><text fill="#000000" font-family="sans-serif" font-size="13" lengthAdjust="spacing" textLength="82.1831" x="245.5" y="351.4966">&#8226; Asignatura</text><text fill="#000000" font-family="sans-serif" font-size="13" lengthAdjust="spacing" textLength="79.6631" x="245.5" y="366.6294">&#8226; Enunciado</text><text fill="#000000" font-family="sans-serif" font-size="13" lengthAdjust="spacing" textLength="48.3691" x="245.5" y="381.7622">&#8226; Tema</text><text fill="#000000" font-family="sans-serif" font-size="13" lengthAdjust="spacing" textLength="73.9248" x="245.5" y="396.895">&#8226; Dificultad</text><text fill="#000000" font-family="sans-serif" font-size="13" lengthAdjust="spacing" textLength="86.7026" x="245.5" y="412.0278">&#8226; Respuestas</text><text fill="#000000" font-family="sans-serif" font-size="13" lengthAdjust="spacing" textLength="4.1323" x="245.5" y="427.1606">&#160;</text><text fill="#000000" font-family="sans-serif" font-size="13" lengthAdjust="spacing" textLength="249.6724" x="245.5" y="442.2935">&#8226; Presenta advertencia de eliminaci&#243;n</text><text fill="#000000" font-family="sans-serif" font-size="13" lengthAdjust="spacing" textLength="263.3706" x="245.5" y="457.4263">&#8226; Permite solicitar confirmar eliminaci&#243;n</text><text fill="#000000" font-family="sans-serif" font-size="13" lengthAdjust="spacing" textLength="255.9438" x="245.5" y="472.5591">&#8226; Permite solicitar cancelar eliminaci&#243;n</text></g><!--link EliminandoPregunta to *end*eliminarPregunta--><g class="link" data-entity-1="EliminandoPregunta" data-entity-2=".end.eliminarPregunta" data-source-line="39" data-uid="lnk8" id="link_EliminandoPregunta_.end.eliminarPregunta"><path d="M237.34,553.4669 C239.41,580.7269 242.5,621.2969 242.5,621.2969 C242.5,621.2969 357.4507,640.3461 394.7507,646.5261" fill="none" id="EliminandoPregunta-to-*end*eliminarPregunta" style="stroke:#008000;stroke-width:1;"/><polygon fill="#008000" points="400.67,647.5069,392.4449,642.0896,395.7372,646.6896,391.1372,649.982,400.67,647.5069" style="stroke:#008000;stroke-width:1;"/><path d="M247.5,576.2969 L247.5,616.2969 L566.5,616.2969 L566.5,586.2969 L556.5,576.2969 L247.5,576.2969" fill="#FEFFDD" style="stroke:#181818;stroke-width:0.5;"/><path d="M556.5,576.2969 L556.5,586.2969 L566.5,586.2969 L556.5,576.2969" fill="#FEFFDD" style="stroke:#181818;stroke-width:0.5;"/><text fill="#000000" font-family="sans-serif" font-size="13" font-weight="bold" lengthAdjust="spacing" textLength="60.5313" x="253.5" y="593.3638">Docente</text><text fill="#000000" font-family="sans-serif" font-size="13" lengthAdjust="spacing" textLength="233.5303" x="318.1636" y="593.3638">solicita confirmaci&#243;n de eliminaci&#243;n</text><text fill="#000000" font-family="sans-serif" font-size="13" font-weight="bold" lengthAdjust="spacing" textLength="58.9063" x="253.5" y="608.4966">Sistema</text><text fill="#000000" font-family="sans-serif" font-size="13" lengthAdjust="spacing" textLength="129.7524" x="316.5386" y="608.4966">permite eliminaci&#243;n</text></g><!--link ConfirmandoEliminacion to *end*eliminarPregunta--><g class="link" data-entity-1="ConfirmandoEliminacion" data-entity-2=".end.eliminarPregunta" data-source-line="46" data-uid="lnk9" id="link_ConfirmandoEliminacion_.end.eliminarPregunta"><path d="M434.81,278.8569 C480.38,290.6769 571.5,314.2969 571.5,314.2969 C571.5,314.2969 571.5,621.2969 571.5,621.2969 C571.5,621.2969 464.0301,640.1022 428.1601,646.3822" fill="none" id="ConfirmandoEliminacion-to-*end*eliminarPregunta" style="stroke:#FF0000;stroke-width:1;"/><polygon fill="#FF0000" points="422.25,647.4169,431.805,649.8049,427.1751,646.5546,430.4253,641.9247,422.25,647.4169" style="stroke:#FF0000;stroke-width:1;"/></g><!--link PREGUNTAS_ABIERTO to eliminarPregunta--><g class="link" data-entity-1="PREGUNTAS_ABIERTO" data-entity-2="eliminarPregunta" data-source-line="12" data-uid="lnk2" id="link_PREGUNTAS_ABIERTO_eliminarPregunta"><path d="M312,57.21 C317.6,72.29 323.3804,87.8156 332.4604,112.2556" fill="none" id="PREGUNTAS_ABIERTO-to-eliminarPregunta" style="stroke:#008000;stroke-width:1;"/><polygon fill="#008000" points="334.55,117.88,335.1652,108.0504,332.8087,113.193,327.666,110.8365,334.55,117.88" style="stroke:#008000;stroke-width:1;"/></g><!--link PREGUNTAS_CONTEXTUALES_ABIERTO to eliminarPregunta--><g class="link" data-entity-1="PREGUNTAS_CONTEXTUALES_ABIERTO" data-entity-2="eliminarPregunta" data-source-line="13" data-uid="lnk3" id="link_PREGUNTAS_CONTEXTUALES_ABIERTO_eliminarPregunta"><path d="M562.93,57.21 C557.29,72.29 551.4757,87.8216 542.3157,112.2616" fill="none" id="PREGUNTAS_CONTEXTUALES_ABIERTO-to-eliminarPregunta" style="stroke:#008000;stroke-width:1;"/><polygon fill="#008000" points="540.21,117.88,547.1142,110.8563,541.9648,113.198,539.623,108.0486,540.21,117.88" style="stroke:#008000;stroke-width:1;"/></g><!--link eliminarPregunta to PREGUNTAS_ABIERTO2--><g class="link" data-entity-1="eliminarPregunta" data-entity-2="PREGUNTAS_ABIERTO2" data-source-line="51" data-uid="lnk10" id="link_eliminarPregunta_PREGUNTAS_ABIERTO2"><path d="M198.31,670.03 C163.92,709.59 137.7367,739.6921 118.8267,761.4421" fill="none" id="eliminarPregunta-to-PREGUNTAS_ABIERTO2" style="stroke:#008000;stroke-width:1;"/><polygon fill="#008000" points="114.89,765.97,123.8137,761.8026,118.1706,762.1967,117.7764,756.5536,114.89,765.97" style="stroke:#008000;stroke-width:1;"/><path d="M174,706 L174,731 L300,731 L300,716 L290,706 L174,706" fill="#FEFFDD" style="stroke:#181818;stroke-width:0.5;"/><path d="M290,706 L290,716 L300,716 L290,706" fill="#FEFFDD" style="stroke:#181818;stroke-width:0.5;"/><text fill="#000000" font-family="sans-serif" font-size="13" lengthAdjust="spacing" textLength="105.8408" x="180" y="723.0669">lista actualizada</text></g><!--link eliminarPregunta to PREGUNTAS_ABIERTO3--><g class="link" data-entity-1="eliminarPregunta" data-entity-2="PREGUNTAS_ABIERTO3" data-source-line="56" data-uid="lnk11" id="link_eliminarPregunta_PREGUNTAS_ABIERTO3"><path d="M343.39,671.1 C330.14,710.1 320.479,738.5385 313.159,760.0985" fill="none" id="eliminarPregunta-to-PREGUNTAS_ABIERTO3" style="stroke:#0000FF;stroke-width:1;"/><polygon fill="#0000FF" points="311.23,765.78,317.9111,758.5438,312.8375,761.0454,310.3358,755.9718,311.23,765.78" style="stroke:#0000FF;stroke-width:1;"/><path d="M337,706 L337,731 L492,731 L492,716 L482,706 L337,706" fill="#FEFFDD" style="stroke:#181818;stroke-width:0.5;"/><path d="M482,706 L482,716 L492,716 L482,706" fill="#FEFFDD" style="stroke:#181818;stroke-width:0.5;"/><text fill="#000000" font-family="sans-serif" font-size="13" lengthAdjust="spacing" textLength="134.2085" x="343" y="723.0669">cancelar eliminaci&#243;n</text></g><!--link eliminarPregunta to PREGUNTAS_CONTEXTUALES_ABIERTO2--><g class="link" data-entity-1="eliminarPregunta" data-entity-2="PREGUNTAS_CONTEXTUALES_ABIERTO2" data-source-line="63" data-uid="lnk12" id="link_eliminarPregunta_PREGUNTAS_CONTEXTUALES_ABIERTO2"><path d="M531.31,671.1 C544.66,710.1 554.3869,738.5434 561.7669,760.1034" fill="none" id="eliminarPregunta-to-PREGUNTAS_CONTEXTUALES_ABIERTO2" style="stroke:#008000;stroke-width:1;"/><polygon fill="#008000" points="563.71,765.78,564.5798,755.9696,562.0907,761.0495,557.0109,758.5604,563.71,765.78" style="stroke:#008000;stroke-width:1;"/><path d="M557,706 L557,731 L683,731 L683,716 L673,706 L557,706" fill="#FEFFDD" style="stroke:#181818;stroke-width:0.5;"/><path d="M673,706 L673,716 L683,716 L673,706" fill="#FEFFDD" style="stroke:#181818;stroke-width:0.5;"/><text fill="#000000" font-family="sans-serif" font-size="13" lengthAdjust="spacing" textLength="105.8408" x="563" y="723.0669">lista actualizada</text></g><!--link eliminarPregunta to PREGUNTAS_CONTEXTUALES_ABIERTO3--><g class="link" data-entity-1="eliminarPregunta" data-entity-2="PREGUNTAS_CONTEXTUALES_ABIERTO3" data-source-line="68" data-uid="lnk13" id="link_eliminarPregunta_PREGUNTAS_CONTEXTUALES_ABIERTO3"><path d="M675.62,598.82 C754.2,665.77 827.1128,727.8989 867.2428,762.0889" fill="none" id="eliminarPregunta-to-PREGUNTAS_CONTEXTUALES_ABIERTO3" style="stroke:#0000FF;stroke-width:1;"/><polygon fill="#0000FF" points="871.81,765.98,867.5533,757.0985,868.004,762.7374,862.3652,763.1881,871.81,765.98" style="stroke:#0000FF;stroke-width:1;"/><path d="M837,706 L837,731 L992,731 L992,716 L982,706 L837,706" fill="#FEFFDD" style="stroke:#181818;stroke-width:0.5;"/><path d="M982,706 L982,716 L992,716 L982,706" fill="#FEFFDD" style="stroke:#181818;stroke-width:0.5;"/><text fill="#000000" font-family="sans-serif" font-size="13" lengthAdjust="spacing" textLength="134.2085" x="843" y="723.0669">cancelar eliminaci&#243;n</text></g><!--SRC=[hLHHQjj04FtVKmpkXvD2KXhtAmI3QeiGC8wn5IY4KDRIs2oHPytkgYGjXPwbLyWHUfEUfBkA9LdMoYXG2mmxcddptXljw4T1Mwxu1b91Q9wt25kPFhi3OttuU0vZN0aIiVZpGf0WXDhmH6e8dmmgafhPiq6OpSFhksaKBBu6ds_2UNJR5hy0hg7N2FVQyWTTyqUtqoZy4jq5ax2TX2_fa94lfrkxGISaQ-l5EKIAaxQsIaAT-pgDvi4uO0sbS7R_RgqGwU5i29YAZI2kPWhN6HdEZZSxNhlJT1ZFHHm6Jqvxy8CniB_NgfvzRE98qage3QT4XgybJb8pR_VIffNjNGxa__Vl7sfCZu2Ij9YItDVwc0UkbiEnZ94CNdrO3a7Br9fgHHG2OBlV3od98VQQ-vlL-BIGzt5P26rmmtCkjhD6PwYWbRGToZkKyfBLPLxuzzTl2BHO4pUPub36Giee5lQ-LQ78ebUdiLY9E4ljbIn3SzJR3Atv6lPKkZUpWWzFlg4owA0T7InaMtfLCggDiFeAGnN4EwDKvm9ECQQ-VCyOcXxNHc0_aRVDls1RcjuWSJYj7Vzsilcf3mkUYiGDrIt0tC2TqAga_PjIc1HoVhfDC6XkWaKmkHa7S3BYMbx2n5BaS8s4YgUdZ3LkwxvBpMtBQeQbEHYFJMOrVES9PvKu7_0opT2BEwZZ-YTTOVVXKpUTrZY3JuvUTwdUdVw_TNlN_LjC-0S0]--></g></svg>