<svg xmlns="http://www.w3.org/2000/svg" xmlns:xlink="http://www.w3.org/1999/xlink" contentStyleType="text/css" data-diagram-type="STATE" height="807px" preserveAspectRatio="none" style="width:747px;height:807px;background:#FFFFFF;" version="1.1" viewBox="0 0 747 807" width="747px" zoomAndPan="magnify"><defs/><g><g id="ALUMNOS_ABIERTO"><rect fill="#F1F1F1" height="50" rx="12.5" ry="12.5" style="stroke:#181818;stroke-width:0.5;" width="158.5371" x="197" y="7"/><line style="stroke:#181818;stroke-width:0.5;" x1="197" x2="355.5371" y1="33.2969" y2="33.2969"/><text fill="#000000" font-family="sans-serif" font-size="14" lengthAdjust="spacing" textLength="138.5371" x="207" y="24.9951">ALUMNOS_ABIERTO</text></g><g id="ALUMNOS_ABIERTO2"><rect fill="#F1F1F1" height="50" rx="12.5" ry="12.5" style="stroke:#181818;stroke-width:0.5;" width="158.5371" x="97" y="751"/><line style="stroke:#181818;stroke-width:0.5;" x1="97" x2="255.5371" y1="777.2969" y2="777.2969"/><text fill="#000000" font-family="sans-serif" font-size="14" lengthAdjust="spacing" textLength="138.5371" x="107" y="768.9951">ALUMNOS_ABIERTO</text></g><g id="ALUMNOS_ABIERTO3"><rect fill="#F1F1F1" height="50" rx="12.5" ry="12.5" style="stroke:#181818;stroke-width:0.5;" width="158.5371" x="291" y="751"/><line style="stroke:#181818;stroke-width:0.5;" x1="291" x2="449.5371" y1="777.2969" y2="777.2969"/><text fill="#000000" font-family="sans-serif" font-size="14" lengthAdjust="spacing" textLength="138.5371" x="301" y="768.9951">ALUMNOS_ABIERTO</text></g><g id="ALUMNOS_ABIERTO4"><rect fill="#F1F1F1" height="50" rx="12.5" ry="12.5" style="stroke:#181818;stroke-width:0.5;" width="158.5371" x="485" y="751"/><line style="stroke:#181818;stroke-width:0.5;" x1="485" x2="643.5371" y1="777.2969" y2="777.2969"/><text fill="#000000" font-family="sans-serif" font-size="14" lengthAdjust="spacing" textLength="138.5371" x="495" y="768.9951">ALUMNOS_ABIERTO</text></g><path d="M19.5,118 L721.5,118 A12.5,12.5 0 0 1 734,130.5 L734,144.2969 L7,144.2969 L7,130.5 A12.5,12.5 0 0 1 19.5,118" fill="#F1F1F1"/><rect fill="none" height="538.2969" rx="12.5" ry="12.5" style="stroke:#181818;stroke-width:0.5;" width="727" x="7" y="118"/><line style="stroke:#181818;stroke-width:0.5;" x1="7" x2="734" y1="144.2969" y2="144.2969"/><text fill="#000000" font-family="sans-serif" font-size="14" lengthAdjust="spacing" textLength="105.5537" x="317.7231" y="135.9951">editarAlumno()</text><g id="editarAlumno.EditandoDatos"><rect fill="#F1F1F1" height="50" rx="12.5" ry="12.5" style="stroke:#181818;stroke-width:0.5;" width="50" x="255" y="246.2969"/><line style="stroke:#181818;stroke-width:0.5;" x1="255" x2="305" y1="272.5938" y2="272.5938"/><text fill="#000000" font-family="sans-serif" font-size="14" lengthAdjust="spacing" textLength="4.4502" x="277.7749" y="264.292">&#160;</text></g><g id="editarAlumno.GuardandoDatos"><rect fill="#F1F1F1" height="50" rx="12.5" ry="12.5" style="stroke:#181818;stroke-width:0.5;" width="50" x="255" y="503.2969"/><line style="stroke:#181818;stroke-width:0.5;" x1="255" x2="305" y1="529.5938" y2="529.5938"/><text fill="#000000" font-family="sans-serif" font-size="14" lengthAdjust="spacing" textLength="4.4502" x="277.7749" y="521.292">&#160;</text></g><ellipse cx="280" cy="165.2969" fill="#222222" rx="10" ry="10" style="stroke:#222222;stroke-width:1;"/><ellipse cx="280" cy="635.2969" fill="none" rx="11" ry="11" style="stroke:#222222;stroke-width:1;"/><ellipse cx="280" cy="635.2969" fill="#222222" rx="6" ry="6" style="stroke:#222222;stroke-width:1;"/><!--link *start*editarAlumno to EditandoDatos--><g class="link" data-entity-1=".start.editarAlumno" data-entity-2="EditandoDatos" data-source-line="17" data-uid="lnk6" id="link_.start.editarAlumno_EditandoDatos"><path d="M280,175.5269 C280,191.2369 280,217.6569 280,240.1669" fill="none" id="*start*editarAlumno-to-EditandoDatos" style="stroke:#008000;stroke-width:1;"/><polygon fill="#008000" points="280,246.1669,284,237.1669,280,241.1669,276,237.1669,280,246.1669" style="stroke:#008000;stroke-width:1;"/><path d="M285,198.2969 L285,223.2969 L511,223.2969 L511,208.2969 L501,198.2969 L285,198.2969" fill="#FEFFDD" style="stroke:#181818;stroke-width:0.5;"/><path d="M501,198.2969 L501,208.2969 L511,208.2969 L501,198.2969" fill="#FEFFDD" style="stroke:#181818;stroke-width:0.5;"/><text fill="#000000" font-family="sans-serif" font-size="13" font-weight="bold" lengthAdjust="spacing" textLength="60.5313" x="291" y="215.3638">Docente</text><text fill="#000000" font-family="sans-serif" font-size="13" lengthAdjust="spacing" textLength="140.9814" x="355.6636" y="215.3638">solicita editar alumno</text></g><!--link EditandoDatos to GuardandoDatos--><g class="link" data-entity-1="EditandoDatos" data-entity-2="GuardandoDatos" data-source-line="22" data-uid="lnk7" id="link_EditandoDatos_GuardandoDatos"><path d="M254.94,279.7069 C214.17,291.7669 138,314.2969 138,314.2969 C138,314.2969 138,485.2969 138,485.2969 C138,485.2969 208.4164,506.1249 249.1864,518.1849" fill="none" id="EditandoDatos-to-GuardandoDatos" style="stroke:#008000;stroke-width:1;"/><polygon fill="#008000" points="254.94,519.8869,247.4443,513.4983,250.1454,518.4686,245.175,521.1697,254.94,519.8869" style="stroke:#008000;stroke-width:1;"/><path d="M143,319.2969 L143,480.2969 L396,480.2969 L396,329.2969 L386,319.2969 L143,319.2969" fill="#FEFFDD" style="stroke:#181818;stroke-width:0.5;"/><path d="M386,319.2969 L386,329.2969 L396,329.2969 L386,319.2969" fill="#FEFFDD" style="stroke:#181818;stroke-width:0.5;"/><text fill="#000000" font-family="sans-serif" font-size="13" font-weight="bold" lengthAdjust="spacing" textLength="58.9063" x="149" y="336.3638">Sistema</text><text fill="#000000" font-family="sans-serif" font-size="13" lengthAdjust="spacing" textLength="169.1714" x="212.0386" y="336.3638">presenta datos de edici&#243;n</text><text fill="#000000" font-family="sans-serif" font-size="13" lengthAdjust="spacing" textLength="35.3691" x="149" y="351.4966">&#8226; DNI</text><text fill="#000000" font-family="sans-serif" font-size="13" lengthAdjust="spacing" textLength="63.7368" x="149" y="366.6294">&#8226; Nombre</text><text fill="#000000" font-family="sans-serif" font-size="13" lengthAdjust="spacing" textLength="70.7573" x="149" y="381.7622">&#8226; Apellidos</text><text fill="#000000" font-family="sans-serif" font-size="13" lengthAdjust="spacing" textLength="4.1323" x="149" y="396.895">&#160;</text><text fill="#000000" font-family="sans-serif" font-size="13" font-weight="bold" lengthAdjust="spacing" textLength="58.9063" x="149" y="412.0278">Sistema</text><text fill="#000000" font-family="sans-serif" font-size="13" lengthAdjust="spacing" textLength="110.5952" x="212.0386" y="412.0278">permite solicitar:</text><text fill="#000000" font-family="sans-serif" font-size="13" lengthAdjust="spacing" textLength="127.8164" x="149" y="427.1606">&#8226; modificar campos</text><text fill="#000000" font-family="sans-serif" font-size="13" lengthAdjust="spacing" textLength="115.9717" x="149" y="442.2935">&#8226; guardar alumno</text><text fill="#000000" font-family="sans-serif" font-size="13" lengthAdjust="spacing" textLength="118.168" x="149" y="457.4263">&#8226; cancelar edici&#243;n</text><text fill="#000000" font-family="sans-serif" font-size="13" lengthAdjust="spacing" textLength="64.8477" x="149" y="472.5591">&#8226; eliminar</text></g><!--link GuardandoDatos to EditandoDatos--><g class="link" data-entity-1="GuardandoDatos" data-entity-2="EditandoDatos" data-source-line="36" data-uid="lnk8" id="link_GuardandoDatos_EditandoDatos"><path d="M305.07,518.5969 C340.51,506.2969 401,485.2969 401,485.2969 C401,485.2969 401,314.2969 401,314.2969 C401,314.2969 346.1783,295.2642 310.7383,282.9642" fill="none" id="GuardandoDatos-to-EditandoDatos" style="stroke:#008000;stroke-width:1;"/><polygon fill="#008000" points="305.07,280.9969,312.261,287.7267,309.7936,282.6363,314.884,280.1689,305.07,280.9969" style="stroke:#008000;stroke-width:1;"/><path d="M406,387.2969 L406,412.2969 L657,412.2969 L657,397.2969 L647,387.2969 L406,387.2969" fill="#FEFFDD" style="stroke:#181818;stroke-width:0.5;"/><path d="M647,387.2969 L647,397.2969 L657,397.2969 L647,387.2969" fill="#FEFFDD" style="stroke:#181818;stroke-width:0.5;"/><text fill="#000000" font-family="sans-serif" font-size="13" font-weight="bold" lengthAdjust="spacing" textLength="60.5313" x="412" y="404.3638">Docente</text><text fill="#000000" font-family="sans-serif" font-size="13" lengthAdjust="spacing" textLength="165.9214" x="476.6636" y="404.3638">solicita modificar campos</text></g><!--link GuardandoDatos to *end*editarAlumno--><g class="link" data-entity-1="GuardandoDatos" data-entity-2=".end.editarAlumno" data-source-line="41" data-uid="lnk10" id="link_GuardandoDatos_.end.editarAlumno"><path d="M254.88,533.3269 C189.3,543.8369 18,571.2969 18,571.2969 C18,571.2969 18,606.2969 18,606.2969 C18,606.2969 213.524,627.1892 263.114,632.4892" fill="none" id="GuardandoDatos-to-*end*editarAlumno" style="stroke:#008000;stroke-width:1;"/><polygon fill="#008000" points="269.08,633.1269,260.556,628.1931,264.1083,632.5955,259.7059,636.1478,269.08,633.1269" style="stroke:#008000;stroke-width:1;"/><path d="M23,576.2969 L23,601.2969 L253,601.2969 L253,586.2969 L243,576.2969 L23,576.2969" fill="#FEFFDD" style="stroke:#181818;stroke-width:0.5;"/><path d="M243,576.2969 L243,586.2969 L253,586.2969 L243,576.2969" fill="#FEFFDD" style="stroke:#181818;stroke-width:0.5;"/><text fill="#000000" font-family="sans-serif" font-size="13" font-weight="bold" lengthAdjust="spacing" textLength="60.5313" x="29" y="593.3638">Docente</text><text fill="#000000" font-family="sans-serif" font-size="13" lengthAdjust="spacing" textLength="144.5361" x="93.6636" y="593.3638">solicita guardar y salir</text></g><!--link GuardandoDatos to *end*editarAlumno--><g class="link" data-entity-1="GuardandoDatos" data-entity-2=".end.editarAlumno" data-source-line="46" data-uid="lnk11" id="link_GuardandoDatos_.end.editarAlumno"><path d="M280,553.3869 C280,575.7869 280,602.0669 280,618.2469" fill="none" id="GuardandoDatos-to-*end*editarAlumno-1" style="stroke:#0000FF;stroke-width:1;"/><polygon fill="#0000FF" points="280,624.2469,284,615.2469,280,619.2469,276,615.2469,280,624.2469" style="stroke:#0000FF;stroke-width:1;"/><path d="M285,576.2969 L285,601.2969 L473,601.2969 L473,586.2969 L463,576.2969 L285,576.2969" fill="#FEFFDD" style="stroke:#181818;stroke-width:0.5;"/><path d="M463,576.2969 L463,586.2969 L473,586.2969 L463,576.2969" fill="#FEFFDD" style="stroke:#181818;stroke-width:0.5;"/><text fill="#000000" font-family="sans-serif" font-size="13" font-weight="bold" lengthAdjust="spacing" textLength="60.5313" x="291" y="593.3638">Docente</text><text fill="#000000" font-family="sans-serif" font-size="13" lengthAdjust="spacing" textLength="102.9526" x="355.6636" y="593.3638">solicita eliminar</text></g><!--link GuardandoDatos to *end*editarAlumno--><g class="link" data-entity-1="GuardandoDatos" data-entity-2=".end.editarAlumno" data-source-line="51" data-uid="lnk12" id="link_GuardandoDatos_.end.editarAlumno"><path d="M305.2,534.6169 C358.75,545.9169 479,571.2969 479,571.2969 C479,571.2969 479,606.2969 479,606.2969 C479,606.2969 338.6415,626.0409 296.9215,631.9109" fill="none" id="GuardandoDatos-to-*end*editarAlumno-2" style="stroke:#FF0000;stroke-width:1;"/><polygon fill="#FF0000" points="290.98,632.7469,300.4495,635.4539,295.9312,632.0502,299.3349,627.5319,290.98,632.7469" style="stroke:#FF0000;stroke-width:1;"/><path d="M484,576.2969 L484,601.2969 L725,601.2969 L725,586.2969 L715,576.2969 L484,576.2969" fill="#FEFFDD" style="stroke:#181818;stroke-width:0.5;"/><path d="M715,576.2969 L715,586.2969 L725,586.2969 L715,576.2969" fill="#FEFFDD" style="stroke:#181818;stroke-width:0.5;"/><text fill="#000000" font-family="sans-serif" font-size="13" font-weight="bold" lengthAdjust="spacing" textLength="60.5313" x="490" y="593.3638">Docente</text><text fill="#000000" font-family="sans-serif" font-size="13" lengthAdjust="spacing" textLength="156.2729" x="554.6636" y="593.3638">solicita cancelar edici&#243;n</text></g><g id="ALUMNO_ABIERTO"><rect fill="#F1F1F1" height="50" rx="12.5" ry="12.5" style="stroke:#181818;stroke-width:0.5;" width="149.6504" x="390.5" y="7"/><line style="stroke:#181818;stroke-width:0.5;" x1="390.5" x2="540.1504" y1="33.2969" y2="33.2969"/><text fill="#000000" font-family="sans-serif" font-size="14" lengthAdjust="spacing" textLength="129.6504" x="400.5" y="24.9951">ALUMNO_ABIERTO</text></g><!--link ALUMNOS_ABIERTO to editarAlumno--><g class="link" data-entity-1="ALUMNOS_ABIERTO" data-entity-2="editarAlumno" data-source-line="8" data-uid="lnk2" id="link_ALUMNOS_ABIERTO_editarAlumno"><path d="M282.96,57.26 C286.98,72.37 291.0861,87.762 297.5861,112.172" fill="none" id="ALUMNOS_ABIERTO-to-editarAlumno" style="stroke:#008000;stroke-width:1;"/><polygon fill="#008000" points="299.13,117.97,300.6794,108.2438,297.8434,113.1384,292.9488,110.3023,299.13,117.97" style="stroke:#008000;stroke-width:1;"/></g><!--link ALUMNO_ABIERTO to editarAlumno--><g class="link" data-entity-1="ALUMNO_ABIERTO" data-entity-2="editarAlumno" data-source-line="10" data-uid="lnk4" id="link_ALUMNO_ABIERTO_editarAlumno"><path d="M458.97,57.26 C454.9,72.37 450.7594,87.7662 444.1894,112.1762" fill="none" id="ALUMNO_ABIERTO-to-editarAlumno" style="stroke:#008000;stroke-width:1;"/><polygon fill="#008000" points="442.63,117.97,448.8317,110.3189,443.9295,113.1418,441.1066,108.2397,442.63,117.97" style="stroke:#008000;stroke-width:1;"/></g><!--link editarAlumno to ALUMNOS_ABIERTO2--><g class="link" data-entity-1="editarAlumno" data-entity-2="ALUMNOS_ABIERTO2" data-source-line="57" data-uid="lnk13" id="link_editarAlumno_ALUMNOS_ABIERTO2"><path d="M236.02,656.26 C216.55,695.1 202.1483,723.8259 191.3383,745.3959" fill="none" id="editarAlumno-to-ALUMNOS_ABIERTO2" style="stroke:#008000;stroke-width:1;"/><polygon fill="#008000" points="188.65,750.76,196.2584,744.5061,190.8902,746.2899,189.1063,740.9217,188.65,750.76" style="stroke:#008000;stroke-width:1;"/><path d="M223.5,691 L223.5,716 L295.5,716 L295.5,701 L285.5,691 L223.5,691" fill="#FEFFDD" style="stroke:#181818;stroke-width:0.5;"/><path d="M285.5,691 L285.5,701 L295.5,701 L285.5,691" fill="#FEFFDD" style="stroke:#181818;stroke-width:0.5;"/><text fill="#000000" font-family="sans-serif" font-size="13" lengthAdjust="spacing" textLength="51.3652" x="229.5" y="708.0669">guardar</text></g><!--link editarAlumno to ALUMNOS_ABIERTO3--><g class="link" data-entity-1="editarAlumno" data-entity-2="ALUMNOS_ABIERTO3" data-source-line="62" data-uid="lnk14" id="link_editarAlumno_ALUMNOS_ABIERTO3"><path d="M370.5,656.26 C370.5,695.1 370.5,723.19 370.5,744.76" fill="none" id="editarAlumno-to-ALUMNOS_ABIERTO3" style="stroke:#FF0000;stroke-width:1;"/><polygon fill="#FF0000" points="370.5,750.76,374.5,741.76,370.5,745.76,366.5,741.76,370.5,750.76" style="stroke:#FF0000;stroke-width:1;"/><path d="M375.5,691 L375.5,716 L502.5,716 L502.5,701 L492.5,691 L375.5,691" fill="#FEFFDD" style="stroke:#181818;stroke-width:0.5;"/><path d="M492.5,691 L492.5,701 L502.5,701 L492.5,691" fill="#FEFFDD" style="stroke:#181818;stroke-width:0.5;"/><text fill="#000000" font-family="sans-serif" font-size="13" lengthAdjust="spacing" textLength="106.3677" x="381.5" y="708.0669">cancelar edici&#243;n</text></g><!--link editarAlumno to ALUMNOS_ABIERTO4--><g class="link" data-entity-1="editarAlumno" data-entity-2="ALUMNOS_ABIERTO4" data-source-line="67" data-uid="lnk15" id="link_editarAlumno_ALUMNOS_ABIERTO4"><path d="M504.98,656.26 C524.45,695.1 538.8517,723.8259 549.6617,745.3959" fill="none" id="editarAlumno-to-ALUMNOS_ABIERTO4" style="stroke:#0000FF;stroke-width:1;"/><polygon fill="#0000FF" points="552.35,750.76,551.8937,740.9217,550.1098,746.2899,544.7416,744.5061,552.35,750.76" style="stroke:#0000FF;stroke-width:1;"/><path d="M540.5,691 L540.5,716 L614.5,716 L614.5,701 L604.5,691 L540.5,691" fill="#FEFFDD" style="stroke:#181818;stroke-width:0.5;"/><path d="M604.5,691 L604.5,701 L614.5,701 L604.5,691" fill="#FEFFDD" style="stroke:#181818;stroke-width:0.5;"/><text fill="#000000" font-family="sans-serif" font-size="13" lengthAdjust="spacing" textLength="53.0474" x="546.5" y="708.0669">eliminar</text></g><!--SRC=[dLJTIiCm6BtFKtpK6nM6e5x965GsPA0REBqQGzBcSuIbIKcxYo62p-8h-0Y-YKzYclwiwLfOrq4XNqxEET_vkYGRBcEgQGI2IqntCKAin2vR49AaD4Nm7r-VPlF5cty_dJo_pDkhrq0Jy1f5hnrxqmDxsuubZGeCbcThZIXNWn4WuodLljX6KfN88u2vVhrcjUk5ymiFFWW1y-Hep_mCQ99X95DZcghaSFjXIpMhzY4dM5wk73CE1rY8L8P3oMmq6riO1gEn2b6cEBmAHf0emKDpgZ0DDEyaGw9a-N7paEhbQjJLNOkTwWkUf1XHgnvhJ8mL2iooCPjTo7z_f4N_VNt3U3Q5QZ5JKQ2nMlen2i5P8TOgW3hYnaFPfhwh3aUAyNSUcfv36iK5HxQnjdquKMJbaCeGXQaVM4J18owfTbBRMsgChdDW_URLQh-NkFbw-acMmUmWeO8VtsuWjdYIO7km7IeQsKaYxNEjr3u9SVxFzGIR5nXnH8kuoDvuawYmtBpRN9f3Vzs4PTBD6z1bh68jYVu1]--></g></svg>