<svg xmlns="http://www.w3.org/2000/svg" xmlns:xlink="http://www.w3.org/1999/xlink" contentStyleType="text/css" data-diagram-type="STATE" height="1053px" preserveAspectRatio="none" style="width:1495px;height:1053px;background:#FFFFFF;" version="1.1" viewBox="0 0 1495 1053" width="1495px" zoomAndPan="magnify"><defs/><g><path d="M19.5,118 L1469.622,118 A12.5,12.5 0 0 1 1482.122,130.5 L1482.122,144.2969 L7,144.2969 L7,130.5 A12.5,12.5 0 0 1 19.5,118" fill="#F1F1F1"/><rect fill="none" height="784.2969" rx="12.5" ry="12.5" style="stroke:#181818;stroke-width:0.5;" width="1475.122" x="7" y="118"/><line style="stroke:#181818;stroke-width:0.5;" x1="7" x2="1482.122" y1="144.2969" y2="144.2969"/><text fill="#000000" font-family="sans-serif" font-size="14" lengthAdjust="spacing" textLength="138.7422" x="675.1899" y="135.9951">generarExamenes()</text><g id="generarExamenes.RequiringGeneration"><rect fill="#F1F1F1" height="50" rx="12.5" ry="12.5" style="stroke:#181818;stroke-width:0.5;" width="50" x="389.122" y="246.2969"/><line style="stroke:#181818;stroke-width:0.5;" x1="389.122" x2="439.122" y1="272.5938" y2="272.5938"/><text fill="#000000" font-family="sans-serif" font-size="14" lengthAdjust="spacing" textLength="4.4502" x="411.8969" y="264.292">&#160;</text></g><g id="generarExamenes.ProvidingData"><rect fill="#F1F1F1" height="50" rx="12.5" ry="12.5" style="stroke:#181818;stroke-width:0.5;" width="50" x="389.122" y="397.2969"/><line style="stroke:#181818;stroke-width:0.5;" x1="389.122" x2="439.122" y1="423.5938" y2="423.5938"/><text fill="#000000" font-family="sans-serif" font-size="14" lengthAdjust="spacing" textLength="4.4502" x="411.8969" y="415.292">&#160;</text></g><g id="generarExamenes.ProvidingConfirmation"><rect fill="#F1F1F1" height="50" rx="12.5" ry="12.5" style="stroke:#181818;stroke-width:0.5;" width="50" x="912.122" y="624.2969"/><line style="stroke:#181818;stroke-width:0.5;" x1="912.122" x2="962.122" y1="650.5938" y2="650.5938"/><text fill="#000000" font-family="sans-serif" font-size="14" lengthAdjust="spacing" textLength="4.4502" x="934.8969" y="642.292">&#160;</text></g><g class="entity" data-entity="c" data-uid="ent0006" id="entity_c"><polygon fill="#F1F1F1" points="414.122,775.2969,426.122,787.2969,414.122,799.2969,402.122,787.2969,414.122,775.2969" style="stroke:#181818;stroke-width:0.5;"/></g><ellipse cx="414.122" cy="165.2969" fill="#222222" rx="10" ry="10" style="stroke:#222222;stroke-width:1;"/><ellipse cx="29.122" cy="881.2969" fill="none" rx="11" ry="11" style="stroke:#222222;stroke-width:1;"/><ellipse cx="29.122" cy="881.2969" fill="#222222" rx="6" ry="6" style="stroke:#222222;stroke-width:1;"/><!--link *start*generarExamenes to RequiringGeneration--><g class="link" data-entity-1=".start.generarExamenes" data-entity-2="RequiringGeneration" data-source-line="10" data-uid="lnk3" id="link_.start.generarExamenes_RequiringGeneration"><path d="M414.122,175.5269 C414.122,191.2369 414.122,217.6569 414.122,240.1669" fill="none" id="*start*generarExamenes-to-RequiringGeneration" style="stroke:#008000;stroke-width:1;"/><polygon fill="#008000" points="414.122,246.1669,418.122,237.1669,414.122,241.1669,410.122,237.1669,414.122,246.1669" style="stroke:#008000;stroke-width:1;"/><path d="M419.122,198.2969 L419.122,223.2969 L677.122,223.2969 L677.122,208.2969 L667.122,198.2969 L419.122,198.2969" fill="#FEFFDD" style="stroke:#181818;stroke-width:0.5;"/><path d="M667.122,198.2969 L667.122,208.2969 L677.122,208.2969 L667.122,198.2969" fill="#FEFFDD" style="stroke:#181818;stroke-width:0.5;"/><text fill="#000000" font-family="sans-serif" font-size="13" font-weight="bold" lengthAdjust="spacing" textLength="60.5313" x="425.122" y="215.3638">Docente</text><text fill="#000000" font-family="sans-serif" font-size="13" lengthAdjust="spacing" textLength="172.5103" x="489.7855" y="215.3638">solicita generar ex&#225;menes</text></g><!--link RequiringGeneration to ProvidingData--><g class="link" data-entity-1="RequiringGeneration" data-entity-2="ProvidingData" data-source-line="15" data-uid="lnk4" id="link_RequiringGeneration_ProvidingData"><path d="M414.122,296.5669 C414.122,324.2769 414.122,363.3369 414.122,391.0369" fill="none" id="RequiringGeneration-to-ProvidingData" style="stroke:#008000;stroke-width:1;"/><polygon fill="#008000" points="414.122,397.0369,418.122,388.0369,414.122,392.0369,410.122,388.0369,414.122,397.0369" style="stroke:#008000;stroke-width:1;"/><path d="M419.122,319.2969 L419.122,374.2969 L758.122,374.2969 L758.122,329.2969 L748.122,319.2969 L419.122,319.2969" fill="#FEFFDD" style="stroke:#181818;stroke-width:0.5;"/><path d="M748.122,319.2969 L748.122,329.2969 L758.122,329.2969 L748.122,319.2969" fill="#FEFFDD" style="stroke:#181818;stroke-width:0.5;"/><text fill="#000000" font-family="sans-serif" font-size="13" font-weight="bold" lengthAdjust="spacing" textLength="58.9063" x="425.122" y="336.3638">Sistema</text><text fill="#000000" font-family="sans-serif" font-size="13" lengthAdjust="spacing" textLength="50.9653" x="488.1605" y="336.3638">permite</text><text fill="#000000" font-family="sans-serif" font-size="13" lengthAdjust="spacing" textLength="318.5317" x="425.122" y="351.4966">&#8226; introducir datos disponibles para la generaci&#243;n</text><text fill="#000000" font-family="sans-serif" font-size="13" lengthAdjust="spacing" textLength="136.373" x="425.122" y="366.6294">&#8226; salir de generaci&#243;n</text></g><!--link ProvidingData to ProvidingConfirmation--><g class="link" data-entity-1="ProvidingData" data-entity-2="ProvidingConfirmation" data-source-line="22" data-uid="lnk5" id="link_ProvidingData_ProvidingConfirmation"><path d="M439.152,430.8069 C479.422,442.8869 554.122,465.2969 554.122,465.2969 C554.122,465.2969 851.122,606.2969 851.122,606.2969 C851.122,606.2969 898.122,624.2969 898.122,624.2969 C898.122,624.2969 899.2006,624.9646 906.6506,629.5446" fill="none" id="ProvidingData-to-ProvidingConfirmation" style="stroke:#008000;stroke-width:1;"/><polygon fill="#008000" points="911.762,632.6869,906.1898,624.5659,907.5025,630.0683,902.0001,631.381,911.762,632.6869" style="stroke:#008000;stroke-width:1;"/><path d="M856.122,470.2969 L856.122,601.2969 L1473.122,601.2969 L1473.122,480.2969 L1463.122,470.2969 L856.122,470.2969" fill="#FEFFDD" style="stroke:#181818;stroke-width:0.5;"/><path d="M1463.122,470.2969 L1463.122,480.2969 L1473.122,480.2969 L1463.122,470.2969" fill="#FEFFDD" style="stroke:#181818;stroke-width:0.5;"/><text fill="#000000" font-family="sans-serif" font-size="13" font-weight="bold" lengthAdjust="spacing" textLength="60.5313" x="862.122" y="487.3638">Docente</text><text fill="#000000" font-family="sans-serif" font-size="13" lengthAdjust="spacing" textLength="287.9614" x="926.7855" y="487.3638">introduce datos m&#237;nimos para la generaci&#243;n</text><text fill="#000000" font-family="sans-serif" font-size="13" lengthAdjust="spacing" textLength="166.0674" x="862.122" y="502.4966">&#8226; Asignatura (obligatorio)</text><text fill="#000000" font-family="sans-serif" font-size="13" lengthAdjust="spacing" textLength="179.9751" x="862.122" y="517.6294">&#8226; Tema/Temas (obligatorio)</text><text fill="#000000" font-family="sans-serif" font-size="13" lengthAdjust="spacing" textLength="548.958" x="862.122" y="532.7622">&#8226; N&#250;mero de ex&#225;menes para cada grado de la asignatura seleccionada (obligatorio)</text><text fill="#000000" font-family="sans-serif" font-size="13" lengthAdjust="spacing" textLength="238.2847" x="862.122" y="547.895">&#8226; N&#250;mero de preguntas (obligatorio)</text><text fill="#000000" font-family="sans-serif" font-size="13" lengthAdjust="spacing" textLength="596.9272" x="862.122" y="563.0278">&#8226; Cantidad de tipos de ex&#225;men para cada grado de la asignatura seleccionada (obligatorio)</text><text fill="#000000" font-family="sans-serif" font-size="13" lengthAdjust="spacing" textLength="546.4316" x="862.122" y="578.1606">&#8226; Proporci&#243;n de dificultad de cada grado de la asignatura seleccionada (obligatorio)</text><text fill="#000000" font-family="sans-serif" font-size="13" lengthAdjust="spacing" textLength="166.3276" x="862.122" y="593.2935">&#8226; Evaluaci&#243;n (obligatorio)</text></g><!--link ProvidingConfirmation to c--><g class="link" data-entity-1="ProvidingConfirmation" data-entity-2="c" data-source-line="34" data-uid="lnk6" id="link_ProvidingConfirmation_c"><path d="M911.762,665.9069 C904.312,670.4869 898.122,674.2969 898.122,674.2969 C898.122,674.2969 554.122,757.2969 554.122,757.2969 C554.122,757.2969 460.3273,776.7299 429.1873,783.1799" fill="none" id="ProvidingConfirmation-to-c" style="stroke:#008000;stroke-width:1;"/><polygon fill="#008000" points="423.312,784.3969,432.9362,786.4883,428.2081,783.3828,431.3136,778.6546,423.312,784.3969" style="stroke:#008000;stroke-width:1;"/><path d="M819.122,697.2969 L819.122,752.2969 L991.122,752.2969 L991.122,707.2969 L981.122,697.2969 L819.122,697.2969" fill="#FEFFDD" style="stroke:#181818;stroke-width:0.5;"/><path d="M981.122,697.2969 L981.122,707.2969 L991.122,707.2969 L981.122,697.2969" fill="#FEFFDD" style="stroke:#181818;stroke-width:0.5;"/><text fill="#000000" font-family="sans-serif" font-size="13" font-weight="bold" lengthAdjust="spacing" textLength="58.9063" x="825.122" y="714.3638">Sistema</text><text fill="#000000" font-family="sans-serif" font-size="13" lengthAdjust="spacing" textLength="50.9653" x="888.1605" y="714.3638">permite</text><text fill="#000000" font-family="sans-serif" font-size="13" lengthAdjust="spacing" textLength="151.5313" x="825.122" y="729.4966">&#8226; confirmar generaci&#243;n</text><text fill="#000000" font-family="sans-serif" font-size="13" lengthAdjust="spacing" textLength="144.1045" x="825.122" y="744.6294">&#8226; cancelar generaci&#243;n</text></g><!--link c to ProvidingData--><g class="link" data-entity-1="c" data-entity-2="ProvidingData" data-source-line="41" data-uid="lnk7" id="link_c_ProvidingData"><path d="M408.412,780.5869 C385.592,757.7669 302.122,674.2969 302.122,674.2969 C302.122,674.2969 302.122,624.2969 302.122,624.2969 C302.122,624.2969 367.9014,506.2481 397.6914,452.7881" fill="none" id="c-to-ProvidingData" style="stroke:#FF0000;stroke-width:1;"/><polygon fill="#FF0000" points="400.612,447.5469,392.7369,453.4616,398.1781,451.9145,399.7252,457.3557,400.612,447.5469" style="stroke:#FF0000;stroke-width:1;"/><path d="M307.122,636.7969 L307.122,661.7969 L513.122,661.7969 L513.122,646.7969 L503.122,636.7969 L307.122,636.7969" fill="#FEFFDD" style="stroke:#181818;stroke-width:0.5;"/><path d="M503.122,636.7969 L503.122,646.7969 L513.122,646.7969 L503.122,636.7969" fill="#FEFFDD" style="stroke:#181818;stroke-width:0.5;"/><text fill="#000000" font-family="sans-serif" font-size="13" lengthAdjust="spacing" textLength="185.5356" x="313.122" y="653.8638">Docente cancela generaci&#243;n</text></g><!--link c to ProvidingData--><g class="link" data-entity-1="c" data-entity-2="ProvidingData" data-source-line="46" data-uid="lnk8" id="link_c_ProvidingData"><path d="M419.422,780.5869 C440.612,757.7669 518.122,674.2969 518.122,674.2969 C518.122,674.2969 518.122,624.2969 518.122,624.2969 C518.122,624.2969 457.09,506.3354 429.42,452.8754" fill="none" id="c-to-ProvidingData-1" style="stroke:#FF0000;stroke-width:1;"/><polygon fill="#FF0000" points="426.662,447.5469,427.2466,457.3784,428.9603,451.9873,434.3513,453.7011,426.662,447.5469" style="stroke:#FF0000;stroke-width:1;"/><path d="M523.122,636.7969 L523.122,661.7969 L867.122,661.7969 L867.122,646.7969 L857.122,636.7969 L523.122,636.7969" fill="#FEFFDD" style="stroke:#181818;stroke-width:0.5;"/><path d="M857.122,636.7969 L857.122,646.7969 L867.122,646.7969 L857.122,636.7969" fill="#FEFFDD" style="stroke:#181818;stroke-width:0.5;"/><text fill="#000000" font-family="sans-serif" font-size="13" lengthAdjust="spacing" textLength="323.5654" x="529.122" y="653.8638">Docente confirma generaci&#243;n: datos insuficientes</text></g><!--link c to *end*generarExamenes--><g class="link" data-entity-1="c" data-entity-2=".end.generarExamenes" data-source-line="51" data-uid="lnk10" id="link_c_.end.generarExamenes"><path d="M404.982,790.4769 C353.062,802.8869 101.3176,863.0419 45.5976,876.3619" fill="none" id="c-to-*end*generarExamenes" style="stroke:#008000;stroke-width:1;"/><polygon fill="#008000" points="39.762,877.7569,49.4453,879.5547,44.625,876.5944,47.5853,871.774,39.762,877.7569" style="stroke:#008000;stroke-width:1;"/><path d="M295.122,822.2969 L295.122,847.2969 L641.122,847.2969 L641.122,832.2969 L631.122,822.2969 L295.122,822.2969" fill="#FEFFDD" style="stroke:#181818;stroke-width:0.5;"/><path d="M631.122,822.2969 L631.122,832.2969 L641.122,832.2969 L631.122,822.2969" fill="#FEFFDD" style="stroke:#181818;stroke-width:0.5;"/><text fill="#000000" font-family="sans-serif" font-size="13" lengthAdjust="spacing" textLength="325.4507" x="301.122" y="839.3638">Docente confirma generaci&#243;n: generaci&#243;n exitosa</text></g><!--link ProvidingData to *end*generarExamenes--><g class="link" data-entity-1="ProvidingData" data-entity-2=".end.generarExamenes" data-source-line="56" data-uid="lnk11" id="link_ProvidingData_.end.generarExamenes"><path d="M388.972,433.3569 C357.912,445.7869 309.122,465.2969 309.122,465.2969 C309.122,465.2969 57.122,692.2969 57.122,692.2969 C57.122,692.2969 37.325,825.2022 31.515,864.2522" fill="none" id="ProvidingData-to-*end*generarExamenes" style="stroke:#0000FF;stroke-width:1;"/><polygon fill="#0000FF" points="30.632,870.1869,35.9129,861.8735,31.3678,865.2413,28,860.6962,30.632,870.1869" style="stroke:#0000FF;stroke-width:1;"/><path d="M62.122,712.2969 L62.122,737.2969 L312.122,737.2969 L312.122,722.2969 L302.122,712.2969 L62.122,712.2969" fill="#FEFFDD" style="stroke:#181818;stroke-width:0.5;"/><path d="M302.122,712.2969 L302.122,722.2969 L312.122,722.2969 L302.122,712.2969" fill="#FEFFDD" style="stroke:#181818;stroke-width:0.5;"/><text fill="#000000" font-family="sans-serif" font-size="13" lengthAdjust="spacing" textLength="229.4424" x="68.122" y="729.3638">Docente solicta salir de generaci&#243;n</text></g><g id="EXAMENES_GENERADOS"><rect fill="#F1F1F1" height="50" rx="12.5" ry="12.5" style="stroke:#181818;stroke-width:0.5;" width="193.1475" x="504" y="997"/><line style="stroke:#181818;stroke-width:0.5;" x1="504" x2="697.1475" y1="1023.2969" y2="1023.2969"/><text fill="#000000" font-family="sans-serif" font-size="14" lengthAdjust="spacing" textLength="173.1475" x="514" y="1014.9951">EXAMENES_GENERADOS</text></g><g id="EXAMENES_GENERADOS_CONTEXTUALES"><rect fill="#F1F1F1" height="50" rx="12.5" ry="12.5" style="stroke:#181818;stroke-width:0.5;" width="312.3115" x="732.5" y="997"/><line style="stroke:#181818;stroke-width:0.5;" x1="732.5" x2="1044.8115" y1="1023.2969" y2="1023.2969"/><text fill="#000000" font-family="sans-serif" font-size="14" lengthAdjust="spacing" textLength="292.3115" x="742.5" y="1014.9951">EXAMENES_GENERADOS_CONTEXTUALES</text></g><g id="SISTEMA_DISPONIBLE"><rect fill="#F1F1F1" height="50" rx="12.5" ry="12.5" style="stroke:#181818;stroke-width:0.5;" width="172.0654" x="553.5" y="7"/><line style="stroke:#181818;stroke-width:0.5;" x1="553.5" x2="725.5654" y1="33.2969" y2="33.2969"/><text fill="#000000" font-family="sans-serif" font-size="14" lengthAdjust="spacing" textLength="152.0654" x="563.5" y="24.9951">SISTEMA_DISPONIBLE</text></g><g id="ASIGNATURA_ABIERTO"><rect fill="#F1F1F1" height="50" rx="12.5" ry="12.5" style="stroke:#181818;stroke-width:0.5;" width="180.0498" x="760.5" y="7"/><line style="stroke:#181818;stroke-width:0.5;" x1="760.5" x2="940.5498" y1="33.2969" y2="33.2969"/><text fill="#000000" font-family="sans-serif" font-size="14" lengthAdjust="spacing" textLength="160.0498" x="770.5" y="24.9951">ASIGNATURA_ABIERTO</text></g><!--link SISTEMA_DISPONIBLE to generarExamenes--><g class="link" data-entity-1="SISTEMA_DISPONIBLE" data-entity-2="generarExamenes" data-source-line="65" data-uid="lnk13" id="link_SISTEMA_DISPONIBLE_generarExamenes"><path d="M644.85,57.26 C648.13,72.13 651.4567,87.201 656.9267,111.981" fill="none" id="SISTEMA_DISPONIBLE-to-generarExamenes" style="stroke:#008000;stroke-width:1;"/><polygon fill="#008000" points="658.22,117.84,660.186,108.1894,657.1422,112.9575,652.3741,109.9138,658.22,117.84" style="stroke:#008000;stroke-width:1;"/></g><!--link generarExamenes to EXAMENES_GENERADOS--><g class="link" data-entity-1="generarExamenes" data-entity-2="EXAMENES_GENERADOS" data-source-line="67" data-uid="lnk14" id="link_generarExamenes_EXAMENES_GENERADOS"><path d="M628.39,902.06 C622.82,920.8 619.5,932 619.5,932 C619.5,932 612.5737,964.4624 606.9437,990.8124" fill="none" id="generarExamenes-to-EXAMENES_GENERADOS" style="stroke:#008000;stroke-width:1;"/><polygon fill="#008000" points="605.69,996.68,611.4822,988.7144,606.7347,991.7904,603.6588,987.0429,605.69,996.68" style="stroke:#008000;stroke-width:1;"/><path d="M624.5,937 L624.5,962 L840.5,962 L840.5,947 L830.5,937 L624.5,937" fill="#FEFFDD" style="stroke:#181818;stroke-width:0.5;"/><path d="M830.5,937 L830.5,947 L840.5,947 L830.5,937" fill="#FEFFDD" style="stroke:#181818;stroke-width:0.5;"/><text fill="#000000" font-family="sans-serif" font-size="13" lengthAdjust="spacing" textLength="195.895" x="630.5" y="954.0669">vista de examenes generados</text></g><!--link generarExamenes to EXAMENES_GENERADOS_CONTEXTUALES--><g class="link" data-entity-1="generarExamenes" data-entity-2="EXAMENES_GENERADOS_CONTEXTUALES" data-source-line="72" data-uid="lnk15" id="link_generarExamenes_EXAMENES_GENERADOS_CONTEXTUALES"><path d="M854.92,902.07 C866.15,941.85 873.9893,969.6158 879.9793,990.8258" fill="none" id="generarExamenes-to-EXAMENES_GENERADOS_CONTEXTUALES" style="stroke:#008000;stroke-width:1;"/><polygon fill="#008000" points="881.61,996.6,883.0134,986.8516,880.2511,991.7882,875.3145,989.0259,881.61,996.6" style="stroke:#008000;stroke-width:1;"/><path d="M875.5,937 L875.5,962 L1091.5,962 L1091.5,947 L1081.5,937 L875.5,937" fill="#FEFFDD" style="stroke:#181818;stroke-width:0.5;"/><path d="M1081.5,937 L1081.5,947 L1091.5,947 L1081.5,937" fill="#FEFFDD" style="stroke:#181818;stroke-width:0.5;"/><text fill="#000000" font-family="sans-serif" font-size="13" lengthAdjust="spacing" textLength="195.895" x="881.5" y="954.0669">vista de examenes generados</text></g><!--link ASIGNATURA_ABIERTO to generarExamenes--><g class="link" data-entity-1="ASIGNATURA_ABIERTO" data-entity-2="generarExamenes" data-source-line="77" data-uid="lnk17" id="link_ASIGNATURA_ABIERTO_generarExamenes"><path d="M845.1,57.26 C841.79,72.13 838.4223,87.203 832.9123,111.983" fill="none" id="ASIGNATURA_ABIERTO-to-generarExamenes" style="stroke:#008000;stroke-width:1;"/><polygon fill="#008000" points="831.61,117.84,837.4681,109.9228,832.6953,112.9592,829.6589,108.1863,831.61,117.84" style="stroke:#008000;stroke-width:1;"/></g><!--SRC=[hLNBQXin5DtFLmXtanH2ziKO9lPW38aTF1C8X61awSQzH2DD9Or9A8N-Ihllghjk_IVvacgUVeqVTJg6mPfxxZtdFYIPPvG9rJGc0YNOrmH8eiHhjl0yOwa5CWC9ckhWXSRkdo7KaDR6jxFp5ldgUSGzXK_B_Hnk35zIr2Xd_HnlKSbjqArMS-GErAEMxZ5tbNn27Mz6OQJTPfyLCkXq2WaF7n_9nSE7cGQGZnUT9XKa1qhb_Dt2PVkSVsXFEpt5G5feNquxn2Y132sjIa3WPV4ZJpX7W-H52FTuzQk9RLNDThfDCa8q5cAQoqX0nsWXDxrz_qbGMgruob0JJgqoXAD9bCIfSDt9cab49PdXuhUi7GqLcGzi6QjCbbcigMpMlzMFG-MiT4CfErxyaXYh_PfzWpD9RUeGPsegSEPSDQhp6X2vCbrcBxC3C5pyYK6hBE-wVmKbezoHQifpenD0bsG6133cKiim1mCd6cQfj3irTAcqo2dFi1QJh6Urcl-YnNKbKJelNURFyGbPAcp1-CxOmPoAj6XB0sBFxAnEoDeCiPFcdfNXTEEWC2ePY0RZja2MYT70ZzoEvGnN3Bi9tXMyJ6ur-gToew0qgUidPa2pYx8khZl-Jg5QMRZ9HCTBZpqRfYA5evZp0zNv73w8lbMtJt3ltmJ389pqtNlizqRXJiEaEnf6mNrqvry7eUU5Wp0ARln9Rn3UZeQ3g-jWhKmRLvZdRTvpg-065Mj9pjtOqc9Fbzv5DAwCj-pLlp6iftC2dHyE-aC_kXlx4_zg48oZqRu2_0K0]--></g></svg>