<svg xmlns="http://www.w3.org/2000/svg" xmlns:xlink="http://www.w3.org/1999/xlink" contentStyleType="text/css" data-diagram-type="STATE" height="587px" preserveAspectRatio="none" style="width:371px;height:587px;background:#FFFFFF;" version="1.1" viewBox="0 0 371 587" width="371px" zoomAndPan="magnify"><defs/><g><g id="ALUMNO_ABIERTO"><rect fill="#F1F1F1" height="50" rx="12.5" ry="12.5" style="stroke:#181818;stroke-width:0.5;" width="149.6504" x="7" y="7"/><line style="stroke:#181818;stroke-width:0.5;" x1="7" x2="156.6504" y1="33.2969" y2="33.2969"/><text fill="#000000" font-family="sans-serif" font-size="14" lengthAdjust="spacing" textLength="129.6504" x="17" y="24.9951">ALUMNO_ABIERTO</text></g><path d="M34,117 L326,117 A12.5,12.5 0 0 1 338.5,129.5 L338.5,143.2969 L21.5,143.2969 L21.5,129.5 A12.5,12.5 0 0 1 34,117" fill="#F1F1F1"/><rect fill="none" height="354.2969" rx="12.5" ry="12.5" style="stroke:#181818;stroke-width:0.5;" width="317" x="21.5" y="117"/><line style="stroke:#181818;stroke-width:0.5;" x1="21.5" x2="338.5" y1="143.2969" y2="143.2969"/><text fill="#000000" font-family="sans-serif" font-size="14" lengthAdjust="spacing" textLength="94.2881" x="132.856" y="134.9951">verAlumnos()</text><g id="verAlumnos.MostrandoAlumnos"><rect fill="#F1F1F1" height="50" rx="12.5" ry="12.5" style="stroke:#181818;stroke-width:0.5;" width="50" x="33.5" y="245.2969"/><line style="stroke:#181818;stroke-width:0.5;" x1="33.5" x2="83.5" y1="271.5938" y2="271.5938"/><text fill="#000000" font-family="sans-serif" font-size="14" lengthAdjust="spacing" textLength="4.4502" x="56.2749" y="263.292">&#160;</text></g><g id="verAlumnos.FiltrandoAlumnos"><rect fill="#F1F1F1" height="50" rx="12.5" ry="12.5" style="stroke:#181818;stroke-width:0.5;" width="50" x="33.5" y="411.2969"/><line style="stroke:#181818;stroke-width:0.5;" x1="33.5" x2="83.5" y1="437.5938" y2="437.5938"/><text fill="#000000" font-family="sans-serif" font-size="14" lengthAdjust="spacing" textLength="4.4502" x="56.2749" y="429.292">&#160;</text></g><ellipse cx="58.5" cy="164.2969" fill="#222222" rx="10" ry="10" style="stroke:#222222;stroke-width:1;"/><!--link *start*verAlumnos to MostrandoAlumnos--><g class="link" data-entity-1=".start.verAlumnos" data-entity-2="MostrandoAlumnos" data-source-line="10" data-uid="lnk3" id="link_.start.verAlumnos_MostrandoAlumnos"><path d="M58.5,174.5269 C58.5,190.2369 58.5,216.6569 58.5,239.1669" fill="none" id="*start*verAlumnos-to-MostrandoAlumnos" style="stroke:#008000;stroke-width:1;"/><polygon fill="#008000" points="58.5,245.1669,62.5,236.1669,58.5,240.1669,54.5,236.1669,58.5,245.1669" style="stroke:#008000;stroke-width:1;"/><path d="M63.5,197.2969 L63.5,222.2969 L279.5,222.2969 L279.5,207.2969 L269.5,197.2969 L63.5,197.2969" fill="#FEFFDD" style="stroke:#181818;stroke-width:0.5;"/><path d="M269.5,197.2969 L269.5,207.2969 L279.5,207.2969 L269.5,197.2969" fill="#FEFFDD" style="stroke:#181818;stroke-width:0.5;"/><text fill="#000000" font-family="sans-serif" font-size="13" font-weight="bold" lengthAdjust="spacing" textLength="60.5313" x="69.5" y="214.3638">Docente</text><text fill="#000000" font-family="sans-serif" font-size="13" lengthAdjust="spacing" textLength="130.5205" x="134.1636" y="214.3638">solicita ver alumnos</text></g><!--link MostrandoAlumnos to FiltrandoAlumnos--><g class="link" data-entity-1="MostrandoAlumnos" data-entity-2="FiltrandoAlumnos" data-source-line="15" data-uid="lnk4" id="link_MostrandoAlumnos_FiltrandoAlumnos"><path d="M58.5,295.4969 C58.5,326.5869 58.5,374.2469 58.5,405.2669" fill="none" id="MostrandoAlumnos-to-FiltrandoAlumnos" style="stroke:#008000;stroke-width:1;"/><polygon fill="#008000" points="58.5,411.2669,62.5,402.2669,58.5,406.2669,54.5,402.2669,58.5,411.2669" style="stroke:#008000;stroke-width:1;"/><path d="M63.5,318.2969 L63.5,388.2969 L315.5,388.2969 L315.5,328.2969 L305.5,318.2969 L63.5,318.2969" fill="#FEFFDD" style="stroke:#181818;stroke-width:0.5;"/><path d="M305.5,318.2969 L305.5,328.2969 L315.5,328.2969 L305.5,318.2969" fill="#FEFFDD" style="stroke:#181818;stroke-width:0.5;"/><text fill="#000000" font-family="sans-serif" font-size="13" font-weight="bold" lengthAdjust="spacing" textLength="58.9063" x="69.5" y="335.3638">Sistema</text><text fill="#000000" font-family="sans-serif" font-size="13" lengthAdjust="spacing" textLength="168.8223" x="132.5386" y="335.3638">presenta lista de alumnos</text><text fill="#000000" font-family="sans-serif" font-size="13" lengthAdjust="spacing" textLength="160.3799" x="69.5" y="350.4966">&#8226; DNI, nombre, apellidos</text><text fill="#000000" font-family="sans-serif" font-size="13" lengthAdjust="spacing" textLength="4.1323" x="69.5" y="365.6294">&#160;</text><text fill="#000000" font-family="sans-serif" font-size="13" lengthAdjust="spacing" textLength="188.481" x="69.5" y="380.7622">&#8226; Permite solicitar filtrar lista</text></g><!--link FiltrandoAlumnos to FiltrandoAlumnos--><g class="link" data-entity-1="FiltrandoAlumnos" data-entity-2="FiltrandoAlumnos" data-source-line="23" data-uid="lnk5" id="link_FiltrandoAlumnos_FiltrandoAlumnos"><path d="M83.68,420.9869 C93.41,420.2969 101.5,425.4069 101.5,436.2969 C101.5,447.1869 99.395,452.7213 89.665,452.0313" fill="none" id="FiltrandoAlumnos-to-FiltrandoAlumnos" style="stroke:#008000;stroke-width:1;"/><polygon fill="#008000" points="83.68,451.6069,92.3745,456.2335,88.6675,451.9606,92.9404,448.2535,83.68,451.6069" style="stroke:#008000;stroke-width:1;"/><path d="M106.5,416.2969 L106.5,456.2969 L329.5,456.2969 L329.5,426.2969 L319.5,416.2969 L106.5,416.2969" fill="#FEFFDD" style="stroke:#181818;stroke-width:0.5;"/><path d="M319.5,416.2969 L319.5,426.2969 L329.5,426.2969 L319.5,416.2969" fill="#FEFFDD" style="stroke:#181818;stroke-width:0.5;"/><text fill="#000000" font-family="sans-serif" font-size="13" font-weight="bold" lengthAdjust="spacing" textLength="60.5313" x="112.5" y="433.3638">Docente</text><text fill="#000000" font-family="sans-serif" font-size="13" lengthAdjust="spacing" textLength="116.6509" x="177.1636" y="433.3638">solicita filtrar lista</text><text fill="#000000" font-family="sans-serif" font-size="13" font-weight="bold" lengthAdjust="spacing" textLength="58.9063" x="112.5" y="448.4966">Sistema</text><text fill="#000000" font-family="sans-serif" font-size="13" lengthAdjust="spacing" textLength="139.4199" x="175.5386" y="448.4966">presenta lista filtrada</text></g><g id="SISTEMA_DISPONIBLE"><rect fill="#F1F1F1" height="50" rx="12.5" ry="12.5" style="stroke:#181818;stroke-width:0.5;" width="172.0654" x="192" y="7"/><line style="stroke:#181818;stroke-width:0.5;" x1="192" x2="364.0654" y1="33.2969" y2="33.2969"/><text fill="#000000" font-family="sans-serif" font-size="14" lengthAdjust="spacing" textLength="152.0654" x="202" y="24.9951">SISTEMA_DISPONIBLE</text></g><g id="ALUMNOS_ABIERTO"><rect fill="#F1F1F1" height="50" rx="12.5" ry="12.5" style="stroke:#181818;stroke-width:0.5;" width="158.5371" x="100.5" y="531"/><line style="stroke:#181818;stroke-width:0.5;" x1="100.5" x2="259.0371" y1="557.2969" y2="557.2969"/><text fill="#000000" font-family="sans-serif" font-size="14" lengthAdjust="spacing" textLength="138.5371" x="110.5" y="548.9951">ALUMNOS_ABIERTO</text></g><!--link SISTEMA_DISPONIBLE to verAlumnos--><g class="link" data-entity-1="SISTEMA_DISPONIBLE" data-entity-2="verAlumnos" data-source-line="31" data-uid="lnk7" id="link_SISTEMA_DISPONIBLE_verAlumnos"><path d="M268.78,57.46 C263.06,72.63 257.2668,88.0158 248.4968,111.2758" fill="none" id="SISTEMA_DISPONIBLE-to-verAlumnos" style="stroke:#008000;stroke-width:1;"/><polygon fill="#008000" points="246.38,116.89,253.298,109.8799,248.144,112.2115,245.8124,107.0575,246.38,116.89" style="stroke:#008000;stroke-width:1;"/></g><!--link ALUMNO_ABIERTO to verAlumnos--><g class="link" data-entity-1="ALUMNO_ABIERTO" data-entity-2="verAlumnos" data-source-line="33" data-uid="lnk8" id="link_ALUMNO_ABIERTO_verAlumnos"><path d="M91.22,57.46 C96.94,72.63 102.7332,88.0158 111.5032,111.2758" fill="none" id="ALUMNO_ABIERTO-to-verAlumnos" style="stroke:#008000;stroke-width:1;"/><polygon fill="#008000" points="113.62,116.89,114.1876,107.0575,111.856,112.2115,106.702,109.8799,113.62,116.89" style="stroke:#008000;stroke-width:1;"/></g><!--link verAlumnos to ALUMNOS_ABIERTO--><g class="link" data-entity-1="verAlumnos" data-entity-2="ALUMNOS_ABIERTO" data-source-line="35" data-uid="lnk10" id="link_verAlumnos_ALUMNOS_ABIERTO"><path d="M180,471.3 C180,494.67 180,509.74 180,524.89" fill="none" id="verAlumnos-to-ALUMNOS_ABIERTO" style="stroke:#008000;stroke-width:1;"/><polygon fill="#008000" points="180,530.89,184,521.89,180,525.89,176,521.89,180,530.89" style="stroke:#008000;stroke-width:1;"/></g><!--SRC=[dPBHQeCm58QlbwSuk9jjjEm5Yc3HWL2rpEwgb1BhsGYDYIJPe8p1dcMFjYTPr5crjhjO127nE-TylqJlcIYfeWLm9j0SIeHIyaEr8KGRQX2ynLCK9rjl7WQFgwGzVKFbyTT2I0rKWzDjRsuTU2S4x6f8npuMYQGsYefS_d9Zue7n8L4ZwxiDJDVNBmfHRARkg0_Kb92sZnHLYdrzCCjSN-vG69pTPoveoTcE6Lfv0-qPeCYROhl8yJKQqZSOULuII9asMD1Qe5IehGsrW0qDEGuilZ-_m8_3YMrJP0edG4ladENsyzKHMA8gc9tIPb7mN9kefkSWJXVbrFP_KSx-o_7ulqCtV7xEz8EGD4nNGUHj_J1T9d4uNmG3rUw64JAyaXUntXtj8qrrsfR_0000]--></g></svg>