<svg xmlns="http://www.w3.org/2000/svg" xmlns:xlink="http://www.w3.org/1999/xlink" contentStyleType="text/css" data-diagram-type="DESCRIPTION" height="590px" preserveAspectRatio="none" style="width:442px;height:590px;background:#FFFFFF;" version="1.1" viewBox="0 0 442 590" width="442px" zoomAndPan="magnify"><defs/><g><!--cluster M?dulo Docentes--><g class="cluster" data-entity="M.dulo Docentes" data-source-line="5" data-uid="ent0003" id="cluster_M.dulo Docentes"><path d="M245.35,6 L382.6996,6 A3.75,3.75 0 0 1 385.1996,8.5 L392.1996,28.2969 L428.98,28.2969 A2.5,2.5 0 0 1 431.48,30.7969 L431.48,293.5 A2.5,2.5 0 0 1 428.98,296 L245.35,296 A2.5,2.5 0 0 1 242.85,293.5 L242.85,8.5 A2.5,2.5 0 0 1 245.35,6" fill="none" style="stroke:#000000;stroke-width:1.5;"/><line style="stroke:#000000;stroke-width:1.5;" x1="242.85" x2="392.1996" y1="28.2969" y2="28.2969"/><text fill="#000000" font-family="sans-serif" font-size="14" font-weight="bold" lengthAdjust="spacing" textLength="136.3496" x="246.85" y="20.9951">M&#243;dulo Docentes</text></g><!--cluster M?dulo Sesi?n--><g class="cluster" data-entity="M.dulo Sesi.n" data-source-line="13" data-uid="ent0008" id="cluster_M.dulo Sesi.n"><path d="M256.32,320 L372.444,320 A3.75,3.75 0 0 1 374.944,322.5 L381.944,342.2969 L418.02,342.2969 A2.5,2.5 0 0 1 420.52,344.7969 L420.52,467.5 A2.5,2.5 0 0 1 418.02,470 L256.32,470 A2.5,2.5 0 0 1 253.82,467.5 L253.82,322.5 A2.5,2.5 0 0 1 256.32,320" fill="none" style="stroke:#000000;stroke-width:1.5;"/><line style="stroke:#000000;stroke-width:1.5;" x1="253.82" x2="381.944" y1="342.2969" y2="342.2969"/><text fill="#000000" font-family="sans-serif" font-size="14" font-weight="bold" lengthAdjust="spacing" textLength="115.124" x="257.82" y="334.9951">M&#243;dulo Sesi&#243;n</text></g><!--cluster M?dulo Gesti?n--><g class="cluster" data-entity="M.dulo Gesti.n" data-source-line="17" data-uid="ent0011" id="cluster_M.dulo Gesti.n"><path d="M241.56,494 L365.7846,494 A3.75,3.75 0 0 1 368.2846,496.5 L375.2846,516.2969 L432.77,516.2969 A2.5,2.5 0 0 1 435.27,518.7969 L435.27,580.5 A2.5,2.5 0 0 1 432.77,583 L241.56,583 A2.5,2.5 0 0 1 239.06,580.5 L239.06,496.5 A2.5,2.5 0 0 1 241.56,494" fill="none" style="stroke:#000000;stroke-width:1.5;"/><line style="stroke:#000000;stroke-width:1.5;" x1="239.06" x2="375.2846" y1="516.2969" y2="516.2969"/><text fill="#000000" font-family="sans-serif" font-size="14" font-weight="bold" lengthAdjust="spacing" textLength="123.2246" x="243.06" y="508.9951">M&#243;dulo Gesti&#243;n</text></g><!--entity UC32--><g class="entity" data-entity="UC32" data-source-line="6" data-uid="ent0004" id="entity_UC32"><ellipse cx="337.173" cy="263.9966" fill="#F1F1F1" rx="69.833" ry="16.3666" style="stroke:#181818;stroke-width:0.5;"/><text fill="#000000" font-family="sans-serif" font-size="14" lengthAdjust="spacing" textLength="105.957" x="284.1945" y="268.645">crearDocente()</text></g><!--entity UC33--><g class="entity" data-entity="UC33" data-source-line="7" data-uid="ent0005" id="entity_UC33"><ellipse cx="337.1654" cy="197.0011" fill="#F1F1F1" rx="67.3054" ry="15.8611" style="stroke:#181818;stroke-width:0.5;"/><text fill="#000000" font-family="sans-serif" font-size="14" lengthAdjust="spacing" textLength="99.5039" x="287.4134" y="201.6495">verDocentes()</text></g><!--entity UC34--><g class="entity" data-entity="UC34" data-source-line="8" data-uid="ent0006" id="entity_UC34"><ellipse cx="337.1661" cy="129.0012" fill="#F1F1F1" rx="71.7561" ry="16.7512" style="stroke:#181818;stroke-width:0.5;"/><text fill="#000000" font-family="sans-serif" font-size="14" lengthAdjust="spacing" textLength="110.7695" x="281.7813" y="133.6497">editarDocente()</text></g><!--entity UC35--><g class="entity" data-entity="UC35" data-source-line="9" data-uid="ent0007" id="entity_UC35"><ellipse cx="337.1734" cy="59.0027" fill="#F1F1F1" rx="78.3134" ry="18.0627" style="stroke:#181818;stroke-width:0.5;"/><text fill="#000000" font-family="sans-serif" font-size="14" lengthAdjust="spacing" textLength="126.6836" x="273.8316" y="63.6511">eliminarDocente()</text></g><!--entity UC41--><g class="entity" data-entity="UC41" data-source-line="14" data-uid="ent0009" id="entity_UC41"><ellipse cx="337.1704" cy="438.0001" fill="#F1F1F1" rx="67.3504" ry="15.8701" style="stroke:#181818;stroke-width:0.5;"/><text fill="#000000" font-family="sans-serif" font-size="14" lengthAdjust="spacing" textLength="99.6201" x="287.3603" y="442.6485">iniciarSesion()</text></g><!--entity UC42--><g class="entity" data-entity="UC42" data-source-line="15" data-uid="ent0010" id="entity_UC42"><ellipse cx="337.1691" cy="370.9978" fill="#F1F1F1" rx="67.1891" ry="15.8378" style="stroke:#181818;stroke-width:0.5;"/><text fill="#000000" font-family="sans-serif" font-size="14" lengthAdjust="spacing" textLength="99.2031" x="287.5675" y="375.6463">cerrarSesion()</text></g><!--entity UC13--><g class="entity" data-entity="UC13" data-source-line="18" data-uid="ent0012" id="entity_UC13"><ellipse cx="337.1746" cy="548.0009" fill="#F1F1F1" rx="82.1046" ry="18.8209" style="stroke:#181818;stroke-width:0.5;"/><text fill="#000000" font-family="sans-serif" font-size="14" lengthAdjust="spacing" textLength="135.6113" x="269.3689" y="552.6494">completarGestion()</text></g><!--entity admin--><g class="entity" data-entity="admin" data-source-line="3" data-uid="ent0002" id="entity_admin"><ellipse cx="100.5308" cy="234.35" fill="#F1F1F1" rx="8" ry="8" style="stroke:#181818;stroke-width:0.5;"/><path d="M100.5308,242.35 L100.5308,269.35 M87.5308,250.35 L113.5308,250.35 M100.5308,269.35 L87.5308,284.35 M100.5308,269.35 L113.5308,284.35" fill="none" style="stroke:#181818;stroke-width:0.5;"/><text fill="#000000" font-family="sans-serif" font-size="14" lengthAdjust="spacing" textLength="189.0615" x="6" y="298.8451">Administrador Institucional</text></g><!--link admin to UC13--><g class="link" data-entity-1="admin" data-entity-2="UC13" data-link-type="dependency" data-source-line="22" data-uid="lnk13" id="link_admin_UC13"><path d="M120.23,302.61 C142.61,346.34 183.13,418.23 231.06,470 C253.44,494.18 279.1359,512.7564 301.5959,527.1264" fill="none" id="admin-to-UC13" style="stroke:#181818;stroke-width:1;"/><polygon fill="#181818" points="306.65,530.36,301.2246,522.1402,302.4383,527.6653,296.9131,528.879,306.65,530.36" style="stroke:#181818;stroke-width:1;"/></g><!--link admin to UC32--><g class="link" data-entity-1="admin" data-entity-2="UC32" data-link-type="dependency" data-source-line="23" data-uid="lnk14" id="link_admin_UC32"><path d="M195.28,264 C219.27,264 238.64,264 261.14,264" fill="none" id="admin-to-UC32" style="stroke:#181818;stroke-width:1;"/><polygon fill="#181818" points="267.14,264,258.14,260,262.14,264,258.14,268,267.14,264" style="stroke:#181818;stroke-width:1;"/></g><!--link admin to UC33--><g class="link" data-entity-1="admin" data-entity-2="UC33" data-link-type="dependency" data-source-line="24" data-uid="lnk15" id="link_admin_UC33"><path d="M195.28,237.23 C229.1,227.57 259.8905,218.7772 287.2805,210.9572" fill="none" id="admin-to-UC33" style="stroke:#181818;stroke-width:1;"/><polygon fill="#181818" points="293.05,209.31,283.2977,207.9345,288.2421,210.6827,285.494,215.6271,293.05,209.31" style="stroke:#181818;stroke-width:1;"/></g><!--link admin to UC34--><g class="link" data-entity-1="admin" data-entity-2="UC34" data-link-type="dependency" data-source-line="25" data-uid="lnk16" id="link_admin_UC34"><path d="M143.95,225.36 C168.1,204.93 199.72,180.7 231.06,164 C248.63,154.64 263.4369,148.8996 281.6769,143.2696" fill="none" id="admin-to-UC34" style="stroke:#181818;stroke-width:1;"/><polygon fill="#181818" points="287.41,141.5,277.6306,140.3323,282.6324,142.9747,279.9901,147.9765,287.41,141.5" style="stroke:#181818;stroke-width:1;"/></g><!--link admin to UC35--><g class="link" data-entity-1="admin" data-entity-2="UC35" data-link-type="dependency" data-source-line="26" data-uid="lnk17" id="link_admin_UC35"><path d="M122.05,225.45 C144.21,187.27 182.89,129.64 231.06,95 C245.47,84.64 257.3857,78.9404 274.0657,73.5004" fill="none" id="admin-to-UC35" style="stroke:#181818;stroke-width:1;"/><polygon fill="#181818" points="279.77,71.64,269.9733,70.6277,275.0164,73.1903,272.4538,78.2334,279.77,71.64" style="stroke:#181818;stroke-width:1;"/></g><!--link admin to UC41--><g class="link" data-entity-1="admin" data-entity-2="UC41" data-link-type="dependency" data-source-line="27" data-uid="lnk18" id="link_admin_UC41"><path d="M128.23,302.38 C151.93,333.79 189.21,377.26 231.06,404 C247.63,414.58 262.0159,420.4741 280.2159,425.7341" fill="none" id="admin-to-UC41" style="stroke:#181818;stroke-width:1;"/><polygon fill="#181818" points="285.98,427.4,278.4444,421.0584,281.1766,426.0118,276.2233,428.7439,285.98,427.4" style="stroke:#181818;stroke-width:1;"/></g><!--link admin to UC42--><g class="link" data-entity-1="admin" data-entity-2="UC42" data-link-type="dependency" data-source-line="28" data-uid="lnk19" id="link_admin_UC42"><path d="M186.24,302.63 C227.46,321.43 269.0511,340.3898 299.2811,354.1798" fill="none" id="admin-to-UC42" style="stroke:#181818;stroke-width:1;"/><polygon fill="#181818" points="304.74,356.67,298.2118,349.2955,300.191,354.5949,294.8916,356.574,304.74,356.67" style="stroke:#181818;stroke-width:1;"/></g><!--SRC=[RP0nRiCm34LtdOBmr0mPOZjhWQ85WWwTWXw0aDYKg2854fsbwAboX5mij9EsLkpnypzyyjFJXu14IBpx572So0h7O0nQYGcg9xVdm5aIEfMl8GjBPvL0Nm5cmDutve3s2tS4rTlvv3eVuILQ2aAvWcy3q6MocDMsYJ3Tl8V5aF3-tDHZv4Y_GFudcZ51ZcKcfIqOpthO3BKsFsRctYrbFf_2tRbQtJActepXBwDT5PKefIbIwvh9aWtf-wPRRDmVF6cbmH-bh1hJNply69RBn-jeBFLrXRnpsrAk2war2bbV0000]--></g></svg>