<svg xmlns="http://www.w3.org/2000/svg" xmlns:xlink="http://www.w3.org/1999/xlink" contentStyleType="text/css" data-diagram-type="DESCRIPTION" height="1570px" preserveAspectRatio="none" style="width:909px;height:1570px;background:#FFFFFF;" version="1.1" viewBox="0 0 909 1570" width="909px" zoomAndPan="magnify"><defs/><g><!--cluster M?dulo Grado--><g class="cluster" data-entity="M.dulo Grado" data-source-line="5" data-uid="ent0003" id="cluster_M.dulo Grado"><path d="M688.5,934 L799.8115,934 A3.75,3.75 0 0 1 802.3115,936.5 L809.3115,956.2969 L858.5,956.2969 A2.5,2.5 0 0 1 861,958.7969 L861,1211.5 A2.5,2.5 0 0 1 858.5,1214 L688.5,1214 A2.5,2.5 0 0 1 686,1211.5 L686,936.5 A2.5,2.5 0 0 1 688.5,934" fill="none" style="stroke:#000000;stroke-width:1.5;"/><line style="stroke:#000000;stroke-width:1.5;" x1="686" x2="809.3115" y1="956.2969" y2="956.2969"/><text fill="#000000" font-family="sans-serif" font-size="14" font-weight="bold" lengthAdjust="spacing" textLength="110.3115" x="690" y="948.9951">M&#243;dulo Grado</text></g><!--cluster M?dulo Asignatura--><g class="cluster" data-entity="M.dulo Asignatura" data-source-line="12" data-uid="ent0008" id="cluster_M.dulo Asignatura"><path d="M674.5,6 L824.7422,6 A3.75,3.75 0 0 1 827.2422,8.5 L834.2422,28.2969 L872.5,28.2969 A2.5,2.5 0 0 1 875,30.7969 L875,305.5 A2.5,2.5 0 0 1 872.5,308 L674.5,308 A2.5,2.5 0 0 1 672,305.5 L672,8.5 A2.5,2.5 0 0 1 674.5,6" fill="none" style="stroke:#000000;stroke-width:1.5;"/><line style="stroke:#000000;stroke-width:1.5;" x1="672" x2="834.2422" y1="28.2969" y2="28.2969"/><text fill="#000000" font-family="sans-serif" font-size="14" font-weight="bold" lengthAdjust="spacing" textLength="149.2422" x="676" y="20.9951">M&#243;dulo Asignatura</text></g><!--cluster M?dulo Alumno--><g class="cluster" data-entity="M.dulo Alumno" data-source-line="19" data-uid="ent0013" id="cluster_M.dulo Alumno"><path d="M684,1238 L807.6025,1238 A3.75,3.75 0 0 1 810.1025,1240.5 L817.1025,1260.2969 L863,1260.2969 A2.5,2.5 0 0 1 865.5,1262.7969 L865.5,1523.5 A2.5,2.5 0 0 1 863,1526 L684,1526 A2.5,2.5 0 0 1 681.5,1523.5 L681.5,1240.5 A2.5,2.5 0 0 1 684,1238" fill="none" style="stroke:#000000;stroke-width:1.5;"/><line style="stroke:#000000;stroke-width:1.5;" x1="681.5" x2="817.1025" y1="1260.2969" y2="1260.2969"/><text fill="#000000" font-family="sans-serif" font-size="14" font-weight="bold" lengthAdjust="spacing" textLength="122.6025" x="685.5" y="1252.9951">M&#243;dulo Alumno</text></g><!--cluster M?dulo Preguntas-Respuestas--><g class="cluster" data-entity="M.dulo Preguntas-Respuestas" data-source-line="26" data-uid="ent0018" id="cluster_M.dulo Preguntas-Respuestas"><path d="M648.5,332 L890.125,332 A3.75,3.75 0 0 1 892.625,334.5 L899.625,354.2969 L899.5,354.2969 A2.5,2.5 0 0 1 902,356.7969 L902,907.5 A2.5,2.5 0 0 1 899.5,910 L648.5,910 A2.5,2.5 0 0 1 646,907.5 L646,334.5 A2.5,2.5 0 0 1 648.5,332" fill="none" style="stroke:#000000;stroke-width:1.5;"/><line style="stroke:#000000;stroke-width:1.5;" x1="646" x2="899.625" y1="354.2969" y2="354.2969"/><text fill="#000000" font-family="sans-serif" font-size="14" font-weight="bold" lengthAdjust="spacing" textLength="240.625" x="650" y="346.9951">M&#243;dulo Preguntas-Respuestas</text></g><!--cluster M?dulo Configuraci?n General--><g class="cluster" data-entity="M.dulo Configuraci.n General" data-source-line="38" data-uid="ent0027" id="cluster_M.dulo Configuraci.n General"><path d="M89.5,457 L329.5732,457 A3.75,3.75 0 0 1 332.0732,459.5 L339.0732,479.2969 L350.5,479.2969 A2.5,2.5 0 0 1 353,481.7969 L353,644.5 A2.5,2.5 0 0 1 350.5,647 L89.5,647 A2.5,2.5 0 0 1 87,644.5 L87,459.5 A2.5,2.5 0 0 1 89.5,457" fill="none" style="stroke:#000000;stroke-width:1.5;"/><line style="stroke:#000000;stroke-width:1.5;" x1="87" x2="339.0732" y1="479.2969" y2="479.2969"/><text fill="#000000" font-family="sans-serif" font-size="14" font-weight="bold" lengthAdjust="spacing" textLength="239.0732" x="91" y="471.9951">M&#243;dulo Configuraci&#243;n General</text></g><!--cluster M?dulo Ex?men--><g class="cluster" data-entity="M.dulo Ex.men" data-source-line="43" data-uid="ent0030" id="cluster_M.dulo Ex.men"><path d="M388.5,1253 L514.4199,1253 A3.75,3.75 0 0 1 516.9199,1255.5 L523.9199,1275.2969 L593.5,1275.2969 A2.5,2.5 0 0 1 596,1277.7969 L596,1560.5 A2.5,2.5 0 0 1 593.5,1563 L388.5,1563 A2.5,2.5 0 0 1 386,1560.5 L386,1255.5 A2.5,2.5 0 0 1 388.5,1253" fill="none" style="stroke:#000000;stroke-width:1.5;"/><line style="stroke:#000000;stroke-width:1.5;" x1="386" x2="523.9199" y1="1275.2969" y2="1275.2969"/><text fill="#000000" font-family="sans-serif" font-size="14" font-weight="bold" lengthAdjust="spacing" textLength="124.9199" x="390" y="1267.9951">M&#243;dulo Ex&#225;men</text></g><!--cluster M?dulo Sesi?n--><g class="cluster" data-entity="M.dulo Sesi.n" data-source-line="50" data-uid="ent0035" id="cluster_M.dulo Sesi.n"><path d="M139,671 L255.124,671 A3.75,3.75 0 0 1 257.624,673.5 L264.624,693.2969 L301,693.2969 A2.5,2.5 0 0 1 303.5,695.7969 L303.5,818.5 A2.5,2.5 0 0 1 301,821 L139,821 A2.5,2.5 0 0 1 136.5,818.5 L136.5,673.5 A2.5,2.5 0 0 1 139,671" fill="none" style="stroke:#000000;stroke-width:1.5;"/><line style="stroke:#000000;stroke-width:1.5;" x1="136.5" x2="264.624" y1="693.2969" y2="693.2969"/><text fill="#000000" font-family="sans-serif" font-size="14" font-weight="bold" lengthAdjust="spacing" textLength="115.124" x="140.5" y="685.9951">M&#243;dulo Sesi&#243;n</text></g><!--cluster M?dulo Gesti?n--><g class="cluster" data-entity="M.dulo Gesti.n" data-source-line="55" data-uid="ent0038" id="cluster_M.dulo Gesti.n"><path d="M124.5,344 L248.7246,344 A3.75,3.75 0 0 1 251.2246,346.5 L258.2246,366.2969 L315.5,366.2969 A2.5,2.5 0 0 1 318,368.7969 L318,430.5 A2.5,2.5 0 0 1 315.5,433 L124.5,433 A2.5,2.5 0 0 1 122,430.5 L122,346.5 A2.5,2.5 0 0 1 124.5,344" fill="none" style="stroke:#000000;stroke-width:1.5;"/><line style="stroke:#000000;stroke-width:1.5;" x1="122" x2="258.2246" y1="366.2969" y2="366.2969"/><text fill="#000000" font-family="sans-serif" font-size="14" font-weight="bold" lengthAdjust="spacing" textLength="123.2246" x="126" y="358.9951">M&#243;dulo Gesti&#243;n</text></g><!--cluster MI45--><g class="cluster" data-entity="MI45" data-source-line="59" data-uid="ent0040" id="cluster_MI45"><path d="M108,853 L266.9922,853 A3.75,3.75 0 0 1 269.4922,855.5 L276.4922,875.2969 L332,875.2969 A2.5,2.5 0 0 1 334.5,877.7969 L334.5,1194.5 A2.5,2.5 0 0 1 332,1197 L108,1197 A2.5,2.5 0 0 1 105.5,1194.5 L105.5,855.5 A2.5,2.5 0 0 1 108,853" fill="none" style="stroke:#000000;stroke-width:1.5;"/><line style="stroke:#000000;stroke-width:1.5;" x1="105.5" x2="276.4922" y1="875.2969" y2="875.2969"/><text fill="#000000" font-family="sans-serif" font-size="14" font-weight="bold" lengthAdjust="spacing" textLength="157.9922" x="109.5" y="867.9951">M&#243;dulo Importaci&#243;n</text></g><!--cluster ME44--><g class="cluster" data-entity="ME44" data-source-line="65" data-uid="ent0045" id="cluster_ME44"><path d="M114,114 L366.3027,114 A3.75,3.75 0 0 1 368.8027,116.5 L375.8027,136.2969 L602.5,136.2969 A2.5,2.5 0 0 1 605,138.7969 L605,309.5 A2.5,2.5 0 0 1 602.5,312 L114,312 A2.5,2.5 0 0 1 111.5,309.5 L111.5,116.5 A2.5,2.5 0 0 1 114,114" fill="none" style="stroke:#000000;stroke-width:1.5;"/><line style="stroke:#000000;stroke-width:1.5;" x1="111.5" x2="375.8027" y1="136.2969" y2="136.2969"/><text fill="#000000" font-family="sans-serif" font-size="14" font-weight="bold" lengthAdjust="spacing" textLength="251.3027" x="115.5" y="128.9951">M&#243;dulo Exportaci&#243;n [Abstracto]</text></g><!--entity UC1--><g class="entity" data-entity="UC1" data-source-line="6" data-uid="ent0004" id="entity_UC1"><ellipse cx="773.6891" cy="1183.1378" fill="#F1F1F1" rx="63.6891" ry="15.1378" style="stroke:#181818;stroke-width:0.5;"/><text fill="#000000" font-family="sans-serif" font-size="14" lengthAdjust="spacing" textLength="89.9609" x="728.7086" y="1187.7863">crearGrado()</text></g><!--entity UC2--><g class="entity" data-entity="UC2" data-source-line="7" data-uid="ent0005" id="entity_UC2"><ellipse cx="773.3379" cy="1118.1676" fill="#F1F1F1" rx="61.3379" ry="14.6676" style="stroke:#181818;stroke-width:0.5;"/><text fill="#000000" font-family="sans-serif" font-size="14" lengthAdjust="spacing" textLength="83.5078" x="731.584" y="1122.816">verGrados()</text></g><!--entity UC3--><g class="entity" data-entity="UC3" data-source-line="8" data-uid="ent0006" id="entity_UC3"><ellipse cx="773.4934" cy="984.9987" fill="#F1F1F1" rx="65.4934" ry="15.4987" style="stroke:#181818;stroke-width:0.5;"/><text fill="#000000" font-family="sans-serif" font-size="14" lengthAdjust="spacing" textLength="94.7734" x="726.1067" y="989.6471">editarGrado()</text></g><!--entity UC4--><g class="entity" data-entity="UC4" data-source-line="9" data-uid="ent0007" id="entity_UC4"><ellipse cx="773.723" cy="1052.2446" fill="#F1F1F1" rx="71.723" ry="16.7446" style="stroke:#181818;stroke-width:0.5;"/><text fill="#000000" font-family="sans-serif" font-size="14" lengthAdjust="spacing" textLength="110.6875" x="718.3793" y="1056.893">eliminarGrado()</text></g><!--entity UC5--><g class="entity" data-entity="UC5" data-source-line="13" data-uid="ent0009" id="entity_UC5"><ellipse cx="773.322" cy="58.7644" fill="#F1F1F1" rx="76.822" ry="17.7644" style="stroke:#181818;stroke-width:0.5;"/><text fill="#000000" font-family="sans-serif" font-size="14" lengthAdjust="spacing" textLength="123.1221" x="711.761" y="63.4128">crearAsignatura()</text></g><!--entity UC6--><g class="entity" data-entity="UC6" data-source-line="14" data-uid="ent0010" id="entity_UC6"><ellipse cx="773.6536" cy="129.2307" fill="#F1F1F1" rx="74.1536" ry="17.2307" style="stroke:#181818;stroke-width:0.5;"/><text fill="#000000" font-family="sans-serif" font-size="14" lengthAdjust="spacing" textLength="116.6689" x="715.3191" y="133.8792">verAsignaturas()</text></g><!--entity UC7--><g class="entity" data-entity="UC7" data-source-line="15" data-uid="ent0011" id="entity_UC7"><ellipse cx="773.3402" cy="199.168" fill="#F1F1F1" rx="78.8402" ry="18.168" style="stroke:#181818;stroke-width:0.5;"/><text fill="#000000" font-family="sans-serif" font-size="14" lengthAdjust="spacing" textLength="127.9346" x="709.3729" y="203.8165">editarAsignatura()</text></g><!--entity UC8--><g class="entity" data-entity="UC8" data-source-line="16" data-uid="ent0012" id="entity_UC8"><ellipse cx="773.6622" cy="272.0324" fill="#F1F1F1" rx="85.6622" ry="19.5324" style="stroke:#181818;stroke-width:0.5;"/><text fill="#000000" font-family="sans-serif" font-size="14" lengthAdjust="spacing" textLength="143.8486" x="701.7378" y="276.6809">eliminarAsignatura()</text></g><!--entity UC9--><g class="entity" data-entity="UC9" data-source-line="20" data-uid="ent0014" id="entity_UC9"><ellipse cx="773.2852" cy="1493.957" fill="#F1F1F1" rx="67.7852" ry="15.957" style="stroke:#181818;stroke-width:0.5;"/><text fill="#000000" font-family="sans-serif" font-size="14" lengthAdjust="spacing" textLength="100.7412" x="722.9146" y="1498.6055">crearAlumno()</text></g><!--entity UC10--><g class="entity" data-entity="UC10" data-source-line="21" data-uid="ent0015" id="entity_UC10"><ellipse cx="773.3096" cy="1288.9619" fill="#F1F1F1" rx="65.3096" ry="15.4619" style="stroke:#181818;stroke-width:0.5;"/><text fill="#000000" font-family="sans-serif" font-size="14" lengthAdjust="spacing" textLength="94.2881" x="726.1656" y="1293.6104">verAlumnos()</text></g><!--entity UC11--><g class="entity" data-entity="UC11" data-source-line="22" data-uid="ent0016" id="entity_UC11"><ellipse cx="773.6733" cy="1355.8347" fill="#F1F1F1" rx="69.6733" ry="16.3347" style="stroke:#181818;stroke-width:0.5;"/><text fill="#000000" font-family="sans-serif" font-size="14" lengthAdjust="spacing" textLength="105.5537" x="720.8964" y="1360.4831">editarAlumno()</text></g><!--entity UC12--><g class="entity" data-entity="UC12" data-source-line="23" data-uid="ent0017" id="entity_UC12"><ellipse cx="773.6337" cy="1425.1267" fill="#F1F1F1" rx="76.1337" ry="17.6267" style="stroke:#181818;stroke-width:0.5;"/><text fill="#000000" font-family="sans-serif" font-size="14" lengthAdjust="spacing" textLength="121.4678" x="712.8998" y="1429.7752">eliminarAlumno()</text></g><!--entity UC20--><g class="entity" data-entity="UC20" data-source-line="27" data-uid="ent0019" id="entity_UC20"><ellipse cx="773.2836" cy="876.7567" fill="#F1F1F1" rx="71.7836" ry="16.7567" style="stroke:#181818;stroke-width:0.5;"/><text fill="#000000" font-family="sans-serif" font-size="14" lengthAdjust="spacing" textLength="110.8379" x="717.8647" y="881.4052">crearPregunta()</text></g><!--entity UC21--><g class="entity" data-entity="UC21" data-source-line="28" data-uid="ent0020" id="entity_UC21"><ellipse cx="773.7116" cy="383.2423" fill="#F1F1F1" rx="69.2116" ry="16.2423" style="stroke:#181818;stroke-width:0.5;"/><text fill="#000000" font-family="sans-serif" font-size="14" lengthAdjust="spacing" textLength="104.3848" x="721.5192" y="387.8907">verPreguntas()</text></g><!--entity UC22--><g class="entity" data-entity="UC22" data-source-line="29" data-uid="ent0021" id="entity_UC22"><ellipse cx="773.3464" cy="450.7693" fill="#F1F1F1" rx="69.3464" ry="16.2693" style="stroke:#181818;stroke-width:0.5;"/><text fill="#000000" font-family="sans-serif" font-size="14" lengthAdjust="spacing" textLength="104.7266" x="720.9831" y="455.4177">editarPregunta</text></g><!--entity UC23--><g class="entity" data-entity="UC23" data-source-line="30" data-uid="ent0022" id="entity_UC23"><ellipse cx="773.3772" cy="520.9754" fill="#F1F1F1" rx="80.3772" ry="18.4754" style="stroke:#181818;stroke-width:0.5;"/><text fill="#000000" font-family="sans-serif" font-size="14" lengthAdjust="spacing" textLength="131.5645" x="707.5949" y="525.6239">eliminarPregunta()</text></g><!--entity UC32--><g class="entity" data-entity="UC32" data-source-line="32" data-uid="ent0023" id="entity_UC32"><ellipse cx="773.3132" cy="592.0626" fill="#F1F1F1" rx="75.8132" ry="17.5626" style="stroke:#181818;stroke-width:0.5;"/><text fill="#000000" font-family="sans-serif" font-size="14" lengthAdjust="spacing" textLength="120.6953" x="712.9656" y="596.7111">crearRespuesta()</text></g><!--entity UC33--><g class="entity" data-entity="UC33" data-source-line="33" data-uid="ent0024" id="entity_UC33"><ellipse cx="773.6623" cy="662.0325" fill="#F1F1F1" rx="73.1623" ry="17.0325" style="stroke:#181818;stroke-width:0.5;"/><text fill="#000000" font-family="sans-serif" font-size="14" lengthAdjust="spacing" textLength="114.2422" x="716.5412" y="666.6809">verRespuestas()</text></g><!--entity UC34--><g class="entity" data-entity="UC34" data-source-line="34" data-uid="ent0025" id="entity_UC34"><ellipse cx="773.3196" cy="731.9639" fill="#F1F1F1" rx="77.8196" ry="17.9639" style="stroke:#181818;stroke-width:0.5;"/><text fill="#000000" font-family="sans-serif" font-size="14" lengthAdjust="spacing" textLength="125.5078" x="710.5657" y="736.6124">editarRespuesta()</text></g><!--entity UC35--><g class="entity" data-entity="UC35" data-source-line="35" data-uid="ent0026" id="entity_UC35"><ellipse cx="773.6086" cy="804.8217" fill="#F1F1F1" rx="84.6086" ry="19.3217" style="stroke:#181818;stroke-width:0.5;"/><text fill="#000000" font-family="sans-serif" font-size="14" lengthAdjust="spacing" textLength="141.4219" x="702.8977" y="809.4702">eliminarRespuesta()</text></g><!--entity UC26--><g class="entity" data-entity="UC26" data-source-line="39" data-uid="ent0028" id="entity_UC26"><ellipse cx="219.8711" cy="517.7742" fill="#F1F1F1" rx="116.8711" ry="25.7742" style="stroke:#181818;stroke-width:0.5;"/><text fill="#000000" font-family="sans-serif" font-size="14" lengthAdjust="spacing" textLength="212.666" x="113.5381" y="522.4227">exportarConfiguracionGlobal()</text></g><!--entity UC27--><g class="entity" data-entity="UC27" data-source-line="40" data-uid="ent0029" id="entity_UC27"><ellipse cx="220.1648" cy="604.833" fill="#F1F1F1" rx="117.1648" ry="25.833" style="stroke:#181818;stroke-width:0.5;"/><text fill="#000000" font-family="sans-serif" font-size="14" lengthAdjust="spacing" textLength="213.2949" x="113.5174" y="609.4814">importarConfiguracionGlobal()</text></g><!--entity UC28--><g class="entity" data-entity="UC28" data-source-line="44" data-uid="ent0031" id="entity_UC28"><ellipse cx="490.9504" cy="1307.0901" fill="#F1F1F1" rx="83.4504" ry="19.0901" style="stroke:#181818;stroke-width:0.5;"/><text fill="#000000" font-family="sans-serif" font-size="14" lengthAdjust="spacing" textLength="138.7422" x="421.5794" y="1311.7385">generarExamenes()</text></g><!--entity UC29--><g class="entity" data-entity="UC29" data-source-line="45" data-uid="ent0032" id="entity_UC29"><ellipse cx="491.0665" cy="1379.8133" fill="#F1F1F1" rx="82.0665" ry="18.8133" style="stroke:#181818;stroke-width:0.5;"/><text fill="#000000" font-family="sans-serif" font-size="14" lengthAdjust="spacing" textLength="135.5225" x="423.3053" y="1384.4617">asignarExamenes()</text></g><!--entity UC40--><g class="entity" data-entity="UC40" data-source-line="46" data-uid="ent0033" id="entity_UC40"><ellipse cx="490.7549" cy="1527.151" fill="#F1F1F1" rx="88.7549" ry="20.151" style="stroke:#181818;stroke-width:0.5;"/><text fill="#000000" font-family="sans-serif" font-size="14" lengthAdjust="spacing" textLength="150.917" x="415.2964" y="1531.7994">cancelarGeneracion()</text></g><!--entity UC31--><g class="entity" data-entity="UC31" data-source-line="47" data-uid="ent0034" id="entity_UC31"><ellipse cx="490.8827" cy="1453.0765" fill="#F1F1F1" rx="83.3827" ry="19.0765" style="stroke:#181818;stroke-width:0.5;"/><text fill="#000000" font-family="sans-serif" font-size="14" lengthAdjust="spacing" textLength="138.585" x="421.5902" y="1457.725">corregirExamenes()</text></g><!--entity UC42--><g class="entity" data-entity="UC42" data-source-line="51" data-uid="ent0036" id="entity_UC42"><ellipse cx="219.8504" cy="721.8701" fill="#F1F1F1" rx="67.3504" ry="15.8701" style="stroke:#181818;stroke-width:0.5;"/><text fill="#000000" font-family="sans-serif" font-size="14" lengthAdjust="spacing" textLength="99.6201" x="170.0403" y="726.5185">iniciarSesion()</text></g><!--entity UC43--><g class="entity" data-entity="UC43" data-source-line="52" data-uid="ent0037" id="entity_UC43"><ellipse cx="220.1891" cy="788.8378" fill="#F1F1F1" rx="67.1891" ry="15.8378" style="stroke:#181818;stroke-width:0.5;"/><text fill="#000000" font-family="sans-serif" font-size="14" lengthAdjust="spacing" textLength="99.2031" x="170.5875" y="793.4863">cerrarSesion()</text></g><!--entity UC13--><g class="entity" data-entity="UC13" data-source-line="56" data-uid="ent0039" id="entity_UC13"><ellipse cx="220.1046" cy="397.8209" fill="#F1F1F1" rx="82.1046" ry="18.8209" style="stroke:#181818;stroke-width:0.5;"/><text fill="#000000" font-family="sans-serif" font-size="14" lengthAdjust="spacing" textLength="135.6113" x="152.2989" y="402.4694">completarGestion()</text></g><!--entity UC38--><g class="entity" data-entity="UC38" data-source-line="60" data-uid="ent0041" id="entity_UC38"><ellipse cx="219.8683" cy="935.9737" fill="#F1F1F1" rx="90.3683" ry="20.4737" style="stroke:#181818;stroke-width:0.5;"/><text fill="#000000" font-family="sans-serif" font-size="14" lengthAdjust="spacing" textLength="154.5742" x="142.5812" y="940.6221">importarAsignaturas()</text></g><!--entity UC24--><g class="entity" data-entity="UC24" data-source-line="61" data-uid="ent0042" id="entity_UC24"><ellipse cx="219.985" cy="1010.897" fill="#F1F1F1" rx="84.985" ry="19.397" style="stroke:#181818;stroke-width:0.5;"/><text fill="#000000" font-family="sans-serif" font-size="14" lengthAdjust="spacing" textLength="142.29" x="148.84" y="1015.5454">importarPreguntas()</text></g><!--entity UC19--><g class="entity" data-entity="UC19" data-source-line="62" data-uid="ent0043" id="entity_UC19"><ellipse cx="220.1447" cy="1154.0289" fill="#F1F1F1" rx="80.6447" ry="18.5289" style="stroke:#181818;stroke-width:0.5;"/><text fill="#000000" font-family="sans-serif" font-size="14" lengthAdjust="spacing" textLength="132.1934" x="154.048" y="1158.6774">importarAlumnos()</text></g><!--entity UC36--><g class="entity" data-entity="UC36" data-source-line="63" data-uid="ent0044" id="entity_UC36"><ellipse cx="220.1109" cy="1083.1222" fill="#F1F1F1" rx="76.1109" ry="17.6222" style="stroke:#181818;stroke-width:0.5;"/><text fill="#000000" font-family="sans-serif" font-size="14" lengthAdjust="spacing" textLength="121.4131" x="159.4044" y="1087.7706">importarGrados()</text></g><!--entity UC25--><g class="entity" data-entity="UC25" data-source-line="66" data-uid="ent0046" id="entity_UC25"><ellipse cx="220.2123" cy="248.8425" fill="#F1F1F1" rx="84.7123" ry="19.3425" style="stroke:#181818;stroke-width:0.5;"/><text fill="#000000" font-family="sans-serif" font-size="14" lengthAdjust="spacing" textLength="141.6611" x="149.3817" y="253.4909">exportarPreguntas()</text></g><!--entity UC17--><g class="entity" data-entity="UC17" data-source-line="67" data-uid="ent0047" id="entity_UC17"><ellipse cx="219.8772" cy="175.9754" fill="#F1F1F1" rx="80.3772" ry="18.4754" style="stroke:#181818;stroke-width:0.5;"/><text fill="#000000" font-family="sans-serif" font-size="14" lengthAdjust="spacing" textLength="131.5645" x="154.0949" y="180.6239">exportarAlumnos()</text></g><!--entity UC39--><g class="entity" data-entity="UC39" data-source-line="68" data-uid="ent0048" id="entity_UC39"><ellipse cx="491.0903" cy="247.9181" fill="#F1F1F1" rx="90.0903" ry="20.4181" style="stroke:#181818;stroke-width:0.5;"/><text fill="#000000" font-family="sans-serif" font-size="14" lengthAdjust="spacing" textLength="153.9453" x="414.1176" y="252.5665">exportarAsignaturas()</text></g><!--entity UC37--><g class="entity" data-entity="UC37" data-source-line="69" data-uid="ent0049" id="entity_UC37"><ellipse cx="490.8501" cy="175.07" fill="#F1F1F1" rx="75.8501" ry="17.57" style="stroke:#181818;stroke-width:0.5;"/><text fill="#000000" font-family="sans-serif" font-size="14" lengthAdjust="spacing" textLength="120.7842" x="430.458" y="179.7184">exportarGrados()</text></g><!--entity doc--><g class="entity" data-entity="doc" data-source-line="3" data-uid="ent0002" id="entity_doc"><ellipse cx="490.8159" cy="800.5" fill="#F1F1F1" rx="8" ry="8" style="stroke:#181818;stroke-width:0.5;"/><path d="M490.8159,808.5 L490.8159,835.5 M477.8159,816.5 L503.8159,816.5 M490.8159,835.5 L477.8159,850.5 M490.8159,835.5 L503.8159,850.5" fill="none" style="stroke:#181818;stroke-width:0.5;"/><text fill="#000000" font-family="sans-serif" font-size="14" lengthAdjust="spacing" textLength="58.6318" x="461.5" y="864.9951">Docente</text></g><!--link doc to UC1--><g class="link" data-entity-1="doc" data-entity-2="UC1" data-source-line="73" data-uid="lnk50" id="link_doc_UC1"><path d="M520.62,842.76 C551.34,858.14 598.73,887.12 621,928 C623.96,933.43 634,1145.28 638,1150 C655.57,1170.72 677.8912,1178.7979 703.9812,1182.2279" fill="none" id="doc-to-UC1" style="stroke:#181818;stroke-width:1;"/><polygon fill="#181818" points="709.93,1183.01,701.5282,1177.871,704.9727,1182.3583,700.4854,1185.8028,709.93,1183.01" style="stroke:#181818;stroke-width:1;"/></g><!--link doc to UC2--><g class="link" data-entity-1="doc" data-entity-2="UC2" data-source-line="74" data-uid="lnk51" id="link_doc_UC2"><path d="M520.66,843.03 C551.19,858.56 598.18,887.59 621,928 C623.17,931.84 635.08,1082.69 638,1086 C656.33,1106.8 679.5309,1114.6506 706.0309,1117.7606" fill="none" id="doc-to-UC2" style="stroke:#181818;stroke-width:1;"/><polygon fill="#181818" points="711.99,1118.46,703.5176,1113.4382,707.0241,1117.8772,702.5851,1121.3837,711.99,1118.46" style="stroke:#181818;stroke-width:1;"/></g><!--link doc to UC3--><g class="link" data-entity-1="doc" data-entity-2="UC3" data-source-line="75" data-uid="lnk52" id="link_doc_UC3"><path d="M520.76,836.8 C551.29,845.32 599.28,862.64 630,893 C635.94,898.87 632.3,903.9 638,910 C665.36,939.32 701.2861,957.7597 730.9361,969.8797" fill="none" id="doc-to-UC3" style="stroke:#181818;stroke-width:1;"/><polygon fill="#181818" points="736.49,972.15,729.6726,965.042,731.8617,970.2581,726.6456,972.4472,736.49,972.15" style="stroke:#181818;stroke-width:1;"/></g><!--link doc to UC4--><g class="link" data-entity-1="doc" data-entity-2="UC4" data-source-line="76" data-uid="lnk53" id="link_doc_UC4"><path d="M520.62,843.99 C550.41,860.07 596.14,889.32 621,928 C630.85,943.33 626.56,950.11 630,968 C632.12,979.05 630.4,1009.7 638,1018 C654.5,1036.04 673.1609,1044.0241 696.7909,1048.4141" fill="none" id="doc-to-UC4" style="stroke:#181818;stroke-width:1;"/><polygon fill="#181818" points="702.69,1049.51,694.572,1043.9334,697.7741,1048.5967,693.1108,1051.7988,702.69,1049.51" style="stroke:#181818;stroke-width:1;"/></g><!--link doc to UC5--><g class="link" data-entity-1="doc" data-entity-2="UC5" data-source-line="78" data-uid="lnk54" id="link_doc_UC5"><path d="M508.91,791.76 C537.33,725.6 594.21,584.88 621,460 C630.64,415.07 627.3,402.87 630,357 C630.86,342.41 628.88,105.43 638,94 C652.37,75.99 668.861,67.7872 691.261,63.0272" fill="none" id="doc-to-UC5" style="stroke:#181818;stroke-width:1;"/><polygon fill="#181818" points="697.13,61.78,687.4951,59.7381,692.2392,62.8193,689.158,67.5634,697.13,61.78" style="stroke:#181818;stroke-width:1;"/></g><!--link doc to UC6--><g class="link" data-entity-1="doc" data-entity-2="UC6" data-source-line="79" data-uid="lnk55" id="link_doc_UC6"><path d="M508.04,791.85 C535.29,725.54 590.62,584.23 621,460 C644,365.96 634.54,167.3 638,163 C652.97,144.44 670.576,136.2729 693.776,131.8529" fill="none" id="doc-to-UC6" style="stroke:#181818;stroke-width:1;"/><polygon fill="#181818" points="699.67,130.73,690.0804,128.485,694.7583,131.6658,691.5776,136.3437,699.67,130.73" style="stroke:#181818;stroke-width:1;"/></g><!--link doc to UC7--><g class="link" data-entity-1="doc" data-entity-2="UC7" data-source-line="80" data-uid="lnk56" id="link_doc_UC7"><path d="M509.78,791.95 C540.88,723.25 604.3,573.15 630,439 C634.27,416.72 623.84,252.72 638,235 C652.19,217.25 668.2387,209.0074 690.2787,204.0074" fill="none" id="doc-to-UC7" style="stroke:#181818;stroke-width:1;"/><polygon fill="#181818" points="696.13,202.68,686.4681,200.7703,691.2539,203.7862,688.238,208.572,696.13,202.68" style="stroke:#181818;stroke-width:1;"/></g><!--link doc to UC8--><g class="link" data-entity-1="doc" data-entity-2="UC8" data-source-line="81" data-uid="lnk57" id="link_doc_UC8"><path d="M511.65,791.9 C543.06,728.91 603.71,598.27 630,480 C636.23,451.96 622.97,375.47 638,351 C656.92,320.19 687.1375,302.3037 717.0275,290.0637" fill="none" id="doc-to-UC8" style="stroke:#181818;stroke-width:1;"/><polygon fill="#181818" points="722.58,287.79,712.7354,287.499,717.9529,289.6848,715.7671,294.9023,722.58,287.79" style="stroke:#181818;stroke-width:1;"/></g><!--link doc to UC9--><g class="link" data-entity-1="doc" data-entity-2="UC9" data-source-line="83" data-uid="lnk58" id="link_doc_UC9"><path d="M520.71,842.42 C551.76,857.59 599.67,886.47 621,928 C628.36,942.34 628.48,1201.89 629,1218 C629.11,1221.36 635.88,1457.39 638,1460 C654.21,1480.04 674.4341,1488.3198 699.3941,1492.2798" fill="none" id="doc-to-UC9" style="stroke:#181818;stroke-width:1;"/><polygon fill="#181818" points="705.32,1493.22,697.058,1487.8592,700.3818,1492.4365,695.8044,1495.7603,705.32,1493.22" style="stroke:#181818;stroke-width:1;"/></g><!--link doc to UC10--><g class="link" data-entity-1="doc" data-entity-2="UC10" data-source-line="84" data-uid="lnk59" id="link_doc_UC10"><path d="M520.75,842.69 C551.59,858.01 599.08,886.93 621,928 C628.49,942.04 629.54,1200.52 638,1214 C658.55,1246.72 693.0896,1264.4001 724.2096,1275.3401" fill="none" id="doc-to-UC10" style="stroke:#181818;stroke-width:1;"/><polygon fill="#181818" points="729.87,1277.33,722.706,1270.5716,725.153,1275.6718,720.0528,1278.1188,729.87,1277.33" style="stroke:#181818;stroke-width:1;"/></g><!--link doc to UC11--><g class="link" data-entity-1="doc" data-entity-2="UC11" data-source-line="85" data-uid="lnk60" id="link_doc_UC11"><path d="M520.59,842.48 C551.54,857.71 599.35,886.63 621,928 C626.08,937.71 631.08,1313.5 638,1322 C653.96,1341.61 673.5414,1349.8752 698.0614,1353.9552" fill="none" id="doc-to-UC11" style="stroke:#181818;stroke-width:1;"/><polygon fill="#181818" points="703.98,1354.94,695.7586,1349.517,699.0478,1354.1193,694.4455,1357.4085,703.98,1354.94" style="stroke:#181818;stroke-width:1;"/></g><!--link doc to UC12--><g class="link" data-entity-1="doc" data-entity-2="UC12" data-source-line="86" data-uid="lnk61" id="link_doc_UC12"><path d="M520.67,842.44 C551.68,857.63 599.55,886.53 621,928 C626.9,939.41 629.94,1380 638,1390 C652.69,1408.22 669.6742,1416.4456 692.4142,1421.1456" fill="none" id="doc-to-UC12" style="stroke:#181818;stroke-width:1;"/><polygon fill="#181818" points="698.29,1422.36,690.2859,1416.6211,693.3935,1421.348,688.6667,1424.4556,698.29,1422.36" style="stroke:#181818;stroke-width:1;"/></g><!--reverse link UC13 to doc--><g class="link" data-entity-1="UC13" data-entity-2="doc" data-source-line="88" data-uid="lnk63" id="link_UC13_doc"><path d="M272.1563,415.9688 C302.6163,428.5388 336,446.68 361,476 C442.16,571.2 474.05,721.73 484.99,791.79" fill="none" id="UC13-backto-doc" style="stroke:#181818;stroke-width:1;"/><polygon fill="#181818" points="266.61,413.68,273.4036,420.8107,271.2319,415.5873,276.4553,413.4157,266.61,413.68" style="stroke:#181818;stroke-width:1;"/></g><!--reverse link UC19 to doc--><g class="link" data-entity-1="UC19" data-entity-2="doc" data-source-line="89" data-uid="lnk65" id="link_UC19_doc"><path d="M305.0442,1149.1108 C328.0542,1144.1308 345.36,1135.83 361,1118 C388.95,1086.13 359.17,965.98 378,928 C396.14,891.43 434.55,862.67 461.3,846.01" fill="none" id="UC19-backto-doc" style="stroke:#181818;stroke-width:1;"/><polygon fill="#181818" points="299.18,1150.38,308.8225,1152.3857,304.0669,1149.3223,307.1302,1144.5667,299.18,1150.38" style="stroke:#181818;stroke-width:1;"/></g><!--link doc to UC20--><g class="link" data-entity-1="doc" data-entity-2="UC20" data-source-line="90" data-uid="lnk66" id="link_doc_UC20"><path d="M520.57,834.42 C548.49,838.77 592.19,845.67 630,852 C658.24,856.73 683.682,861.1534 709.762,865.7734" fill="none" id="doc-to-UC20" style="stroke:#181818;stroke-width:1;"/><polygon fill="#181818" points="715.67,866.82,707.5057,861.3114,710.7467,865.9478,706.1103,869.1888,715.67,866.82" style="stroke:#181818;stroke-width:1;"/></g><!--link doc to UC21--><g class="link" data-entity-1="doc" data-entity-2="UC21" data-source-line="91" data-uid="lnk67" id="link_doc_UC21"><path d="M514.39,791.57 C546.34,734.63 604,623.51 630,521 C635.7,498.53 623.07,434.73 638,417 C654.37,397.57 674.171,389.3525 698.751,385.2725" fill="none" id="doc-to-UC21" style="stroke:#181818;stroke-width:1;"/><polygon fill="#181818" points="704.67,384.29,695.1365,381.8177,699.7375,385.1087,696.4465,389.7097,704.67,384.29" style="stroke:#181818;stroke-width:1;"/></g><!--link doc to UC22--><g class="link" data-entity-1="doc" data-entity-2="UC22" data-source-line="92" data-uid="lnk68" id="link_doc_UC22"><path d="M517.4,791.99 C549.59,741.72 604,649.27 630,562 C634.91,545.51 626.74,498.01 638,485 C654.47,465.97 673.9966,457.8259 698.3266,453.6459" fill="none" id="doc-to-UC22" style="stroke:#181818;stroke-width:1;"/><polygon fill="#181818" points="704.24,452.63,694.6927,450.2117,699.3122,453.4766,696.0472,458.0962,704.24,452.63" style="stroke:#181818;stroke-width:1;"/></g><!--link doc to UC23--><g class="link" data-entity-1="doc" data-entity-2="UC23" data-source-line="93" data-uid="lnk69" id="link_doc_UC23"><path d="M520.62,792.91 C552.45,749.74 602.92,675.11 630,603 C637.29,583.57 624,572.31 638,557 C653.01,540.59 668.7638,532.7125 690.2638,527.5825" fill="none" id="doc-to-UC23" style="stroke:#181818;stroke-width:1;"/><polygon fill="#181818" points="696.1,526.19,686.4174,524.388,691.2365,527.3504,688.2741,532.1696,696.1,526.19" style="stroke:#181818;stroke-width:1;"/></g><!--link doc to UC24--><g class="link" data-entity-1="doc" data-entity-2="UC24" data-source-line="94" data-uid="lnk70" id="link_doc_UC24"><path d="M461.46,844.72 C433.17,860.91 390.98,889.64 369,927 C358.25,945.26 375.3,958.36 361,974 C345.74,990.7 329.7292,998.8086 307.8292,1004.1486" fill="none" id="doc-to-UC24" style="stroke:#181818;stroke-width:1;"/><polygon fill="#181818" points="302,1005.57,311.6914,1007.3241,306.8577,1004.3855,309.7962,999.5518,302,1005.57" style="stroke:#181818;stroke-width:1;"/></g><!--reverse link UC26 to doc--><g class="link" data-entity-1="UC26" data-entity-2="doc" data-source-line="96" data-uid="lnk72" id="link_UC26_doc"><path d="M317.7951,536.075 C335.3951,542.315 347.03,548.97 361,561 C432.83,622.84 467.88,733.73 482.04,791.94" fill="none" id="UC26-backto-doc" style="stroke:#181818;stroke-width:1;"/><polygon fill="#181818" points="312.14,534.07,319.286,540.8475,316.8526,535.7408,321.9593,533.3074,312.14,534.07" style="stroke:#181818;stroke-width:1;"/></g><!--reverse link UC27 to doc--><g class="link" data-entity-1="UC27" data-entity-2="doc" data-source-line="97" data-uid="lnk74" id="link_UC27_doc"><path d="M272.8562,631.8435 C301.1762,647.4335 332.07,666.32 361,690 C399.23,721.3 436.81,763.79 461.45,793.72" fill="none" id="UC27-backto-doc" style="stroke:#181818;stroke-width:1;"/><polygon fill="#181818" points="267.6,628.95,273.5553,636.7944,271.9802,631.3613,277.4133,629.7861,267.6,628.95" style="stroke:#181818;stroke-width:1;"/></g><!--reverse link UC28 to doc--><g class="link" data-entity-1="UC28" data-entity-2="doc" data-source-line="98" data-uid="lnk76" id="link_UC28_doc"><path d="M433.1161,1289.8244 C403.7061,1277.9544 376.99,1260.05 369.5,1227.5 C362.48,1196.96 362.48,976.04 369.5,945.5 C380.43,897.99 429.07,863.21 461.4,844.83" fill="none" id="UC28-backto-doc" style="stroke:#181818;stroke-width:1;"/><polygon fill="#181818" points="438.68,1292.07,431.8312,1284.9923,434.0434,1290.1986,428.837,1292.4108,438.68,1292.07" style="stroke:#181818;stroke-width:1;"/></g><!--reverse link UC29 to doc--><g class="link" data-entity-1="UC29" data-entity-2="doc" data-source-line="99" data-uid="lnk78" id="link_UC29_doc"><path d="M413.665,1368.8029 C390.425,1361.3729 374.9,1349.97 369.5,1326.5 C360.01,1285.24 360.01,986.76 369.5,945.5 C380.43,897.99 429.07,863.21 461.4,844.83" fill="none" id="UC29-backto-doc" style="stroke:#181818;stroke-width:1;"/><polygon fill="#181818" points="419.38,1370.63,412.0255,1364.0793,414.6175,1369.1074,409.5894,1371.6993,419.38,1370.63" style="stroke:#181818;stroke-width:1;"/></g><!--reverse link UC31 to doc--><g class="link" data-entity-1="UC31" data-entity-2="doc" data-source-line="100" data-uid="lnk80" id="link_UC31_doc"><path d="M413.0039,1441.5551 C390.0239,1434.0851 374.85,1422.75 369.5,1399.5 C358.19,1350.34 358.19,994.66 369.5,945.5 C380.43,897.99 429.07,863.21 461.4,844.83" fill="none" id="UC31-backto-doc" style="stroke:#181818;stroke-width:1;"/><polygon fill="#181818" points="418.71,1443.41,411.3874,1436.8237,413.9549,1441.8643,408.9143,1444.4318,418.71,1443.41" style="stroke:#181818;stroke-width:1;"/></g><!--link doc to UC32--><g class="link" data-entity-1="doc" data-entity-2="UC32" data-source-line="101" data-uid="lnk81" id="link_doc_UC32"><path d="M520.63,795.79 C550.18,759.54 596.56,699.9 630,644 C634.29,636.83 631.57,632.33 638,627 C656.1,611.98 674.07,604.6084 696.63,599.6484" fill="none" id="doc-to-UC32" style="stroke:#181818;stroke-width:1;"/><polygon fill="#181818" points="702.49,598.36,692.841,596.3859,697.6066,599.4336,694.5589,604.1993,702.49,598.36" style="stroke:#181818;stroke-width:1;"/></g><!--link doc to UC33--><g class="link" data-entity-1="doc" data-entity-2="UC33" data-source-line="102" data-uid="lnk82" id="link_doc_UC33"><path d="M520.6,795.42 C547.73,764.83 591.23,721.25 638,696 C660.36,683.93 681.2642,677.2921 705.0142,672.1821" fill="none" id="doc-to-UC33" style="stroke:#181818;stroke-width:1;"/><polygon fill="#181818" points="710.88,670.92,701.24,668.9026,705.9919,671.9717,702.9227,676.7236,710.88,670.92" style="stroke:#181818;stroke-width:1;"/></g><!--link doc to UC34--><g class="link" data-entity-1="doc" data-entity-2="UC34" data-source-line="103" data-uid="lnk83" id="link_doc_UC34"><path d="M520.62,816.43 C549.72,802.98 596.34,782.34 638,768 C663.94,759.07 687.5032,752.4513 712.1732,746.2113" fill="none" id="doc-to-UC34" style="stroke:#181818;stroke-width:1;"/><polygon fill="#181818" points="717.99,744.74,708.2839,743.0691,713.1427,745.9661,710.2456,750.8248,717.99,744.74" style="stroke:#181818;stroke-width:1;"/></g><!--link doc to UC35--><g class="link" data-entity-1="doc" data-entity-2="UC35" data-source-line="104" data-uid="lnk84" id="link_doc_UC35"><path d="M520.51,825.23 C548.16,820.8 591.33,814.39 629,811 C648.5,809.24 663.5359,808.2665 683.3259,807.3865" fill="none" id="doc-to-UC35" style="stroke:#181818;stroke-width:1;"/><polygon fill="#181818" points="689.32,807.12,680.1512,803.5238,684.3249,807.3421,680.5066,811.5159,689.32,807.12" style="stroke:#181818;stroke-width:1;"/></g><!--reverse link UC36 to doc--><g class="link" data-entity-1="UC36" data-entity-2="doc" data-source-line="105" data-uid="lnk86" id="link_UC36_doc"><path d="M301.1846,1079.4001 C325.3446,1074.8101 344.32,1066.52 361,1048 C397.05,1007.98 352.35,975.37 378,928 C397.32,892.33 435.07,863.55 461.37,846.63" fill="none" id="UC36-backto-doc" style="stroke:#181818;stroke-width:1;"/><polygon fill="#181818" points="295.29,1080.52,304.8784,1082.7699,300.2021,1079.5868,303.3853,1074.9105,295.29,1080.52" style="stroke:#181818;stroke-width:1;"/></g><!--reverse link UC38 to doc--><g class="link" data-entity-1="UC38" data-entity-2="doc" data-source-line="106" data-uid="lnk88" id="link_UC38_doc"><path d="M316.462,934.5607 C335.112,930.4907 347.35,924.23 361,911 C373.39,898.99 357.64,885.99 369,873 C392.4,846.23 433.62,836.13 461.36,832.31" fill="none" id="UC38-backto-doc" style="stroke:#181818;stroke-width:1;"/><polygon fill="#181818" points="310.6,935.84,320.2459,937.8291,315.485,934.7739,318.5402,930.0131,310.6,935.84" style="stroke:#181818;stroke-width:1;"/></g><!--reverse link UC40 to doc--><g class="link" data-entity-1="UC40" data-entity-2="doc" data-source-line="107" data-uid="lnk90" id="link_UC40_doc"><path d="M410.7519,1514.0536 C388.7019,1506.2736 374.68,1495.03 369.5,1472.5 C362.94,1443.97 362.94,974.03 369.5,945.5 C380.43,897.99 429.07,863.21 461.4,844.83" fill="none" id="UC40-backto-doc" style="stroke:#181818;stroke-width:1;"/><polygon fill="#181818" points="416.41,1516.05,409.2537,1509.2833,411.6949,1514.3863,406.5919,1516.8275,416.41,1516.05" style="stroke:#181818;stroke-width:1;"/></g><!--reverse link UC42 to doc--><g class="link" data-entity-1="UC42" data-entity-2="doc" data-source-line="108" data-uid="lnk92" id="link_UC42_doc"><path d="M281.8712,732.2479 C308.1612,737.5579 333.86,744.19 361,755 C397.46,769.52 435.95,793.12 461.29,809.97" fill="none" id="UC42-backto-doc" style="stroke:#181818;stroke-width:1;"/><polygon fill="#181818" points="275.99,731.06,284.0199,736.7626,280.891,732.0499,285.6038,728.921,275.99,731.06" style="stroke:#181818;stroke-width:1;"/></g><!--reverse link UC43 to doc--><g class="link" data-entity-1="UC43" data-entity-2="doc" data-source-line="109" data-uid="lnk94" id="link_UC43_doc"><path d="M282.9916,798.4533 C339.2016,807.0133 417.55,818.96 461.32,825.63" fill="none" id="UC43-backto-doc" style="stroke:#181818;stroke-width:1;"/><polygon fill="#181818" points="277.06,797.55,285.3552,802.8594,282.003,798.3028,286.5596,794.9505,277.06,797.55" style="stroke:#181818;stroke-width:1;"/></g><!--reverse link ME44 to UC26--><g class="link" data-entity-1="ME44" data-entity-2="UC26" data-source-line="110" data-uid="lnk95" id="link_ME44_UC26"><path d="M159.0154,313.3773 C158.4421,313.506 162.8656,312.5281 162.2877,312.6606 C159.9757,313.1909 157.6273,313.7528 155.2491,314.3481 C150.4926,315.5387 145.6167,316.8628 140.6737,318.335 C101.13,330.1125 57.295,351.365 36,389.5 C6.56,442.23 80.22,478.21 142.93,498.4" fill="none" id="ME44-backto-UC26" style="stroke:#181818;stroke-width:1;stroke-dasharray:7,7;"/><polygon fill="#181818" points="164.8729,312.0773,155.22,310.1224,159.9917,313.1607,156.9534,317.9323,164.8729,312.0773" style="stroke:#181818;stroke-width:1;"/><text fill="#000000" font-family="sans-serif" font-size="13" lengthAdjust="spacing" textLength="63.0068" x="7" y="402.5669">&#171;include&#187;</text></g><!--reverse link MI45 to UC27--><g class="link" data-entity-1="MI45" data-entity-2="UC27" data-source-line="111" data-uid="lnk96" id="link_MI45_UC27"><path d="M125.3164,850.3241 C124.6726,850.0331 128.5386,851.758 127.8944,851.4616 C125.3174,850.2758 122.7379,849.0463 120.1635,847.7719 C115.0146,845.2229 109.8861,842.4942 104.8391,839.576 C94.7451,833.7396 84.977,827.1452 76.0241,819.7158 C58.1181,804.8569 43.4725,786.6575 36,764.5 C13.95,699.1 94.84,652.25 156.36,626.89" fill="none" id="MI45-backto-UC27" style="stroke:#181818;stroke-width:1;stroke-dasharray:7,7;"/><polygon fill="#181818" points="130.792,852.7771,124.2139,845.4472,126.229,850.7329,120.9432,852.748,130.792,852.7771" style="stroke:#181818;stroke-width:1;"/><text fill="#000000" font-family="sans-serif" font-size="13" lengthAdjust="spacing" textLength="63.0068" x="7" y="760.5669">&#171;include&#187;</text></g><!--link UC38 to UC5--><g class="link" data-entity-1="UC38" data-entity-2="UC5" data-source-line="112" data-uid="lnk97" id="link_UC38_UC5"><path d="M310.71,936.82 C329.58,932.76 347.75,924.98 361,911 C361.16,910.83 377.93,774.23 378,774 C447.6,548.55 556.14,528.86 621,302 C633.75,257.41 608.16,129.5 638,94 C652.82,76.36 669.4431,68.2668 691.8031,63.4768" fill="none" id="UC38-to-UC5" style="stroke:#181818;stroke-width:1;stroke-dasharray:7,7;"/><polygon fill="#181818" points="697.67,62.22,688.0318,60.194,692.7809,63.2673,689.7075,68.0165,697.67,62.22" style="stroke:#181818;stroke-width:1;"/><text fill="#000000" font-family="sans-serif" font-size="13" lengthAdjust="spacing" textLength="63.0068" x="459.5" y="298.0669">&#171;include&#187;</text></g><!--link UC36 to UC1--><g class="link" data-entity-1="UC36" data-entity-2="UC1" data-source-line="113" data-uid="lnk98" id="link_UC36_UC1"><path d="M280.28,1093.75 C389.48,1113.55 614.6163,1154.3693 716.5163,1172.8493" fill="none" id="UC36-to-UC1" style="stroke:#181818;stroke-width:1;stroke-dasharray:7,7;"/><polygon fill="#181818" points="722.42,1173.92,714.2782,1168.3782,717.5002,1173.0278,712.8507,1176.2498,722.42,1173.92" style="stroke:#181818;stroke-width:1;"/><text fill="#000000" font-family="sans-serif" font-size="13" lengthAdjust="spacing" textLength="63.0068" x="459.5" y="1107.0669">&#171;include&#187;</text></g><!--link UC24 to UC20--><g class="link" data-entity-1="UC24" data-entity-2="UC20" data-source-line="114" data-uid="lnk99" id="link_UC24_UC20"><path d="M278.98,996.91 C387.66,970.51 614.4397,915.4068 716.6997,890.5568" fill="none" id="UC24-to-UC20" style="stroke:#181818;stroke-width:1;stroke-dasharray:7,7;"/><polygon fill="#181818" points="722.53,889.14,712.84,887.3783,717.6714,890.3207,714.7291,895.1521,722.53,889.14" style="stroke:#181818;stroke-width:1;"/><text fill="#000000" font-family="sans-serif" font-size="13" lengthAdjust="spacing" textLength="63.0068" x="459.5" y="910.0669">&#171;include&#187;</text></g><!--link UC19 to UC9--><g class="link" data-entity-1="UC19" data-entity-2="UC9" data-source-line="115" data-uid="lnk100" id="link_UC19_UC9"><path d="M286.85,1164.32 C389.06,1181.76 578.58,1220.29 621,1272 C647.61,1304.43 610.76,1428.1 638,1460 C654.66,1479.51 674.8086,1487.7022 699.5886,1491.7522" fill="none" id="UC19-to-UC9" style="stroke:#181818;stroke-width:1;stroke-dasharray:7,7;"/><polygon fill="#181818" points="705.51,1492.72,697.273,1487.3207,700.5755,1491.9135,695.9827,1495.2159,705.51,1492.72" style="stroke:#181818;stroke-width:1;"/><text fill="#000000" font-family="sans-serif" font-size="13" lengthAdjust="spacing" textLength="63.0068" x="459.5" y="1177.0669">&#171;include&#187;</text></g><!--SRC=[ZPNFYjim4CRlVWgHKtj8Y2tRYKi8BDiGzh1GMdfQUj3AMbVKaO9ibq3em_GPzX7oOfMj9FetXzuqV9zcVf96KilUUjHBf7ZpiqSrLupsN8ea8RIN2iq-Iyf4psQ8TAYMD4cEXFuY3KEpvyjxFRGIxHMfvGoT4uI6Zb7IQOqgHjGaVFWuJVt-cBhwRsRKxYvdhingteVpiMTe-O6Bq98dVm2-XuutWlI38X2aLUzfYe3KMYnk6UC2cLOGC-1Rm-3jS13WpXhbFhqAWIVPmgPBWDPFaQOWQc3AGCulYZM3w4at_ygwuy0wFOIeRpvxvii0_9x9Mj8O_UQwMJ88FIwc6oX2kWFRDii29hicwy4n590fXxW0Nm7kwgCKRxpHNKBvvLsWFHDCaJROLtOwIgMhEsOfzgry9QrTkDUh_F0VCrOWqUvq-NjW8a1e9Z2rEn6jCUVargwBJ4qFkBpUfKHGrkfhFUKSoUpTzdg5IgNFbyVvS0gYVsFTk8i1EXUSSg96qQtaTG1bIiKM35RPwtC5ob1vEBPiVD16tKcJuaJdYT8ycIEY9fLsFZ_bnHawHEXbmcl82Toi7CmOFXqLv0hURbn2ozYTx3BGoyDhrwlnJ_bXbhJBytCIzJ60MSIk2785UA2jgM9Vk9IfzHFzqw7vV3jzMtQSEMFiZ7DtGk6CIsUySiPhTqBbLbkwWLjRlxqc6ao8lUYQepQOIozAlIZp8kn5kLSYAxteoj-QQEr5bHjXho3s2cAle7uXtQZmifHUvDNBbovPddaHJiRUsYpKObm2-eGs6oveEzHikqt6ctILLe4q5a6BwGHZfJHA6YbPRfHi6KbfPQJAL_u1]--></g></svg>