<svg xmlns="http://www.w3.org/2000/svg" xmlns:xlink="http://www.w3.org/1999/xlink" contentStyleType="text/css" data-diagram-type="DESCRIPTION" height="523px" preserveAspectRatio="none" style="width:1253px;height:523px;background:#FFFFFF;" version="1.1" viewBox="0 0 1253 523" width="1253px" zoomAndPan="magnify"><defs/><g><!--cluster editarDocente--><g class="cluster" data-entity="editarDocente" data-source-line="9" data-uid="ent0007" id="cluster_editarDocente"><path d="M8.5,106 L134.8438,106 A3.75,3.75 0 0 1 137.3438,108.5 L144.3438,128.2969 L743.5,128.2969 A2.5,2.5 0 0 1 746,130.7969 L746,513.5 A2.5,2.5 0 0 1 743.5,516 L8.5,516 A2.5,2.5 0 0 1 6,513.5 L6,108.5 A2.5,2.5 0 0 1 8.5,106" fill="none" style="stroke:#000000;stroke-width:1.5;"/><line style="stroke:#000000;stroke-width:1.5;" x1="6" x2="144.3438" y1="128.2969" y2="128.2969"/><text fill="#000000" font-family="sans-serif" font-size="14" font-weight="bold" lengthAdjust="spacing" textLength="125.3438" x="10" y="120.9951">editarDocente()</text></g><!--entity EditarDocenteView--><g class="entity" data-entity="EditarDocenteView" data-source-line="10" data-uid="ent0008" id="entity_EditarDocenteView"><rect fill="#629EF9" height="36.2969" rx="2.5" ry="2.5" style="stroke:#181818;stroke-width:0.5;" width="153.6084" x="456" y="141"/><text fill="#000000" font-family="sans-serif" font-size="14" lengthAdjust="spacing" textLength="133.6084" x="466" y="163.9951">EditarDocenteView</text></g><!--entity DocentesController--><g class="entity" data-entity="DocentesController" data-source-line="11" data-uid="ent0009" id="entity_DocentesController"><rect fill="#B5BD68" height="36.2969" rx="2.5" ry="2.5" style="stroke:#181818;stroke-width:0.5;" width="155.0986" x="134.5" y="254"/><text fill="#000000" font-family="sans-serif" font-size="14" lengthAdjust="spacing" textLength="135.0986" x="144.5" y="276.9951">DocentesController</text></g><!--entity DocenteRepository--><g class="entity" data-entity="DocenteRepository" data-source-line="12" data-uid="ent0010" id="entity_DocenteRepository"><rect fill="#F2AC4E" height="36.2969" rx="2.5" ry="2.5" style="stroke:#181818;stroke-width:0.5;" width="153.7041" x="145" y="367"/><text fill="#000000" font-family="sans-serif" font-size="14" lengthAdjust="spacing" textLength="133.7041" x="155" y="389.9951">DocenteRepository</text></g><!--entity Docente--><g class="entity" data-entity="Docente" data-source-line="13" data-uid="ent0011" id="entity_Docente"><rect fill="#F2AC4E" height="36.2969" rx="2.5" ry="2.5" style="stroke:#181818;stroke-width:0.5;" width="78.6318" x="182.5" y="464"/><text fill="#000000" font-family="sans-serif" font-size="14" lengthAdjust="spacing" textLength="58.6318" x="192.5" y="486.9951">Docente</text></g><!--entity DocentesAbierto--><g class="entity" data-entity="DocentesAbierto" data-source-line="3" data-uid="ent0002" id="entity_DocentesAbierto"><rect fill="#CDEBA5" height="36.2969" rx="2.5" ry="2.5" style="stroke:#181818;stroke-width:0.5;" width="145.8701" x="251" y="7"/><text fill="#000000" font-family="sans-serif" font-size="14" lengthAdjust="spacing" textLength="125.8701" x="261" y="29.9951">:Docentes Abierto</text></g><!--entity DocenteAbierto--><g class="entity" data-entity="DocenteAbierto" data-source-line="4" data-uid="ent0003" id="entity_DocenteAbierto"><rect fill="#CDEBA5" height="36.2969" rx="2.5" ry="2.5" style="stroke:#181818;stroke-width:0.5;" width="138.5762" x="463.5" y="7"/><text fill="#000000" font-family="sans-serif" font-size="14" lengthAdjust="spacing" textLength="118.5762" x="473.5" y="29.9951">:Docente Abierto</text></g><!--entity CrearDocente--><g class="entity" data-entity="CrearDocente" data-source-line="5" data-uid="ent0004" id="entity_CrearDocente"><rect fill="#CDEBA5" height="36.2969" rx="2.5" ry="2.5" style="stroke:#181818;stroke-width:0.5;" width="219.582" x="638" y="7"/><text fill="#000000" font-family="sans-serif" font-size="14" lengthAdjust="spacing" textLength="199.582" x="648" y="29.9951">:Collaboration CrearDocente</text></g><!--entity VerDocentes--><g class="entity" data-entity="VerDocentes" data-source-line="6" data-uid="ent0005" id="entity_VerDocentes"><rect fill="#CDEBA5" height="36.2969" rx="2.5" ry="2.5" style="stroke:#181818;stroke-width:0.5;" width="211.0508" x="762.5" y="254"/><text fill="#000000" font-family="sans-serif" font-size="14" lengthAdjust="spacing" textLength="191.0508" x="772.5" y="276.9951">:Collaboration verDocentes</text></g><!--entity EliminarDocente--><g class="entity" data-entity="EliminarDocente" data-source-line="7" data-uid="ent0006" id="entity_EliminarDocente"><rect fill="#CDEBA5" height="36.2969" rx="2.5" ry="2.5" style="stroke:#181818;stroke-width:0.5;" width="238.2305" x="1009" y="254"/><text fill="#000000" font-family="sans-serif" font-size="14" lengthAdjust="spacing" textLength="218.2305" x="1019" y="276.9951">:Collaboration eliminarDocente</text></g><!--link CrearDocente to EditarDocenteView--><g class="link" data-entity-1="CrearDocente" data-entity-2="EditarDocenteView" data-source-line="16" data-uid="lnk12" id="link_CrearDocente_EditarDocenteView"><path d="M737.55,43.15 C726,62.11 709,90 709,90 C709,90 635.147,118.5381 583.007,138.6781" fill="none" id="CrearDocente-to-EditarDocenteView" style="stroke:#181818;stroke-width:1;"/><polygon fill="#181818" points="577.41,140.84,587.2467,141.3284,582.0741,139.0384,584.3642,133.8658,577.41,140.84" style="stroke:#181818;stroke-width:1;"/><text fill="#000000" font-family="sans-serif" font-size="13" lengthAdjust="spacing" textLength="167.6289" x="719" y="86.0669">editarDocente(docenteId)</text></g><!--link DocentesAbierto to EditarDocenteView--><g class="link" data-entity-1="DocentesAbierto" data-entity-2="EditarDocenteView" data-source-line="17" data-uid="lnk13" id="link_DocentesAbierto_EditarDocenteView"><path d="M332.58,43.15 C342.05,62.11 356,90 356,90 C356,90 430.2989,118.5488 482.7389,138.6888" fill="none" id="DocentesAbierto-to-EditarDocenteView" style="stroke:#181818;stroke-width:1;"/><polygon fill="#181818" points="488.34,140.84,481.3724,133.8792,483.6724,139.0474,478.5042,141.3473,488.34,140.84" style="stroke:#181818;stroke-width:1;"/><text fill="#000000" font-family="sans-serif" font-size="13" lengthAdjust="spacing" textLength="167.6289" x="357" y="86.0669">editarDocente(docenteId)</text></g><!--link DocenteAbierto to EditarDocenteView--><g class="link" data-entity-1="DocenteAbierto" data-entity-2="EditarDocenteView" data-source-line="18" data-uid="lnk14" id="link_DocenteAbierto_EditarDocenteView"><path d="M533,43.26 C533,68.55 533,109.44 533,134.74" fill="none" id="DocenteAbierto-to-EditarDocenteView" style="stroke:#181818;stroke-width:1;"/><polygon fill="#181818" points="533,140.74,537,131.74,533,135.74,529,131.74,533,140.74" style="stroke:#181818;stroke-width:1;"/><text fill="#000000" font-family="sans-serif" font-size="13" lengthAdjust="spacing" textLength="167.6289" x="534" y="86.0669">editarDocente(docenteId)</text></g><!--link EditarDocenteView to DocentesController--><g class="link" data-entity-1="EditarDocenteView" data-entity-2="DocentesController" data-source-line="20" data-uid="lnk15" id="link_EditarDocenteView_DocentesController"><path d="M455.77,167.58 C320.29,180.87 54,207 54,207 C54,207 54,224 54,224 C54,224 103.5892,238.7489 148.7592,252.1889" fill="none" id="EditarDocenteView-to-DocentesController" style="stroke:#181818;stroke-width:1;"/><polygon fill="#181818" points="154.51,253.9,147.0245,247.4994,149.7176,252.4741,144.743,255.1672,154.51,253.9" style="stroke:#181818;stroke-width:1;"/><text fill="#000000" font-family="sans-serif" font-size="13" lengthAdjust="spacing" textLength="314.6152" x="55" y="220.0669">cargarDocenteParaEdici&#243;n(docenteId) : Docente</text></g><!--link EditarDocenteView to DocentesController--><g class="link" data-entity-1="EditarDocenteView" data-entity-2="DocentesController" data-source-line="24" data-uid="lnk17" id="link_EditarDocenteView_DocentesController"><path d="M490.39,177.15 C443.29,196.11 374,224 374,224 C374,224 323.0223,238.788 276.7023,252.228" fill="none" id="EditarDocenteView-to-DocentesController-1" style="stroke:#181818;stroke-width:1;"/><polygon fill="#181818" points="270.94,253.9,280.6982,255.2336,275.7419,252.5067,278.4689,247.5505,270.94,253.9" style="stroke:#181818;stroke-width:1;"/><text fill="#000000" font-family="sans-serif" font-size="13" lengthAdjust="spacing" textLength="315.98" x="414" y="220.0669">modificarCampos(docenteId, cambios) : boolean</text></g><!--link DocentesController to DocenteRepository--><g class="link" data-entity-1="DocentesController" data-entity-2="DocenteRepository" data-source-line="22" data-uid="lnk16" id="link_DocentesController_DocenteRepository"><path d="M162.15,290.1 C122.98,303.54 75,320 75,320 C75,320 75,337 75,337 C75,337 120.7651,351.6325 162.7951,365.0725" fill="none" id="DocentesController-to-DocenteRepository" style="stroke:#181818;stroke-width:1;"/><polygon fill="#181818" points="168.51,366.9,161.1559,360.3488,163.7476,365.3771,158.7193,367.9687,168.51,366.9" style="stroke:#181818;stroke-width:1;"/><text fill="#000000" font-family="sans-serif" font-size="13" lengthAdjust="spacing" textLength="226.1099" x="76" y="333.0669">obtenerPorId(docenteId) : Docente</text></g><!--link DocentesController to DocenteRepository--><g class="link" data-entity-1="DocentesController" data-entity-2="DocenteRepository" data-source-line="26" data-uid="lnk18" id="link_DocentesController_DocenteRepository"><path d="M246.57,290.1 C273.73,303.54 307,320 307,320 C307,320 307,337 307,337 C307,337 282.6802,350.4457 258.4202,363.8657" fill="none" id="DocentesController-to-DocenteRepository-1" style="stroke:#181818;stroke-width:1;"/><polygon fill="#181818" points="253.17,366.77,262.9816,365.9137,257.5452,364.3498,259.1092,358.9134,253.17,366.77" style="stroke:#181818;stroke-width:1;"/><text fill="#000000" font-family="sans-serif" font-size="13" lengthAdjust="spacing" textLength="191.2231" x="308" y="333.0669">actualizar(docente) : boolean</text></g><!--link DocenteRepository to Docente--><g class="link" data-entity-1="DocenteRepository" data-entity-2="Docente" data-source-line="28" data-uid="lnk19" id="link_DocenteRepository_Docente"><path d="M222,403.42 C222,420.57 222,446.58 222,463.69" fill="none" id="DocenteRepository-Docente" style="stroke:#181818;stroke-width:1;"/></g><!--link EditarDocenteView to VerDocentes--><g class="link" data-entity-1="EditarDocenteView" data-entity-2="VerDocentes" data-source-line="30" data-uid="lnk20" id="link_EditarDocenteView_VerDocentes"><path d="M607.3,177.03 C665.97,190.49 738,207 738,207 C738,207 789.267,232.2398 827.777,251.1998" fill="none" id="EditarDocenteView-to-VerDocentes" style="stroke:#181818;stroke-width:1;stroke-dasharray:7,7;"/><polygon fill="#181818" points="833.16,253.85,826.8524,246.286,828.6742,251.6415,823.3187,253.4633,833.16,253.85" style="stroke:#181818;stroke-width:1;"/><text fill="#000000" font-family="sans-serif" font-size="13" lengthAdjust="spacing" textLength="159.5356" x="770" y="220.0669">&#171;include&#187; verDocentes()</text></g><!--link EditarDocenteView to EliminarDocente--><g class="link" data-entity-1="EditarDocenteView" data-entity-2="EliminarDocente" data-source-line="31" data-uid="lnk21" id="link_EditarDocenteView_EliminarDocente"><path d="M610.13,168.95 C727.64,182.59 938,207 938,207 C938,207 1015.114,232.9745 1071.394,251.9345" fill="none" id="EditarDocenteView-to-EliminarDocente" style="stroke:#181818;stroke-width:1;stroke-dasharray:7,7;"/><polygon fill="#181818" points="1077.08,253.85,1069.828,247.186,1072.3417,252.2537,1067.274,254.7674,1077.08,253.85" style="stroke:#181818;stroke-width:1;"/><text fill="#000000" font-family="sans-serif" font-size="13" lengthAdjust="spacing" textLength="184.7739" x="984" y="220.0669">&#171;include&#187; eliminarDocente()</text></g><!--SRC=[dPFDQi9058NtynINT9D0TI5LQf20ZH7SIHVk9vch34vcmcHiiQLFrKVeYtMq9kP7WpMRaCFvpfovvEPRBZEgQGg2IpJx325JOd_u84HZOgZS28I7S1QzJ8VW-3ELe3IOmpJcg8roWEPGY2Uj2xp4TM6X4eB6IbF3bOHG8zKdwfXG5MxWtx0mvqTyTVw-WKR1Koxh1QAwHaX6aotT823ZffGFJgUck9u3dmJiKpbtD1X7yp54LUEAutlJ5mzZDdeknnugQRHjYhffd0-cuLDK65ynKpatIk-xVUIBaEfWeTSBsgNy-XLTzlTUC8yq_eTx-NjnqZ93ZzcCzhnyIAZUbDQbtGJB9lpdMrO2mIydGzePntgj2VkWOeCIzLBf1RiITg7dbPgfOdpDRTcGflQ8SzwZlK4QSvKVWcEb15BvdvOqCJig-0VLHUQbe3DXSxhwz_j1TQbyc4ouJCIEOH1Kjy_rhi2DVQe7D1RGzNu1]--></g></svg>