<?plantuml 1.2026.2?><svg xmlns="http://www.w3.org/2000/svg" xmlns:xlink="http://www.w3.org/1999/xlink" contentStyleType="text/css" data-diagram-type="SEQUENCE" height="1418px" preserveAspectRatio="none" style="width:2297px;height:1418px;background:#FFFFFF;" version="1.1" viewBox="0 0 2297 1418" width="2297px" zoomAndPan="magnify"><title>Diagrama de Secuencia - Eliminar Pregunta (Spring Boot + React)</title><defs/><g><text fill="#000000" font-family="sans-serif" font-size="14" font-weight="bold" lengthAdjust="spacing" textLength="520.5771" x="889.3469" y="27.9951">Diagrama de Secuencia - Eliminar Pregunta (Spring Boot + React)</text><g><title>Frontend .React.</title><rect fill="#FFFFFF" height="1073.3906" style="stroke:#181818;stroke-width:1;" width="10" x="572.5718" y="149.7266"/></g><g><title>PreguntasController</title><rect fill="#FFFFFF" height="270.1953" style="stroke:#181818;stroke-width:1;" width="10" x="869.4492" y="282.5234"/></g><g><title>PreguntaService</title><rect fill="#FFFFFF" height="746.9297" style="stroke:#181818;stroke-width:1;" width="10" x="1165.127" y="353.7891"/></g><g><title>RespuestaService</title><rect fill="#FFFFFF" height="145.6641" style="stroke:#181818;stroke-width:1;" width="10" x="1483.8086" y="809.3906"/></g><g><title>PreguntaRepository</title><rect fill="#FFFFFF" height="87.3984" style="stroke:#181818;stroke-width:1;" width="10" x="1639.6567" y="382.9219"/></g><g><title>PreguntaRepository</title><rect fill="#FFFFFF" height="87.3984" style="stroke:#181818;stroke-width:1;" width="10" x="1639.6567" y="984.1875"/></g><g><title>RespuestaRepository</title><rect fill="#FFFFFF" height="87.3984" style="stroke:#181818;stroke-width:1;" width="10" x="1807.1704" y="838.5234"/></g><g><title>Base de Datos .PostgreSQL.</title><rect fill="#FFFFFF" height="29.1328" style="stroke:#181818;stroke-width:1;" width="10" x="2163.6079" y="412.0547"/></g><g><title>Base de Datos .PostgreSQL.</title><rect fill="#FFFFFF" height="29.1328" style="stroke:#181818;stroke-width:1;" width="10" x="2163.6079" y="867.6563"/></g><g><title>Base de Datos .PostgreSQL.</title><rect fill="#FFFFFF" height="29.1328" style="stroke:#181818;stroke-width:1;" width="10" x="2163.6079" y="1013.3203"/></g><rect fill="none" height="730.7969" style="stroke:#000000;stroke-width:1.5;" width="2280.271" x="10" y="485.3203"/><rect fill="none" height="540.1953" style="stroke:#000000;stroke-width:1.5;" width="2260.271" x="20" y="668.9219"/><rect fill="none" height="90.5313" style="stroke:#000000;stroke-width:1.5;" width="633.8667" x="20" y="1230.1172"/><g class="participant-lifeline" data-entity-uid="part1" data-qualified-name="Teacher" id="part1-lifeline"><g><title>Docente</title><rect fill="#000000" fill-opacity="0.00000" height="1219.0547" width="8" x="58.3159" y="118.5938"/><line style="stroke:#181818;stroke-width:0.5;stroke-dasharray:5,5;" x1="62" x2="62" y1="118.5938" y2="1337.6484"/></g></g><g class="participant-lifeline" data-entity-uid="part2" data-qualified-name="FE" id="part2-lifeline"><g><title>Frontend .React.</title><rect fill="#000000" fill-opacity="0.00000" height="1219.0547" width="8" x="573.5718" y="118.5938"/><line style="stroke:#181818;stroke-width:0.5;stroke-dasharray:5,5;" x1="577.2769" x2="577.2769" y1="118.5938" y2="1337.6484"/></g></g><g class="participant-lifeline" data-entity-uid="part3" data-qualified-name="Controller" id="part3-lifeline"><g><title>PreguntasController</title><rect fill="#000000" fill-opacity="0.00000" height="1219.0547" width="8" x="870.4492" y="118.5938"/><line style="stroke:#181818;stroke-width:0.5;stroke-dasharray:5,5;" x1="873.4595" x2="873.4595" y1="118.5938" y2="1337.6484"/></g></g><g class="participant-lifeline" data-entity-uid="part4" data-qualified-name="Service" id="part4-lifeline"><g><title>PreguntaService</title><rect fill="#000000" fill-opacity="0.00000" height="1219.0547" width="8" x="1166.127" y="118.5938"/><line style="stroke:#181818;stroke-width:0.5;stroke-dasharray:5,5;" x1="1169.5" x2="1169.5" y1="118.5938" y2="1337.6484"/></g></g><g class="participant-lifeline" data-entity-uid="part5" data-qualified-name="RespuestaService" id="part5-lifeline"><g><title>RespuestaService</title><rect fill="#000000" fill-opacity="0.00000" height="1219.0547" width="8" x="1484.8086" y="118.5938"/><line style="stroke:#181818;stroke-width:0.5;stroke-dasharray:5,5;" x1="1488.2529" x2="1488.2529" y1="118.5938" y2="1337.6484"/></g></g><g class="participant-lifeline" data-entity-uid="part6" data-qualified-name="PreguntaRepo" id="part6-lifeline"><g><title>PreguntaRepository</title><rect fill="#000000" fill-opacity="0.00000" height="1219.0547" width="8" x="1640.6567" y="118.5938"/><line style="stroke:#181818;stroke-width:0.5;stroke-dasharray:5,5;" x1="1644.3643" x2="1644.3643" y1="118.5938" y2="1337.6484"/></g></g><g class="participant-lifeline" data-entity-uid="part7" data-qualified-name="RespuestaRepo" id="part7-lifeline"><g><title>RespuestaRepository</title><rect fill="#000000" fill-opacity="0.00000" height="1219.0547" width="8" x="1808.1704" y="118.5938"/><line style="stroke:#181818;stroke-width:0.5;stroke-dasharray:5,5;" x1="1811.9492" x2="1811.9492" y1="118.5938" y2="1337.6484"/></g></g><g class="participant-lifeline" data-entity-uid="part8" data-qualified-name="DB" id="part8-lifeline"><g><title>Base de Datos .PostgreSQL.</title><rect fill="#000000" fill-opacity="0.00000" height="1219.0547" width="8" x="2164.6079" y="118.5938"/><line style="stroke:#181818;stroke-width:0.5;stroke-dasharray:5,5;" x1="2167.9448" x2="2167.9448" y1="118.5938" y2="1337.6484"/></g></g><g class="participant participant-head" data-entity-uid="part1" data-qualified-name="Teacher" id="part1-head"><text fill="#000000" font-family="sans-serif" font-size="14" lengthAdjust="spacing" textLength="58.6318" x="30" y="115.292">Docente</text><ellipse cx="62.3159" cy="50.7969" fill="#E2E2F0" rx="8" ry="8" style="stroke:#181818;stroke-width:0.5;"/><path d="M62.3159,58.7969 L62.3159,85.7969 M49.3159,66.7969 L75.3159,66.7969 M62.3159,85.7969 L49.3159,100.7969 M62.3159,85.7969 L75.3159,100.7969" fill="none" style="stroke:#181818;stroke-width:0.5;"/></g><g class="participant participant-tail" data-entity-uid="part1" data-qualified-name="Teacher" id="part1-tail"><text fill="#000000" font-family="sans-serif" font-size="14" lengthAdjust="spacing" textLength="58.6318" x="30" y="1349.6436">Docente</text><ellipse cx="62.3159" cy="1361.4453" fill="#E2E2F0" rx="8" ry="8" style="stroke:#181818;stroke-width:0.5;"/><path d="M62.3159,1369.4453 L62.3159,1396.4453 M49.3159,1377.4453 L75.3159,1377.4453 M62.3159,1396.4453 L49.3159,1411.4453 M62.3159,1396.4453 L75.3159,1411.4453" fill="none" style="stroke:#181818;stroke-width:0.5;"/></g><g class="participant participant-head" data-entity-uid="part2" data-qualified-name="FE" id="part2-head"><rect fill="#E2E2F0" height="30.2969" rx="2.5" ry="2.5" style="stroke:#181818;stroke-width:0.5;" width="132.5898" x="511.2769" y="87.2969"/><text fill="#000000" font-family="sans-serif" font-size="14" lengthAdjust="spacing" textLength="118.5898" x="518.2769" y="107.292">Frontend (React)</text></g><g class="participant participant-tail" data-entity-uid="part2" data-qualified-name="FE" id="part2-tail"><rect fill="#E2E2F0" height="30.2969" rx="2.5" ry="2.5" style="stroke:#181818;stroke-width:0.5;" width="132.5898" x="511.2769" y="1336.6484"/><text fill="#000000" font-family="sans-serif" font-size="14" lengthAdjust="spacing" textLength="118.5898" x="518.2769" y="1356.6436">Frontend (React)</text></g><g class="participant participant-head" data-entity-uid="part3" data-qualified-name="Controller" id="part3-head"><rect fill="#E2E2F0" height="30.2969" rx="2.5" ry="2.5" style="stroke:#181818;stroke-width:0.5;" width="153.9795" x="797.4595" y="87.2969"/><text fill="#000000" font-family="sans-serif" font-size="14" lengthAdjust="spacing" textLength="139.9795" x="804.4595" y="107.292">PreguntasController</text></g><g class="participant participant-tail" data-entity-uid="part3" data-qualified-name="Controller" id="part3-tail"><rect fill="#E2E2F0" height="30.2969" rx="2.5" ry="2.5" style="stroke:#181818;stroke-width:0.5;" width="153.9795" x="797.4595" y="1336.6484"/><text fill="#000000" font-family="sans-serif" font-size="14" lengthAdjust="spacing" textLength="139.9795" x="804.4595" y="1356.6436">PreguntasController</text></g><g class="participant participant-head" data-entity-uid="part4" data-qualified-name="Service" id="part4-head"><rect fill="#E2E2F0" height="30.2969" rx="2.5" ry="2.5" style="stroke:#181818;stroke-width:0.5;" width="129.2539" x="1105.5" y="87.2969"/><text fill="#000000" font-family="sans-serif" font-size="14" lengthAdjust="spacing" textLength="115.2539" x="1112.5" y="107.292">PreguntaService</text></g><g class="participant participant-tail" data-entity-uid="part4" data-qualified-name="Service" id="part4-tail"><rect fill="#E2E2F0" height="30.2969" rx="2.5" ry="2.5" style="stroke:#181818;stroke-width:0.5;" width="129.2539" x="1105.5" y="1336.6484"/><text fill="#000000" font-family="sans-serif" font-size="14" lengthAdjust="spacing" textLength="115.2539" x="1112.5" y="1356.6436">PreguntaService</text></g><g class="participant participant-head" data-entity-uid="part5" data-qualified-name="RespuestaService" id="part5-head"><rect fill="#E2E2F0" height="30.2969" rx="2.5" ry="2.5" style="stroke:#181818;stroke-width:0.5;" width="139.1113" x="1419.2529" y="87.2969"/><text fill="#000000" font-family="sans-serif" font-size="14" lengthAdjust="spacing" textLength="125.1113" x="1426.2529" y="107.292">RespuestaService</text></g><g class="participant participant-tail" data-entity-uid="part5" data-qualified-name="RespuestaService" id="part5-tail"><rect fill="#E2E2F0" height="30.2969" rx="2.5" ry="2.5" style="stroke:#181818;stroke-width:0.5;" width="139.1113" x="1419.2529" y="1336.6484"/><text fill="#000000" font-family="sans-serif" font-size="14" lengthAdjust="spacing" textLength="125.1113" x="1426.2529" y="1356.6436">RespuestaService</text></g><g class="participant participant-head" data-entity-uid="part6" data-qualified-name="PreguntaRepo" id="part6-head"><rect fill="#E2E2F0" height="30.2969" rx="2.5" ry="2.5" style="stroke:#181818;stroke-width:0.5;" width="152.585" x="1568.3643" y="87.2969"/><text fill="#000000" font-family="sans-serif" font-size="14" lengthAdjust="spacing" textLength="138.585" x="1575.3643" y="107.292">PreguntaRepository</text></g><g class="participant participant-tail" data-entity-uid="part6" data-qualified-name="PreguntaRepo" id="part6-tail"><rect fill="#E2E2F0" height="30.2969" rx="2.5" ry="2.5" style="stroke:#181818;stroke-width:0.5;" width="152.585" x="1568.3643" y="1336.6484"/><text fill="#000000" font-family="sans-serif" font-size="14" lengthAdjust="spacing" textLength="138.585" x="1575.3643" y="1356.6436">PreguntaRepository</text></g><g class="participant participant-head" data-entity-uid="part7" data-qualified-name="RespuestaRepo" id="part7-head"><rect fill="#E2E2F0" height="30.2969" rx="2.5" ry="2.5" style="stroke:#181818;stroke-width:0.5;" width="162.4424" x="1730.9492" y="87.2969"/><text fill="#000000" font-family="sans-serif" font-size="14" lengthAdjust="spacing" textLength="148.4424" x="1737.9492" y="107.292">RespuestaRepository</text></g><g class="participant participant-tail" data-entity-uid="part7" data-qualified-name="RespuestaRepo" id="part7-tail"><rect fill="#E2E2F0" height="30.2969" rx="2.5" ry="2.5" style="stroke:#181818;stroke-width:0.5;" width="162.4424" x="1730.9492" y="1336.6484"/><text fill="#000000" font-family="sans-serif" font-size="14" lengthAdjust="spacing" textLength="148.4424" x="1737.9492" y="1356.6436">RespuestaRepository</text></g><g class="participant participant-head" data-entity-uid="part8" data-qualified-name="DB" id="part8-head"><text fill="#000000" font-family="sans-serif" font-size="14" lengthAdjust="spacing" textLength="197.3262" x="2066.9448" y="115.292">Base de Datos (PostgreSQL)</text><path d="M2150.6079,66.2969 C2150.6079,56.2969 2168.6079,56.2969 2168.6079,56.2969 C2168.6079,56.2969 2186.6079,56.2969 2186.6079,66.2969 L2186.6079,92.2969 C2186.6079,102.2969 2168.6079,102.2969 2168.6079,102.2969 C2168.6079,102.2969 2150.6079,102.2969 2150.6079,92.2969 L2150.6079,66.2969" fill="#E2E2F0" style="stroke:#181818;stroke-width:0.5;"/><path d="M2150.6079,66.2969 C2150.6079,76.2969 2168.6079,76.2969 2168.6079,76.2969 C2168.6079,76.2969 2186.6079,76.2969 2186.6079,66.2969" fill="none" style="stroke:#181818;stroke-width:0.5;"/></g><g class="participant participant-tail" data-entity-uid="part8" data-qualified-name="DB" id="part8-tail"><text fill="#000000" font-family="sans-serif" font-size="14" lengthAdjust="spacing" textLength="197.3262" x="2066.9448" y="1349.6436">Base de Datos (PostgreSQL)</text><path d="M2150.6079,1362.9453 C2150.6079,1352.9453 2168.6079,1352.9453 2168.6079,1352.9453 C2168.6079,1352.9453 2186.6079,1352.9453 2186.6079,1362.9453 L2186.6079,1388.9453 C2186.6079,1398.9453 2168.6079,1398.9453 2168.6079,1398.9453 C2168.6079,1398.9453 2150.6079,1398.9453 2150.6079,1388.9453 L2150.6079,1362.9453" fill="#E2E2F0" style="stroke:#181818;stroke-width:0.5;"/><path d="M2150.6079,1362.9453 C2150.6079,1372.9453 2168.6079,1372.9453 2168.6079,1372.9453 C2168.6079,1372.9453 2186.6079,1372.9453 2186.6079,1362.9453" fill="none" style="stroke:#181818;stroke-width:0.5;"/></g><g><title>Frontend .React.</title><rect fill="#FFFFFF" height="1073.3906" style="stroke:#181818;stroke-width:1;" width="10" x="572.5718" y="149.7266"/></g><g><title>PreguntasController</title><rect fill="#FFFFFF" height="270.1953" style="stroke:#181818;stroke-width:1;" width="10" x="869.4492" y="282.5234"/></g><g><title>PreguntaService</title><rect fill="#FFFFFF" height="746.9297" style="stroke:#181818;stroke-width:1;" width="10" x="1165.127" y="353.7891"/></g><g><title>RespuestaService</title><rect fill="#FFFFFF" height="145.6641" style="stroke:#181818;stroke-width:1;" width="10" x="1483.8086" y="809.3906"/></g><g><title>PreguntaRepository</title><rect fill="#FFFFFF" height="87.3984" style="stroke:#181818;stroke-width:1;" width="10" x="1639.6567" y="382.9219"/></g><g><title>PreguntaRepository</title><rect fill="#FFFFFF" height="87.3984" style="stroke:#181818;stroke-width:1;" width="10" x="1639.6567" y="984.1875"/></g><g><title>RespuestaRepository</title><rect fill="#FFFFFF" height="87.3984" style="stroke:#181818;stroke-width:1;" width="10" x="1807.1704" y="838.5234"/></g><g><title>Base de Datos .PostgreSQL.</title><rect fill="#FFFFFF" height="29.1328" style="stroke:#181818;stroke-width:1;" width="10" x="2163.6079" y="412.0547"/></g><g><title>Base de Datos .PostgreSQL.</title><rect fill="#FFFFFF" height="29.1328" style="stroke:#181818;stroke-width:1;" width="10" x="2163.6079" y="867.6563"/></g><g><title>Base de Datos .PostgreSQL.</title><rect fill="#FFFFFF" height="29.1328" style="stroke:#181818;stroke-width:1;" width="10" x="2163.6079" y="1013.3203"/></g><g class="message" data-entity-1="part1" data-entity-2="part2" id="msg1"><polygon fill="#181818" points="560.5718,145.7266,570.5718,149.7266,560.5718,153.7266,564.5718,149.7266" style="stroke:#181818;stroke-width:1;"/><line style="stroke:#181818;stroke-width:1;" x1="62.3159" x2="566.5718" y1="149.7266" y2="149.7266"/><text fill="#000000" font-family="sans-serif" font-size="13" lengthAdjust="spacing" textLength="198.9229" x="69.3159" y="144.6606">Clic en "Eliminar" (preguntaId)</text></g><g class="message" data-entity-1="part2" data-entity-2="part1" id="msg2"><polygon fill="#181818" points="73.3159,205.125,63.3159,209.125,73.3159,213.125,69.3159,209.125" style="stroke:#181818;stroke-width:1;"/><line style="stroke:#181818;stroke-width:1;stroke-dasharray:2,2;" x1="67.3159" x2="571.5718" y1="209.125" y2="209.125"/><text fill="#000000" font-family="sans-serif" font-size="13" lengthAdjust="spacing" textLength="203.728" x="79.3159" y="173.7935">Mostrar Modal de Confirmaci&#243;n</text><text fill="#000000" font-family="sans-serif" font-size="13" lengthAdjust="spacing" textLength="331.6396" x="79.3159" y="188.9263">(datos de la pregunta: enunciado, tema, dificultad,</text><text fill="#000000" font-family="sans-serif" font-size="13" lengthAdjust="spacing" textLength="337.27" x="79.3159" y="204.0591">respuestas asociadas y advertencia de eliminaci&#243;n)</text></g><g class="message" data-entity-1="part1" data-entity-2="part2" id="msg3"><polygon fill="#181818" points="560.5718,234.2578,570.5718,238.2578,560.5718,242.2578,564.5718,238.2578" style="stroke:#181818;stroke-width:1;"/><line style="stroke:#181818;stroke-width:1;" x1="62.3159" x2="566.5718" y1="238.2578" y2="238.2578"/><text fill="#000000" font-family="sans-serif" font-size="13" lengthAdjust="spacing" textLength="138.2202" x="69.3159" y="233.1919">Confirma eliminaci&#243;n</text></g><g class="message" data-entity-1="part2" data-entity-2="part3" id="msg4"><polygon fill="#181818" points="857.4492,278.5234,867.4492,282.5234,857.4492,286.5234,861.4492,282.5234" style="stroke:#181818;stroke-width:1;"/><line style="stroke:#181818;stroke-width:1;" x1="582.5718" x2="863.4492" y1="282.5234" y2="282.5234"/><text fill="#000000" font-family="sans-serif" font-size="13" lengthAdjust="spacing" textLength="241.1157" x="589.5718" y="262.3247">DELETE /api/preguntas/{preguntaId}</text><text fill="#000000" font-family="sans-serif" font-size="13" lengthAdjust="spacing" textLength="267.8774" x="589.5718" y="277.4575">(Header: Authorization: Bearer &lt;token&gt;)</text></g><g class="message" data-entity-1="part3" data-entity-2="part3" id="msg5"><line style="stroke:#181818;stroke-width:1;" x1="879.4492" x2="921.4492" y1="311.6563" y2="311.6563"/><line style="stroke:#181818;stroke-width:1;" x1="921.4492" x2="921.4492" y1="311.6563" y2="324.6563"/><line style="stroke:#181818;stroke-width:1;" x1="880.4492" x2="921.4492" y1="324.6563" y2="324.6563"/><polygon fill="#181818" points="890.4492,320.6563,880.4492,324.6563,890.4492,328.6563,886.4492,324.6563" style="stroke:#181818;stroke-width:1;"/><text fill="#000000" font-family="sans-serif" font-size="13" lengthAdjust="spacing" textLength="169.1016" x="886.4492" y="306.5903">extraer docenteId del JWT</text></g><g class="message" data-entity-1="part3" data-entity-2="part4" id="msg6"><polygon fill="#181818" points="1153.127,349.7891,1163.127,353.7891,1153.127,357.7891,1157.127,353.7891" style="stroke:#181818;stroke-width:1;"/><line style="stroke:#181818;stroke-width:1;" x1="879.4492" x2="1159.127" y1="353.7891" y2="353.7891"/><text fill="#000000" font-family="sans-serif" font-size="13" lengthAdjust="spacing" textLength="266.6777" x="886.4492" y="348.7231">eliminarPregunta(preguntaId, docenteId)</text></g><g class="message" data-entity-1="part4" data-entity-2="part6" id="msg7"><polygon fill="#181818" points="1627.6567,378.9219,1637.6567,382.9219,1627.6567,386.9219,1631.6567,382.9219" style="stroke:#181818;stroke-width:1;"/><line style="stroke:#181818;stroke-width:1;" x1="1175.127" x2="1633.6567" y1="382.9219" y2="382.9219"/><text fill="#000000" font-family="sans-serif" font-size="13" lengthAdjust="spacing" textLength="134.9956" x="1182.127" y="377.856">findById(preguntaId)</text></g><g class="message" data-entity-1="part6" data-entity-2="part8" id="msg8"><polygon fill="#181818" points="2151.6079,408.0547,2161.6079,412.0547,2151.6079,416.0547,2155.6079,412.0547" style="stroke:#181818;stroke-width:1;"/><line style="stroke:#181818;stroke-width:1;" x1="1649.6567" x2="2157.6079" y1="412.0547" y2="412.0547"/><text fill="#000000" font-family="sans-serif" font-size="13" lengthAdjust="spacing" textLength="266.2334" x="1656.6567" y="406.9888">SELECT * FROM preguntas WHERE id = ?</text></g><g class="message" data-entity-1="part8" data-entity-2="part6" id="msg9"><polygon fill="#181818" points="1660.6567,437.1875,1650.6567,441.1875,1660.6567,445.1875,1656.6567,441.1875" style="stroke:#181818;stroke-width:1;"/><line style="stroke:#181818;stroke-width:1;stroke-dasharray:2,2;" x1="1654.6567" x2="2167.6079" y1="441.1875" y2="441.1875"/><text fill="#000000" font-family="sans-serif" font-size="13" lengthAdjust="spacing" textLength="135.7256" x="1666.6567" y="436.1216">Optional&lt;Pregunta&gt;</text></g><g class="message" data-entity-1="part6" data-entity-2="part4" id="msg10"><polygon fill="#181818" points="1186.127,466.3203,1176.127,470.3203,1186.127,474.3203,1182.127,470.3203" style="stroke:#181818;stroke-width:1;"/><line style="stroke:#181818;stroke-width:1;stroke-dasharray:2,2;" x1="1180.127" x2="1643.6567" y1="470.3203" y2="470.3203"/><text fill="#000000" font-family="sans-serif" font-size="13" lengthAdjust="spacing" textLength="135.7256" x="1192.127" y="465.2544">Optional&lt;Pregunta&gt;</text></g><path d="M10,485.3203 L74.4429,485.3203 L74.4429,492.4531 L64.4429,502.4531 L10,502.4531 L10,485.3203" fill="#EEEEEE" style="stroke:#000000;stroke-width:1.5;"/><rect fill="none" height="730.7969" style="stroke:#000000;stroke-width:1.5;" width="2280.271" x="10" y="485.3203"/><text fill="#000000" font-family="sans-serif" font-size="13" font-weight="bold" lengthAdjust="spacing" textLength="19.4429" x="25" y="498.3872">alt</text><text fill="#000000" font-family="sans-serif" font-size="11" font-weight="bold" lengthAdjust="spacing" textLength="129.2876" x="89.4429" y="497.5308">[Pregunta No Existe]</text><g class="message" data-entity-1="part4" data-entity-2="part3" id="msg11"><polygon fill="#181818" points="890.4492,519.5859,880.4492,523.5859,890.4492,527.5859,886.4492,523.5859" style="stroke:#181818;stroke-width:1;"/><line style="stroke:#181818;stroke-width:1;stroke-dasharray:2,2;" x1="884.4492" x2="1164.127" y1="523.5859" y2="523.5859"/><text fill="#000000" font-family="sans-serif" font-size="13" lengthAdjust="spacing" textLength="216.6392" x="896.4492" y="518.52">throw EntityNotFoundException()</text></g><g class="message" data-entity-1="part3" data-entity-2="part2" id="msg12"><polygon fill="#181818" points="593.5718,548.7188,583.5718,552.7188,593.5718,556.7188,589.5718,552.7188" style="stroke:#181818;stroke-width:1;"/><line style="stroke:#181818;stroke-width:1;stroke-dasharray:2,2;" x1="587.5718" x2="873.4492" y1="552.7188" y2="552.7188"/><text fill="#000000" font-family="sans-serif" font-size="13" lengthAdjust="spacing" textLength="96.0146" x="599.5718" y="547.6528">404 Not Found</text></g><g class="message" data-entity-1="part2" data-entity-2="part1" id="msg13"><polygon fill="#181818" points="73.3159,577.8516,63.3159,581.8516,73.3159,585.8516,69.3159,581.8516" style="stroke:#181818;stroke-width:1;"/><line style="stroke:#181818;stroke-width:1;stroke-dasharray:2,2;" x1="67.3159" x2="571.5718" y1="581.8516" y2="581.8516"/><text fill="#000000" font-family="sans-serif" font-size="13" lengthAdjust="spacing" textLength="339.3076" x="79.3159" y="576.7856">Mostrar mensaje de error "Pregunta no encontrada"</text></g><line style="stroke:#000000;stroke-width:1;stroke-dasharray:2,2;" x1="10" x2="2290.271" y1="590.8516" y2="590.8516"/><text fill="#000000" font-family="sans-serif" font-size="11" font-weight="bold" lengthAdjust="spacing" textLength="108.6948" x="15" y="601.062">[Pregunta Existe]</text><g class="message" data-entity-1="part4" data-entity-2="part4" id="msg14"><line style="stroke:#181818;stroke-width:1;" x1="1175.127" x2="1217.127" y1="640.9219" y2="640.9219"/><line style="stroke:#181818;stroke-width:1;" x1="1217.127" x2="1217.127" y1="640.9219" y2="653.9219"/><line style="stroke:#181818;stroke-width:1;" x1="1176.127" x2="1217.127" y1="653.9219" y2="653.9219"/><polygon fill="#181818" points="1186.127,649.9219,1176.127,653.9219,1186.127,657.9219,1182.127,653.9219" style="stroke:#181818;stroke-width:1;"/><text fill="#000000" font-family="sans-serif" font-size="13" lengthAdjust="spacing" textLength="220.4224" x="1182.127" y="620.7231">Verificar pertenencia de pregunta</text><text fill="#000000" font-family="sans-serif" font-size="13" lengthAdjust="spacing" textLength="225.5322" x="1182.127" y="635.856">a docente autenticado (docenteId)</text></g><path d="M20,668.9219 L84.4429,668.9219 L84.4429,676.0547 L74.4429,686.0547 L20,686.0547 L20,668.9219" fill="#EEEEEE" style="stroke:#000000;stroke-width:1.5;"/><rect fill="none" height="540.1953" style="stroke:#000000;stroke-width:1.5;" width="2260.271" x="20" y="668.9219"/><text fill="#000000" font-family="sans-serif" font-size="13" font-weight="bold" lengthAdjust="spacing" textLength="19.4429" x="35" y="681.9888">alt</text><text fill="#000000" font-family="sans-serif" font-size="11" font-weight="bold" lengthAdjust="spacing" textLength="224.6514" x="99.4429" y="681.1323">[Pregunta No Pertenece al Docente]</text><g class="message" data-entity-1="part4" data-entity-2="part3" id="msg15"><polygon fill="#181818" points="885.4492,703.1875,875.4492,707.1875,885.4492,711.1875,881.4492,707.1875" style="stroke:#181818;stroke-width:1;"/><line style="stroke:#181818;stroke-width:1;stroke-dasharray:2,2;" x1="879.4492" x2="1164.127" y1="707.1875" y2="707.1875"/><text fill="#000000" font-family="sans-serif" font-size="13" lengthAdjust="spacing" textLength="203.0298" x="891.4492" y="702.1216">throw UnauthorizedException()</text></g><g class="message" data-entity-1="part3" data-entity-2="part2" id="msg16"><polygon fill="#181818" points="593.5718,732.3203,583.5718,736.3203,593.5718,740.3203,589.5718,736.3203" style="stroke:#181818;stroke-width:1;"/><line style="stroke:#181818;stroke-width:1;stroke-dasharray:2,2;" x1="587.5718" x2="873.4492" y1="736.3203" y2="736.3203"/><text fill="#000000" font-family="sans-serif" font-size="13" lengthAdjust="spacing" textLength="94.3262" x="599.5718" y="731.2544">403 Forbidden</text></g><g class="message" data-entity-1="part2" data-entity-2="part1" id="msg17"><polygon fill="#181818" points="73.3159,761.4531,63.3159,765.4531,73.3159,769.4531,69.3159,765.4531" style="stroke:#181818;stroke-width:1;"/><line style="stroke:#181818;stroke-width:1;stroke-dasharray:2,2;" x1="67.3159" x2="571.5718" y1="765.4531" y2="765.4531"/><text fill="#000000" font-family="sans-serif" font-size="13" lengthAdjust="spacing" textLength="486.2559" x="79.3159" y="760.3872">Mostrar mensaje de error "No tienes permiso para eliminar esta pregunta"</text></g><line style="stroke:#000000;stroke-width:1;stroke-dasharray:2,2;" x1="20" x2="2280.271" y1="774.4531" y2="774.4531"/><text fill="#000000" font-family="sans-serif" font-size="11" font-weight="bold" lengthAdjust="spacing" textLength="204.0586" x="25" y="784.6636">[Pregunta Pertenece al Docente]</text><g class="message" data-entity-1="part4" data-entity-2="part5" id="msg18"><polygon fill="#181818" points="1471.8086,805.3906,1481.8086,809.3906,1471.8086,813.3906,1475.8086,809.3906" style="stroke:#181818;stroke-width:1;"/><line style="stroke:#181818;stroke-width:1;" x1="1175.127" x2="1477.8086" y1="809.3906" y2="809.3906"/><text fill="#000000" font-family="sans-serif" font-size="13" lengthAdjust="spacing" textLength="289.6816" x="1182.127" y="804.3247">eliminarRespuestasPorPregunta(preguntaId)</text></g><g class="message" data-entity-1="part5" data-entity-2="part7" id="msg19"><polygon fill="#181818" points="1795.1704,834.5234,1805.1704,838.5234,1795.1704,842.5234,1799.1704,838.5234" style="stroke:#181818;stroke-width:1;"/><line style="stroke:#181818;stroke-width:1;" x1="1493.8086" x2="1801.1704" y1="838.5234" y2="838.5234"/><text fill="#000000" font-family="sans-serif" font-size="13" lengthAdjust="spacing" textLength="210.2471" x="1500.8086" y="833.4575">deleteByPreguntaId(preguntaId)</text></g><g class="message" data-entity-1="part7" data-entity-2="part8" id="msg20"><polygon fill="#181818" points="2151.6079,863.6563,2161.6079,867.6563,2151.6079,871.6563,2155.6079,867.6563" style="stroke:#181818;stroke-width:1;"/><line style="stroke:#181818;stroke-width:1;" x1="1817.1704" x2="2157.6079" y1="867.6563" y2="867.6563"/><text fill="#000000" font-family="sans-serif" font-size="13" lengthAdjust="spacing" textLength="327.4375" x="1824.1704" y="862.5903">DELETE FROM respuestas WHERE pregunta_id = ?</text></g><g class="message" data-entity-1="part8" data-entity-2="part7" id="msg21"><polygon fill="#181818" points="1828.1704,892.7891,1818.1704,896.7891,1828.1704,900.7891,1824.1704,896.7891" style="stroke:#181818;stroke-width:1;"/><line style="stroke:#181818;stroke-width:1;stroke-dasharray:2,2;" x1="1822.1704" x2="2167.6079" y1="896.7891" y2="896.7891"/><text fill="#000000" font-family="sans-serif" font-size="13" lengthAdjust="spacing" textLength="18.7573" x="1834.1704" y="891.7231">OK</text></g><g class="message" data-entity-1="part7" data-entity-2="part5" id="msg22"><polygon fill="#181818" points="1504.8086,921.9219,1494.8086,925.9219,1504.8086,929.9219,1500.8086,925.9219" style="stroke:#181818;stroke-width:1;"/><line style="stroke:#181818;stroke-width:1;stroke-dasharray:2,2;" x1="1498.8086" x2="1811.1704" y1="925.9219" y2="925.9219"/><text fill="#000000" font-family="sans-serif" font-size="13" lengthAdjust="spacing" textLength="27.5107" x="1510.8086" y="920.856">void</text></g><g class="message" data-entity-1="part5" data-entity-2="part4" id="msg23"><polygon fill="#181818" points="1186.127,951.0547,1176.127,955.0547,1186.127,959.0547,1182.127,955.0547" style="stroke:#181818;stroke-width:1;"/><line style="stroke:#181818;stroke-width:1;stroke-dasharray:2,2;" x1="1180.127" x2="1487.8086" y1="955.0547" y2="955.0547"/><text fill="#000000" font-family="sans-serif" font-size="13" lengthAdjust="spacing" textLength="27.5107" x="1192.127" y="949.9888">void</text></g><g class="message" data-entity-1="part4" data-entity-2="part6" id="msg24"><polygon fill="#181818" points="1627.6567,980.1875,1637.6567,984.1875,1627.6567,988.1875,1631.6567,984.1875" style="stroke:#181818;stroke-width:1;"/><line style="stroke:#181818;stroke-width:1;" x1="1175.127" x2="1633.6567" y1="984.1875" y2="984.1875"/><text fill="#000000" font-family="sans-serif" font-size="13" lengthAdjust="spacing" textLength="151.271" x="1182.127" y="979.1216">deleteById(preguntaId)</text></g><g class="message" data-entity-1="part6" data-entity-2="part8" id="msg25"><polygon fill="#181818" points="2151.6079,1009.3203,2161.6079,1013.3203,2151.6079,1017.3203,2155.6079,1013.3203" style="stroke:#181818;stroke-width:1;"/><line style="stroke:#181818;stroke-width:1;" x1="1649.6567" x2="2157.6079" y1="1013.3203" y2="1013.3203"/><text fill="#000000" font-family="sans-serif" font-size="13" lengthAdjust="spacing" textLength="256.4961" x="1656.6567" y="1008.2544">DELETE FROM preguntas WHERE id = ?</text></g><g class="message" data-entity-1="part8" data-entity-2="part6" id="msg26"><polygon fill="#181818" points="1660.6567,1038.4531,1650.6567,1042.4531,1660.6567,1046.4531,1656.6567,1042.4531" style="stroke:#181818;stroke-width:1;"/><line style="stroke:#181818;stroke-width:1;stroke-dasharray:2,2;" x1="1654.6567" x2="2167.6079" y1="1042.4531" y2="1042.4531"/><text fill="#000000" font-family="sans-serif" font-size="13" lengthAdjust="spacing" textLength="18.7573" x="1666.6567" y="1037.3872">OK</text></g><g class="message" data-entity-1="part6" data-entity-2="part4" id="msg27"><polygon fill="#181818" points="1186.127,1067.5859,1176.127,1071.5859,1186.127,1075.5859,1182.127,1071.5859" style="stroke:#181818;stroke-width:1;"/><line style="stroke:#181818;stroke-width:1;stroke-dasharray:2,2;" x1="1180.127" x2="1643.6567" y1="1071.5859" y2="1071.5859"/><text fill="#000000" font-family="sans-serif" font-size="13" lengthAdjust="spacing" textLength="27.5107" x="1192.127" y="1066.52">void</text></g><g class="message" data-entity-1="part4" data-entity-2="part3" id="msg28"><polygon fill="#181818" points="885.4492,1096.7188,875.4492,1100.7188,885.4492,1104.7188,881.4492,1100.7188" style="stroke:#181818;stroke-width:1;"/><line style="stroke:#181818;stroke-width:1;stroke-dasharray:2,2;" x1="879.4492" x2="1169.127" y1="1100.7188" y2="1100.7188"/><text fill="#000000" font-family="sans-serif" font-size="13" lengthAdjust="spacing" textLength="27.5107" x="891.4492" y="1095.6528">void</text></g><g class="message" data-entity-1="part3" data-entity-2="part2" id="msg29"><polygon fill="#181818" points="593.5718,1125.8516,583.5718,1129.8516,593.5718,1133.8516,589.5718,1129.8516" style="stroke:#181818;stroke-width:1;"/><line style="stroke:#181818;stroke-width:1;stroke-dasharray:2,2;" x1="587.5718" x2="873.4492" y1="1129.8516" y2="1129.8516"/><text fill="#000000" font-family="sans-serif" font-size="13" lengthAdjust="spacing" textLength="102.4575" x="599.5718" y="1124.7856">204 No Content</text></g><g class="message" data-entity-1="part2" data-entity-2="part2" id="msg30"><line style="stroke:#181818;stroke-width:1;" x1="582.5718" x2="624.5718" y1="1158.9844" y2="1158.9844"/><line style="stroke:#181818;stroke-width:1;" x1="624.5718" x2="624.5718" y1="1158.9844" y2="1171.9844"/><line style="stroke:#181818;stroke-width:1;" x1="583.5718" x2="624.5718" y1="1171.9844" y2="1171.9844"/><polygon fill="#181818" points="593.5718,1167.9844,583.5718,1171.9844,593.5718,1175.9844,589.5718,1171.9844" style="stroke:#181818;stroke-width:1;"/><text fill="#000000" font-family="sans-serif" font-size="13" lengthAdjust="spacing" textLength="239.2939" x="589.5718" y="1153.9185">Remover de la lista (actualizar vista)</text></g><g class="message" data-entity-1="part2" data-entity-2="part1" id="msg31"><polygon fill="#181818" points="73.3159,1197.1172,63.3159,1201.1172,73.3159,1205.1172,69.3159,1201.1172" style="stroke:#181818;stroke-width:1;"/><line style="stroke:#181818;stroke-width:1;stroke-dasharray:2,2;" x1="67.3159" x2="571.5718" y1="1201.1172" y2="1201.1172"/><text fill="#000000" font-family="sans-serif" font-size="13" lengthAdjust="spacing" textLength="319.8901" x="79.3159" y="1196.0513">Notificaci&#243;n "Pregunta eliminada correctamente"</text></g><path d="M20,1230.1172 L84.4429,1230.1172 L84.4429,1237.25 L74.4429,1247.25 L20,1247.25 L20,1230.1172" fill="#EEEEEE" style="stroke:#000000;stroke-width:1.5;"/><rect fill="none" height="90.5313" style="stroke:#000000;stroke-width:1.5;" width="633.8667" x="20" y="1230.1172"/><text fill="#000000" font-family="sans-serif" font-size="13" font-weight="bold" lengthAdjust="spacing" textLength="19.4429" x="35" y="1243.1841">alt</text><text fill="#000000" font-family="sans-serif" font-size="11" font-weight="bold" lengthAdjust="spacing" textLength="113.604" x="99.4429" y="1242.3276">[Docente Cancela]</text><g class="message" data-entity-1="part1" data-entity-2="part2" id="msg32"><polygon fill="#181818" points="565.5718,1264.3828,575.5718,1268.3828,565.5718,1272.3828,569.5718,1268.3828" style="stroke:#181818;stroke-width:1;"/><line style="stroke:#181818;stroke-width:1;" x1="62.3159" x2="571.5718" y1="1268.3828" y2="1268.3828"/><text fill="#000000" font-family="sans-serif" font-size="13" lengthAdjust="spacing" textLength="171.9834" x="69.3159" y="1263.3169">Clic en "Cancelar" (modal)</text></g><g class="message" data-entity-1="part2" data-entity-2="part1" id="msg33"><polygon fill="#181818" points="73.3159,1308.6484,63.3159,1312.6484,73.3159,1316.6484,69.3159,1312.6484" style="stroke:#181818;stroke-width:1;"/><line style="stroke:#181818;stroke-width:1;stroke-dasharray:2,2;" x1="67.3159" x2="576.5718" y1="1312.6484" y2="1312.6484"/><text fill="#000000" font-family="sans-serif" font-size="13" lengthAdjust="spacing" textLength="85.6553" x="79.3159" y="1292.4497">Cerrar modal</text><text fill="#000000" font-family="sans-serif" font-size="13" lengthAdjust="spacing" textLength="204.3374" x="79.3159" y="1307.5825">Mantener en lista de preguntas</text></g><?plantuml-src bLRRRkCs47ttLmpyPBS9KhJxP6nTrBQCJRlPk7RQVGbGp8gJXAr42XJbnYtwLVs4_bY7r8sIfIPhmBP4plNCp26jj0d1HkAZmHH141meBaZ54k4IeaIcKg61dQ77Gbc4sI4pKZt2IciBNyAUCBRpoOH_jO7fHiUaB4q1SxZZhISoamoDbR7CK5cORetcVILWLcfwoMtK5QgTvMiMDZf9o7YvzdLO_a3cAEFIU_NS5TnJdXMKToNxYyEszvJfN7AI9wyKBe_uw6bqrYS2BNx2d62wShyC-mQjpc6sqxbzD7JuwNs9pMOrcLH8mkMIeLh0Ef4na89fNPqfpB8gdcinTxMGHxJaSDr6SCbgbOK5tB1vm_MyqG8JvvOnVP0cnLZ--u-wLpFXm-2D1A4skc1lXUi8eI_0KeeN8EI3Z8l4ehYuLwPEBUU8jPFZfnEWE9AnPIknGIgZzOxcPpbLONIaVFJBeEmBs4Jlexi8hZ2JLtLu-TLVRVf_Smxl28KJ_hwmJzh8Fz5AhHQm8ZJiyQtLlvDQ1ZW5VTK-zZtJCmF7ow9iyMl1EINmmyUxdaxLHOiw4rEtIb2ZYzPA44RTVzM_CnQssG8Uf1AhqxKOhdQd9SCNPsYpMi21iLlVmHUmtT_UDCNDuUExQ1-15F0jVDUQuyRRh7ppT8EupHoQcBojbvSJGQ5MrtM8oF-hTkB7nBQSyq53z2npInFWJmDFhq3soUW_859MsjC7RRUwK29wZiaxdSszRbYgglFUVFM67LZmybueY2de3BSpDaqfgHn_ysDCnZWYR69NceSdTcPuAgOJIl8sqy6i0hn-8UF6Z1raVf2QKQfhTw-mxYJ0WYMOXdX8OHQqbpFUHtDNccDtJ08LPtl1b_7zMM4rLNI6xYZ2tp2wvfCKWbGZE8xovo7DwLZ9oUGEf5Jc6fYE6nunu7Yf0Mpg7NIBy3embcVdH3lXpKw-qqFZtgBJf7nswDGI_OsEvt82cNV8qkgqQnoyqfUVh3D78KLKzEe98c3raY5g9xzML77cY8U_NgkeenVvxOz3vG_KUa4DedxKKWoPUI7DiArVRwjVdb5kheloKZ4wB5Vl3h5rM8eHhdv50NhS_HB-uzmzXjHWFcCKCcQaZ_80YNpjQThly81-1ekKwdjAzT6TtlvYaqX72ZDMBJ3X-u61erkPZz8F7n2UYVsr963tYW44GgoDeTXYwk-_9StmUUA-GOny8_D7MqKpi4OLKu9UVEoMLycuMrxgRctpmQDepNJe-D59tAiRT32nCJPG9XkS6hcBwZy0?></g></svg>