<?plantuml 1.2026.2?><svg xmlns="http://www.w3.org/2000/svg" xmlns:xlink="http://www.w3.org/1999/xlink" contentStyleType="text/css" data-diagram-type="SEQUENCE" height="1024px" preserveAspectRatio="none" style="width:1759px;height:1024px;background:#FFFFFF;" version="1.1" viewBox="0 0 1759 1024" width="1759px" zoomAndPan="magnify"><title>Diagrama de Secuencia - Eliminar Docente (Spring Boot + React)</title><defs/><g><text fill="#000000" font-family="sans-serif" font-size="14" font-weight="bold" lengthAdjust="spacing" textLength="513.0098" x="624.1121" y="27.9951">Diagrama de Secuencia - Eliminar Docente (Spring Boot + React)</text><g><title>Frontend .React.</title><rect fill="#FFFFFF" height="650.7266" style="stroke:#181818;stroke-width:1;" width="10" x="456.876" y="149.7266"/></g><g><title>DocentesController</title><rect fill="#FFFFFF" height="344.5938" style="stroke:#181818;stroke-width:1;" width="10" x="753.7534" y="267.3906"/></g><g><title>UsuarioService</title><rect fill="#FFFFFF" height="286.3281" style="stroke:#181818;stroke-width:1;" width="10" x="1026.5054" y="296.5234"/></g><g><title>UsuarioRepository</title><rect fill="#FFFFFF" height="87.3984" style="stroke:#181818;stroke-width:1;" width="10" x="1200.0732" y="325.6563"/></g><g><title>UsuarioRepository</title><rect fill="#FFFFFF" height="87.3984" style="stroke:#181818;stroke-width:1;" width="10" x="1200.0732" y="466.3203"/></g><g><title>Base de Datos .PostgreSQL.</title><rect fill="#FFFFFF" height="29.1328" style="stroke:#181818;stroke-width:1;" width="10" x="1635.5708" y="354.7891"/></g><g><title>Base de Datos .PostgreSQL.</title><rect fill="#FFFFFF" height="29.1328" style="stroke:#181818;stroke-width:1;" width="10" x="1635.5708" y="495.4531"/></g><rect fill="none" height="365.3984" style="stroke:#000000;stroke-width:1.5;" width="1742.2339" x="10" y="428.0547"/><rect fill="none" height="119.6641" style="stroke:#000000;stroke-width:1.5;" width="1090.978" x="10" y="807.4531"/><g class="participant-lifeline" data-entity-uid="part1" data-qualified-name="Admin" id="part1-lifeline"><g><title>Administrador Institucional</title><rect fill="#000000" fill-opacity="0.00000" height="825.5234" width="8" x="113.5308" y="118.5938"/><line style="stroke:#181818;stroke-width:0.5;stroke-dasharray:5,5;" x1="117" x2="117" y1="118.5938" y2="944.1172"/></g></g><g class="participant-lifeline" data-entity-uid="part2" data-qualified-name="FE" id="part2-lifeline"><g><title>Frontend .React.</title><rect fill="#000000" fill-opacity="0.00000" height="825.5234" width="8" x="457.876" y="118.5938"/><line style="stroke:#181818;stroke-width:0.5;stroke-dasharray:5,5;" x1="461.5811" x2="461.5811" y1="118.5938" y2="944.1172"/></g></g><g class="participant-lifeline" data-entity-uid="part3" data-qualified-name="Controller" id="part3-lifeline"><g><title>DocentesController</title><rect fill="#000000" fill-opacity="0.00000" height="825.5234" width="8" x="754.7534" y="118.5938"/><line style="stroke:#181818;stroke-width:0.5;stroke-dasharray:5,5;" x1="758.2041" x2="758.2041" y1="118.5938" y2="944.1172"/></g></g><g class="participant-lifeline" data-entity-uid="part4" data-qualified-name="Service" id="part4-lifeline"><g><title>UsuarioService</title><rect fill="#000000" fill-opacity="0.00000" height="825.5234" width="8" x="1027.5054" y="118.5938"/><line style="stroke:#181818;stroke-width:0.5;stroke-dasharray:5,5;" x1="1031.0327" x2="1031.0327" y1="118.5938" y2="944.1172"/></g></g><g class="participant-lifeline" data-entity-uid="part5" data-qualified-name="Repo" id="part5-lifeline"><g><title>UsuarioRepository</title><rect fill="#000000" fill-opacity="0.00000" height="825.5234" width="8" x="1201.0732" y="118.5938"/><line style="stroke:#181818;stroke-width:0.5;stroke-dasharray:5,5;" x1="1204.9351" x2="1204.9351" y1="118.5938" y2="944.1172"/></g></g><g class="participant-lifeline" data-entity-uid="part6" data-qualified-name="DB" id="part6-lifeline"><g><title>Base de Datos .PostgreSQL.</title><rect fill="#000000" fill-opacity="0.00000" height="825.5234" width="8" x="1636.5708" y="118.5938"/><line style="stroke:#181818;stroke-width:0.5;stroke-dasharray:5,5;" x1="1639.9077" x2="1639.9077" y1="118.5938" y2="944.1172"/></g></g><g class="participant participant-head" data-entity-uid="part1" data-qualified-name="Admin" id="part1-head"><text fill="#000000" font-family="sans-serif" font-size="14" lengthAdjust="spacing" textLength="189.0615" x="20" y="115.292">Administrador Institucional</text><ellipse cx="117.5308" cy="50.7969" fill="#E2E2F0" rx="8" ry="8" style="stroke:#181818;stroke-width:0.5;"/><path d="M117.5308,58.7969 L117.5308,85.7969 M104.5308,66.7969 L130.5308,66.7969 M117.5308,85.7969 L104.5308,100.7969 M117.5308,85.7969 L130.5308,100.7969" fill="none" style="stroke:#181818;stroke-width:0.5;"/></g><g class="participant participant-tail" data-entity-uid="part1" data-qualified-name="Admin" id="part1-tail"><text fill="#000000" font-family="sans-serif" font-size="14" lengthAdjust="spacing" textLength="189.0615" x="20" y="956.1123">Administrador Institucional</text><ellipse cx="117.5308" cy="967.9141" fill="#E2E2F0" rx="8" ry="8" style="stroke:#181818;stroke-width:0.5;"/><path d="M117.5308,975.9141 L117.5308,1002.9141 M104.5308,983.9141 L130.5308,983.9141 M117.5308,1002.9141 L104.5308,1017.9141 M117.5308,1002.9141 L130.5308,1017.9141" fill="none" style="stroke:#181818;stroke-width:0.5;"/></g><g class="participant participant-head" data-entity-uid="part2" data-qualified-name="FE" id="part2-head"><rect fill="#E2E2F0" height="30.2969" rx="2.5" ry="2.5" style="stroke:#181818;stroke-width:0.5;" width="132.5898" x="395.5811" y="87.2969"/><text fill="#000000" font-family="sans-serif" font-size="14" lengthAdjust="spacing" textLength="118.5898" x="402.5811" y="107.292">Frontend (React)</text></g><g class="participant participant-tail" data-entity-uid="part2" data-qualified-name="FE" id="part2-tail"><rect fill="#E2E2F0" height="30.2969" rx="2.5" ry="2.5" style="stroke:#181818;stroke-width:0.5;" width="132.5898" x="395.5811" y="943.1172"/><text fill="#000000" font-family="sans-serif" font-size="14" lengthAdjust="spacing" textLength="118.5898" x="402.5811" y="963.1123">Frontend (React)</text></g><g class="participant participant-head" data-entity-uid="part3" data-qualified-name="Controller" id="part3-head"><rect fill="#E2E2F0" height="30.2969" rx="2.5" ry="2.5" style="stroke:#181818;stroke-width:0.5;" width="149.0986" x="684.2041" y="87.2969"/><text fill="#000000" font-family="sans-serif" font-size="14" lengthAdjust="spacing" textLength="135.0986" x="691.2041" y="107.292">DocentesController</text></g><g class="participant participant-tail" data-entity-uid="part3" data-qualified-name="Controller" id="part3-tail"><rect fill="#E2E2F0" height="30.2969" rx="2.5" ry="2.5" style="stroke:#181818;stroke-width:0.5;" width="149.0986" x="684.2041" y="943.1172"/><text fill="#000000" font-family="sans-serif" font-size="14" lengthAdjust="spacing" textLength="135.0986" x="691.2041" y="963.1123">DocentesController</text></g><g class="participant participant-head" data-entity-uid="part4" data-qualified-name="Service" id="part4-head"><rect fill="#E2E2F0" height="30.2969" rx="2.5" ry="2.5" style="stroke:#181818;stroke-width:0.5;" width="118.9453" x="972.0327" y="87.2969"/><text fill="#000000" font-family="sans-serif" font-size="14" lengthAdjust="spacing" textLength="104.9453" x="979.0327" y="107.292">UsuarioService</text></g><g class="participant participant-tail" data-entity-uid="part4" data-qualified-name="Service" id="part4-tail"><rect fill="#E2E2F0" height="30.2969" rx="2.5" ry="2.5" style="stroke:#181818;stroke-width:0.5;" width="118.9453" x="972.0327" y="943.1172"/><text fill="#000000" font-family="sans-serif" font-size="14" lengthAdjust="spacing" textLength="104.9453" x="979.0327" y="963.1123">UsuarioService</text></g><g class="participant participant-head" data-entity-uid="part5" data-qualified-name="Repo" id="part5-head"><rect fill="#E2E2F0" height="30.2969" rx="2.5" ry="2.5" style="stroke:#181818;stroke-width:0.5;" width="142.2764" x="1133.9351" y="87.2969"/><text fill="#000000" font-family="sans-serif" font-size="14" lengthAdjust="spacing" textLength="128.2764" x="1140.9351" y="107.292">UsuarioRepository</text></g><g class="participant participant-tail" data-entity-uid="part5" data-qualified-name="Repo" id="part5-tail"><rect fill="#E2E2F0" height="30.2969" rx="2.5" ry="2.5" style="stroke:#181818;stroke-width:0.5;" width="142.2764" x="1133.9351" y="943.1172"/><text fill="#000000" font-family="sans-serif" font-size="14" lengthAdjust="spacing" textLength="128.2764" x="1140.9351" y="963.1123">UsuarioRepository</text></g><g class="participant participant-head" data-entity-uid="part6" data-qualified-name="DB" id="part6-head"><text fill="#000000" font-family="sans-serif" font-size="14" lengthAdjust="spacing" textLength="197.3262" x="1538.9077" y="115.292">Base de Datos (PostgreSQL)</text><path d="M1622.5708,66.2969 C1622.5708,56.2969 1640.5708,56.2969 1640.5708,56.2969 C1640.5708,56.2969 1658.5708,56.2969 1658.5708,66.2969 L1658.5708,92.2969 C1658.5708,102.2969 1640.5708,102.2969 1640.5708,102.2969 C1640.5708,102.2969 1622.5708,102.2969 1622.5708,92.2969 L1622.5708,66.2969" fill="#E2E2F0" style="stroke:#181818;stroke-width:0.5;"/><path d="M1622.5708,66.2969 C1622.5708,76.2969 1640.5708,76.2969 1640.5708,76.2969 C1640.5708,76.2969 1658.5708,76.2969 1658.5708,66.2969" fill="none" style="stroke:#181818;stroke-width:0.5;"/></g><g class="participant participant-tail" data-entity-uid="part6" data-qualified-name="DB" id="part6-tail"><text fill="#000000" font-family="sans-serif" font-size="14" lengthAdjust="spacing" textLength="197.3262" x="1538.9077" y="956.1123">Base de Datos (PostgreSQL)</text><path d="M1622.5708,969.4141 C1622.5708,959.4141 1640.5708,959.4141 1640.5708,959.4141 C1640.5708,959.4141 1658.5708,959.4141 1658.5708,969.4141 L1658.5708,995.4141 C1658.5708,1005.4141 1640.5708,1005.4141 1640.5708,1005.4141 C1640.5708,1005.4141 1622.5708,1005.4141 1622.5708,995.4141 L1622.5708,969.4141" fill="#E2E2F0" style="stroke:#181818;stroke-width:0.5;"/><path d="M1622.5708,969.4141 C1622.5708,979.4141 1640.5708,979.4141 1640.5708,979.4141 C1640.5708,979.4141 1658.5708,979.4141 1658.5708,969.4141" fill="none" style="stroke:#181818;stroke-width:0.5;"/></g><g><title>Frontend .React.</title><rect fill="#FFFFFF" height="650.7266" style="stroke:#181818;stroke-width:1;" width="10" x="456.876" y="149.7266"/></g><g><title>DocentesController</title><rect fill="#FFFFFF" height="344.5938" style="stroke:#181818;stroke-width:1;" width="10" x="753.7534" y="267.3906"/></g><g><title>UsuarioService</title><rect fill="#FFFFFF" height="286.3281" style="stroke:#181818;stroke-width:1;" width="10" x="1026.5054" y="296.5234"/></g><g><title>UsuarioRepository</title><rect fill="#FFFFFF" height="87.3984" style="stroke:#181818;stroke-width:1;" width="10" x="1200.0732" y="325.6563"/></g><g><title>UsuarioRepository</title><rect fill="#FFFFFF" height="87.3984" style="stroke:#181818;stroke-width:1;" width="10" x="1200.0732" y="466.3203"/></g><g><title>Base de Datos .PostgreSQL.</title><rect fill="#FFFFFF" height="29.1328" style="stroke:#181818;stroke-width:1;" width="10" x="1635.5708" y="354.7891"/></g><g><title>Base de Datos .PostgreSQL.</title><rect fill="#FFFFFF" height="29.1328" style="stroke:#181818;stroke-width:1;" width="10" x="1635.5708" y="495.4531"/></g><g class="message" data-entity-1="part1" data-entity-2="part2" id="msg1"><polygon fill="#181818" points="444.876,145.7266,454.876,149.7266,444.876,153.7266,448.876,149.7266" style="stroke:#181818;stroke-width:1;"/><line style="stroke:#181818;stroke-width:1;" x1="117.5308" x2="450.876" y1="149.7266" y2="149.7266"/><text fill="#000000" font-family="sans-serif" font-size="13" lengthAdjust="spacing" textLength="192.2197" x="124.5308" y="144.6606">Clic en "Eliminar" (docenteId)</text></g><g class="message" data-entity-1="part2" data-entity-2="part1" id="msg2"><polygon fill="#181818" points="128.5308,189.9922,118.5308,193.9922,128.5308,197.9922,124.5308,193.9922" style="stroke:#181818;stroke-width:1;"/><line style="stroke:#181818;stroke-width:1;stroke-dasharray:2,2;" x1="122.5308" x2="455.876" y1="193.9922" y2="193.9922"/><text fill="#000000" font-family="sans-serif" font-size="13" lengthAdjust="spacing" textLength="203.728" x="134.5308" y="173.7935">Mostrar Modal de Confirmaci&#243;n</text><text fill="#000000" font-family="sans-serif" font-size="13" lengthAdjust="spacing" textLength="126.9976" x="134.5308" y="188.9263">(datos del docente)</text></g><g class="message" data-entity-1="part1" data-entity-2="part2" id="msg3"><polygon fill="#181818" points="444.876,219.125,454.876,223.125,444.876,227.125,448.876,223.125" style="stroke:#181818;stroke-width:1;"/><line style="stroke:#181818;stroke-width:1;" x1="117.5308" x2="450.876" y1="223.125" y2="223.125"/><text fill="#000000" font-family="sans-serif" font-size="13" lengthAdjust="spacing" textLength="138.2202" x="124.5308" y="218.0591">Confirma eliminaci&#243;n</text></g><g class="message" data-entity-1="part2" data-entity-2="part3" id="msg4"><polygon fill="#181818" points="741.7534,263.3906,751.7534,267.3906,741.7534,271.3906,745.7534,267.3906" style="stroke:#181818;stroke-width:1;"/><line style="stroke:#181818;stroke-width:1;" x1="466.876" x2="747.7534" y1="267.3906" y2="267.3906"/><text fill="#000000" font-family="sans-serif" font-size="13" lengthAdjust="spacing" textLength="227.7095" x="473.876" y="247.1919">DELETE /api/docentes/{docenteId}</text><text fill="#000000" font-family="sans-serif" font-size="13" lengthAdjust="spacing" textLength="267.8774" x="473.876" y="262.3247">(Header: Authorization: Bearer &lt;token&gt;)</text></g><g class="message" data-entity-1="part3" data-entity-2="part4" id="msg5"><polygon fill="#181818" points="1014.5054,292.5234,1024.5054,296.5234,1014.5054,300.5234,1018.5054,296.5234" style="stroke:#181818;stroke-width:1;"/><line style="stroke:#181818;stroke-width:1;" x1="763.7534" x2="1020.5054" y1="296.5234" y2="296.5234"/><text fill="#000000" font-family="sans-serif" font-size="13" lengthAdjust="spacing" textLength="182.4063" x="770.7534" y="291.4575">eliminarDocente(docenteId)</text></g><g class="message" data-entity-1="part4" data-entity-2="part5" id="msg6"><polygon fill="#181818" points="1188.0732,321.6563,1198.0732,325.6563,1188.0732,329.6563,1192.0732,325.6563" style="stroke:#181818;stroke-width:1;"/><line style="stroke:#181818;stroke-width:1;" x1="1036.5054" x2="1194.0732" y1="325.6563" y2="325.6563"/><text fill="#000000" font-family="sans-serif" font-size="13" lengthAdjust="spacing" textLength="128.2925" x="1043.5054" y="320.5903">findById(docenteId)</text></g><g class="message" data-entity-1="part5" data-entity-2="part6" id="msg7"><polygon fill="#181818" points="1623.5708,350.7891,1633.5708,354.7891,1623.5708,358.7891,1627.5708,354.7891" style="stroke:#181818;stroke-width:1;"/><line style="stroke:#181818;stroke-width:1;" x1="1210.0732" x2="1629.5708" y1="354.7891" y2="354.7891"/><text fill="#000000" font-family="sans-serif" font-size="13" lengthAdjust="spacing" textLength="406.4976" x="1217.0732" y="349.7231">SELECT * FROM usuarios WHERE id = ? AND tipo = 'DOCENTE'</text></g><g class="message" data-entity-1="part6" data-entity-2="part5" id="msg8"><polygon fill="#181818" points="1221.0732,379.9219,1211.0732,383.9219,1221.0732,387.9219,1217.0732,383.9219" style="stroke:#181818;stroke-width:1;"/><line style="stroke:#181818;stroke-width:1;stroke-dasharray:2,2;" x1="1215.0732" x2="1639.5708" y1="383.9219" y2="383.9219"/><text fill="#000000" font-family="sans-serif" font-size="13" lengthAdjust="spacing" textLength="126.1533" x="1227.0732" y="378.856">Optional&lt;Usuario&gt;</text></g><g class="message" data-entity-1="part5" data-entity-2="part4" id="msg9"><polygon fill="#181818" points="1047.5054,409.0547,1037.5054,413.0547,1047.5054,417.0547,1043.5054,413.0547" style="stroke:#181818;stroke-width:1;"/><line style="stroke:#181818;stroke-width:1;stroke-dasharray:2,2;" x1="1041.5054" x2="1204.0732" y1="413.0547" y2="413.0547"/><text fill="#000000" font-family="sans-serif" font-size="13" lengthAdjust="spacing" textLength="126.1533" x="1053.5054" y="407.9888">Optional&lt;Usuario&gt;</text></g><path d="M10,428.0547 L74.4429,428.0547 L74.4429,435.1875 L64.4429,445.1875 L10,445.1875 L10,428.0547" fill="#EEEEEE" style="stroke:#000000;stroke-width:1.5;"/><rect fill="none" height="365.3984" style="stroke:#000000;stroke-width:1.5;" width="1742.2339" x="10" y="428.0547"/><text fill="#000000" font-family="sans-serif" font-size="13" font-weight="bold" lengthAdjust="spacing" textLength="19.4429" x="25" y="441.1216">alt</text><text fill="#000000" font-family="sans-serif" font-size="11" font-weight="bold" lengthAdjust="spacing" textLength="102.749" x="89.4429" y="440.2651">[Docente Existe]</text><g class="message" data-entity-1="part4" data-entity-2="part5" id="msg10"><polygon fill="#181818" points="1188.0732,462.3203,1198.0732,466.3203,1188.0732,470.3203,1192.0732,466.3203" style="stroke:#181818;stroke-width:1;"/><line style="stroke:#181818;stroke-width:1;" x1="1036.5054" x2="1194.0732" y1="466.3203" y2="466.3203"/><text fill="#000000" font-family="sans-serif" font-size="13" lengthAdjust="spacing" textLength="144.5679" x="1043.5054" y="461.2544">deleteById(docenteId)</text></g><g class="message" data-entity-1="part5" data-entity-2="part6" id="msg11"><polygon fill="#181818" points="1623.5708,491.4531,1633.5708,495.4531,1623.5708,499.4531,1627.5708,495.4531" style="stroke:#181818;stroke-width:1;"/><line style="stroke:#181818;stroke-width:1;" x1="1210.0732" x2="1629.5708" y1="495.4531" y2="495.4531"/><text fill="#000000" font-family="sans-serif" font-size="13" lengthAdjust="spacing" textLength="245.2354" x="1217.0732" y="490.3872">DELETE FROM usuarios WHERE id = ?</text></g><g class="message" data-entity-1="part6" data-entity-2="part5" id="msg12"><polygon fill="#181818" points="1221.0732,520.5859,1211.0732,524.5859,1221.0732,528.5859,1217.0732,524.5859" style="stroke:#181818;stroke-width:1;"/><line style="stroke:#181818;stroke-width:1;stroke-dasharray:2,2;" x1="1215.0732" x2="1639.5708" y1="524.5859" y2="524.5859"/><text fill="#000000" font-family="sans-serif" font-size="13" lengthAdjust="spacing" textLength="18.7573" x="1227.0732" y="519.52">OK</text></g><g class="message" data-entity-1="part5" data-entity-2="part4" id="msg13"><polygon fill="#181818" points="1047.5054,549.7188,1037.5054,553.7188,1047.5054,557.7188,1043.5054,553.7188" style="stroke:#181818;stroke-width:1;"/><line style="stroke:#181818;stroke-width:1;stroke-dasharray:2,2;" x1="1041.5054" x2="1204.0732" y1="553.7188" y2="553.7188"/><text fill="#000000" font-family="sans-serif" font-size="13" lengthAdjust="spacing" textLength="27.5107" x="1053.5054" y="548.6528">void</text></g><g class="message" data-entity-1="part4" data-entity-2="part3" id="msg14"><polygon fill="#181818" points="774.7534,578.8516,764.7534,582.8516,774.7534,586.8516,770.7534,582.8516" style="stroke:#181818;stroke-width:1;"/><line style="stroke:#181818;stroke-width:1;stroke-dasharray:2,2;" x1="768.7534" x2="1030.5054" y1="582.8516" y2="582.8516"/><text fill="#000000" font-family="sans-serif" font-size="13" lengthAdjust="spacing" textLength="27.5107" x="780.7534" y="577.7856">void</text></g><g class="message" data-entity-1="part3" data-entity-2="part2" id="msg15"><polygon fill="#181818" points="477.876,607.9844,467.876,611.9844,477.876,615.9844,473.876,611.9844" style="stroke:#181818;stroke-width:1;"/><line style="stroke:#181818;stroke-width:1;stroke-dasharray:2,2;" x1="471.876" x2="757.7534" y1="611.9844" y2="611.9844"/><text fill="#000000" font-family="sans-serif" font-size="13" lengthAdjust="spacing" textLength="102.4575" x="483.876" y="606.9185">204 No Content</text></g><g class="message" data-entity-1="part2" data-entity-2="part2" id="msg16"><line style="stroke:#181818;stroke-width:1;" x1="466.876" x2="508.876" y1="641.1172" y2="641.1172"/><line style="stroke:#181818;stroke-width:1;" x1="508.876" x2="508.876" y1="641.1172" y2="654.1172"/><line style="stroke:#181818;stroke-width:1;" x1="467.876" x2="508.876" y1="654.1172" y2="654.1172"/><polygon fill="#181818" points="477.876,650.1172,467.876,654.1172,477.876,658.1172,473.876,654.1172" style="stroke:#181818;stroke-width:1;"/><text fill="#000000" font-family="sans-serif" font-size="13" lengthAdjust="spacing" textLength="239.2939" x="473.876" y="636.0513">Remover de la lista (actualizar vista)</text></g><g class="message" data-entity-1="part2" data-entity-2="part1" id="msg17"><polygon fill="#181818" points="128.5308,679.25,118.5308,683.25,128.5308,687.25,124.5308,683.25" style="stroke:#181818;stroke-width:1;"/><line style="stroke:#181818;stroke-width:1;stroke-dasharray:2,2;" x1="122.5308" x2="455.876" y1="683.25" y2="683.25"/><text fill="#000000" font-family="sans-serif" font-size="13" lengthAdjust="spacing" textLength="315.3452" x="134.5308" y="678.1841">Notificaci&#243;n "Docente eliminado correctamente"</text></g><line style="stroke:#000000;stroke-width:1;stroke-dasharray:2,2;" x1="10" x2="1752.2339" y1="692.25" y2="692.25"/><text fill="#000000" font-family="sans-serif" font-size="11" font-weight="bold" lengthAdjust="spacing" textLength="123.3418" x="15" y="702.4604">[Docente No Existe]</text><g class="message" data-entity-1="part4" data-entity-2="part3" id="msg18"><polygon fill="#181818" points="769.7534,723.1875,759.7534,727.1875,769.7534,731.1875,765.7534,727.1875" style="stroke:#181818;stroke-width:1;"/><line style="stroke:#181818;stroke-width:1;stroke-dasharray:2,2;" x1="763.7534" x2="1030.5054" y1="727.1875" y2="727.1875"/><text fill="#000000" font-family="sans-serif" font-size="13" lengthAdjust="spacing" textLength="206.4956" x="775.7534" y="722.1216">throw EntityNotFoundException</text></g><g class="message" data-entity-1="part3" data-entity-2="part2" id="msg19"><polygon fill="#181818" points="477.876,752.3203,467.876,756.3203,477.876,760.3203,473.876,756.3203" style="stroke:#181818;stroke-width:1;"/><line style="stroke:#181818;stroke-width:1;stroke-dasharray:2,2;" x1="471.876" x2="757.7534" y1="756.3203" y2="756.3203"/><text fill="#000000" font-family="sans-serif" font-size="13" lengthAdjust="spacing" textLength="96.0146" x="483.876" y="751.2544">404 Not Found</text></g><g class="message" data-entity-1="part2" data-entity-2="part1" id="msg20"><polygon fill="#181818" points="128.5308,781.4531,118.5308,785.4531,128.5308,789.4531,124.5308,785.4531" style="stroke:#181818;stroke-width:1;"/><line style="stroke:#181818;stroke-width:1;stroke-dasharray:2,2;" x1="122.5308" x2="455.876" y1="785.4531" y2="785.4531"/><text fill="#000000" font-family="sans-serif" font-size="13" lengthAdjust="spacing" textLength="255.2139" x="134.5308" y="780.3872">Mostrar Error "Docente no encontrado"</text></g><path d="M10,807.4531 L74.4429,807.4531 L74.4429,814.5859 L64.4429,824.5859 L10,824.5859 L10,807.4531" fill="#EEEEEE" style="stroke:#000000;stroke-width:1.5;"/><rect fill="none" height="119.6641" style="stroke:#000000;stroke-width:1.5;" width="1090.978" x="10" y="807.4531"/><text fill="#000000" font-family="sans-serif" font-size="13" font-weight="bold" lengthAdjust="spacing" textLength="19.4429" x="25" y="820.52">alt</text><text fill="#000000" font-family="sans-serif" font-size="11" font-weight="bold" lengthAdjust="spacing" textLength="149.1445" x="89.4429" y="819.6636">[Integridad Referencial]</text><g class="message" data-entity-1="part4" data-entity-2="part3" id="msg21"><polygon fill="#181818" points="769.7534,841.7188,759.7534,845.7188,769.7534,849.7188,765.7534,845.7188" style="stroke:#181818;stroke-width:1;"/><line style="stroke:#181818;stroke-width:1;stroke-dasharray:2,2;" x1="763.7534" x2="1030.5054" y1="845.7188" y2="845.7188"/><text fill="#000000" font-family="sans-serif" font-size="13" lengthAdjust="spacing" textLength="248.752" x="775.7534" y="840.6528">throw DataIntegrityViolationException</text></g><g class="message" data-entity-1="part3" data-entity-2="part2" id="msg22"><polygon fill="#181818" points="472.876,870.8516,462.876,874.8516,472.876,878.8516,468.876,874.8516" style="stroke:#181818;stroke-width:1;"/><line style="stroke:#181818;stroke-width:1;stroke-dasharray:2,2;" x1="466.876" x2="757.7534" y1="874.8516" y2="874.8516"/><text fill="#000000" font-family="sans-serif" font-size="13" lengthAdjust="spacing" textLength="78.2603" x="478.876" y="869.7856">409 Conflict</text></g><g class="message" data-entity-1="part2" data-entity-2="part1" id="msg23"><polygon fill="#181818" points="128.5308,915.1172,118.5308,919.1172,128.5308,923.1172,124.5308,919.1172" style="stroke:#181818;stroke-width:1;"/><line style="stroke:#181818;stroke-width:1;stroke-dasharray:2,2;" x1="122.5308" x2="460.876" y1="919.1172" y2="919.1172"/><text fill="#000000" font-family="sans-serif" font-size="13" lengthAdjust="spacing" textLength="307.3345" x="134.5308" y="898.9185">Mostrar Error "No se puede eliminar el docente</text><text fill="#000000" font-family="sans-serif" font-size="13" lengthAdjust="spacing" textLength="237.999" x="134.5308" y="914.0513">porque tiene asignaturas asociadas"</text></g><?plantuml-src fLNDRjD04BxxAKQvD05LHQWNeZQeYHqregIG5BZqCdWdwGXdrwpNeG7nL3m2ByRisacSDA02EJZUtMz-lczcnuvTHX0ppYqk41J1bDAITCe8nv1al62D5cAJadO4xMbkMS-XRuo3fp0XJ5qdYkHfBBGkbA2vS1QLB4UwSEpAb8t6h0LOG3YFShIEKyvHEsWDhH6_Ma6xyXLmmsGNL4Sl1eAr9il81jXskGj_LvHesKp9BZcb0AtV3-8cb9k2XS0gGFqoKkZm8nO4hRv_YYmnEbD0-uqftDpIzErLbMhSZw902uvxadSN1XcdG1fQQ-rQq5PL_YFLyKhn4aL9uJXCu5YiWdaNNXild9L_XPcFAFHcR1UOyiyV-bQtLSX0aHnM_ZfxaMiyK1Kvs8KWlOPKNOYJg-GcWHFC-QJsL9nys-JuNK9T4YeFlIZTdR7y5PqKiGjzGaiMpfpvHBhN8DEenFRLnwrrxwvpidKf3qgoBbBzx-rzCRemOwtwgv4wQ1NgvHyU7_UxC1L-Wnju0iF9zMiego8NyE4ocIJ02ixX9LoCOt0iDkTm55yFal5DShHrAKMD-w4sLVpht8KcFgixfXSfQeAhw4swVxG86MFcDhSgkPTBGn78xm5tgJSvscVleRl-_4vJXRhAlzTWruUmyEjTsg_2tYxNRPmctwLXjG_UfBNXjDU8XupMFU2tcwrKz_ZpPwSmDk54fDWtRhIXFwbQtvjDQ66MuaPkLOQGYTe8RJ4hCPFcjh3qEvsDqVPIZetZ6QVLNTeCedKtAmEfiPPIXmk_tueeascnHacYXogxfuAxi-OB95fcvKh23KsfLNAVKkYWlvJdDCZZ83XvX3eFfqzYhP_aQmhQo2nBlQ6G5NhYjU5HPbZeuv50vvOLAb5wHZPyFh97i9QXYhMnMxrdauL1y-_iNuGXA1FO_GzvgPjKCIz9RIfjOJjsRtLkxEUIP82G9la8y5oZAwry3R0mmbnX4QJw1G00?></g></svg>