<?plantuml 1.2026.2?><svg xmlns="http://www.w3.org/2000/svg" xmlns:xlink="http://www.w3.org/1999/xlink" contentStyleType="text/css" data-diagram-type="SEQUENCE" height="1225px" preserveAspectRatio="none" style="width:2150px;height:1225px;background:#FFFFFF;" version="1.1" viewBox="0 0 2150 1225" width="2150px" zoomAndPan="magnify"><title>Diagrama de Secuencia - Eliminar Docente (Spring Boot + React)</title><defs/><g><text fill="#000000" font-family="sans-serif" font-size="14" font-weight="bold" lengthAdjust="spacing" textLength="513.0098" x="819.9268" y="27.9951">Diagrama de Secuencia - Eliminar Docente (Spring Boot + React)</text><g><title>Frontend .React.</title><rect fill="#FFFFFF" height="985.3203" style="stroke:#181818;stroke-width:1;" width="10" x="456.876" y="149.7266"/></g><g><title>DocentesController</title><rect fill="#FFFFFF" height="679.1875" style="stroke:#181818;stroke-width:1;" width="10" x="753.7534" y="267.3906"/></g><g><title>UsuarioService</title><rect fill="#FFFFFF" height="620.9219" style="stroke:#181818;stroke-width:1;" width="10" x="984.249" y="296.5234"/></g><g><title>PreguntaService</title><rect fill="#FFFFFF" height="102.5313" style="stroke:#181818;stroke-width:1;" width="10" x="1294.6279" y="391.9219"/></g><g><title>AsignaturaService</title><rect fill="#FFFFFF" height="102.5313" style="stroke:#181818;stroke-width:1;" width="10" x="1440.0239" y="523.5859"/></g><g><title>AlumnoService</title><rect fill="#FFFFFF" height="87.3984" style="stroke:#181818;stroke-width:1;" width="10" x="1580.3716" y="655.25"/></g><g><title>GradoService</title><rect fill="#FFFFFF" height="58.2656" style="stroke:#181818;stroke-width:1;" width="10" x="1704.1387" y="771.7813"/></g><rect fill="none" height="774.3906" style="stroke:#000000;stroke-width:1.5;" width="2133.8633" x="10" y="353.6563"/><g class="participant-lifeline" data-entity-uid="part1" data-qualified-name="Admin" id="part1-lifeline"><g><title>Administrador Institucional</title><rect fill="#000000" fill-opacity="0.00000" height="1026.4531" width="8" x="113.5308" y="118.5938"/><line style="stroke:#181818;stroke-width:0.5;stroke-dasharray:5,5;" x1="117" x2="117" y1="118.5938" y2="1145.0469"/></g></g><g class="participant-lifeline" data-entity-uid="part2" data-qualified-name="FE" id="part2-lifeline"><g><title>Frontend .React.</title><rect fill="#000000" fill-opacity="0.00000" height="1026.4531" width="8" x="457.876" y="118.5938"/><line style="stroke:#181818;stroke-width:0.5;stroke-dasharray:5,5;" x1="461.5811" x2="461.5811" y1="118.5938" y2="1145.0469"/></g></g><g class="participant-lifeline" data-entity-uid="part3" data-qualified-name="Controller" id="part3-lifeline"><g><title>DocentesController</title><rect fill="#000000" fill-opacity="0.00000" height="1026.4531" width="8" x="754.7534" y="118.5938"/><line style="stroke:#181818;stroke-width:0.5;stroke-dasharray:5,5;" x1="758.2041" x2="758.2041" y1="118.5938" y2="1145.0469"/></g></g><g class="participant-lifeline" data-entity-uid="part4" data-qualified-name="Service" id="part4-lifeline"><g><title>UsuarioService</title><rect fill="#000000" fill-opacity="0.00000" height="1026.4531" width="8" x="985.249" y="118.5938"/><line style="stroke:#181818;stroke-width:0.5;stroke-dasharray:5,5;" x1="988.7764" x2="988.7764" y1="118.5938" y2="1145.0469"/></g></g><g class="participant-lifeline" data-entity-uid="part5" data-qualified-name="PreguntaService" id="part5-lifeline"><g><title>PreguntaService</title><rect fill="#000000" fill-opacity="0.00000" height="1026.4531" width="8" x="1295.6279" y="118.5938"/><line style="stroke:#181818;stroke-width:0.5;stroke-dasharray:5,5;" x1="1299.001" x2="1299.001" y1="118.5938" y2="1145.0469"/></g></g><g class="participant-lifeline" data-entity-uid="part6" data-qualified-name="AsignaturaService" id="part6-lifeline"><g><title>AsignaturaService</title><rect fill="#000000" fill-opacity="0.00000" height="1026.4531" width="8" x="1441.0239" y="118.5938"/><line style="stroke:#181818;stroke-width:0.5;stroke-dasharray:5,5;" x1="1444.2549" x2="1444.2549" y1="118.5938" y2="1145.0469"/></g></g><g class="participant-lifeline" data-entity-uid="part7" data-qualified-name="AlumnoService" id="part7-lifeline"><g><title>AlumnoService</title><rect fill="#000000" fill-opacity="0.00000" height="1026.4531" width="8" x="1581.3716" y="118.5938"/><line style="stroke:#181818;stroke-width:0.5;stroke-dasharray:5,5;" x1="1584.793" x2="1584.793" y1="118.5938" y2="1145.0469"/></g></g><g class="participant-lifeline" data-entity-uid="part8" data-qualified-name="GradoService" id="part8-lifeline"><g><title>GradoService</title><rect fill="#000000" fill-opacity="0.00000" height="1026.4531" width="8" x="1705.1387" y="118.5938"/><line style="stroke:#181818;stroke-width:0.5;stroke-dasharray:5,5;" x1="1708.9502" x2="1708.9502" y1="118.5938" y2="1145.0469"/></g></g><g class="participant-lifeline" data-entity-uid="part9" data-qualified-name="DB" id="part9-lifeline"><g><title>Base de Datos .PostgreSQL.</title><rect fill="#000000" fill-opacity="0.00000" height="1026.4531" width="8" x="2028.2002" y="118.5938"/><line style="stroke:#181818;stroke-width:0.5;stroke-dasharray:5,5;" x1="2031.5371" x2="2031.5371" y1="118.5938" y2="1145.0469"/></g></g><g class="participant participant-head" data-entity-uid="part1" data-qualified-name="Admin" id="part1-head"><text fill="#000000" font-family="sans-serif" font-size="14" lengthAdjust="spacing" textLength="189.0615" x="20" y="115.292">Administrador Institucional</text><ellipse cx="117.5308" cy="50.7969" fill="#E2E2F0" rx="8" ry="8" style="stroke:#181818;stroke-width:0.5;"/><path d="M117.5308,58.7969 L117.5308,85.7969 M104.5308,66.7969 L130.5308,66.7969 M117.5308,85.7969 L104.5308,100.7969 M117.5308,85.7969 L130.5308,100.7969" fill="none" style="stroke:#181818;stroke-width:0.5;"/></g><g class="participant participant-tail" data-entity-uid="part1" data-qualified-name="Admin" id="part1-tail"><text fill="#000000" font-family="sans-serif" font-size="14" lengthAdjust="spacing" textLength="189.0615" x="20" y="1157.042">Administrador Institucional</text><ellipse cx="117.5308" cy="1168.8438" fill="#E2E2F0" rx="8" ry="8" style="stroke:#181818;stroke-width:0.5;"/><path d="M117.5308,1176.8438 L117.5308,1203.8438 M104.5308,1184.8438 L130.5308,1184.8438 M117.5308,1203.8438 L104.5308,1218.8438 M117.5308,1203.8438 L130.5308,1218.8438" fill="none" style="stroke:#181818;stroke-width:0.5;"/></g><g class="participant participant-head" data-entity-uid="part2" data-qualified-name="FE" id="part2-head"><rect fill="#E2E2F0" height="30.2969" rx="2.5" ry="2.5" style="stroke:#181818;stroke-width:0.5;" width="132.5898" x="395.5811" y="87.2969"/><text fill="#000000" font-family="sans-serif" font-size="14" lengthAdjust="spacing" textLength="118.5898" x="402.5811" y="107.292">Frontend (React)</text></g><g class="participant participant-tail" data-entity-uid="part2" data-qualified-name="FE" id="part2-tail"><rect fill="#E2E2F0" height="30.2969" rx="2.5" ry="2.5" style="stroke:#181818;stroke-width:0.5;" width="132.5898" x="395.5811" y="1144.0469"/><text fill="#000000" font-family="sans-serif" font-size="14" lengthAdjust="spacing" textLength="118.5898" x="402.5811" y="1164.042">Frontend (React)</text></g><g class="participant participant-head" data-entity-uid="part3" data-qualified-name="Controller" id="part3-head"><rect fill="#E2E2F0" height="30.2969" rx="2.5" ry="2.5" style="stroke:#181818;stroke-width:0.5;" width="149.0986" x="684.2041" y="87.2969"/><text fill="#000000" font-family="sans-serif" font-size="14" lengthAdjust="spacing" textLength="135.0986" x="691.2041" y="107.292">DocentesController</text></g><g class="participant participant-tail" data-entity-uid="part3" data-qualified-name="Controller" id="part3-tail"><rect fill="#E2E2F0" height="30.2969" rx="2.5" ry="2.5" style="stroke:#181818;stroke-width:0.5;" width="149.0986" x="684.2041" y="1144.0469"/><text fill="#000000" font-family="sans-serif" font-size="14" lengthAdjust="spacing" textLength="135.0986" x="691.2041" y="1164.042">DocentesController</text></g><g class="participant participant-head" data-entity-uid="part4" data-qualified-name="Service" id="part4-head"><rect fill="#E2E2F0" height="30.2969" rx="2.5" ry="2.5" style="stroke:#181818;stroke-width:0.5;" width="118.9453" x="929.7764" y="87.2969"/><text fill="#000000" font-family="sans-serif" font-size="14" lengthAdjust="spacing" textLength="104.9453" x="936.7764" y="107.292">UsuarioService</text></g><g class="participant participant-tail" data-entity-uid="part4" data-qualified-name="Service" id="part4-tail"><rect fill="#E2E2F0" height="30.2969" rx="2.5" ry="2.5" style="stroke:#181818;stroke-width:0.5;" width="118.9453" x="929.7764" y="1144.0469"/><text fill="#000000" font-family="sans-serif" font-size="14" lengthAdjust="spacing" textLength="104.9453" x="936.7764" y="1164.042">UsuarioService</text></g><g class="participant participant-head" data-entity-uid="part5" data-qualified-name="PreguntaService" id="part5-head"><rect fill="#E2E2F0" height="30.2969" rx="2.5" ry="2.5" style="stroke:#181818;stroke-width:0.5;" width="129.2539" x="1235.001" y="87.2969"/><text fill="#000000" font-family="sans-serif" font-size="14" lengthAdjust="spacing" textLength="115.2539" x="1242.001" y="107.292">PreguntaService</text></g><g class="participant participant-tail" data-entity-uid="part5" data-qualified-name="PreguntaService" id="part5-tail"><rect fill="#E2E2F0" height="30.2969" rx="2.5" ry="2.5" style="stroke:#181818;stroke-width:0.5;" width="129.2539" x="1235.001" y="1144.0469"/><text fill="#000000" font-family="sans-serif" font-size="14" lengthAdjust="spacing" textLength="115.2539" x="1242.001" y="1164.042">PreguntaService</text></g><g class="participant participant-head" data-entity-uid="part6" data-qualified-name="AsignaturaService" id="part6-head"><rect fill="#E2E2F0" height="30.2969" rx="2.5" ry="2.5" style="stroke:#181818;stroke-width:0.5;" width="141.5381" x="1374.2549" y="87.2969"/><text fill="#000000" font-family="sans-serif" font-size="14" lengthAdjust="spacing" textLength="127.5381" x="1381.2549" y="107.292">AsignaturaService</text></g><g class="participant participant-tail" data-entity-uid="part6" data-qualified-name="AsignaturaService" id="part6-tail"><rect fill="#E2E2F0" height="30.2969" rx="2.5" ry="2.5" style="stroke:#181818;stroke-width:0.5;" width="141.5381" x="1374.2549" y="1144.0469"/><text fill="#000000" font-family="sans-serif" font-size="14" lengthAdjust="spacing" textLength="127.5381" x="1381.2549" y="1164.042">AsignaturaService</text></g><g class="participant participant-head" data-entity-uid="part7" data-qualified-name="AlumnoService" id="part7-head"><rect fill="#E2E2F0" height="30.2969" rx="2.5" ry="2.5" style="stroke:#181818;stroke-width:0.5;" width="119.1572" x="1525.793" y="87.2969"/><text fill="#000000" font-family="sans-serif" font-size="14" lengthAdjust="spacing" textLength="105.1572" x="1532.793" y="107.292">AlumnoService</text></g><g class="participant participant-tail" data-entity-uid="part7" data-qualified-name="AlumnoService" id="part7-tail"><rect fill="#E2E2F0" height="30.2969" rx="2.5" ry="2.5" style="stroke:#181818;stroke-width:0.5;" width="119.1572" x="1525.793" y="1144.0469"/><text fill="#000000" font-family="sans-serif" font-size="14" lengthAdjust="spacing" textLength="105.1572" x="1532.793" y="1164.042">AlumnoService</text></g><g class="participant participant-head" data-entity-uid="part8" data-qualified-name="GradoService" id="part8-head"><rect fill="#E2E2F0" height="30.2969" rx="2.5" ry="2.5" style="stroke:#181818;stroke-width:0.5;" width="108.377" x="1654.9502" y="87.2969"/><text fill="#000000" font-family="sans-serif" font-size="14" lengthAdjust="spacing" textLength="94.377" x="1661.9502" y="107.292">GradoService</text></g><g class="participant participant-tail" data-entity-uid="part8" data-qualified-name="GradoService" id="part8-tail"><rect fill="#E2E2F0" height="30.2969" rx="2.5" ry="2.5" style="stroke:#181818;stroke-width:0.5;" width="108.377" x="1654.9502" y="1144.0469"/><text fill="#000000" font-family="sans-serif" font-size="14" lengthAdjust="spacing" textLength="94.377" x="1661.9502" y="1164.042">GradoService</text></g><g class="participant participant-head" data-entity-uid="part9" data-qualified-name="DB" id="part9-head"><text fill="#000000" font-family="sans-serif" font-size="14" lengthAdjust="spacing" textLength="197.3262" x="1930.5371" y="115.292">Base de Datos (PostgreSQL)</text><path d="M2014.2002,66.2969 C2014.2002,56.2969 2032.2002,56.2969 2032.2002,56.2969 C2032.2002,56.2969 2050.2002,56.2969 2050.2002,66.2969 L2050.2002,92.2969 C2050.2002,102.2969 2032.2002,102.2969 2032.2002,102.2969 C2032.2002,102.2969 2014.2002,102.2969 2014.2002,92.2969 L2014.2002,66.2969" fill="#E2E2F0" style="stroke:#181818;stroke-width:0.5;"/><path d="M2014.2002,66.2969 C2014.2002,76.2969 2032.2002,76.2969 2032.2002,76.2969 C2032.2002,76.2969 2050.2002,76.2969 2050.2002,66.2969" fill="none" style="stroke:#181818;stroke-width:0.5;"/></g><g class="participant participant-tail" data-entity-uid="part9" data-qualified-name="DB" id="part9-tail"><text fill="#000000" font-family="sans-serif" font-size="14" lengthAdjust="spacing" textLength="197.3262" x="1930.5371" y="1157.042">Base de Datos (PostgreSQL)</text><path d="M2014.2002,1170.3438 C2014.2002,1160.3438 2032.2002,1160.3438 2032.2002,1160.3438 C2032.2002,1160.3438 2050.2002,1160.3438 2050.2002,1170.3438 L2050.2002,1196.3438 C2050.2002,1206.3438 2032.2002,1206.3438 2032.2002,1206.3438 C2032.2002,1206.3438 2014.2002,1206.3438 2014.2002,1196.3438 L2014.2002,1170.3438" fill="#E2E2F0" style="stroke:#181818;stroke-width:0.5;"/><path d="M2014.2002,1170.3438 C2014.2002,1180.3438 2032.2002,1180.3438 2032.2002,1180.3438 C2032.2002,1180.3438 2050.2002,1180.3438 2050.2002,1170.3438" fill="none" style="stroke:#181818;stroke-width:0.5;"/></g><g><title>Frontend .React.</title><rect fill="#FFFFFF" height="985.3203" style="stroke:#181818;stroke-width:1;" width="10" x="456.876" y="149.7266"/></g><g><title>DocentesController</title><rect fill="#FFFFFF" height="679.1875" style="stroke:#181818;stroke-width:1;" width="10" x="753.7534" y="267.3906"/></g><g><title>UsuarioService</title><rect fill="#FFFFFF" height="620.9219" style="stroke:#181818;stroke-width:1;" width="10" x="984.249" y="296.5234"/></g><g><title>PreguntaService</title><rect fill="#FFFFFF" height="102.5313" style="stroke:#181818;stroke-width:1;" width="10" x="1294.6279" y="391.9219"/></g><g><title>AsignaturaService</title><rect fill="#FFFFFF" height="102.5313" style="stroke:#181818;stroke-width:1;" width="10" x="1440.0239" y="523.5859"/></g><g><title>AlumnoService</title><rect fill="#FFFFFF" height="87.3984" style="stroke:#181818;stroke-width:1;" width="10" x="1580.3716" y="655.25"/></g><g><title>GradoService</title><rect fill="#FFFFFF" height="58.2656" style="stroke:#181818;stroke-width:1;" width="10" x="1704.1387" y="771.7813"/></g><g class="message" data-entity-1="part1" data-entity-2="part2" id="msg1"><polygon fill="#181818" points="444.876,145.7266,454.876,149.7266,444.876,153.7266,448.876,149.7266" style="stroke:#181818;stroke-width:1;"/><line style="stroke:#181818;stroke-width:1;" x1="117.5308" x2="450.876" y1="149.7266" y2="149.7266"/><text fill="#000000" font-family="sans-serif" font-size="13" lengthAdjust="spacing" textLength="192.2197" x="124.5308" y="144.6606">Clic en "Eliminar" (docenteId)</text></g><g class="message" data-entity-1="part2" data-entity-2="part1" id="msg2"><polygon fill="#181818" points="128.5308,189.9922,118.5308,193.9922,128.5308,197.9922,124.5308,193.9922" style="stroke:#181818;stroke-width:1;"/><line style="stroke:#181818;stroke-width:1;stroke-dasharray:2,2;" x1="122.5308" x2="455.876" y1="193.9922" y2="193.9922"/><text fill="#000000" font-family="sans-serif" font-size="13" lengthAdjust="spacing" textLength="203.728" x="134.5308" y="173.7935">Mostrar Modal de Confirmaci&#243;n</text><text fill="#000000" font-family="sans-serif" font-size="13" lengthAdjust="spacing" textLength="126.9976" x="134.5308" y="188.9263">(datos del docente)</text></g><g class="message" data-entity-1="part1" data-entity-2="part2" id="msg3"><polygon fill="#181818" points="444.876,219.125,454.876,223.125,444.876,227.125,448.876,223.125" style="stroke:#181818;stroke-width:1;"/><line style="stroke:#181818;stroke-width:1;" x1="117.5308" x2="450.876" y1="223.125" y2="223.125"/><text fill="#000000" font-family="sans-serif" font-size="13" lengthAdjust="spacing" textLength="138.2202" x="124.5308" y="218.0591">Confirma eliminaci&#243;n</text></g><g class="message" data-entity-1="part2" data-entity-2="part3" id="msg4"><polygon fill="#181818" points="741.7534,263.3906,751.7534,267.3906,741.7534,271.3906,745.7534,267.3906" style="stroke:#181818;stroke-width:1;"/><line style="stroke:#181818;stroke-width:1;" x1="466.876" x2="747.7534" y1="267.3906" y2="267.3906"/><text fill="#000000" font-family="sans-serif" font-size="13" lengthAdjust="spacing" textLength="227.7095" x="473.876" y="247.1919">DELETE /api/docentes/{docenteId}</text><text fill="#000000" font-family="sans-serif" font-size="13" lengthAdjust="spacing" textLength="267.8774" x="473.876" y="262.3247">(Header: Authorization: Bearer &lt;token&gt;)</text></g><g class="message" data-entity-1="part3" data-entity-2="part4" id="msg5"><polygon fill="#181818" points="972.249,292.5234,982.249,296.5234,972.249,300.5234,976.249,296.5234" style="stroke:#181818;stroke-width:1;"/><line style="stroke:#181818;stroke-width:1;" x1="763.7534" x2="978.249" y1="296.5234" y2="296.5234"/><text fill="#000000" font-family="sans-serif" font-size="13" lengthAdjust="spacing" textLength="182.4063" x="770.7534" y="291.4575">eliminarDocente(docenteId)</text></g><g class="message" data-entity-1="part4" data-entity-2="part4" id="msg6"><line style="stroke:#181818;stroke-width:1;" x1="994.249" x2="1036.249" y1="325.6563" y2="325.6563"/><line style="stroke:#181818;stroke-width:1;" x1="1036.249" x2="1036.249" y1="325.6563" y2="338.6563"/><line style="stroke:#181818;stroke-width:1;" x1="995.249" x2="1036.249" y1="338.6563" y2="338.6563"/><polygon fill="#181818" points="1005.249,334.6563,995.249,338.6563,1005.249,342.6563,1001.249,338.6563" style="stroke:#181818;stroke-width:1;"/><text fill="#000000" font-family="sans-serif" font-size="13" lengthAdjust="spacing" textLength="194.562" x="1001.249" y="320.5903">verificarExistencia(docenteId)</text></g><path d="M10,353.6563 L74.4429,353.6563 L74.4429,360.7891 L64.4429,370.7891 L10,370.7891 L10,353.6563" fill="#EEEEEE" style="stroke:#000000;stroke-width:1.5;"/><rect fill="none" height="774.3906" style="stroke:#000000;stroke-width:1.5;" width="2133.8633" x="10" y="353.6563"/><text fill="#000000" font-family="sans-serif" font-size="13" font-weight="bold" lengthAdjust="spacing" textLength="19.4429" x="25" y="366.7231">alt</text><text fill="#000000" font-family="sans-serif" font-size="11" font-weight="bold" lengthAdjust="spacing" textLength="102.749" x="89.4429" y="365.8667">[Docente Existe]</text><g class="message" data-entity-1="part4" data-entity-2="part5" id="msg7"><polygon fill="#181818" points="1282.6279,387.9219,1292.6279,391.9219,1282.6279,395.9219,1286.6279,391.9219" style="stroke:#181818;stroke-width:1;"/><line style="stroke:#181818;stroke-width:1;" x1="994.249" x2="1288.6279" y1="391.9219" y2="391.9219"/><text fill="#000000" font-family="sans-serif" font-size="13" lengthAdjust="spacing" textLength="281.3789" x="1001.249" y="386.856">eliminarPreguntasPorDocenteId(docenteId)</text></g><g class="message" data-entity-1="part5" data-entity-2="part9" id="msg8"><polygon fill="#181818" points="2020.2002,432.1875,2030.2002,436.1875,2020.2002,440.1875,2024.2002,436.1875" style="stroke:#181818;stroke-width:1;"/><line style="stroke:#181818;stroke-width:1;" x1="1304.6279" x2="2026.2002" y1="436.1875" y2="436.1875"/><text fill="#000000" font-family="sans-serif" font-size="13" lengthAdjust="spacing" textLength="315.6816" x="1311.6279" y="415.9888">DELETE FROM preguntas WHERE docente_id = ?</text><text fill="#000000" font-family="sans-serif" font-size="13" lengthAdjust="spacing" textLength="277.4624" x="1311.6279" y="431.1216">(CASCADE elimina respuestas en cascada)</text></g><g class="message" data-entity-1="part9" data-entity-2="part5" id="msg9"><polygon fill="#181818" points="1315.6279,461.3203,1305.6279,465.3203,1315.6279,469.3203,1311.6279,465.3203" style="stroke:#181818;stroke-width:1;"/><line style="stroke:#181818;stroke-width:1;stroke-dasharray:2,2;" x1="1309.6279" x2="2031.2002" y1="465.3203" y2="465.3203"/><text fill="#000000" font-family="sans-serif" font-size="13" lengthAdjust="spacing" textLength="18.7573" x="1321.6279" y="460.2544">OK</text></g><g class="message" data-entity-1="part5" data-entity-2="part4" id="msg10"><polygon fill="#181818" points="1005.249,490.4531,995.249,494.4531,1005.249,498.4531,1001.249,494.4531" style="stroke:#181818;stroke-width:1;"/><line style="stroke:#181818;stroke-width:1;stroke-dasharray:2,2;" x1="999.249" x2="1298.6279" y1="494.4531" y2="494.4531"/><text fill="#000000" font-family="sans-serif" font-size="13" lengthAdjust="spacing" textLength="27.5107" x="1011.249" y="489.3872">void</text></g><g class="message" data-entity-1="part4" data-entity-2="part6" id="msg11"><polygon fill="#181818" points="1428.0239,519.5859,1438.0239,523.5859,1428.0239,527.5859,1432.0239,523.5859" style="stroke:#181818;stroke-width:1;"/><line style="stroke:#181818;stroke-width:1;" x1="994.249" x2="1434.0239" y1="523.5859" y2="523.5859"/><text fill="#000000" font-family="sans-serif" font-size="13" lengthAdjust="spacing" textLength="292.7856" x="1001.249" y="518.52">eliminarAsignaturasPorDocenteId(docenteId)</text></g><g class="message" data-entity-1="part6" data-entity-2="part9" id="msg12"><polygon fill="#181818" points="2020.2002,563.8516,2030.2002,567.8516,2020.2002,571.8516,2024.2002,567.8516" style="stroke:#181818;stroke-width:1;"/><line style="stroke:#181818;stroke-width:1;" x1="1450.0239" x2="2026.2002" y1="567.8516" y2="567.8516"/><text fill="#000000" font-family="sans-serif" font-size="13" lengthAdjust="spacing" textLength="325.749" x="1457.0239" y="547.6528">DELETE FROM asignaturas WHERE docente_id = ?</text><text fill="#000000" font-family="sans-serif" font-size="13" lengthAdjust="spacing" textLength="271.8193" x="1457.0239" y="562.7856">(Limpia relaciones con grados y alumnos)</text></g><g class="message" data-entity-1="part9" data-entity-2="part6" id="msg13"><polygon fill="#181818" points="1461.0239,592.9844,1451.0239,596.9844,1461.0239,600.9844,1457.0239,596.9844" style="stroke:#181818;stroke-width:1;"/><line style="stroke:#181818;stroke-width:1;stroke-dasharray:2,2;" x1="1455.0239" x2="2031.2002" y1="596.9844" y2="596.9844"/><text fill="#000000" font-family="sans-serif" font-size="13" lengthAdjust="spacing" textLength="18.7573" x="1467.0239" y="591.9185">OK</text></g><g class="message" data-entity-1="part6" data-entity-2="part4" id="msg14"><polygon fill="#181818" points="1005.249,622.1172,995.249,626.1172,1005.249,630.1172,1001.249,626.1172" style="stroke:#181818;stroke-width:1;"/><line style="stroke:#181818;stroke-width:1;stroke-dasharray:2,2;" x1="999.249" x2="1444.0239" y1="626.1172" y2="626.1172"/><text fill="#000000" font-family="sans-serif" font-size="13" lengthAdjust="spacing" textLength="27.5107" x="1011.249" y="621.0513">void</text></g><g class="message" data-entity-1="part4" data-entity-2="part7" id="msg15"><polygon fill="#181818" points="1568.3716,651.25,1578.3716,655.25,1568.3716,659.25,1572.3716,655.25" style="stroke:#181818;stroke-width:1;"/><line style="stroke:#181818;stroke-width:1;" x1="994.249" x2="1574.3716" y1="655.25" y2="655.25"/><text fill="#000000" font-family="sans-serif" font-size="13" lengthAdjust="spacing" textLength="272.0034" x="1001.249" y="650.1841">eliminarAlumnosPorDocenteId(docenteId)</text></g><g class="message" data-entity-1="part7" data-entity-2="part9" id="msg16"><polygon fill="#181818" points="2020.2002,680.3828,2030.2002,684.3828,2020.2002,688.3828,2024.2002,684.3828" style="stroke:#181818;stroke-width:1;"/><line style="stroke:#181818;stroke-width:1;" x1="1590.3716" x2="2026.2002" y1="684.3828" y2="684.3828"/><text fill="#000000" font-family="sans-serif" font-size="13" lengthAdjust="spacing" textLength="304.9668" x="1597.3716" y="679.3169">DELETE FROM alumnos WHERE docente_id = ?</text></g><g class="message" data-entity-1="part9" data-entity-2="part7" id="msg17"><polygon fill="#181818" points="1601.3716,709.5156,1591.3716,713.5156,1601.3716,717.5156,1597.3716,713.5156" style="stroke:#181818;stroke-width:1;"/><line style="stroke:#181818;stroke-width:1;stroke-dasharray:2,2;" x1="1595.3716" x2="2031.2002" y1="713.5156" y2="713.5156"/><text fill="#000000" font-family="sans-serif" font-size="13" lengthAdjust="spacing" textLength="18.7573" x="1607.3716" y="708.4497">OK</text></g><g class="message" data-entity-1="part7" data-entity-2="part4" id="msg18"><polygon fill="#181818" points="1005.249,738.6484,995.249,742.6484,1005.249,746.6484,1001.249,742.6484" style="stroke:#181818;stroke-width:1;"/><line style="stroke:#181818;stroke-width:1;stroke-dasharray:2,2;" x1="999.249" x2="1584.3716" y1="742.6484" y2="742.6484"/><text fill="#000000" font-family="sans-serif" font-size="13" lengthAdjust="spacing" textLength="27.5107" x="1011.249" y="737.5825">void</text></g><g class="message" data-entity-1="part4" data-entity-2="part8" id="msg19"><polygon fill="#181818" points="1692.1387,767.7813,1702.1387,771.7813,1692.1387,775.7813,1696.1387,771.7813" style="stroke:#181818;stroke-width:1;"/><line style="stroke:#181818;stroke-width:1;" x1="994.249" x2="1698.1387" y1="771.7813" y2="771.7813"/><text fill="#000000" font-family="sans-serif" font-size="13" lengthAdjust="spacing" textLength="261.9932" x="1001.249" y="766.7153">eliminarGradosPorDocenteId(docenteId)</text></g><g class="message" data-entity-1="part8" data-entity-2="part9" id="msg20"><polygon fill="#181818" points="2020.2002,796.9141,2030.2002,800.9141,2020.2002,804.9141,2024.2002,800.9141" style="stroke:#181818;stroke-width:1;"/><line style="stroke:#181818;stroke-width:1;" x1="1714.1387" x2="2026.2002" y1="800.9141" y2="800.9141"/><text fill="#000000" font-family="sans-serif" font-size="13" lengthAdjust="spacing" textLength="294.0615" x="1721.1387" y="795.8481">DELETE FROM grados WHERE docente_id = ?</text></g><g class="message" data-entity-1="part8" data-entity-2="part4" id="msg21"><polygon fill="#181818" points="1005.249,826.0469,995.249,830.0469,1005.249,834.0469,1001.249,830.0469" style="stroke:#181818;stroke-width:1;"/><line style="stroke:#181818;stroke-width:1;stroke-dasharray:2,2;" x1="999.249" x2="1708.1387" y1="830.0469" y2="830.0469"/><text fill="#000000" font-family="sans-serif" font-size="13" lengthAdjust="spacing" textLength="27.5107" x="1011.249" y="824.981">void</text></g><g class="message" data-entity-1="part4" data-entity-2="part9" id="msg22"><polygon fill="#181818" points="2020.2002,855.1797,2030.2002,859.1797,2020.2002,863.1797,2024.2002,859.1797" style="stroke:#181818;stroke-width:1;"/><line style="stroke:#181818;stroke-width:1;" x1="994.249" x2="2026.2002" y1="859.1797" y2="859.1797"/><text fill="#000000" font-family="sans-serif" font-size="13" lengthAdjust="spacing" textLength="245.2354" x="1001.249" y="854.1138">DELETE FROM usuarios WHERE id = ?</text></g><g class="message" data-entity-1="part9" data-entity-2="part4" id="msg23"><polygon fill="#181818" points="1005.249,884.3125,995.249,888.3125,1005.249,892.3125,1001.249,888.3125" style="stroke:#181818;stroke-width:1;"/><line style="stroke:#181818;stroke-width:1;stroke-dasharray:2,2;" x1="999.249" x2="2031.2002" y1="888.3125" y2="888.3125"/><text fill="#000000" font-family="sans-serif" font-size="13" lengthAdjust="spacing" textLength="18.7573" x="1011.249" y="883.2466">OK</text></g><g class="message" data-entity-1="part4" data-entity-2="part3" id="msg24"><polygon fill="#181818" points="774.7534,913.4453,764.7534,917.4453,774.7534,921.4453,770.7534,917.4453" style="stroke:#181818;stroke-width:1;"/><line style="stroke:#181818;stroke-width:1;stroke-dasharray:2,2;" x1="768.7534" x2="988.249" y1="917.4453" y2="917.4453"/><text fill="#000000" font-family="sans-serif" font-size="13" lengthAdjust="spacing" textLength="27.5107" x="780.7534" y="912.3794">void</text></g><g class="message" data-entity-1="part3" data-entity-2="part2" id="msg25"><polygon fill="#181818" points="477.876,942.5781,467.876,946.5781,477.876,950.5781,473.876,946.5781" style="stroke:#181818;stroke-width:1;"/><line style="stroke:#181818;stroke-width:1;stroke-dasharray:2,2;" x1="471.876" x2="757.7534" y1="946.5781" y2="946.5781"/><text fill="#000000" font-family="sans-serif" font-size="13" lengthAdjust="spacing" textLength="102.4575" x="483.876" y="941.5122">204 No Content</text></g><g class="message" data-entity-1="part2" data-entity-2="part2" id="msg26"><line style="stroke:#181818;stroke-width:1;" x1="466.876" x2="508.876" y1="975.7109" y2="975.7109"/><line style="stroke:#181818;stroke-width:1;" x1="508.876" x2="508.876" y1="975.7109" y2="988.7109"/><line style="stroke:#181818;stroke-width:1;" x1="467.876" x2="508.876" y1="988.7109" y2="988.7109"/><polygon fill="#181818" points="477.876,984.7109,467.876,988.7109,477.876,992.7109,473.876,988.7109" style="stroke:#181818;stroke-width:1;"/><text fill="#000000" font-family="sans-serif" font-size="13" lengthAdjust="spacing" textLength="239.2939" x="473.876" y="970.645">Remover de la lista (actualizar vista)</text></g><g class="message" data-entity-1="part2" data-entity-2="part1" id="msg27"><polygon fill="#181818" points="128.5308,1013.8438,118.5308,1017.8438,128.5308,1021.8438,124.5308,1017.8438" style="stroke:#181818;stroke-width:1;"/><line style="stroke:#181818;stroke-width:1;stroke-dasharray:2,2;" x1="122.5308" x2="455.876" y1="1017.8438" y2="1017.8438"/><text fill="#000000" font-family="sans-serif" font-size="13" lengthAdjust="spacing" textLength="315.3452" x="134.5308" y="1012.7778">Notificaci&#243;n "Docente eliminado correctamente"</text></g><line style="stroke:#000000;stroke-width:1;stroke-dasharray:2,2;" x1="10" x2="2143.8633" y1="1026.8438" y2="1026.8438"/><text fill="#000000" font-family="sans-serif" font-size="11" font-weight="bold" lengthAdjust="spacing" textLength="123.3418" x="15" y="1037.0542">[Docente No Existe]</text><g class="message" data-entity-1="part4" data-entity-2="part3" id="msg28"><polygon fill="#181818" points="769.7534,1057.7813,759.7534,1061.7813,769.7534,1065.7813,765.7534,1061.7813" style="stroke:#181818;stroke-width:1;"/><line style="stroke:#181818;stroke-width:1;stroke-dasharray:2,2;" x1="763.7534" x2="988.249" y1="1061.7813" y2="1061.7813"/><text fill="#000000" font-family="sans-serif" font-size="13" lengthAdjust="spacing" textLength="206.4956" x="775.7534" y="1056.7153">throw EntityNotFoundException</text></g><g class="message" data-entity-1="part3" data-entity-2="part2" id="msg29"><polygon fill="#181818" points="477.876,1086.9141,467.876,1090.9141,477.876,1094.9141,473.876,1090.9141" style="stroke:#181818;stroke-width:1;"/><line style="stroke:#181818;stroke-width:1;stroke-dasharray:2,2;" x1="471.876" x2="757.7534" y1="1090.9141" y2="1090.9141"/><text fill="#000000" font-family="sans-serif" font-size="13" lengthAdjust="spacing" textLength="96.0146" x="483.876" y="1085.8481">404 Not Found</text></g><g class="message" data-entity-1="part2" data-entity-2="part1" id="msg30"><polygon fill="#181818" points="128.5308,1116.0469,118.5308,1120.0469,128.5308,1124.0469,124.5308,1120.0469" style="stroke:#181818;stroke-width:1;"/><line style="stroke:#181818;stroke-width:1;stroke-dasharray:2,2;" x1="122.5308" x2="455.876" y1="1120.0469" y2="1120.0469"/><text fill="#000000" font-family="sans-serif" font-size="13" lengthAdjust="spacing" textLength="255.2139" x="134.5308" y="1114.981">Mostrar Error "Docente no encontrado"</text></g><?plantuml-src bPRTRjCm583lynH7kMg5fY6qgmg6sYPb4_kZ1N63X0wsrrcaTcGxOu1uAXw15yDsaiPECbPwqQR7v_UpVKuCDmM3ZEDMuGw1CjWmKZ51EC8Hv0NVSO4ACacOC0mccr9niOM5b0QUmPeXCTCaiTzIGJgdLfjhev3Ql-T26sugmgN08WNKuDUJ4fNXX9Se3AGh9QrVGM5I-_9wgpnMQgBhfTLLiYYOychTtrZzWwvGSRbXwfuJvbMRvrZlHh5j9Go6YZrPR33NV2lGL2eo6KXxHaMr4r4oaIHMVkFGXRgX8A5ey0jg1kd2VTlDoj183PCRgSrMiSsxYnfWjaWI3nkEJYtD6ImBJe09IDiTJM52QwhdTEhsZz-ZtLzBVfN3aRNovZEub6uxbVsbMBY85lejLpia_CzlyKbCgC-0ChjO-vls8ZVwmEh8tiu7EGqsS0PPVf6_p-4OItxSUDB7F_Sv_hAXpXXIfpglp9rK_0SQUxHci62ec8ANHdvbuZGe9ZWVtQEBs_2SjJcfve2D8cdX9yr3vE2UANxB2QhymPvxVsr29maMPdztQfKa0Vi9VFLEN9TKkw1lP9lWEGszEqVxDFi7rotsP2vQjjYZNgslBw5iWy37itoTjvlucLDu1QyjzELyivndUPiLAARBYcbdOSyJGKsGOfrBjl0dPr3GzTlnR2AGabElHTcZ9VN93IvUnwvREepUy0wxvO5qZ21seHvZUC5t9NVe2dJTa6aWKi3MNMqDtm5zFz0Hn97Q6emZIJq5SbZT06NOaWACTMQ78Oowciyqb8oYgzsFOejWnDcr86BtJqA8yki32FjiLx-N7bP-rAZTIYWOAxxP_aThZ-sVgYuAto-k7xgg1sGRV0WyH1qxwtNjiLH2267VRGR2Y-SdS2NzYYsvRnpqRBTIpmbdjcOxQRkj6q45Gc5RASB4cbLOs4cWuDv9fdkZRe9TIUDRj1yy-tU9Tekfj7THAKOCxfmyJH9MsDdQgjbCcxxzBmpcJibla0lxllFTnbl9Ij3yWR3IJQZ_v7FY-HZmJWx0CvpLkLBkRQmjGKZRgOapjDMcYNtPIWAFg_ml?></g></svg>