<?plantuml 1.2026.2?><svg xmlns="http://www.w3.org/2000/svg" xmlns:xlink="http://www.w3.org/1999/xlink" contentStyleType="text/css" data-diagram-type="SEQUENCE" height="1297px" preserveAspectRatio="none" style="width:2742px;height:1297px;background:#FFFFFF;" version="1.1" viewBox="0 0 2742 1297" width="2742px" zoomAndPan="magnify"><title>Diagrama de Secuencia - Crear Respuesta (Spring Boot + React)</title><defs/><g><text fill="#000000" font-family="sans-serif" font-size="14" font-weight="bold" lengthAdjust="spacing" textLength="508.5459" x="1117.7732" y="27.9951">Diagrama de Secuencia - Crear Respuesta (Spring Boot + React)</text><g><title>Frontend .React.</title><rect fill="#FFFFFF" height="1041.4531" style="stroke:#181818;stroke-width:1;" width="10" x="547.6758" y="164.8594"/></g><g><title>RespuestasController</title><rect fill="#FFFFFF" height="646.5938" style="stroke:#181818;stroke-width:1;" width="10" x="877.7749" y="339.7891"/></g><g><title>RespuestaService</title><rect fill="#FFFFFF" height="546.1953" style="stroke:#181818;stroke-width:1;" width="10" x="1227.9917" y="411.0547"/></g><g><title>PreguntaService</title><rect fill="#FFFFFF" height="202.9297" style="stroke:#181818;stroke-width:1;" width="10" x="1554.7285" y="440.1875"/></g><g><title>PreguntaRepository</title><rect fill="#FFFFFF" height="87.3984" style="stroke:#181818;stroke-width:1;" width="10" x="1814.2607" y="469.3203"/></g><g><title>RespuestaRepository</title><rect fill="#FFFFFF" height="87.3984" style="stroke:#181818;stroke-width:1;" width="10" x="1981.7744" y="840.7188"/></g><g><title>Base de Datos .PostgreSQL.</title><rect fill="#FFFFFF" height="29.1328" style="stroke:#181818;stroke-width:1;" width="10" x="2618.4292" y="498.4531"/></g><g><title>Base de Datos .PostgreSQL.</title><rect fill="#FFFFFF" height="29.1328" style="stroke:#181818;stroke-width:1;" width="10" x="2618.4292" y="869.8516"/></g><rect fill="none" height="451.7969" style="stroke:#000000;stroke-width:1.5;" width="2725.0923" x="10" y="658.1172"/><rect fill="none" height="75.3984" style="stroke:#000000;stroke-width:1.5;" width="964.6934" x="10" y="1123.9141"/><g class="participant-lifeline" data-entity-uid="part1" data-qualified-name="Teacher" id="part1-lifeline"><g><title>Docente</title><rect fill="#000000" fill-opacity="0.00000" height="1097.7188" width="8" x="48.3159" y="118.5938"/><line style="stroke:#181818;stroke-width:0.5;stroke-dasharray:5,5;" x1="52" x2="52" y1="118.5938" y2="1216.3125"/></g></g><g class="participant-lifeline" data-entity-uid="part2" data-qualified-name="FE" id="part2-lifeline"><g><title>Frontend .React.</title><rect fill="#000000" fill-opacity="0.00000" height="1097.7188" width="8" x="548.6758" y="118.5938"/><line style="stroke:#181818;stroke-width:0.5;stroke-dasharray:5,5;" x1="552.3452" x2="552.3452" y1="118.5938" y2="1216.3125"/></g></g><g class="participant-lifeline" data-entity-uid="part3" data-qualified-name="Controller" id="part3-lifeline"><g><title>RespuestasController</title><rect fill="#000000" fill-opacity="0.00000" height="1097.7188" width="8" x="878.7749" y="118.5938"/><line style="stroke:#181818;stroke-width:0.5;stroke-dasharray:5,5;" x1="881.8564" x2="881.8564" y1="118.5938" y2="1216.3125"/></g></g><g class="participant-lifeline" data-entity-uid="part4" data-qualified-name="Service" id="part4-lifeline"><g><title>RespuestaService</title><rect fill="#000000" fill-opacity="0.00000" height="1097.7188" width="8" x="1228.9917" y="118.5938"/><line style="stroke:#181818;stroke-width:0.5;stroke-dasharray:5,5;" x1="1232.436" x2="1232.436" y1="118.5938" y2="1216.3125"/></g></g><g class="participant-lifeline" data-entity-uid="part5" data-qualified-name="PreguntaService" id="part5-lifeline"><g><title>PreguntaService</title><rect fill="#000000" fill-opacity="0.00000" height="1097.7188" width="8" x="1555.7285" y="118.5938"/><line style="stroke:#181818;stroke-width:0.5;stroke-dasharray:5,5;" x1="1559.1016" x2="1559.1016" y1="118.5938" y2="1216.3125"/></g></g><g class="participant-lifeline" data-entity-uid="part6" data-qualified-name="PreguntaRepo" id="part6-lifeline"><g><title>PreguntaRepository</title><rect fill="#000000" fill-opacity="0.00000" height="1097.7188" width="8" x="1815.2607" y="118.5938"/><line style="stroke:#181818;stroke-width:0.5;stroke-dasharray:5,5;" x1="1818.9683" x2="1818.9683" y1="118.5938" y2="1216.3125"/></g></g><g class="participant-lifeline" data-entity-uid="part7" data-qualified-name="RespuestaRepo" id="part7-lifeline"><g><title>RespuestaRepository</title><rect fill="#000000" fill-opacity="0.00000" height="1097.7188" width="8" x="1982.7744" y="118.5938"/><line style="stroke:#181818;stroke-width:0.5;stroke-dasharray:5,5;" x1="1986.5532" x2="1986.5532" y1="118.5938" y2="1216.3125"/></g></g><g class="participant-lifeline" data-entity-uid="part8" data-qualified-name="DB" id="part8-lifeline"><g><title>Base de Datos .PostgreSQL.</title><rect fill="#000000" fill-opacity="0.00000" height="1097.7188" width="8" x="2619.4292" y="118.5938"/><line style="stroke:#181818;stroke-width:0.5;stroke-dasharray:5,5;" x1="2622.7661" x2="2622.7661" y1="118.5938" y2="1216.3125"/></g></g><g class="participant participant-head" data-entity-uid="part1" data-qualified-name="Teacher" id="part1-head"><text fill="#000000" font-family="sans-serif" font-size="14" lengthAdjust="spacing" textLength="58.6318" x="20" y="115.292">Docente</text><ellipse cx="52.3159" cy="50.7969" fill="#E2E2F0" rx="8" ry="8" style="stroke:#181818;stroke-width:0.5;"/><path d="M52.3159,58.7969 L52.3159,85.7969 M39.3159,66.7969 L65.3159,66.7969 M52.3159,85.7969 L39.3159,100.7969 M52.3159,85.7969 L65.3159,100.7969" fill="none" style="stroke:#181818;stroke-width:0.5;"/></g><g class="participant participant-tail" data-entity-uid="part1" data-qualified-name="Teacher" id="part1-tail"><text fill="#000000" font-family="sans-serif" font-size="14" lengthAdjust="spacing" textLength="58.6318" x="20" y="1228.3076">Docente</text><ellipse cx="52.3159" cy="1240.1094" fill="#E2E2F0" rx="8" ry="8" style="stroke:#181818;stroke-width:0.5;"/><path d="M52.3159,1248.1094 L52.3159,1275.1094 M39.3159,1256.1094 L65.3159,1256.1094 M52.3159,1275.1094 L39.3159,1290.1094 M52.3159,1275.1094 L65.3159,1290.1094" fill="none" style="stroke:#181818;stroke-width:0.5;"/></g><g class="participant participant-head" data-entity-uid="part2" data-qualified-name="FE" id="part2-head"><rect fill="#E2E2F0" height="46.5938" rx="2.5" ry="2.5" style="stroke:#181818;stroke-width:0.5;" width="204.6611" x="450.3452" y="71"/><text fill="#000000" font-family="sans-serif" font-size="14" lengthAdjust="spacing" textLength="118.5898" x="493.3809" y="90.9951">Frontend (React)</text><text fill="#000000" font-family="sans-serif" font-size="14" lengthAdjust="spacing" textLength="190.6611" x="457.3452" y="107.292">RespuestaFormComponent</text></g><g class="participant participant-tail" data-entity-uid="part2" data-qualified-name="FE" id="part2-tail"><rect fill="#E2E2F0" height="46.5938" rx="2.5" ry="2.5" style="stroke:#181818;stroke-width:0.5;" width="204.6611" x="450.3452" y="1215.3125"/><text fill="#000000" font-family="sans-serif" font-size="14" lengthAdjust="spacing" textLength="118.5898" x="493.3809" y="1235.3076">Frontend (React)</text><text fill="#000000" font-family="sans-serif" font-size="14" lengthAdjust="spacing" textLength="190.6611" x="457.3452" y="1251.6045">RespuestaFormComponent</text></g><g class="participant participant-head" data-entity-uid="part3" data-qualified-name="Controller" id="part3-head"><rect fill="#E2E2F0" height="30.2969" rx="2.5" ry="2.5" style="stroke:#181818;stroke-width:0.5;" width="163.8369" x="800.8564" y="87.2969"/><text fill="#000000" font-family="sans-serif" font-size="14" lengthAdjust="spacing" textLength="149.8369" x="807.8564" y="107.292">RespuestasController</text></g><g class="participant participant-tail" data-entity-uid="part3" data-qualified-name="Controller" id="part3-tail"><rect fill="#E2E2F0" height="30.2969" rx="2.5" ry="2.5" style="stroke:#181818;stroke-width:0.5;" width="163.8369" x="800.8564" y="1215.3125"/><text fill="#000000" font-family="sans-serif" font-size="14" lengthAdjust="spacing" textLength="149.8369" x="807.8564" y="1235.3076">RespuestasController</text></g><g class="participant participant-head" data-entity-uid="part4" data-qualified-name="Service" id="part4-head"><rect fill="#E2E2F0" height="30.2969" rx="2.5" ry="2.5" style="stroke:#181818;stroke-width:0.5;" width="139.1113" x="1163.436" y="87.2969"/><text fill="#000000" font-family="sans-serif" font-size="14" lengthAdjust="spacing" textLength="125.1113" x="1170.436" y="107.292">RespuestaService</text></g><g class="participant participant-tail" data-entity-uid="part4" data-qualified-name="Service" id="part4-tail"><rect fill="#E2E2F0" height="30.2969" rx="2.5" ry="2.5" style="stroke:#181818;stroke-width:0.5;" width="139.1113" x="1163.436" y="1215.3125"/><text fill="#000000" font-family="sans-serif" font-size="14" lengthAdjust="spacing" textLength="125.1113" x="1170.436" y="1235.3076">RespuestaService</text></g><g class="participant participant-head" data-entity-uid="part5" data-qualified-name="PreguntaService" id="part5-head"><rect fill="#E2E2F0" height="30.2969" rx="2.5" ry="2.5" style="stroke:#181818;stroke-width:0.5;" width="129.2539" x="1495.1016" y="87.2969"/><text fill="#000000" font-family="sans-serif" font-size="14" lengthAdjust="spacing" textLength="115.2539" x="1502.1016" y="107.292">PreguntaService</text></g><g class="participant participant-tail" data-entity-uid="part5" data-qualified-name="PreguntaService" id="part5-tail"><rect fill="#E2E2F0" height="30.2969" rx="2.5" ry="2.5" style="stroke:#181818;stroke-width:0.5;" width="129.2539" x="1495.1016" y="1215.3125"/><text fill="#000000" font-family="sans-serif" font-size="14" lengthAdjust="spacing" textLength="115.2539" x="1502.1016" y="1235.3076">PreguntaService</text></g><g class="participant participant-head" data-entity-uid="part6" data-qualified-name="PreguntaRepo" id="part6-head"><rect fill="#E2E2F0" height="30.2969" rx="2.5" ry="2.5" style="stroke:#181818;stroke-width:0.5;" width="152.585" x="1742.9683" y="87.2969"/><text fill="#000000" font-family="sans-serif" font-size="14" lengthAdjust="spacing" textLength="138.585" x="1749.9683" y="107.292">PreguntaRepository</text></g><g class="participant participant-tail" data-entity-uid="part6" data-qualified-name="PreguntaRepo" id="part6-tail"><rect fill="#E2E2F0" height="30.2969" rx="2.5" ry="2.5" style="stroke:#181818;stroke-width:0.5;" width="152.585" x="1742.9683" y="1215.3125"/><text fill="#000000" font-family="sans-serif" font-size="14" lengthAdjust="spacing" textLength="138.585" x="1749.9683" y="1235.3076">PreguntaRepository</text></g><g class="participant participant-head" data-entity-uid="part7" data-qualified-name="RespuestaRepo" id="part7-head"><rect fill="#E2E2F0" height="30.2969" rx="2.5" ry="2.5" style="stroke:#181818;stroke-width:0.5;" width="162.4424" x="1905.5532" y="87.2969"/><text fill="#000000" font-family="sans-serif" font-size="14" lengthAdjust="spacing" textLength="148.4424" x="1912.5532" y="107.292">RespuestaRepository</text></g><g class="participant participant-tail" data-entity-uid="part7" data-qualified-name="RespuestaRepo" id="part7-tail"><rect fill="#E2E2F0" height="30.2969" rx="2.5" ry="2.5" style="stroke:#181818;stroke-width:0.5;" width="162.4424" x="1905.5532" y="1215.3125"/><text fill="#000000" font-family="sans-serif" font-size="14" lengthAdjust="spacing" textLength="148.4424" x="1912.5532" y="1235.3076">RespuestaRepository</text></g><g class="participant participant-head" data-entity-uid="part8" data-qualified-name="DB" id="part8-head"><text fill="#000000" font-family="sans-serif" font-size="14" lengthAdjust="spacing" textLength="197.3262" x="2521.7661" y="115.292">Base de Datos (PostgreSQL)</text><path d="M2605.4292,66.2969 C2605.4292,56.2969 2623.4292,56.2969 2623.4292,56.2969 C2623.4292,56.2969 2641.4292,56.2969 2641.4292,66.2969 L2641.4292,92.2969 C2641.4292,102.2969 2623.4292,102.2969 2623.4292,102.2969 C2623.4292,102.2969 2605.4292,102.2969 2605.4292,92.2969 L2605.4292,66.2969" fill="#E2E2F0" style="stroke:#181818;stroke-width:0.5;"/><path d="M2605.4292,66.2969 C2605.4292,76.2969 2623.4292,76.2969 2623.4292,76.2969 C2623.4292,76.2969 2641.4292,76.2969 2641.4292,66.2969" fill="none" style="stroke:#181818;stroke-width:0.5;"/></g><g class="participant participant-tail" data-entity-uid="part8" data-qualified-name="DB" id="part8-tail"><text fill="#000000" font-family="sans-serif" font-size="14" lengthAdjust="spacing" textLength="197.3262" x="2521.7661" y="1228.3076">Base de Datos (PostgreSQL)</text><path d="M2605.4292,1241.6094 C2605.4292,1231.6094 2623.4292,1231.6094 2623.4292,1231.6094 C2623.4292,1231.6094 2641.4292,1231.6094 2641.4292,1241.6094 L2641.4292,1267.6094 C2641.4292,1277.6094 2623.4292,1277.6094 2623.4292,1277.6094 C2623.4292,1277.6094 2605.4292,1277.6094 2605.4292,1267.6094 L2605.4292,1241.6094" fill="#E2E2F0" style="stroke:#181818;stroke-width:0.5;"/><path d="M2605.4292,1241.6094 C2605.4292,1251.6094 2623.4292,1251.6094 2623.4292,1251.6094 C2623.4292,1251.6094 2641.4292,1251.6094 2641.4292,1241.6094" fill="none" style="stroke:#181818;stroke-width:0.5;"/></g><g><title>Frontend .React.</title><rect fill="#FFFFFF" height="1041.4531" style="stroke:#181818;stroke-width:1;" width="10" x="547.6758" y="164.8594"/></g><g><title>RespuestasController</title><rect fill="#FFFFFF" height="646.5938" style="stroke:#181818;stroke-width:1;" width="10" x="877.7749" y="339.7891"/></g><g><title>RespuestaService</title><rect fill="#FFFFFF" height="546.1953" style="stroke:#181818;stroke-width:1;" width="10" x="1227.9917" y="411.0547"/></g><g><title>PreguntaService</title><rect fill="#FFFFFF" height="202.9297" style="stroke:#181818;stroke-width:1;" width="10" x="1554.7285" y="440.1875"/></g><g><title>PreguntaRepository</title><rect fill="#FFFFFF" height="87.3984" style="stroke:#181818;stroke-width:1;" width="10" x="1814.2607" y="469.3203"/></g><g><title>RespuestaRepository</title><rect fill="#FFFFFF" height="87.3984" style="stroke:#181818;stroke-width:1;" width="10" x="1981.7744" y="840.7188"/></g><g><title>Base de Datos .PostgreSQL.</title><rect fill="#FFFFFF" height="29.1328" style="stroke:#181818;stroke-width:1;" width="10" x="2618.4292" y="498.4531"/></g><g><title>Base de Datos .PostgreSQL.</title><rect fill="#FFFFFF" height="29.1328" style="stroke:#181818;stroke-width:1;" width="10" x="2618.4292" y="869.8516"/></g><g class="message" data-entity-1="part1" data-entity-2="part2" id="msg1"><polygon fill="#181818" points="535.6758,160.8594,545.6758,164.8594,535.6758,168.8594,539.6758,164.8594" style="stroke:#181818;stroke-width:1;"/><line style="stroke:#181818;stroke-width:1;" x1="52.3159" x2="541.6758" y1="164.8594" y2="164.8594"/><text fill="#000000" font-family="sans-serif" font-size="13" lengthAdjust="spacing" textLength="166.042" x="59.3159" y="144.6606">Accede a crear respuesta</text><text fill="#000000" font-family="sans-serif" font-size="13" lengthAdjust="spacing" textLength="476.3599" x="59.3159" y="159.7935">(desde RESPUESTAS_ABIERTO o RESPUESTAS_CONTEXTUALES_ABIERTO)</text></g><g class="message" data-entity-1="part2" data-entity-2="part1" id="msg2"><polygon fill="#181818" points="63.3159,205.125,53.3159,209.125,63.3159,213.125,59.3159,209.125" style="stroke:#181818;stroke-width:1;"/><line style="stroke:#181818;stroke-width:1;stroke-dasharray:2,2;" x1="57.3159" x2="546.6758" y1="209.125" y2="209.125"/><text fill="#000000" font-family="sans-serif" font-size="13" lengthAdjust="spacing" textLength="201.0176" x="69.3159" y="188.9263">Mostrar formulario de creaci&#243;n</text><text fill="#000000" font-family="sans-serif" font-size="13" lengthAdjust="spacing" textLength="257.8037" x="69.3159" y="204.0591">(datos m&#237;nimos: contenido, esCorrecta)</text></g><g class="message" data-entity-1="part1" data-entity-2="part2" id="msg3"><polygon fill="#181818" points="535.6758,234.2578,545.6758,238.2578,535.6758,242.2578,539.6758,238.2578" style="stroke:#181818;stroke-width:1;"/><line style="stroke:#181818;stroke-width:1;" x1="52.3159" x2="541.6758" y1="238.2578" y2="238.2578"/><text fill="#000000" font-family="sans-serif" font-size="13" lengthAdjust="spacing" textLength="198.25" x="59.3159" y="233.1919">Ingresa datos y clic en "Crear"</text></g><g class="message" data-entity-1="part2" data-entity-2="part2" id="msg4"><line style="stroke:#181818;stroke-width:1;" x1="557.6758" x2="599.6758" y1="267.3906" y2="267.3906"/><line style="stroke:#181818;stroke-width:1;" x1="599.6758" x2="599.6758" y1="267.3906" y2="280.3906"/><line style="stroke:#181818;stroke-width:1;" x1="558.6758" x2="599.6758" y1="280.3906" y2="280.3906"/><polygon fill="#181818" points="568.6758,276.3906,558.6758,280.3906,568.6758,284.3906,564.6758,280.3906" style="stroke:#181818;stroke-width:1;"/><text fill="#000000" font-family="sans-serif" font-size="13" lengthAdjust="spacing" textLength="198.3516" x="564.6758" y="262.3247">Validar formulario (client-side)</text></g><g class="message" data-entity-1="part2" data-entity-2="part3" id="msg5"><polygon fill="#181818" points="865.7749,335.7891,875.7749,339.7891,865.7749,343.7891,869.7749,339.7891" style="stroke:#181818;stroke-width:1;"/><line style="stroke:#181818;stroke-width:1;" x1="557.6758" x2="871.7749" y1="339.7891" y2="339.7891"/><text fill="#000000" font-family="sans-serif" font-size="13" lengthAdjust="spacing" textLength="138.2012" x="564.6758" y="304.4575">POST /api/respuestas</text><text fill="#000000" font-family="sans-serif" font-size="13" lengthAdjust="spacing" textLength="186.1133" x="564.6758" y="319.5903">(RespuestaCreateDTO JSON)</text><text fill="#000000" font-family="sans-serif" font-size="13" lengthAdjust="spacing" textLength="267.8774" x="564.6758" y="334.7231">(Header: Authorization: Bearer &lt;token&gt;)</text></g><g class="message" data-entity-1="part3" data-entity-2="part3" id="msg6"><line style="stroke:#181818;stroke-width:1;" x1="887.7749" x2="929.7749" y1="368.9219" y2="368.9219"/><line style="stroke:#181818;stroke-width:1;" x1="929.7749" x2="929.7749" y1="368.9219" y2="381.9219"/><line style="stroke:#181818;stroke-width:1;" x1="888.7749" x2="929.7749" y1="381.9219" y2="381.9219"/><polygon fill="#181818" points="898.7749,377.9219,888.7749,381.9219,898.7749,385.9219,894.7749,381.9219" style="stroke:#181818;stroke-width:1;"/><text fill="#000000" font-family="sans-serif" font-size="13" lengthAdjust="spacing" textLength="169.1016" x="894.7749" y="363.856">extraer docenteId del JWT</text></g><g class="message" data-entity-1="part3" data-entity-2="part4" id="msg7"><polygon fill="#181818" points="1215.9917,407.0547,1225.9917,411.0547,1215.9917,415.0547,1219.9917,411.0547" style="stroke:#181818;stroke-width:1;"/><line style="stroke:#181818;stroke-width:1;" x1="887.7749" x2="1221.9917" y1="411.0547" y2="411.0547"/><text fill="#000000" font-family="sans-serif" font-size="13" lengthAdjust="spacing" textLength="321.2168" x="894.7749" y="405.9888">crearRespuesta(respuestaCreateDTO, docenteId)</text></g><g class="message" data-entity-1="part4" data-entity-2="part5" id="msg8"><polygon fill="#181818" points="1542.7285,436.1875,1552.7285,440.1875,1542.7285,444.1875,1546.7285,440.1875" style="stroke:#181818;stroke-width:1;"/><line style="stroke:#181818;stroke-width:1;" x1="1237.9917" x2="1548.7285" y1="440.1875" y2="440.1875"/><text fill="#000000" font-family="sans-serif" font-size="13" lengthAdjust="spacing" textLength="297.7368" x="1244.9917" y="435.1216">obtenerPreguntaPorId(preguntaId, docenteId)</text></g><g class="message" data-entity-1="part5" data-entity-2="part6" id="msg9"><polygon fill="#181818" points="1802.2607,465.3203,1812.2607,469.3203,1802.2607,473.3203,1806.2607,469.3203" style="stroke:#181818;stroke-width:1;"/><line style="stroke:#181818;stroke-width:1;" x1="1564.7285" x2="1808.2607" y1="469.3203" y2="469.3203"/><text fill="#000000" font-family="sans-serif" font-size="13" lengthAdjust="spacing" textLength="134.9956" x="1571.7285" y="464.2544">findById(preguntaId)</text></g><g class="message" data-entity-1="part6" data-entity-2="part8" id="msg10"><polygon fill="#181818" points="2606.4292,494.4531,2616.4292,498.4531,2606.4292,502.4531,2610.4292,498.4531" style="stroke:#181818;stroke-width:1;"/><line style="stroke:#181818;stroke-width:1;" x1="1824.2607" x2="2612.4292" y1="498.4531" y2="498.4531"/><text fill="#000000" font-family="sans-serif" font-size="13" lengthAdjust="spacing" textLength="266.2334" x="1831.2607" y="493.3872">SELECT * FROM preguntas WHERE id = ?</text></g><g class="message" data-entity-1="part8" data-entity-2="part6" id="msg11"><polygon fill="#181818" points="1835.2607,523.5859,1825.2607,527.5859,1835.2607,531.5859,1831.2607,527.5859" style="stroke:#181818;stroke-width:1;"/><line style="stroke:#181818;stroke-width:1;stroke-dasharray:2,2;" x1="1829.2607" x2="2622.4292" y1="527.5859" y2="527.5859"/><text fill="#000000" font-family="sans-serif" font-size="13" lengthAdjust="spacing" textLength="135.7256" x="1841.2607" y="522.52">Optional&lt;Pregunta&gt;</text></g><g class="message" data-entity-1="part6" data-entity-2="part5" id="msg12"><polygon fill="#181818" points="1575.7285,552.7188,1565.7285,556.7188,1575.7285,560.7188,1571.7285,556.7188" style="stroke:#181818;stroke-width:1;"/><line style="stroke:#181818;stroke-width:1;stroke-dasharray:2,2;" x1="1569.7285" x2="1818.2607" y1="556.7188" y2="556.7188"/><text fill="#000000" font-family="sans-serif" font-size="13" lengthAdjust="spacing" textLength="135.7256" x="1581.7285" y="551.6528">Optional&lt;Pregunta&gt;</text></g><g class="message" data-entity-1="part5" data-entity-2="part5" id="msg13"><line style="stroke:#181818;stroke-width:1;" x1="1564.7285" x2="1606.7285" y1="600.9844" y2="600.9844"/><line style="stroke:#181818;stroke-width:1;" x1="1606.7285" x2="1606.7285" y1="600.9844" y2="613.9844"/><line style="stroke:#181818;stroke-width:1;" x1="1565.7285" x2="1606.7285" y1="613.9844" y2="613.9844"/><polygon fill="#181818" points="1575.7285,609.9844,1565.7285,613.9844,1575.7285,617.9844,1571.7285,613.9844" style="stroke:#181818;stroke-width:1;"/><text fill="#000000" font-family="sans-serif" font-size="13" lengthAdjust="spacing" textLength="220.4224" x="1571.7285" y="580.7856">Verificar pertenencia de pregunta</text><text fill="#000000" font-family="sans-serif" font-size="13" lengthAdjust="spacing" textLength="225.5322" x="1571.7285" y="595.9185">a docente autenticado (docenteId)</text></g><g class="message" data-entity-1="part5" data-entity-2="part4" id="msg14"><polygon fill="#181818" points="1248.9917,639.1172,1238.9917,643.1172,1248.9917,647.1172,1244.9917,643.1172" style="stroke:#181818;stroke-width:1;"/><line style="stroke:#181818;stroke-width:1;stroke-dasharray:2,2;" x1="1242.9917" x2="1558.7285" y1="643.1172" y2="643.1172"/><text fill="#000000" font-family="sans-serif" font-size="13" lengthAdjust="spacing" textLength="58.9761" x="1254.9917" y="638.0513">Pregunta</text></g><path d="M10,658.1172 L74.4429,658.1172 L74.4429,665.25 L64.4429,675.25 L10,675.25 L10,658.1172" fill="#EEEEEE" style="stroke:#000000;stroke-width:1.5;"/><rect fill="none" height="451.7969" style="stroke:#000000;stroke-width:1.5;" width="2725.0923" x="10" y="658.1172"/><text fill="#000000" font-family="sans-serif" font-size="13" font-weight="bold" lengthAdjust="spacing" textLength="19.4429" x="25" y="671.1841">alt</text><text fill="#000000" font-family="sans-serif" font-size="11" font-weight="bold" lengthAdjust="spacing" textLength="298.1064" x="89.4429" y="670.3276">[Pregunta No Existe o No Pertenece al Docente]</text><g class="message" data-entity-1="part4" data-entity-2="part3" id="msg15"><polygon fill="#181818" points="898.7749,692.3828,888.7749,696.3828,898.7749,700.3828,894.7749,696.3828" style="stroke:#181818;stroke-width:1;"/><line style="stroke:#181818;stroke-width:1;stroke-dasharray:2,2;" x1="892.7749" x2="1226.9917" y1="696.3828" y2="696.3828"/><text fill="#000000" font-family="sans-serif" font-size="13" lengthAdjust="spacing" textLength="203.0298" x="904.7749" y="691.3169">throw UnauthorizedException()</text></g><g class="message" data-entity-1="part3" data-entity-2="part2" id="msg16"><polygon fill="#181818" points="568.6758,721.5156,558.6758,725.5156,568.6758,729.5156,564.6758,725.5156" style="stroke:#181818;stroke-width:1;"/><line style="stroke:#181818;stroke-width:1;stroke-dasharray:2,2;" x1="562.6758" x2="876.7749" y1="725.5156" y2="725.5156"/><text fill="#000000" font-family="sans-serif" font-size="13" lengthAdjust="spacing" textLength="94.3262" x="574.6758" y="720.4497">403 Forbidden</text></g><g class="message" data-entity-1="part2" data-entity-2="part1" id="msg17"><polygon fill="#181818" points="63.3159,750.6484,53.3159,754.6484,63.3159,758.6484,59.3159,754.6484" style="stroke:#181818;stroke-width:1;"/><line style="stroke:#181818;stroke-width:1;stroke-dasharray:2,2;" x1="57.3159" x2="546.6758" y1="754.6484" y2="754.6484"/><text fill="#000000" font-family="sans-serif" font-size="13" lengthAdjust="spacing" textLength="165.5786" x="69.3159" y="749.5825">Mostrar mensaje de error</text></g><line style="stroke:#000000;stroke-width:1;stroke-dasharray:2,2;" x1="10" x2="2735.0923" y1="763.6484" y2="763.6484"/><text fill="#000000" font-family="sans-serif" font-size="11" font-weight="bold" lengthAdjust="spacing" textLength="256.5342" x="15" y="773.8589">[Pregunta Existe y Pertenece al Docente]</text><g class="message" data-entity-1="part4" data-entity-2="part4" id="msg18"><line style="stroke:#181818;stroke-width:1;" x1="1237.9917" x2="1279.9917" y1="798.5859" y2="798.5859"/><line style="stroke:#181818;stroke-width:1;" x1="1279.9917" x2="1279.9917" y1="798.5859" y2="811.5859"/><line style="stroke:#181818;stroke-width:1;" x1="1238.9917" x2="1279.9917" y1="811.5859" y2="811.5859"/><polygon fill="#181818" points="1248.9917,807.5859,1238.9917,811.5859,1248.9917,815.5859,1244.9917,811.5859" style="stroke:#181818;stroke-width:1;"/><text fill="#000000" font-family="sans-serif" font-size="13" lengthAdjust="spacing" textLength="146.9229" x="1244.9917" y="793.52">Mapear DTO a Entidad</text></g><g class="message" data-entity-1="part4" data-entity-2="part7" id="msg19"><polygon fill="#181818" points="1969.7744,836.7188,1979.7744,840.7188,1969.7744,844.7188,1973.7744,840.7188" style="stroke:#181818;stroke-width:1;"/><line style="stroke:#181818;stroke-width:1;" x1="1237.9917" x2="1975.7744" y1="840.7188" y2="840.7188"/><text fill="#000000" font-family="sans-serif" font-size="13" lengthAdjust="spacing" textLength="105.0156" x="1244.9917" y="835.6528">save(respuesta)</text></g><g class="message" data-entity-1="part7" data-entity-2="part8" id="msg20"><polygon fill="#181818" points="2606.4292,865.8516,2616.4292,869.8516,2606.4292,873.8516,2610.4292,869.8516" style="stroke:#181818;stroke-width:1;"/><line style="stroke:#181818;stroke-width:1;" x1="1991.7744" x2="2612.4292" y1="869.8516" y2="869.8516"/><text fill="#000000" font-family="sans-serif" font-size="13" lengthAdjust="spacing" textLength="607.6548" x="1998.7744" y="864.7856">INSERT INTO respuestas (contenido, es_correcta, pregunta_id, docente_id) VALUES (?, ?, ?, ?)</text></g><g class="message" data-entity-1="part8" data-entity-2="part7" id="msg21"><polygon fill="#181818" points="2002.7744,894.9844,1992.7744,898.9844,2002.7744,902.9844,1998.7744,898.9844" style="stroke:#181818;stroke-width:1;"/><line style="stroke:#181818;stroke-width:1;stroke-dasharray:2,2;" x1="1996.7744" x2="2622.4292" y1="898.9844" y2="898.9844"/><text fill="#000000" font-family="sans-serif" font-size="13" lengthAdjust="spacing" textLength="127.0801" x="2008.7744" y="893.9185">Respuesta (creada)</text></g><g class="message" data-entity-1="part7" data-entity-2="part4" id="msg22"><polygon fill="#181818" points="1248.9917,924.1172,1238.9917,928.1172,1248.9917,932.1172,1244.9917,928.1172" style="stroke:#181818;stroke-width:1;"/><line style="stroke:#181818;stroke-width:1;stroke-dasharray:2,2;" x1="1242.9917" x2="1985.7744" y1="928.1172" y2="928.1172"/><text fill="#000000" font-family="sans-serif" font-size="13" lengthAdjust="spacing" textLength="68.1294" x="1254.9917" y="923.0513">Respuesta</text></g><g class="message" data-entity-1="part4" data-entity-2="part3" id="msg23"><polygon fill="#181818" points="898.7749,953.25,888.7749,957.25,898.7749,961.25,894.7749,957.25" style="stroke:#181818;stroke-width:1;"/><line style="stroke:#181818;stroke-width:1;stroke-dasharray:2,2;" x1="892.7749" x2="1231.9917" y1="957.25" y2="957.25"/><text fill="#000000" font-family="sans-serif" font-size="13" lengthAdjust="spacing" textLength="96.313" x="904.7749" y="952.1841">RespuestaDTO</text></g><g class="message" data-entity-1="part3" data-entity-2="part2" id="msg24"><polygon fill="#181818" points="568.6758,982.3828,558.6758,986.3828,568.6758,990.3828,564.6758,986.3828" style="stroke:#181818;stroke-width:1;"/><line style="stroke:#181818;stroke-width:1;stroke-dasharray:2,2;" x1="562.6758" x2="881.7749" y1="986.3828" y2="986.3828"/><text fill="#000000" font-family="sans-serif" font-size="13" lengthAdjust="spacing" textLength="227.4429" x="574.6758" y="981.3169">201 Created (RespuestaDTO JSON)</text></g><g class="message" data-entity-1="part2" data-entity-2="part1" id="msg25"><polygon fill="#181818" points="63.3159,1026.6484,53.3159,1030.6484,63.3159,1034.6484,59.3159,1030.6484" style="stroke:#181818;stroke-width:1;"/><line style="stroke:#181818;stroke-width:1;stroke-dasharray:2,2;" x1="57.3159" x2="546.6758" y1="1030.6484" y2="1030.6484"/><text fill="#000000" font-family="sans-serif" font-size="13" lengthAdjust="spacing" textLength="89.5591" x="69.3159" y="1010.4497">Mostrar Toast</text><text fill="#000000" font-family="sans-serif" font-size="13" lengthAdjust="spacing" textLength="229.0234" x="69.3159" y="1025.5825">"Respuesta creada correctamente"</text></g><g class="message" data-entity-1="part2" data-entity-2="part2" id="msg26"><line style="stroke:#181818;stroke-width:1;" x1="557.6758" x2="599.6758" y1="1059.7813" y2="1059.7813"/><line style="stroke:#181818;stroke-width:1;" x1="599.6758" x2="599.6758" y1="1059.7813" y2="1072.7813"/><line style="stroke:#181818;stroke-width:1;" x1="558.6758" x2="599.6758" y1="1072.7813" y2="1072.7813"/><polygon fill="#181818" points="568.6758,1068.7813,558.6758,1072.7813,568.6758,1076.7813,564.6758,1072.7813" style="stroke:#181818;stroke-width:1;"/><text fill="#000000" font-family="sans-serif" font-size="13" lengthAdjust="spacing" textLength="296.0991" x="564.6758" y="1054.7153">Redirigir a editarRespuesta(nuevaRespuesta)</text></g><g class="message" data-entity-1="part2" data-entity-2="part1" id="msg27"><polygon fill="#181818" points="63.3159,1097.9141,53.3159,1101.9141,63.3159,1105.9141,59.3159,1101.9141" style="stroke:#181818;stroke-width:1;"/><line style="stroke:#181818;stroke-width:1;stroke-dasharray:2,2;" x1="57.3159" x2="546.6758" y1="1101.9141" y2="1101.9141"/><text fill="#000000" font-family="sans-serif" font-size="13" lengthAdjust="spacing" textLength="195.5396" x="69.3159" y="1096.8481">Mostrar Formulario de Edici&#243;n</text></g><path d="M10,1123.9141 L74.4429,1123.9141 L74.4429,1131.0469 L64.4429,1141.0469 L10,1141.0469 L10,1123.9141" fill="#EEEEEE" style="stroke:#000000;stroke-width:1.5;"/><rect fill="none" height="75.3984" style="stroke:#000000;stroke-width:1.5;" width="964.6934" x="10" y="1123.9141"/><text fill="#000000" font-family="sans-serif" font-size="13" font-weight="bold" lengthAdjust="spacing" textLength="19.4429" x="25" y="1136.981">alt</text><text fill="#000000" font-family="sans-serif" font-size="11" font-weight="bold" lengthAdjust="spacing" textLength="105.8374" x="89.4429" y="1136.1245">[Datos Inv&#225;lidos]</text><g class="message" data-entity-1="part3" data-entity-2="part2" id="msg28"><polygon fill="#181818" points="568.6758,1158.1797,558.6758,1162.1797,568.6758,1166.1797,564.6758,1162.1797" style="stroke:#181818;stroke-width:1;"/><line style="stroke:#181818;stroke-width:1;stroke-dasharray:2,2;" x1="562.6758" x2="881.7749" y1="1162.1797" y2="1162.1797"/><text fill="#000000" font-family="sans-serif" font-size="13" lengthAdjust="spacing" textLength="232.7749" x="574.6758" y="1157.1138">400 Bad Request (validation errors)</text></g><g class="message" data-entity-1="part2" data-entity-2="part1" id="msg29"><polygon fill="#181818" points="63.3159,1187.3125,53.3159,1191.3125,63.3159,1195.3125,59.3159,1191.3125" style="stroke:#181818;stroke-width:1;"/><line style="stroke:#181818;stroke-width:1;stroke-dasharray:2,2;" x1="57.3159" x2="546.6758" y1="1191.3125" y2="1191.3125"/><text fill="#000000" font-family="sans-serif" font-size="13" lengthAdjust="spacing" textLength="191.1533" x="69.3159" y="1186.2466">Mostrar errores de validaci&#243;n</text></g><?plantuml-src dLRRRkCs47tNLmpy9BS9Dhqy6TiiV96nNYInQpdPFWG8676Ii9L9bQJTf7_J3-XJFo4_rY5renGxA1e4jaJEd3cSEJEq5JP7c0dsgDcM0KT8CTkXp0I3KvXgP1hMQ8eT6iiWJWijv2DCbBBmBMsmp0wZY3wLXi5CPIWj3e0PsD3M4-geODgAJ1HCMXZCjQ9zoI4kFMzb0prNUZjLsq99Wl08ywJht9YQAQ5ebUUelM7xUiGXHRqNMSchUkvQhZG-xcJNiBTss66DXJA23l_IyN7BHxZqF3hh4MUMtJE3C9YuJoh6Z5bb85ufOnyrfZzV3BtRR195LORXz9nIDO9nbY4vCCXypNGDV2jZZePsracwkaxIpJYz6qyMoNgp11KkJfTNc-INpVNu8caiXgwqOiyikdBC4pYbQ5NW4LmIAqsn7gXskvnfeHnb5pyJh_z85zdJtxx-BSLMcH5allw2gnD0AgFMc5asx1zb8UciXiJelLyWoqK6A67WvJZmF4hB6vOBtcKGapL9wDG8ZiFAj5N825RBT0CVM24-D2aonBGfX8jXSKRP-P8khqYYyMTat7cET_P9QV4diqB94Ko82t7-QDLlAC-3J0LwR1_xDF2PKaVBlEoP1QVKvV3bwwRdKyblL9QrOHdhDtnFMgo0J2tVwjj1zfGz0dLFHK5Thw-KNl2ugDuM_31mlpzwxs4Wf-qHF0Z99oyTv0DmlW_25mSqcumWJIwIwGQ-WVbwUGarXe6ldvDr0eB3J_2fXQC6cKsyMhiabeKh7ii_rild4SVGgnlwKBRUXpXuZlUIVuDQF8YCH5oWTdNmevVwg3xYhMHr0O3jo8Ac2kCazA0gRmA5ogat3z6igyToswp1bOBaMHWoK-vvLV8YM9P3DUCZeBymMgXj-wJL7t0jMTKmo9Fd37tQug7t33LUjVAFPpy0NGBtWdEKtkZOkDcYDEnNFnvHQwKZp4rxefhwot_W7IJfaXLkRBg-9mZACMUyRzmPrYCmR8zj7vO7QnBS7UnkgxDIgtfnbTASfI-AsyuZ6cBXeBpBgabvqeZYJhHjISz3k1bVq1o7-DC9LFyzGgHjzrvrHUyemGtlvWolJjDjZGE723FORFLTtwRYc70QIof37wLMwX7vV7_s7PIZqF-wQ77ACTv72sRqUrBRA6RihMolRoZJ0tL5jlu7JuDHSbaZ5rey2arIeaSRpcsvmprRTqLpBFgySwycNFXhDQ8VK95lsFB7mKBkN_-YQr2Puwrr1XF6YTVlBYh4UtzjkduiEyZyt_nuRpIENeaPC0pGvic_?></g></svg>