<svg xmlns="http://www.w3.org/2000/svg" xmlns:xlink="http://www.w3.org/1999/xlink" contentStyleType="text/css" data-diagram-type="DESCRIPTION" height="620px" preserveAspectRatio="none" style="width:1161px;height:620px;background:#FFFFFF;" version="1.1" viewBox="0 0 1161 620" width="1161px" zoomAndPan="magnify"><defs/><g><!--cluster editarGrado--><g class="cluster" data-entity="editarGrado" data-source-line="9" data-uid="ent0007" id="cluster_editarGrado"><path d="M8.5,106 L117.1387,106 A3.75,3.75 0 0 1 119.6387,108.5 L126.6387,128.2969 L684.5,128.2969 A2.5,2.5 0 0 1 687,130.7969 L687,610.5 A2.5,2.5 0 0 1 684.5,613 L8.5,613 A2.5,2.5 0 0 1 6,610.5 L6,108.5 A2.5,2.5 0 0 1 8.5,106" fill="none" style="stroke:#000000;stroke-width:1.5;"/><line style="stroke:#000000;stroke-width:1.5;" x1="6" x2="126.6387" y1="128.2969" y2="128.2969"/><text fill="#000000" font-family="sans-serif" font-size="14" font-weight="bold" lengthAdjust="spacing" textLength="107.6387" x="10" y="120.9951">editarGrado()</text></g><!--entity EditarGradoView--><g class="entity" data-entity="EditarGradoView" data-source-line="10" data-uid="ent0008" id="entity_EditarGradoView"><rect fill="#629EF9" height="36.2969" rx="2.5" ry="2.5" style="stroke:#181818;stroke-width:0.5;" width="137.6123" x="416" y="141"/><text fill="#000000" font-family="sans-serif" font-size="14" lengthAdjust="spacing" textLength="117.6123" x="426" y="163.9951">EditarGradoView</text></g><!--entity GradosController--><g class="entity" data-entity="GradosController" data-source-line="11" data-uid="ent0009" id="entity_GradosController"><rect fill="#B5BD68" height="36.2969" rx="2.5" ry="2.5" style="stroke:#181818;stroke-width:0.5;" width="139.1025" x="123.5" y="254"/><text fill="#000000" font-family="sans-serif" font-size="14" lengthAdjust="spacing" textLength="119.1025" x="133.5" y="276.9951">GradosController</text></g><!--entity GradoRepository--><g class="entity" data-entity="GradoRepository" data-source-line="12" data-uid="ent0010" id="entity_GradoRepository"><rect fill="#F2AC4E" height="36.2969" rx="2.5" ry="2.5" style="stroke:#181818;stroke-width:0.5;" width="137.708" x="132" y="367"/><text fill="#000000" font-family="sans-serif" font-size="14" lengthAdjust="spacing" textLength="117.708" x="142" y="389.9951">GradoRepository</text></g><!--entity Grado--><g class="entity" data-entity="Grado" data-source-line="13" data-uid="ent0011" id="entity_Grado"><rect fill="#F2AC4E" height="36.2969" rx="2.5" ry="2.5" style="stroke:#181818;stroke-width:0.5;" width="62.6357" x="169.5" y="464"/><text fill="#000000" font-family="sans-serif" font-size="14" lengthAdjust="spacing" textLength="42.6357" x="179.5" y="486.9951">Grado</text></g><!--entity Alumno--><g class="entity" data-entity="Alumno" data-source-line="14" data-uid="ent0012" id="entity_Alumno"><rect fill="#F2AC4E" height="36.2969" rx="2.5" ry="2.5" style="stroke:#181818;stroke-width:0.5;" width="73.416" x="164.5" y="561"/><text fill="#000000" font-family="sans-serif" font-size="14" lengthAdjust="spacing" textLength="53.416" x="174.5" y="583.9951">Alumno</text></g><!--entity GradosAbierto--><g class="entity" data-entity="GradosAbierto" data-source-line="3" data-uid="ent0002" id="entity_GradosAbierto"><rect fill="#CDEBA5" height="36.2969" rx="2.5" ry="2.5" style="stroke:#181818;stroke-width:0.5;" width="129.874" x="241" y="7"/><text fill="#000000" font-family="sans-serif" font-size="14" lengthAdjust="spacing" textLength="109.874" x="251" y="29.9951">:Grados Abierto</text></g><!--entity GradoAbierto--><g class="entity" data-entity="GradoAbierto" data-source-line="4" data-uid="ent0003" id="entity_GradoAbierto"><rect fill="#CDEBA5" height="36.2969" rx="2.5" ry="2.5" style="stroke:#181818;stroke-width:0.5;" width="122.5801" x="423.5" y="7"/><text fill="#000000" font-family="sans-serif" font-size="14" lengthAdjust="spacing" textLength="102.5801" x="433.5" y="29.9951">:Grado Abierto</text></g><!--entity CrearGrado--><g class="entity" data-entity="CrearGrado" data-source-line="5" data-uid="ent0004" id="entity_CrearGrado"><rect fill="#CDEBA5" height="36.2969" rx="2.5" ry="2.5" style="stroke:#181818;stroke-width:0.5;" width="203.5859" x="582" y="7"/><text fill="#000000" font-family="sans-serif" font-size="14" lengthAdjust="spacing" textLength="183.5859" x="592" y="29.9951">:Collaboration CrearGrado</text></g><!--entity VerGrados--><g class="entity" data-entity="VerGrados" data-source-line="6" data-uid="ent0005" id="entity_VerGrados"><rect fill="#CDEBA5" height="36.2969" rx="2.5" ry="2.5" style="stroke:#181818;stroke-width:0.5;" width="195.0547" x="702.5" y="254"/><text fill="#000000" font-family="sans-serif" font-size="14" lengthAdjust="spacing" textLength="175.0547" x="712.5" y="276.9951">:Collaboration verGrados</text></g><!--entity EliminarGrado--><g class="entity" data-entity="EliminarGrado" data-source-line="7" data-uid="ent0006" id="entity_EliminarGrado"><rect fill="#CDEBA5" height="36.2969" rx="2.5" ry="2.5" style="stroke:#181818;stroke-width:0.5;" width="222.2344" x="933" y="254"/><text fill="#000000" font-family="sans-serif" font-size="14" lengthAdjust="spacing" textLength="202.2344" x="943" y="276.9951">:Collaboration eliminarGrado</text></g><!--link CrearGrado to EditarGradoView--><g class="link" data-entity-1="CrearGrado" data-entity-2="EditarGradoView" data-source-line="17" data-uid="lnk13" id="link_CrearGrado_EditarGradoView"><path d="M670.06,43.15 C654.66,62.11 632,90 632,90 C632,90 571.0859,118.1815 527.5359,138.3215" fill="none" id="CrearGrado-to-EditarGradoView" style="stroke:#181818;stroke-width:1;"/><polygon fill="#181818" points="522.09,140.84,531.9378,140.6929,526.6282,138.7413,528.5798,133.4317,522.09,140.84" style="stroke:#181818;stroke-width:1;"/><text fill="#000000" font-family="sans-serif" font-size="13" lengthAdjust="spacing" textLength="137.8584" x="645" y="86.0669">editarGrado(gradoId)</text></g><!--link GradosAbierto to EditarGradoView--><g class="link" data-entity-1="GradosAbierto" data-entity-2="EditarGradoView" data-source-line="18" data-uid="lnk14" id="link_GradosAbierto_EditarGradoView"><path d="M314.58,43.15 C324.05,62.11 338,90 338,90 C338,90 398.9141,118.1815 442.4641,138.3215" fill="none" id="GradosAbierto-to-EditarGradoView" style="stroke:#181818;stroke-width:1;"/><polygon fill="#181818" points="447.91,140.84,441.4202,133.4317,443.3718,138.7413,438.0622,140.6929,447.91,140.84" style="stroke:#181818;stroke-width:1;"/><text fill="#000000" font-family="sans-serif" font-size="13" lengthAdjust="spacing" textLength="137.8584" x="339" y="86.0669">editarGrado(gradoId)</text></g><!--link GradoAbierto to EditarGradoView--><g class="link" data-entity-1="GradoAbierto" data-entity-2="EditarGradoView" data-source-line="19" data-uid="lnk15" id="link_GradoAbierto_EditarGradoView"><path d="M485,43.26 C485,68.55 485,109.44 485,134.74" fill="none" id="GradoAbierto-to-EditarGradoView" style="stroke:#181818;stroke-width:1;"/><polygon fill="#181818" points="485,140.74,489,131.74,485,135.74,481,131.74,485,140.74" style="stroke:#181818;stroke-width:1;"/><text fill="#000000" font-family="sans-serif" font-size="13" lengthAdjust="spacing" textLength="137.8584" x="486" y="86.0669">editarGrado(gradoId)</text></g><!--link EditarGradoView to GradosController--><g class="link" data-entity-1="EditarGradoView" data-entity-2="GradosController" data-source-line="21" data-uid="lnk16" id="link_EditarGradoView_GradosController"><path d="M415.75,167.55 C293.92,180.84 54,207 54,207 C54,207 54,224 54,224 C54,224 96.9962,238.5378 136.7362,251.9778" fill="none" id="EditarGradoView-to-GradosController" style="stroke:#181818;stroke-width:1;"/><polygon fill="#181818" points="142.42,253.9,135.1759,247.2275,137.6835,252.2981,132.6129,254.8058,142.42,253.9" style="stroke:#181818;stroke-width:1;"/><text fill="#000000" font-family="sans-serif" font-size="13" lengthAdjust="spacing" textLength="269.9912" x="55" y="220.0669">cargarGradoParaEdici&#243;n(gradoId) : Grado</text></g><!--link EditarGradoView to GradosController--><g class="link" data-entity-1="EditarGradoView" data-entity-2="GradosController" data-source-line="25" data-uid="lnk18" id="link_EditarGradoView_GradosController"><path d="M443.19,177.15 C396.99,196.11 329,224 329,224 C329,224 287.0409,238.5002 248.1509,251.9402" fill="none" id="EditarGradoView-to-GradosController-1" style="stroke:#181818;stroke-width:1;"/><polygon fill="#181818" points="242.48,253.9,252.2929,254.7409,247.2058,252.2668,249.6798,247.1797,242.48,253.9" style="stroke:#181818;stroke-width:1;"/><text fill="#000000" font-family="sans-serif" font-size="13" lengthAdjust="spacing" textLength="301.063" x="368" y="220.0669">modificarCampos(gradoId, cambios) : boolean</text></g><!--link GradosController to GradoRepository--><g class="link" data-entity-1="GradosController" data-entity-2="GradoRepository" data-source-line="23" data-uid="lnk17" id="link_GradosController_GradoRepository"><path d="M148.61,290.1 C113.73,303.54 71,320 71,320 C71,320 71,337 71,337 C71,337 110.8875,351.4198 148.0575,364.8598" fill="none" id="GradosController-to-GradoRepository" style="stroke:#181818;stroke-width:1;"/><polygon fill="#181818" points="153.7,366.9,146.5964,360.078,148.9979,365.1998,143.8761,367.6013,153.7,366.9" style="stroke:#181818;stroke-width:1;"/><text fill="#000000" font-family="sans-serif" font-size="13" lengthAdjust="spacing" textLength="196.3394" x="72" y="333.0669">obtenerPorId(gradoId) : Grado</text></g><!--link GradosController to GradoRepository--><g class="link" data-entity-1="GradosController" data-entity-2="GradoRepository" data-source-line="27" data-uid="lnk19" id="link_GradosController_GradoRepository"><path d="M222.33,290.23 C245.17,303.65 273,320 273,320 C273,320 273,337 273,337 C273,337 252.9737,350.0693 232.4237,363.4893" fill="none" id="GradosController-to-GradoRepository-1" style="stroke:#181818;stroke-width:1;"/><polygon fill="#181818" points="227.4,366.77,237.1226,365.1981,231.5864,364.0361,232.7484,358.4999,227.4,366.77" style="stroke:#181818;stroke-width:1;"/><text fill="#000000" font-family="sans-serif" font-size="13" lengthAdjust="spacing" textLength="176.3062" x="274" y="333.0669">actualizar(grado) : boolean</text></g><!--link GradoRepository to Grado--><g class="link" data-entity-1="GradoRepository" data-entity-2="Grado" data-source-line="29" data-uid="lnk20" id="link_GradoRepository_Grado"><path d="M201,403.42 C201,420.57 201,446.58 201,463.69" fill="none" id="GradoRepository-Grado" style="stroke:#181818;stroke-width:1;"/></g><!--link Grado to Alumno--><g class="link" data-entity-1="Grado" data-entity-2="Alumno" data-source-line="30" data-uid="lnk21" id="link_Grado_Alumno"><path d="M201,500.42 C201,517.57 201,543.58 201,560.69" fill="none" id="Grado-Alumno" style="stroke:#181818;stroke-width:1;"/></g><!--link EditarGradoView to VerGrados--><g class="link" data-entity-1="EditarGradoView" data-entity-2="VerGrados" data-source-line="32" data-uid="lnk22" id="link_EditarGradoView_VerGrados"><path d="M554.13,176.84 C609.51,190.32 678,207 678,207 C678,207 725.8568,232.1026 761.9968,251.0626" fill="none" id="EditarGradoView-to-VerGrados" style="stroke:#181818;stroke-width:1;stroke-dasharray:7,7;"/><polygon fill="#181818" points="767.31,253.85,761.1985,246.1267,762.8823,251.5271,757.4819,253.211,767.31,253.85" style="stroke:#181818;stroke-width:1;"/><text fill="#000000" font-family="sans-serif" font-size="13" lengthAdjust="spacing" textLength="144.6821" x="708" y="220.0669">&#171;include&#187; verGrados()</text></g><!--link EditarGradoView to EliminarGrado--><g class="link" data-entity-1="EditarGradoView" data-entity-2="EliminarGrado" data-source-line="33" data-uid="lnk23" id="link_EditarGradoView_EliminarGrado"><path d="M554.4,168.68 C663.05,182.26 861,207 861,207 C861,207 935.0864,232.9092 989.2964,251.8692" fill="none" id="EditarGradoView-to-EliminarGrado" style="stroke:#181818;stroke-width:1;stroke-dasharray:7,7;"/><polygon fill="#181818" points="994.96,253.85,987.7852,247.103,990.2403,252.1993,985.1441,254.6545,994.96,253.85" style="stroke:#181818;stroke-width:1;"/><text fill="#000000" font-family="sans-serif" font-size="13" lengthAdjust="spacing" textLength="169.9204" x="906" y="220.0669">&#171;include&#187; eliminarGrado()</text></g><!--SRC=[bPDDRi8m48NtFiM8RXAfi405bGWXqJHKx50Nx9ra6baudiWnhMZLK_K8lLYT7veGVWHPHFBaVSylOq- -4IhZcgSWXKApon0oahjYmPZ6o72LI8Gx_pbuce-Wvxre7bCEyr2WDjG3daDLgYldeMFc4kAJb3mapOqW1Rv6hakcf9lb5UmxLjAyHDVxrHKaIf4ArTuuQ5SOotYquGa2niBKnKBLQwqTjmTV3EpJscyyd0IB2GIDR2tmewiAHs4yVgpRwvCosgP3tPKjXdF_8QXahvXHBWpftINLcMzpkKqLiM_6clv2lp_hvlJQ_-ianNiPk-pW6jpAtOwnZWpwiMMxpV8WuZgfPIjxqIqLYTyVzMy4NjqKrcNBC9ssUa2XGOLwHNePdp0vIdKoL4gnU1CscizJQxttkRTfqr1GNXY6H1AvkZONZyoMI_79TULsRD6ehKETTt_8-yC_oZyOp9gPyM0w5IgIsnXdisQm7FSaTZ0iX-Z1P3dk7m00]--></g></svg>