<svg xmlns="http://www.w3.org/2000/svg" xmlns:xlink="http://www.w3.org/1999/xlink" contentStyleType="text/css" data-diagram-type="STATE" height="837px" preserveAspectRatio="none" style="width:638px;height:837px;background:#FFFFFF;" version="1.1" viewBox="0 0 638 837" width="638px" zoomAndPan="magnify"><defs/><g><g id="DOCENTE_ABIERTO"><rect fill="#F1F1F1" height="50" rx="12.5" ry="12.5" style="stroke:#181818;stroke-width:0.5;" width="156.7461" x="114.5" y="7"/><line style="stroke:#181818;stroke-width:0.5;" x1="114.5" x2="271.2461" y1="33.2969" y2="33.2969"/><text fill="#000000" font-family="sans-serif" font-size="14" lengthAdjust="spacing" textLength="136.7461" x="124.5" y="24.9951">DOCENTE_ABIERTO</text></g><g id="DOCENTES_ABIERTO2"><rect fill="#F1F1F1" height="50" rx="12.5" ry="12.5" style="stroke:#181818;stroke-width:0.5;" width="165.6328" x="7" y="781"/><line style="stroke:#181818;stroke-width:0.5;" x1="7" x2="172.6328" y1="807.2969" y2="807.2969"/><text fill="#000000" font-family="sans-serif" font-size="14" lengthAdjust="spacing" textLength="145.6328" x="17" y="798.9951">DOCENTES_ABIERTO</text></g><g id="DOCENTES_ABIERTO3"><rect fill="#F1F1F1" height="50" rx="12.5" ry="12.5" style="stroke:#181818;stroke-width:0.5;" width="165.6328" x="208" y="781"/><line style="stroke:#181818;stroke-width:0.5;" x1="208" x2="373.6328" y1="807.2969" y2="807.2969"/><text fill="#000000" font-family="sans-serif" font-size="14" lengthAdjust="spacing" textLength="145.6328" x="218" y="798.9951">DOCENTES_ABIERTO</text></g><g id="DOCENTES_ABIERTO4"><rect fill="#F1F1F1" height="50" rx="12.5" ry="12.5" style="stroke:#181818;stroke-width:0.5;" width="165.6328" x="413" y="781"/><line style="stroke:#181818;stroke-width:0.5;" x1="413" x2="578.6328" y1="807.2969" y2="807.2969"/><text fill="#000000" font-family="sans-serif" font-size="14" lengthAdjust="spacing" textLength="145.6328" x="423" y="798.9951">DOCENTES_ABIERTO</text></g><path d="M48.5,118 L533.5,118 A12.5,12.5 0 0 1 546,130.5 L546,144.2969 L36,144.2969 L36,130.5 A12.5,12.5 0 0 1 48.5,118" fill="#F1F1F1"/><rect fill="none" height="568.2969" rx="12.5" ry="12.5" style="stroke:#181818;stroke-width:0.5;" width="510" x="36" y="118"/><line style="stroke:#181818;stroke-width:0.5;" x1="36" x2="546" y1="144.2969" y2="144.2969"/><text fill="#000000" font-family="sans-serif" font-size="14" lengthAdjust="spacing" textLength="126.6836" x="227.6582" y="135.9951">eliminarDocente()</text><g id="eliminarDocente.ConfirmandoEliminacion"><rect fill="#F1F1F1" height="50" rx="12.5" ry="12.5" style="stroke:#181818;stroke-width:0.5;" width="50" x="48" y="246.2969"/><line style="stroke:#181818;stroke-width:0.5;" x1="48" x2="98" y1="272.5938" y2="272.5938"/><text fill="#000000" font-family="sans-serif" font-size="14" lengthAdjust="spacing" textLength="4.4502" x="70.7749" y="264.292">&#160;</text></g><g id="eliminarDocente.EliminandoDocente"><rect fill="#F1F1F1" height="50" rx="12.5" ry="12.5" style="stroke:#181818;stroke-width:0.5;" width="50" x="48" y="518.2969"/><line style="stroke:#181818;stroke-width:0.5;" x1="48" x2="98" y1="544.5938" y2="544.5938"/><text fill="#000000" font-family="sans-serif" font-size="14" lengthAdjust="spacing" textLength="4.4502" x="70.7749" y="536.292">&#160;</text></g><ellipse cx="73" cy="165.2969" fill="#222222" rx="10" ry="10" style="stroke:#222222;stroke-width:1;"/><ellipse cx="73" cy="665.2969" fill="none" rx="11" ry="11" style="stroke:#222222;stroke-width:1;"/><ellipse cx="73" cy="665.2969" fill="#222222" rx="6" ry="6" style="stroke:#222222;stroke-width:1;"/><!--link *start*eliminarDocente to ConfirmandoEliminacion--><g class="link" data-entity-1=".start.eliminarDocente" data-entity-2="ConfirmandoEliminacion" data-source-line="13" data-uid="lnk3" id="link_.start.eliminarDocente_ConfirmandoEliminacion"><path d="M73,175.5269 C73,191.2369 73,217.6569 73,240.1669" fill="none" id="*start*eliminarDocente-to-ConfirmandoEliminacion" style="stroke:#008000;stroke-width:1;"/><polygon fill="#008000" points="73,246.1669,77,237.1669,73,241.1669,69,237.1669,73,246.1669" style="stroke:#008000;stroke-width:1;"/><path d="M78,198.2969 L78,223.2969 L463,223.2969 L463,208.2969 L453,198.2969 L78,198.2969" fill="#FEFFDD" style="stroke:#181818;stroke-width:0.5;"/><path d="M453,198.2969 L453,208.2969 L463,208.2969 L453,198.2969" fill="#FEFFDD" style="stroke:#181818;stroke-width:0.5;"/><text fill="#000000" font-family="sans-serif" font-size="13" font-weight="bold" lengthAdjust="spacing" textLength="200.5542" x="84" y="215.3638">Administrador institucional</text><text fill="#000000" font-family="sans-serif" font-size="13" lengthAdjust="spacing" textLength="159.7705" x="288.6865" y="215.3638">solicita eliminar docente</text></g><!--link ConfirmandoEliminacion to EliminandoDocente--><g class="link" data-entity-1="ConfirmandoEliminacion" data-entity-2="EliminandoDocente" data-source-line="18" data-uid="lnk4" id="link_ConfirmandoEliminacion_EliminandoDocente"><path d="M73,296.7369 C73,348.1369 73,460.9269 73,512.1069" fill="none" id="ConfirmandoEliminacion-to-EliminandoDocente" style="stroke:#008000;stroke-width:1;"/><polygon fill="#008000" points="73,518.1069,77,509.1069,73,513.1069,69,509.1069,73,518.1069" style="stroke:#008000;stroke-width:1;"/><path d="M78,319.2969 L78,495.2969 L451,495.2969 L451,329.2969 L441,319.2969 L78,319.2969" fill="#FEFFDD" style="stroke:#181818;stroke-width:0.5;"/><path d="M441,319.2969 L441,329.2969 L451,329.2969 L441,319.2969" fill="#FEFFDD" style="stroke:#181818;stroke-width:0.5;"/><text fill="#000000" font-family="sans-serif" font-size="13" font-weight="bold" lengthAdjust="spacing" textLength="58.9063" x="84" y="336.3638">Sistema</text><text fill="#000000" font-family="sans-serif" font-size="13" lengthAdjust="spacing" textLength="289.1992" x="147.0386" y="336.3638">presenta informaci&#243;n del docente a eliminar</text><text fill="#000000" font-family="sans-serif" font-size="13" lengthAdjust="spacing" textLength="63.7368" x="84" y="351.4966">&#8226; Nombre</text><text fill="#000000" font-family="sans-serif" font-size="13" lengthAdjust="spacing" textLength="70.7573" x="84" y="366.6294">&#8226; Apellidos</text><text fill="#000000" font-family="sans-serif" font-size="13" lengthAdjust="spacing" textLength="35.3691" x="84" y="381.7622">&#8226; DNI</text><text fill="#000000" font-family="sans-serif" font-size="13" lengthAdjust="spacing" textLength="136.3794" x="84" y="396.895">&#8226; Nombre de usuario</text><text fill="#000000" font-family="sans-serif" font-size="13" lengthAdjust="spacing" textLength="47.8677" x="84" y="412.0278">&#8226; Email</text><text fill="#000000" font-family="sans-serif" font-size="13" lengthAdjust="spacing" textLength="73.3345" x="84" y="427.1606">&#8226; Password</text><text fill="#000000" font-family="sans-serif" font-size="13" lengthAdjust="spacing" textLength="4.1323" x="84" y="442.2935">&#160;</text><text fill="#000000" font-family="sans-serif" font-size="13" lengthAdjust="spacing" textLength="249.6724" x="84" y="457.4263">&#8226; Presenta advertencia de eliminaci&#243;n</text><text fill="#000000" font-family="sans-serif" font-size="13" lengthAdjust="spacing" textLength="263.3706" x="84" y="472.5591">&#8226; Permite solicitar confirmar eliminaci&#243;n</text><text fill="#000000" font-family="sans-serif" font-size="13" lengthAdjust="spacing" textLength="255.9438" x="84" y="487.6919">&#8226; Permite solicitar cancelar eliminaci&#243;n</text></g><!--link EliminandoDocente to *end*eliminarDocente--><g class="link" data-entity-1="EliminandoDocente" data-entity-2=".end.eliminarDocente" data-source-line="33" data-uid="lnk6" id="link_EliminandoDocente_.end.eliminarDocente"><path d="M73,568.5769 C73,594.8769 73,629.5669 73,648.2769" fill="none" id="EliminandoDocente-to-*end*eliminarDocente" style="stroke:#008000;stroke-width:1;"/><polygon fill="#008000" points="73,654.2769,77,645.2769,73,649.2769,69,645.2769,73,654.2769" style="stroke:#008000;stroke-width:1;"/><path d="M78,591.2969 L78,631.2969 L537,631.2969 L537,601.2969 L527,591.2969 L78,591.2969" fill="#FEFFDD" style="stroke:#181818;stroke-width:0.5;"/><path d="M527,591.2969 L527,601.2969 L537,601.2969 L527,591.2969" fill="#FEFFDD" style="stroke:#181818;stroke-width:0.5;"/><text fill="#000000" font-family="sans-serif" font-size="13" font-weight="bold" lengthAdjust="spacing" textLength="200.5542" x="84" y="608.3638">Administrador institucional</text><text fill="#000000" font-family="sans-serif" font-size="13" lengthAdjust="spacing" textLength="233.5303" x="288.6865" y="608.3638">solicita confirmaci&#243;n de eliminaci&#243;n</text><text fill="#000000" font-family="sans-serif" font-size="13" font-weight="bold" lengthAdjust="spacing" textLength="58.9063" x="84" y="623.4966">Sistema</text><text fill="#000000" font-family="sans-serif" font-size="13" lengthAdjust="spacing" textLength="136.2905" x="147.0386" y="623.4966">confirma eliminaci&#243;n</text></g><g id="DOCENTES_ABIERTO"><rect fill="#F1F1F1" height="50" rx="12.5" ry="12.5" style="stroke:#181818;stroke-width:0.5;" width="165.6328" x="307" y="7"/><line style="stroke:#181818;stroke-width:0.5;" x1="307" x2="472.6328" y1="33.2969" y2="33.2969"/><text fill="#000000" font-family="sans-serif" font-size="14" lengthAdjust="spacing" textLength="145.6328" x="317" y="24.9951">DOCENTES_ABIERTO</text></g><!--link DOCENTES_ABIERTO to eliminarDocente--><g class="link" data-entity-1="DOCENTES_ABIERTO" data-entity-2="eliminarDocente" data-source-line="40" data-uid="lnk8" id="link_DOCENTES_ABIERTO_eliminarDocente"><path d="M383.5,57.15 C379.46,72.18 375.3376,87.4857 368.7676,111.9257" fill="none" id="DOCENTES_ABIERTO-to-eliminarDocente" style="stroke:#008000;stroke-width:1;"/><polygon fill="#008000" points="367.21,117.72,373.4093,110.067,368.508,112.8914,365.6836,107.9901,367.21,117.72" style="stroke:#008000;stroke-width:1;"/></g><!--link DOCENTE_ABIERTO to eliminarDocente--><g class="link" data-entity-1="DOCENTE_ABIERTO" data-entity-2="eliminarDocente" data-source-line="41" data-uid="lnk9" id="link_DOCENTE_ABIERTO_eliminarDocente"><path d="M199.43,57.15 C203.43,72.18 207.5056,87.4822 214.0156,111.9222" fill="none" id="DOCENTE_ABIERTO-to-eliminarDocente" style="stroke:#008000;stroke-width:1;"/><polygon fill="#008000" points="215.56,117.72,217.1087,107.9937,214.273,112.8885,209.3782,110.0528,215.56,117.72" style="stroke:#008000;stroke-width:1;"/></g><!--link eliminarDocente to DOCENTES_ABIERTO2--><g class="link" data-entity-1="eliminarDocente" data-entity-2="DOCENTES_ABIERTO2" data-source-line="43" data-uid="lnk10" id="link_eliminarDocente_DOCENTES_ABIERTO2"><path d="M149.49,686.02 C129.93,725.15 115.5423,753.9029 104.7723,775.4529" fill="none" id="eliminarDocente-to-DOCENTES_ABIERTO2" style="stroke:#008000;stroke-width:1;"/><polygon fill="#008000" points="102.09,780.82,109.6915,774.5576,104.3252,776.3474,102.5354,770.9812,102.09,780.82" style="stroke:#008000;stroke-width:1;"/><path d="M139,721 L139,746 L265,746 L265,731 L255,721 L139,721" fill="#FEFFDD" style="stroke:#181818;stroke-width:0.5;"/><path d="M255,721 L255,731 L265,731 L255,721" fill="#FEFFDD" style="stroke:#181818;stroke-width:0.5;"/><text fill="#000000" font-family="sans-serif" font-size="13" lengthAdjust="spacing" textLength="105.8408" x="145" y="738.0669">lista actualizada</text></g><!--link eliminarDocente to DOCENTES_ABIERTO3--><g class="link" data-entity-1="eliminarDocente" data-entity-2="DOCENTES_ABIERTO3" data-source-line="48" data-uid="lnk11" id="link_eliminarDocente_DOCENTES_ABIERTO3"><path d="M288.28,686.27 C288.11,704.65 288,716 288,716 C288,716 288,751 288,751 C288,751 288.5265,760.4793 289.3265,774.8493" fill="none" id="eliminarDocente-to-DOCENTES_ABIERTO3" style="stroke:#0000FF;stroke-width:1;"/><polygon fill="#0000FF" points="289.66,780.84,293.1535,771.6316,289.3821,775.8477,285.1659,772.0763,289.66,780.84" style="stroke:#0000FF;stroke-width:1;"/><path d="M293,721 L293,746 L448,746 L448,731 L438,721 L293,721" fill="#FEFFDD" style="stroke:#181818;stroke-width:0.5;"/><path d="M438,721 L438,731 L448,731 L438,721" fill="#FEFFDD" style="stroke:#181818;stroke-width:0.5;"/><text fill="#000000" font-family="sans-serif" font-size="13" lengthAdjust="spacing" textLength="134.2085" x="299" y="738.0669">cancelar eliminaci&#243;n</text></g><!--link eliminarDocente to DOCENTES_ABIERTO4--><g class="link" data-entity-1="eliminarDocente" data-entity-2="DOCENTES_ABIERTO4" data-source-line="53" data-uid="lnk12" id="link_eliminarDocente_DOCENTES_ABIERTO4"><path d="M441.23,686.27 C450.98,704.65 457,716 457,716 C457,716 471.393,748.834 482.933,775.184" fill="none" id="eliminarDocente-to-DOCENTES_ABIERTO4" style="stroke:#0000FF;stroke-width:1;"/><polygon fill="#0000FF" points="485.34,780.68,485.3935,770.8313,483.3342,776.1,478.0655,774.0406,485.34,780.68" style="stroke:#0000FF;stroke-width:1;"/><path d="M476,721 L476,746 L631,746 L631,731 L621,721 L476,721" fill="#FEFFDD" style="stroke:#181818;stroke-width:0.5;"/><path d="M621,721 L621,731 L631,731 L621,721" fill="#FEFFDD" style="stroke:#181818;stroke-width:0.5;"/><text fill="#000000" font-family="sans-serif" font-size="13" lengthAdjust="spacing" textLength="134.2085" x="482" y="738.0669">cancelar eliminaci&#243;n</text></g><!--SRC=[fPJDQjmm4CVlUefXUqa3eT3a61OsMHzosPGajn32h3KRXiYIaUI4RIdqMVeAVOI-IP-aOsTjhpzsoOSD1et-yzTFCvR28ziSFMPWs59SvmIvC-joe5I860dcb-V9uYQvdvrT95StbzteTHt-2XXWqezETgYFtwG-sQ7UoCbmnXRztALaPLoAUx63pnFueHJ8yv8paLTqvywks6TejKjUCb9sTgZRJ8fiOrX9gi_juHqStNvwy4JsxcYwpz8wSNIsBFLZ5JXTJcTQ91oYH-qyi0sHOr5ce3dzifn2S8PJZjZi4lGM0LbTkROuuyjt2CStCmPtBM2KOGMIUmeYHc5SELaWvRz_B6WoDH2qZ5N-lr-_OU6ofQTcECl96DOkD97vuW9wQl648XJesJKpIOPiMk4t3E7PUGtjlgjmZOZwYNmacpAMRbGNGeXRCVcCXReki8TqKph_wWIqAPan_R0lWw9tMY8_qSV_a9g_ximGgzVIEc4F_q-b-kUk0zuxPwftMUpLglx1tHOFxXVLgOsHRKYVqrYWuU-eKJN8OxPBKz2Owt7NTRoXxt8-UOlpVm00]--></g></svg>