<svg xmlns="http://www.w3.org/2000/svg" xmlns:xlink="http://www.w3.org/1999/xlink" contentStyleType="text/css" data-diagram-type="STATE" height="792px" preserveAspectRatio="none" style="width:747px;height:792px;background:#FFFFFF;" version="1.1" viewBox="0 0 747 792" width="747px" zoomAndPan="magnify"><defs/><g><g id="GRADO_ABIERTO"><rect fill="#F1F1F1" height="50" rx="12.5" ry="12.5" style="stroke:#181818;stroke-width:0.5;" width="140.4082" x="210.5" y="7"/><line style="stroke:#181818;stroke-width:0.5;" x1="210.5" x2="350.9082" y1="33.2969" y2="33.2969"/><text fill="#000000" font-family="sans-serif" font-size="14" lengthAdjust="spacing" textLength="120.4082" x="220.5" y="24.9951">GRADO_ABIERTO</text></g><g id="GRADO_ABIERTO2"><rect fill="#F1F1F1" height="50" rx="12.5" ry="12.5" style="stroke:#181818;stroke-width:0.5;" width="140.4082" x="120.5" y="736"/><line style="stroke:#181818;stroke-width:0.5;" x1="120.5" x2="260.9082" y1="762.2969" y2="762.2969"/><text fill="#000000" font-family="sans-serif" font-size="14" lengthAdjust="spacing" textLength="120.4082" x="130.5" y="753.9951">GRADO_ABIERTO</text></g><g id="GRADOS_ABIERTO"><rect fill="#F1F1F1" height="50" rx="12.5" ry="12.5" style="stroke:#181818;stroke-width:0.5;" width="149.2949" x="386" y="7"/><line style="stroke:#181818;stroke-width:0.5;" x1="386" x2="535.2949" y1="33.2969" y2="33.2969"/><text fill="#000000" font-family="sans-serif" font-size="14" lengthAdjust="spacing" textLength="129.2949" x="396" y="24.9951">GRADOS_ABIERTO</text></g><g id="GRADOS_ABIERTO2"><rect fill="#F1F1F1" height="50" rx="12.5" ry="12.5" style="stroke:#181818;stroke-width:0.5;" width="149.2949" x="296" y="736"/><line style="stroke:#181818;stroke-width:0.5;" x1="296" x2="445.2949" y1="762.2969" y2="762.2969"/><text fill="#000000" font-family="sans-serif" font-size="14" lengthAdjust="spacing" textLength="129.2949" x="306" y="753.9951">GRADOS_ABIERTO</text></g><g id="GRADOS_ABIERTO3"><rect fill="#F1F1F1" height="50" rx="12.5" ry="12.5" style="stroke:#181818;stroke-width:0.5;" width="149.2949" x="480" y="736"/><line style="stroke:#181818;stroke-width:0.5;" x1="480" x2="629.2949" y1="762.2969" y2="762.2969"/><text fill="#000000" font-family="sans-serif" font-size="14" lengthAdjust="spacing" textLength="129.2949" x="490" y="753.9951">GRADOS_ABIERTO</text></g><path d="M19.5,118 L721.5,118 A12.5,12.5 0 0 1 734,130.5 L734,144.2969 L7,144.2969 L7,130.5 A12.5,12.5 0 0 1 19.5,118" fill="#F1F1F1"/><rect fill="none" height="523.2969" rx="12.5" ry="12.5" style="stroke:#181818;stroke-width:0.5;" width="727" x="7" y="118"/><line style="stroke:#181818;stroke-width:0.5;" x1="7" x2="734" y1="144.2969" y2="144.2969"/><text fill="#000000" font-family="sans-serif" font-size="14" lengthAdjust="spacing" textLength="94.7734" x="323.1133" y="135.9951">editarGrado()</text><g id="editarGrado.EditandoDatos"><rect fill="#F1F1F1" height="50" rx="12.5" ry="12.5" style="stroke:#181818;stroke-width:0.5;" width="50" x="255" y="246.2969"/><line style="stroke:#181818;stroke-width:0.5;" x1="255" x2="305" y1="272.5938" y2="272.5938"/><text fill="#000000" font-family="sans-serif" font-size="14" lengthAdjust="spacing" textLength="4.4502" x="277.7749" y="264.292">&#160;</text></g><g id="editarGrado.GuardandoDatos"><rect fill="#F1F1F1" height="50" rx="12.5" ry="12.5" style="stroke:#181818;stroke-width:0.5;" width="50" x="255" y="488.2969"/><line style="stroke:#181818;stroke-width:0.5;" x1="255" x2="305" y1="514.5938" y2="514.5938"/><text fill="#000000" font-family="sans-serif" font-size="14" lengthAdjust="spacing" textLength="4.4502" x="277.7749" y="506.292">&#160;</text></g><ellipse cx="280" cy="165.2969" fill="#222222" rx="10" ry="10" style="stroke:#222222;stroke-width:1;"/><ellipse cx="280" cy="620.2969" fill="none" rx="11" ry="11" style="stroke:#222222;stroke-width:1;"/><ellipse cx="280" cy="620.2969" fill="#222222" rx="6" ry="6" style="stroke:#222222;stroke-width:1;"/><!--link *start*editarGrado to EditandoDatos--><g class="link" data-entity-1=".start.editarGrado" data-entity-2="EditandoDatos" data-source-line="14" data-uid="lnk3" id="link_.start.editarGrado_EditandoDatos"><path d="M280,175.5269 C280,191.2369 280,217.6569 280,240.1669" fill="none" id="*start*editarGrado-to-EditandoDatos" style="stroke:#008000;stroke-width:1;"/><polygon fill="#008000" points="280,246.1669,284,237.1669,280,241.1669,276,237.1669,280,246.1669" style="stroke:#008000;stroke-width:1;"/><path d="M285,198.2969 L285,223.2969 L500,223.2969 L500,208.2969 L490,198.2969 L285,198.2969" fill="#FEFFDD" style="stroke:#181818;stroke-width:0.5;"/><path d="M490,198.2969 L490,208.2969 L500,208.2969 L490,198.2969" fill="#FEFFDD" style="stroke:#181818;stroke-width:0.5;"/><text fill="#000000" font-family="sans-serif" font-size="13" font-weight="bold" lengthAdjust="spacing" textLength="60.5313" x="291" y="215.3638">Docente</text><text fill="#000000" font-family="sans-serif" font-size="13" lengthAdjust="spacing" textLength="130.0762" x="355.6636" y="215.3638">solicita editar grado</text></g><!--link EditandoDatos to GuardandoDatos--><g class="link" data-entity-1="EditandoDatos" data-entity-2="GuardandoDatos" data-source-line="19" data-uid="lnk4" id="link_EditandoDatos_GuardandoDatos"><path d="M254.94,279.7069 C214.17,291.7669 138,314.2969 138,314.2969 C138,314.2969 138,470.2969 138,470.2969 C138,470.2969 208.4164,491.1249 249.1864,503.1849" fill="none" id="EditandoDatos-to-GuardandoDatos" style="stroke:#008000;stroke-width:1;"/><polygon fill="#008000" points="254.94,504.8869,247.4443,498.4983,250.1454,503.4686,245.175,506.1697,254.94,504.8869" style="stroke:#008000;stroke-width:1;"/><path d="M143,319.2969 L143,465.2969 L396,465.2969 L396,329.2969 L386,319.2969 L143,319.2969" fill="#FEFFDD" style="stroke:#181818;stroke-width:0.5;"/><path d="M386,319.2969 L386,329.2969 L396,329.2969 L386,319.2969" fill="#FEFFDD" style="stroke:#181818;stroke-width:0.5;"/><text fill="#000000" font-family="sans-serif" font-size="13" font-weight="bold" lengthAdjust="spacing" textLength="58.9063" x="149" y="336.3638">Sistema</text><text fill="#000000" font-family="sans-serif" font-size="13" lengthAdjust="spacing" textLength="169.1714" x="212.0386" y="336.3638">presenta datos de edici&#243;n</text><text fill="#000000" font-family="sans-serif" font-size="13" lengthAdjust="spacing" textLength="115.1719" x="149" y="351.4966">&#8226; Nombre, c&#243;digo</text><text fill="#000000" font-family="sans-serif" font-size="13" lengthAdjust="spacing" textLength="192.8608" x="149" y="366.6294">&#8226; Lista de alumnos enlistados</text><text fill="#000000" font-family="sans-serif" font-size="13" lengthAdjust="spacing" textLength="4.1323" x="149" y="381.7622">&#160;</text><text fill="#000000" font-family="sans-serif" font-size="13" font-weight="bold" lengthAdjust="spacing" textLength="58.9063" x="149" y="396.895">Sistema</text><text fill="#000000" font-family="sans-serif" font-size="13" lengthAdjust="spacing" textLength="110.5952" x="212.0386" y="396.895">permite solicitar:</text><text fill="#000000" font-family="sans-serif" font-size="13" lengthAdjust="spacing" textLength="127.8164" x="149" y="412.0278">&#8226; modificar campos</text><text fill="#000000" font-family="sans-serif" font-size="13" lengthAdjust="spacing" textLength="105.0664" x="149" y="427.1606">&#8226; guardar grado</text><text fill="#000000" font-family="sans-serif" font-size="13" lengthAdjust="spacing" textLength="118.168" x="149" y="442.2935">&#8226; cancelar edici&#243;n</text><text fill="#000000" font-family="sans-serif" font-size="13" lengthAdjust="spacing" textLength="64.8477" x="149" y="457.4263">&#8226; eliminar</text></g><!--link GuardandoDatos to EditandoDatos--><g class="link" data-entity-1="GuardandoDatos" data-entity-2="EditandoDatos" data-source-line="32" data-uid="lnk5" id="link_GuardandoDatos_EditandoDatos"><path d="M305.07,503.5969 C340.51,491.2969 401,470.2969 401,470.2969 C401,470.2969 401,314.2969 401,314.2969 C401,314.2969 346.1783,295.2642 310.7383,282.9642" fill="none" id="GuardandoDatos-to-EditandoDatos" style="stroke:#008000;stroke-width:1;"/><polygon fill="#008000" points="305.07,280.9969,312.261,287.7267,309.7936,282.6363,314.884,280.1689,305.07,280.9969" style="stroke:#008000;stroke-width:1;"/><path d="M406,379.7969 L406,404.7969 L657,404.7969 L657,389.7969 L647,379.7969 L406,379.7969" fill="#FEFFDD" style="stroke:#181818;stroke-width:0.5;"/><path d="M647,379.7969 L647,389.7969 L657,389.7969 L647,379.7969" fill="#FEFFDD" style="stroke:#181818;stroke-width:0.5;"/><text fill="#000000" font-family="sans-serif" font-size="13" font-weight="bold" lengthAdjust="spacing" textLength="60.5313" x="412" y="396.8638">Docente</text><text fill="#000000" font-family="sans-serif" font-size="13" lengthAdjust="spacing" textLength="165.9214" x="476.6636" y="396.8638">solicita modificar campos</text></g><!--link GuardandoDatos to *end*editarGrado--><g class="link" data-entity-1="GuardandoDatos" data-entity-2=".end.editarGrado" data-source-line="37" data-uid="lnk7" id="link_GuardandoDatos_.end.editarGrado"><path d="M254.88,518.3269 C189.3,528.8369 18,556.2969 18,556.2969 C18,556.2969 18,591.2969 18,591.2969 C18,591.2969 213.524,612.1892 263.114,617.4892" fill="none" id="GuardandoDatos-to-*end*editarGrado" style="stroke:#008000;stroke-width:1;"/><polygon fill="#008000" points="269.08,618.1269,260.556,613.1931,264.1083,617.5955,259.7059,621.1478,269.08,618.1269" style="stroke:#008000;stroke-width:1;"/><path d="M23,561.2969 L23,586.2969 L253,586.2969 L253,571.2969 L243,561.2969 L23,561.2969" fill="#FEFFDD" style="stroke:#181818;stroke-width:0.5;"/><path d="M243,561.2969 L243,571.2969 L253,571.2969 L243,561.2969" fill="#FEFFDD" style="stroke:#181818;stroke-width:0.5;"/><text fill="#000000" font-family="sans-serif" font-size="13" font-weight="bold" lengthAdjust="spacing" textLength="60.5313" x="29" y="578.3638">Docente</text><text fill="#000000" font-family="sans-serif" font-size="13" lengthAdjust="spacing" textLength="144.5361" x="93.6636" y="578.3638">solicita guardar y salir</text></g><!--link GuardandoDatos to *end*editarGrado--><g class="link" data-entity-1="GuardandoDatos" data-entity-2=".end.editarGrado" data-source-line="42" data-uid="lnk8" id="link_GuardandoDatos_.end.editarGrado"><path d="M280,538.3869 C280,560.7869 280,587.0669 280,603.2469" fill="none" id="GuardandoDatos-to-*end*editarGrado-1" style="stroke:#FF0000;stroke-width:1;"/><polygon fill="#FF0000" points="280,609.2469,284,600.2469,280,604.2469,276,600.2469,280,609.2469" style="stroke:#FF0000;stroke-width:1;"/><path d="M285,561.2969 L285,586.2969 L526,586.2969 L526,571.2969 L516,561.2969 L285,561.2969" fill="#FEFFDD" style="stroke:#181818;stroke-width:0.5;"/><path d="M516,561.2969 L516,571.2969 L526,571.2969 L516,561.2969" fill="#FEFFDD" style="stroke:#181818;stroke-width:0.5;"/><text fill="#000000" font-family="sans-serif" font-size="13" font-weight="bold" lengthAdjust="spacing" textLength="60.5313" x="291" y="578.3638">Docente</text><text fill="#000000" font-family="sans-serif" font-size="13" lengthAdjust="spacing" textLength="156.2729" x="355.6636" y="578.3638">solicita cancelar edici&#243;n</text></g><!--link GuardandoDatos to *end*editarGrado--><g class="link" data-entity-1="GuardandoDatos" data-entity-2=".end.editarGrado" data-source-line="47" data-uid="lnk9" id="link_GuardandoDatos_.end.editarGrado"><path d="M305.08,518.4769 C368.82,529.0969 532,556.2969 532,556.2969 C532,556.2969 532,591.2969 532,591.2969 C532,591.2969 345.0233,612.0742 296.7933,617.4342" fill="none" id="GuardandoDatos-to-*end*editarGrado-2" style="stroke:#0000FF;stroke-width:1;"/><polygon fill="#0000FF" points="290.83,618.0969,300.2167,621.0783,295.7994,617.5446,299.3331,613.1273,290.83,618.0969" style="stroke:#0000FF;stroke-width:1;"/><path d="M537,561.2969 L537,586.2969 L725,586.2969 L725,571.2969 L715,561.2969 L537,561.2969" fill="#FEFFDD" style="stroke:#181818;stroke-width:0.5;"/><path d="M715,561.2969 L715,571.2969 L725,571.2969 L715,561.2969" fill="#FEFFDD" style="stroke:#181818;stroke-width:0.5;"/><text fill="#000000" font-family="sans-serif" font-size="13" font-weight="bold" lengthAdjust="spacing" textLength="60.5313" x="543" y="578.3638">Docente</text><text fill="#000000" font-family="sans-serif" font-size="13" lengthAdjust="spacing" textLength="102.9526" x="607.6636" y="578.3638">solicita eliminar</text></g><!--link GRADO_ABIERTO to editarGrado--><g class="link" data-entity-1="GRADO_ABIERTO" data-entity-2="editarGrado" data-source-line="54" data-uid="lnk10" id="link_GRADO_ABIERTO_editarGrado"><path d="M286.76,57.02 C290.68,72.09 294.6865,87.464 301.0365,111.824" fill="none" id="GRADO_ABIERTO-to-editarGrado" style="stroke:#008000;stroke-width:1;"/><polygon fill="#008000" points="302.55,117.63,304.1505,107.9121,301.2888,112.7917,296.4091,109.93,302.55,117.63" style="stroke:#008000;stroke-width:1;"/></g><!--link GRADOS_ABIERTO to editarGrado--><g class="link" data-entity-1="GRADOS_ABIERTO" data-entity-2="editarGrado" data-source-line="56" data-uid="lnk11" id="link_GRADOS_ABIERTO_editarGrado"><path d="M454.24,57.02 C450.32,72.09 446.3135,87.464 439.9635,111.824" fill="none" id="GRADOS_ABIERTO-to-editarGrado" style="stroke:#008000;stroke-width:1;"/><polygon fill="#008000" points="438.45,117.63,444.5909,109.93,439.7112,112.7917,436.8495,107.9121,438.45,117.63" style="stroke:#008000;stroke-width:1;"/></g><!--link editarGrado to GRADO_ABIERTO2--><g class="link" data-entity-1="editarGrado" data-entity-2="GRADO_ABIERTO2" data-source-line="58" data-uid="lnk12" id="link_editarGrado_GRADO_ABIERTO2"><path d="M246.84,641.23 C228.47,679.96 214.8513,708.6589 204.6013,730.2689" fill="none" id="editarGrado-to-GRADO_ABIERTO2" style="stroke:#008000;stroke-width:1;"/><polygon fill="#008000" points="202.03,735.69,209.501,729.2726,204.1728,731.1724,202.2729,725.8441,202.03,735.69" style="stroke:#008000;stroke-width:1;"/><path d="M234.5,676 L234.5,701 L306.5,701 L306.5,686 L296.5,676 L234.5,676" fill="#FEFFDD" style="stroke:#181818;stroke-width:0.5;"/><path d="M296.5,676 L296.5,686 L306.5,686 L296.5,676" fill="#FEFFDD" style="stroke:#181818;stroke-width:0.5;"/><text fill="#000000" font-family="sans-serif" font-size="13" lengthAdjust="spacing" textLength="51.3652" x="240.5" y="693.0669">guardar</text></g><!--link editarGrado to GRADOS_ABIERTO2--><g class="link" data-entity-1="editarGrado" data-entity-2="GRADOS_ABIERTO2" data-source-line="63" data-uid="lnk13" id="link_editarGrado_GRADOS_ABIERTO2"><path d="M370.5,641.23 C370.5,679.96 370.5,708.08 370.5,729.69" fill="none" id="editarGrado-to-GRADOS_ABIERTO2" style="stroke:#FF0000;stroke-width:1;"/><polygon fill="#FF0000" points="370.5,735.69,374.5,726.69,370.5,730.69,366.5,726.69,370.5,735.69" style="stroke:#FF0000;stroke-width:1;"/><path d="M375.5,676 L375.5,701 L502.5,701 L502.5,686 L492.5,676 L375.5,676" fill="#FEFFDD" style="stroke:#181818;stroke-width:0.5;"/><path d="M492.5,676 L492.5,686 L502.5,686 L492.5,676" fill="#FEFFDD" style="stroke:#181818;stroke-width:0.5;"/><text fill="#000000" font-family="sans-serif" font-size="13" lengthAdjust="spacing" textLength="106.3677" x="381.5" y="693.0669">cancelar edici&#243;n</text></g><!--link editarGrado to GRADOS_ABIERTO3--><g class="link" data-entity-1="editarGrado" data-entity-2="GRADOS_ABIERTO3" data-source-line="68" data-uid="lnk14" id="link_editarGrado_GRADOS_ABIERTO3"><path d="M500.53,641.01 C509.75,659.47 515.5,671 515.5,671 C515.5,671 529.893,703.834 541.433,730.184" fill="none" id="editarGrado-to-GRADOS_ABIERTO3" style="stroke:#0000FF;stroke-width:1;"/><polygon fill="#0000FF" points="543.84,735.68,543.8935,725.8313,541.8342,731.1,536.5655,729.0406,543.84,735.68" style="stroke:#0000FF;stroke-width:1;"/><path d="M534.5,676 L534.5,701 L608.5,701 L608.5,686 L598.5,676 L534.5,676" fill="#FEFFDD" style="stroke:#181818;stroke-width:0.5;"/><path d="M598.5,676 L598.5,686 L608.5,686 L598.5,676" fill="#FEFFDD" style="stroke:#181818;stroke-width:0.5;"/><text fill="#000000" font-family="sans-serif" font-size="13" lengthAdjust="spacing" textLength="53.0474" x="540.5" y="693.0669">eliminar</text></g><!--SRC=[dLJTIiCm6BtFKuHwe-8GvfsCmMHZ2E9WzMuCIPlF4fOc9UakXWW-Yw-mHzYR-2IcMTir_N4_BHJovUISavFcqoic4g98Z3aJa6uIm8dacso0a4v92dWw7urdxwEdvydyROQ9nfvJyTfW_ICulydd_m_idunyQ4NcKA0i9Mgg29KMLXbVttZu4o5idZtMCw_1J3A8e79CKgcRqzCrKRISntk2nUqIznPNaG8GozxGvS0M8gJXa2BBVMKBWs0ubY6850RtmH1hoLbeLkMMSPHvj40GTB_QFAZyk19LSTTXfxZFT0eniUA90csS44mj6xN1XMot5HRz-_s3NsKSABZ3uMvBMIJB-ekX8TaAmjUnC8j1yAn4S-bMEL0nCuwAFQl7aYwMb7smq0GGaZZ9ERA9oEwgcajM3Oa8WPjomozm5ZD1b1FXmL7j63iFxxopQtL_bhZvaywJB7BPO4qugsstGqq1lKYhFUrJzXVmDLmasNwCw0iXjqzLCwnSyXpc7yTLEuLpcvm-XnpZUVReuAl6aWTTQsqkIJFKJheYnLe3TFdAn0gQFm00]--></g></svg>