<?plantuml 1.2026.2?><svg xmlns="http://www.w3.org/2000/svg" xmlns:xlink="http://www.w3.org/1999/xlink" contentStyleType="text/css" data-diagram-type="SEQUENCE" height="1788px" preserveAspectRatio="none" style="width:1598px;height:1788px;background:#FFFFFF;" version="1.1" viewBox="0 0 1598 1788" width="1598px" zoomAndPan="magnify"><title>Diagrama de Secuencia - Corregir Ex&#225;menes (Simplificado) - Spring Boot + React</title><defs/><g><text fill="#000000" font-family="sans-serif" font-size="14" font-weight="bold" lengthAdjust="spacing" textLength="640.7188" x="474.8018" y="27.9951">Diagrama de Secuencia - Corregir Ex&#225;menes (Simplificado) - Spring Boot + React</text><g><title>Frontend .React.</title><rect fill="#FFFFFF" height="1505.0391" style="stroke:#181818;stroke-width:1;" width="10" x="366.4673" y="192.8594"/></g><g><title>ExamenesController</title><rect fill="#FFFFFF" height="203.9297" style="stroke:#181818;stroke-width:1;" width="10" x="654.9004" y="221.9922"/></g><g><title>ExamenesController</title><rect fill="#FFFFFF" height="348.4609" style="stroke:#181818;stroke-width:1;" width="10" x="654.9004" y="690.25"/></g><g><title>ExamenesController</title><rect fill="#FFFFFF" height="174.7969" style="stroke:#181818;stroke-width:1;" width="10" x="654.9004" y="1280.0391"/></g><g><title>ExamenService</title><rect fill="#FFFFFF" height="145.6641" style="stroke:#181818;stroke-width:1;" width="10" x="896.3354" y="251.125"/></g><g><title>ExamenService</title><rect fill="#FFFFFF" height="290.1953" style="stroke:#181818;stroke-width:1;" width="10" x="896.3354" y="719.3828"/></g><g><title>ExamenService</title><rect fill="#FFFFFF" height="40.1328" style="stroke:#181818;stroke-width:1;" width="10" x="901.3354" y="838.9141"/></g><g><title>ExamenService</title><rect fill="#FFFFFF" height="116.5313" style="stroke:#181818;stroke-width:1;" width="10" x="896.3354" y="1309.1719"/></g><g><title>ExamenSessionService</title><rect fill="#FFFFFF" height="87.3984" style="stroke:#181818;stroke-width:1;" width="10" x="1147.4019" y="280.2578"/></g><g><title>ExamenSessionService</title><rect fill="#FFFFFF" height="58.2656" style="stroke:#181818;stroke-width:1;" width="10" x="1147.4019" y="915.1797"/></g><g><title>ExamenSessionService</title><rect fill="#FFFFFF" height="58.2656" style="stroke:#181818;stroke-width:1;" width="10" x="1147.4019" y="1338.3047"/></g><g><title>CorreccionService</title><rect fill="#FFFFFF" height="29.1328" style="stroke:#181818;stroke-width:1;" width="10" x="1315.8623" y="772.6484"/></g><rect fill="none" height="61.3984" style="stroke:#000000;stroke-width:1.5;" width="437.7622" x="10" y="485.1875"/><rect fill="none" height="247.0625" style="stroke:#000000;stroke-width:1.5;" width="671.0879" x="830.0479" y="734.3828"/><rect fill="none" height="75.3984" style="stroke:#000000;stroke-width:1.5;" width="737.8574" x="10" y="1615.5"/><g class="participant-lifeline" data-entity-uid="part1" data-qualified-name="Teacher" id="part1-lifeline"><g><title>Docente</title><rect fill="#000000" fill-opacity="0.00000" height="1589.3047" width="8" x="48.3159" y="118.5938"/><line style="stroke:#181818;stroke-width:0.5;stroke-dasharray:5,5;" x1="52" x2="52" y1="118.5938" y2="1707.8984"/></g></g><g class="participant-lifeline" data-entity-uid="part2" data-qualified-name="FE" id="part2-lifeline"><g><title>Frontend .React.</title><rect fill="#000000" fill-opacity="0.00000" height="1589.3047" width="8" x="367.4673" y="118.5938"/><line style="stroke:#181818;stroke-width:0.5;stroke-dasharray:5,5;" x1="371.1724" x2="371.1724" y1="118.5938" y2="1707.8984"/></g></g><g class="participant-lifeline" data-entity-uid="part3" data-qualified-name="Controller" id="part3-lifeline"><g><title>ExamenesController</title><rect fill="#000000" fill-opacity="0.00000" height="1589.3047" width="8" x="655.9004" y="118.5938"/><line style="stroke:#181818;stroke-width:0.5;stroke-dasharray:5,5;" x1="658.9434" x2="658.9434" y1="118.5938" y2="1707.8984"/></g></g><g class="participant-lifeline" data-entity-uid="part4" data-qualified-name="Service" id="part4-lifeline"><g><title>ExamenService</title><rect fill="#000000" fill-opacity="0.00000" height="1589.3047" width="8" x="897.3354" y="118.5938"/><line style="stroke:#181818;stroke-width:0.5;stroke-dasharray:5,5;" x1="901.0479" x2="901.0479" y1="118.5938" y2="1707.8984"/></g></g><g class="participant-lifeline" data-entity-uid="part5" data-qualified-name="SessionService" id="part5-lifeline"><g><title>ExamenSessionService</title><rect fill="#000000" fill-opacity="0.00000" height="1589.3047" width="8" x="1148.4019" y="118.5938"/><line style="stroke:#181818;stroke-width:0.5;stroke-dasharray:5,5;" x1="1151.4063" x2="1151.4063" y1="118.5938" y2="1707.8984"/></g></g><g class="participant-lifeline" data-entity-uid="part6" data-qualified-name="CorreccionService" id="part6-lifeline"><g><title>CorreccionService</title><rect fill="#000000" fill-opacity="0.00000" height="1589.3047" width="8" x="1316.8623" y="118.5938"/><line style="stroke:#181818;stroke-width:0.5;stroke-dasharray:5,5;" x1="1320.3975" x2="1320.3975" y1="118.5938" y2="1707.8984"/></g></g><g class="participant-lifeline" data-entity-uid="part7" data-qualified-name="Session" id="part7-lifeline"><g><title>HttpSession</title><rect fill="#000000" fill-opacity="0.00000" height="1589.3047" width="8" x="1442.2314" y="118.5938"/><line style="stroke:#181818;stroke-width:0.5;stroke-dasharray:5,5;" x1="1445.3271" x2="1445.3271" y1="118.5938" y2="1707.8984"/></g></g><g class="participant participant-head" data-entity-uid="part1" data-qualified-name="Teacher" id="part1-head"><text fill="#000000" font-family="sans-serif" font-size="14" lengthAdjust="spacing" textLength="58.6318" x="20" y="115.292">Docente</text><ellipse cx="52.3159" cy="50.7969" fill="#E2E2F0" rx="8" ry="8" style="stroke:#181818;stroke-width:0.5;"/><path d="M52.3159,58.7969 L52.3159,85.7969 M39.3159,66.7969 L65.3159,66.7969 M52.3159,85.7969 L39.3159,100.7969 M52.3159,85.7969 L65.3159,100.7969" fill="none" style="stroke:#181818;stroke-width:0.5;"/></g><g class="participant participant-tail" data-entity-uid="part1" data-qualified-name="Teacher" id="part1-tail"><text fill="#000000" font-family="sans-serif" font-size="14" lengthAdjust="spacing" textLength="58.6318" x="20" y="1719.8936">Docente</text><ellipse cx="52.3159" cy="1731.6953" fill="#E2E2F0" rx="8" ry="8" style="stroke:#181818;stroke-width:0.5;"/><path d="M52.3159,1739.6953 L52.3159,1766.6953 M39.3159,1747.6953 L65.3159,1747.6953 M52.3159,1766.6953 L39.3159,1781.6953 M52.3159,1766.6953 L65.3159,1781.6953" fill="none" style="stroke:#181818;stroke-width:0.5;"/></g><g class="participant participant-head" data-entity-uid="part2" data-qualified-name="FE" id="part2-head"><rect fill="#E2E2F0" height="30.2969" rx="2.5" ry="2.5" style="stroke:#181818;stroke-width:0.5;" width="132.5898" x="305.1724" y="87.2969"/><text fill="#000000" font-family="sans-serif" font-size="14" lengthAdjust="spacing" textLength="118.5898" x="312.1724" y="107.292">Frontend (React)</text></g><g class="participant participant-tail" data-entity-uid="part2" data-qualified-name="FE" id="part2-tail"><rect fill="#E2E2F0" height="30.2969" rx="2.5" ry="2.5" style="stroke:#181818;stroke-width:0.5;" width="132.5898" x="305.1724" y="1706.8984"/><text fill="#000000" font-family="sans-serif" font-size="14" lengthAdjust="spacing" textLength="118.5898" x="312.1724" y="1726.8936">Frontend (React)</text></g><g class="participant participant-head" data-entity-uid="part3" data-qualified-name="Controller" id="part3-head"><rect fill="#E2E2F0" height="30.2969" rx="2.5" ry="2.5" style="stroke:#181818;stroke-width:0.5;" width="155.9141" x="581.9434" y="87.2969"/><text fill="#000000" font-family="sans-serif" font-size="14" lengthAdjust="spacing" textLength="141.9141" x="588.9434" y="107.292">ExamenesController</text></g><g class="participant participant-tail" data-entity-uid="part3" data-qualified-name="Controller" id="part3-tail"><rect fill="#E2E2F0" height="30.2969" rx="2.5" ry="2.5" style="stroke:#181818;stroke-width:0.5;" width="155.9141" x="581.9434" y="1706.8984"/><text fill="#000000" font-family="sans-serif" font-size="14" lengthAdjust="spacing" textLength="141.9141" x="588.9434" y="1726.8936">ExamenesController</text></g><g class="participant participant-head" data-entity-uid="part4" data-qualified-name="Service" id="part4-head"><rect fill="#E2E2F0" height="30.2969" rx="2.5" ry="2.5" style="stroke:#181818;stroke-width:0.5;" width="122.5752" x="840.0479" y="87.2969"/><text fill="#000000" font-family="sans-serif" font-size="14" lengthAdjust="spacing" textLength="108.5752" x="847.0479" y="107.292">ExamenService</text></g><g class="participant participant-tail" data-entity-uid="part4" data-qualified-name="Service" id="part4-tail"><rect fill="#E2E2F0" height="30.2969" rx="2.5" ry="2.5" style="stroke:#181818;stroke-width:0.5;" width="122.5752" x="840.0479" y="1706.8984"/><text fill="#000000" font-family="sans-serif" font-size="14" lengthAdjust="spacing" textLength="108.5752" x="847.0479" y="1726.8936">ExamenService</text></g><g class="participant participant-head" data-entity-uid="part5" data-qualified-name="SessionService" id="part5-head"><rect fill="#E2E2F0" height="30.2969" rx="2.5" ry="2.5" style="stroke:#181818;stroke-width:0.5;" width="175.9912" x="1064.4063" y="87.2969"/><text fill="#000000" font-family="sans-serif" font-size="14" lengthAdjust="spacing" textLength="161.9912" x="1071.4063" y="107.292">ExamenSessionService</text></g><g class="participant participant-tail" data-entity-uid="part5" data-qualified-name="SessionService" id="part5-tail"><rect fill="#E2E2F0" height="30.2969" rx="2.5" ry="2.5" style="stroke:#181818;stroke-width:0.5;" width="175.9912" x="1064.4063" y="1706.8984"/><text fill="#000000" font-family="sans-serif" font-size="14" lengthAdjust="spacing" textLength="161.9912" x="1071.4063" y="1726.8936">ExamenSessionService</text></g><g class="participant participant-head" data-entity-uid="part6" data-qualified-name="CorreccionService" id="part6-head"><rect fill="#E2E2F0" height="30.2969" rx="2.5" ry="2.5" style="stroke:#181818;stroke-width:0.5;" width="140.9297" x="1250.3975" y="87.2969"/><text fill="#000000" font-family="sans-serif" font-size="14" lengthAdjust="spacing" textLength="126.9297" x="1257.3975" y="107.292">CorreccionService</text></g><g class="participant participant-tail" data-entity-uid="part6" data-qualified-name="CorreccionService" id="part6-tail"><rect fill="#E2E2F0" height="30.2969" rx="2.5" ry="2.5" style="stroke:#181818;stroke-width:0.5;" width="140.9297" x="1250.3975" y="1706.8984"/><text fill="#000000" font-family="sans-serif" font-size="14" lengthAdjust="spacing" textLength="126.9297" x="1257.3975" y="1726.8936">CorreccionService</text></g><g class="participant participant-head" data-entity-uid="part7" data-qualified-name="Session" id="part7-head"><text fill="#000000" font-family="sans-serif" font-size="14" lengthAdjust="spacing" textLength="83.8086" x="1401.3271" y="115.292">HttpSession</text><path d="M1428.2314,66.2969 C1428.2314,56.2969 1446.2314,56.2969 1446.2314,56.2969 C1446.2314,56.2969 1464.2314,56.2969 1464.2314,66.2969 L1464.2314,92.2969 C1464.2314,102.2969 1446.2314,102.2969 1446.2314,102.2969 C1446.2314,102.2969 1428.2314,102.2969 1428.2314,92.2969 L1428.2314,66.2969" fill="#E2E2F0" style="stroke:#181818;stroke-width:0.5;"/><path d="M1428.2314,66.2969 C1428.2314,76.2969 1446.2314,76.2969 1446.2314,76.2969 C1446.2314,76.2969 1464.2314,76.2969 1464.2314,66.2969" fill="none" style="stroke:#181818;stroke-width:0.5;"/></g><g class="participant participant-tail" data-entity-uid="part7" data-qualified-name="Session" id="part7-tail"><text fill="#000000" font-family="sans-serif" font-size="14" lengthAdjust="spacing" textLength="83.8086" x="1401.3271" y="1719.8936">HttpSession</text><path d="M1428.2314,1733.1953 C1428.2314,1723.1953 1446.2314,1723.1953 1446.2314,1723.1953 C1446.2314,1723.1953 1464.2314,1723.1953 1464.2314,1733.1953 L1464.2314,1759.1953 C1464.2314,1769.1953 1446.2314,1769.1953 1446.2314,1769.1953 C1446.2314,1769.1953 1428.2314,1769.1953 1428.2314,1759.1953 L1428.2314,1733.1953" fill="#E2E2F0" style="stroke:#181818;stroke-width:0.5;"/><path d="M1428.2314,1733.1953 C1428.2314,1743.1953 1446.2314,1743.1953 1446.2314,1743.1953 C1446.2314,1743.1953 1464.2314,1743.1953 1464.2314,1733.1953" fill="none" style="stroke:#181818;stroke-width:0.5;"/></g><g><title>Frontend .React.</title><rect fill="#FFFFFF" height="1505.0391" style="stroke:#181818;stroke-width:1;" width="10" x="366.4673" y="192.8594"/></g><g><title>ExamenesController</title><rect fill="#FFFFFF" height="203.9297" style="stroke:#181818;stroke-width:1;" width="10" x="654.9004" y="221.9922"/></g><g><title>ExamenesController</title><rect fill="#FFFFFF" height="348.4609" style="stroke:#181818;stroke-width:1;" width="10" x="654.9004" y="690.25"/></g><g><title>ExamenesController</title><rect fill="#FFFFFF" height="174.7969" style="stroke:#181818;stroke-width:1;" width="10" x="654.9004" y="1280.0391"/></g><g><title>ExamenService</title><rect fill="#FFFFFF" height="145.6641" style="stroke:#181818;stroke-width:1;" width="10" x="896.3354" y="251.125"/></g><g><title>ExamenService</title><rect fill="#FFFFFF" height="290.1953" style="stroke:#181818;stroke-width:1;" width="10" x="896.3354" y="719.3828"/></g><g><title>ExamenService</title><rect fill="#FFFFFF" height="40.1328" style="stroke:#181818;stroke-width:1;" width="10" x="901.3354" y="838.9141"/></g><g><title>ExamenService</title><rect fill="#FFFFFF" height="116.5313" style="stroke:#181818;stroke-width:1;" width="10" x="896.3354" y="1309.1719"/></g><g><title>ExamenSessionService</title><rect fill="#FFFFFF" height="87.3984" style="stroke:#181818;stroke-width:1;" width="10" x="1147.4019" y="280.2578"/></g><g><title>ExamenSessionService</title><rect fill="#FFFFFF" height="58.2656" style="stroke:#181818;stroke-width:1;" width="10" x="1147.4019" y="915.1797"/></g><g><title>ExamenSessionService</title><rect fill="#FFFFFF" height="58.2656" style="stroke:#181818;stroke-width:1;" width="10" x="1147.4019" y="1338.3047"/></g><g><title>CorreccionService</title><rect fill="#FFFFFF" height="29.1328" style="stroke:#181818;stroke-width:1;" width="10" x="1315.8623" y="772.6484"/></g><rect fill="#EEEEEE" height="3" style="stroke:#EEEEEE;stroke-width:1;" width="1591.3223" x="0" y="149.1602"/><line style="stroke:#000000;stroke-width:1;" x1="0" x2="1591.3223" y1="149.1602" y2="149.1602"/><line style="stroke:#000000;stroke-width:1;" x1="0" x2="1591.3223" y1="152.1602" y2="152.1602"/><rect fill="#EEEEEE" height="23.1328" style="stroke:#000000;stroke-width:2;" width="313.3301" x="638.9961" y="138.5938"/><text fill="#000000" font-family="sans-serif" font-size="13" font-weight="bold" lengthAdjust="spacing" textLength="294.8042" x="644.9961" y="154.6606">FLUJO PRINCIPAL: CORREGIR EX&#193;MENES</text><g class="message" data-entity-1="part1" data-entity-2="part2" id="msg1"><polygon fill="#181818" points="354.4673,188.8594,364.4673,192.8594,354.4673,196.8594,358.4673,192.8594" style="stroke:#181818;stroke-width:1;"/><line style="stroke:#181818;stroke-width:1;" x1="52.3159" x2="360.4673" y1="192.8594" y2="192.8594"/><text fill="#000000" font-family="sans-serif" font-size="13" lengthAdjust="spacing" textLength="184.5137" x="59.3159" y="187.7935">Clic en "Corregir Ex&#225;menes"</text></g><g class="message" data-entity-1="part2" data-entity-2="part3" id="msg2"><polygon fill="#181818" points="642.9004,217.9922,652.9004,221.9922,642.9004,225.9922,646.9004,221.9922" style="stroke:#181818;stroke-width:1;"/><line style="stroke:#181818;stroke-width:1;" x1="376.4673" x2="648.9004" y1="221.9922" y2="221.9922"/><text fill="#000000" font-family="sans-serif" font-size="13" lengthAdjust="spacing" textLength="196.4473" x="383.4673" y="216.9263">GET /api/examenes/asignados</text></g><g class="message" data-entity-1="part3" data-entity-2="part4" id="msg3"><polygon fill="#181818" points="884.3354,247.125,894.3354,251.125,884.3354,255.125,888.3354,251.125" style="stroke:#181818;stroke-width:1;"/><line style="stroke:#181818;stroke-width:1;" x1="664.9004" x2="890.3354" y1="251.125" y2="251.125"/><text fill="#000000" font-family="sans-serif" font-size="13" lengthAdjust="spacing" textLength="195.2856" x="671.9004" y="246.0591">obtenerExamenesAsignados()</text></g><g class="message" data-entity-1="part4" data-entity-2="part5" id="msg4"><polygon fill="#181818" points="1135.4019,276.2578,1145.4019,280.2578,1135.4019,284.2578,1139.4019,280.2578" style="stroke:#181818;stroke-width:1;"/><line style="stroke:#181818;stroke-width:1;" x1="906.3354" x2="1141.4019" y1="280.2578" y2="280.2578"/><text fill="#000000" font-family="sans-serif" font-size="13" lengthAdjust="spacing" textLength="195.2856" x="913.3354" y="275.1919">obtenerExamenesAsignados()</text></g><g class="message" data-entity-1="part5" data-entity-2="part7" id="msg5"><polygon fill="#181818" points="1434.2314,305.3906,1444.2314,309.3906,1434.2314,313.3906,1438.2314,309.3906" style="stroke:#181818;stroke-width:1;"/><line style="stroke:#181818;stroke-width:1;" x1="1157.4019" x2="1440.2314" y1="309.3906" y2="309.3906"/><text fill="#000000" font-family="sans-serif" font-size="13" lengthAdjust="spacing" textLength="227.3667" x="1164.4019" y="304.3247">getAttribute("plantillasExamenes")</text></g><g class="message" data-entity-1="part7" data-entity-2="part5" id="msg6"><polygon fill="#181818" points="1168.4019,334.5234,1158.4019,338.5234,1168.4019,342.5234,1164.4019,338.5234" style="stroke:#181818;stroke-width:1;"/><line style="stroke:#181818;stroke-width:1;stroke-dasharray:2,2;" x1="1162.4019" x2="1445.2314" y1="338.5234" y2="338.5234"/><text fill="#000000" font-family="sans-serif" font-size="13" lengthAdjust="spacing" textLength="148.8398" x="1174.4019" y="333.4575">List&lt;PlantillaExamen&gt;</text></g><g class="message" data-entity-1="part5" data-entity-2="part4" id="msg7"><polygon fill="#181818" points="917.3354,363.6563,907.3354,367.6563,917.3354,371.6563,913.3354,367.6563" style="stroke:#181818;stroke-width:1;"/><line style="stroke:#181818;stroke-width:1;stroke-dasharray:2,2;" x1="911.3354" x2="1151.4019" y1="367.6563" y2="367.6563"/><text fill="#000000" font-family="sans-serif" font-size="13" lengthAdjust="spacing" textLength="177.0234" x="923.3354" y="362.5903">List&lt;PlantillaExamenDTO&gt;</text></g><g class="message" data-entity-1="part4" data-entity-2="part3" id="msg8"><polygon fill="#181818" points="675.9004,392.7891,665.9004,396.7891,675.9004,400.7891,671.9004,396.7891" style="stroke:#181818;stroke-width:1;"/><line style="stroke:#181818;stroke-width:1;stroke-dasharray:2,2;" x1="669.9004" x2="900.3354" y1="396.7891" y2="396.7891"/><text fill="#000000" font-family="sans-serif" font-size="13" lengthAdjust="spacing" textLength="185.4087" x="681.9004" y="391.7231">List&lt;ExamenAsignadoDTO&gt;</text></g><g class="message" data-entity-1="part3" data-entity-2="part2" id="msg9"><polygon fill="#181818" points="387.4673,421.9219,377.4673,425.9219,387.4673,429.9219,383.4673,425.9219" style="stroke:#181818;stroke-width:1;"/><line style="stroke:#181818;stroke-width:1;stroke-dasharray:2,2;" x1="381.4673" x2="658.9004" y1="425.9219" y2="425.9219"/><text fill="#000000" font-family="sans-serif" font-size="13" lengthAdjust="spacing" textLength="254.4331" x="393.4673" y="420.856">200 OK (Lista de ex&#225;menes asignados)</text></g><g class="message" data-entity-1="part2" data-entity-2="part1" id="msg10"><polygon fill="#181818" points="63.3159,466.1875,53.3159,470.1875,63.3159,474.1875,59.3159,470.1875" style="stroke:#181818;stroke-width:1;"/><line style="stroke:#181818;stroke-width:1;stroke-dasharray:2,2;" x1="57.3159" x2="365.4673" y1="470.1875" y2="470.1875"/><text fill="#000000" font-family="sans-serif" font-size="13" lengthAdjust="spacing" textLength="290.1514" x="69.3159" y="449.9888">Mostrar ex&#225;menes pendientes de correcci&#243;n</text><text fill="#000000" font-family="sans-serif" font-size="13" lengthAdjust="spacing" textLength="217.7119" x="69.3159" y="465.1216">(alumno, clave correcci&#243;n, fecha)</text></g><path d="M10,485.1875 L74.4429,485.1875 L74.4429,492.3203 L64.4429,502.3203 L10,502.3203 L10,485.1875" fill="#EEEEEE" style="stroke:#000000;stroke-width:1.5;"/><rect fill="none" height="61.3984" style="stroke:#000000;stroke-width:1.5;" width="437.7622" x="10" y="485.1875"/><text fill="#000000" font-family="sans-serif" font-size="13" font-weight="bold" lengthAdjust="spacing" textLength="19.4429" x="25" y="498.2544">alt</text><text fill="#000000" font-family="sans-serif" font-size="11" font-weight="bold" lengthAdjust="spacing" textLength="199.9551" x="89.4429" y="497.3979">[NO HAY EX&#193;MENES EN SESI&#211;N]</text><g class="message" data-entity-1="part2" data-entity-2="part1" id="msg11"><polygon fill="#181818" points="63.3159,534.5859,53.3159,538.5859,63.3159,542.5859,59.3159,538.5859" style="stroke:#181818;stroke-width:1;"/><line style="stroke:#181818;stroke-width:1;stroke-dasharray:2,2;" x1="57.3159" x2="365.4673" y1="538.5859" y2="538.5859"/><text fill="#000000" font-family="sans-serif" font-size="13" lengthAdjust="spacing" textLength="181.0859" x="69.3159" y="518.3872">Mensaje "No hay ex&#225;menes</text><text fill="#000000" font-family="sans-serif" font-size="13" lengthAdjust="spacing" textLength="170.8408" x="69.3159" y="533.52">pendientes de correcci&#243;n"</text></g><g class="message" data-entity-1="part1" data-entity-2="part2" id="msg12"><polygon fill="#181818" points="354.4673,570.7188,364.4673,574.7188,354.4673,578.7188,358.4673,574.7188" style="stroke:#181818;stroke-width:1;"/><line style="stroke:#181818;stroke-width:1;" x1="52.3159" x2="360.4673" y1="574.7188" y2="574.7188"/><text fill="#000000" font-family="sans-serif" font-size="13" lengthAdjust="spacing" textLength="269.0137" x="59.3159" y="569.6528">Selecciona PDFs con ex&#225;menes resueltos</text></g><g class="message" data-entity-1="part2" data-entity-2="part2" id="msg13"><line style="stroke:#181818;stroke-width:1;" x1="376.4673" x2="418.4673" y1="603.8516" y2="603.8516"/><line style="stroke:#181818;stroke-width:1;" x1="418.4673" x2="418.4673" y1="603.8516" y2="616.8516"/><line style="stroke:#181818;stroke-width:1;" x1="377.4673" x2="418.4673" y1="616.8516" y2="616.8516"/><polygon fill="#181818" points="387.4673,612.8516,377.4673,616.8516,387.4673,620.8516,383.4673,616.8516" style="stroke:#181818;stroke-width:1;"/><text fill="#000000" font-family="sans-serif" font-size="13" lengthAdjust="spacing" textLength="130.7935" x="383.4673" y="598.7856">Validar formato PDF</text></g><g class="message" data-entity-1="part1" data-entity-2="part2" id="msg14"><polygon fill="#181818" points="354.4673,641.9844,364.4673,645.9844,354.4673,649.9844,358.4673,645.9844" style="stroke:#181818;stroke-width:1;"/><line style="stroke:#181818;stroke-width:1;" x1="52.3159" x2="360.4673" y1="645.9844" y2="645.9844"/><text fill="#000000" font-family="sans-serif" font-size="13" lengthAdjust="spacing" textLength="112.8359" x="59.3159" y="640.9185">Clic en "Corregir"</text></g><g class="message" data-entity-1="part2" data-entity-2="part3" id="msg15"><polygon fill="#181818" points="642.9004,686.25,652.9004,690.25,642.9004,694.25,646.9004,690.25" style="stroke:#181818;stroke-width:1;"/><line style="stroke:#181818;stroke-width:1;" x1="376.4673" x2="648.9004" y1="690.25" y2="690.25"/><text fill="#000000" font-family="sans-serif" font-size="13" lengthAdjust="spacing" textLength="189.6934" x="383.4673" y="670.0513">POST /api/examenes/corregir</text><text fill="#000000" font-family="sans-serif" font-size="13" lengthAdjust="spacing" textLength="185.4277" x="383.4673" y="685.1841">(multipart/form-data: pdfs[])</text></g><g class="message" data-entity-1="part3" data-entity-2="part4" id="msg16"><polygon fill="#181818" points="884.3354,715.3828,894.3354,719.3828,884.3354,723.3828,888.3354,719.3828" style="stroke:#181818;stroke-width:1;"/><line style="stroke:#181818;stroke-width:1;" x1="664.9004" x2="890.3354" y1="719.3828" y2="719.3828"/><text fill="#000000" font-family="sans-serif" font-size="13" lengthAdjust="spacing" textLength="164.5947" x="671.9004" y="714.3169">procesarCorreccion(pdfs)</text></g><path d="M830.0479,734.3828 L906.6719,734.3828 L906.6719,741.5156 L896.6719,751.5156 L830.0479,751.5156 L830.0479,734.3828" fill="#EEEEEE" style="stroke:#000000;stroke-width:1.5;"/><rect fill="none" height="247.0625" style="stroke:#000000;stroke-width:1.5;" width="671.0879" x="830.0479" y="734.3828"/><text fill="#000000" font-family="sans-serif" font-size="13" font-weight="bold" lengthAdjust="spacing" textLength="31.624" x="845.0479" y="747.4497">loop</text><text fill="#000000" font-family="sans-serif" font-size="11" font-weight="bold" lengthAdjust="spacing" textLength="110.2095" x="921.6719" y="746.5933">[PARA CADA PDF]</text><g class="message" data-entity-1="part4" data-entity-2="part6" id="msg17"><polygon fill="#181818" points="1303.8623,768.6484,1313.8623,772.6484,1303.8623,776.6484,1307.8623,772.6484" style="stroke:#181818;stroke-width:1;"/><line style="stroke:#181818;stroke-width:1;" x1="906.3354" x2="1309.8623" y1="772.6484" y2="772.6484"/><text fill="#000000" font-family="sans-serif" font-size="13" lengthAdjust="spacing" textLength="108.6719" x="913.3354" y="767.5825">procesarPdf(pdf)</text></g><g class="message" data-entity-1="part6" data-entity-2="part4" id="msg18"><polygon fill="#181818" points="917.3354,797.7813,907.3354,801.7813,917.3354,805.7813,913.3354,801.7813" style="stroke:#181818;stroke-width:1;"/><line style="stroke:#181818;stroke-width:1;stroke-dasharray:2,2;" x1="911.3354" x2="1319.8623" y1="801.7813" y2="801.7813"/><text fill="#000000" font-family="sans-serif" font-size="13" lengthAdjust="spacing" textLength="134.7417" x="923.3354" y="796.7153">ResultadoCorreccion</text></g><g class="message" data-entity-1="part4" data-entity-2="part4" id="msg19"><line style="stroke:#181818;stroke-width:1;" x1="906.3354" x2="953.3354" y1="825.9141" y2="825.9141"/><line style="stroke:#181818;stroke-width:1;" x1="953.3354" x2="953.3354" y1="825.9141" y2="838.9141"/><line style="stroke:#181818;stroke-width:1;" x1="912.3354" x2="953.3354" y1="838.9141" y2="838.9141"/><polygon fill="#181818" points="922.3354,834.9141,912.3354,838.9141,922.3354,842.9141,918.3354,838.9141" style="stroke:#181818;stroke-width:1;"/><text fill="#000000" font-family="sans-serif" font-size="13" lengthAdjust="spacing" textLength="150.4712" x="918.3354" y="820.8481">generarNotaAleatoria()</text></g><g class="message" data-entity-1="part4" data-entity-2="part4" id="msg20"><line style="stroke:#181818;stroke-width:1;stroke-dasharray:2,2;" x1="911.3354" x2="953.3354" y1="878.0469" y2="878.0469"/><line style="stroke:#181818;stroke-width:1;stroke-dasharray:2,2;" x1="953.3354" x2="953.3354" y1="878.0469" y2="891.0469"/><line style="stroke:#181818;stroke-width:1;stroke-dasharray:2,2;" x1="906.3354" x2="953.3354" y1="891.0469" y2="891.0469"/><polygon fill="#181818" points="916.3354,887.0469,906.3354,891.0469,916.3354,895.0469,912.3354,891.0469" style="stroke:#181818;stroke-width:1;"/><text fill="#000000" font-family="sans-serif" font-size="13" lengthAdjust="spacing" textLength="102.6289" x="918.3354" y="872.981">nota : int (1-10)</text></g><g class="message" data-entity-1="part4" data-entity-2="part5" id="msg21"><polygon fill="#181818" points="1135.4019,911.1797,1145.4019,915.1797,1135.4019,919.1797,1139.4019,915.1797" style="stroke:#181818;stroke-width:1;"/><line style="stroke:#181818;stroke-width:1;" x1="906.3354" x2="1141.4019" y1="915.1797" y2="915.1797"/><text fill="#000000" font-family="sans-serif" font-size="13" lengthAdjust="spacing" textLength="222.0664" x="913.3354" y="910.1138">marcarComoCorregido(plantillaId)</text></g><g class="message" data-entity-1="part5" data-entity-2="part7" id="msg22"><polygon fill="#181818" points="1434.2314,940.3125,1444.2314,944.3125,1434.2314,948.3125,1438.2314,944.3125" style="stroke:#181818;stroke-width:1;"/><line style="stroke:#181818;stroke-width:1;" x1="1157.4019" x2="1440.2314" y1="944.3125" y2="944.3125"/><text fill="#000000" font-family="sans-serif" font-size="13" lengthAdjust="spacing" textLength="124.6108" x="1164.4019" y="939.2466">actualizar attribute</text></g><g class="message" data-entity-1="part5" data-entity-2="part4" id="msg23"><polygon fill="#181818" points="917.3354,969.4453,907.3354,973.4453,917.3354,977.4453,913.3354,973.4453" style="stroke:#181818;stroke-width:1;"/><line style="stroke:#181818;stroke-width:1;stroke-dasharray:2,2;" x1="911.3354" x2="1151.4019" y1="973.4453" y2="973.4453"/><text fill="#000000" font-family="sans-serif" font-size="13" lengthAdjust="spacing" textLength="27.5107" x="923.3354" y="968.3794">void</text></g><g class="message" data-entity-1="part4" data-entity-2="part3" id="msg24"><polygon fill="#181818" points="675.9004,1005.5781,665.9004,1009.5781,675.9004,1013.5781,671.9004,1009.5781" style="stroke:#181818;stroke-width:1;"/><line style="stroke:#181818;stroke-width:1;stroke-dasharray:2,2;" x1="669.9004" x2="900.3354" y1="1009.5781" y2="1009.5781"/><text fill="#000000" font-family="sans-serif" font-size="13" lengthAdjust="spacing" textLength="207.4351" x="681.9004" y="1004.5122">List&lt;ResultadoCorreccionDTO&gt;</text></g><g class="message" data-entity-1="part3" data-entity-2="part2" id="msg25"><polygon fill="#181818" points="387.4673,1034.7109,377.4673,1038.7109,387.4673,1042.7109,383.4673,1038.7109" style="stroke:#181818;stroke-width:1;"/><line style="stroke:#181818;stroke-width:1;stroke-dasharray:2,2;" x1="381.4673" x2="658.9004" y1="1038.7109" y2="1038.7109"/><text fill="#000000" font-family="sans-serif" font-size="13" lengthAdjust="spacing" textLength="197.6216" x="393.4673" y="1033.645">200 OK (resultados con notas)</text></g><g class="message" data-entity-1="part2" data-entity-2="part1" id="msg26"><polygon fill="#181818" points="63.3159,1078.9766,53.3159,1082.9766,63.3159,1086.9766,59.3159,1082.9766" style="stroke:#181818;stroke-width:1;"/><line style="stroke:#181818;stroke-width:1;stroke-dasharray:2,2;" x1="57.3159" x2="365.4673" y1="1082.9766" y2="1082.9766"/><text fill="#000000" font-family="sans-serif" font-size="13" lengthAdjust="spacing" textLength="121.8369" x="69.3159" y="1062.7778">Mostrar resultados</text><text fill="#000000" font-family="sans-serif" font-size="13" lengthAdjust="spacing" textLength="129.9746" x="69.3159" y="1077.9106">(alumno, nota 1-10)</text></g><path d="M1325,1095.9766 L1325,1180.9766 L1586,1180.9766 L1586,1105.9766 L1576,1095.9766 L1325,1095.9766" fill="#FEFFDD" style="stroke:#181818;stroke-width:0.5;"/><path d="M1576,1095.9766 L1576,1105.9766 L1586,1105.9766 L1576,1095.9766" fill="#FEFFDD" style="stroke:#181818;stroke-width:0.5;"/><text fill="#000000" font-family="sans-serif" font-size="13" font-weight="bold" lengthAdjust="spacing" textLength="176.5156" x="1331" y="1113.0435">Correcci&#243;n simplificada:</text><text fill="#000000" font-family="sans-serif" font-size="13" lengthAdjust="spacing" textLength="178.3945" x="1331" y="1128.1763">- Procesa el PDF (simulado)</text><text fill="#000000" font-family="sans-serif" font-size="13" lengthAdjust="spacing" textLength="181.2319" x="1331" y="1143.3091">- Asigna nota aleatoria 1-10</text><text fill="#000000" font-family="sans-serif" font-size="13" lengthAdjust="spacing" textLength="240.3223" x="1331" y="1158.4419">- No hace reconocimiento de imagen</text><text fill="#000000" font-family="sans-serif" font-size="13" lengthAdjust="spacing" textLength="229.2964" x="1331" y="1173.5747">- No compara respuestas con clave</text><rect fill="#EEEEEE" height="3" style="stroke:#EEEEEE;stroke-width:1;" width="1591.3223" x="0" y="1207.207"/><line style="stroke:#000000;stroke-width:1;" x1="0" x2="1591.3223" y1="1207.207" y2="1207.207"/><line style="stroke:#000000;stroke-width:1;" x1="0" x2="1591.3223" y1="1210.207" y2="1210.207"/><rect fill="#EEEEEE" height="23.1328" style="stroke:#000000;stroke-width:2;" width="297.6387" x="646.8418" y="1196.6406"/><text fill="#000000" font-family="sans-serif" font-size="13" font-weight="bold" lengthAdjust="spacing" textLength="279.1128" x="652.8418" y="1212.7075">FLUJO ALTERNATIVO: LIMPIAR SESI&#211;N</text><g class="message" data-entity-1="part1" data-entity-2="part2" id="msg27"><polygon fill="#181818" points="354.4673,1246.9063,364.4673,1250.9063,354.4673,1254.9063,358.4673,1250.9063" style="stroke:#181818;stroke-width:1;"/><line style="stroke:#181818;stroke-width:1;" x1="52.3159" x2="360.4673" y1="1250.9063" y2="1250.9063"/><text fill="#000000" font-family="sans-serif" font-size="13" lengthAdjust="spacing" textLength="151.8677" x="59.3159" y="1245.8403">Clic en "Limpiar y salir"</text></g><g class="message" data-entity-1="part2" data-entity-2="part3" id="msg28"><polygon fill="#181818" points="642.9004,1276.0391,652.9004,1280.0391,642.9004,1284.0391,646.9004,1280.0391" style="stroke:#181818;stroke-width:1;"/><line style="stroke:#181818;stroke-width:1;" x1="376.4673" x2="648.9004" y1="1280.0391" y2="1280.0391"/><text fill="#000000" font-family="sans-serif" font-size="13" lengthAdjust="spacing" textLength="220.0542" x="383.4673" y="1274.9731">DELETE /api/examenes/asignados</text></g><g class="message" data-entity-1="part3" data-entity-2="part4" id="msg29"><polygon fill="#181818" points="884.3354,1305.1719,894.3354,1309.1719,884.3354,1313.1719,888.3354,1309.1719" style="stroke:#181818;stroke-width:1;"/><line style="stroke:#181818;stroke-width:1;" x1="664.9004" x2="890.3354" y1="1309.1719" y2="1309.1719"/><text fill="#000000" font-family="sans-serif" font-size="13" lengthAdjust="spacing" textLength="189.4648" x="671.9004" y="1304.106">limpiarExamenesAsignados()</text></g><g class="message" data-entity-1="part4" data-entity-2="part5" id="msg30"><polygon fill="#181818" points="1135.4019,1334.3047,1145.4019,1338.3047,1135.4019,1342.3047,1139.4019,1338.3047" style="stroke:#181818;stroke-width:1;"/><line style="stroke:#181818;stroke-width:1;" x1="906.3354" x2="1141.4019" y1="1338.3047" y2="1338.3047"/><text fill="#000000" font-family="sans-serif" font-size="13" lengthAdjust="spacing" textLength="113.5342" x="913.3354" y="1333.2388">limpiarPlantillas()</text></g><g class="message" data-entity-1="part5" data-entity-2="part7" id="msg31"><polygon fill="#181818" points="1434.2314,1363.4375,1444.2314,1367.4375,1434.2314,1371.4375,1438.2314,1367.4375" style="stroke:#181818;stroke-width:1;"/><line style="stroke:#181818;stroke-width:1;" x1="1157.4019" x2="1440.2314" y1="1367.4375" y2="1367.4375"/><text fill="#000000" font-family="sans-serif" font-size="13" lengthAdjust="spacing" textLength="255.6709" x="1164.4019" y="1362.3716">removeAttribute("plantillasExamenes")</text></g><g class="message" data-entity-1="part7" data-entity-2="part5" id="msg32"><polygon fill="#181818" points="1163.4019,1392.5703,1153.4019,1396.5703,1163.4019,1400.5703,1159.4019,1396.5703" style="stroke:#181818;stroke-width:1;"/><line style="stroke:#181818;stroke-width:1;stroke-dasharray:2,2;" x1="1157.4019" x2="1445.2314" y1="1396.5703" y2="1396.5703"/><text fill="#000000" font-family="sans-serif" font-size="13" lengthAdjust="spacing" textLength="27.5107" x="1169.4019" y="1391.5044">void</text></g><g class="message" data-entity-1="part4" data-entity-2="part3" id="msg33"><polygon fill="#181818" points="675.9004,1421.7031,665.9004,1425.7031,675.9004,1429.7031,671.9004,1425.7031" style="stroke:#181818;stroke-width:1;"/><line style="stroke:#181818;stroke-width:1;stroke-dasharray:2,2;" x1="669.9004" x2="900.3354" y1="1425.7031" y2="1425.7031"/><text fill="#000000" font-family="sans-serif" font-size="13" lengthAdjust="spacing" textLength="27.5107" x="681.9004" y="1420.6372">void</text></g><g class="message" data-entity-1="part3" data-entity-2="part2" id="msg34"><polygon fill="#181818" points="387.4673,1450.8359,377.4673,1454.8359,387.4673,1458.8359,383.4673,1454.8359" style="stroke:#181818;stroke-width:1;"/><line style="stroke:#181818;stroke-width:1;stroke-dasharray:2,2;" x1="381.4673" x2="658.9004" y1="1454.8359" y2="1454.8359"/><text fill="#000000" font-family="sans-serif" font-size="13" lengthAdjust="spacing" textLength="102.4575" x="393.4673" y="1449.77">204 No Content</text></g><g class="message" data-entity-1="part2" data-entity-2="part1" id="msg35"><polygon fill="#181818" points="63.3159,1479.9688,53.3159,1483.9688,63.3159,1487.9688,59.3159,1483.9688" style="stroke:#181818;stroke-width:1;"/><line style="stroke:#181818;stroke-width:1;stroke-dasharray:2,2;" x1="57.3159" x2="365.4673" y1="1483.9688" y2="1483.9688"/><text fill="#000000" font-family="sans-serif" font-size="13" lengthAdjust="spacing" textLength="108.4307" x="69.3159" y="1478.9028">Redirigir a men&#250;</text></g><rect fill="#EEEEEE" height="3" style="stroke:#EEEEEE;stroke-width:1;" width="1591.3223" x="0" y="1512.5352"/><line style="stroke:#000000;stroke-width:1;" x1="0" x2="1591.3223" y1="1512.5352" y2="1512.5352"/><line style="stroke:#000000;stroke-width:1;" x1="0" x2="1591.3223" y1="1515.5352" y2="1515.5352"/><rect fill="#EEEEEE" height="23.1328" style="stroke:#000000;stroke-width:2;" width="255.5029" x="667.9097" y="1501.9688"/><text fill="#000000" font-family="sans-serif" font-size="13" font-weight="bold" lengthAdjust="spacing" textLength="236.9771" x="673.9097" y="1518.0356">FLUJO ALTERNATIVO: CANCELAR</text><g class="message" data-entity-1="part1" data-entity-2="part2" id="msg36"><polygon fill="#181818" points="354.4673,1552.2344,364.4673,1556.2344,354.4673,1560.2344,358.4673,1556.2344" style="stroke:#181818;stroke-width:1;"/><line style="stroke:#181818;stroke-width:1;" x1="52.3159" x2="360.4673" y1="1556.2344" y2="1556.2344"/><text fill="#000000" font-family="sans-serif" font-size="13" lengthAdjust="spacing" textLength="117.2603" x="59.3159" y="1551.1685">Clic en "Cancelar"</text></g><g class="message" data-entity-1="part2" data-entity-2="part1" id="msg37"><polygon fill="#181818" points="63.3159,1596.5,53.3159,1600.5,63.3159,1604.5,59.3159,1600.5" style="stroke:#181818;stroke-width:1;"/><line style="stroke:#181818;stroke-width:1;stroke-dasharray:2,2;" x1="57.3159" x2="365.4673" y1="1600.5" y2="1600.5"/><text fill="#000000" font-family="sans-serif" font-size="13" lengthAdjust="spacing" textLength="198.9292" x="69.3159" y="1580.3013">Volver a SISTEMA_DISPONIBLE</text><text fill="#000000" font-family="sans-serif" font-size="13" lengthAdjust="spacing" textLength="129.3652" x="69.3159" y="1595.4341">sin modificar sesi&#243;n</text></g><path d="M10,1615.5 L74.4429,1615.5 L74.4429,1622.6328 L64.4429,1632.6328 L10,1632.6328 L10,1615.5" fill="#EEEEEE" style="stroke:#000000;stroke-width:1.5;"/><rect fill="none" height="75.3984" style="stroke:#000000;stroke-width:1.5;" width="737.8574" x="10" y="1615.5"/><text fill="#000000" font-family="sans-serif" font-size="13" font-weight="bold" lengthAdjust="spacing" textLength="19.4429" x="25" y="1628.5669">alt</text><text fill="#000000" font-family="sans-serif" font-size="11" font-weight="bold" lengthAdjust="spacing" textLength="182.3057" x="89.4429" y="1627.7104">[No hay ex&#225;menes en sesi&#243;n]</text><g class="message" data-entity-1="part3" data-entity-2="part2" id="msg38"><polygon fill="#181818" points="387.4673,1649.7656,377.4673,1653.7656,387.4673,1657.7656,383.4673,1653.7656" style="stroke:#181818;stroke-width:1;"/><line style="stroke:#181818;stroke-width:1;stroke-dasharray:2,2;" x1="381.4673" x2="658.9004" y1="1653.7656" y2="1653.7656"/><text fill="#000000" font-family="sans-serif" font-size="13" lengthAdjust="spacing" textLength="111.6045" x="393.4673" y="1648.6997">400 Bad Request</text></g><g class="message" data-entity-1="part2" data-entity-2="part1" id="msg39"><polygon fill="#181818" points="63.3159,1678.8984,53.3159,1682.8984,63.3159,1686.8984,59.3159,1682.8984" style="stroke:#181818;stroke-width:1;"/><line style="stroke:#181818;stroke-width:1;stroke-dasharray:2,2;" x1="57.3159" x2="365.4673" y1="1682.8984" y2="1682.8984"/><text fill="#000000" font-family="sans-serif" font-size="13" lengthAdjust="spacing" textLength="85.814" x="69.3159" y="1677.8325">Mostrar error</text></g><?plantuml-src hLRDRjj64BxpAGOwKMu4EqLEGcs0bgY4hImHecgqg8jYJQxaBPPSTdSb9Btr6Ve4UORSUjMBTPO_ubAat3Yf3pAbdVbcTcQ-ZwEPvXIcZ6mbIGaa528QxsWMCm8Zc0WfwPP9yDyVFgOqemhSYAKvPniMaqGCqIRA9SksS2k4XczWHKci7GS_X8J1LCGqqtG0HC4QJvweT78YDOjPJZ8DWvaKU9ubu1QEmy9ovhUD_FUaY3r1Moaufx8mQxxscKTKxbbSXgwU-ysKOkB4slwfxLGK98vFF3g_EWdHv94e2eDtMkSLeetkEDVNC9l_-FqImbMmc0IXDn_3PBbQ-M-35VW_7VwwynT-1DVNZbEL3aOtM1kquYm6cbNPjDepC9LdUwAfgQ8pyurFKwWnlFNNS4boTachebuInROPzb8rhbPbcqU3L5rl3E8HkqPbtHclnd273KfTY-f_wM-NzdDXMkreVxL0nx2bsjDQiiUTfkuWvzWnnZbHDVnWM7l3g2UPELFwkx3sAfrkEl7iAlHvJDVB6oUXvzDlSEo-550bGbs5Bb89ORUaceXlhwvW-GEu1gKWCJtozTZUeOrbTTZC2C9KCpQ6Ew6q9DA2o96WpF1O6UYu6lR3f-mXSmdVfPbu1J4d-zRPAzZG-8aCKGkuXiKItda_MsFjBo3oe-3mzy81_EiaGJD5VaVwB0GyaGzDCW_PsMm63fvqo19HNbAJG3YTANJ8hAj9gdQKQnp-aYh6uvvmbc01DaAcH0lZzjyK7FHmBLn6fsIBAtEiNBhZcXbnkJI1HaOnnf0d6_NBhyENK36NABAAo4Q4N8FIGqI72v53wAqyc7XJhxYOARx5fOwIDVXXiZ70myB5okzK-innvzSsRrPOTQvnA1kxmgqreAUufwaUqRP6GeXS24qyJh5ZaX7t94qxkTwKClI6CJ0KUVVrwFNLy3IXyscqLIGbCZRDI4Kr6ebmZr8K99syMkfGOfyLE7JRuN3-YSD9Qg7hzR5ljXSiwLwc5RRWpRFArDEnBv0dMQEKD3GrVx4iDHYM-XJTAzlcu3C5oRPF6iIcPuukBYQDPe1gjXaolhXmHX2MymwK6uA0YnOxRdOTF2kbkGn7wbah0kDX8LLOGCGMcOXPQbHA695YAS4XBKrYaIBfYRb7lgCersKj2lqqZJ3WrDeElFdQNosyTN2_n5u4Ts7WhMhfV7OvcEFD61Ri0oYScLw1clfpV-t_7_i0BuDzxJvGmHnVgL-u24YQYZtzcbsW8CtBt-9TjsSuySQCmwJOV_Ldac154uQZZHiV0Rp6uPzpWpBn5XD_ZfFoxFf8ifXoKes67UTUy3qrGQ8WMljttc_J80gNY-1sxZzaYcMGYgGWZGH5bI5IzPe_ULkRCBL1-LxerE4DQiCjIV1gVnWwz6y3zKeYfP2bMbdrcld_0W00?></g></svg>