<?plantuml 1.2026.2?><svg xmlns="http://www.w3.org/2000/svg" xmlns:xlink="http://www.w3.org/1999/xlink" contentStyleType="text/css" data-diagram-type="SEQUENCE" height="1092px" preserveAspectRatio="none" style="width:1191px;height:1092px;background:#FFFFFF;" version="1.1" viewBox="0 0 1191 1092" width="1191px" zoomAndPan="magnify"><title>Diagrama de Secuencia - Corregir Ex&#225;menes (Simplificado) - Spring Boot + React</title><defs/><g><text fill="#000000" font-family="sans-serif" font-size="14" font-weight="bold" lengthAdjust="spacing" textLength="640.7188" x="271.1924" y="27.9951">Diagrama de Secuencia - Corregir Ex&#225;menes (Simplificado) - Spring Boot + React</text><g><title>Frontend .React.</title><rect fill="#FFFFFF" height="800.5859" style="stroke:#181818;stroke-width:1;" width="10" x="323.5566" y="192.8594"/></g><g><title>ExamenesController</title><rect fill="#FFFFFF" height="371.3281" style="stroke:#181818;stroke-width:1;" width="10" x="577.4033" y="381.7891"/></g><g><title>CorreccionService</title><rect fill="#FFFFFF" height="313.0625" style="stroke:#181818;stroke-width:1;" width="10" x="818.8384" y="410.9219"/></g><g><title>CorreccionService</title><rect fill="#FFFFFF" height="40.1328" style="stroke:#181818;stroke-width:1;" width="10" x="823.8384" y="448.0547"/></g><g><title>CorreccionService</title><rect fill="#FFFFFF" height="40.1328" style="stroke:#181818;stroke-width:1;" width="10" x="823.8384" y="556.4531"/></g><g><title>CorreccionService</title><rect fill="#FFFFFF" height="40.1328" style="stroke:#181818;stroke-width:1;" width="10" x="823.8384" y="640.7188"/></g><rect fill="none" height="185.6641" style="stroke:#000000;stroke-width:1.5;" width="356.1392" x="743.3735" y="510.1875"/><g class="participant-lifeline" data-entity-uid="part1" data-qualified-name="Teacher" id="part1-lifeline"><g><title>Docente</title><rect fill="#000000" fill-opacity="0.00000" height="892.8516" width="8" x="33.3159" y="118.5938"/><line style="stroke:#181818;stroke-width:0.5;stroke-dasharray:5,5;" x1="37" x2="37" y1="118.5938" y2="1011.4453"/></g></g><g class="participant-lifeline" data-entity-uid="part2" data-qualified-name="FE" id="part2-lifeline"><g><title>Frontend .React.</title><rect fill="#000000" fill-opacity="0.00000" height="892.8516" width="8" x="324.5566" y="118.5938"/><line style="stroke:#181818;stroke-width:0.5;stroke-dasharray:5,5;" x1="328.2617" x2="328.2617" y1="118.5938" y2="1011.4453"/></g></g><g class="participant-lifeline" data-entity-uid="part3" data-qualified-name="Controller" id="part3-lifeline"><g><title>ExamenesController</title><rect fill="#000000" fill-opacity="0.00000" height="892.8516" width="8" x="578.4033" y="118.5938"/><line style="stroke:#181818;stroke-width:0.5;stroke-dasharray:5,5;" x1="581.4463" x2="581.4463" y1="118.5938" y2="1011.4453"/></g></g><g class="participant-lifeline" data-entity-uid="part4" data-qualified-name="CorreccionService" id="part4-lifeline"><g><title>CorreccionService</title><rect fill="#000000" fill-opacity="0.00000" height="892.8516" width="8" x="819.8384" y="118.5938"/><line style="stroke:#181818;stroke-width:0.5;stroke-dasharray:5,5;" x1="823.3735" x2="823.3735" y1="118.5938" y2="1011.4453"/></g></g><g class="participant participant-head" data-entity-uid="part1" data-qualified-name="Teacher" id="part1-head"><text fill="#000000" font-family="sans-serif" font-size="14" lengthAdjust="spacing" textLength="58.6318" x="5" y="115.292">Docente</text><ellipse cx="37.3159" cy="50.7969" fill="#E2E2F0" rx="8" ry="8" style="stroke:#181818;stroke-width:0.5;"/><path d="M37.3159,58.7969 L37.3159,85.7969 M24.3159,66.7969 L50.3159,66.7969 M37.3159,85.7969 L24.3159,100.7969 M37.3159,85.7969 L50.3159,100.7969" fill="none" style="stroke:#181818;stroke-width:0.5;"/></g><g class="participant participant-tail" data-entity-uid="part1" data-qualified-name="Teacher" id="part1-tail"><text fill="#000000" font-family="sans-serif" font-size="14" lengthAdjust="spacing" textLength="58.6318" x="5" y="1023.4404">Docente</text><ellipse cx="37.3159" cy="1035.2422" fill="#E2E2F0" rx="8" ry="8" style="stroke:#181818;stroke-width:0.5;"/><path d="M37.3159,1043.2422 L37.3159,1070.2422 M24.3159,1051.2422 L50.3159,1051.2422 M37.3159,1070.2422 L24.3159,1085.2422 M37.3159,1070.2422 L50.3159,1085.2422" fill="none" style="stroke:#181818;stroke-width:0.5;"/></g><g class="participant participant-head" data-entity-uid="part2" data-qualified-name="FE" id="part2-head"><rect fill="#E2E2F0" height="30.2969" rx="2.5" ry="2.5" style="stroke:#181818;stroke-width:0.5;" width="132.5898" x="262.2617" y="87.2969"/><text fill="#000000" font-family="sans-serif" font-size="14" lengthAdjust="spacing" textLength="118.5898" x="269.2617" y="107.292">Frontend (React)</text></g><g class="participant participant-tail" data-entity-uid="part2" data-qualified-name="FE" id="part2-tail"><rect fill="#E2E2F0" height="30.2969" rx="2.5" ry="2.5" style="stroke:#181818;stroke-width:0.5;" width="132.5898" x="262.2617" y="1010.4453"/><text fill="#000000" font-family="sans-serif" font-size="14" lengthAdjust="spacing" textLength="118.5898" x="269.2617" y="1030.4404">Frontend (React)</text></g><g class="participant participant-head" data-entity-uid="part3" data-qualified-name="Controller" id="part3-head"><rect fill="#E2E2F0" height="30.2969" rx="2.5" ry="2.5" style="stroke:#181818;stroke-width:0.5;" width="155.9141" x="504.4463" y="87.2969"/><text fill="#000000" font-family="sans-serif" font-size="14" lengthAdjust="spacing" textLength="141.9141" x="511.4463" y="107.292">ExamenesController</text></g><g class="participant participant-tail" data-entity-uid="part3" data-qualified-name="Controller" id="part3-tail"><rect fill="#E2E2F0" height="30.2969" rx="2.5" ry="2.5" style="stroke:#181818;stroke-width:0.5;" width="155.9141" x="504.4463" y="1010.4453"/><text fill="#000000" font-family="sans-serif" font-size="14" lengthAdjust="spacing" textLength="141.9141" x="511.4463" y="1030.4404">ExamenesController</text></g><g class="participant participant-head" data-entity-uid="part4" data-qualified-name="CorreccionService" id="part4-head"><rect fill="#E2E2F0" height="30.2969" rx="2.5" ry="2.5" style="stroke:#181818;stroke-width:0.5;" width="140.9297" x="753.3735" y="87.2969"/><text fill="#000000" font-family="sans-serif" font-size="14" lengthAdjust="spacing" textLength="126.9297" x="760.3735" y="107.292">CorreccionService</text></g><g class="participant participant-tail" data-entity-uid="part4" data-qualified-name="CorreccionService" id="part4-tail"><rect fill="#E2E2F0" height="30.2969" rx="2.5" ry="2.5" style="stroke:#181818;stroke-width:0.5;" width="140.9297" x="753.3735" y="1010.4453"/><text fill="#000000" font-family="sans-serif" font-size="14" lengthAdjust="spacing" textLength="126.9297" x="760.3735" y="1030.4404">CorreccionService</text></g><g><title>Frontend .React.</title><rect fill="#FFFFFF" height="800.5859" style="stroke:#181818;stroke-width:1;" width="10" x="323.5566" y="192.8594"/></g><g><title>ExamenesController</title><rect fill="#FFFFFF" height="371.3281" style="stroke:#181818;stroke-width:1;" width="10" x="577.4033" y="381.7891"/></g><g><title>CorreccionService</title><rect fill="#FFFFFF" height="313.0625" style="stroke:#181818;stroke-width:1;" width="10" x="818.8384" y="410.9219"/></g><g><title>CorreccionService</title><rect fill="#FFFFFF" height="40.1328" style="stroke:#181818;stroke-width:1;" width="10" x="823.8384" y="448.0547"/></g><g><title>CorreccionService</title><rect fill="#FFFFFF" height="40.1328" style="stroke:#181818;stroke-width:1;" width="10" x="823.8384" y="556.4531"/></g><g><title>CorreccionService</title><rect fill="#FFFFFF" height="40.1328" style="stroke:#181818;stroke-width:1;" width="10" x="823.8384" y="640.7188"/></g><rect fill="#EEEEEE" height="3" style="stroke:#EEEEEE;stroke-width:1;" width="1184.1035" x="0" y="149.1602"/><line style="stroke:#000000;stroke-width:1;" x1="0" x2="1184.1035" y1="149.1602" y2="149.1602"/><line style="stroke:#000000;stroke-width:1;" x1="0" x2="1184.1035" y1="152.1602" y2="152.1602"/><rect fill="#EEEEEE" height="23.1328" style="stroke:#000000;stroke-width:2;" width="313.3301" x="435.3867" y="138.5938"/><text fill="#000000" font-family="sans-serif" font-size="13" font-weight="bold" lengthAdjust="spacing" textLength="294.8042" x="441.3867" y="154.6606">FLUJO PRINCIPAL: CORREGIR EX&#193;MENES</text><g class="message" data-entity-1="part1" data-entity-2="part2" id="msg1"><polygon fill="#181818" points="311.5566,188.8594,321.5566,192.8594,311.5566,196.8594,315.5566,192.8594" style="stroke:#181818;stroke-width:1;"/><line style="stroke:#181818;stroke-width:1;" x1="37.3159" x2="317.5566" y1="192.8594" y2="192.8594"/><text fill="#000000" font-family="sans-serif" font-size="13" lengthAdjust="spacing" textLength="184.5137" x="44.3159" y="187.7935">Clic en "Corregir Ex&#225;menes"</text></g><g class="message" data-entity-1="part2" data-entity-2="part1" id="msg2"><polygon fill="#181818" points="48.3159,217.9922,38.3159,221.9922,48.3159,225.9922,44.3159,221.9922" style="stroke:#181818;stroke-width:1;"/><line style="stroke:#181818;stroke-width:1;stroke-dasharray:2,2;" x1="42.3159" x2="322.5566" y1="221.9922" y2="221.9922"/><text fill="#000000" font-family="sans-serif" font-size="13" lengthAdjust="spacing" textLength="238.5449" x="54.3159" y="216.9263">Mostrar formulario de subida de PDF</text></g><g class="message" data-entity-1="part1" data-entity-2="part2" id="msg3"><polygon fill="#181818" points="311.5566,262.2578,321.5566,266.2578,311.5566,270.2578,315.5566,266.2578" style="stroke:#181818;stroke-width:1;"/><line style="stroke:#181818;stroke-width:1;" x1="37.3159" x2="317.5566" y1="266.2578" y2="266.2578"/><text fill="#000000" font-family="sans-serif" font-size="13" lengthAdjust="spacing" textLength="262.2407" x="44.3159" y="246.0591">Selecciona PDF con ex&#225;menes resueltos</text><text fill="#000000" font-family="sans-serif" font-size="13" lengthAdjust="spacing" textLength="161.4971" x="44.3159" y="261.1919">(una p&#225;gina por alumno)</text></g><g class="message" data-entity-1="part2" data-entity-2="part2" id="msg4"><line style="stroke:#181818;stroke-width:1;" x1="333.5566" x2="375.5566" y1="295.3906" y2="295.3906"/><line style="stroke:#181818;stroke-width:1;" x1="375.5566" x2="375.5566" y1="295.3906" y2="308.3906"/><line style="stroke:#181818;stroke-width:1;" x1="334.5566" x2="375.5566" y1="308.3906" y2="308.3906"/><polygon fill="#181818" points="344.5566,304.3906,334.5566,308.3906,344.5566,312.3906,340.5566,308.3906" style="stroke:#181818;stroke-width:1;"/><text fill="#000000" font-family="sans-serif" font-size="13" lengthAdjust="spacing" textLength="130.7935" x="340.5566" y="290.3247">Validar formato PDF</text></g><g class="message" data-entity-1="part1" data-entity-2="part2" id="msg5"><polygon fill="#181818" points="311.5566,333.5234,321.5566,337.5234,311.5566,341.5234,315.5566,337.5234" style="stroke:#181818;stroke-width:1;"/><line style="stroke:#181818;stroke-width:1;" x1="37.3159" x2="317.5566" y1="337.5234" y2="337.5234"/><text fill="#000000" font-family="sans-serif" font-size="13" lengthAdjust="spacing" textLength="112.8359" x="44.3159" y="332.4575">Clic en "Corregir"</text></g><g class="message" data-entity-1="part2" data-entity-2="part3" id="msg6"><polygon fill="#181818" points="565.4033,377.7891,575.4033,381.7891,565.4033,385.7891,569.4033,381.7891" style="stroke:#181818;stroke-width:1;"/><line style="stroke:#181818;stroke-width:1;" x1="333.5566" x2="571.4033" y1="381.7891" y2="381.7891"/><text fill="#000000" font-family="sans-serif" font-size="13" lengthAdjust="spacing" textLength="189.6934" x="340.5566" y="361.5903">POST /api/examenes/corregir</text><text fill="#000000" font-family="sans-serif" font-size="13" lengthAdjust="spacing" textLength="224.8467" x="340.5566" y="376.7231">(multipart/form-data: archivo PDF)</text></g><g class="message" data-entity-1="part3" data-entity-2="part4" id="msg7"><polygon fill="#181818" points="806.8384,406.9219,816.8384,410.9219,806.8384,414.9219,810.8384,410.9219" style="stroke:#181818;stroke-width:1;"/><line style="stroke:#181818;stroke-width:1;" x1="587.4033" x2="812.8384" y1="410.9219" y2="410.9219"/><text fill="#000000" font-family="sans-serif" font-size="13" lengthAdjust="spacing" textLength="156.2158" x="594.4033" y="405.856">procesarPdf(archivoPdf)</text></g><g class="message" data-entity-1="part4" data-entity-2="part4" id="msg8"><line style="stroke:#181818;stroke-width:1;" x1="828.8384" x2="875.8384" y1="435.0547" y2="435.0547"/><line style="stroke:#181818;stroke-width:1;" x1="875.8384" x2="875.8384" y1="435.0547" y2="448.0547"/><line style="stroke:#181818;stroke-width:1;" x1="834.8384" x2="875.8384" y1="448.0547" y2="448.0547"/><polygon fill="#181818" points="844.8384,444.0547,834.8384,448.0547,844.8384,452.0547,840.8384,448.0547" style="stroke:#181818;stroke-width:1;"/><text fill="#000000" font-family="sans-serif" font-size="13" lengthAdjust="spacing" textLength="153.2134" x="840.8384" y="429.9888">contarPaginas(pdf) : int</text></g><g class="message" data-entity-1="part4" data-entity-2="part4" id="msg9"><line style="stroke:#181818;stroke-width:1;stroke-dasharray:2,2;" x1="833.8384" x2="875.8384" y1="487.1875" y2="487.1875"/><line style="stroke:#181818;stroke-width:1;stroke-dasharray:2,2;" x1="875.8384" x2="875.8384" y1="487.1875" y2="500.1875"/><line style="stroke:#181818;stroke-width:1;stroke-dasharray:2,2;" x1="828.8384" x2="875.8384" y1="500.1875" y2="500.1875"/><polygon fill="#181818" points="838.8384,496.1875,828.8384,500.1875,838.8384,504.1875,834.8384,500.1875" style="stroke:#181818;stroke-width:1;"/><text fill="#000000" font-family="sans-serif" font-size="13" lengthAdjust="spacing" textLength="109.3828" x="840.8384" y="482.1216">numPaginas : int</text></g><path d="M743.3735,510.1875 L819.9976,510.1875 L819.9976,517.3203 L809.9976,527.3203 L743.3735,527.3203 L743.3735,510.1875" fill="#EEEEEE" style="stroke:#000000;stroke-width:1.5;"/><rect fill="none" height="185.6641" style="stroke:#000000;stroke-width:1.5;" width="356.1392" x="743.3735" y="510.1875"/><text fill="#000000" font-family="sans-serif" font-size="13" font-weight="bold" lengthAdjust="spacing" textLength="31.624" x="758.3735" y="523.2544">loop</text><text fill="#000000" font-family="sans-serif" font-size="11" font-weight="bold" lengthAdjust="spacing" textLength="259.5151" x="834.9976" y="522.3979">[PARA CADA P&#193;GINA (i = 1..numPaginas)]</text><g class="message" data-entity-1="part4" data-entity-2="part4" id="msg10"><line style="stroke:#181818;stroke-width:1;" x1="828.8384" x2="875.8384" y1="543.4531" y2="543.4531"/><line style="stroke:#181818;stroke-width:1;" x1="875.8384" x2="875.8384" y1="543.4531" y2="556.4531"/><line style="stroke:#181818;stroke-width:1;" x1="834.8384" x2="875.8384" y1="556.4531" y2="556.4531"/><polygon fill="#181818" points="844.8384,552.4531,834.8384,556.4531,844.8384,560.4531,840.8384,556.4531" style="stroke:#181818;stroke-width:1;"/><text fill="#000000" font-family="sans-serif" font-size="13" lengthAdjust="spacing" textLength="180.064" x="840.8384" y="538.3872">generarNotaAleatoria() : int</text></g><g class="message" data-entity-1="part4" data-entity-2="part4" id="msg11"><line style="stroke:#181818;stroke-width:1;stroke-dasharray:2,2;" x1="833.8384" x2="875.8384" y1="595.5859" y2="595.5859"/><line style="stroke:#181818;stroke-width:1;stroke-dasharray:2,2;" x1="875.8384" x2="875.8384" y1="595.5859" y2="608.5859"/><line style="stroke:#181818;stroke-width:1;stroke-dasharray:2,2;" x1="828.8384" x2="875.8384" y1="608.5859" y2="608.5859"/><polygon fill="#181818" points="838.8384,604.5859,828.8384,608.5859,838.8384,612.5859,834.8384,608.5859" style="stroke:#181818;stroke-width:1;"/><text fill="#000000" font-family="sans-serif" font-size="13" lengthAdjust="spacing" textLength="102.6289" x="840.8384" y="590.52">nota : int (1-10)</text></g><g class="message" data-entity-1="part4" data-entity-2="part4" id="msg12"><line style="stroke:#181818;stroke-width:1;" x1="828.8384" x2="875.8384" y1="627.7188" y2="627.7188"/><line style="stroke:#181818;stroke-width:1;" x1="875.8384" x2="875.8384" y1="627.7188" y2="640.7188"/><line style="stroke:#181818;stroke-width:1;" x1="834.8384" x2="875.8384" y1="640.7188" y2="640.7188"/><polygon fill="#181818" points="844.8384,636.7188,834.8384,640.7188,844.8384,644.7188,840.8384,640.7188" style="stroke:#181818;stroke-width:1;"/><text fill="#000000" font-family="sans-serif" font-size="13" lengthAdjust="spacing" textLength="150.0015" x="840.8384" y="622.6528">crearResultado(i, nota)</text></g><g class="message" data-entity-1="part4" data-entity-2="part4" id="msg13"><line style="stroke:#181818;stroke-width:1;stroke-dasharray:2,2;" x1="833.8384" x2="875.8384" y1="679.8516" y2="679.8516"/><line style="stroke:#181818;stroke-width:1;stroke-dasharray:2,2;" x1="875.8384" x2="875.8384" y1="679.8516" y2="692.8516"/><line style="stroke:#181818;stroke-width:1;stroke-dasharray:2,2;" x1="828.8384" x2="875.8384" y1="692.8516" y2="692.8516"/><polygon fill="#181818" points="838.8384,688.8516,828.8384,692.8516,838.8384,696.8516,834.8384,692.8516" style="stroke:#181818;stroke-width:1;"/><text fill="#000000" font-family="sans-serif" font-size="13" lengthAdjust="spacing" textLength="134.7417" x="840.8384" y="674.7856">ResultadoCorreccion</text></g><g class="message" data-entity-1="part4" data-entity-2="part3" id="msg14"><polygon fill="#181818" points="598.4033,719.9844,588.4033,723.9844,598.4033,727.9844,594.4033,723.9844" style="stroke:#181818;stroke-width:1;"/><line style="stroke:#181818;stroke-width:1;stroke-dasharray:2,2;" x1="592.4033" x2="822.8384" y1="723.9844" y2="723.9844"/><text fill="#000000" font-family="sans-serif" font-size="13" lengthAdjust="spacing" textLength="207.4351" x="604.4033" y="718.9185">List&lt;ResultadoCorreccionDTO&gt;</text></g><g class="message" data-entity-1="part3" data-entity-2="part2" id="msg15"><polygon fill="#181818" points="344.5566,749.1172,334.5566,753.1172,344.5566,757.1172,340.5566,753.1172" style="stroke:#181818;stroke-width:1;"/><line style="stroke:#181818;stroke-width:1;stroke-dasharray:2,2;" x1="338.5566" x2="581.4033" y1="753.1172" y2="753.1172"/><text fill="#000000" font-family="sans-serif" font-size="13" lengthAdjust="spacing" textLength="185.1929" x="350.5566" y="748.0513">200 OK (Lista de resultados)</text></g><g class="message" data-entity-1="part2" data-entity-2="part1" id="msg16"><polygon fill="#181818" points="48.3159,793.3828,38.3159,797.3828,48.3159,801.3828,44.3159,797.3828" style="stroke:#181818;stroke-width:1;"/><line style="stroke:#181818;stroke-width:1;stroke-dasharray:2,2;" x1="42.3159" x2="322.5566" y1="797.3828" y2="797.3828"/><text fill="#000000" font-family="sans-serif" font-size="13" lengthAdjust="spacing" textLength="121.8369" x="54.3159" y="777.1841">Mostrar resultados</text><text fill="#000000" font-family="sans-serif" font-size="13" lengthAdjust="spacing" textLength="254.9409" x="54.3159" y="792.3169">(P&#225;gina 1: Nota 7, P&#225;gina 2: Nota 5, ...)</text></g><path d="M828,810.3828 L828,895.3828 L1179,895.3828 L1179,820.3828 L1169,810.3828 L828,810.3828" fill="#FEFFDD" style="stroke:#181818;stroke-width:0.5;"/><path d="M1169,810.3828 L1169,820.3828 L1179,820.3828 L1169,810.3828" fill="#FEFFDD" style="stroke:#181818;stroke-width:0.5;"/><text fill="#000000" font-family="sans-serif" font-size="13" font-weight="bold" lengthAdjust="spacing" textLength="176.5156" x="834" y="827.4497">Correcci&#243;n simplificada:</text><text fill="#000000" font-family="sans-serif" font-size="13" lengthAdjust="spacing" textLength="330.1035" x="834" y="842.5825">- Cuenta p&#225;ginas del PDF (X p&#225;ginas = X alumnos)</text><text fill="#000000" font-family="sans-serif" font-size="13" lengthAdjust="spacing" textLength="259.2192" x="834" y="857.7153">- Genera nota aleatoria 1-10 por p&#225;gina</text><text fill="#000000" font-family="sans-serif" font-size="13" lengthAdjust="spacing" textLength="240.3223" x="834" y="872.8481">- No hace reconocimiento de imagen</text><text fill="#000000" font-family="sans-serif" font-size="13" lengthAdjust="spacing" textLength="229.2964" x="834" y="887.981">- No compara respuestas con clave</text><g class="message" data-entity-1="part1" data-entity-2="part2" id="msg17"><polygon fill="#181818" points="311.5566,918.1797,321.5566,922.1797,311.5566,926.1797,315.5566,922.1797" style="stroke:#181818;stroke-width:1;"/><line style="stroke:#181818;stroke-width:1;" x1="37.3159" x2="317.5566" y1="922.1797" y2="922.1797"/><text fill="#000000" font-family="sans-serif" font-size="13" lengthAdjust="spacing" textLength="158.3867" x="44.3159" y="917.1138">Clic en "Volver al men&#250;"</text></g><g class="message" data-entity-1="part2" data-entity-2="part2" id="msg18"><line style="stroke:#181818;stroke-width:1;" x1="333.5566" x2="375.5566" y1="951.3125" y2="951.3125"/><line style="stroke:#181818;stroke-width:1;" x1="375.5566" x2="375.5566" y1="951.3125" y2="964.3125"/><line style="stroke:#181818;stroke-width:1;" x1="334.5566" x2="375.5566" y1="964.3125" y2="964.3125"/><polygon fill="#181818" points="344.5566,960.3125,334.5566,964.3125,344.5566,968.3125,340.5566,964.3125" style="stroke:#181818;stroke-width:1;"/><text fill="#000000" font-family="sans-serif" font-size="13" lengthAdjust="spacing" textLength="125.9248" x="340.5566" y="946.2466">completarGestion()</text></g><g class="message" data-entity-1="part2" data-entity-2="part1" id="msg19"><polygon fill="#181818" points="48.3159,989.4453,38.3159,993.4453,48.3159,997.4453,44.3159,993.4453" style="stroke:#181818;stroke-width:1;"/><line style="stroke:#181818;stroke-width:1;stroke-dasharray:2,2;" x1="42.3159" x2="327.5566" y1="993.4453" y2="993.4453"/><text fill="#000000" font-family="sans-serif" font-size="13" lengthAdjust="spacing" textLength="198.9292" x="54.3159" y="988.3794">Volver a SISTEMA_DISPONIBLE</text></g><?plantuml-src hLNTRjem5BxFKnnnbR02fT8qAHgLA0J4HY4YhEh5fCap1YmvSUGugBTzb3x3xdRBY-tO2GsKdsxISa62VVnzv_Upvbemw7EoKYGci60GCPgpX7823UX9fTYAAmYUjYynIrW6RiJZLF0bfsGXFRI9KiMJ5Tn9gU43p1YXsd7mHogezILbYMOr81dCSMVDb9CIfJdbAKaqr0PAudwo0DSUzApb83Wq2fw8vUwXhP92C6NDgh-7vjPfIhbC8gOsdBBI-isgutGwC1X_-pA5S3QQz4PXT-n3RpgR1SFH38B7xVDzC0aYw7GSftGU6hVe7Le9Je4b9TT1WcecThuXcfaud4403JnKdlVXNcPQ4GLBgU9S4CMboNcM_-GBc_smFpXYYvWeF2Tc6wXCWBtMGx4iPqBBx7lYvcYHRbzMtBmn_qJaSI8zwqG1zK044XNqHCkJT4V1rKg0Ak4-XDDe3YsIyXOhgzEYfJawWg5fRehICaID1T741wBeccyifrSbQQ-AJlLTqBsfc0-fmeRAY0eNIxU4myy3jACg7osTmSQqQaGc9dkPco8i-C0JVGdy1FPfy2IFI-GITC4k-IoaJ27iphhGw_Qx46wVXwD95rmE7MWtcnMQvm0-VnlY2kk4pJUHcdG5m_ehJjnTc0ReWazdUCw4Ymm5BBZjHlkwSFDopFyI25MCg1bslj2eGYw_iepUVutX5RxQUpyAb3BdR5TKqpFccVvyWg0_dzw-qnhxCr8ExCtrDKo_WcjGhOYe7JBsnm5QDMhdTAawYcCSbbhIzi7q37owWjtIJRdqyGgQpQRdE5W09EQhjGQvFE5ulRvRs_vA8Aik4UBNwmvUDNZfw5VvoZ0COTNEVQpMEl1OQXe6re2XRUUYsSYkdy7qcrM_yXWQJYIi2JLvmI6NbCSSkQpmyfZWK1GcLCOeMSIa8CqPfZApKai5sTZ26Y9sNYqVfDWmexc0ShZzNTjJNOCi6AhB464n9wvtbF_TQOX6qJoux_xeZw9mEXdTZV4IsQlX8FW3?></g></svg>