<svg xmlns="http://www.w3.org/2000/svg" xmlns:xlink="http://www.w3.org/1999/xlink" contentStyleType="text/css" data-diagram-type="STATE" height="823px" preserveAspectRatio="none" style="width:1105px;height:823px;background:#FFFFFF;" version="1.1" viewBox="0 0 1105 823" width="1105px" zoomAndPan="magnify"><defs/><g><g id="PREGUNTAS_ABIERTO"><rect fill="#F1F1F1" height="50" rx="12.5" ry="12.5" style="stroke:#181818;stroke-width:0.5;" width="174.0547" x="267" y="7"/><line style="stroke:#181818;stroke-width:0.5;" x1="267" x2="441.0547" y1="33.2969" y2="33.2969"/><text fill="#000000" font-family="sans-serif" font-size="14" lengthAdjust="spacing" textLength="154.0547" x="277" y="24.9951">PREGUNTAS_ABIERTO</text></g><g id="PREGUNTAS_CONTEXTUALES_ABIERTO"><rect fill="#F1F1F1" height="50" rx="12.5" ry="12.5" style="stroke:#181818;stroke-width:0.5;" width="293.2188" x="476.5" y="7"/><line style="stroke:#181818;stroke-width:0.5;" x1="476.5" x2="769.7188" y1="33.2969" y2="33.2969"/><text fill="#000000" font-family="sans-serif" font-size="14" lengthAdjust="spacing" textLength="273.2188" x="486.5" y="24.9951">PREGUNTAS_CONTEXTUALES_ABIERTO</text></g><g id="PREGUNTAS_ABIERTO2"><rect fill="#F1F1F1" height="50" rx="12.5" ry="12.5" style="stroke:#181818;stroke-width:0.5;" width="174.0547" x="7" y="767"/><line style="stroke:#181818;stroke-width:0.5;" x1="7" x2="181.0547" y1="793.2969" y2="793.2969"/><text fill="#000000" font-family="sans-serif" font-size="14" lengthAdjust="spacing" textLength="154.0547" x="17" y="784.9951">PREGUNTAS_ABIERTO</text></g><g id="PREGUNTAS_CONTEXTUALES_ABIERTO2"><rect fill="#F1F1F1" height="50" rx="12.5" ry="12.5" style="stroke:#181818;stroke-width:0.5;" width="293.2188" x="216.5" y="767"/><line style="stroke:#181818;stroke-width:0.5;" x1="216.5" x2="509.7188" y1="793.2969" y2="793.2969"/><text fill="#000000" font-family="sans-serif" font-size="14" lengthAdjust="spacing" textLength="273.2188" x="226.5" y="784.9951">PREGUNTAS_CONTEXTUALES_ABIERTO</text></g><g id="PREGUNTA_ABIERTO"><rect fill="#F1F1F1" height="50" rx="12.5" ry="12.5" style="stroke:#181818;stroke-width:0.5;" width="165.168" x="544.5" y="767"/><line style="stroke:#181818;stroke-width:0.5;" x1="544.5" x2="709.668" y1="793.2969" y2="793.2969"/><text fill="#000000" font-family="sans-serif" font-size="14" lengthAdjust="spacing" textLength="145.168" x="554.5" y="784.9951">PREGUNTA_ABIERTO</text></g><g id="PREGUNTA_CONTEXTUAL_ABIERTO"><rect fill="#F1F1F1" height="50" rx="12.5" ry="12.5" style="stroke:#181818;stroke-width:0.5;" width="266.5996" x="757.5" y="767"/><line style="stroke:#181818;stroke-width:0.5;" x1="757.5" x2="1024.0996" y1="793.2969" y2="793.2969"/><text fill="#000000" font-family="sans-serif" font-size="14" lengthAdjust="spacing" textLength="246.5996" x="767.5" y="784.9951">PREGUNTA_CONTEXTUAL_ABIERTO</text></g><path d="M296,118 L680,118 A12.5,12.5 0 0 1 692.5,130.5 L692.5,144.2969 L283.5,144.2969 L283.5,130.5 A12.5,12.5 0 0 1 296,118" fill="#F1F1F1"/><rect fill="none" height="554.2969" rx="12.5" ry="12.5" style="stroke:#181818;stroke-width:0.5;" width="409" x="283.5" y="118"/><line style="stroke:#181818;stroke-width:0.5;" x1="283.5" x2="692.5" y1="144.2969" y2="144.2969"/><text fill="#000000" font-family="sans-serif" font-size="14" lengthAdjust="spacing" textLength="110.8379" x="432.5811" y="135.9951">crearPregunta()</text><g id="crearPregunta.SolicitandoDatosPregunta"><rect fill="#F1F1F1" height="50" rx="12.5" ry="12.5" style="stroke:#181818;stroke-width:0.5;" width="50" x="295.5" y="246.2969"/><line style="stroke:#181818;stroke-width:0.5;" x1="295.5" x2="345.5" y1="272.5938" y2="272.5938"/><text fill="#000000" font-family="sans-serif" font-size="14" lengthAdjust="spacing" textLength="4.4502" x="318.2749" y="264.292">&#160;</text></g><g id="crearPregunta.ProcesandoCreacion"><rect fill="#F1F1F1" height="50" rx="12.5" ry="12.5" style="stroke:#181818;stroke-width:0.5;" width="50" x="295.5" y="504.2969"/><line style="stroke:#181818;stroke-width:0.5;" x1="295.5" x2="345.5" y1="530.5938" y2="530.5938"/><text fill="#000000" font-family="sans-serif" font-size="14" lengthAdjust="spacing" textLength="4.4502" x="318.2749" y="522.292">&#160;</text></g><ellipse cx="320.5" cy="165.2969" fill="#222222" rx="10" ry="10" style="stroke:#222222;stroke-width:1;"/><ellipse cx="320.5" cy="651.2969" fill="none" rx="11" ry="11" style="stroke:#222222;stroke-width:1;"/><ellipse cx="320.5" cy="651.2969" fill="#222222" rx="6" ry="6" style="stroke:#222222;stroke-width:1;"/><!--link *start*crearPregunta to SolicitandoDatosPregunta--><g class="link" data-entity-1=".start.crearPregunta" data-entity-2="SolicitandoDatosPregunta" data-source-line="20" data-uid="lnk5" id="link_.start.crearPregunta_SolicitandoDatosPregunta"><path d="M320.5,175.5269 C320.5,191.2369 320.5,217.6569 320.5,240.1669" fill="none" id="*start*crearPregunta-to-SolicitandoDatosPregunta" style="stroke:#008000;stroke-width:1;"/><polygon fill="#008000" points="320.5,246.1669,324.5,237.1669,320.5,241.1669,316.5,237.1669,320.5,246.1669" style="stroke:#008000;stroke-width:1;"/><path d="M325.5,198.2969 L325.5,223.2969 L602.5,223.2969 L602.5,208.2969 L592.5,198.2969 L325.5,198.2969" fill="#FEFFDD" style="stroke:#181818;stroke-width:0.5;"/><path d="M592.5,198.2969 L592.5,208.2969 L602.5,208.2969 L592.5,198.2969" fill="#FEFFDD" style="stroke:#181818;stroke-width:0.5;"/><text fill="#000000" font-family="sans-serif" font-size="13" font-weight="bold" lengthAdjust="spacing" textLength="60.5313" x="331.5" y="215.3638">Docente</text><text fill="#000000" font-family="sans-serif" font-size="13" lengthAdjust="spacing" textLength="191.4961" x="396.1636" y="215.3638">solicita crear nueva pregunta</text></g><!--link SolicitandoDatosPregunta to ProcesandoCreacion--><g class="link" data-entity-1="SolicitandoDatosPregunta" data-entity-2="ProcesandoCreacion" data-source-line="25" data-uid="lnk6" id="link_SolicitandoDatosPregunta_ProcesandoCreacion"><path d="M320.5,296.3769 C320.5,345.1769 320.5,449.1969 320.5,498.0869" fill="none" id="SolicitandoDatosPregunta-to-ProcesandoCreacion" style="stroke:#008000;stroke-width:1;"/><polygon fill="#008000" points="320.5,504.0869,324.5,495.0869,320.5,499.0869,316.5,495.0869,320.5,504.0869" style="stroke:#008000;stroke-width:1;"/><path d="M325.5,319.2969 L325.5,481.2969 L683.5,481.2969 L683.5,329.2969 L673.5,319.2969 L325.5,319.2969" fill="#FEFFDD" style="stroke:#181818;stroke-width:0.5;"/><path d="M673.5,319.2969 L673.5,329.2969 L683.5,329.2969 L673.5,319.2969" fill="#FEFFDD" style="stroke:#181818;stroke-width:0.5;"/><text fill="#000000" font-family="sans-serif" font-size="13" font-weight="bold" lengthAdjust="spacing" textLength="58.9063" x="331.5" y="336.3638">Sistema</text><text fill="#000000" font-family="sans-serif" font-size="13" lengthAdjust="spacing" textLength="240.6841" x="394.5386" y="336.3638">presenta solicitud de datos m&#237;nimos:</text><line style="stroke:#181818;stroke-width:1;" x1="326.5" x2="682.8398" y1="339.4297" y2="339.4297"/><text fill="#000000" font-family="sans-serif" font-size="13" font-weight="bold" lengthAdjust="spacing" textLength="72.7568" x="331.5" y="355.4966">Pregunta:</text><text fill="#000000" font-family="sans-serif" font-size="13" lengthAdjust="spacing" textLength="166.0674" x="331.5" y="370.6294">&#8226; Asignatura (obligatorio)</text><text fill="#000000" font-family="sans-serif" font-size="13" lengthAdjust="spacing" textLength="163.5474" x="331.5" y="385.7622">&#8226; Enunciado (obligatorio)</text><text fill="#000000" font-family="sans-serif" font-size="13" lengthAdjust="spacing" textLength="132.2534" x="331.5" y="400.895">&#8226; Tema (obligatorio)</text><text fill="#000000" font-family="sans-serif" font-size="13" lengthAdjust="spacing" textLength="337.3398" x="331.5" y="416.0278">&#8226; Dificultad (ENUM: BAJA, MEDIA, ALTA)(obligatorio)</text><text fill="#000000" font-family="sans-serif" font-size="13" lengthAdjust="spacing" textLength="4.1323" x="331.5" y="431.1606">&#160;</text><line style="stroke:#181818;stroke-width:1;" x1="326.5" x2="682.8398" y1="438.2266" y2="438.2266"/><text fill="#000000" font-family="sans-serif" font-size="13" lengthAdjust="spacing" textLength="219.0576" x="331.5" y="454.2935">&#8226; Permite solicitar crear pregunta</text><text fill="#000000" font-family="sans-serif" font-size="13" lengthAdjust="spacing" textLength="245.7559" x="331.5" y="469.4263">&#8226; Permite solicitar cancelar operaci&#243;n</text></g><!--link ProcesandoCreacion to *end*crearPregunta--><g class="link" data-entity-1="ProcesandoCreacion" data-entity-2=".end.crearPregunta" data-source-line="40" data-uid="lnk8" id="link_ProcesandoCreacion_.end.crearPregunta"><path d="M320.5,554.5769 C320.5,580.8769 320.5,615.5669 320.5,634.2769" fill="none" id="ProcesandoCreacion-to-*end*crearPregunta" style="stroke:#008000;stroke-width:1;"/><polygon fill="#008000" points="320.5,640.2769,324.5,631.2769,320.5,635.2769,316.5,631.2769,320.5,640.2769" style="stroke:#008000;stroke-width:1;"/><path d="M325.5,577.2969 L325.5,617.2969 L642.5,617.2969 L642.5,587.2969 L632.5,577.2969 L325.5,577.2969" fill="#FEFFDD" style="stroke:#181818;stroke-width:0.5;"/><path d="M632.5,577.2969 L632.5,587.2969 L642.5,587.2969 L632.5,577.2969" fill="#FEFFDD" style="stroke:#181818;stroke-width:0.5;"/><text fill="#000000" font-family="sans-serif" font-size="13" font-weight="bold" lengthAdjust="spacing" textLength="60.5313" x="331.5" y="594.3638">Docente</text><text fill="#000000" font-family="sans-serif" font-size="13" lengthAdjust="spacing" textLength="177.8423" x="396.1636" y="594.3638">proporciona datos m&#237;nimos</text><text fill="#000000" font-family="sans-serif" font-size="13" font-weight="bold" lengthAdjust="spacing" textLength="58.9063" x="331.5" y="609.4966">Sistema</text><text fill="#000000" font-family="sans-serif" font-size="13" lengthAdjust="spacing" textLength="233.9302" x="394.5386" y="609.4966">crea pregunta y transfiere a edici&#243;n</text></g><!--link PREGUNTAS_ABIERTO to crearPregunta--><g class="link" data-entity-1="PREGUNTAS_ABIERTO" data-entity-2="crearPregunta" data-source-line="12" data-uid="lnk2" id="link_PREGUNTAS_ABIERTO_crearPregunta"><path d="M363,57.25 C368.6,72.34 374.3827,87.9048 383.4627,112.3748" fill="none" id="PREGUNTAS_ABIERTO-to-crearPregunta" style="stroke:#008000;stroke-width:1;"/><polygon fill="#008000" points="385.55,118,386.1691,108.1706,383.8106,113.3123,378.6689,110.9537,385.55,118" style="stroke:#008000;stroke-width:1;"/></g><!--link PREGUNTAS_CONTEXTUALES_ABIERTO to crearPregunta--><g class="link" data-entity-1="PREGUNTAS_CONTEXTUALES_ABIERTO" data-entity-2="crearPregunta" data-source-line="13" data-uid="lnk3" id="link_PREGUNTAS_CONTEXTUALES_ABIERTO_crearPregunta"><path d="M613.93,57.25 C608.29,72.34 602.4735,87.9108 593.3135,112.3808" fill="none" id="PREGUNTAS_CONTEXTUALES_ABIERTO-to-crearPregunta" style="stroke:#008000;stroke-width:1;"/><polygon fill="#008000" points="591.21,118,598.1113,110.9735,592.9629,113.3173,590.6191,108.1689,591.21,118" style="stroke:#008000;stroke-width:1;"/></g><!--link crearPregunta to PREGUNTA_ABIERTO--><g class="link" data-entity-1="crearPregunta" data-entity-2="PREGUNTA_ABIERTO" data-source-line="49" data-uid="lnk9" id="link_crearPregunta_PREGUNTA_ABIERTO"><path d="M585.2,672.22 C598.92,711.19 608.9191,739.6099 616.4991,761.1599" fill="none" id="crearPregunta-to-PREGUNTA_ABIERTO" style="stroke:#008000;stroke-width:1;"/><polygon fill="#008000" points="618.49,766.82,619.2771,757.0026,616.8309,762.1033,611.7303,759.6571,618.49,766.82" style="stroke:#008000;stroke-width:1;"/><path d="M611,707 L611,732 L838,732 L838,717 L828,707 L611,707" fill="#FEFFDD" style="stroke:#181818;stroke-width:0.5;"/><path d="M828,707 L828,717 L838,717 L828,707" fill="#FEFFDD" style="stroke:#181818;stroke-width:0.5;"/><text fill="#000000" font-family="sans-serif" font-size="13" lengthAdjust="spacing" textLength="206.502" x="617" y="724.0669">editarPregunta(nuevaPregunta)</text></g><!--link crearPregunta to PREGUNTA_CONTEXTUAL_ABIERTO--><g class="link" data-entity-1="crearPregunta" data-entity-2="PREGUNTA_CONTEXTUAL_ABIERTO" data-source-line="54" data-uid="lnk10" id="link_crearPregunta_PREGUNTA_CONTEXTUAL_ABIERTO"><path d="M692.57,568.45 C775.02,637.95 851,702 851,702 C851,702 865.7708,734.8571 877.6108,761.2071" fill="none" id="crearPregunta-to-PREGUNTA_CONTEXTUAL_ABIERTO" style="stroke:#008000;stroke-width:1;"/><polygon fill="#008000" points="880.07,766.68,880.0298,756.8312,878.0207,762.1193,872.7327,760.1101,880.07,766.68" style="stroke:#008000;stroke-width:1;"/><path d="M871,707 L871,732 L1098,732 L1098,717 L1088,707 L871,707" fill="#FEFFDD" style="stroke:#181818;stroke-width:0.5;"/><path d="M1088,707 L1088,717 L1098,717 L1088,707" fill="#FEFFDD" style="stroke:#181818;stroke-width:0.5;"/><text fill="#000000" font-family="sans-serif" font-size="13" lengthAdjust="spacing" textLength="206.502" x="877" y="724.0669">editarPregunta(nuevaPregunta)</text></g><!--link crearPregunta to PREGUNTAS_ABIERTO2--><g class="link" data-entity-1="crearPregunta" data-entity-2="PREGUNTAS_ABIERTO2" data-source-line="59" data-uid="lnk11" id="link_crearPregunta_PREGUNTAS_ABIERTO2"><path d="M283.5,601.02 C217.17,667.52 156.207,728.6317 122.287,762.6417" fill="none" id="crearPregunta-to-PREGUNTAS_ABIERTO2" style="stroke:#0000FF;stroke-width:1;"/><polygon fill="#0000FF" points="118.05,766.89,127.2377,763.3423,121.5808,763.3498,121.5734,757.6929,118.05,766.89" style="stroke:#0000FF;stroke-width:1;"/><path d="M185,707 L185,732 L320,732 L320,717 L310,707 L185,707" fill="#FEFFDD" style="stroke:#181818;stroke-width:0.5;"/><path d="M310,707 L310,717 L320,717 L310,707" fill="#FEFFDD" style="stroke:#181818;stroke-width:0.5;"/><text fill="#000000" font-family="sans-serif" font-size="13" lengthAdjust="spacing" textLength="114.9624" x="191" y="724.0669">cancelar creaci&#243;n</text></g><!--link crearPregunta to PREGUNTAS_CONTEXTUALES_ABIERTO2--><g class="link" data-entity-1="crearPregunta" data-entity-2="PREGUNTAS_CONTEXTUALES_ABIERTO2" data-source-line="64" data-uid="lnk12" id="link_crearPregunta_PREGUNTAS_CONTEXTUALES_ABIERTO2"><path d="M400.59,672.22 C388.26,711.19 379.2803,739.5496 372.4603,761.0996" fill="none" id="crearPregunta-to-PREGUNTAS_CONTEXTUALES_ABIERTO2" style="stroke:#0000FF;stroke-width:1;"/><polygon fill="#0000FF" points="370.65,766.82,377.1791,759.4463,372.1586,762.053,369.5519,757.0325,370.65,766.82" style="stroke:#0000FF;stroke-width:1;"/><path d="M395,707 L395,732 L530,732 L530,717 L520,707 L395,707" fill="#FEFFDD" style="stroke:#181818;stroke-width:0.5;"/><path d="M520,707 L520,717 L530,717 L520,707" fill="#FEFFDD" style="stroke:#181818;stroke-width:0.5;"/><text fill="#000000" font-family="sans-serif" font-size="13" lengthAdjust="spacing" textLength="114.9624" x="401" y="724.0669">cancelar creaci&#243;n</text></g><!--SRC=[hLJ1Qjj04BtlLmpEnIuLXHvDC2YnA2c9Os8P2Y6KiJGnIwHTiRigc5Bej_JUKpyXVz8lwQuiArfB2WvK0jaQlNdpPj_iwYSk2bIOGyO5cLr1KCXivruOOzgW8LZUHP_MYpXSVGqlhgAx-BOJlxnTnD6NU1rUHyEWEluHKCEe4nwTH7gSt8SvPXeGrCfj48nrT45mVxPLHE8Xc46Y2DLIqROK1jdhCbv9h9LumQenBpAUZE0xOs2lFNvaRujQoOmdtA18vHoDr0rj1xbKCY7jW9UMEE5IxEdktpruweOOeK8BQHcbS0FoL0NEDxEv9HQ6pZziPg3hx7q_84hwXb2qHP58zopsOirZi6fRMayBGvfMN1lAiT9aosjoNBMuCeMK87Lb87_-BNWkzRHA38BWG70GC7KKLV3lpryGQhuLQ4g5C9QRZ6yjYU9oqW0YKOg4Ooe7liTMrC2dEN_aIPaPJ64SBTOtKxW8FuVluIQQNzcVy3eE9twcfzbHB4dbt2x6mGLLs-0PC014aL1c_yY2b5tRvp_2i-l5gguBdabsdawQb4B9GYgNZaTUz7de-cZQW1qOXK8_Sb8429Jo7i4_x0vc_hRoXkduHF04MqhJsdtL71_U9gofSGf_pz7oVqfjifBQbLuEHhz0OsrI-UKMwasilMVloIN-0G00]--></g></svg>