<svg xmlns="http://www.w3.org/2000/svg" xmlns:xlink="http://www.w3.org/1999/xlink" contentStyleType="text/css" data-diagram-type="SALT" height="233px" preserveAspectRatio="none" style="width:491px;height:233px;background:#FFFFFF;" version="1.1" viewBox="0 0 491 233" width="491px" zoomAndPan="magnify"><defs/><g><text fill="#000000" font-family="sans-serif" font-size="12" font-weight="bold" lengthAdjust="spacing" textLength="105.4336" x="6" y="17.1387">Ver Respuestas</text><line style="stroke:#AAAAAA;stroke-width:1;" x1="6" x2="484.0938" y1="24.4688" y2="24.4688"/><line style="stroke:#AAAAAA;stroke-width:1;" x1="6" x2="484.0938" y1="26.4688" y2="26.4688"/><text fill="#000000" font-family="sans-serif" font-size="12" lengthAdjust="spacing" textLength="72.9141" x="7" y="42.1074">CONTENIDO</text><text fill="#000000" font-family="sans-serif" font-size="12" lengthAdjust="spacing" textLength="78.7383" x="269.3555" y="42.1074">&#191;CORRECTA?</text><text fill="#000000" font-family="sans-serif" font-size="12" lengthAdjust="spacing" textLength="46.9277" x="350.0938" y="42.1074">ACCI&#211;N</text><line style="stroke:#AAAAAA;stroke-width:1;" x1="7" x2="268.3555" y1="50.4375" y2="50.4375"/><line style="stroke:#AAAAAA;stroke-width:1;" x1="269.3555" x2="349.0938" y1="50.4375" y2="50.4375"/><line style="stroke:#AAAAAA;stroke-width:1;" x1="350.0938" x2="408.0938" y1="50.4375" y2="50.4375"/><text fill="#000000" font-family="sans-serif" font-size="12" lengthAdjust="spacing" textLength="226.002" x="7" y="66.0762">Reutilizar c&#243;digo de clases existentes</text><text fill="#000000" font-family="sans-serif" font-size="12" lengthAdjust="spacing" textLength="10.9512" x="269.3555" y="66.0762">S&#237;</text><rect fill="#EEEEEE" height="17.9688" rx="5" ry="5" style="stroke:#000000;stroke-width:2.5;" width="52" x="352.5938" y="57.4375"/><text fill="#000000" font-family="sans-serif" font-size="12" lengthAdjust="spacing" textLength="35.5254" x="360.8311" y="70.5762">Editar</text><rect fill="#EEEEEE" height="17.9688" rx="5" ry="5" style="stroke:#000000;stroke-width:2.5;" width="68" x="411.5938" y="57.4375"/><text fill="#000000" font-family="sans-serif" font-size="12" lengthAdjust="spacing" textLength="49.166" x="421.0107" y="70.5762">Eliminar</text><text fill="#000000" font-family="sans-serif" font-size="12" lengthAdjust="spacing" textLength="260.3555" x="7" y="91.0449">Capacidad de responder al mismo mensaje</text><text fill="#000000" font-family="sans-serif" font-size="12" lengthAdjust="spacing" textLength="16.3184" x="269.3555" y="91.0449">No</text><rect fill="#EEEEEE" height="17.9688" rx="5" ry="5" style="stroke:#000000;stroke-width:2.5;" width="52" x="352.5938" y="82.4063"/><text fill="#000000" font-family="sans-serif" font-size="12" lengthAdjust="spacing" textLength="35.5254" x="360.8311" y="95.5449">Editar</text><rect fill="#EEEEEE" height="17.9688" rx="5" ry="5" style="stroke:#000000;stroke-width:2.5;" width="68" x="411.5938" y="82.4063"/><text fill="#000000" font-family="sans-serif" font-size="12" lengthAdjust="spacing" textLength="49.166" x="421.0107" y="95.5449">Eliminar</text><text fill="#000000" font-family="sans-serif" font-size="12" lengthAdjust="spacing" textLength="145.5059" x="7" y="116.0137">Crear variables globales</text><text fill="#000000" font-family="sans-serif" font-size="12" lengthAdjust="spacing" textLength="10.9512" x="269.3555" y="116.0137">S&#237;</text><rect fill="#EEEEEE" height="17.9688" rx="5" ry="5" style="stroke:#000000;stroke-width:2.5;" width="52" x="352.5938" y="107.375"/><text fill="#000000" font-family="sans-serif" font-size="12" lengthAdjust="spacing" textLength="35.5254" x="360.8311" y="120.5137">Editar</text><rect fill="#EEEEEE" height="17.9688" rx="5" ry="5" style="stroke:#000000;stroke-width:2.5;" width="68" x="411.5938" y="107.375"/><text fill="#000000" font-family="sans-serif" font-size="12" lengthAdjust="spacing" textLength="49.166" x="421.0107" y="120.5137">Eliminar</text><line style="stroke:#000000;stroke-width:1;" x1="6" x2="268.3555" y1="29.9688" y2="29.9688"/><line style="stroke:#000000;stroke-width:1;" x1="268.3555" x2="349.0938" y1="29.9688" y2="29.9688"/><line style="stroke:#000000;stroke-width:1;" x1="349.0938" x2="408.0938" y1="29.9688" y2="29.9688"/><line style="stroke:#000000;stroke-width:1;" x1="408.0938" x2="483.0938" y1="29.9688" y2="29.9688"/><line style="stroke:#000000;stroke-width:1;" x1="6" x2="268.3555" y1="128.8438" y2="128.8438"/><line style="stroke:#000000;stroke-width:1;" x1="268.3555" x2="349.0938" y1="128.8438" y2="128.8438"/><line style="stroke:#000000;stroke-width:1;" x1="349.0938" x2="408.0938" y1="128.8438" y2="128.8438"/><line style="stroke:#000000;stroke-width:1;" x1="408.0938" x2="483.0938" y1="128.8438" y2="128.8438"/><line style="stroke:#000000;stroke-width:1;" x1="6" x2="6" y1="29.9688" y2="45.9375"/><line style="stroke:#000000;stroke-width:1;" x1="483.0938" x2="483.0938" y1="103.875" y2="128.8438"/><line style="stroke:#000000;stroke-width:1;" x1="483.0938" x2="483.0938" y1="78.9063" y2="103.875"/><line style="stroke:#000000;stroke-width:1;" x1="483.0938" x2="483.0938" y1="53.9375" y2="78.9063"/><line style="stroke:#000000;stroke-width:1;" x1="483.0938" x2="483.0938" y1="45.9375" y2="53.9375"/><line style="stroke:#000000;stroke-width:1;" x1="483.0938" x2="483.0938" y1="29.9688" y2="45.9375"/><line style="stroke:#000000;stroke-width:1;" x1="6" x2="6" y1="103.875" y2="128.8438"/><line style="stroke:#000000;stroke-width:1;" x1="6" x2="6" y1="78.9063" y2="103.875"/><line style="stroke:#000000;stroke-width:1;" x1="6" x2="6" y1="53.9375" y2="78.9063"/><line style="stroke:#000000;stroke-width:1;" x1="6" x2="6" y1="45.9375" y2="53.9375"/><line style="stroke:#AAAAAA;stroke-width:1.5;" x1="6" x2="484.0938" y1="134.3438" y2="134.3438"/><text fill="#000000" font-family="sans-serif" font-size="12" font-weight="bold" lengthAdjust="spacing" textLength="59.666" x="7" y="166.9512">BUSCAR:</text><text fill="#000000" font-family="sans-serif" font-size="12" lengthAdjust="spacing" textLength="158.127" x="70.4805" y="166.9512">[                                       ]</text><rect fill="#EEEEEE" height="17.9688" rx="5" ry="5" style="stroke:#000000;stroke-width:2.5;" width="60" x="233.1074" y="158.3125"/><text fill="#000000" font-family="sans-serif" font-size="12" lengthAdjust="spacing" textLength="35.4961" x="245.3594" y="171.4512">Filtrar</text><line style="stroke:#AAAAAA;stroke-width:1.5;" x1="6" x2="484.0938" y1="185.2813" y2="185.2813"/><rect fill="#EEEEEE" height="17.9688" rx="5" ry="5" style="stroke:#000000;stroke-width:2.5;" width="124" x="9.5" y="209.25"/><text fill="#000000" font-family="sans-serif" font-size="12" lengthAdjust="spacing" textLength="96.2813" x="23.3594" y="222.3887">Crear respuesta</text><rect fill="#EEEEEE" height="17.9688" rx="5" ry="5" style="stroke:#000000;stroke-width:2.5;" width="44" x="140.5" y="209.25"/><text fill="#000000" font-family="sans-serif" font-size="12" lengthAdjust="spacing" textLength="26.5723" x="149.2139" y="222.3887">Salir</text><!--SRC=[ZLBRZjCm47ttLypZhb1AMXK4qNRPRff5MtfJqlQbuc6IJ2CZnwvifrpQtP_WEtZY0v3eZp4jgW0X92oFDRPdpXoVyOtpQBr3vG5pA-tCcZKvOya5xwMbjSMQn0x4LNwz90ifkKr3dEEkdkRN0ABNwudT4u1uEfada_l1T0_VlyNJD4tYUV_L7lfnV7_uF140GR0_JNPJQhnKyXDQA0vVIraPA0aAXOuSq0VfF6dFxXwomvSzh99ICiktS7ILhANc3SF4kC52bbWUivdnnkYIEQA2MhhQG4tQuJlYj8c1ts3-mh74JBPe9UQAorRAvAZEzU7V11xO7XzvQR7jMABRHHRtq-YapGh-RvnGxwJoba7_H5pzP6RFefz2CrJo6FWWn0tfyjWw8MOAjL-CHx0bwwJHq6vrmiwpLZkyc3V4xzz2s8Ls67N2gFiInjaSZlUNukBrR0JEDBOWA5buAtFkZT6NOeXRXBJHNjOKmNH3UZXuSpw0H6-bDPebzcAu7FyAUDuDRgM7Z2nJWULO36YD3N-lH1UcbBgAO36_2rw84UggmOgnIOlOCAxz685kbFe1]--></g></svg>