<svg xmlns="http://www.w3.org/2000/svg" xmlns:xlink="http://www.w3.org/1999/xlink" contentStyleType="text/css" data-diagram-type="STATE" height="667px" preserveAspectRatio="none" style="width:976px;height:667px;background:#FFFFFF;" version="1.1" viewBox="0 0 976 667" width="976px" zoomAndPan="magnify"><defs/><g><g id="EXAMENES_GENERADOS2"><rect fill="#F1F1F1" height="50" rx="12.5" ry="12.5" style="stroke:#181818;stroke-width:0.5;" width="193.1475" x="7" y="611"/><line style="stroke:#181818;stroke-width:0.5;" x1="7" x2="200.1475" y1="637.2969" y2="637.2969"/><text fill="#000000" font-family="sans-serif" font-size="14" lengthAdjust="spacing" textLength="173.1475" x="17" y="628.9951">EXAMENES_GENERADOS</text></g><g id="EXAMENES_GENERADOS_CONTEXTUALES2"><rect fill="#F1F1F1" height="50" rx="12.5" ry="12.5" style="stroke:#181818;stroke-width:0.5;" width="312.3115" x="235.5" y="611"/><line style="stroke:#181818;stroke-width:0.5;" x1="235.5" x2="547.8115" y1="637.2969" y2="637.2969"/><text fill="#000000" font-family="sans-serif" font-size="14" lengthAdjust="spacing" textLength="292.3115" x="245.5" y="628.9951">EXAMENES_GENERADOS_CONTEXTUALES</text></g><path d="M326,118 L733,118 A12.5,12.5 0 0 1 745.5,130.5 L745.5,144.2969 L313.5,144.2969 L313.5,130.5 A12.5,12.5 0 0 1 326,118" fill="#F1F1F1"/><rect fill="none" height="398.2969" rx="12.5" ry="12.5" style="stroke:#181818;stroke-width:0.5;" width="432" x="313.5" y="118"/><line style="stroke:#181818;stroke-width:0.5;" x1="313.5" x2="745.5" y1="144.2969" y2="144.2969"/><text fill="#000000" font-family="sans-serif" font-size="14" lengthAdjust="spacing" textLength="150.917" x="454.0415" y="135.9951">cancelarGeneracion()</text><g id="cancelarGeneracion.RequiringCancelGeneration"><rect fill="#F1F1F1" height="50" rx="12.5" ry="12.5" style="stroke:#181818;stroke-width:0.5;" width="50" x="325.5" y="246.2969"/><line style="stroke:#181818;stroke-width:0.5;" x1="325.5" x2="375.5" y1="272.5938" y2="272.5938"/><text fill="#000000" font-family="sans-serif" font-size="14" lengthAdjust="spacing" textLength="4.4502" x="348.2749" y="264.292">&#160;</text></g><g id="cancelarGeneracion.ProvidingConfirmation"><rect fill="#F1F1F1" height="50" rx="12.5" ry="12.5" style="stroke:#181818;stroke-width:0.5;" width="50" x="325.5" y="397.2969"/><line style="stroke:#181818;stroke-width:0.5;" x1="325.5" x2="375.5" y1="423.5938" y2="423.5938"/><text fill="#000000" font-family="sans-serif" font-size="14" lengthAdjust="spacing" textLength="4.4502" x="348.2749" y="415.292">&#160;</text></g><ellipse cx="350.5" cy="165.2969" fill="#222222" rx="10" ry="10" style="stroke:#222222;stroke-width:1;"/><ellipse cx="350.5" cy="495.2969" fill="none" rx="11" ry="11" style="stroke:#222222;stroke-width:1;"/><ellipse cx="350.5" cy="495.2969" fill="#222222" rx="6" ry="6" style="stroke:#222222;stroke-width:1;"/><!--link *start*cancelarGeneracion to RequiringCancelGeneration--><g class="link" data-entity-1=".start.cancelarGeneracion" data-entity-2="RequiringCancelGeneration" data-source-line="11" data-uid="lnk3" id="link_.start.cancelarGeneracion_RequiringCancelGeneration"><path d="M350.5,175.5269 C350.5,191.2369 350.5,217.6569 350.5,240.1669" fill="none" id="*start*cancelarGeneracion-to-RequiringCancelGeneration" style="stroke:#008000;stroke-width:1;"/><polygon fill="#008000" points="350.5,246.1669,354.5,237.1669,350.5,241.1669,346.5,237.1669,350.5,246.1669" style="stroke:#008000;stroke-width:1;"/><path d="M355.5,198.2969 L355.5,223.2969 L714.5,223.2969 L714.5,208.2969 L704.5,198.2969 L355.5,198.2969" fill="#FEFFDD" style="stroke:#181818;stroke-width:0.5;"/><path d="M704.5,198.2969 L704.5,208.2969 L714.5,208.2969 L704.5,198.2969" fill="#FEFFDD" style="stroke:#181818;stroke-width:0.5;"/><text fill="#000000" font-family="sans-serif" font-size="13" font-weight="bold" lengthAdjust="spacing" textLength="60.5313" x="361.5" y="215.3638">Docente</text><text fill="#000000" font-family="sans-serif" font-size="13" lengthAdjust="spacing" textLength="274.0537" x="426.1636" y="215.3638">solicita cancelar generaci&#243;n de ex&#225;menes</text></g><!--link RequiringCancelGeneration to ProvidingConfirmation--><g class="link" data-entity-1="RequiringCancelGeneration" data-entity-2="ProvidingConfirmation" data-source-line="16" data-uid="lnk4" id="link_RequiringCancelGeneration_ProvidingConfirmation"><path d="M350.5,296.5669 C350.5,324.2769 350.5,363.3369 350.5,391.0369" fill="none" id="RequiringCancelGeneration-to-ProvidingConfirmation" style="stroke:#008000;stroke-width:1;"/><polygon fill="#008000" points="350.5,397.0369,354.5,388.0369,350.5,392.0369,346.5,388.0369,350.5,397.0369" style="stroke:#008000;stroke-width:1;"/><path d="M355.5,319.2969 L355.5,374.2969 L736.5,374.2969 L736.5,329.2969 L726.5,319.2969 L355.5,319.2969" fill="#FEFFDD" style="stroke:#181818;stroke-width:0.5;"/><path d="M726.5,319.2969 L726.5,329.2969 L736.5,329.2969 L726.5,319.2969" fill="#FEFFDD" style="stroke:#181818;stroke-width:0.5;"/><text fill="#000000" font-family="sans-serif" font-size="13" font-weight="bold" lengthAdjust="spacing" textLength="58.9063" x="361.5" y="336.3638">Sistema</text><text fill="#000000" font-family="sans-serif" font-size="13" lengthAdjust="spacing" textLength="50.9653" x="424.5386" y="336.3638">permite</text><text fill="#000000" font-family="sans-serif" font-size="13" lengthAdjust="spacing" textLength="360.6294" x="361.5" y="351.4966">&#8226; confirmar la cancelaci&#243;n de generaci&#243;n de ex&#225;menes</text><text fill="#000000" font-family="sans-serif" font-size="13" lengthAdjust="spacing" textLength="351.8315" x="361.5" y="366.6294">&#8226; denegar la cancelaci&#243;n de generaci&#243;n de ex&#225;menes</text></g><!--link ProvidingConfirmation to *end*cancelarGeneracion--><g class="link" data-entity-1="ProvidingConfirmation" data-entity-2=".end.cancelarGeneracion" data-source-line="23" data-uid="lnk6" id="link_ProvidingConfirmation_.end.cancelarGeneracion"><path d="M350.5,447.3369 C350.5,459.8869 350.5,468.5769 350.5,478.1469" fill="none" id="ProvidingConfirmation-to-*end*cancelarGeneracion" style="stroke:#008000;stroke-width:1;"/><polygon fill="#008000" points="350.5,484.1469,354.5,475.1469,350.5,479.1469,346.5,475.1469,350.5,484.1469" style="stroke:#008000;stroke-width:1;"/></g><g id="EXAMENES_GENERADOS"><rect fill="#F1F1F1" height="50" rx="12.5" ry="12.5" style="stroke:#181818;stroke-width:0.5;" width="193.1475" x="289" y="7"/><line style="stroke:#181818;stroke-width:0.5;" x1="289" x2="482.1475" y1="33.2969" y2="33.2969"/><text fill="#000000" font-family="sans-serif" font-size="14" lengthAdjust="spacing" textLength="173.1475" x="299" y="24.9951">EXAMENES_GENERADOS</text></g><g id="EXAMENES_GENERADOS_CONTEXTUALES"><rect fill="#F1F1F1" height="50" rx="12.5" ry="12.5" style="stroke:#181818;stroke-width:0.5;" width="312.3115" x="517.5" y="7"/><line style="stroke:#181818;stroke-width:0.5;" x1="517.5" x2="829.8115" y1="33.2969" y2="33.2969"/><text fill="#000000" font-family="sans-serif" font-size="14" lengthAdjust="spacing" textLength="292.3115" x="527.5" y="24.9951">EXAMENES_GENERADOS_CONTEXTUALES</text></g><g id="SISTEMA_DISPONIBLE"><rect fill="#F1F1F1" height="50" rx="12.5" ry="12.5" style="stroke:#181818;stroke-width:0.5;" width="172.0654" x="582.5" y="611"/><line style="stroke:#181818;stroke-width:0.5;" x1="582.5" x2="754.5654" y1="637.2969" y2="637.2969"/><text fill="#000000" font-family="sans-serif" font-size="14" lengthAdjust="spacing" textLength="152.0654" x="592.5" y="628.9951">SISTEMA_DISPONIBLE</text></g><g id="ASIGNATURA_ABIERTO"><rect fill="#F1F1F1" height="50" rx="12.5" ry="12.5" style="stroke:#181818;stroke-width:0.5;" width="180.0498" x="789.5" y="611"/><line style="stroke:#181818;stroke-width:0.5;" x1="789.5" x2="969.5498" y1="637.2969" y2="637.2969"/><text fill="#000000" font-family="sans-serif" font-size="14" lengthAdjust="spacing" textLength="160.0498" x="799.5" y="628.9951">ASIGNATURA_ABIERTO</text></g><!--link EXAMENES_GENERADOS to cancelarGeneracion--><g class="link" data-entity-1="EXAMENES_GENERADOS" data-entity-2="cancelarGeneracion" data-source-line="27" data-uid="lnk8" id="link_EXAMENES_GENERADOS_cancelarGeneracion"><path d="M397.78,57.13 C405.56,72.43 413.7385,88.4927 425.9585,112.5027" fill="none" id="EXAMENES_GENERADOS-to-cancelarGeneracion" style="stroke:#008000;stroke-width:1;"/><polygon fill="#008000" points="428.68,117.85,428.1626,108.0147,426.4121,113.3939,421.0329,111.6434,428.68,117.85" style="stroke:#008000;stroke-width:1;"/></g><!--link EXAMENES_GENERADOS_CONTEXTUALES to cancelarGeneracion--><g class="link" data-entity-1="EXAMENES_GENERADOS_CONTEXTUALES" data-entity-2="cancelarGeneracion" data-source-line="29" data-uid="lnk10" id="link_EXAMENES_GENERADOS_CONTEXTUALES_cancelarGeneracion"><path d="M661.22,57.13 C653.44,72.43 645.2615,88.4927 633.0415,112.5027" fill="none" id="EXAMENES_GENERADOS_CONTEXTUALES-to-cancelarGeneracion" style="stroke:#008000;stroke-width:1;"/><polygon fill="#008000" points="630.32,117.85,637.9671,111.6434,632.5879,113.3939,630.8374,108.0147,630.32,117.85" style="stroke:#008000;stroke-width:1;"/></g><!--link cancelarGeneracion to SISTEMA_DISPONIBLE--><g class="link" data-entity-1="cancelarGeneracion" data-entity-2="SISTEMA_DISPONIBLE" data-source-line="31" data-uid="lnk12" id="link_cancelarGeneracion_SISTEMA_DISPONIBLE"><path d="M616.35,516.06 C633.03,554.11 645.8819,583.4044 655.5219,605.4044" fill="none" id="cancelarGeneracion-to-SISTEMA_DISPONIBLE" style="stroke:#008000;stroke-width:1;"/><polygon fill="#008000" points="657.93,610.9,657.9816,601.0513,655.9233,606.3204,650.6542,604.262,657.93,610.9" style="stroke:#008000;stroke-width:1;"/><path d="M646.5,551 L646.5,576 L773.5,576 L773.5,561 L763.5,551 L646.5,551" fill="#FEFFDD" style="stroke:#181818;stroke-width:0.5;"/><path d="M763.5,551 L763.5,561 L773.5,561 L763.5,551" fill="#FEFFDD" style="stroke:#181818;stroke-width:0.5;"/><text fill="#000000" font-family="sans-serif" font-size="13" lengthAdjust="spacing" textLength="106.8945" x="652.5" y="568.0669">docente cancela</text></g><!--link cancelarGeneracion to ASIGNATURA_ABIERTO--><g class="link" data-entity-1="cancelarGeneracion" data-entity-2="ASIGNATURA_ABIERTO" data-source-line="36" data-uid="lnk14" id="link_cancelarGeneracion_ASIGNATURA_ABIERTO"><path d="M745.78,509.87 C770.19,531.53 786.5,546 786.5,546 C786.5,546 822.2147,580.1821 849.7547,606.5321" fill="none" id="cancelarGeneracion-to-ASIGNATURA_ABIERTO" style="stroke:#008000;stroke-width:1;"/><polygon fill="#008000" points="854.09,610.68,850.3524,601.5679,850.4773,607.2234,844.8218,607.3483,854.09,610.68" style="stroke:#008000;stroke-width:1;"/><path d="M826.5,551 L826.5,576 L953.5,576 L953.5,561 L943.5,551 L826.5,551" fill="#FEFFDD" style="stroke:#181818;stroke-width:0.5;"/><path d="M943.5,551 L943.5,561 L953.5,561 L943.5,551" fill="#FEFFDD" style="stroke:#181818;stroke-width:0.5;"/><text fill="#000000" font-family="sans-serif" font-size="13" lengthAdjust="spacing" textLength="106.8945" x="832.5" y="568.0669">docente cancela</text></g><!--link cancelarGeneracion to EXAMENES_GENERADOS2--><g class="link" data-entity-1="cancelarGeneracion" data-entity-2="EXAMENES_GENERADOS2" data-source-line="41" data-uid="lnk15" id="link_cancelarGeneracion_EXAMENES_GENERADOS2"><path d="M313.38,478.82 C243.97,530.47 179.8236,578.2082 140.7836,607.2582" fill="none" id="cancelarGeneracion-to-EXAMENES_GENERADOS2" style="stroke:#FF0000;stroke-width:1;"/><polygon fill="#FF0000" points="135.97,610.84,145.5782,608.6763,139.9813,607.8551,140.8025,602.2582,135.97,610.84" style="stroke:#FF0000;stroke-width:1;"/><path d="M223.5,551 L223.5,576 L371.5,576 L371.5,561 L361.5,551 L223.5,551" fill="#FEFFDD" style="stroke:#181818;stroke-width:0.5;"/><path d="M361.5,551 L361.5,561 L371.5,561 L361.5,551" fill="#FEFFDD" style="stroke:#181818;stroke-width:0.5;"/><text fill="#000000" font-family="sans-serif" font-size="13" lengthAdjust="spacing" textLength="127.2197" x="229.5" y="568.0669">docente no cancela</text></g><!--link cancelarGeneracion to EXAMENES_GENERADOS_CONTEXTUALES2--><g class="link" data-entity-1="cancelarGeneracion" data-entity-2="EXAMENES_GENERADOS_CONTEXTUALES2" data-source-line="46" data-uid="lnk16" id="link_cancelarGeneracion_EXAMENES_GENERADOS_CONTEXTUALES2"><path d="M443.28,516.06 C426.72,554.11 413.9655,583.3989 404.3855,605.3989" fill="none" id="cancelarGeneracion-to-EXAMENES_GENERADOS_CONTEXTUALES2" style="stroke:#FF0000;stroke-width:1;"/><polygon fill="#FF0000" points="401.99,610.9,409.2506,604.2454,403.9862,606.3158,401.9158,601.0514,401.99,610.9" style="stroke:#FF0000;stroke-width:1;"/><path d="M434.5,551 L434.5,576 L582.5,576 L582.5,561 L572.5,551 L434.5,551" fill="#FEFFDD" style="stroke:#181818;stroke-width:0.5;"/><path d="M572.5,551 L572.5,561 L582.5,561 L572.5,551" fill="#FEFFDD" style="stroke:#181818;stroke-width:0.5;"/><text fill="#000000" font-family="sans-serif" font-size="13" lengthAdjust="spacing" textLength="127.2197" x="440.5" y="568.0669">docente no cancela</text></g><!--SRC=[fLJHQeCm57tFLmJtiWtAOC-bO5ifGgj5BHHAaLJlIgWcBhgnCWRxbUqNzWdzatt9OcnTdRgoDK8WrtDEpaakIJUK9KIG64UKGRPD02SyskOBXDACP82DkJunBCFrHt9szA7jtcAIOgrUrreP_i2sF6FkpVInqKglWBJ3zW5X0KH4Z821807bJD7hvSih3JyZXEKec9hy9DI1-mSgA5iF5AKWP99GXqu5VwHX3kNiZeguW2dSudg9EukBjG1WoqwlNHKhEEDILIxaGMvKeRlg3Na0B8FkpQg7KnxHW6QaZ8VN-o2x3uP3mF2qUujbALLiO64XAGSgftOFnqwRGxMPT6cQGKoKoGH4J2L4_VjyVSV1Na7Wg7HUElurGCuEvMhz3-uX_7VmnaYLqFAw2lWBGlLEgq3hdTH4gJJdINv3qnvJNDFrZ8dk3qrtQbjcVsoW7tSH5hro44Vb6PoIrbrpPEdUpD5zlMyQZcUVAoqWp8KRde4sPSRF5w- -67_OwGi0]--></g></svg>