<?plantuml 1.2026.2?><svg xmlns="http://www.w3.org/2000/svg" xmlns:xlink="http://www.w3.org/1999/xlink" contentStyleType="text/css" data-diagram-type="SEQUENCE" height="1817px" preserveAspectRatio="none" style="width:2619px;height:1817px;background:#FFFFFF;" version="1.1" viewBox="0 0 2619 1817" width="2619px" zoomAndPan="magnify"><title>Diagrama de Secuencia - Generar Ex&#225;menes (Ephemeral) - Spring Boot + React</title><defs/><g><text fill="#000000" font-family="sans-serif" font-size="14" font-weight="bold" lengthAdjust="spacing" textLength="626.418" x="997.9827" y="27.9951">Diagrama de Secuencia - Generar Ex&#225;menes (Ephemeral) - Spring Boot + React</text><g><title>Frontend .React.</title><rect fill="#FFFFFF" height="1577.1797" style="stroke:#181818;stroke-width:1;" width="10" x="362.4429" y="149.7266"/></g><g><title>ExamenesController</title><rect fill="#FFFFFF" height="1106.1797" style="stroke:#181818;stroke-width:1;" width="10" x="678.1265" y="209.125"/></g><g><title>ExamenService</title><rect fill="#FFFFFF" height="1005.7813" style="stroke:#181818;stroke-width:1;" width="10" x="1082.1631" y="280.3906"/></g><g><title>AsignaturaService</title><rect fill="#FFFFFF" height="267.5938" style="stroke:#181818;stroke-width:1;" width="10" x="1632.5386" y="309.5234"/></g><g><title>PreguntaService</title><rect fill="#FFFFFF" height="174.9297" style="stroke:#181818;stroke-width:1;" width="10" x="1777.9346" y="648.3828"/></g><g><title>PreguntaService</title><rect fill="#FFFFFF" height="34.1328" style="stroke:#181818;stroke-width:1;" width="10" x="1782.9346" y="789.1797"/></g><g><title>ExamenSessionService</title><rect fill="#FFFFFF" height="87.3984" style="stroke:#181818;stroke-width:1;" width="10" x="2029.2593" y="1169.6406"/></g><g><title>HttpSession</title><rect fill="#FFFFFF" height="29.1328" style="stroke:#181818;stroke-width:1;" width="10" x="2351.1528" y="1198.7734"/></g><rect fill="none" height="46.2656" style="stroke:#000000;stroke-width:1.5;" width="702.4321" x="1015.8755" y="382.7891"/><rect fill="none" height="46.2656" style="stroke:#000000;stroke-width:1.5;" width="563.2813" x="595.1694" y="838.3125"/><rect fill="none" height="185.6641" style="stroke:#000000;stroke-width:1.5;" width="621.6631" x="1015.8755" y="955.8438"/><rect fill="none" height="236.6719" style="stroke:#000000;stroke-width:1.5;" width="761.0835" x="10" y="1483.2344"/><g class="participant-lifeline" data-entity-uid="part1" data-qualified-name="Teacher" id="part1-lifeline"><g><title>Docente</title><rect fill="#000000" fill-opacity="0.00000" height="1618.3125" width="8" x="48.3159" y="118.5938"/><line style="stroke:#181818;stroke-width:0.5;stroke-dasharray:5,5;" x1="52" x2="52" y1="118.5938" y2="1736.9063"/></g></g><g class="participant-lifeline" data-entity-uid="part2" data-qualified-name="FE" id="part2-lifeline"><g><title>Frontend .React.</title><rect fill="#000000" fill-opacity="0.00000" height="1618.3125" width="8" x="363.4429" y="118.5938"/><line style="stroke:#181818;stroke-width:0.5;stroke-dasharray:5,5;" x1="367.1479" x2="367.1479" y1="118.5938" y2="1736.9063"/></g></g><g class="participant-lifeline" data-entity-uid="part3" data-qualified-name="Controller" id="part3-lifeline"><g><title>ExamenesController</title><rect fill="#000000" fill-opacity="0.00000" height="1618.3125" width="8" x="679.1265" y="118.5938"/><line style="stroke:#181818;stroke-width:0.5;stroke-dasharray:5,5;" x1="682.1694" x2="682.1694" y1="118.5938" y2="1736.9063"/></g></g><g class="participant-lifeline" data-entity-uid="part4" data-qualified-name="Service" id="part4-lifeline"><g><title>ExamenService</title><rect fill="#000000" fill-opacity="0.00000" height="1618.3125" width="8" x="1083.1631" y="118.5938"/><line style="stroke:#181818;stroke-width:0.5;stroke-dasharray:5,5;" x1="1086.8755" x2="1086.8755" y1="118.5938" y2="1736.9063"/></g></g><g class="participant-lifeline" data-entity-uid="part5" data-qualified-name="AsignaturaService" id="part5-lifeline"><g><title>AsignaturaService</title><rect fill="#000000" fill-opacity="0.00000" height="1618.3125" width="8" x="1633.5386" y="118.5938"/><line style="stroke:#181818;stroke-width:0.5;stroke-dasharray:5,5;" x1="1636.7695" x2="1636.7695" y1="118.5938" y2="1736.9063"/></g></g><g class="participant-lifeline" data-entity-uid="part6" data-qualified-name="PreguntaService" id="part6-lifeline"><g><title>PreguntaService</title><rect fill="#000000" fill-opacity="0.00000" height="1618.3125" width="8" x="1778.9346" y="118.5938"/><line style="stroke:#181818;stroke-width:0.5;stroke-dasharray:5,5;" x1="1782.3076" x2="1782.3076" y1="118.5938" y2="1736.9063"/></g></g><g class="participant-lifeline" data-entity-uid="part7" data-qualified-name="SessionService" id="part7-lifeline"><g><title>ExamenSessionService</title><rect fill="#000000" fill-opacity="0.00000" height="1618.3125" width="8" x="2030.2593" y="118.5938"/><line style="stroke:#181818;stroke-width:0.5;stroke-dasharray:5,5;" x1="2033.2637" x2="2033.2637" y1="118.5938" y2="1736.9063"/></g></g><g class="participant-lifeline" data-entity-uid="part8" data-qualified-name="Session" id="part8-lifeline"><g><title>HttpSession</title><rect fill="#000000" fill-opacity="0.00000" height="1618.3125" width="8" x="2352.1528" y="118.5938"/><line style="stroke:#181818;stroke-width:0.5;stroke-dasharray:5,5;" x1="2355.2485" x2="2355.2485" y1="118.5938" y2="1736.9063"/></g></g><g class="participant-lifeline" data-entity-uid="part9" data-qualified-name="DB" id="part9-lifeline"><g><title>Base de Datos .PostgreSQL.</title><rect fill="#000000" fill-opacity="0.00000" height="1618.3125" width="8" x="2512.7202" y="118.5938"/><line style="stroke:#181818;stroke-width:0.5;stroke-dasharray:5,5;" x1="2516.0571" x2="2516.0571" y1="118.5938" y2="1736.9063"/></g></g><g class="participant participant-head" data-entity-uid="part1" data-qualified-name="Teacher" id="part1-head"><text fill="#000000" font-family="sans-serif" font-size="14" lengthAdjust="spacing" textLength="58.6318" x="20" y="115.292">Docente</text><ellipse cx="52.3159" cy="50.7969" fill="#E2E2F0" rx="8" ry="8" style="stroke:#181818;stroke-width:0.5;"/><path d="M52.3159,58.7969 L52.3159,85.7969 M39.3159,66.7969 L65.3159,66.7969 M52.3159,85.7969 L39.3159,100.7969 M52.3159,85.7969 L65.3159,100.7969" fill="none" style="stroke:#181818;stroke-width:0.5;"/></g><g class="participant participant-tail" data-entity-uid="part1" data-qualified-name="Teacher" id="part1-tail"><text fill="#000000" font-family="sans-serif" font-size="14" lengthAdjust="spacing" textLength="58.6318" x="20" y="1748.9014">Docente</text><ellipse cx="52.3159" cy="1760.7031" fill="#E2E2F0" rx="8" ry="8" style="stroke:#181818;stroke-width:0.5;"/><path d="M52.3159,1768.7031 L52.3159,1795.7031 M39.3159,1776.7031 L65.3159,1776.7031 M52.3159,1795.7031 L39.3159,1810.7031 M52.3159,1795.7031 L65.3159,1810.7031" fill="none" style="stroke:#181818;stroke-width:0.5;"/></g><g class="participant participant-head" data-entity-uid="part2" data-qualified-name="FE" id="part2-head"><rect fill="#E2E2F0" height="30.2969" rx="2.5" ry="2.5" style="stroke:#181818;stroke-width:0.5;" width="132.5898" x="301.1479" y="87.2969"/><text fill="#000000" font-family="sans-serif" font-size="14" lengthAdjust="spacing" textLength="118.5898" x="308.1479" y="107.292">Frontend (React)</text></g><g class="participant participant-tail" data-entity-uid="part2" data-qualified-name="FE" id="part2-tail"><rect fill="#E2E2F0" height="30.2969" rx="2.5" ry="2.5" style="stroke:#181818;stroke-width:0.5;" width="132.5898" x="301.1479" y="1735.9063"/><text fill="#000000" font-family="sans-serif" font-size="14" lengthAdjust="spacing" textLength="118.5898" x="308.1479" y="1755.9014">Frontend (React)</text></g><g class="participant participant-head" data-entity-uid="part3" data-qualified-name="Controller" id="part3-head"><rect fill="#E2E2F0" height="30.2969" rx="2.5" ry="2.5" style="stroke:#181818;stroke-width:0.5;" width="155.9141" x="605.1694" y="87.2969"/><text fill="#000000" font-family="sans-serif" font-size="14" lengthAdjust="spacing" textLength="141.9141" x="612.1694" y="107.292">ExamenesController</text></g><g class="participant participant-tail" data-entity-uid="part3" data-qualified-name="Controller" id="part3-tail"><rect fill="#E2E2F0" height="30.2969" rx="2.5" ry="2.5" style="stroke:#181818;stroke-width:0.5;" width="155.9141" x="605.1694" y="1735.9063"/><text fill="#000000" font-family="sans-serif" font-size="14" lengthAdjust="spacing" textLength="141.9141" x="612.1694" y="1755.9014">ExamenesController</text></g><g class="participant participant-head" data-entity-uid="part4" data-qualified-name="Service" id="part4-head"><rect fill="#E2E2F0" height="30.2969" rx="2.5" ry="2.5" style="stroke:#181818;stroke-width:0.5;" width="122.5752" x="1025.8755" y="87.2969"/><text fill="#000000" font-family="sans-serif" font-size="14" lengthAdjust="spacing" textLength="108.5752" x="1032.8755" y="107.292">ExamenService</text></g><g class="participant participant-tail" data-entity-uid="part4" data-qualified-name="Service" id="part4-tail"><rect fill="#E2E2F0" height="30.2969" rx="2.5" ry="2.5" style="stroke:#181818;stroke-width:0.5;" width="122.5752" x="1025.8755" y="1735.9063"/><text fill="#000000" font-family="sans-serif" font-size="14" lengthAdjust="spacing" textLength="108.5752" x="1032.8755" y="1755.9014">ExamenService</text></g><g class="participant participant-head" data-entity-uid="part5" data-qualified-name="AsignaturaService" id="part5-head"><rect fill="#E2E2F0" height="30.2969" rx="2.5" ry="2.5" style="stroke:#181818;stroke-width:0.5;" width="141.5381" x="1566.7695" y="87.2969"/><text fill="#000000" font-family="sans-serif" font-size="14" lengthAdjust="spacing" textLength="127.5381" x="1573.7695" y="107.292">AsignaturaService</text></g><g class="participant participant-tail" data-entity-uid="part5" data-qualified-name="AsignaturaService" id="part5-tail"><rect fill="#E2E2F0" height="30.2969" rx="2.5" ry="2.5" style="stroke:#181818;stroke-width:0.5;" width="141.5381" x="1566.7695" y="1735.9063"/><text fill="#000000" font-family="sans-serif" font-size="14" lengthAdjust="spacing" textLength="127.5381" x="1573.7695" y="1755.9014">AsignaturaService</text></g><g class="participant participant-head" data-entity-uid="part6" data-qualified-name="PreguntaService" id="part6-head"><rect fill="#E2E2F0" height="30.2969" rx="2.5" ry="2.5" style="stroke:#181818;stroke-width:0.5;" width="129.2539" x="1718.3076" y="87.2969"/><text fill="#000000" font-family="sans-serif" font-size="14" lengthAdjust="spacing" textLength="115.2539" x="1725.3076" y="107.292">PreguntaService</text></g><g class="participant participant-tail" data-entity-uid="part6" data-qualified-name="PreguntaService" id="part6-tail"><rect fill="#E2E2F0" height="30.2969" rx="2.5" ry="2.5" style="stroke:#181818;stroke-width:0.5;" width="129.2539" x="1718.3076" y="1735.9063"/><text fill="#000000" font-family="sans-serif" font-size="14" lengthAdjust="spacing" textLength="115.2539" x="1725.3076" y="1755.9014">PreguntaService</text></g><g class="participant participant-head" data-entity-uid="part7" data-qualified-name="SessionService" id="part7-head"><rect fill="#E2E2F0" height="30.2969" rx="2.5" ry="2.5" style="stroke:#181818;stroke-width:0.5;" width="175.9912" x="1946.2637" y="87.2969"/><text fill="#000000" font-family="sans-serif" font-size="14" lengthAdjust="spacing" textLength="161.9912" x="1953.2637" y="107.292">ExamenSessionService</text></g><g class="participant participant-tail" data-entity-uid="part7" data-qualified-name="SessionService" id="part7-tail"><rect fill="#E2E2F0" height="30.2969" rx="2.5" ry="2.5" style="stroke:#181818;stroke-width:0.5;" width="175.9912" x="1946.2637" y="1735.9063"/><text fill="#000000" font-family="sans-serif" font-size="14" lengthAdjust="spacing" textLength="161.9912" x="1953.2637" y="1755.9014">ExamenSessionService</text></g><g class="participant participant-head" data-entity-uid="part8" data-qualified-name="Session" id="part8-head"><rect fill="#E2E2F0" height="30.2969" rx="2.5" ry="2.5" style="stroke:#181818;stroke-width:0.5;" width="97.8086" x="2307.2485" y="87.2969"/><text fill="#000000" font-family="sans-serif" font-size="14" lengthAdjust="spacing" textLength="83.8086" x="2314.2485" y="107.292">HttpSession</text></g><g class="participant participant-tail" data-entity-uid="part8" data-qualified-name="Session" id="part8-tail"><rect fill="#E2E2F0" height="30.2969" rx="2.5" ry="2.5" style="stroke:#181818;stroke-width:0.5;" width="97.8086" x="2307.2485" y="1735.9063"/><text fill="#000000" font-family="sans-serif" font-size="14" lengthAdjust="spacing" textLength="83.8086" x="2314.2485" y="1755.9014">HttpSession</text></g><g class="participant participant-head" data-entity-uid="part9" data-qualified-name="DB" id="part9-head"><text fill="#000000" font-family="sans-serif" font-size="14" lengthAdjust="spacing" textLength="197.3262" x="2415.0571" y="115.292">Base de Datos (PostgreSQL)</text><path d="M2498.7202,66.2969 C2498.7202,56.2969 2516.7202,56.2969 2516.7202,56.2969 C2516.7202,56.2969 2534.7202,56.2969 2534.7202,66.2969 L2534.7202,92.2969 C2534.7202,102.2969 2516.7202,102.2969 2516.7202,102.2969 C2516.7202,102.2969 2498.7202,102.2969 2498.7202,92.2969 L2498.7202,66.2969" fill="#E2E2F0" style="stroke:#181818;stroke-width:0.5;"/><path d="M2498.7202,66.2969 C2498.7202,76.2969 2516.7202,76.2969 2516.7202,76.2969 C2516.7202,76.2969 2534.7202,76.2969 2534.7202,66.2969" fill="none" style="stroke:#181818;stroke-width:0.5;"/></g><g class="participant participant-tail" data-entity-uid="part9" data-qualified-name="DB" id="part9-tail"><text fill="#000000" font-family="sans-serif" font-size="14" lengthAdjust="spacing" textLength="197.3262" x="2415.0571" y="1748.9014">Base de Datos (PostgreSQL)</text><path d="M2498.7202,1762.2031 C2498.7202,1752.2031 2516.7202,1752.2031 2516.7202,1752.2031 C2516.7202,1752.2031 2534.7202,1752.2031 2534.7202,1762.2031 L2534.7202,1788.2031 C2534.7202,1798.2031 2516.7202,1798.2031 2516.7202,1798.2031 C2516.7202,1798.2031 2498.7202,1798.2031 2498.7202,1788.2031 L2498.7202,1762.2031" fill="#E2E2F0" style="stroke:#181818;stroke-width:0.5;"/><path d="M2498.7202,1762.2031 C2498.7202,1772.2031 2516.7202,1772.2031 2516.7202,1772.2031 C2516.7202,1772.2031 2534.7202,1772.2031 2534.7202,1762.2031" fill="none" style="stroke:#181818;stroke-width:0.5;"/></g><g><title>Frontend .React.</title><rect fill="#FFFFFF" height="1577.1797" style="stroke:#181818;stroke-width:1;" width="10" x="362.4429" y="149.7266"/></g><g><title>ExamenesController</title><rect fill="#FFFFFF" height="1106.1797" style="stroke:#181818;stroke-width:1;" width="10" x="678.1265" y="209.125"/></g><g><title>ExamenService</title><rect fill="#FFFFFF" height="1005.7813" style="stroke:#181818;stroke-width:1;" width="10" x="1082.1631" y="280.3906"/></g><g><title>AsignaturaService</title><rect fill="#FFFFFF" height="267.5938" style="stroke:#181818;stroke-width:1;" width="10" x="1632.5386" y="309.5234"/></g><g><title>PreguntaService</title><rect fill="#FFFFFF" height="174.9297" style="stroke:#181818;stroke-width:1;" width="10" x="1777.9346" y="648.3828"/></g><g><title>PreguntaService</title><rect fill="#FFFFFF" height="34.1328" style="stroke:#181818;stroke-width:1;" width="10" x="1782.9346" y="789.1797"/></g><g><title>ExamenSessionService</title><rect fill="#FFFFFF" height="87.3984" style="stroke:#181818;stroke-width:1;" width="10" x="2029.2593" y="1169.6406"/></g><g><title>HttpSession</title><rect fill="#FFFFFF" height="29.1328" style="stroke:#181818;stroke-width:1;" width="10" x="2351.1528" y="1198.7734"/></g><g class="message" data-entity-1="part1" data-entity-2="part2" id="msg1"><polygon fill="#181818" points="350.4429,145.7266,360.4429,149.7266,350.4429,153.7266,354.4429,149.7266" style="stroke:#181818;stroke-width:1;"/><line style="stroke:#181818;stroke-width:1;" x1="52.3159" x2="356.4429" y1="149.7266" y2="149.7266"/><text fill="#000000" font-family="sans-serif" font-size="13" lengthAdjust="spacing" textLength="184.5518" x="59.3159" y="144.6606">Clic en "Generar Ex&#225;menes"</text></g><g class="message" data-entity-1="part2" data-entity-2="part3" id="msg2"><polygon fill="#181818" points="666.1265,205.125,676.1265,209.125,666.1265,213.125,670.1265,209.125" style="stroke:#181818;stroke-width:1;"/><line style="stroke:#181818;stroke-width:1;" x1="372.4429" x2="672.1265" y1="209.125" y2="209.125"/><text fill="#000000" font-family="sans-serif" font-size="13" lengthAdjust="spacing" textLength="189.8394" x="379.4429" y="173.7935">POST /api/examenes/generar</text><text fill="#000000" font-family="sans-serif" font-size="13" lengthAdjust="spacing" textLength="220.2192" x="379.4429" y="188.9263">(GenerarExamenesRequest JSON)</text><text fill="#000000" font-family="sans-serif" font-size="13" lengthAdjust="spacing" textLength="267.8774" x="379.4429" y="204.0591">(Header: Authorization: Bearer &lt;token&gt;)</text></g><g class="message" data-entity-1="part3" data-entity-2="part3" id="msg3"><line style="stroke:#181818;stroke-width:1;" x1="688.1265" x2="730.1265" y1="238.2578" y2="238.2578"/><line style="stroke:#181818;stroke-width:1;" x1="730.1265" x2="730.1265" y1="238.2578" y2="251.2578"/><line style="stroke:#181818;stroke-width:1;" x1="689.1265" x2="730.1265" y1="251.2578" y2="251.2578"/><polygon fill="#181818" points="699.1265,247.2578,689.1265,251.2578,699.1265,255.2578,695.1265,251.2578" style="stroke:#181818;stroke-width:1;"/><text fill="#000000" font-family="sans-serif" font-size="13" lengthAdjust="spacing" textLength="169.1016" x="695.1265" y="233.1919">extraer docenteId del JWT</text></g><g class="message" data-entity-1="part3" data-entity-2="part4" id="msg4"><polygon fill="#181818" points="1070.1631,276.3906,1080.1631,280.3906,1070.1631,284.3906,1074.1631,280.3906" style="stroke:#181818;stroke-width:1;"/><line style="stroke:#181818;stroke-width:1;" x1="688.1265" x2="1076.1631" y1="280.3906" y2="280.3906"/><text fill="#000000" font-family="sans-serif" font-size="13" lengthAdjust="spacing" textLength="251.5703" x="695.1265" y="275.3247">generarExamenes(request, docenteId)</text></g><g class="message" data-entity-1="part4" data-entity-2="part5" id="msg5"><polygon fill="#181818" points="1620.5386,305.5234,1630.5386,309.5234,1620.5386,313.5234,1624.5386,309.5234" style="stroke:#181818;stroke-width:1;"/><line style="stroke:#181818;stroke-width:1;" x1="1092.1631" x2="1626.5386" y1="309.5234" y2="309.5234"/><text fill="#000000" font-family="sans-serif" font-size="13" lengthAdjust="spacing" textLength="421.9351" x="1099.1631" y="304.4575">obtenerAsignaturaConGradosYAlumnos(asignaturaId, docenteId)</text></g><g class="message" data-entity-1="part5" data-entity-2="part9" id="msg6"><polygon fill="#181818" points="2504.7202,334.6563,2514.7202,338.6563,2504.7202,342.6563,2508.7202,338.6563" style="stroke:#181818;stroke-width:1;"/><line style="stroke:#181818;stroke-width:1;" x1="1642.5386" x2="2510.7202" y1="338.6563" y2="338.6563"/><text fill="#000000" font-family="sans-serif" font-size="13" lengthAdjust="spacing" textLength="410.2998" x="1649.5386" y="333.5903">SELECT * FROM asignaturas WHERE id = ? AND docente_id = ?</text></g><g class="message" data-entity-1="part9" data-entity-2="part5" id="msg7"><polygon fill="#181818" points="1653.5386,363.7891,1643.5386,367.7891,1653.5386,371.7891,1649.5386,367.7891" style="stroke:#181818;stroke-width:1;"/><line style="stroke:#181818;stroke-width:1;stroke-dasharray:2,2;" x1="1647.5386" x2="2515.7202" y1="367.7891" y2="367.7891"/><text fill="#000000" font-family="sans-serif" font-size="13" lengthAdjust="spacing" textLength="147.1323" x="1659.5386" y="362.7231">Optional&lt;Asignatura&gt;</text></g><path d="M1015.8755,382.7891 L1080.3184,382.7891 L1080.3184,389.9219 L1070.3184,399.9219 L1015.8755,399.9219 L1015.8755,382.7891" fill="#EEEEEE" style="stroke:#000000;stroke-width:1.5;"/><rect fill="none" height="46.2656" style="stroke:#000000;stroke-width:1.5;" width="702.4321" x="1015.8755" y="382.7891"/><text fill="#000000" font-family="sans-serif" font-size="13" font-weight="bold" lengthAdjust="spacing" textLength="19.4429" x="1030.8755" y="395.856">alt</text><text fill="#000000" font-family="sans-serif" font-size="11" font-weight="bold" lengthAdjust="spacing" textLength="235.7749" x="1095.3184" y="394.9995">[Asignatura no existe o no pertenece]</text><g class="message" data-entity-1="part5" data-entity-2="part4" id="msg8"><polygon fill="#181818" points="1103.1631,417.0547,1093.1631,421.0547,1103.1631,425.0547,1099.1631,421.0547" style="stroke:#181818;stroke-width:1;"/><line style="stroke:#181818;stroke-width:1;stroke-dasharray:2,2;" x1="1097.1631" x2="1631.5386" y1="421.0547" y2="421.0547"/><text fill="#000000" font-family="sans-serif" font-size="13" lengthAdjust="spacing" textLength="168.543" x="1109.1631" y="415.9888">throw NotFoundException</text></g><g class="message" data-entity-1="part5" data-entity-2="part9" id="msg9"><polygon fill="#181818" points="2504.7202,543.9844,2514.7202,547.9844,2504.7202,551.9844,2508.7202,547.9844" style="stroke:#181818;stroke-width:1;"/><line style="stroke:#181818;stroke-width:1;" x1="1642.5386" x2="2510.7202" y1="547.9844" y2="547.9844"/><text fill="#000000" font-family="sans-serif" font-size="13" lengthAdjust="spacing" textLength="274.9106" x="1649.5386" y="452.1216">SELECT g.*, COUNT(a.id) as num_alumnos</text><text fill="#000000" font-family="sans-serif" font-size="13" lengthAdjust="spacing" textLength="99.0171" x="1649.5386" y="467.2544">FROM grados g</text><text fill="#000000" font-family="sans-serif" font-size="13" lengthAdjust="spacing" textLength="313.9424" x="1649.5386" y="482.3872">JOIN asignatura_grado ag ON g.id = ag.grado_id</text><text fill="#000000" font-family="sans-serif" font-size="13" lengthAdjust="spacing" textLength="274.168" x="1649.5386" y="497.52">LEFT JOIN alumnos a ON a.grado_id = g.id</text><text fill="#000000" font-family="sans-serif" font-size="13" lengthAdjust="spacing" textLength="554.2837" x="1649.5386" y="512.6528">LEFT JOIN alumnos_asignaturas aa ON a.id = aa.alumno_id AND aa.asignatura_id = ?</text><text fill="#000000" font-family="sans-serif" font-size="13" lengthAdjust="spacing" textLength="186.4497" x="1649.5386" y="527.7856">WHERE ag.asignatura_id = ?</text><text fill="#000000" font-family="sans-serif" font-size="13" lengthAdjust="spacing" textLength="96.0654" x="1649.5386" y="542.9185">GROUP BY g.id</text></g><g class="message" data-entity-1="part9" data-entity-2="part5" id="msg10"><polygon fill="#181818" points="1648.5386,573.1172,1638.5386,577.1172,1648.5386,581.1172,1644.5386,577.1172" style="stroke:#181818;stroke-width:1;"/><line style="stroke:#181818;stroke-width:1;stroke-dasharray:2,2;" x1="1642.5386" x2="2515.7202" y1="577.1172" y2="577.1172"/><text fill="#000000" font-family="sans-serif" font-size="13" lengthAdjust="spacing" textLength="193.9272" x="1654.5386" y="572.0513">List&lt;GradoConAlumnosDTO&gt;</text></g><g class="message" data-entity-1="part4" data-entity-2="part4" id="msg11"><line style="stroke:#181818;stroke-width:1;" x1="1092.1631" x2="1134.1631" y1="606.25" y2="606.25"/><line style="stroke:#181818;stroke-width:1;" x1="1134.1631" x2="1134.1631" y1="606.25" y2="619.25"/><line style="stroke:#181818;stroke-width:1;" x1="1093.1631" x2="1134.1631" y1="619.25" y2="619.25"/><polygon fill="#181818" points="1103.1631,615.25,1093.1631,619.25,1103.1631,623.25,1099.1631,619.25" style="stroke:#181818;stroke-width:1;"/><text fill="#000000" font-family="sans-serif" font-size="13" lengthAdjust="spacing" textLength="382.9097" x="1099.1631" y="601.1841">validarLimitesPorGrado(configGrados, gradosConAlumnos)</text></g><g class="message" data-entity-1="part4" data-entity-2="part6" id="msg12"><polygon fill="#181818" points="1765.9346,644.3828,1775.9346,648.3828,1765.9346,652.3828,1769.9346,648.3828" style="stroke:#181818;stroke-width:1;"/><line style="stroke:#181818;stroke-width:1;" x1="1092.1631" x2="1771.9346" y1="648.3828" y2="648.3828"/><text fill="#000000" font-family="sans-serif" font-size="13" lengthAdjust="spacing" textLength="399.8833" x="1099.1631" y="643.3169">obtenerPreguntasPorAsignaturaYTemas(asignaturaId, temas)</text></g><g class="message" data-entity-1="part6" data-entity-2="part9" id="msg13"><polygon fill="#181818" points="2504.7202,718.9141,2514.7202,722.9141,2504.7202,726.9141,2508.7202,722.9141" style="stroke:#181818;stroke-width:1;"/><line style="stroke:#181818;stroke-width:1;" x1="1787.9346" x2="2510.7202" y1="722.9141" y2="722.9141"/><text fill="#000000" font-family="sans-serif" font-size="13" lengthAdjust="spacing" textLength="196.7266" x="1794.9346" y="672.4497">SELECT p.* FROM preguntas p</text><text fill="#000000" font-family="sans-serif" font-size="13" lengthAdjust="spacing" textLength="291.6304" x="1794.9346" y="687.5825">JOIN asignaturas a ON p.asignatura_id = a.id</text><text fill="#000000" font-family="sans-serif" font-size="13" lengthAdjust="spacing" textLength="300.3521" x="1794.9346" y="702.7153">WHERE p.asignatura_id = ? AND p.tema IN (?)</text><text fill="#000000" font-family="sans-serif" font-size="13" lengthAdjust="spacing" textLength="144.3965" x="1794.9346" y="717.8481">ORDER BY p.dificultad</text></g><g class="message" data-entity-1="part9" data-entity-2="part6" id="msg14"><polygon fill="#181818" points="1798.9346,748.0469,1788.9346,752.0469,1798.9346,756.0469,1794.9346,752.0469" style="stroke:#181818;stroke-width:1;"/><line style="stroke:#181818;stroke-width:1;stroke-dasharray:2,2;" x1="1792.9346" x2="2515.7202" y1="752.0469" y2="752.0469"/><text fill="#000000" font-family="sans-serif" font-size="13" lengthAdjust="spacing" textLength="103.4858" x="1804.9346" y="746.981">List&lt;Pregunta&gt;</text></g><g class="message" data-entity-1="part6" data-entity-2="part6" id="msg15"><line style="stroke:#181818;stroke-width:1;" x1="1787.9346" x2="1834.9346" y1="776.1797" y2="776.1797"/><line style="stroke:#181818;stroke-width:1;" x1="1834.9346" x2="1834.9346" y1="776.1797" y2="789.1797"/><line style="stroke:#181818;stroke-width:1;" x1="1793.9346" x2="1834.9346" y1="789.1797" y2="789.1797"/><polygon fill="#181818" points="1803.9346,785.1797,1793.9346,789.1797,1803.9346,793.1797,1799.9346,789.1797" style="stroke:#181818;stroke-width:1;"/><text fill="#000000" font-family="sans-serif" font-size="13" lengthAdjust="spacing" textLength="217.3247" x="1799.9346" y="771.1138">clasificarPorDificultad(preguntas)</text></g><g class="message" data-entity-1="part6" data-entity-2="part4" id="msg16"><polygon fill="#181818" points="1103.1631,819.3125,1093.1631,823.3125,1103.1631,827.3125,1099.1631,823.3125" style="stroke:#181818;stroke-width:1;"/><line style="stroke:#181818;stroke-width:1;stroke-dasharray:2,2;" x1="1097.1631" x2="1781.9346" y1="823.3125" y2="823.3125"/><text fill="#000000" font-family="sans-serif" font-size="13" lengthAdjust="spacing" textLength="211.2056" x="1109.1631" y="818.2466">List&lt;PreguntaDTO&gt; clasificadas</text></g><path d="M595.1694,838.3125 L659.6123,838.3125 L659.6123,845.4453 L649.6123,855.4453 L595.1694,855.4453 L595.1694,838.3125" fill="#EEEEEE" style="stroke:#000000;stroke-width:1.5;"/><rect fill="none" height="46.2656" style="stroke:#000000;stroke-width:1.5;" width="563.2813" x="595.1694" y="838.3125"/><text fill="#000000" font-family="sans-serif" font-size="13" font-weight="bold" lengthAdjust="spacing" textLength="19.4429" x="610.1694" y="851.3794">alt</text><text fill="#000000" font-family="sans-serif" font-size="11" font-weight="bold" lengthAdjust="spacing" textLength="156.981" x="674.6123" y="850.5229">[Preguntas insuficientes]</text><g class="message" data-entity-1="part4" data-entity-2="part3" id="msg17"><polygon fill="#181818" points="699.1265,872.5781,689.1265,876.5781,699.1265,880.5781,695.1265,876.5781" style="stroke:#181818;stroke-width:1;"/><line style="stroke:#181818;stroke-width:1;stroke-dasharray:2,2;" x1="693.1265" x2="1081.1631" y1="876.5781" y2="876.5781"/><text fill="#000000" font-family="sans-serif" font-size="13" lengthAdjust="spacing" textLength="336.832" x="705.1265" y="871.5122">throw BusinessException("Preguntas insuficientes")</text></g><g class="message" data-entity-1="part4" data-entity-2="part4" id="msg18"><line style="stroke:#181818;stroke-width:1;" x1="1092.1631" x2="1134.1631" y1="927.8438" y2="927.8438"/><line style="stroke:#181818;stroke-width:1;" x1="1134.1631" x2="1134.1631" y1="927.8438" y2="940.8438"/><line style="stroke:#181818;stroke-width:1;" x1="1093.1631" x2="1134.1631" y1="940.8438" y2="940.8438"/><polygon fill="#181818" points="1103.1631,936.8438,1093.1631,940.8438,1103.1631,944.8438,1099.1631,940.8438" style="stroke:#181818;stroke-width:1;"/><text fill="#000000" font-family="sans-serif" font-size="13" lengthAdjust="spacing" textLength="152.877" x="1099.1631" y="907.645">para cada configGrado:</text><text fill="#000000" font-family="sans-serif" font-size="13" lengthAdjust="spacing" textLength="350.7461" x="1107.4277" y="922.7778">generarPlantillas(configGrado, preguntasClasificadas)</text></g><path d="M1015.8755,955.8438 L1092.4995,955.8438 L1092.4995,962.9766 L1082.4995,972.9766 L1015.8755,972.9766 L1015.8755,955.8438" fill="#EEEEEE" style="stroke:#000000;stroke-width:1.5;"/><rect fill="none" height="185.6641" style="stroke:#000000;stroke-width:1.5;" width="621.6631" x="1015.8755" y="955.8438"/><text fill="#000000" font-family="sans-serif" font-size="13" font-weight="bold" lengthAdjust="spacing" textLength="31.624" x="1030.8755" y="968.9106">loop</text><text fill="#000000" font-family="sans-serif" font-size="11" font-weight="bold" lengthAdjust="spacing" textLength="152.4209" x="1107.4995" y="968.0542">[PARA CADA PLANTILLA]</text><g class="message" data-entity-1="part4" data-entity-2="part4" id="msg19"><line style="stroke:#181818;stroke-width:1;" x1="1092.1631" x2="1134.1631" y1="994.1094" y2="994.1094"/><line style="stroke:#181818;stroke-width:1;" x1="1134.1631" x2="1134.1631" y1="994.1094" y2="1007.1094"/><line style="stroke:#181818;stroke-width:1;" x1="1093.1631" x2="1134.1631" y1="1007.1094" y2="1007.1094"/><polygon fill="#181818" points="1103.1631,1003.1094,1093.1631,1007.1094,1103.1631,1011.1094,1099.1631,1007.1094" style="stroke:#181818;stroke-width:1;"/><text fill="#000000" font-family="sans-serif" font-size="13" lengthAdjust="spacing" textLength="385.0171" x="1099.1631" y="989.0435">seleccionarPreguntas(numPreguntas, proporcionDificultad)</text></g><g class="message" data-entity-1="part4" data-entity-2="part4" id="msg20"><line style="stroke:#181818;stroke-width:1;" x1="1092.1631" x2="1134.1631" y1="1036.2422" y2="1036.2422"/><line style="stroke:#181818;stroke-width:1;" x1="1134.1631" x2="1134.1631" y1="1036.2422" y2="1049.2422"/><line style="stroke:#181818;stroke-width:1;" x1="1093.1631" x2="1134.1631" y1="1049.2422" y2="1049.2422"/><polygon fill="#181818" points="1103.1631,1045.2422,1093.1631,1049.2422,1103.1631,1053.2422,1099.1631,1049.2422" style="stroke:#181818;stroke-width:1;"/><text fill="#000000" font-family="sans-serif" font-size="13" lengthAdjust="spacing" textLength="186.0562" x="1099.1631" y="1031.1763">aleatorizarOrden(preguntas)</text></g><g class="message" data-entity-1="part4" data-entity-2="part4" id="msg21"><line style="stroke:#181818;stroke-width:1;" x1="1092.1631" x2="1134.1631" y1="1078.375" y2="1078.375"/><line style="stroke:#181818;stroke-width:1;" x1="1134.1631" x2="1134.1631" y1="1078.375" y2="1091.375"/><line style="stroke:#181818;stroke-width:1;" x1="1093.1631" x2="1134.1631" y1="1091.375" y2="1091.375"/><polygon fill="#181818" points="1103.1631,1087.375,1093.1631,1091.375,1103.1631,1095.375,1099.1631,1091.375" style="stroke:#181818;stroke-width:1;"/><text fill="#000000" font-family="sans-serif" font-size="13" lengthAdjust="spacing" textLength="274.3267" x="1099.1631" y="1073.3091">aleatorizarOpcionesRespuesta(preguntas)</text></g><g class="message" data-entity-1="part4" data-entity-2="part4" id="msg22"><line style="stroke:#181818;stroke-width:1;" x1="1092.1631" x2="1134.1631" y1="1120.5078" y2="1120.5078"/><line style="stroke:#181818;stroke-width:1;" x1="1134.1631" x2="1134.1631" y1="1120.5078" y2="1133.5078"/><line style="stroke:#181818;stroke-width:1;" x1="1093.1631" x2="1134.1631" y1="1133.5078" y2="1133.5078"/><polygon fill="#181818" points="1103.1631,1129.5078,1093.1631,1133.5078,1103.1631,1137.5078,1099.1631,1133.5078" style="stroke:#181818;stroke-width:1;"/><text fill="#000000" font-family="sans-serif" font-size="13" lengthAdjust="spacing" textLength="516.3755" x="1099.1631" y="1115.4419">crearPlantillaExamen(asignatura, evaluacion, preguntas, clavePendiente=true)</text></g><g class="message" data-entity-1="part4" data-entity-2="part7" id="msg23"><polygon fill="#181818" points="2017.2593,1165.6406,2027.2593,1169.6406,2017.2593,1173.6406,2021.2593,1169.6406" style="stroke:#181818;stroke-width:1;"/><line style="stroke:#181818;stroke-width:1;" x1="1092.1631" x2="2023.2593" y1="1169.6406" y2="1169.6406"/><text fill="#000000" font-family="sans-serif" font-size="13" lengthAdjust="spacing" textLength="196.1172" x="1099.1631" y="1164.5747">almacenarPlantillas(plantillas)</text></g><g class="message" data-entity-1="part7" data-entity-2="part8" id="msg24"><polygon fill="#181818" points="2339.1528,1194.7734,2349.1528,1198.7734,2339.1528,1202.7734,2343.1528,1198.7734" style="stroke:#181818;stroke-width:1;"/><line style="stroke:#181818;stroke-width:1;" x1="2039.2593" x2="2345.1528" y1="1198.7734" y2="1198.7734"/><text fill="#000000" font-family="sans-serif" font-size="13" lengthAdjust="spacing" textLength="292.8936" x="2046.2593" y="1193.7075">setAttribute("plantillasExamenes", plantillas)</text></g><g class="message" data-entity-1="part8" data-entity-2="part7" id="msg25"><polygon fill="#181818" points="2050.2593,1223.9063,2040.2593,1227.9063,2050.2593,1231.9063,2046.2593,1227.9063" style="stroke:#181818;stroke-width:1;"/><line style="stroke:#181818;stroke-width:1;stroke-dasharray:2,2;" x1="2044.2593" x2="2355.1528" y1="1227.9063" y2="1227.9063"/><text fill="#000000" font-family="sans-serif" font-size="13" lengthAdjust="spacing" textLength="27.5107" x="2056.2593" y="1222.8403">void</text></g><g class="message" data-entity-1="part7" data-entity-2="part4" id="msg26"><polygon fill="#181818" points="1103.1631,1253.0391,1093.1631,1257.0391,1103.1631,1261.0391,1099.1631,1257.0391" style="stroke:#181818;stroke-width:1;"/><line style="stroke:#181818;stroke-width:1;stroke-dasharray:2,2;" x1="1097.1631" x2="2033.2593" y1="1257.0391" y2="1257.0391"/><text fill="#000000" font-family="sans-serif" font-size="13" lengthAdjust="spacing" textLength="27.5107" x="1109.1631" y="1251.9731">void</text></g><g class="message" data-entity-1="part4" data-entity-2="part3" id="msg27"><polygon fill="#181818" points="699.1265,1282.1719,689.1265,1286.1719,699.1265,1290.1719,695.1265,1286.1719" style="stroke:#181818;stroke-width:1;"/><line style="stroke:#181818;stroke-width:1;stroke-dasharray:2,2;" x1="693.1265" x2="1086.1631" y1="1286.1719" y2="1286.1719"/><text fill="#000000" font-family="sans-serif" font-size="13" lengthAdjust="spacing" textLength="370.0366" x="705.1265" y="1281.106">GenerarExamenesResponse(plantillaIds, totalExamenes)</text></g><g class="message" data-entity-1="part3" data-entity-2="part2" id="msg28"><polygon fill="#181818" points="383.4429,1311.3047,373.4429,1315.3047,383.4429,1319.3047,379.4429,1315.3047" style="stroke:#181818;stroke-width:1;"/><line style="stroke:#181818;stroke-width:1;stroke-dasharray:2,2;" x1="377.4429" x2="682.1265" y1="1315.3047" y2="1315.3047"/><text fill="#000000" font-family="sans-serif" font-size="13" lengthAdjust="spacing" textLength="281.6836" x="389.4429" y="1310.2388">200 OK (GenerarExamenesResponse JSON)</text></g><g class="message" data-entity-1="part2" data-entity-2="part2" id="msg29"><line style="stroke:#181818;stroke-width:1;" x1="372.4429" x2="414.4429" y1="1359.5703" y2="1359.5703"/><line style="stroke:#181818;stroke-width:1;" x1="414.4429" x2="414.4429" y1="1359.5703" y2="1372.5703"/><line style="stroke:#181818;stroke-width:1;" x1="373.4429" x2="414.4429" y1="1372.5703" y2="1372.5703"/><polygon fill="#181818" points="383.4429,1368.5703,373.4429,1372.5703,383.4429,1376.5703,379.4429,1372.5703" style="stroke:#181818;stroke-width:1;"/><text fill="#000000" font-family="sans-serif" font-size="13" lengthAdjust="spacing" textLength="197.1328" x="379.4429" y="1339.3716">Redirigir a asignarExamenes()</text><text fill="#000000" font-family="sans-serif" font-size="13" lengthAdjust="spacing" textLength="98.2998" x="379.4429" y="1354.5044">con plantillaIds</text></g><path d="M1092,1385.5703 L1092,1470.5703 L1577,1470.5703 L1577,1395.5703 L1567,1385.5703 L1092,1385.5703" fill="#FEFFDD" style="stroke:#181818;stroke-width:0.5;"/><path d="M1567,1385.5703 L1567,1395.5703 L1577,1395.5703 L1567,1385.5703" fill="#FEFFDD" style="stroke:#181818;stroke-width:0.5;"/><text fill="#000000" font-family="sans-serif" font-size="13" font-weight="bold" lengthAdjust="spacing" textLength="159.0786" x="1098" y="1402.6372">Arquitectura ef&#237;mera:</text><text fill="#000000" font-family="sans-serif" font-size="13" lengthAdjust="spacing" textLength="464.2549" x="1098" y="1417.77">- ExamenService orquesta pero NO accede a repositorios directamente</text><text fill="#000000" font-family="sans-serif" font-size="13" lengthAdjust="spacing" textLength="339.9614" x="1098" y="1432.9028">- Colabora con AsignaturaService y PreguntaService</text><text fill="#000000" font-family="sans-serif" font-size="13" lengthAdjust="spacing" textLength="280.4585" x="1098" y="1448.0356">- ExamenSessionService gestiona la sesi&#243;n</text><text fill="#000000" font-family="sans-serif" font-size="13" lengthAdjust="spacing" textLength="286.5459" x="1098" y="1463.1685">- Los ex&#225;menes solo existen en HttpSession</text><path d="M10,1483.2344 L74.4429,1483.2344 L74.4429,1490.3672 L64.4429,1500.3672 L10,1500.3672 L10,1483.2344" fill="#EEEEEE" style="stroke:#000000;stroke-width:1.5;"/><rect fill="none" height="236.6719" style="stroke:#000000;stroke-width:1.5;" width="761.0835" x="10" y="1483.2344"/><text fill="#000000" font-family="sans-serif" font-size="13" font-weight="bold" lengthAdjust="spacing" textLength="19.4429" x="25" y="1496.3013">alt</text><text fill="#000000" font-family="sans-serif" font-size="11" font-weight="bold" lengthAdjust="spacing" textLength="105.8374" x="89.4429" y="1495.4448">[Datos Inv&#225;lidos]</text><g class="message" data-entity-1="part3" data-entity-2="part2" id="msg30"><polygon fill="#181818" points="383.4429,1517.5,373.4429,1521.5,383.4429,1525.5,379.4429,1521.5" style="stroke:#181818;stroke-width:1;"/><line style="stroke:#181818;stroke-width:1;stroke-dasharray:2,2;" x1="377.4429" x2="682.1265" y1="1521.5" y2="1521.5"/><text fill="#000000" font-family="sans-serif" font-size="13" lengthAdjust="spacing" textLength="232.7749" x="389.4429" y="1516.4341">400 Bad Request (validation errors)</text></g><g class="message" data-entity-1="part2" data-entity-2="part1" id="msg31"><polygon fill="#181818" points="63.3159,1546.6328,53.3159,1550.6328,63.3159,1554.6328,59.3159,1550.6328" style="stroke:#181818;stroke-width:1;"/><line style="stroke:#181818;stroke-width:1;stroke-dasharray:2,2;" x1="57.3159" x2="361.4429" y1="1550.6328" y2="1550.6328"/><text fill="#000000" font-family="sans-serif" font-size="13" lengthAdjust="spacing" textLength="191.1533" x="69.3159" y="1545.5669">Mostrar errores de validaci&#243;n</text></g><line style="stroke:#000000;stroke-width:1;stroke-dasharray:2,2;" x1="10" x2="771.0835" y1="1559.6328" y2="1559.6328"/><text fill="#000000" font-family="sans-serif" font-size="11" font-weight="bold" lengthAdjust="spacing" textLength="138.5903" x="15" y="1569.8433">[Asignatura no existe]</text><g class="message" data-entity-1="part3" data-entity-2="part2" id="msg32"><polygon fill="#181818" points="383.4429,1590.5703,373.4429,1594.5703,383.4429,1598.5703,379.4429,1594.5703" style="stroke:#181818;stroke-width:1;"/><line style="stroke:#181818;stroke-width:1;stroke-dasharray:2,2;" x1="377.4429" x2="682.1265" y1="1594.5703" y2="1594.5703"/><text fill="#000000" font-family="sans-serif" font-size="13" lengthAdjust="spacing" textLength="96.0146" x="389.4429" y="1589.5044">404 Not Found</text></g><g class="message" data-entity-1="part2" data-entity-2="part1" id="msg33"><polygon fill="#181818" points="63.3159,1619.7031,53.3159,1623.7031,63.3159,1627.7031,59.3159,1623.7031" style="stroke:#181818;stroke-width:1;"/><line style="stroke:#181818;stroke-width:1;stroke-dasharray:2,2;" x1="57.3159" x2="361.4429" y1="1623.7031" y2="1623.7031"/><text fill="#000000" font-family="sans-serif" font-size="13" lengthAdjust="spacing" textLength="270.9497" x="69.3159" y="1618.6372">Mostrar error "Asignatura no encontrada"</text></g><line style="stroke:#000000;stroke-width:1;stroke-dasharray:2,2;" x1="10" x2="771.0835" y1="1632.7031" y2="1632.7031"/><text fill="#000000" font-family="sans-serif" font-size="11" font-weight="bold" lengthAdjust="spacing" textLength="156.981" x="15" y="1642.9136">[Preguntas insuficientes]</text><g class="message" data-entity-1="part3" data-entity-2="part2" id="msg34"><polygon fill="#181818" points="383.4429,1663.6406,373.4429,1667.6406,383.4429,1671.6406,379.4429,1667.6406" style="stroke:#181818;stroke-width:1;"/><line style="stroke:#181818;stroke-width:1;stroke-dasharray:2,2;" x1="377.4429" x2="682.1265" y1="1667.6406" y2="1667.6406"/><text fill="#000000" font-family="sans-serif" font-size="13" lengthAdjust="spacing" textLength="78.2603" x="389.4429" y="1662.5747">409 Conflict</text></g><g class="message" data-entity-1="part2" data-entity-2="part1" id="msg35"><polygon fill="#181818" points="63.3159,1707.9063,53.3159,1711.9063,63.3159,1715.9063,59.3159,1711.9063" style="stroke:#181818;stroke-width:1;"/><line style="stroke:#181818;stroke-width:1;stroke-dasharray:2,2;" x1="57.3159" x2="361.4429" y1="1711.9063" y2="1711.9063"/><text fill="#000000" font-family="sans-serif" font-size="13" lengthAdjust="spacing" textLength="286.127" x="69.3159" y="1691.7075">Mostrar error "No hay suficientes preguntas</text><text fill="#000000" font-family="sans-serif" font-size="13" lengthAdjust="spacing" textLength="210.5518" x="69.3159" y="1706.8403">para los criterios seleccionados"</text></g><?plantuml-src bLVDRjiu4BxhAGO-oTd4BHQzhD6cy6-RhcjvRHT50GF1H68KOcLIfQXikc_J1zZJFa9UR8UaB56sadPzC2HovflXVCEPaUOwOp3bc2hS8oGCDYmkcOWvmWMyOu8fL31xUFo-f-S2mbb-n_QqcFLfVvChBb8OIwdX5rWpZ7KGq9zKq9lAc0dDUe05R6ddZgaWHwLvp7CK6dfp9MbV911QnRwLdC_QGhC7j8Od9AjabZ5bnPhNBl4DK_SyTgQhvxROgE2fG5qgz4LFLjjAAyNIKkYMoj5QjpD5mUMHJ_vIM-czrdcrxyi62MgymO91Rsp-YQWfQac4h6IXKyKsVonS1AVZ8AZY3HUN5D0XJ38U0nFGE-6pPzZYzwYPYNmmdncL9hX3M4MRBRp0dBzW5HClKWUo4s45T-1epRwMhD3mOHCj-xJzdc5YC4QblfEA_usQ3ZA4CKD5lhtMyaycBlkD1nwfpUEnG-n1AwJbnANNLKAXoE33vsrmf5H5TmXfsyjGEJVF6mZFXmCdGVLWa4xoOWZoHXlKPeTilrEOoEBBA2ltGXOXrdjNIRUjqtmxMJ7cf-CXR6QBsMGBPp1VHn-XWIxWy_lPUWOyWJVm5aRBwS7IjLiAfcEuw3v3b1i-C7lTx5q6c6bF5eIaWFE2d9NcEMVAd9iy1VfrUEl7NTyf-HSifPxBKYIpXvXPWm5T-HyUD1sSdSCa-hJSXZZWITyajYZtr-Y2knCs3gcDEAGxyI6wMdfXkROxW2b4IyAoeS1qO5SfC3kncCstu9GS8g0HnLg458nUX-Ir7tsir9m573WPes-eC0kDJuwGdN2CaJiTU-_MqQSLZBzOuyzmjo1ENjk4eyIhCcwwZIw3X3sJNdvIrr3tcF44rOBlkMR5IYeB6yPItFBKvVHv5Ud6Lh-5TLG5w-jnM3UeZJTVjcoFn_T3cpNlRXmNrgFtetJ91zNDo0yM8Jz9YehZ_2JkQ8bsj9pkkbkL3uo7G83XMwfjqNewMnkUya72RtbSPXfhlax2OTawh5vsdUL49Sx83m96HR6RrYR2-e3_9rO-tIrVJCeqfX8i_FmvXdrcovQDcctWeYW9a9iwLDXIuRlYLtDN8yPbmQao5tMD27jFWFNwjdnq9ZArKGHp2l1oTxWJSEW0gumwBC_ek7vsdpT9C_4YGHcUIPd3QhGUmMGq7S5gCLfkhnQBKVj4dWS5orWScwBQf7v8PQj-CRPaBfMHQKZjFmc86QCcRrgdYbJ2X4__p-Zanf1fp4LkMXx-Z7wic1SgrpMzoteEZ2f6YGRP2zsvIQDxjY9sB5Dlj2fP5rd-v6EStIErgnOtUVtOwikjaQdzwY4R4lH8QyLlIit2NWDswFyzyleP2mVewjQqtRsNL9MzUt2aqtdXdj0vhSb7L-Dak2foAGhMXESgeQXhgJ4xoFJRTYe3_bXK3OI_ldm9qUyGFc73JN0-c3UQLKEYWLcpX2kUSaMLrML8CsLHaQHB1hwtGI0aOP76dGPvMtjuTZPINqlgFh6TETZjup_c2sDuTXPSG6kY1wdix8Pc4f6mZ03ZcD4iZA1OBWjk4f-QERb5O4PHCyAOo0nlfBA5eMDg-NPIpngpBLvJCcrkDsH8QLRmnty5YIx88Ai_a0gP7MOcOMPkRvutjm5C25ozTFFxbRX__4uTMBf2sK7MAo9hZ0aSnklGTMpZ2J2bfAeki-65LAhPVmWVwSF03FjMXZoZC3dDs3hEie9rZdfF-_7AJ7DWnxaVM_I_iYouoGVQJh3dR3_NBphD_sQMR-bRHl-CzQM4E_m67d9JhNR2DekCuXyhIZoRD4tr9Z9whdHvLs0--my0?></g></svg>