<svg xmlns="http://www.w3.org/2000/svg" xmlns:xlink="http://www.w3.org/1999/xlink" contentStyleType="text/css" data-diagram-type="DESCRIPTION" height="523px" preserveAspectRatio="none" style="width:886px;height:523px;background:#FFFFFF;" version="1.1" viewBox="0 0 886 523" width="886px" zoomAndPan="magnify"><defs/><g><!--cluster crearGrado--><g class="cluster" data-entity="crearGrado" data-source-line="6" data-uid="ent0004" id="cluster_crearGrado"><path d="M8.5,106 L110.8291,106 A3.75,3.75 0 0 1 113.3291,108.5 L120.3291,128.2969 L639.5,128.2969 A2.5,2.5 0 0 1 642,130.7969 L642,513.5 A2.5,2.5 0 0 1 639.5,516 L8.5,516 A2.5,2.5 0 0 1 6,513.5 L6,108.5 A2.5,2.5 0 0 1 8.5,106" fill="none" style="stroke:#000000;stroke-width:1.5;"/><line style="stroke:#000000;stroke-width:1.5;" x1="6" x2="120.3291" y1="128.2969" y2="128.2969"/><text fill="#000000" font-family="sans-serif" font-size="14" font-weight="bold" lengthAdjust="spacing" textLength="101.3291" x="10" y="120.9951">crearGrado()</text></g><!--entity CrearGradoView--><g class="entity" data-entity="CrearGradoView" data-source-line="7" data-uid="ent0005" id="entity_CrearGradoView"><rect fill="#629EF9" height="36.2969" rx="2.5" ry="2.5" style="stroke:#181818;stroke-width:0.5;" width="134.6455" x="331.5" y="141"/><text fill="#000000" font-family="sans-serif" font-size="14" lengthAdjust="spacing" textLength="114.6455" x="341.5" y="163.9951">CrearGradoView</text></g><!--entity GradosController--><g class="entity" data-entity="GradosController" data-source-line="8" data-uid="ent0006" id="entity_GradosController"><rect fill="#B5BD68" height="36.2969" rx="2.5" ry="2.5" style="stroke:#181818;stroke-width:0.5;" width="139.1025" x="124.5" y="254"/><text fill="#000000" font-family="sans-serif" font-size="14" lengthAdjust="spacing" textLength="119.1025" x="134.5" y="276.9951">GradosController</text></g><!--entity GradoRepository--><g class="entity" data-entity="GradoRepository" data-source-line="9" data-uid="ent0007" id="entity_GradoRepository"><rect fill="#F2AC4E" height="36.2969" rx="2.5" ry="2.5" style="stroke:#181818;stroke-width:0.5;" width="137.708" x="133" y="367"/><text fill="#000000" font-family="sans-serif" font-size="14" lengthAdjust="spacing" textLength="117.708" x="143" y="389.9951">GradoRepository</text></g><!--entity Grado--><g class="entity" data-entity="Grado" data-source-line="10" data-uid="ent0008" id="entity_Grado"><rect fill="#F2AC4E" height="36.2969" rx="2.5" ry="2.5" style="stroke:#181818;stroke-width:0.5;" width="62.6357" x="170.5" y="464"/><text fill="#000000" font-family="sans-serif" font-size="14" lengthAdjust="spacing" textLength="42.6357" x="180.5" y="486.9951">Grado</text></g><!--entity GradosAbierto--><g class="entity" data-entity="GradosAbierto" data-source-line="3" data-uid="ent0002" id="entity_GradosAbierto"><rect fill="#CDEBA5" height="36.2969" rx="2.5" ry="2.5" style="stroke:#181818;stroke-width:0.5;" width="129.874" x="334" y="7"/><text fill="#000000" font-family="sans-serif" font-size="14" lengthAdjust="spacing" textLength="109.874" x="344" y="29.9951">:Grados Abierto</text></g><!--entity EditarGrado--><g class="entity" data-entity="EditarGrado" data-source-line="4" data-uid="ent0003" id="entity_EditarGrado"><rect fill="#CDEBA5" height="36.2969" rx="2.5" ry="2.5" style="stroke:#181818;stroke-width:0.5;" width="206.5527" x="658.5" y="254"/><text fill="#000000" font-family="sans-serif" font-size="14" lengthAdjust="spacing" textLength="186.5527" x="668.5" y="276.9951">:Collaboration EditarGrado</text></g><!--link GradosAbierto to CrearGradoView--><g class="link" data-entity-1="GradosAbierto" data-entity-2="CrearGradoView" data-source-line="13" data-uid="lnk9" id="link_GradosAbierto_CrearGradoView"><path d="M399,43.26 C399,68.55 399,109.44 399,134.74" fill="none" id="GradosAbierto-to-CrearGradoView" style="stroke:#181818;stroke-width:1;"/><polygon fill="#181818" points="399,140.74,403,131.74,399,135.74,395,131.74,399,140.74" style="stroke:#181818;stroke-width:1;"/><text fill="#000000" font-family="sans-serif" font-size="13" lengthAdjust="spacing" textLength="83.5352" x="400" y="86.0669">crearGrado()</text></g><!--link CrearGradoView to GradosController--><g class="link" data-entity-1="CrearGradoView" data-entity-2="GradosController" data-source-line="15" data-uid="lnk10" id="link_CrearGradoView_GradosController"><path d="M331.25,169.23 C230.78,182.92 54,207 54,207 C54,207 54,224 54,224 C54,224 97.342,238.5503 137.372,251.9903" fill="none" id="CrearGradoView-to-GradosController" style="stroke:#181818;stroke-width:1;"/><polygon fill="#181818" points="143.06,253.9,135.8012,247.2434,138.32,252.3086,133.2549,254.8274,143.06,253.9" style="stroke:#181818;stroke-width:1;"/><text fill="#000000" font-family="sans-serif" font-size="13" lengthAdjust="spacing" textLength="300.5806" x="55" y="220.0669">validarDatosMinimos(nombre, codigo) : Grado</text></g><!--link CrearGradoView to GradosController--><g class="link" data-entity-1="CrearGradoView" data-entity-2="GradosController" data-source-line="16" data-uid="lnk11" id="link_CrearGradoView_GradosController"><path d="M388.55,177.15 C377,196.11 360,224 360,224 C360,224 307.633,238.8252 260.173,252.2652" fill="none" id="CrearGradoView-to-GradosController-1" style="stroke:#181818;stroke-width:1;"/><polygon fill="#181818" points="254.4,253.9,264.1494,255.2964,259.2108,252.5376,261.9696,247.5991,254.4,253.9" style="stroke:#181818;stroke-width:1;"/><text fill="#000000" font-family="sans-serif" font-size="13" lengthAdjust="spacing" textLength="225.8813" x="371" y="220.0669">crearGrado(datosMinimos) : Grado</text></g><!--link GradosController to GradoRepository--><g class="link" data-entity-1="GradosController" data-entity-2="GradoRepository" data-source-line="18" data-uid="lnk12" id="link_GradosController_GradoRepository"><path d="M149.25,290.1 C114.08,303.54 71,320 71,320 C71,320 71,337 71,337 C71,337 111.2325,351.4338 148.6925,364.8738" fill="none" id="GradosController-to-GradoRepository" style="stroke:#181818;stroke-width:1;"/><polygon fill="#181818" points="154.34,366.9,147.2196,360.0956,149.6337,365.2115,144.5179,367.6257,154.34,366.9" style="stroke:#181818;stroke-width:1;"/><text fill="#000000" font-family="sans-serif" font-size="13" lengthAdjust="spacing" textLength="198.0659" x="72" y="333.0669">crear(nombre, codigo) : Grado</text></g><!--link GradosController to GradoRepository--><g class="link" data-entity-1="GradosController" data-entity-2="GradoRepository" data-source-line="19" data-uid="lnk13" id="link_GradosController_GradoRepository"><path d="M223.7,290.23 C246.82,303.65 275,320 275,320 C275,320 275,337 275,337 C275,337 254.6438,350.1004 233.8138,363.5204" fill="none" id="GradosController-to-GradoRepository-1" style="stroke:#181818;stroke-width:1;"/><polygon fill="#181818" points="228.77,366.77,238.5021,365.2582,232.9732,364.062,234.1694,358.5331,228.77,366.77" style="stroke:#181818;stroke-width:1;"/><text fill="#000000" font-family="sans-serif" font-size="13" lengthAdjust="spacing" textLength="274.1553" x="276" y="333.0669">verificarUnicidad(nombre, codigo) : Grado</text></g><!--link GradoRepository to Grado--><g class="link" data-entity-1="GradoRepository" data-entity-2="Grado" data-source-line="21" data-uid="lnk14" id="link_GradoRepository_Grado"><path d="M202,403.42 C202,420.57 202,446.58 202,463.69" fill="none" id="GradoRepository-Grado" style="stroke:#181818;stroke-width:1;"/></g><!--link CrearGradoView to EditarGrado--><g class="link" data-entity-1="CrearGradoView" data-entity-2="EditarGrado" data-source-line="23" data-uid="lnk15" id="link_CrearGradoView_EditarGrado"><path d="M466.74,175.45 C526.78,189.15 605,207 605,207 C605,207 667.8639,232.625 714.3739,251.585" fill="none" id="CrearGradoView-to-EditarGrado" style="stroke:#181818;stroke-width:1;stroke-dasharray:7,7;"/><polygon fill="#181818" points="719.93,253.85,713.1059,246.7485,715.2999,251.9625,710.0859,254.1566,719.93,253.85" style="stroke:#181818;stroke-width:1;"/><text fill="#000000" font-family="sans-serif" font-size="13" lengthAdjust="spacing" textLength="234.5205" x="644" y="220.0669">&#171;include&#187; editarGrado(gradoNuevo)</text></g><!--SRC=[ZLB1Qi904BtlLmpfHQ5wa2erIC36s5DxABJtINOQ1jUTi5ajKlhlZPhMkDJY7XPcvhstxmrRhzXMw70DXYtvNKLGYTdj2wKS5HvjQGXkqaNsC1z353ywr5B3F6ToNYB06ewjjlCdAHLZC1U7diL2fjcZEx0E_4wjL8N52ak2mb7RsqEYKzdhH_2fe3cTboQZQRQSGlgBUcFw247vEDUJ-zPkAjQxnXQv4BOSpTExx0XxeKfgzk9s_w7Kbr9dIu3180dCnD2DeDJv50QwOOJEOjYYOOrkWLxg9xQybhfdPPqxkeL2D9VIXxWrSPrYnuNkg9vaLCWvX0csqUfSz7ATnfOSltE1xjLoqUJK5_LKm6tqVYP1xE4mwNwe66OpjeNPQ4eIeDEWL-xlvmrjfVyD]--></g></svg>