<svg xmlns="http://www.w3.org/2000/svg" xmlns:xlink="http://www.w3.org/1999/xlink" contentStyleType="text/css" data-diagram-type="DESCRIPTION" height="523px" preserveAspectRatio="none" style="width:985px;height:523px;background:#FFFFFF;" version="1.1" viewBox="0 0 985 523" width="985px" zoomAndPan="magnify"><defs/><g><!--cluster crearAlumno--><g class="cluster" data-entity="crearAlumno" data-source-line="6" data-uid="ent0004" id="cluster_crearAlumno"><path d="M8.5,106 L123.1201,106 A3.75,3.75 0 0 1 125.6201,108.5 L132.6201,128.2969 L715.5,128.2969 A2.5,2.5 0 0 1 718,130.7969 L718,513.5 A2.5,2.5 0 0 1 715.5,516 L8.5,516 A2.5,2.5 0 0 1 6,513.5 L6,108.5 A2.5,2.5 0 0 1 8.5,106" fill="none" style="stroke:#000000;stroke-width:1.5;"/><line style="stroke:#000000;stroke-width:1.5;" x1="6" x2="132.6201" y1="128.2969" y2="128.2969"/><text fill="#000000" font-family="sans-serif" font-size="14" font-weight="bold" lengthAdjust="spacing" textLength="113.6201" x="10" y="120.9951">crearAlumno()</text></g><!--entity CrearAlumnoView--><g class="entity" data-entity="CrearAlumnoView" data-source-line="7" data-uid="ent0005" id="entity_CrearAlumnoView"><rect fill="#629EF9" height="36.2969" rx="2.5" ry="2.5" style="stroke:#181818;stroke-width:0.5;" width="145.4258" x="382.5" y="141"/><text fill="#000000" font-family="sans-serif" font-size="14" lengthAdjust="spacing" textLength="125.4258" x="392.5" y="163.9951">CrearAlumnoView</text></g><!--entity AlumnosController--><g class="entity" data-entity="AlumnosController" data-source-line="8" data-uid="ent0006" id="entity_AlumnosController"><rect fill="#B5BD68" height="36.2969" rx="2.5" ry="2.5" style="stroke:#181818;stroke-width:0.5;" width="149.8828" x="148" y="254"/><text fill="#000000" font-family="sans-serif" font-size="14" lengthAdjust="spacing" textLength="129.8828" x="158" y="276.9951">AlumnosController</text></g><!--entity AlumnoRepository--><g class="entity" data-entity="AlumnoRepository" data-source-line="9" data-uid="ent0007" id="entity_AlumnoRepository"><rect fill="#F2AC4E" height="36.2969" rx="2.5" ry="2.5" style="stroke:#181818;stroke-width:0.5;" width="148.4883" x="158" y="367"/><text fill="#000000" font-family="sans-serif" font-size="14" lengthAdjust="spacing" textLength="128.4883" x="168" y="389.9951">AlumnoRepository</text></g><!--entity Alumno--><g class="entity" data-entity="Alumno" data-source-line="10" data-uid="ent0008" id="entity_Alumno"><rect fill="#F2AC4E" height="36.2969" rx="2.5" ry="2.5" style="stroke:#181818;stroke-width:0.5;" width="73.416" x="195.5" y="464"/><text fill="#000000" font-family="sans-serif" font-size="14" lengthAdjust="spacing" textLength="53.416" x="205.5" y="486.9951">Alumno</text></g><!--entity AlumnosAbierto--><g class="entity" data-entity="AlumnosAbierto" data-source-line="3" data-uid="ent0002" id="entity_AlumnosAbierto"><rect fill="#CDEBA5" height="36.2969" rx="2.5" ry="2.5" style="stroke:#181818;stroke-width:0.5;" width="140.6543" x="384.5" y="7"/><text fill="#000000" font-family="sans-serif" font-size="14" lengthAdjust="spacing" textLength="120.6543" x="394.5" y="29.9951">:Alumnos Abierto</text></g><!--entity EditarAlumno--><g class="entity" data-entity="EditarAlumno" data-source-line="4" data-uid="ent0003" id="entity_EditarAlumno"><rect fill="#CDEBA5" height="36.2969" rx="2.5" ry="2.5" style="stroke:#181818;stroke-width:0.5;" width="217.333" x="734.5" y="254"/><text fill="#000000" font-family="sans-serif" font-size="14" lengthAdjust="spacing" textLength="197.333" x="744.5" y="276.9951">:Collaboration EditarAlumno</text></g><!--link AlumnosAbierto to CrearAlumnoView--><g class="link" data-entity-1="AlumnosAbierto" data-entity-2="CrearAlumnoView" data-source-line="13" data-uid="lnk9" id="link_AlumnosAbierto_CrearAlumnoView"><path d="M455,43.26 C455,68.55 455,109.44 455,134.74" fill="none" id="AlumnosAbierto-to-CrearAlumnoView" style="stroke:#181818;stroke-width:1;"/><polygon fill="#181818" points="455,140.74,459,131.74,455,135.74,451,131.74,455,140.74" style="stroke:#181818;stroke-width:1;"/><text fill="#000000" font-family="sans-serif" font-size="13" lengthAdjust="spacing" textLength="93.5454" x="456" y="86.0669">crearAlumno()</text></g><!--link CrearAlumnoView to AlumnosController--><g class="link" data-entity-1="CrearAlumnoView" data-entity-2="AlumnosController" data-source-line="15" data-uid="lnk10" id="link_CrearAlumnoView_AlumnosController"><path d="M382.38,168.51 C266.82,182.06 54,207 54,207 C54,207 54,224 54,224 C54,224 107.4094,238.8522 155.7294,252.2922" fill="none" id="CrearAlumnoView-to-AlumnosController" style="stroke:#181818;stroke-width:1;"/><polygon fill="#181818" points="161.51,253.9,153.9111,247.6345,156.6929,252.5601,151.7673,255.3419,161.51,253.9" style="stroke:#181818;stroke-width:1;"/><text fill="#000000" font-family="sans-serif" font-size="13" lengthAdjust="spacing" textLength="356.1924" x="55" y="220.0669">validarDatosMinimos(nombre, apellidos, dni) : boolean</text></g><!--link CrearAlumnoView to AlumnosController--><g class="link" data-entity-1="CrearAlumnoView" data-entity-2="AlumnosController" data-source-line="16" data-uid="lnk11" id="link_CrearAlumnoView_AlumnosController"><path d="M444.55,177.15 C433,196.11 416,224 416,224 C416,224 354.0094,239.0893 298.7794,252.5493" fill="none" id="CrearAlumnoView-to-AlumnosController-1" style="stroke:#181818;stroke-width:1;"/><polygon fill="#181818" points="292.95,253.97,302.6412,255.7253,297.8078,252.7861,300.747,247.9527,292.95,253.97" style="stroke:#181818;stroke-width:1;"/><text fill="#000000" font-family="sans-serif" font-size="13" lengthAdjust="spacing" textLength="245.9019" x="427" y="220.0669">crearAlumno(datosMinimos) : Alumno</text></g><!--link AlumnosController to AlumnoRepository--><g class="link" data-entity-1="AlumnosController" data-entity-2="AlumnoRepository" data-source-line="18" data-uid="lnk12" id="link_AlumnosController_AlumnoRepository"><path d="M168.42,290.1 C125.53,303.54 73,320 73,320 C73,320 73,337 73,337 C73,337 122.9362,351.7589 168.3962,365.1989" fill="none" id="AlumnosController-to-AlumnoRepository" style="stroke:#181818;stroke-width:1;"/><polygon fill="#181818" points="174.15,366.9,166.6533,360.5125,169.3552,365.4824,164.3852,368.1842,174.15,366.9" style="stroke:#181818;stroke-width:1;"/><text fill="#000000" font-family="sans-serif" font-size="13" lengthAdjust="spacing" textLength="251.3037" x="74" y="333.0669">crear(nombre, apellidos, dni) : Alumno</text></g><!--link AlumnosController to AlumnoRepository--><g class="link" data-entity-1="AlumnosController" data-entity-2="AlumnoRepository" data-source-line="19" data-uid="lnk13" id="link_AlumnosController_AlumnoRepository"><path d="M261.93,290.1 C292.53,303.54 330,320 330,320 C330,320 330,337 330,337 C330,337 301.0899,350.8651 273.0699,364.3051" fill="none" id="AlumnosController-to-AlumnoRepository-1" style="stroke:#181818;stroke-width:1;"/><polygon fill="#181818" points="267.66,366.9,277.5047,366.6143,272.1682,364.7376,274.0449,359.4011,267.66,366.9" style="stroke:#181818;stroke-width:1;"/><text fill="#000000" font-family="sans-serif" font-size="13" lengthAdjust="spacing" textLength="228.3252" x="331" y="333.0669">verificarUnicidadDNI(dni) : boolean</text></g><!--link AlumnoRepository to Alumno--><g class="link" data-entity-1="AlumnoRepository" data-entity-2="Alumno" data-source-line="21" data-uid="lnk14" id="link_AlumnoRepository_Alumno"><path d="M232,403.42 C232,420.57 232,446.58 232,463.69" fill="none" id="AlumnoRepository-Alumno" style="stroke:#181818;stroke-width:1;"/></g><!--link CrearAlumnoView to EditarAlumno--><g class="link" data-entity-1="CrearAlumnoView" data-entity-2="EditarAlumno" data-source-line="23" data-uid="lnk15" id="link_CrearAlumnoView_EditarAlumno"><path d="M527.75,175.13 C593.82,188.87 681,207 681,207 C681,207 746.0197,232.6853 794.0097,251.6453" fill="none" id="CrearAlumnoView-to-EditarAlumno" style="stroke:#181818;stroke-width:1;stroke-dasharray:7,7;"/><polygon fill="#181818" points="799.59,253.85,792.6894,246.8228,794.9398,252.0128,789.7498,254.2632,799.59,253.85" style="stroke:#181818;stroke-width:1;"/><text fill="#000000" font-family="sans-serif" font-size="13" lengthAdjust="spacing" textLength="255.436" x="722" y="220.0669">&#171;include&#187; editarAlumno(alumnoNuevo)</text></g><!--SRC=[ZLB1Ri8m3BtdAwpkKYJWW0OQ5QhKbIBjC0wJjhlRU2WYZQiqCA5f_xu2PIi18N99RB_tykoaNYjJeSKIj3BaTXL1nNgt3uImL3WqAqtmaCwpvsGCGPJeJMcuXYHNP1q7WCtvc6jJLsafQuqvMtIA3MHIERH7sa6Xcn2YmcADAuB2qYcv1mMTEEm5y2sWMPtR9gDfjfX2-W_xKFJbe_9nBYTF9zCf6sSRSsHzt6AKf8zPYtkZYclbsEvkmiIF4EVJWC4WzXr5SDQ945uT1h8XNHYCO8jQIRHpT5o_AgDAhaF3PMwf3rYHRgfSzq4QrOC8ScPDQEvMxvgIdIlsMgUdkQ0T-lDdr6hTyDRgtIkt9Qi-LO7stQYY6O6SBrz2hqtXqngjFz_-38R3-EpJHJ2RALFeZQGu1kfKGZniomrjkVSB]--></g></svg>