<svg xmlns="http://www.w3.org/2000/svg" xmlns:xlink="http://www.w3.org/1999/xlink" contentStyleType="text/css" data-diagram-type="DESCRIPTION" height="620px" preserveAspectRatio="none" style="width:1360px;height:620px;background:#FFFFFF;" version="1.1" viewBox="0 0 1360 620" width="1360px" zoomAndPan="magnify"><defs/><g><!--cluster editarRespuesta--><g class="cluster" data-entity="editarRespuesta" data-source-line="11" data-uid="ent0009" id="cluster_editarRespuesta"><path d="M32.5,106 L176.2207,106 A3.75,3.75 0 0 1 178.7207,108.5 L185.7207,128.2969 L818.5,128.2969 A2.5,2.5 0 0 1 821,130.7969 L821,610.5 A2.5,2.5 0 0 1 818.5,613 L32.5,613 A2.5,2.5 0 0 1 30,610.5 L30,108.5 A2.5,2.5 0 0 1 32.5,106" fill="none" style="stroke:#000000;stroke-width:1.5;"/><line style="stroke:#000000;stroke-width:1.5;" x1="30" x2="185.7207" y1="128.2969" y2="128.2969"/><text fill="#000000" font-family="sans-serif" font-size="14" font-weight="bold" lengthAdjust="spacing" textLength="142.7207" x="34" y="120.9951">editarRespuesta()</text></g><!--entity EditarRespuestaView--><g class="entity" data-entity="EditarRespuestaView" data-source-line="12" data-uid="ent0010" id="entity_EditarRespuestaView"><rect fill="#629EF9" height="36.2969" rx="2.5" ry="2.5" style="stroke:#181818;stroke-width:0.5;" width="168.3467" x="514" y="141"/><text fill="#000000" font-family="sans-serif" font-size="14" lengthAdjust="spacing" textLength="148.3467" x="524" y="163.9951">EditarRespuestaView</text></g><!--entity RespuestasController--><g class="entity" data-entity="RespuestasController" data-source-line="13" data-uid="ent0011" id="entity_RespuestasController"><rect fill="#B5BD68" height="36.2969" rx="2.5" ry="2.5" style="stroke:#181818;stroke-width:0.5;" width="169.8369" x="167" y="254"/><text fill="#000000" font-family="sans-serif" font-size="14" lengthAdjust="spacing" textLength="149.8369" x="177" y="276.9951">RespuestasController</text></g><!--entity RespuestaRepository--><g class="entity" data-entity="RespuestaRepository" data-source-line="14" data-uid="ent0012" id="entity_RespuestaRepository"><rect fill="#F2AC4E" height="36.2969" rx="2.5" ry="2.5" style="stroke:#181818;stroke-width:0.5;" width="168.4424" x="180" y="367"/><text fill="#000000" font-family="sans-serif" font-size="14" lengthAdjust="spacing" textLength="148.4424" x="190" y="389.9951">RespuestaRepository</text></g><!--entity Respuesta--><g class="entity" data-entity="Respuesta" data-source-line="15" data-uid="ent0013" id="entity_Respuesta"><rect fill="#F2AC4E" height="36.2969" rx="2.5" ry="2.5" style="stroke:#181818;stroke-width:0.5;" width="93.3701" x="217.5" y="464"/><text fill="#000000" font-family="sans-serif" font-size="14" lengthAdjust="spacing" textLength="73.3701" x="227.5" y="486.9951">Respuesta</text></g><!--entity Pregunta--><g class="entity" data-entity="Pregunta" data-source-line="16" data-uid="ent0014" id="entity_Pregunta"><rect fill="#F2AC4E" height="36.2969" rx="2.5" ry="2.5" style="stroke:#181818;stroke-width:0.5;" width="83.5127" x="222" y="561"/><text fill="#000000" font-family="sans-serif" font-size="14" lengthAdjust="spacing" textLength="63.5127" x="232" y="583.9951">Pregunta</text></g><!--entity RespuestasAbierto--><g class="entity" data-entity="RespuestasAbierto" data-source-line="3" data-uid="ent0002" id="entity_RespuestasAbierto"><rect fill="#CDEBA5" height="36.2969" rx="2.5" ry="2.5" style="stroke:#181818;stroke-width:0.5;" width="184.0693" x="7" y="7"/><text fill="#000000" font-family="sans-serif" font-size="14" lengthAdjust="spacing" textLength="164.0693" x="17" y="29.9951">:RESPUESTAS_ABIERTO</text></g><!--entity RespuestaAbierto--><g class="entity" data-entity="RespuestaAbierto" data-source-line="4" data-uid="ent0003" id="entity_RespuestaAbierto"><rect fill="#CDEBA5" height="36.2969" rx="2.5" ry="2.5" style="stroke:#181818;stroke-width:0.5;" width="175.1826" x="236.5" y="7"/><text fill="#000000" font-family="sans-serif" font-size="14" lengthAdjust="spacing" textLength="155.1826" x="246.5" y="29.9951">:RESPUESTA_ABIERTO</text></g><!--entity RespuestasContextualesAbierto--><g class="entity" data-entity="RespuestasContextualesAbierto" data-source-line="5" data-uid="ent0004" id="entity_RespuestasContextualesAbierto"><rect fill="#CDEBA5" height="36.2969" rx="2.5" ry="2.5" style="stroke:#181818;stroke-width:0.5;" width="303.2334" x="446.5" y="7"/><text fill="#000000" font-family="sans-serif" font-size="14" lengthAdjust="spacing" textLength="283.2334" x="456.5" y="29.9951">:RESPUESTAS_CONTEXTUALES_ABIERTO</text></g><!--entity RespuestaContextualAbierto--><g class="entity" data-entity="RespuestaContextualAbierto" data-source-line="6" data-uid="ent0005" id="entity_RespuestaContextualAbierto"><rect fill="#CDEBA5" height="36.2969" rx="2.5" ry="2.5" style="stroke:#181818;stroke-width:0.5;" width="276.6143" x="784.5" y="7"/><text fill="#000000" font-family="sans-serif" font-size="14" lengthAdjust="spacing" textLength="256.6143" x="794.5" y="29.9951">:RESPUESTA_CONTEXTUAL_ABIERTO</text></g><!--entity CrearRespuesta--><g class="entity" data-entity="CrearRespuesta" data-source-line="7" data-uid="ent0006" id="entity_CrearRespuesta"><rect fill="#CDEBA5" height="36.2969" rx="2.5" ry="2.5" style="stroke:#181818;stroke-width:0.5;" width="232.2422" x="1097" y="7"/><text fill="#000000" font-family="sans-serif" font-size="14" lengthAdjust="spacing" textLength="212.2422" x="1107" y="29.9951">:Collaboration crearRespuesta</text></g><!--entity VerRespuestas--><g class="entity" data-entity="VerRespuestas" data-source-line="8" data-uid="ent0007" id="entity_VerRespuestas"><rect fill="#CDEBA5" height="36.2969" rx="2.5" ry="2.5" style="stroke:#181818;stroke-width:0.5;" width="225.7891" x="837" y="254"/><text fill="#000000" font-family="sans-serif" font-size="14" lengthAdjust="spacing" textLength="205.7891" x="847" y="276.9951">:Collaboration verRespuestas</text></g><!--entity EliminarRespuesta--><g class="entity" data-entity="EliminarRespuesta" data-source-line="9" data-uid="ent0008" id="entity_EliminarRespuesta"><rect fill="#CDEBA5" height="36.2969" rx="2.5" ry="2.5" style="stroke:#181818;stroke-width:0.5;" width="252.9688" x="1098.5" y="254"/><text fill="#000000" font-family="sans-serif" font-size="14" lengthAdjust="spacing" textLength="232.9688" x="1108.5" y="276.9951">:Collaboration eliminarRespuesta</text></g><!--link RespuestasAbierto to EditarRespuestaView--><g class="link" data-entity-1="RespuestasAbierto" data-entity-2="EditarRespuestaView" data-source-line="19" data-uid="lnk15" id="link_RespuestasAbierto_EditarRespuestaView"><path d="M119.37,43.15 C141.88,62.11 175,90 175,90 C175,90 384.6361,123.6977 507.9961,143.5277" fill="none" id="RespuestasAbierto-to-EditarRespuestaView" style="stroke:#181818;stroke-width:1;"/><polygon fill="#181818" points="513.92,144.48,505.6689,139.1023,508.9834,143.6864,504.3992,147.0009,513.92,144.48" style="stroke:#181818;stroke-width:1;"/><text fill="#000000" font-family="sans-serif" font-size="13" lengthAdjust="spacing" textLength="193.0703" x="176" y="86.0669">editarRespuesta(respuestaId)</text></g><!--link RespuestaAbierto to EditarRespuestaView--><g class="link" data-entity-1="RespuestaAbierto" data-entity-2="EditarRespuestaView" data-source-line="20" data-uid="lnk16" id="link_RespuestaAbierto_EditarRespuestaView"><path d="M343.03,43.15 C364.06,62.11 395,90 395,90 C395,90 481.2106,118.8847 541.3506,139.0247" fill="none" id="RespuestaAbierto-to-EditarRespuestaView" style="stroke:#181818;stroke-width:1;"/><polygon fill="#181818" points="547.04,140.93,539.776,134.2791,542.2988,139.3422,537.2356,141.865,547.04,140.93" style="stroke:#181818;stroke-width:1;"/><text fill="#000000" font-family="sans-serif" font-size="13" lengthAdjust="spacing" textLength="193.0703" x="396" y="86.0669">editarRespuesta(respuestaId)</text></g><!--link RespuestasContextualesAbierto to EditarRespuestaView--><g class="link" data-entity-1="RespuestasContextualesAbierto" data-entity-2="EditarRespuestaView" data-source-line="21" data-uid="lnk17" id="link_RespuestasContextualesAbierto_EditarRespuestaView"><path d="M598,43.26 C598,68.55 598,109.44 598,134.74" fill="none" id="RespuestasContextualesAbierto-to-EditarRespuestaView" style="stroke:#181818;stroke-width:1;"/><polygon fill="#181818" points="598,140.74,602,131.74,598,135.74,594,131.74,598,140.74" style="stroke:#181818;stroke-width:1;"/><text fill="#000000" font-family="sans-serif" font-size="13" lengthAdjust="spacing" textLength="193.0703" x="599" y="86.0669">editarRespuesta(respuestaId)</text></g><!--link RespuestaContextualAbierto to EditarRespuestaView--><g class="link" data-entity-1="RespuestaContextualAbierto" data-entity-2="EditarRespuestaView" data-source-line="22" data-uid="lnk18" id="link_RespuestaContextualAbierto_EditarRespuestaView"><path d="M890.31,43.15 C854.17,62.11 801,90 801,90 C801,90 714.7894,118.8847 654.6494,139.0247" fill="none" id="RespuestaContextualAbierto-to-EditarRespuestaView" style="stroke:#181818;stroke-width:1;"/><polygon fill="#181818" points="648.96,140.93,658.7644,141.865,653.7012,139.3422,656.224,134.2791,648.96,140.93" style="stroke:#181818;stroke-width:1;"/><text fill="#000000" font-family="sans-serif" font-size="13" lengthAdjust="spacing" textLength="193.0703" x="832" y="86.0669">editarRespuesta(respuestaId)</text></g><!--link CrearRespuesta to EditarRespuestaView--><g class="link" data-entity-1="CrearRespuesta" data-entity-2="EditarRespuestaView" data-source-line="23" data-uid="lnk19" id="link_CrearRespuesta_EditarRespuestaView"><path d="M1165.03,43.15 C1112.01,62.11 1034,90 1034,90 C1034,90 814.6883,124.2054 687.9983,143.9654" fill="none" id="CrearRespuesta-to-EditarRespuestaView" style="stroke:#181818;stroke-width:1;"/><polygon fill="#181818" points="682.07,144.89,691.5789,147.4552,687.0103,144.1195,690.3461,139.5508,682.07,144.89" style="stroke:#181818;stroke-width:1;"/><text fill="#000000" font-family="sans-serif" font-size="13" lengthAdjust="spacing" textLength="222.606" x="1078" y="86.0669">editarRespuesta(respuestaNueva)</text></g><!--link EditarRespuestaView to RespuestasController--><g class="link" data-entity-1="EditarRespuestaView" data-entity-2="RespuestasController" data-source-line="25" data-uid="lnk20" id="link_EditarRespuestaView_RespuestasController"><path d="M513.88,167.6 C366.7,180.91 78,207 78,207 C78,207 78,224 78,224 C78,224 133.1476,238.8952 182.8976,252.3352" fill="none" id="EditarRespuestaView-to-RespuestasController" style="stroke:#181818;stroke-width:1;"/><polygon fill="#181818" points="188.69,253.9,181.0447,247.6912,183.863,252.596,178.9583,255.4144,188.69,253.9" style="stroke:#181818;stroke-width:1;"/><text fill="#000000" font-family="sans-serif" font-size="13" lengthAdjust="spacing" textLength="353.7422" x="79" y="220.0669">cargarRespuestaParaEdicion(respuestaId) : Respuesta</text></g><!--link EditarRespuestaView to RespuestasController--><g class="link" data-entity-1="EditarRespuestaView" data-entity-2="RespuestasController" data-source-line="32" data-uid="lnk24" id="link_EditarRespuestaView_RespuestasController"><path d="M554.85,177.15 C507.16,196.11 437,224 437,224 C437,224 377.805,239.0315 324.865,252.4915" fill="none" id="EditarRespuestaView-to-RespuestasController-1" style="stroke:#181818;stroke-width:1;"/><polygon fill="#181818" points="319.05,253.97,328.7581,255.629,323.8958,252.7379,326.7868,247.8756,319.05,253.97" style="stroke:#181818;stroke-width:1;"/><text fill="#000000" font-family="sans-serif" font-size="13" lengthAdjust="spacing" textLength="327.7358" x="477" y="220.0669">modificarCampos(respuestaId, cambios) : boolean</text></g><!--link RespuestasController to RespuestaRepository--><g class="link" data-entity-1="RespuestasController" data-entity-2="RespuestaRepository" data-source-line="27" data-uid="lnk21" id="link_RespuestasController_RespuestaRepository"><path d="M197.42,290.1 C154.53,303.54 102,320 102,320 C102,320 102,337 102,337 C102,337 152.9777,351.788 199.2977,365.228" fill="none" id="RespuestasController-to-RespuestaRepository" style="stroke:#181818;stroke-width:1;"/><polygon fill="#181818" points="205.06,366.9,197.5311,360.5505,200.2581,365.5067,195.3018,368.2336,205.06,366.9" style="stroke:#181818;stroke-width:1;"/><text fill="#000000" font-family="sans-serif" font-size="13" lengthAdjust="spacing" textLength="251.5513" x="103" y="333.0669">obtenerPorId(respuestaId) : Respuesta</text></g><!--link RespuestasController to RespuestaRepository--><g class="link" data-entity-1="RespuestasController" data-entity-2="RespuestaRepository" data-source-line="34" data-uid="lnk25" id="link_RespuestasController_RespuestaRepository"><path d="M290.93,290.1 C321.53,303.54 359,320 359,320 C359,320 359,337 359,337 C359,337 331.1076,350.7989 303.9476,364.2389" fill="none" id="RespuestasController-to-RespuestaRepository-1" style="stroke:#181818;stroke-width:1;"/><polygon fill="#181818" points="298.57,366.9,308.4105,366.4934,303.0513,364.6824,304.8624,359.3233,298.57,366.9" style="stroke:#181818;stroke-width:1;"/><text fill="#000000" font-family="sans-serif" font-size="13" lengthAdjust="spacing" textLength="202.979" x="360" y="333.0669">actualizar(respuesta) : boolean</text></g><!--link RespuestaRepository to Respuesta--><g class="link" data-entity-1="RespuestaRepository" data-entity-2="Respuesta" data-source-line="29" data-uid="lnk22" id="link_RespuestaRepository_Respuesta"><path d="M264,403.42 C264,420.57 264,446.58 264,463.69" fill="none" id="RespuestaRepository-Respuesta" style="stroke:#181818;stroke-width:1;"/></g><!--link Respuesta to Pregunta--><g class="link" data-entity-1="Respuesta" data-entity-2="Pregunta" data-source-line="30" data-uid="lnk23" id="link_Respuesta_Pregunta"><path d="M264,500.42 C264,517.57 264,537.58 264,554.69" fill="none" id="Respuesta-to-Pregunta" style="stroke:#181818;stroke-width:1;"/><polygon fill="#181818" points="264,560.69,268,551.69,264,555.69,260,551.69,264,560.69" style="stroke:#181818;stroke-width:1;"/></g><!--link EditarRespuestaView to VerRespuestas--><g class="link" data-entity-1="EditarRespuestaView" data-entity-2="VerRespuestas" data-source-line="36" data-uid="lnk26" id="link_EditarRespuestaView_VerRespuestas"><path d="M675.92,177.03 C737.45,190.49 813,207 813,207 C813,207 867.2741,232.3502 907.8541,251.3102" fill="none" id="EditarRespuestaView-to-VerRespuestas" style="stroke:#181818;stroke-width:1;stroke-dasharray:7,7;"/><polygon fill="#181818" points="913.29,253.85,906.8293,246.4163,908.7601,251.7335,903.4429,253.6642,913.29,253.85" style="stroke:#181818;stroke-width:1;"/><text fill="#000000" font-family="sans-serif" font-size="13" lengthAdjust="spacing" textLength="173.2212" x="848" y="220.0669">&#171;include&#187; verRespuestas()</text></g><!--link EditarRespuestaView to EliminarRespuesta--><g class="link" data-entity-1="EditarRespuestaView" data-entity-2="EliminarRespuesta" data-source-line="37" data-uid="lnk27" id="link_EditarRespuestaView_EliminarRespuesta"><path d="M682.06,169.15 C807.74,182.82 1030,207 1030,207 C1030,207 1109.5292,233.099 1167.2992,252.059" fill="none" id="EditarRespuestaView-to-EliminarRespuesta" style="stroke:#181818;stroke-width:1;stroke-dasharray:7,7;"/><polygon fill="#181818" points="1173,253.93,1165.6961,247.323,1168.2493,252.3708,1163.2014,254.9241,1173,253.93" style="stroke:#181818;stroke-width:1;"/><text fill="#000000" font-family="sans-serif" font-size="13" lengthAdjust="spacing" textLength="274.9868" x="1078" y="220.0669">&#171;include&#187; eliminarRespuesta(respuestaId)</text></g><!--SRC=[fPH1J-Cm48Nl_XMZSccbBGUq88XGfH2CL6a5LLlGtj0a6IeBnuuS1oYh_U_hLeB4gSi6o2cnttn-upnDzIXKYGOBa4AHNPS4fPRhpGTZXZABQYK93f9BVX4Vmo2QyyNibY-MyU8-lfZo-V9c05Z1dAgofifY5QU2ZDKV5uThUvKkxfERwoN_lRoDV_5z9XAjBBtO6YNrDDH0myY6-14lqL9YgWrQeHLaXj2y4xQyn5lgmNYYHbvj4NVjbHu4ag8Ggck4TrSPAp5xn1K1vSAsDZRgGMTjE1h07mRkQPr_SdJ6hyw0-z8xGSzTPNgSvYUddVzbd6ioNUdLKPpyv8rqJgMkXDLc_J_bdlsPeLMjtFPVndPI2-Fn9DH0rBsKeNbxc-OZratmTp6X_7wNkHFWBmBz17y1SbtJ4uuO2rJ1E7UuK2mYoD2iMlAP6rgEaBc4U_uWQYM0XL1Rou4yHQ1JIuhCJ9jftWVQr3fcI-7VpdlWmXtlRRZGkNWGhkq42tTEsz0FTnj5AdIrSPPgBGdLPvl5R9C5yOgc8NkuaDl3mua_Vo8uFnSgatLEaua_h8QZlOYTuUDZTYQMzpF-0G00]--></g></svg>