<svg xmlns="http://www.w3.org/2000/svg" xmlns:xlink="http://www.w3.org/1999/xlink" contentStyleType="text/css" data-diagram-type="SALT" height="401px" preserveAspectRatio="none" style="width:512px;height:401px;background:#FFFFFF;" version="1.1" viewBox="0 0 512 401" width="512px" zoomAndPan="magnify"><defs/><g><text fill="#000000" font-family="sans-serif" font-size="12" font-weight="bold" lengthAdjust="spacing" textLength="217.3945" x="6" y="17.1387">GESTI&#211;N DE T&#205;TULOS Y GRADOS</text><line style="stroke:#AAAAAA;stroke-width:1;" x1="6" x2="505.002" y1="24.4688" y2="24.4688"/><line style="stroke:#AAAAAA;stroke-width:1;" x1="6" x2="505.002" y1="26.4688" y2="26.4688"/><text fill="#000000" font-family="sans-serif" font-size="12" font-weight="bold" lengthAdjust="spacing" textLength="143.5195" x="6" y="41.1074">1. B&#250;squeda y Filtros</text><text fill="#000000" font-family="sans-serif" font-size="12" font-style="italic" lengthAdjust="spacing" textLength="269.9297" x="6" y="57.0762">Busque por c&#243;digo oficial o nombre del t&#237;tulo</text><text fill="#000000" font-family="sans-serif" font-size="12" lengthAdjust="spacing" textLength="63.709" x="7" y="90.0137">B&#250;squeda:</text><text fill="#000000" font-family="sans-serif" font-size="12" lengthAdjust="spacing" textLength="3.8145" x="75.709" y="90.0137">&#160;</text><line style="stroke:#000000;stroke-width:1;" x1="73.709" x2="236.709" y1="92.8438" y2="92.8438"/><line style="stroke:#000000;stroke-width:1;" x1="73.709" x2="73.709" y1="89.8438" y2="91.8438"/><line style="stroke:#000000;stroke-width:1;" x1="236.709" x2="236.709" y1="89.8438" y2="91.8438"/><rect fill="#EEEEEE" height="17.9688" rx="5" ry="5" style="stroke:#000000;stroke-width:2.5;" width="108" x="243.209" y="81.375"/><text fill="#000000" font-family="sans-serif" font-size="12" lengthAdjust="spacing" textLength="67.6406" x="263.3887" y="94.5137">Filtrar Lista</text><line style="stroke:#AAAAAA;stroke-width:1;" x1="6" x2="505.002" y1="124.3125" y2="124.3125"/><text fill="#000000" font-family="sans-serif" font-size="12" font-weight="bold" lengthAdjust="spacing" textLength="193.2188" x="6" y="155.9199">2. Listado de Grados Activos</text><text fill="#000000" font-family="sans-serif" font-size="12" font-weight="bold" lengthAdjust="spacing" textLength="46.5879" x="7" y="188.8574">C&#243;digo</text><text fill="#000000" font-family="sans-serif" font-size="12" font-weight="bold" lengthAdjust="spacing" textLength="108.832" x="55.5879" y="188.8574">T&#237;tulo del Grado</text><text fill="#000000" font-family="sans-serif" font-size="12" font-weight="bold" lengthAdjust="spacing" textLength="132.4746" x="233.832" y="188.8574">Alumnos Enlistados</text><text fill="#000000" font-family="sans-serif" font-size="12" font-weight="bold" lengthAdjust="spacing" textLength="59.6953" x="368.3066" y="188.8574">Acciones</text><text fill="#000000" font-family="sans-serif" font-size="12" lengthAdjust="spacing" textLength="35.9766" x="7" y="204.8262">GII-24</text><text fill="#000000" font-family="sans-serif" font-size="12" lengthAdjust="spacing" textLength="154.2305" x="55.5879" y="204.8262">Grado en Ing. Inform&#225;tica</text><text fill="#000000" font-family="sans-serif" font-size="12" lengthAdjust="spacing" textLength="77.0742" x="233.832" y="204.8262">450 inscritos</text><rect fill="#EEEEEE" height="17.9688" rx="5" ry="5" style="stroke:#000000;stroke-width:2.5;" width="52" x="370.8066" y="196.1875"/><text fill="#000000" font-family="sans-serif" font-size="12" lengthAdjust="spacing" textLength="35.5254" x="379.0439" y="209.3262">Editar</text><rect fill="#EEEEEE" height="17.9688" rx="5" ry="5" style="stroke:#000000;stroke-width:2.5;" width="68" x="432.502" y="196.1875"/><text fill="#000000" font-family="sans-serif" font-size="12" lengthAdjust="spacing" textLength="49.166" x="441.9189" y="209.3262">Eliminar</text><text fill="#000000" font-family="sans-serif" font-size="12" lengthAdjust="spacing" textLength="42.791" x="7" y="229.7949">GIM-10</text><text fill="#000000" font-family="sans-serif" font-size="12" lengthAdjust="spacing" textLength="142.1309" x="55.5879" y="229.7949">Grado en Ing. Mec&#225;nica</text><text fill="#000000" font-family="sans-serif" font-size="12" lengthAdjust="spacing" textLength="77.0742" x="233.832" y="229.7949">320 inscritos</text><rect fill="#EEEEEE" height="17.9688" rx="5" ry="5" style="stroke:#000000;stroke-width:2.5;" width="52" x="370.8066" y="221.1563"/><text fill="#000000" font-family="sans-serif" font-size="12" lengthAdjust="spacing" textLength="35.5254" x="379.0439" y="234.2949">Editar</text><rect fill="#EEEEEE" height="17.9688" rx="5" ry="5" style="stroke:#000000;stroke-width:2.5;" width="68" x="432.502" y="221.1563"/><text fill="#000000" font-family="sans-serif" font-size="12" lengthAdjust="spacing" textLength="49.166" x="441.9189" y="234.2949">Eliminar</text><text fill="#000000" font-family="sans-serif" font-size="12" lengthAdjust="spacing" textLength="44.6309" x="7" y="254.7637">ADE-19</text><text fill="#000000" font-family="sans-serif" font-size="12" lengthAdjust="spacing" textLength="176.2441" x="55.5879" y="254.7637">Admin. y Direcci&#243;n Empresas</text><text fill="#000000" font-family="sans-serif" font-size="12" lengthAdjust="spacing" textLength="77.0742" x="233.832" y="254.7637">600 inscritos</text><rect fill="#EEEEEE" height="17.9688" rx="5" ry="5" style="stroke:#000000;stroke-width:2.5;" width="52" x="370.8066" y="246.125"/><text fill="#000000" font-family="sans-serif" font-size="12" lengthAdjust="spacing" textLength="35.5254" x="379.0439" y="259.2637">Editar</text><rect fill="#EEEEEE" height="17.9688" rx="5" ry="5" style="stroke:#000000;stroke-width:2.5;" width="68" x="432.502" y="246.125"/><text fill="#000000" font-family="sans-serif" font-size="12" lengthAdjust="spacing" textLength="49.166" x="441.9189" y="259.2637">Eliminar</text><text fill="#000000" font-family="sans-serif" font-size="12" lengthAdjust="spacing" textLength="44.5254" x="7" y="279.7324">ARC-21</text><text fill="#000000" font-family="sans-serif" font-size="12" lengthAdjust="spacing" textLength="134.1445" x="55.5879" y="279.7324">Grado en Arquitectura</text><text fill="#000000" font-family="sans-serif" font-size="12" lengthAdjust="spacing" textLength="77.0742" x="233.832" y="279.7324">150 inscritos</text><rect fill="#EEEEEE" height="17.9688" rx="5" ry="5" style="stroke:#000000;stroke-width:2.5;" width="52" x="370.8066" y="271.0938"/><text fill="#000000" font-family="sans-serif" font-size="12" lengthAdjust="spacing" textLength="35.5254" x="379.0439" y="284.2324">Editar</text><rect fill="#EEEEEE" height="17.9688" rx="5" ry="5" style="stroke:#000000;stroke-width:2.5;" width="68" x="432.502" y="271.0938"/><text fill="#000000" font-family="sans-serif" font-size="12" lengthAdjust="spacing" textLength="49.166" x="441.9189" y="284.2324">Eliminar</text><line style="stroke:#000000;stroke-width:1;" x1="6" x2="54.5879" y1="176.7188" y2="176.7188"/><line style="stroke:#000000;stroke-width:1;" x1="429.002" x2="504.002" y1="267.5938" y2="267.5938"/><line style="stroke:#000000;stroke-width:1;" x1="54.5879" x2="232.832" y1="176.7188" y2="176.7188"/><line style="stroke:#000000;stroke-width:1;" x1="232.832" x2="367.3066" y1="176.7188" y2="176.7188"/><line style="stroke:#000000;stroke-width:1;" x1="367.3066" x2="429.002" y1="176.7188" y2="176.7188"/><line style="stroke:#000000;stroke-width:1;" x1="429.002" x2="504.002" y1="176.7188" y2="176.7188"/><line style="stroke:#000000;stroke-width:1;" x1="6" x2="54.5879" y1="242.625" y2="242.625"/><line style="stroke:#000000;stroke-width:1;" x1="54.5879" x2="232.832" y1="242.625" y2="242.625"/><line style="stroke:#000000;stroke-width:1;" x1="232.832" x2="367.3066" y1="242.625" y2="242.625"/><line style="stroke:#000000;stroke-width:1;" x1="367.3066" x2="429.002" y1="242.625" y2="242.625"/><line style="stroke:#000000;stroke-width:1;" x1="429.002" x2="504.002" y1="242.625" y2="242.625"/><line style="stroke:#000000;stroke-width:1;" x1="6" x2="54.5879" y1="308.5313" y2="308.5313"/><line style="stroke:#000000;stroke-width:1;" x1="54.5879" x2="232.832" y1="308.5313" y2="308.5313"/><line style="stroke:#000000;stroke-width:1;" x1="232.832" x2="367.3066" y1="308.5313" y2="308.5313"/><line style="stroke:#000000;stroke-width:1;" x1="367.3066" x2="429.002" y1="308.5313" y2="308.5313"/><line style="stroke:#000000;stroke-width:1;" x1="429.002" x2="504.002" y1="308.5313" y2="308.5313"/><line style="stroke:#000000;stroke-width:1;" x1="6" x2="54.5879" y1="217.6563" y2="217.6563"/><line style="stroke:#000000;stroke-width:1;" x1="54.5879" x2="232.832" y1="217.6563" y2="217.6563"/><line style="stroke:#000000;stroke-width:1;" x1="232.832" x2="367.3066" y1="217.6563" y2="217.6563"/><line style="stroke:#000000;stroke-width:1;" x1="367.3066" x2="429.002" y1="217.6563" y2="217.6563"/><line style="stroke:#000000;stroke-width:1;" x1="429.002" x2="504.002" y1="217.6563" y2="217.6563"/><line style="stroke:#000000;stroke-width:1;" x1="6" x2="54.5879" y1="292.5625" y2="292.5625"/><line style="stroke:#000000;stroke-width:1;" x1="54.5879" x2="232.832" y1="292.5625" y2="292.5625"/><line style="stroke:#000000;stroke-width:1;" x1="232.832" x2="367.3066" y1="292.5625" y2="292.5625"/><line style="stroke:#000000;stroke-width:1;" x1="367.3066" x2="429.002" y1="292.5625" y2="292.5625"/><line style="stroke:#000000;stroke-width:1;" x1="6" x2="54.5879" y1="192.6875" y2="192.6875"/><line style="stroke:#000000;stroke-width:1;" x1="429.002" x2="504.002" y1="292.5625" y2="292.5625"/><line style="stroke:#000000;stroke-width:1;" x1="54.5879" x2="232.832" y1="192.6875" y2="192.6875"/><line style="stroke:#000000;stroke-width:1;" x1="232.832" x2="367.3066" y1="192.6875" y2="192.6875"/><line style="stroke:#000000;stroke-width:1;" x1="367.3066" x2="429.002" y1="192.6875" y2="192.6875"/><line style="stroke:#000000;stroke-width:1;" x1="429.002" x2="504.002" y1="192.6875" y2="192.6875"/><line style="stroke:#000000;stroke-width:1;" x1="6" x2="54.5879" y1="267.5938" y2="267.5938"/><line style="stroke:#000000;stroke-width:1;" x1="54.5879" x2="232.832" y1="267.5938" y2="267.5938"/><line style="stroke:#000000;stroke-width:1;" x1="232.832" x2="367.3066" y1="267.5938" y2="267.5938"/><line style="stroke:#000000;stroke-width:1;" x1="367.3066" x2="429.002" y1="267.5938" y2="267.5938"/><line style="stroke:#000000;stroke-width:1;" x1="6" x2="6" y1="176.7188" y2="192.6875"/><line style="stroke:#000000;stroke-width:1;" x1="429.002" x2="429.002" y1="267.5938" y2="292.5625"/><line style="stroke:#000000;stroke-width:1;" x1="504.002" x2="504.002" y1="267.5938" y2="292.5625"/><line style="stroke:#000000;stroke-width:1;" x1="54.5879" x2="54.5879" y1="176.7188" y2="192.6875"/><line style="stroke:#000000;stroke-width:1;" x1="232.832" x2="232.832" y1="176.7188" y2="192.6875"/><line style="stroke:#000000;stroke-width:1;" x1="367.3066" x2="367.3066" y1="176.7188" y2="192.6875"/><line style="stroke:#000000;stroke-width:1;" x1="429.002" x2="429.002" y1="176.7188" y2="192.6875"/><line style="stroke:#000000;stroke-width:1;" x1="504.002" x2="504.002" y1="176.7188" y2="192.6875"/><line style="stroke:#000000;stroke-width:1;" x1="6" x2="6" y1="242.625" y2="267.5938"/><line style="stroke:#000000;stroke-width:1;" x1="54.5879" x2="54.5879" y1="242.625" y2="267.5938"/><line style="stroke:#000000;stroke-width:1;" x1="232.832" x2="232.832" y1="242.625" y2="267.5938"/><line style="stroke:#000000;stroke-width:1;" x1="367.3066" x2="367.3066" y1="242.625" y2="267.5938"/><line style="stroke:#000000;stroke-width:1;" x1="429.002" x2="429.002" y1="242.625" y2="267.5938"/><line style="stroke:#000000;stroke-width:1;" x1="504.002" x2="504.002" y1="242.625" y2="267.5938"/><line style="stroke:#000000;stroke-width:1;" x1="6" x2="6" y1="217.6563" y2="242.625"/><line style="stroke:#000000;stroke-width:1;" x1="54.5879" x2="54.5879" y1="217.6563" y2="242.625"/><line style="stroke:#000000;stroke-width:1;" x1="232.832" x2="232.832" y1="217.6563" y2="242.625"/><line style="stroke:#000000;stroke-width:1;" x1="367.3066" x2="367.3066" y1="217.6563" y2="242.625"/><line style="stroke:#000000;stroke-width:1;" x1="429.002" x2="429.002" y1="217.6563" y2="242.625"/><line style="stroke:#000000;stroke-width:1;" x1="504.002" x2="504.002" y1="217.6563" y2="242.625"/><line style="stroke:#000000;stroke-width:1;" x1="6" x2="6" y1="292.5625" y2="308.5313"/><line style="stroke:#000000;stroke-width:1;" x1="54.5879" x2="54.5879" y1="292.5625" y2="308.5313"/><line style="stroke:#000000;stroke-width:1;" x1="232.832" x2="232.832" y1="292.5625" y2="308.5313"/><line style="stroke:#000000;stroke-width:1;" x1="367.3066" x2="367.3066" y1="292.5625" y2="308.5313"/><line style="stroke:#000000;stroke-width:1;" x1="6" x2="6" y1="192.6875" y2="217.6563"/><line style="stroke:#000000;stroke-width:1;" x1="429.002" x2="429.002" y1="292.5625" y2="308.5313"/><line style="stroke:#000000;stroke-width:1;" x1="504.002" x2="504.002" y1="292.5625" y2="308.5313"/><line style="stroke:#000000;stroke-width:1;" x1="54.5879" x2="54.5879" y1="192.6875" y2="217.6563"/><line style="stroke:#000000;stroke-width:1;" x1="232.832" x2="232.832" y1="192.6875" y2="217.6563"/><line style="stroke:#000000;stroke-width:1;" x1="367.3066" x2="367.3066" y1="192.6875" y2="217.6563"/><line style="stroke:#000000;stroke-width:1;" x1="429.002" x2="429.002" y1="192.6875" y2="217.6563"/><line style="stroke:#000000;stroke-width:1;" x1="504.002" x2="504.002" y1="192.6875" y2="217.6563"/><line style="stroke:#000000;stroke-width:1;" x1="6" x2="6" y1="267.5938" y2="292.5625"/><line style="stroke:#000000;stroke-width:1;" x1="54.5879" x2="54.5879" y1="267.5938" y2="292.5625"/><line style="stroke:#000000;stroke-width:1;" x1="232.832" x2="232.832" y1="267.5938" y2="292.5625"/><line style="stroke:#000000;stroke-width:1;" x1="367.3066" x2="367.3066" y1="267.5938" y2="292.5625"/><line style="stroke:#AAAAAA;stroke-width:1.5;" x1="6" x2="505.002" y1="330" y2="330"/><text fill="#000000" font-family="sans-serif" font-size="12" lengthAdjust="spacing" textLength="125.9121" x="9" y="361.6074">Acciones de Gesti&#243;n:</text><line style="stroke:#000000;stroke-width:1;" x1="7" x2="170" y1="364.4375" y2="364.4375"/><line style="stroke:#000000;stroke-width:1;" x1="7" x2="7" y1="361.4375" y2="363.4375"/><line style="stroke:#000000;stroke-width:1;" x1="170" x2="170" y1="361.4375" y2="363.4375"/><rect fill="#EEEEEE" height="17.9688" rx="5" ry="5" style="stroke:#000000;stroke-width:2.5;" width="108" x="9.5" y="371.9375"/><text fill="#000000" font-family="sans-serif" font-size="12" lengthAdjust="spacing" textLength="73.3418" x="26.8291" y="385.0762">Crear Grado</text><rect fill="#EEEEEE" height="17.9688" rx="5" ry="5" style="stroke:#000000;stroke-width:2.5;" width="84" x="124.5" y="371.9375"/><text fill="#000000" font-family="sans-serif" font-size="12" lengthAdjust="spacing" textLength="52.1133" x="140.4434" y="385.0762">Importar</text><rect fill="#EEEEEE" height="17.9688" rx="5" ry="5" style="stroke:#000000;stroke-width:2.5;" width="148" x="221.3145" y="371.9375"/><text fill="#000000" font-family="sans-serif" font-size="12" lengthAdjust="spacing" textLength="88.3711" x="251.1289" y="385.0762">Volver al Inicio</text><line style="stroke:#000000;stroke-width:1;" x1="5" x2="505.002" y1="5" y2="5"/><line style="stroke:#000000;stroke-width:1;" x1="5" x2="505.002" y1="394.4063" y2="394.4063"/><line style="stroke:#000000;stroke-width:1;" x1="5" x2="5" y1="5" y2="20.9688"/><line style="stroke:#000000;stroke-width:1;" x1="505.002" x2="505.002" y1="5" y2="20.9688"/><line style="stroke:#000000;stroke-width:1;" x1="5" x2="5" y1="349.4688" y2="367.4375"/><line style="stroke:#000000;stroke-width:1;" x1="505.002" x2="505.002" y1="349.4688" y2="367.4375"/><line style="stroke:#000000;stroke-width:1;" x1="5" x2="5" y1="175.7188" y2="309.5313"/><line style="stroke:#000000;stroke-width:1;" x1="505.002" x2="505.002" y1="175.7188" y2="309.5313"/><line style="stroke:#000000;stroke-width:1;" x1="5" x2="5" y1="119.8125" y2="127.8125"/><line style="stroke:#000000;stroke-width:1;" x1="505.002" x2="505.002" y1="119.8125" y2="127.8125"/><line style="stroke:#000000;stroke-width:1;" x1="5" x2="5" y1="44.9375" y2="60.9063"/><line style="stroke:#000000;stroke-width:1;" x1="505.002" x2="505.002" y1="44.9375" y2="60.9063"/><line style="stroke:#000000;stroke-width:1;" x1="5" x2="5" y1="333.5" y2="349.4688"/><line style="stroke:#000000;stroke-width:1;" x1="505.002" x2="505.002" y1="333.5" y2="349.4688"/><line style="stroke:#000000;stroke-width:1;" x1="5" x2="5" y1="159.75" y2="175.7188"/><line style="stroke:#000000;stroke-width:1;" x1="505.002" x2="505.002" y1="159.75" y2="175.7188"/><line style="stroke:#000000;stroke-width:1;" x1="5" x2="5" y1="103.8438" y2="119.8125"/><line style="stroke:#000000;stroke-width:1;" x1="505.002" x2="505.002" y1="103.8438" y2="119.8125"/><line style="stroke:#000000;stroke-width:1;" x1="5" x2="5" y1="28.9688" y2="44.9375"/><line style="stroke:#000000;stroke-width:1;" x1="505.002" x2="505.002" y1="28.9688" y2="44.9375"/><line style="stroke:#000000;stroke-width:1;" x1="5" x2="5" y1="325.5" y2="333.5"/><line style="stroke:#000000;stroke-width:1;" x1="505.002" x2="505.002" y1="325.5" y2="333.5"/><line style="stroke:#000000;stroke-width:1;" x1="5" x2="5" y1="143.7813" y2="159.75"/><line style="stroke:#000000;stroke-width:1;" x1="505.002" x2="505.002" y1="143.7813" y2="159.75"/><line style="stroke:#000000;stroke-width:1;" x1="5" x2="5" y1="76.875" y2="103.8438"/><line style="stroke:#000000;stroke-width:1;" x1="505.002" x2="505.002" y1="76.875" y2="103.8438"/><line style="stroke:#000000;stroke-width:1;" x1="5" x2="5" y1="20.9688" y2="28.9688"/><line style="stroke:#000000;stroke-width:1;" x1="505.002" x2="505.002" y1="20.9688" y2="28.9688"/><line style="stroke:#000000;stroke-width:1;" x1="5" x2="5" y1="367.4375" y2="394.4063"/><line style="stroke:#000000;stroke-width:1;" x1="505.002" x2="505.002" y1="367.4375" y2="394.4063"/><line style="stroke:#000000;stroke-width:1;" x1="5" x2="5" y1="309.5313" y2="325.5"/><line style="stroke:#000000;stroke-width:1;" x1="505.002" x2="505.002" y1="309.5313" y2="325.5"/><line style="stroke:#000000;stroke-width:1;" x1="5" x2="5" y1="127.8125" y2="143.7813"/><line style="stroke:#000000;stroke-width:1;" x1="505.002" x2="505.002" y1="127.8125" y2="143.7813"/><line style="stroke:#000000;stroke-width:1;" x1="5" x2="5" y1="60.9063" y2="76.875"/><line style="stroke:#000000;stroke-width:1;" x1="505.002" x2="505.002" y1="60.9063" y2="76.875"/><!--SRC=[bLJDJjj04BxxAKRf1LJPs6v0nKeGJc8YqvYWnAIg4AeszYPQoTw5zJeIel06FVK9U82UkFNg5-juNH9BzC98Ndd-lld6E-FJGX6f2f8fs50vbYGLnVUluImuc_bHO3nyD02bjpmP1_Cuh7vTm2Y0kFePNqscS_W6uva_civx1yiJ7TZlzryJ70i6rP_YhgGfWNiuOvcIejX6zjZ9eAozS2ia9DLBojO2n8ebZ6GWW8jyAIcaD0DL_LPb9de7h4crzFcWprgsPJpu0HtuZtJGSQqP40aJXZtVwEp75fvfjXJaxrfDP2gG13HV1ln4iKshYtzKFcovOEAmwQMEmR9eY1l-kXUDitFvMPbpn0rurjGgMhuaOOBJNR5Qnc5ekbqCq410EOHyRU6n4ZAldXLB23gxXpOmNYIIAGJ7teEKuJtVwDUCvOoZqiACJCT-WndHf7hc3U0dzps0_YWmdMFq-IbwBBpz4PCKswbUE0JvhQG5gL6Ex7UXpeQcwxHf-lAkP8ecgfGrIUTTNLjetZvlfk7fgQLqNgz2Jm8jLDs8rsdk7gvXA2dELKDBLuCmnwd6sbgrj6aXCjmmmE4EyQEoElBHU3HEAK_hzJECounmTHLDwaKii1mubckxXvPZxyMu9XTY0tON7DjpRQzx3D4yXjg_R-oDBoTGY58ck2yuHf8jIuK0-yOvsH2ObLond7emlQNyVFJbrO13js5Iy9noPPmlebt0KTSSC0LpAcl6YyWOqHKfyHSHy4IaZAyzk8hFpC_6XF1rITQ8JRan58WhxptWPPRz1G00]--></g></svg>