<svg xmlns="http://www.w3.org/2000/svg" xmlns:xlink="http://www.w3.org/1999/xlink" contentStyleType="text/css" data-diagram-type="STATE" height="749px" preserveAspectRatio="none" style="width:1290px;height:749px;background:#FFFFFF;" version="1.1" viewBox="0 0 1290 749" width="1290px" zoomAndPan="magnify"><defs/><g><!--cluster cerrarSesion--><g class="cluster" data-entity="cerrarSesion" data-source-line="6" data-uid="ent0004" id="cluster_cerrarSesion"><path d="M312.5,112 L826.5,112 A12.5,12.5 0 0 1 839,124.5 L839,133.2969 L300,133.2969 L300,124.5 A12.5,12.5 0 0 1 312.5,112" fill="#F1F1F1"/><rect fill="none" height="492" rx="12.5" ry="12.5" style="stroke:#181818;stroke-width:0.5;" width="539" x="300" y="112"/><line style="stroke:#181818;stroke-width:0.5;" x1="300" x2="839" y1="133.2969" y2="133.2969"/><text fill="#000000" font-family="sans-serif" font-size="14" lengthAdjust="spacing" textLength="99.2031" x="519.8984" y="128.9951">cerrarSesion()</text></g><g id="cerrarSesion.SolicitandoCierre"><rect fill="#F1F1F1" height="50" rx="12.5" ry="12.5" style="stroke:#181818;stroke-width:0.5;" width="50" x="342" y="270"/><line style="stroke:#181818;stroke-width:0.5;" x1="342" x2="392" y1="296.2969" y2="296.2969"/><text fill="#000000" font-family="sans-serif" font-size="14" lengthAdjust="spacing" textLength="4.4502" x="364.7749" y="287.9951">&#160;</text></g><g id="cerrarSesion.ConfirmandoCierre"><rect fill="#F1F1F1" height="50" rx="12.5" ry="12.5" style="stroke:#181818;stroke-width:0.5;" width="50" x="342" y="445"/><line style="stroke:#181818;stroke-width:0.5;" x1="342" x2="392" y1="471.2969" y2="471.2969"/><text fill="#000000" font-family="sans-serif" font-size="14" lengthAdjust="spacing" textLength="4.4502" x="364.7749" y="462.9951">&#160;</text></g><g class="entity" data-entity="c" data-uid="ent0007" id="entity_c"><polygon fill="#F1F1F1" points="367,556,379,568,367,580,355,568,367,556" style="stroke:#181818;stroke-width:0.5;"/></g><ellipse cx="367" cy="165" fill="#222222" rx="10" ry="10" style="stroke:#222222;stroke-width:1;"/><g id="SISTEMA_DISPONIBLE"><rect fill="#F1F1F1" height="50" rx="12.5" ry="12.5" style="stroke:#181818;stroke-width:0.5;" width="172.0654" x="222" y="7"/><line style="stroke:#181818;stroke-width:0.5;" x1="222" x2="394.0654" y1="33.2969" y2="33.2969"/><text fill="#000000" font-family="sans-serif" font-size="14" lengthAdjust="spacing" textLength="152.0654" x="232" y="24.9951">SISTEMA_DISPONIBLE</text></g><g id="SISTEMA_DISPONIBLE2"><rect fill="#F1F1F1" height="50" rx="12.5" ry="12.5" style="stroke:#181818;stroke-width:0.5;" width="172.0654" x="7" y="693"/><line style="stroke:#181818;stroke-width:0.5;" x1="7" x2="179.0654" y1="719.2969" y2="719.2969"/><text fill="#000000" font-family="sans-serif" font-size="14" lengthAdjust="spacing" textLength="152.0654" x="17" y="710.9951">SISTEMA_DISPONIBLE</text></g><g id="SESION_CERRADA"><rect fill="#F1F1F1" height="50" rx="12.5" ry="12.5" style="stroke:#181818;stroke-width:0.5;" width="147.251" x="567.5" y="693"/><line style="stroke:#181818;stroke-width:0.5;" x1="567.5" x2="714.751" y1="719.2969" y2="719.2969"/><text fill="#000000" font-family="sans-serif" font-size="14" lengthAdjust="spacing" textLength="127.251" x="577.5" y="710.9951">SESION_CERRADA</text></g><!--link *start*cerrarSesion to SolicitandoCierre--><g class="link" data-entity-1=".start.cerrarSesion" data-entity-2="SolicitandoCierre" data-source-line="12" data-uid="lnk3" id="link_.start.cerrarSesion_SolicitandoCierre"><path d="M367,175.21 C367,194.81 367,235.23 367,263.89" fill="none" id="*start*cerrarSesion-to-SolicitandoCierre" style="stroke:#008000;stroke-width:1;"/><polygon fill="#008000" points="367,269.89,371,260.89,367,264.89,363,260.89,367,269.89" style="stroke:#008000;stroke-width:1;"/><path d="M372,210 L372,235 L810,235 L810,220 L800,210 L372,210" fill="#FEFFDD" style="stroke:#181818;stroke-width:0.5;"/><path d="M800,210 L800,220 L810,220 L800,210" fill="#FEFFDD" style="stroke:#181818;stroke-width:0.5;"/><text fill="#000000" font-family="sans-serif" font-size="13" font-weight="bold" lengthAdjust="spacing" textLength="279.0684" x="378" y="227.0669">Administrador institucional o Docente</text><text fill="#000000" font-family="sans-serif" font-size="13" lengthAdjust="spacing" textLength="134.5322" x="661.2007" y="227.0669">solicita cerrar sesi&#243;n</text></g><!--link SolicitandoCierre to ConfirmandoCierre--><g class="link" data-entity-1="SolicitandoCierre" data-entity-2="ConfirmandoCierre" data-source-line="17" data-uid="lnk4" id="link_SolicitandoCierre_ConfirmandoCierre"><path d="M367,320.05 C367,353.01 367,405.87 367,438.87" fill="none" id="SolicitandoCierre-to-ConfirmandoCierre" style="stroke:#008000;stroke-width:1;"/><polygon fill="#008000" points="367,444.87,371,435.87,367,439.87,363,435.87,367,444.87" style="stroke:#008000;stroke-width:1;"/><path d="M372,355 L372,410 L556,410 L556,365 L546,355 L372,355" fill="#FEFFDD" style="stroke:#181818;stroke-width:0.5;"/><path d="M546,355 L546,365 L556,365 L546,355" fill="#FEFFDD" style="stroke:#181818;stroke-width:0.5;"/><text fill="#000000" font-family="sans-serif" font-size="13" font-weight="bold" lengthAdjust="spacing" textLength="58.9063" x="378" y="372.0669">Sistema</text><text fill="#000000" font-family="sans-serif" font-size="13" lengthAdjust="spacing" textLength="50.9653" x="441.0386" y="372.0669">permite</text><text fill="#000000" font-family="sans-serif" font-size="13" lengthAdjust="spacing" textLength="163.4077" x="378" y="387.1997">&#8226; confirmar cerrar sesi&#243;n</text><text fill="#000000" font-family="sans-serif" font-size="13" lengthAdjust="spacing" textLength="155.981" x="378" y="402.3325">&#8226; cancelar cerrar sesi&#243;n</text></g><!--link ConfirmandoCierre to c--><g class="link" data-entity-1="ConfirmandoCierre" data-entity-2="c" data-source-line="24" data-uid="lnk5" id="link_ConfirmandoCierre_c"><path d="M367,495.22 C367,514.67 367,535.07 367,549.83" fill="none" id="ConfirmandoCierre-to-c" style="stroke:#008000;stroke-width:1;"/><polygon fill="#008000" points="367,555.83,371,546.83,367,550.83,363,546.83,367,555.83" style="stroke:#008000;stroke-width:1;"/></g><!--link SISTEMA_DISPONIBLE to cerrarSesion--><g class="link" data-entity-1="SISTEMA_DISPONIBLE" data-entity-2="cerrarSesion" data-source-line="28" data-uid="lnk6" id="link_SISTEMA_DISPONIBLE_cerrarSesion"><path d="M308,57.03 C308,66.3375 308,77.5425 308,89.1473 C308,94.9498 308,100.8521 308,106.6673 C308,108.1211 308,109.5694 308,111.0094 C308,111.1893 308,105.3692 308,105.5489" fill="none" id="SISTEMA_DISPONIBLE-to-cerrarSesion" style="stroke:#008000;stroke-width:1;"/><polygon fill="#008000" points="308,111.5489,312,102.5489,308,106.5489,304,102.5489,308,111.5489" style="stroke:#008000;stroke-width:1;"/></g><!--link c to SISTEMA_DISPONIBLE2--><g class="link" data-entity-1="c" data-entity-2="SISTEMA_DISPONIBLE2" data-source-line="30" data-uid="lnk7" id="link_c_SISTEMA_DISPONIBLE2"><path d="M357.78,570.96 C309.72,581.2 90,628 90,628 C90,628 90,663 90,663 C90,663 90.5265,672.4793 91.3265,686.8493" fill="none" id="c-to-SISTEMA_DISPONIBLE2" style="stroke:#0000FF;stroke-width:1;"/><polygon fill="#0000FF" points="91.66,692.84,95.1535,683.6316,91.3821,687.8477,87.1659,684.0763,91.66,692.84" style="stroke:#0000FF;stroke-width:1;"/><path d="M95,633 L95,658 L593,658 L593,643 L583,633 L95,633" fill="#FEFFDD" style="stroke:#181818;stroke-width:0.5;"/><path d="M583,633 L583,643 L593,643 L583,633" fill="#FEFFDD" style="stroke:#181818;stroke-width:0.5;"/><text fill="#000000" font-family="sans-serif" font-size="13" font-weight="bold" lengthAdjust="spacing" textLength="279.0684" x="101" y="650.0669">Administrador institucional o Docente</text><text fill="#000000" font-family="sans-serif" font-size="13" lengthAdjust="spacing" textLength="194.0859" x="384.2007" y="650.0669">solicita cancelar cerrar sesi&#243;n</text></g><!--link c to SESION_CERRADA--><g class="link" data-entity-1="c" data-entity-2="SESION_CERRADA" data-source-line="35" data-uid="lnk9" id="link_c_SESION_CERRADA"><path d="M375.93,571.24 C418.85,582.02 602,628 602,628 C602,628 616.393,660.834 627.933,687.184" fill="none" id="c-to-SESION_CERRADA" style="stroke:#008000;stroke-width:1;"/><polygon fill="#008000" points="630.34,692.68,630.3935,682.8313,628.3342,688.1,623.0655,686.0406,630.34,692.68" style="stroke:#008000;stroke-width:1;"/><path d="M621,633 L621,658 L1283,658 L1283,643 L1273,633 L621,633" fill="#FEFFDD" style="stroke:#181818;stroke-width:0.5;"/><path d="M1273,633 L1273,643 L1283,643 L1273,633" fill="#FEFFDD" style="stroke:#181818;stroke-width:0.5;"/><text fill="#000000" font-family="sans-serif" font-size="13" font-weight="bold" lengthAdjust="spacing" textLength="279.0684" x="627" y="650.0669">Administrador institucional o Docente</text><text fill="#000000" font-family="sans-serif" font-size="13" lengthAdjust="spacing" textLength="358.0332" x="910.2007" y="650.0669">solicita confirmar cerrar sesi&#243;n &#8594; UsuarioNoRegistrado</text></g><!--SRC=[hPFHIiCm58RlynI7Ub4LXk1rATIj5mNTPDMhCIHBZpEiJKgINGmHlF81V0HVmKVmJVOaPct7Mh8Ambeez9m___bESg9NN9HKqG9oBj1iIeHIvflT3o7QK8EG9kb3V1SzZPBqVZ9ERcxZtiGrK0sU6_VsNWoLeYf5pQMejEt0-OK7huI0VMgrPryhIcNE6JTKP7B8hHvToL2APwwAWmIW9M8G1En5SePXMFlFBkSmc9qj5QAO3qAtHBrSIBlQajhjM5M1O156MS45rqRHJ2hWGXjkripYqnmaZ2H3OJ2uMeIW6zEcQz2sovzlKHcXo6ftQ4YhZulHXdIQx6LCBHyMjA8eKHNSrDhj-nUmnaKTmwe4L33CZ-Vts0TaT-VRo8oGjth7tQ7e2bjpK2zWk_mYNsDrFkwedVI0_jKowuvEd2QJyTCmdawZKNHIgfwJWkt79ppgDLLSZkKKburj5vSGltFR_c3sEy1-5xMlc6yrZ1_kBl7tfNy1]--></g></svg>