<svg xmlns="http://www.w3.org/2000/svg" xmlns:xlink="http://www.w3.org/1999/xlink" contentStyleType="text/css" data-diagram-type="STATE" height="911px" preserveAspectRatio="none" style="width:1140px;height:911px;background:#FFFFFF;" version="1.1" viewBox="0 0 1140 911" width="1140px" zoomAndPan="magnify"><defs/><g><g id="GRADOS_ABIERTO2"><rect fill="#F1F1F1" height="50" rx="12.5" ry="12.5" style="stroke:#181818;stroke-width:0.5;" width="149.2949" x="492.5" y="855"/><line style="stroke:#181818;stroke-width:0.5;" x1="492.5" x2="641.7949" y1="881.2969" y2="881.2969"/><text fill="#000000" font-family="sans-serif" font-size="14" lengthAdjust="spacing" textLength="129.2949" x="502.5" y="872.9951">GRADOS_ABIERTO</text></g><path d="M19.5,117 L1114.622,117 A12.5,12.5 0 0 1 1127.122,129.5 L1127.122,143.2969 L7,143.2969 L7,129.5 A12.5,12.5 0 0 1 19.5,117" fill="#F1F1F1"/><rect fill="none" height="678.2969" rx="12.5" ry="12.5" style="stroke:#181818;stroke-width:0.5;" width="1120.122" x="7" y="117"/><line style="stroke:#181818;stroke-width:0.5;" x1="7" x2="1127.122" y1="143.2969" y2="143.2969"/><text fill="#000000" font-family="sans-serif" font-size="14" lengthAdjust="spacing" textLength="121.4131" x="506.3544" y="134.9951">importarGrados()</text><g id="importarGrados.RequiringImport"><rect fill="#F1F1F1" height="50" rx="12.5" ry="12.5" style="stroke:#181818;stroke-width:0.5;" width="50" x="400.122" y="245.2969"/><line style="stroke:#181818;stroke-width:0.5;" x1="400.122" x2="450.122" y1="271.5938" y2="271.5938"/><text fill="#000000" font-family="sans-serif" font-size="14" lengthAdjust="spacing" textLength="4.4502" x="422.8969" y="263.292">&#160;</text></g><g id="importarGrados.ProvidingGrados"><rect fill="#F1F1F1" height="50" rx="12.5" ry="12.5" style="stroke:#181818;stroke-width:0.5;" width="50" x="400.122" y="396.2969"/><line style="stroke:#181818;stroke-width:0.5;" x1="400.122" x2="450.122" y1="422.5938" y2="422.5938"/><text fill="#000000" font-family="sans-serif" font-size="14" lengthAdjust="spacing" textLength="4.4502" x="422.8969" y="414.292">&#160;</text></g><g id="importarGrados.ProvidingConfirmation"><rect fill="#F1F1F1" height="50" rx="12.5" ry="12.5" style="stroke:#181818;stroke-width:0.5;" width="50" x="959.122" y="517.2969"/><line style="stroke:#181818;stroke-width:0.5;" x1="959.122" x2="1009.122" y1="543.5938" y2="543.5938"/><text fill="#000000" font-family="sans-serif" font-size="14" lengthAdjust="spacing" textLength="4.4502" x="981.8969" y="535.292">&#160;</text></g><g class="entity" data-entity="c" data-uid="ent0007" id="entity_c"><polygon fill="#F1F1F1" points="425.122,668.2969,437.122,680.2969,425.122,692.2969,413.122,680.2969,425.122,668.2969" style="stroke:#181818;stroke-width:0.5;"/></g><ellipse cx="425.122" cy="164.2969" fill="#222222" rx="10" ry="10" style="stroke:#222222;stroke-width:1;"/><ellipse cx="29.122" cy="774.2969" fill="none" rx="11" ry="11" style="stroke:#222222;stroke-width:1;"/><ellipse cx="29.122" cy="774.2969" fill="#222222" rx="6" ry="6" style="stroke:#222222;stroke-width:1;"/><!--link *start*importarGrados to RequiringImport--><g class="link" data-entity-1=".start.importarGrados" data-entity-2="RequiringImport" data-source-line="12" data-uid="lnk3" id="link_.start.importarGrados_RequiringImport"><path d="M425.122,174.5269 C425.122,190.2369 425.122,216.6569 425.122,239.1669" fill="none" id="*start*importarGrados-to-RequiringImport" style="stroke:#008000;stroke-width:1;"/><polygon fill="#008000" points="425.122,245.1669,429.122,236.1669,425.122,240.1669,421.122,236.1669,425.122,245.1669" style="stroke:#008000;stroke-width:1;"/><path d="M430.122,197.2969 L430.122,222.2969 L670.122,222.2969 L670.122,207.2969 L660.122,197.2969 L430.122,197.2969" fill="#FEFFDD" style="stroke:#181818;stroke-width:0.5;"/><path d="M660.122,197.2969 L660.122,207.2969 L670.122,207.2969 L660.122,197.2969" fill="#FEFFDD" style="stroke:#181818;stroke-width:0.5;"/><text fill="#000000" font-family="sans-serif" font-size="13" font-weight="bold" lengthAdjust="spacing" textLength="60.5313" x="436.122" y="214.3638">Docente</text><text fill="#000000" font-family="sans-serif" font-size="13" lengthAdjust="spacing" textLength="154.813" x="500.7855" y="214.3638">solicita importar grados</text></g><!--link RequiringImport to ProvidingGrados--><g class="link" data-entity-1="RequiringImport" data-entity-2="ProvidingGrados" data-source-line="17" data-uid="lnk4" id="link_RequiringImport_ProvidingGrados"><path d="M425.122,295.5669 C425.122,323.2769 425.122,362.3369 425.122,390.0369" fill="none" id="RequiringImport-to-ProvidingGrados" style="stroke:#008000;stroke-width:1;"/><polygon fill="#008000" points="425.122,396.0369,429.122,387.0369,425.122,391.0369,421.122,387.0369,425.122,396.0369" style="stroke:#008000;stroke-width:1;"/><path d="M430.122,318.2969 L430.122,373.2969 L646.122,373.2969 L646.122,328.2969 L636.122,318.2969 L430.122,318.2969" fill="#FEFFDD" style="stroke:#181818;stroke-width:0.5;"/><path d="M636.122,318.2969 L636.122,328.2969 L646.122,328.2969 L636.122,318.2969" fill="#FEFFDD" style="stroke:#181818;stroke-width:0.5;"/><text fill="#000000" font-family="sans-serif" font-size="13" font-weight="bold" lengthAdjust="spacing" textLength="58.9063" x="436.122" y="335.3638">Sistema</text><text fill="#000000" font-family="sans-serif" font-size="13" lengthAdjust="spacing" textLength="50.9653" x="499.1605" y="335.3638">permite</text><text fill="#000000" font-family="sans-serif" font-size="13" lengthAdjust="spacing" textLength="195.7808" x="436.122" y="350.4966">&#8226; introducir grados a importar</text><text fill="#000000" font-family="sans-serif" font-size="13" lengthAdjust="spacing" textLength="141.4639" x="436.122" y="365.6294">&#8226; salir de importaci&#243;n</text></g><!--link ProvidingGrados to ProvidingConfirmation--><g class="link" data-entity-1="ProvidingGrados" data-entity-2="ProvidingConfirmation" data-source-line="24" data-uid="lnk5" id="link_ProvidingGrados_ProvidingConfirmation"><path d="M450.202,426.8769 C554.072,445.8569 945.122,517.2969 945.122,517.2969 C945.122,517.2969 946.2006,517.9646 953.6506,522.5446" fill="none" id="ProvidingGrados-to-ProvidingConfirmation" style="stroke:#008000;stroke-width:1;"/><polygon fill="#008000" points="958.762,525.6869,953.1898,517.5659,954.5025,523.0683,949.0001,524.381,958.762,525.6869" style="stroke:#008000;stroke-width:1;"/><path d="M850.122,469.2969 L850.122,494.2969 L1118.122,494.2969 L1118.122,479.2969 L1108.122,469.2969 L850.122,469.2969" fill="#FEFFDD" style="stroke:#181818;stroke-width:0.5;"/><path d="M1108.122,469.2969 L1108.122,479.2969 L1118.122,479.2969 L1108.122,469.2969" fill="#FEFFDD" style="stroke:#181818;stroke-width:0.5;"/><text fill="#000000" font-family="sans-serif" font-size="13" font-weight="bold" lengthAdjust="spacing" textLength="60.5313" x="856.122" y="486.3638">Docente</text><text fill="#000000" font-family="sans-serif" font-size="13" lengthAdjust="spacing" textLength="183.022" x="920.7855" y="486.3638">introduce grados a importar</text></g><!--link ProvidingConfirmation to c--><g class="link" data-entity-1="ProvidingConfirmation" data-entity-2="c" data-source-line="29" data-uid="lnk6" id="link_ProvidingConfirmation_c"><path d="M958.762,558.9069 C951.312,563.4869 945.122,567.2969 945.122,567.2969 C945.122,567.2969 568.122,650.2969 568.122,650.2969 C568.122,650.2969 472.2024,669.7549 440.3824,676.2049" fill="none" id="ProvidingConfirmation-to-c" style="stroke:#008000;stroke-width:1;"/><polygon fill="#008000" points="434.502,677.3969,444.1172,679.5292,439.4023,676.4036,442.5279,671.6886,434.502,677.3969" style="stroke:#008000;stroke-width:1;"/><path d="M858.122,590.2969 L858.122,645.2969 L1035.122,645.2969 L1035.122,600.2969 L1025.122,590.2969 L858.122,590.2969" fill="#FEFFDD" style="stroke:#181818;stroke-width:0.5;"/><path d="M1025.122,590.2969 L1025.122,600.2969 L1035.122,600.2969 L1025.122,590.2969" fill="#FEFFDD" style="stroke:#181818;stroke-width:0.5;"/><text fill="#000000" font-family="sans-serif" font-size="13" font-weight="bold" lengthAdjust="spacing" textLength="58.9063" x="864.122" y="607.3638">Sistema</text><text fill="#000000" font-family="sans-serif" font-size="13" lengthAdjust="spacing" textLength="50.9653" x="927.1605" y="607.3638">permite</text><text fill="#000000" font-family="sans-serif" font-size="13" lengthAdjust="spacing" textLength="156.6221" x="864.122" y="622.4966">&#8226; confirmar importaci&#243;n</text><text fill="#000000" font-family="sans-serif" font-size="13" lengthAdjust="spacing" textLength="149.1953" x="864.122" y="637.6294">&#8226; cancelar importaci&#243;n</text></g><!--link c to ProvidingGrados--><g class="link" data-entity-1="c" data-entity-2="ProvidingGrados" data-source-line="36" data-uid="lnk7" id="link_c_ProvidingGrados"><path d="M419.312,673.5869 C396.082,650.7669 311.122,567.2969 311.122,567.2969 C311.122,567.2969 311.122,517.2969 311.122,517.2969 C311.122,517.2969 361.9322,474.9474 395.4922,446.9874" fill="none" id="c-to-ProvidingGrados" style="stroke:#FF0000;stroke-width:1;"/><polygon fill="#FF0000" points="400.102,443.1469,390.6269,445.8345,396.2605,446.3473,395.7477,451.9809,400.102,443.1469" style="stroke:#FF0000;stroke-width:1;"/><path d="M316.122,529.7969 L316.122,554.7969 L527.122,554.7969 L527.122,539.7969 L517.122,529.7969 L316.122,529.7969" fill="#FEFFDD" style="stroke:#181818;stroke-width:0.5;"/><path d="M517.122,529.7969 L517.122,539.7969 L527.122,539.7969 L517.122,529.7969" fill="#FEFFDD" style="stroke:#181818;stroke-width:0.5;"/><text fill="#000000" font-family="sans-serif" font-size="13" lengthAdjust="spacing" textLength="190.6265" x="322.122" y="546.8638">Docente cancela importaci&#243;n</text></g><!--link c to ProvidingGrados--><g class="link" data-entity-1="c" data-entity-2="ProvidingGrados" data-source-line="41" data-uid="lnk8" id="link_c_ProvidingGrados"><path d="M430.572,673.5869 C452.382,650.7669 532.122,567.2969 532.122,567.2969 C532.122,567.2969 532.122,517.2969 532.122,517.2969 C532.122,517.2969 486.3183,476.6309 454.6983,448.5509" fill="none" id="c-to-ProvidingGrados-1" style="stroke:#FF0000;stroke-width:1;"/><polygon fill="#FF0000" points="450.212,444.5669,454.2854,453.5339,453.9506,447.8869,459.5975,447.5521,450.212,444.5669" style="stroke:#FF0000;stroke-width:1;"/><path d="M537.122,529.7969 L537.122,554.7969 L914.122,554.7969 L914.122,539.7969 L904.122,529.7969 L537.122,529.7969" fill="#FEFFDD" style="stroke:#181818;stroke-width:0.5;"/><path d="M904.122,529.7969 L904.122,539.7969 L914.122,539.7969 L904.122,529.7969" fill="#FEFFDD" style="stroke:#181818;stroke-width:0.5;"/><text fill="#000000" font-family="sans-serif" font-size="13" lengthAdjust="spacing" textLength="356.605" x="543.122" y="546.8638">Docente confirma importaci&#243;n: error en la importaci&#243;n</text></g><!--link c to *end*importarGrados--><g class="link" data-entity-1="c" data-entity-2=".end.importarGrados" data-source-line="46" data-uid="lnk10" id="link_c_.end.importarGrados"><path d="M416.102,683.3869 C363.492,695.6169 102.3364,756.2895 45.5864,769.4695" fill="none" id="c-to-*end*importarGrados" style="stroke:#008000;stroke-width:1;"/><polygon fill="#008000" points="39.742,770.8269,49.4136,772.6871,44.6124,769.6957,47.6037,764.8945,39.742,770.8269" style="stroke:#008000;stroke-width:1;"/><path d="M302.122,715.2969 L302.122,740.2969 L658.122,740.2969 L658.122,725.2969 L648.122,715.2969 L302.122,715.2969" fill="#FEFFDD" style="stroke:#181818;stroke-width:0.5;"/><path d="M648.122,715.2969 L648.122,725.2969 L658.122,725.2969 L648.122,715.2969" fill="#FEFFDD" style="stroke:#181818;stroke-width:0.5;"/><text fill="#000000" font-family="sans-serif" font-size="13" lengthAdjust="spacing" textLength="335.6323" x="308.122" y="732.3638">Docente confirma importaci&#243;n: importaci&#243;n exitosa</text></g><!--link ProvidingGrados to *end*importarGrados--><g class="link" data-entity-1="ProvidingGrados" data-entity-2=".end.importarGrados" data-source-line="51" data-uid="lnk11" id="link_ProvidingGrados_.end.importarGrados"><path d="M400.122,433.3769 C317.292,470.0569 57.122,585.2969 57.122,585.2969 C57.122,585.2969 37.325,718.2022 31.515,757.2522" fill="none" id="ProvidingGrados-to-*end*importarGrados" style="stroke:#0000FF;stroke-width:1;"/><polygon fill="#0000FF" points="30.632,763.1869,35.9129,754.8735,31.3678,758.2413,28,753.6962,30.632,763.1869" style="stroke:#0000FF;stroke-width:1;"/><path d="M62.122,605.2969 L62.122,630.2969 L321.122,630.2969 L321.122,615.2969 L311.122,605.2969 L62.122,605.2969" fill="#FEFFDD" style="stroke:#181818;stroke-width:0.5;"/><path d="M311.122,605.2969 L311.122,615.2969 L321.122,615.2969 L311.122,605.2969" fill="#FEFFDD" style="stroke:#181818;stroke-width:0.5;"/><text fill="#000000" font-family="sans-serif" font-size="13" lengthAdjust="spacing" textLength="238.145" x="68.122" y="622.3638">Docente solicita salir de importaci&#243;n</text></g><g id="GRADOS_ABIERTO"><rect fill="#F1F1F1" height="50" rx="12.5" ry="12.5" style="stroke:#181818;stroke-width:0.5;" width="149.2949" x="492.5" y="7"/><line style="stroke:#181818;stroke-width:0.5;" x1="492.5" x2="641.7949" y1="33.2969" y2="33.2969"/><text fill="#000000" font-family="sans-serif" font-size="14" lengthAdjust="spacing" textLength="129.2949" x="502.5" y="24.9951">GRADOS_ABIERTO</text></g><!--link GRADOS_ABIERTO to importarGrados--><g class="link" data-entity-1="GRADOS_ABIERTO" data-entity-2="importarGrados" data-source-line="57" data-uid="lnk13" id="link_GRADOS_ABIERTO_importarGrados"><path d="M567,57.2 C567,71.92 567,86.51 567,110.65" fill="none" id="GRADOS_ABIERTO-to-importarGrados" style="stroke:#008000;stroke-width:1;"/><polygon fill="#008000" points="567,116.65,571,107.65,567,111.65,563,107.65,567,116.65" style="stroke:#008000;stroke-width:1;"/></g><!--link importarGrados to GRADOS_ABIERTO2--><g class="link" data-entity-1="importarGrados" data-entity-2="GRADOS_ABIERTO2" data-source-line="58" data-uid="lnk14" id="link_importarGrados_GRADOS_ABIERTO2"><path d="M567,795.12 C567,819.4 567,834.1 567,848.86" fill="none" id="importarGrados-to-GRADOS_ABIERTO2" style="stroke:#008000;stroke-width:1;"/><polygon fill="#008000" points="567,854.86,571,845.86,567,849.86,563,845.86,567,854.86" style="stroke:#008000;stroke-width:1;"/></g><!--SRC=[jLJHIiCm57tlLrpgYmf3y55AOMuozZJPV1j3ilGwBskJccJY4C5lyHVy1F_4Bp5hrwxfEgs2oLDoJ-uvzoIvUaaYPOeb49D0iquHKXclDmlFquOPXC6usnzDRhkNmwlnpUWSc0RVtVCBA2MfL8QfWMAHr1dItJe-yU7Pyy2E_8HlfuMDyM55YiHYcC7t0TTAFb9a0NcURm0zAUv89SoG51KOXo3Wzv8uXc4kO7ewWyxqQA4GnQmJDceGqXwLOcFECji8vc5VSXG6WxDv25h6nCcmid9OxFIXYF84TkIKDGg7lgd29le9QOC9o-XJL0bPI1RxV7q34aR9QCMf408xQIL8izZ6e_AwE7sy2qTnhhQcg5djdjq_MLP8n0CA3sYeyZXA-6-SAZtWstHgtuGip0J7k2dgokCRAGgZrXUuTQ8W-B_ys_eSWWj0fQIo7D2IkdJPVfO_4LPNW4zaf6OkMVOx3ZotURp2LkpbFspnjbyypsrVJg5kl_9g7QsAhFN5Bm00]--></g></svg>