<?plantuml 1.2026.2?><svg xmlns="http://www.w3.org/2000/svg" xmlns:xlink="http://www.w3.org/1999/xlink" contentStyleType="text/css" data-diagram-type="SEQUENCE" height="926px" preserveAspectRatio="none" style="width:2138px;height:926px;background:#FFFFFF;" version="1.1" viewBox="0 0 2138 926" width="2138px" zoomAndPan="magnify"><title>Diagrama de Secuencia - Crear Asignatura (Spring Boot + React)</title><defs/><g><text fill="#000000" font-family="sans-serif" font-size="14" font-weight="bold" lengthAdjust="spacing" textLength="512.3945" x="814.3516" y="27.9951">Diagrama de Secuencia - Crear Asignatura (Spring Boot + React)</text><g><title>Frontend .React.</title><rect fill="#FFFFFF" height="588.3906" style="stroke:#181818;stroke-width:1;" width="10" x="382.7808" y="149.7266"/></g><g><title>AsignaturasController</title><rect fill="#FFFFFF" height="330.3281" style="stroke:#181818;stroke-width:1;" width="10" x="747.4956" y="294.3906"/></g><g><title>AsignaturasController</title><rect fill="#FFFFFF" height="264.0625" style="stroke:#181818;stroke-width:1;" width="10" x="752.4956" y="331.5234"/></g><g><title>AsignaturaService</title><rect fill="#FFFFFF" height="229.9297" style="stroke:#181818;stroke-width:1;" width="10" x="1109.9805" y="365.6563"/></g><g><title>AsignaturaRepository</title><rect fill="#FFFFFF" height="87.3984" style="stroke:#181818;stroke-width:1;" width="10" x="1416.8345" y="479.0547"/></g><g><title>Base de Datos .PostgreSQL.</title><rect fill="#FFFFFF" height="29.1328" style="stroke:#181818;stroke-width:1;" width="10" x="2030.4346" y="508.1875"/></g><rect fill="none" height="75.3984" style="stroke:#000000;stroke-width:1.5;" width="835.6274" x="10" y="753.1172"/><g class="participant-lifeline" data-entity-uid="part1" data-qualified-name="Teacher" id="part1-lifeline"><g><title>Docente</title><rect fill="#000000" fill-opacity="0.00000" height="726.9219" width="8" x="48.3159" y="118.5938"/><line style="stroke:#181818;stroke-width:0.5;stroke-dasharray:5,5;" x1="52" x2="52" y1="118.5938" y2="845.5156"/></g></g><g class="participant-lifeline" data-entity-uid="part2" data-qualified-name="FE" id="part2-lifeline"><g><title>Frontend .React.</title><rect fill="#000000" fill-opacity="0.00000" height="726.9219" width="8" x="383.7808" y="118.5938"/><line style="stroke:#181818;stroke-width:0.5;stroke-dasharray:5,5;" x1="387.4858" x2="387.4858" y1="118.5938" y2="845.5156"/></g></g><g class="participant-lifeline" data-entity-uid="part3" data-qualified-name="Controller" id="part3-lifeline"><g><title>AsignaturasController</title><rect fill="#000000" fill-opacity="0.00000" height="726.9219" width="8" x="748.4956" y="118.5938"/><line style="stroke:#181818;stroke-width:0.5;stroke-dasharray:5,5;" x1="752.3638" x2="752.3638" y1="118.5938" y2="845.5156"/></g></g><g class="participant-lifeline" data-entity-uid="part4" data-qualified-name="Service" id="part4-lifeline"><g><title>AsignaturaService</title><rect fill="#000000" fill-opacity="0.00000" height="726.9219" width="8" x="1110.9805" y="118.5938"/><line style="stroke:#181818;stroke-width:0.5;stroke-dasharray:5,5;" x1="1114.2114" x2="1114.2114" y1="118.5938" y2="845.5156"/></g></g><g class="participant-lifeline" data-entity-uid="part5" data-qualified-name="Repo" id="part5-lifeline"><g><title>AsignaturaRepository</title><rect fill="#000000" fill-opacity="0.00000" height="726.9219" width="8" x="1417.8345" y="118.5938"/><line style="stroke:#181818;stroke-width:0.5;stroke-dasharray:5,5;" x1="1421.3999" x2="1421.3999" y1="118.5938" y2="845.5156"/></g></g><g class="participant-lifeline" data-entity-uid="part6" data-qualified-name="DB" id="part6-lifeline"><g><title>Base de Datos .PostgreSQL.</title><rect fill="#000000" fill-opacity="0.00000" height="726.9219" width="8" x="2031.4346" y="118.5938"/><line style="stroke:#181818;stroke-width:0.5;stroke-dasharray:5,5;" x1="2034.7715" x2="2034.7715" y1="118.5938" y2="845.5156"/></g></g><g class="participant participant-head" data-entity-uid="part1" data-qualified-name="Teacher" id="part1-head"><text fill="#000000" font-family="sans-serif" font-size="14" lengthAdjust="spacing" textLength="58.6318" x="20" y="115.292">Docente</text><ellipse cx="52.3159" cy="50.7969" fill="#E2E2F0" rx="8" ry="8" style="stroke:#181818;stroke-width:0.5;"/><path d="M52.3159,58.7969 L52.3159,85.7969 M39.3159,66.7969 L65.3159,66.7969 M52.3159,85.7969 L39.3159,100.7969 M52.3159,85.7969 L65.3159,100.7969" fill="none" style="stroke:#181818;stroke-width:0.5;"/></g><g class="participant participant-tail" data-entity-uid="part1" data-qualified-name="Teacher" id="part1-tail"><text fill="#000000" font-family="sans-serif" font-size="14" lengthAdjust="spacing" textLength="58.6318" x="20" y="857.5107">Docente</text><ellipse cx="52.3159" cy="869.3125" fill="#E2E2F0" rx="8" ry="8" style="stroke:#181818;stroke-width:0.5;"/><path d="M52.3159,877.3125 L52.3159,904.3125 M39.3159,885.3125 L65.3159,885.3125 M52.3159,904.3125 L39.3159,919.3125 M52.3159,904.3125 L65.3159,919.3125" fill="none" style="stroke:#181818;stroke-width:0.5;"/></g><g class="participant participant-head" data-entity-uid="part2" data-qualified-name="FE" id="part2-head"><rect fill="#E2E2F0" height="30.2969" rx="2.5" ry="2.5" style="stroke:#181818;stroke-width:0.5;" width="132.5898" x="321.4858" y="87.2969"/><text fill="#000000" font-family="sans-serif" font-size="14" lengthAdjust="spacing" textLength="118.5898" x="328.4858" y="107.292">Frontend (React)</text></g><g class="participant participant-tail" data-entity-uid="part2" data-qualified-name="FE" id="part2-tail"><rect fill="#E2E2F0" height="30.2969" rx="2.5" ry="2.5" style="stroke:#181818;stroke-width:0.5;" width="132.5898" x="321.4858" y="844.5156"/><text fill="#000000" font-family="sans-serif" font-size="14" lengthAdjust="spacing" textLength="118.5898" x="328.4858" y="864.5107">Frontend (React)</text></g><g class="participant participant-head" data-entity-uid="part3" data-qualified-name="Controller" id="part3-head"><rect fill="#E2E2F0" height="30.2969" rx="2.5" ry="2.5" style="stroke:#181818;stroke-width:0.5;" width="166.2637" x="669.3638" y="87.2969"/><text fill="#000000" font-family="sans-serif" font-size="14" lengthAdjust="spacing" textLength="152.2637" x="676.3638" y="107.292">AsignaturasController</text></g><g class="participant participant-tail" data-entity-uid="part3" data-qualified-name="Controller" id="part3-tail"><rect fill="#E2E2F0" height="30.2969" rx="2.5" ry="2.5" style="stroke:#181818;stroke-width:0.5;" width="166.2637" x="669.3638" y="844.5156"/><text fill="#000000" font-family="sans-serif" font-size="14" lengthAdjust="spacing" textLength="152.2637" x="676.3638" y="864.5107">AsignaturasController</text></g><g class="participant participant-head" data-entity-uid="part4" data-qualified-name="Service" id="part4-head"><rect fill="#E2E2F0" height="30.2969" rx="2.5" ry="2.5" style="stroke:#181818;stroke-width:0.5;" width="141.5381" x="1044.2114" y="87.2969"/><text fill="#000000" font-family="sans-serif" font-size="14" lengthAdjust="spacing" textLength="127.5381" x="1051.2114" y="107.292">AsignaturaService</text></g><g class="participant participant-tail" data-entity-uid="part4" data-qualified-name="Service" id="part4-tail"><rect fill="#E2E2F0" height="30.2969" rx="2.5" ry="2.5" style="stroke:#181818;stroke-width:0.5;" width="141.5381" x="1044.2114" y="844.5156"/><text fill="#000000" font-family="sans-serif" font-size="14" lengthAdjust="spacing" textLength="127.5381" x="1051.2114" y="864.5107">AsignaturaService</text></g><g class="participant participant-head" data-entity-uid="part5" data-qualified-name="Repo" id="part5-head"><rect fill="#E2E2F0" height="30.2969" rx="2.5" ry="2.5" style="stroke:#181818;stroke-width:0.5;" width="164.8691" x="1339.3999" y="87.2969"/><text fill="#000000" font-family="sans-serif" font-size="14" lengthAdjust="spacing" textLength="150.8691" x="1346.3999" y="107.292">AsignaturaRepository</text></g><g class="participant participant-tail" data-entity-uid="part5" data-qualified-name="Repo" id="part5-tail"><rect fill="#E2E2F0" height="30.2969" rx="2.5" ry="2.5" style="stroke:#181818;stroke-width:0.5;" width="164.8691" x="1339.3999" y="844.5156"/><text fill="#000000" font-family="sans-serif" font-size="14" lengthAdjust="spacing" textLength="150.8691" x="1346.3999" y="864.5107">AsignaturaRepository</text></g><g class="participant participant-head" data-entity-uid="part6" data-qualified-name="DB" id="part6-head"><text fill="#000000" font-family="sans-serif" font-size="14" lengthAdjust="spacing" textLength="197.3262" x="1933.7715" y="115.292">Base de Datos (PostgreSQL)</text><path d="M2017.4346,66.2969 C2017.4346,56.2969 2035.4346,56.2969 2035.4346,56.2969 C2035.4346,56.2969 2053.4346,56.2969 2053.4346,66.2969 L2053.4346,92.2969 C2053.4346,102.2969 2035.4346,102.2969 2035.4346,102.2969 C2035.4346,102.2969 2017.4346,102.2969 2017.4346,92.2969 L2017.4346,66.2969" fill="#E2E2F0" style="stroke:#181818;stroke-width:0.5;"/><path d="M2017.4346,66.2969 C2017.4346,76.2969 2035.4346,76.2969 2035.4346,76.2969 C2035.4346,76.2969 2053.4346,76.2969 2053.4346,66.2969" fill="none" style="stroke:#181818;stroke-width:0.5;"/></g><g class="participant participant-tail" data-entity-uid="part6" data-qualified-name="DB" id="part6-tail"><text fill="#000000" font-family="sans-serif" font-size="14" lengthAdjust="spacing" textLength="197.3262" x="1933.7715" y="857.5107">Base de Datos (PostgreSQL)</text><path d="M2017.4346,870.8125 C2017.4346,860.8125 2035.4346,860.8125 2035.4346,860.8125 C2035.4346,860.8125 2053.4346,860.8125 2053.4346,870.8125 L2053.4346,896.8125 C2053.4346,906.8125 2035.4346,906.8125 2035.4346,906.8125 C2035.4346,906.8125 2017.4346,906.8125 2017.4346,896.8125 L2017.4346,870.8125" fill="#E2E2F0" style="stroke:#181818;stroke-width:0.5;"/><path d="M2017.4346,870.8125 C2017.4346,880.8125 2035.4346,880.8125 2035.4346,880.8125 C2035.4346,880.8125 2053.4346,880.8125 2053.4346,870.8125" fill="none" style="stroke:#181818;stroke-width:0.5;"/></g><g><title>Frontend .React.</title><rect fill="#FFFFFF" height="588.3906" style="stroke:#181818;stroke-width:1;" width="10" x="382.7808" y="149.7266"/></g><g><title>AsignaturasController</title><rect fill="#FFFFFF" height="330.3281" style="stroke:#181818;stroke-width:1;" width="10" x="747.4956" y="294.3906"/></g><g><title>AsignaturasController</title><rect fill="#FFFFFF" height="264.0625" style="stroke:#181818;stroke-width:1;" width="10" x="752.4956" y="331.5234"/></g><g><title>AsignaturaService</title><rect fill="#FFFFFF" height="229.9297" style="stroke:#181818;stroke-width:1;" width="10" x="1109.9805" y="365.6563"/></g><g><title>AsignaturaRepository</title><rect fill="#FFFFFF" height="87.3984" style="stroke:#181818;stroke-width:1;" width="10" x="1416.8345" y="479.0547"/></g><g><title>Base de Datos .PostgreSQL.</title><rect fill="#FFFFFF" height="29.1328" style="stroke:#181818;stroke-width:1;" width="10" x="2030.4346" y="508.1875"/></g><g class="message" data-entity-1="part1" data-entity-2="part2" id="msg1"><polygon fill="#181818" points="370.7808,145.7266,380.7808,149.7266,370.7808,153.7266,374.7808,149.7266" style="stroke:#181818;stroke-width:1;"/><line style="stroke:#181818;stroke-width:1;" x1="52.3159" x2="376.7808" y1="149.7266" y2="149.7266"/><text fill="#000000" font-family="sans-serif" font-size="13" lengthAdjust="spacing" textLength="176.0459" x="59.3159" y="144.6606">Clic en "Nueva Asignatura"</text></g><g class="message" data-entity-1="part2" data-entity-2="part1" id="msg2"><polygon fill="#181818" points="63.3159,174.8594,53.3159,178.8594,63.3159,182.8594,59.3159,178.8594" style="stroke:#181818;stroke-width:1;"/><line style="stroke:#181818;stroke-width:1;stroke-dasharray:2,2;" x1="57.3159" x2="381.7808" y1="178.8594" y2="178.8594"/><text fill="#000000" font-family="sans-serif" font-size="13" lengthAdjust="spacing" textLength="233.9619" x="69.3159" y="173.7935">Mostrar Formulario (datos m&#237;nimos)</text></g><g class="message" data-entity-1="part1" data-entity-2="part2" id="msg3"><polygon fill="#181818" points="370.7808,203.9922,380.7808,207.9922,370.7808,211.9922,374.7808,207.9922" style="stroke:#181818;stroke-width:1;"/><line style="stroke:#181818;stroke-width:1;" x1="52.3159" x2="376.7808" y1="207.9922" y2="207.9922"/><text fill="#000000" font-family="sans-serif" font-size="13" lengthAdjust="spacing" textLength="306.4648" x="59.3159" y="202.9263">Ingresa datos (t&#237;tulo, c&#243;digo, curso acad&#233;mico)</text></g><g class="message" data-entity-1="part2" data-entity-2="part2" id="msg4"><line style="stroke:#181818;stroke-width:1;" x1="392.7808" x2="434.7808" y1="237.125" y2="237.125"/><line style="stroke:#181818;stroke-width:1;" x1="434.7808" x2="434.7808" y1="237.125" y2="250.125"/><line style="stroke:#181818;stroke-width:1;" x1="393.7808" x2="434.7808" y1="250.125" y2="250.125"/><polygon fill="#181818" points="403.7808,246.125,393.7808,250.125,403.7808,254.125,399.7808,250.125" style="stroke:#181818;stroke-width:1;"/><text fill="#000000" font-family="sans-serif" font-size="13" lengthAdjust="spacing" textLength="198.3516" x="399.7808" y="232.0591">Validar formulario (client-side)</text></g><g class="message" data-entity-1="part2" data-entity-2="part3" id="msg5"><polygon fill="#181818" points="735.4956,290.3906,745.4956,294.3906,735.4956,298.3906,739.4956,294.3906" style="stroke:#181818;stroke-width:1;"/><line style="stroke:#181818;stroke-width:1;" x1="392.7808" x2="741.4956" y1="294.3906" y2="294.3906"/><text fill="#000000" font-family="sans-serif" font-size="13" lengthAdjust="spacing" textLength="335.7148" x="399.7808" y="274.1919">POST /api/asignaturas (AsignaturaCreateDTO JSON)</text><text fill="#000000" font-family="sans-serif" font-size="13" lengthAdjust="spacing" textLength="267.8774" x="399.7808" y="289.3247">(Header: Authorization: Bearer &lt;token&gt;)</text></g><g class="message" data-entity-1="part3" data-entity-2="part3" id="msg6"><line style="stroke:#181818;stroke-width:1;" x1="757.4956" x2="804.4956" y1="318.5234" y2="318.5234"/><line style="stroke:#181818;stroke-width:1;" x1="804.4956" x2="804.4956" y1="318.5234" y2="331.5234"/><line style="stroke:#181818;stroke-width:1;" x1="763.4956" x2="804.4956" y1="331.5234" y2="331.5234"/><polygon fill="#181818" points="773.4956,327.5234,763.4956,331.5234,773.4956,335.5234,769.4956,331.5234" style="stroke:#181818;stroke-width:1;"/><text fill="#000000" font-family="sans-serif" font-size="13" lengthAdjust="spacing" textLength="169.1016" x="769.4956" y="313.4575">extraer docenteId del JWT</text></g><g class="message" data-entity-1="part3" data-entity-2="part4" id="msg7"><polygon fill="#181818" points="1097.9805,361.6563,1107.9805,365.6563,1097.9805,369.6563,1101.9805,365.6563" style="stroke:#181818;stroke-width:1;"/><line style="stroke:#181818;stroke-width:1;" x1="762.4956" x2="1103.9805" y1="365.6563" y2="365.6563"/><text fill="#000000" font-family="sans-serif" font-size="13" lengthAdjust="spacing" textLength="328.4849" x="769.4956" y="360.5903">crearAsignatura(asignaturaCreateDTO, docenteId)</text></g><g class="message" data-entity-1="part4" data-entity-2="part4" id="msg8"><line style="stroke:#181818;stroke-width:1;" x1="1119.9805" x2="1161.9805" y1="394.7891" y2="394.7891"/><line style="stroke:#181818;stroke-width:1;" x1="1161.9805" x2="1161.9805" y1="394.7891" y2="407.7891"/><line style="stroke:#181818;stroke-width:1;" x1="1120.9805" x2="1161.9805" y1="407.7891" y2="407.7891"/><polygon fill="#181818" points="1130.9805,403.7891,1120.9805,407.7891,1130.9805,411.7891,1126.9805,407.7891" style="stroke:#181818;stroke-width:1;"/><text fill="#000000" font-family="sans-serif" font-size="13" lengthAdjust="spacing" textLength="146.9229" x="1126.9805" y="389.7231">Mapear DTO a Entidad</text></g><g class="message" data-entity-1="part4" data-entity-2="part4" id="msg9"><line style="stroke:#181818;stroke-width:1;" x1="1119.9805" x2="1161.9805" y1="436.9219" y2="436.9219"/><line style="stroke:#181818;stroke-width:1;" x1="1161.9805" x2="1161.9805" y1="436.9219" y2="449.9219"/><line style="stroke:#181818;stroke-width:1;" x1="1120.9805" x2="1161.9805" y1="449.9219" y2="449.9219"/><polygon fill="#181818" points="1130.9805,445.9219,1120.9805,449.9219,1130.9805,453.9219,1126.9805,449.9219" style="stroke:#181818;stroke-width:1;"/><text fill="#000000" font-family="sans-serif" font-size="13" lengthAdjust="spacing" textLength="272.854" x="1126.9805" y="431.856">Asociar asignatura al docente (docenteId)</text></g><g class="message" data-entity-1="part4" data-entity-2="part5" id="msg10"><polygon fill="#181818" points="1404.8345,475.0547,1414.8345,479.0547,1404.8345,483.0547,1408.8345,479.0547" style="stroke:#181818;stroke-width:1;"/><line style="stroke:#181818;stroke-width:1;" x1="1119.9805" x2="1410.8345" y1="479.0547" y2="479.0547"/><text fill="#000000" font-family="sans-serif" font-size="13" lengthAdjust="spacing" textLength="110.0303" x="1126.9805" y="473.9888">save(asignatura)</text></g><g class="message" data-entity-1="part5" data-entity-2="part6" id="msg11"><polygon fill="#181818" points="2018.4346,504.1875,2028.4346,508.1875,2018.4346,512.1875,2022.4346,508.1875" style="stroke:#181818;stroke-width:1;"/><line style="stroke:#181818;stroke-width:1;" x1="1426.8345" x2="2024.4346" y1="508.1875" y2="508.1875"/><text fill="#000000" font-family="sans-serif" font-size="13" lengthAdjust="spacing" textLength="584.6001" x="1433.8345" y="503.1216">INSERT INTO asignaturas (titulo, codigo, curso_academico, docente_id) VALUES (?, ?, ?, ?)</text></g><g class="message" data-entity-1="part6" data-entity-2="part5" id="msg12"><polygon fill="#181818" points="1437.8345,533.3203,1427.8345,537.3203,1437.8345,541.3203,1433.8345,537.3203" style="stroke:#181818;stroke-width:1;"/><line style="stroke:#181818;stroke-width:1;stroke-dasharray:2,2;" x1="1431.8345" x2="2034.4346" y1="537.3203" y2="537.3203"/><text fill="#000000" font-family="sans-serif" font-size="13" lengthAdjust="spacing" textLength="192.1118" x="1443.8345" y="532.2544">Asignatura (con ID generado)</text></g><g class="message" data-entity-1="part5" data-entity-2="part4" id="msg13"><polygon fill="#181818" points="1130.9805,562.4531,1120.9805,566.4531,1130.9805,570.4531,1126.9805,566.4531" style="stroke:#181818;stroke-width:1;"/><line style="stroke:#181818;stroke-width:1;stroke-dasharray:2,2;" x1="1124.9805" x2="1420.8345" y1="566.4531" y2="566.4531"/><text fill="#000000" font-family="sans-serif" font-size="13" lengthAdjust="spacing" textLength="70.3828" x="1136.9805" y="561.3872">Asignatura</text></g><g class="message" data-entity-1="part4" data-entity-2="part3" id="msg14"><polygon fill="#181818" points="768.4956,591.5859,758.4956,595.5859,768.4956,599.5859,764.4956,595.5859" style="stroke:#181818;stroke-width:1;"/><line style="stroke:#181818;stroke-width:1;stroke-dasharray:2,2;" x1="762.4956" x2="1113.9805" y1="595.5859" y2="595.5859"/><text fill="#000000" font-family="sans-serif" font-size="13" lengthAdjust="spacing" textLength="193.521" x="774.4956" y="590.52">AsignaturaDTO (201 Created)</text></g><g class="message" data-entity-1="part3" data-entity-2="part2" id="msg15"><polygon fill="#181818" points="403.7808,620.7188,393.7808,624.7188,403.7808,628.7188,399.7808,624.7188" style="stroke:#181818;stroke-width:1;"/><line style="stroke:#181818;stroke-width:1;stroke-dasharray:2,2;" x1="397.7808" x2="751.4956" y1="624.7188" y2="624.7188"/><text fill="#000000" font-family="sans-serif" font-size="13" lengthAdjust="spacing" textLength="229.6963" x="409.7808" y="619.6528">201 Created (AsignaturaDTO JSON)</text></g><g class="message" data-entity-1="part2" data-entity-2="part2" id="msg16"><line style="stroke:#181818;stroke-width:1;" x1="392.7808" x2="434.7808" y1="653.8516" y2="653.8516"/><line style="stroke:#181818;stroke-width:1;" x1="434.7808" x2="434.7808" y1="653.8516" y2="666.8516"/><line style="stroke:#181818;stroke-width:1;" x1="393.7808" x2="434.7808" y1="666.8516" y2="666.8516"/><polygon fill="#181818" points="403.7808,662.8516,393.7808,666.8516,403.7808,670.8516,399.7808,666.8516" style="stroke:#181818;stroke-width:1;"/><text fill="#000000" font-family="sans-serif" font-size="13" lengthAdjust="spacing" textLength="324.9683" x="399.7808" y="648.7856">Mostrar Toast "Asignatura creada correctamente"</text></g><g class="message" data-entity-1="part2" data-entity-2="part2" id="msg17"><line style="stroke:#181818;stroke-width:1;" x1="392.7808" x2="434.7808" y1="695.9844" y2="695.9844"/><line style="stroke:#181818;stroke-width:1;" x1="434.7808" x2="434.7808" y1="695.9844" y2="708.9844"/><line style="stroke:#181818;stroke-width:1;" x1="393.7808" x2="434.7808" y1="708.9844" y2="708.9844"/><polygon fill="#181818" points="403.7808,704.9844,393.7808,708.9844,403.7808,712.9844,399.7808,708.9844" style="stroke:#181818;stroke-width:1;"/><text fill="#000000" font-family="sans-serif" font-size="13" lengthAdjust="spacing" textLength="301.1646" x="399.7808" y="690.9185">Redirigir a editarAsignatura(asignaturaNueva)</text></g><g class="message" data-entity-1="part2" data-entity-2="part1" id="msg18"><polygon fill="#181818" points="63.3159,734.1172,53.3159,738.1172,63.3159,742.1172,59.3159,738.1172" style="stroke:#181818;stroke-width:1;"/><line style="stroke:#181818;stroke-width:1;stroke-dasharray:2,2;" x1="57.3159" x2="386.7808" y1="738.1172" y2="738.1172"/><text fill="#000000" font-family="sans-serif" font-size="13" lengthAdjust="spacing" textLength="195.5396" x="69.3159" y="733.0513">Mostrar Formulario de Edici&#243;n</text></g><path d="M10,753.1172 L74.4429,753.1172 L74.4429,760.25 L64.4429,770.25 L10,770.25 L10,753.1172" fill="#EEEEEE" style="stroke:#000000;stroke-width:1.5;"/><rect fill="none" height="75.3984" style="stroke:#000000;stroke-width:1.5;" width="835.6274" x="10" y="753.1172"/><text fill="#000000" font-family="sans-serif" font-size="13" font-weight="bold" lengthAdjust="spacing" textLength="19.4429" x="25" y="766.1841">alt</text><text fill="#000000" font-family="sans-serif" font-size="11" font-weight="bold" lengthAdjust="spacing" textLength="105.8374" x="89.4429" y="765.3276">[Datos Inv&#225;lidos]</text><g class="message" data-entity-1="part3" data-entity-2="part2" id="msg19"><polygon fill="#181818" points="398.7808,787.3828,388.7808,791.3828,398.7808,795.3828,394.7808,791.3828" style="stroke:#181818;stroke-width:1;"/><line style="stroke:#181818;stroke-width:1;stroke-dasharray:2,2;" x1="392.7808" x2="751.4956" y1="791.3828" y2="791.3828"/><text fill="#000000" font-family="sans-serif" font-size="13" lengthAdjust="spacing" textLength="232.7749" x="404.7808" y="786.3169">400 Bad Request (validation errors)</text></g><g class="message" data-entity-1="part2" data-entity-2="part1" id="msg20"><polygon fill="#181818" points="63.3159,816.5156,53.3159,820.5156,63.3159,824.5156,59.3159,820.5156" style="stroke:#181818;stroke-width:1;"/><line style="stroke:#181818;stroke-width:1;stroke-dasharray:2,2;" x1="57.3159" x2="386.7808" y1="820.5156" y2="820.5156"/><text fill="#000000" font-family="sans-serif" font-size="13" lengthAdjust="spacing" textLength="191.1533" x="69.3159" y="815.4497">Mostrar errores de validaci&#243;n</text></g><?plantuml-src ZLNDRjim3BxxAOYSRAn1ks6dOEWGrmcMed-Bi-uoeE0ipXNcI9aa1zlUPiSTUkeZvCL6sKwiT0tG8B1bYnG_Vln8E-agWanYQN2980XoAcfIXKGOmfaXD32sibJeQeCGvoiZLGcfrWvUmPomS4aKyLKR66Iw8ELe06XXmLltPA8L6YSBkKBbO30rclULWBZrR2odatsZFfmzOtEZgufCOza_7lB8oQnbqIBereTCvxJILZBkNusrVum4EloAbc2G-YkpaQ7J5k8RRLrfAFzuqMBEqYZgCeJXAQSmWhDA5a0A1bSrhJ4WRU3faMjqv5ETJc387ftp22xvPCCaJxLPrXKQgI4MJT3bva79fRR9qqWpnL0i5wl5vZOFhgxq4HIRHo5BlwYDrO05YitVfInqqaHjdM-naeBZVGlY5PNakWsj5BGrxQaUmSrrle1ZNCbZx4i3SP-XbucZR74Dv_drLV95nHy8XNSTr-vU6_aRdTHg12dBYVDuv_HtKgT9JqnGsNxv50VzPARujMXbDXDSe0hEFozUS4udXX4KNj8zz1Z_p-AeZn10tCgfk-yTUeahtoYU0OI9SiomUDPmR3Ltbe4-Ac2r3SU5x-C6tbwQ8x2ufW1jWAoHhhzuuonbWLpba_c2RnvFM38dEwNeG2XtNYZaTR9B_4wA16x75vycESJlZw3x1p6v0RAqKNABBfmHXLOmow0aHGO5gqzGwDSYtMTbwnoQDcdjQ7YYXTx5anw_ENaDRVt4NhXjqO9N1oJIjKTmKAZmdROFdDJtrxQV5nhjthnfb2VufesXmk6o6PM1vvo4DBAKh0xWfJiWqsQy92-P8po-9e8dt-PHXR1v24LOkMwqpTHwyuT7WhOHyEyPIjwUd42AWl7zg8bpYjVD2F4T3MICDZoXlElppFYTGrWRRx8UQ7jcYvK_4Fy0?></g></svg>