<svg xmlns="http://www.w3.org/2000/svg" xmlns:xlink="http://www.w3.org/1999/xlink" contentStyleType="text/css" data-diagram-type="STATE" height="776px" preserveAspectRatio="none" style="width:531px;height:776px;background:#FFFFFF;" version="1.1" viewBox="0 0 531 776" width="531px" zoomAndPan="magnify"><defs/><g><g id="ALUMNOS_ABIERTO"><rect fill="#F1F1F1" height="50" rx="12.5" ry="12.5" style="stroke:#181818;stroke-width:0.5;" width="158.5371" x="151.5" y="7"/><line style="stroke:#181818;stroke-width:0.5;" x1="151.5" x2="310.0371" y1="33.2969" y2="33.2969"/><text fill="#000000" font-family="sans-serif" font-size="14" lengthAdjust="spacing" textLength="138.5371" x="161.5" y="24.9951">ALUMNOS_ABIERTO</text></g><g id="ALUMNOS_ABIERTO2"><rect fill="#F1F1F1" height="50" rx="12.5" ry="12.5" style="stroke:#181818;stroke-width:0.5;" width="158.5371" x="57.5" y="720"/><line style="stroke:#181818;stroke-width:0.5;" x1="57.5" x2="216.0371" y1="746.2969" y2="746.2969"/><text fill="#000000" font-family="sans-serif" font-size="14" lengthAdjust="spacing" textLength="138.5371" x="67.5" y="737.9951">ALUMNOS_ABIERTO</text></g><path d="M19.5,118 L442.5,118 A12.5,12.5 0 0 1 455,130.5 L455,144.2969 L7,144.2969 L7,130.5 A12.5,12.5 0 0 1 19.5,118" fill="#F1F1F1"/><rect fill="none" height="507.2969" rx="12.5" ry="12.5" style="stroke:#181818;stroke-width:0.5;" width="448" x="7" y="118"/><line style="stroke:#181818;stroke-width:0.5;" x1="7" x2="455" y1="144.2969" y2="144.2969"/><text fill="#000000" font-family="sans-serif" font-size="14" lengthAdjust="spacing" textLength="100.7412" x="180.6294" y="135.9951">crearAlumno()</text><g id="crearAlumno.SolicitandoDatos"><rect fill="#F1F1F1" height="50" rx="12.5" ry="12.5" style="stroke:#181818;stroke-width:0.5;" width="50" x="19" y="246.2969"/><line style="stroke:#181818;stroke-width:0.5;" x1="19" x2="69" y1="272.5938" y2="272.5938"/><text fill="#000000" font-family="sans-serif" font-size="14" lengthAdjust="spacing" textLength="4.4502" x="41.7749" y="264.292">&#160;</text></g><g id="crearAlumno.CreandoAlumno"><rect fill="#F1F1F1" height="50" rx="12.5" ry="12.5" style="stroke:#181818;stroke-width:0.5;" width="50" x="19" y="457.2969"/><line style="stroke:#181818;stroke-width:0.5;" x1="19" x2="69" y1="483.5938" y2="483.5938"/><text fill="#000000" font-family="sans-serif" font-size="14" lengthAdjust="spacing" textLength="4.4502" x="41.7749" y="475.292">&#160;</text></g><ellipse cx="44" cy="165.2969" fill="#222222" rx="10" ry="10" style="stroke:#222222;stroke-width:1;"/><ellipse cx="44" cy="604.2969" fill="none" rx="11" ry="11" style="stroke:#222222;stroke-width:1;"/><ellipse cx="44" cy="604.2969" fill="#222222" rx="6" ry="6" style="stroke:#222222;stroke-width:1;"/><!--link *start*crearAlumno to SolicitandoDatos--><g class="link" data-entity-1=".start.crearAlumno" data-entity-2="SolicitandoDatos" data-source-line="13" data-uid="lnk4" id="link_.start.crearAlumno_SolicitandoDatos"><path d="M44,175.5269 C44,191.2369 44,217.6569 44,240.1669" fill="none" id="*start*crearAlumno-to-SolicitandoDatos" style="stroke:#008000;stroke-width:1;"/><polygon fill="#008000" points="44,246.1669,48,237.1669,44,241.1669,40,237.1669,44,246.1669" style="stroke:#008000;stroke-width:1;"/><path d="M49,198.2969 L49,223.2969 L315,223.2969 L315,208.2969 L305,198.2969 L49,198.2969" fill="#FEFFDD" style="stroke:#181818;stroke-width:0.5;"/><path d="M305,198.2969 L305,208.2969 L315,208.2969 L305,198.2969" fill="#FEFFDD" style="stroke:#181818;stroke-width:0.5;"/><text fill="#000000" font-family="sans-serif" font-size="13" font-weight="bold" lengthAdjust="spacing" textLength="60.5313" x="55" y="215.3638">Docente</text><text fill="#000000" font-family="sans-serif" font-size="13" lengthAdjust="spacing" textLength="180.7686" x="119.6636" y="215.3638">solicita crear alumno nuevo</text></g><!--link SolicitandoDatos to CreandoAlumno--><g class="link" data-entity-1="SolicitandoDatos" data-entity-2="CreandoAlumno" data-source-line="18" data-uid="lnk5" id="link_SolicitandoDatos_CreandoAlumno"><path d="M44,296.6769 C44,336.9569 44,410.8969 44,451.0669" fill="none" id="SolicitandoDatos-to-CreandoAlumno" style="stroke:#008000;stroke-width:1;"/><polygon fill="#008000" points="44,457.0669,48,448.0669,44,452.0669,40,448.0669,44,457.0669" style="stroke:#008000;stroke-width:1;"/><path d="M49,319.2969 L49,434.2969 L446,434.2969 L446,329.2969 L436,319.2969 L49,319.2969" fill="#FEFFDD" style="stroke:#181818;stroke-width:0.5;"/><path d="M436,319.2969 L436,329.2969 L446,329.2969 L436,319.2969" fill="#FEFFDD" style="stroke:#181818;stroke-width:0.5;"/><text fill="#000000" font-family="sans-serif" font-size="13" font-weight="bold" lengthAdjust="spacing" textLength="58.9063" x="55" y="336.3638">Sistema</text><text fill="#000000" font-family="sans-serif" font-size="13" lengthAdjust="spacing" textLength="313.1045" x="118.0386" y="336.3638">presenta solicitud de datos m&#237;nimos del alumno</text><text fill="#000000" font-family="sans-serif" font-size="13" lengthAdjust="spacing" textLength="147.6211" x="55" y="351.4966">&#8226; Nombre (obligatorio)</text><text fill="#000000" font-family="sans-serif" font-size="13" lengthAdjust="spacing" textLength="154.6416" x="55" y="366.6294">&#8226; Apellidos (obligatorio)</text><text fill="#000000" font-family="sans-serif" font-size="13" lengthAdjust="spacing" textLength="119.2534" x="55" y="381.7622">&#8226; DNI (obligatorio)</text><text fill="#000000" font-family="sans-serif" font-size="13" lengthAdjust="spacing" textLength="4.1323" x="55" y="396.895">&#160;</text><text fill="#000000" font-family="sans-serif" font-size="13" lengthAdjust="spacing" textLength="208.3428" x="55" y="412.0278">&#8226; Permite solicitar crear alumno</text><text fill="#000000" font-family="sans-serif" font-size="13" lengthAdjust="spacing" textLength="236.6978" x="55" y="427.1606">&#8226; Permite solicitar cancelar creaci&#243;n</text></g><!--link CreandoAlumno to *end*crearAlumno--><g class="link" data-entity-1="CreandoAlumno" data-entity-2=".end.crearAlumno" data-source-line="29" data-uid="lnk7" id="link_CreandoAlumno_.end.crearAlumno"><path d="M44,507.5769 C44,533.8769 44,568.5669 44,587.2769" fill="none" id="CreandoAlumno-to-*end*crearAlumno" style="stroke:#008000;stroke-width:1;"/><polygon fill="#008000" points="44,593.2769,48,584.2769,44,588.2769,40,584.2769,44,593.2769" style="stroke:#008000;stroke-width:1;"/><path d="M49,530.2969 L49,570.2969 L356,570.2969 L356,540.2969 L346,530.2969 L49,530.2969" fill="#FEFFDD" style="stroke:#181818;stroke-width:0.5;"/><path d="M346,530.2969 L346,540.2969 L356,540.2969 L346,530.2969" fill="#FEFFDD" style="stroke:#181818;stroke-width:0.5;"/><text fill="#000000" font-family="sans-serif" font-size="13" font-weight="bold" lengthAdjust="spacing" textLength="60.5313" x="55" y="547.3638">Docente</text><text fill="#000000" font-family="sans-serif" font-size="13" lengthAdjust="spacing" textLength="177.8423" x="119.6636" y="547.3638">proporciona datos m&#237;nimos</text><text fill="#000000" font-family="sans-serif" font-size="13" font-weight="bold" lengthAdjust="spacing" textLength="58.9063" x="55" y="562.4966">Sistema</text><text fill="#000000" font-family="sans-serif" font-size="13" lengthAdjust="spacing" textLength="223.2153" x="118.0386" y="562.4966">crea alumno y transfiere a edici&#243;n</text></g><g id="ALUMNO_ABIERTO"><rect fill="#F1F1F1" height="50" rx="12.5" ry="12.5" style="stroke:#181818;stroke-width:0.5;" width="149.6504" x="251" y="720"/><line style="stroke:#181818;stroke-width:0.5;" x1="251" x2="400.6504" y1="746.2969" y2="746.2969"/><text fill="#000000" font-family="sans-serif" font-size="14" lengthAdjust="spacing" textLength="129.6504" x="261" y="737.9951">ALUMNO_ABIERTO</text></g><!--link ALUMNOS_ABIERTO to crearAlumno--><g class="link" data-entity-1="ALUMNOS_ABIERTO" data-entity-2="crearAlumno" data-source-line="6" data-uid="lnk2" id="link_ALUMNOS_ABIERTO_crearAlumno"><path d="M231,57 C231,72.14 231,87.41 231,111.83" fill="none" id="ALUMNOS_ABIERTO-to-crearAlumno" style="stroke:#008000;stroke-width:1;"/><polygon fill="#008000" points="231,117.83,235,108.83,231,112.83,227,108.83,231,117.83" style="stroke:#008000;stroke-width:1;"/></g><!--link crearAlumno to ALUMNO_ABIERTO--><g class="link" data-entity-1="crearAlumno" data-entity-2="ALUMNO_ABIERTO" data-source-line="36" data-uid="lnk9" id="link_crearAlumno_ALUMNO_ABIERTO"><path d="M295.61,625.18 C305.49,663.79 312.7332,692.1371 318.2732,713.7971" fill="none" id="crearAlumno-to-ALUMNO_ABIERTO" style="stroke:#008000;stroke-width:1;"/><polygon fill="#008000" points="319.76,719.61,321.4051,709.8995,318.521,714.7659,313.6546,711.8819,319.76,719.61" style="stroke:#008000;stroke-width:1;"/><path d="M315,660 L315,685 L524,685 L524,670 L514,660 L315,660" fill="#FEFFDD" style="stroke:#181818;stroke-width:0.5;"/><path d="M514,660 L514,670 L524,670 L514,660" fill="#FEFFDD" style="stroke:#181818;stroke-width:0.5;"/><text fill="#000000" font-family="sans-serif" font-size="13" lengthAdjust="spacing" textLength="188.2969" x="321" y="677.0669">editarAlumno(alumnoNuevo)</text></g><!--link crearAlumno to ALUMNOS_ABIERTO2--><g class="link" data-entity-1="crearAlumno" data-entity-2="ALUMNOS_ABIERTO2" data-source-line="41" data-uid="lnk10" id="link_crearAlumno_ALUMNOS_ABIERTO2"><path d="M147.86,625.04 C141.8,643.46 138,655 138,655 C138,655 137.6383,687.3304 137.3383,713.6804" fill="none" id="crearAlumno-to-ALUMNOS_ABIERTO2" style="stroke:#0000FF;stroke-width:1;"/><polygon fill="#0000FF" points="137.27,719.68,141.3722,710.7261,137.3269,714.6803,133.3727,710.635,137.27,719.68" style="stroke:#0000FF;stroke-width:1;"/><path d="M143,660 L143,685 L278,685 L278,670 L268,660 L143,660" fill="#FEFFDD" style="stroke:#181818;stroke-width:0.5;"/><path d="M268,660 L268,670 L278,670 L268,660" fill="#FEFFDD" style="stroke:#181818;stroke-width:0.5;"/><text fill="#000000" font-family="sans-serif" font-size="13" lengthAdjust="spacing" textLength="114.9624" x="149" y="677.0669">cancelar creaci&#243;n</text></g><!--SRC=[ZPFHIiCm58RlynI7UhC9G_1w3AhRnK0xSNerXgJDSOIbIKbIOOZWitZlbO-mD_59JDkrQxegjb3QS_x-v-DFOhPSPbJJ50INQ7SPGgR4hlWWn5Xg4SARnzjeiNmAh-Qp-uT5V_KIg86WKmm8wLHWj3hRQ4Iv7aqWqKXrAF9KgdfMgrGQjhu7mm1U2G5tLTh0tKwpL88dt5B9r9HQPKuLryx4TUj9HNzrllPGkYPGggHo9aeMqMpBmZYUJ5M2qkBu8fw0EVnLOGEjk6MEBwgKesILXxj8ypYPrGRnMN-3M79ZCQKbHARHE29Qq-GC608hdTFzf-IfUs4e3dYbnVVx1qGgZJN2GCM2RvnQSpLicc66Gd3c_kplJwDvJwTftw5EkSEk0z9UGd_9g4nG7FG9ttz9ByZZ52ydBq6tjFzQl4ohJEc4AqaxQVMbNF3K2xm3gwaqpnnTVXIGyHxIDqBQcxbDM9s9vZnveCxCDZk-cXSL-sb86kUkRonoFDeUJwHlt9DixVW3]--></g></svg>