<svg xmlns="http://www.w3.org/2000/svg" xmlns:xlink="http://www.w3.org/1999/xlink" contentStyleType="text/css" data-diagram-type="STATE" height="792px" preserveAspectRatio="none" style="width:1570px;height:792px;background:#FFFFFF;" version="1.1" viewBox="0 0 1570 792" width="1570px" zoomAndPan="magnify"><defs/><g><g id="RESPUESTAS_ABIERTO"><rect fill="#F1F1F1" height="50" rx="12.5" ry="12.5" style="stroke:#181818;stroke-width:0.5;" width="179.3525" x="302" y="7"/><line style="stroke:#181818;stroke-width:0.5;" x1="302" x2="481.3525" y1="33.2969" y2="33.2969"/><text fill="#000000" font-family="sans-serif" font-size="14" lengthAdjust="spacing" textLength="159.3525" x="312" y="24.9951">RESPUESTAS_ABIERTO</text></g><g id="RESPUESTA_ABIERTO"><rect fill="#F1F1F1" height="50" rx="12.5" ry="12.5" style="stroke:#181818;stroke-width:0.5;" width="170.4658" x="516.5" y="7"/><line style="stroke:#181818;stroke-width:0.5;" x1="516.5" x2="686.9658" y1="33.2969" y2="33.2969"/><text fill="#000000" font-family="sans-serif" font-size="14" lengthAdjust="spacing" textLength="150.4658" x="526.5" y="24.9951">RESPUESTA_ABIERTO</text></g><g id="RESPUESTAS_CONTEXTUALES_ABIERTO"><rect fill="#F1F1F1" height="50" rx="12.5" ry="12.5" style="stroke:#181818;stroke-width:0.5;" width="298.5166" x="722" y="7"/><line style="stroke:#181818;stroke-width:0.5;" x1="722" x2="1020.5166" y1="33.2969" y2="33.2969"/><text fill="#000000" font-family="sans-serif" font-size="14" lengthAdjust="spacing" textLength="278.5166" x="732" y="24.9951">RESPUESTAS_CONTEXTUALES_ABIERTO</text></g><g id="RESPUESTA_CONTEXTUAL_ABIERTO"><rect fill="#F1F1F1" height="50" rx="12.5" ry="12.5" style="stroke:#181818;stroke-width:0.5;" width="271.8975" x="1056.5" y="7"/><line style="stroke:#181818;stroke-width:0.5;" x1="1056.5" x2="1328.3975" y1="33.2969" y2="33.2969"/><text fill="#000000" font-family="sans-serif" font-size="14" lengthAdjust="spacing" textLength="251.8975" x="1066.5" y="24.9951">RESPUESTA_CONTEXTUAL_ABIERTO</text></g><g id="RESPUESTAS_ABIERTO2"><rect fill="#F1F1F1" height="50" rx="12.5" ry="12.5" style="stroke:#181818;stroke-width:0.5;" width="179.3525" x="7" y="736"/><line style="stroke:#181818;stroke-width:0.5;" x1="7" x2="186.3525" y1="762.2969" y2="762.2969"/><text fill="#000000" font-family="sans-serif" font-size="14" lengthAdjust="spacing" textLength="159.3525" x="17" y="753.9951">RESPUESTAS_ABIERTO</text></g><g id="RESPUESTA_ABIERTO2"><rect fill="#F1F1F1" height="50" rx="12.5" ry="12.5" style="stroke:#181818;stroke-width:0.5;" width="170.4658" x="221.5" y="736"/><line style="stroke:#181818;stroke-width:0.5;" x1="221.5" x2="391.9658" y1="762.2969" y2="762.2969"/><text fill="#000000" font-family="sans-serif" font-size="14" lengthAdjust="spacing" textLength="150.4658" x="231.5" y="753.9951">RESPUESTA_ABIERTO</text></g><g id="RESPUESTAS_CONTEXTUALES_ABIERTO2"><rect fill="#F1F1F1" height="50" rx="12.5" ry="12.5" style="stroke:#181818;stroke-width:0.5;" width="298.5166" x="427" y="736"/><line style="stroke:#181818;stroke-width:0.5;" x1="427" x2="725.5166" y1="762.2969" y2="762.2969"/><text fill="#000000" font-family="sans-serif" font-size="14" lengthAdjust="spacing" textLength="278.5166" x="437" y="753.9951">RESPUESTAS_CONTEXTUALES_ABIERTO</text></g><g id="RESPUESTA_CONTEXTUAL_ABIERTO2"><rect fill="#F1F1F1" height="50" rx="12.5" ry="12.5" style="stroke:#181818;stroke-width:0.5;" width="271.8975" x="761.5" y="736"/><line style="stroke:#181818;stroke-width:0.5;" x1="761.5" x2="1033.3975" y1="762.2969" y2="762.2969"/><text fill="#000000" font-family="sans-serif" font-size="14" lengthAdjust="spacing" textLength="251.8975" x="771.5" y="753.9951">RESPUESTA_CONTEXTUAL_ABIERTO</text></g><g id="RESPUESTAS_ABIERTO3"><rect fill="#F1F1F1" height="50" rx="12.5" ry="12.5" style="stroke:#181818;stroke-width:0.5;" width="179.3525" x="1069" y="736"/><line style="stroke:#181818;stroke-width:0.5;" x1="1069" x2="1248.3525" y1="762.2969" y2="762.2969"/><text fill="#000000" font-family="sans-serif" font-size="14" lengthAdjust="spacing" textLength="159.3525" x="1079" y="753.9951">RESPUESTAS_ABIERTO</text></g><g id="RESPUESTAS_CONTEXTUAL_ABIERTO3"><rect fill="#F1F1F1" height="50" rx="12.5" ry="12.5" style="stroke:#181818;stroke-width:0.5;" width="280.7842" x="1283" y="736"/><line style="stroke:#181818;stroke-width:0.5;" x1="1283" x2="1563.7842" y1="762.2969" y2="762.2969"/><text fill="#000000" font-family="sans-serif" font-size="14" lengthAdjust="spacing" textLength="260.7842" x="1293" y="753.9951">RESPUESTAS_CONTEXTUAL_ABIERTO</text></g><path d="M385.5,118 L1087.5,118 A12.5,12.5 0 0 1 1100,130.5 L1100,144.2969 L373,144.2969 L373,130.5 A12.5,12.5 0 0 1 385.5,118" fill="#F1F1F1"/><rect fill="none" height="523.2969" rx="12.5" ry="12.5" style="stroke:#181818;stroke-width:0.5;" width="727" x="373" y="118"/><line style="stroke:#181818;stroke-width:0.5;" x1="373" x2="1100" y1="144.2969" y2="144.2969"/><text fill="#000000" font-family="sans-serif" font-size="14" lengthAdjust="spacing" textLength="125.5078" x="673.7461" y="135.9951">editarRespuesta()</text><g id="editarRespuesta.EditandoDatos"><rect fill="#F1F1F1" height="50" rx="12.5" ry="12.5" style="stroke:#181818;stroke-width:0.5;" width="50" x="621" y="246.2969"/><line style="stroke:#181818;stroke-width:0.5;" x1="621" x2="671" y1="272.5938" y2="272.5938"/><text fill="#000000" font-family="sans-serif" font-size="14" lengthAdjust="spacing" textLength="4.4502" x="643.7749" y="264.292">&#160;</text></g><g id="editarRespuesta.GuardandoDatos"><rect fill="#F1F1F1" height="50" rx="12.5" ry="12.5" style="stroke:#181818;stroke-width:0.5;" width="50" x="621" y="488.2969"/><line style="stroke:#181818;stroke-width:0.5;" x1="621" x2="671" y1="514.5938" y2="514.5938"/><text fill="#000000" font-family="sans-serif" font-size="14" lengthAdjust="spacing" textLength="4.4502" x="643.7749" y="506.292">&#160;</text></g><ellipse cx="646" cy="165.2969" fill="#222222" rx="10" ry="10" style="stroke:#222222;stroke-width:1;"/><ellipse cx="646" cy="620.2969" fill="none" rx="11" ry="11" style="stroke:#222222;stroke-width:1;"/><ellipse cx="646" cy="620.2969" fill="#222222" rx="6" ry="6" style="stroke:#222222;stroke-width:1;"/><!--link *start*editarRespuesta to EditandoDatos--><g class="link" data-entity-1=".start.editarRespuesta" data-entity-2="EditandoDatos" data-source-line="24" data-uid="lnk7" id="link_.start.editarRespuesta_EditandoDatos"><path d="M646,175.5269 C646,191.2369 646,217.6569 646,240.1669" fill="none" id="*start*editarRespuesta-to-EditandoDatos" style="stroke:#008000;stroke-width:1;"/><polygon fill="#008000" points="646,246.1669,650,237.1669,646,241.1669,642,237.1669,646,246.1669" style="stroke:#008000;stroke-width:1;"/><path d="M651,198.2969 L651,223.2969 L893,223.2969 L893,208.2969 L883,198.2969 L651,198.2969" fill="#FEFFDD" style="stroke:#181818;stroke-width:0.5;"/><path d="M883,198.2969 L883,208.2969 L893,208.2969 L883,198.2969" fill="#FEFFDD" style="stroke:#181818;stroke-width:0.5;"/><text fill="#000000" font-family="sans-serif" font-size="13" font-weight="bold" lengthAdjust="spacing" textLength="60.5313" x="657" y="215.3638">Docente</text><text fill="#000000" font-family="sans-serif" font-size="13" lengthAdjust="spacing" textLength="156.749" x="721.6636" y="215.3638">solicita editar respuesta</text></g><!--link EditandoDatos to GuardandoDatos--><g class="link" data-entity-1="EditandoDatos" data-entity-2="GuardandoDatos" data-source-line="29" data-uid="lnk8" id="link_EditandoDatos_GuardandoDatos"><path d="M620.94,279.7069 C580.17,291.7669 504,314.2969 504,314.2969 C504,314.2969 504,470.2969 504,470.2969 C504,470.2969 574.4164,491.1249 615.1864,503.1849" fill="none" id="EditandoDatos-to-GuardandoDatos" style="stroke:#008000;stroke-width:1;"/><polygon fill="#008000" points="620.94,504.8869,613.4443,498.4983,616.1454,503.4686,611.175,506.1697,620.94,504.8869" style="stroke:#008000;stroke-width:1;"/><path d="M509,319.2969 L509,465.2969 L762,465.2969 L762,329.2969 L752,319.2969 L509,319.2969" fill="#FEFFDD" style="stroke:#181818;stroke-width:0.5;"/><path d="M752,319.2969 L752,329.2969 L762,329.2969 L752,319.2969" fill="#FEFFDD" style="stroke:#181818;stroke-width:0.5;"/><text fill="#000000" font-family="sans-serif" font-size="13" font-weight="bold" lengthAdjust="spacing" textLength="58.9063" x="515" y="336.3638">Sistema</text><text fill="#000000" font-family="sans-serif" font-size="13" lengthAdjust="spacing" textLength="169.1714" x="578.0386" y="336.3638">presenta datos de edici&#243;n</text><text fill="#000000" font-family="sans-serif" font-size="13" lengthAdjust="spacing" textLength="78.2222" x="515" y="351.4966">&#8226; Contenido</text><text fill="#000000" font-family="sans-serif" font-size="13" lengthAdjust="spacing" textLength="137.96" x="515" y="366.6294">&#8226; Correcta/incorrecta</text><text fill="#000000" font-family="sans-serif" font-size="13" lengthAdjust="spacing" textLength="4.1323" x="515" y="381.7622">&#160;</text><text fill="#000000" font-family="sans-serif" font-size="13" font-weight="bold" lengthAdjust="spacing" textLength="58.9063" x="515" y="396.895">Sistema</text><text fill="#000000" font-family="sans-serif" font-size="13" lengthAdjust="spacing" textLength="110.5952" x="578.0386" y="396.895">permite solicitar:</text><text fill="#000000" font-family="sans-serif" font-size="13" lengthAdjust="spacing" textLength="127.8164" x="515" y="412.0278">&#8226; modificar campos</text><text fill="#000000" font-family="sans-serif" font-size="13" lengthAdjust="spacing" textLength="131.7393" x="515" y="427.1606">&#8226; guardar respuesta</text><text fill="#000000" font-family="sans-serif" font-size="13" lengthAdjust="spacing" textLength="118.168" x="515" y="442.2935">&#8226; cancelar edici&#243;n</text><text fill="#000000" font-family="sans-serif" font-size="13" lengthAdjust="spacing" textLength="64.8477" x="515" y="457.4263">&#8226; eliminar</text></g><!--link GuardandoDatos to EditandoDatos--><g class="link" data-entity-1="GuardandoDatos" data-entity-2="EditandoDatos" data-source-line="42" data-uid="lnk9" id="link_GuardandoDatos_EditandoDatos"><path d="M671.07,503.5969 C706.51,491.2969 767,470.2969 767,470.2969 C767,470.2969 767,314.2969 767,314.2969 C767,314.2969 712.1783,295.2642 676.7383,282.9642" fill="none" id="GuardandoDatos-to-EditandoDatos" style="stroke:#008000;stroke-width:1;"/><polygon fill="#008000" points="671.07,280.9969,678.261,287.7267,675.7936,282.6363,680.884,280.1689,671.07,280.9969" style="stroke:#008000;stroke-width:1;"/><path d="M772,379.7969 L772,404.7969 L1023,404.7969 L1023,389.7969 L1013,379.7969 L772,379.7969" fill="#FEFFDD" style="stroke:#181818;stroke-width:0.5;"/><path d="M1013,379.7969 L1013,389.7969 L1023,389.7969 L1013,379.7969" fill="#FEFFDD" style="stroke:#181818;stroke-width:0.5;"/><text fill="#000000" font-family="sans-serif" font-size="13" font-weight="bold" lengthAdjust="spacing" textLength="60.5313" x="778" y="396.8638">Docente</text><text fill="#000000" font-family="sans-serif" font-size="13" lengthAdjust="spacing" textLength="165.9214" x="842.6636" y="396.8638">solicita modificar campos</text></g><!--link GuardandoDatos to *end*editarRespuesta--><g class="link" data-entity-1="GuardandoDatos" data-entity-2=".end.editarRespuesta" data-source-line="47" data-uid="lnk11" id="link_GuardandoDatos_.end.editarRespuesta"><path d="M620.88,518.3269 C555.3,528.8369 384,556.2969 384,556.2969 C384,556.2969 384,591.2969 384,591.2969 C384,591.2969 579.524,612.1892 629.114,617.4892" fill="none" id="GuardandoDatos-to-*end*editarRespuesta" style="stroke:#008000;stroke-width:1;"/><polygon fill="#008000" points="635.08,618.1269,626.556,613.1931,630.1083,617.5955,625.7059,621.1478,635.08,618.1269" style="stroke:#008000;stroke-width:1;"/><path d="M389,561.2969 L389,586.2969 L619,586.2969 L619,571.2969 L609,561.2969 L389,561.2969" fill="#FEFFDD" style="stroke:#181818;stroke-width:0.5;"/><path d="M609,561.2969 L609,571.2969 L619,571.2969 L609,561.2969" fill="#FEFFDD" style="stroke:#181818;stroke-width:0.5;"/><text fill="#000000" font-family="sans-serif" font-size="13" font-weight="bold" lengthAdjust="spacing" textLength="60.5313" x="395" y="578.3638">Docente</text><text fill="#000000" font-family="sans-serif" font-size="13" lengthAdjust="spacing" textLength="144.5361" x="459.6636" y="578.3638">solicita guardar y salir</text></g><!--link GuardandoDatos to *end*editarRespuesta--><g class="link" data-entity-1="GuardandoDatos" data-entity-2=".end.editarRespuesta" data-source-line="52" data-uid="lnk12" id="link_GuardandoDatos_.end.editarRespuesta"><path d="M646,538.3869 C646,560.7869 646,587.0669 646,603.2469" fill="none" id="GuardandoDatos-to-*end*editarRespuesta-1" style="stroke:#FF0000;stroke-width:1;"/><polygon fill="#FF0000" points="646,609.2469,650,600.2469,646,604.2469,642,600.2469,646,609.2469" style="stroke:#FF0000;stroke-width:1;"/><path d="M651,561.2969 L651,586.2969 L892,586.2969 L892,571.2969 L882,561.2969 L651,561.2969" fill="#FEFFDD" style="stroke:#181818;stroke-width:0.5;"/><path d="M882,561.2969 L882,571.2969 L892,571.2969 L882,561.2969" fill="#FEFFDD" style="stroke:#181818;stroke-width:0.5;"/><text fill="#000000" font-family="sans-serif" font-size="13" font-weight="bold" lengthAdjust="spacing" textLength="60.5313" x="657" y="578.3638">Docente</text><text fill="#000000" font-family="sans-serif" font-size="13" lengthAdjust="spacing" textLength="156.2729" x="721.6636" y="578.3638">solicita cancelar edici&#243;n</text></g><!--link GuardandoDatos to *end*editarRespuesta--><g class="link" data-entity-1="GuardandoDatos" data-entity-2=".end.editarRespuesta" data-source-line="57" data-uid="lnk13" id="link_GuardandoDatos_.end.editarRespuesta"><path d="M671.08,518.4769 C734.82,529.0969 898,556.2969 898,556.2969 C898,556.2969 898,591.2969 898,591.2969 C898,591.2969 711.0233,612.0742 662.7933,617.4342" fill="none" id="GuardandoDatos-to-*end*editarRespuesta-2" style="stroke:#0000FF;stroke-width:1;"/><polygon fill="#0000FF" points="656.83,618.0969,666.2167,621.0783,661.7994,617.5446,665.3331,613.1273,656.83,618.0969" style="stroke:#0000FF;stroke-width:1;"/><path d="M903,561.2969 L903,586.2969 L1091,586.2969 L1091,571.2969 L1081,561.2969 L903,561.2969" fill="#FEFFDD" style="stroke:#181818;stroke-width:0.5;"/><path d="M1081,561.2969 L1081,571.2969 L1091,571.2969 L1081,561.2969" fill="#FEFFDD" style="stroke:#181818;stroke-width:0.5;"/><text fill="#000000" font-family="sans-serif" font-size="13" font-weight="bold" lengthAdjust="spacing" textLength="60.5313" x="909" y="578.3638">Docente</text><text fill="#000000" font-family="sans-serif" font-size="13" lengthAdjust="spacing" textLength="102.9526" x="973.6636" y="578.3638">solicita eliminar</text></g><!--link RESPUESTAS_ABIERTO to editarRespuesta--><g class="link" data-entity-1="RESPUESTAS_ABIERTO" data-entity-2="editarRespuesta" data-source-line="14" data-uid="lnk2" id="link_RESPUESTAS_ABIERTO_editarRespuesta"><path d="M415.49,57.02 C430.54,72.09 447.44,89.0247 471.77,113.3847" fill="none" id="RESPUESTAS_ABIERTO-to-editarRespuesta" style="stroke:#008000;stroke-width:1;"/><polygon fill="#008000" points="476.01,117.63,472.4801,108.4354,472.4766,114.0923,466.8198,114.0888,476.01,117.63" style="stroke:#008000;stroke-width:1;"/></g><!--link RESPUESTA_ABIERTO to editarRespuesta--><g class="link" data-entity-1="RESPUESTA_ABIERTO" data-entity-2="editarRespuesta" data-source-line="15" data-uid="lnk3" id="link_RESPUESTA_ABIERTO_editarRespuesta"><path d="M610.89,57.02 C616.78,72.09 622.866,87.6816 632.386,112.0416" fill="none" id="RESPUESTA_ABIERTO-to-editarRespuesta" style="stroke:#008000;stroke-width:1;"/><polygon fill="#008000" points="634.57,117.63,635.0196,107.7914,632.75,112.973,627.5684,110.7034,634.57,117.63" style="stroke:#008000;stroke-width:1;"/></g><!--link RESPUESTAS_CONTEXTUALES_ABIERTO to editarRespuesta--><g class="link" data-entity-1="RESPUESTAS_CONTEXTUALES_ABIERTO" data-entity-2="editarRespuesta" data-source-line="16" data-uid="lnk4" id="link_RESPUESTAS_CONTEXTUALES_ABIERTO_editarRespuesta"><path d="M862.11,57.02 C856.22,72.09 850.134,87.6816 840.614,112.0416" fill="none" id="RESPUESTAS_CONTEXTUALES_ABIERTO-to-editarRespuesta" style="stroke:#008000;stroke-width:1;"/><polygon fill="#008000" points="838.43,117.63,845.4316,110.7034,840.25,112.973,837.9804,107.7914,838.43,117.63" style="stroke:#008000;stroke-width:1;"/></g><!--link RESPUESTA_CONTEXTUAL_ABIERTO to editarRespuesta--><g class="link" data-entity-1="RESPUESTA_CONTEXTUAL_ABIERTO" data-entity-2="editarRespuesta" data-source-line="17" data-uid="lnk5" id="link_RESPUESTA_CONTEXTUAL_ABIERTO_editarRespuesta"><path d="M1160.8,57.02 C1140.9,72.09 1117.7428,89.6472 1085.5828,114.0072" fill="none" id="RESPUESTA_CONTEXTUAL_ABIERTO-to-editarRespuesta" style="stroke:#008000;stroke-width:1;"/><polygon fill="#008000" points="1080.8,117.63,1090.3894,115.3843,1084.7857,114.611,1085.559,109.0073,1080.8,117.63" style="stroke:#008000;stroke-width:1;"/></g><!--link editarRespuesta to RESPUESTA_CONTEXTUAL_ABIERTO2--><g class="link" data-entity-1="editarRespuesta" data-entity-2="RESPUESTA_CONTEXTUAL_ABIERTO2" data-source-line="66" data-uid="lnk14" id="link_editarRespuesta_RESPUESTA_CONTEXTUAL_ABIERTO2"><path d="M847.11,641.23 C863.54,679.96 875.6762,708.5567 884.8462,730.1667" fill="none" id="editarRespuesta-to-RESPUESTA_CONTEXTUAL_ABIERTO2" style="stroke:#008000;stroke-width:1;"/><polygon fill="#008000" points="887.19,735.69,887.3566,725.8426,885.2369,731.0873,879.9922,728.9676,887.19,735.69" style="stroke:#008000;stroke-width:1;"/><path d="M879.5,676 L879.5,701 L951.5,701 L951.5,686 L941.5,676 L879.5,676" fill="#FEFFDD" style="stroke:#181818;stroke-width:0.5;"/><path d="M941.5,676 L941.5,686 L951.5,686 L941.5,676" fill="#FEFFDD" style="stroke:#181818;stroke-width:0.5;"/><text fill="#000000" font-family="sans-serif" font-size="13" lengthAdjust="spacing" textLength="51.3652" x="885.5" y="693.0669">guardar</text></g><!--link editarRespuesta to RESPUESTA_ABIERTO2--><g class="link" data-entity-1="editarRespuesta" data-entity-2="RESPUESTA_ABIERTO2" data-source-line="71" data-uid="lnk15" id="link_editarRespuesta_RESPUESTA_ABIERTO2"><path d="M441.08,641.23 C397.2,679.96 363.0289,710.1101 338.5389,731.7201" fill="none" id="editarRespuesta-to-RESPUESTA_ABIERTO2" style="stroke:#008000;stroke-width:1;"/><polygon fill="#008000" points="334.04,735.69,343.4349,732.7345,337.7891,732.3818,338.1418,726.7359,334.04,735.69" style="stroke:#008000;stroke-width:1;"/><path d="M404.5,676 L404.5,701 L476.5,701 L476.5,686 L466.5,676 L404.5,676" fill="#FEFFDD" style="stroke:#181818;stroke-width:0.5;"/><path d="M466.5,676 L466.5,686 L476.5,686 L466.5,676" fill="#FEFFDD" style="stroke:#181818;stroke-width:0.5;"/><text fill="#000000" font-family="sans-serif" font-size="13" lengthAdjust="spacing" textLength="51.3652" x="410.5" y="693.0669">guardar</text></g><!--link editarRespuesta to RESPUESTAS_ABIERTO2--><g class="link" data-entity-1="editarRespuesta" data-entity-2="RESPUESTAS_ABIERTO2" data-source-line="76" data-uid="lnk16" id="link_editarRespuesta_RESPUESTAS_ABIERTO2"><path d="M372.94,586.78 C289.37,634.19 224.5,671 224.5,671 C224.5,671 173.9762,706.1347 136.0662,732.4947" fill="none" id="editarRespuesta-to-RESPUESTAS_ABIERTO2" style="stroke:#FF0000;stroke-width:1;"/><polygon fill="#FF0000" points="131.14,735.92,140.8128,734.0661,135.2451,733.0656,136.2457,727.4979,131.14,735.92" style="stroke:#FF0000;stroke-width:1;"/><path d="M229.5,676 L229.5,701 L356.5,701 L356.5,686 L346.5,676 L229.5,676" fill="#FEFFDD" style="stroke:#181818;stroke-width:0.5;"/><path d="M346.5,676 L346.5,686 L356.5,686 L346.5,676" fill="#FEFFDD" style="stroke:#181818;stroke-width:0.5;"/><text fill="#000000" font-family="sans-serif" font-size="13" lengthAdjust="spacing" textLength="106.3677" x="235.5" y="693.0669">cancelar edici&#243;n</text></g><!--link editarRespuesta to RESPUESTAS_ABIERTO3--><g class="link" data-entity-1="editarRespuesta" data-entity-2="RESPUESTAS_ABIERTO3" data-source-line="81" data-uid="lnk17" id="link_editarRespuesta_RESPUESTAS_ABIERTO3"><path d="M1026.42,641.23 C1069.49,679.96 1102.9678,710.0689 1127.0078,731.6789" fill="none" id="editarRespuesta-to-RESPUESTAS_ABIERTO3" style="stroke:#0000FF;stroke-width:1;"/><polygon fill="#0000FF" points="1131.47,735.69,1127.4508,726.6985,1127.7515,732.3474,1122.1027,732.6481,1131.47,735.69" style="stroke:#0000FF;stroke-width:1;"/><path d="M1101.5,676 L1101.5,701 L1175.5,701 L1175.5,686 L1165.5,676 L1101.5,676" fill="#FEFFDD" style="stroke:#181818;stroke-width:0.5;"/><path d="M1165.5,676 L1165.5,686 L1175.5,686 L1165.5,676" fill="#FEFFDD" style="stroke:#181818;stroke-width:0.5;"/><text fill="#000000" font-family="sans-serif" font-size="13" lengthAdjust="spacing" textLength="53.0474" x="1107.5" y="693.0669">eliminar</text></g><!--link editarRespuesta to RESPUESTAS_CONTEXTUAL_ABIERTO3--><g class="link" data-entity-1="editarRespuesta" data-entity-2="RESPUESTAS_CONTEXTUAL_ABIERTO3" data-source-line="86" data-uid="lnk18" id="link_editarRespuesta_RESPUESTAS_CONTEXTUAL_ABIERTO3"><path d="M1100.12,581.36 C1212.12,643.23 1316.018,700.6289 1374.438,732.8989" fill="none" id="editarRespuesta-to-RESPUESTAS_CONTEXTUAL_ABIERTO3" style="stroke:#0000FF;stroke-width:1;"/><polygon fill="#0000FF" points="1379.69,735.8,1373.7461,727.947,1375.3133,733.3824,1369.8779,734.9497,1379.69,735.8" style="stroke:#0000FF;stroke-width:1;"/><path d="M1328.5,676 L1328.5,701 L1402.5,701 L1402.5,686 L1392.5,676 L1328.5,676" fill="#FEFFDD" style="stroke:#181818;stroke-width:0.5;"/><path d="M1392.5,676 L1392.5,686 L1402.5,686 L1392.5,676" fill="#FEFFDD" style="stroke:#181818;stroke-width:0.5;"/><text fill="#000000" font-family="sans-serif" font-size="13" lengthAdjust="spacing" textLength="53.0474" x="1334.5" y="693.0669">eliminar</text></g><!--link editarRespuesta to RESPUESTAS_CONTEXTUALES_ABIERTO2--><g class="link" data-entity-1="editarRespuesta" data-entity-2="RESPUESTAS_CONTEXTUALES_ABIERTO2" data-source-line="91" data-uid="lnk19" id="link_editarRespuesta_RESPUESTAS_CONTEXTUALES_ABIERTO2"><path d="M626.58,641.23 C610.25,679.96 598.1907,708.5512 589.0807,730.1612" fill="none" id="editarRespuesta-to-RESPUESTAS_CONTEXTUALES_ABIERTO2" style="stroke:#FF0000;stroke-width:1;"/><polygon fill="#FF0000" points="586.75,735.69,593.932,728.9506,588.6923,731.0827,586.5602,725.843,586.75,735.69" style="stroke:#FF0000;stroke-width:1;"/><path d="M616.5,676 L616.5,701 L743.5,701 L743.5,686 L733.5,676 L616.5,676" fill="#FEFFDD" style="stroke:#181818;stroke-width:0.5;"/><path d="M733.5,676 L733.5,686 L743.5,686 L733.5,676" fill="#FEFFDD" style="stroke:#181818;stroke-width:0.5;"/><text fill="#000000" font-family="sans-serif" font-size="13" lengthAdjust="spacing" textLength="106.3677" x="622.5" y="693.0669">cancelar edici&#243;n</text></g><!--SRC=[fLLjQjj04Fs_fnZK7saBIQ3-Lu91ZKK8X2HO2XH226ljr2oHTiMk_CEKGi_IA_G8lKbFqfKiozP-6DcLGDWpis_UUxFIwZSkAgfe2GKNMAyhX4eMw-OF8RgcDS8yIH-VaZIBqzVuosqopnxiH2YUlbu_t6V9r-mflal2gtT5OQ0kyGceXiYDHo5Are9WlP-gqyvN58qGPDDmAwAWvibOpQa7TX9MiCCXBZYSFxzRAaJnSZu5PBocQewwMg7fIHmxnrNxxHlPoULzS67dZHLkpR1Yxpz4y9qGCDTcJMHkKvSqPOB96QsbTjCtAwfOduSDmFF7bm6h0GQq9K8Q32cQr-sj3LmjfZEPewZnwd8n1IqBdfjL7NLGlQIc60NR89YBz8zXctq2GvP10YdNDPQq9L2PZeOD1TQYiTR4dF_vBThglpz_mRKqR0LdSY-Y5EOrlUGYxtuIBpYgafl-MvNgSmzHIiQ_yTn8pcbPTMIRnBBLO3lHP78gSYnCoc681I-ve6fWsiumQtZ1aHqtCQ-2evgR_NDSowqtQz2qu9RSG3U5xAHUVhV7w5iKApoffN-Cv0SXPp2vW4nHeKsb5AXXba0QtztEOhDbDTk- -eyAbolHx4RxKx3l-y5FDndGxHmdEpRZWFy3hHkOvpGSWha3EWYxdOhdn1dYzbCu5ivp79s2xEhtdjLZpVW7]--></g></svg>