<svg xmlns="http://www.w3.org/2000/svg" xmlns:xlink="http://www.w3.org/1999/xlink" contentStyleType="text/css" data-diagram-type="DESCRIPTION" height="620px" preserveAspectRatio="none" style="width:822px;height:620px;background:#FFFFFF;" version="1.1" viewBox="0 0 822 620" width="822px" zoomAndPan="magnify"><defs/><g><!--cluster eliminarGrado--><g class="cluster" data-entity="eliminarGrado" data-source-line="7" data-uid="ent0005" id="cluster_eliminarGrado"><path d="M8.5,106 L134.5771,106 A3.75,3.75 0 0 1 137.0771,108.5 L144.0771,128.2969 L603.5,128.2969 A2.5,2.5 0 0 1 606,130.7969 L606,610.5 A2.5,2.5 0 0 1 603.5,613 L8.5,613 A2.5,2.5 0 0 1 6,610.5 L6,108.5 A2.5,2.5 0 0 1 8.5,106" fill="none" style="stroke:#000000;stroke-width:1.5;"/><line style="stroke:#000000;stroke-width:1.5;" x1="6" x2="144.0771" y1="128.2969" y2="128.2969"/><text fill="#000000" font-family="sans-serif" font-size="14" font-weight="bold" lengthAdjust="spacing" textLength="125.0771" x="10" y="120.9951">eliminarGrado()</text></g><!--entity EliminarGradoView--><g class="entity" data-entity="EliminarGradoView" data-source-line="8" data-uid="ent0006" id="entity_EliminarGradoView"><rect fill="#629EF9" height="36.2969" rx="2.5" ry="2.5" style="stroke:#181818;stroke-width:0.5;" width="153.5264" x="319" y="141"/><text fill="#000000" font-family="sans-serif" font-size="14" lengthAdjust="spacing" textLength="133.5264" x="329" y="163.9951">EliminarGradoView</text></g><!--entity GradosController--><g class="entity" data-entity="GradosController" data-source-line="9" data-uid="ent0007" id="entity_GradosController"><rect fill="#B5BD68" height="36.2969" rx="2.5" ry="2.5" style="stroke:#181818;stroke-width:0.5;" width="139.1025" x="123.5" y="254"/><text fill="#000000" font-family="sans-serif" font-size="14" lengthAdjust="spacing" textLength="119.1025" x="133.5" y="276.9951">GradosController</text></g><!--entity GradoRepository--><g class="entity" data-entity="GradoRepository" data-source-line="10" data-uid="ent0008" id="entity_GradoRepository"><rect fill="#F2AC4E" height="36.2969" rx="2.5" ry="2.5" style="stroke:#181818;stroke-width:0.5;" width="137.708" x="132" y="367"/><text fill="#000000" font-family="sans-serif" font-size="14" lengthAdjust="spacing" textLength="117.708" x="142" y="389.9951">GradoRepository</text></g><!--entity Grado--><g class="entity" data-entity="Grado" data-source-line="11" data-uid="ent0009" id="entity_Grado"><rect fill="#F2AC4E" height="36.2969" rx="2.5" ry="2.5" style="stroke:#181818;stroke-width:0.5;" width="62.6357" x="169.5" y="464"/><text fill="#000000" font-family="sans-serif" font-size="14" lengthAdjust="spacing" textLength="42.6357" x="179.5" y="486.9951">Grado</text></g><!--entity Alumno--><g class="entity" data-entity="Alumno" data-source-line="12" data-uid="ent0010" id="entity_Alumno"><rect fill="#F2AC4E" height="36.2969" rx="2.5" ry="2.5" style="stroke:#181818;stroke-width:0.5;" width="73.416" x="164.5" y="561"/><text fill="#000000" font-family="sans-serif" font-size="14" lengthAdjust="spacing" textLength="53.416" x="174.5" y="583.9951">Alumno</text></g><!--entity GradosAbierto--><g class="entity" data-entity="GradosAbierto" data-source-line="3" data-uid="ent0002" id="entity_GradosAbierto"><rect fill="#CDEBA5" height="36.2969" rx="2.5" ry="2.5" style="stroke:#181818;stroke-width:0.5;" width="154.0117" x="222" y="7"/><text fill="#000000" font-family="sans-serif" font-size="14" lengthAdjust="spacing" textLength="134.0117" x="232" y="29.9951">:GRADOS_ABIERTO</text></g><!--entity GradoAbierto--><g class="entity" data-entity="GradoAbierto" data-source-line="4" data-uid="ent0003" id="entity_GradoAbierto"><rect fill="#CDEBA5" height="36.2969" rx="2.5" ry="2.5" style="stroke:#181818;stroke-width:0.5;" width="145.125" x="420.5" y="7"/><text fill="#000000" font-family="sans-serif" font-size="14" lengthAdjust="spacing" textLength="125.125" x="430.5" y="29.9951">:GRADO_ABIERTO</text></g><!--entity VerGrados--><g class="entity" data-entity="VerGrados" data-source-line="5" data-uid="ent0004" id="entity_VerGrados"><rect fill="#CDEBA5" height="36.2969" rx="2.5" ry="2.5" style="stroke:#181818;stroke-width:0.5;" width="195.0547" x="621.5" y="254"/><text fill="#000000" font-family="sans-serif" font-size="14" lengthAdjust="spacing" textLength="175.0547" x="631.5" y="276.9951">:Collaboration verGrados</text></g><!--link GradosAbierto to EliminarGradoView--><g class="link" data-entity-1="GradosAbierto" data-entity-2="EliminarGradoView" data-source-line="15" data-uid="lnk11" id="link_GradosAbierto_EliminarGradoView"><path d="M297.9,43.23 C297.04,56.65 296,73 296,73 C296,73 296,90 296,90 C296,90 336.1778,117.3271 365.8078,137.4671" fill="none" id="GradosAbierto-to-EliminarGradoView" style="stroke:#181818;stroke-width:1;"/><polygon fill="#181818" points="370.77,140.84,365.5753,132.4725,366.6348,138.0293,361.0781,139.0888,370.77,140.84" style="stroke:#181818;stroke-width:1;"/><text fill="#000000" font-family="sans-serif" font-size="13" lengthAdjust="spacing" textLength="152.6357" x="297" y="86.0669">eliminarGrado(gradoId)</text></g><!--link GradoAbierto to EliminarGradoView--><g class="link" data-entity-1="GradoAbierto" data-entity-2="EliminarGradoView" data-source-line="16" data-uid="lnk12" id="link_GradoAbierto_EliminarGradoView"><path d="M482.55,43.15 C471,62.11 454,90 454,90 C454,90 431.7139,116.1352 414.5339,136.2752" fill="none" id="GradoAbierto-to-EliminarGradoView" style="stroke:#181818;stroke-width:1;"/><polygon fill="#181818" points="410.64,140.84,419.5241,136.5887,413.8849,137.036,413.4377,131.3968,410.64,140.84" style="stroke:#181818;stroke-width:1;"/><text fill="#000000" font-family="sans-serif" font-size="13" lengthAdjust="spacing" textLength="152.6357" x="464" y="86.0669">eliminarGrado(gradoId)</text></g><!--link EliminarGradoView to GradosController--><g class="link" data-entity-1="EliminarGradoView" data-entity-2="GradosController" data-source-line="18" data-uid="lnk13" id="link_EliminarGradoView_GradosController"><path d="M318.82,170.61 C217.95,184.47 54,207 54,207 C54,207 54,224 54,224 C54,224 96.9962,238.5378 136.7362,251.9778" fill="none" id="EliminarGradoView-to-GradosController" style="stroke:#181818;stroke-width:1;"/><polygon fill="#181818" points="142.42,253.9,135.1759,247.2275,137.6835,252.2981,132.6129,254.8058,142.42,253.9" style="stroke:#181818;stroke-width:1;"/><text fill="#000000" font-family="sans-serif" font-size="13" lengthAdjust="spacing" textLength="297.832" x="55" y="220.0669">cargarGradoParaEliminacion(gradoId) : Grado</text></g><!--link EliminarGradoView to GradosController--><g class="link" data-entity-1="EliminarGradoView" data-entity-2="GradosController" data-source-line="25" data-uid="lnk17" id="link_EliminarGradoView_GradosController"><path d="M385.55,177.15 C374,196.11 357,224 357,224 C357,224 305.3277,238.8068 258.4377,252.2468" fill="none" id="EliminarGradoView-to-GradosController-1" style="stroke:#181818;stroke-width:1;"/><polygon fill="#181818" points="252.67,253.9,262.4238,255.2654,257.4765,252.5223,260.2195,247.575,252.67,253.9" style="stroke:#181818;stroke-width:1;"/><text fill="#000000" font-family="sans-serif" font-size="13" lengthAdjust="spacing" textLength="192.791" x="367" y="220.0669">eliminarGrado(gradoId) : void</text></g><!--link GradosController to GradoRepository--><g class="link" data-entity-1="GradosController" data-entity-2="GradoRepository" data-source-line="20" data-uid="lnk14" id="link_GradosController_GradoRepository"><path d="M148.61,290.1 C113.73,303.54 71,320 71,320 C71,320 71,337 71,337 C71,337 110.8875,351.4198 148.0575,364.8598" fill="none" id="GradosController-to-GradoRepository" style="stroke:#181818;stroke-width:1;"/><polygon fill="#181818" points="153.7,366.9,146.5964,360.078,148.9979,365.1998,143.8761,367.6013,153.7,366.9" style="stroke:#181818;stroke-width:1;"/><text fill="#000000" font-family="sans-serif" font-size="13" lengthAdjust="spacing" textLength="196.3394" x="72" y="333.0669">obtenerPorId(gradoId) : Grado</text></g><!--link GradosController to GradoRepository--><g class="link" data-entity-1="GradosController" data-entity-2="GradoRepository" data-source-line="27" data-uid="lnk18" id="link_GradosController_GradoRepository"><path d="M222.33,290.23 C245.17,303.65 273,320 273,320 C273,320 273,337 273,337 C273,337 252.9737,350.0693 232.4237,363.4893" fill="none" id="GradosController-to-GradoRepository-1" style="stroke:#181818;stroke-width:1;"/><polygon fill="#181818" points="227.4,366.77,237.1226,365.1981,231.5864,364.0361,232.7484,358.4999,227.4,366.77" style="stroke:#181818;stroke-width:1;"/><text fill="#000000" font-family="sans-serif" font-size="13" lengthAdjust="spacing" textLength="153.2007" x="274" y="333.0669">eliminar(gradoId) : void</text></g><!--link GradoRepository to Grado--><g class="link" data-entity-1="GradoRepository" data-entity-2="Grado" data-source-line="22" data-uid="lnk15" id="link_GradoRepository_Grado"><path d="M201,403.42 C201,420.57 201,446.58 201,463.69" fill="none" id="GradoRepository-Grado" style="stroke:#181818;stroke-width:1;"/></g><!--link Grado to Alumno--><g class="link" data-entity-1="Grado" data-entity-2="Alumno" data-source-line="23" data-uid="lnk16" id="link_Grado_Alumno"><path d="M201,500.42 C201,517.57 201,543.58 201,560.69" fill="none" id="Grado-Alumno" style="stroke:#181818;stroke-width:1;"/></g><!--link EliminarGradoView to VerGrados--><g class="link" data-entity-1="EliminarGradoView" data-entity-2="VerGrados" data-source-line="29" data-uid="lnk19" id="link_EliminarGradoView_VerGrados"><path d="M458.58,177.1 C507.76,190.54 568,207 568,207 C568,207 628.286,232.548 673.006,251.508" fill="none" id="EliminarGradoView-to-VerGrados" style="stroke:#181818;stroke-width:1;stroke-dasharray:7,7;"/><polygon fill="#181818" points="678.53,253.85,671.8053,246.6543,673.9266,251.8983,668.6826,254.0196,678.53,253.85" style="stroke:#181818;stroke-width:1;"/><text fill="#000000" font-family="sans-serif" font-size="13" lengthAdjust="spacing" textLength="144.6821" x="605" y="220.0669">&#171;include&#187; verGrados()</text></g><!--SRC=[bLB1Qi904BtlLmpfHGzwa2erI236A9uKMtejc-mG5jUTi5ajKlhlNKsicgYqEGHczxqtyzvEiPOwvuPlG4cDTfyZvAJsXu8nWwdbEbC8Jz4a7eTzyFpPAfmiNZ_2yJnUlIqyu0NC31TKX8b4O-a-gSbvH8b8APwGuLQIXXsQiikH_7wg6CjvkkOP0YgvaPgNvmUCTtNIQdlmnS1z5xq6lM4y7K9y2NoN-5d79Vr435ugcn5fQzniQEgmQI-CdkCIjiAS2cd9x1-Xxjo5QhlHnBuPkqeMEfsWEQn_RRsL7VvpqMQN2V-JoXfGw0YdK4_0XvIRh88jtHPLlDGzsQyQ-9LPLgSVfwh5vGCb5ZMQ9Pcvk2TonZkDwgPyULTMyTqoSTF3xH1Snnr9yTUfJo9DVdECRZSuhx0Fev7KgTeA38BpdhVQFm00]--></g></svg>