<?plantuml 1.2026.2?><svg xmlns="http://www.w3.org/2000/svg" xmlns:xlink="http://www.w3.org/1999/xlink" contentStyleType="text/css" data-diagram-type="DESCRIPTION" height="620px" preserveAspectRatio="none" style="width:822px;height:620px;background:#FFFFFF;" version="1.1" viewBox="0 0 822 620" width="822px" zoomAndPan="magnify"><defs/><g><!--cluster eliminarGrado--><g class="cluster" data-qualified-name="eliminarGrado" data-source-line="7" id="ent0005"><path d="M8.5,106 L134.5771,106 A3.75,3.75 0 0 1 137.0771,108.5 L144.0771,128.2969 L603.5,128.2969 A2.5,2.5 0 0 1 606,130.7969 L606,610.5 A2.5,2.5 0 0 1 603.5,613 L8.5,613 A2.5,2.5 0 0 1 6,610.5 L6,108.5 A2.5,2.5 0 0 1 8.5,106" fill="none" style="stroke:#000000;stroke-width:1.5;"/><line style="stroke:#000000;stroke-width:1.5;" x1="6" x2="144.0771" y1="128.2969" y2="128.2969"/><text fill="#000000" font-family="sans-serif" font-size="14" font-weight="bold" lengthAdjust="spacing" textLength="125.0771" x="10" y="120.9951">eliminarGrado()</text></g><!--entity EliminarGradoView--><g class="entity" data-qualified-name="eliminarGrado.EliminarGradoView" data-source-line="8" id="ent0006"><rect fill="#629EF9" height="36.2969" rx="2.5" ry="2.5" style="stroke:#181818;stroke-width:0.5;" width="153.5264" x="319" y="141"/><text fill="#000000" font-family="sans-serif" font-size="14" lengthAdjust="spacing" textLength="133.5264" x="329" y="163.9951">EliminarGradoView</text></g><!--entity GradosController--><g class="entity" data-qualified-name="eliminarGrado.GradosController" data-source-line="9" id="ent0007"><rect fill="#B5BD68" height="36.2969" rx="2.5" ry="2.5" style="stroke:#181818;stroke-width:0.5;" width="139.1025" x="123.5" y="254"/><text fill="#000000" font-family="sans-serif" font-size="14" lengthAdjust="spacing" textLength="119.1025" x="133.5" y="276.9951">GradosController</text></g><!--entity GradoRepository--><g class="entity" data-qualified-name="eliminarGrado.GradoRepository" data-source-line="10" id="ent0008"><rect fill="#F2AC4E" height="36.2969" rx="2.5" ry="2.5" style="stroke:#181818;stroke-width:0.5;" width="137.708" x="66" y="367"/><text fill="#000000" font-family="sans-serif" font-size="14" lengthAdjust="spacing" textLength="117.708" x="76" y="389.9951">GradoRepository</text></g><!--entity Grado--><g class="entity" data-qualified-name="eliminarGrado.Grado" data-source-line="11" id="ent0009"><rect fill="#F2AC4E" height="36.2969" rx="2.5" ry="2.5" style="stroke:#181818;stroke-width:0.5;" width="62.6357" x="103.5" y="464"/><text fill="#000000" font-family="sans-serif" font-size="14" lengthAdjust="spacing" textLength="42.6357" x="113.5" y="486.9951">Grado</text></g><!--entity Alumno--><g class="entity" data-qualified-name="eliminarGrado.Alumno" data-source-line="12" id="ent0010"><rect fill="#F2AC4E" height="36.2969" rx="2.5" ry="2.5" style="stroke:#181818;stroke-width:0.5;" width="73.416" x="56.5" y="561"/><text fill="#000000" font-family="sans-serif" font-size="14" lengthAdjust="spacing" textLength="53.416" x="66.5" y="583.9951">Alumno</text></g><!--entity Asignatura--><g class="entity" data-qualified-name="eliminarGrado.Asignatura" data-source-line="13" id="ent0011"><rect fill="#F2AC4E" height="36.2969" rx="2.5" ry="2.5" style="stroke:#181818;stroke-width:0.5;" width="95.7969" x="165" y="561"/><text fill="#000000" font-family="sans-serif" font-size="14" lengthAdjust="spacing" textLength="75.7969" x="175" y="583.9951">Asignatura</text></g><!--entity GradosAbierto--><g class="entity" data-qualified-name="GradosAbierto" data-source-line="3" id="ent0002"><rect fill="#CDEBA5" height="36.2969" rx="2.5" ry="2.5" style="stroke:#181818;stroke-width:0.5;" width="154.0117" x="222" y="7"/><text fill="#000000" font-family="sans-serif" font-size="14" lengthAdjust="spacing" textLength="134.0117" x="232" y="29.9951">:GRADOS_ABIERTO</text></g><!--entity GradoAbierto--><g class="entity" data-qualified-name="GradoAbierto" data-source-line="4" id="ent0003"><rect fill="#CDEBA5" height="36.2969" rx="2.5" ry="2.5" style="stroke:#181818;stroke-width:0.5;" width="145.125" x="420.5" y="7"/><text fill="#000000" font-family="sans-serif" font-size="14" lengthAdjust="spacing" textLength="125.125" x="430.5" y="29.9951">:GRADO_ABIERTO</text></g><!--entity VerGrados--><g class="entity" data-qualified-name="VerGrados" data-source-line="5" id="ent0004"><rect fill="#CDEBA5" height="36.2969" rx="2.5" ry="2.5" style="stroke:#181818;stroke-width:0.5;" width="195.0547" x="621.5" y="254"/><text fill="#000000" font-family="sans-serif" font-size="14" lengthAdjust="spacing" textLength="175.0547" x="631.5" y="276.9951">:Collaboration verGrados</text></g><!--link GradosAbierto to EliminarGradoView--><g class="link" data-entity-1="ent0002" data-entity-2="ent0006" data-link-type="dependency" data-source-line="16" id="lnk12"><path d="M297.9,43.23 C297.04,56.65 296,73 296,73 C296,73 296,90 296,90 C296,90 336.1778,117.3271 365.8078,137.4671" fill="none" id="GradosAbierto-to-EliminarGradoView" style="stroke:#181818;stroke-width:1;"/><polygon fill="#181818" points="370.77,140.84,365.5753,132.4725,366.6348,138.0293,361.0781,139.0888,370.77,140.84" style="stroke:#181818;stroke-width:1;"/><text fill="#000000" font-family="sans-serif" font-size="13" lengthAdjust="spacing" textLength="152.6357" x="297" y="86.0669">eliminarGrado(gradoId)</text></g><!--link GradoAbierto to EliminarGradoView--><g class="link" data-entity-1="ent0003" data-entity-2="ent0006" data-link-type="dependency" data-source-line="17" id="lnk13"><path d="M482.55,43.15 C471,62.11 454,90 454,90 C454,90 431.7139,116.1352 414.5339,136.2752" fill="none" id="GradoAbierto-to-EliminarGradoView" style="stroke:#181818;stroke-width:1;"/><polygon fill="#181818" points="410.64,140.84,419.5241,136.5887,413.8849,137.036,413.4377,131.3968,410.64,140.84" style="stroke:#181818;stroke-width:1;"/><text fill="#000000" font-family="sans-serif" font-size="13" lengthAdjust="spacing" textLength="152.6357" x="464" y="86.0669">eliminarGrado(gradoId)</text></g><!--link EliminarGradoView to GradosController--><g class="link" data-entity-1="ent0006" data-entity-2="ent0007" data-link-type="dependency" data-source-line="19" id="lnk14"><path d="M318.82,170.61 C217.95,184.47 54,207 54,207 C54,207 54,224 54,224 C54,224 96.9962,238.5378 136.7362,251.9778" fill="none" id="EliminarGradoView-to-GradosController" style="stroke:#181818;stroke-width:1;"/><polygon fill="#181818" points="142.42,253.9,135.1759,247.2275,137.6835,252.2981,132.6129,254.8058,142.42,253.9" style="stroke:#181818;stroke-width:1;"/><text fill="#000000" font-family="sans-serif" font-size="13" lengthAdjust="spacing" textLength="297.832" x="55" y="220.0669">cargarGradoParaEliminacion(gradoId) : Grado</text></g><!--link EliminarGradoView to GradosController--><g class="link" data-entity-1="ent0006" data-entity-2="ent0007" data-link-type="dependency" data-source-line="27" id="lnk19"><path d="M385.55,177.15 C374,196.11 357,224 357,224 C357,224 305.3277,238.8068 258.4377,252.2468" fill="none" id="EliminarGradoView-to-GradosController-1" style="stroke:#181818;stroke-width:1;"/><polygon fill="#181818" points="252.67,253.9,262.4238,255.2654,257.4765,252.5223,260.2195,247.575,252.67,253.9" style="stroke:#181818;stroke-width:1;"/><text fill="#000000" font-family="sans-serif" font-size="13" lengthAdjust="spacing" textLength="192.791" x="367" y="220.0669">eliminarGrado(gradoId) : void</text></g><!--link GradosController to GradoRepository--><g class="link" data-entity-1="ent0007" data-entity-2="ent0008" data-link-type="dependency" data-source-line="21" id="lnk15"><path d="M148.61,290.1 C113.73,303.54 71,320 71,320 C71,320 71,337 71,337 C71,337 88.4353,349.7968 106.6953,363.2168" fill="none" id="GradosController-to-GradoRepository" style="stroke:#181818;stroke-width:1;"/><polygon fill="#181818" points="111.53,366.77,106.6467,358.217,107.5011,363.809,101.9091,364.6633,111.53,366.77" style="stroke:#181818;stroke-width:1;"/><text fill="#000000" font-family="sans-serif" font-size="13" lengthAdjust="spacing" textLength="196.3394" x="72" y="333.0669">obtenerPorId(gradoId) : Grado</text></g><!--link GradosController to GradoRepository--><g class="link" data-entity-1="ent0007" data-entity-2="ent0008" data-link-type="dependency" data-source-line="29" id="lnk20"><path d="M222.33,290.23 C245.17,303.65 273,320 273,320 C273,320 273,337 273,337 C273,337 230.3496,351.5255 190.8896,364.9655" fill="none" id="GradosController-to-GradoRepository-1" style="stroke:#181818;stroke-width:1;"/><polygon fill="#181818" points="185.21,366.9,195.019,367.7847,189.943,365.2879,192.4398,360.2119,185.21,366.9" style="stroke:#181818;stroke-width:1;"/><text fill="#000000" font-family="sans-serif" font-size="13" lengthAdjust="spacing" textLength="153.2007" x="274" y="333.0669">eliminar(gradoId) : void</text></g><!--link GradoRepository to Grado--><g class="link" data-entity-1="ent0008" data-entity-2="ent0009" data-link-type="association" data-source-line="23" id="lnk16"><path d="M135,403.42 C135,420.57 135,446.58 135,463.69" fill="none" id="GradoRepository-Grado" style="stroke:#181818;stroke-width:1;"/></g><!--link Grado to Alumno--><g class="link" data-entity-1="ent0009" data-entity-2="ent0010" data-link-type="association" data-source-line="24" id="lnk17"><path d="M127.3,500.42 C119.72,517.57 108.22,543.58 100.65,560.69" fill="none" id="Grado-Alumno" style="stroke:#181818;stroke-width:1;"/></g><!--link Grado to Asignatura--><g class="link" data-entity-1="ent0009" data-entity-2="ent0011" data-link-type="association" data-source-line="25" id="lnk18"><path d="M149.31,500.42 C163.38,517.57 184.74,543.58 198.78,560.69" fill="none" id="Grado-Asignatura" style="stroke:#181818;stroke-width:1;"/></g><!--link EliminarGradoView to VerGrados--><g class="link" data-entity-1="ent0006" data-entity-2="ent0004" data-link-type="dependency" data-source-line="31" id="lnk21"><path d="M458.58,177.1 C507.76,190.54 568,207 568,207 C568,207 628.286,232.548 673.006,251.508" fill="none" id="EliminarGradoView-to-VerGrados" style="stroke:#181818;stroke-width:1;stroke-dasharray:7,7;"/><polygon fill="#181818" points="678.53,253.85,671.8053,246.6543,673.9266,251.8983,668.6826,254.0196,678.53,253.85" style="stroke:#181818;stroke-width:1;"/><text fill="#000000" font-family="sans-serif" font-size="13" lengthAdjust="spacing" textLength="144.6821" x="605" y="220.0669">&#171;include&#187; verGrados()</text></g><?plantuml-src bLF1Yi8m4BtdAuRkHGzwa5NM8eLQgtXItCMhfCrGWZ4fQNIHPVzzewrRsrhPpI4mcVTUPbucsPxBb6fw0C4bcdEAa2fnlWI4Q8mDbOb0U0bcuTGVWkCkDlvizRxpfyjmyx5oW6Qmq9Ifp8yuQgFQIKtECqgWXA2HqjHm9U64Eh_bIjxU8a9I6kzfWe227xYa-Va5urHEEbq7lWZOTNVNQ30EvsC8xu5RZfzrN3ICsEYjQ3DGqcXR6-ewR3xmWzSmXsqmLHatIf-VeLfolZWUP6iouucavgWf-IQaOZtqUbwp6xVgJIUvx4lM9VTFy4ygQK2Xnwn2tI8NOggJ0hQsOrRmOlkclshW5cwGElrQLSrF5rHaKA9UAxraRI8btceKcNmqR5ZuMyQbfOyQUzZNOsDi5IV5sLyxkOaq-Sqo-dsld7iN9XCkOt5aw7dbv-XqVm00?></g></svg>