<?plantuml 1.2026.2?><svg xmlns="http://www.w3.org/2000/svg" xmlns:xlink="http://www.w3.org/1999/xlink" contentStyleType="text/css" data-diagram-type="DESCRIPTION" height="520px" preserveAspectRatio="none" style="width:2148px;height:520px;background:#FFFFFF;" version="1.1" viewBox="0 0 2148 520" width="2148px" zoomAndPan="magnify"><defs/><g><!--cluster verAsignaturas--><g class="cluster" data-qualified-name="verAsignaturas" data-source-line="5" id="ent0004"><path d="M184,6 L318.0684,6 A3.75,3.75 0 0 1 320.5684,8.5 L327.5684,28.2969 L833,28.2969 A2.5,2.5 0 0 1 835.5,30.7969 L835.5,510.5 A2.5,2.5 0 0 1 833,513 L184,513 A2.5,2.5 0 0 1 181.5,510.5 L181.5,8.5 A2.5,2.5 0 0 1 184,6" fill="none" style="stroke:#000000;stroke-width:1.5;"/><line style="stroke:#000000;stroke-width:1.5;" x1="181.5" x2="327.5684" y1="28.2969" y2="28.2969"/><text fill="#000000" font-family="sans-serif" font-size="14" font-weight="bold" lengthAdjust="spacing" textLength="133.0684" x="185.5" y="20.9951">verAsignaturas()</text></g><!--entity VerAsignaturasView--><g class="entity" data-qualified-name="verAsignaturas.VerAsignaturasView" data-source-line="6" id="ent0005"><rect fill="#629EF9" height="36.2969" rx="2.5" ry="2.5" style="stroke:#181818;stroke-width:0.5;" width="160.5674" x="658" y="41"/><text fill="#000000" font-family="sans-serif" font-size="14" lengthAdjust="spacing" textLength="140.5674" x="668" y="63.9951">VerAsignaturasView</text></g><!--entity AsignaturasController--><g class="entity" data-qualified-name="verAsignaturas.AsignaturasController" data-source-line="7" id="ent0006"><rect fill="#B5BD68" height="36.2969" rx="2.5" ry="2.5" style="stroke:#181818;stroke-width:0.5;" width="172.2637" x="306.5" y="154"/><text fill="#000000" font-family="sans-serif" font-size="14" lengthAdjust="spacing" textLength="152.2637" x="316.5" y="176.9951">AsignaturasController</text></g><!--entity AsignaturaRepository--><g class="entity" data-qualified-name="verAsignaturas.AsignaturaRepository" data-source-line="8" id="ent0007"><rect fill="#F2AC4E" height="36.2969" rx="2.5" ry="2.5" style="stroke:#181818;stroke-width:0.5;" width="170.8691" x="222" y="267"/><text fill="#000000" font-family="sans-serif" font-size="14" lengthAdjust="spacing" textLength="150.8691" x="232" y="289.9951">AsignaturaRepository</text></g><!--entity Asignatura--><g class="entity" data-qualified-name="verAsignaturas.Asignatura" data-source-line="9" id="ent0008"><rect fill="#F2AC4E" height="36.2969" rx="2.5" ry="2.5" style="stroke:#181818;stroke-width:0.5;" width="95.7969" x="259.5" y="364"/><text fill="#000000" font-family="sans-serif" font-size="14" lengthAdjust="spacing" textLength="75.7969" x="269.5" y="386.9951">Asignatura</text></g><!--entity Grado--><g class="entity" data-qualified-name="verAsignaturas.Grado" data-source-line="10" id="ent0009"><rect fill="#F2AC4E" height="36.2969" rx="2.5" ry="2.5" style="stroke:#181818;stroke-width:0.5;" width="62.6357" x="233" y="461"/><text fill="#000000" font-family="sans-serif" font-size="14" lengthAdjust="spacing" textLength="42.6357" x="243" y="483.9951">Grado</text></g><!--entity Alumno--><g class="entity" data-qualified-name="verAsignaturas.Alumno" data-source-line="11" id="ent0010"><rect fill="#F2AC4E" height="36.2969" rx="2.5" ry="2.5" style="stroke:#181818;stroke-width:0.5;" width="73.416" x="331" y="461"/><text fill="#000000" font-family="sans-serif" font-size="14" lengthAdjust="spacing" textLength="53.416" x="341" y="483.9951">Alumno</text></g><!--entity SistemaDisponible--><g class="entity" data-qualified-name="SistemaDisponible" data-source-line="3" id="ent0002"><rect fill="#CDEBA5" height="36.2969" rx="2.5" ry="2.5" style="stroke:#181818;stroke-width:0.5;" width="159.125" x="7" y="41"/><text fill="#000000" font-family="sans-serif" font-size="14" lengthAdjust="spacing" textLength="139.125" x="17" y="63.9951">:Sistema Disponible</text></g><!--entity AsignaturaAbierto--><g class="entity" data-qualified-name="AsignaturaAbierto" data-source-line="4" id="ent0003"><rect fill="#CDEBA5" height="36.2969" rx="2.5" ry="2.5" style="stroke:#181818;stroke-width:0.5;" width="155.7412" x="963.5" y="41"/><text fill="#000000" font-family="sans-serif" font-size="14" lengthAdjust="spacing" textLength="135.7412" x="973.5" y="63.9951">:Asignatura Abierto</text></g><!--entity SistemaDisponibleSalida--><g class="entity" data-qualified-name="SistemaDisponibleSalida" data-source-line="14" id="ent0011"><rect fill="#CDEBA5" height="36.2969" rx="2.5" ry="2.5" style="stroke:#181818;stroke-width:0.5;" width="159.125" x="851" y="154"/><text fill="#000000" font-family="sans-serif" font-size="14" lengthAdjust="spacing" textLength="139.125" x="861" y="176.9951">:Sistema Disponible</text></g><!--entity ImportarAsignatura--><g class="entity" data-qualified-name="ImportarAsignatura" data-source-line="15" id="ent0012"><rect fill="#CDEBA5" height="36.2969" rx="2.5" ry="2.5" style="stroke:#181818;stroke-width:0.5;" width="259.0664" x="1045" y="154"/><text fill="#000000" font-family="sans-serif" font-size="14" lengthAdjust="spacing" textLength="239.0664" x="1055" y="176.9951">:Collaboration ImportarAsignatura</text></g><!--entity CrearAsignatura--><g class="entity" data-qualified-name="CrearAsignatura" data-source-line="16" id="ent0013"><rect fill="#CDEBA5" height="36.2969" rx="2.5" ry="2.5" style="stroke:#181818;stroke-width:0.5;" width="236.7471" x="1339" y="154"/><text fill="#000000" font-family="sans-serif" font-size="14" lengthAdjust="spacing" textLength="216.7471" x="1349" y="176.9951">:Collaboration CrearAsignatura</text></g><!--entity EditarAsignatura--><g class="entity" data-qualified-name="EditarAsignatura" data-source-line="17" id="ent0014"><rect fill="#CDEBA5" height="36.2969" rx="2.5" ry="2.5" style="stroke:#181818;stroke-width:0.5;" width="239.7139" x="1611.5" y="154"/><text fill="#000000" font-family="sans-serif" font-size="14" lengthAdjust="spacing" textLength="219.7139" x="1621.5" y="176.9951">:Collaboration EditarAsignatura</text></g><!--entity EliminarAsignatura--><g class="entity" data-qualified-name="EliminarAsignatura" data-source-line="18" id="ent0015"><rect fill="#CDEBA5" height="36.2969" rx="2.5" ry="2.5" style="stroke:#181818;stroke-width:0.5;" width="255.6279" x="1886.5" y="154"/><text fill="#000000" font-family="sans-serif" font-size="14" lengthAdjust="spacing" textLength="235.6279" x="1896.5" y="176.9951">:Collaboration EliminarAsignatura</text></g><!--link SistemaDisponible to VerAsignaturasView--><g class="link" data-entity-1="ent0002" data-entity-2="ent0005" data-link-type="dependency" data-source-line="20" id="lnk16"><path d="M166.12,59 C291.13,59 526.13,59 651.81,59" fill="none" id="SistemaDisponible-to-VerAsignaturasView" style="stroke:#181818;stroke-width:1;"/><polygon fill="#181818" points="657.81,59,648.81,55,652.81,59,648.81,63,657.81,59" style="stroke:#181818;stroke-width:1;"/><text fill="#000000" font-family="sans-serif" font-size="13" lengthAdjust="spacing" textLength="108.3354" x="358" y="52.0669">verAsignaturas()</text></g><!--link AsignaturaAbierto to VerAsignaturasView--><g class="link" data-entity-1="ent0003" data-entity-2="ent0005" data-link-type="dependency" data-source-line="21" id="lnk17"><path d="M963.28,59 C919.08,59 869.92,59 825.3,59" fill="none" id="AsignaturaAbierto-to-VerAsignaturasView" style="stroke:#181818;stroke-width:1;"/><polygon fill="#181818" points="819.3,59,828.3,63,824.3,59,828.3,55,819.3,59" style="stroke:#181818;stroke-width:1;"/><text fill="#000000" font-family="sans-serif" font-size="13" lengthAdjust="spacing" textLength="108.3354" x="837.25" y="52.0669">verAsignaturas()</text></g><!--link VerAsignaturasView to AsignaturasController--><g class="link" data-entity-1="ent0005" data-entity-2="ent0006" data-link-type="dependency" data-source-line="23" id="lnk18"><path d="M657.85,67.45 C514.32,80.7 229.5,107 229.5,107 C229.5,107 229.5,124 229.5,124 C229.5,124 280.825,138.7973 327.425,152.2373" fill="none" id="VerAsignaturasView-to-AsignaturasController" style="stroke:#181818;stroke-width:1;"/><polygon fill="#181818" points="333.19,153.9,325.6509,147.5626,328.3858,152.5144,323.434,155.2493,333.19,153.9" style="stroke:#181818;stroke-width:1;"/><text fill="#000000" font-family="sans-serif" font-size="13" lengthAdjust="spacing" textLength="247.2412" x="230.5" y="120.0669">listarAsignaturas() : List&lt;Asignatura&gt;</text></g><!--link VerAsignaturasView to AsignaturasController--><g class="link" data-entity-1="ent0005" data-entity-2="ent0006" data-link-type="dependency" data-source-line="33" id="lnk23"><path d="M659.85,77.03 C597.75,90.49 521.5,107 521.5,107 C521.5,107 470.6547,132.223 432.4447,151.183" fill="none" id="VerAsignaturasView-to-AsignaturasController-1" style="stroke:#181818;stroke-width:1;"/><polygon fill="#181818" points="427.07,153.85,436.91,153.4327,431.5489,151.6275,433.3541,146.2664,427.07,153.85" style="stroke:#181818;stroke-width:1;"/><text fill="#000000" font-family="sans-serif" font-size="13" lengthAdjust="spacing" textLength="296.499" x="522.5" y="120.0669">filtrarAsignaturas(criterio) : List&lt;Asignatura&gt;</text></g><!--link AsignaturasController to AsignaturaRepository--><g class="link" data-entity-1="ent0006" data-entity-2="ent0007" data-link-type="dependency" data-source-line="25" id="lnk19"><path d="M336.83,190.1 C293.08,203.54 239.5,220 239.5,220 C239.5,220 239.5,237 239.5,237 C239.5,237 258.2247,249.9378 277.6347,263.3578" fill="none" id="AsignaturasController-to-AsignaturaRepository" style="stroke:#181818;stroke-width:1;"/><polygon fill="#181818" points="282.57,266.77,277.4419,258.3615,278.4573,263.9265,272.8923,264.9418,282.57,266.77" style="stroke:#181818;stroke-width:1;"/><text fill="#000000" font-family="sans-serif" font-size="13" lengthAdjust="spacing" textLength="227.4365" x="240.5" y="233.0669">obtenerTodos() : List&lt;Asignatura&gt;</text></g><!--link AsignaturasController to AsignaturaRepository--><g class="link" data-entity-1="ent0006" data-entity-2="ent0007" data-link-type="dependency" data-source-line="35" id="lnk24"><path d="M421.83,190.23 C444.67,203.65 472.5,220 472.5,220 C472.5,220 472.5,237 472.5,237 C472.5,237 420.4803,251.8159 373.3103,265.2559" fill="none" id="AsignaturasController-to-AsignaturaRepository-1" style="stroke:#181818;stroke-width:1;"/><polygon fill="#181818" points="367.54,266.9,377.2916,268.2807,372.3486,265.5299,375.0994,260.5869,367.54,266.9" style="stroke:#181818;stroke-width:1;"/><text fill="#000000" font-family="sans-serif" font-size="13" lengthAdjust="spacing" textLength="296.6895" x="473.5" y="233.0669">buscarPorCriterio(criterio) : List&lt;Asignatura&gt;</text></g><!--link AsignaturaRepository to Asignatura--><g class="link" data-entity-1="ent0007" data-entity-2="ent0008" data-link-type="association" data-source-line="27" id="lnk20"><path d="M307.5,303.42 C307.5,320.57 307.5,346.58 307.5,363.69" fill="none" id="AsignaturaRepository-Asignatura" style="stroke:#181818;stroke-width:1;"/></g><!--link Asignatura to Grado--><g class="link" data-entity-1="ent0008" data-entity-2="ent0009" data-link-type="dependency" data-source-line="29" id="lnk21"><path d="M299.61,400.42 C291.85,417.57 282.5529,438.1133 274.8129,455.2233" fill="none" id="Asignatura-to-Grado" style="stroke:#181818;stroke-width:1;"/><polygon fill="#181818" points="272.34,460.69,279.6939,454.1386,274.4008,456.1344,272.405,450.8414,272.34,460.69" style="stroke:#181818;stroke-width:1;"/></g><!--link Asignatura to Alumno--><g class="link" data-entity-1="ent0008" data-entity-2="ent0010" data-link-type="dependency" data-source-line="30" id="lnk22"><path d="M318.5,400.42 C329.33,417.57 342.5574,438.5062 353.3574,455.6162" fill="none" id="Asignatura-to-Alumno" style="stroke:#181818;stroke-width:1;"/><polygon fill="#181818" points="356.56,460.69,355.1386,450.9443,353.8912,456.4619,348.3736,455.2144,356.56,460.69" style="stroke:#181818;stroke-width:1;"/></g><!--link VerAsignaturasView to ImportarAsignatura--><g class="link" data-entity-1="ent0005" data-entity-2="ent0012" data-link-type="dependency" data-source-line="37" id="lnk25"><path d="M819.02,75.26 C891.43,88.98 986.5,107 986.5,107 C986.5,107 1062.7502,132.9563 1118.4402,151.9163" fill="none" id="VerAsignaturasView-to-ImportarAsignatura" style="stroke:#181818;stroke-width:1;stroke-dasharray:7,7;"/><polygon fill="#181818" points="1124.12,153.85,1116.8894,147.1628,1119.3868,152.2386,1114.3111,154.736,1124.12,153.85" style="stroke:#181818;stroke-width:1;"/><text fill="#000000" font-family="sans-serif" font-size="13" lengthAdjust="spacing" textLength="136.7603" x="1032.5" y="120.0669">importarAsignatura()</text></g><!--link VerAsignaturasView to SistemaDisponibleSalida--><g class="link" data-entity-1="ent0005" data-entity-2="ent0011" data-link-type="dependency" data-source-line="38" id="lnk26"><path d="M770.88,77.1 C796.33,90.54 827.5,107 827.5,107 C827.5,107 867.2939,131.7231 897.8039,150.6831" fill="none" id="VerAsignaturasView-to-SistemaDisponibleSalida" style="stroke:#181818;stroke-width:1;stroke-dasharray:7,7;"/><polygon fill="#181818" points="902.9,153.85,897.3671,145.7022,898.6532,151.2109,893.1445,152.497,902.9,153.85" style="stroke:#181818;stroke-width:1;"/><text fill="#000000" font-family="sans-serif" font-size="13" lengthAdjust="spacing" textLength="125.9248" x="852.5" y="120.0669">completarGestion()</text></g><!--link VerAsignaturasView to CrearAsignatura--><g class="link" data-entity-1="ent0005" data-entity-2="ent0013" data-link-type="dependency" data-source-line="39" id="lnk27"><path d="M819.02,68.62 C945.75,82.19 1177.5,107 1177.5,107 C1177.5,107 1294.0409,133.6329 1376.9809,152.5929" fill="none" id="VerAsignaturasView-to-CrearAsignatura" style="stroke:#181818;stroke-width:1;stroke-dasharray:7,7;"/><polygon fill="#181818" points="1382.83,153.93,1374.9477,148.0249,1377.9557,152.8157,1373.1649,155.8238,1382.83,153.93" style="stroke:#181818;stroke-width:1;"/><text fill="#000000" font-family="sans-serif" font-size="13" lengthAdjust="spacing" textLength="114.3276" x="1245.5" y="120.0669">crearAsignatura()</text></g><!--link VerAsignaturasView to EditarAsignatura--><g class="link" data-entity-1="ent0005" data-entity-2="ent0014" data-link-type="dependency" data-source-line="40" id="lnk28"><path d="M819.22,66.6 C877.68,71.38 946.5,77 946.5,77 C946.5,77 1368.5,107 1368.5,107 C1368.5,107 1521.2611,133.9281 1628.7911,152.8881" fill="none" id="VerAsignaturasView-to-EditarAsignatura" style="stroke:#181818;stroke-width:1;stroke-dasharray:7,7;"/><polygon fill="#181818" points="1634.7,153.93,1626.5313,148.428,1629.776,153.0618,1625.1421,156.3064,1634.7,153.93" style="stroke:#181818;stroke-width:1;"/><text fill="#000000" font-family="sans-serif" font-size="13" lengthAdjust="spacing" textLength="118.7964" x="1456.5" y="120.0669">editarAsignatura()</text></g><!--link VerAsignaturasView to EliminarAsignatura--><g class="link" data-entity-1="ent0005" data-entity-2="ent0015" data-link-type="dependency" data-source-line="41" id="lnk29"><path d="M819.22,66.6 C877.68,71.38 946.5,77 946.5,77 C946.5,77 1583.5,107 1583.5,107 C1583.5,107 1766.2351,134.1387 1893.9151,153.0987" fill="none" id="VerAsignaturasView-to-EliminarAsignatura" style="stroke:#181818;stroke-width:1;stroke-dasharray:7,7;"/><polygon fill="#181818" points="1899.85,153.98,1891.5352,148.7014,1894.9042,153.2456,1890.3601,156.6146,1899.85,153.98" style="stroke:#181818;stroke-width:1;"/><text fill="#000000" font-family="sans-serif" font-size="13" lengthAdjust="spacing" textLength="133.5737" x="1688.5" y="120.0669">eliminarAsignatura()</text></g><?plantuml-src hPDFJ-Cm4CNl_XIZxWKEvO00GOGgTKD1At502-Bk9BFL2CSJZLrM5UAxuvPAIUo45ktcbb_UU_wJD-w5RAD5rs38ebyt20sRzUP5AS7IQxiq23_ocyNF-JbCiaTo7ciDD-GQjbGOd81siCCj7JJF7IsjzYlHC2y8nVFMtE8TLOqkN_GIuHMb_UWssaaV7HrFu4r1U3hhNPnUBMwluBcdV2Ry6mkBywAwkEoixtAsNjWOb5XxUphFpnOTxMzis95dMU-LZWZkH5SyPZQhsh9w_xU_yAWDLNem8W-dr0MBziGMVjKDYzUT2zi6flY0h5mm2OhO0IcBYjBznF2G74CrsJGfmKebrmTJcSu6UfH1t4ALTFWRNfMgO5e5zs0nip2ghdSB8GCok0_qkeKpfGRjCEq5jotEW0kF5kM9AzuVsHf3OhVh7SrshS-MHt1Nx-6ZZv_y3nal_QENGXw5-FzSGR5ofPO7bdmNkoT_OFid9xE1kSc04XP-_OX_P90pABbk38QKEtIRUez7H1CNh7qmxeo7B0ECo1VUPAo2Es57nny0?></g></svg>