<svg xmlns="http://www.w3.org/2000/svg" xmlns:xlink="http://www.w3.org/1999/xlink" contentStyleType="text/css" data-diagram-type="DESCRIPTION" height="536px" preserveAspectRatio="none" style="width:2148px;height:536px;background:#FFFFFF;" version="1.1" viewBox="0 0 2148 536" width="2148px" zoomAndPan="magnify"><defs/><g><!--cluster verAsignaturas--><g class="cluster" data-entity="verAsignaturas" data-source-line="5" data-uid="ent0004" id="cluster_verAsignaturas"><path d="M184,6 L318.0684,6 A3.75,3.75 0 0 1 320.5684,8.5 L327.5684,28.2969 L833,28.2969 A2.5,2.5 0 0 1 835.5,30.7969 L835.5,526.5 A2.5,2.5 0 0 1 833,529 L184,529 A2.5,2.5 0 0 1 181.5,526.5 L181.5,8.5 A2.5,2.5 0 0 1 184,6" fill="none" style="stroke:#000000;stroke-width:1.5;"/><line style="stroke:#000000;stroke-width:1.5;" x1="181.5" x2="327.5684" y1="28.2969" y2="28.2969"/><text fill="#000000" font-family="sans-serif" font-size="14" font-weight="bold" lengthAdjust="spacing" textLength="133.0684" x="185.5" y="20.9951">verAsignaturas()</text></g><!--entity VerAsignaturasView--><g class="entity" data-entity="VerAsignaturasView" data-source-line="6" data-uid="ent0005" id="entity_VerAsignaturasView"><rect fill="#629EF9" height="36.2969" rx="2.5" ry="2.5" style="stroke:#181818;stroke-width:0.5;" width="160.5674" x="658" y="41"/><text fill="#000000" font-family="sans-serif" font-size="14" lengthAdjust="spacing" textLength="140.5674" x="668" y="63.9951">VerAsignaturasView</text></g><!--entity AsignaturasController--><g class="entity" data-entity="AsignaturasController" data-source-line="7" data-uid="ent0006" id="entity_AsignaturasController"><rect fill="#B5BD68" height="36.2969" rx="2.5" ry="2.5" style="stroke:#181818;stroke-width:0.5;" width="172.2637" x="306.5" y="154"/><text fill="#000000" font-family="sans-serif" font-size="14" lengthAdjust="spacing" textLength="152.2637" x="316.5" y="176.9951">AsignaturasController</text></g><!--entity AsignaturaRepository--><g class="entity" data-entity="AsignaturaRepository" data-source-line="8" data-uid="ent0007" id="entity_AsignaturaRepository"><rect fill="#F2AC4E" height="36.2969" rx="2.5" ry="2.5" style="stroke:#181818;stroke-width:0.5;" width="170.8691" x="312" y="267"/><text fill="#000000" font-family="sans-serif" font-size="14" lengthAdjust="spacing" textLength="150.8691" x="322" y="289.9951">AsignaturaRepository</text></g><!--entity Asignatura--><g class="entity" data-entity="Asignatura" data-source-line="9" data-uid="ent0008" id="entity_Asignatura"><rect fill="#F2AC4E" height="36.2969" rx="2.5" ry="2.5" style="stroke:#181818;stroke-width:0.5;" width="95.7969" x="349.5" y="364"/><text fill="#000000" font-family="sans-serif" font-size="14" lengthAdjust="spacing" textLength="75.7969" x="359.5" y="386.9951">Asignatura</text></g><!--entity Grado--><g class="entity" data-entity="Grado" data-source-line="10" data-uid="ent0009" id="entity_Grado"><rect fill="#F2AC4E" height="36.2969" rx="2.5" ry="2.5" style="stroke:#181818;stroke-width:0.5;" width="62.6357" x="366" y="477"/><text fill="#000000" font-family="sans-serif" font-size="14" lengthAdjust="spacing" textLength="42.6357" x="376" y="499.9951">Grado</text></g><!--entity SistemaDisponible--><g class="entity" data-entity="SistemaDisponible" data-source-line="3" data-uid="ent0002" id="entity_SistemaDisponible"><rect fill="#CDEBA5" height="36.2969" rx="2.5" ry="2.5" style="stroke:#181818;stroke-width:0.5;" width="159.125" x="7" y="41"/><text fill="#000000" font-family="sans-serif" font-size="14" lengthAdjust="spacing" textLength="139.125" x="17" y="63.9951">:Sistema Disponible</text></g><!--entity AsignaturaAbierto--><g class="entity" data-entity="AsignaturaAbierto" data-source-line="4" data-uid="ent0003" id="entity_AsignaturaAbierto"><rect fill="#CDEBA5" height="36.2969" rx="2.5" ry="2.5" style="stroke:#181818;stroke-width:0.5;" width="155.7412" x="963.5" y="41"/><text fill="#000000" font-family="sans-serif" font-size="14" lengthAdjust="spacing" textLength="135.7412" x="973.5" y="63.9951">:Asignatura Abierto</text></g><!--entity SistemaDisponibleSalida--><g class="entity" data-entity="SistemaDisponibleSalida" data-source-line="13" data-uid="ent0010" id="entity_SistemaDisponibleSalida"><rect fill="#CDEBA5" height="36.2969" rx="2.5" ry="2.5" style="stroke:#181818;stroke-width:0.5;" width="159.125" x="851" y="154"/><text fill="#000000" font-family="sans-serif" font-size="14" lengthAdjust="spacing" textLength="139.125" x="861" y="176.9951">:Sistema Disponible</text></g><!--entity ImportarAsignatura--><g class="entity" data-entity="ImportarAsignatura" data-source-line="14" data-uid="ent0011" id="entity_ImportarAsignatura"><rect fill="#CDEBA5" height="36.2969" rx="2.5" ry="2.5" style="stroke:#181818;stroke-width:0.5;" width="259.0664" x="1045" y="154"/><text fill="#000000" font-family="sans-serif" font-size="14" lengthAdjust="spacing" textLength="239.0664" x="1055" y="176.9951">:Collaboration ImportarAsignatura</text></g><!--entity CrearAsignatura--><g class="entity" data-entity="CrearAsignatura" data-source-line="15" data-uid="ent0012" id="entity_CrearAsignatura"><rect fill="#CDEBA5" height="36.2969" rx="2.5" ry="2.5" style="stroke:#181818;stroke-width:0.5;" width="236.7471" x="1339" y="154"/><text fill="#000000" font-family="sans-serif" font-size="14" lengthAdjust="spacing" textLength="216.7471" x="1349" y="176.9951">:Collaboration CrearAsignatura</text></g><!--entity EditarAsignatura--><g class="entity" data-entity="EditarAsignatura" data-source-line="16" data-uid="ent0013" id="entity_EditarAsignatura"><rect fill="#CDEBA5" height="36.2969" rx="2.5" ry="2.5" style="stroke:#181818;stroke-width:0.5;" width="239.7139" x="1611.5" y="154"/><text fill="#000000" font-family="sans-serif" font-size="14" lengthAdjust="spacing" textLength="219.7139" x="1621.5" y="176.9951">:Collaboration EditarAsignatura</text></g><!--entity EliminarAsignatura--><g class="entity" data-entity="EliminarAsignatura" data-source-line="17" data-uid="ent0014" id="entity_EliminarAsignatura"><rect fill="#CDEBA5" height="36.2969" rx="2.5" ry="2.5" style="stroke:#181818;stroke-width:0.5;" width="255.6279" x="1886.5" y="154"/><text fill="#000000" font-family="sans-serif" font-size="14" lengthAdjust="spacing" textLength="235.6279" x="1896.5" y="176.9951">:Collaboration EliminarAsignatura</text></g><!--link SistemaDisponible to VerAsignaturasView--><g class="link" data-entity-1="SistemaDisponible" data-entity-2="VerAsignaturasView" data-source-line="19" data-uid="lnk15" id="link_SistemaDisponible_VerAsignaturasView"><path d="M166.12,59 C291.13,59 526.13,59 651.81,59" fill="none" id="SistemaDisponible-to-VerAsignaturasView" style="stroke:#181818;stroke-width:1;"/><polygon fill="#181818" points="657.81,59,648.81,55,652.81,59,648.81,63,657.81,59" style="stroke:#181818;stroke-width:1;"/><text fill="#000000" font-family="sans-serif" font-size="13" lengthAdjust="spacing" textLength="108.3354" x="358" y="52.0669">verAsignaturas()</text></g><!--link AsignaturaAbierto to VerAsignaturasView--><g class="link" data-entity-1="AsignaturaAbierto" data-entity-2="VerAsignaturasView" data-source-line="20" data-uid="lnk16" id="link_AsignaturaAbierto_VerAsignaturasView"><path d="M963.28,59 C919.08,59 869.92,59 825.3,59" fill="none" id="AsignaturaAbierto-to-VerAsignaturasView" style="stroke:#181818;stroke-width:1;"/><polygon fill="#181818" points="819.3,59,828.3,63,824.3,59,828.3,55,819.3,59" style="stroke:#181818;stroke-width:1;"/><text fill="#000000" font-family="sans-serif" font-size="13" lengthAdjust="spacing" textLength="108.3354" x="837.25" y="52.0669">verAsignaturas()</text></g><!--link VerAsignaturasView to AsignaturasController--><g class="link" data-entity-1="VerAsignaturasView" data-entity-2="AsignaturasController" data-source-line="22" data-uid="lnk17" id="link_VerAsignaturasView_AsignaturasController"><path d="M657.85,67.45 C514.32,80.7 229.5,107 229.5,107 C229.5,107 229.5,124 229.5,124 C229.5,124 280.825,138.7973 327.425,152.2373" fill="none" id="VerAsignaturasView-to-AsignaturasController" style="stroke:#181818;stroke-width:1;"/><polygon fill="#181818" points="333.19,153.9,325.6509,147.5626,328.3858,152.5144,323.434,155.2493,333.19,153.9" style="stroke:#181818;stroke-width:1;"/><text fill="#000000" font-family="sans-serif" font-size="13" lengthAdjust="spacing" textLength="247.2412" x="230.5" y="120.0669">listarAsignaturas() : List&lt;Asignatura&gt;</text></g><!--link VerAsignaturasView to AsignaturasController--><g class="link" data-entity-1="VerAsignaturasView" data-entity-2="AsignaturasController" data-source-line="30" data-uid="lnk21" id="link_VerAsignaturasView_AsignaturasController"><path d="M659.85,77.03 C597.75,90.49 521.5,107 521.5,107 C521.5,107 470.6547,132.223 432.4447,151.183" fill="none" id="VerAsignaturasView-to-AsignaturasController-1" style="stroke:#181818;stroke-width:1;"/><polygon fill="#181818" points="427.07,153.85,436.91,153.4327,431.5489,151.6275,433.3541,146.2664,427.07,153.85" style="stroke:#181818;stroke-width:1;"/><text fill="#000000" font-family="sans-serif" font-size="13" lengthAdjust="spacing" textLength="296.499" x="522.5" y="120.0669">filtrarAsignaturas(criterio) : List&lt;Asignatura&gt;</text></g><!--link AsignaturasController to AsignaturaRepository--><g class="link" data-entity-1="AsignaturasController" data-entity-2="AsignaturaRepository" data-source-line="24" data-uid="lnk18" id="link_AsignaturasController_AsignaturaRepository"><path d="M336.83,190.1 C293.08,203.54 239.5,220 239.5,220 C239.5,220 239.5,237 239.5,237 C239.5,237 289.0892,251.7489 334.2592,265.1889" fill="none" id="AsignaturasController-to-AsignaturaRepository" style="stroke:#181818;stroke-width:1;"/><polygon fill="#181818" points="340.01,266.9,332.5245,260.4994,335.2176,265.4741,330.243,268.1672,340.01,266.9" style="stroke:#181818;stroke-width:1;"/><text fill="#000000" font-family="sans-serif" font-size="13" lengthAdjust="spacing" textLength="227.4365" x="240.5" y="233.0669">obtenerTodos() : List&lt;Asignatura&gt;</text></g><!--link AsignaturasController to AsignaturaRepository--><g class="link" data-entity-1="AsignaturasController" data-entity-2="AsignaturaRepository" data-source-line="32" data-uid="lnk22" id="link_AsignaturasController_AsignaturaRepository"><path d="M421.83,190.23 C444.67,203.65 472.5,220 472.5,220 C472.5,220 472.5,237 472.5,237 C472.5,237 451.4939,250.1634 430.0839,263.5834" fill="none" id="AsignaturasController-to-AsignaturaRepository-1" style="stroke:#181818;stroke-width:1;"/><polygon fill="#181818" points="425,266.77,434.7502,265.3793,429.2365,264.1145,430.5014,258.6009,425,266.77" style="stroke:#181818;stroke-width:1;"/><text fill="#000000" font-family="sans-serif" font-size="13" lengthAdjust="spacing" textLength="296.6895" x="473.5" y="233.0669">buscarPorCriterio(criterio) : List&lt;Asignatura&gt;</text></g><!--link AsignaturaRepository to Asignatura--><g class="link" data-entity-1="AsignaturaRepository" data-entity-2="Asignatura" data-source-line="26" data-uid="lnk19" id="link_AsignaturaRepository_Asignatura"><path d="M397.5,303.42 C397.5,320.57 397.5,346.58 397.5,363.69" fill="none" id="AsignaturaRepository-Asignatura" style="stroke:#181818;stroke-width:1;"/></g><!--link Asignatura to Grado--><g class="link" data-entity-1="Asignatura" data-entity-2="Grado" data-source-line="28" data-uid="lnk20" id="link_Asignatura_Grado"><path d="M397.5,400.34 C397.5,421.2 397.5,449.98 397.5,470.78" fill="none" id="Asignatura-to-Grado" style="stroke:#181818;stroke-width:1;"/><polygon fill="#181818" points="397.5,476.78,401.5,467.78,397.5,471.78,393.5,467.78,397.5,476.78" style="stroke:#181818;stroke-width:1;"/><text fill="#000000" font-family="sans-serif" font-size="13" lengthAdjust="spacing" textLength="66.0728" x="398.5" y="443.0669">pertenece</text></g><!--link VerAsignaturasView to ImportarAsignatura--><g class="link" data-entity-1="VerAsignaturasView" data-entity-2="ImportarAsignatura" data-source-line="34" data-uid="lnk23" id="link_VerAsignaturasView_ImportarAsignatura"><path d="M819.02,75.26 C891.43,88.98 986.5,107 986.5,107 C986.5,107 1062.7502,132.9563 1118.4402,151.9163" fill="none" id="VerAsignaturasView-to-ImportarAsignatura" style="stroke:#181818;stroke-width:1;stroke-dasharray:7,7;"/><polygon fill="#181818" points="1124.12,153.85,1116.8894,147.1628,1119.3868,152.2386,1114.3111,154.736,1124.12,153.85" style="stroke:#181818;stroke-width:1;"/><text fill="#000000" font-family="sans-serif" font-size="13" lengthAdjust="spacing" textLength="136.7603" x="1032.5" y="120.0669">importarAsignatura()</text></g><!--link VerAsignaturasView to SistemaDisponibleSalida--><g class="link" data-entity-1="VerAsignaturasView" data-entity-2="SistemaDisponibleSalida" data-source-line="35" data-uid="lnk24" id="link_VerAsignaturasView_SistemaDisponibleSalida"><path d="M770.88,77.1 C796.33,90.54 827.5,107 827.5,107 C827.5,107 867.2939,131.7231 897.8039,150.6831" fill="none" id="VerAsignaturasView-to-SistemaDisponibleSalida" style="stroke:#181818;stroke-width:1;stroke-dasharray:7,7;"/><polygon fill="#181818" points="902.9,153.85,897.3671,145.7022,898.6532,151.2109,893.1445,152.497,902.9,153.85" style="stroke:#181818;stroke-width:1;"/><text fill="#000000" font-family="sans-serif" font-size="13" lengthAdjust="spacing" textLength="125.9248" x="852.5" y="120.0669">completarGestion()</text></g><!--link VerAsignaturasView to CrearAsignatura--><g class="link" data-entity-1="VerAsignaturasView" data-entity-2="CrearAsignatura" data-source-line="36" data-uid="lnk25" id="link_VerAsignaturasView_CrearAsignatura"><path d="M819.02,68.62 C945.75,82.19 1177.5,107 1177.5,107 C1177.5,107 1294.0409,133.6329 1376.9809,152.5929" fill="none" id="VerAsignaturasView-to-CrearAsignatura" style="stroke:#181818;stroke-width:1;stroke-dasharray:7,7;"/><polygon fill="#181818" points="1382.83,153.93,1374.9477,148.0249,1377.9557,152.8157,1373.1649,155.8238,1382.83,153.93" style="stroke:#181818;stroke-width:1;"/><text fill="#000000" font-family="sans-serif" font-size="13" lengthAdjust="spacing" textLength="114.3276" x="1245.5" y="120.0669">crearAsignatura()</text></g><!--link VerAsignaturasView to EditarAsignatura--><g class="link" data-entity-1="VerAsignaturasView" data-entity-2="EditarAsignatura" data-source-line="37" data-uid="lnk26" id="link_VerAsignaturasView_EditarAsignatura"><path d="M819.22,66.6 C877.68,71.38 946.5,77 946.5,77 C946.5,77 1368.5,107 1368.5,107 C1368.5,107 1521.2611,133.9281 1628.7911,152.8881" fill="none" id="VerAsignaturasView-to-EditarAsignatura" style="stroke:#181818;stroke-width:1;stroke-dasharray:7,7;"/><polygon fill="#181818" points="1634.7,153.93,1626.5313,148.428,1629.776,153.0618,1625.1421,156.3064,1634.7,153.93" style="stroke:#181818;stroke-width:1;"/><text fill="#000000" font-family="sans-serif" font-size="13" lengthAdjust="spacing" textLength="118.7964" x="1456.5" y="120.0669">editarAsignatura()</text></g><!--link VerAsignaturasView to EliminarAsignatura--><g class="link" data-entity-1="VerAsignaturasView" data-entity-2="EliminarAsignatura" data-source-line="38" data-uid="lnk27" id="link_VerAsignaturasView_EliminarAsignatura"><path d="M819.22,66.6 C877.68,71.38 946.5,77 946.5,77 C946.5,77 1583.5,107 1583.5,107 C1583.5,107 1766.2351,134.1387 1893.9151,153.0987" fill="none" id="VerAsignaturasView-to-EliminarAsignatura" style="stroke:#181818;stroke-width:1;stroke-dasharray:7,7;"/><polygon fill="#181818" points="1899.85,153.98,1891.5352,148.7014,1894.9042,153.2456,1890.3601,156.6146,1899.85,153.98" style="stroke:#181818;stroke-width:1;"/><text fill="#000000" font-family="sans-serif" font-size="13" lengthAdjust="spacing" textLength="133.5737" x="1688.5" y="120.0669">eliminarAsignatura()</text></g><!--SRC=[hPDFJzj04CNl-ob6wGKEuO0AWXMAb9g0a7f0WBYlxMaqOhspcbsAeghVlPieal-iJLArlldvlT_kZ6V26pbln3HWoM7SU0JFThDzKKgmYiQjBSANudRrRNa1C_rC8M9Zu9Q2PqUbnHcO07kvLKV3oq1hP-Ax65YMX19v5sxblQgygTxC6k4dIlinRBspldHoEeDV2jBJEU_o_7frTmslFUShuSVGM5wKzULLv_nGi8l2rg8ClNVdo-BhgkDzGi-18ilce7N2S2-cPlNxtnhzR2pLPXHHf49CoM8YiOE7nhD4q-d93fZBHx0AmGmqq8wWh6hAxpCKZ-5OQiZbf4nMAciVp6M-61aL3SD1KzcO_aLMvIwOroazEdiwRMFeTI4nGCFtfDwquaAfqJZCU-1sK3Lm6T6Xl73DXv5jC16xuzpnxCxQ3R86dvgIw1MEbpjTxG-oKVhbLa8HXVZ_b5s-Xyh88qknnnxWZrp_x6mniYiQADFIxvx8JoolXeeRRp5HxZ5iHteQCTYo5EqBqydXOcd0WV99DbkbbCwqazC_]--></g></svg>