<svg xmlns="http://www.w3.org/2000/svg" xmlns:xlink="http://www.w3.org/1999/xlink" contentStyleType="text/css" data-diagram-type="STATE" height="947px" preserveAspectRatio="none" style="width:1162px;height:947px;background:#FFFFFF;" version="1.1" viewBox="0 0 1162 947" width="1162px" zoomAndPan="magnify"><defs/><g><g id="PREGUNTAS_CONTEXTUALES_ABIERTO"><rect fill="#F1F1F1" height="50" rx="12.5" ry="12.5" style="stroke:#181818;stroke-width:0.5;" width="293.2188" x="297.5" y="7"/><line style="stroke:#181818;stroke-width:0.5;" x1="297.5" x2="590.7188" y1="33.2969" y2="33.2969"/><text fill="#000000" font-family="sans-serif" font-size="14" lengthAdjust="spacing" textLength="273.2188" x="307.5" y="24.9951">PREGUNTAS_CONTEXTUALES_ABIERTO</text></g><g id="PREGUNTAS_CONTEXTUALES_ABIERTO2"><rect fill="#F1F1F1" height="50" rx="12.5" ry="12.5" style="stroke:#181818;stroke-width:0.5;" width="293.2188" x="264.5" y="891"/><line style="stroke:#181818;stroke-width:0.5;" x1="264.5" x2="557.7188" y1="917.2969" y2="917.2969"/><text fill="#000000" font-family="sans-serif" font-size="14" lengthAdjust="spacing" textLength="273.2188" x="274.5" y="908.9951">PREGUNTAS_CONTEXTUALES_ABIERTO</text></g><g id="PREGUNTAS_ABIERTO2"><rect fill="#F1F1F1" height="50" rx="12.5" ry="12.5" style="stroke:#181818;stroke-width:0.5;" width="174.0547" x="659" y="891"/><line style="stroke:#181818;stroke-width:0.5;" x1="659" x2="833.0547" y1="917.2969" y2="917.2969"/><text fill="#000000" font-family="sans-serif" font-size="14" lengthAdjust="spacing" textLength="154.0547" x="669" y="908.9951">PREGUNTAS_ABIERTO</text></g><path d="M19.5,118 L1136.622,118 A12.5,12.5 0 0 1 1149.122,130.5 L1149.122,144.2969 L7,144.2969 L7,130.5 A12.5,12.5 0 0 1 19.5,118" fill="#F1F1F1"/><rect fill="none" height="678.2969" rx="12.5" ry="12.5" style="stroke:#181818;stroke-width:0.5;" width="1142.122" x="7" y="118"/><line style="stroke:#181818;stroke-width:0.5;" x1="7" x2="1149.122" y1="144.2969" y2="144.2969"/><text fill="#000000" font-family="sans-serif" font-size="14" lengthAdjust="spacing" textLength="142.29" x="506.916" y="135.9951">importarPreguntas()</text><g id="importarPreguntas.RequiringImport"><rect fill="#F1F1F1" height="50" rx="12.5" ry="12.5" style="stroke:#181818;stroke-width:0.5;" width="50" x="400.122" y="246.2969"/><line style="stroke:#181818;stroke-width:0.5;" x1="400.122" x2="450.122" y1="272.5938" y2="272.5938"/><text fill="#000000" font-family="sans-serif" font-size="14" lengthAdjust="spacing" textLength="4.4502" x="422.8969" y="264.292">&#160;</text></g><g id="importarPreguntas.ProvidingPreguntas"><rect fill="#F1F1F1" height="50" rx="12.5" ry="12.5" style="stroke:#181818;stroke-width:0.5;" width="50" x="400.122" y="397.2969"/><line style="stroke:#181818;stroke-width:0.5;" x1="400.122" x2="450.122" y1="423.5938" y2="423.5938"/><text fill="#000000" font-family="sans-serif" font-size="14" lengthAdjust="spacing" textLength="4.4502" x="422.8969" y="415.292">&#160;</text></g><g id="importarPreguntas.ProvidingConfirmation"><rect fill="#F1F1F1" height="50" rx="12.5" ry="12.5" style="stroke:#181818;stroke-width:0.5;" width="50" x="959.122" y="518.2969"/><line style="stroke:#181818;stroke-width:0.5;" x1="959.122" x2="1009.122" y1="544.5938" y2="544.5938"/><text fill="#000000" font-family="sans-serif" font-size="14" lengthAdjust="spacing" textLength="4.4502" x="981.8969" y="536.292">&#160;</text></g><g class="entity" data-entity="c" data-uid="ent0009" id="entity_c"><polygon fill="#F1F1F1" points="425.122,669.2969,437.122,681.2969,425.122,693.2969,413.122,681.2969,425.122,669.2969" style="stroke:#181818;stroke-width:0.5;"/></g><ellipse cx="425.122" cy="165.2969" fill="#222222" rx="10" ry="10" style="stroke:#222222;stroke-width:1;"/><ellipse cx="29.122" cy="775.2969" fill="none" rx="11" ry="11" style="stroke:#222222;stroke-width:1;"/><ellipse cx="29.122" cy="775.2969" fill="#222222" rx="6" ry="6" style="stroke:#222222;stroke-width:1;"/><!--link *start*importarPreguntas to RequiringImport--><g class="link" data-entity-1=".start.importarPreguntas" data-entity-2="RequiringImport" data-source-line="14" data-uid="lnk3" id="link_.start.importarPreguntas_RequiringImport"><path d="M425.122,175.5269 C425.122,191.2369 425.122,217.6569 425.122,240.1669" fill="none" id="*start*importarPreguntas-to-RequiringImport" style="stroke:#008000;stroke-width:1;"/><polygon fill="#008000" points="425.122,246.1669,429.122,237.1669,425.122,241.1669,421.122,237.1669,425.122,246.1669" style="stroke:#008000;stroke-width:1;"/><path d="M430.122,198.2969 L430.122,223.2969 L692.122,223.2969 L692.122,208.2969 L682.122,198.2969 L430.122,198.2969" fill="#FEFFDD" style="stroke:#181818;stroke-width:0.5;"/><path d="M682.122,198.2969 L682.122,208.2969 L692.122,208.2969 L682.122,198.2969" fill="#FEFFDD" style="stroke:#181818;stroke-width:0.5;"/><text fill="#000000" font-family="sans-serif" font-size="13" font-weight="bold" lengthAdjust="spacing" textLength="60.5313" x="436.122" y="215.3638">Docente</text><text fill="#000000" font-family="sans-serif" font-size="13" lengthAdjust="spacing" textLength="176.4331" x="500.7855" y="215.3638">solicita importar preguntas</text></g><!--link RequiringImport to ProvidingPreguntas--><g class="link" data-entity-1="RequiringImport" data-entity-2="ProvidingPreguntas" data-source-line="19" data-uid="lnk4" id="link_RequiringImport_ProvidingPreguntas"><path d="M425.122,296.5669 C425.122,324.2769 425.122,363.3369 425.122,391.0369" fill="none" id="RequiringImport-to-ProvidingPreguntas" style="stroke:#008000;stroke-width:1;"/><polygon fill="#008000" points="425.122,397.0369,429.122,388.0369,425.122,392.0369,421.122,388.0369,425.122,397.0369" style="stroke:#008000;stroke-width:1;"/><path d="M430.122,319.2969 L430.122,374.2969 L668.122,374.2969 L668.122,329.2969 L658.122,319.2969 L430.122,319.2969" fill="#FEFFDD" style="stroke:#181818;stroke-width:0.5;"/><path d="M658.122,319.2969 L658.122,329.2969 L668.122,329.2969 L658.122,319.2969" fill="#FEFFDD" style="stroke:#181818;stroke-width:0.5;"/><text fill="#000000" font-family="sans-serif" font-size="13" font-weight="bold" lengthAdjust="spacing" textLength="58.9063" x="436.122" y="336.3638">Sistema</text><text fill="#000000" font-family="sans-serif" font-size="13" lengthAdjust="spacing" textLength="50.9653" x="499.1605" y="336.3638">permite</text><text fill="#000000" font-family="sans-serif" font-size="13" lengthAdjust="spacing" textLength="217.4009" x="436.122" y="351.4966">&#8226; introducir preguntas a importar</text><text fill="#000000" font-family="sans-serif" font-size="13" lengthAdjust="spacing" textLength="141.4639" x="436.122" y="366.6294">&#8226; salir de importaci&#243;n</text></g><!--link ProvidingPreguntas to ProvidingConfirmation--><g class="link" data-entity-1="ProvidingPreguntas" data-entity-2="ProvidingConfirmation" data-source-line="26" data-uid="lnk5" id="link_ProvidingPreguntas_ProvidingConfirmation"><path d="M450.202,427.8769 C554.072,446.8569 945.122,518.2969 945.122,518.2969 C945.122,518.2969 946.2006,518.9646 953.6506,523.5446" fill="none" id="ProvidingPreguntas-to-ProvidingConfirmation" style="stroke:#008000;stroke-width:1;"/><polygon fill="#008000" points="958.762,526.6869,953.1898,518.5659,954.5025,524.0683,949.0001,525.381,958.762,526.6869" style="stroke:#008000;stroke-width:1;"/><path d="M850.122,470.2969 L850.122,495.2969 L1140.122,495.2969 L1140.122,480.2969 L1130.122,470.2969 L850.122,470.2969" fill="#FEFFDD" style="stroke:#181818;stroke-width:0.5;"/><path d="M1130.122,470.2969 L1130.122,480.2969 L1140.122,480.2969 L1130.122,470.2969" fill="#FEFFDD" style="stroke:#181818;stroke-width:0.5;"/><text fill="#000000" font-family="sans-serif" font-size="13" font-weight="bold" lengthAdjust="spacing" textLength="60.5313" x="856.122" y="487.3638">Docente</text><text fill="#000000" font-family="sans-serif" font-size="13" lengthAdjust="spacing" textLength="204.6421" x="920.7855" y="487.3638">introduce preguntas a importar</text></g><!--link ProvidingConfirmation to c--><g class="link" data-entity-1="ProvidingConfirmation" data-entity-2="c" data-source-line="31" data-uid="lnk6" id="link_ProvidingConfirmation_c"><path d="M958.762,559.9069 C951.312,564.4869 945.122,568.2969 945.122,568.2969 C945.122,568.2969 568.122,651.2969 568.122,651.2969 C568.122,651.2969 472.2024,670.7549 440.3824,677.2049" fill="none" id="ProvidingConfirmation-to-c" style="stroke:#008000;stroke-width:1;"/><polygon fill="#008000" points="434.502,678.3969,444.1172,680.5292,439.4023,677.4036,442.5279,672.6886,434.502,678.3969" style="stroke:#008000;stroke-width:1;"/><path d="M858.122,591.2969 L858.122,646.2969 L1035.122,646.2969 L1035.122,601.2969 L1025.122,591.2969 L858.122,591.2969" fill="#FEFFDD" style="stroke:#181818;stroke-width:0.5;"/><path d="M1025.122,591.2969 L1025.122,601.2969 L1035.122,601.2969 L1025.122,591.2969" fill="#FEFFDD" style="stroke:#181818;stroke-width:0.5;"/><text fill="#000000" font-family="sans-serif" font-size="13" font-weight="bold" lengthAdjust="spacing" textLength="58.9063" x="864.122" y="608.3638">Sistema</text><text fill="#000000" font-family="sans-serif" font-size="13" lengthAdjust="spacing" textLength="50.9653" x="927.1605" y="608.3638">permite</text><text fill="#000000" font-family="sans-serif" font-size="13" lengthAdjust="spacing" textLength="156.6221" x="864.122" y="623.4966">&#8226; confirmar importaci&#243;n</text><text fill="#000000" font-family="sans-serif" font-size="13" lengthAdjust="spacing" textLength="149.1953" x="864.122" y="638.6294">&#8226; cancelar importaci&#243;n</text></g><!--link c to ProvidingPreguntas--><g class="link" data-entity-1="c" data-entity-2="ProvidingPreguntas" data-source-line="38" data-uid="lnk7" id="link_c_ProvidingPreguntas"><path d="M419.312,674.5869 C396.082,651.7669 311.122,568.2969 311.122,568.2969 C311.122,568.2969 311.122,518.2969 311.122,518.2969 C311.122,518.2969 361.9322,475.9474 395.4922,447.9874" fill="none" id="c-to-ProvidingPreguntas" style="stroke:#FF0000;stroke-width:1;"/><polygon fill="#FF0000" points="400.102,444.1469,390.6269,446.8345,396.2605,447.3473,395.7477,452.9809,400.102,444.1469" style="stroke:#FF0000;stroke-width:1;"/><path d="M316.122,530.7969 L316.122,555.7969 L527.122,555.7969 L527.122,540.7969 L517.122,530.7969 L316.122,530.7969" fill="#FEFFDD" style="stroke:#181818;stroke-width:0.5;"/><path d="M517.122,530.7969 L517.122,540.7969 L527.122,540.7969 L517.122,530.7969" fill="#FEFFDD" style="stroke:#181818;stroke-width:0.5;"/><text fill="#000000" font-family="sans-serif" font-size="13" lengthAdjust="spacing" textLength="190.6265" x="322.122" y="547.8638">Docente cancela importaci&#243;n</text></g><!--link c to ProvidingPreguntas--><g class="link" data-entity-1="c" data-entity-2="ProvidingPreguntas" data-source-line="43" data-uid="lnk8" id="link_c_ProvidingPreguntas"><path d="M430.572,674.5869 C452.382,651.7669 532.122,568.2969 532.122,568.2969 C532.122,568.2969 532.122,518.2969 532.122,518.2969 C532.122,518.2969 486.3183,477.6309 454.6983,449.5509" fill="none" id="c-to-ProvidingPreguntas-1" style="stroke:#FF0000;stroke-width:1;"/><polygon fill="#FF0000" points="450.212,445.5669,454.2854,454.5339,453.9506,448.8869,459.5975,448.5521,450.212,445.5669" style="stroke:#FF0000;stroke-width:1;"/><path d="M537.122,530.7969 L537.122,555.7969 L914.122,555.7969 L914.122,540.7969 L904.122,530.7969 L537.122,530.7969" fill="#FEFFDD" style="stroke:#181818;stroke-width:0.5;"/><path d="M904.122,530.7969 L904.122,540.7969 L914.122,540.7969 L904.122,530.7969" fill="#FEFFDD" style="stroke:#181818;stroke-width:0.5;"/><text fill="#000000" font-family="sans-serif" font-size="13" lengthAdjust="spacing" textLength="356.605" x="543.122" y="547.8638">Docente confirma importaci&#243;n: error en la importaci&#243;n</text></g><!--link c to *end*importarPreguntas--><g class="link" data-entity-1="c" data-entity-2=".end.importarPreguntas" data-source-line="48" data-uid="lnk10" id="link_c_.end.importarPreguntas"><path d="M416.102,684.3869 C363.492,696.6169 102.3364,757.2895 45.5864,770.4695" fill="none" id="c-to-*end*importarPreguntas" style="stroke:#008000;stroke-width:1;"/><polygon fill="#008000" points="39.742,771.8269,49.4136,773.6871,44.6124,770.6957,47.6037,765.8945,39.742,771.8269" style="stroke:#008000;stroke-width:1;"/><path d="M302.122,716.2969 L302.122,741.2969 L658.122,741.2969 L658.122,726.2969 L648.122,716.2969 L302.122,716.2969" fill="#FEFFDD" style="stroke:#181818;stroke-width:0.5;"/><path d="M648.122,716.2969 L648.122,726.2969 L658.122,726.2969 L648.122,716.2969" fill="#FEFFDD" style="stroke:#181818;stroke-width:0.5;"/><text fill="#000000" font-family="sans-serif" font-size="13" lengthAdjust="spacing" textLength="335.6323" x="308.122" y="733.3638">Docente confirma importaci&#243;n: importaci&#243;n exitosa</text></g><!--link ProvidingPreguntas to *end*importarPreguntas--><g class="link" data-entity-1="ProvidingPreguntas" data-entity-2=".end.importarPreguntas" data-source-line="53" data-uid="lnk11" id="link_ProvidingPreguntas_.end.importarPreguntas"><path d="M400.122,434.3769 C317.292,471.0569 57.122,586.2969 57.122,586.2969 C57.122,586.2969 37.325,719.2022 31.515,758.2522" fill="none" id="ProvidingPreguntas-to-*end*importarPreguntas" style="stroke:#0000FF;stroke-width:1;"/><polygon fill="#0000FF" points="30.632,764.1869,35.9129,755.8735,31.3678,759.2413,28,754.6962,30.632,764.1869" style="stroke:#0000FF;stroke-width:1;"/><path d="M62.122,606.2969 L62.122,631.2969 L321.122,631.2969 L321.122,616.2969 L311.122,606.2969 L62.122,606.2969" fill="#FEFFDD" style="stroke:#181818;stroke-width:0.5;"/><path d="M311.122,606.2969 L311.122,616.2969 L321.122,616.2969 L311.122,606.2969" fill="#FEFFDD" style="stroke:#181818;stroke-width:0.5;"/><text fill="#000000" font-family="sans-serif" font-size="13" lengthAdjust="spacing" textLength="238.145" x="68.122" y="623.3638">Docente solicita salir de importaci&#243;n</text></g><g id="PREGUNTAS_ABIERTO"><rect fill="#F1F1F1" height="50" rx="12.5" ry="12.5" style="stroke:#181818;stroke-width:0.5;" width="174.0547" x="626" y="7"/><line style="stroke:#181818;stroke-width:0.5;" x1="626" x2="800.0547" y1="33.2969" y2="33.2969"/><text fill="#000000" font-family="sans-serif" font-size="14" lengthAdjust="spacing" textLength="154.0547" x="636" y="24.9951">PREGUNTAS_ABIERTO</text></g><!--link PREGUNTAS_ABIERTO to importarPreguntas--><g class="link" data-entity-1="PREGUNTAS_ABIERTO" data-entity-2="importarPreguntas" data-source-line="60" data-uid="lnk13" id="link_PREGUNTAS_ABIERTO_importarPreguntas"><path d="M705.26,57.26 C700.49,72.18 695.6354,87.4244 687.7854,112.0044" fill="none" id="PREGUNTAS_ABIERTO-to-importarPreguntas" style="stroke:#008000;stroke-width:1;"/><polygon fill="#008000" points="685.96,117.72,692.5084,110.3635,687.4811,112.957,684.8876,107.9297,685.96,117.72" style="stroke:#008000;stroke-width:1;"/></g><!--link importarPreguntas to PREGUNTAS_ABIERTO2--><g class="link" data-entity-1="importarPreguntas" data-entity-2="PREGUNTAS_ABIERTO2" data-source-line="61" data-uid="lnk14" id="link_importarPreguntas_PREGUNTAS_ABIERTO2"><path d="M712.18,796.2 C719.54,814.76 724,826 724,826 C724,826 732.0288,858.5057 738.5488,884.8557" fill="none" id="importarPreguntas-to-PREGUNTAS_ABIERTO2" style="stroke:#008000;stroke-width:1;"/><polygon fill="#008000" points="739.99,890.68,741.7111,880.9827,738.789,885.8264,733.9454,882.9043,739.99,890.68" style="stroke:#008000;stroke-width:1;"/></g><!--link PREGUNTAS_CONTEXTUALES_ABIERTO to importarPreguntas--><g class="link" data-entity-1="PREGUNTAS_CONTEXTUALES_ABIERTO" data-entity-2="importarPreguntas" data-source-line="64" data-uid="lnk15" id="link_PREGUNTAS_CONTEXTUALES_ABIERTO_importarPreguntas"><path d="M451.69,57.26 C456.41,72.18 461.2373,87.4204 469.0273,112.0004" fill="none" id="PREGUNTAS_CONTEXTUALES_ABIERTO-to-importarPreguntas" style="stroke:#008000;stroke-width:1;"/><polygon fill="#008000" points="470.84,117.72,471.9341,107.9321,469.3294,112.9536,464.3079,110.349,470.84,117.72" style="stroke:#008000;stroke-width:1;"/></g><!--link importarPreguntas to PREGUNTAS_CONTEXTUALES_ABIERTO2--><g class="link" data-entity-1="importarPreguntas" data-entity-2="PREGUNTAS_CONTEXTUALES_ABIERTO2" data-source-line="65" data-uid="lnk16" id="link_importarPreguntas_PREGUNTAS_CONTEXTUALES_ABIERTO2"><path d="M421.77,796.2 C413.19,814.76 408,826 408,826 C408,826 408,861 408,861 C408,861 408.5265,870.4793 409.3265,884.8493" fill="none" id="importarPreguntas-to-PREGUNTAS_CONTEXTUALES_ABIERTO2" style="stroke:#008000;stroke-width:1;"/><polygon fill="#008000" points="409.66,890.84,413.1535,881.6316,409.3821,885.8477,405.1659,882.0763,409.66,890.84" style="stroke:#008000;stroke-width:1;"/><path d="M413,831 L413,856 L715,856 L715,841 L705,831 L413,831" fill="#FEFFDD" style="stroke:#181818;stroke-width:0.5;"/><path d="M705,831 L705,841 L715,841 L705,831" fill="#FEFFDD" style="stroke:#181818;stroke-width:0.5;"/><text fill="#000000" font-family="sans-serif" font-size="13" lengthAdjust="spacing" textLength="281.4868" x="419" y="848.0669">Importado a bater&#237;a de preguntas concreta</text></g><!--SRC=[jPNVQjim5CRlzHI7xABje0nwMO8XwqmfZ3JapoYKKXJvB1Mr9LUIHyiOx5bslwi-Gj-aJzBZFt6ZoidIqIeGiFH9ty-Vf6DxBLNE3SyWbGhTNOwGw_IkV63CEkuGHkFuU3QS3YQNHwV3QNmsdGs-nfFBmUUJU3mztKfq0Dn2RxEc5woqPdAhRoR8BDV6SJCok2YK8t6f3tftzthmap6WLi_hqO-KOxmff95gSLBD20KZet_8X0JjKXiqHrfzboRZJcgr8XFGxuihBGL6KSrm_l42ziy_B0oYkjYFEZ6KfgbQbLjpNNNqvz4NBL0vx7-QHs1rAeLql8q0SWyHLLAlGQrsVU7Y4Qnvpow8YRGECrv1v6WoIP9gxF7t7v3A6PqKGgxWm3DZgxCy9KdIRg2G3_VAuwwPGwvkx23wVyMt1CNrd6j8Lgqy6F6QoDeaHBES2QEeXhaIc7QD-dYYH36Ol6OpcpoM7kzgqRobvt48Q8msP0DRkhTPqmtwByFL9y1RwRJblXaqRSFncwS5RWNHtj4jZlilndQ0pXP1qPyjuUZGq2gM1UNFYo8eTYmiYjwT2Mhi2-VXBFuscC0kTJcyTGLFqUwnpGNyZOWwln_CoxSkNZpHT5tdL5xDmrzU9ljyZMdhXK77sJBR9m00]--></g></svg>