<?plantuml 1.2026.2?><svg xmlns="http://www.w3.org/2000/svg" xmlns:xlink="http://www.w3.org/1999/xlink" contentStyleType="text/css" data-diagram-type="DESCRIPTION" height="213px" preserveAspectRatio="none" style="width:526px;height:213px;background:#FFFFFF;" version="1.1" viewBox="0 0 526 213" width="526px" zoomAndPan="magnify"><defs/><g><!--cluster cerrarSesion--><g class="cluster" data-qualified-name="cerrarSesion" data-source-line="4" id="ent0003"><path d="M8.5,6 L122.5459,6 A3.75,3.75 0 0 1 125.0459,8.5 L132.0459,28.2969 L233.5,28.2969 A2.5,2.5 0 0 1 236,30.7969 L236,203.5 A2.5,2.5 0 0 1 233.5,206 L8.5,206 A2.5,2.5 0 0 1 6,203.5 L6,8.5 A2.5,2.5 0 0 1 8.5,6" fill="none" style="stroke:#000000;stroke-width:1.5;"/><line style="stroke:#000000;stroke-width:1.5;" x1="6" x2="132.0459" y1="28.2969" y2="28.2969"/><text fill="#000000" font-family="sans-serif" font-size="14" font-weight="bold" lengthAdjust="spacing" textLength="113.0459" x="10" y="20.9951">cerrarSesion()</text></g><!--entity CerrarSesionView--><g class="entity" data-qualified-name="cerrarSesion.CerrarSesionView" data-source-line="5" id="ent0004"><rect fill="#629EF9" height="36.2969" rx="2.5" ry="2.5" style="stroke:#181818;stroke-width:0.5;" width="143.8877" x="76" y="41"/><text fill="#000000" font-family="sans-serif" font-size="14" lengthAdjust="spacing" textLength="123.8877" x="86" y="63.9951">CerrarSesionView</text></g><!--entity AuthController--><g class="entity" data-qualified-name="cerrarSesion.AuthController" data-source-line="6" id="ent0005"><rect fill="#B5BD68" height="36.2969" rx="2.5" ry="2.5" style="stroke:#181818;stroke-width:0.5;" width="121.9854" x="22" y="154"/><text fill="#000000" font-family="sans-serif" font-size="14" lengthAdjust="spacing" textLength="101.9854" x="32" y="176.9951">AuthController</text></g><!--entity SistemaDisponible--><g class="entity" data-qualified-name="SistemaDisponible" data-source-line="3" id="ent0002"><rect fill="#CDEBA5" height="36.2969" rx="2.5" ry="2.5" style="stroke:#181818;stroke-width:0.5;" width="159.125" x="307.5" y="154"/><text fill="#000000" font-family="sans-serif" font-size="14" lengthAdjust="spacing" textLength="139.125" x="317.5" y="176.9951">:Sistema Disponible</text></g><!--entity SESIONCERRADA--><g class="entity" data-qualified-name="SESIONCERRADA" data-source-line="9" id="ent0006"><rect fill="#CDEBA5" height="36.2969" rx="2.5" ry="2.5" style="stroke:#181818;stroke-width:0.5;" width="151.9678" x="369" y="41"/><text fill="#000000" font-family="sans-serif" font-size="14" lengthAdjust="spacing" textLength="131.9678" x="379" y="63.9951">:SESION_CERRADA</text></g><!--link SistemaDisponible to CerrarSesionView--><g class="link" data-entity-1="ent0002" data-entity-2="ent0004" data-link-type="dependency" data-source-line="11" id="lnk7"><path d="M339.7,153.9 C302.53,140.46 257,124 257,124 C257,124 214.674,99.1481 182.384,80.1881" fill="none" id="SistemaDisponible-to-CerrarSesionView" style="stroke:#181818;stroke-width:1;"/><polygon fill="#181818" points="177.21,77.15,182.9456,85.1564,181.5217,79.6817,186.9964,78.2578,177.21,77.15" style="stroke:#181818;stroke-width:1;"/><text fill="#000000" font-family="sans-serif" font-size="13" lengthAdjust="spacing" textLength="141.521" x="258" y="120.0669">cerrarSesion(Usuario)</text></g><!--link CerrarSesionView to SistemaDisponible--><g class="link" data-entity-1="ent0004" data-entity-2="ent0002" data-link-type="dependency" data-source-line="15" id="lnk9"><path d="M220.33,73.28 C296.03,87.18 404,107 404,107 C404,107 404,124 404,124 C404,124 400.133,134.7085 395.273,148.1285" fill="none" id="CerrarSesionView-to-SistemaDisponible" style="stroke:#181818;stroke-width:1;stroke-dasharray:7,7;"/><polygon fill="#181818" points="393.23,153.77,400.0555,146.6698,394.9325,149.0688,392.5336,143.9458,393.23,153.77" style="stroke:#181818;stroke-width:1;"/><text fill="#000000" font-family="sans-serif" font-size="13" lengthAdjust="spacing" textLength="104.9395" x="405" y="120.0669">cancelarCierre()</text></g><!--link CerrarSesionView to AuthController--><g class="link" data-entity-1="ent0004" data-entity-2="ent0005" data-link-type="dependency" data-source-line="13" id="lnk8"><path d="M113.8,77.1 C86.92,90.54 54,107 54,107 C54,107 54,124 54,124 C54,124 60.9395,135.2437 69.2195,148.6637" fill="none" id="CerrarSesionView-to-AuthController" style="stroke:#181818;stroke-width:1;"/><polygon fill="#181818" points="72.37,153.77,71.0484,144.0102,69.7446,149.5148,64.24,148.2109,72.37,153.77" style="stroke:#181818;stroke-width:1;"/><text fill="#000000" font-family="sans-serif" font-size="13" lengthAdjust="spacing" textLength="161.77" x="55" y="120.0669">confirmarCierre(Usuario)</text></g><!--link CerrarSesionView to SESIONCERRADA--><g class="link" data-entity-1="ent0004" data-entity-2="ent0006" data-link-type="dependency" data-source-line="16" id="lnk10"><path d="M220.27,59 C265.26,59 317.05,59 362.76,59" fill="none" id="CerrarSesionView-to-SESIONCERRADA" style="stroke:#181818;stroke-width:1;stroke-dasharray:7,7;"/><polygon fill="#181818" points="368.76,59,359.76,55,363.76,59,359.76,63,368.76,59" style="stroke:#181818;stroke-width:1;"/><text fill="#000000" font-family="sans-serif" font-size="13" lengthAdjust="spacing" textLength="112.3662" x="238.5" y="52.0669">confirmarCierre()</text></g><?plantuml-src VP11IyD048Nl-ok6U6aEwK5eiJqKuYQ25uK6lSea7UlGpUuokqMA-DzDj6ZQg7lRn_TctfkmO-jHi0N3bkB14tXd3lr7AQ4cejqQWWjTbDVv399bnI5IYr1myCvoRIW1372KVrJbiTdXbg0X4PIA0ZlRaybGcAG9l2detc3N_79HtYn03xX7fjTph9xLc_aLvFluefsDuemXKUz_n2whs_kx9rskrtcHVqN-b8wAKgC6a4cs6gLOdXIQF8Gz2hjKgNCGiardFqtNcPrzPcbHD7Sy_UUVJbVZitOJq3PalWUalncbjmxhZHUd7m00?></g></svg>