<svg xmlns="http://www.w3.org/2000/svg" xmlns:xlink="http://www.w3.org/1999/xlink" contentStyleType="text/css" data-diagram-type="DESCRIPTION" height="536px" preserveAspectRatio="none" style="width:526px;height:536px;background:#FFFFFF;" version="1.1" viewBox="0 0 526 536" width="526px" zoomAndPan="magnify"><defs/><g><!--cluster cerrarSesion--><g class="cluster" data-entity="cerrarSesion" data-source-line="4" data-uid="ent0003" id="cluster_cerrarSesion"><path d="M8.5,6 L122.5459,6 A3.75,3.75 0 0 1 125.0459,8.5 L132.0459,28.2969 L233.5,28.2969 A2.5,2.5 0 0 1 236,30.7969 L236,526.5 A2.5,2.5 0 0 1 233.5,529 L8.5,529 A2.5,2.5 0 0 1 6,526.5 L6,8.5 A2.5,2.5 0 0 1 8.5,6" fill="none" style="stroke:#000000;stroke-width:1.5;"/><line style="stroke:#000000;stroke-width:1.5;" x1="6" x2="132.0459" y1="28.2969" y2="28.2969"/><text fill="#000000" font-family="sans-serif" font-size="14" font-weight="bold" lengthAdjust="spacing" textLength="113.0459" x="10" y="20.9951">cerrarSesion()</text></g><!--entity CerrarSesionView--><g class="entity" data-entity="CerrarSesionView" data-source-line="5" data-uid="ent0004" id="entity_CerrarSesionView"><rect fill="#629EF9" height="36.2969" rx="2.5" ry="2.5" style="stroke:#181818;stroke-width:0.5;" width="143.8877" x="76" y="41"/><text fill="#000000" font-family="sans-serif" font-size="14" lengthAdjust="spacing" textLength="123.8877" x="86" y="63.9951">CerrarSesionView</text></g><!--entity CerrarSesionController--><g class="entity" data-entity="CerrarSesionController" data-source-line="6" data-uid="ent0005" id="entity_CerrarSesionController"><rect fill="#B5BD68" height="36.2969" rx="2.5" ry="2.5" style="stroke:#181818;stroke-width:0.5;" width="179.5303" x="22" y="154"/><text fill="#000000" font-family="sans-serif" font-size="14" lengthAdjust="spacing" textLength="159.5303" x="32" y="176.9951">CerrarSesionController</text></g><!--entity SesionRepository--><g class="entity" data-entity="SesionRepository" data-source-line="7" data-uid="ent0006" id="entity_SesionRepository"><rect fill="#F2AC4E" height="36.2969" rx="2.5" ry="2.5" style="stroke:#181818;stroke-width:0.5;" width="141.1943" x="22.5" y="267"/><text fill="#000000" font-family="sans-serif" font-size="14" lengthAdjust="spacing" textLength="121.1943" x="32.5" y="289.9951">SesionRepository</text></g><!--entity Sesion--><g class="entity" data-entity="Sesion" data-source-line="8" data-uid="ent0007" id="entity_Sesion"><rect fill="#F2AC4E" height="36.2969" rx="2.5" ry="2.5" style="stroke:#181818;stroke-width:0.5;" width="66.1221" x="32" y="380"/><text fill="#000000" font-family="sans-serif" font-size="14" lengthAdjust="spacing" textLength="46.1221" x="42" y="402.9951">Sesion</text></g><!--entity Usuario--><g class="entity" data-entity="Usuario" data-source-line="9" data-uid="ent0008" id="entity_Usuario"><rect fill="#F2AC4E" height="36.2969" rx="2.5" ry="2.5" style="stroke:#181818;stroke-width:0.5;" width="73.2041" x="28.5" y="477"/><text fill="#000000" font-family="sans-serif" font-size="14" lengthAdjust="spacing" textLength="53.2041" x="38.5" y="499.9951">Usuario</text></g><!--entity SistemaDisponible--><g class="entity" data-entity="SistemaDisponible" data-source-line="3" data-uid="ent0002" id="entity_SistemaDisponible"><rect fill="#CDEBA5" height="36.2969" rx="2.5" ry="2.5" style="stroke:#181818;stroke-width:0.5;" width="159.125" x="307.5" y="154"/><text fill="#000000" font-family="sans-serif" font-size="14" lengthAdjust="spacing" textLength="139.125" x="317.5" y="176.9951">:Sistema Disponible</text></g><!--entity SESIONCERRADA--><g class="entity" data-entity="SESIONCERRADA" data-source-line="12" data-uid="ent0009" id="entity_SESIONCERRADA"><rect fill="#CDEBA5" height="36.2969" rx="2.5" ry="2.5" style="stroke:#181818;stroke-width:0.5;" width="151.9678" x="369" y="41"/><text fill="#000000" font-family="sans-serif" font-size="14" lengthAdjust="spacing" textLength="131.9678" x="379" y="63.9951">:SESION_CERRADA</text></g><!--link SistemaDisponible to CerrarSesionView--><g class="link" data-entity-1="SistemaDisponible" data-entity-2="CerrarSesionView" data-source-line="14" data-uid="lnk10" id="link_SistemaDisponible_CerrarSesionView"><path d="M339.7,153.9 C302.53,140.46 257,124 257,124 C257,124 214.674,99.1481 182.384,80.1881" fill="none" id="SistemaDisponible-to-CerrarSesionView" style="stroke:#181818;stroke-width:1;"/><polygon fill="#181818" points="177.21,77.15,182.9456,85.1564,181.5217,79.6817,186.9964,78.2578,177.21,77.15" style="stroke:#181818;stroke-width:1;"/><text fill="#000000" font-family="sans-serif" font-size="13" lengthAdjust="spacing" textLength="141.521" x="258" y="120.0669">cerrarSesion(Usuario)</text></g><!--link CerrarSesionView to SistemaDisponible--><g class="link" data-entity-1="CerrarSesionView" data-entity-2="SistemaDisponible" data-source-line="23" data-uid="lnk15" id="link_CerrarSesionView_SistemaDisponible"><path d="M220.33,73.28 C296.03,87.18 404,107 404,107 C404,107 404,124 404,124 C404,124 400.133,134.7085 395.273,148.1285" fill="none" id="CerrarSesionView-to-SistemaDisponible" style="stroke:#181818;stroke-width:1;stroke-dasharray:7,7;"/><polygon fill="#181818" points="393.23,153.77,400.0555,146.6698,394.9325,149.0688,392.5336,143.9458,393.23,153.77" style="stroke:#181818;stroke-width:1;"/><text fill="#000000" font-family="sans-serif" font-size="13" lengthAdjust="spacing" textLength="104.9395" x="405" y="120.0669">cancelarCierre()</text></g><!--link CerrarSesionView to CerrarSesionController--><g class="link" data-entity-1="CerrarSesionView" data-entity-2="CerrarSesionController" data-source-line="16" data-uid="lnk11" id="link_CerrarSesionView_CerrarSesionController"><path d="M113.8,77.1 C86.92,90.54 54,107 54,107 C54,107 54,124 54,124 C54,124 69.5196,136.571 86.0696,149.991" fill="none" id="CerrarSesionView-to-CerrarSesionController" style="stroke:#181818;stroke-width:1;"/><polygon fill="#181818" points="90.73,153.77,86.2588,144.9946,86.8463,150.6208,81.2201,151.2084,90.73,153.77" style="stroke:#181818;stroke-width:1;"/><text fill="#000000" font-family="sans-serif" font-size="13" lengthAdjust="spacing" textLength="161.77" x="55" y="120.0669">confirmarCierre(Usuario)</text></g><!--link CerrarSesionController to SesionRepository--><g class="link" data-entity-1="CerrarSesionController" data-entity-2="SesionRepository" data-source-line="18" data-uid="lnk12" id="link_CerrarSesionController_SesionRepository"><path d="M109.03,190.34 C105.46,211.2 100.5222,240.066 96.9622,260.866" fill="none" id="CerrarSesionController-to-SesionRepository" style="stroke:#181818;stroke-width:1;"/><polygon fill="#181818" points="95.95,266.78,101.411,258.5838,96.7935,261.8517,93.5256,257.2342,95.95,266.78" style="stroke:#181818;stroke-width:1;"/><text fill="#000000" font-family="sans-serif" font-size="13" lengthAdjust="spacing" textLength="158.6406" x="105" y="233.0669">terminarSesion(Usuario)</text></g><!--link SesionRepository to Sesion--><g class="link" data-entity-1="SesionRepository" data-entity-2="Sesion" data-source-line="19" data-uid="lnk13" id="link_SesionRepository_Sesion"><path d="M88.62,303.34 C83.36,324.2 76.0584,353.1625 70.8084,373.9625" fill="none" id="SesionRepository-to-Sesion" style="stroke:#181818;stroke-width:1;"/><polygon fill="#181818" points="69.34,379.78,75.4209,372.0326,70.5636,374.932,67.6642,370.0748,69.34,379.78" style="stroke:#181818;stroke-width:1;"/><text fill="#000000" font-family="sans-serif" font-size="13" lengthAdjust="spacing" textLength="153.0356" x="82" y="346.0669">destruirSesion(Usuario)</text></g><!--link Sesion to Usuario--><g class="link" data-entity-1="Sesion" data-entity-2="Usuario" data-source-line="21" data-uid="lnk14" id="link_Sesion_Usuario"><path d="M65,416.42 C65,433.57 65,459.58 65,476.69" fill="none" id="Sesion-Usuario" style="stroke:#181818;stroke-width:1;"/></g><!--link CerrarSesionView to SESIONCERRADA--><g class="link" data-entity-1="CerrarSesionView" data-entity-2="SESIONCERRADA" data-source-line="24" data-uid="lnk16" id="link_CerrarSesionView_SESIONCERRADA"><path d="M220.27,59 C265.26,59 317.05,59 362.76,59" fill="none" id="CerrarSesionView-to-SESIONCERRADA" style="stroke:#181818;stroke-width:1;stroke-dasharray:7,7;"/><polygon fill="#181818" points="368.76,59,359.76,55,363.76,59,359.76,63,368.76,59" style="stroke:#181818;stroke-width:1;"/><text fill="#000000" font-family="sans-serif" font-size="13" lengthAdjust="spacing" textLength="112.3662" x="238.5" y="52.0669">confirmarCierre()</text></g><!--SRC=[VP8nQyCm48Lt_Oh3NUB16K8J6Wy1rtQWIminxLfavngEo98vAPHG-jzhDoPnhARQzFIzazv3Ta-waInhKAJH7Hk4ngXZjn62iN9IxnJ2NPhbZyaSWhWWwx2Ma95jZAPIOG3IGYzVLD78QYzt21KoIoxGaj4T6Go5IHZ0bu1s3UvQp9RvUWdfW7iZ_1nZvRpSBXwkiDHenqOfv36ydYNfVGudR8EDiUGC7__5RXo-seDaCkBxHa5vyVJo_9xccqsI9QToVgLU4SBh2YAELbxU-AgwINzjACGOX6WxibzwQ8SO_K5SIqwf9V36d8i3edROkASO779Dsd_Dc1pOOzYYTNmWFqB_7Tg7d-lqOqsdA_zVjO6ahb2TyuH_6Rcp3bltUmX_0000]--></g></svg>