<?plantuml 1.2026.2?><svg xmlns="http://www.w3.org/2000/svg" xmlns:xlink="http://www.w3.org/1999/xlink" contentStyleType="text/css" data-diagram-type="SEQUENCE" height="1475px" preserveAspectRatio="none" style="width:2403px;height:1475px;background:#FFFFFF;" version="1.1" viewBox="0 0 2403 1475" width="2403px" zoomAndPan="magnify"><title>Diagrama de Secuencia - Editar Docente (Spring Boot + React)</title><defs/><g><text fill="#000000" font-family="sans-serif" font-size="14" font-weight="bold" lengthAdjust="spacing" textLength="495.5713" x="955.5496" y="27.9951">Diagrama de Secuencia - Editar Docente (Spring Boot + React)</text><g><title>Frontend .React.</title><rect fill="#FFFFFF" height="982.6484" style="stroke:#181818;stroke-width:1;" width="10" x="488.0684" y="149.7266"/></g><g><title>DocentesController</title><rect fill="#FFFFFF" height="203.9297" style="stroke:#181818;stroke-width:1;" width="10" x="861.0586" y="193.9922"/></g><g><title>DocentesController</title><rect fill="#FFFFFF" height="404.7266" style="stroke:#181818;stroke-width:1;" width="10" x="861.0586" y="641.25"/></g><g><title>UsuarioService</title><rect fill="#FFFFFF" height="145.6641" style="stroke:#181818;stroke-width:1;" width="10" x="1214.8491" y="223.125"/></g><g><title>UsuarioService</title><rect fill="#FFFFFF" height="346.4609" style="stroke:#181818;stroke-width:1;" width="10" x="1214.8491" y="670.3828"/></g><g><title>UsuarioRepository</title><rect fill="#FFFFFF" height="87.3984" style="stroke:#181818;stroke-width:1;" width="10" x="1536.2139" y="252.2578"/></g><g><title>UsuarioRepository</title><rect fill="#FFFFFF" height="87.3984" style="stroke:#181818;stroke-width:1;" width="10" x="1536.2139" y="741.6484"/></g><g><title>UsuarioRepository</title><rect fill="#FFFFFF" height="87.3984" style="stroke:#181818;stroke-width:1;" width="10" x="1536.2139" y="900.3125"/></g><g><title>Base de Datos .PostgreSQL.</title><rect fill="#FFFFFF" height="29.1328" style="stroke:#181818;stroke-width:1;" width="10" x="2281.0073" y="281.3906"/></g><g><title>Base de Datos .PostgreSQL.</title><rect fill="#FFFFFF" height="29.1328" style="stroke:#181818;stroke-width:1;" width="10" x="2281.0073" y="770.7813"/></g><g><title>Base de Datos .PostgreSQL.</title><rect fill="#FFFFFF" height="29.1328" style="stroke:#181818;stroke-width:1;" width="10" x="2281.0073" y="929.4453"/></g><rect fill="none" height="683.1875" style="stroke:#000000;stroke-width:1.5;" width="2387.6704" x="10" y="457.1875"/><rect fill="none" height="75.3984" style="stroke:#000000;stroke-width:1.5;" width="940.6079" x="10" y="1212.6406"/><rect fill="none" height="75.3984" style="stroke:#000000;stroke-width:1.5;" width="940.6079" x="10" y="1302.0391"/><g class="participant-lifeline" data-entity-uid="part1" data-qualified-name="Admin" id="part1-lifeline"><g><title>Administrador Institucional</title><rect fill="#000000" fill-opacity="0.00000" height="1275.8438" width="8" x="113.5308" y="118.5938"/><line style="stroke:#181818;stroke-width:0.5;stroke-dasharray:5,5;" x1="117" x2="117" y1="118.5938" y2="1394.4375"/></g></g><g class="participant-lifeline" data-entity-uid="part2" data-qualified-name="FE" id="part2-lifeline"><g><title>Frontend .React.</title><rect fill="#000000" fill-opacity="0.00000" height="1275.8438" width="8" x="489.0684" y="118.5938"/><line style="stroke:#181818;stroke-width:0.5;stroke-dasharray:5,5;" x1="492.7734" x2="492.7734" y1="118.5938" y2="1394.4375"/></g></g><g class="participant-lifeline" data-entity-uid="part3" data-qualified-name="Controller" id="part3-lifeline"><g><title>DocentesController</title><rect fill="#000000" fill-opacity="0.00000" height="1275.8438" width="8" x="862.0586" y="118.5938"/><line style="stroke:#181818;stroke-width:0.5;stroke-dasharray:5,5;" x1="865.5093" x2="865.5093" y1="118.5938" y2="1394.4375"/></g></g><g class="participant-lifeline" data-entity-uid="part4" data-qualified-name="Service" id="part4-lifeline"><g><title>UsuarioService</title><rect fill="#000000" fill-opacity="0.00000" height="1275.8438" width="8" x="1215.8491" y="118.5938"/><line style="stroke:#181818;stroke-width:0.5;stroke-dasharray:5,5;" x1="1219.3765" x2="1219.3765" y1="118.5938" y2="1394.4375"/></g></g><g class="participant-lifeline" data-entity-uid="part5" data-qualified-name="Repo" id="part5-lifeline"><g><title>UsuarioRepository</title><rect fill="#000000" fill-opacity="0.00000" height="1275.8438" width="8" x="1537.2139" y="118.5938"/><line style="stroke:#181818;stroke-width:0.5;stroke-dasharray:5,5;" x1="1541.0757" x2="1541.0757" y1="118.5938" y2="1394.4375"/></g></g><g class="participant-lifeline" data-entity-uid="part6" data-qualified-name="DB" id="part6-lifeline"><g><title>Base de Datos .PostgreSQL.</title><rect fill="#000000" fill-opacity="0.00000" height="1275.8438" width="8" x="2282.0073" y="118.5938"/><line style="stroke:#181818;stroke-width:0.5;stroke-dasharray:5,5;" x1="2285.3442" x2="2285.3442" y1="118.5938" y2="1394.4375"/></g></g><g class="participant participant-head" data-entity-uid="part1" data-qualified-name="Admin" id="part1-head"><text fill="#000000" font-family="sans-serif" font-size="14" lengthAdjust="spacing" textLength="189.0615" x="20" y="115.292">Administrador Institucional</text><ellipse cx="117.5308" cy="50.7969" fill="#E2E2F0" rx="8" ry="8" style="stroke:#181818;stroke-width:0.5;"/><path d="M117.5308,58.7969 L117.5308,85.7969 M104.5308,66.7969 L130.5308,66.7969 M117.5308,85.7969 L104.5308,100.7969 M117.5308,85.7969 L130.5308,100.7969" fill="none" style="stroke:#181818;stroke-width:0.5;"/></g><g class="participant participant-tail" data-entity-uid="part1" data-qualified-name="Admin" id="part1-tail"><text fill="#000000" font-family="sans-serif" font-size="14" lengthAdjust="spacing" textLength="189.0615" x="20" y="1406.4326">Administrador Institucional</text><ellipse cx="117.5308" cy="1418.2344" fill="#E2E2F0" rx="8" ry="8" style="stroke:#181818;stroke-width:0.5;"/><path d="M117.5308,1426.2344 L117.5308,1453.2344 M104.5308,1434.2344 L130.5308,1434.2344 M117.5308,1453.2344 L104.5308,1468.2344 M117.5308,1453.2344 L130.5308,1468.2344" fill="none" style="stroke:#181818;stroke-width:0.5;"/></g><g class="participant participant-head" data-entity-uid="part2" data-qualified-name="FE" id="part2-head"><rect fill="#E2E2F0" height="30.2969" rx="2.5" ry="2.5" style="stroke:#181818;stroke-width:0.5;" width="132.5898" x="426.7734" y="87.2969"/><text fill="#000000" font-family="sans-serif" font-size="14" lengthAdjust="spacing" textLength="118.5898" x="433.7734" y="107.292">Frontend (React)</text></g><g class="participant participant-tail" data-entity-uid="part2" data-qualified-name="FE" id="part2-tail"><rect fill="#E2E2F0" height="30.2969" rx="2.5" ry="2.5" style="stroke:#181818;stroke-width:0.5;" width="132.5898" x="426.7734" y="1393.4375"/><text fill="#000000" font-family="sans-serif" font-size="14" lengthAdjust="spacing" textLength="118.5898" x="433.7734" y="1413.4326">Frontend (React)</text></g><g class="participant participant-head" data-entity-uid="part3" data-qualified-name="Controller" id="part3-head"><rect fill="#E2E2F0" height="30.2969" rx="2.5" ry="2.5" style="stroke:#181818;stroke-width:0.5;" width="149.0986" x="791.5093" y="87.2969"/><text fill="#000000" font-family="sans-serif" font-size="14" lengthAdjust="spacing" textLength="135.0986" x="798.5093" y="107.292">DocentesController</text></g><g class="participant participant-tail" data-entity-uid="part3" data-qualified-name="Controller" id="part3-tail"><rect fill="#E2E2F0" height="30.2969" rx="2.5" ry="2.5" style="stroke:#181818;stroke-width:0.5;" width="149.0986" x="791.5093" y="1393.4375"/><text fill="#000000" font-family="sans-serif" font-size="14" lengthAdjust="spacing" textLength="135.0986" x="798.5093" y="1413.4326">DocentesController</text></g><g class="participant participant-head" data-entity-uid="part4" data-qualified-name="Service" id="part4-head"><rect fill="#E2E2F0" height="30.2969" rx="2.5" ry="2.5" style="stroke:#181818;stroke-width:0.5;" width="118.9453" x="1160.3765" y="87.2969"/><text fill="#000000" font-family="sans-serif" font-size="14" lengthAdjust="spacing" textLength="104.9453" x="1167.3765" y="107.292">UsuarioService</text></g><g class="participant participant-tail" data-entity-uid="part4" data-qualified-name="Service" id="part4-tail"><rect fill="#E2E2F0" height="30.2969" rx="2.5" ry="2.5" style="stroke:#181818;stroke-width:0.5;" width="118.9453" x="1160.3765" y="1393.4375"/><text fill="#000000" font-family="sans-serif" font-size="14" lengthAdjust="spacing" textLength="104.9453" x="1167.3765" y="1413.4326">UsuarioService</text></g><g class="participant participant-head" data-entity-uid="part5" data-qualified-name="Repo" id="part5-head"><rect fill="#E2E2F0" height="30.2969" rx="2.5" ry="2.5" style="stroke:#181818;stroke-width:0.5;" width="142.2764" x="1470.0757" y="87.2969"/><text fill="#000000" font-family="sans-serif" font-size="14" lengthAdjust="spacing" textLength="128.2764" x="1477.0757" y="107.292">UsuarioRepository</text></g><g class="participant participant-tail" data-entity-uid="part5" data-qualified-name="Repo" id="part5-tail"><rect fill="#E2E2F0" height="30.2969" rx="2.5" ry="2.5" style="stroke:#181818;stroke-width:0.5;" width="142.2764" x="1470.0757" y="1393.4375"/><text fill="#000000" font-family="sans-serif" font-size="14" lengthAdjust="spacing" textLength="128.2764" x="1477.0757" y="1413.4326">UsuarioRepository</text></g><g class="participant participant-head" data-entity-uid="part6" data-qualified-name="DB" id="part6-head"><text fill="#000000" font-family="sans-serif" font-size="14" lengthAdjust="spacing" textLength="197.3262" x="2184.3442" y="115.292">Base de Datos (PostgreSQL)</text><path d="M2268.0073,66.2969 C2268.0073,56.2969 2286.0073,56.2969 2286.0073,56.2969 C2286.0073,56.2969 2304.0073,56.2969 2304.0073,66.2969 L2304.0073,92.2969 C2304.0073,102.2969 2286.0073,102.2969 2286.0073,102.2969 C2286.0073,102.2969 2268.0073,102.2969 2268.0073,92.2969 L2268.0073,66.2969" fill="#E2E2F0" style="stroke:#181818;stroke-width:0.5;"/><path d="M2268.0073,66.2969 C2268.0073,76.2969 2286.0073,76.2969 2286.0073,76.2969 C2286.0073,76.2969 2304.0073,76.2969 2304.0073,66.2969" fill="none" style="stroke:#181818;stroke-width:0.5;"/></g><g class="participant participant-tail" data-entity-uid="part6" data-qualified-name="DB" id="part6-tail"><text fill="#000000" font-family="sans-serif" font-size="14" lengthAdjust="spacing" textLength="197.3262" x="2184.3442" y="1406.4326">Base de Datos (PostgreSQL)</text><path d="M2268.0073,1419.7344 C2268.0073,1409.7344 2286.0073,1409.7344 2286.0073,1409.7344 C2286.0073,1409.7344 2304.0073,1409.7344 2304.0073,1419.7344 L2304.0073,1445.7344 C2304.0073,1455.7344 2286.0073,1455.7344 2286.0073,1455.7344 C2286.0073,1455.7344 2268.0073,1455.7344 2268.0073,1445.7344 L2268.0073,1419.7344" fill="#E2E2F0" style="stroke:#181818;stroke-width:0.5;"/><path d="M2268.0073,1419.7344 C2268.0073,1429.7344 2286.0073,1429.7344 2286.0073,1429.7344 C2286.0073,1429.7344 2304.0073,1429.7344 2304.0073,1419.7344" fill="none" style="stroke:#181818;stroke-width:0.5;"/></g><g><title>Frontend .React.</title><rect fill="#FFFFFF" height="982.6484" style="stroke:#181818;stroke-width:1;" width="10" x="488.0684" y="149.7266"/></g><g><title>DocentesController</title><rect fill="#FFFFFF" height="203.9297" style="stroke:#181818;stroke-width:1;" width="10" x="861.0586" y="193.9922"/></g><g><title>DocentesController</title><rect fill="#FFFFFF" height="404.7266" style="stroke:#181818;stroke-width:1;" width="10" x="861.0586" y="641.25"/></g><g><title>UsuarioService</title><rect fill="#FFFFFF" height="145.6641" style="stroke:#181818;stroke-width:1;" width="10" x="1214.8491" y="223.125"/></g><g><title>UsuarioService</title><rect fill="#FFFFFF" height="346.4609" style="stroke:#181818;stroke-width:1;" width="10" x="1214.8491" y="670.3828"/></g><g><title>UsuarioRepository</title><rect fill="#FFFFFF" height="87.3984" style="stroke:#181818;stroke-width:1;" width="10" x="1536.2139" y="252.2578"/></g><g><title>UsuarioRepository</title><rect fill="#FFFFFF" height="87.3984" style="stroke:#181818;stroke-width:1;" width="10" x="1536.2139" y="741.6484"/></g><g><title>UsuarioRepository</title><rect fill="#FFFFFF" height="87.3984" style="stroke:#181818;stroke-width:1;" width="10" x="1536.2139" y="900.3125"/></g><g><title>Base de Datos .PostgreSQL.</title><rect fill="#FFFFFF" height="29.1328" style="stroke:#181818;stroke-width:1;" width="10" x="2281.0073" y="281.3906"/></g><g><title>Base de Datos .PostgreSQL.</title><rect fill="#FFFFFF" height="29.1328" style="stroke:#181818;stroke-width:1;" width="10" x="2281.0073" y="770.7813"/></g><g><title>Base de Datos .PostgreSQL.</title><rect fill="#FFFFFF" height="29.1328" style="stroke:#181818;stroke-width:1;" width="10" x="2281.0073" y="929.4453"/></g><g class="message" data-entity-1="part1" data-entity-2="part2" id="msg1"><polygon fill="#181818" points="476.0684,145.7266,486.0684,149.7266,476.0684,153.7266,480.0684,149.7266" style="stroke:#181818;stroke-width:1;"/><line style="stroke:#181818;stroke-width:1;" x1="117.5308" x2="482.0684" y1="149.7266" y2="149.7266"/><text fill="#000000" font-family="sans-serif" font-size="13" lengthAdjust="spacing" textLength="177.4424" x="124.5308" y="144.6606">Clic en "Editar" (docenteId)</text></g><g class="message" data-entity-1="part2" data-entity-2="part3" id="msg2"><polygon fill="#181818" points="849.0586,189.9922,859.0586,193.9922,849.0586,197.9922,853.0586,193.9922" style="stroke:#181818;stroke-width:1;"/><line style="stroke:#181818;stroke-width:1;" x1="498.0684" x2="855.0586" y1="193.9922" y2="193.9922"/><text fill="#000000" font-family="sans-serif" font-size="13" lengthAdjust="spacing" textLength="204.1025" x="505.0684" y="173.7935">GET /api/docentes/{docenteId}</text><text fill="#000000" font-family="sans-serif" font-size="13" lengthAdjust="spacing" textLength="267.8774" x="505.0684" y="188.9263">(Header: Authorization: Bearer &lt;token&gt;)</text></g><g class="message" data-entity-1="part3" data-entity-2="part4" id="msg3"><polygon fill="#181818" points="1202.8491,219.125,1212.8491,223.125,1202.8491,227.125,1206.8491,223.125" style="stroke:#181818;stroke-width:1;"/><line style="stroke:#181818;stroke-width:1;" x1="871.0586" x2="1208.8491" y1="223.125" y2="223.125"/><text fill="#000000" font-family="sans-serif" font-size="13" lengthAdjust="spacing" textLength="213.4653" x="878.0586" y="218.0591">obtenerDocentePorId(docenteId)</text></g><g class="message" data-entity-1="part4" data-entity-2="part5" id="msg4"><polygon fill="#181818" points="1524.2139,248.2578,1534.2139,252.2578,1524.2139,256.2578,1528.2139,252.2578" style="stroke:#181818;stroke-width:1;"/><line style="stroke:#181818;stroke-width:1;" x1="1224.8491" x2="1530.2139" y1="252.2578" y2="252.2578"/><text fill="#000000" font-family="sans-serif" font-size="13" lengthAdjust="spacing" textLength="128.2925" x="1231.8491" y="247.1919">findById(docenteId)</text></g><g class="message" data-entity-1="part5" data-entity-2="part6" id="msg5"><polygon fill="#181818" points="2269.0073,277.3906,2279.0073,281.3906,2269.0073,285.3906,2273.0073,281.3906" style="stroke:#181818;stroke-width:1;"/><line style="stroke:#181818;stroke-width:1;" x1="1546.2139" x2="2275.0073" y1="281.3906" y2="281.3906"/><text fill="#000000" font-family="sans-serif" font-size="13" lengthAdjust="spacing" textLength="406.4976" x="1553.2139" y="276.3247">SELECT * FROM usuarios WHERE id = ? AND tipo = 'DOCENTE'</text></g><g class="message" data-entity-1="part6" data-entity-2="part5" id="msg6"><polygon fill="#181818" points="1557.2139,306.5234,1547.2139,310.5234,1557.2139,314.5234,1553.2139,310.5234" style="stroke:#181818;stroke-width:1;"/><line style="stroke:#181818;stroke-width:1;stroke-dasharray:2,2;" x1="1551.2139" x2="2285.0073" y1="310.5234" y2="310.5234"/><text fill="#000000" font-family="sans-serif" font-size="13" lengthAdjust="spacing" textLength="49.4038" x="1563.2139" y="305.4575">Usuario</text></g><g class="message" data-entity-1="part5" data-entity-2="part4" id="msg7"><polygon fill="#181818" points="1235.8491,335.6563,1225.8491,339.6563,1235.8491,343.6563,1231.8491,339.6563" style="stroke:#181818;stroke-width:1;"/><line style="stroke:#181818;stroke-width:1;stroke-dasharray:2,2;" x1="1229.8491" x2="1540.2139" y1="339.6563" y2="339.6563"/><text fill="#000000" font-family="sans-serif" font-size="13" lengthAdjust="spacing" textLength="49.4038" x="1241.8491" y="334.5903">Usuario</text></g><g class="message" data-entity-1="part4" data-entity-2="part3" id="msg8"><polygon fill="#181818" points="882.0586,364.7891,872.0586,368.7891,882.0586,372.7891,878.0586,368.7891" style="stroke:#181818;stroke-width:1;"/><line style="stroke:#181818;stroke-width:1;stroke-dasharray:2,2;" x1="876.0586" x2="1218.8491" y1="368.7891" y2="368.7891"/><text fill="#000000" font-family="sans-serif" font-size="13" lengthAdjust="spacing" textLength="77.5874" x="888.0586" y="363.7231">UsuarioDTO</text></g><g class="message" data-entity-1="part3" data-entity-2="part2" id="msg9"><polygon fill="#181818" points="509.0684,393.9219,499.0684,397.9219,509.0684,401.9219,505.0684,397.9219" style="stroke:#181818;stroke-width:1;"/><line style="stroke:#181818;stroke-width:1;stroke-dasharray:2,2;" x1="503.0684" x2="865.0586" y1="397.9219" y2="397.9219"/><text fill="#000000" font-family="sans-serif" font-size="13" lengthAdjust="spacing" textLength="175.7412" x="515.0684" y="392.856">200 OK (UsuarioDTO JSON)</text></g><g class="message" data-entity-1="part2" data-entity-2="part1" id="msg10"><polygon fill="#181818" points="128.5308,438.1875,118.5308,442.1875,128.5308,446.1875,124.5308,442.1875" style="stroke:#181818;stroke-width:1;"/><line style="stroke:#181818;stroke-width:1;stroke-dasharray:2,2;" x1="122.5308" x2="487.0684" y1="442.1875" y2="442.1875"/><text fill="#000000" font-family="sans-serif" font-size="13" lengthAdjust="spacing" textLength="195.5396" x="134.5308" y="421.9888">Mostrar Formulario de Edici&#243;n</text><text fill="#000000" font-family="sans-serif" font-size="13" lengthAdjust="spacing" textLength="185.9292" x="134.5308" y="437.1216">(datos actuales del docente)</text></g><path d="M10,457.1875 L86.624,457.1875 L86.624,464.3203 L76.624,474.3203 L10,474.3203 L10,457.1875" fill="#EEEEEE" style="stroke:#000000;stroke-width:1.5;"/><rect fill="none" height="683.1875" style="stroke:#000000;stroke-width:1.5;" width="2387.6704" x="10" y="457.1875"/><text fill="#000000" font-family="sans-serif" font-size="13" font-weight="bold" lengthAdjust="spacing" textLength="31.624" x="25" y="470.2544">loop</text><text fill="#000000" font-family="sans-serif" font-size="11" font-weight="bold" lengthAdjust="spacing" textLength="112.7446" x="101.624" y="469.3979">[Edici&#243;n continua]</text><g class="message" data-entity-1="part1" data-entity-2="part2" id="msg11"><polygon fill="#181818" points="476.0684,506.5859,486.0684,510.5859,476.0684,514.5859,480.0684,510.5859" style="stroke:#181818;stroke-width:1;"/><line style="stroke:#181818;stroke-width:1;" x1="117.5308" x2="482.0684" y1="510.5859" y2="510.5859"/><text fill="#000000" font-family="sans-serif" font-size="13" lengthAdjust="spacing" textLength="109.2241" x="124.5308" y="490.3872">Modifica campos</text><text fill="#000000" font-family="sans-serif" font-size="13" lengthAdjust="spacing" textLength="346.5376" x="124.5308" y="505.52">(nombre, apellidos, DNI, username, email, password)</text></g><g class="message" data-entity-1="part2" data-entity-2="part2" id="msg12"><line style="stroke:#181818;stroke-width:1;" x1="498.0684" x2="540.0684" y1="539.7188" y2="539.7188"/><line style="stroke:#181818;stroke-width:1;" x1="540.0684" x2="540.0684" y1="539.7188" y2="552.7188"/><line style="stroke:#181818;stroke-width:1;" x1="499.0684" x2="540.0684" y1="552.7188" y2="552.7188"/><polygon fill="#181818" points="509.0684,548.7188,499.0684,552.7188,509.0684,556.7188,505.0684,552.7188" style="stroke:#181818;stroke-width:1;"/><text fill="#000000" font-family="sans-serif" font-size="13" lengthAdjust="spacing" textLength="198.3516" x="505.0684" y="534.6528">Validar formulario (client-side)</text></g><g class="message" data-entity-1="part1" data-entity-2="part2" id="msg13"><polygon fill="#181818" points="476.0684,577.8516,486.0684,581.8516,476.0684,585.8516,480.0684,581.8516" style="stroke:#181818;stroke-width:1;"/><line style="stroke:#181818;stroke-width:1;" x1="117.5308" x2="482.0684" y1="581.8516" y2="581.8516"/><text fill="#000000" font-family="sans-serif" font-size="13" lengthAdjust="spacing" textLength="171.5962" x="124.5308" y="576.7856">Clic en "Guardar cambios"</text></g><g class="message" data-entity-1="part2" data-entity-2="part3" id="msg14"><polygon fill="#181818" points="849.0586,637.25,859.0586,641.25,849.0586,645.25,853.0586,641.25" style="stroke:#181818;stroke-width:1;"/><line style="stroke:#181818;stroke-width:1;" x1="498.0684" x2="855.0586" y1="641.25" y2="641.25"/><text fill="#000000" font-family="sans-serif" font-size="13" lengthAdjust="spacing" textLength="203.1694" x="505.0684" y="605.9185">PUT /api/docentes/{docenteId}</text><text fill="#000000" font-family="sans-serif" font-size="13" lengthAdjust="spacing" textLength="170.9868" x="505.0684" y="621.0513">(UsuarioUpdateDTO JSON)</text><text fill="#000000" font-family="sans-serif" font-size="13" lengthAdjust="spacing" textLength="267.8774" x="505.0684" y="636.1841">(Header: Authorization: Bearer &lt;token&gt;)</text></g><g class="message" data-entity-1="part3" data-entity-2="part4" id="msg15"><polygon fill="#181818" points="1202.8491,666.3828,1212.8491,670.3828,1202.8491,674.3828,1206.8491,670.3828" style="stroke:#181818;stroke-width:1;"/><line style="stroke:#181818;stroke-width:1;" x1="871.0586" x2="1208.8491" y1="670.3828" y2="670.3828"/><text fill="#000000" font-family="sans-serif" font-size="13" lengthAdjust="spacing" textLength="324.7905" x="878.0586" y="665.3169">actualizarDocente(docenteId, usuarioUpdateDTO)</text></g><g class="message" data-entity-1="part4" data-entity-2="part4" id="msg16"><line style="stroke:#181818;stroke-width:1;" x1="1224.8491" x2="1266.8491" y1="699.5156" y2="699.5156"/><line style="stroke:#181818;stroke-width:1;" x1="1266.8491" x2="1266.8491" y1="699.5156" y2="712.5156"/><line style="stroke:#181818;stroke-width:1;" x1="1225.8491" x2="1266.8491" y1="712.5156" y2="712.5156"/><polygon fill="#181818" points="1235.8491,708.5156,1225.8491,712.5156,1235.8491,716.5156,1231.8491,712.5156" style="stroke:#181818;stroke-width:1;"/><text fill="#000000" font-family="sans-serif" font-size="13" lengthAdjust="spacing" textLength="287.3647" x="1231.8491" y="694.4497">Validar datos &#250;nicos (DNI, username, email)</text></g><g class="message" data-entity-1="part4" data-entity-2="part5" id="msg17"><polygon fill="#181818" points="1524.2139,737.6484,1534.2139,741.6484,1524.2139,745.6484,1528.2139,741.6484" style="stroke:#181818;stroke-width:1;"/><line style="stroke:#181818;stroke-width:1;" x1="1224.8491" x2="1530.2139" y1="741.6484" y2="741.6484"/><text fill="#000000" font-family="sans-serif" font-size="13" lengthAdjust="spacing" textLength="128.2925" x="1231.8491" y="736.5825">findById(docenteId)</text></g><g class="message" data-entity-1="part5" data-entity-2="part6" id="msg18"><polygon fill="#181818" points="2269.0073,766.7813,2279.0073,770.7813,2269.0073,774.7813,2273.0073,770.7813" style="stroke:#181818;stroke-width:1;"/><line style="stroke:#181818;stroke-width:1;" x1="1546.2139" x2="2275.0073" y1="770.7813" y2="770.7813"/><text fill="#000000" font-family="sans-serif" font-size="13" lengthAdjust="spacing" textLength="254.9727" x="1553.2139" y="765.7153">SELECT * FROM usuarios WHERE id = ?</text></g><g class="message" data-entity-1="part6" data-entity-2="part5" id="msg19"><polygon fill="#181818" points="1557.2139,795.9141,1547.2139,799.9141,1557.2139,803.9141,1553.2139,799.9141" style="stroke:#181818;stroke-width:1;"/><line style="stroke:#181818;stroke-width:1;stroke-dasharray:2,2;" x1="1551.2139" x2="2285.0073" y1="799.9141" y2="799.9141"/><text fill="#000000" font-family="sans-serif" font-size="13" lengthAdjust="spacing" textLength="49.4038" x="1563.2139" y="794.8481">Usuario</text></g><g class="message" data-entity-1="part5" data-entity-2="part4" id="msg20"><polygon fill="#181818" points="1235.8491,825.0469,1225.8491,829.0469,1235.8491,833.0469,1231.8491,829.0469" style="stroke:#181818;stroke-width:1;"/><line style="stroke:#181818;stroke-width:1;stroke-dasharray:2,2;" x1="1229.8491" x2="1540.2139" y1="829.0469" y2="829.0469"/><text fill="#000000" font-family="sans-serif" font-size="13" lengthAdjust="spacing" textLength="49.4038" x="1241.8491" y="823.981">Usuario</text></g><g class="message" data-entity-1="part4" data-entity-2="part4" id="msg21"><line style="stroke:#181818;stroke-width:1;" x1="1224.8491" x2="1266.8491" y1="858.1797" y2="858.1797"/><line style="stroke:#181818;stroke-width:1;" x1="1266.8491" x2="1266.8491" y1="858.1797" y2="871.1797"/><line style="stroke:#181818;stroke-width:1;" x1="1225.8491" x2="1266.8491" y1="871.1797" y2="871.1797"/><polygon fill="#181818" points="1235.8491,867.1797,1225.8491,871.1797,1235.8491,875.1797,1231.8491,871.1797" style="stroke:#181818;stroke-width:1;"/><text fill="#000000" font-family="sans-serif" font-size="13" lengthAdjust="spacing" textLength="200.4019" x="1231.8491" y="853.1138">Actualizar campos del docente</text></g><g class="message" data-entity-1="part4" data-entity-2="part5" id="msg22"><polygon fill="#181818" points="1524.2139,896.3125,1534.2139,900.3125,1524.2139,904.3125,1528.2139,900.3125" style="stroke:#181818;stroke-width:1;"/><line style="stroke:#181818;stroke-width:1;" x1="1224.8491" x2="1530.2139" y1="900.3125" y2="900.3125"/><text fill="#000000" font-family="sans-serif" font-size="13" lengthAdjust="spacing" textLength="88.7021" x="1231.8491" y="895.2466">save(usuario)</text></g><g class="message" data-entity-1="part5" data-entity-2="part6" id="msg23"><polygon fill="#181818" points="2269.0073,925.4453,2279.0073,929.4453,2269.0073,933.4453,2273.0073,929.4453" style="stroke:#181818;stroke-width:1;"/><line style="stroke:#181818;stroke-width:1;" x1="1546.2139" x2="2275.0073" y1="929.4453" y2="929.4453"/><text fill="#000000" font-family="sans-serif" font-size="13" lengthAdjust="spacing" textLength="715.7935" x="1553.2139" y="924.3794">UPDATE usuarios SET nombre=?, apellidos=?, dni=?, username=?, email=?, password_hash=? WHERE id = ?</text></g><g class="message" data-entity-1="part6" data-entity-2="part5" id="msg24"><polygon fill="#181818" points="1557.2139,954.5781,1547.2139,958.5781,1557.2139,962.5781,1553.2139,958.5781" style="stroke:#181818;stroke-width:1;"/><line style="stroke:#181818;stroke-width:1;stroke-dasharray:2,2;" x1="1551.2139" x2="2285.0073" y1="958.5781" y2="958.5781"/><text fill="#000000" font-family="sans-serif" font-size="13" lengthAdjust="spacing" textLength="138.3154" x="1563.2139" y="953.5122">Usuario (actualizado)</text></g><g class="message" data-entity-1="part5" data-entity-2="part4" id="msg25"><polygon fill="#181818" points="1235.8491,983.7109,1225.8491,987.7109,1235.8491,991.7109,1231.8491,987.7109" style="stroke:#181818;stroke-width:1;"/><line style="stroke:#181818;stroke-width:1;stroke-dasharray:2,2;" x1="1229.8491" x2="1540.2139" y1="987.7109" y2="987.7109"/><text fill="#000000" font-family="sans-serif" font-size="13" lengthAdjust="spacing" textLength="49.4038" x="1241.8491" y="982.645">Usuario</text></g><g class="message" data-entity-1="part4" data-entity-2="part3" id="msg26"><polygon fill="#181818" points="882.0586,1012.8438,872.0586,1016.8438,882.0586,1020.8438,878.0586,1016.8438" style="stroke:#181818;stroke-width:1;"/><line style="stroke:#181818;stroke-width:1;stroke-dasharray:2,2;" x1="876.0586" x2="1218.8491" y1="1016.8438" y2="1016.8438"/><text fill="#000000" font-family="sans-serif" font-size="13" lengthAdjust="spacing" textLength="77.5874" x="888.0586" y="1011.7778">UsuarioDTO</text></g><g class="message" data-entity-1="part3" data-entity-2="part2" id="msg27"><polygon fill="#181818" points="509.0684,1041.9766,499.0684,1045.9766,509.0684,1049.9766,505.0684,1045.9766" style="stroke:#181818;stroke-width:1;"/><line style="stroke:#181818;stroke-width:1;stroke-dasharray:2,2;" x1="503.0684" x2="865.0586" y1="1045.9766" y2="1045.9766"/><text fill="#000000" font-family="sans-serif" font-size="13" lengthAdjust="spacing" textLength="175.7412" x="515.0684" y="1040.9106">200 OK (UsuarioDTO JSON)</text></g><g class="message" data-entity-1="part2" data-entity-2="part2" id="msg28"><line style="stroke:#181818;stroke-width:1;" x1="498.0684" x2="540.0684" y1="1075.1094" y2="1075.1094"/><line style="stroke:#181818;stroke-width:1;" x1="540.0684" x2="540.0684" y1="1075.1094" y2="1088.1094"/><line style="stroke:#181818;stroke-width:1;" x1="499.0684" x2="540.0684" y1="1088.1094" y2="1088.1094"/><polygon fill="#181818" points="509.0684,1084.1094,499.0684,1088.1094,509.0684,1092.1094,505.0684,1088.1094" style="stroke:#181818;stroke-width:1;"/><text fill="#000000" font-family="sans-serif" font-size="13" lengthAdjust="spacing" textLength="338.9902" x="505.0684" y="1070.0435">Mostrar Toast "Docente actualizado correctamente"</text></g><g class="message" data-entity-1="part2" data-entity-2="part1" id="msg29"><polygon fill="#181818" points="128.5308,1128.375,118.5308,1132.375,128.5308,1136.375,124.5308,1132.375" style="stroke:#181818;stroke-width:1;"/><line style="stroke:#181818;stroke-width:1;stroke-dasharray:2,2;" x1="122.5308" x2="492.0684" y1="1132.375" y2="1132.375"/><text fill="#000000" font-family="sans-serif" font-size="13" lengthAdjust="spacing" textLength="207.9429" x="134.5308" y="1112.1763">Mantener Formulario de Edici&#243;n</text><text fill="#000000" font-family="sans-serif" font-size="13" lengthAdjust="spacing" textLength="162.7031" x="134.5308" y="1127.3091">para m&#225;s modificaciones</text></g><g class="message" data-entity-1="part1" data-entity-2="part2" id="msg30"><polygon fill="#181818" points="481.0684,1164.5078,491.0684,1168.5078,481.0684,1172.5078,485.0684,1168.5078" style="stroke:#181818;stroke-width:1;"/><line style="stroke:#181818;stroke-width:1;" x1="117.5308" x2="487.0684" y1="1168.5078" y2="1168.5078"/><text fill="#000000" font-family="sans-serif" font-size="13" lengthAdjust="spacing" textLength="144.6948" x="124.5308" y="1163.4419">Clic en "Volver a lista"</text></g><g class="message" data-entity-1="part2" data-entity-2="part1" id="msg31"><polygon fill="#181818" points="128.5308,1193.6406,118.5308,1197.6406,128.5308,1201.6406,124.5308,1197.6406" style="stroke:#181818;stroke-width:1;"/><line style="stroke:#181818;stroke-width:1;stroke-dasharray:2,2;" x1="122.5308" x2="492.0684" y1="1197.6406" y2="1197.6406"/><text fill="#000000" font-family="sans-serif" font-size="13" lengthAdjust="spacing" textLength="163.687" x="134.5308" y="1192.5747">Redirigir a verDocentes()</text></g><path d="M10,1212.6406 L74.4429,1212.6406 L74.4429,1219.7734 L64.4429,1229.7734 L10,1229.7734 L10,1212.6406" fill="#EEEEEE" style="stroke:#000000;stroke-width:1.5;"/><rect fill="none" height="75.3984" style="stroke:#000000;stroke-width:1.5;" width="940.6079" x="10" y="1212.6406"/><text fill="#000000" font-family="sans-serif" font-size="13" font-weight="bold" lengthAdjust="spacing" textLength="19.4429" x="25" y="1225.7075">alt</text><text fill="#000000" font-family="sans-serif" font-size="11" font-weight="bold" lengthAdjust="spacing" textLength="105.8374" x="89.4429" y="1224.8511">[Datos Inv&#225;lidos]</text><g class="message" data-entity-1="part3" data-entity-2="part2" id="msg32"><polygon fill="#181818" points="504.0684,1246.9063,494.0684,1250.9063,504.0684,1254.9063,500.0684,1250.9063" style="stroke:#181818;stroke-width:1;"/><line style="stroke:#181818;stroke-width:1;stroke-dasharray:2,2;" x1="498.0684" x2="865.0586" y1="1250.9063" y2="1250.9063"/><text fill="#000000" font-family="sans-serif" font-size="13" lengthAdjust="spacing" textLength="232.7749" x="510.0684" y="1245.8403">400 Bad Request (validation errors)</text></g><g class="message" data-entity-1="part2" data-entity-2="part1" id="msg33"><polygon fill="#181818" points="128.5308,1276.0391,118.5308,1280.0391,128.5308,1284.0391,124.5308,1280.0391" style="stroke:#181818;stroke-width:1;"/><line style="stroke:#181818;stroke-width:1;stroke-dasharray:2,2;" x1="122.5308" x2="492.0684" y1="1280.0391" y2="1280.0391"/><text fill="#000000" font-family="sans-serif" font-size="13" lengthAdjust="spacing" textLength="191.1533" x="134.5308" y="1274.9731">Mostrar errores de validaci&#243;n</text></g><path d="M10,1302.0391 L74.4429,1302.0391 L74.4429,1309.1719 L64.4429,1319.1719 L10,1319.1719 L10,1302.0391" fill="#EEEEEE" style="stroke:#000000;stroke-width:1.5;"/><rect fill="none" height="75.3984" style="stroke:#000000;stroke-width:1.5;" width="940.6079" x="10" y="1302.0391"/><text fill="#000000" font-family="sans-serif" font-size="13" font-weight="bold" lengthAdjust="spacing" textLength="19.4429" x="25" y="1315.106">alt</text><text fill="#000000" font-family="sans-serif" font-size="11" font-weight="bold" lengthAdjust="spacing" textLength="156.4868" x="89.4429" y="1314.2495">[Docente No Encontrado]</text><g class="message" data-entity-1="part3" data-entity-2="part2" id="msg34"><polygon fill="#181818" points="504.0684,1336.3047,494.0684,1340.3047,504.0684,1344.3047,500.0684,1340.3047" style="stroke:#181818;stroke-width:1;"/><line style="stroke:#181818;stroke-width:1;stroke-dasharray:2,2;" x1="498.0684" x2="865.0586" y1="1340.3047" y2="1340.3047"/><text fill="#000000" font-family="sans-serif" font-size="13" lengthAdjust="spacing" textLength="96.0146" x="510.0684" y="1335.2388">404 Not Found</text></g><g class="message" data-entity-1="part2" data-entity-2="part1" id="msg35"><polygon fill="#181818" points="128.5308,1365.4375,118.5308,1369.4375,128.5308,1373.4375,124.5308,1369.4375" style="stroke:#181818;stroke-width:1;"/><line style="stroke:#181818;stroke-width:1;stroke-dasharray:2,2;" x1="122.5308" x2="492.0684" y1="1369.4375" y2="1369.4375"/><text fill="#000000" font-family="sans-serif" font-size="13" lengthAdjust="spacing" textLength="165.5786" x="134.5308" y="1364.3716">Mostrar mensaje de error</text></g><?plantuml-src hLRTRjis5BxNKnpufdBd84NHAsDfO4TowxQnCzlfRWOK9oAJS9L8bQGyTCCUfi-mkztcnNP8_LgLYxIOBsHHF3yVl_D7AspA8H9ufp53O1osF2cuJ0J22SHCMDGGgOHBoo7Svbh8EvWhPU4ds71Cx3W8wAaqZ6Oi4r8Ogv7HSYcD5RP8X9AOZW0D-FqWHsr58dAK5aOBhSYkP12MjhpS8ZuKghoR2vBLAasvzcBjyb3ysXIeXTfolHS9zwBL-w3SXkVA23h0Po_gbW53YpTeE8pcxacaH6YLWV1A6Nkd-VQNToNKQ1u4_bXmyf9mJ-4Y5Gbm2QEIkH64h4I_P6F7azWZyKWdNCHEfJt355x5EpZ5N9nM6kRqhqRtxzza-9eZStApmjuhBVv4IzHEOSvHSmq_M_MHovST9nr-sbVdj69Z2kg6kEUwulTAwIKRX5lJL_qx6uwcATmAoUQVZsXv9jt3oKVpAMpZT_753fx2OhE-XAAaty2lh-DD38B16Pp3R1M15QHp1a-YzKMysiLFMfD4TpI7ayP_5SA0yQv8wRDxq04vZwuvK2yKbNoqMtTLQXgwR5PXV_xi6QpVGjWgmfljUZNkgdVYuO9FcZvpfd2fNCreM2YT5QdJTnb72PI8XtyaHPxvv2D31QRSq6OA5U5KVAbIUICC2JaHii00w7UGcPUAYLkH82IOKSQJMQco6yqdW3bFKy6KcK2qMaueCbnBp6Y7PoZI2UHep1zAKt2TrJ9pdSdtI6e4_BO57YQf860dHZ0-_Xf4KnwlY2UdIc1kA0b67SlTG5nTVxicAhwlSwA8Dwm_lbYSrw40kUz7YgOC0rciwwPD_acTr0sUdeSwWzp7JZ4rjcj2ou0__2j5uhhEK5J6VIF7A_80Wizxz-KxA_FG2bMPMmyMeziuBCZMtL1HzkGRW4C4pHhogpJk5iCm8mRtFAoEz1Wkhg-YsIvkITXIMouhvUoyKojkmQHmVtLatBkFZNkfQ-R3FPhxi_CVunB29jjO1Vv_PVPus-kfTXFtUzfVpqolmjfEKhV0dKBJJdped9uwczOyiSGpxRJzejD6KVfnThIFqlH7o1w-6CYgNkWk9zpqKT9qfYl9iS7-NgLxSeAGqbK7HxrUlk5CQ74ddC2-6QqcF9W4v230r5QNYgNSFtpnENMCtXT4xnmP6VzKSE8dtFi-uLeQSAsLDezX-kk1utNzG87IeYUgFBp7LuLXfI2MRhAuczrna2z8q1Bx1Ud_21oAhC7V_NNB8tD0_WC0?></g></svg>