<?plantuml 1.2026.2?><svg xmlns="http://www.w3.org/2000/svg" xmlns:xlink="http://www.w3.org/1999/xlink" contentStyleType="text/css" data-diagram-type="SEQUENCE" height="1281px" preserveAspectRatio="none" style="width:2276px;height:1281px;background:#FFFFFF;" version="1.1" viewBox="0 0 2276 1281" width="2276px" zoomAndPan="magnify"><title>Diagrama de Secuencia - Eliminar Asignatura (Spring Boot + React)</title><defs/><g><text fill="#000000" font-family="sans-serif" font-size="14" font-weight="bold" lengthAdjust="spacing" textLength="534.2354" x="872.1235" y="27.9951">Diagrama de Secuencia - Eliminar Asignatura (Spring Boot + React)</text><g><title>Frontend .React.</title><rect fill="#FFFFFF" height="1041.3203" style="stroke:#181818;stroke-width:1;" width="10" x="407.6128" y="149.7266"/></g><g><title>AsignaturasController</title><rect fill="#FFFFFF" height="735.1875" style="stroke:#181818;stroke-width:1;" width="10" x="704.4902" y="267.3906"/></g><g><title>AsignaturaService</title><rect fill="#FFFFFF" height="676.9219" style="stroke:#181818;stroke-width:1;" width="10" x="1021.6421" y="296.5234"/></g><g><title>PreguntaService</title><rect fill="#FFFFFF" height="277.1953" style="stroke:#181818;stroke-width:1;" width="10" x="1352.6445" y="550.5859"/></g><g><title>AsignaturaRepository</title><rect fill="#FFFFFF" height="87.3984" style="stroke:#181818;stroke-width:1;" width="10" x="1602.9028" y="325.6563"/></g><g><title>AsignaturaRepository</title><rect fill="#FFFFFF" height="87.3984" style="stroke:#181818;stroke-width:1;" width="10" x="1602.9028" y="856.9141"/></g><g><title>PreguntaRepository</title><rect fill="#FFFFFF" height="58.2656" style="stroke:#181818;stroke-width:1;" width="10" x="1771.6299" y="579.7188"/></g><g><title>PreguntaRepository</title><rect fill="#FFFFFF" height="58.2656" style="stroke:#181818;stroke-width:1;" width="10" x="1771.6299" y="733.3828"/></g><g><title>Base de Datos .PostgreSQL.</title><rect fill="#FFFFFF" height="29.1328" style="stroke:#181818;stroke-width:1;" width="10" x="2142.8193" y="354.7891"/></g><g><title>Base de Datos .PostgreSQL.</title><rect fill="#FFFFFF" height="29.1328" style="stroke:#181818;stroke-width:1;" width="10" x="2142.8193" y="886.0469"/></g><rect fill="none" height="755.9922" style="stroke:#000000;stroke-width:1.5;" width="2259.4824" x="10" y="428.0547"/><rect fill="none" height="146.6641" style="stroke:#000000;stroke-width:1.5;" width="976.4648" x="1283.0176" y="652.9844"/><g class="participant-lifeline" data-entity-uid="part1" data-qualified-name="Teacher" id="part1-lifeline"><g><title>Docente</title><rect fill="#000000" fill-opacity="0.00000" height="1082.4531" width="8" x="48.3159" y="118.5938"/><line style="stroke:#181818;stroke-width:0.5;stroke-dasharray:5,5;" x1="52" x2="52" y1="118.5938" y2="1201.0469"/></g></g><g class="participant-lifeline" data-entity-uid="part2" data-qualified-name="FE" id="part2-lifeline"><g><title>Frontend .React.</title><rect fill="#000000" fill-opacity="0.00000" height="1082.4531" width="8" x="408.6128" y="118.5938"/><line style="stroke:#181818;stroke-width:0.5;stroke-dasharray:5,5;" x1="412.3179" x2="412.3179" y1="118.5938" y2="1201.0469"/></g></g><g class="participant-lifeline" data-entity-uid="part3" data-qualified-name="Controller" id="part3-lifeline"><g><title>AsignaturasController</title><rect fill="#000000" fill-opacity="0.00000" height="1082.4531" width="8" x="705.4902" y="118.5938"/><line style="stroke:#181818;stroke-width:0.5;stroke-dasharray:5,5;" x1="709.3584" x2="709.3584" y1="118.5938" y2="1201.0469"/></g></g><g class="participant-lifeline" data-entity-uid="part4" data-qualified-name="Service" id="part4-lifeline"><g><title>AsignaturaService</title><rect fill="#000000" fill-opacity="0.00000" height="1082.4531" width="8" x="1022.6421" y="118.5938"/><line style="stroke:#181818;stroke-width:0.5;stroke-dasharray:5,5;" x1="1025.873" x2="1025.873" y1="118.5938" y2="1201.0469"/></g></g><g class="participant-lifeline" data-entity-uid="part5" data-qualified-name="PreguntaService" id="part5-lifeline"><g><title>PreguntaService</title><rect fill="#000000" fill-opacity="0.00000" height="1082.4531" width="8" x="1353.6445" y="118.5938"/><line style="stroke:#181818;stroke-width:0.5;stroke-dasharray:5,5;" x1="1357.0176" x2="1357.0176" y1="118.5938" y2="1201.0469"/></g></g><g class="participant-lifeline" data-entity-uid="part6" data-qualified-name="Repo" id="part6-lifeline"><g><title>AsignaturaRepository</title><rect fill="#000000" fill-opacity="0.00000" height="1082.4531" width="8" x="1603.9028" y="118.5938"/><line style="stroke:#181818;stroke-width:0.5;stroke-dasharray:5,5;" x1="1607.4683" x2="1607.4683" y1="118.5938" y2="1201.0469"/></g></g><g class="participant-lifeline" data-entity-uid="part7" data-qualified-name="PreguntaRepo" id="part7-lifeline"><g><title>PreguntaRepository</title><rect fill="#000000" fill-opacity="0.00000" height="1082.4531" width="8" x="1772.6299" y="118.5938"/><line style="stroke:#181818;stroke-width:0.5;stroke-dasharray:5,5;" x1="1776.3374" x2="1776.3374" y1="118.5938" y2="1201.0469"/></g></g><g class="participant-lifeline" data-entity-uid="part8" data-qualified-name="DB" id="part8-lifeline"><g><title>Base de Datos .PostgreSQL.</title><rect fill="#000000" fill-opacity="0.00000" height="1082.4531" width="8" x="2143.8193" y="118.5938"/><line style="stroke:#181818;stroke-width:0.5;stroke-dasharray:5,5;" x1="2147.1563" x2="2147.1563" y1="118.5938" y2="1201.0469"/></g></g><g class="participant participant-head" data-entity-uid="part1" data-qualified-name="Teacher" id="part1-head"><text fill="#000000" font-family="sans-serif" font-size="14" lengthAdjust="spacing" textLength="58.6318" x="20" y="115.292">Docente</text><ellipse cx="52.3159" cy="50.7969" fill="#E2E2F0" rx="8" ry="8" style="stroke:#181818;stroke-width:0.5;"/><path d="M52.3159,58.7969 L52.3159,85.7969 M39.3159,66.7969 L65.3159,66.7969 M52.3159,85.7969 L39.3159,100.7969 M52.3159,85.7969 L65.3159,100.7969" fill="none" style="stroke:#181818;stroke-width:0.5;"/></g><g class="participant participant-tail" data-entity-uid="part1" data-qualified-name="Teacher" id="part1-tail"><text fill="#000000" font-family="sans-serif" font-size="14" lengthAdjust="spacing" textLength="58.6318" x="20" y="1213.042">Docente</text><ellipse cx="52.3159" cy="1224.8438" fill="#E2E2F0" rx="8" ry="8" style="stroke:#181818;stroke-width:0.5;"/><path d="M52.3159,1232.8438 L52.3159,1259.8438 M39.3159,1240.8438 L65.3159,1240.8438 M52.3159,1259.8438 L39.3159,1274.8438 M52.3159,1259.8438 L65.3159,1274.8438" fill="none" style="stroke:#181818;stroke-width:0.5;"/></g><g class="participant participant-head" data-entity-uid="part2" data-qualified-name="FE" id="part2-head"><rect fill="#E2E2F0" height="30.2969" rx="2.5" ry="2.5" style="stroke:#181818;stroke-width:0.5;" width="132.5898" x="346.3179" y="87.2969"/><text fill="#000000" font-family="sans-serif" font-size="14" lengthAdjust="spacing" textLength="118.5898" x="353.3179" y="107.292">Frontend (React)</text></g><g class="participant participant-tail" data-entity-uid="part2" data-qualified-name="FE" id="part2-tail"><rect fill="#E2E2F0" height="30.2969" rx="2.5" ry="2.5" style="stroke:#181818;stroke-width:0.5;" width="132.5898" x="346.3179" y="1200.0469"/><text fill="#000000" font-family="sans-serif" font-size="14" lengthAdjust="spacing" textLength="118.5898" x="353.3179" y="1220.042">Frontend (React)</text></g><g class="participant participant-head" data-entity-uid="part3" data-qualified-name="Controller" id="part3-head"><rect fill="#E2E2F0" height="30.2969" rx="2.5" ry="2.5" style="stroke:#181818;stroke-width:0.5;" width="166.2637" x="626.3584" y="87.2969"/><text fill="#000000" font-family="sans-serif" font-size="14" lengthAdjust="spacing" textLength="152.2637" x="633.3584" y="107.292">AsignaturasController</text></g><g class="participant participant-tail" data-entity-uid="part3" data-qualified-name="Controller" id="part3-tail"><rect fill="#E2E2F0" height="30.2969" rx="2.5" ry="2.5" style="stroke:#181818;stroke-width:0.5;" width="166.2637" x="626.3584" y="1200.0469"/><text fill="#000000" font-family="sans-serif" font-size="14" lengthAdjust="spacing" textLength="152.2637" x="633.3584" y="1220.042">AsignaturasController</text></g><g class="participant participant-head" data-entity-uid="part4" data-qualified-name="Service" id="part4-head"><rect fill="#E2E2F0" height="30.2969" rx="2.5" ry="2.5" style="stroke:#181818;stroke-width:0.5;" width="141.5381" x="955.873" y="87.2969"/><text fill="#000000" font-family="sans-serif" font-size="14" lengthAdjust="spacing" textLength="127.5381" x="962.873" y="107.292">AsignaturaService</text></g><g class="participant participant-tail" data-entity-uid="part4" data-qualified-name="Service" id="part4-tail"><rect fill="#E2E2F0" height="30.2969" rx="2.5" ry="2.5" style="stroke:#181818;stroke-width:0.5;" width="141.5381" x="955.873" y="1200.0469"/><text fill="#000000" font-family="sans-serif" font-size="14" lengthAdjust="spacing" textLength="127.5381" x="962.873" y="1220.042">AsignaturaService</text></g><g class="participant participant-head" data-entity-uid="part5" data-qualified-name="PreguntaService" id="part5-head"><rect fill="#E2E2F0" height="30.2969" rx="2.5" ry="2.5" style="stroke:#181818;stroke-width:0.5;" width="129.2539" x="1293.0176" y="87.2969"/><text fill="#000000" font-family="sans-serif" font-size="14" lengthAdjust="spacing" textLength="115.2539" x="1300.0176" y="107.292">PreguntaService</text></g><g class="participant participant-tail" data-entity-uid="part5" data-qualified-name="PreguntaService" id="part5-tail"><rect fill="#E2E2F0" height="30.2969" rx="2.5" ry="2.5" style="stroke:#181818;stroke-width:0.5;" width="129.2539" x="1293.0176" y="1200.0469"/><text fill="#000000" font-family="sans-serif" font-size="14" lengthAdjust="spacing" textLength="115.2539" x="1300.0176" y="1220.042">PreguntaService</text></g><g class="participant participant-head" data-entity-uid="part6" data-qualified-name="Repo" id="part6-head"><rect fill="#E2E2F0" height="30.2969" rx="2.5" ry="2.5" style="stroke:#181818;stroke-width:0.5;" width="164.8691" x="1525.4683" y="87.2969"/><text fill="#000000" font-family="sans-serif" font-size="14" lengthAdjust="spacing" textLength="150.8691" x="1532.4683" y="107.292">AsignaturaRepository</text></g><g class="participant participant-tail" data-entity-uid="part6" data-qualified-name="Repo" id="part6-tail"><rect fill="#E2E2F0" height="30.2969" rx="2.5" ry="2.5" style="stroke:#181818;stroke-width:0.5;" width="164.8691" x="1525.4683" y="1200.0469"/><text fill="#000000" font-family="sans-serif" font-size="14" lengthAdjust="spacing" textLength="150.8691" x="1532.4683" y="1220.042">AsignaturaRepository</text></g><g class="participant participant-head" data-entity-uid="part7" data-qualified-name="PreguntaRepo" id="part7-head"><rect fill="#E2E2F0" height="30.2969" rx="2.5" ry="2.5" style="stroke:#181818;stroke-width:0.5;" width="152.585" x="1700.3374" y="87.2969"/><text fill="#000000" font-family="sans-serif" font-size="14" lengthAdjust="spacing" textLength="138.585" x="1707.3374" y="107.292">PreguntaRepository</text></g><g class="participant participant-tail" data-entity-uid="part7" data-qualified-name="PreguntaRepo" id="part7-tail"><rect fill="#E2E2F0" height="30.2969" rx="2.5" ry="2.5" style="stroke:#181818;stroke-width:0.5;" width="152.585" x="1700.3374" y="1200.0469"/><text fill="#000000" font-family="sans-serif" font-size="14" lengthAdjust="spacing" textLength="138.585" x="1707.3374" y="1220.042">PreguntaRepository</text></g><g class="participant participant-head" data-entity-uid="part8" data-qualified-name="DB" id="part8-head"><text fill="#000000" font-family="sans-serif" font-size="14" lengthAdjust="spacing" textLength="197.3262" x="2046.1563" y="115.292">Base de Datos (PostgreSQL)</text><path d="M2129.8193,66.2969 C2129.8193,56.2969 2147.8193,56.2969 2147.8193,56.2969 C2147.8193,56.2969 2165.8193,56.2969 2165.8193,66.2969 L2165.8193,92.2969 C2165.8193,102.2969 2147.8193,102.2969 2147.8193,102.2969 C2147.8193,102.2969 2129.8193,102.2969 2129.8193,92.2969 L2129.8193,66.2969" fill="#E2E2F0" style="stroke:#181818;stroke-width:0.5;"/><path d="M2129.8193,66.2969 C2129.8193,76.2969 2147.8193,76.2969 2147.8193,76.2969 C2147.8193,76.2969 2165.8193,76.2969 2165.8193,66.2969" fill="none" style="stroke:#181818;stroke-width:0.5;"/></g><g class="participant participant-tail" data-entity-uid="part8" data-qualified-name="DB" id="part8-tail"><text fill="#000000" font-family="sans-serif" font-size="14" lengthAdjust="spacing" textLength="197.3262" x="2046.1563" y="1213.042">Base de Datos (PostgreSQL)</text><path d="M2129.8193,1226.3438 C2129.8193,1216.3438 2147.8193,1216.3438 2147.8193,1216.3438 C2147.8193,1216.3438 2165.8193,1216.3438 2165.8193,1226.3438 L2165.8193,1252.3438 C2165.8193,1262.3438 2147.8193,1262.3438 2147.8193,1262.3438 C2147.8193,1262.3438 2129.8193,1262.3438 2129.8193,1252.3438 L2129.8193,1226.3438" fill="#E2E2F0" style="stroke:#181818;stroke-width:0.5;"/><path d="M2129.8193,1226.3438 C2129.8193,1236.3438 2147.8193,1236.3438 2147.8193,1236.3438 C2147.8193,1236.3438 2165.8193,1236.3438 2165.8193,1226.3438" fill="none" style="stroke:#181818;stroke-width:0.5;"/></g><g><title>Frontend .React.</title><rect fill="#FFFFFF" height="1041.3203" style="stroke:#181818;stroke-width:1;" width="10" x="407.6128" y="149.7266"/></g><g><title>AsignaturasController</title><rect fill="#FFFFFF" height="735.1875" style="stroke:#181818;stroke-width:1;" width="10" x="704.4902" y="267.3906"/></g><g><title>AsignaturaService</title><rect fill="#FFFFFF" height="676.9219" style="stroke:#181818;stroke-width:1;" width="10" x="1021.6421" y="296.5234"/></g><g><title>PreguntaService</title><rect fill="#FFFFFF" height="277.1953" style="stroke:#181818;stroke-width:1;" width="10" x="1352.6445" y="550.5859"/></g><g><title>AsignaturaRepository</title><rect fill="#FFFFFF" height="87.3984" style="stroke:#181818;stroke-width:1;" width="10" x="1602.9028" y="325.6563"/></g><g><title>AsignaturaRepository</title><rect fill="#FFFFFF" height="87.3984" style="stroke:#181818;stroke-width:1;" width="10" x="1602.9028" y="856.9141"/></g><g><title>PreguntaRepository</title><rect fill="#FFFFFF" height="58.2656" style="stroke:#181818;stroke-width:1;" width="10" x="1771.6299" y="579.7188"/></g><g><title>PreguntaRepository</title><rect fill="#FFFFFF" height="58.2656" style="stroke:#181818;stroke-width:1;" width="10" x="1771.6299" y="733.3828"/></g><g><title>Base de Datos .PostgreSQL.</title><rect fill="#FFFFFF" height="29.1328" style="stroke:#181818;stroke-width:1;" width="10" x="2142.8193" y="354.7891"/></g><g><title>Base de Datos .PostgreSQL.</title><rect fill="#FFFFFF" height="29.1328" style="stroke:#181818;stroke-width:1;" width="10" x="2142.8193" y="886.0469"/></g><g class="message" data-entity-1="part1" data-entity-2="part2" id="msg1"><polygon fill="#181818" points="395.6128,145.7266,405.6128,149.7266,395.6128,153.7266,399.6128,149.7266" style="stroke:#181818;stroke-width:1;"/><line style="stroke:#181818;stroke-width:1;" x1="52.3159" x2="401.6128" y1="149.7266" y2="149.7266"/><text fill="#000000" font-family="sans-serif" font-size="13" lengthAdjust="spacing" textLength="208.9902" x="59.3159" y="144.6606">Clic en "Eliminar" (asignaturaId)</text></g><g class="message" data-entity-1="part2" data-entity-2="part1" id="msg2"><polygon fill="#181818" points="63.3159,189.9922,53.3159,193.9922,63.3159,197.9922,59.3159,193.9922" style="stroke:#181818;stroke-width:1;"/><line style="stroke:#181818;stroke-width:1;stroke-dasharray:2,2;" x1="57.3159" x2="406.6128" y1="193.9922" y2="193.9922"/><text fill="#000000" font-family="sans-serif" font-size="13" lengthAdjust="spacing" textLength="203.728" x="69.3159" y="173.7935">Mostrar Modal de Confirmaci&#243;n</text><text fill="#000000" font-family="sans-serif" font-size="13" lengthAdjust="spacing" textLength="155.8667" x="69.3159" y="188.9263">(datos de la asignatura)</text></g><g class="message" data-entity-1="part1" data-entity-2="part2" id="msg3"><polygon fill="#181818" points="395.6128,219.125,405.6128,223.125,395.6128,227.125,399.6128,223.125" style="stroke:#181818;stroke-width:1;"/><line style="stroke:#181818;stroke-width:1;" x1="52.3159" x2="401.6128" y1="223.125" y2="223.125"/><text fill="#000000" font-family="sans-serif" font-size="13" lengthAdjust="spacing" textLength="138.2202" x="59.3159" y="218.0591">Confirma eliminaci&#243;n</text></g><g class="message" data-entity-1="part2" data-entity-2="part3" id="msg4"><polygon fill="#181818" points="692.4902,263.3906,702.4902,267.3906,692.4902,271.3906,696.4902,267.3906" style="stroke:#181818;stroke-width:1;"/><line style="stroke:#181818;stroke-width:1;" x1="417.6128" x2="698.4902" y1="267.3906" y2="267.3906"/><text fill="#000000" font-family="sans-serif" font-size="13" lengthAdjust="spacing" textLength="261.2505" x="424.6128" y="247.1919">DELETE /api/asignaturas/{asignaturaId}</text><text fill="#000000" font-family="sans-serif" font-size="13" lengthAdjust="spacing" textLength="267.8774" x="424.6128" y="262.3247">(Header: Authorization: Bearer &lt;token&gt;)</text></g><g class="message" data-entity-1="part3" data-entity-2="part4" id="msg5"><polygon fill="#181818" points="1009.6421,292.5234,1019.6421,296.5234,1009.6421,300.5234,1013.6421,296.5234" style="stroke:#181818;stroke-width:1;"/><line style="stroke:#181818;stroke-width:1;" x1="714.4902" x2="1015.6421" y1="296.5234" y2="296.5234"/><text fill="#000000" font-family="sans-serif" font-size="13" lengthAdjust="spacing" textLength="288.1519" x="721.4902" y="291.4575">eliminarAsignatura(asignaturaId, docenteId)</text></g><g class="message" data-entity-1="part4" data-entity-2="part6" id="msg6"><polygon fill="#181818" points="1590.9028,321.6563,1600.9028,325.6563,1590.9028,329.6563,1594.9028,325.6563" style="stroke:#181818;stroke-width:1;"/><line style="stroke:#181818;stroke-width:1;" x1="1031.6421" x2="1596.9028" y1="325.6563" y2="325.6563"/><text fill="#000000" font-family="sans-serif" font-size="13" lengthAdjust="spacing" textLength="145.063" x="1038.6421" y="320.5903">findById(asignaturaId)</text></g><g class="message" data-entity-1="part6" data-entity-2="part8" id="msg7"><polygon fill="#181818" points="2130.8193,350.7891,2140.8193,354.7891,2130.8193,358.7891,2134.8193,354.7891" style="stroke:#181818;stroke-width:1;"/><line style="stroke:#181818;stroke-width:1;" x1="1612.9028" x2="2136.8193" y1="354.7891" y2="354.7891"/><text fill="#000000" font-family="sans-serif" font-size="13" lengthAdjust="spacing" textLength="276.3008" x="1619.9028" y="349.7231">SELECT * FROM asignaturas WHERE id = ?</text></g><g class="message" data-entity-1="part8" data-entity-2="part6" id="msg8"><polygon fill="#181818" points="1623.9028,379.9219,1613.9028,383.9219,1623.9028,387.9219,1619.9028,383.9219" style="stroke:#181818;stroke-width:1;"/><line style="stroke:#181818;stroke-width:1;stroke-dasharray:2,2;" x1="1617.9028" x2="2146.8193" y1="383.9219" y2="383.9219"/><text fill="#000000" font-family="sans-serif" font-size="13" lengthAdjust="spacing" textLength="147.1323" x="1629.9028" y="378.856">Optional&lt;Asignatura&gt;</text></g><g class="message" data-entity-1="part6" data-entity-2="part4" id="msg9"><polygon fill="#181818" points="1042.6421,409.0547,1032.6421,413.0547,1042.6421,417.0547,1038.6421,413.0547" style="stroke:#181818;stroke-width:1;"/><line style="stroke:#181818;stroke-width:1;stroke-dasharray:2,2;" x1="1036.6421" x2="1606.9028" y1="413.0547" y2="413.0547"/><text fill="#000000" font-family="sans-serif" font-size="13" lengthAdjust="spacing" textLength="147.1323" x="1048.6421" y="407.9888">Optional&lt;Asignatura&gt;</text></g><path d="M10,428.0547 L74.4429,428.0547 L74.4429,435.1875 L64.4429,445.1875 L10,445.1875 L10,428.0547" fill="#EEEEEE" style="stroke:#000000;stroke-width:1.5;"/><rect fill="none" height="755.9922" style="stroke:#000000;stroke-width:1.5;" width="2259.4824" x="10" y="428.0547"/><text fill="#000000" font-family="sans-serif" font-size="13" font-weight="bold" lengthAdjust="spacing" textLength="19.4429" x="25" y="441.1216">alt</text><text fill="#000000" font-family="sans-serif" font-size="11" font-weight="bold" lengthAdjust="spacing" textLength="267.2656" x="89.4429" y="440.2651">[Asignatura Existe y Pertenece al Docente]</text><g class="message" data-entity-1="part4" data-entity-2="part4" id="msg10"><line style="stroke:#181818;stroke-width:1;" x1="1031.6421" x2="1073.6421" y1="466.3203" y2="466.3203"/><line style="stroke:#181818;stroke-width:1;" x1="1073.6421" x2="1073.6421" y1="466.3203" y2="479.3203"/><line style="stroke:#181818;stroke-width:1;" x1="1032.6421" x2="1073.6421" y1="479.3203" y2="479.3203"/><polygon fill="#181818" points="1042.6421,475.3203,1032.6421,479.3203,1042.6421,483.3203,1038.6421,479.3203" style="stroke:#181818;stroke-width:1;"/><text fill="#000000" font-family="sans-serif" font-size="13" lengthAdjust="spacing" textLength="207.7969" x="1038.6421" y="461.2544">asignatura.getAlumnos().clear()</text></g><g class="message" data-entity-1="part4" data-entity-2="part4" id="msg11"><line style="stroke:#181818;stroke-width:1;" x1="1031.6421" x2="1073.6421" y1="508.4531" y2="508.4531"/><line style="stroke:#181818;stroke-width:1;" x1="1073.6421" x2="1073.6421" y1="508.4531" y2="521.4531"/><line style="stroke:#181818;stroke-width:1;" x1="1032.6421" x2="1073.6421" y1="521.4531" y2="521.4531"/><polygon fill="#181818" points="1042.6421,517.4531,1032.6421,521.4531,1042.6421,525.4531,1038.6421,521.4531" style="stroke:#181818;stroke-width:1;"/><text fill="#000000" font-family="sans-serif" font-size="13" lengthAdjust="spacing" textLength="197.7866" x="1038.6421" y="503.3872">asignatura.getGrados().clear()</text></g><g class="message" data-entity-1="part4" data-entity-2="part5" id="msg12"><polygon fill="#181818" points="1340.6445,546.5859,1350.6445,550.5859,1340.6445,554.5859,1344.6445,550.5859" style="stroke:#181818;stroke-width:1;"/><line style="stroke:#181818;stroke-width:1;" x1="1031.6421" x2="1346.6445" y1="550.5859" y2="550.5859"/><text fill="#000000" font-family="sans-serif" font-size="13" lengthAdjust="spacing" textLength="302.0024" x="1038.6421" y="545.52">eliminarPreguntasPorAsignatura(asignaturaId)</text></g><g class="message" data-entity-1="part5" data-entity-2="part7" id="msg13"><polygon fill="#181818" points="1759.6299,575.7188,1769.6299,579.7188,1759.6299,583.7188,1763.6299,579.7188" style="stroke:#181818;stroke-width:1;"/><line style="stroke:#181818;stroke-width:1;" x1="1362.6445" x2="1765.6299" y1="579.7188" y2="579.7188"/><text fill="#000000" font-family="sans-serif" font-size="13" lengthAdjust="spacing" textLength="215.4458" x="1369.6445" y="574.6528">findByAsignaturaId(asignaturaId)</text></g><g class="message" data-entity-1="part7" data-entity-2="part8" id="msg14"><polygon fill="#181818" points="2135.8193,604.8516,2145.8193,608.8516,2135.8193,612.8516,2139.8193,608.8516" style="stroke:#181818;stroke-width:1;"/><line style="stroke:#181818;stroke-width:1;" x1="1781.6299" x2="2141.8193" y1="608.8516" y2="608.8516"/><text fill="#000000" font-family="sans-serif" font-size="13" lengthAdjust="spacing" textLength="342.1895" x="1788.6299" y="603.7856">SELECT * FROM preguntas WHERE asignatura_id = ?</text></g><g class="message" data-entity-1="part7" data-entity-2="part5" id="msg15"><polygon fill="#181818" points="1373.6445,633.9844,1363.6445,637.9844,1373.6445,641.9844,1369.6445,637.9844" style="stroke:#181818;stroke-width:1;"/><line style="stroke:#181818;stroke-width:1;stroke-dasharray:2,2;" x1="1367.6445" x2="1775.6299" y1="637.9844" y2="637.9844"/><text fill="#000000" font-family="sans-serif" font-size="13" lengthAdjust="spacing" textLength="103.4858" x="1379.6445" y="632.9185">List&lt;Pregunta&gt;</text></g><path d="M1283.0176,652.9844 L1359.6416,652.9844 L1359.6416,660.1172 L1349.6416,670.1172 L1283.0176,670.1172 L1283.0176,652.9844" fill="#EEEEEE" style="stroke:#000000;stroke-width:1.5;"/><rect fill="none" height="146.6641" style="stroke:#000000;stroke-width:1.5;" width="976.4648" x="1283.0176" y="652.9844"/><text fill="#000000" font-family="sans-serif" font-size="13" font-weight="bold" lengthAdjust="spacing" textLength="31.624" x="1298.0176" y="666.0513">loop</text><text fill="#000000" font-family="sans-serif" font-size="11" font-weight="bold" lengthAdjust="spacing" textLength="132.2632" x="1374.6416" y="665.1948">[Para cada pregunta]</text><g class="message" data-entity-1="part5" data-entity-2="part5" id="msg16"><line style="stroke:#181818;stroke-width:1;" x1="1362.6445" x2="1404.6445" y1="691.25" y2="691.25"/><line style="stroke:#181818;stroke-width:1;" x1="1404.6445" x2="1404.6445" y1="691.25" y2="704.25"/><line style="stroke:#181818;stroke-width:1;" x1="1363.6445" x2="1404.6445" y1="704.25" y2="704.25"/><polygon fill="#181818" points="1373.6445,700.25,1363.6445,704.25,1373.6445,708.25,1369.6445,704.25" style="stroke:#181818;stroke-width:1;"/><text fill="#000000" font-family="sans-serif" font-size="13" lengthAdjust="spacing" textLength="216.2583" x="1369.6445" y="686.1841">pregunta.getRespuestas().clear()</text></g><g class="message" data-entity-1="part5" data-entity-2="part7" id="msg17"><polygon fill="#181818" points="1759.6299,729.3828,1769.6299,733.3828,1759.6299,737.3828,1763.6299,733.3828" style="stroke:#181818;stroke-width:1;"/><line style="stroke:#181818;stroke-width:1;" x1="1362.6445" x2="1765.6299" y1="733.3828" y2="733.3828"/><text fill="#000000" font-family="sans-serif" font-size="13" lengthAdjust="spacing" textLength="110.4873" x="1369.6445" y="728.3169">delete(pregunta)</text></g><g class="message" data-entity-1="part7" data-entity-2="part8" id="msg18"><polygon fill="#181818" points="2135.8193,758.5156,2145.8193,762.5156,2135.8193,766.5156,2139.8193,762.5156" style="stroke:#181818;stroke-width:1;"/><line style="stroke:#181818;stroke-width:1;" x1="1781.6299" x2="2141.8193" y1="762.5156" y2="762.5156"/><text fill="#000000" font-family="sans-serif" font-size="13" lengthAdjust="spacing" textLength="256.4961" x="1788.6299" y="757.4497">DELETE FROM preguntas WHERE id = ?</text></g><g class="message" data-entity-1="part7" data-entity-2="part5" id="msg19"><polygon fill="#181818" points="1373.6445,787.6484,1363.6445,791.6484,1373.6445,795.6484,1369.6445,791.6484" style="stroke:#181818;stroke-width:1;"/><line style="stroke:#181818;stroke-width:1;stroke-dasharray:2,2;" x1="1367.6445" x2="1775.6299" y1="791.6484" y2="791.6484"/><text fill="#000000" font-family="sans-serif" font-size="13" lengthAdjust="spacing" textLength="27.5107" x="1379.6445" y="786.5825">void</text></g><g class="message" data-entity-1="part5" data-entity-2="part4" id="msg20"><polygon fill="#181818" points="1042.6421,823.7813,1032.6421,827.7813,1042.6421,831.7813,1038.6421,827.7813" style="stroke:#181818;stroke-width:1;"/><line style="stroke:#181818;stroke-width:1;stroke-dasharray:2,2;" x1="1036.6421" x2="1356.6445" y1="827.7813" y2="827.7813"/><text fill="#000000" font-family="sans-serif" font-size="13" lengthAdjust="spacing" textLength="27.5107" x="1048.6421" y="822.7153">void</text></g><g class="message" data-entity-1="part4" data-entity-2="part6" id="msg21"><polygon fill="#181818" points="1590.9028,852.9141,1600.9028,856.9141,1590.9028,860.9141,1594.9028,856.9141" style="stroke:#181818;stroke-width:1;"/><line style="stroke:#181818;stroke-width:1;" x1="1031.6421" x2="1596.9028" y1="856.9141" y2="856.9141"/><text fill="#000000" font-family="sans-serif" font-size="13" lengthAdjust="spacing" textLength="120.5547" x="1038.6421" y="851.8481">delete(asignatura)</text></g><g class="message" data-entity-1="part6" data-entity-2="part8" id="msg22"><polygon fill="#181818" points="2130.8193,882.0469,2140.8193,886.0469,2130.8193,890.0469,2134.8193,886.0469" style="stroke:#181818;stroke-width:1;"/><line style="stroke:#181818;stroke-width:1;" x1="1612.9028" x2="2136.8193" y1="886.0469" y2="886.0469"/><text fill="#000000" font-family="sans-serif" font-size="13" lengthAdjust="spacing" textLength="266.5635" x="1619.9028" y="880.981">DELETE FROM asignaturas WHERE id = ?</text></g><g class="message" data-entity-1="part8" data-entity-2="part6" id="msg23"><polygon fill="#181818" points="1623.9028,911.1797,1613.9028,915.1797,1623.9028,919.1797,1619.9028,915.1797" style="stroke:#181818;stroke-width:1;"/><line style="stroke:#181818;stroke-width:1;stroke-dasharray:2,2;" x1="1617.9028" x2="2146.8193" y1="915.1797" y2="915.1797"/><text fill="#000000" font-family="sans-serif" font-size="13" lengthAdjust="spacing" textLength="18.7573" x="1629.9028" y="910.1138">OK</text></g><g class="message" data-entity-1="part6" data-entity-2="part4" id="msg24"><polygon fill="#181818" points="1042.6421,940.3125,1032.6421,944.3125,1042.6421,948.3125,1038.6421,944.3125" style="stroke:#181818;stroke-width:1;"/><line style="stroke:#181818;stroke-width:1;stroke-dasharray:2,2;" x1="1036.6421" x2="1606.9028" y1="944.3125" y2="944.3125"/><text fill="#000000" font-family="sans-serif" font-size="13" lengthAdjust="spacing" textLength="27.5107" x="1048.6421" y="939.2466">void</text></g><g class="message" data-entity-1="part4" data-entity-2="part3" id="msg25"><polygon fill="#181818" points="725.4902,969.4453,715.4902,973.4453,725.4902,977.4453,721.4902,973.4453" style="stroke:#181818;stroke-width:1;"/><line style="stroke:#181818;stroke-width:1;stroke-dasharray:2,2;" x1="719.4902" x2="1025.6421" y1="973.4453" y2="973.4453"/><text fill="#000000" font-family="sans-serif" font-size="13" lengthAdjust="spacing" textLength="27.5107" x="731.4902" y="968.3794">void</text></g><g class="message" data-entity-1="part3" data-entity-2="part2" id="msg26"><polygon fill="#181818" points="428.6128,998.5781,418.6128,1002.5781,428.6128,1006.5781,424.6128,1002.5781" style="stroke:#181818;stroke-width:1;"/><line style="stroke:#181818;stroke-width:1;stroke-dasharray:2,2;" x1="422.6128" x2="708.4902" y1="1002.5781" y2="1002.5781"/><text fill="#000000" font-family="sans-serif" font-size="13" lengthAdjust="spacing" textLength="102.4575" x="434.6128" y="997.5122">204 No Content</text></g><g class="message" data-entity-1="part2" data-entity-2="part2" id="msg27"><line style="stroke:#181818;stroke-width:1;" x1="417.6128" x2="459.6128" y1="1031.7109" y2="1031.7109"/><line style="stroke:#181818;stroke-width:1;" x1="459.6128" x2="459.6128" y1="1031.7109" y2="1044.7109"/><line style="stroke:#181818;stroke-width:1;" x1="418.6128" x2="459.6128" y1="1044.7109" y2="1044.7109"/><polygon fill="#181818" points="428.6128,1040.7109,418.6128,1044.7109,428.6128,1048.7109,424.6128,1044.7109" style="stroke:#181818;stroke-width:1;"/><text fill="#000000" font-family="sans-serif" font-size="13" lengthAdjust="spacing" textLength="239.2939" x="424.6128" y="1026.645">Remover de la lista (actualizar vista)</text></g><g class="message" data-entity-1="part2" data-entity-2="part1" id="msg28"><polygon fill="#181818" points="63.3159,1069.8438,53.3159,1073.8438,63.3159,1077.8438,59.3159,1073.8438" style="stroke:#181818;stroke-width:1;"/><line style="stroke:#181818;stroke-width:1;stroke-dasharray:2,2;" x1="57.3159" x2="406.6128" y1="1073.8438" y2="1073.8438"/><text fill="#000000" font-family="sans-serif" font-size="13" lengthAdjust="spacing" textLength="331.2969" x="69.3159" y="1068.7778">Notificaci&#243;n "Asignatura eliminada correctamente"</text></g><line style="stroke:#000000;stroke-width:1;stroke-dasharray:2,2;" x1="10" x2="2269.4824" y1="1082.8438" y2="1082.8438"/><text fill="#000000" font-family="sans-serif" font-size="11" font-weight="bold" lengthAdjust="spacing" textLength="309.9282" x="15" y="1093.0542">[Asignatura No Existe o No Pertenece Al Docente]</text><g class="message" data-entity-1="part4" data-entity-2="part3" id="msg29"><polygon fill="#181818" points="720.4902,1113.7813,710.4902,1117.7813,720.4902,1121.7813,716.4902,1117.7813" style="stroke:#181818;stroke-width:1;"/><line style="stroke:#181818;stroke-width:1;stroke-dasharray:2,2;" x1="714.4902" x2="1025.6421" y1="1117.7813" y2="1117.7813"/><text fill="#000000" font-family="sans-serif" font-size="13" lengthAdjust="spacing" textLength="206.4956" x="726.4902" y="1112.7153">throw EntityNotFoundException</text></g><g class="message" data-entity-1="part3" data-entity-2="part2" id="msg30"><polygon fill="#181818" points="428.6128,1142.9141,418.6128,1146.9141,428.6128,1150.9141,424.6128,1146.9141" style="stroke:#181818;stroke-width:1;"/><line style="stroke:#181818;stroke-width:1;stroke-dasharray:2,2;" x1="422.6128" x2="708.4902" y1="1146.9141" y2="1146.9141"/><text fill="#000000" font-family="sans-serif" font-size="13" lengthAdjust="spacing" textLength="96.0146" x="434.6128" y="1141.8481">404 Not Found</text></g><g class="message" data-entity-1="part2" data-entity-2="part1" id="msg31"><polygon fill="#181818" points="63.3159,1172.0469,53.3159,1176.0469,63.3159,1180.0469,59.3159,1176.0469" style="stroke:#181818;stroke-width:1;"/><line style="stroke:#181818;stroke-width:1;stroke-dasharray:2,2;" x1="57.3159" x2="406.6128" y1="1176.0469" y2="1176.0469"/><text fill="#000000" font-family="sans-serif" font-size="13" lengthAdjust="spacing" textLength="271.1655" x="69.3159" y="1170.981">Mostrar Error "Asignatura no encontrada"</text></g><?plantuml-src bLRRSjCm47ttL-paoG7QCaoVCYLCqZYqGoyXwGmlp332sgOQ7CaZAu72y5Ly0Z_6Ihx9Zjs6F3YsjEVixbbf9IDCWZ0JRAtPXW57M66yHHaB1aSG9M8Z9DCmoSHQChFL3C9LgeLSmrGf0ozXYImsmo2Wfz8mcAaOfS41i0pkQEe1TP0oRKGiKYOD3EPQqRpa4EP8PpcFcaQrk-oSpBLA4jJEilxiGwnGxqISHr2yDqqN6jTRQHg6hR4-xYMcAXEKwAD3sSzkxfQXFnnmPjXNbY4CflP9ai-OKHc42vMPjSRLnwjSbTaq20eDuMXC8etWF14ne8H1MPa1XAmAxv8FRHt4ZXcqciuZE29WmJ62QtAWgPhNYhF4EYOrxuNUi5Zy_IC_ov2xG6WYOL3J3lUYA620UHGExhoDlGADO1PTHNSHdB1KdDHqsSalF-JVvFS26RU0oTOyA2r-CYEK7C4KcIQlPqPzGpdsSlDMGVrglHVr6vMHwRfs3PrU0SyNQaEoilh5loMq5Hl1lP1y-dZ9-xHsTRKF2vbDHx2YpC_lu0NCbxVNdfGPVBg8bX483c_XNKr0fPvDNR5oXxUfLO0bPtNyuu2ZRv-xytD-3kIYP8dnTtFqGsGqzGWBrBGjaRAcfL7iuW3evubHUQeJEbwZcIJRZLHPE3oE4wfOE3mGzrup_XIijIdhefOJsKBr5JWdgr9lxsyxsHhpFVfLdtYiXxXmAlly_UiYBVCeLaND_gLO8FiyNRfSKGtFoj6n0tbbtmiiKIg51QFgnuopAWetzummbSiIPEkun2pTOaPvj6fvaCeS4pGObeGriZ-1FdMBVjEfhIVeOQBkbE2L-LDoqc7MlPxybL-nTJ3vYtAlzHJo-Dsu8KuLHfyGlSsdGKCDnNutcz27TiI5rNxhwKglYimNn3yUka2-5dvhBqwUDwzFuKQv6MfGRR1tBDYP_42oi2Lkr8veyfCjeUr2znY2RLb2Xus6dHqPLY3_pBnHHjoBE3_Z_Bj0sOre1yLAQumDsxYhJu097UkU8GLSj5bbt-jEE-dfj2sTp8DMto6IHfX72cUkjf97Fs9qxVu_1Jnr0Xfm90VertLzYBIsLpqlGwbe5yGMJNAG04JjqSwZVm00?></g></svg>