<?plantuml 1.2026.2?><svg xmlns="http://www.w3.org/2000/svg" xmlns:xlink="http://www.w3.org/1999/xlink" contentStyleType="text/css" data-diagram-type="SEQUENCE" height="975px" preserveAspectRatio="none" style="width:1692px;height:975px;background:#FFFFFF;" version="1.1" viewBox="0 0 1692 975" width="1692px" zoomAndPan="magnify"><title>Diagrama de Secuencia - Eliminar Asignatura (Spring Boot + React)</title><defs/><g><text fill="#000000" font-family="sans-serif" font-size="14" font-weight="bold" lengthAdjust="spacing" textLength="534.2354" x="580.0837" y="27.9951">Diagrama de Secuencia - Eliminar Asignatura (Spring Boot + React)</text><g><title>Frontend .React.</title><rect fill="#FFFFFF" height="734.9922" style="stroke:#181818;stroke-width:1;" width="10" x="407.6128" y="149.7266"/></g><g><title>AsignaturasController</title><rect fill="#FFFFFF" height="428.8594" style="stroke:#181818;stroke-width:1;" width="10" x="704.4902" y="267.3906"/></g><g><title>AsignaturaService</title><rect fill="#FFFFFF" height="370.5938" style="stroke:#181818;stroke-width:1;" width="10" x="1021.6421" y="296.5234"/></g><g><title>AsignaturaRepository</title><rect fill="#FFFFFF" height="87.3984" style="stroke:#181818;stroke-width:1;" width="10" x="1263.439" y="325.6563"/></g><g><title>AsignaturaRepository</title><rect fill="#FFFFFF" height="87.3984" style="stroke:#181818;stroke-width:1;" width="10" x="1263.439" y="550.5859"/></g><g><title>Base de Datos .PostgreSQL.</title><rect fill="#FFFFFF" height="29.1328" style="stroke:#181818;stroke-width:1;" width="10" x="1568.7397" y="354.7891"/></g><g><title>Base de Datos .PostgreSQL.</title><rect fill="#FFFFFF" height="29.1328" style="stroke:#181818;stroke-width:1;" width="10" x="1568.7397" y="579.7188"/></g><rect fill="none" height="449.6641" style="stroke:#000000;stroke-width:1.5;" width="1675.4028" x="10" y="428.0547"/><g class="participant-lifeline" data-entity-uid="part1" data-qualified-name="Teacher" id="part1-lifeline"><g><title>Docente</title><rect fill="#000000" fill-opacity="0.00000" height="776.125" width="8" x="48.3159" y="118.5938"/><line style="stroke:#181818;stroke-width:0.5;stroke-dasharray:5,5;" x1="52" x2="52" y1="118.5938" y2="894.7188"/></g></g><g class="participant-lifeline" data-entity-uid="part2" data-qualified-name="FE" id="part2-lifeline"><g><title>Frontend .React.</title><rect fill="#000000" fill-opacity="0.00000" height="776.125" width="8" x="408.6128" y="118.5938"/><line style="stroke:#181818;stroke-width:0.5;stroke-dasharray:5,5;" x1="412.3179" x2="412.3179" y1="118.5938" y2="894.7188"/></g></g><g class="participant-lifeline" data-entity-uid="part3" data-qualified-name="Controller" id="part3-lifeline"><g><title>AsignaturasController</title><rect fill="#000000" fill-opacity="0.00000" height="776.125" width="8" x="705.4902" y="118.5938"/><line style="stroke:#181818;stroke-width:0.5;stroke-dasharray:5,5;" x1="709.3584" x2="709.3584" y1="118.5938" y2="894.7188"/></g></g><g class="participant-lifeline" data-entity-uid="part4" data-qualified-name="Service" id="part4-lifeline"><g><title>AsignaturaService</title><rect fill="#000000" fill-opacity="0.00000" height="776.125" width="8" x="1022.6421" y="118.5938"/><line style="stroke:#181818;stroke-width:0.5;stroke-dasharray:5,5;" x1="1025.873" x2="1025.873" y1="118.5938" y2="894.7188"/></g></g><g class="participant-lifeline" data-entity-uid="part5" data-qualified-name="Repo" id="part5-lifeline"><g><title>AsignaturaRepository</title><rect fill="#000000" fill-opacity="0.00000" height="776.125" width="8" x="1264.439" y="118.5938"/><line style="stroke:#181818;stroke-width:0.5;stroke-dasharray:5,5;" x1="1268.0044" x2="1268.0044" y1="118.5938" y2="894.7188"/></g></g><g class="participant-lifeline" data-entity-uid="part6" data-qualified-name="DB" id="part6-lifeline"><g><title>Base de Datos .PostgreSQL.</title><rect fill="#000000" fill-opacity="0.00000" height="776.125" width="8" x="1569.7397" y="118.5938"/><line style="stroke:#181818;stroke-width:0.5;stroke-dasharray:5,5;" x1="1573.0767" x2="1573.0767" y1="118.5938" y2="894.7188"/></g></g><g class="participant participant-head" data-entity-uid="part1" data-qualified-name="Teacher" id="part1-head"><text fill="#000000" font-family="sans-serif" font-size="14" lengthAdjust="spacing" textLength="58.6318" x="20" y="115.292">Docente</text><ellipse cx="52.3159" cy="50.7969" fill="#E2E2F0" rx="8" ry="8" style="stroke:#181818;stroke-width:0.5;"/><path d="M52.3159,58.7969 L52.3159,85.7969 M39.3159,66.7969 L65.3159,66.7969 M52.3159,85.7969 L39.3159,100.7969 M52.3159,85.7969 L65.3159,100.7969" fill="none" style="stroke:#181818;stroke-width:0.5;"/></g><g class="participant participant-tail" data-entity-uid="part1" data-qualified-name="Teacher" id="part1-tail"><text fill="#000000" font-family="sans-serif" font-size="14" lengthAdjust="spacing" textLength="58.6318" x="20" y="906.7139">Docente</text><ellipse cx="52.3159" cy="918.5156" fill="#E2E2F0" rx="8" ry="8" style="stroke:#181818;stroke-width:0.5;"/><path d="M52.3159,926.5156 L52.3159,953.5156 M39.3159,934.5156 L65.3159,934.5156 M52.3159,953.5156 L39.3159,968.5156 M52.3159,953.5156 L65.3159,968.5156" fill="none" style="stroke:#181818;stroke-width:0.5;"/></g><g class="participant participant-head" data-entity-uid="part2" data-qualified-name="FE" id="part2-head"><rect fill="#E2E2F0" height="30.2969" rx="2.5" ry="2.5" style="stroke:#181818;stroke-width:0.5;" width="132.5898" x="346.3179" y="87.2969"/><text fill="#000000" font-family="sans-serif" font-size="14" lengthAdjust="spacing" textLength="118.5898" x="353.3179" y="107.292">Frontend (React)</text></g><g class="participant participant-tail" data-entity-uid="part2" data-qualified-name="FE" id="part2-tail"><rect fill="#E2E2F0" height="30.2969" rx="2.5" ry="2.5" style="stroke:#181818;stroke-width:0.5;" width="132.5898" x="346.3179" y="893.7188"/><text fill="#000000" font-family="sans-serif" font-size="14" lengthAdjust="spacing" textLength="118.5898" x="353.3179" y="913.7139">Frontend (React)</text></g><g class="participant participant-head" data-entity-uid="part3" data-qualified-name="Controller" id="part3-head"><rect fill="#E2E2F0" height="30.2969" rx="2.5" ry="2.5" style="stroke:#181818;stroke-width:0.5;" width="166.2637" x="626.3584" y="87.2969"/><text fill="#000000" font-family="sans-serif" font-size="14" lengthAdjust="spacing" textLength="152.2637" x="633.3584" y="107.292">AsignaturasController</text></g><g class="participant participant-tail" data-entity-uid="part3" data-qualified-name="Controller" id="part3-tail"><rect fill="#E2E2F0" height="30.2969" rx="2.5" ry="2.5" style="stroke:#181818;stroke-width:0.5;" width="166.2637" x="626.3584" y="893.7188"/><text fill="#000000" font-family="sans-serif" font-size="14" lengthAdjust="spacing" textLength="152.2637" x="633.3584" y="913.7139">AsignaturasController</text></g><g class="participant participant-head" data-entity-uid="part4" data-qualified-name="Service" id="part4-head"><rect fill="#E2E2F0" height="30.2969" rx="2.5" ry="2.5" style="stroke:#181818;stroke-width:0.5;" width="141.5381" x="955.873" y="87.2969"/><text fill="#000000" font-family="sans-serif" font-size="14" lengthAdjust="spacing" textLength="127.5381" x="962.873" y="107.292">AsignaturaService</text></g><g class="participant participant-tail" data-entity-uid="part4" data-qualified-name="Service" id="part4-tail"><rect fill="#E2E2F0" height="30.2969" rx="2.5" ry="2.5" style="stroke:#181818;stroke-width:0.5;" width="141.5381" x="955.873" y="893.7188"/><text fill="#000000" font-family="sans-serif" font-size="14" lengthAdjust="spacing" textLength="127.5381" x="962.873" y="913.7139">AsignaturaService</text></g><g class="participant participant-head" data-entity-uid="part5" data-qualified-name="Repo" id="part5-head"><rect fill="#E2E2F0" height="30.2969" rx="2.5" ry="2.5" style="stroke:#181818;stroke-width:0.5;" width="164.8691" x="1186.0044" y="87.2969"/><text fill="#000000" font-family="sans-serif" font-size="14" lengthAdjust="spacing" textLength="150.8691" x="1193.0044" y="107.292">AsignaturaRepository</text></g><g class="participant participant-tail" data-entity-uid="part5" data-qualified-name="Repo" id="part5-tail"><rect fill="#E2E2F0" height="30.2969" rx="2.5" ry="2.5" style="stroke:#181818;stroke-width:0.5;" width="164.8691" x="1186.0044" y="893.7188"/><text fill="#000000" font-family="sans-serif" font-size="14" lengthAdjust="spacing" textLength="150.8691" x="1193.0044" y="913.7139">AsignaturaRepository</text></g><g class="participant participant-head" data-entity-uid="part6" data-qualified-name="DB" id="part6-head"><text fill="#000000" font-family="sans-serif" font-size="14" lengthAdjust="spacing" textLength="197.3262" x="1472.0767" y="115.292">Base de Datos (PostgreSQL)</text><path d="M1555.7397,66.2969 C1555.7397,56.2969 1573.7397,56.2969 1573.7397,56.2969 C1573.7397,56.2969 1591.7397,56.2969 1591.7397,66.2969 L1591.7397,92.2969 C1591.7397,102.2969 1573.7397,102.2969 1573.7397,102.2969 C1573.7397,102.2969 1555.7397,102.2969 1555.7397,92.2969 L1555.7397,66.2969" fill="#E2E2F0" style="stroke:#181818;stroke-width:0.5;"/><path d="M1555.7397,66.2969 C1555.7397,76.2969 1573.7397,76.2969 1573.7397,76.2969 C1573.7397,76.2969 1591.7397,76.2969 1591.7397,66.2969" fill="none" style="stroke:#181818;stroke-width:0.5;"/></g><g class="participant participant-tail" data-entity-uid="part6" data-qualified-name="DB" id="part6-tail"><text fill="#000000" font-family="sans-serif" font-size="14" lengthAdjust="spacing" textLength="197.3262" x="1472.0767" y="906.7139">Base de Datos (PostgreSQL)</text><path d="M1555.7397,920.0156 C1555.7397,910.0156 1573.7397,910.0156 1573.7397,910.0156 C1573.7397,910.0156 1591.7397,910.0156 1591.7397,920.0156 L1591.7397,946.0156 C1591.7397,956.0156 1573.7397,956.0156 1573.7397,956.0156 C1573.7397,956.0156 1555.7397,956.0156 1555.7397,946.0156 L1555.7397,920.0156" fill="#E2E2F0" style="stroke:#181818;stroke-width:0.5;"/><path d="M1555.7397,920.0156 C1555.7397,930.0156 1573.7397,930.0156 1573.7397,930.0156 C1573.7397,930.0156 1591.7397,930.0156 1591.7397,920.0156" fill="none" style="stroke:#181818;stroke-width:0.5;"/></g><g><title>Frontend .React.</title><rect fill="#FFFFFF" height="734.9922" style="stroke:#181818;stroke-width:1;" width="10" x="407.6128" y="149.7266"/></g><g><title>AsignaturasController</title><rect fill="#FFFFFF" height="428.8594" style="stroke:#181818;stroke-width:1;" width="10" x="704.4902" y="267.3906"/></g><g><title>AsignaturaService</title><rect fill="#FFFFFF" height="370.5938" style="stroke:#181818;stroke-width:1;" width="10" x="1021.6421" y="296.5234"/></g><g><title>AsignaturaRepository</title><rect fill="#FFFFFF" height="87.3984" style="stroke:#181818;stroke-width:1;" width="10" x="1263.439" y="325.6563"/></g><g><title>AsignaturaRepository</title><rect fill="#FFFFFF" height="87.3984" style="stroke:#181818;stroke-width:1;" width="10" x="1263.439" y="550.5859"/></g><g><title>Base de Datos .PostgreSQL.</title><rect fill="#FFFFFF" height="29.1328" style="stroke:#181818;stroke-width:1;" width="10" x="1568.7397" y="354.7891"/></g><g><title>Base de Datos .PostgreSQL.</title><rect fill="#FFFFFF" height="29.1328" style="stroke:#181818;stroke-width:1;" width="10" x="1568.7397" y="579.7188"/></g><g class="message" data-entity-1="part1" data-entity-2="part2" id="msg1"><polygon fill="#181818" points="395.6128,145.7266,405.6128,149.7266,395.6128,153.7266,399.6128,149.7266" style="stroke:#181818;stroke-width:1;"/><line style="stroke:#181818;stroke-width:1;" x1="52.3159" x2="401.6128" y1="149.7266" y2="149.7266"/><text fill="#000000" font-family="sans-serif" font-size="13" lengthAdjust="spacing" textLength="208.9902" x="59.3159" y="144.6606">Clic en "Eliminar" (asignaturaId)</text></g><g class="message" data-entity-1="part2" data-entity-2="part1" id="msg2"><polygon fill="#181818" points="63.3159,189.9922,53.3159,193.9922,63.3159,197.9922,59.3159,193.9922" style="stroke:#181818;stroke-width:1;"/><line style="stroke:#181818;stroke-width:1;stroke-dasharray:2,2;" x1="57.3159" x2="406.6128" y1="193.9922" y2="193.9922"/><text fill="#000000" font-family="sans-serif" font-size="13" lengthAdjust="spacing" textLength="203.728" x="69.3159" y="173.7935">Mostrar Modal de Confirmaci&#243;n</text><text fill="#000000" font-family="sans-serif" font-size="13" lengthAdjust="spacing" textLength="155.8667" x="69.3159" y="188.9263">(datos de la asignatura)</text></g><g class="message" data-entity-1="part1" data-entity-2="part2" id="msg3"><polygon fill="#181818" points="395.6128,219.125,405.6128,223.125,395.6128,227.125,399.6128,223.125" style="stroke:#181818;stroke-width:1;"/><line style="stroke:#181818;stroke-width:1;" x1="52.3159" x2="401.6128" y1="223.125" y2="223.125"/><text fill="#000000" font-family="sans-serif" font-size="13" lengthAdjust="spacing" textLength="138.2202" x="59.3159" y="218.0591">Confirma eliminaci&#243;n</text></g><g class="message" data-entity-1="part2" data-entity-2="part3" id="msg4"><polygon fill="#181818" points="692.4902,263.3906,702.4902,267.3906,692.4902,271.3906,696.4902,267.3906" style="stroke:#181818;stroke-width:1;"/><line style="stroke:#181818;stroke-width:1;" x1="417.6128" x2="698.4902" y1="267.3906" y2="267.3906"/><text fill="#000000" font-family="sans-serif" font-size="13" lengthAdjust="spacing" textLength="261.2505" x="424.6128" y="247.1919">DELETE /api/asignaturas/{asignaturaId}</text><text fill="#000000" font-family="sans-serif" font-size="13" lengthAdjust="spacing" textLength="267.8774" x="424.6128" y="262.3247">(Header: Authorization: Bearer &lt;token&gt;)</text></g><g class="message" data-entity-1="part3" data-entity-2="part4" id="msg5"><polygon fill="#181818" points="1009.6421,292.5234,1019.6421,296.5234,1009.6421,300.5234,1013.6421,296.5234" style="stroke:#181818;stroke-width:1;"/><line style="stroke:#181818;stroke-width:1;" x1="714.4902" x2="1015.6421" y1="296.5234" y2="296.5234"/><text fill="#000000" font-family="sans-serif" font-size="13" lengthAdjust="spacing" textLength="288.1519" x="721.4902" y="291.4575">eliminarAsignatura(asignaturaId, docenteId)</text></g><g class="message" data-entity-1="part4" data-entity-2="part5" id="msg6"><polygon fill="#181818" points="1251.439,321.6563,1261.439,325.6563,1251.439,329.6563,1255.439,325.6563" style="stroke:#181818;stroke-width:1;"/><line style="stroke:#181818;stroke-width:1;" x1="1031.6421" x2="1257.439" y1="325.6563" y2="325.6563"/><text fill="#000000" font-family="sans-serif" font-size="13" lengthAdjust="spacing" textLength="145.063" x="1038.6421" y="320.5903">findById(asignaturaId)</text></g><g class="message" data-entity-1="part5" data-entity-2="part6" id="msg7"><polygon fill="#181818" points="1556.7397,350.7891,1566.7397,354.7891,1556.7397,358.7891,1560.7397,354.7891" style="stroke:#181818;stroke-width:1;"/><line style="stroke:#181818;stroke-width:1;" x1="1273.439" x2="1562.7397" y1="354.7891" y2="354.7891"/><text fill="#000000" font-family="sans-serif" font-size="13" lengthAdjust="spacing" textLength="276.3008" x="1280.439" y="349.7231">SELECT * FROM asignaturas WHERE id = ?</text></g><g class="message" data-entity-1="part6" data-entity-2="part5" id="msg8"><polygon fill="#181818" points="1284.439,379.9219,1274.439,383.9219,1284.439,387.9219,1280.439,383.9219" style="stroke:#181818;stroke-width:1;"/><line style="stroke:#181818;stroke-width:1;stroke-dasharray:2,2;" x1="1278.439" x2="1572.7397" y1="383.9219" y2="383.9219"/><text fill="#000000" font-family="sans-serif" font-size="13" lengthAdjust="spacing" textLength="147.1323" x="1290.439" y="378.856">Optional&lt;Asignatura&gt;</text></g><g class="message" data-entity-1="part5" data-entity-2="part4" id="msg9"><polygon fill="#181818" points="1042.6421,409.0547,1032.6421,413.0547,1042.6421,417.0547,1038.6421,413.0547" style="stroke:#181818;stroke-width:1;"/><line style="stroke:#181818;stroke-width:1;stroke-dasharray:2,2;" x1="1036.6421" x2="1267.439" y1="413.0547" y2="413.0547"/><text fill="#000000" font-family="sans-serif" font-size="13" lengthAdjust="spacing" textLength="147.1323" x="1048.6421" y="407.9888">Optional&lt;Asignatura&gt;</text></g><path d="M10,428.0547 L74.4429,428.0547 L74.4429,435.1875 L64.4429,445.1875 L10,445.1875 L10,428.0547" fill="#EEEEEE" style="stroke:#000000;stroke-width:1.5;"/><rect fill="none" height="449.6641" style="stroke:#000000;stroke-width:1.5;" width="1675.4028" x="10" y="428.0547"/><text fill="#000000" font-family="sans-serif" font-size="13" font-weight="bold" lengthAdjust="spacing" textLength="19.4429" x="25" y="441.1216">alt</text><text fill="#000000" font-family="sans-serif" font-size="11" font-weight="bold" lengthAdjust="spacing" textLength="267.2656" x="89.4429" y="440.2651">[Asignatura Existe y Pertenece al Docente]</text><g class="message" data-entity-1="part4" data-entity-2="part4" id="msg10"><line style="stroke:#181818;stroke-width:1;" x1="1031.6421" x2="1073.6421" y1="466.3203" y2="466.3203"/><line style="stroke:#181818;stroke-width:1;" x1="1073.6421" x2="1073.6421" y1="466.3203" y2="479.3203"/><line style="stroke:#181818;stroke-width:1;" x1="1032.6421" x2="1073.6421" y1="479.3203" y2="479.3203"/><polygon fill="#181818" points="1042.6421,475.3203,1032.6421,479.3203,1042.6421,483.3203,1038.6421,479.3203" style="stroke:#181818;stroke-width:1;"/><text fill="#000000" font-family="sans-serif" font-size="13" lengthAdjust="spacing" textLength="207.7969" x="1038.6421" y="461.2544">asignatura.getAlumnos().clear()</text></g><g class="message" data-entity-1="part4" data-entity-2="part4" id="msg11"><line style="stroke:#181818;stroke-width:1;" x1="1031.6421" x2="1073.6421" y1="508.4531" y2="508.4531"/><line style="stroke:#181818;stroke-width:1;" x1="1073.6421" x2="1073.6421" y1="508.4531" y2="521.4531"/><line style="stroke:#181818;stroke-width:1;" x1="1032.6421" x2="1073.6421" y1="521.4531" y2="521.4531"/><polygon fill="#181818" points="1042.6421,517.4531,1032.6421,521.4531,1042.6421,525.4531,1038.6421,521.4531" style="stroke:#181818;stroke-width:1;"/><text fill="#000000" font-family="sans-serif" font-size="13" lengthAdjust="spacing" textLength="197.7866" x="1038.6421" y="503.3872">asignatura.getGrados().clear()</text></g><g class="message" data-entity-1="part4" data-entity-2="part5" id="msg12"><polygon fill="#181818" points="1251.439,546.5859,1261.439,550.5859,1251.439,554.5859,1255.439,550.5859" style="stroke:#181818;stroke-width:1;"/><line style="stroke:#181818;stroke-width:1;" x1="1031.6421" x2="1257.439" y1="550.5859" y2="550.5859"/><text fill="#000000" font-family="sans-serif" font-size="13" lengthAdjust="spacing" textLength="120.5547" x="1038.6421" y="545.52">delete(asignatura)</text></g><g class="message" data-entity-1="part5" data-entity-2="part6" id="msg13"><polygon fill="#181818" points="1556.7397,575.7188,1566.7397,579.7188,1556.7397,583.7188,1560.7397,579.7188" style="stroke:#181818;stroke-width:1;"/><line style="stroke:#181818;stroke-width:1;" x1="1273.439" x2="1562.7397" y1="579.7188" y2="579.7188"/><text fill="#000000" font-family="sans-serif" font-size="13" lengthAdjust="spacing" textLength="266.5635" x="1280.439" y="574.6528">DELETE FROM asignaturas WHERE id = ?</text></g><g class="message" data-entity-1="part6" data-entity-2="part5" id="msg14"><polygon fill="#181818" points="1284.439,604.8516,1274.439,608.8516,1284.439,612.8516,1280.439,608.8516" style="stroke:#181818;stroke-width:1;"/><line style="stroke:#181818;stroke-width:1;stroke-dasharray:2,2;" x1="1278.439" x2="1572.7397" y1="608.8516" y2="608.8516"/><text fill="#000000" font-family="sans-serif" font-size="13" lengthAdjust="spacing" textLength="18.7573" x="1290.439" y="603.7856">OK</text></g><g class="message" data-entity-1="part5" data-entity-2="part4" id="msg15"><polygon fill="#181818" points="1042.6421,633.9844,1032.6421,637.9844,1042.6421,641.9844,1038.6421,637.9844" style="stroke:#181818;stroke-width:1;"/><line style="stroke:#181818;stroke-width:1;stroke-dasharray:2,2;" x1="1036.6421" x2="1267.439" y1="637.9844" y2="637.9844"/><text fill="#000000" font-family="sans-serif" font-size="13" lengthAdjust="spacing" textLength="27.5107" x="1048.6421" y="632.9185">void</text></g><g class="message" data-entity-1="part4" data-entity-2="part3" id="msg16"><polygon fill="#181818" points="725.4902,663.1172,715.4902,667.1172,725.4902,671.1172,721.4902,667.1172" style="stroke:#181818;stroke-width:1;"/><line style="stroke:#181818;stroke-width:1;stroke-dasharray:2,2;" x1="719.4902" x2="1025.6421" y1="667.1172" y2="667.1172"/><text fill="#000000" font-family="sans-serif" font-size="13" lengthAdjust="spacing" textLength="27.5107" x="731.4902" y="662.0513">void</text></g><g class="message" data-entity-1="part3" data-entity-2="part2" id="msg17"><polygon fill="#181818" points="428.6128,692.25,418.6128,696.25,428.6128,700.25,424.6128,696.25" style="stroke:#181818;stroke-width:1;"/><line style="stroke:#181818;stroke-width:1;stroke-dasharray:2,2;" x1="422.6128" x2="708.4902" y1="696.25" y2="696.25"/><text fill="#000000" font-family="sans-serif" font-size="13" lengthAdjust="spacing" textLength="102.4575" x="434.6128" y="691.1841">204 No Content</text></g><g class="message" data-entity-1="part2" data-entity-2="part2" id="msg18"><line style="stroke:#181818;stroke-width:1;" x1="417.6128" x2="459.6128" y1="725.3828" y2="725.3828"/><line style="stroke:#181818;stroke-width:1;" x1="459.6128" x2="459.6128" y1="725.3828" y2="738.3828"/><line style="stroke:#181818;stroke-width:1;" x1="418.6128" x2="459.6128" y1="738.3828" y2="738.3828"/><polygon fill="#181818" points="428.6128,734.3828,418.6128,738.3828,428.6128,742.3828,424.6128,738.3828" style="stroke:#181818;stroke-width:1;"/><text fill="#000000" font-family="sans-serif" font-size="13" lengthAdjust="spacing" textLength="239.2939" x="424.6128" y="720.3169">Remover de la lista (actualizar vista)</text></g><g class="message" data-entity-1="part2" data-entity-2="part1" id="msg19"><polygon fill="#181818" points="63.3159,763.5156,53.3159,767.5156,63.3159,771.5156,59.3159,767.5156" style="stroke:#181818;stroke-width:1;"/><line style="stroke:#181818;stroke-width:1;stroke-dasharray:2,2;" x1="57.3159" x2="406.6128" y1="767.5156" y2="767.5156"/><text fill="#000000" font-family="sans-serif" font-size="13" lengthAdjust="spacing" textLength="331.2969" x="69.3159" y="762.4497">Notificaci&#243;n "Asignatura eliminada correctamente"</text></g><line style="stroke:#000000;stroke-width:1;stroke-dasharray:2,2;" x1="10" x2="1685.4028" y1="776.5156" y2="776.5156"/><text fill="#000000" font-family="sans-serif" font-size="11" font-weight="bold" lengthAdjust="spacing" textLength="309.9282" x="15" y="786.7261">[Asignatura No Existe o No Pertenece Al Docente]</text><g class="message" data-entity-1="part4" data-entity-2="part3" id="msg20"><polygon fill="#181818" points="720.4902,807.4531,710.4902,811.4531,720.4902,815.4531,716.4902,811.4531" style="stroke:#181818;stroke-width:1;"/><line style="stroke:#181818;stroke-width:1;stroke-dasharray:2,2;" x1="714.4902" x2="1025.6421" y1="811.4531" y2="811.4531"/><text fill="#000000" font-family="sans-serif" font-size="13" lengthAdjust="spacing" textLength="206.4956" x="726.4902" y="806.3872">throw EntityNotFoundException</text></g><g class="message" data-entity-1="part3" data-entity-2="part2" id="msg21"><polygon fill="#181818" points="428.6128,836.5859,418.6128,840.5859,428.6128,844.5859,424.6128,840.5859" style="stroke:#181818;stroke-width:1;"/><line style="stroke:#181818;stroke-width:1;stroke-dasharray:2,2;" x1="422.6128" x2="708.4902" y1="840.5859" y2="840.5859"/><text fill="#000000" font-family="sans-serif" font-size="13" lengthAdjust="spacing" textLength="96.0146" x="434.6128" y="835.52">404 Not Found</text></g><g class="message" data-entity-1="part2" data-entity-2="part1" id="msg22"><polygon fill="#181818" points="63.3159,865.7188,53.3159,869.7188,63.3159,873.7188,59.3159,869.7188" style="stroke:#181818;stroke-width:1;"/><line style="stroke:#181818;stroke-width:1;stroke-dasharray:2,2;" x1="57.3159" x2="406.6128" y1="869.7188" y2="869.7188"/><text fill="#000000" font-family="sans-serif" font-size="13" lengthAdjust="spacing" textLength="271.1655" x="69.3159" y="864.6528">Mostrar Error "Asignatura no encontrada"</text></g><?plantuml-src bLNDSjCm4BxxANPoSe2s3DEJfuI96uTsw1z9PxXmMQnjga6HCh8I6XYUYaVWnLZ9JYo7ffGUN5lQR_VRRt_Yf5C48uapYtC4GJ2bSacwb0W7K2Wvbnej32ivq-YM5Y6TBgpKCyYDSV0I9eIbwoS9Fus5tiYKf1tr02kuvQjxiia2hPEbNA1sq1jRm_TQG5eZW-Muw1gruQfJDhT6ARB1iltSXvYINScoPj2yxpETqC9KadclWxN_J0Gw_88LGI_tJnPaXCvKaDwOoiqiJJzUr9n7UP8q6SB1W5F8u5J94aX3RwDR3rBSHZiNVQ-INA4Zd_6uW0C6DZuokEG0bhM-D0AL3yovtaaxnrB-_gK_wrG48doX45gt_RzOD32WcaM0XsY3IBuCHiL5SLl04IxaKUkkEleHK_x9SSy8XGSCb-xUMFaTdJGwWvpGSjGJPxwI7aIvHJLgNttqfXpPXfbjIz7HwHM8keqwacsAsVpt3dt5ChYJMkJhSx5Fwr1N__2GKPx1b3C_lOKNC9vSNqPILl3fh9WK80MyXNUj0oxrA0_5gWDUBxm2g4vQ_eD4K6nVXujp_XSei4Jbubah7cJ5Lsku8Sj3GvmrjqOpOmdmNoJ6DbARqE6Ct50jvzfKQV-mL5onjFzCt7kBuYbOBOKWHOxIk1szNJShVnBhttJUq-fttB2Y_hjRXG_XhAjx6ohER6Mas3NUCjlcj3CVZu4sFUYFuzvkHk_DwsEuCk66AxGBZkR2tzGJwM4JcfiLkwb7Mt7DUSqoR8cAfyt2of_qjw1uQLmP9-zaMGzvlDisCoOGIcCjbGxdOJCdf7YlHOPCkEapuz_RLXlkQRKTdTozDT-Wq4wwDTCPcwKMnKD9eT__Ky3Z8A23uEGP-ZssFmjh_IzHbA4sl9LBZsOvM01s7RaT5ty0?></g></svg>