<svg xmlns="http://www.w3.org/2000/svg" xmlns:xlink="http://www.w3.org/1999/xlink" contentStyleType="text/css" data-diagram-type="DESCRIPTION" height="636px" preserveAspectRatio="none" style="width:1970px;height:636px;background:#FFFFFF;" version="1.1" viewBox="0 0 1970 636" width="1970px" zoomAndPan="magnify"><defs/><g><!--cluster editarAsignatura--><g class="cluster" data-entity="editarAsignatura" data-source-line="13" data-uid="ent0011" id="cluster_editarAsignatura"><path d="M8.5,106 L156.0693,106 A3.75,3.75 0 0 1 158.5693,108.5 L165.5693,128.2969 L809.5,128.2969 A2.5,2.5 0 0 1 812,130.7969 L812,626.5 A2.5,2.5 0 0 1 809.5,629 L8.5,629 A2.5,2.5 0 0 1 6,626.5 L6,108.5 A2.5,2.5 0 0 1 8.5,106" fill="none" style="stroke:#000000;stroke-width:1.5;"/><line style="stroke:#000000;stroke-width:1.5;" x1="6" x2="165.5693" y1="128.2969" y2="128.2969"/><text fill="#000000" font-family="sans-serif" font-size="14" font-weight="bold" lengthAdjust="spacing" textLength="146.5693" x="10" y="120.9951">editarAsignatura()</text></g><!--entity EditarAsignaturaView--><g class="entity" data-entity="EditarAsignaturaView" data-source-line="14" data-uid="ent0012" id="entity_EditarAsignaturaView"><rect fill="#629EF9" height="36.2969" rx="2.5" ry="2.5" style="stroke:#181818;stroke-width:0.5;" width="170.7734" x="624.5" y="141"/><text fill="#000000" font-family="sans-serif" font-size="14" lengthAdjust="spacing" textLength="150.7734" x="634.5" y="163.9951">EditarAsignaturaView</text></g><!--entity AsignaturaController--><g class="entity" data-entity="AsignaturaController" data-source-line="15" data-uid="ent0013" id="entity_AsignaturaController"><rect fill="#B5BD68" height="36.2969" rx="2.5" ry="2.5" style="stroke:#181818;stroke-width:0.5;" width="164.9697" x="148.5" y="254"/><text fill="#000000" font-family="sans-serif" font-size="14" lengthAdjust="spacing" textLength="144.9697" x="158.5" y="276.9951">AsignaturaController</text></g><!--entity AsignaturaRepository--><g class="entity" data-entity="AsignaturaRepository" data-source-line="16" data-uid="ent0014" id="entity_AsignaturaRepository"><rect fill="#F2AC4E" height="36.2969" rx="2.5" ry="2.5" style="stroke:#181818;stroke-width:0.5;" width="170.8691" x="46.5" y="367"/><text fill="#000000" font-family="sans-serif" font-size="14" lengthAdjust="spacing" textLength="150.8691" x="56.5" y="389.9951">AsignaturaRepository</text></g><!--entity Asignatura--><g class="entity" data-entity="Asignatura" data-source-line="17" data-uid="ent0015" id="entity_Asignatura"><rect fill="#F2AC4E" height="36.2969" rx="2.5" ry="2.5" style="stroke:#181818;stroke-width:0.5;" width="95.7969" x="84" y="464"/><text fill="#000000" font-family="sans-serif" font-size="14" lengthAdjust="spacing" textLength="75.7969" x="94" y="486.9951">Asignatura</text></g><!--entity Grado--><g class="entity" data-entity="Grado" data-source-line="18" data-uid="ent0016" id="entity_Grado"><rect fill="#F2AC4E" height="36.2969" rx="2.5" ry="2.5" style="stroke:#181818;stroke-width:0.5;" width="62.6357" x="34.5" y="577"/><text fill="#000000" font-family="sans-serif" font-size="14" lengthAdjust="spacing" textLength="42.6357" x="44.5" y="599.9951">Grado</text></g><!--entity BateriaDePreguntas--><g class="entity" data-entity="BateriaDePreguntas" data-source-line="19" data-uid="ent0017" id="entity_BateriaDePreguntas"><rect fill="#F2AC4E" height="36.2969" rx="2.5" ry="2.5" style="stroke:#181818;stroke-width:0.5;" width="160.7109" x="132.5" y="577"/><text fill="#000000" font-family="sans-serif" font-size="14" lengthAdjust="spacing" textLength="140.7109" x="142.5" y="599.9951">BateriaDePreguntas</text></g><!--entity AsignaturasAbierto--><g class="entity" data-entity="AsignaturasAbierto" data-source-line="3" data-uid="ent0002" id="entity_AsignaturasAbierto"><rect fill="#CDEBA5" height="36.2969" rx="2.5" ry="2.5" style="stroke:#181818;stroke-width:0.5;" width="163.0352" x="144.5" y="7"/><text fill="#000000" font-family="sans-serif" font-size="14" lengthAdjust="spacing" textLength="143.0352" x="154.5" y="29.9951">:Asignaturas Abierto</text></g><!--entity AsignaturaAbierto--><g class="entity" data-entity="AsignaturaAbierto" data-source-line="4" data-uid="ent0003" id="entity_AsignaturaAbierto"><rect fill="#CDEBA5" height="36.2969" rx="2.5" ry="2.5" style="stroke:#181818;stroke-width:0.5;" width="155.7412" x="390" y="7"/><text fill="#000000" font-family="sans-serif" font-size="14" lengthAdjust="spacing" textLength="135.7412" x="400" y="29.9951">:Asignatura Abierto</text></g><!--entity PreguntasContextualesAbierto--><g class="entity" data-entity="PreguntasContextualesAbierto" data-source-line="5" data-uid="ent0004" id="entity_PreguntasContextualesAbierto"><rect fill="#CDEBA5" height="36.2969" rx="2.5" ry="2.5" style="stroke:#181818;stroke-width:0.5;" width="247.541" x="583" y="7"/><text fill="#000000" font-family="sans-serif" font-size="14" lengthAdjust="spacing" textLength="227.541" x="593" y="29.9951">:Preguntas Contextuales Abierto</text></g><!--entity ExamenesAsignadosContextuales--><g class="entity" data-entity="ExamenesAsignadosContextuales" data-source-line="6" data-uid="ent0005" id="entity_ExamenesAsignadosContextuales"><rect fill="#CDEBA5" height="36.2969" rx="2.5" ry="2.5" style="stroke:#181818;stroke-width:0.5;" width="270.5439" x="866.5" y="7"/><text fill="#000000" font-family="sans-serif" font-size="14" lengthAdjust="spacing" textLength="250.5439" x="876.5" y="29.9951">:Examenes Asignados Contextuales</text></g><!--entity CrearAsignatura--><g class="entity" data-entity="CrearAsignatura" data-source-line="7" data-uid="ent0006" id="entity_CrearAsignatura"><rect fill="#CDEBA5" height="36.2969" rx="2.5" ry="2.5" style="stroke:#181818;stroke-width:0.5;" width="236.7471" x="1172.5" y="7"/><text fill="#000000" font-family="sans-serif" font-size="14" lengthAdjust="spacing" textLength="216.7471" x="1182.5" y="29.9951">:Collaboration CrearAsignatura</text></g><!--entity VerAsignaturas--><g class="entity" data-entity="VerAsignaturas" data-source-line="8" data-uid="ent0007" id="entity_VerAsignaturas"><rect fill="#CDEBA5" height="36.2969" rx="2.5" ry="2.5" style="stroke:#181818;stroke-width:0.5;" width="228.2158" x="828" y="254"/><text fill="#000000" font-family="sans-serif" font-size="14" lengthAdjust="spacing" textLength="208.2158" x="838" y="276.9951">:Collaboration verAsignaturas</text></g><!--entity VerPreguntas--><g class="entity" data-entity="VerPreguntas" data-source-line="9" data-uid="ent0008" id="entity_VerPreguntas"><rect fill="#CDEBA5" height="36.2969" rx="2.5" ry="2.5" style="stroke:#181818;stroke-width:0.5;" width="215.9316" x="1091" y="254"/><text fill="#000000" font-family="sans-serif" font-size="14" lengthAdjust="spacing" textLength="195.9316" x="1101" y="276.9951">:Collaboration verPreguntas</text></g><!--entity EliminarAsignatura--><g class="entity" data-entity="EliminarAsignatura" data-source-line="10" data-uid="ent0009" id="entity_EliminarAsignatura"><rect fill="#CDEBA5" height="36.2969" rx="2.5" ry="2.5" style="stroke:#181818;stroke-width:0.5;" width="255.3955" x="1342.5" y="254"/><text fill="#000000" font-family="sans-serif" font-size="14" lengthAdjust="spacing" textLength="235.3955" x="1352.5" y="276.9951">:Collaboration eliminarAsignatura</text></g><!--entity GenerarExamenes--><g class="entity" data-entity="GenerarExamenes" data-source-line="11" data-uid="ent0010" id="entity_GenerarExamenes"><rect fill="#CDEBA5" height="36.2969" rx="2.5" ry="2.5" style="stroke:#181818;stroke-width:0.5;" width="250.2891" x="1669" y="254"/><text fill="#000000" font-family="sans-serif" font-size="14" lengthAdjust="spacing" textLength="230.2891" x="1679" y="276.9951">:Collaboration generarExamenes</text></g><!--link AsignaturasAbierto to EditarAsignaturaView--><g class="link" data-entity-1="AsignaturasAbierto" data-entity-2="EditarAsignaturaView" data-source-line="22" data-uid="lnk18" id="link_AsignaturasAbierto_EditarAsignaturaView"><path d="M241.01,43.15 C257.59,62.11 282,90 282,90 C282,90 493.5943,123.6187 618.4943,143.4587" fill="none" id="AsignaturasAbierto-to-EditarAsignaturaView" style="stroke:#181818;stroke-width:1;"/><polygon fill="#181818" points="624.42,144.4,616.159,139.0376,619.4819,143.6156,614.9039,146.9385,624.42,144.4" style="stroke:#181818;stroke-width:1;"/><text fill="#000000" font-family="sans-serif" font-size="13" lengthAdjust="spacing" textLength="200.3384" x="283" y="86.0669">editarAsignatura(asignaturaId)</text></g><!--link AsignaturaAbierto to EditarAsignaturaView--><g class="link" data-entity-1="AsignaturaAbierto" data-entity-2="EditarAsignaturaView" data-source-line="23" data-uid="lnk19" id="link_AsignaturaAbierto_EditarAsignaturaView"><path d="M476.31,43.15 C485.49,62.11 499,90 499,90 C499,90 588.8192,118.9497 651.3192,139.0897" fill="none" id="AsignaturaAbierto-to-EditarAsignaturaView" style="stroke:#181818;stroke-width:1;"/><polygon fill="#181818" points="657.03,140.93,649.6906,134.3624,652.271,139.3965,647.2369,141.9768,657.03,140.93" style="stroke:#181818;stroke-width:1;"/><text fill="#000000" font-family="sans-serif" font-size="13" lengthAdjust="spacing" textLength="200.3384" x="500" y="86.0669">editarAsignatura(asignaturaId)</text></g><!--link PreguntasContextualesAbierto to EditarAsignaturaView--><g class="link" data-entity-1="PreguntasContextualesAbierto" data-entity-2="EditarAsignaturaView" data-source-line="24" data-uid="lnk20" id="link_PreguntasContextualesAbierto_EditarAsignaturaView"><path d="M707.39,43.26 C707.97,68.55 708.8925,109.4416 709.4725,134.7416" fill="none" id="PreguntasContextualesAbierto-to-EditarAsignaturaView" style="stroke:#181818;stroke-width:1;"/><polygon fill="#181818" points="709.61,140.74,713.4027,131.6507,709.4954,135.7413,705.4048,131.834,709.61,140.74" style="stroke:#181818;stroke-width:1;"/><text fill="#000000" font-family="sans-serif" font-size="13" lengthAdjust="spacing" textLength="200.3384" x="710" y="86.0669">editarAsignatura(asignaturaId)</text></g><!--link ExamenesAsignadosContextuales to EditarAsignaturaView--><g class="link" data-entity-1="ExamenesAsignadosContextuales" data-entity-2="EditarAsignaturaView" data-source-line="25" data-uid="lnk21" id="link_ExamenesAsignadosContextuales_EditarAsignaturaView"><path d="M979.76,43.15 C955.17,62.11 919,90 919,90 C919,90 830.0857,118.9339 768.1757,139.0739" fill="none" id="ExamenesAsignadosContextuales-to-EditarAsignaturaView" style="stroke:#181818;stroke-width:1;"/><polygon fill="#181818" points="762.47,140.93,772.2659,141.9496,767.2247,139.3832,769.7911,134.342,762.47,140.93" style="stroke:#181818;stroke-width:1;"/><text fill="#000000" font-family="sans-serif" font-size="13" lengthAdjust="spacing" textLength="200.3384" x="941" y="86.0669">editarAsignatura(asignaturaId)</text></g><!--link CrearAsignatura to EditarAsignaturaView--><g class="link" data-entity-1="CrearAsignatura" data-entity-2="EditarAsignaturaView" data-source-line="26" data-uid="lnk22" id="link_CrearAsignatura_EditarAsignaturaView"><path d="M1253.21,43.15 C1211.45,62.11 1150,90 1150,90 C1150,90 929.5496,124.0737 801.5496,143.8537" fill="none" id="CrearAsignatura-to-EditarAsignaturaView" style="stroke:#181818;stroke-width:1;"/><polygon fill="#181818" points="795.62,144.77,805.1253,147.3486,800.5613,144.0064,803.9036,139.4425,795.62,144.77" style="stroke:#181818;stroke-width:1;"/><text fill="#000000" font-family="sans-serif" font-size="13" lengthAdjust="spacing" textLength="229.874" x="1185" y="86.0669">editarAsignatura(asignaturaNueva)</text></g><!--link EditarAsignaturaView to AsignaturaController--><g class="link" data-entity-1="EditarAsignaturaView" data-entity-2="AsignaturaController" data-source-line="28" data-uid="lnk23" id="link_EditarAsignaturaView_AsignaturaController"><path d="M624.24,166.14 C446.42,178.88 54,207 54,207 C54,207 54,224 54,224 C54,224 110.3912,238.9693 161.0512,252.4293" fill="none" id="EditarAsignaturaView-to-AsignaturaController" style="stroke:#181818;stroke-width:1;"/><polygon fill="#181818" points="166.85,253.97,159.1789,247.7931,162.0177,252.6861,157.1246,255.5248,166.85,253.97" style="stroke:#181818;stroke-width:1;"/><text fill="#000000" font-family="sans-serif" font-size="13" lengthAdjust="spacing" textLength="363.2637" x="55" y="220.0669">cargarAsignaturaParaEdici&#243;n(asignaturaId) : Asignatura</text></g><!--link EditarAsignaturaView to AsignaturaController--><g class="link" data-entity-1="EditarAsignaturaView" data-entity-2="AsignaturaController" data-source-line="32" data-uid="lnk25" id="link_EditarAsignaturaView_AsignaturaController"><path d="M624.39,176.84 C555.81,190.32 471,207 471,207 C471,207 423,224 423,224 C423,224 361.3577,239.0823 306.4177,252.5423" fill="none" id="EditarAsignaturaView-to-AsignaturaController-1" style="stroke:#181818;stroke-width:1;"/><polygon fill="#181818" points="300.59,253.97,310.2833,255.7135,305.4464,252.7802,308.3797,247.9433,300.59,253.97" style="stroke:#181818;stroke-width:1;"/><text fill="#000000" font-family="sans-serif" font-size="13" lengthAdjust="spacing" textLength="332.7505" x="472" y="220.0669">modificarCampos(asignaturaId, cambios) : boolean</text></g><!--link AsignaturaController to AsignaturaRepository--><g class="link" data-entity-1="AsignaturaController" data-entity-2="AsignaturaRepository" data-source-line="30" data-uid="lnk24" id="link_AsignaturaController_AsignaturaRepository"><path d="M175.69,290.1 C132.23,303.54 79,320 79,320 C79,320 79,337 79,337 C79,337 92.9513,349.3686 108.0813,362.7886" fill="none" id="AsignaturaController-to-AsignaturaRepository" style="stroke:#181818;stroke-width:1;"/><polygon fill="#181818" points="112.57,366.77,108.4912,357.8054,108.8294,363.4522,103.1827,363.7904,112.57,366.77" style="stroke:#181818;stroke-width:1;"/><text fill="#000000" font-family="sans-serif" font-size="13" lengthAdjust="spacing" textLength="258.8193" x="80" y="333.0669">obtenerPorId(asignaturaId) : Asignatura</text></g><!--link AsignaturaController to AsignaturaRepository--><g class="link" data-entity-1="AsignaturaController" data-entity-2="AsignaturaRepository" data-source-line="34" data-uid="lnk26" id="link_AsignaturaController_AsignaturaRepository"><path d="M271.75,290.1 C303.77,303.54 343,320 343,320 C343,320 343,337 343,337 C343,337 274.7163,352.2047 214.3263,365.6647" fill="none" id="AsignaturaController-to-AsignaturaRepository-1" style="stroke:#181818;stroke-width:1;"/><polygon fill="#181818" points="208.47,366.97,218.1246,368.9163,213.3502,365.8823,216.3843,361.1079,208.47,366.97" style="stroke:#181818;stroke-width:1;"/><text fill="#000000" font-family="sans-serif" font-size="13" lengthAdjust="spacing" textLength="207.9937" x="344" y="333.0669">actualizar(asignatura) : boolean</text></g><!--link AsignaturaRepository to Asignatura--><g class="link" data-entity-1="AsignaturaRepository" data-entity-2="Asignatura" data-source-line="36" data-uid="lnk27" id="link_AsignaturaRepository_Asignatura"><path d="M132,403.42 C132,420.57 132,446.58 132,463.69" fill="none" id="AsignaturaRepository-Asignatura" style="stroke:#181818;stroke-width:1;"/></g><!--link Asignatura to BateriaDePreguntas--><g class="link" data-entity-1="Asignatura" data-entity-2="BateriaDePreguntas" data-source-line="38" data-uid="lnk28" id="link_Asignatura_BateriaDePreguntas"><path d="M144.66,500.34 C159.87,521.2 181.7245,551.1323 196.8945,571.9323" fill="none" id="Asignatura-to-BateriaDePreguntas" style="stroke:#181818;stroke-width:1;"/><polygon fill="#181818" points="200.43,576.78,198.3585,567.1515,197.4837,572.7403,191.8949,571.8655,200.43,576.78" style="stroke:#181818;stroke-width:1;"/><text fill="#000000" font-family="sans-serif" font-size="13" lengthAdjust="spacing" textLength="32.9443" x="179" y="543.0669">tiene</text></g><!--link Asignatura to Grado--><g class="link" data-entity-1="Asignatura" data-entity-2="Grado" data-source-line="39" data-uid="lnk29" id="link_Asignatura_Grado"><path d="M115.5,500.23 C102.66,513.65 87,530 87,530 C87,530 79.7203,552.1889 73.5003,571.1489" fill="none" id="Asignatura-to-Grado" style="stroke:#181818;stroke-width:1;"/><polygon fill="#181818" points="71.63,576.85,78.2361,569.5453,73.1886,572.0991,70.6347,567.0516,71.63,576.85" style="stroke:#181818;stroke-width:1;"/><text fill="#000000" font-family="sans-serif" font-size="13" lengthAdjust="spacing" textLength="57.6367" x="88" y="543.0669">asociada</text></g><!--link EditarAsignaturaView to VerAsignaturas--><g class="link" data-entity-1="EditarAsignaturaView" data-entity-2="VerAsignaturas" data-source-line="41" data-uid="lnk30" id="link_EditarAsignaturaView_VerAsignaturas"><path d="M745.74,177.1 C789.34,197.96 857.1876,230.4204 900.8076,251.2904" fill="none" id="EditarAsignaturaView-to-VerAsignaturas" style="stroke:#181818;stroke-width:1;stroke-dasharray:7,7;"/><polygon fill="#181818" points="906.22,253.88,899.8278,246.3874,901.7097,251.722,896.375,253.6039,906.22,253.88" style="stroke:#181818;stroke-width:1;"/><text fill="#000000" font-family="sans-serif" font-size="13" lengthAdjust="spacing" textLength="175.4746" x="841" y="220.0669">&#171;include&#187; verAsignaturas()</text></g><!--link EditarAsignaturaView to VerPreguntas--><g class="link" data-entity-1="EditarAsignaturaView" data-entity-2="VerPreguntas" data-source-line="42" data-uid="lnk31" id="link_EditarAsignaturaView_VerPreguntas"><path d="M795.66,172.78 C888.94,186.7 1025,207 1025,207 C1025,207 1095.1989,232.8185 1146.7389,251.7785" fill="none" id="EditarAsignaturaView-to-VerPreguntas" style="stroke:#181818;stroke-width:1;stroke-dasharray:7,7;"/><polygon fill="#181818" points="1152.37,253.85,1145.3044,246.9887,1147.6774,252.1238,1142.5424,254.4968,1152.37,253.85" style="stroke:#181818;stroke-width:1;"/><text fill="#000000" font-family="sans-serif" font-size="13" lengthAdjust="spacing" textLength="245.6099" x="1069" y="220.0669">&#171;include&#187; verPreguntas(asignaturaId)</text></g><!--link EditarAsignaturaView to GenerarExamenes--><g class="link" data-entity-1="EditarAsignaturaView" data-entity-2="GenerarExamenes" data-source-line="43" data-uid="lnk32" id="link_EditarAsignaturaView_GenerarExamenes"><path d="M795.91,164.3 C1027.96,175.9 1650,207 1650,207 C1650,207 1707.2773,232.4527 1749.9273,251.4127" fill="none" id="EditarAsignaturaView-to-GenerarExamenes" style="stroke:#181818;stroke-width:1;stroke-dasharray:7,7;"/><polygon fill="#181818" points="1755.41,253.85,1748.8109,246.5389,1750.8411,251.8189,1745.5611,253.8491,1755.41,253.85" style="stroke:#181818;stroke-width:1;"/><text fill="#000000" font-family="sans-serif" font-size="13" lengthAdjust="spacing" textLength="277.5132" x="1685" y="220.0669">&#171;include&#187; generarExamenes(asignaturaId)</text></g><!--link EditarAsignaturaView to EliminarAsignatura--><g class="link" data-entity-1="EditarAsignaturaView" data-entity-2="EliminarAsignatura" data-source-line="44" data-uid="lnk33" id="link_EditarAsignaturaView_EliminarAsignatura"><path d="M795.56,166.56 C964.13,179.48 1323,207 1323,207 C1323,207 1381.5587,232.495 1425.1087,251.455" fill="none" id="EditarAsignaturaView-to-EliminarAsignatura" style="stroke:#181818;stroke-width:1;stroke-dasharray:7,7;"/><polygon fill="#181818" points="1430.61,253.85,1423.9548,246.5899,1426.0256,251.8541,1420.7614,253.925,1430.61,253.85" style="stroke:#181818;stroke-width:1;"/><text fill="#000000" font-family="sans-serif" font-size="13" lengthAdjust="spacing" textLength="282.2549" x="1359" y="220.0669">&#171;include&#187; eliminarAsignatura(asiganturaId)</text></g><!--SRC=[dPN1Rfmm48RlVWfhUzcLkZb4JTIWQAKD8L4krQg7t0UOeb70HiOasLHzgZv2Nwo6PbbZ0w7B2SR_V9uPUuRgYKG92WgUaq2zBv6NCjyt7umfJ3I8B4V-ARoDRhONV15iAye4w5f1nRSneT9omPlte_tT_87xYFUKyqvXLWjjzA4K6bzr3Jdsm-WajcAA6Rr2WG8F8QIo3s-X1qqdiHM3r53cESHIWIOfUAWGr375bkdOPb2UqTB_2-onPvh7w2fq87I66VwOKq72IoRop3DOcIcf0dKeRWkwxziOAo5vWWmvfgHjVYDUkCRbQi5_CcuUQ_VBywlexef7ZlQHyCMLnXTnUldLkepDEIiJD2fNUdU-3Rz4blGxbh8YBTN-G-c8u5wPgpMoTWCQ5S4j7W_h5sD-p_7rUZEOQk1LS0dTwqEwObu7dewQwi7JgPDDU3hMwSFJGDzgV8OLOqEEV9qQvD2T2dW2AhFrEpE93IEXFxz5FquUs1U83U7Qq8SkPC1bh9l6sadra4voXnCOZR-GAVqWaqK8XTcjX_viiYjYabMpHonbZY3-Et18clEbDr0MUmHuz3F0aMgrM_dDP82QJ8LSPTkIPX4gcH2aOmKwEziuepZWrzSaahnESRDn9lToDKdfWl8OtOhR6MCqPvhsWSxudSlqHtqVw_yXMZA8T_9V]--></g></svg>