<?plantuml 1.2026.2?><svg xmlns="http://www.w3.org/2000/svg" xmlns:xlink="http://www.w3.org/1999/xlink" contentStyleType="text/css" data-diagram-type="DESCRIPTION" height="636px" preserveAspectRatio="none" style="width:1970px;height:636px;background:#FFFFFF;" version="1.1" viewBox="0 0 1970 636" width="1970px" zoomAndPan="magnify"><defs/><g><!--cluster editarAsignatura--><g class="cluster" data-qualified-name="editarAsignatura" data-source-line="13" id="ent0011"><path d="M8.5,106 L156.0693,106 A3.75,3.75 0 0 1 158.5693,108.5 L165.5693,128.2969 L809.5,128.2969 A2.5,2.5 0 0 1 812,130.7969 L812,626.5 A2.5,2.5 0 0 1 809.5,629 L8.5,629 A2.5,2.5 0 0 1 6,626.5 L6,108.5 A2.5,2.5 0 0 1 8.5,106" fill="none" style="stroke:#000000;stroke-width:1.5;"/><line style="stroke:#000000;stroke-width:1.5;" x1="6" x2="165.5693" y1="128.2969" y2="128.2969"/><text fill="#000000" font-family="sans-serif" font-size="14" font-weight="bold" lengthAdjust="spacing" textLength="146.5693" x="10" y="120.9951">editarAsignatura()</text></g><!--entity EditarAsignaturaView--><g class="entity" data-qualified-name="editarAsignatura.EditarAsignaturaView" data-source-line="14" id="ent0012"><rect fill="#629EF9" height="36.2969" rx="2.5" ry="2.5" style="stroke:#181818;stroke-width:0.5;" width="170.7734" x="624.5" y="141"/><text fill="#000000" font-family="sans-serif" font-size="14" lengthAdjust="spacing" textLength="150.7734" x="634.5" y="163.9951">EditarAsignaturaView</text></g><!--entity AsignaturaController--><g class="entity" data-qualified-name="editarAsignatura.AsignaturaController" data-source-line="15" id="ent0013"><rect fill="#B5BD68" height="36.2969" rx="2.5" ry="2.5" style="stroke:#181818;stroke-width:0.5;" width="164.9697" x="148.5" y="254"/><text fill="#000000" font-family="sans-serif" font-size="14" lengthAdjust="spacing" textLength="144.9697" x="158.5" y="276.9951">AsignaturaController</text></g><!--entity AsignaturaRepository--><g class="entity" data-qualified-name="editarAsignatura.AsignaturaRepository" data-source-line="16" id="ent0014"><rect fill="#F2AC4E" height="36.2969" rx="2.5" ry="2.5" style="stroke:#181818;stroke-width:0.5;" width="170.8691" x="46.5" y="367"/><text fill="#000000" font-family="sans-serif" font-size="14" lengthAdjust="spacing" textLength="150.8691" x="56.5" y="389.9951">AsignaturaRepository</text></g><!--entity Asignatura--><g class="entity" data-qualified-name="editarAsignatura.Asignatura" data-source-line="17" id="ent0015"><rect fill="#F2AC4E" height="36.2969" rx="2.5" ry="2.5" style="stroke:#181818;stroke-width:0.5;" width="95.7969" x="84" y="464"/><text fill="#000000" font-family="sans-serif" font-size="14" lengthAdjust="spacing" textLength="75.7969" x="94" y="486.9951">Asignatura</text></g><!--entity Grado--><g class="entity" data-qualified-name="editarAsignatura.Grado" data-source-line="18" id="ent0016"><rect fill="#F2AC4E" height="36.2969" rx="2.5" ry="2.5" style="stroke:#181818;stroke-width:0.5;" width="62.6357" x="23.5" y="577"/><text fill="#000000" font-family="sans-serif" font-size="14" lengthAdjust="spacing" textLength="42.6357" x="33.5" y="599.9951">Grado</text></g><!--entity Alumno--><g class="entity" data-qualified-name="editarAsignatura.Alumno" data-source-line="19" id="ent0017"><rect fill="#F2AC4E" height="36.2969" rx="2.5" ry="2.5" style="stroke:#181818;stroke-width:0.5;" width="73.416" x="121.5" y="577"/><text fill="#000000" font-family="sans-serif" font-size="14" lengthAdjust="spacing" textLength="53.416" x="131.5" y="599.9951">Alumno</text></g><!--entity AsignaturasAbierto--><g class="entity" data-qualified-name="AsignaturasAbierto" data-source-line="3" id="ent0002"><rect fill="#CDEBA5" height="36.2969" rx="2.5" ry="2.5" style="stroke:#181818;stroke-width:0.5;" width="163.0352" x="144.5" y="7"/><text fill="#000000" font-family="sans-serif" font-size="14" lengthAdjust="spacing" textLength="143.0352" x="154.5" y="29.9951">:Asignaturas Abierto</text></g><!--entity AsignaturaAbierto--><g class="entity" data-qualified-name="AsignaturaAbierto" data-source-line="4" id="ent0003"><rect fill="#CDEBA5" height="36.2969" rx="2.5" ry="2.5" style="stroke:#181818;stroke-width:0.5;" width="155.7412" x="390" y="7"/><text fill="#000000" font-family="sans-serif" font-size="14" lengthAdjust="spacing" textLength="135.7412" x="400" y="29.9951">:Asignatura Abierto</text></g><!--entity PreguntasContextualesAbierto--><g class="entity" data-qualified-name="PreguntasContextualesAbierto" data-source-line="5" id="ent0004"><rect fill="#CDEBA5" height="36.2969" rx="2.5" ry="2.5" style="stroke:#181818;stroke-width:0.5;" width="247.541" x="583" y="7"/><text fill="#000000" font-family="sans-serif" font-size="14" lengthAdjust="spacing" textLength="227.541" x="593" y="29.9951">:Preguntas Contextuales Abierto</text></g><!--entity ExamenesAsignadosContextuales--><g class="entity" data-qualified-name="ExamenesAsignadosContextuales" data-source-line="6" id="ent0005"><rect fill="#CDEBA5" height="36.2969" rx="2.5" ry="2.5" style="stroke:#181818;stroke-width:0.5;" width="270.5439" x="866.5" y="7"/><text fill="#000000" font-family="sans-serif" font-size="14" lengthAdjust="spacing" textLength="250.5439" x="876.5" y="29.9951">:Examenes Asignados Contextuales</text></g><!--entity CrearAsignatura--><g class="entity" data-qualified-name="CrearAsignatura" data-source-line="7" id="ent0006"><rect fill="#CDEBA5" height="36.2969" rx="2.5" ry="2.5" style="stroke:#181818;stroke-width:0.5;" width="236.7471" x="1172.5" y="7"/><text fill="#000000" font-family="sans-serif" font-size="14" lengthAdjust="spacing" textLength="216.7471" x="1182.5" y="29.9951">:Collaboration CrearAsignatura</text></g><!--entity VerAsignaturas--><g class="entity" data-qualified-name="VerAsignaturas" data-source-line="8" id="ent0007"><rect fill="#CDEBA5" height="36.2969" rx="2.5" ry="2.5" style="stroke:#181818;stroke-width:0.5;" width="228.2158" x="828" y="254"/><text fill="#000000" font-family="sans-serif" font-size="14" lengthAdjust="spacing" textLength="208.2158" x="838" y="276.9951">:Collaboration verAsignaturas</text></g><!--entity VerPreguntas--><g class="entity" data-qualified-name="VerPreguntas" data-source-line="9" id="ent0008"><rect fill="#CDEBA5" height="36.2969" rx="2.5" ry="2.5" style="stroke:#181818;stroke-width:0.5;" width="215.9316" x="1091" y="254"/><text fill="#000000" font-family="sans-serif" font-size="14" lengthAdjust="spacing" textLength="195.9316" x="1101" y="276.9951">:Collaboration verPreguntas</text></g><!--entity EliminarAsignatura--><g class="entity" data-qualified-name="EliminarAsignatura" data-source-line="10" id="ent0009"><rect fill="#CDEBA5" height="36.2969" rx="2.5" ry="2.5" style="stroke:#181818;stroke-width:0.5;" width="255.3955" x="1342.5" y="254"/><text fill="#000000" font-family="sans-serif" font-size="14" lengthAdjust="spacing" textLength="235.3955" x="1352.5" y="276.9951">:Collaboration eliminarAsignatura</text></g><!--entity GenerarExamenes--><g class="entity" data-qualified-name="GenerarExamenes" data-source-line="11" id="ent0010"><rect fill="#CDEBA5" height="36.2969" rx="2.5" ry="2.5" style="stroke:#181818;stroke-width:0.5;" width="250.2891" x="1669" y="254"/><text fill="#000000" font-family="sans-serif" font-size="14" lengthAdjust="spacing" textLength="230.2891" x="1679" y="276.9951">:Collaboration generarExamenes</text></g><!--link AsignaturasAbierto to EditarAsignaturaView--><g class="link" data-entity-1="ent0002" data-entity-2="ent0012" data-link-type="dependency" data-source-line="22" id="lnk18"><path d="M241.01,43.15 C257.59,62.11 282,90 282,90 C282,90 493.5943,123.6187 618.4943,143.4587" fill="none" id="AsignaturasAbierto-to-EditarAsignaturaView" style="stroke:#181818;stroke-width:1;"/><polygon fill="#181818" points="624.42,144.4,616.159,139.0376,619.4819,143.6156,614.9039,146.9385,624.42,144.4" style="stroke:#181818;stroke-width:1;"/><text fill="#000000" font-family="sans-serif" font-size="13" lengthAdjust="spacing" textLength="200.3384" x="283" y="86.0669">editarAsignatura(asignaturaId)</text></g><!--link AsignaturaAbierto to EditarAsignaturaView--><g class="link" data-entity-1="ent0003" data-entity-2="ent0012" data-link-type="dependency" data-source-line="23" id="lnk19"><path d="M476.31,43.15 C485.49,62.11 499,90 499,90 C499,90 588.8192,118.9497 651.3192,139.0897" fill="none" id="AsignaturaAbierto-to-EditarAsignaturaView" style="stroke:#181818;stroke-width:1;"/><polygon fill="#181818" points="657.03,140.93,649.6906,134.3624,652.271,139.3965,647.2369,141.9768,657.03,140.93" style="stroke:#181818;stroke-width:1;"/><text fill="#000000" font-family="sans-serif" font-size="13" lengthAdjust="spacing" textLength="200.3384" x="500" y="86.0669">editarAsignatura(asignaturaId)</text></g><!--link PreguntasContextualesAbierto to EditarAsignaturaView--><g class="link" data-entity-1="ent0004" data-entity-2="ent0012" data-link-type="dependency" data-source-line="24" id="lnk20"><path d="M707.39,43.26 C707.97,68.55 708.8925,109.4416 709.4725,134.7416" fill="none" id="PreguntasContextualesAbierto-to-EditarAsignaturaView" style="stroke:#181818;stroke-width:1;"/><polygon fill="#181818" points="709.61,140.74,713.4027,131.6507,709.4954,135.7413,705.4048,131.834,709.61,140.74" style="stroke:#181818;stroke-width:1;"/><text fill="#000000" font-family="sans-serif" font-size="13" lengthAdjust="spacing" textLength="200.3384" x="710" y="86.0669">editarAsignatura(asignaturaId)</text></g><!--link ExamenesAsignadosContextuales to EditarAsignaturaView--><g class="link" data-entity-1="ent0005" data-entity-2="ent0012" data-link-type="dependency" data-source-line="25" id="lnk21"><path d="M979.76,43.15 C955.17,62.11 919,90 919,90 C919,90 830.0857,118.9339 768.1757,139.0739" fill="none" id="ExamenesAsignadosContextuales-to-EditarAsignaturaView" style="stroke:#181818;stroke-width:1;"/><polygon fill="#181818" points="762.47,140.93,772.2659,141.9496,767.2247,139.3832,769.7911,134.342,762.47,140.93" style="stroke:#181818;stroke-width:1;"/><text fill="#000000" font-family="sans-serif" font-size="13" lengthAdjust="spacing" textLength="200.3384" x="941" y="86.0669">editarAsignatura(asignaturaId)</text></g><!--link CrearAsignatura to EditarAsignaturaView--><g class="link" data-entity-1="ent0006" data-entity-2="ent0012" data-link-type="dependency" data-source-line="26" id="lnk22"><path d="M1253.21,43.15 C1211.45,62.11 1150,90 1150,90 C1150,90 929.5496,124.0737 801.5496,143.8537" fill="none" id="CrearAsignatura-to-EditarAsignaturaView" style="stroke:#181818;stroke-width:1;"/><polygon fill="#181818" points="795.62,144.77,805.1253,147.3486,800.5613,144.0064,803.9036,139.4425,795.62,144.77" style="stroke:#181818;stroke-width:1;"/><text fill="#000000" font-family="sans-serif" font-size="13" lengthAdjust="spacing" textLength="229.874" x="1185" y="86.0669">editarAsignatura(asignaturaNueva)</text></g><!--link EditarAsignaturaView to AsignaturaController--><g class="link" data-entity-1="ent0012" data-entity-2="ent0013" data-link-type="dependency" data-source-line="28" id="lnk23"><path d="M624.24,166.14 C446.42,178.88 54,207 54,207 C54,207 54,224 54,224 C54,224 110.3912,238.9693 161.0512,252.4293" fill="none" id="EditarAsignaturaView-to-AsignaturaController" style="stroke:#181818;stroke-width:1;"/><polygon fill="#181818" points="166.85,253.97,159.1789,247.7931,162.0177,252.6861,157.1246,255.5248,166.85,253.97" style="stroke:#181818;stroke-width:1;"/><text fill="#000000" font-family="sans-serif" font-size="13" lengthAdjust="spacing" textLength="363.2637" x="55" y="220.0669">cargarAsignaturaParaEdici&#243;n(asignaturaId) : Asignatura</text></g><!--link EditarAsignaturaView to AsignaturaController--><g class="link" data-entity-1="ent0012" data-entity-2="ent0013" data-link-type="dependency" data-source-line="32" id="lnk25"><path d="M624.39,176.84 C555.81,190.32 471,207 471,207 C471,207 423,224 423,224 C423,224 361.3577,239.0823 306.4177,252.5423" fill="none" id="EditarAsignaturaView-to-AsignaturaController-1" style="stroke:#181818;stroke-width:1;"/><polygon fill="#181818" points="300.59,253.97,310.2833,255.7135,305.4464,252.7802,308.3797,247.9433,300.59,253.97" style="stroke:#181818;stroke-width:1;"/><text fill="#000000" font-family="sans-serif" font-size="13" lengthAdjust="spacing" textLength="332.7505" x="472" y="220.0669">modificarCampos(asignaturaId, cambios) : boolean</text></g><!--link AsignaturaController to AsignaturaRepository--><g class="link" data-entity-1="ent0013" data-entity-2="ent0014" data-link-type="dependency" data-source-line="30" id="lnk24"><path d="M175.69,290.1 C132.23,303.54 79,320 79,320 C79,320 79,337 79,337 C79,337 92.9513,349.3686 108.0813,362.7886" fill="none" id="AsignaturaController-to-AsignaturaRepository" style="stroke:#181818;stroke-width:1;"/><polygon fill="#181818" points="112.57,366.77,108.4912,357.8054,108.8294,363.4522,103.1827,363.7904,112.57,366.77" style="stroke:#181818;stroke-width:1;"/><text fill="#000000" font-family="sans-serif" font-size="13" lengthAdjust="spacing" textLength="258.8193" x="80" y="333.0669">obtenerPorId(asignaturaId) : Asignatura</text></g><!--link AsignaturaController to AsignaturaRepository--><g class="link" data-entity-1="ent0013" data-entity-2="ent0014" data-link-type="dependency" data-source-line="34" id="lnk26"><path d="M271.75,290.1 C303.77,303.54 343,320 343,320 C343,320 343,337 343,337 C343,337 274.7163,352.2047 214.3263,365.6647" fill="none" id="AsignaturaController-to-AsignaturaRepository-1" style="stroke:#181818;stroke-width:1;"/><polygon fill="#181818" points="208.47,366.97,218.1246,368.9163,213.3502,365.8823,216.3843,361.1079,208.47,366.97" style="stroke:#181818;stroke-width:1;"/><text fill="#000000" font-family="sans-serif" font-size="13" lengthAdjust="spacing" textLength="207.9937" x="344" y="333.0669">actualizar(asignatura) : boolean</text></g><!--link AsignaturaRepository to Asignatura--><g class="link" data-entity-1="ent0014" data-entity-2="ent0015" data-link-type="association" data-source-line="36" id="lnk27"><path d="M132,403.42 C132,420.57 132,446.58 132,463.69" fill="none" id="AsignaturaRepository-Asignatura" style="stroke:#181818;stroke-width:1;"/></g><!--link Asignatura to Alumno--><g class="link" data-entity-1="ent0015" data-entity-2="ent0017" data-link-type="dependency" data-source-line="38" id="lnk28"><path d="M136.06,500.34 C140.95,521.2 147.7195,550.1386 152.5995,570.9386" fill="none" id="Asignatura-to-Alumno" style="stroke:#181818;stroke-width:1;"/><polygon fill="#181818" points="153.97,576.78,155.8085,567.1043,152.8279,571.9122,148.02,568.9316,153.97,576.78" style="stroke:#181818;stroke-width:1;"/><text fill="#000000" font-family="sans-serif" font-size="13" lengthAdjust="spacing" textLength="32.9443" x="148" y="543.0669">tiene</text></g><!--link Asignatura to Grado--><g class="link" data-entity-1="ent0015" data-entity-2="ent0016" data-link-type="dependency" data-source-line="39" id="lnk29"><path d="M111.83,500.23 C96.14,513.65 77,530 77,530 C77,530 69.3585,552.2152 62.8485,571.1752" fill="none" id="Asignatura-to-Grado" style="stroke:#181818;stroke-width:1;"/><polygon fill="#181818" points="60.9,576.85,67.6059,569.6368,62.5237,572.121,60.0395,567.0388,60.9,576.85" style="stroke:#181818;stroke-width:1;"/><text fill="#000000" font-family="sans-serif" font-size="13" lengthAdjust="spacing" textLength="57.6367" x="78" y="543.0669">asociada</text></g><!--link EditarAsignaturaView to VerAsignaturas--><g class="link" data-entity-1="ent0012" data-entity-2="ent0007" data-link-type="dependency" data-source-line="41" id="lnk30"><path d="M745.74,177.1 C789.34,197.96 857.1876,230.4204 900.8076,251.2904" fill="none" id="EditarAsignaturaView-to-VerAsignaturas" style="stroke:#181818;stroke-width:1;stroke-dasharray:7,7;"/><polygon fill="#181818" points="906.22,253.88,899.8278,246.3874,901.7097,251.722,896.375,253.6039,906.22,253.88" style="stroke:#181818;stroke-width:1;"/><text fill="#000000" font-family="sans-serif" font-size="13" lengthAdjust="spacing" textLength="175.4746" x="841" y="220.0669">&#171;include&#187; verAsignaturas()</text></g><!--link EditarAsignaturaView to VerPreguntas--><g class="link" data-entity-1="ent0012" data-entity-2="ent0008" data-link-type="dependency" data-source-line="42" id="lnk31"><path d="M795.66,172.78 C888.94,186.7 1025,207 1025,207 C1025,207 1095.1989,232.8185 1146.7389,251.7785" fill="none" id="EditarAsignaturaView-to-VerPreguntas" style="stroke:#181818;stroke-width:1;stroke-dasharray:7,7;"/><polygon fill="#181818" points="1152.37,253.85,1145.3044,246.9887,1147.6774,252.1238,1142.5424,254.4968,1152.37,253.85" style="stroke:#181818;stroke-width:1;"/><text fill="#000000" font-family="sans-serif" font-size="13" lengthAdjust="spacing" textLength="245.6099" x="1069" y="220.0669">&#171;include&#187; verPreguntas(asignaturaId)</text></g><!--link EditarAsignaturaView to GenerarExamenes--><g class="link" data-entity-1="ent0012" data-entity-2="ent0010" data-link-type="dependency" data-source-line="43" id="lnk32"><path d="M795.91,164.3 C1027.96,175.9 1650,207 1650,207 C1650,207 1707.2773,232.4527 1749.9273,251.4127" fill="none" id="EditarAsignaturaView-to-GenerarExamenes" style="stroke:#181818;stroke-width:1;stroke-dasharray:7,7;"/><polygon fill="#181818" points="1755.41,253.85,1748.8109,246.5389,1750.8411,251.8189,1745.5611,253.8491,1755.41,253.85" style="stroke:#181818;stroke-width:1;"/><text fill="#000000" font-family="sans-serif" font-size="13" lengthAdjust="spacing" textLength="277.5132" x="1685" y="220.0669">&#171;include&#187; generarExamenes(asignaturaId)</text></g><!--link EditarAsignaturaView to EliminarAsignatura--><g class="link" data-entity-1="ent0012" data-entity-2="ent0009" data-link-type="dependency" data-source-line="44" id="lnk33"><path d="M795.56,166.56 C964.13,179.48 1323,207 1323,207 C1323,207 1381.5587,232.495 1425.1087,251.455" fill="none" id="EditarAsignaturaView-to-EliminarAsignatura" style="stroke:#181818;stroke-width:1;stroke-dasharray:7,7;"/><polygon fill="#181818" points="1430.61,253.85,1423.9548,246.5899,1426.0256,251.8541,1420.7614,253.925,1430.61,253.85" style="stroke:#181818;stroke-width:1;"/><text fill="#000000" font-family="sans-serif" font-size="13" lengthAdjust="spacing" textLength="282.2549" x="1359" y="220.0669">&#171;include&#187; eliminarAsignatura(asiganturaId)</text></g><?plantuml-src dPNDRjim3CVlUWeXkoJ0qaEn5gjH14XTj-Xb27RedRPPWwWi6RBSDHlsL7k4lTXajt5a-QDUSdAeFtyYQP8kdqaMe27dWYIQVO6yK69V_s5COs90PWBvf_0skjbUy4MmBIcJO2eD9T_6XDge1Q-VZ_PtymVk8zvJpZkDMIMDrOTA6dmr5GZiXj5ANCKKCtg572KUGaXL5zv03vfMuYe6gQ4I0cAbmP2IFDG8-fXYm_HiCoWlwEZV0dlicEOnsWeT2ArXXZyAoadsaebwvXcip9PKWpuKjm7TTssC5P0yGuOSKp8klnOlVEDojU2_6BS_v_RBywlexef7dlQHy8SlZI_YzFAhquprUzOsQDI-zEvy6tw97EbtB5H9HkdzXz8HmRsshJNcBAfSAlQRiVwSyVLwCvXUqAlQ4jh7XtJ5UbDtEcfgxawdJWxUwLXlzau3VQlm1LQC3JdoTMgHGtqKy0HqvkftTljQHa9__yXkd3nmcuODuPhGXvemu2eszJ3jb7v89xd32Op6dwkKdiXc4K9kR-kWFzliyfXKMTyHAoKGv7y73adzVkadQ8Sz0ZpwMU18jTwkQWR8GWpPglYdpUZPGoXLGf2E5UNiREEjt81VNvDCH9NYPkDjwELgaj9EJ8_HdlZJC4RpjcONwAtPkSp-IkzY-r-2XWpodVmF?></g></svg>