<svg xmlns="http://www.w3.org/2000/svg" xmlns:xlink="http://www.w3.org/1999/xlink" contentStyleType="text/css" data-diagram-type="SALT" height="375px" preserveAspectRatio="none" style="width:329px;height:375px;background:#FFFFFF;" version="1.1" viewBox="0 0 329 375" width="329px" zoomAndPan="magnify"><defs/><g><text fill="#000000" font-family="sans-serif" font-size="12" font-weight="bold" lengthAdjust="spacing" textLength="182.5723" x="7" y="48.0762">Gesti&#243;n de Datos Maestros</text><rect fill="#EEEEEE" height="17.9688" rx="5" ry="5" style="stroke:#000000;stroke-width:2.5;" width="308" x="9.5" y="55.4063"/><text fill="#000000" font-family="sans-serif" font-size="12" lengthAdjust="spacing" textLength="104.8184" x="111.0908" y="68.5449">Gestionar Grados</text><rect fill="#EEEEEE" height="17.9688" rx="5" ry="5" style="stroke:#000000;stroke-width:2.5;" width="308" x="9.5" y="80.375"/><text fill="#000000" font-family="sans-serif" font-size="12" lengthAdjust="spacing" textLength="133.2422" x="96.8789" y="93.5137">Gestionar Asignaturas</text><rect fill="#EEEEEE" height="17.9688" rx="5" ry="5" style="stroke:#000000;stroke-width:2.5;" width="308" x="9.5" y="105.3438"/><text fill="#000000" font-family="sans-serif" font-size="12" lengthAdjust="spacing" textLength="114.0586" x="106.4707" y="118.4824">Gestionar Alumnos</text><rect fill="#EEEEEE" height="17.9688" rx="5" ry="5" style="stroke:#000000;stroke-width:2.5;" width="308" x="9.5" y="130.3125"/><text fill="#000000" font-family="sans-serif" font-size="12" lengthAdjust="spacing" textLength="122.7129" x="102.1436" y="143.4512">Gestionar Preguntas</text><text fill="#000000" font-family="sans-serif" font-size="12" font-weight="bold" lengthAdjust="spacing" textLength="185.1445" x="7" y="163.9199">Funcionalidades Especiales</text><rect fill="#EEEEEE" height="17.9688" rx="5" ry="5" style="stroke:#000000;stroke-width:2.5;" width="308" x="9.5" y="171.25"/><text fill="#000000" font-family="sans-serif" font-size="12" lengthAdjust="spacing" textLength="115.0547" x="105.9727" y="184.3887">Generar Ex&#225;menes</text><rect fill="#EEEEEE" height="17.9688" rx="5" ry="5" style="stroke:#000000;stroke-width:2.5;" width="308" x="9.5" y="196.2188"/><text fill="#000000" font-family="sans-serif" font-size="12" lengthAdjust="spacing" textLength="115.0195" x="105.9902" y="209.3574">Corregir Ex&#225;menes</text><text fill="#000000" font-family="sans-serif" font-size="12" font-weight="bold" lengthAdjust="spacing" textLength="54.375" x="7" y="229.8262">Sistema</text><rect fill="#EEEEEE" height="17.9688" rx="5" ry="5" style="stroke:#000000;stroke-width:2.5;" width="308" x="9.5" y="237.1563"/><text fill="#000000" font-family="sans-serif" font-size="12" lengthAdjust="spacing" textLength="181.2949" x="72.8525" y="250.2949">Importar Configuracion Global</text><rect fill="#EEEEEE" height="17.9688" rx="5" ry="5" style="stroke:#000000;stroke-width:2.5;" width="308" x="9.5" y="262.125"/><text fill="#000000" font-family="sans-serif" font-size="12" lengthAdjust="spacing" textLength="180.75" x="73.125" y="275.2637">Exportar Configuracion Global</text><rect fill="#EEEEEE" height="17.9688" rx="5" ry="5" style="stroke:#000000;stroke-width:2.5;" width="308" x="9.5" y="287.0938"/><text fill="#000000" font-family="sans-serif" font-size="12" lengthAdjust="spacing" textLength="81.2637" x="122.8682" y="300.2324">Cerrar Sesi&#243;n</text><line style="stroke:#000000;stroke-width:1;" x1="6" x2="321" y1="12.9844" y2="12.9844"/><line style="stroke:#000000;stroke-width:1;" x1="6" x2="321" y1="324.5313" y2="324.5313"/><line style="stroke:#000000;stroke-width:1;" x1="6" x2="6" y1="12.9844" y2="35.9375"/><line style="stroke:#000000;stroke-width:1;" x1="321" x2="321" y1="12.9844" y2="35.9375"/><line style="stroke:#000000;stroke-width:1;" x1="6" x2="6" y1="258.625" y2="283.5938"/><line style="stroke:#000000;stroke-width:1;" x1="321" x2="321" y1="258.625" y2="283.5938"/><line style="stroke:#000000;stroke-width:1;" x1="6" x2="6" y1="167.75" y2="192.7188"/><line style="stroke:#000000;stroke-width:1;" x1="321" x2="321" y1="167.75" y2="192.7188"/><line style="stroke:#000000;stroke-width:1;" x1="6" x2="6" y1="76.875" y2="101.8438"/><line style="stroke:#000000;stroke-width:1;" x1="321" x2="321" y1="76.875" y2="101.8438"/><line style="stroke:#000000;stroke-width:1;" x1="6" x2="6" y1="233.6563" y2="258.625"/><line style="stroke:#000000;stroke-width:1;" x1="321" x2="321" y1="233.6563" y2="258.625"/><line style="stroke:#000000;stroke-width:1;" x1="6" x2="6" y1="151.7813" y2="167.75"/><line style="stroke:#000000;stroke-width:1;" x1="321" x2="321" y1="151.7813" y2="167.75"/><line style="stroke:#000000;stroke-width:1;" x1="6" x2="6" y1="51.9063" y2="76.875"/><line style="stroke:#000000;stroke-width:1;" x1="321" x2="321" y1="51.9063" y2="76.875"/><line style="stroke:#000000;stroke-width:1;" x1="6" x2="6" y1="308.5625" y2="324.5313"/><line style="stroke:#000000;stroke-width:1;" x1="321" x2="321" y1="308.5625" y2="324.5313"/><line style="stroke:#000000;stroke-width:1;" x1="6" x2="6" y1="217.6875" y2="233.6563"/><line style="stroke:#000000;stroke-width:1;" x1="321" x2="321" y1="217.6875" y2="233.6563"/><line style="stroke:#000000;stroke-width:1;" x1="6" x2="6" y1="126.8125" y2="151.7813"/><line style="stroke:#000000;stroke-width:1;" x1="321" x2="321" y1="126.8125" y2="151.7813"/><line style="stroke:#000000;stroke-width:1;" x1="6" x2="6" y1="35.9375" y2="51.9063"/><line style="stroke:#000000;stroke-width:1;" x1="321" x2="321" y1="35.9375" y2="51.9063"/><line style="stroke:#000000;stroke-width:1;" x1="6" x2="6" y1="283.5938" y2="308.5625"/><line style="stroke:#000000;stroke-width:1;" x1="321" x2="321" y1="283.5938" y2="308.5625"/><line style="stroke:#000000;stroke-width:1;" x1="6" x2="6" y1="192.7188" y2="217.6875"/><line style="stroke:#000000;stroke-width:1;" x1="321" x2="321" y1="192.7188" y2="217.6875"/><line style="stroke:#000000;stroke-width:1;" x1="6" x2="6" y1="101.8438" y2="126.8125"/><line style="stroke:#000000;stroke-width:1;" x1="321" x2="321" y1="101.8438" y2="126.8125"/><rect fill="#FFFFFF" height="13.9688" style="stroke:#FFFFFF;stroke-width:1;" width="95.7363" x="12" y="6"/><text fill="#000000" font-family="sans-serif" font-size="12" lengthAdjust="spacing" textLength="88.1074" x="15.8145" y="17.1387">Men&#250; Principal</text><line style="stroke:#AAAAAA;stroke-width:1;" x1="6" x2="322" y1="343" y2="343"/><line style="stroke:#AAAAAA;stroke-width:1;" x1="6" x2="322" y1="345" y2="345"/><text fill="#000000" font-family="sans-serif" font-size="12" lengthAdjust="spacing" textLength="103.7168" x="6" y="359.6387">Usuario: Docente</text><line style="stroke:#AAAAAA;stroke-width:1;" x1="6" x2="322" y1="366.9688" y2="366.9688"/><line style="stroke:#AAAAAA;stroke-width:1;" x1="6" x2="322" y1="368.9688" y2="368.9688"/><!--SRC=[bL9VInj147_VJp7uf0U6HcefWO8rYQ5fZWRJ-58iJEx6Ot5lzfZTJItYX_4pzAsl-MBE7LH5OjNVmpBCp6_-_VOeH9GOq4LpRK1n_NC7SkBDNvYBvS8sw62dYxJetLjPDg4GxUOFGqammkW3vAWkyI7BxjD-T5cUKM0YM6hILfnl8tmEjcACIJ2yak1IpS-qs4gO2rM98uR_4hBi9EabbE5iYIK568U62ekEdgpA95frVBMvhTL-UTUX5vt0laHvFCh2XaWrFkxxfMwyg8mmz7nXAxrNEonCd5-fU5lQZg_UI1YIj8ijA7I2FuVp9__afdi_AJfZ6HAAzGCO-O8uqaFqnXmHbzqlD7E779Vv3DOaeHshtpjuTt3Ow_TN5F5mTycNx7yn5Bvkh2E8jgOzipkPpo3u90L1gISIkqgjo7jcYck4KrLPymRmhI6UZhx-Sy2OrrOyw-sZcPxb3maVtkyVswWhYyu1PxaPqGKc5vLH-D9oDO3bzvFzZsQ6N2Mij3Qn6NgjAxyrjhW3]--></g></svg>