<svg xmlns="http://www.w3.org/2000/svg" xmlns:xlink="http://www.w3.org/1999/xlink" contentStyleType="text/css" data-diagram-type="SALT" height="281px" preserveAspectRatio="none" style="width:695px;height:281px;background:#FFFFFF;" version="1.1" viewBox="0 0 695 281" width="695px" zoomAndPan="magnify"><defs/><g><text fill="#000000" font-family="sans-serif" font-size="12" font-weight="bold" lengthAdjust="spacing" textLength="188.6016" x="6" y="17.1387">GENERACI&#211;N DE EX&#193;MENES</text><text fill="#000000" font-family="sans-serif" font-size="12" font-weight="bold" lengthAdjust="spacing" textLength="93.3164" x="567.9922" y="17.1387">VISTA PREVIA</text><text fill="#000000" font-family="sans-serif" font-size="12" lengthAdjust="spacing" textLength="69.0117" x="6" y="33.1074">Asignatura:</text><text fill="#000000" font-family="sans-serif" font-size="12" font-weight="bold" lengthAdjust="spacing" textLength="190.8164" x="78.8262" y="33.1074">Estructura de Datos (GII-24)</text><text fill="#000000" font-family="sans-serif" font-size="12" lengthAdjust="spacing" textLength="39.8848" x="567.9922" y="33.1074">Fecha:</text><text fill="#000000" font-family="sans-serif" font-size="12" font-weight="bold" lengthAdjust="spacing" textLength="75.5625" x="611.6914" y="33.1074">12/12/2024</text><line style="stroke:#AAAAAA;stroke-width:1;" x1="6" x2="566.9922" y1="40.4375" y2="40.4375"/><line style="stroke:#AAAAAA;stroke-width:1;" x1="6" x2="566.9922" y1="42.4375" y2="42.4375"/><text fill="#000000" font-family="sans-serif" font-size="12" lengthAdjust="spacing" textLength="147.457" x="6" y="73.0449">Generaci&#243;n completada.</text><text fill="#000000" font-family="sans-serif" font-size="12" font-weight="bold" lengthAdjust="spacing" textLength="14.4258" x="7" y="105.9824">ID</text><text fill="#000000" font-family="sans-serif" font-size="12" font-weight="bold" lengthAdjust="spacing" textLength="40.6992" x="77.8594" y="105.9824">Grado</text><text fill="#000000" font-family="sans-serif" font-size="12" font-weight="bold" lengthAdjust="spacing" textLength="65.6016" x="120.5586" y="105.9824">Dificultad</text><text fill="#000000" font-family="sans-serif" font-size="12" lengthAdjust="spacing" textLength="68.8594" x="7" y="121.9512">EX-MATES2</text><text fill="#000000" font-family="sans-serif" font-size="12" lengthAdjust="spacing" textLength="7.0781" x="77.8594" y="121.9512">II</text><text fill="#000000" font-family="sans-serif" font-size="12" lengthAdjust="spacing" textLength="196.0371" x="120.5586" y="121.9512">15% Facil 35% Medio 50% Dif&#237;cil</text><text fill="#000000" font-family="sans-serif" font-size="12" lengthAdjust="spacing" textLength="68.8594" x="7" y="137.9199">EX-MATES2</text><text fill="#000000" font-family="sans-serif" font-size="12" lengthAdjust="spacing" textLength="16.5234" x="77.8594" y="137.9199">IOI</text><text fill="#000000" font-family="sans-serif" font-size="12" lengthAdjust="spacing" textLength="196.0371" x="120.5586" y="137.9199">30% Facil 40% Medio 30% Dif&#237;cil</text><line style="stroke:#000000;stroke-width:1;" x1="6" x2="76.8594" y1="93.8438" y2="93.8438"/><line style="stroke:#000000;stroke-width:1;" x1="76.8594" x2="119.5586" y1="109.8125" y2="109.8125"/><line style="stroke:#000000;stroke-width:1;" x1="119.5586" x2="317.5957" y1="125.7813" y2="125.7813"/><line style="stroke:#000000;stroke-width:1;" x1="76.8594" x2="119.5586" y1="93.8438" y2="93.8438"/><line style="stroke:#000000;stroke-width:1;" x1="119.5586" x2="317.5957" y1="109.8125" y2="109.8125"/><line style="stroke:#000000;stroke-width:1;" x1="119.5586" x2="317.5957" y1="93.8438" y2="93.8438"/><line style="stroke:#000000;stroke-width:1;" x1="6" x2="76.8594" y1="141.75" y2="141.75"/><line style="stroke:#000000;stroke-width:1;" x1="76.8594" x2="119.5586" y1="141.75" y2="141.75"/><line style="stroke:#000000;stroke-width:1;" x1="6" x2="76.8594" y1="125.7813" y2="125.7813"/><line style="stroke:#000000;stroke-width:1;" x1="119.5586" x2="317.5957" y1="141.75" y2="141.75"/><line style="stroke:#000000;stroke-width:1;" x1="6" x2="76.8594" y1="109.8125" y2="109.8125"/><line style="stroke:#000000;stroke-width:1;" x1="76.8594" x2="119.5586" y1="125.7813" y2="125.7813"/><line style="stroke:#000000;stroke-width:1;" x1="6" x2="6" y1="93.8438" y2="109.8125"/><line style="stroke:#000000;stroke-width:1;" x1="76.8594" x2="76.8594" y1="109.8125" y2="125.7813"/><line style="stroke:#000000;stroke-width:1;" x1="119.5586" x2="119.5586" y1="125.7813" y2="141.75"/><line style="stroke:#000000;stroke-width:1;" x1="317.5957" x2="317.5957" y1="125.7813" y2="141.75"/><line style="stroke:#000000;stroke-width:1;" x1="76.8594" x2="76.8594" y1="93.8438" y2="109.8125"/><line style="stroke:#000000;stroke-width:1;" x1="119.5586" x2="119.5586" y1="109.8125" y2="125.7813"/><line style="stroke:#000000;stroke-width:1;" x1="317.5957" x2="317.5957" y1="109.8125" y2="125.7813"/><line style="stroke:#000000;stroke-width:1;" x1="119.5586" x2="119.5586" y1="93.8438" y2="109.8125"/><line style="stroke:#000000;stroke-width:1;" x1="317.5957" x2="317.5957" y1="93.8438" y2="109.8125"/><line style="stroke:#000000;stroke-width:1;" x1="6" x2="6" y1="125.7813" y2="141.75"/><line style="stroke:#000000;stroke-width:1;" x1="6" x2="6" y1="109.8125" y2="125.7813"/><line style="stroke:#000000;stroke-width:1;" x1="76.8594" x2="76.8594" y1="125.7813" y2="141.75"/><rect fill="#EEEEEE" height="17.9688" rx="5" ry="5" style="stroke:#000000;stroke-width:2.5;" width="172" x="9.5" y="163.2188"/><text fill="#000000" font-family="sans-serif" font-size="12" font-weight="bold" lengthAdjust="spacing" textLength="138.4453" x="26.2773" y="176.3574">Cancelar generaci&#243;n</text><rect fill="#EEEEEE" height="17.9688" rx="5" ry="5" style="stroke:#000000;stroke-width:2.5;" width="156" x="406.4922" y="163.2188"/><text fill="#000000" font-family="sans-serif" font-size="12" font-weight="bold" lengthAdjust="spacing" textLength="125.332" x="421.8262" y="176.3574">Asignar a alumnos</text><text fill="#000000" font-family="sans-serif" font-size="12" lengthAdjust="spacing" textLength="324.6387" x="7" y="196.8262">&#191;Est&#225; seguro que desea cancelar la generaci&#243;n actual?</text><text fill="#FF0000" font-family="sans-serif" font-size="12" font-weight="bold" lengthAdjust="spacing" textLength="114.6914" x="7" y="228.7637">&#9888; ADVERTENCIA:</text><text fill="#000000" font-family="sans-serif" font-size="12" lengthAdjust="spacing" textLength="394.9922" x="7" y="244.7324">Si confirma la cancelaci&#243;n, los ex&#225;menes generados se perder&#225;n.</text><rect fill="#EEEEEE" height="17.9688" rx="5" ry="5" style="stroke:#000000;stroke-width:2.5;" width="100" x="9.5" y="252.0625"/><text fill="#000000" font-family="sans-serif" font-size="12" lengthAdjust="spacing" textLength="69.7383" x="24.6309" y="265.2012">Si, cancelar</text><rect fill="#EEEEEE" height="17.9688" rx="5" ry="5" style="stroke:#000000;stroke-width:2.5;" width="20.3184" x="406.4922" y="252.0625"/><text fill="#000000" font-family="sans-serif" font-size="12" lengthAdjust="spacing" textLength="16.3184" x="408.4922" y="265.2012">No</text><line style="stroke:#000000;stroke-width:1;" x1="5" x2="566.9922" y1="5" y2="5"/><line style="stroke:#000000;stroke-width:1;" x1="566.9922" x2="688.2539" y1="5" y2="5"/><line style="stroke:#000000;stroke-width:1;" x1="5" x2="566.9922" y1="274.5313" y2="274.5313"/><line style="stroke:#000000;stroke-width:1;" x1="566.9922" x2="688.2539" y1="274.5313" y2="274.5313"/><line style="stroke:#000000;stroke-width:1;" x1="5" x2="5" y1="5" y2="20.9688"/><line style="stroke:#000000;stroke-width:1;" x1="688.2539" x2="688.2539" y1="36.9375" y2="44.9375"/><line style="stroke:#000000;stroke-width:1;" x1="688.2539" x2="688.2539" y1="5" y2="20.9688"/><line style="stroke:#000000;stroke-width:1;" x1="5" x2="5" y1="142.75" y2="158.7188"/><line style="stroke:#000000;stroke-width:1;" x1="5" x2="5" y1="76.875" y2="92.8438"/><line style="stroke:#000000;stroke-width:1;" x1="688.2539" x2="688.2539" y1="142.75" y2="158.7188"/><line style="stroke:#000000;stroke-width:1;" x1="5" x2="5" y1="44.9375" y2="60.9063"/><line style="stroke:#000000;stroke-width:1;" x1="688.2539" x2="688.2539" y1="76.875" y2="92.8438"/><line style="stroke:#000000;stroke-width:1;" x1="5" x2="5" y1="20.9688" y2="36.9375"/><line style="stroke:#000000;stroke-width:1;" x1="688.2539" x2="688.2539" y1="44.9375" y2="60.9063"/><line style="stroke:#000000;stroke-width:1;" x1="688.2539" x2="688.2539" y1="20.9688" y2="36.9375"/><line style="stroke:#000000;stroke-width:1;" x1="5" x2="5" y1="158.7188" y2="274.5313"/><line style="stroke:#000000;stroke-width:1;" x1="5" x2="5" y1="92.8438" y2="142.75"/><line style="stroke:#000000;stroke-width:1;" x1="688.2539" x2="688.2539" y1="158.7188" y2="274.5313"/><line style="stroke:#000000;stroke-width:1;" x1="5" x2="5" y1="60.9063" y2="76.875"/><line style="stroke:#000000;stroke-width:1;" x1="688.2539" x2="688.2539" y1="92.8438" y2="142.75"/><line style="stroke:#000000;stroke-width:1;" x1="5" x2="5" y1="36.9375" y2="44.9375"/><line style="stroke:#000000;stroke-width:1;" x1="688.2539" x2="688.2539" y1="60.9063" y2="76.875"/><!--SRC=[RLBTRjCm5BxFKnm9JTh4cgPTYo1QoqBZLYbBDpLPcJGXv2PUiEJQnKagqDW5py0TL-m1kE81aCYRy2ISf6rQ3Qp8TexFzttdxopDgCvIAZA8g8oOe7h49DCquag-U-DDoN3g-CIuUse0hjDvVqGcPEeClEBh15m2vBhuugCfWC_bwymBGWSkfsJcEQVDURz2EIbF9CroJUtIXwIPpgFo5s86BirK2eSZpskqEqSb1fc6B7g_Tcwrc_YrhNQdfklrUjLfLlistEAdX4Wjbe9bDAOcxBdSFQcEJGAUkn4faz4qLhjVbz_oA1T8K8kLYrmtV2SaGHkzF0-tLlS0XgWfu0HlFekvWgvr08WlVg3v_yYB4dfYRQ4TQmizUGoztm- -scl6cpBEmQPLaEoIhx9uYmgLnxha6YXGaI-aIjVFDKrz-VqBsr4yGCgIN2lua3DiIifeFGuWwBuCKEmS5Izh0dDNsqW9fMtDuZv6yEVRTt3S6Pc6P3Bm7BiCuBHPkUmg6t3icRpbUa5BdOrc9NGC0kU2VImU5gYURcA8qPOoM38TCrqyIFFVZ6u2Vbn7NnLaeXubVc_S6sTCnkNS6yQbe3AxyizXnNIAOmyj4-UjQxQimn3BCL4hi3hGikosPNTUW1-4KBuV6OUZotD8LQuZB1h7gURpF4E28sDCLnIckSpuWjbmiMHoxBxU6e385TTAObwPCPxvEuTddSOhda70D8O2CzzmsIt5UKH4f68k4nkkmc7ZkN5EPPBJ1BcPD0OAUVKd6sGkn5y0]--></g></svg>