<svg xmlns="http://www.w3.org/2000/svg" xmlns:xlink="http://www.w3.org/1999/xlink" contentStyleType="text/css" data-diagram-type="DESCRIPTION" height="620px" preserveAspectRatio="none" style="width:1056px;height:620px;background:#FFFFFF;" version="1.1" viewBox="0 0 1056 620" width="1056px" zoomAndPan="magnify"><defs/><g><!--cluster crearRespuesta--><g class="cluster" data-entity="crearRespuesta" data-source-line="7" data-uid="ent0005" id="cluster_crearRespuesta"><path d="M8.5,106 L145.9111,106 A3.75,3.75 0 0 1 148.4111,108.5 L155.4111,128.2969 L750.5,128.2969 A2.5,2.5 0 0 1 753,130.7969 L753,610.5 A2.5,2.5 0 0 1 750.5,613 L8.5,613 A2.5,2.5 0 0 1 6,610.5 L6,108.5 A2.5,2.5 0 0 1 8.5,106" fill="none" style="stroke:#000000;stroke-width:1.5;"/><line style="stroke:#000000;stroke-width:1.5;" x1="6" x2="155.4111" y1="128.2969" y2="128.2969"/><text fill="#000000" font-family="sans-serif" font-size="14" font-weight="bold" lengthAdjust="spacing" textLength="136.4111" x="10" y="120.9951">crearRespuesta()</text></g><!--entity CrearRespuestaView--><g class="entity" data-entity="CrearRespuestaView" data-source-line="8" data-uid="ent0006" id="entity_CrearRespuestaView"><rect fill="#629EF9" height="36.2969" rx="2.5" ry="2.5" style="stroke:#181818;stroke-width:0.5;" width="165.3799" x="370.5" y="141"/><text fill="#000000" font-family="sans-serif" font-size="14" lengthAdjust="spacing" textLength="145.3799" x="380.5" y="163.9951">CrearRespuestaView</text></g><!--entity RespuestasController--><g class="entity" data-entity="RespuestasController" data-source-line="9" data-uid="ent0007" id="entity_RespuestasController"><rect fill="#B5BD68" height="36.2969" rx="2.5" ry="2.5" style="stroke:#181818;stroke-width:0.5;" width="169.8369" x="195" y="254"/><text fill="#000000" font-family="sans-serif" font-size="14" lengthAdjust="spacing" textLength="149.8369" x="205" y="276.9951">RespuestasController</text></g><!--entity RespuestaRepository--><g class="entity" data-entity="RespuestaRepository" data-source-line="10" data-uid="ent0008" id="entity_RespuestaRepository"><rect fill="#F2AC4E" height="36.2969" rx="2.5" ry="2.5" style="stroke:#181818;stroke-width:0.5;" width="168.4424" x="196" y="367"/><text fill="#000000" font-family="sans-serif" font-size="14" lengthAdjust="spacing" textLength="148.4424" x="206" y="389.9951">RespuestaRepository</text></g><!--entity Respuesta--><g class="entity" data-entity="Respuesta" data-source-line="11" data-uid="ent0009" id="entity_Respuesta"><rect fill="#F2AC4E" height="36.2969" rx="2.5" ry="2.5" style="stroke:#181818;stroke-width:0.5;" width="93.3701" x="233.5" y="464"/><text fill="#000000" font-family="sans-serif" font-size="14" lengthAdjust="spacing" textLength="73.3701" x="243.5" y="486.9951">Respuesta</text></g><!--entity Pregunta--><g class="entity" data-entity="Pregunta" data-source-line="12" data-uid="ent0010" id="entity_Pregunta"><rect fill="#F2AC4E" height="36.2969" rx="2.5" ry="2.5" style="stroke:#181818;stroke-width:0.5;" width="83.5127" x="238" y="561"/><text fill="#000000" font-family="sans-serif" font-size="14" lengthAdjust="spacing" textLength="63.5127" x="248" y="583.9951">Pregunta</text></g><!--entity RespuestasAbierto--><g class="entity" data-entity="RespuestasAbierto" data-source-line="3" data-uid="ent0002" id="entity_RespuestasAbierto"><rect fill="#CDEBA5" height="36.2969" rx="2.5" ry="2.5" style="stroke:#181818;stroke-width:0.5;" width="184.0693" x="222" y="7"/><text fill="#000000" font-family="sans-serif" font-size="14" lengthAdjust="spacing" textLength="164.0693" x="232" y="29.9951">:RESPUESTAS_ABIERTO</text></g><!--entity RespuestasContextualesAbierto--><g class="entity" data-entity="RespuestasContextualesAbierto" data-source-line="4" data-uid="ent0003" id="entity_RespuestasContextualesAbierto"><rect fill="#CDEBA5" height="36.2969" rx="2.5" ry="2.5" style="stroke:#181818;stroke-width:0.5;" width="303.2334" x="441.5" y="7"/><text fill="#000000" font-family="sans-serif" font-size="14" lengthAdjust="spacing" textLength="283.2334" x="451.5" y="29.9951">:RESPUESTAS_CONTEXTUALES_ABIERTO</text></g><!--entity EditarRespuesta--><g class="entity" data-entity="EditarRespuesta" data-source-line="5" data-uid="ent0004" id="entity_EditarRespuesta"><rect fill="#CDEBA5" height="36.2969" rx="2.5" ry="2.5" style="stroke:#181818;stroke-width:0.5;" width="237.2871" x="769.5" y="254"/><text fill="#000000" font-family="sans-serif" font-size="14" lengthAdjust="spacing" textLength="217.2871" x="779.5" y="276.9951">:Collaboration EditarRespuesta</text></g><!--link RespuestasAbierto to CrearRespuestaView--><g class="link" data-entity-1="RespuestasAbierto" data-entity-2="CrearRespuestaView" data-source-line="15" data-uid="lnk11" id="link_RespuestasAbierto_CrearRespuestaView"><path d="M332.17,43.26 C358.81,68.55 403.8294,111.3082 430.4694,136.6082" fill="none" id="RespuestasAbierto-to-CrearRespuestaView" style="stroke:#181818;stroke-width:1;"/><polygon fill="#181818" points="434.82,140.74,431.0486,131.6419,431.1945,137.2968,425.5395,137.4427,434.82,140.74" style="stroke:#181818;stroke-width:1;"/><text fill="#000000" font-family="sans-serif" font-size="13" lengthAdjust="spacing" textLength="112.0742" x="380" y="86.0669">crearRespuesta()</text></g><!--link RespuestasContextualesAbierto to CrearRespuestaView--><g class="link" data-entity-1="RespuestasContextualesAbierto" data-entity-2="CrearRespuestaView" data-source-line="16" data-uid="lnk12" id="link_RespuestasContextualesAbierto_CrearRespuestaView"><path d="M574.7,43.26 C547.87,68.55 502.5053,111.3237 475.6753,136.6237" fill="none" id="RespuestasContextualesAbierto-to-CrearRespuestaView" style="stroke:#181818;stroke-width:1;"/><polygon fill="#181818" points="471.31,140.74,480.6022,137.4757,474.9477,137.3097,475.1137,131.6553,471.31,140.74" style="stroke:#181818;stroke-width:1;"/><text fill="#000000" font-family="sans-serif" font-size="13" lengthAdjust="spacing" textLength="112.0742" x="540" y="86.0669">crearRespuesta()</text></g><!--link CrearRespuestaView to RespuestasController--><g class="link" data-entity-1="CrearRespuestaView" data-entity-2="RespuestasController" data-source-line="18" data-uid="lnk13" id="link_CrearRespuestaView_RespuestasController"><path d="M370.33,169.74 C253.46,183.51 54,207 54,207 C54,207 54,224 54,224 C54,224 127.5358,239.2876 192.2158,252.7476" fill="none" id="CrearRespuestaView-to-RespuestasController" style="stroke:#181818;stroke-width:1;"/><polygon fill="#181818" points="198.09,253.97,190.0937,248.2203,193.1949,252.9513,188.4638,256.0525,198.09,253.97" style="stroke:#181818;stroke-width:1;"/><text fill="#000000" font-family="sans-serif" font-size="13" lengthAdjust="spacing" textLength="354.5356" x="55" y="220.0669">validarDatosMinimos(contenido, esCorrecta) : boolean</text></g><!--link CrearRespuestaView to RespuestasController--><g class="link" data-entity-1="CrearRespuestaView" data-entity-2="RespuestasController" data-source-line="19" data-uid="lnk14" id="link_CrearRespuestaView_RespuestasController"><path d="M442.55,177.15 C431,196.11 414,224 414,224 C414,224 372.7317,238.4738 334.4217,251.9138" fill="none" id="CrearRespuestaView-to-RespuestasController-1" style="stroke:#181818;stroke-width:1;"/><polygon fill="#181818" points="328.76,253.9,338.5767,254.6951,333.4781,252.2448,335.9284,247.1462,328.76,253.9" style="stroke:#181818;stroke-width:1;"/><text fill="#000000" font-family="sans-serif" font-size="13" lengthAdjust="spacing" textLength="282.9595" x="424" y="220.0669">crearRespuesta(datosMinimos) : Respuesta</text></g><!--link RespuestasController to RespuestaRepository--><g class="link" data-entity-1="RespuestasController" data-entity-2="RespuestaRepository" data-source-line="21" data-uid="lnk15" id="link_RespuestasController_RespuestaRepository"><path d="M280,290.34 C280,311.2 280,339.98 280,360.78" fill="none" id="RespuestasController-to-RespuestaRepository" style="stroke:#181818;stroke-width:1;"/><polygon fill="#181818" points="280,366.78,284,357.78,280,361.78,276,357.78,280,366.78" style="stroke:#181818;stroke-width:1;"/><text fill="#000000" font-family="sans-serif" font-size="13" lengthAdjust="spacing" textLength="214.8301" x="281" y="333.0669">crear(datosMinimos) : Respuesta</text></g><!--link RespuestaRepository to Respuesta--><g class="link" data-entity-1="RespuestaRepository" data-entity-2="Respuesta" data-source-line="23" data-uid="lnk16" id="link_RespuestaRepository_Respuesta"><path d="M280,403.42 C280,420.57 280,446.58 280,463.69" fill="none" id="RespuestaRepository-Respuesta" style="stroke:#181818;stroke-width:1;"/></g><!--link Respuesta to Pregunta--><g class="link" data-entity-1="Respuesta" data-entity-2="Pregunta" data-source-line="24" data-uid="lnk17" id="link_Respuesta_Pregunta"><path d="M280,500.42 C280,517.57 280,537.58 280,554.69" fill="none" id="Respuesta-to-Pregunta" style="stroke:#181818;stroke-width:1;"/><polygon fill="#181818" points="280,560.69,284,551.69,280,555.69,276,551.69,280,560.69" style="stroke:#181818;stroke-width:1;"/></g><!--link CrearRespuestaView to EditarRespuesta--><g class="link" data-entity-1="CrearRespuestaView" data-entity-2="EditarRespuesta" data-source-line="26" data-uid="lnk18" id="link_CrearRespuestaView_EditarRespuesta"><path d="M535.54,174.81 C612.34,188.58 715,207 715,207 C715,207 784.7627,232.8082 836.0127,251.7682" fill="none" id="CrearRespuestaView-to-EditarRespuesta" style="stroke:#181818;stroke-width:1;stroke-dasharray:7,7;"/><polygon fill="#181818" points="841.64,253.85,834.587,246.9758,836.9506,252.1152,831.8112,254.4788,841.64,253.85" style="stroke:#181818;stroke-width:1;"/><text fill="#000000" font-family="sans-serif" font-size="13" lengthAdjust="spacing" textLength="291.9478" x="757" y="220.0669">&#171;include&#187; editarRespuesta(nuevaRespuesta)</text></g><!--SRC=[bL9DQy904BtlhnZIYqBr85Lga42CAnJQAXfBRsMJ3BAuxeRTZQsK_lScKZJ6-D6zpSoRz-RjZ5bncJBDrY2uHBjD4L8bjaL0YCROChaK27V1Y0xzBZZkZCwd2peF_Vc7FtoYit3Y03CmGvDcQ2mpViHHMtMjEPYyXlGzNFZFz1nJeAJ5BvinWHTP0oK4YvHcbYi9DE6MwJtBZhEI8oHbyOej4MADfNm1TOvJZQO3tmJoLrBkTVfqt8VW2Fd6yRCAZBfHqdkiMDBvkAYhq7773nxe0Jh3L1bkbTvUGvwfJpKkCvcNVmWvsGwqMbxD_2vKtPEBwxYTXfoYe9NatNL_uyA62PumFM9McHSk-LgPHbpeIvweUy0Sh7UMc-12f9H09lyfKHanAKaLfALZgUlVEQzPrX_lJNI7hfojX3ZSOo6otsETltRRgnwt2uC1bx784lGymEDYGsQuOVkm-Gi0]--></g></svg>