<svg xmlns="http://www.w3.org/2000/svg" xmlns:xlink="http://www.w3.org/1999/xlink" contentStyleType="text/css" data-diagram-type="STATE" height="776px" preserveAspectRatio="none" style="width:502px;height:776px;background:#FFFFFF;" version="1.1" viewBox="0 0 502 776" width="502px" zoomAndPan="magnify"><defs/><g><g id="GRADOS_ABIERTO"><rect fill="#F1F1F1" height="50" rx="12.5" ry="12.5" style="stroke:#181818;stroke-width:0.5;" width="149.2949" x="151" y="7"/><line style="stroke:#181818;stroke-width:0.5;" x1="151" x2="300.2949" y1="33.2969" y2="33.2969"/><text fill="#000000" font-family="sans-serif" font-size="14" lengthAdjust="spacing" textLength="129.2949" x="161" y="24.9951">GRADOS_ABIERTO</text></g><g id="GRADOS_ABIERTO2"><rect fill="#F1F1F1" height="50" rx="12.5" ry="12.5" style="stroke:#181818;stroke-width:0.5;" width="149.2949" x="59" y="720"/><line style="stroke:#181818;stroke-width:0.5;" x1="59" x2="208.2949" y1="746.2969" y2="746.2969"/><text fill="#000000" font-family="sans-serif" font-size="14" lengthAdjust="spacing" textLength="129.2949" x="69" y="737.9951">GRADOS_ABIERTO</text></g><path d="M19.5,118 L431.5,118 A12.5,12.5 0 0 1 444,130.5 L444,144.2969 L7,144.2969 L7,130.5 A12.5,12.5 0 0 1 19.5,118" fill="#F1F1F1"/><rect fill="none" height="507.2969" rx="12.5" ry="12.5" style="stroke:#181818;stroke-width:0.5;" width="437" x="7" y="118"/><line style="stroke:#181818;stroke-width:0.5;" x1="7" x2="444" y1="144.2969" y2="144.2969"/><text fill="#000000" font-family="sans-serif" font-size="14" lengthAdjust="spacing" textLength="89.9609" x="180.5195" y="135.9951">crearGrado()</text><g id="crearGrado.SolicitandoDatosGrado"><rect fill="#F1F1F1" height="50" rx="12.5" ry="12.5" style="stroke:#181818;stroke-width:0.5;" width="50" x="19" y="246.2969"/><line style="stroke:#181818;stroke-width:0.5;" x1="19" x2="69" y1="272.5938" y2="272.5938"/><text fill="#000000" font-family="sans-serif" font-size="14" lengthAdjust="spacing" textLength="4.4502" x="41.7749" y="264.292">&#160;</text></g><g id="crearGrado.CreandoGrado"><rect fill="#F1F1F1" height="50" rx="12.5" ry="12.5" style="stroke:#181818;stroke-width:0.5;" width="50" x="19" y="457.2969"/><line style="stroke:#181818;stroke-width:0.5;" x1="19" x2="69" y1="483.5938" y2="483.5938"/><text fill="#000000" font-family="sans-serif" font-size="14" lengthAdjust="spacing" textLength="4.4502" x="41.7749" y="475.292">&#160;</text></g><ellipse cx="44" cy="165.2969" fill="#222222" rx="10" ry="10" style="stroke:#222222;stroke-width:1;"/><ellipse cx="44" cy="604.2969" fill="none" rx="11" ry="11" style="stroke:#222222;stroke-width:1;"/><ellipse cx="44" cy="604.2969" fill="#222222" rx="6" ry="6" style="stroke:#222222;stroke-width:1;"/><!--link *start*crearGrado to SolicitandoDatosGrado--><g class="link" data-entity-1=".start.crearGrado" data-entity-2="SolicitandoDatosGrado" data-source-line="11" data-uid="lnk3" id="link_.start.crearGrado_SolicitandoDatosGrado"><path d="M44,175.5269 C44,191.2369 44,217.6569 44,240.1669" fill="none" id="*start*crearGrado-to-SolicitandoDatosGrado" style="stroke:#008000;stroke-width:1;"/><polygon fill="#008000" points="44,246.1669,48,237.1669,44,241.1669,40,237.1669,44,246.1669" style="stroke:#008000;stroke-width:1;"/><path d="M49,198.2969 L49,223.2969 L304,223.2969 L304,208.2969 L294,198.2969 L49,198.2969" fill="#FEFFDD" style="stroke:#181818;stroke-width:0.5;"/><path d="M294,198.2969 L294,208.2969 L304,208.2969 L294,198.2969" fill="#FEFFDD" style="stroke:#181818;stroke-width:0.5;"/><text fill="#000000" font-family="sans-serif" font-size="13" font-weight="bold" lengthAdjust="spacing" textLength="60.5313" x="55" y="215.3638">Docente</text><text fill="#000000" font-family="sans-serif" font-size="13" lengthAdjust="spacing" textLength="169.8633" x="119.6636" y="215.3638">solicita crear grado nuevo</text></g><!--link SolicitandoDatosGrado to CreandoGrado--><g class="link" data-entity-1="SolicitandoDatosGrado" data-entity-2="CreandoGrado" data-source-line="16" data-uid="lnk4" id="link_SolicitandoDatosGrado_CreandoGrado"><path d="M44,296.6769 C44,336.9569 44,410.8969 44,451.0669" fill="none" id="SolicitandoDatosGrado-to-CreandoGrado" style="stroke:#008000;stroke-width:1;"/><polygon fill="#008000" points="44,457.0669,48,448.0669,44,452.0669,40,448.0669,44,457.0669" style="stroke:#008000;stroke-width:1;"/><path d="M49,319.2969 L49,434.2969 L435,434.2969 L435,329.2969 L425,319.2969 L49,319.2969" fill="#FEFFDD" style="stroke:#181818;stroke-width:0.5;"/><path d="M425,319.2969 L425,329.2969 L435,329.2969 L425,319.2969" fill="#FEFFDD" style="stroke:#181818;stroke-width:0.5;"/><text fill="#000000" font-family="sans-serif" font-size="13" font-weight="bold" lengthAdjust="spacing" textLength="58.9063" x="55" y="336.3638">Sistema</text><text fill="#000000" font-family="sans-serif" font-size="13" lengthAdjust="spacing" textLength="302.1992" x="118.0386" y="336.3638">presenta solicitud de datos m&#237;nimos del grado</text><text fill="#000000" font-family="sans-serif" font-size="13" lengthAdjust="spacing" textLength="147.6211" x="55" y="351.4966">&#8226; Nombre (obligatorio)</text><text fill="#000000" font-family="sans-serif" font-size="13" lengthAdjust="spacing" textLength="140.7847" x="55" y="366.6294">&#8226; C&#243;digo (obligatorio)</text><text fill="#000000" font-family="sans-serif" font-size="13" lengthAdjust="spacing" textLength="138.582" x="55" y="381.7622">&#8226; Alumnos enlistados</text><text fill="#000000" font-family="sans-serif" font-size="13" lengthAdjust="spacing" textLength="4.1323" x="55" y="396.895">&#160;</text><text fill="#000000" font-family="sans-serif" font-size="13" lengthAdjust="spacing" textLength="197.4375" x="55" y="412.0278">&#8226; Permite solicitar crear grado</text><text fill="#000000" font-family="sans-serif" font-size="13" lengthAdjust="spacing" textLength="258.3179" x="55" y="427.1606">&#8226; Permite solicitar cancelar cancelaci&#243;n</text></g><!--link CreandoGrado to *end*crearGrado--><g class="link" data-entity-1="CreandoGrado" data-entity-2=".end.crearGrado" data-source-line="27" data-uid="lnk6" id="link_CreandoGrado_.end.crearGrado"><path d="M44,507.5769 C44,533.8769 44,568.5669 44,587.2769" fill="none" id="CreandoGrado-to-*end*crearGrado" style="stroke:#008000;stroke-width:1;"/><polygon fill="#008000" points="44,593.2769,48,584.2769,44,588.2769,40,584.2769,44,593.2769" style="stroke:#008000;stroke-width:1;"/><path d="M49,530.2969 L49,570.2969 L345,570.2969 L345,540.2969 L335,530.2969 L49,530.2969" fill="#FEFFDD" style="stroke:#181818;stroke-width:0.5;"/><path d="M335,530.2969 L335,540.2969 L345,540.2969 L335,530.2969" fill="#FEFFDD" style="stroke:#181818;stroke-width:0.5;"/><text fill="#000000" font-family="sans-serif" font-size="13" font-weight="bold" lengthAdjust="spacing" textLength="60.5313" x="55" y="547.3638">Docente</text><text fill="#000000" font-family="sans-serif" font-size="13" lengthAdjust="spacing" textLength="177.8423" x="119.6636" y="547.3638">proporciona datos m&#237;nimos</text><text fill="#000000" font-family="sans-serif" font-size="13" font-weight="bold" lengthAdjust="spacing" textLength="58.9063" x="55" y="562.4966">Sistema</text><text fill="#000000" font-family="sans-serif" font-size="13" lengthAdjust="spacing" textLength="212.3101" x="118.0386" y="562.4966">crea grado y transfiere a edici&#243;n</text></g><g id="GRADO_ABIERTO"><rect fill="#F1F1F1" height="50" rx="12.5" ry="12.5" style="stroke:#181818;stroke-width:0.5;" width="140.4082" x="248.5" y="720"/><line style="stroke:#181818;stroke-width:0.5;" x1="248.5" x2="388.9082" y1="746.2969" y2="746.2969"/><text fill="#000000" font-family="sans-serif" font-size="14" lengthAdjust="spacing" textLength="120.4082" x="258.5" y="737.9951">GRADO_ABIERTO</text></g><!--link GRADOS_ABIERTO to crearGrado--><g class="link" data-entity-1="GRADOS_ABIERTO" data-entity-2="crearGrado" data-source-line="34" data-uid="lnk7" id="link_GRADOS_ABIERTO_crearGrado"><path d="M225.5,57 C225.5,72.14 225.5,87.41 225.5,111.83" fill="none" id="GRADOS_ABIERTO-to-crearGrado" style="stroke:#008000;stroke-width:1;"/><polygon fill="#008000" points="225.5,117.83,229.5,108.83,225.5,112.83,221.5,108.83,225.5,117.83" style="stroke:#008000;stroke-width:1;"/></g><!--link crearGrado to GRADO_ABIERTO--><g class="link" data-entity-1="crearGrado" data-entity-2="GRADO_ABIERTO" data-source-line="36" data-uid="lnk9" id="link_crearGrado_GRADO_ABIERTO"><path d="M288.75,625.18 C298.42,663.79 305.511,692.1301 310.941,713.7901" fill="none" id="crearGrado-to-GRADO_ABIERTO" style="stroke:#008000;stroke-width:1;"/><polygon fill="#008000" points="312.4,719.61,314.0914,709.9075,311.1842,714.7601,306.3316,711.8528,312.4,719.61" style="stroke:#008000;stroke-width:1;"/><path d="M307.5,660 L307.5,685 L495.5,685 L495.5,670 L485.5,660 L307.5,660" fill="#FEFFDD" style="stroke:#181818;stroke-width:0.5;"/><path d="M485.5,660 L485.5,670 L495.5,670 L485.5,660" fill="#FEFFDD" style="stroke:#181818;stroke-width:0.5;"/><text fill="#000000" font-family="sans-serif" font-size="13" lengthAdjust="spacing" textLength="167.3813" x="313.5" y="677.0669">editarGrado(gradoNuevo)</text></g><!--link crearGrado to GRADOS_ABIERTO2--><g class="link" data-entity-1="crearGrado" data-entity-2="GRADOS_ABIERTO2" data-source-line="41" data-uid="lnk10" id="link_crearGrado_GRADOS_ABIERTO2"><path d="M140.58,625.04 C134.38,643.46 130.5,655 130.5,655 C130.5,655 130.5,690 130.5,690 C130.5,690 131.0265,699.4793 131.8265,713.8493" fill="none" id="crearGrado-to-GRADOS_ABIERTO2" style="stroke:#0000FF;stroke-width:1;"/><polygon fill="#0000FF" points="132.16,719.84,135.6535,710.6316,131.8821,714.8477,127.6659,711.0763,132.16,719.84" style="stroke:#0000FF;stroke-width:1;"/><path d="M135.5,660 L135.5,685 L270.5,685 L270.5,670 L260.5,660 L135.5,660" fill="#FEFFDD" style="stroke:#181818;stroke-width:0.5;"/><path d="M260.5,660 L260.5,670 L270.5,670 L260.5,660" fill="#FEFFDD" style="stroke:#181818;stroke-width:0.5;"/><text fill="#000000" font-family="sans-serif" font-size="13" lengthAdjust="spacing" textLength="114.9624" x="141.5" y="677.0669">cancelar creaci&#243;n</text></g><!--SRC=[ZLFDQW8n4BxdAGPxqO8KUXR1Qf5Uj6Xl8YMxcKemcon9B4Wfz5bwxyb7y4tw99tDkdzsBSt2acI- -VBDbudRIfroonDGKgFVfmYfKVjimPZpt2DC5wF9VFaykdkuNppDMpTlWJleDFSwHNviaTkfvS84LBNizZhmnXZGo94T-WYoD4h6qdCjp8HxumBuDsnCH0J9eo6ykbv3VtMriOXwtH-s4q60QaD4HcTLRyF681fEJ8pQu-0c6e8xfURgOHCozGvVSo6eHKv1WvM_zlFgYXgQB-bOIkSnuK57Qj6HA5u8sWaG229ZX-JufML24u4gLnWOlZy-OMQIo29qJQJaXi1McbuP71yFGcxCXUX8xH9DfAWLwI1ILnMOnH_H9f945mxPkaL_eRYEKLMJM1uFkc5cTKxTfeP_TCF_khxKcjJOM1hDpyngCpahu7J5U_2MQ_SYaUpZW4Asw7ndhDdh3OrLWpDMw_qw96INBwfH39teY_SH9Csofkknyl0ppaZjiAIi7cIJjFAUSlE22huV]--></g></svg>