<svg xmlns="http://www.w3.org/2000/svg" xmlns:xlink="http://www.w3.org/1999/xlink" contentStyleType="text/css" data-diagram-type="STATE" height="911px" preserveAspectRatio="none" style="width:1126px;height:911px;background:#FFFFFF;" version="1.1" viewBox="0 0 1126 911" width="1126px" zoomAndPan="magnify"><defs/><g><path d="M19.5,117 L1100.7295,117 A12.5,12.5 0 0 1 1113.2295,129.5 L1113.2295,143.2969 L7,143.2969 L7,129.5 A12.5,12.5 0 0 1 19.5,117" fill="#F1F1F1"/><rect fill="none" height="678.2969" rx="12.5" ry="12.5" style="stroke:#181818;stroke-width:0.5;" width="1106.2295" x="7" y="117"/><line style="stroke:#181818;stroke-width:0.5;" x1="7" x2="1113.2295" y1="143.2969" y2="143.2969"/><text fill="#000000" font-family="sans-serif" font-size="14" lengthAdjust="spacing" textLength="138.585" x="490.8223" y="134.9951">corregirExamenes()</text><g id="corregirExamenes.RequiringCorrection"><rect fill="#F1F1F1" height="50" rx="12.5" ry="12.5" style="stroke:#181818;stroke-width:0.5;" width="50" x="385.2295" y="245.2969"/><line style="stroke:#181818;stroke-width:0.5;" x1="385.2295" x2="435.2295" y1="271.5938" y2="271.5938"/><text fill="#000000" font-family="sans-serif" font-size="14" lengthAdjust="spacing" textLength="4.4502" x="408.0044" y="263.292">&#160;</text></g><g id="corregirExamenes.ProvidingDoneExams"><rect fill="#F1F1F1" height="50" rx="12.5" ry="12.5" style="stroke:#181818;stroke-width:0.5;" width="50" x="385.2295" y="396.2969"/><line style="stroke:#181818;stroke-width:0.5;" x1="385.2295" x2="435.2295" y1="422.5938" y2="422.5938"/><text fill="#000000" font-family="sans-serif" font-size="14" lengthAdjust="spacing" textLength="4.4502" x="408.0044" y="414.292">&#160;</text></g><g id="corregirExamenes.ProvidingConfirmation"><rect fill="#F1F1F1" height="50" rx="12.5" ry="12.5" style="stroke:#181818;stroke-width:0.5;" width="50" x="919.2295" y="517.2969"/><line style="stroke:#181818;stroke-width:0.5;" x1="919.2295" x2="969.2295" y1="543.5938" y2="543.5938"/><text fill="#000000" font-family="sans-serif" font-size="14" lengthAdjust="spacing" textLength="4.4502" x="942.0044" y="535.292">&#160;</text></g><g class="entity" data-entity="c" data-uid="ent0006" id="entity_c"><polygon fill="#F1F1F1" points="410.2295,668.2969,422.2295,680.2969,410.2295,692.2969,398.2295,680.2969,410.2295,668.2969" style="stroke:#181818;stroke-width:0.5;"/></g><ellipse cx="410.2295" cy="164.2969" fill="#222222" rx="10" ry="10" style="stroke:#222222;stroke-width:1;"/><ellipse cx="29.2295" cy="774.2969" fill="none" rx="11" ry="11" style="stroke:#222222;stroke-width:1;"/><ellipse cx="29.2295" cy="774.2969" fill="#222222" rx="6" ry="6" style="stroke:#222222;stroke-width:1;"/><!--link *start*corregirExamenes to RequiringCorrection--><g class="link" data-entity-1=".start.corregirExamenes" data-entity-2="RequiringCorrection" data-source-line="10" data-uid="lnk3" id="link_.start.corregirExamenes_RequiringCorrection"><path d="M410.2295,174.5269 C410.2295,190.2369 410.2295,216.6569 410.2295,239.1669" fill="none" id="*start*corregirExamenes-to-RequiringCorrection" style="stroke:#008000;stroke-width:1;"/><polygon fill="#008000" points="410.2295,245.1669,414.2295,236.1669,410.2295,240.1669,406.2295,236.1669,410.2295,245.1669" style="stroke:#008000;stroke-width:1;"/><path d="M415.2295,197.2969 L415.2295,222.2969 L673.2295,222.2969 L673.2295,207.2969 L663.2295,197.2969 L415.2295,197.2969" fill="#FEFFDD" style="stroke:#181818;stroke-width:0.5;"/><path d="M663.2295,197.2969 L663.2295,207.2969 L673.2295,207.2969 L663.2295,197.2969" fill="#FEFFDD" style="stroke:#181818;stroke-width:0.5;"/><text fill="#000000" font-family="sans-serif" font-size="13" font-weight="bold" lengthAdjust="spacing" textLength="60.5313" x="421.2295" y="214.3638">Docente</text><text fill="#000000" font-family="sans-serif" font-size="13" lengthAdjust="spacing" textLength="172.3643" x="485.8931" y="214.3638">solicita corregir ex&#225;menes</text></g><!--link RequiringCorrection to ProvidingDoneExams--><g class="link" data-entity-1="RequiringCorrection" data-entity-2="ProvidingDoneExams" data-source-line="15" data-uid="lnk4" id="link_RequiringCorrection_ProvidingDoneExams"><path d="M410.2295,295.5669 C410.2295,323.2769 410.2295,362.3369 410.2295,390.0369" fill="none" id="RequiringCorrection-to-ProvidingDoneExams" style="stroke:#008000;stroke-width:1;"/><polygon fill="#008000" points="410.2295,396.0369,414.2295,387.0369,410.2295,391.0369,406.2295,387.0369,410.2295,396.0369" style="stroke:#008000;stroke-width:1;"/><path d="M415.2295,318.2969 L415.2295,373.2969 L652.2295,373.2969 L652.2295,328.2969 L642.2295,318.2969 L415.2295,318.2969" fill="#FEFFDD" style="stroke:#181818;stroke-width:0.5;"/><path d="M642.2295,318.2969 L642.2295,328.2969 L652.2295,328.2969 L642.2295,318.2969" fill="#FEFFDD" style="stroke:#181818;stroke-width:0.5;"/><text fill="#000000" font-family="sans-serif" font-size="13" font-weight="bold" lengthAdjust="spacing" textLength="58.9063" x="421.2295" y="335.3638">Sistema</text><text fill="#000000" font-family="sans-serif" font-size="13" lengthAdjust="spacing" textLength="50.9653" x="484.2681" y="335.3638">permite</text><text fill="#000000" font-family="sans-serif" font-size="13" lengthAdjust="spacing" textLength="216.5376" x="421.2295" y="350.4966">&#8226; introducir ex&#225;menes realizados</text><text fill="#000000" font-family="sans-serif" font-size="13" lengthAdjust="spacing" textLength="131.5107" x="421.2295" y="365.6294">&#8226; salir de correcci&#243;n</text></g><!--link ProvidingDoneExams to ProvidingConfirmation--><g class="link" data-entity-1="ProvidingDoneExams" data-entity-2="ProvidingConfirmation" data-source-line="22" data-uid="lnk5" id="link_ProvidingDoneExams_ProvidingConfirmation"><path d="M435.4595,427.1369 C536.3295,446.4969 905.2295,517.2969 905.2295,517.2969 C905.2295,517.2969 906.3082,517.9646 913.7582,522.5446" fill="none" id="ProvidingDoneExams-to-ProvidingConfirmation" style="stroke:#008000;stroke-width:1;"/><polygon fill="#008000" points="918.8695,525.6869,913.2973,517.5659,914.6101,523.0683,909.1076,524.381,918.8695,525.6869" style="stroke:#008000;stroke-width:1;"/><path d="M815.2295,469.2969 L815.2295,494.2969 L1104.2295,494.2969 L1104.2295,479.2969 L1094.2295,469.2969 L815.2295,469.2969" fill="#FEFFDD" style="stroke:#181818;stroke-width:0.5;"/><path d="M1094.2295,469.2969 L1094.2295,479.2969 L1104.2295,479.2969 L1094.2295,469.2969" fill="#FEFFDD" style="stroke:#181818;stroke-width:0.5;"/><text fill="#000000" font-family="sans-serif" font-size="13" font-weight="bold" lengthAdjust="spacing" textLength="60.5313" x="821.2295" y="486.3638">Docente</text><text fill="#000000" font-family="sans-serif" font-size="13" lengthAdjust="spacing" textLength="203.7788" x="885.8931" y="486.3638">introduce ex&#225;menes realizados</text></g><!--link ProvidingConfirmation to c--><g class="link" data-entity-1="ProvidingConfirmation" data-entity-2="c" data-source-line="27" data-uid="lnk6" id="link_ProvidingConfirmation_c"><path d="M918.8695,558.9069 C911.4195,563.4869 905.2295,567.2969 905.2295,567.2969 C905.2295,567.2969 548.2295,650.2969 548.2295,650.2969 C548.2295,650.2969 456.7609,669.5112 425.5909,676.0712" fill="none" id="ProvidingConfirmation-to-c" style="stroke:#008000;stroke-width:1;"/><polygon fill="#008000" points="419.7195,677.3069,429.3504,679.3676,424.6123,676.2771,427.7028,671.5391,419.7195,677.3069" style="stroke:#008000;stroke-width:1;"/><path d="M823.2295,590.2969 L823.2295,645.2969 L990.2295,645.2969 L990.2295,600.2969 L980.2295,590.2969 L823.2295,590.2969" fill="#FEFFDD" style="stroke:#181818;stroke-width:0.5;"/><path d="M980.2295,590.2969 L980.2295,600.2969 L990.2295,600.2969 L980.2295,590.2969" fill="#FEFFDD" style="stroke:#181818;stroke-width:0.5;"/><text fill="#000000" font-family="sans-serif" font-size="13" font-weight="bold" lengthAdjust="spacing" textLength="58.9063" x="829.2295" y="607.3638">Sistema</text><text fill="#000000" font-family="sans-serif" font-size="13" lengthAdjust="spacing" textLength="50.9653" x="892.2681" y="607.3638">permite</text><text fill="#000000" font-family="sans-serif" font-size="13" lengthAdjust="spacing" textLength="146.6689" x="829.2295" y="622.4966">&#8226; confirmar correcci&#243;n</text><text fill="#000000" font-family="sans-serif" font-size="13" lengthAdjust="spacing" textLength="139.2422" x="829.2295" y="637.6294">&#8226; cancelar correcci&#243;n</text></g><!--link c to ProvidingDoneExams--><g class="link" data-entity-1="c" data-entity-2="ProvidingDoneExams" data-source-line="34" data-uid="lnk7" id="link_c_ProvidingDoneExams"><path d="M404.6695,673.5869 C382.4595,650.7669 301.2295,567.2969 301.2295,567.2969 C301.2295,567.2969 301.2295,517.2969 301.2295,517.2969 C301.2295,517.2969 348.5166,476.0793 380.6966,448.0293" fill="none" id="c-to-ProvidingDoneExams" style="stroke:#FF0000;stroke-width:1;"/><polygon fill="#FF0000" points="385.2195,444.0869,375.8068,446.9853,381.4504,447.3723,381.0634,453.0159,385.2195,444.0869" style="stroke:#FF0000;stroke-width:1;"/><path d="M306.2295,529.7969 L306.2295,554.7969 L507.2295,554.7969 L507.2295,539.7969 L497.2295,529.7969 L306.2295,529.7969" fill="#FEFFDD" style="stroke:#181818;stroke-width:0.5;"/><path d="M497.2295,529.7969 L497.2295,539.7969 L507.2295,539.7969 L497.2295,529.7969" fill="#FEFFDD" style="stroke:#181818;stroke-width:0.5;"/><text fill="#000000" font-family="sans-serif" font-size="13" lengthAdjust="spacing" textLength="180.6733" x="312.2295" y="546.8638">Docente cancela correcci&#243;n</text></g><!--link c to ProvidingDoneExams--><g class="link" data-entity-1="c" data-entity-2="ProvidingDoneExams" data-source-line="39" data-uid="lnk8" id="link_c_ProvidingDoneExams"><path d="M415.7095,673.2769 C436.8995,650.0069 512.2295,567.2969 512.2295,567.2969 C512.2295,567.2969 512.2295,517.2969 512.2295,517.2969 C512.2295,517.2969 470.0399,478.0064 439.8299,449.8664" fill="none" id="c-to-ProvidingDoneExams-1" style="stroke:#FF0000;stroke-width:1;"/><polygon fill="#FF0000" points="435.4395,445.7769,439.2987,454.8381,439.0982,449.1848,444.7515,448.9843,435.4395,445.7769" style="stroke:#FF0000;stroke-width:1;"/><path d="M517.2295,529.7969 L517.2295,554.7969 L874.2295,554.7969 L874.2295,539.7969 L864.2295,529.7969 L517.2295,529.7969" fill="#FEFFDD" style="stroke:#181818;stroke-width:0.5;"/><path d="M864.2295,529.7969 L864.2295,539.7969 L874.2295,539.7969 L864.2295,529.7969" fill="#FEFFDD" style="stroke:#181818;stroke-width:0.5;"/><text fill="#000000" font-family="sans-serif" font-size="13" lengthAdjust="spacing" textLength="336.6987" x="523.2295" y="546.8638">Docente confirma correcci&#243;n: error en la correcci&#243;n</text></g><!--link c to *end*corregirExamenes--><g class="link" data-entity-1="c" data-entity-2=".end.corregirExamenes" data-source-line="44" data-uid="lnk10" id="link_c_.end.corregirExamenes"><path d="M401.1895,683.4769 C349.7995,695.8869 100.7418,756.0282 45.5918,769.3482" fill="none" id="c-to-*end*corregirExamenes" style="stroke:#008000;stroke-width:1;"/><polygon fill="#008000" points="39.7595,770.7569,49.4471,772.5321,44.6198,769.583,47.5689,764.7557,39.7595,770.7569" style="stroke:#008000;stroke-width:1;"/><path d="M292.2295,715.2969 L292.2295,740.2969 L628.2295,740.2969 L628.2295,725.2969 L618.2295,715.2969 L292.2295,715.2969" fill="#FEFFDD" style="stroke:#181818;stroke-width:0.5;"/><path d="M618.2295,715.2969 L618.2295,725.2969 L628.2295,725.2969 L618.2295,715.2969" fill="#FEFFDD" style="stroke:#181818;stroke-width:0.5;"/><text fill="#000000" font-family="sans-serif" font-size="13" lengthAdjust="spacing" textLength="315.7261" x="298.2295" y="732.3638">Docente confirma correcci&#243;n: correcci&#243;n exitosa</text></g><!--link ProvidingDoneExams to *end*corregirExamenes--><g class="link" data-entity-1="ProvidingDoneExams" data-entity-2=".end.corregirExamenes" data-source-line="49" data-uid="lnk11" id="link_ProvidingDoneExams_.end.corregirExamenes"><path d="M385.0495,433.8869 C304.1795,471.1269 56.2295,585.2969 56.2295,585.2969 C56.2295,585.2969 37.1427,718.1978 31.5327,757.2478" fill="none" id="ProvidingDoneExams-to-*end*corregirExamenes" style="stroke:#0000FF;stroke-width:1;"/><polygon fill="#0000FF" points="30.6795,763.1869,35.9187,754.8471,31.3905,758.2377,28,753.7095,30.6795,763.1869" style="stroke:#0000FF;stroke-width:1;"/><path d="M61.2295,605.2969 L61.2295,630.2969 L310.2295,630.2969 L310.2295,615.2969 L300.2295,605.2969 L61.2295,605.2969" fill="#FEFFDD" style="stroke:#181818;stroke-width:0.5;"/><path d="M300.2295,605.2969 L300.2295,615.2969 L310.2295,615.2969 L300.2295,605.2969" fill="#FEFFDD" style="stroke:#181818;stroke-width:0.5;"/><text fill="#000000" font-family="sans-serif" font-size="13" lengthAdjust="spacing" textLength="228.1919" x="67.2295" y="622.3638">Docente solicita salir de correcci&#243;n</text></g><g id="SISTEMA_DISPONIBLE"><rect fill="#F1F1F1" height="50" rx="12.5" ry="12.5" style="stroke:#181818;stroke-width:0.5;" width="172.0654" x="474" y="7"/><line style="stroke:#181818;stroke-width:0.5;" x1="474" x2="646.0654" y1="33.2969" y2="33.2969"/><text fill="#000000" font-family="sans-serif" font-size="14" lengthAdjust="spacing" textLength="152.0654" x="484" y="24.9951">SISTEMA_DISPONIBLE</text></g><g id="EXAMENES_CORREGIDOS"><rect fill="#F1F1F1" height="50" rx="12.5" ry="12.5" style="stroke:#181818;stroke-width:0.5;" width="198.9033" x="460.5" y="855"/><line style="stroke:#181818;stroke-width:0.5;" x1="460.5" x2="659.4033" y1="881.2969" y2="881.2969"/><text fill="#000000" font-family="sans-serif" font-size="14" lengthAdjust="spacing" textLength="178.9033" x="470.5" y="872.9951">EXAMENES_CORREGIDOS</text></g><!--link SISTEMA_DISPONIBLE to corregirExamenes--><g class="link" data-entity-1="SISTEMA_DISPONIBLE" data-entity-2="corregirExamenes" data-source-line="55" data-uid="lnk13" id="link_SISTEMA_DISPONIBLE_corregirExamenes"><path d="M560,57.2 C560,71.92 560,86.51 560,110.65" fill="none" id="SISTEMA_DISPONIBLE-to-corregirExamenes" style="stroke:#008000;stroke-width:1;"/><polygon fill="#008000" points="560,116.65,564,107.65,560,111.65,556,107.65,560,116.65" style="stroke:#008000;stroke-width:1;"/></g><!--link corregirExamenes to EXAMENES_CORREGIDOS--><g class="link" data-entity-1="corregirExamenes" data-entity-2="EXAMENES_CORREGIDOS" data-source-line="57" data-uid="lnk15" id="link_corregirExamenes_EXAMENES_CORREGIDOS"><path d="M560,795.12 C560,819.4 560,834.1 560,848.86" fill="none" id="corregirExamenes-to-EXAMENES_CORREGIDOS" style="stroke:#008000;stroke-width:1;"/><polygon fill="#008000" points="560,854.86,564,845.86,560,849.86,556,845.86,560,854.86" style="stroke:#008000;stroke-width:1;"/></g><!--SRC=[fPJTIiCm5CVlynHXtgWml9TIc6kHWVjWzK8OGxBqE0zhavfaiYc2hwAlu2FiJNmIqswhtRfFJQ6Gv9_p_-MS97g48c6AnJH20MQQ04raD4qxX6Z3350kbO8XAd_2OX2WATEqiZvuUbQXhuHGs-QhAlQpmYuyZL6X6DRJ1ToW56LHHybd3At8amBIY7g7fYx50wgOhONYr77ueqGEhZldw9ttQRLtCbG0ebzrjw88QPTBaIPWb0qu0zUJ78G1vsBWKYqZv6XOdWWAazb7jkjC3YASnx2DvByDRYiqM_Qy2IP0RI1c6Km2AaOhoUQ-tpyf2gDaEEP5BAg0HVZ2GgbpdROZYeQBSdAEio-nWl-BNaRRJ5wgnBvCBbbXE-eEcgBT2X0_9dDvGlWYd2fb99jbWaEqOR8Co5CO1U4nLLraPMcptUN_3ejj5YqkAIWbxO6n-eEyyrJRE_KNkqB7bXwDrEoeipU8nd2GVNvNzn_tDqA2Hd3hDsltNYFej5kDgnj_zLojlN64b9x2ejo_gpNzbX_SrzlThd_TyDh13m00]--></g></svg>