<svg xmlns="http://www.w3.org/2000/svg" xmlns:xlink="http://www.w3.org/1999/xlink" contentStyleType="text/css" data-diagram-type="DESCRIPTION" height="523px" preserveAspectRatio="none" style="width:1080px;height:523px;background:#FFFFFF;" version="1.1" viewBox="0 0 1080 523" width="1080px" zoomAndPan="magnify"><defs/><g><!--cluster eliminarRespuesta--><g class="cluster" data-entity="eliminarRespuesta" data-source-line="9" data-uid="ent0007" id="cluster_eliminarRespuesta"><path d="M8.5,106 L169.6592,106 A3.75,3.75 0 0 1 172.1592,108.5 L179.1592,128.2969 L743.5,128.2969 A2.5,2.5 0 0 1 746,130.7969 L746,513.5 A2.5,2.5 0 0 1 743.5,516 L8.5,516 A2.5,2.5 0 0 1 6,513.5 L6,108.5 A2.5,2.5 0 0 1 8.5,106" fill="none" style="stroke:#000000;stroke-width:1.5;"/><line style="stroke:#000000;stroke-width:1.5;" x1="6" x2="179.1592" y1="128.2969" y2="128.2969"/><text fill="#000000" font-family="sans-serif" font-size="14" font-weight="bold" lengthAdjust="spacing" textLength="160.1592" x="10" y="120.9951">eliminarRespuesta()</text></g><!--entity EliminarRespuestaView--><g class="entity" data-entity="EliminarRespuestaView" data-source-line="10" data-uid="ent0008" id="entity_EliminarRespuestaView"><rect fill="#629EF9" height="36.2969" rx="2.5" ry="2.5" style="stroke:#181818;stroke-width:0.5;" width="184.2607" x="388" y="141"/><text fill="#000000" font-family="sans-serif" font-size="14" lengthAdjust="spacing" textLength="164.2607" x="398" y="163.9951">EliminarRespuestaView</text></g><!--entity RespuestasController--><g class="entity" data-entity="RespuestasController" data-source-line="11" data-uid="ent0009" id="entity_RespuestasController"><rect fill="#B5BD68" height="36.2969" rx="2.5" ry="2.5" style="stroke:#181818;stroke-width:0.5;" width="169.8369" x="143" y="254"/><text fill="#000000" font-family="sans-serif" font-size="14" lengthAdjust="spacing" textLength="149.8369" x="153" y="276.9951">RespuestasController</text></g><!--entity RespuestaRepository--><g class="entity" data-entity="RespuestaRepository" data-source-line="12" data-uid="ent0010" id="entity_RespuestaRepository"><rect fill="#F2AC4E" height="36.2969" rx="2.5" ry="2.5" style="stroke:#181818;stroke-width:0.5;" width="168.4424" x="245" y="367"/><text fill="#000000" font-family="sans-serif" font-size="14" lengthAdjust="spacing" textLength="148.4424" x="255" y="389.9951">RespuestaRepository</text></g><!--entity Respuesta--><g class="entity" data-entity="Respuesta" data-source-line="13" data-uid="ent0011" id="entity_Respuesta"><rect fill="#F2AC4E" height="36.2969" rx="2.5" ry="2.5" style="stroke:#181818;stroke-width:0.5;" width="93.3701" x="201.5" y="464"/><text fill="#000000" font-family="sans-serif" font-size="14" lengthAdjust="spacing" textLength="73.3701" x="211.5" y="486.9951">Respuesta</text></g><!--entity Pregunta--><g class="entity" data-entity="Pregunta" data-source-line="14" data-uid="ent0012" id="entity_Pregunta"><rect fill="#F2AC4E" height="36.2969" rx="2.5" ry="2.5" style="stroke:#181818;stroke-width:0.5;" width="83.5127" x="126" y="367"/><text fill="#000000" font-family="sans-serif" font-size="14" lengthAdjust="spacing" textLength="63.5127" x="136" y="389.9951">Pregunta</text></g><!--entity RespuestasAbierto--><g class="entity" data-entity="RespuestasAbierto" data-source-line="3" data-uid="ent0002" id="entity_RespuestasAbierto"><rect fill="#CDEBA5" height="36.2969" rx="2.5" ry="2.5" style="stroke:#181818;stroke-width:0.5;" width="184.0693" x="9" y="7"/><text fill="#000000" font-family="sans-serif" font-size="14" lengthAdjust="spacing" textLength="164.0693" x="19" y="29.9951">:RESPUESTAS_ABIERTO</text></g><!--entity RespuestaAbierto--><g class="entity" data-entity="RespuestaAbierto" data-source-line="4" data-uid="ent0003" id="entity_RespuestaAbierto"><rect fill="#CDEBA5" height="36.2969" rx="2.5" ry="2.5" style="stroke:#181818;stroke-width:0.5;" width="175.1826" x="249.5" y="7"/><text fill="#000000" font-family="sans-serif" font-size="14" lengthAdjust="spacing" textLength="155.1826" x="259.5" y="29.9951">:RESPUESTA_ABIERTO</text></g><!--entity RespuestasContextualesAbierto--><g class="entity" data-entity="RespuestasContextualesAbierto" data-source-line="5" data-uid="ent0004" id="entity_RespuestasContextualesAbierto"><rect fill="#CDEBA5" height="36.2969" rx="2.5" ry="2.5" style="stroke:#181818;stroke-width:0.5;" width="303.2334" x="459.5" y="7"/><text fill="#000000" font-family="sans-serif" font-size="14" lengthAdjust="spacing" textLength="283.2334" x="469.5" y="29.9951">:RESPUESTAS_CONTEXTUALES_ABIERTO</text></g><!--entity RespuestaContextualAbierto--><g class="entity" data-entity="RespuestaContextualAbierto" data-source-line="6" data-uid="ent0005" id="entity_RespuestaContextualAbierto"><rect fill="#CDEBA5" height="36.2969" rx="2.5" ry="2.5" style="stroke:#181818;stroke-width:0.5;" width="276.6143" x="797.5" y="7"/><text fill="#000000" font-family="sans-serif" font-size="14" lengthAdjust="spacing" textLength="256.6143" x="807.5" y="29.9951">:RESPUESTA_CONTEXTUAL_ABIERTO</text></g><!--entity VerRespuestas--><g class="entity" data-entity="VerRespuestas" data-source-line="7" data-uid="ent0006" id="entity_VerRespuestas"><rect fill="#CDEBA5" height="36.2969" rx="2.5" ry="2.5" style="stroke:#181818;stroke-width:0.5;" width="225.7891" x="762" y="254"/><text fill="#000000" font-family="sans-serif" font-size="14" lengthAdjust="spacing" textLength="205.7891" x="772" y="276.9951">:Collaboration verRespuestas</text></g><!--link RespuestasAbierto to EliminarRespuestaView--><g class="link" data-entity-1="RespuestasAbierto" data-entity-2="EliminarRespuestaView" data-source-line="17" data-uid="lnk13" id="link_RespuestasAbierto_EliminarRespuestaView"><path d="M108.77,43.15 C117.36,62.11 130,90 130,90 C130,90 282.5701,119.6458 386.2401,139.7858" fill="none" id="RespuestasAbierto-to-EliminarRespuestaView" style="stroke:#181818;stroke-width:1;"/><polygon fill="#181818" points="392.13,140.93,384.058,135.2871,387.2218,139.9765,382.5324,143.1402,392.13,140.93" style="stroke:#181818;stroke-width:1;"/><text fill="#000000" font-family="sans-serif" font-size="13" lengthAdjust="spacing" textLength="207.8477" x="131" y="86.0669">eliminarRespuesta(respuestaId)</text></g><!--link RespuestaAbierto to EliminarRespuestaView--><g class="link" data-entity-1="RespuestaAbierto" data-entity-2="EliminarRespuestaView" data-source-line="18" data-uid="lnk14" id="link_RespuestaAbierto_EliminarRespuestaView"><path d="M340.48,43.15 C344.33,62.11 350,90 350,90 C350,90 403.3629,117.92 441.8829,138.06" fill="none" id="RespuestaAbierto-to-EliminarRespuestaView" style="stroke:#181818;stroke-width:1;"/><polygon fill="#181818" points="447.2,140.84,441.0777,133.1252,442.7691,138.5233,437.371,140.2147,447.2,140.84" style="stroke:#181818;stroke-width:1;"/><text fill="#000000" font-family="sans-serif" font-size="13" lengthAdjust="spacing" textLength="207.8477" x="351" y="86.0669">eliminarRespuesta(respuestaId)</text></g><!--link RespuestasContextualesAbierto to EliminarRespuestaView--><g class="link" data-entity-1="RespuestasContextualesAbierto" data-entity-2="EliminarRespuestaView" data-source-line="19" data-uid="lnk15" id="link_RespuestasContextualesAbierto_EliminarRespuestaView"><path d="M599.21,43.15 C586.18,62.11 567,90 567,90 C567,90 532.4582,117.0062 506.6782,137.1462" fill="none" id="RespuestasContextualesAbierto-to-EliminarRespuestaView" style="stroke:#181818;stroke-width:1;"/><polygon fill="#181818" points="501.95,140.84,511.5048,138.4514,505.8902,137.7618,506.5798,132.1472,501.95,140.84" style="stroke:#181818;stroke-width:1;"/><text fill="#000000" font-family="sans-serif" font-size="13" lengthAdjust="spacing" textLength="207.8477" x="579" y="86.0669">eliminarRespuesta(respuestaId)</text></g><!--link RespuestaContextualAbierto to EliminarRespuestaView--><g class="link" data-entity-1="RespuestaContextualAbierto" data-entity-2="EliminarRespuestaView" data-source-line="20" data-uid="lnk16" id="link_RespuestaContextualAbierto_EliminarRespuestaView"><path d="M898.21,43.15 C856.45,62.11 795,90 795,90 C795,90 658.2549,119.5241 564.9449,139.6641" fill="none" id="RespuestaContextualAbierto-to-EliminarRespuestaView" style="stroke:#181818;stroke-width:1;"/><polygon fill="#181818" points="559.08,140.93,568.7213,142.9411,563.9675,139.8751,567.0335,135.1212,559.08,140.93" style="stroke:#181818;stroke-width:1;"/><text fill="#000000" font-family="sans-serif" font-size="13" lengthAdjust="spacing" textLength="207.8477" x="831" y="86.0669">eliminarRespuesta(respuestaId)</text></g><!--link EliminarRespuestaView to RespuestasController--><g class="link" data-entity-1="EliminarRespuestaView" data-entity-2="RespuestasController" data-source-line="22" data-uid="lnk17" id="link_EliminarRespuestaView_RespuestasController"><path d="M387.83,170.17 C262.57,183.99 54,207 54,207 C54,207 54,224 54,224 C54,224 109.1476,238.8952 158.8976,252.3352" fill="none" id="EliminarRespuestaView-to-RespuestasController" style="stroke:#181818;stroke-width:1;"/><polygon fill="#181818" points="164.69,253.9,157.0447,247.6912,159.863,252.596,154.9583,255.4144,164.69,253.9" style="stroke:#181818;stroke-width:1;"/><text fill="#000000" font-family="sans-serif" font-size="13" lengthAdjust="spacing" textLength="381.583" x="55" y="220.0669">cargarRespuestaParaEliminacion(respuestaId) : Respuesta</text></g><!--link EliminarRespuestaView to RespuestasController--><g class="link" data-entity-1="EliminarRespuestaView" data-entity-2="RespuestasController" data-source-line="28" data-uid="lnk20" id="link_EliminarRespuestaView_RespuestasController"><path d="M469.55,177.15 C458,196.11 441,224 441,224 C441,224 372.0189,239.2164 311.0589,252.6764" fill="none" id="EliminarRespuestaView-to-RespuestasController-1" style="stroke:#181818;stroke-width:1;"/><polygon fill="#181818" points="305.2,253.97,314.8508,255.9355,310.0824,252.892,313.1259,248.1236,305.2,253.97" style="stroke:#181818;stroke-width:1;"/><text fill="#000000" font-family="sans-serif" font-size="13" lengthAdjust="spacing" textLength="248.0029" x="452" y="220.0669">eliminarRespuesta(respuestaId) : void</text></g><!--link RespuestasController to RespuestaRepository--><g class="link" data-entity-1="RespuestasController" data-entity-2="RespuestaRepository" data-source-line="24" data-uid="lnk18" id="link_RespuestasController_RespuestaRepository"><path d="M195.25,290.1 C169.52,303.54 138,320 138,320 C138,320 138,337 138,337 C138,337 199.284,352.0754 253.944,365.5354" fill="none" id="RespuestasController-to-RespuestaRepository" style="stroke:#181818;stroke-width:1;"/><polygon fill="#181818" points="259.77,366.97,251.9875,360.9341,254.915,365.7745,250.0746,368.702,259.77,366.97" style="stroke:#181818;stroke-width:1;"/><text fill="#000000" font-family="sans-serif" font-size="13" lengthAdjust="spacing" textLength="251.5513" x="139" y="333.0669">obtenerPorId(respuestaId) : Respuesta</text></g><!--link RespuestasController to RespuestaRepository--><g class="link" data-entity-1="RespuestasController" data-entity-2="RespuestaRepository" data-source-line="30" data-uid="lnk21" id="link_RespuestasController_RespuestaRepository"><path d="M288.76,290.1 C336.51,303.54 395,320 395,320 C395,320 395,337 395,337 C395,337 376.927,349.869 358.087,363.289" fill="none" id="RespuestasController-to-RespuestaRepository-1" style="stroke:#181818;stroke-width:1;"/><polygon fill="#181818" points="353.2,366.77,362.8511,364.8064,357.2725,363.8691,358.2097,358.2905,353.2,366.77" style="stroke:#181818;stroke-width:1;"/><text fill="#000000" font-family="sans-serif" font-size="13" lengthAdjust="spacing" textLength="179.8735" x="396" y="333.0669">eliminar(respuestaId) : void</text></g><!--link RespuestaRepository to Respuesta--><g class="link" data-entity-1="RespuestaRepository" data-entity-2="Respuesta" data-source-line="26" data-uid="lnk19" id="link_RespuestaRepository_Respuesta"><path d="M314.14,403.42 C299.53,420.57 277.34,446.58 262.76,463.69" fill="none" id="RespuestaRepository-Respuesta" style="stroke:#181818;stroke-width:1;"/></g><!--link EliminarRespuestaView to VerRespuestas--><g class="link" data-entity-1="EliminarRespuestaView" data-entity-2="VerRespuestas" data-source-line="32" data-uid="lnk22" id="link_EliminarRespuestaView_VerRespuestas"><path d="M563,177.03 C628.53,190.49 709,207 709,207 C709,207 775.7416,232.7317 824.9216,251.6917" fill="none" id="EliminarRespuestaView-to-VerRespuestas" style="stroke:#181818;stroke-width:1;stroke-dasharray:7,7;"/><polygon fill="#181818" points="830.52,253.85,823.5613,246.8803,825.8547,252.0514,820.6836,254.3448,830.52,253.85" style="stroke:#181818;stroke-width:1;"/><text fill="#000000" font-family="sans-serif" font-size="13" lengthAdjust="spacing" textLength="173.2212" x="751" y="220.0669">&#171;include&#187; verRespuestas()</text></g><!--link Pregunta to Respuesta--><g class="link" data-entity-1="Pregunta" data-entity-2="Respuesta" data-source-line="34" data-uid="lnk23" id="link_Pregunta_Respuesta"><path d="M182.67,403.42 C197.11,420.57 219.02,446.58 233.42,463.69" fill="none" id="Pregunta-Respuesta" style="stroke:#181818;stroke-width:1;"/></g><!--SRC=[hPHRQy8m5CVVyoaExaKVz46cp2A5saKGnfHwOM-IjWS9rgIaqKt6llkYJ7enEiViKvlpFx-SQxCr5obJR0C95wZtAK8ga_tXWn25aMPYbI0y-Czqu7MWvWHqEfdJwSoRBht1Y0QpSGrO1W5cwHOppJ8lvAYqlEvizxt9TRhqnwyp-ZQRUo_qKX2-51e_z9ObU6D0ETIEp8dNUBvC4XPAnJIN0dQeyf2Ek4NnX92KHMksGi24RxXWkUsWhPsTrXir-2HWdiBTtNQF3dj0g-85n_UgDko4SVUfKYTbOaPLbGxRdlz8Ssc0gSoubch_c_A2VQ9mjHN6_4N8sRH0i-dQKt3EYrDNfxTHt23LwRa7oZO_z-2U3T4_eCJg1itO46qDTY1YQbMGJypQ_p0YCwqbEZY5VX8RxXYvPJeSaA56WMeYrIY-1Phx6cPHSI71Y_bTBvYvVITv_DTiJb0xonvYg-MMDzs1Vf-BADd6wBhbtqBTTFAq6gNylm40]--></g></svg>