<svg xmlns="http://www.w3.org/2000/svg" xmlns:xlink="http://www.w3.org/1999/xlink" contentStyleType="text/css" data-diagram-type="STATE" height="792px" preserveAspectRatio="none" style="width:1074px;height:792px;background:#FFFFFF;" version="1.1" viewBox="0 0 1074 792" width="1074px" zoomAndPan="magnify"><defs/><g><g id="RESPUESTAS_ABIERTO2"><rect fill="#F1F1F1" height="50" rx="12.5" ry="12.5" style="stroke:#181818;stroke-width:0.5;" width="179.3525" x="7" y="736"/><line style="stroke:#181818;stroke-width:0.5;" x1="7" x2="186.3525" y1="762.2969" y2="762.2969"/><text fill="#000000" font-family="sans-serif" font-size="14" lengthAdjust="spacing" textLength="159.3525" x="17" y="753.9951">RESPUESTAS_ABIERTO</text></g><g id="RESPUESTAS_ABIERTO3"><rect fill="#F1F1F1" height="50" rx="12.5" ry="12.5" style="stroke:#181818;stroke-width:0.5;" width="179.3525" x="221" y="736"/><line style="stroke:#181818;stroke-width:0.5;" x1="221" x2="400.3525" y1="762.2969" y2="762.2969"/><text fill="#000000" font-family="sans-serif" font-size="14" lengthAdjust="spacing" textLength="159.3525" x="231" y="753.9951">RESPUESTAS_ABIERTO</text></g><g id="RESPUESTAS_CONTEXTUALES_ABIERTO2"><rect fill="#F1F1F1" height="50" rx="12.5" ry="12.5" style="stroke:#181818;stroke-width:0.5;" width="298.5166" x="435" y="736"/><line style="stroke:#181818;stroke-width:0.5;" x1="435" x2="733.5166" y1="762.2969" y2="762.2969"/><text fill="#000000" font-family="sans-serif" font-size="14" lengthAdjust="spacing" textLength="278.5166" x="445" y="753.9951">RESPUESTAS_CONTEXTUALES_ABIERTO</text></g><g id="RESPUESTAS_CONTEXTUALES_ABIERTO3"><rect fill="#F1F1F1" height="50" rx="12.5" ry="12.5" style="stroke:#181818;stroke-width:0.5;" width="298.5166" x="769" y="736"/><line style="stroke:#181818;stroke-width:0.5;" x1="769" x2="1067.5166" y1="762.2969" y2="762.2969"/><text fill="#000000" font-family="sans-serif" font-size="14" lengthAdjust="spacing" textLength="278.5166" x="779" y="753.9951">RESPUESTAS_CONTEXTUALES_ABIERTO</text></g><path d="M236,118 L659,118 A12.5,12.5 0 0 1 671.5,130.5 L671.5,144.2969 L223.5,144.2969 L223.5,130.5 A12.5,12.5 0 0 1 236,118" fill="#F1F1F1"/><rect fill="none" height="523.2969" rx="12.5" ry="12.5" style="stroke:#181818;stroke-width:0.5;" width="448" x="223.5" y="118"/><line style="stroke:#181818;stroke-width:0.5;" x1="223.5" x2="671.5" y1="144.2969" y2="144.2969"/><text fill="#000000" font-family="sans-serif" font-size="14" lengthAdjust="spacing" textLength="141.4219" x="376.7891" y="135.9951">eliminarRespuesta()</text><g id="eliminarRespuesta.ConfirmandoEliminacion"><rect fill="#F1F1F1" height="50" rx="12.5" ry="12.5" style="stroke:#181818;stroke-width:0.5;" width="50" x="235.5" y="246.2969"/><line style="stroke:#181818;stroke-width:0.5;" x1="235.5" x2="285.5" y1="272.5938" y2="272.5938"/><text fill="#000000" font-family="sans-serif" font-size="14" lengthAdjust="spacing" textLength="4.4502" x="258.2749" y="264.292">&#160;</text></g><g id="eliminarRespuesta.EliminandoRespuesta"><rect fill="#F1F1F1" height="50" rx="12.5" ry="12.5" style="stroke:#181818;stroke-width:0.5;" width="50" x="235.5" y="473.2969"/><line style="stroke:#181818;stroke-width:0.5;" x1="235.5" x2="285.5" y1="499.5938" y2="499.5938"/><text fill="#000000" font-family="sans-serif" font-size="14" lengthAdjust="spacing" textLength="4.4502" x="258.2749" y="491.292">&#160;</text></g><ellipse cx="260.5" cy="165.2969" fill="#222222" rx="10" ry="10" style="stroke:#222222;stroke-width:1;"/><ellipse cx="260.5" cy="620.2969" fill="none" rx="11" ry="11" style="stroke:#222222;stroke-width:1;"/><ellipse cx="260.5" cy="620.2969" fill="#222222" rx="6" ry="6" style="stroke:#222222;stroke-width:1;"/><!--link *start*eliminarRespuesta to ConfirmandoEliminacion--><g class="link" data-entity-1=".start.eliminarRespuesta" data-entity-2="ConfirmandoEliminacion" data-source-line="13" data-uid="lnk3" id="link_.start.eliminarRespuesta_ConfirmandoEliminacion"><path d="M260.5,175.5269 C260.5,191.2369 260.5,217.6569 260.5,240.1669" fill="none" id="*start*eliminarRespuesta-to-ConfirmandoEliminacion" style="stroke:#008000;stroke-width:1;"/><polygon fill="#008000" points="260.5,246.1669,264.5,237.1669,260.5,241.1669,256.5,237.1669,260.5,246.1669" style="stroke:#008000;stroke-width:1;"/><path d="M265.5,198.2969 L265.5,223.2969 L522.5,223.2969 L522.5,208.2969 L512.5,198.2969 L265.5,198.2969" fill="#FEFFDD" style="stroke:#181818;stroke-width:0.5;"/><path d="M512.5,198.2969 L512.5,208.2969 L522.5,208.2969 L512.5,198.2969" fill="#FEFFDD" style="stroke:#181818;stroke-width:0.5;"/><text fill="#000000" font-family="sans-serif" font-size="13" font-weight="bold" lengthAdjust="spacing" textLength="60.5313" x="271.5" y="215.3638">Docente</text><text fill="#000000" font-family="sans-serif" font-size="13" lengthAdjust="spacing" textLength="171.5264" x="336.1636" y="215.3638">solicita eliminar respuesta</text></g><!--link ConfirmandoEliminacion to EliminandoRespuesta--><g class="link" data-entity-1="ConfirmandoEliminacion" data-entity-2="EliminandoRespuesta" data-source-line="18" data-uid="lnk4" id="link_ConfirmandoEliminacion_EliminandoRespuesta"><path d="M260.5,296.3769 C260.5,339.5669 260.5,423.7369 260.5,467.0469" fill="none" id="ConfirmandoEliminacion-to-EliminandoRespuesta" style="stroke:#008000;stroke-width:1;"/><polygon fill="#008000" points="260.5,473.0469,264.5,464.0469,260.5,468.0469,256.5,464.0469,260.5,473.0469" style="stroke:#008000;stroke-width:1;"/><path d="M265.5,319.2969 L265.5,450.2969 L662.5,450.2969 L662.5,329.2969 L652.5,319.2969 L265.5,319.2969" fill="#FEFFDD" style="stroke:#181818;stroke-width:0.5;"/><path d="M652.5,319.2969 L652.5,329.2969 L662.5,329.2969 L652.5,319.2969" fill="#FEFFDD" style="stroke:#181818;stroke-width:0.5;"/><text fill="#000000" font-family="sans-serif" font-size="13" font-weight="bold" lengthAdjust="spacing" textLength="58.9063" x="271.5" y="336.3638">Sistema</text><text fill="#000000" font-family="sans-serif" font-size="13" lengthAdjust="spacing" textLength="313.0537" x="334.5386" y="336.3638">presenta informaci&#243;n de la respuesta a eliminar</text><text fill="#000000" font-family="sans-serif" font-size="13" lengthAdjust="spacing" textLength="78.2222" x="271.5" y="351.4966">&#8226; Contenido</text><text fill="#000000" font-family="sans-serif" font-size="13" lengthAdjust="spacing" textLength="137.96" x="271.5" y="366.6294">&#8226; Correcta/incorrecta</text><text fill="#000000" font-family="sans-serif" font-size="13" lengthAdjust="spacing" textLength="4.1323" x="271.5" y="381.7622">&#160;</text><text fill="#000000" font-family="sans-serif" font-size="13" lengthAdjust="spacing" textLength="4.1323" x="271.5" y="396.895">&#160;</text><text fill="#000000" font-family="sans-serif" font-size="13" lengthAdjust="spacing" textLength="249.6724" x="271.5" y="412.0278">&#8226; Presenta advertencia de eliminaci&#243;n</text><text fill="#000000" font-family="sans-serif" font-size="13" lengthAdjust="spacing" textLength="263.3706" x="271.5" y="427.1606">&#8226; Permite solicitar confirmar eliminaci&#243;n</text><text fill="#000000" font-family="sans-serif" font-size="13" lengthAdjust="spacing" textLength="255.9438" x="271.5" y="442.2935">&#8226; Permite solicitar cancelar eliminaci&#243;n</text></g><!--link EliminandoRespuesta to *end*eliminarRespuesta--><g class="link" data-entity-1="EliminandoRespuesta" data-entity-2=".end.eliminarRespuesta" data-source-line="30" data-uid="lnk6" id="link_EliminandoRespuesta_.end.eliminarRespuesta"><path d="M260.5,523.5769 C260.5,549.8769 260.5,584.5669 260.5,603.2769" fill="none" id="EliminandoRespuesta-to-*end*eliminarRespuesta" style="stroke:#008000;stroke-width:1;"/><polygon fill="#008000" points="260.5,609.2769,264.5,600.2769,260.5,604.2769,256.5,600.2769,260.5,609.2769" style="stroke:#008000;stroke-width:1;"/><path d="M265.5,546.2969 L265.5,586.2969 L584.5,586.2969 L584.5,556.2969 L574.5,546.2969 L265.5,546.2969" fill="#FEFFDD" style="stroke:#181818;stroke-width:0.5;"/><path d="M574.5,546.2969 L574.5,556.2969 L584.5,556.2969 L574.5,546.2969" fill="#FEFFDD" style="stroke:#181818;stroke-width:0.5;"/><text fill="#000000" font-family="sans-serif" font-size="13" font-weight="bold" lengthAdjust="spacing" textLength="60.5313" x="271.5" y="563.3638">Docente</text><text fill="#000000" font-family="sans-serif" font-size="13" lengthAdjust="spacing" textLength="233.5303" x="336.1636" y="563.3638">solicita confirmaci&#243;n de eliminaci&#243;n</text><text fill="#000000" font-family="sans-serif" font-size="13" font-weight="bold" lengthAdjust="spacing" textLength="58.9063" x="271.5" y="578.4966">Sistema</text><text fill="#000000" font-family="sans-serif" font-size="13" lengthAdjust="spacing" textLength="136.2905" x="334.5386" y="578.4966">confirma eliminaci&#243;n</text></g><g id="RESPUESTAS_ABIERTO"><rect fill="#F1F1F1" height="50" rx="12.5" ry="12.5" style="stroke:#181818;stroke-width:0.5;" width="179.3525" x="221" y="7"/><line style="stroke:#181818;stroke-width:0.5;" x1="221" x2="400.3525" y1="33.2969" y2="33.2969"/><text fill="#000000" font-family="sans-serif" font-size="14" lengthAdjust="spacing" textLength="159.3525" x="231" y="24.9951">RESPUESTAS_ABIERTO</text></g><g id="RESPUESTAS_CONTEXTUALES_ABIERTO"><rect fill="#F1F1F1" height="50" rx="12.5" ry="12.5" style="stroke:#181818;stroke-width:0.5;" width="298.5166" x="435" y="7"/><line style="stroke:#181818;stroke-width:0.5;" x1="435" x2="733.5166" y1="33.2969" y2="33.2969"/><text fill="#000000" font-family="sans-serif" font-size="14" lengthAdjust="spacing" textLength="278.5166" x="445" y="24.9951">RESPUESTAS_CONTEXTUALES_ABIERTO</text></g><!--link RESPUESTAS_ABIERTO to eliminarRespuesta--><g class="link" data-entity-1="RESPUESTAS_ABIERTO" data-entity-2="eliminarRespuesta" data-source-line="37" data-uid="lnk8" id="link_RESPUESTAS_ABIERTO_eliminarRespuesta"><path d="M320.02,57.02 C326,72.09 332.1882,87.6925 341.8482,112.0525" fill="none" id="RESPUESTAS_ABIERTO-to-eliminarRespuesta" style="stroke:#008000;stroke-width:1;"/><polygon fill="#008000" points="344.06,117.63,344.4607,107.7893,342.2169,112.9821,337.0241,110.7383,344.06,117.63" style="stroke:#008000;stroke-width:1;"/></g><!--link RESPUESTAS_CONTEXTUALES_ABIERTO to eliminarRespuesta--><g class="link" data-entity-1="RESPUESTAS_CONTEXTUALES_ABIERTO" data-entity-2="eliminarRespuesta" data-source-line="38" data-uid="lnk10" id="link_RESPUESTAS_CONTEXTUALES_ABIERTO_eliminarRespuesta"><path d="M574.98,57.02 C569,72.09 562.8118,87.6925 553.1518,112.0525" fill="none" id="RESPUESTAS_CONTEXTUALES_ABIERTO-to-eliminarRespuesta" style="stroke:#008000;stroke-width:1;"/><polygon fill="#008000" points="550.94,117.63,557.9759,110.7383,552.7831,112.9821,550.5393,107.7893,550.94,117.63" style="stroke:#008000;stroke-width:1;"/></g><!--link eliminarRespuesta to RESPUESTAS_ABIERTO2--><g class="link" data-entity-1="eliminarRespuesta" data-entity-2="RESPUESTAS_ABIERTO2" data-source-line="40" data-uid="lnk11" id="link_eliminarRespuesta_RESPUESTAS_ABIERTO2"><path d="M223.47,622.72 C180.67,668.99 146.1338,706.335 123.0138,731.335" fill="none" id="eliminarRespuesta-to-RESPUESTAS_ABIERTO2" style="stroke:#008000;stroke-width:1;"/><polygon fill="#008000" points="118.94,735.74,127.9874,731.8483,122.3348,732.0691,122.114,726.4166,118.94,735.74" style="stroke:#008000;stroke-width:1;"/><path d="M177.5,676 L177.5,701 L303.5,701 L303.5,686 L293.5,676 L177.5,676" fill="#FEFFDD" style="stroke:#181818;stroke-width:0.5;"/><path d="M293.5,676 L293.5,686 L303.5,686 L293.5,676" fill="#FEFFDD" style="stroke:#181818;stroke-width:0.5;"/><text fill="#000000" font-family="sans-serif" font-size="13" lengthAdjust="spacing" textLength="105.8408" x="183.5" y="693.0669">lista actualizada</text></g><!--link eliminarRespuesta to RESPUESTAS_CONTEXTUALES_ABIERTO2--><g class="link" data-entity-1="eliminarRespuesta" data-entity-2="RESPUESTAS_CONTEXTUALES_ABIERTO2" data-source-line="45" data-uid="lnk12" id="link_eliminarRespuesta_RESPUESTAS_CONTEXTUALES_ABIERTO2"><path d="M541.62,641.23 C555.6,679.96 565.8807,708.4372 573.6907,730.0472" fill="none" id="eliminarRespuesta-to-RESPUESTAS_CONTEXTUALES_ABIERTO2" style="stroke:#008000;stroke-width:1;"/><polygon fill="#008000" points="575.73,735.69,576.4328,725.8663,574.0305,730.9877,568.9091,728.5854,575.73,735.69" style="stroke:#008000;stroke-width:1;"/><path d="M569.5,676 L569.5,701 L695.5,701 L695.5,686 L685.5,676 L569.5,676" fill="#FEFFDD" style="stroke:#181818;stroke-width:0.5;"/><path d="M685.5,676 L685.5,686 L695.5,686 L685.5,676" fill="#FEFFDD" style="stroke:#181818;stroke-width:0.5;"/><text fill="#000000" font-family="sans-serif" font-size="13" lengthAdjust="spacing" textLength="105.8408" x="575.5" y="693.0669">lista actualizada</text></g><!--link eliminarRespuesta to RESPUESTAS_ABIERTO3--><g class="link" data-entity-1="eliminarRespuesta" data-entity-2="RESPUESTAS_ABIERTO3" data-source-line="50" data-uid="lnk13" id="link_eliminarRespuesta_RESPUESTAS_ABIERTO3"><path d="M353.38,641.23 C339.4,679.96 329.1193,708.4372 321.3093,730.0472" fill="none" id="eliminarRespuesta-to-RESPUESTAS_ABIERTO3" style="stroke:#0000FF;stroke-width:1;"/><polygon fill="#0000FF" points="319.27,735.69,326.0909,728.5854,320.9695,730.9877,318.5672,725.8663,319.27,735.69" style="stroke:#0000FF;stroke-width:1;"/><path d="M345.5,676 L345.5,701 L500.5,701 L500.5,686 L490.5,676 L345.5,676" fill="#FEFFDD" style="stroke:#181818;stroke-width:0.5;"/><path d="M490.5,676 L490.5,686 L500.5,686 L490.5,676" fill="#FEFFDD" style="stroke:#181818;stroke-width:0.5;"/><text fill="#000000" font-family="sans-serif" font-size="13" lengthAdjust="spacing" textLength="134.2085" x="351.5" y="693.0669">cancelar eliminaci&#243;n</text></g><!--link eliminarRespuesta to RESPUESTAS_CONTEXTUALES_ABIERTO3--><g class="link" data-entity-1="eliminarRespuesta" data-entity-2="RESPUESTAS_CONTEXTUALES_ABIERTO3" data-source-line="55" data-uid="lnk14" id="link_eliminarRespuesta_RESPUESTAS_CONTEXTUALES_ABIERTO3"><path d="M671.62,561.08 C756.76,629.68 839.2078,696.1056 883.6778,731.9356" fill="none" id="eliminarRespuesta-to-RESPUESTAS_CONTEXTUALES_ABIERTO3" style="stroke:#0000FF;stroke-width:1;"/><polygon fill="#0000FF" points="888.35,735.7,883.8514,726.9386,884.4565,732.563,878.8321,733.1681,888.35,735.7" style="stroke:#0000FF;stroke-width:1;"/><path d="M854.5,676 L854.5,701 L1009.5,701 L1009.5,686 L999.5,676 L854.5,676" fill="#FEFFDD" style="stroke:#181818;stroke-width:0.5;"/><path d="M999.5,676 L999.5,686 L1009.5,686 L999.5,676" fill="#FEFFDD" style="stroke:#181818;stroke-width:0.5;"/><text fill="#000000" font-family="sans-serif" font-size="13" lengthAdjust="spacing" textLength="134.2085" x="860.5" y="693.0669">cancelar eliminaci&#243;n</text></g><!--SRC=[fLJTIiCm5BxFKuHvey8OkDincBCNWhYnTY2C8Lbw9eUbIKaxOOhWi_WAFe9lufEO_gyscnssD-t9-NvoJawY3SgGQHPGWHBYNGWqL6AN_10InIm6EdFSwTnnlP7xEBg-TMRUv8goY7QQySv1HByzOZovzvm7RpwwSmuBsf9QSlNRSULa8310oVGCed0B9fQY6z7pYmvz9OIQ9yDrp6ionqgkKGTC-ih9C1oLRERbYoQjfCpO5fTBsbsSFMa0kUmEZn5APVYKJ1gvIGE3rV16SP0n37gh8OsKG8vc1uLxgakj91sadt9amdQXcXURwKD6N8nY25Xg93IwnXMZADVAI73y-fJK1ofOPObMFbEEx_UFn5CC4dsr5z4QUCnwA7d-IKYvEYs4cFyCsa0viaG7YWqPtIePT836U54cJNbU0jqQm2G7OSklrzPIk5fXJTDFwsZXjAnamy2l5XI08qxV26dEQyrcOmh87rFr1veqXsqVOBc7IAr20jDpm-Cj4_Z2V4QgihUcjbu__zHPYItOTz2lCziFqEdirdll5AaV]--></g></svg>