<svg xmlns="http://www.w3.org/2000/svg" xmlns:xlink="http://www.w3.org/1999/xlink" contentStyleType="text/css" data-diagram-type="STATE" height="792px" preserveAspectRatio="none" style="width:612px;height:792px;background:#FFFFFF;" version="1.1" viewBox="0 0 612 792" width="612px" zoomAndPan="magnify"><defs/><g><g id="GRADO_ABIERTO"><rect fill="#F1F1F1" height="50" rx="12.5" ry="12.5" style="stroke:#181818;stroke-width:0.5;" width="140.4082" x="105.5" y="7"/><line style="stroke:#181818;stroke-width:0.5;" x1="105.5" x2="245.9082" y1="33.2969" y2="33.2969"/><text fill="#000000" font-family="sans-serif" font-size="14" lengthAdjust="spacing" textLength="120.4082" x="115.5" y="24.9951">GRADO_ABIERTO</text></g><g id="GRADOS_ABIERTO2"><rect fill="#F1F1F1" height="50" rx="12.5" ry="12.5" style="stroke:#181818;stroke-width:0.5;" width="149.2949" x="7" y="736"/><line style="stroke:#181818;stroke-width:0.5;" x1="7" x2="156.2949" y1="762.2969" y2="762.2969"/><text fill="#000000" font-family="sans-serif" font-size="14" lengthAdjust="spacing" textLength="129.2949" x="17" y="753.9951">GRADOS_ABIERTO</text></g><g id="GRADOS_ABIERTO3"><rect fill="#F1F1F1" height="50" rx="12.5" ry="12.5" style="stroke:#181818;stroke-width:0.5;" width="149.2949" x="191" y="736"/><line style="stroke:#181818;stroke-width:0.5;" x1="191" x2="340.2949" y1="762.2969" y2="762.2969"/><text fill="#000000" font-family="sans-serif" font-size="14" lengthAdjust="spacing" textLength="129.2949" x="201" y="753.9951">GRADOS_ABIERTO</text></g><g id="GRADOS_ABIERTO4"><rect fill="#F1F1F1" height="50" rx="12.5" ry="12.5" style="stroke:#181818;stroke-width:0.5;" width="149.2949" x="396" y="736"/><line style="stroke:#181818;stroke-width:0.5;" x1="396" x2="545.2949" y1="762.2969" y2="762.2969"/><text fill="#000000" font-family="sans-serif" font-size="14" lengthAdjust="spacing" textLength="129.2949" x="406" y="753.9951">GRADOS_ABIERTO</text></g><path d="M73.5,118 L457.5,118 A12.5,12.5 0 0 1 470,130.5 L470,144.2969 L61,144.2969 L61,130.5 A12.5,12.5 0 0 1 73.5,118" fill="#F1F1F1"/><rect fill="none" height="523.2969" rx="12.5" ry="12.5" style="stroke:#181818;stroke-width:0.5;" width="409" x="61" y="118"/><line style="stroke:#181818;stroke-width:0.5;" x1="61" x2="470" y1="144.2969" y2="144.2969"/><text fill="#000000" font-family="sans-serif" font-size="14" lengthAdjust="spacing" textLength="110.6875" x="210.1563" y="135.9951">eliminarGrado()</text><g id="eliminarGrado.ConfirmandoEliminacion"><rect fill="#F1F1F1" height="50" rx="12.5" ry="12.5" style="stroke:#181818;stroke-width:0.5;" width="50" x="73" y="246.2969"/><line style="stroke:#181818;stroke-width:0.5;" x1="73" x2="123" y1="272.5938" y2="272.5938"/><text fill="#000000" font-family="sans-serif" font-size="14" lengthAdjust="spacing" textLength="4.4502" x="95.7749" y="264.292">&#160;</text></g><g id="eliminarGrado.EliminandoGrado"><rect fill="#F1F1F1" height="50" rx="12.5" ry="12.5" style="stroke:#181818;stroke-width:0.5;" width="50" x="73" y="473.2969"/><line style="stroke:#181818;stroke-width:0.5;" x1="73" x2="123" y1="499.5938" y2="499.5938"/><text fill="#000000" font-family="sans-serif" font-size="14" lengthAdjust="spacing" textLength="4.4502" x="95.7749" y="491.292">&#160;</text></g><ellipse cx="98" cy="165.2969" fill="#222222" rx="10" ry="10" style="stroke:#222222;stroke-width:1;"/><ellipse cx="98" cy="620.2969" fill="none" rx="11" ry="11" style="stroke:#222222;stroke-width:1;"/><ellipse cx="98" cy="620.2969" fill="#222222" rx="6" ry="6" style="stroke:#222222;stroke-width:1;"/><!--link *start*eliminarGrado to ConfirmandoEliminacion--><g class="link" data-entity-1=".start.eliminarGrado" data-entity-2="ConfirmandoEliminacion" data-source-line="13" data-uid="lnk3" id="link_.start.eliminarGrado_ConfirmandoEliminacion"><path d="M98,175.5269 C98,191.2369 98,217.6569 98,240.1669" fill="none" id="*start*eliminarGrado-to-ConfirmandoEliminacion" style="stroke:#008000;stroke-width:1;"/><polygon fill="#008000" points="98,246.1669,102,237.1669,98,241.1669,94,237.1669,98,246.1669" style="stroke:#008000;stroke-width:1;"/><path d="M103,198.2969 L103,223.2969 L333,223.2969 L333,208.2969 L323,198.2969 L103,198.2969" fill="#FEFFDD" style="stroke:#181818;stroke-width:0.5;"/><path d="M323,198.2969 L323,208.2969 L333,208.2969 L323,198.2969" fill="#FEFFDD" style="stroke:#181818;stroke-width:0.5;"/><text fill="#000000" font-family="sans-serif" font-size="13" font-weight="bold" lengthAdjust="spacing" textLength="60.5313" x="109" y="215.3638">Docente</text><text fill="#000000" font-family="sans-serif" font-size="13" lengthAdjust="spacing" textLength="144.8535" x="173.6636" y="215.3638">solicita eliminar grado</text></g><!--link ConfirmandoEliminacion to EliminandoGrado--><g class="link" data-entity-1="ConfirmandoEliminacion" data-entity-2="EliminandoGrado" data-source-line="18" data-uid="lnk4" id="link_ConfirmandoEliminacion_EliminandoGrado"><path d="M98,296.3769 C98,339.5669 98,423.7369 98,467.0469" fill="none" id="ConfirmandoEliminacion-to-EliminandoGrado" style="stroke:#008000;stroke-width:1;"/><polygon fill="#008000" points="98,473.0469,102,464.0469,98,468.0469,94,464.0469,98,473.0469" style="stroke:#008000;stroke-width:1;"/><path d="M103,319.2969 L103,450.2969 L461,450.2969 L461,329.2969 L451,319.2969 L103,319.2969" fill="#FEFFDD" style="stroke:#181818;stroke-width:0.5;"/><path d="M451,319.2969 L451,329.2969 L461,329.2969 L451,319.2969" fill="#FEFFDD" style="stroke:#181818;stroke-width:0.5;"/><text fill="#000000" font-family="sans-serif" font-size="13" font-weight="bold" lengthAdjust="spacing" textLength="58.9063" x="109" y="336.3638">Sistema</text><text fill="#000000" font-family="sans-serif" font-size="13" lengthAdjust="spacing" textLength="274.2822" x="172.0386" y="336.3638">presenta informaci&#243;n del grado a eliminar</text><text fill="#000000" font-family="sans-serif" font-size="13" lengthAdjust="spacing" textLength="63.7368" x="109" y="351.4966">&#8226; Nombre</text><text fill="#000000" font-family="sans-serif" font-size="13" lengthAdjust="spacing" textLength="56.9004" x="109" y="366.6294">&#8226; C&#243;digo</text><text fill="#000000" font-family="sans-serif" font-size="13" lengthAdjust="spacing" textLength="138.582" x="109" y="381.7622">&#8226; Alumnos enlistados</text><text fill="#000000" font-family="sans-serif" font-size="13" lengthAdjust="spacing" textLength="4.1323" x="109" y="396.895">&#160;</text><text fill="#000000" font-family="sans-serif" font-size="13" lengthAdjust="spacing" textLength="249.6724" x="109" y="412.0278">&#8226; Presenta advertencia de eliminaci&#243;n</text><text fill="#000000" font-family="sans-serif" font-size="13" lengthAdjust="spacing" textLength="263.3706" x="109" y="427.1606">&#8226; Permite solicitar confirmar eliminaci&#243;n</text><text fill="#000000" font-family="sans-serif" font-size="13" lengthAdjust="spacing" textLength="255.9438" x="109" y="442.2935">&#8226; Permite solicitar cancelar eliminaci&#243;n</text></g><!--link EliminandoGrado to *end*eliminarGrado--><g class="link" data-entity-1="EliminandoGrado" data-entity-2=".end.eliminarGrado" data-source-line="30" data-uid="lnk6" id="link_EliminandoGrado_.end.eliminarGrado"><path d="M98,523.5769 C98,549.8769 98,584.5669 98,603.2769" fill="none" id="EliminandoGrado-to-*end*eliminarGrado" style="stroke:#008000;stroke-width:1;"/><polygon fill="#008000" points="98,609.2769,102,600.2769,98,604.2769,94,600.2769,98,609.2769" style="stroke:#008000;stroke-width:1;"/><path d="M103,546.2969 L103,586.2969 L422,586.2969 L422,556.2969 L412,546.2969 L103,546.2969" fill="#FEFFDD" style="stroke:#181818;stroke-width:0.5;"/><path d="M412,546.2969 L412,556.2969 L422,556.2969 L412,546.2969" fill="#FEFFDD" style="stroke:#181818;stroke-width:0.5;"/><text fill="#000000" font-family="sans-serif" font-size="13" font-weight="bold" lengthAdjust="spacing" textLength="60.5313" x="109" y="563.3638">Docente</text><text fill="#000000" font-family="sans-serif" font-size="13" lengthAdjust="spacing" textLength="233.5303" x="173.6636" y="563.3638">solicita confirmaci&#243;n de eliminaci&#243;n</text><text fill="#000000" font-family="sans-serif" font-size="13" font-weight="bold" lengthAdjust="spacing" textLength="58.9063" x="109" y="578.4966">Sistema</text><text fill="#000000" font-family="sans-serif" font-size="13" lengthAdjust="spacing" textLength="136.2905" x="172.0386" y="578.4966">confirma eliminaci&#243;n</text></g><g id="GRADOS_ABIERTO"><rect fill="#F1F1F1" height="50" rx="12.5" ry="12.5" style="stroke:#181818;stroke-width:0.5;" width="149.2949" x="281" y="7"/><line style="stroke:#181818;stroke-width:0.5;" x1="281" x2="430.2949" y1="33.2969" y2="33.2969"/><text fill="#000000" font-family="sans-serif" font-size="14" lengthAdjust="spacing" textLength="129.2949" x="291" y="24.9951">GRADOS_ABIERTO</text></g><!--link GRADOS_ABIERTO to eliminarGrado--><g class="link" data-entity-1="GRADOS_ABIERTO" data-entity-2="eliminarGrado" data-source-line="37" data-uid="lnk8" id="link_GRADOS_ABIERTO_eliminarGrado"><path d="M349.24,57.02 C345.32,72.09 341.3135,87.464 334.9635,111.824" fill="none" id="GRADOS_ABIERTO-to-eliminarGrado" style="stroke:#008000;stroke-width:1;"/><polygon fill="#008000" points="333.45,117.63,339.5909,109.93,334.7112,112.7917,331.8495,107.9121,333.45,117.63" style="stroke:#008000;stroke-width:1;"/></g><!--link GRADO_ABIERTO to eliminarGrado--><g class="link" data-entity-1="GRADO_ABIERTO" data-entity-2="eliminarGrado" data-source-line="38" data-uid="lnk9" id="link_GRADO_ABIERTO_eliminarGrado"><path d="M181.76,57.02 C185.68,72.09 189.6865,87.464 196.0365,111.824" fill="none" id="GRADO_ABIERTO-to-eliminarGrado" style="stroke:#008000;stroke-width:1;"/><polygon fill="#008000" points="197.55,117.63,199.1505,107.9121,196.2888,112.7917,191.4091,109.93,197.55,117.63" style="stroke:#008000;stroke-width:1;"/></g><!--link eliminarGrado to GRADOS_ABIERTO2--><g class="link" data-entity-1="eliminarGrado" data-entity-2="GRADOS_ABIERTO2" data-source-line="40" data-uid="lnk10" id="link_eliminarGrado_GRADOS_ABIERTO2"><path d="M133.68,641.01 C124.33,659.47 118.5,671 118.5,671 C118.5,671 104.8743,703.7901 93.9143,730.1401" fill="none" id="eliminarGrado-to-GRADOS_ABIERTO2" style="stroke:#008000;stroke-width:1;"/><polygon fill="#008000" points="91.61,735.68,98.7596,728.9063,93.5302,731.0634,91.3731,725.834,91.61,735.68" style="stroke:#008000;stroke-width:1;"/><path d="M123.5,676 L123.5,701 L249.5,701 L249.5,686 L239.5,676 L123.5,676" fill="#FEFFDD" style="stroke:#181818;stroke-width:0.5;"/><path d="M239.5,676 L239.5,686 L249.5,686 L239.5,676" fill="#FEFFDD" style="stroke:#181818;stroke-width:0.5;"/><text fill="#000000" font-family="sans-serif" font-size="13" lengthAdjust="spacing" textLength="105.8408" x="129.5" y="693.0669">lista actualizada</text></g><!--link eliminarGrado to GRADOS_ABIERTO3--><g class="link" data-entity-1="eliminarGrado" data-entity-2="GRADOS_ABIERTO3" data-source-line="45" data-uid="lnk11" id="link_eliminarGrado_GRADOS_ABIERTO3"><path d="M262.81,641.01 C262.62,659.47 262.5,671 262.5,671 C262.5,671 262.5,706 262.5,706 C262.5,706 263.0265,715.4793 263.8265,729.8493" fill="none" id="eliminarGrado-to-GRADOS_ABIERTO3" style="stroke:#0000FF;stroke-width:1;"/><polygon fill="#0000FF" points="264.16,735.84,267.6535,726.6316,263.8821,730.8477,259.6659,727.0763,264.16,735.84" style="stroke:#0000FF;stroke-width:1;"/><path d="M267.5,676 L267.5,701 L422.5,701 L422.5,686 L412.5,676 L267.5,676" fill="#FEFFDD" style="stroke:#181818;stroke-width:0.5;"/><path d="M412.5,676 L412.5,686 L422.5,686 L412.5,676" fill="#FEFFDD" style="stroke:#181818;stroke-width:0.5;"/><text fill="#000000" font-family="sans-serif" font-size="13" lengthAdjust="spacing" textLength="134.2085" x="273.5" y="693.0669">cancelar eliminaci&#243;n</text></g><!--link eliminarGrado to GRADOS_ABIERTO4--><g class="link" data-entity-1="eliminarGrado" data-entity-2="GRADOS_ABIERTO4" data-source-line="50" data-uid="lnk12" id="link_eliminarGrado_GRADOS_ABIERTO4"><path d="M414.36,641.01 C424.91,659.47 431.5,671 431.5,671 C431.5,671 445.893,703.834 457.433,730.184" fill="none" id="eliminarGrado-to-GRADOS_ABIERTO4" style="stroke:#0000FF;stroke-width:1;"/><polygon fill="#0000FF" points="459.84,735.68,459.8935,725.8313,457.8342,731.1,452.5655,729.0406,459.84,735.68" style="stroke:#0000FF;stroke-width:1;"/><path d="M450.5,676 L450.5,701 L605.5,701 L605.5,686 L595.5,676 L450.5,676" fill="#FEFFDD" style="stroke:#181818;stroke-width:0.5;"/><path d="M595.5,676 L595.5,686 L605.5,686 L595.5,676" fill="#FEFFDD" style="stroke:#181818;stroke-width:0.5;"/><text fill="#000000" font-family="sans-serif" font-size="13" lengthAdjust="spacing" textLength="134.2085" x="456.5" y="693.0669">cancelar eliminaci&#243;n</text></g><!--SRC=[bLF1Qi904BtlLmpffIr8eNeKmQf8BxLeRrBAc8ookDaDcxLWIw7Vqb_m4_oJVadNZObkaeecfvsyUU_jcqowv391ZJ48Bici4u94YVNkm5Xgq10Cnzt-wAtxy3WOluoEQvEyU0-OGk3NWbfaysnagnQvXvBWCPUeXneZvO1UvVecW4_6m3uPFh2lHVMKd7CTeupK8CE7NCagRl_HmXnTnZIzVON6z6gXYUHhetEAJ2hBfUGkqgKhj6UTlWf96chVpJgGAi53Rh2u1ooSpWvACdBzcMYzYEUZRFO_0nEU6ehH6KWqfTOD0fTpPUb3ljr8Y4XaHk3Wp7N_Vl_0aufdcg0uzxQRY2zKSUwALInLQlqBAsH9KbPyUyxbC7edRKY67ArQBkBK3s3ICRVsyv0qXFiGzDaDA4CITNW_tL9qNgnst9VDCdUPPraLBmqXRpZXyeinVmCyYzu_pxmrFO5Z_l8S0qjRpRoxkx42XcQ5WdzWXEmGPeLo9bPKPMpwZFLZkfYrTGdh7m00]--></g></svg>